<svg width="130" height="140" viewBox="0 0 130 140" fill="none" xmlns="http://www.w3.org/2000/svg">
<rect x="0.571601" width="73.263" height="73.263" rx="7.59031" transform="matrix(0.866026 -0.499999 0.866026 0.499999 1.05705 103.324)" fill="#141414" stroke="#0962FF" stroke-width="0.660027"/>
<rect x="0.571601" width="73.263" height="73.263" rx="7.59031" transform="matrix(0.866026 -0.499999 0.866026 0.499999 1.05705 96.0641)" fill="#86B2FF" stroke="#0962FF" stroke-width="0.660027"/>
<rect opacity="0.3" width="40.3846" height="40.3846" rx="3.31361" transform="matrix(0.866026 -0.499999 0.866026 0.499999 30.0254 95.7783)" fill="#141414"/>
<path d="M5.28906 102.697V95.7516C5.28906 96.5216 6.01509 98.4577 8.91921 100.042C11.8233 101.626 12.7694 102.242 12.8794 102.352V109.48L6.93913 105.982C6.62959 105.75 6.06963 105.224 5.67285 104.564C5.33891 104.01 5.28906 103.344 5.28906 102.697Z" fill="#0962FF" stroke="#0962FF" stroke-width="0.660027"/>
<path d="M124.555 95.7516V103.342" stroke="#0962FF" stroke-width="0.660027"/>
<path d="M57.7637 128.423V135.353" stroke="#0962FF" stroke-width="0.660027"/>
<path d="M72.2812 128.093V135.353" stroke="#0962FF" stroke-width="0.660027"/>
<path d="M120.134 103.374V100.702C120.134 100.702 121.874 99.8693 122.774 99.0518C123.524 98.3698 124.32 96.9219 124.625 96.3358C124.657 96.2737 124.754 96.2975 124.754 96.3675V102.194C124.754 103.17 124.65 104.189 124.094 104.992C123.384 106.017 122.232 106.625 121.153 107.248L84.4922 128.423L117.637 107.861C119.189 106.898 120.134 105.201 120.134 103.374Z" fill="#0962FF" stroke="#0962FF" stroke-width="0.660027"/>
<path d="M17.8301 112.384V105.454L23.1103 108.754V115.354L17.8301 112.384Z" fill="#0962FF" stroke="#0962FF" stroke-width="0.660027"/>
<ellipse cx="64.7081" cy="49.642" rx="20.1671" ry="20.1671" fill="white"/>
<path d="M61.9791 2.97287C63.7493 1.95086 65.9302 1.95086 67.7004 2.97287L103.942 23.8967C105.712 24.9187 106.802 26.8074 106.802 28.8515V70.699C106.802 72.7431 105.712 74.6318 103.942 75.6538L67.7004 96.5776C65.9302 97.5996 63.7493 97.5996 61.9791 96.5776L25.738 75.6538C23.9678 74.6318 22.8773 72.7431 22.8773 70.699V28.8515C22.8773 26.8074 23.9678 24.9187 25.738 23.8967L61.9791 2.97287Z" stroke="#0962FF" stroke-width="2.28852"/>
<path d="M27.0766 29.064L61.9763 49.2028" stroke="#0962FF" stroke-width="2.28852" stroke-linecap="round"/>
<path d="M103.173 29.064L68.2737 49.2028" stroke="#0962FF" stroke-width="2.28852" stroke-linecap="round"/>
<path d="M64.8398 52.6357L64.8398 92.6848" stroke="#0962FF" stroke-width="2.28852" stroke-linecap="round"/>
</svg>
