<svg width="176" height="134" viewBox="0 0 176 134" fill="none" xmlns="http://www.w3.org/2000/svg">
<g clip-path="url(#clip0_1237_9612)">
<path d="M158.84 18.7443L161.436 17.2806L161.492 19.0032L158.896 20.467L158.84 18.7443Z" fill="#0962FF"/>
<path d="M148.029 17.5559L150.617 16.0921C150.278 16.285 149.979 16.5415 149.737 16.8475L147.148 18.3113C147.391 18.0046 147.691 17.7481 148.031 17.5559" fill="#86B2FF"/>
<path d="M152.673 23.3097L152.513 23.2909H152.458H152.423L152.341 23.2744H152.317H152.287L152.145 23.2391H152.101H152.077L151.993 23.2132H151.969L151.875 23.1826C151.69 23.1184 151.511 23.0397 151.338 22.9473C151.27 22.912 151.202 22.872 151.134 22.832L150.934 22.7026L150.91 22.6837L150.806 22.6108L150.783 22.592L150.691 22.519L150.637 22.4767L150.557 22.4084L150.51 22.366L150.428 22.2907L150.373 22.2366C150.348 22.2131 150.324 22.1896 150.3 22.1637L150.246 22.1072L150.176 22.0319L150.124 21.973L150.058 21.8954L150.009 21.8342L149.924 21.7259C149.923 21.7213 149.923 21.7165 149.924 21.7118L149.827 21.5777L149.806 21.5471L149.715 21.4083L149.682 21.3518L149.62 21.2506L149.585 21.1847L149.533 21.0882C149.519 21.0647 149.51 21.0411 149.498 21.0176C149.486 20.9941 149.465 20.9541 149.451 20.9211C149.437 20.8882 149.427 20.8717 149.418 20.8482L149.376 20.7517C149.364 20.7234 149.352 20.6952 149.343 20.667C149.329 20.6372 149.317 20.6065 149.307 20.5752C149.296 20.5469 149.286 20.5187 149.277 20.4881L149.242 20.3893C149.242 20.3728 149.242 20.3563 149.225 20.3375C149.209 20.3187 149.202 20.2575 149.192 20.2175L149.176 20.1657C149.164 20.1116 149.15 20.0575 149.138 20.0033C149.137 19.9955 149.137 19.9876 149.138 19.9798C149.126 19.928 149.117 19.8786 149.107 19.8268C149.106 19.8167 149.106 19.8064 149.107 19.7962C149.107 19.7398 149.089 19.6833 149.081 19.6291C149.081 19.6291 149.081 19.608 149.081 19.5986C149.081 19.5421 149.07 19.4832 149.065 19.4268C149.066 19.4221 149.066 19.4173 149.065 19.4126C149.065 19.3491 149.065 19.2879 149.065 19.2267C149.065 19.1655 149.065 19.1467 149.065 19.1067V19.0738C149.065 19.0502 149.065 19.0243 149.065 19.0008C149.065 18.9773 149.065 18.8855 149.065 18.829C149.065 18.8173 149.065 18.8078 149.065 18.7984C149.065 18.7467 149.07 18.6949 149.079 18.6431C149.079 18.6431 149.079 18.6243 149.079 18.6149C149.079 18.5584 149.096 18.5019 149.105 18.4478C149.105 18.4478 149.105 18.4243 149.105 18.4125C149.105 18.3537 149.126 18.2972 149.14 18.2407C149.154 18.1842 149.169 18.1277 149.185 18.0736C149.185 18.0618 149.185 18.0477 149.185 18.036L149.199 17.9936C149.204 17.9721 149.211 17.9509 149.218 17.9301L149.232 17.8853L149.253 17.8265L149.272 17.7771L149.293 17.7206L149.314 17.6712L149.336 17.6218L149.364 17.5606L149.385 17.5135L149.413 17.4547C149.42 17.4401 149.428 17.4259 149.437 17.4123L149.479 17.33L149.498 17.2994L149.562 17.1911C149.587 17.1511 149.613 17.1088 149.642 17.0688L149.66 17.0429L149.752 16.9205C149.995 16.6119 150.296 16.353 150.637 16.158L148.048 17.6218C147.708 17.814 147.408 18.0706 147.166 18.3772L147.076 18.4972C147.069 18.5061 147.063 18.5155 147.058 18.5254C147.029 18.5655 147.001 18.6055 146.975 18.6478L146.909 18.7584L146.893 18.789C146.876 18.8149 146.862 18.8431 146.848 18.869C146.834 18.8949 146.848 18.869 146.848 18.8879L146.834 18.9137L146.806 18.9726L146.785 19.0196L146.756 19.0808V19.1044C146.757 19.113 146.757 19.1216 146.756 19.1302C146.749 19.1463 146.743 19.1628 146.738 19.1797C146.729 19.197 146.722 19.2151 146.716 19.2338C146.716 19.2526 146.702 19.2691 146.698 19.2856C146.694 19.2944 146.69 19.303 146.686 19.3115C146.686 19.3115 146.686 19.3326 146.686 19.3444C146.686 19.3562 146.686 19.3726 146.669 19.3891C146.664 19.4098 146.658 19.4302 146.651 19.4503L146.636 19.495C146.637 19.5005 146.637 19.506 146.636 19.5115C146.636 19.5115 146.636 19.5256 146.636 19.5327C146.622 19.5868 146.606 19.6433 146.594 19.6997C146.582 19.7539 146.571 19.8127 146.561 19.8692C146.56 19.8762 146.56 19.8833 146.561 19.8904C146.561 19.8904 146.561 19.8904 146.561 19.9068C146.561 19.961 146.545 20.0174 146.538 20.0739C146.539 20.0802 146.539 20.0865 146.538 20.0928L146.523 20.2457C146.525 20.2527 146.525 20.2599 146.523 20.2669V20.441V20.5116C146.523 20.5116 146.523 20.5352 146.523 20.5469C146.523 20.5587 146.523 20.6222 146.523 20.6599C146.523 20.7211 146.523 20.7823 146.535 20.8435V20.867C146.535 20.9211 146.547 20.9752 146.554 21.0317C146.554 21.0317 146.554 21.0505 146.554 21.06C146.554 21.0694 146.554 21.0788 146.554 21.0882C146.554 21.1353 146.568 21.1823 146.575 21.227C146.576 21.238 146.576 21.249 146.575 21.26C146.575 21.2788 146.575 21.3 146.575 21.3188C146.575 21.3377 146.587 21.38 146.594 21.4106C146.601 21.4412 146.594 21.4271 146.594 21.4365C146.594 21.4812 146.615 21.5259 146.627 21.5706V21.5965L146.641 21.6506L146.676 21.7683C146.68 21.7867 146.686 21.8048 146.693 21.8224C146.693 21.8224 146.693 21.846 146.693 21.8554L146.716 21.9213C146.716 21.9495 146.735 21.9801 146.747 22.0083L146.782 22.1001L146.815 22.1848L146.827 22.2107C146.827 22.2343 146.848 22.2578 146.858 22.279L146.891 22.3543L146.938 22.4484L146.973 22.5214L147.025 22.6155L147.062 22.6837C147.081 22.7167 147.1 22.7496 147.121 22.7826L147.156 22.8414C147.185 22.8861 147.213 22.9308 147.244 22.9756L147.265 23.0038C147.295 23.0509 147.328 23.0956 147.361 23.1403L147.42 23.2179C147.429 23.2285 147.438 23.2395 147.446 23.2509L147.495 23.3121L147.564 23.3897C147.58 23.4086 147.597 23.4297 147.615 23.4486C147.634 23.4674 147.66 23.5003 147.684 23.5239L147.738 23.5804C147.761 23.6062 147.787 23.6298 147.811 23.6533L147.865 23.7051L147.881 23.7239C147.957 23.7922 148.032 23.858 148.117 23.9192L148.135 23.9357L148.175 23.9663C148.253 24.0275 148.331 24.0863 148.411 24.1428C148.491 24.1993 148.552 24.2346 148.625 24.2769C148.698 24.3193 148.759 24.3546 148.827 24.3875C148.896 24.4205 148.957 24.4534 149.023 24.4817C149.084 24.5099 149.145 24.5334 149.209 24.5593L149.392 24.6229H149.42L149.564 24.6629H149.592L149.724 24.6958H149.747H149.766H149.79L149.87 24.7123H149.905H149.936H149.957C150.009 24.7123 150.063 24.7288 150.115 24.7335L152.673 23.3097Z" fill="#0962FF"/>
<path d="M150.021 23.0485L152.615 21.5848L156.559 24.7147L153.963 26.1784L150.021 23.0485Z" fill="#86B2FF"/>
<path d="M153.953 17.5488L156.542 16.0874C156.698 16.2863 156.842 16.4937 156.975 16.7087L154.386 18.1724C154.254 17.9571 154.11 17.7489 153.955 17.5488" fill="#86B2FF"/>
<path d="M154.383 18.1701L156.971 16.7064C157.15 17.0037 157.308 17.3136 157.442 17.6336L154.875 19.1114C154.741 18.791 154.584 18.481 154.404 18.1842" fill="#86B2FF"/>
<path d="M154.873 19.1114L157.462 17.6476C157.537 17.8265 157.606 18.0077 157.667 18.1936L155.078 19.6574C155.017 19.4715 154.946 19.2903 154.871 19.1114" fill="#86B2FF"/>
<path d="M155.07 19.6454L157.659 18.1816C157.708 18.3275 157.751 18.4758 157.788 18.6241L155.2 20.0878C155.16 19.9372 155.117 19.7913 155.07 19.6454Z" fill="#86B2FF"/>
<path d="M155.199 20.0881L157.788 18.6243C157.821 18.7538 157.851 18.8855 157.877 19.0173L155.289 20.4787C155.263 20.3469 155.235 20.2175 155.202 20.0881" fill="#86B2FF"/>
<path d="M155.287 20.4787L157.876 19.0173C157.899 19.1374 157.918 19.2527 157.935 19.3797L155.346 20.8411C155.329 20.7211 155.311 20.6058 155.287 20.4787Z" fill="#86B2FF"/>
<path d="M153.964 26.1785L156.56 24.7147L152.797 27.1033L150.201 28.5671L153.964 26.1785Z" fill="#0962FF"/>
<path d="M163.483 24.4982C163.051 24.7397 162.566 24.8706 162.071 24.8794H161.8H161.68L161.522 24.8606H161.482C161.419 24.8606 161.358 24.8394 161.296 24.8253L161.181 24.7994C161.087 24.7727 160.993 24.7445 160.899 24.7147L160.788 24.6746L160.649 24.6205H160.623L160.477 24.5546H160.456L160.325 24.4864L160.301 24.4723C160.254 24.4487 160.209 24.4228 160.165 24.3946L160.127 24.3734L160.014 24.3005L159.986 24.2816L159.847 24.1852L159.821 24.164C159.786 24.1381 159.75 24.1122 159.717 24.084L159.642 24.0228L159.574 23.9663L159.501 23.9004L159.433 23.8392L159.379 23.7851C159.355 23.7616 159.329 23.738 159.306 23.7121L159.251 23.6557C159.228 23.6321 159.207 23.6062 159.183 23.5804C159.165 23.5619 159.147 23.5422 159.131 23.5215L159.066 23.4439C159.047 23.4246 159.03 23.4041 159.014 23.3827L158.929 23.2744V23.2603L158.833 23.1262L158.811 23.0956C158.781 23.0509 158.75 23.0038 158.722 22.9567C158.694 22.9097 158.698 22.9191 158.689 22.9026C158.68 22.8861 158.647 22.8344 158.628 22.7991C158.609 22.7638 158.602 22.7543 158.59 22.7332L158.538 22.6367L158.503 22.5661L158.456 22.4696C158.444 22.4461 158.435 22.4202 158.423 22.3966L158.381 22.3002L158.348 22.2154L158.312 22.1237C158.312 22.0954 158.291 22.0672 158.282 22.0366C158.272 22.006 158.258 21.9731 158.249 21.9401C158.239 21.9072 158.237 21.9025 158.232 21.886L158.169 21.7236L158.155 21.6718C158.141 21.6177 158.127 21.5636 158.115 21.5094C158.115 21.5094 158.115 21.493 158.115 21.4859C158.103 21.4341 158.094 21.3847 158.084 21.333C158.085 21.3228 158.085 21.3125 158.084 21.3024C158.084 21.2459 158.065 21.1894 158.058 21.1353C158.058 21.1353 158.058 21.1141 158.058 21.1047C158.058 21.0482 158.044 20.9894 158.039 20.9329V20.9188C158.039 20.8576 158.039 20.794 158.028 20.7329L158.004 20.0528L157.976 19.7068C157.976 19.6315 157.962 19.5586 157.952 19.4833V19.4338C157.954 19.4189 157.954 19.404 157.952 19.3891C157.784 18.1876 157.303 17.0515 156.557 16.0945L156.522 16.0521C156.486 16.0051 156.449 15.958 156.409 15.9133L156.359 15.8521C156.307 15.7909 156.256 15.7321 156.202 15.6732L156.176 15.645C156.129 15.5956 156.082 15.5438 156.032 15.4944L155.976 15.4356L155.846 15.3132L155.811 15.2755L155.787 15.2567L155.769 15.2379L155.649 15.1296L155.625 15.1085C155.543 15.0402 155.463 14.972 155.378 14.9061L155.345 14.8755L155.251 14.8025L155.175 14.7484L155.053 14.6613L155.006 14.6284C154.895 14.5531 154.785 14.4848 154.672 14.4166L154.533 14.3366L154.493 14.3177L154.389 14.2613L154.364 14.2471L154.34 14.2354L154.248 14.1907L154.201 14.1671L154.086 14.1154H154.067L153.933 14.0565L153.893 14.0424L153.796 14.0024H153.782L153.742 13.9859L153.662 13.9577L153.603 13.9389L153.526 13.9106H153.498H153.465L153.389 13.8871L153.328 13.8706L153.253 13.8494H153.215H153.192L153.116 13.8306L153.055 13.8165L152.977 13.7977H152.93H152.916L152.834 13.7812H152.777L152.679 13.7647H152.641L152.559 13.7529H152.504L152.368 13.7365H152.349L152.184 13.7224H152.142H152.041H151.726H151.66H151.58H151.474H151.405H151.389H151.311H151.227L151.133 13.7341L151.048 13.7482H151.036H150.987L150.857 13.7741L150.784 13.7906L150.669 13.8188H150.636L150.57 13.8353L150.528 13.8494L150.375 13.8965H150.356L150.226 13.9412L150.168 13.9341L150.121 13.9506L150.071 13.9718L150.008 13.9977L149.916 14.04L149.857 14.0659L149.758 14.1154C149.742 14.1218 149.726 14.1296 149.711 14.1389L149.565 14.2165L146.977 15.6803C147.024 15.6521 147.071 15.6262 147.12 15.6026L147.167 15.5768L147.268 15.5297L147.325 15.5015L147.419 15.4614L147.48 15.4356L147.579 15.3956L147.624 15.3791L147.753 15.332H147.774L147.925 15.2849L147.967 15.2732L148.066 15.2473L148.184 15.2191L148.254 15.2026L148.384 15.1767L148.447 15.1649L148.532 15.1508L148.624 15.1367H148.709H148.805H148.871H148.979H149.052H149.4H149.532H149.575L149.758 15.1508L149.895 15.1673H149.942L150.031 15.179H150.069L150.172 15.1955H150.224L150.311 15.212L150.368 15.2261L150.45 15.2426L150.509 15.2567L150.587 15.2779L150.645 15.292L150.723 15.3132L150.782 15.332L150.86 15.3555L150.918 15.3744L150.998 15.4003L151.055 15.4214L151.135 15.4497L151.189 15.4709L151.288 15.5085L151.325 15.525L151.46 15.5815H151.481L151.598 15.6356L151.646 15.6591L151.735 15.7038L151.784 15.7297L151.89 15.7838L151.928 15.805C151.975 15.8309 152.022 15.8568 152.067 15.885L152.21 15.9721L152.236 15.9862L152.373 16.0757L152.401 16.0945L152.446 16.1274C152.49 16.1557 152.533 16.1863 152.575 16.2169L152.643 16.2686L152.747 16.3463L152.867 16.4428L153.006 16.5628L153.034 16.5863L153.147 16.6852L153.175 16.7111L153.229 16.7652L153.361 16.8923L153.415 16.9487C153.469 17.0005 153.52 17.0546 153.571 17.1111L153.585 17.1252C153.641 17.1864 153.693 17.2476 153.745 17.3088L153.794 17.3676C153.834 17.4147 153.872 17.4618 153.909 17.5112C154.683 18.4866 155.178 19.6524 155.345 20.8858C155.345 20.9023 155.345 20.9188 155.345 20.9352C155.345 21.0082 155.364 21.0835 155.368 21.1706L155.397 21.5189L155.42 22.2084C155.42 22.2696 155.42 22.3308 155.42 22.3919C155.419 22.3974 155.419 22.403 155.42 22.4084C155.42 22.4625 155.42 22.519 155.437 22.5731C155.437 22.5731 155.437 22.592 155.437 22.6014V22.6296L155.458 22.7685V22.8014C155.458 22.8202 155.458 22.8414 155.458 22.8602C155.458 22.8791 155.472 22.9214 155.477 22.952V22.9779C155.477 23.0226 155.496 23.0673 155.507 23.1121V23.1379L155.521 23.1921L155.557 23.3121L155.573 23.3639C155.574 23.3748 155.574 23.3858 155.573 23.3968C155.573 23.4203 155.59 23.4415 155.597 23.4627L155.627 23.5498L155.663 23.6392L155.698 23.7263C155.698 23.7263 155.698 23.7427 155.698 23.7522C155.698 23.7616 155.719 23.7969 155.729 23.8204L155.764 23.8957C155.778 23.9287 155.794 23.9592 155.809 23.9898L155.844 24.0628C155.863 24.0934 155.879 24.1263 155.896 24.1569L155.933 24.2252L155.992 24.324L156.027 24.3828C156.053 24.4276 156.084 24.4723 156.112 24.5146L156.133 24.5476L156.23 24.6817H156.242L156.298 24.7594L156.326 24.7923L156.376 24.8535L156.442 24.9312L156.493 24.99L156.564 25.0653L156.616 25.1218L156.689 25.1947L156.745 25.2489L156.762 25.2653L156.811 25.31L156.884 25.3736L156.952 25.4324L157.028 25.4936L157.046 25.5101L157.131 25.5736L157.159 25.5948L157.286 25.6842H157.298L157.324 25.703L157.439 25.7736L157.475 25.7972L157.501 25.8113L157.611 25.8748L157.635 25.8866L157.703 25.9243L157.766 25.9548H157.788L157.896 26.0043L157.934 26.0207L157.959 26.0325L158.082 26.0819H158.098L158.209 26.1219L158.268 26.1408H158.301L158.423 26.1784H158.451L158.635 26.2208C158.691 26.2208 158.748 26.2443 158.807 26.2514H158.833C158.889 26.2608 158.945 26.2678 159.002 26.2725H159.11H159.216H159.244H159.308H159.515C160 26.2589 160.475 26.1281 160.899 25.8913L163.483 24.4982Z" fill="#86B2FF"/>
<path d="M159.502 26.3429L162.091 24.8792C162.164 24.8792 162.234 24.8792 162.305 24.8651L159.716 26.3288C159.646 26.3288 159.575 26.3288 159.502 26.3429Z" fill="#86B2FF"/>
<path d="M159.715 26.3288L162.303 24.8651C162.379 24.8651 162.456 24.8486 162.539 24.8345L159.95 26.2982C159.875 26.2982 159.8 26.3218 159.715 26.3288Z" fill="#86B2FF"/>
<path d="M159.943 26.2982L162.532 24.8344C162.619 24.818 162.706 24.7991 162.791 24.778L160.202 26.2394C160.118 26.2629 160.03 26.2817 159.943 26.2982Z" fill="#86B2FF"/>
<path d="M160.202 26.2396L162.79 24.7782C162.9 24.7482 163.009 24.712 163.115 24.67L160.526 26.1337C160.419 26.175 160.31 26.2104 160.199 26.2396" fill="#86B2FF"/>
<path d="M160.523 26.1337L163.112 24.67C163.236 24.6213 163.356 24.5639 163.472 24.4982L160.883 25.9619C160.768 26.0263 160.648 26.0836 160.526 26.1337" fill="#86B2FF"/>
<path d="M158.771 16.6757L161.36 15.212C161.452 15.212 161.544 15.2308 161.635 15.2449L159.047 16.7087C158.955 16.6946 158.863 16.6828 158.771 16.6757Z" fill="#86B2FF"/>
<path d="M167.013 22.0248C167.013 22.006 167.013 21.9848 167.013 21.966V21.8342C167.013 21.8177 167.013 21.8013 167.013 21.7848C167.013 21.726 167.013 21.6671 167.013 21.6083V21.4506C167.013 21.4341 167.013 21.4177 167.013 21.4012V21.2953C167.013 21.2812 167.013 21.2671 167.013 21.2553C167.013 21.2435 167.013 21.18 167.001 21.1423V21.0812C167.001 21.0482 167.001 21.0153 166.989 20.9823C166.977 20.9494 166.989 20.9635 166.989 20.9541C166.99 20.9423 166.99 20.9305 166.989 20.9188C166.989 20.8835 166.989 20.8458 166.973 20.8105C166.974 20.7909 166.974 20.7713 166.973 20.7517L166.951 20.634V20.5964C166.951 20.5375 166.928 20.4787 166.914 20.4222C166.915 20.4081 166.915 20.394 166.914 20.3799C166.914 20.3352 166.893 20.2904 166.883 20.2457V20.2198V20.194C166.867 20.1304 166.848 20.0645 166.829 19.9986C166.83 19.994 166.83 19.9892 166.829 19.9845C166.813 19.9233 166.795 19.8621 166.773 19.801V19.7774C166.773 19.7774 166.773 19.7586 166.773 19.7492C166.773 19.7398 166.756 19.7021 166.749 19.6809L166.726 19.6103C166.726 19.5868 166.709 19.5633 166.7 19.5421L166.674 19.4715C166.664 19.4493 166.655 19.4265 166.648 19.4032L166.62 19.3374L166.591 19.2668L166.577 19.2291L166.563 19.2009L166.535 19.1373C166.526 19.114 166.516 19.0912 166.504 19.0691L166.476 19.0079C166.476 18.9844 166.455 18.9608 166.443 18.9373L166.415 18.8785L166.38 18.8079C166.38 18.789 166.361 18.7702 166.349 18.7514L166.314 18.6808L166.283 18.6243C166.269 18.6008 166.257 18.5772 166.245 18.5537C166.234 18.5302 166.224 18.5184 166.213 18.4996C166.201 18.4807 166.187 18.4525 166.173 18.429L166.142 18.3748C166.128 18.3513 166.114 18.3278 166.097 18.3042C166.088 18.2873 166.078 18.2708 166.067 18.2548L166.05 18.2289L165.98 18.1207L165.949 18.0736L165.883 17.9795L165.85 17.9324C165.827 17.8979 165.801 17.8626 165.772 17.8265L165.754 17.7983L165.652 17.6641C165.601 17.5983 165.549 17.5347 165.497 17.4735C165.443 17.4123 165.389 17.3488 165.332 17.29L165.316 17.2688L165.154 17.0994L165.128 17.0735C165.074 17.0193 165.019 16.9652 164.963 16.9134L164.949 16.8993L164.923 16.8758L164.758 16.7581L164.706 16.7134L164.65 16.6616L164.596 16.6169L164.539 16.5699L164.485 16.5251L164.426 16.4781L164.398 16.4545H164.382C164.33 16.4122 164.276 16.3722 164.222 16.3345L164.2 16.3181L164.05 16.2122L164.029 16.198H164.017L163.871 16.1016L163.843 16.0851L163.718 16.0074H163.697L163.673 15.9933L163.57 15.9345L163.53 15.9133L163.386 15.8356H163.367L163.25 15.7768L163.203 15.7556L163.108 15.7109H163.087L163.052 15.6944L162.972 15.6615L162.916 15.6379L162.833 15.605L162.798 15.5909H162.774L162.697 15.5626L162.638 15.5391L162.558 15.5132L162.515 15.4991H162.499L162.421 15.4756L162.36 15.4567L162.278 15.4332L162.231 15.4214L162.148 15.4003L162.092 15.3861L162.007 15.3673L161.955 15.3556L161.835 15.332H161.812L161.671 15.3108C161.579 15.2967 161.487 15.2873 161.395 15.2779L158.807 16.7417C158.901 16.7417 158.993 16.7605 159.084 16.7746L159.228 16.7981H159.266L159.346 16.7581L159.402 16.7699L159.484 16.7887L159.548 16.8028L159.623 16.8217L159.684 16.8381L159.764 16.8617L159.823 16.8781L159.901 16.904L159.96 16.9229L160.04 16.9487L160.101 16.9699L160.176 16.9982L160.237 17.0217L160.317 17.0523L160.376 17.0782L160.454 17.1111L160.513 17.137L160.605 17.1794L160.652 17.2029L160.769 17.2594H160.79C160.84 17.2829 160.887 17.3088 160.934 17.3347L160.976 17.3582L161.078 17.4171L161.125 17.4429L161.247 17.5182L161.275 17.5371C161.325 17.5677 161.374 17.5983 161.421 17.6312L161.454 17.6547L161.605 17.7583L161.628 17.7748L161.786 17.8971L161.833 17.9324L161.889 17.9795C161.909 17.9931 161.927 18.008 161.944 18.0242L162.002 18.0713L162.054 18.116L162.111 18.1654L162.162 18.2125L162.217 18.2619L162.259 18.2995C162.313 18.3537 162.37 18.4054 162.421 18.4596L162.447 18.4878C162.504 18.5427 162.558 18.5992 162.61 18.6572L162.628 18.6761L162.791 18.862C162.845 18.9255 162.897 18.9891 162.946 19.055C162.953 19.0601 162.958 19.0665 162.963 19.0738L163.064 19.2056L163.085 19.2362L163.163 19.3421L163.193 19.3891C163.217 19.4197 163.238 19.4503 163.259 19.4833L163.29 19.5303L163.36 19.6386L163.381 19.6715L163.414 19.7233L163.457 19.7939L163.487 19.848L163.53 19.9186L163.56 19.9727L163.598 20.0433C163.61 20.0622 163.619 20.081 163.629 20.0998L163.666 20.1681L163.694 20.2269L163.73 20.2975L163.758 20.3563L163.793 20.4269C163.793 20.4458 163.81 20.4669 163.819 20.4858L163.852 20.5564L163.878 20.6176C163.887 20.6409 163.897 20.6637 163.909 20.6858L163.935 20.754L163.963 20.8223C163.963 20.8458 163.982 20.867 163.989 20.8905C163.996 20.9141 164.007 20.9376 164.015 20.9611C164.022 20.9847 164.031 21.0058 164.04 21.027L164.064 21.1C164.064 21.1212 164.08 21.1447 164.087 21.1659C164.095 21.1871 164.099 21.2035 164.106 21.22L164.163 21.4036V21.4177C164.182 21.4836 164.198 21.5471 164.215 21.613L164.229 21.6648C164.229 21.7095 164.25 21.7542 164.259 21.7989C164.269 21.8436 164.259 21.8272 164.271 21.8413L164.306 22.0154C164.305 22.0303 164.305 22.0452 164.306 22.0601L164.328 22.1801C164.326 22.199 164.326 22.2178 164.328 22.2366C164.328 22.2743 164.328 22.3096 164.344 22.3472V22.4084C164.344 22.4437 164.344 22.4767 164.356 22.5096C164.357 22.53 164.357 22.5504 164.356 22.5708C164.356 22.6084 164.356 22.6437 164.356 22.6814C164.356 22.7191 164.356 22.7167 164.356 22.7332V22.8414C164.356 22.8555 164.356 22.872 164.356 22.8885V23.0462C164.356 23.1074 164.356 23.1685 164.356 23.2297V23.2815C164.356 23.3262 164.356 23.3686 164.356 23.4109C164.357 23.4313 164.357 23.4517 164.356 23.4721C164.356 23.5145 164.356 23.5545 164.356 23.5945C164.356 23.6345 164.356 23.6345 164.356 23.6533C164.356 23.6721 164.356 23.7616 164.344 23.8157C164.344 23.8722 164.344 23.9287 164.325 23.9851V24.0416C164.325 24.0793 164.313 24.1193 164.309 24.1593C164.304 24.1993 164.309 24.1993 164.309 24.2181C164.309 24.2369 164.297 24.2958 164.29 24.3334C164.283 24.3711 164.29 24.3711 164.29 24.3899C164.29 24.4087 164.271 24.484 164.262 24.5311C164.261 24.5397 164.261 24.5484 164.262 24.557C164.247 24.6111 164.236 24.6676 164.222 24.7217L164.207 24.7711C164.207 24.8088 164.186 24.8464 164.177 24.8841L164.156 24.9523C164.156 24.9853 164.135 25.0159 164.125 25.0488C164.116 25.0818 164.109 25.0935 164.102 25.1171C164.095 25.1406 164.08 25.1783 164.071 25.2089L164.04 25.2865C164.04 25.3148 164.019 25.343 164.007 25.3712C163.996 25.3995 163.986 25.423 163.977 25.4465L163.942 25.5266C163.93 25.5571 163.916 25.5877 163.902 25.6183L163.866 25.6913L163.824 25.7807L163.789 25.849C163.765 25.8913 163.744 25.9337 163.72 25.9737C163.712 25.9906 163.702 26.0071 163.692 26.0231C163.662 26.0796 163.629 26.1361 163.593 26.1902L163.509 26.3196L163.485 26.3573L163.419 26.449L163.389 26.4914L163.323 26.5808L163.294 26.6161L163.259 26.6608L163.158 26.7809C163.144 26.7973 163.132 26.8138 163.118 26.8279C163.104 26.8421 163.04 26.9127 163.003 26.955C162.994 26.9625 162.986 26.9712 162.979 26.9809L162.836 27.1221L162.796 27.1597L162.683 27.2609L162.635 27.3009C162.591 27.341 162.544 27.3786 162.494 27.4163L162.478 27.4304L162.318 27.5504L162.271 27.581L162.144 27.6657L162.094 27.6987L161.92 27.8022L164.509 26.3384L164.683 26.2349L164.732 26.202L164.857 26.1196L164.904 26.0866C164.961 26.0466 165.015 26.009 165.066 25.9666L165.083 25.9525C165.13 25.9172 165.177 25.8772 165.224 25.8395L165.269 25.7995L165.384 25.696L165.424 25.6583L165.568 25.5171L165.589 25.4913C165.629 25.4512 165.667 25.4089 165.704 25.3665L165.747 25.3195L165.848 25.1971L165.869 25.1688L165.883 25.1547L165.911 25.1171L165.977 25.0276L166.008 24.9853L166.074 24.8935C166.081 24.8812 166.089 24.8694 166.097 24.8582L166.18 24.7311C166.213 24.6747 166.245 24.6205 166.278 24.5617L166.307 24.5146L166.373 24.3899L166.389 24.3617C166.389 24.3617 166.389 24.3358 166.408 24.3217L166.453 24.2322L166.488 24.1569C166.502 24.1263 166.516 24.0957 166.528 24.0651L166.547 24.0251L166.561 23.9875L166.594 23.9098L166.627 23.8251L166.655 23.7474L166.671 23.7051C166.675 23.6889 166.681 23.6732 166.688 23.658C166.688 23.6345 166.702 23.611 166.711 23.5874C166.721 23.5639 166.73 23.5239 166.742 23.4909C166.754 23.458 166.742 23.4462 166.761 23.4227C166.78 23.3992 166.761 23.4039 166.761 23.3968C166.761 23.3897 166.775 23.338 166.784 23.3074C166.794 23.2768 166.784 23.2768 166.796 23.2603C166.808 23.2438 166.824 23.1544 166.836 23.1003V23.0768L166.864 22.9332C166.864 22.9144 166.864 22.8956 166.876 22.8767C166.888 22.8579 166.876 22.8297 166.888 22.8061V22.7614C166.889 22.7418 166.889 22.7222 166.888 22.7026C166.888 22.6626 166.9 22.6226 166.904 22.5826V22.5308C166.904 22.5308 166.904 22.5167 166.904 22.5096L166.918 22.359C166.918 22.3119 166.918 22.2649 166.93 22.2154V22.1919C166.93 22.1731 166.93 22.1543 166.93 22.1354C166.93 22.1166 167.01 22.0672 167.013 22.0248Z" fill="#86B2FF"/>
<path d="M158.715 14.9508L161.311 13.487L161.367 15.212L158.771 16.6757L158.715 14.9508Z" fill="#0962FF"/>
<path d="M150.17 24.7704L150.12 23.2484L153.799 26.1628L150.285 28.3899L150.234 26.8319L150.231 26.7492L150.149 26.7413C147.193 26.4568 144.69 23.6338 144.586 20.445C144.482 17.2637 146.807 14.9282 149.752 15.2045C152.6 15.4867 155.019 18.119 155.287 21.1667C155.287 21.1668 155.287 21.1669 155.287 21.167L155.315 21.5125L155.338 22.1997C155.408 24.3317 157.08 26.2294 159.078 26.4227C161.088 26.6171 162.656 25.0126 162.586 22.8736C162.517 20.7418 160.847 18.8415 158.849 18.6506L158.742 18.6404L158.746 18.7474L158.796 20.2668L155.114 17.3456L158.626 15.1185L158.677 16.6788L158.68 16.7615L158.763 16.7694C161.718 17.0539 164.221 19.8745 164.325 23.0657C164.43 26.2497 162.108 28.5872 159.162 28.3038C156.313 28.0287 153.892 25.3965 153.627 22.3488C153.627 22.3487 153.627 22.3486 153.627 22.3485L153.599 22.0054L153.578 21.3183L153.578 21.3181C153.508 19.1837 151.836 17.286 149.838 17.0927C147.828 16.8983 146.257 18.5027 146.327 20.6441C146.397 22.7785 148.069 24.6739 150.067 24.8671L150.174 24.8775L150.17 24.7704Z" fill="white" stroke="#141414" stroke-width="0.188265"/>
</g>
<g clip-path="url(#clip1_1237_9612)">
<path d="M24.608 111.808L21.3638 111.813L22.7623 114.485L26.0087 114.48L24.608 111.808Z" fill="#0962FF"/>
<path d="M20.0748 103.15L16.8283 103.156L18.2291 105.828L21.4742 105.82L20.0748 103.15Z" fill="#0962FF"/>
<path d="M11.6529 108.988L8.4087 108.992L14.3906 120.415L17.6358 120.407L11.6529 108.988Z" fill="#0962FF"/>
<path d="M21.4735 105.82L18.2284 105.828L8.40929 108.992L11.6535 108.988L21.4735 105.82Z" fill="#86B2FF"/>
<path d="M21.5124 105.942L11.8372 109.063L17.6591 120.175L24.5079 111.727L24.6306 111.576L24.721 111.749L25.9673 114.126L28.2951 105.119L20.3156 103.336L21.5866 105.76L21.6573 105.895L21.5124 105.942Z" fill="white" stroke="#060606" stroke-width="0.256373"/>
</g>
<rect x="0.401328" width="51.439" height="51.439" rx="5.32926" transform="matrix(0.866025 -0.5 0.866025 0.5 42.0538 98.7364)" fill="#141414" stroke="#0962FF" stroke-width="0.463414"/>
<rect x="0.401328" width="51.439" height="51.439" rx="5.32926" transform="matrix(0.866025 -0.5 0.866025 0.5 42.0538 93.6389)" fill="#86B2FF" stroke="#0962FF" stroke-width="0.463414"/>
<rect opacity="0.3" width="22.1567" height="22.1567" rx="2.32653" transform="matrix(0.866025 -0.5 0.866025 0.5 67.7598 93.4382)" fill="#141414"/>
<path d="M45.0254 98.296V93.4196C45.0254 93.9603 45.5351 95.3196 47.5742 96.4318C49.6132 97.544 50.2774 97.9765 50.3547 98.0538V103.059L46.1839 100.603C45.9666 100.44 45.5734 100.07 45.2949 99.6073C45.0604 99.2177 45.0254 98.7507 45.0254 98.296Z" fill="#0962FF" stroke="#0962FF" stroke-width="0.463414"/>
<path d="M128.764 93.4196V98.7489" stroke="#0962FF" stroke-width="0.463414"/>
<path d="M81.8672 116.359V121.224" stroke="#0962FF" stroke-width="0.463414"/>
<path d="M92.0625 116.127V121.224" stroke="#0962FF" stroke-width="0.463414"/>
<path d="M125.659 98.7714V96.8953C125.659 96.8953 126.881 96.3108 127.513 95.7367C128.04 95.2579 128.598 94.2413 128.812 93.8298C128.835 93.7862 128.903 93.8029 128.903 93.852V97.9426C128.903 98.6285 128.83 99.3435 128.44 99.9075C127.942 100.627 127.132 101.054 126.375 101.492L100.635 116.359L123.906 101.922C124.996 101.246 125.659 100.054 125.659 98.7714Z" fill="#0962FF" stroke="#0962FF" stroke-width="0.463414"/>
<path d="M53.8301 105.098V100.232L57.5374 102.549V107.183L53.8301 105.098Z" fill="#0962FF" stroke="#0962FF" stroke-width="0.463414"/>
<path d="M154.3 1.64662C154.99 1.24797 155.841 1.24797 156.531 1.64662L170.668 9.8083C171.358 10.2069 171.784 10.9437 171.784 11.741V28.0644C171.784 28.8617 171.358 29.5984 170.668 29.9971L156.531 38.1587C155.841 38.5574 154.99 38.5574 154.3 38.1587L140.163 29.9971C139.473 29.5984 139.048 28.8617 139.048 28.0644V11.741C139.048 10.9437 139.473 10.2069 140.163 9.8083L154.3 1.64662Z" stroke="#0962FF" stroke-width="0.892674"/>
<path d="M140.686 11.824L154.299 19.6795" stroke="#0962FF" stroke-width="0.892674" stroke-linecap="round"/>
<path d="M170.367 11.824L156.754 19.6795" stroke="#0962FF" stroke-width="0.892674" stroke-linecap="round"/>
<path d="M155.416 21.0184L155.416 36.6402" stroke="#0962FF" stroke-width="0.892674" stroke-linecap="round"/>
<path d="M80.2282 32.3868C81.3693 31.728 82.7751 31.728 83.9162 32.3868L107.278 45.8746C108.419 46.5334 109.122 47.7509 109.122 49.0685V76.0441C109.122 77.3617 108.419 78.5792 107.278 79.238L83.9162 92.7258C82.7751 93.3846 81.3693 93.3847 80.2282 92.7258L56.8666 79.238C55.7256 78.5792 55.0226 77.3617 55.0226 76.0441V49.0685C55.0226 47.7509 55.7256 46.5334 56.8666 45.8746L80.2282 32.3868Z" stroke="#0962FF" stroke-width="1.47521"/>
<path d="M90.5388 73.4206L87.8755 72.5246L84.8691 71.3704L87.5325 72.2664L90.5388 73.4206Z" fill="#0962FF"/>
<path d="M93.8455 58.2325L92.1494 57.8371L90.893 57.415L92.5883 57.8095L93.8455 58.2325Z" fill="#0962FF" stroke="#141414" stroke-width="0.14149"/>
<path d="M80.2913 74.9484L81.3218 78.4884L78.8219 77.6473L77.7913 74.1073L80.2913 74.9484Z" fill="#0962FF" stroke="#141414" stroke-width="0.14149"/>
<path d="M90.659 49.3224L87.7449 51.6577L85.241 50.8165L88.1551 48.4812L90.659 49.3224Z" fill="#0962FF" stroke="#141414" stroke-width="0.14149"/>
<path d="M85.8211 54.5959L83.1578 53.701C85.5523 54.5063 87.2028 57.1531 87.1663 60.6487C87.1663 60.7242 87.1663 60.7985 87.1663 60.8739C87.1663 60.8987 87.1663 60.9234 87.1663 60.9482C87.1663 60.9977 87.1663 61.0484 87.1592 61.0991C87.1592 61.1085 87.1592 61.118 87.1592 61.1286C87.1592 61.2229 87.1474 61.3172 87.1392 61.4115C87.1392 61.4339 87.1392 61.4552 87.1392 61.4776C87.1309 61.5766 87.1203 61.6768 87.1097 61.7758L87.1027 61.8301C87.092 61.9185 87.0814 62.0081 87.0685 62.0965L87.0614 62.1508C87.0461 62.2498 87.0307 62.3476 87.0131 62.4455C87.0131 62.4703 87.0048 62.495 87.0001 62.5198C86.9895 62.5823 86.9777 62.6447 86.9647 62.7061C86.9647 62.732 86.9553 62.7579 86.9494 62.7839C86.9329 62.864 86.9164 62.9442 86.8987 63.0197V63.0314C86.8798 63.1163 86.8598 63.2 86.8385 63.2826C86.8385 63.3073 86.8268 63.3321 86.8197 63.3568C86.8044 63.4182 86.7879 63.4747 86.7714 63.5396L86.7501 63.6186C86.7336 63.6764 86.7159 63.7365 86.6994 63.7919C86.6935 63.8131 86.6865 63.8332 86.6806 63.8544C86.657 63.9322 86.6322 64.01 86.6075 64.0902L86.5922 64.1338C86.5717 64.1959 86.5505 64.2584 86.5285 64.3212L86.5014 64.3991L86.4448 64.5535L86.4141 64.6349C86.3941 64.6879 86.3729 64.7398 86.3528 64.7928L86.3245 64.8624C86.2939 64.9379 86.2632 65.0121 86.2314 65.0864C86.2316 65.0895 86.2316 65.0927 86.2314 65.0958C86.2019 65.1666 86.1701 65.2373 86.1382 65.3069L86.1064 65.3764L86.0357 65.5273L85.9991 65.6016C85.972 65.657 85.9449 65.7124 85.9166 65.7678C85.9072 65.7879 85.8966 65.8079 85.8859 65.828C85.8482 65.9011 85.8105 65.9742 85.7681 66.0473L85.7492 66.0826C85.715 66.1428 85.682 66.2005 85.6478 66.263L85.6089 66.3314C85.5794 66.3833 85.5487 66.434 85.5181 66.4847L85.4816 66.546C85.4344 66.6238 85.386 66.7016 85.3365 66.7818C85.3283 66.7959 85.3188 66.8101 85.3094 66.823C85.267 66.8891 85.2245 66.9539 85.1809 67.0187L85.1444 67.0718C85.0925 67.1461 85.0418 67.2192 84.9887 67.2923L84.9616 67.3288C84.9156 67.3925 84.8685 67.4538 84.8213 67.5163L84.786 67.5622C84.7105 67.6613 84.6315 67.758 84.5502 67.8535L84.523 67.8853C84.4429 67.9808 84.3615 68.0751 84.2778 68.1671L84.2531 68.1954C84.1682 68.2885 84.0821 68.3793 83.9937 68.4689L83.9725 68.4901C83.8829 68.5809 83.7921 68.6693 83.6989 68.7554L83.6813 68.7719L83.5245 68.9145L83.495 68.9393L83.3653 69.0513L83.3087 69.0985L83.2026 69.1845L83.1389 69.2352L83.0375 69.3142L82.9703 69.3637C82.9373 69.3897 82.9031 69.4144 82.8689 69.4392L82.8029 69.4863L82.6933 69.5618L82.6331 69.6042L82.4964 69.6927L82.461 69.7162L82.2877 69.8223L82.2405 69.8495C82.1981 69.8754 82.1557 69.899 82.1132 69.9237L82.0472 69.9591C82.0095 69.9803 81.9729 70.0004 81.9352 70.0192L81.8645 70.057L81.7548 70.1112L81.6829 70.1466L81.565 70.1984L81.4954 70.2291C81.4542 70.2479 81.4129 70.2645 81.3717 70.2821L81.3127 70.3069L81.1323 70.3776C81.071 70.4012 81.0085 70.4224 80.9472 70.4437L80.8859 70.4625L80.7598 70.5026L80.6973 70.5215L80.5381 70.5651L80.4756 70.5816C80.4049 70.5993 80.3342 70.6158 80.2622 70.6311L80.0583 70.67L79.9934 70.6806L79.8531 70.703L79.78 70.7125C79.7352 70.7125 79.6916 70.7231 79.6468 70.7266L79.5773 70.7337L79.4263 70.7455H79.378L79.1634 70.7525H79.108C79.0526 70.7525 78.9984 70.7525 78.943 70.7525H78.8652C78.7956 70.7525 78.7249 70.7443 78.6553 70.7384H78.6447C78.5787 70.7325 78.5126 70.7254 78.4478 70.7172L78.383 70.7089L78.258 70.6889L78.192 70.6771C78.1472 70.6688 78.1012 70.6606 78.0552 70.65L78.0069 70.6406C77.9455 70.6264 77.889 70.6123 77.8253 70.5957L77.7876 70.5863L77.6449 70.5451L77.5176 70.5038L80.1809 71.3998L80.2882 71.434L80.3094 71.4411L80.452 71.4812L80.4898 71.4918C80.5499 71.5083 80.6077 71.5224 80.6713 71.5366L80.7197 71.546L80.8564 71.5731L80.9225 71.5849L81.0474 71.6038L81.0863 71.6097H81.1123C81.1771 71.6179 81.2431 71.625 81.3092 71.6309H81.3198C81.3893 71.6309 81.4601 71.6415 81.5296 71.6439H81.5898C81.644 71.6439 81.6994 71.6439 81.7548 71.6439H81.8102C81.881 71.6439 81.9529 71.6439 82.0248 71.638H82.0331H82.0731L82.224 71.6273L82.2936 71.6203L82.4268 71.6049L82.4999 71.5955C82.5471 71.5955 82.5931 71.5825 82.6402 71.5743L82.7051 71.5637L82.909 71.5248C82.9798 71.5095 83.0517 71.4929 83.1224 71.4753L83.1849 71.4588L83.3441 71.414L83.383 71.4033L83.4054 71.3963L83.5327 71.3562L83.594 71.3361C83.6553 71.3161 83.7119 71.2937 83.7791 71.2713C83.8404 71.2489 83.897 71.2253 83.9607 71.2006L84.022 71.1758L84.1399 71.1227L84.2095 71.0921L84.3273 71.039L84.4004 71.0048L84.5101 70.9494L84.5808 70.9129C84.6185 70.894 84.6551 70.8728 84.6987 70.8528L84.7647 70.8174L84.8921 70.7431L84.9392 70.716C84.9982 70.6806 85.0571 70.6453 85.1125 70.6087L85.1479 70.5863L85.2847 70.4967L85.3448 70.4566L85.4544 70.38L85.5193 70.3328L85.6219 70.2574L85.689 70.2067C85.7232 70.1819 85.7563 70.1548 85.7904 70.1289L85.8541 70.0782L85.959 69.9921L86.0168 69.945C86.0604 69.9084 86.1029 69.8707 86.1453 69.8329C86.1561 69.8249 86.1663 69.8163 86.176 69.807C86.229 69.761 86.2809 69.7139 86.3328 69.6655L86.3398 69.6585L86.3505 69.649C86.4436 69.5618 86.5344 69.4745 86.624 69.3838L86.6452 69.3614C86.7324 69.2729 86.8197 69.181 86.9046 69.0878L86.9293 69.0607C87.013 68.9688 87.0944 68.8744 87.1746 68.7789C87.1842 68.7685 87.1933 68.7575 87.2017 68.7459C87.2807 68.6516 87.3585 68.5538 87.4375 68.4559L87.4504 68.4406L87.4728 68.4087C87.52 68.3474 87.5672 68.285 87.6131 68.2225L87.6402 68.1859C87.6933 68.1128 87.744 68.0397 87.7959 67.9655L87.8324 67.9112C87.8761 67.8476 87.9185 67.7827 87.9609 67.7167C87.9704 67.7025 87.9798 67.6896 87.988 67.6754C88.0376 67.6 88.0847 67.5222 88.1331 67.4396C88.137 67.4327 88.1413 67.426 88.146 67.4196L88.1696 67.3771C88.2003 67.3264 88.2309 67.2758 88.2604 67.2251L88.2993 67.1567L88.4007 66.9763L88.4196 66.9409C88.4596 66.8678 88.4974 66.7947 88.5375 66.7216L88.5681 66.6603C88.5964 66.6061 88.6235 66.5507 88.6506 66.4953L88.6695 66.4587L88.6872 66.421L88.7579 66.2701L88.7897 66.2005C88.8216 66.1298 88.8522 66.0602 88.8829 65.9895C88.8831 65.9864 88.8831 65.9832 88.8829 65.9801C88.9147 65.9058 88.9454 65.8315 88.976 65.7561C88.9855 65.7325 88.9949 65.7101 89.0031 65.6865C89.0244 65.6334 89.0456 65.5816 89.0656 65.5285L89.0798 65.4908C89.0857 65.4766 89.0904 65.4613 89.0963 65.4472L89.1529 65.2927C89.1611 65.2668 89.1706 65.2408 89.18 65.2149L89.2437 65.0286C89.2437 65.0133 89.2531 64.998 89.259 64.9838C89.2837 64.906 89.3085 64.8282 89.3321 64.748C89.338 64.7268 89.345 64.7056 89.3509 64.6844C89.3686 64.6266 89.3851 64.5665 89.4005 64.5122L89.4111 64.4781C89.4111 64.4627 89.4193 64.4474 89.4229 64.4321C89.4394 64.3719 89.4559 64.3142 89.4712 64.2505C89.4783 64.2258 89.4842 64.201 89.4901 64.1762C89.5113 64.0925 89.5313 64.01 89.5502 63.9251V63.9121C89.5679 63.832 89.5856 63.7518 89.6009 63.6764C89.6068 63.6516 89.6115 63.6257 89.6162 63.5997C89.6292 63.5372 89.641 63.4759 89.6516 63.4134C89.6516 63.3969 89.6516 63.3816 89.661 63.3651V63.3392C89.6787 63.2413 89.694 63.1434 89.7082 63.0444C89.7082 63.0267 89.7141 63.0079 89.7164 62.9902C89.7294 62.9018 89.74 62.8122 89.7506 62.7237L89.7577 62.6695C89.7683 62.5705 89.7789 62.4703 89.7872 62.3712C89.7872 62.3488 89.7872 62.3276 89.7872 62.3052C89.7954 62.2109 89.8013 62.1166 89.8072 62.0222C89.8072 62.0152 89.8072 62.0081 89.8072 61.9998V61.9916C89.8072 61.9421 89.8072 61.8926 89.8143 61.843C89.8143 61.8171 89.8143 61.7924 89.8143 61.7676C89.8143 61.6921 89.8143 61.6167 89.8143 61.5424C89.8615 58.0432 88.2109 55.3964 85.8211 54.5959Z" fill="#0962FF"/>
<path d="M79.1005 74.6021L76.4372 73.7072C76.1417 73.6072 75.8533 73.4871 75.5742 73.3477L78.2375 74.2437C78.5164 74.3832 78.8048 74.503 79.1005 74.6021Z" fill="#0962FF"/>
<path d="M84.2318 50.4826L86.8951 51.3786C86.4876 51.2418 86.0679 51.1442 85.6418 51.0874L82.9785 50.1914C83.4046 50.2482 83.8243 50.3457 84.2318 50.4826Z" fill="#0962FF"/>
<path d="M74.624 70.5892L73.1914 74.5424L70.6634 73.6915L72.0948 69.7383L74.624 70.5892Z" fill="#0962FF" stroke="#141414" stroke-width="0.14149"/>
<path d="M73.1914 74.6915C73.6711 75.3563 74.2273 75.9619 74.8483 76.4957L72.5579 75.7252C71.8835 75.1859 71.2801 74.5639 70.7617 73.874L73.1914 74.6915Z" fill="#86B2FF" stroke="#141414" stroke-width="0.14149"/>
<path d="M81.6787 48.0228L80.5507 52.0682L78.0217 51.2185L79.1497 47.172L81.6787 48.0228Z" fill="#86B2FF" stroke="#141414" stroke-width="0.14149"/>
<path d="M83.1655 47.5811L83.1509 47.5119C83.0212 47.5392 82.8918 47.5701 82.7629 47.602L82.7629 47.602L82.7619 47.6023L82.6369 47.6353L82.6369 47.6353L82.6361 47.6355L82.3767 47.7075L82.3767 47.7074L82.3752 47.7079L82.1677 47.7704L82.1677 47.7704L82.1671 47.7705L82.0646 47.8024L82.0646 47.8024L82.0641 47.8025C81.9641 47.8344 81.8638 47.8674 81.7643 47.9024L79.322 47.0807C79.3624 47.0674 79.4029 47.0543 79.4435 47.0414L79.5458 47.0097L79.5458 47.0096L79.7002 46.9617L79.7509 46.9479L79.7509 46.9479L79.7519 46.9476C79.8374 46.923 79.9228 46.8996 80.0093 46.8774L80.0093 46.8774L80.0104 46.8771L80.1345 46.8431C80.2624 46.8115 80.3897 46.7811 80.5168 46.7543L80.5169 46.7543C80.9701 46.658 81.4293 46.5926 81.8914 46.5586L84.2204 47.3422C83.8612 47.3797 83.5041 47.4364 83.1507 47.5119L83.1655 47.5811ZM83.1655 47.5811C83.5678 47.4951 83.9749 47.4338 84.3845 47.3974L81.7649 47.9772C81.871 47.9395 81.9783 47.9041 82.0856 47.8699L82.1881 47.8381L82.3956 47.7756L82.655 47.7037L82.78 47.6707C82.9085 47.6389 83.037 47.6082 83.1655 47.5811Z" fill="#0962FF" stroke="#141414" stroke-width="0.14149"/>
<path d="M74.7161 70.5453L72.0528 69.6493C71.671 68.8628 71.3845 68.0337 71.1992 67.1793L73.8625 68.0753C74.0478 68.9297 74.3343 69.7589 74.7161 70.5453Z" fill="#0962FF"/>
<mask id="mask0_1237_9612" style="mask-type:luminance" maskUnits="userSpaceOnUse" x="71" y="67" width="4" height="4">
<path d="M74.7161 70.5453L72.0528 69.6493C71.671 68.8628 71.3845 68.0337 71.1992 67.1793L73.8625 68.0753C74.0478 68.9297 74.3343 69.7589 74.7161 70.5453Z" fill="white"/>
</mask>
<g mask="url(#mask0_1237_9612)">
<path d="M73.802 68.1296C73.9766 68.9211 74.2377 69.6908 74.5805 70.425L72.1035 69.5917C71.7488 68.8558 71.4778 68.0825 71.2956 67.2864L73.802 68.1296Z" fill="#0962FF" stroke="#141414" stroke-width="0.14149"/>
</g>
<path d="M78.4582 53.7139L75.7949 52.8179C76.4457 52.2188 77.1637 51.6974 77.9348 51.264L80.5981 52.1588C79.827 52.5927 79.109 53.1145 78.4582 53.7139Z" fill="#0962FF"/>
<mask id="mask1_1237_9612" style="mask-type:luminance" maskUnits="userSpaceOnUse" x="75" y="51" width="6" height="3">
<path d="M78.4582 53.7142L75.7949 52.8182C76.4457 52.2191 77.1637 51.6977 77.9348 51.2643L80.5981 52.1591C79.827 52.593 79.109 53.1148 78.4582 53.7142Z" fill="white"/>
</mask>
<g mask="url(#mask1_1237_9612)">
<path d="M80.4261 52.176C79.7143 52.5895 79.0488 53.0782 78.4412 53.6338L75.9315 52.7895C76.5468 52.2349 77.221 51.7493 77.9421 51.3414L80.4261 52.176Z" fill="#0962FF" stroke="#141414" stroke-width="0.14149"/>
</g>
<path d="M73.9898 61.2271L73.9898 61.2271C73.9975 61.1982 74.0052 61.169 74.0129 61.1396C74.0284 61.0804 74.0441 61.0205 74.0608 60.9611M73.9898 61.2271L74.6171 59.2945C74.6119 59.308 74.6068 59.3214 74.6018 59.3344C74.5735 59.4063 74.5452 59.4796 74.5179 59.553C74.5161 59.5577 74.5143 59.5623 74.5125 59.567C74.4935 59.6153 74.4755 59.6611 74.4556 59.7209C74.4435 59.7573 74.4321 59.7882 74.4204 59.82C74.411 59.8455 74.4014 59.8716 74.391 59.9017L74.3909 59.9022L74.3343 60.0696L74.3343 60.0696L74.334 60.0703C74.3236 60.1022 74.3134 60.1322 74.3032 60.1622L74.3029 60.163C74.2929 60.1926 74.2828 60.2222 74.2727 60.253L74.2727 60.253L74.2725 60.2538L74.2194 60.4224L74.2194 60.4223L74.2187 60.4248C74.2075 60.4656 74.1966 60.4991 74.1853 60.534C74.1776 60.5576 74.1698 60.5819 74.1614 60.6094L74.1612 60.6101L74.1117 60.7798L74.1117 60.7798L74.1112 60.7816C74.1017 60.8177 74.0923 60.8502 74.0828 60.8833C74.0756 60.9083 74.0683 60.9336 74.0608 60.9611M73.9898 61.2271L73.9895 61.2286C73.9861 61.2425 73.9822 61.2558 73.9779 61.2707C73.976 61.2772 73.974 61.284 73.9719 61.2914C73.9658 61.3128 73.9594 61.3371 73.9557 61.3626C73.9292 61.4685 73.9035 61.5746 73.8791 61.6814L71.3506 60.8307C71.3759 60.7193 71.4027 60.6084 71.4305 60.4973L71.4306 60.4969C71.4358 60.4757 71.4412 60.4547 71.4469 60.4331L71.4469 60.4329C71.4524 60.4118 71.4581 60.39 71.4635 60.3679C71.4721 60.3357 71.4804 60.3037 71.4887 60.2719C71.5034 60.2153 71.518 60.1593 71.5338 60.1031L71.5339 60.1026L71.5479 60.0511C71.548 60.051 71.548 60.051 71.548 60.0509C71.5537 60.0303 71.5598 60.0095 71.566 59.9883L71.566 59.9881C71.5722 59.9671 71.5784 59.9456 71.5844 59.9241L71.6338 59.7535L71.6338 59.7535L71.634 59.753C71.6456 59.7116 71.6571 59.6761 71.6689 59.6395C71.6762 59.6172 71.6836 59.5945 71.6912 59.5697C71.6912 59.5697 71.6912 59.5696 71.6912 59.5696L71.7442 59.4002C71.7442 59.4002 71.7442 59.4002 71.7442 59.4002C71.7638 59.3377 71.7836 59.2809 71.8047 59.221L71.8047 59.221L71.8051 59.2199L71.8614 59.052L71.9259 58.8713C71.926 58.8713 71.926 58.8712 71.926 58.8712C71.9459 58.8161 71.9658 58.7624 71.9868 58.7075L71.9868 58.7075L71.9876 58.7051L72.0014 58.665C72.0233 58.6075 72.0463 58.5499 72.0696 58.4916L72.0701 58.4904L72.0701 58.4904L72.0704 58.4896C72.0762 58.4746 72.0816 58.4604 72.0868 58.4466C72.095 58.4251 72.1028 58.4045 72.1114 58.3831L72.0457 58.3568M73.9898 61.2271L74.6433 59.2266C74.6776 59.1403 74.7126 59.0556 74.7477 58.9714L72.2189 58.1207C72.1826 58.2078 72.1466 58.2956 72.1113 58.3832L72.0457 58.3568M74.0608 60.9611C74.0608 60.9612 74.0607 60.9612 74.0607 60.9613L74.1289 60.98L74.0608 60.961C74.0608 60.961 74.0608 60.9611 74.0608 60.9611ZM72.0457 58.3568C72.037 58.3786 72.0287 58.4004 72.0203 58.4225C72.0151 58.4363 72.0099 58.4501 72.0044 58.4641L72.1789 58.0326C72.1341 58.1399 72.0893 58.2483 72.0457 58.3568Z" fill="#0962FF" stroke="#141414" stroke-width="0.14149"/>
<path d="M73.7717 61.7941L70.751 63.7694L68.2584 62.9308L71.2791 60.9556L73.7717 61.7941Z" fill="#0962FF" stroke="#141414" stroke-width="0.14149"/>
<path d="M70.5997 65.1775L70.5997 65.1775L70.6633 65.6124L70.5926 65.6116C70.5926 65.6118 70.5926 65.6121 70.5926 65.6123C70.5859 66.1677 70.6053 66.7116 70.6447 67.2421L68.127 66.3962C68.0852 65.8498 68.0708 65.2887 68.0707 64.7167C68.0713 64.6512 68.0733 64.5857 68.0754 64.5193C68.0755 64.5138 68.0757 64.5083 68.0759 64.5028C68.0781 64.4315 68.0802 64.3592 68.0802 64.2866L68.0872 64.1445L68.0872 64.1445L68.0872 64.1439C68.0883 64.117 68.0898 64.0892 68.0913 64.0607C68.0945 64.0012 68.0979 63.9391 68.0979 63.8781V63.8781V63.8781V63.878V63.878V63.8779V63.8779V63.8779V63.8778V63.8778V63.8777V63.8777V63.8776V63.8776V63.8776V63.8775V63.8775V63.8774V63.8774V63.8774V63.8773V63.8773V63.8772V63.8772V63.8771V63.8771V63.8771V63.877V63.877V63.8769V63.8769V63.8769V63.8768V63.8768V63.8767V63.8767V63.8766V63.8766V63.8766V63.8765V63.8765V63.8764V63.8764V63.8763V63.8763V63.8763V63.8762V63.8762V63.8761V63.8761V63.876V63.876V63.876V63.8759V63.8759V63.8758V63.8758V63.8757V63.8757V63.8757V63.8756V63.8756V63.8755V63.8755V63.8754V63.8754V63.8754V63.8753V63.8753V63.8752V63.8752V63.8751V63.8751V63.8751V63.875V63.875V63.8749V63.8749V63.8748V63.8748V63.8748V63.8747V63.8747V63.8746V63.8746V63.8745V63.8745V63.8745V63.8744V63.8744V63.8743V63.8743V63.8742V63.8742V63.8741V63.8741V63.8741V63.874V63.874V63.8739V63.8739V63.8738V63.8738V63.8738V63.8737V63.8737V63.8736V63.8736V63.8735V63.8735V63.8734V63.8734V63.8734V63.8733V63.8733V63.8732V63.8732V63.8731V63.8731V63.8731V63.873V63.873V63.8729V63.8729V63.8728V63.8728V63.8727V63.8727V63.8727V63.8726V63.8726V63.8725V63.8725V63.8724V63.8724V63.8724V63.8723V63.8723V63.8722V63.8722V63.8721V63.8721V63.872V63.872V63.872V63.8719V63.8719V63.8718V63.8718V63.8717V63.8717V63.8716V63.8716V63.8716V63.8715V63.8715V63.8714V63.8714V63.8713V63.8713V63.8712V63.8712V63.8712V63.8711V63.8711V63.871V63.871V63.8709V63.8709V63.8708V63.8708V63.8708V63.8707V63.8707V63.8706V63.8706V63.8705V63.8705V63.8704V63.8704V63.8704V63.8703V63.8703V63.8702V63.8702V63.8701V63.8701V63.87V63.87V63.87V63.8699V63.8699V63.8698V63.8698V63.8697V63.8697V63.8696V63.8696V63.8695V63.8695V63.8695V63.8694V63.8694V63.8693V63.8693V63.8692V63.8692V63.8691V63.8691V63.8691V63.869V63.869V63.8689V63.8689V63.8688V63.8688V63.8687V63.8687V63.8687V63.8686V63.8686V63.8685V63.8685V63.8684V63.8684V63.8683V63.8683V63.8683V63.8682V63.8682V63.8681V63.8681V63.868V63.868V63.8679V63.8679V63.8678V63.8678V63.8678V63.8677V63.8677V63.8676V63.8676V63.8675V63.8675V63.8674V63.8674V63.8674V63.8673V63.8673V63.8672V63.8672V63.8671V63.8671V63.867V63.867V63.8669V63.8669V63.8669V63.8668V63.8668V63.8667V63.8667V63.8666V63.8666V63.8665V63.8665V63.8665V63.8664V63.8664V63.8663V63.8663V63.8662V63.8662V63.8661V63.8661V63.8661V63.866V63.866V63.8659V63.8659V63.8658V63.8658V63.8657V63.8657V63.8656V63.8656V63.8656V63.8655V63.8655V63.8654V63.8654V63.8653V63.8653V63.8652V63.8652V63.8652V63.8651V63.8651V63.865V63.865V63.8649V63.8649V63.8648V63.8648V63.8648V63.8647V63.8647V63.8646V63.8646V63.8645V63.8645V63.8644V63.8644V63.8643V63.8643V63.8643V63.8642V63.8642V63.8641V63.8641V63.864V63.864V63.8639V63.8639V63.8639V63.8638V63.8638V63.8637V63.8637V63.8636V63.8636V63.8635V63.8635V63.8635V63.8634V63.8634V63.8633V63.8633V63.8632V63.8632V63.8631V63.8631V63.8631V63.863V63.863V63.8629V63.8629V63.8628V63.8628V63.8627V63.8627V63.8627V63.8626V63.8626V63.8625V63.8625V63.8624V63.8624V63.8623V63.8623V63.8623V63.8622V63.8622V63.8621V63.8621V63.862V63.862V63.8619V63.8619V63.8619V63.8618V63.8618V63.8617V63.8617V63.8616V63.8616V63.8615V63.8615V63.8615V63.8614V63.8614V63.8613V63.8613V63.8612V63.8612V63.8611V63.8611V63.8611V63.861V63.861V63.8609V63.8609V63.8608V63.8608V63.8608V63.8607V63.8607V63.8606V63.8606V63.8605V63.8605V63.8604V63.8604V63.8604V63.8603V63.8603V63.8602V63.8602V63.8601V63.8601V63.8601V63.86V63.86V63.8599V63.8599V63.8598V63.8598V63.8597V63.8597V63.8597V63.8596V63.8596V63.8595V63.8595V63.8594V63.8594V63.8594V63.8593V63.8593V63.8592V63.8592V63.8591V63.8591V63.8591V63.859V63.859V63.8589V63.8589V63.8588V63.8588V63.8588V63.8587V63.8587V63.8586V63.8586V63.8585V63.8585V63.8585V63.8584V63.8584V63.8583V63.8583V63.8582V63.8582V63.8582V63.8581V63.8581V63.858V63.858V63.8579V63.8579V63.8579V63.8578V63.8578V63.8577V63.8577V63.8576V63.8576V63.8576V63.8575V63.8575V63.8574V63.8574C68.1025 63.7576 68.1095 63.6588 68.1165 63.559L68.1166 63.5589L68.1166 63.5589L68.1271 63.4083C68.1366 63.2874 68.1468 63.1668 68.1583 63.0469L70.684 63.8966C70.671 64.0285 70.6597 64.1611 70.6494 64.2935L70.6493 64.294L70.6387 64.4425L70.6387 64.4427C70.6341 64.5093 70.6299 64.5794 70.6259 64.6461C70.6239 64.6811 70.6218 64.7152 70.6198 64.7474C70.619 64.7606 70.6181 64.7739 70.6173 64.7873C70.6121 64.8675 70.6068 64.9503 70.6067 65.033L70.5997 65.1775Z" fill="#86B2FF" stroke="#141414" stroke-width="0.14149"/>
<path d="M70.8873 54.5176L73.413 55.3677C73.4867 55.2404 73.5619 55.114 73.637 54.9889L73.6373 54.9884L73.6373 54.9884L73.7151 54.8611L73.7154 54.8605C73.7331 54.8322 73.7508 54.8037 73.7686 54.7752C73.8153 54.7 73.8624 54.6244 73.9105 54.5496L74.006 54.4011C74.0701 54.3014 74.1352 54.2042 74.2014 54.1073C74.2015 54.1072 74.2015 54.1072 74.2016 54.1071L74.2933 53.9707L74.2943 53.9693L74.2943 53.9693C74.3281 53.9216 74.3628 53.8718 74.398 53.8214C74.448 53.7496 74.4989 53.6766 74.5493 53.6068L74.5509 53.6045L74.551 53.6046C74.5582 53.5954 74.563 53.5885 74.5689 53.58C74.5735 53.5734 74.5787 53.5659 74.5861 53.5557L70.8873 54.5176ZM70.8873 54.5176C70.9548 54.4002 71.0244 54.2833 71.0943 54.1669C71.0997 54.1585 71.1068 54.1459 71.1113 54.138C71.1128 54.1354 71.114 54.1333 71.1147 54.132L71.172 54.0408L71.1721 54.0408L71.1727 54.0397C71.236 53.935 71.3005 53.8319 71.3661 53.7303L71.3662 53.7302L71.4614 53.5821C71.4614 53.582 71.4615 53.5819 71.4615 53.5818C71.5263 53.483 71.5896 53.3869 71.6551 53.2909L71.6552 53.2907L71.7472 53.1551L71.7472 53.1551L71.7478 53.1542C71.8305 53.0284 71.9145 52.9117 72.0005 52.794L72.0368 52.7447L72.0368 52.7447L72.0372 52.7441C72.1346 52.6093 72.2343 52.4767 72.3354 52.345L72.3354 52.345L72.3362 52.344L72.3598 52.3122L72.3599 52.312C72.3897 52.2715 72.4198 52.2339 72.4509 52.1951C72.467 52.175 72.4833 52.1547 72.5001 52.1333L72.5835 52.0276C72.6591 51.9333 72.7356 51.8391 72.8121 51.7466L75.3317 52.5943C75.2663 52.6735 75.2009 52.7535 75.1362 52.8341L75.1356 52.8349L75.052 52.9421C75.0392 52.9584 75.0263 52.9748 75.0134 52.9912C74.971 53.0451 74.9283 53.0995 74.8863 53.1551L70.8873 54.5176Z" fill="#0962FF" stroke="#141414" stroke-width="0.14149"/>
<path d="M73.393 55.5097L74.7196 58.8127L72.2326 57.976L70.906 54.673L73.393 55.5097Z" fill="#86B2FF" stroke="#141414" stroke-width="0.14149"/>
<path d="M73.9513 68.0457L73.9371 67.98L73.8717 67.9647L70.8018 67.2479C70.7613 66.7117 70.7413 66.162 70.748 65.6029C70.7549 65.0336 70.7871 64.464 70.8417 63.8942L73.9704 61.8494L74.0066 61.8258L74.016 61.7836C74.2314 60.8154 74.5349 59.869 74.9226 58.956L74.9397 58.9156L74.9234 58.8749L73.5454 55.4481C74.1046 54.4698 74.7468 53.5414 75.4651 52.6732L78.4004 53.8002L78.4619 53.8238L78.5104 53.7792C79.155 53.1853 79.8665 52.6683 80.6303 52.2385L80.6687 52.2169L80.6805 52.1745L81.8317 48.0459C82.2685 47.893 82.7145 47.7677 83.1671 47.6707C83.5954 47.5797 84.029 47.5164 84.4654 47.4812L85.5213 51.104L85.5406 51.1705L85.6092 51.1795C86.3338 51.2754 87.0372 51.4915 87.6907 51.8188L87.7515 51.8493L87.8046 51.8068L90.7835 49.4195C91.477 49.98 92.0934 50.6296 92.617 51.3515L91.1565 55.3851L91.1413 55.4272L91.1608 55.4675C91.539 56.2482 91.8224 57.0713 92.0049 57.9194L92.0191 57.9852L92.0846 58.0004L95.1508 58.7138C95.1914 59.2499 95.2114 59.7984 95.2047 60.3575C95.1978 60.9269 95.1655 61.4964 95.111 62.0663L91.9811 64.111L91.9449 64.1347L91.9355 64.1769C91.7204 65.145 91.4174 66.0915 91.0301 67.0045L91.0129 67.0448L91.0293 67.0855L92.4096 70.5171C91.851 71.4957 91.2087 72.4241 90.49 73.292L87.5546 72.1661L87.4931 72.1426L87.4446 72.1872C86.8004 72.7812 86.089 73.2978 85.3248 73.7266L85.2863 73.7481L85.2745 73.7906L84.1234 77.9203C83.6868 78.0725 83.2411 78.1975 82.789 78.2945C82.3607 78.3854 81.9271 78.4486 81.4908 78.4839L80.4349 74.8623L80.4156 74.7959L80.347 74.7868C79.6224 74.6905 78.919 74.4741 78.2656 74.1463L78.2048 74.1158L78.1517 74.1584L75.1717 76.5456C74.4796 75.9839 73.8636 75.3344 73.3392 74.6136L74.7997 70.5801L74.815 70.538L74.7955 70.4977C74.4174 69.7169 74.134 68.8938 73.9513 68.0457ZM83.0545 54.3495C81.1362 54.7574 79.3977 56.0941 78.134 57.9156L76.1548 64.4345L76.0487 64.4333C76.0487 64.4333 76.0487 64.4333 76.0487 64.4333C76.0213 66.8109 76.7692 68.8081 78.0109 70.1115C79.2546 71.417 80.9888 72.0203 82.9111 71.6121C84.8295 71.2048 86.568 69.8657 87.8316 68.0429C89.0958 66.2194 89.8908 63.9037 89.917 61.5283C89.9432 59.153 89.1953 57.1556 87.9539 55.8515C86.7105 54.5453 84.9769 53.9407 83.0545 54.3495Z" fill="#86B2FF" stroke="#141414" stroke-width="0.212235"/>
<path d="M57.7307 49.2055L80.2276 62.1873" stroke="#0962FF" stroke-width="1.47521" stroke-linecap="round"/>
<path d="M106.781 49.2055L84.2841 62.1873" stroke="#0962FF" stroke-width="1.47521" stroke-linecap="round"/>
<path d="M138.781 33.2055L116.284 46.1873" stroke="#86B2FF" stroke-width="1.47521" stroke-linecap="round" stroke-dasharray="20 2"/>
<path d="M137.498 52.2445L115.001 65.2263" stroke="#86B2FF" stroke-width="1.47521" stroke-linecap="round" stroke-dasharray="20 2"/>
<path d="M126.498 20.2445L102.648 34.5789" stroke="#86B2FF" stroke-width="1.47521" stroke-linecap="round" stroke-dasharray="20 2"/>
<path d="M82.0723 64.4002L82.0723 90.2165" stroke="#0962FF" stroke-width="1.47521" stroke-linecap="round"/>
<path d="M18.2998 92.6466C18.9903 92.248 19.841 92.248 20.5315 92.6466L34.6679 100.808C35.3584 101.207 35.7838 101.944 35.7838 102.741V119.064C35.7838 119.862 35.3584 120.598 34.6679 120.997L20.5315 129.159C19.841 129.557 18.9903 129.557 18.2998 129.159L4.16338 120.997C3.4729 120.598 3.04754 119.862 3.04754 119.064V102.741C3.04754 101.944 3.4729 101.207 4.16338 100.808L18.2998 92.6466Z" stroke="#0962FF" stroke-width="0.892674"/>
<path d="M4.68559 102.824L18.2988 110.679" stroke="#0962FF" stroke-width="0.892674" stroke-linecap="round"/>
<path d="M34.3671 102.824L20.7539 110.679" stroke="#0962FF" stroke-width="0.892674" stroke-linecap="round"/>
<path d="M19.416 112.018L19.416 127.64" stroke="#0962FF" stroke-width="0.892674" stroke-linecap="round"/>
<rect x="1.29904" y="0.75" width="66.3508" height="66.3508" rx="2.5" transform="matrix(0.866025 -0.5 2.20305e-08 1 65.4416 46.1365)" stroke="white" stroke-width="3" stroke-dasharray="40 40"/>
<path d="M175.523 118.863L175.527 118.86L175.527 118.86C175.571 118.83 175.617 118.803 175.666 118.78C175.615 117.686 175.161 116.647 174.389 115.866L173.705 115.359C172.911 114.836 171.977 114.163 170.182 112.836C167.522 110.898 165.432 109.465 163.708 108.283C163.583 108.197 163.46 108.113 163.339 108.03C161.548 106.8 160.156 105.836 158.924 104.83L158.92 104.827L158.92 104.827C158.777 104.706 158.605 104.502 158.412 104.247C158.215 103.988 157.988 103.663 157.733 103.29C157.496 102.941 157.233 102.547 156.95 102.121L156.888 102.029C156.581 101.568 156.25 101.071 155.897 100.552C154.485 98.4757 152.745 96.0678 150.91 94.2779C150.092 93.4799 149.36 92.5912 148.636 91.7116C148.467 91.5061 148.298 91.301 148.129 91.0978C147.23 90.0195 146.31 88.9846 145.199 88.1443L145.189 88.1362L145.189 88.1359C144.566 87.5954 143.857 87.162 143.092 86.8531C142.465 86.6553 141.786 86.7014 141.133 86.806C140.915 86.8409 140.706 86.881 140.504 86.92C140.4 86.94 140.298 86.9597 140.196 86.9782C139.905 87.0316 139.625 87.0748 139.38 87.0748H139.374V87.0747C139.299 87.0723 139.225 87.0488 139.16 87.0223C139.093 86.9948 139.019 86.9573 138.943 86.9147C138.833 86.8536 138.704 86.7749 138.562 86.6885C138.508 86.6558 138.453 86.622 138.396 86.5877C137.974 86.3331 137.437 86.0251 136.795 85.7887C135.519 85.3193 133.822 85.1285 131.806 86.245C131.419 86.5102 130.966 86.661 130.498 86.6801C130.029 86.6993 129.564 86.5856 129.158 86.3524C128.501 86.0466 127.769 85.9435 127.054 86.0562C126.336 86.1694 125.668 86.495 125.136 86.991L125.128 86.9985L125.128 86.9983C124.451 87.5634 123.943 88.3041 123.659 89.1391L123.652 89.1593L123.642 89.1777C123.494 89.4239 123.259 89.5591 122.983 89.6156C122.713 89.6708 122.396 89.653 122.054 89.593C121.371 89.4729 120.526 89.1707 119.639 88.8316L119.631 88.8285L119.631 88.8284C117.941 88.0978 116.31 87.237 114.753 86.2539L114.742 86.2469L114.732 86.2386C114.567 86.1016 114.213 85.8714 113.71 85.556C113.528 85.4422 113.328 85.318 113.112 85.1843C112.739 84.9526 112.32 84.6926 111.873 84.4101C110.461 83.5177 108.749 82.3881 107.205 81.1511C105.605 79.8809 102.844 77.768 101.005 76.635L100.997 76.63L100.997 76.6298C100.545 76.32 100.053 76.0725 99.5348 75.8939L99.5331 75.8932C98.9591 75.6894 98.3302 75.7031 97.7656 75.9317C97.2027 76.1596 96.7425 76.5854 96.4716 77.1289C96.3435 77.4272 96.2523 77.7401 96.2 78.0605C96.2041 78.9377 96.488 79.7908 97.0107 80.4956L97.0174 80.5048L97.0171 80.5049C97.235 80.8365 97.7944 81.441 98.3817 82.0638C98.4527 82.139 98.5241 82.2145 98.5951 82.2896C99.0996 82.8233 99.5883 83.3403 99.8191 83.6436L99.8207 83.6457L99.8207 83.6457C99.9643 83.8395 100.286 84.1555 100.783 84.6079C101.15 84.9422 101.604 85.3429 102.136 85.8126C102.317 85.9725 102.507 86.1403 102.706 86.3162C104.271 87.7009 106.367 89.5785 108.8 91.9721C109.813 92.9669 111.141 94.0118 112.325 94.9427C112.45 95.0415 112.574 95.1391 112.696 95.2352C113.328 95.7334 113.903 96.1929 114.334 96.5814C114.55 96.7756 114.734 96.9555 114.874 97.1166C115.001 97.2636 115.107 97.4127 115.155 97.5548C116.364 99.6917 117.691 101.76 119.128 103.751C120.154 104.965 120.986 106.33 121.595 107.798L121.6 107.812L121.604 107.825C121.682 108.133 121.694 108.426 121.544 108.644C121.388 108.871 121.112 108.945 120.8 108.945H120.787L120.787 108.944C119.322 108.851 117.89 108.47 116.572 107.824L116.572 107.824C116.491 107.785 116.353 107.698 116.182 107.59C116.165 107.579 116.148 107.568 116.131 107.558C115.929 107.43 115.671 107.269 115.365 107.09C114.752 106.732 113.949 106.306 113.029 105.955C111.184 105.253 108.9 104.864 106.746 105.895L106.742 105.897L106.742 105.897C106.313 106.091 105.911 106.34 105.547 106.639L105.541 106.645L105.541 106.644C105.042 107.021 104.686 107.557 104.534 108.164L104.533 108.169L104.533 108.169C104.38 108.711 104.373 109.284 104.514 109.829C104.654 110.372 104.934 110.869 105.327 111.269C106.459 112.244 107.738 113.034 109.117 113.61L109.129 113.615L109.129 113.615C110.268 114.178 111.416 114.546 112.583 114.901C112.706 114.938 112.829 114.975 112.952 115.013C113.996 115.328 115.056 115.649 116.117 116.1C117.167 116.533 118.168 117.076 119.103 117.72L119.113 117.727L119.113 117.727C121.426 119.532 124.625 120.773 127.965 121.563C131.302 122.351 134.764 122.685 137.59 122.685H137.597L137.597 122.685C138.162 122.705 138.843 122.647 139.566 122.586C139.903 122.557 140.248 122.528 140.596 122.505C141.664 122.436 142.753 122.429 143.519 122.761C143.519 122.761 143.519 122.761 143.52 122.761L143.44 122.945C143.926 123.15 144.395 123.376 144.864 123.602C145.263 123.794 145.661 123.986 146.07 124.165L175.523 118.863ZM175.523 118.863C173.002 120.693 170.792 122.916 168.977 125.448M175.523 118.863L168.977 125.448M168.977 125.448C168.978 125.448 168.978 125.448 168.978 125.448L169.14 125.565L168.977 125.448Z" fill="#86B2FF" stroke="#141414" stroke-width="0.4"/>
<g style="mix-blend-mode:multiply" opacity="0.2">
<path d="M125.77 109.195C125.95 109.195 124.54 107.475 124.48 107.405C123.882 106.769 123.317 106.101 122.79 105.405C122.08 104.465 121.48 103.405 120.79 102.505C119.225 100.559 117.48 98.7649 115.58 97.1448C113.86 95.5448 112.22 93.8948 110.58 92.2548C108.94 90.6148 106.84 88.7948 104.92 87.1148L101.27 83.9248C100.27 83.0248 99.0703 82.3148 98.0603 81.4148C97.4316 80.8857 96.8495 80.3035 96.3203 79.6748C96.4633 80.0052 96.6339 80.323 96.8303 80.6248C97.2903 81.3248 99.1303 83.1048 99.6403 83.7748C100.28 84.6248 103.79 87.3448 108.64 92.1248C110.9 94.3448 114.71 96.8048 114.95 97.6448C116.168 99.7969 117.503 101.88 118.95 103.885C119.965 105.084 120.789 106.433 121.39 107.885C121.475 108.09 121.475 108.32 121.39 108.525C122.87 108.625 124.24 109.305 125.77 109.195Z" fill="#0962FF"/>
</g>
<g style="mix-blend-mode:multiply" opacity="0.2">
<path d="M149.231 123.435C147.611 121.715 147.171 119.685 147.111 117.155C147.111 116.885 145.711 117.155 144.851 117.275C142.491 117.935 140.461 119.765 138.201 119.885C127.351 119.725 118.151 115.415 107.981 111.765C106.331 111.245 104.521 110.165 104.221 108.635C104.159 109.133 104.211 109.639 104.374 110.113C104.537 110.588 104.806 111.02 105.161 111.375C106.31 112.366 107.61 113.169 109.011 113.755C111.311 114.895 113.651 115.235 116.011 116.245C117.048 116.672 118.037 117.208 118.961 117.845C123.651 121.545 131.881 122.845 137.561 122.845C139.241 122.845 141.981 122.285 143.411 122.905C144.311 123.285 145.151 123.735 146.041 124.125C150.865 126.264 155.406 128.991 159.561 132.245L160.321 132.855C161.095 133.236 161.942 133.446 162.805 133.471C163.668 133.495 164.526 133.332 165.321 132.995C165.4 132.594 165.51 132.199 165.651 131.815C165.841 131.335 166.041 130.815 166.261 130.405C160.031 130.095 154.011 128.565 149.231 123.435Z" fill="#0962FF"/>
</g>
<g style="mix-blend-mode:multiply" opacity="0.2">
<path d="M105.321 111.385C104.693 110.818 104.307 110.031 104.244 109.188C104.18 108.344 104.444 107.509 104.981 106.855C105.164 106.601 105.419 106.408 105.714 106.301C106.008 106.194 106.327 106.178 106.631 106.255C108.561 106.465 110.081 106.755 109.861 110.435C109.691 113.055 107.561 112.995 105.321 111.385Z" fill="#86B2FF"/>
</g>
<path d="M106.359 106.594L106.36 106.594C106.386 106.597 106.412 106.6 106.438 106.602C106.856 106.644 107.246 106.684 107.599 106.767C107.972 106.855 108.296 106.991 108.557 107.225C109.077 107.692 109.385 108.58 109.27 110.388C109.224 111.016 109.069 111.474 108.841 111.787C108.615 112.098 108.311 112.272 107.951 112.328C107.222 112.442 106.248 112.072 105.226 111.309C104.675 110.739 104.347 109.989 104.301 109.197C104.255 108.404 104.495 107.62 104.978 106.988C105.164 106.773 105.296 106.659 105.477 106.603C105.665 106.545 105.919 106.544 106.359 106.594Z" fill="white" stroke="#141414" stroke-width="0.2"/>
<g style="mix-blend-mode:multiply" opacity="0.2">
<path d="M101.641 78.4548C101.218 78.9477 100.697 79.3464 100.111 79.6248C99.5658 79.9186 98.9383 80.0221 98.3278 79.9189C97.7173 79.8156 97.1588 79.5115 96.7408 79.0548C96.5008 78.7848 95.9507 78.1648 96.1407 77.5748C96.2561 77.2168 96.4415 76.8853 96.686 76.5996C96.9305 76.3138 97.2294 76.0795 97.5653 75.9101C97.9011 75.7408 98.2673 75.6399 98.6424 75.6132C99.0176 75.5866 99.3943 75.6347 99.7507 75.7548C100.336 75.9509 100.879 76.2563 101.351 76.6548C101.604 76.8719 101.773 77.172 101.826 77.5016C101.879 77.8312 101.813 78.169 101.641 78.4548Z" fill="#86B2FF"/>
</g>
<path d="M99.8775 79.2045L99.8774 79.2044L99.8733 79.2066C99.375 79.4735 98.8022 79.5673 98.2448 79.4733C97.6874 79.3792 97.1771 79.1027 96.794 78.687C96.6796 78.5626 96.4994 78.3602 96.3694 78.123C96.2387 77.8844 96.1679 77.6273 96.2456 77.3855C96.3514 77.0592 96.5207 76.757 96.7437 76.4964C96.9668 76.2357 97.2393 76.0218 97.5454 75.8669C97.8516 75.7121 98.1853 75.6193 98.5274 75.5941C98.8695 75.5688 99.2131 75.6114 99.5386 75.7196C100.082 75.9047 100.587 76.19 101.025 76.5608C101.247 76.7523 101.395 77.0158 101.442 77.3051C101.489 77.5916 101.435 77.8853 101.289 78.136C100.896 78.5845 100.416 78.9481 99.8775 79.2045Z" fill="white" stroke="#141414" stroke-width="0.2"/>
<path d="M165.246 132.849L165.246 132.849L165.243 132.851C164.475 133.177 163.645 133.334 162.811 133.311C161.98 133.287 161.163 133.086 160.417 132.719C160.156 132.56 159.917 132.368 159.705 132.147L159.704 132.145C158.686 131.099 158.255 129.367 158.696 127.098C159.356 124.473 160.626 122.04 162.403 119.998C164.181 117.954 166.416 116.358 168.926 115.34L168.926 115.34L168.931 115.338C169.695 115.004 170.523 114.839 171.357 114.854C172.188 114.869 173.007 115.063 173.757 115.422C173.992 115.56 174.212 115.723 174.412 115.909C175.207 116.709 175.668 117.782 175.701 118.911L175.701 118.911L175.701 118.915C175.738 119.644 175.676 120.376 175.516 121.088C174.849 123.717 173.572 126.152 171.788 128.196C170.003 130.239 167.762 131.834 165.246 132.849Z" fill="#0962FF" stroke="#141414" stroke-width="0.4"/>
<path opacity="0.3" d="M124.91 88.9348C124.968 89.073 125.065 89.1911 125.19 89.2748C125.623 89.5774 126.159 89.6961 126.68 89.6048C127.193 89.5104 127.677 89.2944 128.09 88.9748C129.16 88.1948 128.18 87.1148 127.09 87.1048C126.45 87.1048 124.6 88.1048 124.91 88.9348Z" fill="white"/>
<path opacity="0.3" d="M117.219 94.7548C117.315 94.9143 117.459 95.0401 117.629 95.1148C117.915 95.2513 118.225 95.3288 118.541 95.3425C118.857 95.3563 119.173 95.306 119.469 95.1948C120.072 94.9615 120.607 94.5838 121.029 94.0948C122.139 92.8748 120.739 91.7548 119.479 91.9748C118.669 92.1248 116.669 93.7848 117.219 94.7548Z" fill="white"/>
<path opacity="0.3" d="M132.18 87.8248C132.403 88.0608 132.699 88.2157 133.02 88.2648C133.626 88.3598 134.244 88.3598 134.85 88.2648C136.41 88.1148 136.21 86.5048 134.85 86.2648C134.09 86.1348 131.07 86.5648 132.18 87.8248Z" fill="white"/>
<path opacity="0.3" d="M140.62 87.6648C140.453 87.7656 140.331 87.9267 140.28 88.1148C140.276 88.2114 140.296 88.3075 140.337 88.3947C140.379 88.4819 140.442 88.5575 140.52 88.6148C140.684 88.7227 140.867 88.7975 141.06 88.8348C141.522 88.9494 141.994 89.0197 142.47 89.0448C142.749 89.081 143.033 89.0394 143.29 88.9248C143.413 88.8608 143.51 88.7561 143.565 88.6285C143.62 88.5008 143.629 88.3581 143.59 88.2248C143.534 88.1379 143.484 88.0478 143.44 87.9548C143.26 87.3548 143.02 87.3648 142.34 87.2748C141.738 87.1896 141.126 87.3284 140.62 87.6648Z" fill="white"/>
<path d="M104.561 80.3848C104.062 80.5448 103.598 80.7957 103.191 81.1248C102.982 81.2802 102.791 81.4579 102.621 81.6548C102.435 81.8263 102.297 82.0435 102.221 82.2848C102.402 82.1369 102.569 81.9729 102.721 81.7948C102.893 81.6126 103.08 81.4453 103.281 81.2948C103.684 81.0034 104.124 80.7679 104.591 80.5948C104.781 80.5448 104.721 80.3048 104.561 80.3848Z" fill="#0962FF"/>
<path d="M111.25 86.0248C110.537 86.2274 109.909 86.6554 109.46 87.2448C109.237 87.5495 109.061 87.8868 108.94 88.2448C108.87 88.4153 108.82 88.5931 108.79 88.7748C108.755 88.9598 108.755 89.1498 108.79 89.3348C108.798 89.3495 108.809 89.3618 108.823 89.3704C108.837 89.379 108.853 89.3836 108.87 89.3836C108.887 89.3836 108.903 89.379 108.917 89.3704C108.931 89.3618 108.942 89.3495 108.95 89.3348C108.982 89.1695 109.006 89.0026 109.02 88.8348C109.048 88.6645 109.092 88.4971 109.15 88.3348C109.263 88.0029 109.425 87.6895 109.63 87.4048C110.045 86.8085 110.636 86.3574 111.32 86.1148L111.25 86.0248Z" fill="#0962FF"/>
<path d="M111.32 86.8048L110.75 87.3948L110.49 87.6948C110.388 87.7888 110.303 87.9006 110.24 88.0248C110.24 88.0848 110.3 88.1448 110.36 88.1148C110.412 88.0732 110.459 88.0263 110.5 87.9748L110.63 87.8248C110.72 87.7248 110.82 87.6248 110.9 87.5248L111.4 86.8848C111.4 86.8848 111.32 86.7548 111.32 86.8048Z" fill="#0962FF"/>
<path d="M112.251 86.2048C112.197 86.37 112.163 86.5413 112.151 86.7148C112.151 86.9048 112.081 87.0948 112.021 87.2848C111.909 87.6427 111.74 87.9803 111.521 88.2848C111.299 88.6071 111.025 88.8908 110.711 89.1248C110.56 89.2276 110.403 89.3211 110.241 89.4048C110.101 89.4748 109.841 89.5248 109.801 89.6948C109.792 89.708 109.787 89.7237 109.787 89.7398C109.787 89.7558 109.792 89.7715 109.801 89.7848C109.951 89.9148 110.171 89.7848 110.321 89.7048C110.503 89.6171 110.677 89.5134 110.841 89.3948C111.181 89.1401 111.478 88.8329 111.721 88.4848C111.963 88.1388 112.143 87.7529 112.251 87.3448C112.305 87.1487 112.338 86.9476 112.351 86.7448C112.369 86.559 112.334 86.3719 112.251 86.2048Z" fill="#0962FF"/>
<defs>
<clipPath id="clip0_1237_9612">
<rect width="22.5235" height="15.08" fill="white" transform="translate(144.494 13.487)"/>
</clipPath>
<clipPath id="clip1_1237_9612">
<rect width="19.8202" height="15.4106" fill="white" transform="matrix(-0.87019 0.492716 0.492716 0.87019 24.8301 98.6249)"/>
</clipPath>
</defs>
</svg>
