<svg width="144" height="160" viewBox="0 0 144 160" fill="none" xmlns="http://www.w3.org/2000/svg">
<rect x="0.634486" width="81.3232" height="81.3232" rx="8.42537" transform="matrix(0.866025 -0.5 0.866025 0.5 1.02251 119.289)" fill="#141414" stroke="#0962FF" stroke-width="0.732641"/>
<rect x="0.634486" width="81.3232" height="81.3232" rx="8.42537" transform="matrix(0.866025 -0.5 0.866025 0.5 1.02251 111.23)" fill="#86B2FF" stroke="#0962FF" stroke-width="0.732641"/>
<rect opacity="0.3" width="48.2273" height="55.518" rx="8.79169" transform="matrix(0.866025 -0.5 0.866025 0.5 38.2383 98.5836)" fill="#060606"/>
<path d="M5.7207 118.593V110.884C5.7207 111.738 6.52661 113.887 9.75023 115.646C12.9738 117.404 14.024 118.088 14.1461 118.21V126.122L7.55231 122.239C7.20871 121.982 6.58714 121.398 6.14671 120.666C5.77604 120.05 5.7207 119.312 5.7207 118.593Z" fill="#0962FF" stroke="#0962FF" stroke-width="0.732641"/>
<path d="M138.109 110.884V119.309" stroke="#0962FF" stroke-width="0.732641"/>
<path d="M63.9648 147.149V154.842" stroke="#0962FF" stroke-width="0.732641"/>
<path d="M80.084 146.783V154.842" stroke="#0962FF" stroke-width="0.732641"/>
<path d="M133.199 119.344V116.378C133.199 116.378 135.131 115.454 136.13 114.547C136.963 113.79 137.846 112.183 138.184 111.532C138.22 111.463 138.328 111.489 138.328 111.567V118.034C138.328 119.119 138.212 120.249 137.595 121.141C136.808 122.278 135.528 122.953 134.331 123.645L93.6367 147.149L130.428 124.325C132.151 123.256 133.199 121.372 133.199 119.344Z" fill="#0962FF" stroke="#0962FF" stroke-width="0.732641"/>
<path d="M19.6406 129.346V121.653L25.5018 125.317V132.643L19.6406 129.346Z" fill="#0962FF" stroke="#0962FF" stroke-width="0.732641"/>
<g clip-path="url(#clip0_1237_9922)">
<path d="M106.381 82.5066L114.272 77.7299C112.919 80.458 111.427 82.0049 109.942 82.6451L109.916 82.6634L75.8672 103.401C76.9281 102.604 77.9812 101.295 78.9611 99.3639C79.016 99.2515 79.0787 99.1339 79.1362 99.0137L106.381 82.5066Z" fill="white"/>
<path d="M106.382 82.5066L79.1377 99.0137C79.0802 99.1339 79.0175 99.2515 78.9626 99.3638L71.3166 103.939C71.2692 103.919 71.2238 103.895 71.1807 103.866C70.0362 103.255 69.0118 102.11 68.2148 100.636C68.2148 100.636 99.0052 81.3176 103.555 79.6792C104.341 80.9779 105.311 81.9761 106.382 82.5066Z" fill="#86B2FF"/>
<path d="M102.271 76.6298C102.568 77.6944 103.002 78.7159 103.562 79.6688C99.0126 81.3072 68.2222 100.626 68.2222 100.626C67.5684 99.3771 67.1051 98.0375 66.8477 96.6515C66.8477 96.6515 92.1087 80.0268 102.271 76.6298Z" fill="white"/>
<path d="M101.673 71.8973C101.637 73.4956 101.838 75.0904 102.269 76.6297C92.1066 80.0268 66.8482 96.6619 66.8482 96.6619C66.623 95.4762 66.5231 94.2702 66.5503 93.0636C66.6258 91.5578 66.5461 90.0481 66.3125 88.5586C66.3125 88.5586 95.3443 69.3966 101.605 68.5813C101.704 69.6838 101.727 70.7917 101.673 71.8973Z" fill="white"/>
<path d="M64.8361 84.3018C64.5592 83.8122 64.2373 83.3494 63.8745 82.9195C63.8013 82.828 63.7282 82.7365 63.6445 82.6451L98.629 61.5337C100.67 63.6582 101.375 66.3941 101.603 68.5891C95.3312 69.4044 66.3099 88.5664 66.3099 88.5664C66.0773 87.0683 65.5781 85.6239 64.8361 84.3018Z" fill="white"/>
<path d="M91.475 58.9337C92.3086 58.3928 93.6831 58.4111 95.9617 59.5635C96.9565 60.0627 97.8581 60.7292 98.6271 61.5338L63.6427 82.64C63.0328 81.9627 62.3288 81.3766 61.5522 80.8996C61.3144 80.7454 61.0661 80.607 60.8101 80.4711C60.2631 80.1822 59.6943 79.9367 59.1089 79.7368C57.9827 79.3814 57.1674 79.4075 56.582 79.6741L78.0488 66.9064L91.462 58.9233L91.475 58.9337Z" fill="white"/>
<path d="M71.3164 103.939L78.9624 99.3639C77.9825 101.295 76.9294 102.604 75.8685 103.401L74.9147 103.987L74.8859 104.005C74.3289 104.279 73.7142 104.417 73.0932 104.405C72.4723 104.394 71.863 104.234 71.3164 103.939Z" fill="#758D9E"/>
<path d="M55.1773 82.1173C55.1154 82.6428 55.0874 83.1717 55.0937 83.7008L44.8764 89.6953C41.8373 87.3252 39.8592 84.6416 38.7695 81.43C38.7695 81.43 67.655 61.9727 74.308 61.5442C75.1773 63.5676 76.4507 65.3923 78.05 66.9063L56.5962 79.6793C55.679 80.0895 55.3158 81.0877 55.1773 82.1173Z" fill="#86B2FF"/>
<path d="M72.8907 55.2439C72.9943 57.4071 73.4744 59.5356 74.3096 61.5337C67.654 61.9622 38.7712 81.4195 38.7712 81.4195C38.0273 79.1198 37.6688 76.7129 37.7103 74.2962C37.7103 74.2962 59.7885 64.8105 72.8907 55.2439Z" fill="white"/>
<path d="M72.8348 53.5141C72.8348 54.1081 72.8531 54.6847 72.8897 55.2439C59.7875 64.8106 37.7066 74.2962 37.7066 74.2962V36.9887C37.7105 35.4736 37.6232 33.9596 37.4453 32.4549C37.4453 32.4549 59.6202 27.0353 72.6571 13.3217C72.7816 14.5319 72.8427 15.7478 72.84 16.9643L72.8348 53.5141Z" fill="white"/>
<path d="M71.1786 103.866L48.3086 91.8824C49.9104 92.5775 51.2013 92.4678 52.2074 91.838L52.2544 91.8093L64.834 84.3018C65.5751 85.6215 66.0742 87.0631 66.3078 88.5585C66.5414 90.0481 66.6211 91.5577 66.5456 93.0636C66.5167 94.2699 66.6148 95.476 66.8382 96.6618C67.0957 98.0478 67.559 99.3875 68.2127 100.636C69.0097 102.11 70.0341 103.255 71.1786 103.866Z" fill="#070F33"/>
<path d="M37.0633 30.1946C36.9063 29.4009 36.7083 28.6159 36.4701 27.8428C36.2528 27.132 35.9954 26.434 35.6992 25.7523C36.1121 25.5981 62.5072 15.8015 70.9398 6.21399C71.8688 8.48499 72.446 10.8844 72.6514 13.3295C59.6145 27.0353 37.4396 32.468 37.4396 32.468C37.3403 31.6579 37.2122 30.9001 37.0633 30.1946Z" fill="white"/>
<path d="M33.7694 22.431C32.5517 20.8631 31.5273 20.2778 31.5273 20.2778C31.5273 20.2778 48.3532 15.4827 66.666 0.587891C66.666 0.587891 69.1275 1.9232 70.941 6.19826C62.5085 15.7858 36.1134 25.5824 35.7005 25.7366C35.1982 24.558 34.5494 23.4473 33.7694 22.431Z" fill="white"/>
<path d="M64.8374 84.3019L52.2578 91.8094C53.3031 91.1509 54.0243 89.9515 54.492 88.5221L63.8757 82.9196C64.2385 83.3495 64.5604 83.8123 64.8374 84.3019Z" fill="#506A77"/>
<path d="M31.3292 20.1497C30.5766 19.7107 29.223 19.3266 27.9766 19.729C28.6455 19.3815 50.2247 8.19469 59.2425 1.74028C59.2425 1.74028 62.9009 -1.23606 66.669 0.595733C48.3563 15.4827 31.5382 20.2778 31.5382 20.2778C31.4716 20.2302 31.4018 20.1875 31.3292 20.1497Z" fill="white"/>
<path d="M63.6459 82.6399C63.7296 82.7313 63.8027 82.8228 63.8759 82.9142L54.4922 88.5168C54.5549 88.3077 54.6202 88.0961 54.6751 87.8844C54.9322 86.8662 55.0733 85.8221 55.0958 84.7722L61.5685 80.8995C62.3405 81.3775 63.0401 81.9636 63.6459 82.6399Z" fill="#5F7A84"/>
<path d="M55.0946 83.6851C55.0883 83.156 55.1163 82.6271 55.1782 82.1016L59.124 79.7498C59.7094 79.9497 60.2782 80.1952 60.8252 80.484C61.0865 80.6199 61.3295 80.7454 61.5673 80.9126L55.0946 84.7852C55.0946 84.6494 55.0946 84.5109 55.0946 84.375C55.1051 84.1842 55.0946 83.9464 55.0946 83.6851Z" fill="#506A77"/>
<path d="M59.1216 79.7419L55.1758 82.0937C55.3117 81.0772 55.6775 80.079 56.5947 79.6688C57.18 79.4127 57.9953 79.3865 59.1216 79.7419Z" fill="#405B66"/>
<path d="M55.0923 84.7773C55.0698 85.8273 54.9286 86.8713 54.6716 87.8896L48.3086 91.8824C47.8862 91.698 47.479 91.4804 47.0909 91.2318C46.3263 90.7543 45.5867 90.238 44.875 89.6848L55.0923 83.6851C55.0923 83.9464 55.0923 84.1816 55.0923 84.3645C55.1028 84.503 55.1028 84.6415 55.0923 84.7773Z" fill="#86B2FF"/>
<path d="M54.4886 88.522C54.0209 89.9514 53.2892 91.1508 52.2544 91.8093L52.2074 91.8381C51.2013 92.4678 49.9104 92.5776 48.3086 91.8825L54.6715 87.8896C54.6167 88.1013 54.5513 88.313 54.4886 88.522Z" fill="#0962FF"/>
<path d="M24.9554 35.366C25.0025 35.157 25.039 34.9453 25.0756 34.718L36.4741 27.8324C36.7123 28.6056 36.9103 29.3905 37.0672 30.1842L23.1445 38.6063C24.0957 38.0027 24.6549 36.9104 24.9554 35.366Z" fill="#0962FF"/>
<path d="M25.3016 30.7173C25.3016 29.7452 25.2833 28.6921 25.2467 27.5815L33.7707 22.4363C34.5485 23.4555 35.1947 24.5688 35.694 25.7497C35.9902 26.4314 36.2476 27.1294 36.4648 27.8402L25.0664 34.7258C25.1807 33.9002 25.2479 33.0687 25.2676 32.2355C25.2937 31.7521 25.3016 31.2477 25.3016 30.7173Z" fill="#0962FF"/>
<path d="M33.7702 22.431L25.2462 27.5763C25.2462 27.1451 25.22 26.7061 25.2096 26.2566C25.1799 25.4591 25.214 24.6604 25.3115 23.8682L31.3217 20.1498C31.3916 20.1878 31.4588 20.2306 31.5229 20.2778C31.5229 20.2778 32.5524 20.8553 33.7702 22.431Z" fill="#0962FF"/>
<path d="M31.3266 20.1497L25.3164 23.8682C25.664 21.2942 26.7615 20.1418 27.9609 19.7394C27.9609 19.7394 27.9609 19.7394 27.9792 19.7394C29.2204 19.3266 30.574 19.7107 31.3266 20.1497Z" fill="#0962FF"/>
<path d="M17.4922 35.4026L25.3002 30.7173C25.3002 31.2399 25.3002 31.7625 25.2741 32.2277L17.7744 36.9313C17.6049 36.4386 17.5098 35.9234 17.4922 35.4026Z" fill="#86B2FF"/>
<path d="M25.0719 34.718C25.0353 34.9454 24.9987 35.157 24.9517 35.3661L19.3779 38.8729C18.9944 38.6754 18.6546 38.4026 18.379 38.0708C18.1033 37.739 17.8973 37.355 17.7734 36.9418L25.2731 32.2382C25.253 33.0679 25.1858 33.8959 25.0719 34.718Z" fill="#86B2FF"/>
<path d="M19.3828 38.8728L24.9566 35.366C24.6561 36.9051 24.0969 38.0026 23.1457 38.6167C22.4682 39.0269 21.6845 39.2279 20.8932 39.1942C20.3716 39.2062 19.8543 39.0962 19.3828 38.8728Z" fill="#86B2FF"/>
<path d="M45.7656 38.2235L67.8346 25.3499" stroke="#141414" stroke-width="0.91954" stroke-linecap="round"/>
<path d="M45.7656 43.7407L67.8346 30.8672" stroke="#141414" stroke-width="0.91954" stroke-linecap="round"/>
<path d="M45.7656 52.0166L57.6798 45.0667" stroke="#141414" stroke-width="0.91954" stroke-linecap="round"/>
<path d="M45.7656 55.6948L67.8346 42.8213" stroke="#141414" stroke-width="0.91954" stroke-linecap="round"/>
</g>
<g clip-path="url(#clip1_1237_9922)">
<path d="M104.004 95.1926V91.9891H133.185V95.1926C133.185 97.2918 131.574 99.2151 128.928 100.618C126.286 102.02 122.631 102.89 118.59 102.89C114.549 102.89 110.896 102.025 108.256 100.627C105.613 99.2268 104.004 97.3035 104.004 95.1926Z" fill="white" stroke="#141414" stroke-width="0.155509"/>
<path d="M104.159 92.37C104.159 90.3607 105.705 88.4784 108.329 87.0846C110.943 85.6965 114.57 84.8279 118.59 84.8279C122.611 84.8279 126.24 85.6946 128.855 87.0818C131.481 88.4746 133.029 90.3569 133.029 92.37C133.029 94.3832 131.481 96.2655 128.855 97.6583C126.24 99.0455 122.611 99.9122 118.59 99.9122C114.57 99.9122 110.943 99.0436 108.329 97.6554C105.705 96.2617 104.159 94.3794 104.159 92.37Z" fill="#0962FF" stroke="#141414" stroke-width="0.466526"/>
<path opacity="0.5" d="M118.535 85.9708C112.657 85.9708 107.891 88.5134 107.891 91.6391C107.891 94.7648 112.657 97.2996 118.535 97.2996C124.413 97.2996 129.188 94.7648 129.188 91.6391C129.188 88.5134 124.413 85.9708 118.535 85.9708Z" fill="#86B2FF"/>
<path d="M118.59 86.9427C114.99 86.9427 112.074 88.4978 112.074 90.4106C112.074 92.3233 114.99 93.8784 118.59 93.8784C122.19 93.8784 125.106 92.3233 125.106 90.4106C125.106 88.4978 122.19 86.9427 118.59 86.9427Z" fill="#0962FF"/>
<path d="M114.047 84.1125V89.462C114.047 90.7994 116.084 91.8802 118.588 91.8802C121.091 91.8802 123.129 90.7994 123.129 89.462V84.0814L114.047 84.1125Z" fill="#141414"/>
<path d="M118.535 84.0193C115.853 84.0193 113.676 85.1778 113.676 86.6085C113.676 88.0392 115.853 89.1899 118.535 89.1899C121.218 89.1899 123.403 88.0314 123.403 86.6085C123.403 85.1856 121.218 84.0193 118.535 84.0193Z" fill="#86B2FF"/>
<path d="M118.587 82.0753C115.531 82.0753 113.059 83.3894 113.059 85.0144C113.059 86.6395 115.531 87.9535 118.587 87.9535C121.643 87.9535 124.115 86.6395 124.115 85.0144C124.115 83.3894 121.643 82.0753 118.587 82.0753Z" fill="#0962FF"/>
<path d="M118.535 81.3911C115.853 81.3911 113.676 82.5496 113.676 83.9803C113.676 85.411 115.853 86.5695 118.535 86.5695C121.218 86.5695 123.403 85.411 123.403 83.9803C123.403 82.5496 121.218 81.3911 118.535 81.3911Z" fill="#86B2FF"/>
<path d="M118.59 55.1724C116.293 55.173 114.086 56.065 112.434 57.6604C110.782 59.2558 109.814 61.4302 109.733 63.7254C109.73 63.7771 109.73 63.8291 109.733 63.8809V64.0675C109.733 66.1746 109.959 67.5898 111.802 71.423C112.667 73.2926 113.369 75.2333 113.901 77.2235C114.338 79.0648 114.585 80.9458 114.64 82.8374C114.641 82.9657 114.656 83.0935 114.686 83.2184C114.951 84.2292 116.576 85.0067 118.574 85.0067C120.572 85.0067 122.322 84.1592 122.462 83.0862C122.462 83.0318 122.462 82.6819 122.462 82.5108C122.493 80.7275 122.728 78.9536 123.161 77.2235C123.69 75.2334 124.39 73.2927 125.253 71.423C126.036 69.9264 126.646 68.3456 127.073 66.7111C127.492 65.3804 127.592 63.9695 127.363 62.593C127.135 61.2165 126.586 59.9133 125.759 58.7891C124.933 57.665 123.853 56.7516 122.607 56.1232C121.361 55.4947 119.985 55.169 118.59 55.1724Z" fill="#0962FF"/>
<path opacity="0.5" d="M118.248 62.7379C117.105 64.7206 114.889 65.5837 113.311 64.674C111.732 63.7643 111.374 61.4161 112.533 59.4334C113.692 57.4506 115.892 56.5876 117.47 57.4973C119.049 58.407 119.391 60.7552 118.248 62.7379Z" fill="#86B2FF"/>
<path d="M115.865 60.5841C115.173 61.4083 114.131 61.6649 113.532 61.1673C112.933 60.6697 113.003 59.6122 113.688 58.7647C114.372 57.9172 115.421 57.6839 116.02 58.1815C116.619 58.6791 116.549 59.7599 115.865 60.5841Z" fill="white"/>
</g>
<rect x="0.209368" y="0.362636" width="36.121" height="54.7774" rx="2.96031" transform="matrix(0.866025 0.5 -2.20305e-08 1 23.9538 45.8722)" fill="#0962FF" stroke="#141414" stroke-width="0.483514"/>
<rect x="0.0693267" y="0.120077" width="7.04988" height="11.178" rx="1.20077" transform="matrix(0.866025 0.5 -2.20305e-08 1 45.7105 63.8474)" fill="#141414" stroke="#0962FF" stroke-width="0.160103"/>
<rect x="0.0693267" y="0.120077" width="1.76114" height="12.7844" rx="0.560361" transform="matrix(0.866025 0.5 -2.20305e-08 1 50.353 99.1342)" fill="#141414" stroke="#0962FF" stroke-width="0.160103"/>
<rect x="0.0970574" y="0.168108" width="6.98584" height="1.69709" transform="matrix(0.866025 0.5 -2.20305e-08 1 45.7142 67.4412)" fill="#141414" stroke="#0962FF" stroke-width="0.224145"/>
<rect x="0.0970574" y="0.168108" width="6.98584" height="1.69709" transform="matrix(0.866025 0.5 -2.20305e-08 1 45.7142 69.2023)" fill="#141414" stroke="#0962FF" stroke-width="0.224145"/>
<rect x="0.0970574" y="0.168108" width="3.42155" height="5.50891" rx="0.528341" transform="matrix(0.866025 0.5 -2.20305e-08 1 47.2552 67.527)" fill="#141414" stroke="#0962FF" stroke-width="0.224145"/>
<rect width="8.50408" height="55.261" transform="matrix(0.866025 0.5 -2.20305e-08 1 29.209 49.0273)" fill="#141414"/>
<path d="M52.4103 133.333C60.7012 133.333 67.4222 131.115 67.4222 128.378C67.4222 125.641 60.7012 123.422 52.4103 123.422C44.1195 123.422 37.3984 125.641 37.3984 128.378C37.3984 131.115 44.1195 133.333 52.4103 133.333Z" fill="#0962FF"/>
<path d="M53.8415 102.062L42.9158 94.2978C42.965 94.259 43.0242 94.2139 43.0927 94.1643C43.3248 93.9964 43.6631 93.7781 44.0859 93.5778C44.9322 93.1769 46.1084 92.8523 47.4496 93.1379C48.8831 93.4431 49.7493 93.2289 50.5026 92.9287C50.6587 92.8665 50.8073 92.8021 50.9532 92.739C51.5083 92.4985 52.0235 92.2754 52.7638 92.2534C53.6775 92.2263 54.2572 92.5978 54.7698 92.9967C54.8347 93.0471 54.8997 93.0991 54.9648 93.1512C55.1528 93.3014 55.342 93.4526 55.533 93.5722C55.7971 93.7376 56.0864 93.8581 56.4287 93.8565C57.0606 93.8534 57.4469 93.4352 57.7564 93.1001C57.7828 93.0716 57.8086 93.0437 57.8339 93.0167C58.0051 92.8342 58.1546 92.6901 58.322 92.6096C58.4776 92.5348 58.6601 92.51 58.9123 92.5985C59.4691 92.7938 59.8009 93.0888 59.9929 93.3289C60.0894 93.4496 60.1513 93.5574 60.1886 93.6334C60.1938 93.644 60.1986 93.654 60.2029 93.6634L53.8415 102.062Z" fill="#0962FF" stroke="#141414" stroke-width="0.367816"/>
<path d="M53.896 102.443L42.4551 94.3138L42.542 94.2327C42.5633 94.2134 44.6993 92.2609 47.4996 92.8557C49.1451 93.2072 49.9968 92.8364 50.8214 92.4695C51.4236 92.1688 52.0807 91.994 52.7527 91.9557C53.8922 91.921 54.5584 92.4521 55.1456 92.9214C55.5743 93.2632 55.9451 93.5606 56.4222 93.5606C56.9301 93.5606 57.2468 93.2169 57.552 92.8885C57.9247 92.4888 58.3071 92.0735 59.0024 92.3092C60.2191 92.736 60.4895 93.6031 60.5011 93.6398L60.5145 93.6881L60.4856 93.7267L53.896 102.443ZM42.766 94.2964L53.8555 102.176L60.2983 93.6688C60.2268 93.495 59.912 92.848 58.9464 92.51C58.367 92.3169 58.0618 92.6433 57.7026 93.0295C57.384 93.3733 57.0228 93.7615 56.4318 93.7634C55.8853 93.7634 55.4662 93.4332 55.0336 93.0817C54.4735 92.6355 53.8381 92.1276 52.7682 92.1604C52.0072 92.1836 51.4761 92.4134 50.9122 92.6587C50.0605 93.0276 49.174 93.41 47.4726 93.045C45.0797 92.5467 43.1948 93.945 42.766 94.3022V94.2964Z" fill="#0962FF"/>
<path d="M66.023 121.79L66.023 121.788C66.023 117.385 64.3427 111.918 61.6229 107.554C58.8977 103.183 55.1683 99.9779 51.0968 99.9845L51.0965 99.9845C48.7177 99.9845 46.4571 101.073 44.4404 102.854C42.4238 104.635 40.662 107.1 39.2867 109.826C37.3212 113.724 36.1546 118.134 36.1546 121.802C36.1546 124.286 36.6857 126.152 37.6256 127.553C37.6984 127.66 37.7694 127.762 37.8435 127.861C37.8453 127.863 37.8486 127.867 37.8528 127.872C37.868 127.891 37.8953 127.925 37.9102 127.947C37.9191 127.961 37.9309 127.975 37.9493 127.998L37.9516 128.001L37.9529 128.002L38.0341 128.104L38.035 128.105L38.0414 128.111C38.0531 128.123 38.064 128.137 38.0773 128.155L37.929 128.264L38.0773 128.155C38.0829 128.163 38.0899 128.171 38.1014 128.184C38.1029 128.186 38.1045 128.188 38.1061 128.19C38.1161 128.201 38.1295 128.216 38.1422 128.232C38.1604 128.255 38.1809 128.277 38.2067 128.305L38.2128 128.311L38.2182 128.318C38.2283 128.332 38.2392 128.344 38.2508 128.357L38.2534 128.359L38.2534 128.359L38.3226 128.434L38.3229 128.435L38.3961 128.513L38.5159 128.635L38.518 128.637L38.518 128.637C38.5525 128.674 38.5876 128.707 38.626 128.742L38.6334 128.748L38.64 128.756L38.649 128.766L38.7276 128.838C38.7278 128.838 38.728 128.838 38.7282 128.838C38.7426 128.851 38.7569 128.864 38.7711 128.876C38.8672 128.963 38.9595 129.045 39.0559 129.123L38.941 129.266L39.0559 129.123L39.1428 129.192L39.1529 129.2L39.1526 129.201C39.1646 129.212 39.1749 129.219 39.191 129.232C39.1989 129.238 39.2083 129.245 39.2199 129.254C39.2202 129.254 39.2205 129.255 39.2207 129.255L39.2753 129.297L39.277 129.298L39.3666 129.365L39.4388 129.417L39.4403 129.418L39.5088 129.466L39.5103 129.467L39.5957 129.526L39.6037 129.532L39.6036 129.532C39.6215 129.546 39.6419 129.559 39.67 129.577L39.6727 129.579L39.6726 129.579L39.7453 129.627L39.7479 129.629L39.8248 129.678L39.8264 129.679L39.922 129.739L39.9233 129.74L40.0607 129.825L40.1847 129.896C40.1849 129.896 40.1851 129.896 40.1853 129.896C40.2569 129.937 40.3257 129.976 40.396 130.013L40.5601 130.099L40.6578 130.148L40.659 130.148L40.7679 130.202L40.7691 130.203L40.8053 130.221L40.9361 130.281L40.9368 130.282L40.9963 130.309L41.1271 130.366L41.1295 130.367L41.1295 130.367L41.1878 130.394L41.2791 130.433L41.401 130.482L41.4011 130.482L41.5615 130.547L41.6738 130.59L41.69 130.596C41.9668 130.695 42.2476 130.795 42.5331 130.88L66.023 121.79ZM66.023 121.79C66.0328 122.785 65.93 123.778 65.7165 124.749M66.023 121.79L65.7165 124.749M65.7165 124.749C65.0241 127.771 63.1955 129.521 60.6309 130.524C58.0524 131.532 54.7337 131.782 51.0849 131.782H50.5326H49.7722L49.3404 131.771L65.7165 124.749ZM42.6499 130.915L42.5337 130.88L49.3401 131.771C48.9313 131.759 48.5296 131.746 48.1323 131.725C48.1322 131.725 48.1322 131.725 48.1321 131.725L47.8952 131.711L47.6596 131.698L47.6577 131.698L47.2328 131.669L47.2309 131.669L46.963 131.648L46.9605 131.648L46.732 131.627L46.7312 131.627L46.2897 131.584L46.281 131.583H46.2722H46.267L45.8288 131.534L45.8271 131.534L45.6065 131.508L45.6048 131.507L45.386 131.479L45.168 131.446L45.1676 131.446L44.9517 131.413L44.9517 131.413L44.9487 131.413C44.88 131.404 44.8098 131.393 44.742 131.38L44.742 131.38L44.7383 131.379L44.487 131.337L44.4853 131.337L44.3158 131.307L44.3132 131.306L44.1063 131.266C44.1061 131.266 44.1059 131.266 44.1057 131.266C43.8938 131.224 43.6835 131.178 43.4766 131.13L43.3304 131.096L43.2804 131.083L43.2794 131.083L43.1291 131.045L43.1268 131.044L43.0712 131.029L43.0701 131.029L42.9309 130.993L42.8574 130.972L42.8554 130.972L42.7352 130.939L42.7337 130.939L42.6509 130.915L42.6499 130.915Z" fill="white" stroke="#141414" stroke-width="0.367816"/>
<path d="M51.0859 132.063H50.5336H49.7611L49.3265 132.051C48.8843 132.039 48.4864 132.024 48.1117 132.005L47.8723 131.993L47.6347 131.978L47.204 131.949L46.9298 131.927L46.7714 131.914H46.6999L46.2558 131.871H46.2442L45.7884 131.819H45.7208L45.5624 131.8L45.3461 131.771L45.1202 131.738L44.902 131.705L44.6856 131.671L44.4307 131.626L44.2569 131.595L44.0444 131.555C43.8107 131.508 43.6022 131.464 43.4052 131.418L43.2121 131.369L43.0576 131.331L42.9996 131.315L42.8586 131.279L42.7988 131.261H42.7814L42.6597 131.226L42.5728 131.201L42.4531 131.166C42.1537 131.076 41.8583 130.973 41.5763 130.871L41.4604 130.827L41.2962 130.761L41.1707 130.709L41.0761 130.668L41.0143 130.641L40.881 130.581L40.8173 130.552L40.6879 130.492L40.6608 130.481H40.6473L40.5334 130.425L40.4329 130.375L40.2649 130.286C40.1915 130.247 40.1201 130.207 40.0467 130.164L39.927 130.097L39.786 130.012L39.6836 129.948L39.6005 129.894L39.5233 129.842L39.4441 129.788C39.4152 129.77 39.3862 129.749 39.3572 129.728C39.3318 129.712 39.3074 129.694 39.2838 129.676L39.2085 129.621L39.1139 129.55L39.0694 129.515H39.0579L38.9729 129.45L38.8879 129.38C38.772 129.285 38.6561 129.187 38.548 129.085L38.4592 129.003L38.4398 128.982L38.324 128.87L38.2004 128.745L38.1251 128.664C38.1019 128.64 38.0768 128.613 38.0536 128.586C38.0304 128.559 38.0227 128.55 38.0053 128.532L37.9319 128.447L37.8624 128.364L37.8257 128.32C37.7987 128.289 37.7697 128.252 37.7407 128.215C37.7118 128.179 37.704 128.169 37.6867 128.144L37.6306 128.071C37.5476 127.961 37.4723 127.854 37.4028 127.748C36.3792 126.22 35.8828 124.287 35.8828 121.84C35.8828 118.134 37.0416 113.729 39.0444 109.739C40.5005 106.842 42.3063 104.41 44.2588 102.682C46.4663 100.731 48.7684 99.7426 51.0975 99.7426C53.1041 99.7426 55.1049 100.484 57.042 101.95C58.7802 103.259 60.443 105.162 61.8702 107.456C64.6107 111.854 66.3122 117.366 66.3122 121.84C66.3216 122.856 66.2167 123.87 65.9993 124.863C65.3369 127.76 63.6161 129.718 60.7424 130.85C57.8686 131.981 54.0582 132.063 51.0859 132.063ZM50.5394 131.869H51.0859C58.9443 131.869 64.4543 130.661 65.8023 124.768C66.0164 123.789 66.12 122.79 66.1113 121.788C66.1113 117.346 64.4195 111.875 61.6964 107.497C58.6315 102.582 54.8635 99.8739 51.0859 99.8739C46.7695 99.8739 42.3275 103.57 39.2027 109.764C37.2058 113.723 36.0605 118.101 36.0605 121.779C36.0605 124.187 36.5472 126.083 37.5476 127.572C37.6152 127.675 37.6905 127.781 37.7677 127.885L37.8257 127.959L37.8778 128.028C37.9068 128.063 37.9338 128.098 37.9628 128.131C37.9723 128.145 37.9827 128.158 37.9937 128.171L38.0652 128.254C38.0875 128.282 38.1113 128.31 38.1367 128.335C38.1511 128.354 38.1666 128.372 38.183 128.389C38.2062 128.414 38.2274 128.44 38.2506 128.463C38.2737 128.486 38.3008 128.517 38.3259 128.542C38.351 128.567 38.407 128.627 38.4456 128.665L38.5615 128.779L38.577 128.793C38.6053 128.823 38.6343 128.85 38.6639 128.874C38.7701 128.973 38.8821 129.067 38.9961 129.162C39.0231 129.187 39.0521 129.208 39.0791 129.229L39.1583 129.293L39.1718 129.303L39.2143 129.334C39.249 129.361 39.278 129.384 39.3089 129.405C39.3318 129.424 39.3557 129.441 39.3804 129.457L39.4538 129.509C39.4827 129.531 39.5098 129.55 39.5388 129.567L39.616 129.621L39.6913 129.672L39.7724 129.724L39.8709 129.786L40.01 129.869C40.0486 129.892 40.0873 129.915 40.1278 129.936C40.1993 129.977 40.2688 130.017 40.3422 130.056C40.4156 130.095 40.4503 130.114 40.5063 130.141L40.6048 130.191L40.713 130.245L40.7497 130.263L40.8829 130.324L40.9448 130.353L41.078 130.411L41.1379 130.438L41.2306 130.477L41.3542 130.529L41.5145 130.593L41.6284 130.637C41.9065 130.742 42.2078 130.84 42.4936 130.929L42.6095 130.962L42.6964 130.987L42.8181 131.022H42.8354L42.8934 131.039L43.0324 131.076L43.0904 131.091L43.243 131.128L43.4361 131.176C43.6292 131.223 43.8378 131.267 44.0696 131.313L44.2782 131.352L44.45 131.383C44.535 131.4 44.6181 131.414 44.703 131.427L44.9174 131.462L45.1356 131.495L45.3538 131.526L45.574 131.555L45.7304 131.574H45.7981L46.2461 131.626H46.2615L46.7019 131.669H46.7753L46.9317 131.68L47.204 131.703L47.6347 131.732L47.8703 131.746L48.1079 131.759C48.4806 131.779 48.8804 131.794 49.3168 131.806H49.7495C50.0025 131.806 50.2574 131.806 50.5123 131.806L50.5394 131.869Z" fill="#0962FF"/>
<path d="M45.9154 100.337L45.9102 100.314L45.8996 100.294L42.884 94.445C42.9535 94.4333 43.0366 94.4203 43.1309 94.4072C43.4319 94.3657 43.8451 94.3244 44.2952 94.3248C45.2105 94.3258 46.2149 94.4998 46.7801 95.1212C47.4517 95.8596 48.5548 96.1441 49.601 96.1677C50.6486 96.1914 51.6971 95.9551 52.296 95.5889C52.5451 95.4366 52.733 95.4088 52.9038 95.4392C53.0863 95.4718 53.2722 95.5742 53.5123 95.7331C53.5734 95.7735 53.637 95.8169 53.7036 95.8624C54.1514 96.1682 54.7359 96.5673 55.6316 96.7923C55.9051 96.861 56.1444 96.86 56.3576 96.7945C56.5705 96.729 56.7419 96.604 56.887 96.45C57.0307 96.2976 57.1529 96.1125 57.267 95.9203C57.3244 95.8237 57.3811 95.723 57.4379 95.6221L57.4396 95.6191C57.4962 95.5186 57.553 95.4177 57.6126 95.3166C57.854 94.9074 58.1305 94.5157 58.5487 94.2411C58.9148 94.0006 59.4044 93.8406 60.1029 93.8588L56.6406 100.258L56.6403 100.258L56.6355 100.268L55.9317 101.787H46.2477L45.9154 100.337Z" fill="white" stroke="#141414" stroke-width="0.367816"/>
<path d="M56.055 102.07H46.107C46.085 102.07 46.0636 102.063 46.0464 102.049C46.0292 102.035 46.0172 102.016 46.0124 101.995L45.6454 100.411L42.5225 94.3543C42.5154 94.341 42.5117 94.326 42.5117 94.3109C42.5117 94.2957 42.5154 94.2808 42.5225 94.2674C42.5285 94.2541 42.5375 94.2424 42.549 94.2333C42.5604 94.2242 42.5739 94.2181 42.5882 94.2153C42.7157 94.1863 45.7226 93.5374 46.9896 94.9318C48.2159 96.2837 51.0723 96.0095 52.1519 95.349C52.8375 94.9299 53.2682 95.2234 53.865 95.6309C54.417 96.0416 55.0423 96.3431 55.7074 96.5193C56.5089 96.7124 56.8005 96.1987 57.2061 95.4783C57.7237 94.559 58.3648 93.4138 60.4178 93.5953C60.4339 93.5964 60.4494 93.6016 60.463 93.6104C60.4765 93.6192 60.4875 93.6313 60.4951 93.6455C60.5027 93.6598 60.5066 93.6757 60.5066 93.6919C60.5066 93.7081 60.5027 93.724 60.4951 93.7383L56.8951 100.392L56.1458 102.012C56.1377 102.029 56.1249 102.044 56.1088 102.054C56.0928 102.064 56.0741 102.07 56.055 102.07ZM46.1842 101.877H55.9932L56.7194 100.307L60.2517 93.7788C58.4383 93.6765 57.8743 94.6826 57.3741 95.5749C56.9762 96.2798 56.6016 96.9461 55.6591 96.7105C54.9719 96.5283 54.3256 96.217 53.7549 95.7931C53.1755 95.4069 52.8298 95.1635 52.2504 95.517C51.1225 96.2064 48.1329 96.4826 46.8428 95.0651C45.7902 93.9063 43.3317 94.2752 42.7504 94.3814L45.8212 100.336C45.8223 100.343 45.8223 100.35 45.8212 100.357L46.1842 101.877Z" fill="#0962FF"/>
<path d="M49.3281 131.943L49.7626 131.955C49.2045 131.943 48.656 131.926 48.1152 131.897C48.515 131.918 48.9187 131.931 49.3281 131.943Z" fill="white"/>
<path d="M49.7607 132.051C49.1678 132.04 48.6289 132.02 48.1114 131.993C48.0987 131.993 48.0862 131.989 48.0748 131.984C48.0633 131.979 48.053 131.971 48.0445 131.961C48.036 131.952 48.0294 131.941 48.0251 131.929C48.0209 131.917 48.019 131.904 48.0197 131.892C48.0203 131.879 48.0234 131.867 48.0288 131.855C48.0343 131.844 48.0419 131.833 48.0513 131.825C48.0608 131.816 48.0717 131.81 48.0837 131.806C48.0956 131.801 48.1083 131.799 48.121 131.8C48.4938 131.819 48.8935 131.835 49.33 131.846H49.7626C49.7882 131.848 49.8123 131.859 49.8299 131.878C49.8475 131.896 49.8573 131.921 49.8573 131.947C49.858 131.96 49.8561 131.973 49.8516 131.986C49.8472 131.998 49.8402 132.01 49.8312 132.02C49.8222 132.029 49.8113 132.037 49.7992 132.043C49.787 132.048 49.774 132.051 49.7607 132.051Z" fill="#0962FF"/>
<path d="M47.085 102.315C47.085 102.315 44.6053 105.382 44.418 108.146C44.418 108.146 46.1561 103.153 47.9754 102.663L47.085 102.315Z" fill="#D4E4F5"/>
<path d="M44.2715 108.862L44.3198 108.138C44.5129 105.376 46.983 102.286 47.0081 102.255L47.0525 102.199L48.2847 102.678L47.9988 102.755C46.2414 103.227 44.5225 108.128 44.509 108.176L44.2715 108.862ZM47.1143 102.442C46.8227 102.817 45.1502 105.038 44.6461 107.271C45.1985 105.896 46.394 103.283 47.7015 102.666L47.1143 102.442Z" fill="#0962FF"/>
<path d="M50.7832 102.968C50.7832 102.968 52.3147 107.336 52.1351 110.038C52.1351 110.038 53.0525 109.364 51.4669 102.968H50.7832Z" fill="#D4E4F5"/>
<path d="M52.0234 110.241L52.0369 110.033C52.2146 107.381 50.7063 103.043 50.685 102.999L50.6406 102.869H51.5367L51.5541 102.945C53.0991 109.221 52.2861 110.044 52.1857 110.118L52.0234 110.241ZM50.9187 103.064C51.1485 103.752 52.2088 107.043 52.2455 109.457C52.3633 108.723 52.3575 106.995 51.3899 103.064H50.9187Z" fill="#0962FF"/>
<path d="M54.3965 102.645C54.3965 102.645 56.5325 104.026 57.2451 106.205C57.2451 106.205 57.4962 104.793 54.9411 102.315L54.3965 102.645Z" fill="#D4E4F5"/>
<path d="M57.272 106.602L57.1523 106.236C56.459 104.111 54.3654 102.74 54.3442 102.726L54.2129 102.641L54.9545 102.193L55.0086 102.246C57.5714 104.731 57.3512 106.162 57.3396 106.222L57.272 106.602ZM54.5682 102.651C54.9776 102.943 56.2851 103.961 57.0287 105.444C56.8355 104.808 56.2967 103.785 54.9217 102.437L54.5682 102.651Z" fill="#0962FF"/>
<path d="M48.7329 102.802C48.5236 104.103 48.4267 105.42 48.4432 106.738C48.4432 106.738 48.8778 103.279 49.2312 102.968L48.7329 102.802Z" fill="#D4E4F5"/>
<path d="M48.5406 106.751H48.3474C48.3312 105.426 48.4288 104.102 48.6391 102.794L48.6584 102.682L49.4212 102.939L49.2957 103.049C49.0582 103.25 48.7067 105.426 48.5406 106.751ZM48.811 102.929C48.7646 103.236 48.6333 104.14 48.5696 105.183C48.7086 104.326 48.894 103.381 49.0794 103.018L48.811 102.929Z" fill="#0962FF"/>
<path d="M47.0392 101.023C47.0392 101.023 46.904 98.493 45.8418 97.4308C45.8418 97.4308 47.0392 98.1299 47.4467 101.34L47.0392 101.023Z" fill="#D4E4F5"/>
<path d="M47.5714 101.56L46.9438 101.073V101.029C46.9438 101.004 46.7989 98.5182 45.785 97.4985L45.252 96.9655L45.9009 97.3517C45.953 97.3826 47.1446 98.1242 47.5541 101.334L47.5714 101.56ZM47.133 100.981L47.3262 101.124C47.2299 100.391 47.0471 99.6716 46.7816 98.9817C46.9689 99.6318 47.0867 100.3 47.133 100.975V100.981Z" fill="#0962FF"/>
<path d="M54.3965 101.407C54.3965 101.407 54.9643 99.3872 56.1346 98.296C56.1346 98.296 54.8465 100.119 55.0454 101.23L54.3965 101.407Z" fill="#D4E4F5"/>
<path d="M54.2578 101.546L54.3042 101.38C54.3273 101.297 54.8835 99.3216 56.0674 98.2265L56.755 97.5853L56.2122 98.3578C56.2007 98.3772 54.9512 100.162 55.1385 101.218L55.1539 101.305L54.2578 101.546ZM55.349 99.4625C55.0177 100.034 54.7471 100.639 54.5417 101.266L54.928 101.158C54.8777 100.641 55.0921 100.007 55.349 99.4625Z" fill="#0962FF"/>
<path d="M50.7832 101.407C50.7832 101.407 52.2278 99.026 52.3977 97.4308C52.3977 97.4308 52.6102 99.2848 51.098 101.68L50.7832 101.407Z" fill="#D4E4F5"/>
<path d="M51.1119 101.821L50.6504 101.434L50.6929 101.363C50.7064 101.34 52.1278 98.9817 52.2939 97.4251L52.3866 96.5541L52.487 97.4251C52.487 97.5023 52.6802 99.3409 51.1718 101.732L51.1119 101.821ZM50.9014 101.386L51.0675 101.529C51.6395 100.63 52.0329 99.6283 52.2263 98.58C51.8802 99.5546 51.4424 100.494 50.9188 101.386H50.9014Z" fill="#0962FF"/>
<path d="M44.8213 102.47C45.8063 102.856 51.1946 104.807 57.3071 102.483C57.377 102.456 57.4406 102.415 57.4938 102.362C57.547 102.309 57.5886 102.246 57.6161 102.176C57.7609 101.815 57.9541 101.1 57.4848 100.602C57.3784 100.49 57.2435 100.41 57.0947 100.37C56.9459 100.33 56.7889 100.331 56.6408 100.374C55.3372 100.749 50.5186 101.919 45.7367 100.374C45.6217 100.336 45.4993 100.326 45.3796 100.344C45.2598 100.362 45.146 100.408 45.0473 100.478C44.661 100.757 44.1569 101.321 44.576 102.232C44.6243 102.34 44.7121 102.425 44.8213 102.47Z" fill="#86B2FF"/>
<path d="M51.1368 103.702C48.967 103.711 46.8137 103.324 44.7829 102.56C44.652 102.507 44.5463 102.405 44.4874 102.276C44.0297 101.286 44.6052 100.677 44.9876 100.403C45.0987 100.325 45.2261 100.274 45.3601 100.254C45.4941 100.234 45.631 100.244 45.7601 100.285C50.4937 101.809 55.2582 100.671 56.6062 100.285C56.7715 100.236 56.9472 100.234 57.1136 100.279C57.28 100.324 57.4306 100.415 57.5487 100.54C58.0508 101.073 57.8577 101.819 57.6994 102.215C57.6664 102.297 57.6168 102.372 57.5537 102.434C57.4905 102.497 57.4152 102.546 57.3324 102.578C55.3529 103.327 53.2532 103.708 51.1368 103.702ZM44.8563 102.381C45.8664 102.786 51.216 104.698 57.2706 102.392C57.3278 102.369 57.3799 102.335 57.4237 102.292C57.4675 102.248 57.5021 102.196 57.5255 102.139C57.6665 101.786 57.8403 101.123 57.4135 100.668C57.3189 100.57 57.199 100.5 57.0671 100.466C56.9351 100.431 56.7964 100.435 56.6661 100.475C55.3045 100.861 50.486 102.02 45.7061 100.475C45.6052 100.441 45.498 100.432 45.393 100.448C45.288 100.464 45.1881 100.504 45.1015 100.565C44.6921 100.857 44.2846 101.378 44.6632 102.199C44.7 102.286 44.7692 102.355 44.8563 102.392V102.381Z" fill="#0962FF"/>
<path d="M55.9822 125.618L55.7331 124.04C54.611 124.166 53.4851 124.04 52.7956 123.772L52.9887 121.75C53.9077 122.083 54.895 122.184 55.8625 122.043C56.8088 121.895 57.3979 121.425 57.2936 120.761C57.1931 120.131 56.5983 119.816 55.3043 119.602C53.431 119.285 52.0868 118.648 51.828 117.035C51.5982 115.573 52.4461 114.264 54.1688 113.634L53.9177 112.057L55.5457 111.8L55.7775 113.262C56.6117 113.142 57.4618 113.198 58.2727 113.428L58.0796 115.38C57.2773 115.131 56.4291 115.065 55.5979 115.187C54.5183 115.359 54.246 115.879 54.3155 116.346C54.4025 116.894 55.0398 117.151 56.5365 117.458C58.6223 117.845 59.5648 118.631 59.8023 120.125C60.0399 121.62 59.1882 123.022 57.3303 123.667L57.5987 125.361L55.9822 125.618Z" fill="#141414"/>
<path d="M55.9035 125.722L55.6543 124.141C54.6095 124.243 53.4855 124.141 52.7574 123.857L52.6878 123.83L52.8984 121.611L53.0162 121.653C53.9203 121.979 54.8903 122.078 55.8417 121.943C56.7648 121.796 57.2843 121.348 57.1936 120.77C57.1028 120.193 56.5698 119.903 55.2835 119.685C53.7868 119.432 52.0274 118.901 51.7338 117.037C51.4943 115.527 52.3847 114.2 54.061 113.561L53.808 111.966L55.6273 111.678L55.8591 113.144C56.6774 113.041 57.508 113.102 58.3021 113.325L58.3775 113.349L58.1747 115.492L58.0665 115.465L57.9352 115.432C57.1832 115.212 56.3918 115.161 55.6176 115.282C54.7698 115.415 54.3314 115.795 54.4164 116.327C54.4898 116.79 55.0112 117.041 56.5601 117.36C58.6575 117.746 59.6502 118.569 59.9012 120.108C60.1523 121.688 59.1886 123.102 57.4427 123.727L57.715 125.438L55.9035 125.722ZM55.8166 123.926L56.0657 125.5L57.5026 125.274L57.236 123.594L57.3133 123.567C59.0399 122.978 59.9611 121.663 59.7197 120.133C59.4879 118.671 58.5609 117.922 56.5311 117.547C55.0846 117.248 54.3333 116.981 54.2348 116.354C54.1962 116.112 54.1827 115.309 55.5964 115.085C56.3952 114.96 57.2116 115.014 57.9873 115.241H58.0066L58.1727 113.482C57.3968 113.278 56.5881 113.229 55.7934 113.339L55.7007 113.35L55.4709 111.892L54.034 112.12L54.2812 113.681L54.2059 113.708C52.5739 114.305 51.6952 115.568 51.9289 117.003C52.1471 118.381 53.161 119.127 55.3202 119.49C56.479 119.683 57.2689 119.975 57.3905 120.738C57.4987 121.431 56.9193 121.966 55.8764 122.13C54.935 122.266 53.9748 122.177 53.0741 121.871L52.9022 123.696C53.6207 123.953 54.7177 124.046 55.7239 123.934L55.8166 123.926Z" fill="#0962FF"/>
<path d="M96.3551 32.9072C102.838 32.9072 108.093 27.3976 108.093 20.6011C108.093 13.8047 102.838 8.29504 96.3551 8.29504C89.8724 8.29504 84.6172 13.8047 84.6172 20.6011C84.6172 27.3976 89.8724 32.9072 96.3551 32.9072Z" fill="#0962FF" stroke="black" stroke-width="0.136008" stroke-miterlimit="10"/>
<path d="M97.5699 31.9684C104.053 31.9684 109.308 26.4588 109.308 19.6624C109.308 12.8659 104.053 7.35632 97.5699 7.35632C91.0873 7.35632 85.832 12.8659 85.832 19.6624C85.832 26.4588 91.0873 31.9684 97.5699 31.9684Z" fill="white" stroke="#050505" stroke-width="0.156844" stroke-miterlimit="10"/>
<path d="M92.8438 22.5733H94.7636C94.7636 23.61 96.0786 24.4931 97.6433 24.4931C99.2079 24.4931 100.523 23.61 100.523 22.5733C100.523 21.5174 99.5247 21.1334 97.4129 20.6247C95.3779 20.1159 92.8438 19.4824 92.8438 16.8139C92.8438 15.0956 94.2548 13.6366 96.2034 13.147V11.0544H99.0831V13.147C101.032 13.6366 102.443 15.0956 102.443 16.8139H100.523C100.523 15.7772 99.2079 14.8941 97.6433 14.8941C96.0786 14.8941 94.7636 15.7772 94.7636 16.8139C94.7636 17.8698 95.7619 18.2537 97.8736 18.7625C99.9086 19.2712 102.443 19.9048 102.443 22.5733C102.443 24.2915 101.032 25.7506 99.0831 26.2401V28.3327H96.2034V26.2401C94.2548 25.7506 92.8438 24.2915 92.8438 22.5733Z" fill="#141414"/>
<path d="M112.179 36.7817C116.611 36.7817 120.205 33.0143 120.205 28.367C120.205 23.7197 116.611 19.9523 112.179 19.9523C107.746 19.9523 104.152 23.7197 104.152 28.367C104.152 33.0143 107.746 36.7817 112.179 36.7817Z" fill="#0962FF" stroke="black" stroke-width="0.0930002" stroke-miterlimit="10"/>
<path d="M113.011 36.1398C117.443 36.1398 121.037 32.3724 121.037 27.7251C121.037 23.0778 117.443 19.3104 113.011 19.3104C108.578 19.3104 104.984 23.0778 104.984 27.7251C104.984 32.3724 108.578 36.1398 113.011 36.1398Z" fill="white" stroke="#050505" stroke-width="0.107248" stroke-miterlimit="10"/>
<path d="M109.781 29.7153H111.094C111.094 30.4242 111.993 31.028 113.063 31.028C114.133 31.028 115.032 30.4242 115.032 29.7153C115.032 28.9933 114.35 28.7307 112.906 28.3829C111.514 28.035 109.781 27.6018 109.781 25.7771C109.781 24.6022 110.746 23.6045 112.079 23.2697V21.8389H114.048V23.2697C115.38 23.6045 116.345 24.6022 116.345 25.7771H115.032C115.032 25.0682 114.133 24.4643 113.063 24.4643C111.993 24.4643 111.094 25.0682 111.094 25.7771C111.094 26.4991 111.777 26.7616 113.221 27.1095C114.612 27.4574 116.345 27.8906 116.345 29.7153C116.345 30.8902 115.38 31.8879 114.048 32.2226V33.6535H112.079V32.2226C110.746 31.8879 109.781 30.8902 109.781 29.7153Z" fill="#141414"/>
<defs>
<clipPath id="clip0_1237_9922">
<rect width="96.7795" height="104.405" fill="white" transform="translate(17.4922)"/>
</clipPath>
<clipPath id="clip1_1237_9922">
<rect width="29.3367" height="47.8189" fill="white" transform="translate(103.926 55.1724)"/>
</clipPath>
</defs>
</svg>
