<svg width="32" height="32" viewBox="0 0 32 32" fill="none" xmlns="http://www.w3.org/2000/svg">
<path d="M13.8918 24.123H17.2488V15.999H19.4878L19.7848 13.2H17.2488L17.2518 11.798C17.2518 11.068 17.3218 10.677 18.3688 10.677H19.7688V7.87701H17.5288C14.8388 7.87701 13.8918 9.23501 13.8918 11.519V13.2H12.2148V16H13.8918V24.123Z" fill="#414752"/>
<path d="M16 1C24.271 1 31 7.729 31 16C31 24.271 24.271 31 16 31C7.729 31 1 24.271 1 16C1 7.729 7.729 1 16 1ZM16 0C7.163 0 0 7.163 0 16C0 24.837 7.163 32 16 32C24.837 32 32 24.837 32 16C32 7.163 24.837 0 16 0Z" fill="#414752"/>
</svg>
