<svg width="32" height="32" viewBox="0 0 32 32" fill="none" xmlns="http://www.w3.org/2000/svg">
<path d="M16 1C24.271 1 31 7.729 31 16C31 24.271 24.271 31 16 31C7.729 31 1 24.271 1 16C1 7.729 7.729 1 16 1ZM16 0C7.163 0 0 7.164 0 16C0 24.836 7.163 32 16 32C24.837 32 32 24.836 32 16C32 7.164 24.837 0 16 0Z" fill="#414752"/>
<path fill-rule="evenodd" clip-rule="evenodd" d="M8.55102 12.375L16.3635 18.9375L24.176 12.375L23.5064 11.7188L16.3635 17.7188L9.22066 11.7188L8.55102 12.375ZM7.66114 10C6.74372 10 6 10.7268 6 11.6202V21.3798C6 22.2746 6.73769 23 7.66114 23H25.0659C25.9833 23 26.727 22.2732 26.727 21.3798V11.6202C26.727 10.7254 25.9894 10 25.0659 10H7.66114Z" fill="#414752"/>
</svg>
