<svg width="32" height="32" viewBox="0 0 32 32" fill="none" xmlns="http://www.w3.org/2000/svg">
<path d="M16 1C24.271 1 31 7.729 31 16C31 24.271 24.271 31 16 31C7.729 31 1 24.271 1 16C1 7.729 7.729 1 16 1ZM16 0C7.163 0 0 7.164 0 16C0 24.836 7.163 32 16 32C24.837 32 32 24.836 32 16C32 7.164 24.837 0 16 0Z" fill="#414752"/>
<path d="M21.7485 10.139C22.3739 10.7667 22.7251 11.6167 22.7251 12.5028C22.7251 13.3889 22.3739 14.2388 21.7485 14.8665L20.5627 16.0445C19.6947 16.9125 18.4702 17.1838 17.3542 16.8893L19.3847 14.8665L19.9737 14.2698L20.5627 13.6808C21.2137 13.0298 21.2137 11.9758 20.5627 11.3248C20.409 11.1682 20.2257 11.0439 20.0235 10.959C19.8212 10.8741 19.6041 10.8304 19.3847 10.8304C19.1654 10.8304 18.9482 10.8741 18.7459 10.959C18.5437 11.0439 18.3604 11.1682 18.2067 11.3248L17.61 11.9138L14.9905 14.5333C14.7037 13.4173 14.975 12.1928 15.843 11.3248L17.021 10.139C17.6486 9.51355 18.4986 9.16235 19.3847 9.16235C20.2708 9.16235 21.1208 9.51355 21.7485 10.139ZM14.6572 18.4083L18.7957 14.2698C19.1212 13.9443 19.1212 13.4173 18.7957 13.0918C18.4547 12.7585 17.92 12.7895 17.61 13.0918L13.4792 17.2303C13.1537 17.5558 13.1537 18.0828 13.4792 18.4083C13.8202 18.7415 14.355 18.7105 14.6572 18.4083ZM14.0682 20.183L17.2767 16.9668C17.5712 18.0828 17.3 19.3073 16.432 20.1753L15.254 21.361C14.6263 21.9865 13.7763 22.3377 12.8902 22.3377C12.0041 22.3377 11.1541 21.9865 10.5265 21.361C9.901 20.7333 9.5498 19.8834 9.5498 18.9973C9.5498 18.1112 9.901 17.2612 10.5265 16.6335L11.7122 15.4555C12.5802 14.5875 13.8047 14.3163 14.9207 14.603L11.7122 17.8193C11.0535 18.4703 11.0535 19.5243 11.7122 20.183C12.3632 20.834 13.4172 20.834 14.0682 20.183Z" fill="#414752"/>
</svg>
