<svg width="415" height="34" viewBox="0 0 415 34" fill="none" xmlns="http://www.w3.org/2000/svg">
<path d="M28.478 32.8025L37.5849 16.9949L35.1787 12.7917L26.4983 27.8683C26.2241 28.3252 25.7368 28.6298 25.1886 28.6298H16.9954C16.5995 28.6298 16.2035 28.4775 15.9294 28.2034C15.6553 27.9293 15.4726 27.5333 15.4726 27.1374C15.4726 26.8632 15.5335 26.6196 15.6858 26.3759L26.4069 7.76621L21.5641 7.79667L12.0613 24.3352C11.7872 24.8226 11.2998 25.0967 10.7516 25.0967C10.2034 25.0967 9.71603 24.8226 9.44191 24.3352L5.29965 17.1777C5.17782 16.934 5.08645 16.6903 5.08645 16.4162C5.08645 16.1421 5.14736 15.8984 5.29965 15.6548L13.706 0.943665L8.86321 0.974122L0 16.3858L9.50283 32.8025H28.478Z" fill="#1E232B"/>
<path d="M36.2149 0.974182L17.2397 1.00464L8.13281 16.8122L10.539 21.0154L19.189 5.96926C19.4631 5.51239 19.9504 5.20781 20.4987 5.20781H28.6918C29.0878 5.20781 29.4837 5.3601 29.7578 5.63422C30.032 5.90834 30.2147 6.30429 30.2147 6.70024C30.2147 6.97436 30.1538 7.21803 30.0015 7.46169L19.2804 26.0714L24.1231 26.0409L33.626 9.50236C33.9001 9.01504 34.3874 8.74092 34.9357 8.74092C35.4839 8.74092 35.9712 9.01504 36.2453 9.50236L40.3876 16.6599C40.5094 16.9036 40.6008 17.1473 40.6008 17.4214C40.6008 17.6955 40.5399 17.9392 40.3876 18.1828L31.9508 32.8635L36.7936 32.833L45.7482 17.3909L36.2149 0.974182Z" fill="#1E232B"/>
<path d="M73.1432 8.43026C74.0849 8.43026 74.8854 8.52444 75.4975 8.66569C76.1096 8.80695 76.6276 9.08947 77.0043 9.46616C77.381 9.84285 77.6635 10.3608 77.8518 10.9729C78.0402 11.585 78.0872 12.3855 78.0872 13.3272V25.3812H73.8966V14.1277C73.8966 13.751 73.8966 13.4214 73.8495 13.1389C73.8495 12.8563 73.7553 12.668 73.6612 12.5267C73.567 12.3855 73.3786 12.2913 73.1432 12.2442C72.9078 12.1971 72.6253 12.1501 72.2486 12.1501C71.3539 12.1501 70.7418 12.4326 70.5064 13.0447C70.2239 13.6568 70.0826 14.4102 70.0826 15.3048V25.3341H65.892V14.0806C65.892 13.6568 65.892 13.3272 65.8449 13.0918C65.8449 12.8093 65.7507 12.6209 65.6565 12.4326C65.5624 12.2442 65.374 12.1501 65.1857 12.0559C64.9503 12.0088 64.6677 11.9617 64.244 11.9617C63.8202 11.9617 63.4906 12.103 63.2081 12.3384C62.9256 12.5738 62.6901 12.9034 62.5018 13.233C62.3134 13.6097 62.1722 14.0335 62.078 14.4573C61.9838 14.881 61.9367 15.3048 61.9367 15.6815V25.3341H57.7461V8.71278H61.3246L61.6071 10.5021C62.078 9.84285 62.596 9.3249 63.2552 8.94821C63.9144 8.57152 64.6206 8.38318 65.4211 8.38318C66.457 8.38318 67.2575 8.52444 67.8696 8.80695C68.4817 9.08947 68.9996 9.70158 69.4234 10.6433C69.8472 9.9841 70.3651 9.46616 70.9773 8.9953C71.5894 8.61861 72.2957 8.43026 73.1432 8.43026Z" fill="#1E232B"/>
<path d="M85.1033 25.7109L80.3477 8.75995H84.6325L87.128 21.379L89.5294 8.75995H93.8143L88.3994 28.0181C87.9285 29.6661 87.081 30.8904 85.8567 31.7379C84.5854 32.5855 83.0786 33.0092 81.2423 33.0563L80.8185 29.9016C81.1952 29.9016 81.5719 29.8074 81.9486 29.6661C82.3253 29.5249 82.702 29.3836 83.0786 29.1953C83.4082 29.0069 83.7378 28.7715 83.9733 28.5361C84.2558 28.2535 84.3971 27.971 84.5383 27.6885L85.1033 25.7109Z" fill="#1E232B"/>
<path d="M111.706 8.43026C112.647 8.43026 113.448 8.52444 114.06 8.66569C114.672 8.80695 115.19 9.08947 115.567 9.46616C115.943 9.84285 116.226 10.3608 116.414 10.9729C116.603 11.585 116.65 12.3855 116.65 13.3272V25.3812H112.459V14.1277C112.459 13.751 112.459 13.4214 112.412 13.1389C112.412 12.8563 112.318 12.668 112.224 12.5267C112.129 12.3855 111.941 12.2913 111.706 12.2442C111.47 12.1971 111.188 12.1501 110.811 12.1501C109.916 12.1501 109.304 12.4326 109.069 13.0447C108.786 13.6568 108.645 14.4102 108.645 15.3048V25.3341H104.454V14.0806C104.454 13.6568 104.454 13.3272 104.407 13.0918C104.407 12.8093 104.313 12.6209 104.219 12.4326C104.125 12.2442 103.937 12.1501 103.748 12.0559C103.513 12.0088 103.23 11.9617 102.806 11.9617C102.383 11.9617 102.053 12.103 101.771 12.3384C101.488 12.5738 101.253 12.9034 101.064 13.233C100.876 13.6097 100.735 14.0335 100.641 14.4573C100.546 14.881 100.499 15.3048 100.499 15.6815V25.3341H96.3086V8.71278H99.8871L100.17 10.5021C100.641 9.84285 101.158 9.3249 101.818 8.94821C102.477 8.57152 103.183 8.38318 103.984 8.38318C105.02 8.38318 105.82 8.52444 106.432 8.80695C107.044 9.08947 107.562 9.70158 107.986 10.6433C108.41 9.9841 108.928 9.46616 109.54 8.9953C110.152 8.61861 110.858 8.43026 111.706 8.43026Z" fill="#1E232B"/>
<path d="M126.256 8.43042C127.151 8.43042 127.951 8.57168 128.751 8.80711C129.552 9.04254 130.258 9.41922 130.823 9.93717C131.435 10.4551 131.906 11.0202 132.236 11.7735C132.565 12.4798 132.754 13.3274 132.754 14.2691V19.9194C132.754 20.8611 132.612 21.7087 132.283 22.415C131.953 23.1213 131.482 23.7334 130.917 24.2513C130.352 24.7222 129.646 25.0989 128.893 25.3814C128.092 25.6639 127.245 25.7581 126.35 25.7581C125.408 25.7581 124.514 25.6168 123.713 25.3814C122.913 25.1459 122.206 24.7693 121.594 24.2513C120.982 23.7334 120.511 23.1213 120.182 22.415C119.852 21.7087 119.711 20.8611 119.711 19.9194V14.2691C119.711 13.3274 119.899 12.4798 120.229 11.7735C120.558 11.0672 121.029 10.4551 121.641 9.93717C122.206 9.41922 122.913 9.08963 123.713 8.80711C124.467 8.52459 125.314 8.43042 126.256 8.43042ZM128.563 14.1749C128.563 13.3274 128.375 12.7623 128.045 12.5269C127.716 12.2915 127.103 12.1502 126.256 12.1502C125.503 12.1502 124.89 12.2915 124.514 12.6211C124.09 12.9507 123.902 13.4686 123.902 14.1749V19.8252C123.902 20.7199 124.09 21.332 124.42 21.5674C124.749 21.8499 125.408 21.9441 126.35 21.9441C127.056 21.9441 127.621 21.8028 127.998 21.4732C128.375 21.1436 128.563 20.6257 128.563 19.8252V14.1749Z" fill="#1E232B"/>
<path d="M143.914 8.38318C145.798 8.38318 147.116 8.85404 147.87 9.84284C148.623 10.7846 149 12.2442 149 14.1748V25.3812H144.809V14.881C144.809 14.1277 144.668 13.4685 144.432 12.9034C144.15 12.3855 143.679 12.103 142.878 12.103C142.455 12.103 142.125 12.1971 141.795 12.3855C141.466 12.5738 141.183 12.8093 140.948 13.1389C140.713 13.4685 140.524 13.7981 140.383 14.2218C140.242 14.5985 140.195 15.0223 140.195 15.4461V25.3812H136.004V8.75987H139.771L140.1 10.5021C140.571 9.74868 141.089 9.23073 141.701 8.90112C142.266 8.57152 143.02 8.38318 143.914 8.38318Z" fill="#1E232B"/>
<path d="M159.121 21.991C159.828 21.991 160.487 21.8498 161.005 21.5202C161.523 21.1906 162.088 20.7668 162.7 20.1547L164.866 22.8386C163.971 23.7803 163.077 24.4866 162.182 25.0045C161.287 25.4754 160.157 25.7108 158.886 25.7108C156.673 25.7108 155.025 25.24 153.848 24.2982C152.671 23.3565 152.059 21.8027 152.059 19.6367V14.1748C152.059 12.2442 152.624 10.8316 153.801 9.84284C154.978 8.90112 156.532 8.38318 158.462 8.38318C159.357 8.38318 160.157 8.52444 160.911 8.80695C161.664 9.08947 162.276 9.46615 162.841 9.93701C163.359 10.455 163.783 11.0671 164.066 11.7734C164.348 12.4797 164.489 13.2801 164.489 14.1748V17.2353L156.108 18.7421V19.6367C156.108 20.4843 156.391 21.0493 156.956 21.426C157.568 21.8027 158.274 21.991 159.121 21.991ZM158.509 12.1501C157.803 12.1501 157.191 12.2913 156.767 12.6209C156.343 12.9505 156.108 13.4685 156.108 14.1277V15.964L160.346 15.2107V14.2218C160.346 13.5626 160.204 13.0447 159.922 12.668C159.639 12.3384 159.121 12.1501 158.509 12.1501Z" fill="#1E232B"/>
<path d="M171.131 25.7109L166.375 8.75995H170.66L173.155 21.379L175.557 8.75995H179.842L174.427 28.0181C173.956 29.6661 173.108 30.8904 171.884 31.7379C170.613 32.5855 169.106 33.0092 167.27 33.0563L166.846 29.9016C167.223 29.9016 167.599 29.8074 167.976 29.6661C168.353 29.5249 168.729 29.3836 169.106 29.1953C169.436 29.0069 169.765 28.7715 170.001 28.5361C170.283 28.2535 170.424 27.971 170.566 27.6885L171.131 25.7109Z" fill="#1E232B"/>
<path d="M180.922 20.8136H185.254V25.3809H180.922V20.8136Z" fill="#1E232B"/>
<path d="M195.566 12.1501C194.201 12.1501 193.495 12.8563 193.495 14.2218V19.9193C193.495 20.6726 193.683 21.1906 194.107 21.5202C194.484 21.8498 195.096 21.991 195.802 21.991C196.414 21.991 196.979 21.8969 197.45 21.6614C197.968 21.426 198.392 21.0964 198.815 20.5785L201.311 23.1682C200.463 24.0628 199.616 24.6749 198.768 25.0987C197.921 25.5225 196.838 25.7108 195.614 25.7108C193.73 25.7108 192.223 25.24 191.093 24.2512C189.963 23.2624 189.445 21.8027 189.445 19.9193V14.2218C189.445 13.3272 189.587 12.5267 189.916 11.8205C190.199 11.1142 190.622 10.502 191.187 9.9841C191.705 9.46616 192.365 9.08947 193.118 8.80695C193.871 8.52444 194.719 8.38318 195.614 8.38318C196.885 8.38318 197.968 8.57152 198.863 8.9953C199.757 9.37199 200.605 10.1254 201.405 11.2554L198.768 13.8452C198.345 13.3272 197.874 12.9034 197.356 12.5738C196.791 12.2913 196.179 12.1501 195.566 12.1501Z" fill="#1E232B"/>
<path d="M211.011 8.52454C211.529 8.52454 211.905 8.57162 212.141 8.66579C212.376 8.75996 212.612 8.85414 212.847 8.9954L212.141 12.7623C211.529 12.4327 210.916 12.2914 210.399 12.2914C209.786 12.2914 209.316 12.5268 208.939 12.9506C208.562 13.3744 208.374 14.0336 208.374 14.9282V25.4284H204.277V8.80705H207.338L207.809 10.5492C208.28 9.79586 208.751 9.27791 209.268 8.9954C209.786 8.66579 210.351 8.52454 211.011 8.52454Z" fill="#1E232B"/>
<path d="M221.227 21.991C221.933 21.991 222.592 21.8498 223.11 21.5202C223.628 21.1906 224.193 20.7668 224.805 20.1547L226.971 22.8386C226.077 23.7803 225.182 24.4866 224.288 25.0045C223.393 25.4754 222.263 25.7108 220.992 25.7108C218.778 25.7108 217.13 25.24 215.953 24.2982C214.776 23.3565 214.164 21.8027 214.164 19.6367V14.1748C214.164 12.2442 214.729 10.8316 215.906 9.84284C217.083 8.90112 218.637 8.38318 220.568 8.38318C221.462 8.38318 222.263 8.52444 223.016 8.80695C223.77 9.08947 224.382 9.46615 224.947 9.93701C225.465 10.455 225.888 11.0671 226.171 11.7734C226.454 12.4797 226.595 13.2801 226.595 14.1748V17.2353L218.213 18.7421V19.6367C218.213 20.4843 218.496 21.0493 219.061 21.426C219.673 21.8027 220.379 21.991 221.227 21.991ZM220.615 12.1501C219.909 12.1501 219.296 12.2913 218.873 12.6209C218.449 12.9505 218.213 13.4685 218.213 14.1277V15.964L222.451 15.2107V14.2218C222.451 13.5626 222.31 13.0447 222.027 12.668C221.745 12.3384 221.227 12.1501 220.615 12.1501Z" fill="#1E232B"/>
<path d="M238.086 0.943665H242.371V25.3813H239.028L238.463 23.9687C237.945 24.4396 237.427 24.8163 236.909 25.1459C236.344 25.4755 235.779 25.6167 235.119 25.6167C231.258 25.6167 229.375 23.6862 229.375 19.8722V14.1748C229.375 12.2443 229.846 10.7846 230.788 9.84292C231.729 8.85411 233.189 8.38325 235.167 8.38325C235.543 8.38325 235.826 8.38325 236.108 8.43034C236.391 8.47742 236.626 8.52451 236.815 8.61868C237.05 8.71285 237.238 8.85411 237.474 9.04245C237.662 9.2308 237.898 9.46623 238.18 9.70166V0.943665H238.086ZM238.133 14.7399C238.133 13.9394 237.945 13.3273 237.521 12.8093C237.144 12.3385 236.532 12.103 235.732 12.103C234.978 12.103 234.413 12.2443 234.037 12.5739C233.66 12.9035 233.471 13.4215 233.471 14.1277V19.7781C233.471 20.6256 233.613 21.1906 233.942 21.4261C234.272 21.7086 234.837 21.8498 235.685 21.8498C236.438 21.8498 237.003 21.6144 237.474 21.1436C237.898 20.6727 238.133 20.0606 238.133 19.2601V14.7399Z" fill="#1E232B"/>
<path d="M246.559 2.30908H250.749V6.59391H246.559V2.30908ZM246.559 8.75987H250.749V25.3812H246.559V8.75987Z" fill="#1E232B"/>
<path d="M261.015 21.897C261.674 21.897 262.239 21.8029 262.663 21.6616C263.087 21.5203 263.51 21.332 263.934 21.1907L264.735 24.1572C264.028 24.5339 263.322 24.8635 262.569 25.146C261.815 25.4285 261.109 25.6168 260.403 25.6168C258.755 25.6168 257.625 25.3343 256.965 24.7222C256.306 24.1101 255.93 23.0271 255.93 21.3791V11.6323H253.34V8.76004H255.93V3.8631H260.12V8.76004H263.322V11.6323H260.12V20.8141C260.12 21.0495 260.214 21.2849 260.356 21.5203C260.591 21.7558 260.779 21.897 261.015 21.897Z" fill="#1E232B"/>
</svg>
