<svg width="32" height="32" viewBox="0 0 32 32" fill="none" xmlns="http://www.w3.org/2000/svg">
<path d="M18.0141 9.564C16.5751 10.087 15.6661 11.438 15.7701 12.915L15.8051 13.485L15.2291 13.415C13.1351 13.147 11.3041 12.24 9.75013 10.715L8.99013 9.95899L8.79413 10.518C8.38013 11.763 8.64513 13.078 9.50813 13.963C9.96813 14.452 9.86413 14.522 9.07113 14.231C8.79513 14.138 8.55313 14.068 8.53013 14.103C8.45013 14.185 8.72613 15.243 8.94413 15.662C9.24313 16.244 9.85313 16.814 10.5211 17.152L11.0851 17.42L10.4181 17.432C9.77413 17.432 9.75113 17.444 9.82013 17.689C10.0501 18.445 10.9591 19.248 11.9721 19.598L12.6861 19.842L12.0651 20.214C11.1441 20.75 10.0621 21.052 8.98013 21.075C8.46113 21.087 8.03613 21.133 8.03613 21.168C8.03613 21.284 9.44113 21.935 10.2571 22.192C12.7081 22.948 15.6211 22.622 17.8081 21.331C19.3621 20.411 20.9151 18.585 21.6411 16.815C22.0331 15.873 22.4241 14.15 22.4241 13.325C22.4241 12.789 22.4591 12.72 23.1031 12.08C23.4831 11.708 23.8401 11.301 23.9091 11.184C24.0241 10.963 24.0121 10.963 23.4261 11.16C22.4481 11.509 22.3091 11.463 22.7931 10.939C23.1491 10.567 23.5761 9.892 23.5761 9.694C23.5761 9.659 23.4041 9.71699 23.2071 9.82199C23.0001 9.93799 22.5401 10.113 22.1941 10.217L21.5731 10.415L21.0091 10.03C20.6981 9.821 20.2611 9.58799 20.0311 9.51799C19.4421 9.35499 18.5441 9.378 18.0141 9.564Z" fill="#414752"/>
<path d="M16 1C24.271 1 31 7.729 31 16C31 24.271 24.271 31 16 31C7.729 31 1 24.271 1 16C1 7.729 7.729 1 16 1ZM16 0C7.163 0 0 7.164 0 16C0 24.836 7.163 32 16 32C24.837 32 32 24.836 32 16C32 7.164 24.837 0 16 0Z" fill="#414752"/>
</svg>
