<svg width="808" height="220" viewBox="0 0 808 220" fill="none" xmlns="http://www.w3.org/2000/svg">
<path d="M406.94 118C437.376 118 462.049 92.1328 462.049 60.2241C462.049 28.3153 437.376 2.44815 406.94 2.44815C376.505 2.44815 351.832 28.3153 351.832 60.2241C351.832 92.1328 376.505 118 406.94 118Z" fill="#0962FF"/>
<mask id="mask0_1237_8966" style="mask-type:alpha" maskUnits="userSpaceOnUse" x="351" y="2" width="112" height="116">
<path d="M406.94 118C437.376 118 462.049 92.1328 462.049 60.2241C462.049 28.3153 437.376 2.44815 406.94 2.44815C376.505 2.44815 351.832 28.3153 351.832 60.2241C351.832 92.1328 376.505 118 406.94 118Z" fill="#86B2FF"/>
</mask>
<g mask="url(#mask0_1237_8966)">
<rect x="333.25" y="83.3015" width="151.264" height="87.75" fill="#86B2FF"/>
</g>
<path d="M402.468 116.552C432.903 116.552 457.576 90.6847 457.576 58.7759C457.576 26.8672 432.903 1 402.468 1C372.032 1 347.359 26.8672 347.359 58.7759C347.359 90.6847 372.032 116.552 402.468 116.552Z" fill="white" stroke="#141414" stroke-width="0.736371" stroke-miterlimit="10"/>
<path d="M428.053 65.654C427.772 64.0819 427.209 62.5097 426.272 61.1341C425.429 59.7585 424.21 58.6777 422.898 57.7933C421.586 56.909 420.087 56.3195 418.587 56.1229C420.649 55.1404 422.242 53.47 423.273 51.3083C424.304 49.2449 424.585 46.7884 424.21 44.5285C423.461 36.2747 416.806 33.5235 408.371 32.6392V21.2412L401.811 21.143V32.2462C400.124 32.2462 398.343 32.2462 396.562 32.2462V21.0447L390.002 20.9464V32.3444C388.596 32.3444 387.19 32.3444 385.878 32.3444L376.881 32.2462V39.6155C376.881 39.6155 381.754 39.5173 381.661 39.6155C382.504 39.5173 383.441 39.8121 384.097 40.3034C384.753 40.8929 385.222 41.679 385.409 42.6616L385.316 73.9077C385.316 74.2025 385.222 74.4973 385.128 74.792C385.035 75.0868 384.847 75.3816 384.566 75.5781C384.379 75.7746 384.097 75.9711 383.816 76.0694C383.535 76.1677 383.254 76.1677 382.879 76.1677C382.973 76.2659 378.099 76.1677 378.099 76.1677L376.787 84.4214L385.316 84.5196C386.909 84.5196 388.502 84.6179 390.002 84.6179V96.1141L396.562 96.2124V84.8144C398.343 84.9126 400.03 84.9127 401.811 84.9127V96.2124L408.371 96.3106V84.8144C419.431 84.2248 427.116 81.3754 428.053 70.4687C428.24 68.9948 428.334 67.3244 428.053 65.654ZM396.656 40.4016C400.311 40.4016 411.933 39.3208 411.933 47.4762C411.933 55.3369 400.311 54.256 396.562 54.256L396.656 40.4016ZM396.562 76.5607L396.656 61.3306C401.061 61.3306 415.026 60.1515 415.026 69.093C414.932 77.7398 401.061 76.5607 396.562 76.5607Z" fill="#141414"/>
<path fill-rule="evenodd" clip-rule="evenodd" d="M455.264 88.3158H450.25V87.48H455.682L455.264 88.3158Z" fill="#141414"/>
<path fill-rule="evenodd" clip-rule="evenodd" d="M454.428 90.8229H448.578V89.9872H454.846L454.428 90.8229Z" fill="#141414"/>
<ellipse cx="29.3364" cy="45.3941" rx="29.3364" ry="45.3941" transform="matrix(0.870143 0.4928 -0.492797 0.870144 541.623 33.0872)" fill="#0962FF"/>
<path fill-rule="evenodd" clip-rule="evenodd" d="M530.571 58.0497C526.314 62.1872 522.391 67.2341 519.109 73.0291C506.754 94.8441 508.167 119.001 522.265 126.986C534.557 133.947 552.432 126.316 564.999 109.789L517.181 78.5408L530.571 58.0497Z" fill="#86B2FF"/>
<path d="M560.518 97.27C554.201 108.425 545.575 116.838 536.772 121.44C527.961 126.047 519.072 126.796 512.092 122.843C505.112 118.89 501.183 110.881 500.602 100.956C500.022 91.0391 502.801 79.3151 509.118 68.16C515.436 57.005 524.061 48.5921 532.864 43.9896C541.675 39.3829 550.564 38.6339 557.544 42.5871C564.525 46.5403 568.454 54.5488 569.034 64.4744C569.615 74.3909 566.836 86.1149 560.518 97.27Z" fill="white" stroke="#08153D" stroke-width="1.51463"/>
<path d="M554.605 87.2415C555.117 86.3324 555.41 85.4007 555.323 84.55C555.308 83.7067 554.866 82.9998 554.261 82.3962C553.656 81.7926 552.769 81.3403 551.7 81.1096C553.751 80.7202 555.758 79.9053 557.558 78.7684C559.312 77.687 560.668 76.3239 561.426 75.0193C564.672 70.3042 560.799 68.2209 554.683 67.0483L559.967 60.6196L554.937 60.0401L549.79 66.3025C548.485 66.1677 547.107 66.0255 545.729 65.8832L550.922 59.5654L545.892 58.9859L540.608 65.4146C539.52 65.3023 538.433 65.19 537.418 65.0852L530.502 64.311L527.086 68.4675C527.086 68.4675 530.902 68.8014 530.784 68.8493C531.482 68.8613 532.07 69.1024 532.35 69.4319C532.584 69.8169 532.583 70.2977 532.272 70.8668L517.714 88.4828C517.578 88.6491 517.369 88.8079 517.159 88.9666C516.95 89.1254 516.669 89.2767 516.36 89.3651C516.124 89.4609 515.815 89.5493 515.552 89.5823C515.289 89.6152 515.072 89.5928 514.782 89.5628C514.809 89.6257 511.084 89.181 511.084 89.181L506.242 93.7315L512.795 94.4682C514.028 94.5954 515.215 94.7781 516.375 94.8979L511.045 101.382L516.076 101.962L521.36 95.5328C522.692 95.7305 523.997 95.8653 525.375 96.0075L520.136 102.381L525.166 102.96L530.496 96.4762C539.325 97.0271 546.592 96.0338 552.373 89.9571C553.202 89.1408 554.048 88.2061 554.605 87.2415ZM542.021 70.4906C544.849 70.7826 554.341 71.1013 550.56 75.7011C546.916 80.1347 538.426 78.5968 535.526 78.2973L542.021 70.4906ZM525.186 90.8776L532.319 82.295C535.727 82.6469 547.077 83.0974 542.932 88.1406C538.851 93.01 528.666 91.2369 525.186 90.8776Z" fill="#141414"/>
<path d="M554.282 107.648L562.134 113.408" stroke="#08153D" stroke-width="1.06024"/>
<path d="M551.47 110.792L559.123 116.511" stroke="#08153D" stroke-width="1.06024"/>
<ellipse cx="25.7334" cy="39.8193" rx="25.7334" ry="39.8193" transform="matrix(0.87014 0.492804 -0.492793 0.870147 664.715 78.8397)" fill="#0962FF"/>
<path fill-rule="evenodd" clip-rule="evenodd" d="M655.017 100.738C651.283 104.367 647.842 108.794 644.964 113.876C634.127 133.012 635.366 154.203 647.733 161.207C658.515 167.313 674.195 160.62 685.218 146.122L643.272 118.711L655.017 100.738Z" fill="#86B2FF"/>
<path d="M681.288 135.14C675.746 144.926 668.18 152.305 660.458 156.343C652.729 160.384 644.932 161.041 638.809 157.573C632.686 154.105 629.24 147.08 628.73 138.373C628.221 129.675 630.659 119.391 636.201 109.605C641.742 99.8202 649.308 92.4405 657.03 88.4032C664.759 84.3623 672.556 83.7052 678.679 87.173C684.802 90.6407 688.249 97.6657 688.758 106.372C689.267 115.071 686.829 125.355 681.288 135.14Z" fill="white" stroke="#08153D" stroke-width="1.32862"/>
<path d="M676.1 126.343C676.548 125.546 676.806 124.729 676.729 123.982C676.716 123.243 676.329 122.623 675.798 122.093C675.267 121.564 674.489 121.167 673.551 120.965C675.35 120.623 677.111 119.908 678.69 118.911C680.228 117.962 681.418 116.767 682.083 115.622C684.93 111.486 681.533 109.659 676.168 108.63L680.803 102.991L676.391 102.483L671.876 107.976C670.731 107.858 669.522 107.733 668.314 107.608L672.869 102.066L668.457 101.558L663.822 107.197C662.867 107.099 661.913 107 661.023 106.908L654.957 106.229L651.96 109.875C651.96 109.875 655.308 110.168 655.204 110.21C655.816 110.22 656.333 110.432 656.578 110.721C656.783 111.059 656.782 111.48 656.51 111.98L643.74 127.432C643.62 127.578 643.436 127.717 643.253 127.857C643.07 127.996 642.822 128.129 642.552 128.206C642.345 128.29 642.074 128.368 641.843 128.397C641.612 128.426 641.421 128.406 641.167 128.38C641.191 128.435 637.923 128.045 637.923 128.045L633.676 132.036L639.425 132.683C640.506 132.794 641.547 132.955 642.565 133.06L637.89 138.747L642.302 139.256L646.937 133.617C648.106 133.79 649.251 133.908 650.459 134.033L645.864 139.624L650.276 140.132L654.951 134.444C662.696 134.927 669.071 134.056 674.142 128.726C674.868 128.009 675.611 127.19 676.1 126.343ZM665.061 111.65C667.542 111.906 675.868 112.185 672.552 116.22C669.355 120.109 661.908 118.76 659.364 118.498L665.061 111.65ZM650.294 129.533L656.55 122.004C659.54 122.313 669.496 122.708 665.86 127.132C662.28 131.404 653.347 129.848 650.294 129.533Z" fill="#141414"/>
<path d="M675.818 144.244L682.706 149.297" stroke="#08153D" stroke-width="0.930032"/>
<path d="M673.352 147.002L680.065 152.018" stroke="#08153D" stroke-width="0.930032"/>
<ellipse cx="20.5868" cy="31.8554" rx="20.5868" ry="31.8554" transform="matrix(0.870141 0.492803 -0.492794 0.870146 771.844 143.772)" fill="#0962FF"/>
<path fill-rule="evenodd" clip-rule="evenodd" d="M764.086 161.291C761.1 164.194 758.347 167.735 756.044 171.801C747.374 187.11 748.366 204.062 758.259 209.665C766.885 214.55 779.429 209.196 788.248 197.598L754.691 175.669L764.086 161.291Z" fill="#86B2FF"/>
<path d="M785.102 188.812C780.668 196.64 774.615 202.544 768.438 205.774C762.255 209.007 756.017 209.532 751.119 206.758C746.22 203.984 743.463 198.364 743.056 191.399C742.648 184.44 744.599 176.212 749.032 168.384C753.465 160.556 759.518 154.652 765.696 151.423C771.879 148.19 778.116 147.664 783.015 150.438C787.913 153.213 790.67 158.833 791.078 165.798C791.485 172.757 789.535 180.984 785.102 188.812Z" fill="white" stroke="#08153D" stroke-width="1.06289"/>
<path d="M780.951 181.775C781.31 181.137 781.516 180.483 781.455 179.886C781.444 179.294 781.135 178.798 780.71 178.375C780.285 177.951 779.663 177.634 778.913 177.472C780.352 177.198 781.76 176.627 783.023 175.829C784.254 175.07 785.206 174.113 785.738 173.198C788.016 169.889 785.298 168.427 781.006 167.604L784.714 163.093L781.184 162.686L777.572 167.081C776.656 166.986 775.689 166.886 774.723 166.787L778.367 162.353L774.837 161.946L771.129 166.458C770.365 166.379 769.602 166.3 768.89 166.226L764.037 165.683L761.64 168.6C761.64 168.6 764.318 168.834 764.235 168.868C764.725 168.876 765.138 169.046 765.334 169.277C765.498 169.547 765.497 169.884 765.279 170.284L755.063 182.646C754.967 182.763 754.821 182.874 754.674 182.985C754.527 183.097 754.329 183.203 754.113 183.265C753.947 183.332 753.731 183.394 753.546 183.417C753.361 183.441 753.209 183.425 753.005 183.404C753.024 183.448 750.41 183.136 750.41 183.136L747.013 186.329L751.611 186.846C752.476 186.935 753.309 187.064 754.123 187.148L750.383 191.698L753.913 192.105L757.621 187.593C758.556 187.732 759.472 187.827 760.439 187.926L756.763 192.399L760.293 192.806L764.033 188.255C770.229 188.642 775.328 187.945 779.385 183.68C779.966 183.108 780.561 182.452 780.951 181.775ZM772.12 170.02C774.105 170.225 780.766 170.448 778.113 173.676C775.556 176.788 769.598 175.708 767.562 175.498L772.12 170.02ZM760.306 184.326L765.312 178.304C767.703 178.55 775.669 178.867 772.76 182.406C769.896 185.823 762.749 184.579 760.306 184.326Z" fill="#141414"/>
<path d="M780.726 196.095L786.236 200.138" stroke="#08153D" stroke-width="0.744026"/>
<path d="M778.752 198.302L784.122 202.315" stroke="#08153D" stroke-width="0.744026"/>
<ellipse cx="29.3365" cy="45.3941" rx="29.3365" ry="45.3941" transform="matrix(-0.870143 0.492799 0.492798 0.870144 267.67 33.0872)" fill="#0962FF"/>
<path fill-rule="evenodd" clip-rule="evenodd" d="M278.725 58.0504C282.981 62.1878 286.904 67.2345 290.186 73.0293C302.541 94.8442 301.128 119.001 287.029 126.986C274.738 133.947 256.862 126.316 244.295 109.789L292.114 78.5408L278.725 58.0504Z" fill="#86B2FF"/>
<path d="M249.2 97.2701C255.518 108.425 264.144 116.838 272.946 121.441C281.757 126.047 290.646 126.796 297.627 122.843C304.607 118.89 308.536 110.881 309.117 100.956C309.697 91.0392 306.918 79.3152 300.6 68.1601C294.283 57.005 285.657 48.5922 276.855 43.9897C268.044 39.383 259.155 38.634 252.174 42.5872C245.194 46.5404 241.265 54.5489 240.684 64.4745C240.104 74.391 242.883 86.115 249.2 97.2701Z" fill="white" stroke="#08153D" stroke-width="1.51463"/>
<path d="M255.011 107.648L247.159 113.408" stroke="#08153D" stroke-width="1.06024"/>
<path d="M257.823 110.792L250.17 116.511" stroke="#08153D" stroke-width="1.06024"/>
<path d="M291.61 70.3799C291.028 69.4986 290.316 68.7922 289.484 68.4509C288.697 68.0513 287.818 68.0827 286.952 68.3045C286.086 68.5262 285.216 69.0625 284.459 69.8628C285.142 67.9208 285.409 65.8082 285.272 63.7153C285.164 61.6883 284.592 59.8634 283.771 58.5784C281.059 53.5004 277.162 55.7894 272.967 60.4395L269.707 52.7833L266.613 56.7961L269.789 64.2543C269 65.3031 268.168 66.4102 267.336 67.5173L264.132 59.9931L261.037 64.0058L264.298 71.6621C263.641 72.5361 262.984 73.4101 262.37 74.2259L258.137 79.7536L260.245 84.7037C260.245 84.7037 262.495 81.6078 262.479 81.7321C262.845 81.1417 263.368 80.757 263.815 80.6791C264.29 80.6673 264.734 80.9039 265.103 81.4474L273.997 102.494C274.081 102.692 274.122 102.949 274.162 103.205C274.203 103.461 274.2 103.776 274.124 104.082C274.093 104.331 274.018 104.638 273.914 104.879C273.811 105.119 273.68 105.294 273.505 105.527C273.576 105.535 271.271 108.499 271.271 108.499L273.018 114.859L277.032 109.622C277.777 108.632 278.55 107.707 279.251 106.775L282.539 114.497L285.633 110.484L282.373 102.828C283.233 101.787 284.022 100.738 284.854 99.6313L288.086 107.221L291.181 103.209L287.892 95.4865C292.892 88.2149 295.669 81.5228 292.987 73.614C292.653 72.5074 292.219 71.3271 291.61 70.3799ZM269.712 72.9372C271.421 70.6647 276.543 62.7135 278.876 68.1916C281.124 73.4718 275.384 79.971 273.632 82.3017L269.712 72.9372ZM280.012 97.2841L275.699 86.9956C277.758 84.257 283.947 74.783 286.505 80.7892C288.934 86.6556 282.115 94.4873 280.012 97.2841Z" fill="#141414"/>
<ellipse cx="25.7334" cy="39.8193" rx="25.7334" ry="39.8193" transform="matrix(-0.87014 0.492805 0.492793 0.870147 143.631 78.8397)" fill="#0962FF"/>
<path fill-rule="evenodd" clip-rule="evenodd" d="M153.326 100.733C157.061 104.363 160.504 108.791 163.384 113.876C174.221 133.012 172.981 154.203 160.615 161.206C149.833 167.313 134.153 160.619 123.129 146.122L165.074 118.711L153.326 100.733Z" fill="#86B2FF"/>
<path d="M127.431 135.14C132.973 144.926 140.539 152.305 148.261 156.343C155.989 160.384 163.787 161.041 169.91 157.573C176.032 154.105 179.479 147.08 179.988 138.373C180.497 129.675 178.06 119.391 172.518 109.605C166.977 99.8202 159.41 92.4405 151.689 88.4032C143.96 84.3623 136.163 83.7052 130.04 87.173C123.917 90.6407 120.47 97.6657 119.961 106.372C119.452 115.071 121.89 125.355 127.431 135.14Z" fill="white" stroke="#08153D" stroke-width="1.32862"/>
<path d="M132.528 144.244L125.64 149.297" stroke="#08153D" stroke-width="0.930032"/>
<path d="M134.996 147.002L128.282 152.018" stroke="#08153D" stroke-width="0.930032"/>
<path d="M164.631 111.553C164.122 110.78 163.497 110.16 162.767 109.86C162.076 109.51 161.305 109.537 160.546 109.732C159.786 109.926 159.023 110.397 158.359 111.099C158.958 109.395 159.192 107.542 159.072 105.706C158.977 103.928 158.476 102.328 157.755 101.2C155.377 96.746 151.959 98.7539 148.279 102.833L145.419 96.117L142.704 99.6369L145.49 106.179C144.799 107.099 144.069 108.07 143.339 109.041L140.528 102.441L137.814 105.961L140.674 112.677C140.098 113.444 139.521 114.211 138.983 114.926L135.27 119.775L137.119 124.117C137.119 124.117 139.093 121.402 139.079 121.511C139.4 120.993 139.858 120.655 140.25 120.587C140.667 120.577 141.057 120.784 141.38 121.261L149.182 139.723C149.256 139.897 149.291 140.122 149.327 140.346C149.362 140.571 149.36 140.847 149.294 141.116C149.266 141.334 149.2 141.603 149.109 141.815C149.019 142.026 148.904 142.179 148.75 142.384C148.813 142.39 146.79 144.99 146.79 144.99L148.324 150.569L151.845 145.976C152.498 145.107 153.176 144.296 153.79 143.478L156.675 150.252L159.389 146.732L156.529 140.016C157.284 139.103 157.975 138.183 158.705 137.212L161.541 143.87L164.255 140.35L161.37 133.576C165.756 127.197 168.192 121.327 165.839 114.389C165.546 113.419 165.166 112.383 164.631 111.553ZM145.424 113.796C146.922 111.802 151.415 104.828 153.462 109.633C155.434 114.265 150.398 119.966 148.862 122.01L145.424 113.796ZM154.458 135.153L150.675 126.128C152.481 123.725 157.91 115.415 160.154 120.684C162.285 125.829 156.302 132.699 154.458 135.153Z" fill="#141414"/>
<ellipse cx="20.5868" cy="31.8554" rx="20.5868" ry="31.8554" transform="matrix(-0.870141 0.492803 0.492794 0.870146 36.1562 143.772)" fill="#0962FF"/>
<path fill-rule="evenodd" clip-rule="evenodd" d="M43.9138 161.291C46.9004 164.194 49.6531 167.735 51.9559 171.801C60.6257 187.11 59.6339 204.062 49.7406 209.665C41.1152 214.55 28.5713 209.196 19.7523 197.598L53.3095 175.669L43.9138 161.291Z" fill="#86B2FF"/>
<path d="M23.1952 188.812C27.6286 196.64 33.6815 202.544 39.8589 205.774C46.0419 209.007 52.2797 209.532 57.1781 206.758C62.0764 203.984 64.8337 198.364 65.2412 191.399C65.6484 184.44 63.6983 176.212 59.265 168.384C54.8317 160.556 48.7788 154.652 42.6014 151.423C36.4183 148.19 30.1805 147.664 25.2822 150.438C20.3838 153.213 17.6265 158.833 17.219 165.798C16.8119 172.757 18.7619 180.984 23.1952 188.812Z" fill="white" stroke="#08153D" stroke-width="1.06289"/>
<path d="M27.2725 196.095L21.7625 200.137" stroke="#08153D" stroke-width="0.744026"/>
<path d="M29.2462 198.302L23.8756 202.315" stroke="#08153D" stroke-width="0.744026"/>
<path d="M52.9559 169.942C52.5481 169.324 52.0481 168.828 51.4646 168.588C50.9118 168.308 50.2952 168.33 49.6874 168.486C49.0796 168.641 48.4694 169.018 47.9382 169.579C48.4172 168.216 48.6044 166.734 48.5086 165.265C48.4325 163.843 48.0316 162.562 47.455 161.66C45.5523 158.097 42.8176 159.703 39.8737 162.966L37.5858 157.594L35.4144 160.41L37.6432 165.643C37.0899 166.379 36.5059 167.156 35.9219 167.933L33.6734 162.653L31.502 165.469L33.79 170.842C33.3289 171.455 32.8678 172.068 32.4375 172.641L29.467 176.52L30.9463 179.994C30.9463 179.994 32.5249 177.821 32.5139 177.908C32.7708 177.494 33.1373 177.224 33.4511 177.17C33.7846 177.161 34.0961 177.327 34.3548 177.709L40.5963 192.478C40.6555 192.617 40.6839 192.797 40.7123 192.977C40.7408 193.157 40.7385 193.378 40.6857 193.593C40.6637 193.767 40.6109 193.983 40.5384 194.152C40.4659 194.321 40.3737 194.443 40.2508 194.607C40.3012 194.612 38.6831 196.692 38.6831 196.692L39.9096 201.155L42.7265 197.481C43.249 196.786 43.7913 196.137 44.2831 195.482L46.5908 200.902L48.7622 198.086L46.4742 192.713C47.0779 191.982 47.6312 191.246 48.2152 190.469L50.4835 195.796L52.6548 192.98L50.3471 187.561C53.8558 182.458 55.8043 177.762 53.9224 172.212C53.688 171.435 53.3834 170.607 52.9559 169.942ZM37.5897 171.737C38.7885 170.142 42.383 164.562 44.0201 168.406C45.598 172.112 41.5696 176.673 40.34 178.308L37.5897 171.737ZM44.8174 188.822L41.7909 181.602C43.2356 179.68 47.5788 173.032 49.3737 177.247C51.0787 181.364 46.2928 186.859 44.8174 188.822Z" fill="#141414"/>
</svg>
