<svg width="190" height="182" viewBox="0 0 190 182" fill="none" xmlns="http://www.w3.org/2000/svg">
<rect x="0.845847" width="108.414" height="108.414" rx="11.232" transform="matrix(0.866025 -0.5 0.866025 0.5 0.378947 127.657)" fill="#141414" stroke="#0962FF" stroke-width="0.9767"/>
<rect x="0.845847" width="108.414" height="108.414" rx="11.232" transform="matrix(0.866025 -0.5 0.866025 0.5 0.378947 116.913)" fill="#86B2FF" stroke="#0962FF" stroke-width="0.9767"/>
<rect opacity="0.5" width="92.226" height="85.0988" rx="42.5494" transform="matrix(0.866025 -0.5 0.866025 0.5 15.5352 114.542)" fill="#141414"/>
<path d="M6.64062 126.729V116.451C6.64062 117.591 7.71499 120.456 12.0125 122.8C16.31 125.144 17.7099 126.055 17.8727 126.218V136.767L9.08237 131.59C8.62432 131.246 7.79569 130.468 7.20854 129.492C6.71439 128.671 6.64062 127.687 6.64062 126.729Z" fill="#0962FF" stroke="#0962FF" stroke-width="0.9767"/>
<path d="M183.131 116.451V127.683" stroke="#0962FF" stroke-width="0.9767"/>
<path d="M84.291 164.798V175.053" stroke="#0962FF" stroke-width="0.9767"/>
<path d="M105.777 164.309V175.053" stroke="#0962FF" stroke-width="0.9767"/>
<path d="M176.586 127.731V123.777C176.586 123.777 179.161 122.545 180.492 121.335C181.603 120.326 182.78 118.183 183.231 117.316C183.279 117.224 183.422 117.259 183.422 117.363V125.984C183.422 127.43 183.269 128.936 182.446 130.125C181.396 131.641 179.691 132.542 178.094 133.464L123.844 164.798L172.891 134.37C175.188 132.945 176.586 130.434 176.586 127.731Z" fill="#0962FF" stroke="#0962FF" stroke-width="0.9767"/>
<path d="M25.1992 141.064V130.809L33.0128 135.692V145.459L25.1992 141.064Z" fill="#0962FF" stroke="#0962FF" stroke-width="0.9767"/>
<path d="M160.102 13.7961L152.818 18.0016L156.565 24.4794L136.373 36.0807L109.783 19.7198L87.0562 32.7812L87.0645 32.7954L79.7734 36.9867L87.5009 50.343L106.876 39.2114L133.464 55.5747L164.301 37.8571L168.057 44.3491L175.341 40.1436L176.221 22.0871L160.102 13.7961Z" fill="#0962FF"/>
<path d="M168.938 26.2926L152.818 18.0016L156.573 24.496L129.088 40.2862L102.499 23.9253L79.7734 36.9866L87.5009 50.3429L106.876 39.2113L133.464 55.5746L164.301 37.857L168.057 44.3491L168.938 26.2926Z" fill="white"/>
<path d="M102.5 23.9254L109.783 19.7198L136.373 36.0808L129.088 40.2863L102.5 23.9254ZM176.219 22.0872L168.935 26.2928L168.054 44.3492L175.338 40.1436L176.219 22.0872Z" fill="#141414"/>
<path d="M168.059 44.6679C168 44.6674 167.943 44.6514 167.892 44.6215C167.844 44.5913 167.804 44.5487 167.777 44.4982C167.751 44.4476 167.738 44.3909 167.74 44.3337L168.622 26.2773C168.625 26.2241 168.641 26.1724 168.668 26.1269C168.696 26.0814 168.735 26.0436 168.781 26.0169L176.065 21.8113C176.114 21.7828 176.17 21.7682 176.227 21.7689C176.284 21.7697 176.34 21.7858 176.389 21.8157C176.438 21.8455 176.477 21.8879 176.504 21.9384C176.531 21.9889 176.543 22.0456 176.54 22.1027L175.66 40.1591C175.658 40.2123 175.642 40.2641 175.614 40.3095C175.586 40.355 175.547 40.3928 175.501 40.4195L168.216 44.6251C168.168 44.6529 168.114 44.6677 168.059 44.6679ZM169.248 26.4818L168.402 43.782L175.03 39.9582L175.873 22.6567L169.248 26.4818ZM129.09 40.6038C129.031 40.6039 128.974 40.5879 128.923 40.5574L102.335 24.1965C102.288 24.1675 102.249 24.1269 102.223 24.0785C102.196 24.0302 102.183 23.9758 102.184 23.9207C102.184 23.8656 102.2 23.8116 102.228 23.7641C102.255 23.7166 102.295 23.6771 102.343 23.6496L109.626 19.444C109.675 19.4148 109.731 19.3994 109.789 19.3994C109.846 19.3994 109.902 19.4148 109.951 19.444L136.542 35.8049C136.588 35.8338 136.627 35.8744 136.654 35.9227C136.68 35.971 136.694 36.0253 136.693 36.0804C136.692 36.1355 136.677 36.1895 136.65 36.2371C136.622 36.2847 136.582 36.3242 136.534 36.3519L129.253 40.561C129.203 40.5895 129.147 40.6043 129.09 40.6038ZM103.123 23.9337L129.096 39.9154L135.754 36.0724L109.779 20.0908L103.123 23.9337Z" fill="#141414"/>
<path d="M99.9054 80.9058C99.8938 76.1488 96.7457 71.3956 90.4514 67.7623C77.863 60.4938 57.4685 60.4861 44.8917 67.7468C38.6014 71.3801 35.461 76.141 35.4727 80.9058V86.447C35.4727 91.204 38.6324 95.9572 44.9208 99.5905C57.5093 106.861 77.9155 106.867 90.4825 99.606C96.7748 95.9727 99.9132 91.2118 99.9054 86.447V80.9058Z" fill="white"/>
<path d="M67.7266 105.567C59.0218 105.567 50.8411 103.604 44.6594 100.041C38.4118 96.4328 34.9648 91.6059 34.9551 86.4549V80.9118C34.9435 75.7491 38.3808 70.9144 44.6361 67.3025C50.7887 63.7487 58.9635 61.7924 67.6489 61.7924C76.3342 61.7924 84.5344 63.7546 90.7141 67.318C96.9656 70.926 100.418 75.753 100.428 80.904V86.4471C100.428 91.6137 96.9986 96.4464 90.7451 100.056C84.5887 103.61 76.4138 105.567 67.7266 105.567ZM67.647 62.8249C59.1402 62.8249 51.1497 64.7328 45.1524 68.1953C39.2347 71.6151 35.9818 76.1275 35.9915 80.904V86.4316C36.0032 91.2177 39.2657 95.7264 45.1795 99.1403C51.1962 102.614 59.2023 104.528 67.7266 104.528C76.2508 104.528 84.2239 102.62 90.2231 99.1578C96.1407 95.7419 99.3956 91.2274 99.3858 86.4471V80.9059C99.3858 76.1353 96.1116 71.6267 90.194 68.2127C84.1773 64.7386 76.1693 62.8249 67.647 62.8249Z" fill="#141414"/>
<path d="M99.9065 86.447V80.9058C99.8949 76.1488 96.7468 71.3956 90.4526 67.7623C87.8885 66.3104 85.1622 65.1658 82.3301 64.3522V103.02C85.1727 102.208 87.909 101.062 90.4817 99.606C96.7759 95.9727 99.9143 91.2196 99.9065 86.447Z" fill="#0962FF"/>
<path d="M82.3307 103.54C82.219 103.539 82.1103 103.503 82.0202 103.437C81.9557 103.388 81.9034 103.325 81.8674 103.253C81.8314 103.181 81.8126 103.101 81.8125 103.02V64.3522C81.8124 64.2713 81.8313 64.1915 81.8675 64.1192C81.9038 64.0469 81.9565 63.9841 82.0214 63.9358C82.0863 63.8875 82.1616 63.8551 82.2412 63.8411C82.3209 63.8271 82.4027 63.832 82.4802 63.8553C85.3507 64.6806 88.114 65.8408 90.7133 67.312C96.9648 70.9201 100.418 75.747 100.427 80.898V86.4411C100.427 91.6077 96.9978 96.4404 90.7443 100.05C88.1353 101.527 85.3607 102.689 82.4782 103.513C82.4306 103.529 82.3809 103.538 82.3307 103.54ZM82.8509 65.0529V102.317C85.4187 101.539 87.8922 100.479 90.2262 99.1557C96.1438 95.7398 99.3986 91.2254 99.3889 86.445V80.9038C99.3889 76.1332 96.1147 71.6246 90.1971 68.2106C87.8712 66.8924 85.4078 65.8335 82.8509 65.0529Z" fill="#141414"/>
<path d="M90.4827 94.0649C103.058 86.8061 103.044 75.0289 90.4516 67.7623C77.8593 60.4958 57.4686 60.4861 44.8919 67.7468C32.3151 75.0076 32.3306 86.7828 44.921 94.0493C57.5114 101.316 77.904 101.326 90.4827 94.0649Z" fill="#86B2FF"/>
<path d="M67.7265 100.025C59.0218 100.025 50.841 98.063 44.6594 94.4996C38.4001 90.8857 34.9551 86.0491 34.9551 80.8845C34.9551 75.7198 38.3943 70.9007 44.6381 67.2984C50.7906 63.7447 58.9655 61.7883 67.6508 61.7883C76.3362 61.7883 84.5363 63.7505 90.716 67.314C96.9792 70.9278 100.42 75.7645 100.42 80.931C100.42 86.0976 96.983 90.9129 90.7393 94.5171C84.5887 98.0688 76.4138 100.025 67.7265 100.025ZM67.6469 62.8247C59.1401 62.8247 51.1496 64.7326 45.1524 68.1951C39.2444 71.6071 35.9896 76.1138 35.9896 80.8845C35.9896 85.6551 39.2541 90.1792 45.1795 93.601C51.1962 97.0732 59.2023 98.9869 67.7265 98.9869C76.2508 98.9869 84.2238 97.079 90.223 93.6165C96.131 90.2045 99.3858 85.6997 99.3858 80.9291C99.3858 76.1585 96.1213 71.6324 90.1939 68.2126C84.1773 64.7384 76.1692 62.8247 67.6469 62.8247Z" fill="#141414"/>
<path d="M49.5283 90.4587C49.3925 90.3849 49.243 90.3209 49.111 90.2432C38.8594 84.3236 38.8497 74.697 49.0897 68.7851C49.2314 68.7036 49.3847 68.6357 49.5283 68.558V90.4587ZM71.1437 64.5036C69.9151 64.4104 68.6788 64.3561 67.4425 64.3599V94.6781C68.6788 94.6781 69.9151 94.6335 71.1437 94.5423V64.5036ZM86.2572 68.7987C84.0493 67.5549 81.6968 66.5875 79.2526 65.9185V93.1371C81.7053 92.4711 84.0659 91.5037 86.2805 90.2568C96.534 84.345 96.5127 74.7222 86.2572 68.7987Z" fill="white"/>
<path d="M65.3022 84.8594C66.2002 84.3419 66.6628 83.7771 66.6899 83.1651C66.7171 82.5557 66.3212 81.725 65.5099 80.673C63.864 78.7632 62.9965 77.1458 62.9072 75.8209C62.8179 74.4959 63.7767 73.2518 65.7836 72.0886C67.6313 71.0211 69.7436 70.4926 72.1205 70.5029C74.5263 70.5201 76.8984 71.0696 79.0668 72.1119L82.5856 70.0837L85.2019 71.5937L81.6346 73.651C83.3348 74.9449 84.1111 76.2828 83.9636 77.6647C83.8161 79.0466 82.713 80.3107 80.6544 81.4571L80.538 81.4843L75.8488 78.7787C77.0444 78.0859 77.6888 77.4027 77.7897 76.7175C77.8906 76.0324 77.4501 75.4113 76.4738 74.8485C75.5599 74.2844 74.5023 73.9965 73.4286 74.0197C72.421 74.0662 71.4401 74.3587 70.5717 74.8718C69.7254 75.3628 69.2985 75.8888 69.281 76.4633C69.2635 77.0378 69.6575 77.8879 70.4571 79.0233C72.1043 80.8852 72.9589 82.4948 73.021 83.8522C73.0832 85.2095 72.1172 86.4633 70.1233 87.6135C68.1893 88.721 65.9891 89.2781 63.7612 89.2244C61.3658 89.1856 59.0079 88.6246 56.8517 87.5805L53.6163 89.4496L51 87.9377L54.2354 86.0705C52.3179 84.7469 51.2873 83.3443 51.1437 81.8628C51 80.3812 52.1218 78.976 54.5091 77.6472L54.6547 77.6201L59.3302 80.3178C57.9263 81.1278 57.269 81.9042 57.3583 82.6469C57.4475 83.3896 58.0402 84.076 59.1361 84.7061C60.1022 85.2977 61.2079 85.6226 62.3405 85.6474C63.3807 85.6565 64.404 85.3842 65.3022 84.8594Z" fill="#141414"/>
<path d="M70.6129 105.493C70.4753 105.492 70.3435 105.437 70.2464 105.34C70.1493 105.242 70.0947 105.11 70.0947 104.972V99.4313C70.0904 99.3605 70.1006 99.2895 70.1247 99.2227C70.1488 99.156 70.1864 99.0949 70.235 99.0432C70.2837 98.9915 70.3423 98.9503 70.4075 98.9221C70.4727 98.8939 70.5429 98.8794 70.6139 98.8794C70.6849 98.8794 70.7551 98.8939 70.8203 98.9221C70.8854 98.9503 70.9441 98.9915 70.9927 99.0432C71.0414 99.0949 71.0789 99.156 71.1031 99.2227C71.1272 99.2895 71.1374 99.3605 71.1331 99.4313V104.972C71.1331 105.11 71.0783 105.243 70.9807 105.34C70.8832 105.438 70.7509 105.493 70.6129 105.493ZM76.4724 104.877C76.3347 104.877 76.2028 104.823 76.1053 104.726C76.0078 104.629 75.9527 104.497 75.9522 104.359V98.818C75.9479 98.7472 75.9581 98.6762 75.9823 98.6094C76.0064 98.5427 76.0439 98.4816 76.0925 98.4299C76.1412 98.3782 76.1999 98.337 76.2651 98.3088C76.3302 98.2807 76.4004 98.2661 76.4714 98.2661C76.5424 98.2661 76.6126 98.2807 76.6778 98.3088C76.7429 98.337 76.8017 98.3782 76.8503 98.4299C76.8989 98.4816 76.9364 98.5427 76.9606 98.6094C76.9847 98.6762 76.9949 98.7472 76.9906 98.818V104.359C76.9886 104.495 76.9331 104.625 76.8362 104.721C76.7393 104.817 76.6086 104.871 76.4724 104.872V104.877ZM79.4011 104.313C79.2632 104.313 79.1309 104.258 79.0333 104.16C78.9358 104.063 78.881 103.93 78.881 103.792V98.164C78.881 98.026 78.9358 97.8937 79.0333 97.7962C79.1309 97.6986 79.2632 97.6438 79.4011 97.6438C79.5391 97.6438 79.6714 97.6986 79.7689 97.7962C79.8665 97.8937 79.9213 98.026 79.9213 98.164V103.792C79.9197 103.929 79.8643 104.06 79.7669 104.156C79.6695 104.253 79.5381 104.307 79.4011 104.307V104.313Z" fill="#141414"/>
<path d="M99.9054 72.5872C99.8938 67.8321 96.7457 63.077 90.4514 59.4437C77.863 52.1752 57.4685 52.1674 44.8917 59.4282C38.6014 63.0615 35.461 67.8243 35.4727 72.5872V78.1303C35.4727 82.8854 38.6324 87.6405 44.9208 91.2738C57.5093 98.5423 77.9155 98.5481 90.4825 91.2893C96.7748 87.656 99.9132 82.8932 99.9054 78.1303V72.5872Z" fill="white"/>
<path d="M67.7266 97.2556C59.0218 97.2556 50.8411 95.2915 44.6594 91.7281C38.4118 88.122 34.9648 83.2931 34.9551 78.1421V72.5873C34.9435 67.4246 38.3808 62.5919 44.6361 58.978C50.7887 55.4262 58.9635 53.4679 67.6489 53.4679C76.3342 53.4679 84.5344 55.4301 90.7141 58.9955C96.9656 62.6016 100.418 67.4285 100.428 72.5815V78.1246C100.428 83.2892 96.9986 88.122 90.7451 91.7339C84.5887 95.2954 76.4138 97.2556 67.7266 97.2556ZM67.647 54.514C59.1402 54.514 51.1497 56.42 45.1524 59.8844C39.2347 63.3022 35.9818 67.8167 35.9915 72.5931V78.1188C36.0032 82.9049 39.2657 87.4135 45.1795 90.8295C51.1962 94.3036 59.2023 96.2153 67.7266 96.2153C76.2508 96.2153 84.2239 94.3094 90.2231 90.845C96.1407 87.4291 99.3956 82.9146 99.3858 78.1362V72.5873C99.3858 67.8167 96.1116 63.3081 90.194 59.8941C84.1773 56.4258 76.1693 54.514 67.647 54.514Z" fill="#141414"/>
<path d="M99.9065 78.1363V72.5874C99.8949 67.8323 96.7468 63.0772 90.4526 59.4439C87.8884 57.9926 85.1621 56.8487 82.3301 56.0357V94.7132C85.1724 93.9006 87.9086 92.7546 90.4817 91.2992C96.7759 87.6621 99.9143 82.8992 99.9065 78.1363Z" fill="#0962FF"/>
<path d="M82.3307 95.2274C82.1933 95.2274 82.0615 95.1728 81.9643 95.0756C81.8671 94.9785 81.8125 94.8467 81.8125 94.7092V56.0415C81.8125 55.9606 81.8314 55.8808 81.8677 55.8084C81.9039 55.7361 81.9565 55.6732 82.0214 55.6248C82.0862 55.5763 82.1614 55.5437 82.241 55.5295C82.3207 55.5152 82.4026 55.5197 82.4802 55.5427C85.3514 56.3685 88.1154 57.5293 90.7153 59.0013C96.9668 62.6074 100.42 67.4343 100.429 72.5873V78.1304C100.429 83.295 96.9997 88.1278 90.7463 91.7397C88.1365 93.2146 85.362 94.3768 82.4802 95.2022C82.4318 95.2177 82.3815 95.2262 82.3307 95.2274ZM82.8509 56.7421V94.0066C85.4187 93.2281 87.8923 92.1671 90.2262 90.843C96.1438 87.4271 99.3987 82.9127 99.3889 78.1343V72.5873C99.3889 67.8167 96.1147 63.308 90.1971 59.8941C87.871 58.5779 85.4075 57.5209 82.8509 56.7421Z" fill="#141414"/>
<path d="M90.4827 85.754C103.058 78.4952 103.044 66.718 90.4516 59.4495C77.8593 52.181 57.4686 52.1732 44.8919 59.434C32.3151 66.6947 32.3306 78.4699 44.921 85.7385C57.5114 93.007 77.904 93.0128 90.4827 85.754Z" fill="#86B2FF"/>
<path d="M67.7265 91.7144C59.0218 91.7144 50.841 89.7503 44.6594 86.1888C38.4001 82.573 34.9551 77.7383 34.9551 72.5737C34.9551 67.409 38.3943 62.5879 44.6381 58.9876C50.7906 55.4359 58.9655 53.4775 67.6508 53.4775C76.3362 53.4775 84.5363 55.4397 90.716 59.0051C96.9792 62.619 100.42 67.4537 100.42 72.6202C100.42 77.7868 96.983 82.604 90.7393 86.2063C84.5887 89.7561 76.4138 91.7144 67.7265 91.7144ZM67.6469 54.514C59.1401 54.514 51.1496 56.4199 45.1524 59.8843C39.2444 63.2964 35.9896 67.8011 35.9896 72.5737C35.9896 77.3462 39.2541 81.8684 45.1795 85.2882C51.1962 88.7624 59.2023 90.6741 67.7265 90.6741C76.2508 90.6741 84.2238 88.7682 90.223 85.3038C96.131 81.8937 99.3858 77.387 99.3858 72.6164C99.3858 67.8457 96.1213 63.3216 90.1939 59.8998C84.1773 56.4257 76.1692 54.514 67.6469 54.514Z" fill="#141414"/>
<path d="M49.5283 82.1482C49.3925 82.0725 49.243 82.0085 49.111 81.9308C38.8594 76.0112 38.8497 66.3845 49.0897 60.4727C49.2314 60.3931 49.3847 60.3252 49.5283 60.2456V82.1482ZM71.1437 56.1931C69.9151 56.098 68.6788 56.0436 67.4425 56.0495V86.3676C68.6788 86.3676 69.9151 86.323 71.1437 86.2298V56.1931ZM86.2572 60.4863C84.0489 59.2439 81.6964 58.2772 79.2526 57.608V84.8266C81.7056 84.1608 84.0663 83.1927 86.2805 81.9444C96.534 76.0325 96.5127 66.4059 86.2572 60.4863Z" fill="white"/>
<path d="M65.3003 76.5468C66.1983 76.0292 66.6608 75.4651 66.688 74.8543C66.7152 74.2449 66.3192 73.4142 65.5079 72.3623C63.8621 70.4525 62.9945 68.8351 62.9053 67.5101C62.816 66.1851 63.7748 64.9404 65.7816 63.7759C67.6293 62.7097 69.7416 62.1818 72.1185 62.1921C74.5243 62.2094 76.8965 62.7588 79.0649 63.8011L82.5837 61.771L85.1999 63.281L81.6326 65.3402C83.3328 66.6341 84.1092 67.9714 83.9617 69.352C83.8141 70.7326 82.7111 71.9974 80.6525 73.1464L80.5361 73.1735L75.8488 70.4525C77.0444 69.7596 77.6888 69.0744 77.7897 68.3893C77.8906 67.7042 77.4501 67.0831 76.4738 66.5203C75.5601 65.9558 74.5023 65.6686 73.4286 65.6935C72.4208 65.739 71.4398 66.0316 70.5717 66.5455C69.7254 67.0346 69.2985 67.5625 69.281 68.137C69.2635 68.7115 69.6575 69.5616 70.4571 70.6951C72.1043 72.557 72.9589 74.1666 73.021 75.5239C73.0832 76.8812 72.1172 78.135 70.1233 79.2853C68.1895 80.3934 65.9893 80.9512 63.7612 80.8982C61.3657 80.8587 59.0077 80.297 56.8517 79.2523L53.6163 81.1233L51 79.6094L54.2354 77.7443C52.3179 76.4206 51.2872 75.018 51.1436 73.5365C51 72.055 52.1218 70.6498 54.5091 69.3209L54.6547 69.2938L59.3302 71.9916C57.9263 72.8016 57.269 73.5779 57.3583 74.3206C57.4437 75.062 58.0376 75.7452 59.1361 76.3799C60.1028 76.9702 61.2081 77.2949 62.3405 77.3212C63.3788 77.3339 64.4013 77.0663 65.3003 76.5468Z" fill="#141414"/>
<path d="M73.5465 96.9529C73.4089 96.9524 73.2771 96.8973 73.1799 96.7998C73.0828 96.7023 73.0283 96.5703 73.0283 96.4327V90.8896C73.024 90.8188 73.0342 90.7478 73.0583 90.681C73.0824 90.6143 73.12 90.5532 73.1686 90.5015C73.2173 90.4498 73.2759 90.4086 73.3411 90.3804C73.4063 90.3522 73.4765 90.3377 73.5475 90.3377C73.6184 90.3377 73.6887 90.3522 73.7539 90.3804C73.819 90.4086 73.8777 90.4498 73.9263 90.5015C73.975 90.5532 74.0125 90.6143 74.0367 90.681C74.0608 90.7478 74.071 90.8188 74.0666 90.8896V96.4308C74.0666 96.4991 74.0532 96.5667 74.0271 96.6298C74.0009 96.6929 73.9626 96.7503 73.9143 96.7986C73.866 96.8469 73.8087 96.8852 73.7456 96.9113C73.6825 96.9375 73.6148 96.9509 73.5465 96.9509V96.9529ZM76.4752 96.5647C76.3373 96.5647 76.205 96.5099 76.1074 96.4123C76.0099 96.3148 75.9551 96.1825 75.9551 96.0445V90.5034C75.9632 90.3712 76.0214 90.247 76.1179 90.1563C76.2144 90.0655 76.3418 90.015 76.4743 90.015C76.6067 90.015 76.7342 90.0655 76.8307 90.1563C76.9271 90.247 76.9854 90.3712 76.9935 90.5034V96.0445C76.9925 96.1815 76.9374 96.3125 76.8404 96.4092C76.7434 96.5058 76.6122 96.5603 76.4752 96.5608V96.5647ZM79.404 95.998C79.2664 95.998 79.1344 95.9434 79.0369 95.8463C78.9394 95.7492 78.8844 95.6174 78.8839 95.4797V89.8513C78.8839 89.7133 78.9387 89.581 79.0362 89.4835C79.1338 89.3859 79.2661 89.3311 79.404 89.3311C79.542 89.3311 79.6743 89.3859 79.7718 89.4835C79.8694 89.581 79.9242 89.7133 79.9242 89.8513V95.4797C79.9226 95.6167 79.8672 95.7475 79.7698 95.8438C79.6724 95.9401 79.541 95.9941 79.404 95.9941V95.998Z" fill="#141414"/>
<path d="M105.45 64.2826C105.45 59.5256 102.291 54.7724 96.0002 51.1391C83.4079 43.8706 63.0056 43.8629 50.4366 51.1236C44.1463 54.7569 41.0059 59.5178 41.0156 64.2826V69.8238C41.0273 74.5808 44.1773 79.334 50.4638 82.9673C63.0542 90.2378 83.4584 90.2436 96.0294 82.9828C102.32 79.3515 105.458 74.5886 105.45 69.8238V64.2826Z" fill="white"/>
<path d="M73.2676 88.9429C64.5648 88.9429 56.3724 86.9807 50.2024 83.4173C43.9528 79.8092 40.4981 74.9823 40.4981 69.8313V64.2881C40.4864 59.1255 43.9237 54.2908 50.1791 50.6788C56.3316 47.1251 64.5065 45.1687 73.1919 45.1687C81.8772 45.1687 90.0871 47.1309 96.261 50.6944C102.511 54.3024 105.965 59.1293 105.965 64.2804V69.8235C105.965 74.9881 102.536 79.8228 96.2842 83.4328C90.1317 86.9865 81.9549 88.9429 73.2676 88.9429ZM73.188 46.2013C64.6812 46.2013 56.6907 48.1091 50.6934 51.5716C44.7757 54.9914 41.5209 59.5039 41.5326 64.2804V69.808C41.5442 74.5941 44.8068 79.1027 50.7206 82.5187C56.7372 85.9909 64.7433 87.9045 73.2676 87.9045C81.7919 87.9045 89.7649 85.9967 95.766 82.5342C101.682 79.1163 104.937 74.6038 104.929 69.8235V64.2823C104.917 59.5117 101.653 55.0031 95.7369 51.5891C89.7183 48.115 81.7103 46.2013 73.188 46.2013Z" fill="#141414"/>
<path d="M105.448 69.8237V64.2825C105.448 59.5255 102.288 54.7723 95.9975 51.139C93.4319 49.6891 90.7052 48.5452 87.873 47.7309V86.3967C90.7155 85.5845 93.4518 84.4386 96.0247 82.9827C102.317 79.3514 105.465 74.5885 105.448 69.8237Z" fill="#0962FF"/>
<path d="M87.8718 86.9166C87.734 86.9161 87.6019 86.8611 87.5045 86.7637C87.407 86.6663 87.3521 86.5343 87.3516 86.3965V47.7307C87.3512 47.6498 87.3698 47.57 87.4059 47.4977C87.4419 47.4253 87.4944 47.3624 87.5591 47.3139C87.6238 47.2655 87.6989 47.2328 87.7785 47.2185C87.858 47.2043 87.9398 47.2088 88.0173 47.2319C90.8894 48.0579 93.6546 49.2181 96.2563 50.6885C102.506 54.2966 105.961 59.1235 105.961 64.2746V69.8176C105.961 74.9823 102.531 79.817 96.2795 83.4269C93.6695 84.9028 90.8943 86.065 88.0115 86.8894C87.9663 86.9046 87.9193 86.9138 87.8718 86.9166ZM88.3899 48.4313V85.6958C90.9573 84.9167 93.4307 83.8564 95.7652 82.5342C101.681 79.1163 104.936 74.6038 104.928 69.8235V64.2823C104.916 59.5117 101.652 55.0031 95.7361 51.5891C93.4088 50.2697 90.9433 49.2107 88.3841 48.4313H88.3899Z" fill="#141414"/>
<path d="M96.0289 77.4395C108.602 70.1807 108.588 58.4016 95.9997 51.135C83.4113 43.8684 63.0051 43.8587 50.4361 51.1195C37.8671 58.3802 37.8748 70.1554 50.4633 77.422C63.0517 84.6886 83.454 84.7022 96.0289 77.4395Z" fill="#86B2FF"/>
<path d="M73.2676 83.4018C64.5647 83.4018 56.3723 81.4396 50.2023 77.8761C43.9411 74.2623 40.498 69.4276 40.498 64.261C40.498 59.0944 43.9372 54.2772 50.181 50.675C56.3335 47.1213 64.5084 45.1649 73.1938 45.1649C81.8791 45.1649 90.089 47.1271 96.2629 50.6905C102.524 54.3063 105.967 59.141 105.967 64.3076C105.967 69.4741 102.53 74.2894 96.2861 77.8936C90.1317 81.4454 81.9548 83.4018 73.2676 83.4018ZM73.188 46.2013C64.6812 46.2013 56.6907 48.1092 50.6934 51.5717C44.7854 54.9837 41.5306 59.4904 41.5306 64.261C41.5306 69.0316 44.7951 73.5558 50.7205 76.9775C56.7372 80.4497 64.7433 82.3634 73.2676 82.3634C81.7918 82.3634 89.7649 80.4555 95.766 76.993C101.674 73.581 104.929 69.0763 104.929 64.3056C104.929 59.535 101.662 55.0089 95.7369 51.5891C89.7182 48.115 81.7103 46.2013 73.188 46.2013Z" fill="#141414"/>
<path d="M55.072 73.8354C54.9362 73.7617 54.7867 73.6976 54.6547 73.62C44.4031 67.7004 44.3915 58.0737 54.6334 52.1618C54.7731 52.0803 54.9284 52.0124 55.072 51.9348V73.8354ZM76.6874 47.8822C75.4588 47.7871 74.2205 47.7328 72.9862 47.7386V78.0549C74.2205 78.0549 75.4588 78.0102 76.6874 77.919V47.8822ZM91.8009 52.1754C89.593 50.9308 87.2396 49.964 84.7944 49.2971V76.5138C87.248 75.849 89.6094 74.8815 91.8242 73.6336C102.068 67.7217 102.056 58.095 91.8009 52.1754Z" fill="white"/>
<path d="M70.8414 68.2361C71.74 67.7198 72.1999 67.1531 72.231 66.5417C72.262 65.9304 71.8622 65.1016 71.0509 64.0497C69.4051 62.1399 68.5375 60.5225 68.4483 59.1975C68.359 57.8726 69.3178 56.6285 71.3246 55.4653C73.1723 54.4004 75.284 53.8718 77.6596 53.8796C80.0658 53.8984 82.4383 54.4478 84.6079 55.4885L88.1266 53.4603L90.7429 54.9703L87.1756 57.0296C88.8758 58.3235 89.6522 59.6607 89.5047 61.0413C89.3572 62.4219 88.2573 63.6861 86.2052 64.8338L86.0887 64.8609L81.3977 62.1476C82.5932 61.4547 83.2376 60.7715 83.3385 60.0864C83.4395 59.4013 82.9989 58.7802 82.0207 58.2174C81.1076 57.653 80.0506 57.3651 78.9774 57.3886C77.9699 57.4354 76.9891 57.7279 76.1205 58.2407C75.2743 58.7317 74.8453 59.2577 74.8298 59.8322C74.8143 60.4067 75.2063 61.2587 76.0079 62.3922C77.655 64.2528 78.509 65.8624 78.5698 67.221C78.6306 68.5796 77.6648 69.8334 75.6721 70.9824C73.7385 72.0908 71.5381 72.648 69.31 72.5933C66.9147 72.5545 64.5567 71.9935 62.4006 70.9494L59.1651 72.8185L56.5488 71.3065L59.7842 69.4394C57.8667 68.1158 56.8361 66.7132 56.6924 65.2316C56.5488 63.7501 57.6707 62.3456 60.0579 61.018L60.2035 60.9889L64.879 63.6867C63.4738 64.4954 62.8165 65.2718 62.9071 66.0158C62.9977 66.7598 63.5903 67.4462 64.6849 68.075C65.6515 68.667 66.758 68.9918 67.8912 69.0163C68.9268 69.0263 69.946 68.7567 70.8414 68.2361Z" fill="#141414"/>
<path d="M76.1559 88.8694C76.0875 88.8697 76.0198 88.8564 75.9565 88.8303C75.8933 88.8043 75.8359 88.766 75.7875 88.7176C75.7392 88.6693 75.7008 88.6118 75.6748 88.5486C75.6487 88.4854 75.6355 88.4176 75.6357 88.3492V82.8081C75.6314 82.7373 75.6416 82.6663 75.6657 82.5995C75.6899 82.5328 75.7274 82.4716 75.776 82.4199C75.8247 82.3682 75.8834 82.3271 75.9485 82.2989C76.0137 82.2707 76.0839 82.2562 76.1549 82.2562C76.2259 82.2562 76.2961 82.2707 76.3613 82.2989C76.4264 82.3271 76.4851 82.3682 76.5338 82.4199C76.5824 82.4716 76.6199 82.5328 76.6441 82.5995C76.6682 82.6663 76.6784 82.7373 76.6741 82.8081V88.3492C76.6741 88.4869 76.6196 88.6189 76.5224 88.7164C76.4253 88.8139 76.2935 88.8689 76.1559 88.8694ZM82.0114 88.2541C81.8738 88.2536 81.742 88.1986 81.6449 88.1011C81.5478 88.0036 81.4932 87.8716 81.4932 87.734V82.1928C81.4889 82.122 81.4991 82.051 81.5232 81.9843C81.5474 81.9175 81.5849 81.8564 81.6335 81.8047C81.6822 81.753 81.7409 81.7118 81.8061 81.6836C81.8712 81.6555 81.9415 81.6409 82.0124 81.6409C82.0834 81.6409 82.1536 81.6555 82.2188 81.6836C82.2839 81.7118 82.3426 81.753 82.3913 81.8047C82.4399 81.8564 82.4774 81.9175 82.5016 81.9843C82.5257 82.051 82.536 82.122 82.5316 82.1928V87.7262C82.5321 87.7949 82.5191 87.8629 82.4931 87.9265C82.4672 87.99 82.429 88.0478 82.3807 88.0965C82.3323 88.1453 82.2748 88.1839 82.2114 88.2103C82.148 88.2367 82.0801 88.2503 82.0114 88.2503V88.2541ZM84.9422 87.6874C84.8739 87.6874 84.8064 87.674 84.7434 87.6478C84.6804 87.6216 84.6232 87.5833 84.575 87.5349C84.5269 87.4866 84.4887 87.4293 84.4628 87.3662C84.4369 87.3031 84.4237 87.2355 84.424 87.1673V81.5485C84.4196 81.4776 84.4298 81.4066 84.454 81.3399C84.4781 81.2731 84.5156 81.212 84.5643 81.1603C84.6129 81.1086 84.6716 81.0674 84.7367 81.0393C84.8019 81.0111 84.8721 80.9966 84.9431 80.9966C85.0141 80.9966 85.0844 81.0111 85.1495 81.0393C85.2147 81.0674 85.2734 81.1086 85.322 81.1603C85.3706 81.212 85.4082 81.2731 85.4323 81.3399C85.4564 81.4066 85.4666 81.4776 85.4623 81.5485V87.1673C85.4613 87.3045 85.406 87.4358 85.3086 87.5326C85.2111 87.6293 85.0794 87.6836 84.9422 87.6835V87.6874Z" fill="#141414"/>
<path d="M99.9054 55.9715C99.8938 51.2145 96.7457 46.4613 90.4514 42.828C77.863 35.5575 57.4685 35.5498 44.8917 42.8105C38.6014 46.4438 35.461 51.2067 35.4727 55.9715V61.5127C35.4727 66.2678 38.6324 71.0229 44.9208 74.6562C57.5093 81.9247 77.9155 81.9305 90.4825 74.6717C96.7748 71.0384 99.9132 66.2755 99.9054 61.5127V55.9715Z" fill="white"/>
<path d="M67.7266 80.6323C59.0218 80.6323 50.8411 78.67 44.6594 75.1066C38.4118 71.4986 34.9648 66.6697 34.9551 61.5206V55.9795C34.9435 50.8148 38.3808 45.9821 44.6361 42.3682C50.7887 38.8164 58.9635 36.86 67.6489 36.86C76.3342 36.86 84.5344 38.8203 90.7141 42.3857C96.9656 45.9918 100.418 50.8187 100.428 55.9717V61.5148C100.428 66.6794 96.9986 71.5141 90.7451 75.1241C84.5887 78.6759 76.4138 80.6323 67.7266 80.6323ZM67.647 37.8906C59.1402 37.8906 51.1497 39.7985 45.1524 43.261C39.2347 46.6789 35.9818 51.1933 35.9915 55.9698V61.4954C36.0032 66.2815 39.2657 70.7902 45.1795 74.2061C51.1962 77.6802 59.2023 79.592 67.7266 79.592C76.2508 79.592 84.2239 77.686 90.2231 74.2216C96.1407 70.8057 99.3956 66.2932 99.3858 61.5128V55.9717C99.3858 51.1991 96.1116 46.6924 90.194 43.2765C84.1773 39.8024 76.1693 37.8906 67.647 37.8906Z" fill="#141414"/>
<path d="M99.9065 61.5128V55.9717C99.8949 51.2146 96.7468 46.4615 90.4526 42.8282C87.8888 41.3755 85.1625 40.2308 82.3301 39.4181V78.0858C85.1724 77.2732 87.9086 76.1273 90.4817 74.6719C96.7759 71.0347 99.9143 66.2757 99.9065 61.5128Z" fill="#0962FF"/>
<path d="M82.3307 78.604C82.1933 78.604 82.0615 78.5494 81.9643 78.4522C81.8671 78.355 81.8125 78.2232 81.8125 78.0858V39.418C81.8126 39.3374 81.8314 39.258 81.8674 39.1859C81.9035 39.1138 81.9558 39.0511 82.0202 39.0027C82.0853 38.9544 82.1607 38.9217 82.2404 38.9073C82.3202 38.8928 82.4023 38.8969 82.4802 38.9192C85.3514 39.745 88.1154 40.9059 90.7153 42.3778C96.9668 45.9839 100.42 50.8109 100.429 55.9638V61.507C100.429 66.6716 96.9997 71.5063 90.7463 75.1163C88.1369 76.5919 85.3623 77.7542 82.4802 78.5787C82.4318 78.5943 82.3815 78.6028 82.3307 78.604ZM82.8509 40.1187V77.3832C85.4187 76.6046 87.8923 75.5436 90.2262 74.2196C96.1438 70.8037 99.3987 66.2912 99.3889 61.5108V55.9697C99.3889 51.1971 96.1147 46.6904 90.1971 43.2745C87.8712 41.957 85.4077 40.8987 82.8509 40.1187Z" fill="#141414"/>
<path d="M90.4827 69.1307C103.058 61.8719 103.044 50.0947 90.4516 42.8282C77.8593 35.5616 57.4686 35.5499 44.8919 42.8107C32.3151 50.0715 32.3306 61.8466 44.921 69.1152C57.5114 76.3837 77.904 76.3895 90.4827 69.1307Z" fill="#86B2FF"/>
<path d="M67.7265 75.0911C59.0218 75.0911 50.841 73.1289 44.6594 69.5655C38.4001 65.9516 34.9551 61.115 34.9551 55.9504C34.9551 50.7858 38.3943 45.9666 44.6381 42.3644C50.7906 38.8126 58.9655 36.8562 67.6508 36.8562C76.3362 36.8562 84.5363 38.8165 90.716 42.3818C96.9792 45.9957 100.42 50.8323 100.42 55.9989C100.42 61.1655 96.983 65.9807 90.7393 69.5849C84.5887 73.1348 76.4138 75.0911 67.7265 75.0911ZM67.6469 37.8907C59.1401 37.8907 51.1496 39.7985 45.1524 43.261C39.2444 46.6731 35.9896 51.1778 35.9896 55.9504C35.9896 60.723 39.2541 65.2452 45.1795 68.665C51.1962 72.1391 59.2023 74.0528 67.7265 74.0528C76.2508 74.0528 84.2238 72.1449 90.223 68.6805C96.131 65.2704 99.3858 60.7657 99.3858 55.995C99.3858 51.2244 96.1213 46.6983 90.1939 43.2766C84.1773 39.8024 76.1692 37.8907 67.6469 37.8907Z" fill="#141414"/>
<path d="M49.5283 65.5247C49.3925 65.451 49.243 65.385 49.111 65.3073C38.8594 59.3877 38.8497 49.761 49.0897 43.8492C49.2314 43.7696 49.3847 43.7017 49.5283 43.6221V65.5247ZM71.1437 39.5696C69.9151 39.4745 68.6788 39.4201 67.4425 39.426V69.7441C68.6788 69.7441 69.9151 69.6995 71.1437 69.6083V39.5696ZM86.2572 43.8628C84.0513 42.621 81.7015 41.6543 79.2604 40.9845V68.2031C81.713 67.5371 84.0736 66.5697 86.2882 65.3228C96.534 59.411 96.5127 49.7824 86.2572 43.8628Z" fill="white"/>
<path d="M65.3022 59.9233C66.2002 59.4057 66.6628 58.8416 66.6899 58.2308C66.7171 57.6214 66.3212 56.7907 65.5099 55.7388C63.864 53.8289 62.9965 52.2116 62.9072 50.8866C62.8199 49.5552 63.7787 48.315 65.7836 47.1524C67.6313 46.0862 69.7436 45.5583 72.1205 45.5687C74.5257 45.5807 76.8986 46.1249 79.0687 47.1621L82.5875 45.132L85.2038 46.642L81.6346 48.7148C83.3348 50.0087 84.1111 51.346 83.9636 52.7266C83.8161 54.1072 82.713 55.3719 80.6544 56.5209L80.538 56.5481L75.8488 53.8426C77.0444 53.1497 77.6888 52.4645 77.7897 51.7794C77.8906 51.0943 77.45 50.4732 76.4738 49.9104C75.5601 49.3459 74.5023 49.0587 73.4286 49.0836C72.4208 49.1291 71.4398 49.4217 70.5717 49.9356C69.7254 50.4247 69.2985 50.9526 69.281 51.5271C69.2635 52.1016 69.6575 52.9517 70.4571 54.0852C72.1043 55.9458 72.9589 57.5561 73.021 58.916C73.0832 60.2759 72.1172 61.529 70.1233 62.6754C68.1898 63.7844 65.9894 64.3422 63.7612 64.2882C61.3657 64.2488 59.0077 63.6871 56.8517 62.6424L53.6163 64.5134L51 63.0015L54.2354 61.1344C52.3179 59.8107 51.2873 58.4081 51.1437 56.9266C51 55.4451 52.1218 54.0399 54.5091 52.711L54.6547 52.6838L59.3302 55.3816C57.9263 56.1916 57.269 56.968 57.3583 57.7107C57.4475 58.4534 58.0402 59.1398 59.1361 59.7699C60.1028 60.3603 61.2081 60.685 62.3405 60.7113C63.3808 60.7212 64.4044 60.4488 65.3022 59.9233Z" fill="#141414"/>
<path d="M70.6129 80.5567C70.4753 80.5562 70.3435 80.5011 70.2464 80.4036C70.1493 80.3061 70.0947 80.1741 70.0947 80.0365V74.4973C70.0904 74.4265 70.1006 74.3555 70.1247 74.2887C70.1488 74.222 70.1864 74.1609 70.235 74.1092C70.2837 74.0575 70.3423 74.0162 70.4075 73.9881C70.4727 73.9599 70.5429 73.9454 70.6139 73.9454C70.6849 73.9454 70.7551 73.9599 70.8203 73.9881C70.8854 74.0162 70.9441 74.0575 70.9927 74.1092C71.0414 74.1609 71.0789 74.222 71.1031 74.2887C71.1272 74.3555 71.1374 74.4265 71.1331 74.4973V80.0365C71.1331 80.1745 71.0783 80.3068 70.9807 80.4043C70.8832 80.5019 70.7509 80.5567 70.6129 80.5567ZM76.4724 79.9317C76.3344 79.9317 76.2021 79.8769 76.1046 79.7794C76.007 79.6818 75.9522 79.5495 75.9522 79.4116V73.8704C75.9603 73.7382 76.0186 73.614 76.115 73.5233C76.2115 73.4325 76.339 73.382 76.4714 73.382C76.6039 73.382 76.7313 73.4325 76.8278 73.5233C76.9243 73.614 76.9825 73.7382 76.9906 73.8704V79.4116C76.9914 79.4802 76.9786 79.5483 76.9529 79.612C76.9272 79.6756 76.8892 79.7336 76.841 79.7824C76.7928 79.8313 76.7354 79.8702 76.6722 79.8968C76.6089 79.9235 76.541 79.9373 76.4724 79.9375V79.9317ZM79.4011 79.365C79.3329 79.3652 79.2653 79.352 79.2022 79.3261C79.1391 79.3002 79.0818 79.262 79.0334 79.2139C78.9851 79.1657 78.9468 79.1085 78.9206 79.0455C78.8945 78.9825 78.881 78.915 78.881 78.8468V73.2183C78.881 73.0803 78.9358 72.948 79.0333 72.8505C79.1309 72.7529 79.2632 72.6981 79.4011 72.6981C79.5391 72.6981 79.6714 72.7529 79.7689 72.8505C79.8665 72.948 79.9213 73.0803 79.9213 73.2183V78.8468C79.9234 78.9163 79.9114 78.9855 79.8862 79.0503C79.861 79.1151 79.823 79.1742 79.7744 79.224C79.7259 79.2738 79.6678 79.3133 79.6037 79.3402C79.5396 79.3671 79.4707 79.3808 79.4011 79.3805V79.365Z" fill="#141414"/>
<path d="M105.45 47.6588C105.45 42.9037 102.291 38.1486 96.0002 34.5153C83.4079 27.2468 63.0056 27.239 50.4366 34.4998C44.1463 38.1331 41.0059 42.894 41.0156 47.6588V53.2C41.0273 57.957 44.1773 62.7102 50.4638 66.3435C63.0542 73.6139 83.4584 73.6198 96.0294 66.361C102.32 62.7277 105.458 57.9648 105.45 53.2V47.6588Z" fill="white"/>
<path d="M73.2676 72.3213C64.5648 72.3213 56.3724 70.3572 50.2024 66.7938C43.9528 63.1857 40.4981 58.3588 40.4981 53.2077V47.6646C40.4864 42.5019 43.9237 37.6673 50.1791 34.0553C56.3316 30.5016 64.5065 28.5452 73.1919 28.5452C81.8772 28.5452 90.0871 30.5074 96.261 34.0708C102.511 37.6789 105.965 42.5058 105.965 47.6569V53.2C105.965 58.3646 102.536 63.1993 96.2842 66.8093C90.1317 70.363 81.9549 72.3213 73.2676 72.3213ZM73.188 29.5778C64.6812 29.5778 56.6907 31.4856 50.6934 34.9481C44.7757 38.3679 41.5209 42.8804 41.5326 47.6569V53.1786C41.5442 57.9648 44.8068 62.4734 50.7206 65.8893C56.7372 69.3634 64.7433 71.2752 73.2676 71.2752C81.7919 71.2752 89.7649 69.3673 95.766 65.9048C101.682 62.487 104.937 57.9745 104.929 53.1961V47.653C104.917 42.8824 101.653 38.3737 95.7369 34.9598C89.7183 31.4915 81.7103 29.5778 73.188 29.5778Z" fill="#141414"/>
<path d="M105.448 53.2001V47.659C105.448 42.9039 102.288 38.1487 95.9975 34.5154C93.4319 33.0655 90.7052 31.9217 87.873 31.1073V69.7731C90.7151 68.9608 93.4513 67.8155 96.0247 66.3611C102.317 62.7278 105.465 57.9649 105.448 53.2001Z" fill="#0962FF"/>
<path d="M87.8718 70.2933C87.7594 70.2927 87.65 70.2567 87.5593 70.1904C87.4948 70.1416 87.4425 70.0785 87.4065 70.0061C87.3705 69.9337 87.3516 69.854 87.3516 69.7731V31.1073C87.3512 31.0264 87.3698 30.9467 87.4059 30.8743C87.4419 30.8019 87.4944 30.739 87.5591 30.6905C87.6238 30.6421 87.6989 30.6094 87.7785 30.5951C87.858 30.5809 87.9398 30.5855 88.0173 30.6085C90.8894 31.4345 93.6546 32.5947 96.2563 34.0651C102.506 37.6732 105.961 42.5001 105.961 47.6512V53.1943C105.961 58.3589 102.531 63.1936 96.2795 66.8036C93.6703 68.281 90.8949 69.4433 88.0115 70.2661C87.9663 70.2813 87.9193 70.2904 87.8718 70.2933ZM88.3841 31.8079V69.0724C90.9515 68.2927 93.425 67.2317 95.7594 65.9088C101.675 62.491 104.93 57.9785 104.922 53.2001V47.657C104.911 42.8864 101.646 38.3777 95.7303 34.9638C93.4048 33.6455 90.9412 32.5871 88.3841 31.8079Z" fill="#141414"/>
<path d="M96.0289 60.8198C108.602 53.561 108.588 41.7819 95.9997 34.5154C83.4113 27.2488 63.0051 27.2391 50.4361 34.4998C37.8671 41.7606 37.8748 53.5358 50.4633 60.8024C63.0517 68.069 83.454 68.0787 96.0289 60.8198Z" fill="#86B2FF"/>
<path d="M73.2676 66.7783C64.5647 66.7783 56.3723 64.8161 50.2023 61.2527C43.9411 57.6388 40.498 52.8041 40.498 47.6376C40.498 42.471 43.9372 37.6538 50.181 34.0515C56.3335 30.4978 64.5084 28.5414 73.1938 28.5414C81.8791 28.5414 90.089 30.5037 96.2629 34.0671C102.524 37.6829 105.967 42.5176 105.967 47.6841C105.967 52.8507 102.53 57.666 96.2861 61.2702C90.1317 64.8239 81.9548 66.7783 73.2676 66.7783ZM73.188 29.5779C64.6812 29.5779 56.6907 31.4857 50.6934 34.9482C44.7854 38.3603 41.5306 42.8669 41.5306 47.6376C41.5306 52.4082 44.7951 56.9323 50.7205 60.3541C56.7372 63.8282 64.7433 65.74 73.2676 65.74C81.7918 65.74 89.7649 63.8321 95.766 60.3696C101.674 56.9595 104.929 52.4528 104.929 47.6822C104.929 42.9116 101.662 38.3874 95.7369 34.9657C89.7182 31.4915 81.7103 29.5779 73.188 29.5779Z" fill="#141414"/>
<path d="M73.2282 71.7152C73.1599 71.7152 73.0924 71.7018 73.0294 71.6756C72.9664 71.6494 72.9092 71.6111 72.8611 71.5628C72.8129 71.5144 72.7748 71.4571 72.7489 71.394C72.7229 71.3309 72.7097 71.2633 72.71 71.1951V66.8014C72.7056 66.7305 72.7158 66.6595 72.74 66.5928C72.7641 66.526 72.8016 66.4649 72.8503 66.4132C72.8989 66.3615 72.9576 66.3203 73.0228 66.2922C73.0879 66.264 73.1582 66.2495 73.2291 66.2495C73.3001 66.2495 73.3703 66.264 73.4355 66.2922C73.5007 66.3203 73.5593 66.3615 73.608 66.4132C73.6566 66.4649 73.6942 66.526 73.7183 66.5928C73.7424 66.6595 73.7527 66.7305 73.7483 66.8014V71.1951C73.7483 71.2634 73.7349 71.331 73.7087 71.3941C73.6826 71.4572 73.6442 71.5146 73.5959 71.5629C73.5476 71.6112 73.4903 71.6495 73.4272 71.6756C73.3641 71.7018 73.2965 71.7152 73.2282 71.7152ZM81.2758 71.4183C81.1378 71.4183 81.0055 71.3635 80.908 71.2659C80.8104 71.1684 80.7556 71.0361 80.7556 70.8981V66.454C80.7556 66.316 80.8104 66.1837 80.908 66.0862C81.0055 65.9886 81.1378 65.9338 81.2758 65.9338C81.4137 65.9338 81.546 65.9886 81.6436 66.0862C81.7411 66.1837 81.7959 66.316 81.7959 66.454V70.8981C81.7949 71.0354 81.7396 71.1667 81.6422 71.2634C81.5448 71.3601 81.4131 71.4144 81.2758 71.4144V71.4183ZM84.9432 70.4634C84.8752 70.4634 84.8078 70.45 84.7449 70.4239C84.682 70.3979 84.6249 70.3597 84.5768 70.3116C84.5287 70.2635 84.4905 70.2063 84.4644 70.1435C84.4384 70.0806 84.425 70.0132 84.425 69.9452V65.4117C84.4207 65.3409 84.4309 65.2699 84.455 65.2031C84.4791 65.1364 84.5167 65.0753 84.5653 65.0236C84.614 64.9719 84.6726 64.9307 84.7378 64.9025C84.803 64.8743 84.8732 64.8598 84.9442 64.8598C85.0151 64.8598 85.0854 64.8743 85.1506 64.9025C85.2157 64.9307 85.2744 64.9719 85.323 65.0236C85.3717 65.0753 85.4092 65.1364 85.4333 65.2031C85.4575 65.2699 85.4677 65.3409 85.4633 65.4117V69.9452C85.4618 70.0821 85.4063 70.2129 85.309 70.3092C85.2116 70.4055 85.0802 70.4595 84.9432 70.4595V70.4634Z" fill="#141414"/>
<path d="M47.3487 53.6773C47.2128 53.6016 47.0633 53.5376 46.9313 53.4599C36.6797 47.5403 36.67 37.9136 46.91 32.0018C47.0517 31.9222 47.205 31.8543 47.3487 31.7747V53.6773ZM68.964 27.7222C67.7354 27.6271 66.4991 27.5728 65.2628 27.5786V57.8968C66.4991 57.8968 67.7354 57.8521 68.964 57.759V27.7222ZM84.0775 32.0154C81.8692 30.773 79.5167 29.8064 77.0729 29.1371V56.3557C79.5259 55.69 81.8867 54.7218 84.1008 53.4735C94.3543 47.5617 94.333 37.935 84.0775 32.0154Z" fill="white"/>
<path d="M63.1206 48.0757C64.0186 47.5581 64.4811 46.994 64.5083 46.3833C64.5355 45.7738 64.1395 44.9431 63.3282 43.8912C61.6824 41.9814 60.8148 40.364 60.7256 39.039C60.6363 37.7141 61.5951 36.4693 63.6019 35.3048C65.4496 34.2386 67.5619 33.7107 69.9388 33.7211C72.3446 33.7383 74.7168 34.2878 76.8852 35.3301L80.404 33.2999L83.0203 34.8099L79.4529 36.8692C81.1531 38.1631 81.9295 39.5003 81.782 40.8809C81.6345 42.2615 80.5314 43.5263 78.4728 44.6753L78.3564 44.7025L73.6692 41.9814C74.8647 41.2885 75.5091 40.6034 75.61 39.9183C75.7109 39.2331 75.2704 38.6121 74.2941 38.0492C73.3804 37.4847 72.3226 37.1975 71.2489 37.2224C70.2412 37.268 69.2601 37.5606 68.392 38.0744C67.5458 38.5635 67.1188 39.0914 67.1013 39.6659C67.0838 40.2404 67.4778 41.0905 68.2774 42.224C69.9246 44.0859 70.7793 45.6955 70.8414 47.0529C70.9035 48.4102 69.9375 49.664 67.9436 50.8142C66.0098 51.9224 63.8096 52.4801 61.5815 52.4271C59.186 52.3876 56.8281 51.8259 54.672 50.7812L51.4366 52.6522L48.8203 51.1384L52.0558 49.2732C50.1382 47.9495 49.1076 46.5469 48.9639 45.0654C48.8203 43.5839 49.9421 42.1787 52.3294 40.8499L52.475 40.8227L57.1505 43.5205C55.7466 44.3305 55.0893 45.1068 55.1786 45.8495C55.264 46.5909 55.8579 47.2741 56.9564 47.9088C57.9231 48.4991 59.0284 48.8238 60.1608 48.8501C61.1991 48.8628 62.2216 48.5953 63.1206 48.0757Z" fill="#141414"/>
<path d="M103.271 35.8116C103.271 31.0546 100.111 26.3014 93.8205 22.6681C81.2282 15.3996 60.8259 15.3918 48.2569 22.6526C41.9666 26.2859 38.8263 31.0468 38.836 35.8116V41.3528C38.8476 46.1098 41.9977 50.863 48.2841 54.4963C60.8745 61.7667 81.2787 61.7726 93.8497 54.5118C100.14 50.8805 103.278 46.1176 103.271 41.3528V35.8116Z" fill="white"/>
<path d="M71.0879 60.4721C62.3851 60.4721 54.1927 58.5099 48.0227 54.9464C41.7731 51.3384 38.3184 46.5115 38.3184 41.3604V35.8173C38.3067 30.6546 41.744 25.82 47.9994 22.208C54.1519 18.6543 62.3268 16.6979 71.0122 16.6979C79.6975 16.6979 87.9074 18.6601 94.0813 22.2235C100.331 25.8316 103.786 30.6585 103.786 35.8096V41.3527C103.786 46.5173 100.356 51.352 94.1045 54.962C87.952 58.5157 79.7752 60.4721 71.0879 60.4721ZM71.0083 17.7304C62.5015 17.7304 54.511 19.6383 48.5137 23.1008C42.5961 26.5206 39.3412 31.0331 39.3529 35.8096V41.3371C39.3645 46.1233 42.6271 50.6319 48.5409 54.0478C54.5576 57.52 62.5636 59.4337 71.0879 59.4337C79.6122 59.4337 87.5852 57.5258 93.5863 54.0634C99.5021 50.6455 102.757 46.133 102.749 41.3527V35.8115C102.738 31.0409 99.473 26.5323 93.5572 23.1183C87.5386 19.6441 79.5306 17.7304 71.0083 17.7304Z" fill="#141414"/>
<path d="M103.268 41.3524V35.8112C103.268 31.0542 100.108 26.301 93.8178 22.6677C91.2523 21.2178 88.5255 20.074 85.6934 19.2596V57.9254C88.5358 57.1133 91.2721 55.9673 93.845 54.5114C100.137 50.8801 103.285 46.1172 103.268 41.3524Z" fill="#0962FF"/>
<path d="M85.6921 58.4457C85.5543 58.4452 85.4222 58.3903 85.3248 58.2928C85.2274 58.1954 85.1724 58.0634 85.1719 57.9256V19.2598C85.1716 19.1789 85.1902 19.0992 85.2262 19.0268C85.2622 18.9544 85.3147 18.8915 85.3794 18.843C85.4441 18.7946 85.5192 18.7619 85.5988 18.7476C85.6783 18.7334 85.7601 18.738 85.8376 18.761C88.7097 19.587 91.4749 20.7472 94.0766 22.2176C100.326 25.8257 103.781 30.6526 103.781 35.8037V41.3468C103.781 46.5114 100.351 51.3461 94.0998 54.9561C91.4898 56.4319 88.7146 57.5941 85.8318 58.4186C85.7866 58.4337 85.7396 58.4429 85.6921 58.4457ZM86.2103 19.9604V57.2249C88.7776 56.4458 91.251 55.3855 93.5855 54.0633C99.5013 50.6454 102.756 46.1329 102.748 41.3526V35.8114C102.737 31.0408 99.4721 26.5322 93.5564 23.1182C91.2291 21.7988 88.7636 20.7399 86.2044 19.9604H86.2103Z" fill="#141414"/>
<path d="M93.8492 48.9686C106.422 41.7098 106.408 29.9307 93.82 22.6641C81.2316 15.3975 60.8254 15.3878 48.2564 22.6486C35.6874 29.9093 35.6952 41.6845 48.2836 48.9511C60.872 56.2177 81.2743 56.2313 93.8492 48.9686Z" fill="#86B2FF"/>
<path d="M71.0879 54.9309C62.385 54.9309 54.1927 52.9687 48.0227 49.4053C41.7614 45.7914 38.3184 40.9567 38.3184 35.7901C38.3184 30.6235 41.7575 25.8063 48.0013 22.2041C54.1538 18.6504 62.3287 16.694 71.0141 16.694C79.6994 16.694 87.9093 18.6562 94.0832 22.2196C100.344 25.8355 103.787 30.6701 103.787 35.8367C103.787 41.0033 100.35 45.8185 94.1064 49.4227C87.952 52.9745 79.7752 54.9309 71.0879 54.9309ZM71.0083 17.7304C62.5015 17.7304 54.511 19.6383 48.5137 23.1008C42.6057 26.5128 39.3509 31.0195 39.3509 35.7901C39.3509 40.5607 42.6154 45.0849 48.5409 48.5066C54.5575 51.9788 62.5636 53.8925 71.0879 53.8925C79.6121 53.8925 87.5852 51.9846 93.5863 48.5222C99.4943 45.1101 102.749 40.6054 102.749 35.8347C102.749 31.0641 99.4826 26.538 93.5572 23.1183C87.5386 19.6441 79.5306 17.7304 71.0083 17.7304Z" fill="#141414"/>
<path d="M52.8924 45.3646C52.7565 45.2908 52.607 45.2267 52.475 45.1491C42.2234 39.2295 42.2118 29.6028 52.4537 23.691C52.5935 23.6094 52.7487 23.5415 52.8924 23.4639V45.3646ZM74.5077 19.4114C73.2791 19.3162 72.0409 19.2619 70.8065 19.2677V49.584C72.0409 49.584 73.2791 49.5393 74.5077 49.4481V19.4114ZM89.6212 23.7045C87.4133 22.4599 85.0599 21.4931 82.6147 20.8262V48.0429C85.0683 47.3782 87.4297 46.4107 89.6445 45.1627C99.8883 39.2508 99.8767 29.6242 89.6212 23.7045Z" fill="white"/>
<path d="M68.6617 39.765C69.5603 39.2487 70.0203 38.682 70.0513 38.0706C70.0824 37.4592 69.6825 36.6305 68.8712 35.5785C67.2254 33.6687 66.3579 32.0514 66.2686 30.7264C66.1793 29.4014 67.1381 28.1573 69.1449 26.9941C70.9926 25.9292 73.1043 25.4007 75.4799 25.4084C77.8861 25.4273 80.2586 25.9767 82.4282 27.0174L85.9469 24.9892L88.5632 26.4992L84.9959 28.5584C86.6961 29.8523 87.4725 31.1896 87.325 32.5702C87.1775 33.9508 86.0776 35.215 84.0255 36.3627L83.909 36.3898L79.218 33.6765C80.4136 32.9836 81.0579 32.3004 81.1588 31.6153C81.2598 30.9302 80.8192 30.3091 79.841 29.7462C78.9279 29.1818 77.8709 28.894 76.7977 28.9175C75.7902 28.9643 74.8094 29.2568 73.9408 29.7695C73.0946 30.2606 72.6656 30.7866 72.6501 31.3611C72.6346 31.9355 73.0266 32.7876 73.8282 33.921C75.4754 35.7817 76.3293 37.3913 76.3901 38.7499C76.451 40.1085 75.4851 41.3623 73.4924 42.5113C71.5588 43.6197 69.3584 44.1768 67.1303 44.1222C64.735 44.0834 62.377 43.5224 60.2209 42.4783L56.9854 44.3473L54.3691 42.8354L57.6045 40.9683C55.687 39.6446 54.6564 38.242 54.5128 36.7605C54.3691 35.279 55.491 33.8745 57.8782 32.5469L58.0238 32.5178L62.6993 35.2156C61.2941 36.0243 60.6368 36.8006 60.7274 37.5446C60.818 38.2886 61.4106 38.975 62.5052 39.6039C63.4719 40.1958 64.5783 40.5207 65.7115 40.5452C66.7472 40.5551 67.7664 40.2856 68.6617 39.765Z" fill="#141414"/>
<path d="M73.9801 60.3982C73.9117 60.3984 73.844 60.3851 73.7807 60.3591C73.7175 60.333 73.6601 60.2947 73.6117 60.2464C73.5634 60.198 73.525 60.1406 73.499 60.0774C73.473 60.0141 73.4597 59.9464 73.46 59.878V54.3369C73.4556 54.266 73.4658 54.195 73.49 54.1283C73.5141 54.0615 73.5516 54.0004 73.6003 53.9487C73.6489 53.897 73.7076 53.8558 73.7727 53.8276C73.8379 53.7995 73.9082 53.7849 73.9791 53.7849C74.0501 53.7849 74.1203 53.7995 74.1855 53.8276C74.2507 53.8558 74.3093 53.897 74.358 53.9487C74.4066 54.0004 74.4442 54.0615 74.4683 54.1283C74.4924 54.195 74.5026 54.266 74.4983 54.3369V59.878C74.4983 60.0156 74.4438 60.1476 74.3467 60.2451C74.2495 60.3426 74.1177 60.3976 73.9801 60.3982ZM79.8357 59.7829C79.698 59.7824 79.5663 59.7274 79.4691 59.6299C79.372 59.5324 79.3175 59.4004 79.3175 59.2628V53.7216C79.3131 53.6507 79.3233 53.5798 79.3475 53.513C79.3716 53.4463 79.4091 53.3851 79.4578 53.3334C79.5064 53.2817 79.5651 53.2405 79.6303 53.2124C79.6954 53.1842 79.7657 53.1697 79.8367 53.1697C79.9076 53.1697 79.9779 53.1842 80.043 53.2124C80.1082 53.2405 80.1669 53.2817 80.2155 53.3334C80.2641 53.3851 80.3017 53.4463 80.3258 53.513C80.3499 53.5798 80.3602 53.6507 80.3558 53.7216V59.255C80.3564 59.3236 80.3433 59.3917 80.3174 59.4552C80.2915 59.5188 80.2532 59.5766 80.2049 59.6253C80.1565 59.674 80.099 59.7127 80.0356 59.7391C79.9723 59.7654 79.9043 59.779 79.8357 59.779V59.7829ZM82.7664 59.2162C82.6982 59.2162 82.6306 59.2027 82.5676 59.1765C82.5046 59.1504 82.4474 59.112 82.3992 59.0637C82.3511 59.0154 82.313 58.958 82.287 58.8949C82.2611 58.8318 82.2479 58.7642 82.2482 58.696V53.0772C82.2438 53.0064 82.254 52.9354 82.2782 52.8686C82.3023 52.8019 82.3398 52.7408 82.3885 52.6891C82.4371 52.6374 82.4958 52.5962 82.561 52.568C82.6261 52.5398 82.6963 52.5253 82.7673 52.5253C82.8383 52.5253 82.9086 52.5398 82.9737 52.568C83.0389 52.5962 83.0976 52.6374 83.1462 52.6891C83.1948 52.7408 83.2324 52.8019 83.2565 52.8686C83.2807 52.9354 83.2908 53.0064 83.2865 53.0772V58.696C83.2855 58.8333 83.2302 58.9646 83.1328 59.0613C83.0354 59.158 82.9037 59.2123 82.7664 59.2123V59.2162Z" fill="#141414"/>
<path d="M97.7277 27.5006C97.716 22.7435 94.5679 17.9903 88.2737 14.3571C75.6853 7.08659 55.2907 7.07883 42.714 14.3396C36.4236 17.9729 33.2833 22.7358 33.295 27.5006V33.0417C33.295 37.7968 36.4547 42.5519 42.7431 46.1852C55.3315 53.4537 75.7377 53.4596 88.3048 46.2007C94.5971 42.5675 97.7354 37.8046 97.7277 33.0417V27.5006Z" fill="white"/>
<path d="M65.5469 52.1614C56.8421 52.1614 48.6614 50.1992 42.4797 46.6357C36.2321 43.0277 32.7851 38.1988 32.7754 33.0497V27.5086C32.7638 22.344 36.2011 17.5112 42.4565 13.8973C48.609 10.3455 56.7839 8.38916 65.4692 8.38916C74.1546 8.38916 82.3547 10.3494 88.5344 13.9148C94.7859 17.5209 98.2387 22.3478 98.2484 27.5008V33.0439C98.2484 38.2085 94.8189 43.0432 88.5654 46.6532C82.409 50.205 74.2342 52.1614 65.5469 52.1614ZM65.4673 9.41976C56.9605 9.41976 48.97 11.3276 42.9727 14.7901C37.055 18.208 33.8022 22.7224 33.8119 27.4989V33.0245C33.8235 37.8107 37.0861 42.3193 42.9999 45.7352C49.0165 49.2093 57.0226 51.1211 65.5469 51.1211C74.0711 51.1211 82.0442 49.2152 88.0434 45.7507C93.9611 42.3348 97.2159 37.8223 97.2062 33.042V27.5008C97.2062 22.7282 93.932 18.2216 88.0143 14.8056C81.9976 11.3315 73.9896 9.41976 65.4673 9.41976Z" fill="#141414"/>
<path d="M97.7268 33.0416V27.5005C97.7152 22.7434 94.5671 17.9903 88.2729 14.357C85.7092 12.9043 82.9828 11.7596 80.1504 10.9469V49.6146C82.9927 48.802 85.7289 47.6561 88.302 46.2007C94.5962 42.5635 97.7346 37.8045 97.7268 33.0416Z" fill="#0962FF"/>
<path d="M80.1511 50.1331C80.0136 50.1331 79.8818 50.0785 79.7846 49.9813C79.6874 49.8841 79.6328 49.7523 79.6328 49.6149V10.9471C79.6329 10.8665 79.6517 10.7871 79.6877 10.715C79.7238 10.6429 79.7761 10.5802 79.8405 10.5318C79.9056 10.4835 79.981 10.4508 80.0607 10.4364C80.1405 10.4219 80.2226 10.426 80.3005 10.4483C83.1717 11.2741 85.9357 12.435 88.5356 13.9069C94.7871 17.5131 98.2399 22.34 98.2496 27.493V33.0361C98.2496 38.2007 94.8201 43.0354 88.5666 46.6454C85.9572 48.1211 83.1826 49.2833 80.3005 50.1079C80.2522 50.1234 80.2018 50.1319 80.1511 50.1331ZM80.6712 11.6478V48.9123C83.2391 48.1338 85.7126 47.0728 88.0465 45.7487C93.9641 42.3328 97.219 37.8203 97.2093 33.0399V27.4988C97.2093 22.7262 93.9351 18.2195 88.0174 14.8036C85.6915 13.4861 83.228 12.4278 80.6712 11.6478Z" fill="#141414"/>
<path d="M88.303 40.6598C100.878 33.401 100.864 21.6239 88.2719 14.3573C75.6796 7.09069 55.289 7.07906 42.7122 14.3398C30.1354 21.6006 30.151 33.3758 42.7413 40.6443C55.3317 47.9128 75.7243 47.9186 88.303 40.6598Z" fill="#86B2FF"/>
<path d="M65.5468 46.6203C56.8421 46.6203 48.6613 44.6581 42.4797 41.0946C36.2204 37.4808 32.7754 32.6441 32.7754 27.4795C32.7754 22.3149 36.2146 17.4957 42.4584 13.8935C48.6109 10.3417 56.7858 8.38531 65.4711 8.38531C74.1565 8.38531 82.3566 10.3456 88.5363 13.9109C94.7995 17.5248 98.2406 22.3614 98.2406 27.528C98.2406 32.6946 94.8033 37.5099 88.5596 41.114C82.409 44.6639 74.2341 46.6203 65.5468 46.6203ZM65.4672 9.41978C56.9604 9.41978 48.9699 11.3277 42.9727 14.7902C37.0647 18.2022 33.8099 22.7069 33.8099 27.4795C33.8099 32.2521 37.0744 36.7743 42.9998 40.1941C49.0165 43.6682 57.0226 45.5819 65.5468 45.5819C74.0711 45.5819 82.0441 43.674 88.0433 40.2096C93.9513 36.7995 97.2061 32.2948 97.2061 27.5241C97.2061 22.7535 93.9416 18.2274 88.0142 14.8057C81.9976 11.3315 73.9896 9.41978 65.4672 9.41978Z" fill="#141414"/>
<path d="M47.3487 37.0538C47.2128 36.9801 47.0633 36.9141 46.9313 36.8364C36.6797 30.9168 36.67 21.2902 46.91 15.3783C47.0517 15.2987 47.205 15.2308 47.3487 15.1512V37.0538ZM68.964 11.0987C67.7354 11.0036 66.4991 10.9493 65.2628 10.9551V41.2732C66.4991 41.2732 67.7354 41.2286 68.964 41.1374V11.0987ZM84.0775 15.3919C81.8716 14.1501 79.5218 13.1835 77.0807 12.5136V39.7322C79.5333 39.0663 81.894 38.0988 84.1085 36.852C94.3544 30.9401 94.333 21.3115 84.0775 15.3919Z" fill="white"/>
<path d="M63.1226 31.4523C64.0205 30.9347 64.4831 30.3706 64.5102 29.7599C64.5374 29.1505 64.1415 28.3198 63.3302 27.2678C61.6843 25.358 60.8168 23.7406 60.7275 22.4157C60.6402 21.0842 61.599 19.844 63.6039 18.6815C65.4516 17.6153 67.5639 17.0874 69.9408 17.0977C72.3461 17.1098 74.7189 17.6539 76.8891 18.6912L80.4078 16.661L83.0241 18.171L79.4549 20.2438C81.1551 21.5377 81.9314 22.875 81.7839 24.2556C81.6364 25.6362 80.5333 26.901 78.4747 28.05L78.3583 28.0772L73.6692 25.3716C74.8647 24.6787 75.5091 23.9936 75.61 23.3085C75.7109 22.6233 75.2704 22.0023 74.2941 21.4394C73.3804 20.8749 72.3226 20.5877 71.2489 20.6126C70.2412 20.6582 69.2601 20.9508 68.392 21.4647C67.5458 21.9537 67.1188 22.4817 67.1013 23.0561C67.0838 23.6306 67.4778 24.4807 68.2774 25.6142C69.9246 27.4748 70.7792 29.0851 70.8414 30.445C70.9035 31.8049 69.9375 33.0581 67.9436 34.2045C66.0102 35.3134 63.8097 35.8712 61.5815 35.8173C59.186 35.7778 56.8281 35.2161 54.672 34.1715L51.4366 36.0424L48.8203 34.5305L52.0558 32.6634C50.1382 31.3397 49.1076 29.9372 48.964 28.4556C48.8204 26.9741 49.9421 25.5689 52.3294 24.2401L52.475 24.2129L57.1505 26.9107C55.7466 27.7207 55.0893 28.497 55.1786 29.2397C55.2679 29.9824 55.8605 30.6688 56.9564 31.299C57.9231 31.8893 59.0284 32.2141 60.1608 32.2403C61.2011 32.2502 62.2247 31.9779 63.1226 31.4523Z" fill="#141414"/>
<path d="M68.4371 52.0857C68.2995 52.0852 68.1677 52.0302 68.0706 51.9327C67.9735 51.8352 67.9189 51.7032 67.9189 51.5656V46.0264C67.9146 45.9555 67.9248 45.8845 67.9489 45.8178C67.9731 45.751 68.0106 45.6899 68.0592 45.6382C68.1079 45.5865 68.1666 45.5453 68.2317 45.5171C68.2969 45.489 68.3671 45.4744 68.4381 45.4744C68.5091 45.4744 68.5793 45.489 68.6445 45.5171C68.7096 45.5453 68.7683 45.5865 68.817 45.6382C68.8656 45.6899 68.9031 45.751 68.9273 45.8178C68.9514 45.8845 68.9617 45.9555 68.9573 46.0264V51.5656C68.9573 51.7035 68.9025 51.8358 68.8049 51.9334C68.7074 52.0309 68.5751 52.0857 68.4371 52.0857ZM74.2966 51.4608C74.1586 51.4608 74.0263 51.406 73.9288 51.3084C73.8312 51.2109 73.7764 51.0786 73.7764 50.9406V45.3995C73.7845 45.2673 73.8428 45.1431 73.9393 45.0523C74.0357 44.9616 74.1632 44.9111 74.2956 44.9111C74.4281 44.9111 74.5555 44.9616 74.652 45.0523C74.7485 45.1431 74.8067 45.2673 74.8148 45.3995V50.9406C74.8156 51.0093 74.8028 51.0774 74.7771 51.141C74.7514 51.2047 74.7134 51.2626 74.6652 51.3115C74.6171 51.3604 74.5597 51.3993 74.4964 51.4259C74.4331 51.4525 74.3652 51.4663 74.2966 51.4666V51.4608ZM77.2254 50.894C77.1571 50.8943 77.0895 50.8811 77.0264 50.8551C76.9633 50.8292 76.906 50.7911 76.8577 50.7429C76.8093 50.6948 76.771 50.6376 76.7448 50.5746C76.7187 50.5116 76.7052 50.444 76.7052 50.3758V44.7473C76.7052 44.6094 76.76 44.4771 76.8576 44.3795C76.9551 44.282 77.0874 44.2272 77.2254 44.2272C77.3633 44.2272 77.4956 44.282 77.5932 44.3795C77.6907 44.4771 77.7455 44.6094 77.7455 44.7473V50.3758C77.7476 50.4453 77.7357 50.5146 77.7104 50.5794C77.6852 50.6442 77.6472 50.7032 77.5987 50.753C77.5501 50.8028 77.4921 50.8424 77.4279 50.8693C77.3638 50.8962 77.2949 50.9099 77.2254 50.9096V50.894Z" fill="#141414"/>
<path d="M103.271 19.188C103.271 14.4328 100.111 9.67773 93.8205 6.04444C81.2282 -1.22408 60.8259 -1.23184 48.2569 6.02891C41.9666 9.6622 38.8263 14.4231 38.836 19.188V24.7291C38.8476 29.4861 41.9977 34.2393 48.2841 37.8726C60.8745 45.1431 81.2787 45.1489 93.8497 37.8901C100.14 34.2568 103.278 29.4939 103.271 24.7291V19.188Z" fill="white"/>
<path d="M71.0879 43.8506C62.3851 43.8506 54.1927 41.8864 48.0227 38.323C41.7731 34.7149 38.3184 29.888 38.3184 24.737V19.1939C38.3067 14.0312 41.744 9.1965 47.9994 5.58456C54.1519 2.03084 62.3268 0.0744629 71.0122 0.0744629C79.6975 0.0744629 87.9074 2.03667 94.0813 5.60009C100.331 9.20814 103.786 14.0351 103.786 19.1861V24.7292C103.786 29.8938 100.356 34.7285 94.1045 38.3385C87.952 41.8922 79.7752 43.8506 71.0879 43.8506ZM71.0083 1.107C62.5015 1.107 54.511 3.01486 48.5137 6.47736C42.5961 9.89715 39.3412 14.4097 39.3529 19.1861V24.7079C39.3645 29.494 42.6271 34.0026 48.5409 37.4185C54.5576 40.8927 62.5636 42.8044 71.0879 42.8044C79.6122 42.8044 87.5852 40.8966 93.5863 37.4341C99.5021 34.0162 102.757 29.5037 102.749 24.7253V19.1822C102.738 14.4116 99.473 9.90298 93.5572 6.489C87.5386 3.02069 79.5306 1.107 71.0083 1.107Z" fill="#141414"/>
<path d="M103.268 24.729V19.1879C103.268 14.4328 100.108 9.67767 93.8178 6.04438C91.2523 4.59447 88.5255 3.4506 85.6934 2.63623V41.302C88.5355 40.4897 91.2716 39.3444 93.845 37.89C100.137 34.2567 103.285 29.4938 103.268 24.729Z" fill="#0962FF"/>
<path d="M85.6921 41.8224C85.5797 41.8218 85.4703 41.7858 85.3796 41.7195C85.3151 41.6707 85.2628 41.6076 85.2268 41.5352C85.1908 41.4628 85.172 41.3831 85.1719 41.3022V2.63639C85.1716 2.55556 85.1902 2.47577 85.2262 2.4034C85.2622 2.33104 85.3147 2.26812 85.3794 2.21965C85.4441 2.17118 85.5192 2.13851 85.5988 2.12426C85.6783 2.11001 85.7601 2.11458 85.8376 2.13759C88.7097 2.96364 91.4749 4.12379 94.0766 5.59426C100.326 9.20232 103.781 14.0292 103.781 19.1803V24.7234C103.781 29.888 100.351 34.7227 94.0998 38.3327C91.4906 39.8101 88.7152 40.9724 85.8318 41.7952C85.7866 41.8104 85.7396 41.8195 85.6921 41.8224ZM86.2044 3.33704V40.6016C88.7718 39.8218 91.2453 38.7608 93.5797 37.4379C99.4954 34.0201 102.75 29.5076 102.742 24.7292V19.1861C102.731 14.4155 99.4663 9.90685 93.5506 6.49288C91.2251 5.17457 88.7615 4.11624 86.2044 3.33704Z" fill="#141414"/>
<path d="M93.8492 32.3489C106.422 25.09 106.408 13.311 93.82 6.04439C81.2316 -1.22219 60.8254 -1.2319 48.2564 6.02886C35.6874 13.2896 35.6952 25.0648 48.2836 32.3314C60.872 39.598 81.2743 39.6077 93.8492 32.3489Z" fill="#86B2FF"/>
<path d="M71.0879 38.3074C62.385 38.3074 54.1927 36.3452 48.0227 32.7818C41.7614 29.1679 38.3184 24.3332 38.3184 19.1667C38.3184 14.0001 41.7575 9.1829 48.0013 5.58066C54.1538 2.02695 62.3287 0.0705566 71.0141 0.0705566C79.6994 0.0705566 87.9093 2.03277 94.0832 5.59619C100.344 9.21201 103.787 14.0467 103.787 19.2132C103.787 24.3798 100.35 29.1951 94.1064 32.7993C87.952 36.353 79.7752 38.3074 71.0879 38.3074ZM71.0083 1.10698C62.5015 1.10698 54.511 3.01484 48.5137 6.47734C42.6057 9.88937 39.3509 14.396 39.3509 19.1667C39.3509 23.9373 42.6154 28.4615 48.5409 31.8832C54.5575 35.3573 62.5636 37.2691 71.0879 37.2691C79.6121 37.2691 87.5852 35.3612 93.5863 31.8987C99.4943 28.4886 102.749 23.982 102.749 19.2113C102.749 14.4407 99.4826 9.91653 93.5572 6.4948C87.5386 3.02066 79.5306 1.10698 71.0083 1.10698Z" fill="#141414"/>
<path d="M71.0485 43.2444C70.9802 43.2444 70.9127 43.231 70.8497 43.2048C70.7867 43.1786 70.7295 43.1403 70.6814 43.092C70.6332 43.0436 70.5951 42.9863 70.5692 42.9232C70.5432 42.8601 70.53 42.7925 70.5303 42.7243V38.3306C70.5259 38.2597 70.5361 38.1887 70.5603 38.122C70.5844 38.0552 70.6219 37.9941 70.6706 37.9424C70.7192 37.8907 70.7779 37.8495 70.8431 37.8214C70.9083 37.7932 70.9785 37.7787 71.0495 37.7787C71.1204 37.7787 71.1907 37.7932 71.2558 37.8214C71.321 37.8495 71.3797 37.8907 71.4283 37.9424C71.4769 37.9941 71.5145 38.0552 71.5386 38.122C71.5627 38.1887 71.573 38.2597 71.5686 38.3306V42.7243C71.5686 42.7926 71.5552 42.8602 71.529 42.9233C71.5029 42.9864 71.4646 43.0438 71.4163 43.0921C71.368 43.1404 71.3106 43.1787 71.2475 43.2048C71.1844 43.231 71.1168 43.2444 71.0485 43.2444ZM79.0961 42.9475C78.9581 42.9475 78.8258 42.8927 78.7283 42.7951C78.6308 42.6976 78.5759 42.5653 78.5759 42.4273V37.9832C78.5759 37.8452 78.6308 37.7129 78.7283 37.6154C78.8258 37.5178 78.9581 37.463 79.0961 37.463C79.234 37.463 79.3663 37.5178 79.4639 37.6154C79.5614 37.7129 79.6162 37.8452 79.6162 37.9832V42.4273C79.6152 42.5646 79.56 42.6959 79.4625 42.7926C79.3651 42.8893 79.2334 42.9436 79.0961 42.9436V42.9475ZM82.7635 41.9926C82.6955 41.9926 82.6281 41.9792 82.5652 41.9531C82.5023 41.9271 82.4452 41.8889 82.3971 41.8408C82.349 41.7927 82.3108 41.7355 82.2847 41.6727C82.2587 41.6098 82.2453 41.5424 82.2453 41.4744V36.9409C82.241 36.8701 82.2512 36.7991 82.2753 36.7323C82.2994 36.6656 82.337 36.6045 82.3856 36.5528C82.4343 36.5011 82.493 36.4599 82.5581 36.4317C82.6233 36.4035 82.6935 36.389 82.7645 36.389C82.8355 36.389 82.9057 36.4035 82.9709 36.4317C83.036 36.4599 83.0947 36.5011 83.1434 36.5528C83.192 36.6045 83.2295 36.6656 83.2537 36.7323C83.2778 36.7991 83.288 36.8701 83.2837 36.9409V41.4744C83.2821 41.6113 83.2267 41.7421 83.1293 41.8384C83.0319 41.9347 82.9005 41.9887 82.7635 41.9887V41.9926Z" fill="#141414"/>
<path d="M156.859 97.3316C156.847 92.5745 153.699 87.8213 147.405 84.1881C134.816 76.9195 114.422 76.9118 101.845 84.1725C95.5545 87.8058 92.4142 92.5667 92.4258 97.3316V102.873C92.4258 107.63 95.5856 112.383 101.874 116.016C114.462 123.287 134.869 123.292 147.436 116.032C153.728 112.398 156.866 107.638 156.859 102.873V97.3316Z" fill="white"/>
<path d="M124.68 121.992C115.975 121.992 107.794 120.03 101.613 116.467C95.3649 112.858 91.9179 108.032 91.9082 102.881V97.3374C91.8966 92.1747 95.3339 87.3401 101.589 83.7281C107.742 80.1744 115.917 78.218 124.602 78.218C133.287 78.218 141.488 80.1802 147.667 83.7436C153.919 87.3517 157.372 92.1786 157.381 97.3297V102.873C157.381 108.039 153.952 112.872 147.698 116.482C141.542 120.036 133.367 121.992 124.68 121.992ZM124.6 79.2505C116.093 79.2505 108.103 81.1584 102.106 84.6209C96.1878 88.0407 92.935 92.5532 92.9447 97.3297V102.857C92.9563 107.643 96.2189 112.152 102.133 115.566C108.149 119.04 116.155 120.954 124.68 120.954C133.204 120.954 141.177 119.046 147.176 115.583C153.094 112.168 156.349 107.653 156.339 102.873V97.3316C156.339 92.561 153.065 88.0523 147.147 84.6384C141.13 81.1642 133.122 79.2505 124.6 79.2505Z" fill="#141414"/>
<path d="M156.86 102.873V97.3316C156.848 92.5746 153.7 87.8214 147.406 84.1881C144.842 82.7362 142.115 81.5916 139.283 80.778V119.446C142.126 118.634 144.862 117.488 147.435 116.032C153.729 112.399 156.867 107.645 156.86 102.873Z" fill="#0962FF"/>
<path d="M139.284 119.966C139.172 119.965 139.063 119.929 138.973 119.863C138.909 119.814 138.857 119.751 138.821 119.679C138.785 119.606 138.766 119.527 138.766 119.446V80.778C138.766 80.6971 138.784 80.6173 138.821 80.545C138.857 80.4727 138.91 80.4099 138.974 80.3616C139.039 80.3133 139.115 80.2809 139.194 80.2669C139.274 80.2529 139.356 80.2578 139.433 80.2811C142.304 81.1064 145.067 82.2666 147.666 83.7378C153.918 87.3458 157.371 92.1728 157.38 97.3238V102.867C157.38 108.033 153.951 112.866 147.697 116.476C145.088 117.953 142.314 119.115 139.431 119.939C139.384 119.955 139.334 119.964 139.284 119.966ZM139.804 81.4786V118.743C142.372 117.965 144.845 116.905 147.179 115.581C153.097 112.166 156.352 107.651 156.342 102.871V97.3296C156.342 92.559 153.068 88.0504 147.15 84.6364C144.824 83.3182 142.361 82.2593 139.804 81.4786Z" fill="#141414"/>
<path d="M147.436 110.49C160.011 103.232 159.997 91.4544 147.405 84.1878C134.812 76.9212 114.422 76.9115 101.845 84.1723C89.2682 91.4331 89.2838 103.208 101.874 110.475C114.464 117.741 134.857 117.751 147.436 110.49Z" fill="#86B2FF"/>
<path d="M124.68 116.451C115.975 116.451 107.794 114.488 101.613 110.925C95.3532 107.311 91.9082 102.475 91.9082 97.3099C91.9082 92.1453 95.3474 87.3261 101.591 83.7239C107.744 80.1702 115.919 78.2138 124.604 78.2138C133.289 78.2138 141.489 80.176 147.669 83.7394C153.932 87.3533 157.373 92.1899 157.373 97.3565C157.373 102.523 153.936 107.338 147.692 110.943C141.542 114.494 133.367 116.451 124.68 116.451ZM124.6 79.2502C116.093 79.2502 108.103 81.1581 102.105 84.6206C96.1975 88.0326 92.9427 92.5393 92.9427 97.3099C92.9427 102.081 96.2072 106.605 102.133 110.026C108.149 113.499 116.155 115.412 124.68 115.412C133.204 115.412 141.177 113.504 147.176 110.042C153.084 106.63 156.339 102.125 156.339 97.3546C156.339 92.5839 153.074 88.0578 147.147 84.638C141.13 81.1639 133.122 79.2502 124.6 79.2502Z" fill="#141414"/>
<path d="M106.481 106.884C106.346 106.811 106.196 106.747 106.064 106.669C95.8125 100.749 95.8029 91.1227 106.043 85.2108C106.185 85.1293 106.338 85.0614 106.481 84.9837V106.884ZM128.097 80.9293C126.868 80.8361 125.632 80.7818 124.396 80.7857V111.104C125.632 111.104 126.868 111.059 128.097 110.968V80.9293ZM143.21 85.2244C141.002 83.9806 138.65 83.0133 136.206 82.3442V109.563C138.658 108.897 141.019 107.929 143.234 106.683C153.487 100.771 153.466 91.1479 143.21 85.2244Z" fill="white"/>
<path d="M122.253 101.285C123.151 100.767 123.614 100.203 123.641 99.5907C123.668 98.9812 123.272 98.1506 122.461 97.0986C120.815 95.1888 119.948 93.5714 119.858 92.2465C119.769 90.9215 120.728 89.6774 122.735 88.5142C124.582 87.4467 126.695 86.9182 129.072 86.9285C131.477 86.9457 133.85 87.4952 136.018 88.5375L139.537 86.5093L142.153 88.0193L138.586 90.0766C140.286 91.3705 141.062 92.7084 140.915 94.0903C140.767 95.4722 139.664 96.7363 137.606 97.8827L137.489 97.9099L132.8 95.2043C133.996 94.5115 134.64 93.8283 134.741 93.1431C134.842 92.458 134.401 91.8369 133.425 91.2741C132.511 90.71 131.454 90.4221 130.38 90.4453C129.372 90.4918 128.391 90.7843 127.523 91.2974C126.677 91.7884 126.25 92.3144 126.232 92.8889C126.215 93.4634 126.609 94.3135 127.408 95.4489C129.055 97.3108 129.91 98.9204 129.972 100.278C130.034 101.635 129.068 102.889 127.074 104.039C125.14 105.147 122.94 105.704 120.712 105.65C118.317 105.611 115.959 105.05 113.803 104.006L110.567 105.875L107.951 104.363L111.187 102.496C109.269 101.172 108.238 99.7699 108.095 98.2884C107.951 96.8068 109.073 95.4016 111.46 94.0728L111.606 94.0457L116.281 96.7434C114.877 97.5534 114.22 98.3298 114.309 99.0725C114.399 99.8152 114.991 100.502 116.087 101.132C117.053 101.723 118.159 102.048 119.292 102.073C120.332 102.082 121.355 101.81 122.253 101.285Z" fill="#141414"/>
<path d="M127.566 121.918C127.428 121.918 127.297 121.863 127.2 121.765C127.102 121.668 127.048 121.536 127.048 121.398V115.857C127.044 115.786 127.054 115.715 127.078 115.649C127.102 115.582 127.14 115.521 127.188 115.469C127.237 115.417 127.295 115.376 127.361 115.348C127.426 115.32 127.496 115.305 127.567 115.305C127.638 115.305 127.708 115.32 127.773 115.348C127.839 115.376 127.897 115.417 127.946 115.469C127.995 115.521 128.032 115.582 128.056 115.649C128.08 115.715 128.091 115.786 128.086 115.857V121.398C128.086 121.536 128.031 121.669 127.934 121.766C127.836 121.864 127.704 121.918 127.566 121.918ZM133.425 121.303C133.288 121.303 133.156 121.249 133.058 121.152C132.961 121.054 132.906 120.923 132.905 120.785V115.244C132.901 115.173 132.911 115.102 132.935 115.035C132.96 114.968 132.997 114.907 133.046 114.856C133.094 114.804 133.153 114.763 133.218 114.735C133.283 114.706 133.354 114.692 133.425 114.692C133.496 114.692 133.566 114.706 133.631 114.735C133.696 114.763 133.755 114.804 133.803 114.856C133.852 114.907 133.89 114.968 133.914 115.035C133.938 115.102 133.948 115.173 133.944 115.244V120.785C133.942 120.921 133.886 121.051 133.789 121.147C133.692 121.243 133.562 121.297 133.425 121.297V121.303ZM136.354 120.738C136.216 120.738 136.084 120.684 135.986 120.586C135.889 120.488 135.834 120.356 135.834 120.218V114.59C135.834 114.452 135.889 114.319 135.986 114.222C136.084 114.124 136.216 114.07 136.354 114.07C136.492 114.07 136.625 114.124 136.722 114.222C136.82 114.319 136.874 114.452 136.874 114.59V120.218C136.873 120.355 136.817 120.486 136.72 120.582C136.623 120.679 136.491 120.733 136.354 120.733V120.738Z" fill="#141414"/>
<path d="M156.859 89.013C156.847 84.2579 153.699 79.5028 147.405 75.8695C134.816 68.6009 114.422 68.5932 101.845 75.8539C95.5545 79.4872 92.4142 84.2501 92.4258 89.013V94.5561C92.4258 99.3112 95.5856 104.066 101.874 107.7C114.462 114.968 134.869 114.974 147.436 107.715C153.728 104.082 156.866 99.3189 156.859 94.5561V89.013Z" fill="white"/>
<path d="M124.68 113.681C115.975 113.681 107.794 111.717 101.613 108.154C95.3649 104.548 91.9179 99.7189 91.9082 94.5679V89.0132C91.8966 83.8505 95.3339 79.0177 101.589 75.4038C107.742 71.8521 115.917 69.8937 124.602 69.8937C133.287 69.8937 141.488 71.8559 147.667 75.4213C153.919 79.0274 157.372 83.8543 157.381 89.0073V94.5504C157.381 99.7151 153.952 104.548 147.698 108.16C141.542 111.721 133.367 113.681 124.68 113.681ZM124.6 70.9399C116.093 70.9399 108.103 72.8458 102.106 76.3102C96.1878 79.7281 92.935 84.2425 92.9447 89.019V94.5446C92.9563 99.3308 96.2189 103.839 102.133 107.255C108.149 110.729 116.155 112.641 124.68 112.641C133.204 112.641 141.177 110.735 147.176 107.271C153.094 103.855 156.349 99.3405 156.339 94.5621V89.0132C156.339 84.2425 153.065 79.7339 147.147 76.3199C141.13 72.8516 133.122 70.9399 124.6 70.9399Z" fill="#141414"/>
<path d="M156.86 94.5618V89.0129C156.848 84.2578 153.7 79.5027 147.406 75.8694C144.842 74.4181 142.115 73.2742 139.283 72.4612V111.139C142.126 110.326 144.862 109.18 147.435 107.725C153.729 104.088 156.867 99.3247 156.86 94.5618Z" fill="#0962FF"/>
<path d="M139.284 111.653C139.146 111.653 139.015 111.599 138.917 111.501C138.82 111.404 138.766 111.272 138.766 111.135V72.4672C138.766 72.3863 138.785 72.3065 138.821 72.2342C138.857 72.1618 138.91 72.099 138.974 72.0505C139.039 72.0021 139.115 71.9695 139.194 71.9552C139.274 71.941 139.356 71.9455 139.433 71.9684C142.305 72.7942 145.069 73.9551 147.668 75.427C153.92 79.0332 157.373 83.8601 157.382 89.0131V94.5562C157.382 99.7208 153.953 104.554 147.699 108.165C145.09 109.64 142.315 110.803 139.433 111.628C139.385 111.643 139.335 111.652 139.284 111.653ZM139.804 73.1679V110.432C142.372 109.654 144.845 108.593 147.179 107.269C153.097 103.853 156.352 99.3384 156.342 94.56V89.0131C156.342 84.2424 153.068 79.7338 147.15 76.3198C144.824 75.0036 142.361 73.9467 139.804 73.1679Z" fill="#141414"/>
<path d="M147.436 102.18C160.011 94.9209 159.997 83.1438 147.405 75.8753C134.812 68.6067 114.422 68.599 101.845 75.8597C89.2682 83.1205 89.2838 94.8957 101.874 102.164C114.464 109.433 134.857 109.439 147.436 102.18Z" fill="#86B2FF"/>
<path d="M124.68 108.14C115.975 108.14 107.794 106.176 101.613 102.614C95.3532 98.9986 91.9082 94.1639 91.9082 88.9993C91.9082 83.8347 95.3474 79.0136 101.591 75.4133C107.744 71.8615 115.919 69.9032 124.604 69.9032C133.289 69.9032 141.489 71.8654 147.669 75.4308C153.932 79.0446 157.373 83.8793 157.373 89.0459C157.373 94.2125 153.936 99.0297 147.692 102.632C141.542 106.182 133.367 108.14 124.68 108.14ZM124.6 70.9396C116.093 70.9396 108.103 72.8455 102.105 76.31C96.1975 79.722 92.9427 84.2267 92.9427 88.9993C92.9427 93.7719 96.2072 98.2941 102.133 101.714C108.149 105.188 116.155 107.1 124.68 107.1C133.204 107.1 141.177 105.194 147.176 101.729C153.084 98.3193 156.339 93.8126 156.339 89.042C156.339 84.2714 153.074 79.7472 147.147 76.3255C141.13 72.8514 133.122 70.9396 124.6 70.9396Z" fill="#141414"/>
<path d="M106.481 98.5737C106.346 98.498 106.196 98.4339 106.064 98.3563C95.8125 92.4367 95.8029 82.81 106.043 76.8981C106.185 76.8185 106.338 76.7506 106.481 76.6711V98.5737ZM128.097 72.6185C126.868 72.5234 125.632 72.4691 124.396 72.4749V102.793C125.632 102.793 126.868 102.748 128.097 102.655V72.6185ZM143.21 76.9117C141.002 75.6694 138.65 74.7027 136.206 74.0334V101.252C138.659 100.586 141.019 99.6181 143.234 98.3699C153.487 92.458 153.466 82.8313 143.21 76.9117Z" fill="white"/>
<path d="M122.253 92.9723C123.151 92.4547 123.614 91.8906 123.641 91.2799C123.668 90.6704 123.272 89.8397 122.461 88.7878C120.815 86.878 119.948 85.2606 119.858 83.9356C119.769 82.6107 120.728 81.3659 122.735 80.2014C124.582 79.1353 126.695 78.6073 129.072 78.6177C131.477 78.6349 133.85 79.1844 136.018 80.2267L139.537 78.1965L142.153 79.7065L138.586 81.7658C140.286 83.0597 141.062 84.3969 140.915 85.7775C140.767 87.1581 139.664 88.4229 137.606 89.5719L137.489 89.5991L132.802 86.878C133.998 86.1851 134.642 85.5 134.743 84.8149C134.844 84.1297 134.403 83.5087 133.427 82.9458C132.513 82.3813 131.455 82.0941 130.382 82.119C129.374 82.1646 128.393 82.4572 127.525 82.971C126.679 83.4601 126.252 83.988 126.234 84.5625C126.217 85.137 126.611 85.9871 127.41 87.1206C129.057 88.9825 129.912 90.5922 129.974 91.9495C130.036 93.3068 129.07 94.5606 127.076 95.7108C125.143 96.819 122.942 97.3767 120.714 97.3237C118.319 97.2842 115.961 96.7225 113.805 95.6778L110.569 97.5488L107.953 96.035L111.189 94.1698C109.271 92.8461 108.24 91.4435 108.097 89.962C107.953 88.4805 109.075 87.0753 111.462 85.7465L111.608 85.7193L116.283 88.4171C114.879 89.2271 114.222 90.0034 114.311 90.7461C114.397 91.4875 114.991 92.1707 116.089 92.8054C117.056 93.3957 118.161 93.7205 119.294 93.7467C120.332 93.7594 121.354 93.4919 122.253 92.9723Z" fill="#141414"/>
<path d="M130.5 113.378C130.362 113.378 130.23 113.323 130.133 113.225C130.036 113.128 129.981 112.996 129.981 112.858V107.315C129.977 107.244 129.987 107.173 130.011 107.107C130.036 107.04 130.073 106.979 130.122 106.927C130.17 106.875 130.229 106.834 130.294 106.806C130.359 106.778 130.43 106.763 130.501 106.763C130.572 106.763 130.642 106.778 130.707 106.806C130.772 106.834 130.831 106.875 130.879 106.927C130.928 106.979 130.966 107.04 130.99 107.107C131.014 107.173 131.024 107.244 131.02 107.315V112.856C131.02 112.925 131.006 112.992 130.98 113.055C130.954 113.119 130.916 113.176 130.867 113.224C130.819 113.272 130.762 113.311 130.699 113.337C130.636 113.363 130.568 113.377 130.5 113.377V113.378ZM133.428 112.99C133.29 112.99 133.158 112.935 133.061 112.838C132.963 112.74 132.908 112.608 132.908 112.47V106.929C132.916 106.797 132.975 106.673 133.071 106.582C133.168 106.491 133.295 106.441 133.427 106.441C133.56 106.441 133.687 106.491 133.784 106.582C133.88 106.673 133.939 106.797 133.947 106.929V112.47C133.946 112.607 133.891 112.738 133.794 112.835C133.697 112.931 133.565 112.986 133.428 112.986V112.99ZM136.357 112.424C136.22 112.424 136.087 112.369 135.99 112.272C135.893 112.175 135.838 112.043 135.837 111.905V106.277C135.837 106.139 135.892 106.007 135.989 105.909C136.087 105.812 136.219 105.757 136.357 105.757C136.495 105.757 136.627 105.812 136.725 105.909C136.822 106.007 136.877 106.139 136.877 106.277V111.905C136.876 112.042 136.82 112.173 136.723 112.269C136.626 112.366 136.494 112.42 136.357 112.42V112.424Z" fill="#141414"/>
<path d="M162.399 80.7081C162.399 75.951 159.24 71.1979 152.949 67.5646C140.357 60.2961 119.955 60.2883 107.386 67.5491C101.095 71.1824 97.9552 75.9433 97.9649 80.7081V86.2492C97.9765 91.0063 101.127 95.7594 107.413 99.3927C120.003 106.663 140.408 106.669 152.979 99.4083C159.269 95.7769 162.407 91.0141 162.399 86.2492V80.7081Z" fill="white"/>
<path d="M130.221 105.369C121.518 105.369 113.326 103.407 107.156 99.8431C100.906 96.235 97.4512 91.4081 97.4512 86.2571V80.714C97.4396 75.5513 100.877 70.7166 107.132 67.1046C113.285 63.5509 121.46 61.5945 130.145 61.5945C138.83 61.5945 147.04 63.5567 153.214 67.1202C159.464 70.7282 162.918 75.5551 162.918 80.7062V86.2493C162.918 91.4139 159.489 96.2486 153.237 99.8586C147.085 103.412 138.908 105.369 130.221 105.369ZM130.141 62.6271C121.634 62.6271 113.644 64.5349 107.647 67.9974C101.729 71.4172 98.4741 75.9297 98.4857 80.7062V86.2338C98.4973 91.0199 101.76 95.5286 107.674 98.9445C113.69 102.417 121.696 104.33 130.221 104.33C138.745 104.33 146.718 102.422 152.719 98.96C158.635 95.5421 161.89 91.0296 161.882 86.2493V80.7081C161.87 75.9375 158.606 71.4289 152.69 68.0149C146.671 64.5408 138.663 62.6271 130.141 62.6271Z" fill="#141414"/>
<path d="M162.401 86.2492V80.708C162.401 75.951 159.241 71.1978 152.951 67.5645C150.385 66.1146 147.658 64.9707 144.826 64.1564V102.822C147.669 102.01 150.405 100.864 152.978 99.4082C159.27 95.7769 162.418 91.014 162.401 86.2492Z" fill="#0962FF"/>
<path d="M144.823 103.342C144.685 103.342 144.553 103.287 144.456 103.189C144.358 103.092 144.303 102.96 144.303 102.822V64.1564C144.302 64.0756 144.321 63.9958 144.357 63.9234C144.393 63.8511 144.446 63.7881 144.51 63.7397C144.575 63.6912 144.65 63.6585 144.73 63.6443C144.809 63.63 144.891 63.6346 144.968 63.6576C147.841 64.4836 150.606 65.6438 153.207 67.1143C159.457 70.7223 162.912 75.5493 162.912 80.7003V86.2434C162.912 91.408 159.482 96.2427 153.231 99.8527C150.621 101.329 147.845 102.491 144.963 103.315C144.917 103.33 144.87 103.34 144.823 103.342ZM145.341 64.8571V102.122C147.908 101.342 150.382 100.282 152.716 98.9599C158.632 95.5421 161.887 91.0296 161.879 86.2492V80.7081C161.868 75.9374 158.603 71.4288 152.687 68.0148C150.36 66.6955 147.894 65.6365 145.335 64.8571H145.341Z" fill="#141414"/>
<path d="M152.982 93.8652C165.555 86.6063 165.541 74.8273 152.953 67.5607C140.364 60.2941 119.958 60.2844 107.389 67.5452C94.8202 74.8059 94.828 86.5811 107.416 93.8477C120.005 101.114 140.407 101.128 152.982 93.8652Z" fill="#86B2FF"/>
<path d="M130.221 99.8275C121.518 99.8275 113.325 97.8653 107.155 94.3019C100.894 90.688 97.4512 85.8533 97.4512 80.6868C97.4512 75.5202 100.89 70.703 107.134 67.1007C113.287 63.547 121.462 61.5906 130.147 61.5906C138.832 61.5906 147.042 63.5529 153.216 67.1163C159.477 70.7321 162.92 75.5668 162.92 80.7333C162.92 85.8999 159.483 90.7152 153.239 94.3193C147.085 97.8711 138.908 99.8275 130.221 99.8275ZM130.141 62.627C121.634 62.627 113.644 64.5349 107.647 67.9974C101.739 71.4094 98.4837 75.9161 98.4837 80.6868C98.4837 85.4574 101.748 89.9815 107.674 93.4033C113.69 96.8755 121.696 98.7892 130.221 98.7892C138.745 98.7892 146.718 96.8813 152.719 93.4188C158.627 90.0068 161.882 85.502 161.882 80.7314C161.882 75.9608 158.615 71.4347 152.69 68.0149C146.671 64.5408 138.663 62.627 130.141 62.627Z" fill="#141414"/>
<path d="M112.025 90.261C111.889 90.1873 111.74 90.1232 111.608 90.0455C101.356 84.1259 101.345 74.4993 111.587 68.5874C111.726 68.5059 111.882 68.438 112.025 68.3603V90.261ZM133.641 64.3078C132.412 64.2127 131.174 64.1584 129.939 64.1642V94.4804C131.174 94.4804 132.412 94.4358 133.641 94.3446V64.3078ZM148.754 68.601C146.546 67.3563 144.193 66.3896 141.747 65.7227V92.9394C144.201 92.2746 146.563 91.3071 148.777 90.0591C159.021 84.1473 159.01 74.5206 148.754 68.601Z" fill="white"/>
<path d="M127.796 84.6616C128.695 84.1453 129.155 83.5786 129.186 82.9672C129.217 82.3558 128.817 81.5271 128.006 80.4751C126.36 78.5653 125.493 76.948 125.403 75.623C125.314 74.298 126.273 73.0539 128.28 71.8907C130.127 70.8258 132.239 70.2973 134.615 70.305C137.021 70.3239 139.393 70.8733 141.563 71.914L145.082 69.8858L147.698 71.3958L144.131 73.455C145.831 74.749 146.607 76.0862 146.46 77.4668C146.312 78.8474 145.212 80.1116 143.16 81.2593L143.044 81.2864L138.353 78.5731C139.548 77.8802 140.193 77.197 140.294 76.5119C140.395 75.8268 139.954 75.2057 138.976 74.6429C138.063 74.0785 137.006 73.7906 135.933 73.8141C134.925 73.8609 133.944 74.1534 133.076 74.6661C132.229 75.1572 131.8 75.6832 131.785 76.2577C131.769 76.8322 132.161 77.6842 132.963 78.8176C134.61 80.6783 135.464 82.2879 135.525 83.6465C135.586 85.0051 134.62 86.2589 132.627 87.4079C130.694 88.5163 128.493 89.0734 126.265 89.0188C123.87 88.98 121.512 88.419 119.356 87.3749L116.12 89.2439L113.504 87.732L116.739 85.8649C114.822 84.5413 113.791 83.1386 113.648 81.6571C113.504 80.1756 114.626 78.7711 117.013 77.4435L117.159 77.4144L121.834 80.1122C120.429 80.9209 119.772 81.6972 119.862 82.4412C119.953 83.1852 120.545 83.8716 121.64 84.5005C122.607 85.0925 123.713 85.4173 124.846 85.4418C125.882 85.4517 126.901 85.1822 127.796 84.6616Z" fill="#141414"/>
<path d="M133.111 105.295C133.043 105.295 132.975 105.282 132.912 105.256C132.848 105.23 132.791 105.191 132.743 105.143C132.694 105.095 132.656 105.037 132.63 104.974C132.604 104.911 132.591 104.843 132.591 104.775V99.2336C132.586 99.1627 132.597 99.0918 132.621 99.025C132.645 98.9582 132.682 98.8971 132.731 98.8454C132.78 98.7937 132.838 98.7525 132.904 98.7244C132.969 98.6962 133.039 98.6817 133.11 98.6817C133.181 98.6817 133.251 98.6962 133.316 98.7244C133.382 98.7525 133.44 98.7937 133.489 98.8454C133.537 98.8971 133.575 98.9582 133.599 99.025C133.623 99.0918 133.633 99.1627 133.629 99.2336V104.775C133.629 104.912 133.575 105.044 133.478 105.142C133.38 105.239 133.249 105.294 133.111 105.295ZM138.967 104.68C138.829 104.679 138.697 104.624 138.6 104.527C138.503 104.429 138.448 104.297 138.448 104.159V98.6183C138.444 98.5475 138.454 98.4765 138.478 98.4097C138.502 98.343 138.54 98.2819 138.589 98.2302C138.637 98.1785 138.696 98.1373 138.761 98.1091C138.826 98.0809 138.897 98.0664 138.968 98.0664C139.038 98.0664 139.109 98.0809 139.174 98.1091C139.239 98.1373 139.298 98.1785 139.346 98.2302C139.395 98.2819 139.433 98.343 139.457 98.4097C139.481 98.4765 139.491 98.5475 139.487 98.6183V104.152C139.487 104.22 139.474 104.288 139.448 104.352C139.422 104.416 139.384 104.473 139.336 104.522C139.287 104.571 139.23 104.609 139.166 104.636C139.103 104.662 139.035 104.676 138.967 104.676V104.68ZM141.897 104.113C141.829 104.113 141.761 104.099 141.698 104.073C141.635 104.047 141.578 104.009 141.53 103.96C141.482 103.912 141.444 103.855 141.418 103.792C141.392 103.729 141.379 103.661 141.379 103.593V97.974C141.375 97.9031 141.385 97.8321 141.409 97.7654C141.433 97.6986 141.471 97.6375 141.519 97.5858C141.568 97.5341 141.627 97.4929 141.692 97.4647C141.757 97.4366 141.827 97.4221 141.898 97.4221C141.969 97.4221 142.039 97.4366 142.105 97.4647C142.17 97.4929 142.228 97.5341 142.277 97.5858C142.326 97.6375 142.363 97.6986 142.387 97.7654C142.412 97.8321 142.422 97.9031 142.417 97.974V103.593C142.416 103.73 142.361 103.861 142.264 103.958C142.166 104.055 142.035 104.109 141.897 104.109V104.113Z" fill="#141414"/>
<path d="M156.859 72.3971C156.847 67.6401 153.699 62.8869 147.405 59.2536C134.816 51.9832 114.422 51.9754 101.845 59.2362C95.5545 62.8695 92.4142 67.6323 92.4258 72.3971V77.9383C92.4258 82.6934 95.5856 87.4485 101.874 91.0818C114.462 98.3503 134.869 98.3561 147.436 91.0973C153.728 87.464 156.866 82.7012 156.859 77.9383V72.3971Z" fill="white"/>
<path d="M124.68 97.0578C115.975 97.0578 107.794 95.0956 101.613 91.5321C95.3649 87.9241 91.9179 83.0952 91.9082 77.9461V72.405C91.8966 67.2403 95.3339 62.4076 101.589 58.7937C107.742 55.2419 115.917 53.2856 124.602 53.2856C133.287 53.2856 141.488 55.2458 147.667 58.8112C153.919 62.4173 157.372 67.2442 157.381 72.3972V77.9403C157.381 83.1049 153.952 87.9396 147.698 91.5496C141.542 95.1014 133.367 97.0578 124.68 97.0578ZM124.6 54.3161C116.093 54.3161 108.103 56.224 102.106 59.6865C96.1878 63.1044 92.935 67.6188 92.9447 72.3953V77.9209C92.9563 82.707 96.2189 87.2157 102.133 90.6316C108.149 94.1057 116.155 96.0175 124.68 96.0175C133.204 96.0175 141.177 94.1116 147.176 90.6471C153.094 87.2312 156.349 82.7187 156.339 77.9383V72.3972C156.339 67.6246 153.065 63.1179 147.147 59.702C141.13 56.2279 133.122 54.3161 124.6 54.3161Z" fill="#141414"/>
<path d="M156.86 77.9385V72.3973C156.848 67.6403 153.7 62.8871 147.406 59.2538C144.842 57.8011 142.116 56.6565 139.283 55.8437V94.5115C142.126 93.6989 144.862 92.5529 147.435 91.0975C153.729 87.4603 156.867 82.7013 156.86 77.9385Z" fill="#0962FF"/>
<path d="M139.284 95.0295C139.146 95.0295 139.015 94.9749 138.917 94.8777C138.82 94.7806 138.766 94.6487 138.766 94.5113V55.8435C138.766 55.763 138.785 55.6835 138.821 55.6114C138.857 55.5393 138.909 55.4766 138.973 55.4282C139.038 55.3799 139.114 55.3473 139.194 55.3328C139.273 55.3183 139.355 55.3224 139.433 55.3448C142.305 56.1706 145.069 57.3314 147.668 58.8034C153.92 62.4095 157.373 67.2364 157.382 72.3894V77.9325C157.382 83.0971 153.953 87.9318 147.699 91.5418C145.09 93.0175 142.315 94.1797 139.433 95.0043C139.385 95.0198 139.335 95.0283 139.284 95.0295ZM139.804 56.5442V93.8087C142.372 93.0302 144.845 91.9692 147.179 90.6451C153.097 87.2292 156.352 82.7167 156.342 77.9364V72.3952C156.342 67.6226 153.068 63.1159 147.15 59.7C144.824 58.3825 142.361 57.3242 139.804 56.5442Z" fill="#141414"/>
<path d="M147.436 85.5565C160.011 78.2977 159.997 66.5206 147.405 59.254C134.812 51.9874 114.422 51.9758 101.845 59.2365C89.2682 66.4973 89.2838 78.2725 101.874 85.541C114.464 92.8095 134.857 92.8153 147.436 85.5565Z" fill="#86B2FF"/>
<path d="M124.68 91.5167C115.975 91.5167 107.794 89.5545 101.613 85.9911C95.3532 82.3772 91.9082 77.5406 91.9082 72.3759C91.9082 67.2113 95.3474 62.3922 101.591 58.7899C107.744 55.2382 115.919 53.2818 124.604 53.2818C133.289 53.2818 141.489 55.242 147.669 58.8074C153.932 62.4213 157.373 67.2579 157.373 72.4245C157.373 77.591 153.936 82.4063 147.692 86.0105C141.542 89.5603 133.367 91.5167 124.68 91.5167ZM124.6 54.3162C116.093 54.3162 108.103 56.2241 102.105 59.6866C96.1975 63.0986 92.9427 67.6034 92.9427 72.3759C92.9427 77.1485 96.2072 81.6707 102.133 85.0905C108.149 88.5647 116.155 90.4784 124.68 90.4784C133.204 90.4784 141.177 88.5705 147.176 85.106C153.084 81.696 156.339 77.1912 156.339 72.4206C156.339 67.65 153.074 63.1239 147.147 59.7021C141.13 56.228 133.122 54.3162 124.6 54.3162Z" fill="#141414"/>
<path d="M106.481 81.9502C106.346 81.8765 106.196 81.8105 106.064 81.7328C95.8125 75.8132 95.8029 66.1865 106.043 60.2747C106.185 60.1951 106.338 60.1272 106.481 60.0476V81.9502ZM128.097 55.9951C126.868 55.9 125.632 55.8456 124.396 55.8515V86.1696C125.632 86.1696 126.868 86.125 128.097 86.0338V55.9951ZM143.21 60.2883C141.004 59.0465 138.655 58.0799 136.214 57.41V84.6286C138.666 83.9627 141.027 82.9952 143.241 81.7484C153.487 75.8365 153.466 66.2079 143.21 60.2883Z" fill="white"/>
<path d="M122.253 76.349C123.151 75.8314 123.614 75.2673 123.641 74.6566C123.668 74.0472 123.272 73.2164 122.461 72.1645C120.815 70.2547 119.948 68.6373 119.858 67.3124C119.771 65.9809 120.73 64.7407 122.735 63.5782C124.582 62.512 126.695 61.9841 129.072 61.9944C131.477 62.0065 133.85 62.5506 136.02 63.5879L139.539 61.5577L142.155 63.0677L138.586 65.1405C140.286 66.4344 141.062 67.7717 140.915 69.1523C140.767 70.5329 139.664 71.7977 137.606 72.9467L137.489 72.9738L132.8 70.2683C133.996 69.5754 134.64 68.8903 134.741 68.2052C134.842 67.52 134.401 66.899 133.425 66.3361C132.511 65.7716 131.453 65.4844 130.38 65.5093C129.372 65.5549 128.391 65.8475 127.523 66.3613C126.677 66.8504 126.25 67.3784 126.232 67.9528C126.215 68.5273 126.609 69.3774 127.408 70.5109C129.055 72.3715 129.91 73.9818 129.972 75.3417C130.034 76.7016 129.068 77.9548 127.074 79.1012C125.141 80.2101 122.941 80.7679 120.712 80.714C118.317 80.6745 115.959 80.1128 113.803 79.0682L110.567 80.9391L107.951 79.4272L111.187 77.5601C109.269 76.2364 108.238 74.8339 108.095 73.3523C107.951 71.8708 109.073 70.4656 111.46 69.1368L111.606 69.1096L116.281 71.8074C114.877 72.6174 114.22 73.3937 114.309 74.1364C114.399 74.8791 114.991 75.5655 116.087 76.1957C117.054 76.786 118.159 77.1108 119.292 77.137C120.332 77.1469 121.356 76.8746 122.253 76.349Z" fill="#141414"/>
<path d="M127.566 96.9822C127.428 96.9817 127.297 96.9267 127.2 96.8292C127.102 96.7317 127.048 96.5997 127.048 96.4621V90.9228C127.044 90.852 127.054 90.781 127.078 90.7143C127.102 90.6475 127.14 90.5864 127.188 90.5347C127.237 90.483 127.295 90.4418 127.361 90.4136C127.426 90.3855 127.496 90.3709 127.567 90.3709C127.638 90.3709 127.708 90.3855 127.773 90.4136C127.839 90.4418 127.897 90.483 127.946 90.5347C127.995 90.5864 128.032 90.6475 128.056 90.7143C128.08 90.781 128.091 90.852 128.086 90.9228V96.4621C128.086 96.6 128.031 96.7323 127.934 96.8299C127.836 96.9274 127.704 96.9822 127.566 96.9822ZM133.425 96.3572C133.288 96.3572 133.155 96.3025 133.058 96.2049C132.96 96.1074 132.905 95.9751 132.905 95.8371V90.2959C132.913 90.1637 132.972 90.0396 133.068 89.9488C133.165 89.8581 133.292 89.8076 133.425 89.8076C133.557 89.8076 133.684 89.8581 133.781 89.9488C133.877 90.0396 133.936 90.1637 133.944 90.2959V95.8371C133.944 95.9057 133.932 95.9738 133.906 96.0375C133.88 96.1012 133.842 96.1591 133.794 96.208C133.746 96.2569 133.689 96.2958 133.625 96.3224C133.562 96.349 133.494 96.3628 133.425 96.3631V96.3572ZM136.354 95.7905C136.286 95.7908 136.218 95.7776 136.155 95.7516C136.092 95.7257 136.035 95.6876 135.987 95.6394C135.938 95.5913 135.9 95.5341 135.874 95.4711C135.848 95.4081 135.834 95.3405 135.834 95.2723V89.6438C135.834 89.5059 135.889 89.3736 135.986 89.276C136.084 89.1785 136.216 89.1237 136.354 89.1237C136.492 89.1237 136.625 89.1785 136.722 89.276C136.82 89.3736 136.874 89.5059 136.874 89.6438V95.2723C136.876 95.3418 136.865 95.411 136.839 95.4759C136.814 95.5407 136.776 95.5997 136.728 95.6495C136.679 95.6993 136.621 95.7389 136.557 95.7657C136.493 95.7926 136.424 95.8063 136.354 95.806V95.7905Z" fill="#141414"/>
<path d="M162.399 64.0846C162.399 59.3295 159.24 54.5744 152.949 50.9411C140.357 43.6726 119.955 43.6648 107.386 50.9255C101.095 54.5588 97.9552 59.3198 97.9649 64.0846V69.6257C97.9765 74.3828 101.127 79.1359 107.413 82.7692C120.003 90.0397 140.408 90.0455 152.979 82.7867C159.269 79.1534 162.407 74.3905 162.399 69.6257V64.0846Z" fill="white"/>
<path d="M130.221 88.7472C121.518 88.7472 113.326 86.783 107.156 83.2196C100.906 79.6116 97.4512 74.7847 97.4512 69.6336V64.0905C97.4396 58.9278 100.877 54.0931 107.132 50.4812C113.285 46.9275 121.46 44.9711 130.145 44.9711C138.83 44.9711 147.04 46.9333 153.214 50.4967C159.464 54.1048 162.918 58.9317 162.918 64.0828V69.6258C162.918 74.7905 159.489 79.6251 153.237 83.2351C147.085 86.7889 138.908 88.7472 130.221 88.7472ZM130.141 46.0036C121.634 46.0036 113.644 47.9115 107.647 51.374C101.729 54.7938 98.4741 59.3063 98.4857 64.0828V69.6045C98.4973 74.3907 101.76 78.8993 107.674 82.3152C113.69 85.7893 121.696 87.7011 130.221 87.7011C138.745 87.7011 146.718 85.7932 152.719 82.3307C158.635 78.9128 161.89 74.4004 161.882 69.622V64.0789C161.87 59.3082 158.606 54.7996 152.69 51.3856C146.671 47.9173 138.663 46.0036 130.141 46.0036Z" fill="#141414"/>
<path d="M162.401 69.6257V64.0846C162.401 59.3295 159.241 54.5744 152.951 50.9411C150.385 49.4912 147.658 48.3473 144.826 47.5329V86.1987C147.668 85.3864 150.404 84.2411 152.978 82.7867C159.27 79.1534 162.418 74.3905 162.401 69.6257Z" fill="#0962FF"/>
<path d="M144.823 86.719C144.711 86.7185 144.601 86.6825 144.51 86.6161C144.446 86.5673 144.394 86.5042 144.358 86.4319C144.322 86.3595 144.303 86.2797 144.303 86.1988V47.533C144.302 47.4522 144.321 47.3724 144.357 47.3C144.393 47.2277 144.446 47.1648 144.51 47.1163C144.575 47.0678 144.65 47.0351 144.73 47.0209C144.809 47.0067 144.891 47.0112 144.968 47.0342C147.841 47.8603 150.606 49.0204 153.207 50.4909C159.457 54.099 162.912 58.9259 162.912 64.0769V69.62C162.912 74.7846 159.482 79.6193 153.231 83.2293C150.621 84.7067 147.846 85.8691 144.963 86.6918C144.917 86.707 144.87 86.7162 144.823 86.719ZM145.335 48.2337V85.4982C147.903 84.7184 150.376 83.6575 152.711 82.3346C158.626 78.9167 161.881 74.4042 161.873 69.6258V64.0827C161.862 59.3121 158.597 54.8035 152.681 51.3895C150.356 50.0712 147.892 49.0129 145.335 48.2337Z" fill="#141414"/>
<path d="M152.982 77.2455C165.555 69.9867 165.541 58.2076 152.953 50.941C140.364 43.6744 119.958 43.6647 107.389 50.9255C94.8202 58.1863 94.828 69.9615 107.416 77.228C120.005 84.4946 140.407 84.5043 152.982 77.2455Z" fill="#86B2FF"/>
<path d="M130.221 83.2041C121.518 83.2041 113.325 81.2419 107.155 77.6784C100.894 74.0646 97.4512 69.2299 97.4512 64.0633C97.4512 58.8967 100.89 54.0795 107.134 50.4773C113.287 46.9236 121.462 44.9672 130.147 44.9672C138.832 44.9672 147.042 46.9294 153.216 50.4928C159.477 54.1087 162.92 58.9433 162.92 64.1099C162.92 69.2765 159.483 74.0917 153.239 77.6959C147.085 81.2496 138.908 83.2041 130.221 83.2041ZM130.141 46.0036C121.634 46.0036 113.644 47.9115 107.647 51.374C101.739 54.786 98.4837 59.2927 98.4837 64.0633C98.4837 68.8339 101.748 73.3581 107.674 76.7798C113.69 80.254 121.696 82.1657 130.221 82.1657C138.745 82.1657 146.718 80.2579 152.719 76.7954C158.627 73.3853 161.882 68.8786 161.882 64.108C161.882 59.3373 158.615 54.8132 152.69 51.3914C146.671 47.9173 138.663 46.0036 130.141 46.0036Z" fill="#141414"/>
<path d="M130.181 88.1411C130.113 88.1411 130.046 88.1276 129.983 88.1014C129.92 88.0753 129.862 88.0369 129.814 87.9886C129.766 87.9403 129.728 87.8829 129.702 87.8198C129.676 87.7567 129.663 87.6891 129.663 87.6209V83.2272C129.659 83.1564 129.669 83.0854 129.693 83.0186C129.717 82.9519 129.755 82.8908 129.803 82.8391C129.852 82.7874 129.911 82.7462 129.976 82.718C130.041 82.6898 130.111 82.6753 130.182 82.6753C130.253 82.6753 130.323 82.6898 130.389 82.718C130.454 82.7462 130.512 82.7874 130.561 82.8391C130.61 82.8908 130.647 82.9519 130.671 83.0186C130.696 83.0854 130.706 83.1564 130.701 83.2272V87.6209C130.701 87.6892 130.688 87.7569 130.662 87.82C130.636 87.8831 130.597 87.9404 130.549 87.9887C130.501 88.037 130.443 88.0753 130.38 88.1015C130.317 88.1276 130.25 88.1411 130.181 88.1411ZM138.229 87.8441C138.091 87.8441 137.959 87.7893 137.861 87.6918C137.764 87.5942 137.709 87.4619 137.709 87.324V82.8798C137.709 82.7418 137.764 82.6095 137.861 82.512C137.959 82.4144 138.091 82.3597 138.229 82.3597C138.367 82.3597 138.499 82.4144 138.597 82.512C138.694 82.6095 138.749 82.7418 138.749 82.8798V87.324C138.748 87.4613 138.693 87.5926 138.595 87.6893C138.498 87.786 138.366 87.8403 138.229 87.8403V87.8441ZM141.896 86.8892C141.828 86.8892 141.761 86.8758 141.698 86.8498C141.635 86.8237 141.578 86.7856 141.53 86.7374C141.482 86.6893 141.444 86.6322 141.418 86.5693C141.392 86.5064 141.378 86.4391 141.378 86.371V81.8376C141.374 81.7667 141.384 81.6957 141.408 81.629C141.432 81.5622 141.47 81.5011 141.518 81.4494C141.567 81.3977 141.626 81.3565 141.691 81.3283C141.756 81.3002 141.826 81.2856 141.897 81.2856C141.968 81.2856 142.039 81.3002 142.104 81.3283C142.169 81.3565 142.228 81.3977 142.276 81.4494C142.325 81.5011 142.362 81.5622 142.386 81.629C142.411 81.6957 142.421 81.7667 142.416 81.8376V86.371C142.415 86.5079 142.359 86.6388 142.262 86.7351C142.165 86.8314 142.033 86.8853 141.896 86.8853V86.8892Z" fill="#141414"/>
<path d="M91.1518 109.88C86.5179 118.062 80.1912 124.233 73.7344 127.609C67.2716 130.988 60.7517 131.537 55.6317 128.638C50.5118 125.738 47.6297 119.864 47.2038 112.583C46.7782 105.31 48.8165 96.7103 53.4504 88.5282C58.0843 80.346 64.411 74.1753 70.8678 70.7994C77.3306 67.4205 83.8505 66.8711 88.9705 69.7707C94.0904 72.6703 96.9724 78.5445 97.3984 85.8248C97.8239 93.0985 95.7857 101.698 91.1518 109.88Z" fill="#0962FF" stroke="#141414" stroke-width="1.11097"/>
<mask id="path-128-inside-1_1237_9046" fill="white">
<path fill-rule="evenodd" clip-rule="evenodd" d="M61.5424 77.2361C58.315 80.3714 55.3403 84.1968 52.8523 88.5899C43.4949 105.112 44.5653 123.409 55.2432 129.456C64.5532 134.729 78.0928 128.949 87.6112 116.43L51.3952 92.7642L61.5424 77.2361Z"/>
</mask>
<path fill-rule="evenodd" clip-rule="evenodd" d="M61.5424 77.2361C58.315 80.3714 55.3403 84.1968 52.8523 88.5899C43.4949 105.112 44.5653 123.409 55.2432 129.456C64.5532 134.729 78.0928 128.949 87.6112 116.43L51.3952 92.7642L61.5424 77.2361Z" fill="#86B2FF"/>
<path d="M52.8523 88.5899L51.8856 88.0424L52.8523 88.5899ZM61.5424 77.2361L62.4724 77.8439L60.7682 76.4393L61.5424 77.2361ZM55.2432 129.456L54.6957 130.423L55.2432 129.456ZM87.6112 116.43L88.4956 117.103L89.2177 116.153L88.219 115.5L87.6112 116.43ZM51.3952 92.7642L50.4652 92.1565L49.8575 93.0865L50.7875 93.6942L51.3952 92.7642ZM53.819 89.1374C56.2567 84.833 59.1673 81.0923 62.3165 78.033L60.7682 76.4393C57.4626 79.6506 54.4238 83.5606 51.8856 88.0424L53.819 89.1374ZM55.7907 128.49C50.8898 125.714 48.0628 120.052 47.6436 112.886C47.2252 105.735 49.2299 97.2404 53.819 89.1374L51.8856 88.0424C47.1172 96.462 44.9785 105.377 45.4254 113.016C45.8716 120.642 48.9188 127.151 54.6957 130.423L55.7907 128.49ZM86.7269 115.758C82.0645 121.89 76.4506 126.325 70.9279 128.587C65.4046 130.85 60.0664 130.911 55.7907 128.49L54.6957 130.423C59.73 133.274 65.8166 133.082 71.7702 130.643C77.7243 128.204 83.6395 123.489 88.4956 117.103L86.7269 115.758ZM88.219 115.5L52.0029 91.8342L50.7875 93.6942L87.0035 117.36L88.219 115.5ZM52.3252 93.372L62.4724 77.8439L60.6124 76.6284L50.4652 92.1565L52.3252 93.372Z" fill="#141414" mask="url(#path-128-inside-1_1237_9046)"/>
<path d="M84.2192 106.95C79.4342 115.398 72.9013 121.77 66.234 125.256C59.5606 128.745 52.8282 129.313 47.5413 126.319C42.2545 123.324 39.2785 117.259 38.8387 109.741C38.3993 102.23 40.504 93.3506 45.2889 84.9018C50.0738 76.453 56.6067 70.0811 63.274 66.5952C69.9474 63.1061 76.6799 62.5388 81.9667 65.533C87.2536 68.5271 90.2295 74.5927 90.6694 82.1103C91.1088 89.6211 89.0041 98.5008 84.2192 106.95Z" fill="white" stroke="#141414" stroke-width="1.14718"/>
<path d="M79.7415 99.3542C80.1288 98.6656 80.3513 97.96 80.2851 97.3156C80.2738 96.6769 79.9394 96.1415 79.481 95.6843C79.0226 95.2272 78.351 94.8846 77.5413 94.7099C79.0945 94.4149 80.6146 93.7978 81.9777 92.9367C83.3063 92.1176 84.3336 91.0852 84.9074 90.0971C87.3661 86.5259 84.4328 84.948 79.8006 84.0599L83.8026 79.1908L79.9928 78.7519L76.0943 83.495C75.1057 83.393 74.0623 83.2852 73.0188 83.1775L76.9519 78.3924L73.142 77.9535L69.14 82.8225C68.3162 82.7375 67.4924 82.6524 66.7235 82.573L61.4858 81.9867L58.8983 85.1348C58.8983 85.1348 61.7886 85.3877 61.6992 85.424C62.2279 85.4331 62.6736 85.6157 62.8856 85.8653C63.063 86.1568 63.0616 86.521 62.8264 86.952L51.8005 100.294C51.697 100.42 51.5385 100.541 51.3801 100.661C51.2217 100.781 51.0084 100.896 50.7746 100.963C50.5958 101.035 50.362 101.102 50.1627 101.127C49.9635 101.152 49.7987 101.135 49.5791 101.112C49.5995 101.16 46.7782 100.823 46.7782 100.823L43.1113 104.27L48.0744 104.828C49.0081 104.924 49.9072 105.062 50.7859 105.153L46.7494 110.064L50.5592 110.503L54.5612 105.634C55.5702 105.784 56.5587 105.886 57.6022 105.994L53.6346 110.821L57.4445 111.26L61.481 106.348C68.1685 106.766 73.6723 106.013 78.051 101.411C78.6784 100.793 79.3198 100.085 79.7415 99.3542ZM70.2102 86.6671C72.3521 86.8882 79.5415 87.1296 76.678 90.6135C73.918 93.9715 67.4875 92.8067 65.2908 92.5799L70.2102 86.6671ZM57.4592 102.108L62.8617 95.6077C65.4429 95.8742 74.0398 96.2154 70.9003 100.035C67.8094 103.723 60.0954 102.38 57.4592 102.108Z" fill="#141414"/>
<path d="M79.4982 114.81L85.4452 119.173" stroke="#141414" stroke-width="0.803027"/>
<path d="M77.3663 117.191L83.1628 121.523" stroke="#141414" stroke-width="0.803027"/>
</svg>
