<svg width="143" height="159" viewBox="0 0 143 159" fill="none" xmlns="http://www.w3.org/2000/svg">
<rect width="13.5823" height="13.5823" transform="matrix(0.866025 -0.5 0.866025 0.5 76.0703 7.54114)" fill="white"/>
<rect width="13.5823" height="84.9518" transform="matrix(0.866025 -0.5 2.20305e-08 1 87.8418 14.785)" fill="#0962FF"/>
<rect width="13.5823" height="85.5034" transform="matrix(0.866025 0.5 -2.20305e-08 1 75.8438 7.76752)" fill="#86B2FF"/>
<rect width="13.5823" height="13.5823" transform="matrix(0.866025 -0.5 0.866025 0.5 56.8242 29.7255)" fill="white"/>
<rect width="13.5823" height="67.1809" transform="matrix(0.866025 -0.5 2.20305e-08 1 68.5957 36.9694)" fill="#0962FF"/>
<rect width="13.5823" height="67.1809" transform="matrix(0.866025 0.5 -2.20305e-08 1 56.5977 29.9519)" fill="#86B2FF"/>
<rect width="13.5823" height="13.5823" transform="matrix(0.866025 -0.5 0.866025 0.5 37.584 50.3251)" fill="white"/>
<rect width="13.5823" height="67.1809" transform="matrix(0.866025 -0.5 2.20305e-08 1 49.3555 57.5693)" fill="#0962FF"/>
<rect width="13.5823" height="67.1809" transform="matrix(0.866025 0.5 -2.20305e-08 1 37.3574 50.5515)" fill="#86B2FF"/>
<rect x="0.603969" width="77.4118" height="77.4118" rx="8.02014" transform="matrix(0.866026 -0.5 0.866025 0.5 0.746932 119.497)" fill="#141414" stroke="#0962FF" stroke-width="0.697403"/>
<rect x="0.603969" width="77.4118" height="77.4118" rx="8.02014" transform="matrix(0.866026 -0.5 0.866025 0.5 0.746932 111.826)" fill="#86B2FF" stroke="#0962FF" stroke-width="0.697403"/>
<path d="M5.2207 118.835V111.496C5.2207 112.31 5.98785 114.356 9.05642 116.029C12.125 117.703 13.1246 118.354 13.2408 118.47V126.002L6.96421 122.306C6.63714 122.061 6.04547 121.505 5.62622 120.808C5.27337 120.222 5.2207 119.519 5.2207 118.835Z" fill="#0962FF" stroke="#0962FF" stroke-width="0.697403"/>
<path d="M131.24 111.496V119.516" stroke="#0962FF" stroke-width="0.697403"/>
<path d="M60.6641 146.017V153.34" stroke="#0962FF" stroke-width="0.697403"/>
<path d="M76.0059 145.669V153.34" stroke="#0962FF" stroke-width="0.697403"/>
<path d="M126.568 119.55V116.727C126.568 116.727 128.407 115.847 129.358 114.983C130.151 114.263 130.991 112.733 131.313 112.113C131.347 112.048 131.45 112.073 131.45 112.147V118.303C131.45 119.335 131.34 120.411 130.752 121.26C130.003 122.342 128.785 122.985 127.645 123.644L88.9082 146.018L123.93 124.291C125.57 123.274 126.568 121.48 126.568 119.55Z" fill="#0962FF" stroke="#0962FF" stroke-width="0.697403"/>
<path d="M18.4707 129.071V121.748L24.0499 125.235V132.209L18.4707 129.071Z" fill="#0962FF" stroke="#0962FF" stroke-width="0.697403"/>
<path d="M123.894 97.3006C123.888 94.5213 122.048 91.7443 118.371 89.6216C111.016 85.375 99.1009 85.3705 91.753 89.6125C88.0779 91.7353 86.2432 94.5168 86.25 97.3006V100.538C86.25 103.317 88.0961 106.094 91.77 108.217C99.1247 112.465 111.047 112.468 118.389 108.226C122.065 106.103 123.899 103.322 123.894 100.538V97.3006Z" fill="white"/>
<path d="M105.096 111.708C100.01 111.708 95.2305 110.562 91.6189 108.48C87.9688 106.372 85.9549 103.552 85.9492 100.543V97.304C85.9424 94.2877 87.9506 91.4631 91.6053 89.3529C95.1999 87.2766 99.976 86.1336 105.05 86.1336C110.125 86.1336 114.916 87.28 118.526 89.3619C122.178 91.4699 124.196 94.29 124.201 97.2995V100.538C124.201 103.557 122.198 106.38 118.544 108.489C114.947 110.565 110.171 111.708 105.096 111.708ZM105.049 86.7369C100.079 86.7369 95.4108 87.8515 91.9069 89.8745C88.4496 91.8725 86.5491 94.5089 86.5548 97.2995V100.529C86.5616 103.325 88.4677 105.959 91.9228 107.954C95.438 109.984 100.116 111.102 105.096 111.102C110.076 111.102 114.734 109.987 118.239 107.964C121.697 105.968 123.598 103.331 123.593 100.538V97.3006C123.593 94.5134 121.68 91.8793 118.222 89.8847C114.707 87.8549 110.028 86.7369 105.049 86.7369Z" fill="#141414"/>
<path d="M123.898 100.538V97.3006C123.891 94.5213 122.052 91.7443 118.374 89.6216C116.876 88.7733 115.284 88.1046 113.629 87.6293V110.221C115.29 109.746 116.888 109.077 118.391 108.226C122.069 106.103 123.902 103.326 123.898 100.538Z" fill="#0962FF"/>
<path d="M113.629 110.525C113.564 110.524 113.5 110.503 113.448 110.465C113.41 110.436 113.379 110.399 113.358 110.357C113.337 110.315 113.326 110.268 113.326 110.221V87.6293C113.326 87.5821 113.337 87.5355 113.358 87.4932C113.379 87.451 113.41 87.4143 113.448 87.386C113.486 87.3578 113.53 87.3389 113.577 87.3307C113.623 87.3226 113.671 87.3254 113.716 87.339C115.393 87.8212 117.008 88.4991 118.526 89.3586C122.179 91.4666 124.196 94.2867 124.202 97.2961V100.535C124.202 103.553 122.198 106.377 118.545 108.486C117.02 109.348 115.399 110.027 113.715 110.509C113.687 110.518 113.658 110.523 113.629 110.525ZM113.933 88.0387V109.81C115.433 109.356 116.878 108.736 118.242 107.963C121.699 105.967 123.601 103.33 123.595 100.537V97.2995C123.595 94.5123 121.682 91.8782 118.225 89.8836C116.866 89.1134 115.427 88.4948 113.933 88.0387Z" fill="#141414"/>
<path d="M118.392 104.989C125.738 100.748 125.73 93.867 118.373 89.6216C111.016 85.3761 99.1033 85.3704 91.7554 89.6125C84.4075 93.8545 84.4166 100.734 91.7724 104.98C99.1283 109.225 111.043 109.231 118.392 104.989Z" fill="#86B2FF"/>
<path d="M105.096 108.471C100.01 108.471 95.2305 107.324 91.6189 105.243C87.962 103.131 85.9492 100.305 85.9492 97.288C85.9492 94.2706 87.9586 91.455 91.6064 89.3504C95.201 87.2742 99.9771 86.1312 105.052 86.1312C110.126 86.1312 114.917 87.2776 118.527 89.3595C122.186 91.4709 124.197 94.2966 124.197 97.3152C124.197 100.334 122.189 103.147 118.541 105.253C114.947 107.328 110.171 108.471 105.096 108.471ZM105.049 86.7367C100.079 86.7367 95.4108 87.8513 91.9069 89.8743C88.4552 91.8677 86.5536 94.5007 86.5536 97.288C86.5536 100.075 88.4609 102.718 91.9228 104.718C95.438 106.746 100.115 107.864 105.096 107.864C110.076 107.864 114.734 106.75 118.239 104.727C121.691 102.733 123.592 100.101 123.592 97.314C123.592 94.5268 121.685 91.8825 118.222 89.8845C114.707 87.8547 110.028 86.7367 105.049 86.7367Z" fill="#141414"/>
<path d="M94.4661 102.882C94.3868 102.839 94.2994 102.801 94.2223 102.756C88.2329 99.2974 88.2272 93.6731 94.2099 90.2192C94.2926 90.1715 94.3822 90.1318 94.4661 90.0865V102.882ZM107.095 87.7177C106.377 87.6633 105.655 87.6315 104.932 87.6338V105.347C105.655 105.347 106.377 105.321 107.095 105.268V87.7177ZM115.925 90.2271C114.635 89.5004 113.26 88.9352 111.832 88.5443V104.447C113.265 104.058 114.644 103.492 115.938 102.764C121.929 99.3099 121.916 93.6879 115.925 90.2271Z" fill="white"/>
<path d="M103.68 99.6104C104.205 99.3081 104.475 98.9781 104.491 98.6205C104.507 98.2645 104.276 97.7791 103.802 97.1645C102.84 96.0487 102.333 95.1038 102.281 94.3297C102.229 93.5556 102.789 92.8288 103.961 92.1491C105.041 91.5255 106.275 91.2167 107.664 91.2227C109.069 91.2328 110.455 91.5538 111.722 92.1628L113.778 90.9778L115.306 91.86L113.222 93.062C114.216 93.8179 114.669 94.5996 114.583 95.4069C114.497 96.2143 113.852 96.9529 112.65 97.6226L112.582 97.6385L109.842 96.0578C110.541 95.653 110.917 95.2539 110.976 94.8536C111.035 94.4533 110.777 94.0904 110.207 93.7616C109.673 93.432 109.055 93.2638 108.428 93.2774C107.839 93.3045 107.266 93.4755 106.759 93.7752C106.264 94.0621 106.015 94.3694 106.005 94.705C105.995 95.0407 106.225 95.5373 106.692 96.2007C107.654 97.2885 108.154 98.2289 108.19 99.0219C108.226 99.8149 107.662 100.547 106.497 101.219C105.367 101.867 104.082 102.192 102.78 102.161C101.38 102.138 100.003 101.81 98.7431 101.2L96.8528 102.292L95.3242 101.409L97.2145 100.318C96.0942 99.5447 95.4921 98.7252 95.4082 97.8596C95.3242 96.9941 95.9796 96.1731 97.3744 95.3967L97.4594 95.3809L100.191 96.957C99.3709 97.4303 98.9868 97.8838 99.039 98.3177C99.0912 98.7517 99.4374 99.1527 100.078 99.5209C100.642 99.8665 101.288 100.056 101.95 100.071C102.558 100.076 103.155 99.917 103.68 99.6104Z" fill="#141414"/>
<path d="M106.784 111.665C106.703 111.665 106.626 111.633 106.57 111.576C106.513 111.519 106.481 111.442 106.481 111.362V108.124C106.479 108.083 106.484 108.041 106.499 108.002C106.513 107.963 106.535 107.928 106.563 107.897C106.591 107.867 106.626 107.843 106.664 107.827C106.702 107.81 106.743 107.802 106.784 107.802C106.826 107.802 106.867 107.81 106.905 107.827C106.943 107.843 106.977 107.867 107.006 107.897C107.034 107.928 107.056 107.963 107.07 108.002C107.084 108.041 107.09 108.083 107.088 108.124V111.362C107.088 111.442 107.056 111.519 106.999 111.576C106.942 111.633 106.864 111.665 106.784 111.665ZM110.207 111.306C110.127 111.306 110.05 111.274 109.993 111.217C109.936 111.161 109.904 111.084 109.903 111.003V107.766C109.901 107.724 109.907 107.683 109.921 107.644C109.935 107.605 109.957 107.569 109.985 107.539C110.014 107.509 110.048 107.485 110.086 107.468C110.124 107.452 110.165 107.443 110.207 107.443C110.248 107.443 110.289 107.452 110.327 107.468C110.365 107.485 110.4 107.509 110.428 107.539C110.456 107.569 110.478 107.605 110.492 107.644C110.506 107.683 110.512 107.724 110.51 107.766V111.003C110.509 111.083 110.476 111.159 110.42 111.215C110.363 111.271 110.287 111.302 110.207 111.303V111.306ZM111.918 110.976C111.838 110.976 111.76 110.944 111.703 110.887C111.646 110.83 111.614 110.753 111.614 110.672V107.384C111.614 107.303 111.646 107.226 111.703 107.169C111.76 107.112 111.838 107.08 111.918 107.08C111.999 107.08 112.076 107.112 112.133 107.169C112.19 107.226 112.222 107.303 112.222 107.384V110.672C112.221 110.752 112.189 110.829 112.132 110.885C112.075 110.941 111.998 110.973 111.918 110.973V110.976Z" fill="#141414"/>
<path d="M123.894 92.4406C123.888 89.6624 122.048 86.8843 118.371 84.7616C111.016 80.515 99.1009 80.5104 91.753 84.7525C88.0779 86.8752 86.2432 89.6579 86.25 92.4406V95.6791C86.25 98.4573 88.0961 101.235 91.77 103.358C99.1247 107.605 111.047 107.608 118.389 103.367C122.065 101.244 123.899 98.4618 123.894 95.6791V92.4406Z" fill="white"/>
<path d="M105.096 106.853C100.01 106.853 95.2305 105.706 91.6189 103.624C87.9688 101.517 85.9549 98.6956 85.9492 95.6861V92.4408C85.9424 89.4245 87.9506 86.601 91.6053 84.4896C95.1999 82.4145 99.976 81.2704 105.05 81.2704C110.125 81.2704 114.916 82.4168 118.526 84.4998C122.178 86.6067 124.196 89.4268 124.201 92.4374V95.6759C124.201 98.6933 122.198 101.517 118.544 103.627C114.947 105.708 110.171 106.853 105.096 106.853ZM105.049 81.8816C100.079 81.8816 95.4108 82.9951 91.9069 85.0192C88.4496 87.016 86.5491 89.6536 86.5548 92.4442V95.6725C86.5616 98.4688 88.4677 101.103 91.9228 103.099C95.438 105.128 100.116 106.245 105.096 106.245C110.076 106.245 114.734 105.132 118.239 103.108C121.697 101.112 123.598 98.4745 123.593 95.6827V92.4408C123.593 89.6536 121.68 87.0194 118.222 85.0248C114.707 82.9985 110.028 81.8816 105.049 81.8816Z" fill="#141414"/>
<path d="M123.898 95.6824V92.4405C123.891 89.6623 122.052 86.8842 118.374 84.7615C116.876 83.9136 115.283 83.2452 113.629 82.7703V105.367C115.29 104.893 116.888 104.223 118.391 103.373C122.069 101.248 123.902 98.4651 123.898 95.6824Z" fill="#0962FF"/>
<path d="M113.629 105.668C113.549 105.668 113.472 105.636 113.415 105.579C113.358 105.523 113.326 105.446 113.326 105.365V82.7739C113.326 82.7266 113.337 82.68 113.358 82.6377C113.38 82.5954 113.41 82.5587 113.448 82.5304C113.486 82.5021 113.53 82.483 113.577 82.4747C113.623 82.4664 113.671 82.469 113.716 82.4824C115.394 82.9649 117.009 83.6431 118.528 84.5031C122.18 86.61 124.197 89.4301 124.203 92.4407V95.6792C124.203 98.6966 122.199 101.52 118.546 103.63C117.021 104.492 115.4 105.171 113.716 105.653C113.688 105.662 113.659 105.667 113.629 105.668ZM113.933 83.1832V104.955C115.433 104.5 116.878 103.88 118.242 103.106C121.699 101.111 123.601 98.4732 123.595 95.6814V92.4407C123.595 89.6534 121.682 87.0193 118.225 85.0247C116.866 84.2557 115.427 83.6382 113.933 83.1832Z" fill="#141414"/>
<path d="M118.392 100.133C125.738 95.8922 125.73 89.0115 118.373 84.7649C111.016 80.5183 99.1033 80.5138 91.7554 84.7559C84.4075 88.9979 84.4166 95.8775 91.7724 100.124C99.1283 104.371 111.043 104.374 118.392 100.133Z" fill="#86B2FF"/>
<path d="M105.096 103.615C100.01 103.615 95.2305 102.468 91.6189 100.387C87.962 98.2746 85.9492 95.45 85.9492 92.4326C85.9492 89.4151 87.9586 86.5985 91.6064 84.495C95.201 82.4199 99.9771 81.2758 105.052 81.2758C110.126 81.2758 114.917 82.4222 118.527 84.5052C122.186 86.6166 124.197 89.4412 124.197 92.4598C124.197 95.4783 122.189 98.2927 118.541 100.397C114.947 102.471 110.171 103.615 105.096 103.615ZM105.049 81.8813C100.079 81.8813 95.4108 82.9948 91.9069 85.0189C88.4552 87.0123 86.5536 89.6442 86.5536 92.4326C86.5536 95.2209 88.4609 97.863 91.9228 99.861C95.438 101.891 100.115 103.008 105.096 103.008C110.076 103.008 114.734 101.894 118.239 99.87C121.691 97.8777 123.592 95.2447 123.592 92.4575C123.592 89.6703 121.685 87.0271 118.222 85.0279C114.707 82.9982 110.028 81.8813 105.049 81.8813Z" fill="#141414"/>
<path d="M94.4661 98.0264C94.3868 97.9821 94.2994 97.9447 94.2223 97.8994C88.2329 94.4409 88.2272 88.8165 94.2099 85.3626C94.2926 85.3161 94.3822 85.2764 94.4661 85.2299V98.0264ZM107.095 82.8622C106.377 82.8067 105.655 82.7749 104.932 82.7783V100.492C105.655 100.492 106.377 100.465 107.095 100.411V82.8622ZM115.925 85.3705C114.635 84.6447 113.26 84.0799 111.832 83.6889V99.5912C113.266 99.2022 114.645 98.6366 115.938 97.9073C121.929 94.4533 121.916 88.829 115.925 85.3705Z" fill="white"/>
<path d="M103.679 94.7537C104.204 94.4514 104.474 94.1218 104.49 93.765C104.506 93.4089 104.274 92.9236 103.8 92.309C102.839 91.1932 102.332 90.2482 102.28 89.4741C102.228 88.7 102.788 87.9728 103.96 87.2924C105.04 86.6695 106.274 86.3611 107.663 86.3671C109.068 86.3772 110.454 86.6982 111.721 87.3072L113.777 86.1211L115.305 87.0033L113.221 88.2064C114.214 88.9624 114.668 89.7436 114.582 90.5502C114.496 91.3568 113.851 92.0958 112.648 92.7671L112.58 92.783L109.842 91.1932C110.541 90.7884 110.917 90.3881 110.976 89.9878C111.035 89.5875 110.777 89.2247 110.207 88.8958C109.673 88.566 109.055 88.3982 108.428 88.4128C107.839 88.4394 107.266 88.6104 106.759 88.9106C106.264 89.1963 106.015 89.5047 106.005 89.8404C105.995 90.176 106.225 90.6727 106.692 91.3349C107.654 92.4228 108.154 93.3632 108.19 94.1562C108.226 94.9492 107.662 95.6817 106.497 96.3537C105.367 97.0011 104.082 97.327 102.78 97.296C101.38 97.2729 100.003 96.9448 98.7431 96.3344L96.8528 97.4276L95.3242 96.5431L97.2145 95.4534C96.0942 94.68 95.492 93.8606 95.4081 92.995C95.3242 92.1294 95.9796 91.3085 97.3744 90.5321L97.4594 90.5162L100.191 92.0924C99.3709 92.5656 98.9868 93.0192 99.039 93.4531C99.0889 93.8863 99.4359 94.2854 100.078 94.6562C100.642 95.0011 101.288 95.1909 101.95 95.2062C102.556 95.2136 103.154 95.0573 103.679 94.7537Z" fill="#141414"/>
<path d="M108.495 106.676C108.414 106.676 108.337 106.643 108.281 106.586C108.224 106.529 108.192 106.452 108.192 106.372V103.133C108.189 103.092 108.195 103.051 108.209 103.012C108.224 102.973 108.246 102.937 108.274 102.907C108.302 102.876 108.337 102.852 108.375 102.836C108.413 102.819 108.454 102.811 108.495 102.811C108.537 102.811 108.578 102.819 108.616 102.836C108.654 102.852 108.688 102.876 108.717 102.907C108.745 102.937 108.767 102.973 108.781 103.012C108.795 103.051 108.801 103.092 108.799 103.133V106.371C108.799 106.411 108.791 106.45 108.775 106.487C108.76 106.524 108.738 106.557 108.71 106.586C108.681 106.614 108.648 106.636 108.611 106.652C108.574 106.667 108.535 106.675 108.495 106.675V106.676ZM110.206 106.449C110.125 106.449 110.048 106.417 109.991 106.36C109.934 106.303 109.902 106.226 109.902 106.145V102.908C109.907 102.831 109.941 102.758 109.997 102.705C110.053 102.652 110.128 102.622 110.205 102.622C110.283 102.622 110.357 102.652 110.413 102.705C110.47 102.758 110.504 102.831 110.509 102.908V106.145C110.508 106.225 110.476 106.302 110.419 106.358C110.362 106.415 110.286 106.447 110.206 106.447V106.449ZM111.917 106.118C111.837 106.118 111.759 106.086 111.702 106.029C111.645 105.973 111.613 105.896 111.613 105.815V102.527C111.613 102.446 111.645 102.369 111.702 102.312C111.759 102.255 111.836 102.223 111.917 102.223C111.998 102.223 112.075 102.255 112.132 102.312C112.189 102.369 112.221 102.446 112.221 102.527V105.815C112.22 105.895 112.188 105.972 112.131 106.028C112.074 106.084 111.997 106.116 111.917 106.116V106.118Z" fill="#141414"/>
<path d="M127.132 87.5885C127.132 84.8092 125.286 82.0322 121.611 79.9095C114.254 75.6629 102.334 75.6583 94.9905 79.9004C91.3154 82.0231 89.4807 84.8047 89.4863 87.5885V90.8259C89.4931 93.6051 91.3335 96.3821 95.0064 98.5049C102.362 102.753 114.283 102.756 121.628 98.5139C125.303 96.3924 127.136 93.6097 127.132 90.8259V87.5885Z" fill="white"/>
<path d="M108.333 101.996C103.248 101.996 98.462 100.85 94.8572 98.768C91.2059 96.66 89.1875 93.8399 89.1875 90.8304V87.5919C89.1807 84.5756 91.1889 81.751 94.8436 79.6408C98.4382 77.5645 103.214 76.4215 108.289 76.4215C113.363 76.4215 118.16 77.5679 121.767 79.6498C125.418 81.7578 127.436 84.5779 127.436 87.5874V90.8259C127.436 93.8433 125.433 96.6679 121.78 98.7771C118.186 100.853 113.408 101.996 108.333 101.996ZM108.286 77.0248C103.316 77.0248 98.6479 78.1394 95.1441 80.1624C91.6867 82.1604 89.7851 84.7968 89.7919 87.5874V90.8168C89.7987 93.6131 91.7048 96.2472 95.1599 98.243C98.6752 100.272 103.353 101.39 108.333 101.39C113.313 101.39 117.971 100.275 121.477 98.252C124.934 96.2552 126.835 93.6188 126.831 90.8259V87.5885C126.824 84.8013 124.917 82.1672 121.46 80.1726C117.944 78.1428 113.266 77.0248 108.286 77.0248Z" fill="#141414"/>
<path d="M127.135 90.8259V87.5885C127.135 84.8092 125.289 82.0322 121.614 79.9095C120.115 79.0624 118.522 78.3941 116.867 77.9183V100.509C118.528 100.034 120.127 99.3645 121.63 98.514C125.306 96.3924 127.145 93.6097 127.135 90.8259Z" fill="#0962FF"/>
<path d="M116.864 100.812C116.784 100.812 116.707 100.78 116.65 100.723C116.593 100.666 116.561 100.589 116.561 100.508V77.9182C116.56 77.871 116.571 77.8244 116.592 77.7821C116.613 77.7398 116.644 77.703 116.682 77.6747C116.72 77.6464 116.763 77.6273 116.81 77.619C116.856 77.6107 116.904 77.6133 116.95 77.6268C118.627 78.1094 120.243 78.7872 121.763 79.6463C125.414 81.7543 127.433 84.5744 127.433 87.5839V90.8224C127.433 93.8398 125.429 96.6644 121.777 98.7735C120.252 99.6358 118.63 100.315 116.946 100.796C116.92 100.805 116.892 100.811 116.864 100.812ZM117.167 78.3276V100.099C118.667 99.6439 120.112 99.0244 121.476 98.2519C124.932 96.2551 126.834 93.6187 126.829 90.8258V87.5884C126.823 84.8012 124.915 82.1671 121.459 80.1725C120.099 79.4016 118.659 78.7829 117.164 78.3276H117.167Z" fill="#141414"/>
<path d="M121.627 95.2754C128.973 91.0345 128.965 84.1527 121.61 79.9072C114.256 75.6617 102.334 75.6561 94.9902 79.8981C87.6468 84.1402 87.6513 91.0198 95.0061 95.2652C102.361 99.5107 114.281 99.5186 121.627 95.2754Z" fill="#86B2FF"/>
<path d="M108.333 98.759C103.248 98.759 98.462 97.6126 94.8572 95.5307C91.1991 93.4193 89.1875 90.5946 89.1875 87.5761C89.1875 84.5576 91.1968 81.7431 94.8447 79.6385C98.4393 77.5623 103.215 76.4193 108.29 76.4193C113.364 76.4193 118.161 77.5657 121.768 79.6476C125.426 81.7602 127.437 84.5848 127.437 87.6033C127.437 90.6219 125.429 93.4351 121.781 95.5409C118.186 97.616 113.408 98.759 108.333 98.759ZM108.286 77.0248C103.316 77.0248 98.6479 78.1395 95.1441 80.1624C91.6924 82.1559 89.7908 84.7889 89.7908 87.5761C89.7908 90.3633 91.698 93.0065 95.1599 95.0056C98.6751 97.0343 103.353 98.1523 108.333 98.1523C113.313 98.1523 117.971 97.0377 121.477 95.0147C124.929 93.0213 126.831 90.3894 126.831 87.6022C126.831 84.815 124.922 82.1706 121.46 80.1726C117.944 78.1429 113.265 77.0248 108.286 77.0248Z" fill="#141414"/>
<path d="M97.7029 93.1698C97.6235 93.1267 97.5362 93.0893 97.4591 93.0439C91.4696 89.5854 91.4628 83.9611 97.4466 80.5072C97.5283 80.4595 97.619 80.4198 97.7029 80.3745V93.1698ZM110.332 78.0068C109.614 77.9513 108.89 77.9195 108.169 77.9229V95.635C108.89 95.635 109.614 95.6089 110.332 95.5556V78.0068ZM119.162 80.5151C117.872 79.7879 116.497 79.2231 115.068 78.8335V94.7346C116.502 94.3463 117.881 93.781 119.175 93.0519C125.16 89.5979 125.153 83.9736 119.162 80.5151Z" fill="white"/>
<path d="M106.915 89.8984C107.44 89.5968 107.709 89.2657 107.727 88.9085C107.745 88.5513 107.511 88.0671 107.037 87.4525C106.076 86.3367 105.569 85.3918 105.517 84.6177C105.464 83.8436 106.025 83.1167 107.197 82.4371C108.277 81.815 109.51 81.5061 110.898 81.5107C112.304 81.5217 113.69 81.8427 114.958 82.4507L117.014 81.2657L118.542 82.148L116.458 83.3511C117.451 84.107 117.905 84.8883 117.819 85.6949C117.733 86.5015 117.09 87.2401 115.891 87.9106L115.823 87.9265L113.082 86.3412C113.781 85.9364 114.157 85.5373 114.216 85.137C114.275 84.7367 114.018 84.3739 113.446 84.045C112.913 83.7153 112.295 83.5471 111.668 83.5608C111.08 83.5881 110.507 83.759 109.999 84.0586C109.505 84.3455 109.254 84.6528 109.245 84.9885C109.236 85.3241 109.465 85.8219 109.933 86.4841C110.896 87.5712 111.395 88.5116 111.43 89.3054C111.466 90.0991 110.901 90.8316 109.737 91.5029C108.607 92.1505 107.322 92.476 106.02 92.4441C104.621 92.4214 103.243 92.0936 101.983 91.4837L100.093 92.5756L98.5645 91.6923L100.455 90.6014C99.3344 89.8281 98.7323 89.0086 98.6484 88.1431C98.5645 87.2775 99.2199 86.4569 100.615 85.6813L100.7 85.6643L103.431 87.2405C102.61 87.7129 102.226 88.1665 102.279 88.6012C102.332 89.0359 102.678 89.4369 103.318 89.8043C103.883 90.1501 104.529 90.3399 105.191 90.3542C105.796 90.3601 106.392 90.2026 106.915 89.8984Z" fill="#141414"/>
<path d="M110.023 101.953C109.983 101.953 109.944 101.946 109.907 101.93C109.87 101.915 109.836 101.893 109.808 101.865C109.78 101.836 109.757 101.803 109.742 101.766C109.727 101.729 109.719 101.689 109.719 101.649V98.412C109.717 98.3706 109.723 98.3291 109.737 98.2901C109.751 98.2511 109.773 98.2154 109.801 98.1852C109.83 98.155 109.864 98.131 109.902 98.1145C109.94 98.0981 109.981 98.0896 110.023 98.0896C110.064 98.0896 110.105 98.0981 110.143 98.1145C110.181 98.131 110.216 98.155 110.244 98.1852C110.272 98.2154 110.294 98.2511 110.308 98.2901C110.323 98.3291 110.328 98.3706 110.326 98.412V101.649C110.326 101.73 110.294 101.807 110.237 101.864C110.181 101.921 110.104 101.953 110.023 101.953ZM113.444 101.594C113.364 101.594 113.287 101.561 113.23 101.504C113.173 101.447 113.142 101.37 113.142 101.29V98.0525C113.139 98.0112 113.145 97.9697 113.159 97.9307C113.173 97.8917 113.195 97.856 113.224 97.8258C113.252 97.7956 113.286 97.7715 113.324 97.755C113.362 97.7386 113.403 97.7301 113.445 97.7301C113.486 97.7301 113.527 97.7386 113.565 97.755C113.603 97.7715 113.638 97.7956 113.666 97.8258C113.695 97.856 113.717 97.8917 113.731 97.9307C113.745 97.9697 113.751 98.0112 113.748 98.0525V101.285C113.748 101.325 113.741 101.365 113.726 101.402C113.711 101.44 113.688 101.473 113.66 101.502C113.632 101.53 113.598 101.553 113.561 101.568C113.524 101.584 113.484 101.592 113.444 101.592V101.594ZM115.157 101.263C115.117 101.263 115.077 101.255 115.04 101.24C115.004 101.224 114.97 101.202 114.942 101.174C114.914 101.145 114.892 101.112 114.876 101.075C114.861 101.038 114.854 100.999 114.854 100.959V97.6761C114.851 97.6347 114.857 97.5932 114.871 97.5542C114.885 97.5152 114.907 97.4795 114.936 97.4493C114.964 97.4191 114.998 97.395 115.037 97.3786C115.075 97.3621 115.116 97.3536 115.157 97.3536C115.199 97.3536 115.24 97.3621 115.278 97.3786C115.316 97.395 115.35 97.4191 115.378 97.4493C115.407 97.4795 115.429 97.5152 115.443 97.5542C115.457 97.5932 115.463 97.6347 115.46 97.6761V100.959C115.46 101.039 115.428 101.116 115.371 101.172C115.314 101.229 115.237 101.26 115.157 101.26V101.263Z" fill="#141414"/>
<path d="M123.894 82.733C123.888 79.9537 122.048 77.1767 118.371 75.0539C111.016 70.8062 99.1009 70.8017 91.753 75.0437C88.0779 77.1665 86.2432 79.9491 86.25 82.733V85.9703C86.25 88.7485 88.0961 91.5266 91.77 93.6494C99.1247 97.8959 111.047 97.8993 118.389 93.6584C122.065 91.5357 123.899 88.753 123.894 85.9703V82.733Z" fill="white"/>
<path d="M105.096 97.1407C100.01 97.1407 95.2305 95.9943 91.6189 93.9124C87.9688 91.8044 85.9549 88.9831 85.9492 85.9748V82.7374C85.9424 79.72 87.9506 76.8965 91.6053 74.7851C95.1999 72.71 99.976 71.567 105.05 71.567C110.125 71.567 114.916 72.7123 118.526 74.7953C122.178 76.9022 124.196 79.7223 124.201 82.7329V85.9714C124.201 88.9888 122.198 91.8134 118.544 93.9226C114.947 95.9977 110.171 97.1407 105.096 97.1407ZM105.049 72.1691C100.079 72.1691 95.4108 73.2838 91.9069 75.3067C88.4496 77.3036 86.5491 79.9411 86.5548 82.7317V85.9601C86.5616 88.7563 88.4677 91.3905 91.9228 93.3862C95.438 95.4159 100.116 96.5329 105.096 96.5329C110.076 96.5329 114.734 95.4194 118.239 93.3953C121.697 91.3996 123.598 88.7631 123.593 85.9703V82.7329C123.593 79.9445 121.68 77.3115 118.222 75.3158C114.707 73.2861 110.028 72.1691 105.049 72.1691Z" fill="#141414"/>
<path d="M123.898 85.9704V82.733C123.891 79.9537 122.052 77.1767 118.374 75.054C116.877 74.2052 115.284 73.5365 113.629 73.0616V95.653C115.29 95.1783 116.888 94.5088 118.391 93.6585C122.069 91.5335 123.902 88.753 123.898 85.9704Z" fill="#0962FF"/>
<path d="M113.629 95.9556C113.549 95.9556 113.472 95.9237 113.415 95.8669C113.358 95.8101 113.326 95.7331 113.326 95.6528V73.0614C113.326 73.0143 113.337 72.9679 113.358 72.9258C113.379 72.8837 113.41 72.847 113.448 72.8188C113.486 72.7905 113.53 72.7715 113.576 72.763C113.623 72.7546 113.671 72.7569 113.716 72.77C115.394 73.2525 117.009 73.9307 118.528 74.7907C122.18 76.8975 124.197 79.7176 124.203 82.7282V85.9667C124.203 88.9841 122.199 91.8088 118.546 93.9179C117.021 94.7801 115.4 95.4591 113.716 95.9408C113.688 95.9499 113.659 95.9549 113.629 95.9556ZM113.933 73.4708V95.2423C115.433 94.7875 116.878 94.1676 118.242 93.394C121.699 91.3983 123.601 88.7619 123.595 85.969V82.7316C123.595 79.9433 121.682 77.3103 118.225 75.3145C116.866 74.5448 115.427 73.9265 113.933 73.4708Z" fill="#141414"/>
<path d="M118.392 90.4211C125.738 86.1802 125.73 79.2995 118.373 75.054C111.016 70.8086 99.1033 70.8018 91.7554 75.0438C84.4075 79.2859 84.4166 86.1654 91.7724 90.412C99.1283 94.6586 111.043 94.662 118.392 90.4211Z" fill="#86B2FF"/>
<path d="M105.096 93.9034C100.01 93.9034 95.2305 92.7569 91.6189 90.675C87.962 88.5637 85.9492 85.7379 85.9492 82.7205C85.9492 79.7031 87.9586 76.8875 91.6064 74.7829C95.201 72.7078 99.9771 71.5648 105.052 71.5648C110.126 71.5648 114.917 72.7101 118.527 74.7931C122.186 76.9045 124.197 79.7303 124.197 82.7488C124.197 85.7674 122.189 88.5807 118.541 90.6864C114.947 92.7603 110.171 93.9034 105.096 93.9034ZM105.049 72.1692C100.079 72.1692 95.4108 73.2839 91.9069 75.3068C88.4552 77.3003 86.5536 79.9321 86.5536 82.7205C86.5536 85.5088 88.4609 88.1509 91.9228 90.1489C95.438 92.1786 100.115 93.2967 105.096 93.2967C110.076 93.2967 114.734 92.182 118.239 90.158C121.691 88.1656 123.592 85.5338 123.592 82.7466C123.592 79.9593 121.685 77.315 118.222 75.3159C114.707 73.2861 110.028 72.1692 105.049 72.1692Z" fill="#141414"/>
<path d="M94.4661 88.3142C94.3868 88.2711 94.2994 88.2326 94.2223 88.1872C88.2329 84.7287 88.2272 79.1044 94.2099 75.6504C94.2926 75.6039 94.3822 75.5642 94.4661 75.5177V88.3142ZM107.095 73.1501C106.377 73.0945 105.655 73.0628 104.932 73.0662V90.7794C105.655 90.7794 106.377 90.7533 107.095 90.7V73.1501ZM115.925 75.6583C114.636 74.9328 113.263 74.3681 111.837 73.9767V89.879C113.27 89.49 114.649 88.9247 115.943 88.1963C121.929 84.7423 121.916 79.1168 115.925 75.6583Z" fill="white"/>
<path d="M103.68 85.0418C104.205 84.7394 104.475 84.4098 104.491 84.053C104.507 83.6969 104.276 83.2116 103.802 82.597C102.84 81.4812 102.333 80.5362 102.281 79.7621C102.23 78.9843 102.79 78.2597 103.961 77.5805C105.041 76.9575 106.275 76.6491 107.664 76.6552C109.069 76.6622 110.455 76.9801 111.723 77.5861L113.779 76.4L115.308 77.2822L113.222 78.4933C114.216 79.2492 114.669 80.0305 114.583 80.8371C114.497 81.6437 113.852 82.3827 112.65 83.054L112.582 83.0698L109.842 81.4891C110.541 81.0843 110.917 80.684 110.976 80.2838C111.035 79.8835 110.777 79.5206 110.207 79.1918C109.673 78.862 109.055 78.6942 108.428 78.7087C107.839 78.7354 107.266 78.9063 106.759 79.2065C106.264 79.4923 106.015 79.8007 106.005 80.1363C105.995 80.472 106.225 80.9687 106.692 81.6309C107.654 82.7179 108.154 83.6587 108.19 84.4532C108.226 85.2478 107.662 85.9799 106.497 86.6497C105.367 87.2976 104.082 87.6235 102.78 87.592C101.38 87.5689 100.003 87.2407 98.7431 86.6304L96.8528 87.7235L95.3242 86.8402L97.2145 85.7493C96.0942 84.976 95.4921 84.1565 95.4082 83.291C95.3242 82.4254 95.9796 81.6044 97.3744 80.828L97.4594 80.8122L100.191 82.3883C99.3709 82.8616 98.9868 83.3151 99.039 83.7491C99.0912 84.183 99.4374 84.584 100.078 84.9522C100.642 85.2971 101.288 85.4868 101.95 85.5021C102.558 85.5079 103.156 85.3488 103.68 85.0418Z" fill="#141414"/>
<path d="M106.784 97.0964C106.703 97.0961 106.626 97.064 106.57 97.007C106.513 96.9501 106.481 96.8729 106.481 96.7925V93.5563C106.479 93.5149 106.484 93.4734 106.499 93.4344C106.513 93.3954 106.535 93.3597 106.563 93.3295C106.591 93.2993 106.626 93.2752 106.664 93.2588C106.702 93.2423 106.743 93.2338 106.784 93.2338C106.826 93.2338 106.867 93.2423 106.905 93.2588C106.943 93.2752 106.977 93.2993 107.006 93.3295C107.034 93.3597 107.056 93.3954 107.07 93.4344C107.084 93.4734 107.09 93.5149 107.088 93.5563V96.7925C107.088 96.8731 107.056 96.9504 106.999 97.0074C106.942 97.0644 106.864 97.0964 106.784 97.0964ZM110.207 96.7313C110.127 96.7313 110.049 96.6993 109.992 96.6423C109.935 96.5853 109.903 96.508 109.903 96.4274V93.19C109.908 93.1128 109.942 93.0403 109.998 92.9872C110.055 92.9342 110.129 92.9047 110.207 92.9047C110.284 92.9047 110.358 92.9342 110.415 92.9872C110.471 93.0403 110.505 93.1128 110.51 93.19V96.4274C110.51 96.4675 110.503 96.5073 110.488 96.5445C110.473 96.5817 110.451 96.6155 110.423 96.6441C110.394 96.6727 110.361 96.6954 110.324 96.7109C110.287 96.7265 110.247 96.7346 110.207 96.7347V96.7313ZM111.918 96.4002C111.878 96.4004 111.839 96.3926 111.802 96.3775C111.765 96.3623 111.732 96.3401 111.703 96.3119C111.675 96.2838 111.653 96.2504 111.638 96.2136C111.622 96.1768 111.614 96.1373 111.614 96.0974V92.809C111.614 92.7284 111.646 92.6511 111.703 92.5941C111.76 92.5372 111.838 92.5051 111.918 92.5051C111.999 92.5051 112.076 92.5372 112.133 92.5941C112.19 92.6511 112.222 92.7284 112.222 92.809V96.0974C112.223 96.1381 112.216 96.1785 112.202 96.2164C112.187 96.2542 112.165 96.2887 112.136 96.3178C112.108 96.3469 112.074 96.37 112.037 96.3857C111.999 96.4014 111.959 96.4094 111.918 96.4093V96.4002Z" fill="#141414"/>
<path d="M127.132 77.8764C127.132 75.0983 125.286 72.3202 121.611 70.1974C114.254 65.9508 102.334 65.9463 94.9905 70.1883C91.3154 72.3111 89.4807 75.0926 89.4863 77.8764V81.1138C89.4931 83.8931 91.3335 86.6701 95.0064 88.7928C102.362 93.0405 114.283 93.044 121.628 88.803C125.303 86.6803 127.136 83.8976 127.132 81.1138V77.8764Z" fill="white"/>
<path d="M108.333 92.2853C103.248 92.2853 98.462 91.1377 94.8572 89.0558C91.2059 86.9478 89.1875 84.1277 89.1875 81.1183V77.8797C89.1807 74.8635 91.1889 72.0388 94.8436 69.9286C98.4382 67.8524 103.214 66.7094 108.289 66.7094C113.363 66.7094 118.16 67.8558 121.767 69.9377C125.418 72.0456 127.436 74.8658 127.436 77.8752V81.1137C127.436 84.1311 125.433 86.9558 121.78 89.0649C118.186 91.1411 113.408 92.2853 108.333 92.2853ZM108.286 67.3126C103.316 67.3126 98.6479 68.4273 95.1441 70.4502C91.6867 72.4482 89.7851 75.0846 89.7919 77.8752V81.1013C89.7987 83.8975 91.7048 86.5317 95.1599 88.5274C98.6752 90.5571 103.353 91.6741 108.333 91.6741C113.313 91.6741 117.971 90.5594 121.477 88.5365C124.934 86.5396 126.835 83.9032 126.831 81.1115V77.8729C126.824 75.0857 124.917 72.4516 121.46 70.457C117.944 68.4307 113.266 67.3126 108.286 67.3126Z" fill="#141414"/>
<path d="M127.135 81.1136V77.8763C127.135 75.0981 125.289 72.32 121.614 70.1972C120.115 69.3501 118.522 68.6818 116.867 68.2061V90.7963C118.528 90.3217 120.126 89.6526 121.63 88.8029C125.306 86.6801 127.145 83.8975 127.135 81.1136Z" fill="#0962FF"/>
<path d="M116.864 91.1002C116.799 91.0999 116.735 91.0789 116.682 91.0401C116.644 91.0116 116.614 90.9747 116.593 90.9324C116.572 90.8902 116.561 90.8436 116.561 90.7963V68.206C116.56 68.1588 116.571 68.1122 116.592 68.0699C116.613 68.0276 116.644 67.9909 116.682 67.9626C116.72 67.9342 116.763 67.9152 116.81 67.9068C116.856 67.8985 116.904 67.9012 116.95 67.9146C118.627 68.3972 120.243 69.0751 121.763 69.9342C125.414 72.0422 127.433 74.8622 127.433 77.8717V81.1102C127.433 84.1276 125.429 86.9523 121.777 89.0614C120.252 89.9246 118.631 90.6036 116.946 91.0843C116.92 91.0932 116.892 91.0986 116.864 91.1002ZM117.164 68.6154V90.387C118.664 89.9314 120.109 89.3115 121.473 88.5386C124.929 86.5418 126.831 83.9054 126.826 81.1136V77.8751C126.819 75.0879 124.912 72.4538 121.456 70.4592C120.097 69.689 118.658 69.0706 117.164 68.6154Z" fill="#141414"/>
<path d="M121.627 85.5657C128.973 81.3248 128.965 74.4429 121.61 70.1975C114.256 65.952 102.334 65.9464 94.9902 70.1884C87.6468 74.4305 87.6513 81.3101 95.0061 85.5555C102.361 89.801 114.281 89.8066 121.627 85.5657Z" fill="#86B2FF"/>
<path d="M108.333 89.0467C103.248 89.0467 98.462 87.9003 94.8572 85.8184C91.1991 83.707 89.1875 80.8824 89.1875 77.8638C89.1875 74.8453 91.1968 72.0309 94.8447 69.9263C98.4393 67.85 103.215 66.707 108.29 66.707C113.364 66.707 118.161 67.8534 121.768 69.9353C125.426 72.0479 127.437 74.8725 127.437 77.891C127.437 80.9096 125.429 83.7229 121.781 85.8286C118.186 87.9048 113.408 89.0467 108.333 89.0467ZM108.286 67.3126C103.316 67.3126 98.6479 68.4272 95.1441 70.4502C91.6924 72.4436 89.7908 75.0766 89.7908 77.8638C89.7908 80.651 91.698 83.2942 95.1599 85.2934C98.6751 87.3231 103.353 88.44 108.333 88.44C113.313 88.44 117.971 87.3254 121.477 85.3025C124.929 83.3101 126.831 80.6771 126.831 77.8899C126.831 75.1027 124.922 72.4595 121.46 70.4604C117.944 68.4306 113.265 67.3126 108.286 67.3126Z" fill="#141414"/>
<path d="M108.309 91.9313C108.269 91.9313 108.23 91.9234 108.193 91.9081C108.156 91.8928 108.123 91.8704 108.095 91.8422C108.067 91.814 108.044 91.7804 108.029 91.7436C108.014 91.7067 108.006 91.6672 108.006 91.6274V89.0604C108.004 89.019 108.01 88.9775 108.024 88.9385C108.038 88.8995 108.06 88.8638 108.088 88.8336C108.117 88.8034 108.151 88.7793 108.189 88.7629C108.227 88.7464 108.268 88.7379 108.31 88.7379C108.351 88.7379 108.392 88.7464 108.43 88.7629C108.468 88.7793 108.503 88.8034 108.531 88.8336C108.56 88.8638 108.581 88.8995 108.596 88.9385C108.61 88.9775 108.616 89.019 108.613 89.0604V91.6274C108.613 91.6673 108.605 91.7068 108.59 91.7437C108.575 91.7805 108.552 91.814 108.524 91.8423C108.496 91.8705 108.462 91.8929 108.425 91.9081C108.389 91.9234 108.349 91.9313 108.309 91.9313ZM113.011 91.7578C112.93 91.7578 112.853 91.7258 112.796 91.6688C112.739 91.6118 112.707 91.5345 112.707 91.4539V88.8574C112.707 88.7768 112.739 88.6995 112.796 88.6425C112.853 88.5855 112.93 88.5535 113.011 88.5535C113.092 88.5535 113.169 88.5855 113.226 88.6425C113.283 88.6995 113.315 88.7768 113.315 88.8574V91.4539C113.314 91.5341 113.282 91.6108 113.225 91.6673C113.168 91.7238 113.091 91.7555 113.011 91.7555V91.7578ZM115.154 91.1999C115.114 91.1999 115.075 91.1921 115.038 91.1768C115.001 91.1616 114.968 91.1393 114.94 91.1112C114.911 91.0831 114.889 91.0497 114.874 91.013C114.859 90.9762 114.851 90.9369 114.851 90.8971V88.2485C114.848 88.2071 114.854 88.1656 114.868 88.1266C114.882 88.0876 114.904 88.0519 114.933 88.0217C114.961 87.9915 114.996 87.9674 115.034 87.951C115.072 87.9345 115.113 87.926 115.154 87.926C115.196 87.926 115.237 87.9345 115.275 87.951C115.313 87.9674 115.347 87.9915 115.376 88.0217C115.404 88.0519 115.426 88.0876 115.44 88.1266C115.454 88.1656 115.46 88.2071 115.458 88.2485V90.8971C115.457 90.9771 115.424 91.0536 115.367 91.1098C115.31 91.1661 115.234 91.1976 115.154 91.1976V91.1999Z" fill="#141414"/>
<path d="M58.7386 94.1983L58.6035 101.227L63.4929 116.988L63.4495 119.226L65.9653 127.338L66.1432 118.076L58.7386 94.1983Z" fill="white"/>
<path d="M58.8003 90.037L58.7422 91.801L87.2088 105.37L87.2666 103.606L58.8003 90.037Z" fill="white"/>
<path d="M68.8469 70.3564V74.4585L58.7991 92.1683L58.741 93.932L58.6059 100.961L56.0879 92.8443L68.8469 70.3564Z" fill="white"/>
<path d="M72.0905 67.0169L59.332 89.504L87.7975 103.073C89.8136 100.867 91.3554 98.3793 92.2913 95.6656C96.3957 83.7694 87.5057 71.6352 72.0905 67.0169Z" fill="#86B2FF"/>
<path d="M69.3837 67.693C67.8665 67.2391 66.3263 66.8661 64.7695 66.5756C61.3941 65.9459 57.9599 65.6884 54.5283 65.8079C40.1096 66.3116 27.3134 73.4471 23.6643 84.0219C19.1638 97.0599 30.274 110.386 48.479 113.787C51.8492 114.416 55.2782 114.673 58.7044 114.553C60.4881 114.491 62.2666 114.326 64.0313 114.059L56.6241 90.1821L69.3837 67.693Z" fill="white"/>
<path d="M59.2715 91.2683L66.6755 115.145C75.2693 113.839 82.8835 110.154 87.7378 104.836L59.2715 91.2683Z" fill="#0962FF"/>
<path d="M92.2928 98.5952C91.3563 101.309 89.815 103.797 87.799 106.004L87.6211 115.266C89.6371 113.06 91.179 110.571 92.1143 107.858C92.7517 106.012 93.0753 104.159 93.1108 102.331C93.1701 99.2429 93.2294 96.1555 93.2887 93.0688C93.2537 94.8983 92.9296 96.7493 92.2928 98.5952Z" fill="#86B2FF"/>
<path d="M58.701 117.483C55.2748 117.603 51.8458 117.347 48.4756 116.718C32.8497 113.8 22.4506 103.567 22.6638 92.4822C22.6047 95.5704 22.5453 98.6578 22.4856 101.744C22.2724 112.83 32.6715 123.061 48.2971 125.981C51.6674 126.609 55.0965 126.866 58.5228 126.746C60.3062 126.684 62.0845 126.518 63.8488 126.251L64.0267 116.988C62.2625 117.256 60.4843 117.421 58.701 117.483Z" fill="#0962FF"/>
<path d="M43.2549 115.414C30.5799 111.41 22.4751 102.28 22.6638 92.482C22.6047 95.5701 22.5453 98.6576 22.4856 101.744C22.2963 111.589 30.4773 120.76 43.2549 124.734V115.414Z" fill="white"/>
<path d="M66.6815 118.076L66.5039 127.338C75.0968 126.032 82.711 122.347 87.5656 117.029L87.7438 107.767C82.8895 113.084 75.2764 116.77 66.6815 118.076Z" fill="#0962FF"/>
<path d="M87.7967 104.805C87.7769 104.805 87.7573 104.8 87.7395 104.792L59.2732 91.2227C59.2566 91.2149 59.2418 91.2037 59.2298 91.1899C59.2178 91.1761 59.2087 91.1599 59.2033 91.1424C59.1978 91.125 59.1961 91.1065 59.1981 91.0883C59.2001 91.0701 59.2059 91.0526 59.2151 91.0367L71.9735 68.5496C71.9886 68.5236 72.012 68.5034 72.04 68.4922C72.068 68.481 72.0988 68.4795 72.1278 68.4879C80.9803 71.1402 87.9696 76.3909 91.3035 82.8938C93.6834 87.5358 94.0681 92.5202 92.4153 97.3078C91.4931 99.9804 89.9718 102.488 87.894 104.762C87.8816 104.776 87.8665 104.786 87.8498 104.794C87.833 104.801 87.815 104.805 87.7967 104.805ZM59.5169 91.0439L87.765 104.509C89.7842 102.281 91.2646 99.8298 92.1646 97.2197C93.7924 92.5027 93.4129 87.5908 91.0667 83.0159C87.7781 76.6019 80.8886 71.4151 72.1531 68.7739L59.5169 91.0439Z" fill="#141414"/>
<path d="M87.6212 114.067C87.6035 114.067 87.5859 114.063 87.5696 114.057C87.5532 114.05 87.5384 114.04 87.526 114.027C87.5136 114.014 87.5039 113.999 87.4974 113.983C87.4909 113.966 87.4878 113.949 87.4883 113.931L87.666 104.669C87.667 104.637 87.6794 104.606 87.701 104.582C89.7543 102.335 91.2569 99.8582 92.167 97.2198C92.7816 95.4542 93.1154 93.603 93.156 91.7339C93.1566 91.6991 93.1709 91.666 93.1958 91.6416C93.2206 91.6172 93.254 91.6036 93.2888 91.6036H93.2916C93.3091 91.6039 93.3264 91.6077 93.3424 91.6147C93.3584 91.6217 93.3729 91.6317 93.385 91.6443C93.3972 91.6569 93.4067 91.6718 93.4131 91.6881C93.4195 91.7044 93.4226 91.7217 93.4223 91.7392L93.2438 101.001C93.2082 102.87 92.8705 104.744 92.2404 106.568C91.3189 109.242 89.7974 111.75 87.7193 114.023C87.7069 114.037 87.6918 114.048 87.6749 114.055C87.658 114.063 87.6397 114.067 87.6212 114.067ZM87.9311 104.724L87.7613 113.579C89.6926 111.403 91.1141 109.017 91.9885 106.482C92.6095 104.684 92.9425 102.838 92.9775 100.996L93.0973 94.7843C92.9305 95.6401 92.7037 96.4831 92.4188 97.3071C91.5015 99.9652 89.9922 102.46 87.9311 104.724Z" fill="#141414"/>
<path d="M57.0686 116.312C54.1785 116.313 51.2944 116.046 48.4532 115.516C37.8946 113.543 29.417 108.248 25.1942 100.989C22.3296 96.0641 21.7564 90.7347 23.5373 85.5763C25.3182 80.4179 29.2775 75.9374 34.9893 72.6211C40.5033 69.4198 47.4401 67.5202 54.522 67.2728C57.9632 67.154 61.4071 67.4122 64.7921 68.0428C66.3535 68.3345 67.8983 68.7086 69.4202 69.1635C69.4393 69.1693 69.4568 69.1793 69.4715 69.1927C69.4863 69.2062 69.4978 69.2228 69.5052 69.2413C69.5126 69.2599 69.5158 69.2799 69.5145 69.2998C69.5132 69.3198 69.5074 69.3392 69.4977 69.3567L56.7671 91.7943L64.1567 115.617C64.1622 115.635 64.1637 115.655 64.1612 115.674C64.1586 115.693 64.152 115.711 64.1419 115.727C64.1317 115.743 64.1182 115.757 64.1023 115.768C64.0863 115.778 64.0683 115.785 64.0494 115.788C62.2802 116.056 60.4969 116.222 58.7086 116.284C58.1644 116.303 57.6129 116.312 57.0686 116.312ZM56.158 67.5107C55.618 67.5107 55.0707 67.5205 54.5317 67.5385C39.7055 68.0561 27.3509 75.3398 23.7891 85.6616C22.0347 90.7444 22.6 95.9979 25.4247 100.853C29.5468 107.94 38.1742 113.323 48.5024 115.253C51.8631 115.879 55.2822 116.135 58.6986 116.016C60.4254 115.956 62.1475 115.799 63.8567 115.546L56.4958 91.8165C56.4904 91.7991 56.4887 91.7808 56.4906 91.7627C56.4926 91.7446 56.4982 91.727 56.5072 91.7112L69.1842 69.3692C67.7232 68.9387 66.2412 68.5828 64.744 68.3029C61.9124 67.7756 59.0383 67.5104 56.158 67.5107Z" fill="#141414"/>
<path d="M56.8878 125.575C53.9972 125.575 51.1127 125.308 48.271 124.779C40.7588 123.375 34.0422 120.146 29.3582 115.688C24.7346 111.287 22.246 105.861 22.3508 100.409L22.529 91.1472C22.5289 91.1296 22.5323 91.1121 22.5392 91.0959C22.546 91.0797 22.5561 91.065 22.5688 91.0528C22.5815 91.0406 22.5965 91.0311 22.613 91.0249C22.6295 91.0187 22.6471 91.016 22.6647 91.0168C22.6822 91.0171 22.6994 91.0208 22.7155 91.0278C22.7316 91.0348 22.7461 91.0449 22.7583 91.0575C22.7704 91.0701 22.78 91.0849 22.7864 91.1012C22.7928 91.1175 22.7959 91.1349 22.7956 91.1524C22.6919 96.5285 25.1513 101.885 29.7202 106.234C34.3671 110.657 41.0362 113.861 48.4984 115.255C51.8591 115.881 55.2782 116.137 58.6946 116.018C60.4731 115.957 62.2465 115.792 64.0059 115.525C64.0251 115.522 64.0447 115.524 64.0633 115.529C64.082 115.535 64.0992 115.544 64.1139 115.557C64.1285 115.569 64.1402 115.585 64.1481 115.603C64.156 115.621 64.1599 115.64 64.1596 115.659L63.9811 124.922C63.9804 124.954 63.9687 124.984 63.9479 125.007C63.9272 125.031 63.8988 125.046 63.8677 125.051C62.0981 125.319 60.3145 125.484 58.5259 125.547C57.9827 125.565 57.4318 125.575 56.8878 125.575ZM22.7372 94.1814L22.6174 100.414C22.514 105.791 24.9731 111.146 29.5423 115.495C34.1892 119.919 40.8583 123.122 48.3202 124.517C51.6811 125.142 55.1004 125.398 58.517 125.279C60.2581 125.219 61.9944 125.06 63.7176 124.803L63.8905 115.811C62.1721 116.066 60.4407 116.223 58.7046 116.284C55.2686 116.403 51.83 116.145 48.45 115.516C40.9378 114.113 34.2209 110.884 29.5373 106.427C25.7737 102.844 23.4252 98.5832 22.7372 94.1814Z" fill="#141414"/>
<path d="M66.6802 116.877C66.6519 116.877 66.6242 116.868 66.6014 116.851C66.5786 116.834 66.5618 116.811 66.5535 116.784L59.1486 92.9067C59.1409 92.8819 59.1406 92.8554 59.1477 92.8305C59.1548 92.8056 59.1691 92.7832 59.1887 92.7663C59.2084 92.7494 59.2325 92.7385 59.2582 92.7351C59.2839 92.7317 59.3101 92.7359 59.3334 92.7471L87.8 106.315C87.8187 106.324 87.8351 106.337 87.8478 106.353C87.8606 106.37 87.8693 106.389 87.8734 106.409C87.8774 106.43 87.8765 106.451 87.8708 106.471C87.8651 106.491 87.8548 106.51 87.8406 106.525C83.0319 111.792 75.3276 115.564 66.7008 116.876C66.694 116.877 66.6871 116.877 66.6802 116.877ZM59.4935 93.1176L66.7742 116.595C75.2242 115.289 82.7678 111.608 87.5221 106.477L59.4935 93.1176Z" fill="#141414"/>
<path d="M66.5023 126.141C66.4699 126.141 66.4386 126.129 66.4142 126.108C66.3996 126.095 66.3879 126.079 66.3801 126.062C66.3723 126.044 66.3686 126.025 66.3692 126.005L66.5471 116.743C66.5478 116.712 66.5595 116.681 66.5802 116.658C66.6008 116.634 66.6292 116.618 66.6602 116.613C75.2281 115.312 82.8765 111.569 87.6441 106.346C87.6624 106.327 87.6862 106.313 87.7125 106.307C87.7388 106.301 87.7663 106.303 87.7914 106.313C87.8166 106.323 87.8381 106.34 87.853 106.363C87.8679 106.385 87.8755 106.412 87.8748 106.439L87.6972 115.701C87.6966 115.734 87.6842 115.765 87.6622 115.789C82.8534 121.056 75.1486 124.829 66.5218 126.14C66.5154 126.141 66.5088 126.141 66.5023 126.141ZM66.8114 116.86L66.6385 125.852C75.1219 124.532 82.6905 120.818 87.4323 115.646L87.6021 106.783C82.8009 111.892 75.2526 115.554 66.8114 116.859V116.86Z" fill="#141414"/>
<path d="M66.5019 126.141C66.4735 126.141 66.4458 126.132 66.4229 126.115C66.3999 126.098 66.3829 126.074 66.3744 126.047L63.8591 117.935C63.855 117.921 63.8529 117.907 63.853 117.893L63.8958 115.676L59.0137 99.935C59.0096 99.9213 59.0077 99.907 59.0078 99.8927L59.1432 92.8637C59.1437 92.8319 59.1554 92.8014 59.1764 92.7776C59.1974 92.7538 59.2262 92.7383 59.2576 92.7338C59.289 92.7293 59.321 92.7363 59.3478 92.7533C59.3745 92.7703 59.3944 92.7963 59.4036 92.8267L66.8085 116.705C66.8126 116.718 66.8145 116.732 66.8141 116.746L66.6359 126.009C66.6353 126.041 66.6235 126.071 66.6026 126.095C66.5817 126.118 66.5532 126.134 66.522 126.138C66.5153 126.14 66.5087 126.141 66.5019 126.141ZM64.1198 117.876L66.3841 125.18L66.5467 116.764L59.3928 93.6953L59.2736 99.8777L64.1559 115.617C64.1601 115.63 64.1621 115.644 64.1621 115.659L64.1198 117.876Z" fill="#141414"/>
<path d="M87.7421 106.568C87.7223 106.568 87.7027 106.564 87.6849 106.555L59.2183 92.9866C59.1949 92.9754 59.1753 92.9576 59.1619 92.9354C59.1485 92.9133 59.1418 92.8877 59.1427 92.8618L59.2005 91.0984C59.2013 91.0763 59.2075 91.0548 59.2187 91.0358C59.2298 91.0168 59.2455 91.0008 59.2644 90.9893C59.2832 90.9778 59.3046 90.9712 59.3266 90.97C59.3487 90.9688 59.3706 90.9731 59.3906 90.9825L87.8575 104.551C87.8808 104.562 87.9003 104.58 87.9137 104.602C87.9271 104.624 87.9337 104.65 87.9328 104.676L87.875 106.439C87.8746 106.462 87.8686 106.483 87.8574 106.503C87.8462 106.522 87.8303 106.539 87.8111 106.55C87.7902 106.563 87.7663 106.569 87.7421 106.568ZM59.4114 92.7837L87.6162 106.227L87.6646 104.754L59.4601 91.3105L59.4114 92.7837Z" fill="#141414"/>
<path d="M59.1373 100.028C59.1089 100.028 59.0813 100.019 59.0584 100.003C59.0356 99.9857 59.0186 99.9621 59.01 99.9351L56.4922 91.8186C56.4869 91.8012 56.4851 91.7829 56.4871 91.7648C56.4891 91.7467 56.4947 91.7291 56.5036 91.7133L69.2621 69.2262C69.2765 69.2006 69.2991 69.1806 69.3262 69.1692C69.3533 69.1578 69.3833 69.1557 69.4117 69.1632C69.4402 69.1707 69.4653 69.1874 69.4831 69.2108C69.501 69.2341 69.5107 69.2627 69.5106 69.2921V73.3942C69.5106 73.4172 69.5048 73.4397 69.4936 73.4598L59.4614 91.1409L59.4058 92.8718L59.2705 99.8989C59.27 99.9306 59.2582 99.9611 59.2373 99.9849C59.2163 100.009 59.1876 100.024 59.1562 100.029L59.1373 100.028ZM56.7638 91.7942L59.0203 99.0676L59.1395 92.8637L59.1976 91.0984C59.1983 91.0767 59.2043 91.0555 59.2152 91.0367L69.2454 73.3584V69.7954L56.7638 91.7942Z" fill="#141414"/>
<rect width="15" height="7" transform="translate(97 26)" fill="white"/>
<rect width="15" height="7" transform="translate(97 26)" fill="white"/>
<rect width="6" height="5" transform="translate(113 21)" fill="white"/>
<rect width="6" height="5" transform="translate(17 61)" fill="#86B2FF"/>
<rect width="6" height="5" transform="translate(137 85)" fill="#86B2FF"/>
<rect width="6" height="5" transform="translate(137 85)" fill="#86B2FF"/>
<rect width="7" height="7" transform="translate(129 78)" fill="white"/>
</svg>
