<svg width="168" height="131" viewBox="0 0 168 131" fill="none" xmlns="http://www.w3.org/2000/svg">
<line y1="-0.100007" x2="45.0036" y2="-0.100007" transform="matrix(0.86603 0.499993 -2.2031e-08 1 16.5508 27.5021)" stroke="white" stroke-width="0.200015"/>
<line y1="-0.100008" x2="41.6807" y2="-0.100008" transform="matrix(0.863783 -0.503864 0.503878 0.863774 115.16 49.5032)" stroke="white" stroke-width="0.200015"/>
<rect x="0.690062" width="88.4461" height="88.4461" rx="9.16333" transform="matrix(0.86603 -0.499993 0.86603 0.499993 12.6432 77.7256)" fill="#141414" stroke="#0962FF" stroke-width="0.796811"/>
<rect x="0.690062" width="88.4461" height="88.4461" rx="9.16333" transform="matrix(0.86603 -0.499993 0.86603 0.499993 12.6432 68.961)" fill="#86B2FF" stroke="#0962FF" stroke-width="0.796811"/>
<rect opacity="0.3" width="53.3948" height="47.8249" rx="8.00064" transform="matrix(-0.86603 -0.499993 -0.86603 0.499993 116.711 65.9951)" fill="#141414"/>
<path d="M17.752 76.9683V68.5839C17.752 69.5135 18.6284 71.8507 22.1344 73.7631C25.6404 75.6754 26.7825 76.4191 26.9153 76.5519V85.1573L19.744 80.9343C19.3703 80.654 18.6943 80.0189 18.2153 79.223C17.8121 78.5532 17.752 77.7501 17.752 76.9683Z" fill="#0962FF" stroke="#0962FF" stroke-width="0.796807"/>
<path d="M161.738 68.5839V77.7471" stroke="#0962FF" stroke-width="0.796807"/>
<path d="M81.0996 108.025V116.392" stroke="#0962FF" stroke-width="0.796807"/>
<path d="M98.6289 107.627V116.392" stroke="#0962FF" stroke-width="0.796807"/>
<path d="M156.397 77.7857V74.5599C156.397 74.5599 158.498 73.5549 159.584 72.5679C160.491 71.7446 161.451 69.9966 161.819 69.2891C161.858 69.2142 161.975 69.2428 161.975 69.3273V76.3607C161.975 77.5401 161.849 78.7694 161.178 79.7391C160.322 80.9761 158.93 81.7105 157.627 82.4629L113.369 108.025L153.383 83.2025C155.257 82.0399 156.397 79.9911 156.397 77.7857Z" fill="#0962FF" stroke="#0962FF" stroke-width="0.796807"/>
<path d="M32.8926 88.6632V80.2968L39.2671 84.2808V92.2488L32.8926 88.6632Z" fill="#0962FF" stroke="#0962FF" stroke-width="0.796807"/>
<path d="M81.6406 73.0644C77.4855 73.0644 74.1171 69.533 74.1171 65.1768C74.1171 60.8206 77.4855 57.2892 81.6406 57.2892C85.7957 57.2892 89.1641 60.8206 89.1641 65.1768C89.1641 69.533 85.7957 73.0644 81.6406 73.0644Z" fill="#0962FF" stroke="#141414" stroke-width="0.185698" stroke-miterlimit="10"/>
<path d="M80.8593 72.4628C76.7042 72.4628 73.3359 68.9314 73.3359 64.5752C73.3359 60.219 76.7042 56.6876 80.8593 56.6876C85.0144 56.6876 88.3828 60.219 88.3828 64.5752C88.3828 68.9314 85.0144 72.4628 80.8593 72.4628Z" fill="#D0E1FF" stroke="#141414" stroke-width="0.185698" stroke-miterlimit="10"/>
<path d="M77.7422 66.4402H78.9727C78.9727 67.1047 79.8156 67.6707 80.8185 67.6707C81.8213 67.6707 82.6642 67.1047 82.6642 66.4402C82.6642 65.7634 82.0244 65.5173 80.6708 65.1912C79.3665 64.8652 77.7422 64.4591 77.7422 62.7487C77.7422 61.6474 78.6466 60.7122 79.8956 60.3984V59.0572H81.7413V60.3984C82.9903 60.7122 83.8947 61.6474 83.8947 62.7487H82.6642C82.6642 62.0842 81.8213 61.5182 80.8185 61.5182C79.8156 61.5182 78.9727 62.0842 78.9727 62.7487C78.9727 63.4255 79.6126 63.6716 80.9661 63.9977C82.2705 64.3237 83.8947 64.7298 83.8947 66.4402C83.8947 67.5415 82.9903 68.4767 81.7413 68.7905V70.1317H79.8956V68.7905C78.6466 68.4767 77.7422 67.5415 77.7422 66.4402Z" fill="#141414"/>
<path d="M102.994 57.2787C98.839 57.2787 95.4706 53.7473 95.4706 49.3911C95.4706 45.0349 98.839 41.5035 102.994 41.5035C107.149 41.5035 110.518 45.0349 110.518 49.3911C110.518 53.7473 107.149 57.2787 102.994 57.2787Z" fill="#0962FF" stroke="#141414" stroke-width="0.185698" stroke-miterlimit="10"/>
<path d="M102.215 56.6771C98.0597 56.6771 94.6913 53.1457 94.6913 48.7895C94.6913 44.4333 98.0597 40.9019 102.215 40.9019C106.37 40.9019 109.738 44.4333 109.738 48.7895C109.738 53.1457 106.37 56.6771 102.215 56.6771Z" fill="#D0E1FF" stroke="#141414" stroke-width="0.185698" stroke-miterlimit="10"/>
<path d="M99.0957 50.6546H100.326C100.326 51.319 101.169 51.8851 102.172 51.8851C103.175 51.8851 104.018 51.319 104.018 50.6546C104.018 49.9778 103.378 49.7317 102.024 49.4056C100.72 49.0795 99.0957 48.6735 99.0957 46.9631C99.0957 45.8618 100 44.9266 101.249 44.6128V43.2715H103.095V44.6128C104.344 44.9266 105.248 45.8618 105.248 46.9631H104.018C104.018 46.2986 103.175 45.7326 102.172 45.7326C101.169 45.7326 100.326 46.2986 100.326 46.9631C100.326 47.6398 100.966 47.8859 102.32 48.212C103.624 48.5381 105.248 48.9442 105.248 50.6546C105.248 51.7559 104.344 52.691 103.095 53.0048V54.3461H101.249V53.0048C100 52.691 99.0957 51.7559 99.0957 50.6546Z" fill="#141414"/>
<path d="M96.4941 66.5644C92.339 66.5644 88.9706 63.033 88.9706 58.6768C88.9706 54.3206 92.339 50.7892 96.4941 50.7892C100.649 50.7892 104.018 54.3206 104.018 58.6768C104.018 63.033 100.649 66.5644 96.4941 66.5644Z" fill="#0962FF" stroke="#141414" stroke-width="0.185698" stroke-miterlimit="10"/>
<path d="M95.7148 65.9627C91.5597 65.9627 88.1913 62.4313 88.1913 58.0751C88.1913 53.719 91.5597 50.1876 95.7148 50.1876C99.8699 50.1876 103.238 53.719 103.238 58.0751C103.238 62.4313 99.8699 65.9627 95.7148 65.9627Z" fill="#D0E1FF" stroke="#141414" stroke-width="0.185698" stroke-miterlimit="10"/>
<path d="M92.5957 59.9402H93.8262C93.8262 60.6047 94.6691 61.1707 95.672 61.1707C96.6748 61.1707 97.5177 60.6047 97.5177 59.9402C97.5177 59.2634 96.8779 59.0173 95.5243 58.6912C94.22 58.3651 92.5957 57.9591 92.5957 56.2487C92.5957 55.1474 93.5001 54.2122 94.7491 53.8984V52.5572H96.5949V53.8984C97.8438 54.2122 98.7483 55.1474 98.7483 56.2487H97.5177C97.5177 55.5842 96.6748 55.0182 95.672 55.0182C94.6691 55.0182 93.8262 55.5842 93.8262 56.2487C93.8262 56.9254 94.4661 57.1715 95.8196 57.4976C97.124 57.8237 98.7483 58.2298 98.7483 59.9402C98.7483 61.0415 97.8438 61.9767 96.5949 62.2904V63.6317H94.7491V62.2904C93.5001 61.9767 92.5957 61.0415 92.5957 59.9402Z" fill="#141414"/>
<path d="M103.93 73.9929C99.7746 73.9929 96.4062 70.4616 96.4062 66.1054C96.4062 61.7492 99.7746 58.2178 103.93 58.2178C108.085 58.2178 111.453 61.7492 111.453 66.1054C111.453 70.4616 108.085 73.9929 103.93 73.9929Z" fill="#0962FF" stroke="#141414" stroke-width="0.185698" stroke-miterlimit="10"/>
<path d="M103.144 73.3912C98.9894 73.3912 95.621 69.8598 95.621 65.5036C95.621 61.1474 98.9894 57.616 103.144 57.616C107.3 57.616 110.668 61.1474 110.668 65.5036C110.668 69.8598 107.3 73.3912 103.144 73.3912Z" fill="#D0E1FF" stroke="#141414" stroke-width="0.185698" stroke-miterlimit="10"/>
<path d="M100.027 67.3687H101.258C101.258 68.0331 102.101 68.5992 103.104 68.5992C104.106 68.5992 104.949 68.0331 104.949 67.3687C104.949 66.6919 104.31 66.4458 102.956 66.1197C101.652 65.7936 100.027 65.3876 100.027 63.6772C100.027 62.5759 100.932 61.6407 102.181 61.3269V59.9857H104.027V61.3269C105.275 61.6407 106.18 62.5759 106.18 63.6772H104.949C104.949 63.0127 104.106 62.4467 103.104 62.4467C102.101 62.4467 101.258 63.0127 101.258 63.6772C101.258 64.3539 101.898 64.6 103.251 64.9261C104.556 65.2522 106.18 65.6583 106.18 67.3687C106.18 68.47 105.275 69.4052 104.027 69.7189V71.0602H102.181V69.7189C100.932 69.4052 100.027 68.47 100.027 67.3687Z" fill="#141414"/>
<path d="M65.8535 66.5644C61.6984 66.5644 58.33 63.033 58.33 58.6768C58.33 54.3206 61.6984 50.7892 65.8535 50.7892C70.0086 50.7892 73.377 54.3206 73.377 58.6768C73.377 63.033 70.0086 66.5644 65.8535 66.5644Z" fill="#0962FF" stroke="#141414" stroke-width="0.185698" stroke-miterlimit="10"/>
<path d="M65.0742 65.9627C60.9191 65.9627 57.5507 62.4313 57.5507 58.0751C57.5507 53.719 60.9191 50.1876 65.0742 50.1876C69.2293 50.1876 72.5977 53.719 72.5977 58.0751C72.5977 62.4313 69.2293 65.9627 65.0742 65.9627Z" fill="#D0E1FF" stroke="#141414" stroke-width="0.185698" stroke-miterlimit="10"/>
<path d="M61.9531 59.9401H63.1836C63.1836 60.6046 64.0265 61.1707 65.0294 61.1707C66.0323 61.1707 66.8752 60.6046 66.8752 59.9401C66.8752 59.2634 66.2353 59.0173 64.8817 58.6912C63.5774 58.3651 61.9531 57.959 61.9531 56.2486C61.9531 55.1473 62.8576 54.2122 64.1065 53.8984V52.5571H65.9523V53.8984C67.2013 54.2122 68.1057 55.1473 68.1057 56.2486H66.8752C66.8752 55.5842 66.0323 55.0181 65.0294 55.0181C64.0265 55.0181 63.1836 55.5842 63.1836 56.2486C63.1836 56.9254 63.8235 57.1715 65.1771 57.4976C66.4814 57.8237 68.1057 58.2297 68.1057 59.9401C68.1057 61.0414 67.2013 61.9766 65.9523 62.2904V63.6317H64.1065V62.2904C62.8576 61.9766 61.9531 61.0414 61.9531 59.9401Z" fill="#141414"/>
<path d="M88.1406 55.4215C83.9855 55.4215 80.6171 51.8901 80.6171 47.5339C80.6171 43.1777 83.9855 39.6463 88.1406 39.6463C92.2957 39.6463 95.6641 43.1777 95.6641 47.5339C95.6641 51.8901 92.2957 55.4215 88.1406 55.4215Z" fill="#0962FF" stroke="#141414" stroke-width="0.185698" stroke-miterlimit="10"/>
<path d="M87.3593 54.8198C83.2042 54.8198 79.8359 51.2884 79.8359 46.9322C79.8359 42.576 83.2042 39.0446 87.3593 39.0446C91.5144 39.0446 94.8828 42.576 94.8828 46.9322C94.8828 51.2884 91.5144 54.8198 87.3593 54.8198Z" fill="#D0E1FF" stroke="#141414" stroke-width="0.185698" stroke-miterlimit="10"/>
<path d="M84.2422 48.7973H85.4727C85.4727 49.4617 86.3156 50.0278 87.3185 50.0278C88.3213 50.0278 89.1642 49.4617 89.1642 48.7973C89.1642 48.1205 88.5244 47.8744 87.1708 47.5483C85.8665 47.2222 84.2422 46.8162 84.2422 45.1058C84.2422 44.0045 85.1466 43.0693 86.3956 42.7555V41.4142H88.2413V42.7555C89.4903 43.0693 90.3947 44.0045 90.3947 45.1058H89.1642C89.1642 44.4413 88.3213 43.8753 87.3185 43.8753C86.3156 43.8753 85.4727 44.4413 85.4727 45.1058C85.4727 45.7825 86.1126 46.0286 87.4661 46.3547C88.7705 46.6808 90.3947 47.0869 90.3947 48.7973C90.3947 49.8986 89.4903 50.8337 88.2413 51.1475V52.4888H86.3956V51.1475C85.1466 50.8337 84.2422 49.8986 84.2422 48.7973Z" fill="#141414"/>
<path d="M86.5641 3.09846C88.1112 2.20526 90.0173 2.20526 91.5644 3.09846L123.239 21.3856C124.786 22.2788 125.74 23.9296 125.74 25.7161V62.2901C125.74 64.0766 124.786 65.7274 123.239 66.6206L91.5644 84.9077C90.0173 85.8009 88.1112 85.8009 86.5641 84.9077L54.8892 66.6206C53.3421 65.7274 52.389 64.0766 52.389 62.2901V25.7161C52.389 23.9296 53.3421 22.2788 54.8892 21.3856L86.5641 3.09846Z" stroke="#0962FF" stroke-width="2.00015"/>
<path d="M56.0612 25.9019L86.5636 43.5029" stroke="#0962FF" stroke-width="2.00015" stroke-linecap="round"/>
<path d="M122.566 25.9019L92.0633 43.5029" stroke="#0962FF" stroke-width="2.00015" stroke-linecap="round"/>
<path d="M89.0645 46.5032L89.0645 81.5055" stroke="#0962FF" stroke-width="2.00015" stroke-linecap="round"/>
<rect x="-5.53481e-08" y="0.928573" width="31.2059" height="5.57153" rx="2.78576" transform="matrix(0.86603 0.499992 -0.86603 0.499992 79.1792 13.6833)" stroke="#0962FF" stroke-width="1.85718"/>
<rect width="2.62316" height="2.62312" transform="matrix(-0.866028 0.499996 2.20308e-08 1 121.834 32.5023)" fill="white"/>
<rect width="2.62316" height="2.62312" transform="matrix(-0.86603 0.499993 2.2031e-08 1 121.834 36.0435)" fill="white"/>
<rect width="2.62316" height="2.62312" transform="matrix(-0.86603 0.499993 2.2031e-08 1 121.834 39.5847)" fill="white"/>
<path d="M71.6985 53.7382C72.2565 56.0621 71.3263 58.4114 69.6207 58.9856C67.9151 59.5598 66.0801 58.1414 65.5221 55.8175C64.9641 53.4936 65.8943 51.1442 67.5999 50.57C69.3055 49.9959 71.1405 51.4143 71.6985 53.7382Z" stroke="white" stroke-width="0.800058"/>
<path d="M69.7383 54.3981C69.9422 55.2472 69.6023 56.1057 68.9791 56.3155C68.3559 56.5253 67.6854 56.007 67.4815 55.1578C67.2776 54.3087 67.6175 53.4503 68.2407 53.2405C68.8639 53.0307 69.5344 53.5489 69.7383 54.3981Z" stroke="white" stroke-width="0.600044"/>
<path d="M68.5625 54.5035L59.0694 59.9281C58.4462 60.2842 58.0616 60.9469 58.0616 61.6647L58.0616 81.9037C58.0616 82.5896 57.7102 83.2276 57.1304 83.5942L24.0587 104.507" stroke="white" stroke-width="0.200015"/>
<ellipse cx="23.0589" cy="106.007" rx="3.5003" ry="3.50023" fill="#0962FF"/>
<path d="M113.906 52.5673C113.906 54.9572 112.228 57.8634 110.159 59.0583C108.089 60.2533 106.411 59.2846 106.411 56.8946C106.411 54.5047 108.089 51.5986 110.159 50.4036C112.228 49.2086 113.906 50.1773 113.906 52.5673Z" stroke="white" stroke-width="0.800058"/>
<path d="M111.528 53.9403C111.528 54.8136 110.915 55.8755 110.159 56.3121C109.402 56.7487 108.789 56.3948 108.789 55.5215C108.789 54.6482 109.402 53.5863 110.159 53.1497C110.915 52.7131 111.528 53.067 111.528 53.9403Z" stroke="white" stroke-width="0.600044"/>
<path d="M110.061 54.5037L119.554 59.9282C120.177 60.2843 120.561 60.9471 120.561 61.6649V81.9039C120.561 82.5898 120.913 83.2278 121.493 83.5944L154.564 104.507" stroke="white" stroke-width="0.200015"/>
<ellipse cx="156.063" cy="106.007" rx="3.5003" ry="3.50023" fill="#0962FF"/>
<rect x="14.3516" y="23.5017" width="6.00051" height="6.00039" fill="#86B2FF"/>
<rect x="152.562" y="21.5015" width="6.00051" height="6.00039" fill="#86B2FF"/>
<rect x="151.163" y="19.7015" width="8.60074" height="8.60056" stroke="#86B2FF" stroke-width="0.40003"/>
<path d="M110.447 16.877C106.292 16.877 102.924 13.3456 102.924 8.98945C102.924 4.63326 106.292 1.10187 110.447 1.10187C114.602 1.10187 117.971 4.63326 117.971 8.98945C117.971 13.3456 114.602 16.877 110.447 16.877Z" fill="#0962FF" stroke="#141414" stroke-width="0.185698" stroke-miterlimit="10"/>
<path d="M109.668 16.2754C105.513 16.2754 102.144 12.744 102.144 8.38783C102.144 4.03164 105.513 0.500244 109.668 0.500244C113.823 0.500244 117.191 4.03164 117.191 8.38783C117.191 12.744 113.823 16.2754 109.668 16.2754Z" fill="#D0E1FF" stroke="#141414" stroke-width="0.185698" stroke-miterlimit="10"/>
<path d="M106.547 10.2529H107.777C107.777 10.9174 108.62 11.4834 109.623 11.4834C110.626 11.4834 111.469 10.9174 111.469 10.2529C111.469 9.57612 110.829 9.33002 109.475 9.00393C108.171 8.67785 106.547 8.27178 106.547 6.56138C106.547 5.46008 107.451 4.5249 108.7 4.21112V2.86987H110.546V4.21112C111.795 4.5249 112.699 5.46008 112.699 6.56138H111.469C111.469 5.89691 110.626 5.33088 109.623 5.33088C108.62 5.33088 107.777 5.89691 107.777 6.56138C107.777 7.23816 108.417 7.48426 109.771 7.81034C111.075 8.13643 112.699 8.54249 112.699 10.2529C112.699 11.3542 111.795 12.2894 110.546 12.6032V13.9444H108.7V12.6032C107.451 12.2894 106.547 11.3542 106.547 10.2529Z" fill="#141414"/>
<path d="M91.8652 27.0912C87.7101 27.0912 84.3417 23.5598 84.3417 19.2036C84.3417 14.8474 87.7101 11.316 91.8652 11.316C96.0203 11.316 99.3887 14.8474 99.3887 19.2036C99.3887 23.5598 96.0203 27.0912 91.8652 27.0912Z" fill="#0962FF" stroke="#141414" stroke-width="0.185698" stroke-miterlimit="10"/>
<path d="M91.0839 26.4896C86.9288 26.4896 83.5605 22.9582 83.5605 18.602C83.5605 14.2458 86.9288 10.7144 91.0839 10.7144C95.239 10.7144 98.6074 14.2458 98.6074 18.602C98.6074 22.9582 95.239 26.4896 91.0839 26.4896Z" fill="#D0E1FF" stroke="#141414" stroke-width="0.185698" stroke-miterlimit="10"/>
<path d="M87.9648 20.4671H89.1954C89.1954 21.1315 90.0383 21.6976 91.0411 21.6976C92.044 21.6976 92.8869 21.1315 92.8869 20.4671C92.8869 19.7903 92.247 19.5442 90.8935 19.2181C89.5891 18.892 87.9648 18.486 87.9648 16.7756C87.9648 15.6743 88.8693 14.7391 90.1182 14.4253V13.084H91.964V14.4253C93.213 14.7391 94.1174 15.6743 94.1174 16.7756H92.8869C92.8869 16.1111 92.044 15.5451 91.0411 15.5451C90.0383 15.5451 89.1954 16.1111 89.1954 16.7756C89.1954 17.4523 89.8352 17.6984 91.1888 18.0245C92.4931 18.3506 94.1174 18.7567 94.1174 20.4671C94.1174 21.5684 93.213 22.5035 91.964 22.8173V24.1586H90.1182V22.8173C88.8693 22.5035 87.9648 21.5684 87.9648 20.4671Z" fill="#141414"/>
<line y1="-0.742866" x2="18.5718" y2="-0.742866" transform="matrix(0.86603 0.499992 -0.500008 0.866021 80.6875 21.8574)" stroke="#0962FF" stroke-width="1.48573"/>
</svg>
