<svg width="134" height="141" viewBox="0 0 134 141" fill="none" xmlns="http://www.w3.org/2000/svg">
<path d="M97.1485 0.5L91.044 3.97531L94.1839 9.3283L77.2614 18.9151L54.9768 5.39511L35.9297 16.1885L35.9367 16.2003L29.8262 19.6639L36.3024 30.7009L52.5403 21.5022L74.823 35.0242L100.667 20.3831L103.815 25.7479L109.92 22.2725L110.657 7.35139L97.1485 0.5Z" fill="white"/>
<path d="M30.1384 19.7477L48.8683 9.13341L71.0382 22.5844L71.1519 22.6534L71.2677 22.5879L94.3027 9.53946L94.5031 9.42597L94.3866 9.22734L91.6305 4.52716L104.32 10.9625L103.626 24.9776L100.863 20.2683L100.75 20.0756L100.555 20.1857L74.8269 34.7613L52.658 21.3083L52.5443 21.2393L52.4285 21.3049L36.385 30.3935L30.1384 19.7477Z" fill="#86B2FF" stroke="#141414" stroke-width="0.453689"/>
<path d="M48.8711 8.87027L54.9746 5.39496L77.2593 18.915L71.1538 22.3903L48.8711 8.87027ZM110.654 7.35124L104.549 10.8266L103.811 25.7477L109.916 22.2724L110.654 7.35124Z" fill="#0962FF"/>
<path d="M103.814 26.0111C103.765 26.0107 103.717 25.9975 103.675 25.9728C103.634 25.9478 103.601 25.9127 103.579 25.8709C103.556 25.8291 103.545 25.7822 103.547 25.735L104.287 10.8139C104.289 10.7699 104.302 10.7272 104.325 10.6896C104.348 10.652 104.381 10.6207 104.419 10.5987L110.524 7.12337C110.565 7.09981 110.612 7.0877 110.66 7.08833C110.708 7.08896 110.755 7.1023 110.796 7.12694C110.836 7.15158 110.87 7.18661 110.892 7.22835C110.914 7.27009 110.925 7.31698 110.922 7.3641L110.185 22.2853C110.183 22.3293 110.169 22.372 110.146 22.4096C110.123 22.4471 110.09 22.4784 110.051 22.5004L103.946 25.9757C103.906 25.9988 103.861 26.011 103.814 26.0111ZM104.811 10.9829L104.102 25.2791L109.657 22.1192L110.363 7.82197L104.811 10.9829ZM71.1552 22.6527C71.106 22.6528 71.0577 22.6396 71.0157 22.6144L48.732 9.09439C48.6927 9.07042 48.6604 9.03683 48.6383 8.99688C48.6161 8.95692 48.6048 8.91199 48.6055 8.86645C48.6062 8.82091 48.6189 8.77633 48.6423 8.73706C48.6657 8.69779 48.699 8.66518 48.739 8.64241L54.8425 5.1671C54.8839 5.14297 54.931 5.13025 54.9791 5.13025C55.0271 5.13025 55.0742 5.14297 55.1156 5.1671L77.4002 18.6871C77.4396 18.711 77.4719 18.7445 77.4942 18.7844C77.5165 18.8243 77.5278 18.8692 77.5272 18.9148C77.5266 18.9603 77.5141 19.0049 77.4908 19.0442C77.4675 19.0836 77.4342 19.1162 77.3943 19.1391L71.2917 22.6174C71.2502 22.6409 71.2031 22.6531 71.1552 22.6527ZM49.3927 8.87724L71.1602 22.0838L76.7406 18.9082L54.9711 5.70161L49.3927 8.87724Z" fill="#141414"/>
<rect x="0.594413" width="76.1869" height="76.1869" rx="7.89324" transform="matrix(0.866026 -0.5 0.866025 0.5 0.413621 102.361)" fill="#141414" stroke="#0962FF" stroke-width="0.686369"/>
<rect x="0.594413" width="76.1869" height="76.1869" rx="7.89324" transform="matrix(0.866026 -0.5 0.866025 0.5 0.413621 94.811)" fill="#86B2FF" stroke="#0962FF" stroke-width="0.686369"/>
<circle opacity="0.3" cx="17.1253" cy="17.1253" r="17.1253" transform="matrix(0.866026 0.5 -0.866026 0.5 65.1582 82.1641)" fill="#141414"/>
<path d="M4.81641 101.709V94.4862C4.81641 95.287 5.57141 97.3003 8.59143 98.9476C11.6115 100.595 12.5953 101.235 12.7096 101.35V108.763L6.53233 105.125C6.21043 104.883 5.62812 104.336 5.21551 103.651C4.86824 103.074 4.81641 102.382 4.81641 101.709Z" fill="#0962FF" stroke="#0962FF" stroke-width="0.686369"/>
<path d="M128.842 94.4862V102.379" stroke="#0962FF" stroke-width="0.686369"/>
<path d="M59.3828 128.461V135.668" stroke="#0962FF" stroke-width="0.686369"/>
<path d="M74.4824 128.118V135.668" stroke="#0962FF" stroke-width="0.686369"/>
<path d="M124.244 102.413V99.6339C124.244 99.6339 126.053 98.7682 126.989 97.918C127.77 97.2088 128.597 95.7031 128.914 95.0937C128.947 95.0291 129.048 95.0538 129.048 95.1266V101.185C129.048 102.201 128.94 103.26 128.362 104.095C127.624 105.161 126.426 105.793 125.303 106.442L87.1797 128.461L121.647 107.079C123.262 106.077 124.244 104.312 124.244 102.413Z" fill="#0962FF" stroke="#0962FF" stroke-width="0.686369"/>
<path d="M17.8574 111.782V104.576L23.3484 108.007V114.871L17.8574 111.782Z" fill="#0962FF" stroke="#0962FF" stroke-width="0.686369"/>
<path d="M66.9955 102.168C48.1074 102.168 32.7956 86.1147 32.7956 66.3122C32.7956 46.5096 48.1074 30.4564 66.9955 30.4564C85.8835 30.4564 101.195 46.5096 101.195 66.3122C101.195 86.1147 85.8835 102.168 66.9955 102.168Z" fill="#0962FF" stroke="#141414" stroke-width="0.844146" stroke-miterlimit="10"/>
<path d="M63.4486 99.4328C44.5605 99.4328 29.2488 83.3796 29.2488 63.5771C29.2488 43.7745 44.5605 27.7213 63.4486 27.7213C82.3366 27.7213 97.6484 43.7745 97.6484 63.5771C97.6484 83.3796 82.3366 99.4328 63.4486 99.4328Z" fill="white" stroke="#141414" stroke-width="0.844146" stroke-miterlimit="10"/>
<path d="M49.2578 72.0555H54.8514C54.8514 75.0761 58.683 77.6492 63.2418 77.6492C67.8006 77.6492 71.6322 75.0761 71.6322 72.0555C71.6322 68.979 68.7235 67.8602 62.5706 66.3779C56.6414 64.8956 49.2578 63.0497 49.2578 55.2744C49.2578 50.2681 53.3691 46.0169 59.0466 44.5905V38.4934H67.437V44.5905C73.1145 46.0169 77.2258 50.2681 77.2258 55.2744H71.6322C71.6322 52.2539 67.8006 49.6808 63.2418 49.6808C58.683 49.6808 54.8514 52.2539 54.8514 55.2744C54.8514 58.351 57.7601 59.4697 63.913 60.952C69.8422 62.4344 77.2258 64.2803 77.2258 72.0555C77.2258 77.0618 73.1145 81.313 67.437 82.7394V88.8365H59.0466V82.7394C53.3691 81.313 49.2578 77.0618 49.2578 72.0555Z" fill="#141414"/>
<g clip-path="url(#clip0_1237_9464)">
<path d="M92.3744 98.5058L97.168 95.7403V89.7483L92.3744 92.5138V98.5058Z" fill="#141414"/>
<path d="M92.0974 77.3527L80.1871 80.6191L92.0974 97.6288V92.514V92.0349L92.5122 92.2745L111.493 103.235V94.3422L92.2356 83.2216L92.0974 83.1418V82.9821V77.3527Z" fill="white" stroke="#141414" stroke-width="0.553107"/>
<path d="M111.769 94.1825L116.562 91.417V100.949L111.769 103.714V94.1825Z" fill="#141414"/>
<path d="M92.3744 82.9821L97.168 80.2166V74.2246L92.3744 76.9901V82.9821Z" fill="#141414"/>
<path d="M96.3468 74.5674L84.5735 77.7963L80.5571 80.1135L92.3303 76.8846L96.3468 74.5674Z" fill="#0962FF" stroke="#141414" stroke-width="0.226845"/>
<path d="M111.769 94.0518L116.336 91.4172L97.1669 80.3478L92.6002 82.9824L111.769 94.0518Z" fill="#0962FF" stroke="#141414" stroke-width="0.226845"/>
</g>
<defs>
<clipPath id="clip0_1237_9464">
<rect width="36.8277" height="29.4898" fill="white" transform="matrix(-1 0 0 1 116.562 74.2246)"/>
</clipPath>
</defs>
</svg>
