<svg width="120" height="141" viewBox="0 0 120 141" fill="none" xmlns="http://www.w3.org/2000/svg">
<rect x="0.52407" width="67.171" height="67.171" rx="6.95916" transform="matrix(0.866026 -0.5 0.866025 0.5 2.3749 107.09)" fill="#141414" stroke="#0962FF" stroke-width="0.605144"/>
<rect x="0.52407" width="67.171" height="67.171" rx="6.95916" transform="matrix(0.866026 -0.5 0.866025 0.5 2.3749 100.434)" fill="#86B2FF" stroke="#0962FF" stroke-width="0.605144"/>
<rect opacity="0.5" width="66.8735" height="20.8441" rx="10.4221" transform="matrix(-0.866026 -0.5 -0.866025 0.5 97.7285 112.521)" fill="#141414"/>
<path d="M6.25586 106.515V100.148C6.25586 100.854 6.92152 102.629 9.58415 104.081C12.2468 105.533 13.1142 106.098 13.215 106.199V112.735L7.76872 109.527C7.48492 109.314 6.97152 108.832 6.60773 108.228C6.30156 107.719 6.25586 107.109 6.25586 106.515Z" fill="#0962FF" stroke="#0962FF" stroke-width="0.605144"/>
<path d="M115.605 100.148V107.107" stroke="#0962FF" stroke-width="0.605144"/>
<path d="M54.3652 130.102V136.456" stroke="#0962FF" stroke-width="0.605144"/>
<path d="M67.6777 129.799V136.456" stroke="#0962FF" stroke-width="0.605144"/>
<path d="M111.551 107.136V104.686C111.551 104.686 113.146 103.923 113.971 103.173C114.66 102.548 115.389 101.221 115.668 100.683C115.698 100.626 115.787 100.648 115.787 100.712V106.054C115.787 106.95 115.692 107.883 115.182 108.62C114.531 109.559 113.475 110.117 112.485 110.688L78.873 130.102L109.262 111.25C110.685 110.367 111.551 108.811 111.551 107.136Z" fill="#0962FF" stroke="#0962FF" stroke-width="0.605144"/>
<path d="M17.7539 115.397V109.043L22.5951 112.069V118.12L17.7539 115.397Z" fill="#0962FF" stroke="#0962FF" stroke-width="0.605144"/>
<circle opacity="0.3" cx="11.3498" cy="11.3498" r="11.3498" transform="matrix(0.866026 0.5 -0.866026 0.5 60.9629 90.2838)" fill="#141414"/>
<path d="M69.2714 29.28C68.7007 27.0116 67.498 24.9518 65.8029 23.34C63.5395 21.1989 61.38 20.7157 59.9608 21.5048L57.9727 22.7283L58.4804 23.5908C58.3428 24.1097 58.2749 24.6446 58.2785 25.1814C58.2785 28.7967 60.8111 33.1829 63.9371 34.9692C64.4477 35.2711 65.0001 35.4958 65.5766 35.636L65.9987 36.3578C66.0226 36.3954 66.0603 36.4223 66.1037 36.4325C66.1471 36.4428 66.1928 36.4358 66.2311 36.4129L68.1703 35.1894C69.4427 34.3085 70.0116 32.2286 69.2714 29.28Z" fill="white"/>
<path d="M66.1461 36.7247H66.0421C65.9859 36.711 65.9331 36.686 65.8869 36.6513C65.8406 36.6167 65.8019 36.5729 65.7729 36.5229L65.4059 35.9111C64.845 35.7649 64.3075 35.5405 63.8093 35.2443C60.616 33.4091 58.0161 28.9006 58.0161 25.2118C58.0135 24.6883 58.0751 24.1665 58.1996 23.658L57.5879 22.667L59.9003 21.2478C61.5336 20.4036 63.7848 21.1193 65.9442 23.1686C67.6794 24.8133 68.9101 26.9183 69.4923 29.2371C70.2019 32.0755 69.7492 34.4063 68.2688 35.4646L66.3174 36.688C66.2639 36.7135 66.2053 36.726 66.1461 36.7247ZM58.3342 22.8199L58.7624 23.5601V23.6641C58.6304 24.161 58.5645 24.6732 58.5667 25.1874C58.5667 28.711 61.0503 33.0054 64.0723 34.7672C64.5615 35.0468 65.0892 35.2529 65.6384 35.3789H65.7485L66.1767 36.113L68.0119 34.9568C69.2782 34.0392 69.6514 31.8981 68.9968 29.2982C68.4435 27.0765 67.2653 25.0598 65.6016 23.4867C63.5707 21.5598 61.503 20.8869 60.096 21.6943L58.3342 22.8199Z" fill="#141414"/>
<path d="M62.371 27.2674L61.0741 28.0994C61.0741 28.0994 60.9334 30.0936 60.7988 32.0695C61.6391 33.2408 62.7063 34.231 63.937 34.9814C64.4476 35.2834 65.0001 35.5081 65.5765 35.6482L65.9435 36.2599C65.9619 36.2914 65.9862 36.319 66.0153 36.341C66.0443 36.363 66.0774 36.379 66.1127 36.3881C66.148 36.3972 66.1847 36.3992 66.2208 36.394C66.2569 36.3888 66.2915 36.3765 66.3228 36.3578L68.158 35.2078C69.0451 34.596 69.5895 33.3725 69.5895 31.7025C69.4862 29.2701 68.6527 26.9252 67.1976 24.9734L64.4754 26.4721L62.371 27.2674Z" fill="#0962FF"/>
<path d="M66.182 36.6636C66.1394 36.6696 66.0962 36.6696 66.0536 36.6636C65.9835 36.6465 65.9177 36.6154 65.8599 36.5723C65.8021 36.5293 65.7535 36.475 65.7171 36.4128L65.4051 35.8806C64.8442 35.7344 64.3067 35.5099 63.8085 35.2138C62.5424 34.4478 61.4455 33.4321 60.5846 32.2285L60.5234 32.149V32.0572C60.658 30.0813 60.7987 28.0871 60.7987 28.0871V27.9586L62.2669 27.0104L64.3774 26.2641L67.2893 24.6613L67.4238 24.851C68.9058 26.8436 69.758 29.2339 69.8708 31.7147C69.8708 33.3969 69.3202 34.7183 68.3292 35.434L66.494 36.5902C66.4005 36.6473 66.2912 36.673 66.182 36.6636ZM61.0679 31.9838C61.8747 33.0965 62.896 34.0367 64.0715 34.7489C64.5607 35.0285 65.0884 35.2346 65.6376 35.3606H65.7477L66.1759 36.0886L68.0111 34.9385C68.8492 34.3268 69.3141 33.1645 69.3141 31.6596C69.2127 29.3702 68.4475 27.1597 67.1118 25.2975L64.5548 26.6984L62.4749 27.4875L61.3065 28.2461C61.2942 28.711 61.178 30.3627 61.0679 32.0022V31.9838Z" fill="#141414"/>
<path d="M69.027 28.5581L66.9838 29.6837L64.8672 30.43L63.5704 31.2803C63.5704 31.2803 63.4541 32.8647 63.3379 34.6021C63.5336 34.7428 63.7355 34.8774 63.9496 34.9936C64.4602 35.2956 65.0127 35.5203 65.5891 35.6604L65.999 36.3516C66.0116 36.3744 66.0287 36.3944 66.0493 36.4102C66.07 36.4261 66.0937 36.4375 66.1189 36.4438C66.1441 36.4501 66.1704 36.4512 66.1961 36.4469C66.2218 36.4426 66.2463 36.4331 66.2681 36.4189L68.1828 35.2322C69.0699 34.6204 69.6143 33.397 69.6143 31.7269C69.5905 30.6459 69.3922 29.5759 69.027 28.5581Z" fill="#141414"/>
<path d="M66.1457 36.7125C66.1071 36.7185 66.0679 36.7185 66.0294 36.7125C65.9704 36.6979 65.915 36.6713 65.8666 36.6345C65.8183 36.5977 65.7779 36.5514 65.748 36.4984L65.3932 35.8867C64.8323 35.7405 64.2949 35.516 63.7966 35.2199C63.5861 35.0978 63.3819 34.9651 63.1849 34.8223L63.0625 34.7366V34.5898C63.1787 32.8463 63.295 31.2619 63.295 31.2619V31.1579L64.7631 30.2098L66.8553 29.4757L69.2043 28.1727L69.3022 28.4724C69.6827 29.5165 69.8894 30.6159 69.914 31.7269C69.914 33.4091 69.3634 34.7305 68.3724 35.4462L66.4454 36.6697C66.3527 36.7157 66.2476 36.7307 66.1457 36.7125ZM63.5947 34.4736C63.766 34.5898 63.9189 34.6816 64.0596 34.7672C64.5488 35.0468 65.0765 35.2529 65.6257 35.3789H65.7358L66.164 36.113L67.9992 34.9568C68.8373 34.3451 69.3022 33.1828 69.3022 31.6779C69.29 30.7323 69.1353 29.794 68.8434 28.8945L67.0694 29.9345L64.9895 30.6686L63.8211 31.4271C63.7966 31.8247 63.6987 33.0849 63.607 34.4736H63.5947Z" fill="#141414"/>
<path d="M67.6929 32.8952C67.6929 36.5045 65.1603 37.9665 62.0343 36.1619C58.9084 34.3573 56.3574 29.9711 56.3574 26.3558C56.3574 22.7404 58.89 21.2844 62.016 23.0891C65.142 24.8937 67.6929 29.286 67.6929 32.8952Z" fill="#0962FF"/>
<path d="M64.5616 37.2021C63.6185 37.1696 62.7006 36.889 61.9006 36.3884C58.7073 34.5532 56.1074 30.0447 56.1074 26.3559C56.1074 24.5207 56.7192 23.1321 57.8998 22.4653C59.0805 21.7985 60.567 21.9392 62.182 22.8629C65.3752 24.6981 67.9751 29.2066 67.9751 32.8954C67.9751 34.7306 67.3634 36.1193 66.1889 36.7861C65.6932 37.0672 65.1314 37.2108 64.5616 37.2021ZM59.5087 22.5938C59.0375 22.585 58.5726 22.7034 58.1629 22.9363C57.178 23.5052 56.6396 24.7226 56.6396 26.3682C56.6396 29.8918 59.1172 34.1862 62.1453 35.948C63.5767 36.7677 64.9042 36.9084 65.8891 36.3456C66.874 35.7828 67.4123 34.5532 67.4123 32.9077C67.4123 29.384 64.9348 25.0896 61.9067 23.334C61.1865 22.8804 60.3593 22.625 59.5087 22.5938Z" fill="#141414"/>
<path d="M65.7914 31.7696C65.7914 34.1677 64.1091 35.1342 62.0354 33.9352C60.9488 33.2289 60.0431 32.2777 59.3908 31.1579C58.7384 30.0381 58.3578 28.781 58.2793 27.4875C58.2793 25.0956 59.9616 24.1229 62.0354 25.3219C63.1209 26.0293 64.0259 26.9808 64.6781 28.1003C65.3303 29.2199 65.7115 30.4765 65.7914 31.7696Z" fill="#141414"/>
<path d="M63.6983 34.7429C63.0486 34.7251 62.4153 34.5351 61.8631 34.1923C60.7333 33.4538 59.7931 32.4599 59.1183 31.291C58.4435 30.1221 58.0531 28.8108 57.9785 27.4632C57.9785 26.2397 58.4128 25.2609 59.202 24.8021C59.9911 24.3433 61.0372 24.4412 62.12 25.0713C63.2533 25.8066 64.1965 26.7995 64.8727 27.969C65.5489 29.1385 65.9388 30.4514 66.0106 31.8004C66.0106 33.0239 65.5702 34.0027 64.7872 34.4615C64.4548 34.6482 64.0795 34.7452 63.6983 34.7429ZM60.3582 25.0407C60.061 25.0374 59.768 25.1111 59.5079 25.2548C58.8961 25.6157 58.5413 26.3988 58.5413 27.4571C58.6105 28.7139 58.9743 29.9369 59.6034 31.0272C60.2325 32.1175 61.1093 33.0446 62.1628 33.7335C63.0804 34.2657 63.9307 34.3452 64.5547 33.9965C65.1787 33.6478 65.5335 32.8526 65.5335 31.7698C65.4636 30.5124 65.0989 29.289 64.4687 28.1987C63.8385 27.1083 62.9606 26.1816 61.9059 25.4934C61.438 25.2108 60.9046 25.0548 60.3582 25.0407Z" fill="#141414"/>
<path d="M62.0342 25.2854C61.5156 24.9633 60.9194 24.7879 60.3091 24.7776C60.0504 25.069 59.8523 25.4088 59.7262 25.7775C59.6002 26.1461 59.5488 26.5361 59.575 26.9248C59.645 28.2279 60.0217 29.496 60.6744 30.626C61.3271 31.756 62.2373 32.7159 63.3311 33.4276C63.8462 33.7523 64.4412 33.9281 65.05 33.9354C65.3133 33.6431 65.5146 33.3005 65.6418 32.9284C65.769 32.5562 65.8195 32.1621 65.7903 31.7698C65.716 30.4703 65.3373 29.2064 64.6849 28.08C64.0325 26.9537 63.1245 25.9964 62.0342 25.2854Z" fill="#0962FF"/>
<path d="M65.002 34.2167C64.3633 34.1954 63.7412 34.0077 63.1973 33.6723C62.0679 32.9334 61.1279 31.9395 60.4532 30.7706C59.7784 29.6017 59.3878 28.2907 59.3128 26.9431C59.2865 26.5191 59.3449 26.0941 59.4845 25.6929C59.6242 25.2917 59.8424 24.9223 60.1264 24.6063L60.1998 24.5329H60.3099C60.9596 24.5453 61.5938 24.7334 62.1451 25.0773C63.2784 25.8126 64.2217 26.8056 64.8978 27.9751C65.574 29.1446 65.964 30.4575 66.0358 31.8065C66.0627 32.231 66.004 32.6567 65.8632 33.0581C65.7224 33.4595 65.5023 33.8286 65.2161 34.1433L65.1426 34.2167H64.9836H65.002ZM60.4262 25.0406C59.9971 25.5719 59.7792 26.2428 59.8144 26.9248C59.8841 28.1816 60.2481 29.4044 60.8772 30.4946C61.5062 31.5848 62.3827 32.512 63.4359 33.2012C63.8837 33.4763 64.3919 33.638 64.9163 33.6723C65.3541 33.1383 65.5747 32.459 65.5342 31.7698C65.4653 30.5129 65.1009 29.2901 64.4706 28.2006C63.8403 27.1111 62.9618 26.1856 61.9066 25.4994C61.4573 25.2293 60.9494 25.0719 60.4262 25.0406Z" fill="#141414"/>
<path d="M60.9908 26.5847L58.3887 28.0099L58.5826 28.3641L61.1848 26.9388L60.9908 26.5847Z" fill="#0962FF"/>
<path d="M64.268 31.9342L61.666 33.3599L61.86 33.714L64.462 32.2883L64.268 31.9342Z" fill="#0962FF"/>
<path d="M69.2207 32.6084L67.8203 33.3754L68.0143 33.7295L69.4146 32.9626L69.2207 32.6084Z" fill="#0962FF"/>
<path d="M72.3427 98.6144L72.043 98.2046C71.5719 97.0606 70.5687 97.5928 69.021 96.7241C64.5859 94.161 57.398 94.161 52.969 96.7241C51.4213 97.6173 50.418 97.8926 49.9531 99.0365H49.6289V101.392C49.6289 103.056 50.7484 104.72 52.9506 105.992C57.3857 108.549 64.5737 108.549 69.0026 105.992C71.2233 104.707 72.3305 103.019 72.3244 101.337L72.3427 98.6144Z" fill="#141414"/>
<path d="M60.9955 108.164C58.1561 108.22 55.3492 107.55 52.8411 106.218C50.6266 104.94 49.4031 103.227 49.3848 101.392V98.7734H49.7763C50.1922 97.9108 50.9141 97.5499 51.899 97.0116C52.1865 96.8586 52.5107 96.6935 52.8411 96.4916C57.3374 93.8978 64.6537 93.8978 69.1561 96.4916C69.6512 96.7727 70.1915 96.9652 70.7528 97.0605C71.3951 97.1951 71.9762 97.3113 72.2699 98.076L72.6124 98.5226V101.337C72.6124 103.172 71.389 104.927 69.1622 106.23C66.6487 107.559 63.8379 108.224 60.9955 108.164ZM49.9109 101.385C49.9109 103.031 51.0609 104.579 53.1041 105.759C57.4536 108.274 64.5375 108.274 68.887 105.759C70.9546 104.567 72.0864 103 72.0802 101.343V98.7L71.7988 98.3085C71.5786 97.7762 71.2483 97.6967 70.6426 97.5744C70.027 97.4715 69.4333 97.2646 68.887 96.9626C64.5375 94.4484 57.4536 94.4484 53.1041 96.9626C52.7554 97.1645 52.4373 97.3358 52.1437 97.4887C51.1343 98.0209 50.5226 98.3452 50.1923 99.1465L50.125 99.3117H49.9109V101.355L49.6478 101.404L49.9109 101.385Z" fill="#141414"/>
<path d="M64.3113 101.912C63.6757 100.565 62.6134 99.4663 61.2893 98.7855C58.6572 97.3938 55.6988 96.7366 52.725 96.883C52.1922 97.1898 51.6309 97.4438 51.0488 97.6416C51.1151 98.0705 51.1396 98.5048 51.1222 98.9385C51.0534 100.397 51.0943 101.86 51.2446 103.312C51.3024 103.861 51.4873 104.388 51.7847 104.852C52.0821 105.316 52.4836 105.704 52.9574 105.986C55.5923 107.37 58.5486 108.027 61.5218 107.888C63.5772 106.622 64.5805 105.007 64.5805 103.392V101.899L64.3113 101.912Z" fill="#0962FF"/>
<path d="M60.9995 108.17C58.1582 108.225 55.3497 107.555 52.8389 106.224C52.3312 105.918 51.9012 105.499 51.5828 104.999C51.2644 104.499 51.0662 103.932 51.0037 103.343C50.8492 101.876 50.8083 100.399 50.8813 98.9262C50.8996 98.517 50.875 98.1069 50.8079 97.7028L50.7773 97.4948L50.9731 97.4152L51.2667 97.299C51.7346 97.1404 52.1854 96.9355 52.6126 96.6873L52.6737 96.6506H52.741C55.77 96.5036 58.7829 97.1733 61.4644 98.5898C62.7753 99.2691 63.8437 100.338 64.5231 101.648H64.9207V103.404C64.9207 105.172 63.7951 106.854 61.7213 108.127L61.6663 108.163H61.0545L60.9995 108.17ZM51.334 97.8373C51.3815 98.2126 51.3979 98.5911 51.383 98.9691C51.3128 100.416 51.3537 101.866 51.5053 103.306C51.5635 103.808 51.7361 104.289 52.0097 104.713C52.2833 105.138 52.6507 105.493 53.0836 105.753C55.6656 107.111 58.5624 107.757 61.4766 107.625C63.3485 106.457 64.3701 104.958 64.364 103.392V102.168H64.1499L64.0826 102.003C63.4675 100.711 62.4442 99.6581 61.1708 99.0058C58.5943 97.66 55.7053 97.0265 52.8022 97.1706C52.3636 97.4173 51.9028 97.6221 51.4258 97.7823L51.334 97.8373Z" fill="#141414"/>
<path d="M60.9962 105.166C67.2634 105.166 72.3439 102.233 72.3439 98.6144C72.3439 94.996 67.2634 92.0627 60.9962 92.0627C54.729 92.0627 49.6484 94.996 49.6484 98.6144C49.6484 102.233 54.729 105.166 60.9962 105.166Z" fill="#0962FF"/>
<path d="M60.9955 105.423C58.1552 105.481 55.3476 104.809 52.8411 103.472C50.6082 102.187 49.3848 100.462 49.3848 98.6143C49.3848 96.7669 50.6082 95.0357 52.8411 93.7204C57.3374 91.1205 64.6537 91.1205 69.1561 93.7204C71.3829 95.0051 72.6124 96.7363 72.6124 98.6143C72.6124 100.492 71.389 102.187 69.1561 103.472C66.6471 104.808 63.8377 105.48 60.9955 105.423ZM60.9955 92.3257C58.2474 92.2698 55.5306 92.9184 53.1041 94.2098C51.0426 95.3966 49.9109 96.9626 49.9109 98.6143C49.9109 100.266 51.0426 101.832 53.1041 103.019C57.4536 105.533 64.5375 105.533 68.887 103.019C70.9485 101.832 72.0802 100.266 72.0802 98.6143C72.0802 96.9626 70.9485 95.3966 68.887 94.2098C66.4602 92.9198 63.7433 92.2732 60.9955 92.3318V92.3257Z" fill="#141414"/>
<path d="M60.9945 102.75C66.4475 102.75 70.868 100.197 70.868 97.0483C70.868 93.8995 66.4475 91.3469 60.9945 91.3469C55.5416 91.3469 51.1211 93.8995 51.1211 97.0483C51.1211 100.197 55.5416 102.75 60.9945 102.75Z" fill="white"/>
<path d="M60.9946 103.007C58.5273 103.049 56.0898 102.464 53.9107 101.306C51.9592 100.18 50.8887 98.6694 50.8887 97.0239C50.8887 95.3783 51.9592 93.8918 53.9107 92.7417C57.8319 90.4783 64.2184 90.4783 68.1397 92.7417C70.0911 93.8734 71.1984 95.3844 71.1984 97.0239C71.1984 98.6633 70.1217 100.156 68.1397 101.306C65.9424 102.474 63.4824 103.059 60.9946 103.007ZM60.9946 91.61C58.6092 91.5647 56.2515 92.1268 54.1431 93.2433C52.363 94.271 51.3842 95.623 51.3842 97.0483C51.3842 98.4737 52.363 99.8195 54.1431 100.853C57.9237 103.031 64.0716 103.031 67.846 100.853C69.6262 99.8195 70.605 98.4737 70.605 97.0483C70.605 95.623 69.6262 94.271 67.846 93.2433C65.7383 92.125 63.3801 91.5629 60.9946 91.61Z" fill="#141414"/>
<path d="M66.3418 107.044L66.1094 106.714C67.066 105.953 67.7907 104.94 68.2015 103.79L68.5808 103.924C68.149 105.157 67.3718 106.24 66.3418 107.044Z" fill="#0962FF"/>
<path d="M67.0199 95.2866L66.9771 95.2132C66.9771 95.2132 64.1508 90.7658 64.0774 86.4164H57.9111C57.5867 89.5227 56.5978 92.5228 55.0115 95.2132L54.9748 95.2866C54.2774 96.5101 54.8218 97.8926 56.5469 98.8897C57.925 99.5893 59.4488 99.954 60.9943 99.954C62.5398 99.954 64.0635 99.5893 65.4416 98.8897C67.1667 97.8926 67.7112 96.5406 67.0199 95.2866Z" fill="#0962FF"/>
<path d="M60.9938 100.211C59.4002 100.242 57.8252 99.8646 56.418 99.1159C54.5828 98.076 53.9711 96.5589 54.7418 95.158L54.7724 95.0968C56.3411 92.4336 57.3214 89.4654 57.6476 86.3918V86.1532H64.3217V86.4101C64.3951 90.6372 67.154 95.0234 67.1846 95.0723L67.2335 95.1641C68.0043 96.5589 67.362 98.076 65.5574 99.1159C64.1533 99.8611 62.5831 100.238 60.9938 100.211ZM58.1492 86.6793C57.8064 89.7458 56.8115 92.7035 55.2312 95.3537V95.4027C54.5828 96.565 55.1211 97.7518 56.6994 98.6632C58.0366 99.339 59.5139 99.6911 61.0122 99.6911C62.5104 99.6911 63.9877 99.339 65.3249 98.6632C66.9032 97.7518 67.4415 96.565 66.8053 95.4149L66.7625 95.3231C66.6585 95.1702 64.0158 90.9676 63.8384 86.6793H58.1492Z" fill="#141414"/>
<path d="M66.9785 95.2987C66.9785 95.2987 64.1523 90.8575 64.0789 86.502H61.4668V88.4289C61.6758 92.2708 62.1665 96.0922 62.935 99.8623C63.814 99.7094 64.6615 99.4117 65.4431 98.9814C67.1682 97.9843 67.7126 96.6323 67.0214 95.3783L66.9785 95.2987Z" fill="#141414"/>
<path d="M63.2099 85.2296C64.4334 85.9331 64.4334 87.0648 63.2099 87.7805C62.5236 88.1288 61.7649 88.3102 60.9954 88.3102C60.2258 88.3102 59.4671 88.1288 58.7809 87.7805C57.5574 87.077 57.5574 85.9453 58.7809 85.2296C59.4671 84.8814 60.2258 84.6999 60.9954 84.6999C61.7649 84.6999 62.5236 84.8814 63.2099 85.2296Z" fill="white"/>
<path d="M60.9944 88.5695C60.1788 88.5865 59.3723 88.3949 58.6515 88.0129C58.3438 87.8984 58.0786 87.6926 57.8912 87.4231C57.7039 87.1536 57.6035 86.8332 57.6035 86.5049C57.6035 86.1767 57.7039 85.8563 57.8912 85.5868C58.0786 85.3172 58.3438 85.1114 58.6515 84.997C59.3776 84.6289 60.1803 84.437 60.9944 84.437C61.8086 84.437 62.6113 84.6289 63.3374 84.997C63.645 85.1114 63.9103 85.3172 64.0976 85.5868C64.285 85.8563 64.3854 86.1767 64.3854 86.5049C64.3854 86.8332 64.285 87.1536 64.0976 87.4231C63.9103 87.6926 63.645 87.8984 63.3374 88.0129C62.6169 88.3957 61.8102 88.5874 60.9944 88.5695ZM60.9944 84.9603C60.2704 84.9469 59.5548 85.1174 58.9145 85.4558C58.6887 85.5233 58.4907 85.6619 58.35 85.8509C58.2092 86.0399 58.1332 86.2693 58.1332 86.5049C58.1332 86.7406 58.2092 86.97 58.35 87.159C58.4907 87.348 58.6887 87.4866 58.9145 87.5541C59.5594 87.8799 60.2719 88.0496 60.9944 88.0496C61.717 88.0496 62.4294 87.8799 63.0744 87.5541C63.3002 87.4866 63.4981 87.348 63.6389 87.159C63.7797 86.97 63.8557 86.7406 63.8557 86.5049C63.8557 86.2693 63.7797 86.0399 63.6389 85.8509C63.4981 85.6619 63.3002 85.5233 63.0744 85.4558C62.4313 85.128 61.7158 84.9681 60.9944 84.9909V84.9603Z" fill="#141414"/>
<path d="M65.2782 95.4272C64.1383 93.2078 63.395 90.8063 63.082 88.331L63.4858 88.2943C63.7926 90.7159 64.5192 93.0655 65.633 95.2375L65.2782 95.4272Z" fill="#0962FF"/>
<path d="M62.9714 86.0371V30.3995H59.0195V86.0677C59.0342 86.2414 59.0953 86.4081 59.1965 86.5502C59.2976 86.6922 59.4351 86.8045 59.5946 86.8752C60.0287 87.0955 60.5086 87.2103 60.9954 87.2103C61.4822 87.2103 61.9622 87.0955 62.3963 86.8752C62.5605 86.8026 62.7013 86.6858 62.8029 86.5378C62.9044 86.3898 62.9628 86.2164 62.9714 86.0371Z" fill="#0962FF"/>
<path d="M60.9948 87.438C60.4622 87.4471 59.9359 87.3208 59.4655 87.0709C59.264 86.9781 59.0916 86.8324 58.9666 86.6492C58.8416 86.466 58.7688 86.2523 58.7559 86.031V30.1304H63.2399V86.031C63.2275 86.254 63.1542 86.4695 63.028 86.6539C62.9019 86.8383 62.7276 86.9846 62.5241 87.077C62.0531 87.3248 61.5269 87.449 60.9948 87.438ZM59.2819 30.6442V86.031C59.3001 86.1581 59.3508 86.2783 59.429 86.3801C59.5072 86.4819 59.6104 86.5618 59.7285 86.6121C60.1218 86.8082 60.5553 86.9102 60.9948 86.9102C61.4343 86.9102 61.8678 86.8082 62.2611 86.6121C62.5486 86.4469 62.7138 86.2328 62.7077 86.031V30.6626L59.2819 30.6442Z" fill="#141414"/>
<path d="M61.4414 87.1687C61.7751 87.1275 62.0984 87.0259 62.3957 86.8689C62.5556 86.7972 62.6933 86.6839 62.7945 86.5408C62.8956 86.3977 62.9565 86.23 62.9708 86.0553V30.3872H61.4414V87.1687Z" fill="#141414"/>
<path d="M61.1777 87.4684V30.1486H63.2393V86.0553C63.2258 86.2774 63.152 86.4915 63.0259 86.6748C62.8998 86.858 62.7261 87.0034 62.5235 87.0953C62.1993 87.2725 61.8443 87.3867 61.4775 87.4317L61.1777 87.4684ZM61.7038 30.6747V86.8261C61.8994 86.7842 62.0872 86.7119 62.2605 86.612C62.548 86.4468 62.7132 86.2388 62.7071 86.0309V30.6747H61.7038Z" fill="#141414"/>
<path d="M62.3954 29.5858C62.5653 29.6419 62.7132 29.7501 62.818 29.8951C62.9229 30.04 62.9793 30.2144 62.9793 30.3933C62.9793 30.5722 62.9229 30.7466 62.818 30.8915C62.7132 31.0365 62.5653 31.1447 62.3954 31.2008C61.9613 31.4211 61.4813 31.5359 60.9945 31.5359C60.5077 31.5359 60.0278 31.4211 59.5936 31.2008C59.4238 31.1447 59.2759 31.0365 59.171 30.8915C59.0662 30.7466 59.0098 30.5722 59.0098 30.3933C59.0098 30.2144 59.0662 30.04 59.171 29.8951C59.2759 29.7501 59.4238 29.6419 59.5936 29.5858C60.0278 29.3655 60.5077 29.2507 60.9945 29.2507C61.4813 29.2507 61.9613 29.3655 62.3954 29.5858Z" fill="white"/>
<path d="M60.994 31.8003C60.4604 31.8114 59.9332 31.6828 59.4647 31.4271C59.2556 31.3469 59.0757 31.2052 58.9488 31.0206C58.8218 30.836 58.7539 30.6173 58.7539 30.3933C58.7539 30.1693 58.8218 29.9505 58.9488 29.766C59.0757 29.5814 59.2556 29.4396 59.4647 29.3594C59.9375 29.1153 60.4619 28.988 60.994 28.988C61.5262 28.988 62.0506 29.1153 62.5234 29.3594C62.7325 29.4396 62.9125 29.5814 63.0394 29.766C63.1663 29.9505 63.2342 30.1693 63.2342 30.3933C63.2342 30.6173 63.1663 30.836 63.0394 31.0206C62.9125 31.2052 62.7325 31.3469 62.5234 31.4271C62.0549 31.6828 61.5277 31.8114 60.994 31.8003ZM60.994 29.5185C60.554 29.5089 60.1186 29.6098 59.7278 29.8121C59.6054 29.8523 59.4988 29.9302 59.4233 30.0345C59.3477 30.1389 59.307 30.2644 59.307 30.3933C59.307 30.5221 59.3477 30.6476 59.4233 30.752C59.4988 30.8564 59.6054 30.9342 59.7278 30.9744C60.1211 31.1705 60.5546 31.2725 60.994 31.2725C61.4335 31.2725 61.867 31.1705 62.2603 30.9744C62.3827 30.9342 62.4893 30.8564 62.5649 30.752C62.6404 30.6476 62.6811 30.5221 62.6811 30.3933C62.6811 30.2644 62.6404 30.1389 62.5649 30.0345C62.4893 29.9302 62.3827 29.8523 62.2603 29.8121C61.8696 29.6094 61.4341 29.5084 60.994 29.5185Z" fill="#141414"/>
<path d="M62.4077 82.1036H62.0039V85.7556H62.4077V82.1036Z" fill="#0962FF"/>
<path d="M62.4077 31.8616H62.0039V54.3796H62.4077V31.8616Z" fill="#0962FF"/>
<path d="M62.4077 55.7316H62.0039V58.1663H62.4077V55.7316Z" fill="#0962FF"/>
<path d="M62.9714 29.1088V21.2908C62.9722 21.2742 62.9696 21.2576 62.9639 21.2421C62.9581 21.2265 62.9492 21.2123 62.9377 21.2003C62.9263 21.1882 62.9125 21.1787 62.8973 21.1722C62.882 21.1656 62.8656 21.1623 62.849 21.1623H59.1419C59.1089 21.1639 59.0777 21.1781 59.055 21.202C59.0322 21.2259 59.0195 21.2577 59.0195 21.2908V29.1088C59.0195 29.537 59.4233 29.9591 60.243 30.1732C60.7407 30.3006 61.2624 30.3006 61.7601 30.1732C62.5676 29.9346 62.9775 29.5309 62.9714 29.1088Z" fill="#0962FF"/>
<path d="M60.9951 30.5462C60.7161 30.5462 60.4384 30.5091 60.1692 30.4361C59.2822 30.2098 58.75 29.7143 58.75 29.1209V21.2845C58.75 21.1807 58.7912 21.0811 58.8647 21.0077C58.9381 20.9343 59.0377 20.893 59.1415 20.893H62.8486C62.9525 20.893 63.0521 20.9343 63.1255 21.0077C63.1989 21.0811 63.2402 21.1807 63.2402 21.2845V29.1025C63.2402 29.7143 62.7079 30.1914 61.8209 30.4239C61.5523 30.501 61.2746 30.5422 60.9951 30.5462ZM59.2822 21.4313V29.1086C59.2822 29.439 59.6798 29.7204 60.3038 29.9161C60.7573 30.0324 61.2328 30.0324 61.6863 29.9161C62.2981 29.751 62.7141 29.439 62.7079 29.1086V21.4252L59.2822 21.4313Z" fill="#141414"/>
<path d="M61.4414 30.2343C61.7751 30.1931 62.0984 30.0915 62.3957 29.9345C62.5556 29.8628 62.6933 29.7495 62.7945 29.6064C62.8956 29.4632 62.9565 29.2956 62.9708 29.1209V21.2478C62.9696 21.2298 62.9623 21.2127 62.95 21.1993C62.9378 21.186 62.9214 21.1772 62.9035 21.1744H61.4414V30.2343Z" fill="#141414"/>
<path d="M61.1777 30.5461V20.9113H62.9028C62.9921 20.9113 63.0776 20.9467 63.1407 21.0098C63.2038 21.0729 63.2393 21.1585 63.2393 21.2477V29.1208C63.2258 29.3428 63.152 29.557 63.0259 29.7402C62.8998 29.9234 62.7261 30.0688 62.5235 30.1607C62.1993 30.338 61.8443 30.4521 61.4775 30.4972L61.1777 30.5461ZM61.7038 21.4496V29.9344C61.8994 29.8924 62.0872 29.8202 62.2605 29.7203C62.548 29.5551 62.7132 29.3471 62.7071 29.1085V21.4435L61.7038 21.4496Z" fill="#141414"/>
<path d="M62.3954 20.3488C62.5653 20.4048 62.7132 20.513 62.818 20.658C62.9229 20.803 62.9793 20.9773 62.9793 21.1562C62.9793 21.3352 62.9229 21.5095 62.818 21.6545C62.7132 21.7995 62.5653 21.9077 62.3954 21.9637C61.9613 22.1841 61.4813 22.2989 60.9945 22.2989C60.5077 22.2989 60.0278 22.1841 59.5936 21.9637C59.4238 21.9077 59.2759 21.7995 59.171 21.6545C59.0662 21.5095 59.0098 21.3352 59.0098 21.1562C59.0098 20.9773 59.0662 20.803 59.171 20.658C59.2759 20.513 59.4238 20.4048 59.5936 20.3488C60.0278 20.1284 60.5077 20.0136 60.9945 20.0136C61.4813 20.0136 61.9613 20.1284 62.3954 20.3488Z" fill="white"/>
<path d="M60.9948 22.5937C60.4622 22.6029 59.9359 22.4766 59.4655 22.2267C59.264 22.1339 59.0916 21.9882 58.9666 21.805C58.8416 21.6218 58.7688 21.4081 58.7559 21.1867C58.7688 20.9654 58.8416 20.7517 58.9666 20.5685C59.0916 20.3853 59.264 20.2396 59.4655 20.1468C59.9383 19.9027 60.4627 19.7753 60.9948 19.7753C61.5269 19.7753 62.0513 19.9027 62.5241 20.1468C62.7258 20.2382 62.8989 20.3827 63.025 20.5647C63.151 20.7468 63.2253 20.9597 63.2399 21.1806C63.2264 21.4027 63.1526 21.6168 63.0265 21.8C62.9004 21.9833 62.7267 22.1287 62.5241 22.2206C62.0543 22.4726 61.528 22.601 60.9948 22.5937ZM60.9948 20.312C60.554 20.3016 60.1179 20.4048 59.7285 20.6117C59.6105 20.6604 59.5072 20.7391 59.4289 20.84C59.3506 20.9408 59.2999 21.0603 59.2819 21.1867C59.2995 21.314 59.35 21.4346 59.4283 21.5365C59.5066 21.6384 59.61 21.7181 59.7285 21.7679C60.1218 21.964 60.5553 22.066 60.9948 22.066C61.4343 22.066 61.8678 21.964 62.2611 21.7679C62.3796 21.7181 62.4831 21.6384 62.5614 21.5365C62.6397 21.4346 62.6901 21.314 62.7077 21.1867C62.6897 21.0603 62.639 20.9408 62.5607 20.84C62.4824 20.7391 62.3791 20.6604 62.2611 20.6117C61.8749 20.3934 61.4384 20.2795 60.9948 20.2814V20.312Z" fill="#141414"/>
<path d="M62.4077 22.6244H62.0039V24.7655H62.4077V22.6244Z" fill="#0962FF"/>
<path d="M63.3631 19.2046L61.3811 14.6899C61.3479 14.6155 61.2938 14.5523 61.2254 14.508C61.157 14.4636 61.0772 14.44 60.9957 14.44C60.9142 14.44 60.8344 14.4636 60.766 14.508C60.6977 14.5523 60.6436 14.6155 60.6103 14.6899L58.6283 19.2046C58.3958 19.8163 58.8608 20.4953 60.0536 20.8073C60.671 20.9713 61.3204 20.9713 61.9378 20.8073C63.1307 20.4953 63.5956 19.8102 63.3631 19.2046Z" fill="white"/>
<path d="M60.9945 21.1928C60.654 21.1926 60.3149 21.1495 59.9852 21.0643C59.6692 21.0077 59.3682 20.8867 59.1009 20.7088C58.8336 20.531 58.6057 20.3001 58.4314 20.0305C58.3586 19.8887 58.3167 19.7331 58.3082 19.5739C58.2998 19.4147 58.3251 19.2555 58.3824 19.1068L60.3706 14.586C60.426 14.4709 60.5129 14.3738 60.6211 14.3058C60.7293 14.2378 60.8545 14.2017 60.9823 14.2017C61.1101 14.2017 61.2353 14.2378 61.3435 14.3058C61.4518 14.3738 61.5386 14.4709 61.5941 14.586L63.5822 19.1068C63.6424 19.2549 63.6692 19.4144 63.6607 19.5741C63.6522 19.7337 63.6087 19.8896 63.5333 20.0305C63.3589 20.3001 63.131 20.531 62.8637 20.7088C62.5964 20.8867 62.2955 21.0077 61.9795 21.0643C61.6578 21.1478 61.3269 21.191 60.9945 21.1928ZM60.9945 14.7084C60.9645 14.7074 60.935 14.7157 60.9098 14.7322C60.8846 14.7486 60.8651 14.7723 60.8539 14.8001L58.8718 19.3086C58.8438 19.387 58.832 19.4703 58.8373 19.5534C58.8425 19.6365 58.8647 19.7177 58.9024 19.7919C59.1936 20.1981 59.6332 20.4729 60.1259 20.5566C60.6998 20.7034 61.3015 20.7034 61.8755 20.5566C62.3681 20.4729 62.8078 20.1981 63.0989 19.7919C63.1375 19.7169 63.1601 19.6346 63.1654 19.5504C63.1707 19.4662 63.1585 19.3818 63.1295 19.3025L61.1475 14.8001C61.1356 14.7702 61.1142 14.745 61.0865 14.7284C61.0589 14.7118 61.0266 14.7048 60.9945 14.7084Z" fill="#141414"/>
<path d="M61.5834 20.8809C62.8925 20.5872 63.6082 19.8409 63.3635 19.2047L61.3815 14.6962C61.3484 14.6216 61.2943 14.5582 61.2259 14.5137C61.1575 14.4692 61.0777 14.4454 60.9961 14.4454L61.5834 20.8809Z" fill="#141414"/>
<path d="M62.3027 17.375L61.916 17.4913L62.5926 19.7409L62.9793 19.6246L62.3027 17.375Z" fill="#0962FF"/>
<path d="M98.6662 48.721L99.9631 49.4673C100.199 49.6205 100.396 49.8272 100.537 50.0706C100.679 50.314 100.761 50.5872 100.777 50.8682C100.826 51.918 101.115 52.9426 101.62 53.8639C102.126 54.7852 102.836 55.5788 103.695 56.1842C105.132 57.0773 104.753 57.4444 105.126 56.1475C105.255 55.7009 107.255 54.7527 107.726 55.0035C108.085 55.2186 108.376 55.5309 108.566 55.9043C108.755 56.2777 108.835 56.6971 108.797 57.114C108.185 59.4203 105.346 61.7143 102.844 60.1238C100.654 58.7351 99.8162 58.2886 99.1739 55.5847C99.0883 55.236 98.6111 50.9844 98.3358 50.8254L87.661 44.659C85.1583 43.2 82.522 41.9832 79.7879 41.0253L73.7073 38.9393C70.9694 37.9709 68.3309 36.7418 65.8281 35.2689L61.6316 29.3901C61.6265 29.3861 61.6224 29.381 61.6195 29.3751C61.6167 29.3693 61.6152 29.3629 61.6152 29.3564C61.6152 29.3499 61.6167 29.3436 61.6195 29.3377C61.6224 29.3319 61.6265 29.3268 61.6316 29.3228L63.3261 28.3134C63.3329 28.3106 63.3401 28.3091 63.3475 28.3091C63.3548 28.3091 63.3621 28.3106 63.3689 28.3134L98.6662 48.721Z" fill="#141414"/>
<path d="M104.606 60.913C103.93 60.9128 103.268 60.7151 102.703 60.3441L102.513 60.2279C100.427 58.9065 99.5649 58.3559 98.9103 55.646C98.9103 55.542 98.8369 55.2116 98.7574 54.5938C98.6209 53.3944 98.4166 52.2037 98.1456 51.0273L87.5197 44.91C85.0321 43.4557 82.4098 42.245 79.6895 41.2946L73.6088 39.2024C70.8563 38.2364 68.2034 37.0072 65.6868 35.532L65.6318 35.5014L61.3496 29.4819V29.329C61.3562 29.2869 61.3724 29.2468 61.3967 29.2119C61.4211 29.1769 61.4531 29.1479 61.4903 29.1271L63.1971 28.0994C63.2447 28.0726 63.2984 28.0585 63.353 28.0585C63.4077 28.0585 63.4614 28.0726 63.509 28.0994L100.097 49.2227C100.372 49.3998 100.601 49.6397 100.764 49.9227C100.928 50.2056 101.022 50.5234 101.039 50.8499C101.089 51.8547 101.367 52.835 101.851 53.7167C102.335 54.5984 103.014 55.3585 103.835 55.9396C104.148 56.1361 104.449 56.3527 104.734 56.588C104.732 56.5718 104.732 56.5553 104.734 56.5391C104.734 56.4106 104.801 56.2516 104.856 56.0558C104.997 55.5725 106.08 55.0832 106.318 54.9914C106.779 54.7329 107.318 54.6483 107.836 54.7528C108.253 54.9896 108.591 55.3436 108.808 55.7711C109.026 56.1985 109.113 56.6804 109.059 57.1569C108.844 57.9276 108.457 58.6395 107.927 59.2392C107.397 59.8388 106.739 60.3107 106 60.6194C105.558 60.8038 105.085 60.9034 104.606 60.913ZM66.0049 35.1038C68.4797 36.5418 71.0851 37.7421 73.7862 38.6886L79.8669 40.7746C82.6173 41.7458 85.2697 42.9748 87.7889 44.445L98.4637 50.6052C98.6839 50.7337 98.8185 51.1252 99.2773 54.5387C99.3385 55.0097 99.3997 55.4502 99.418 55.5358C100.03 58.0378 100.782 58.515 102.795 59.818L102.984 59.9342C103.398 60.2036 103.872 60.3674 104.363 60.4111C104.855 60.4549 105.35 60.3772 105.805 60.185C106.461 59.9018 107.047 59.4769 107.519 58.9406C107.992 58.4044 108.34 57.7702 108.539 57.0835C108.567 56.7205 108.494 56.3567 108.327 56.0327C108.161 55.7088 107.908 55.4373 107.597 55.2483C107.294 55.2336 106.993 55.2967 106.722 55.4318C106.216 55.5914 105.755 55.868 105.376 56.2393C105.321 56.4229 105.285 56.5758 105.254 56.6981C105.181 57.0101 105.132 57.1875 104.936 57.2548C104.74 57.3221 104.606 57.1998 104.398 57.0285C104.131 56.8044 103.849 56.6 103.553 56.4167C102.651 55.7907 101.906 54.9648 101.376 54.0035C100.845 53.0421 100.544 51.9713 100.495 50.8744C100.478 50.6409 100.408 50.4143 100.29 50.2118C100.172 50.0094 100.01 49.8364 99.8157 49.706L63.3561 28.6377L61.9736 29.4575L66.0049 35.1038Z" fill="#141414"/>
<path d="M96.9088 49.7671L98.2057 50.5195C98.441 50.6731 98.6367 50.8799 98.777 51.1234C98.9174 51.3668 98.9983 51.6398 99.0132 51.9204C99.0638 52.9698 99.3536 53.9937 99.8604 54.9139C100.367 55.8342 101.078 56.6265 101.937 57.2303C103.375 58.1234 104.605 57.738 104.996 56.4411C105.012 56.3353 105.056 56.2357 105.123 56.1522C105.19 56.0687 105.278 56.0042 105.378 55.9652C105.477 55.9261 105.585 55.914 105.691 55.9299C105.797 55.9458 105.897 55.9892 105.981 56.0557C106.342 56.2676 106.634 56.5784 106.824 56.9513C107.014 57.3243 107.093 57.7437 107.051 58.1601C106.44 60.4664 104.317 61.1699 101.809 59.5794C99.6249 58.1907 97.8448 55.4134 97.1964 52.7279C97.1097 52.3746 96.8908 52.068 96.5846 51.8715L85.9098 45.7113C83.407 44.2383 80.7685 43.0092 78.0306 42.0408L71.9499 39.9548C69.2159 38.9969 66.5796 37.7802 64.0769 36.3211L61.6299 34.908C61.6267 34.9013 61.625 34.894 61.625 34.8866C61.625 34.8791 61.6267 34.8718 61.6299 34.8651V29.4635C61.6299 29.4549 61.632 29.4464 61.6363 29.4389C61.6406 29.4314 61.6468 29.4251 61.6542 29.4208C61.6617 29.4164 61.6701 29.4141 61.6788 29.4141C61.6874 29.4141 61.6959 29.4164 61.7033 29.4207L96.9088 49.7671Z" fill="#86B2FF"/>
<path d="M104.349 60.6989C103.383 60.6609 102.448 60.349 101.652 59.7997C99.4739 58.4232 97.6142 55.6643 96.9229 52.7891C96.8543 52.5078 96.6816 52.263 96.4396 52.104L85.7648 45.9377C83.2759 44.4859 80.6539 43.2753 77.9346 42.3223L71.8539 40.2363C69.1025 39.2677 66.4498 38.0386 63.9319 36.5659L61.485 35.1527C61.4387 35.1246 61.4003 35.0851 61.3736 35.038C61.3468 34.9909 61.3325 34.9378 61.332 34.8836V29.4636C61.3325 29.4087 61.3475 29.3549 61.3754 29.3076C61.4033 29.2604 61.4432 29.2213 61.4911 29.1944C61.5376 29.1676 61.5903 29.1534 61.644 29.1534C61.6977 29.1534 61.7505 29.1676 61.797 29.1944L98.3422 50.2871C98.617 50.4651 98.8453 50.7062 99.0081 50.9903C99.1709 51.2745 99.2635 51.5934 99.2781 51.9205C99.3293 52.9249 99.6074 53.9047 100.092 54.7863C100.576 55.6678 101.254 56.4281 102.074 57.0101C102.332 57.2054 102.632 57.3389 102.95 57.4004C103.268 57.4619 103.596 57.4498 103.909 57.3649C104.115 57.2758 104.297 57.1388 104.439 56.9654C104.582 56.792 104.681 56.5872 104.729 56.3678C104.763 56.2339 104.827 56.1094 104.916 56.0035C105.005 55.8976 105.117 55.8131 105.243 55.7561C105.381 55.7033 105.53 55.683 105.677 55.6968C105.824 55.7106 105.967 55.7581 106.093 55.8356C106.51 56.0723 106.848 56.4264 107.066 56.8538C107.283 57.2813 107.37 57.7632 107.316 58.2397C107.215 58.7374 106.995 59.2034 106.676 59.5984C106.356 59.9934 105.947 60.3058 105.481 60.5093C105.119 60.6433 104.735 60.7077 104.349 60.6989ZM61.8642 34.7735L64.2011 36.1193C66.6888 37.5735 69.311 38.7842 72.0313 39.7347L78.112 41.8268C80.864 42.794 83.5168 44.0231 86.034 45.4972L96.7333 51.6452C96.916 51.7591 97.0743 51.908 97.1993 52.0833C97.3242 52.2586 97.4132 52.4569 97.4613 52.6668C98.1219 55.3768 99.9082 58.0623 101.97 59.3592C103.193 60.1361 104.38 60.3686 105.298 60.0076C105.687 59.8359 106.029 59.5717 106.293 59.2381C106.558 58.9044 106.737 58.5113 106.815 58.0929C106.837 57.7348 106.761 57.3775 106.595 57.0595C106.429 56.7414 106.179 56.4748 105.873 56.2883C105.815 56.2501 105.749 56.2249 105.681 56.2144C105.612 56.2038 105.542 56.2081 105.475 56.2271C105.422 56.2567 105.375 56.2969 105.338 56.3454C105.302 56.3938 105.275 56.4494 105.261 56.5085C105.191 56.8068 105.051 57.0842 104.854 57.3181C104.656 57.5521 104.406 57.7358 104.123 57.8543C103.736 57.9704 103.327 57.9949 102.929 57.9259C102.531 57.8569 102.154 57.6963 101.829 57.4567C100.927 56.8316 100.182 56.0068 99.6519 55.0465C99.1214 54.0862 98.8197 53.0164 98.7704 51.9205C98.7536 51.6867 98.6845 51.4597 98.568 51.2564C98.4515 51.0531 98.2906 50.8786 98.0975 50.7459L61.8642 29.8367V34.7735Z" fill="#141414"/>
<path d="M64.0736 33.1739L63.8105 33.6295L68.2395 36.1866L68.5026 35.731L64.0736 33.1739Z" fill="#141414"/>
<path d="M66.6857 30.3803L65.4023 31.1895L65.6177 31.531L66.901 30.7219L66.6857 30.3803Z" fill="#0962FF"/>
<path d="M94.6251 46.4654L93.3418 47.2745L93.5571 47.6161L94.8405 46.807L94.6251 46.4654Z" fill="#0962FF"/>
<path d="M100.092 49.7669L98.8086 50.576L99.0239 50.9175L100.307 50.1084L100.092 49.7669Z" fill="#0962FF"/>
<path d="M108.232 55.7064L106.949 56.5157L107.165 56.8572L108.448 56.0479L108.232 55.7064Z" fill="#0962FF"/>
<path d="M22.7116 4.77981L21.4147 4.02738C20.9682 3.77045 18.8821 4.78593 18.8821 5.29979L19.1758 5.61178C19.1758 7.5204 19.3348 7.31852 17.6831 6.43762C16.9138 5.96354 16.2469 5.34054 15.7217 4.60519C15.1964 3.86984 14.8234 3.03696 14.6244 2.15546C14.4982 1.5424 14.1468 0.998904 13.6396 0.63223C12.9422 0.197896 10.7154 1.21338 10.8928 2.08817C11.5046 5.07956 14.1045 8.97022 16.6065 10.2732C18.7965 11.411 21.7757 9.3862 22.4241 7.45311C22.5097 7.19618 22.7544 7.135 23.0358 7.29405L33.7229 13.4175C36.4904 15.042 39.125 16.883 41.6021 18.9232L47.6889 23.8171C50.2337 25.8848 53.5126 30.0752 56.1308 31.6657C56.1739 31.6929 56.2237 31.7073 56.2746 31.7073C56.3255 31.7073 56.3753 31.6929 56.4184 31.6657L57.8988 30.7848C57.9393 30.7593 57.9728 30.7242 57.9963 30.6826C58.0198 30.6409 58.0325 30.594 58.0333 30.5462V25.322C58.0331 25.2733 58.0199 25.2256 57.9952 25.1837C57.9705 25.1418 57.9351 25.1072 57.8927 25.0834L22.7116 4.77981Z" fill="#141414"/>
<path d="M56.2721 31.9777C56.1745 31.9789 56.0787 31.9512 55.9968 31.8982C54.4369 30.95 52.6689 29.1209 50.9622 27.353C49.8785 26.183 48.7308 25.0741 47.5242 24.0312L41.4374 19.0945C38.9695 17.0814 36.3473 15.265 33.595 13.6623L22.9263 7.49598C22.873 7.45839 22.8071 7.44303 22.7427 7.45316C22.7222 7.46563 22.707 7.48523 22.6999 7.50821C22.4201 8.18923 22.0046 8.80617 21.4788 9.3215C20.953 9.83682 20.3278 10.2397 19.6412 10.5057C19.1499 10.7348 18.6143 10.8535 18.0721 10.8535C17.53 10.8535 16.9944 10.7348 16.503 10.5057C14.0133 9.20885 11.2788 5.29984 10.6487 2.13716C10.5692 1.7273 10.8322 1.28073 11.3889 0.913685C12.1169 0.41206 13.2241 0.0817196 13.7991 0.424293C14.3668 0.829967 14.7602 1.43527 14.9003 2.11881C15.2941 3.81328 16.3434 5.28266 17.8183 6.20521L18.3872 6.5172C18.589 6.62731 18.7909 6.74354 18.9071 6.79248C18.9209 6.5541 18.9209 6.31513 18.9071 6.07675V5.71582L18.6135 5.40384V5.29984C18.6135 5.00009 18.9255 4.6881 19.5495 4.30271C19.6045 4.27212 20.987 3.47686 21.5376 3.80108L58.0278 24.8571C58.109 24.9047 58.1765 24.9726 58.2237 25.054C58.2709 25.1355 58.2961 25.2279 58.2969 25.322V30.5463C58.2962 30.6397 58.2716 30.7314 58.2256 30.8128C58.1795 30.8941 58.1136 30.9624 58.0339 31.0112L56.5535 31.8921C56.47 31.9474 56.3722 31.9772 56.2721 31.9777ZM22.7672 6.89648C22.9165 6.89777 23.0625 6.9401 23.1893 7.01883L33.8641 13.179C36.6402 14.8053 39.2848 16.6461 41.7739 18.6847L47.8546 23.6214C49.0789 24.6768 50.243 25.8001 51.3415 26.9859C53.0237 28.7294 54.7672 30.534 56.2721 31.4516L57.7647 30.5463V25.322L21.2868 4.24154C20.8534 4.26682 20.433 4.39924 20.0633 4.62693C19.7467 4.77722 19.4605 4.9846 19.2191 5.23867L19.47 5.50783V6.07675C19.47 6.8353 19.4699 7.14729 19.2252 7.30022C18.9805 7.45316 18.7175 7.30023 18.1547 6.98824L17.5919 6.68237C16.7887 6.18644 16.0936 5.53381 15.5482 4.76342C15.0027 3.99302 14.618 3.12064 14.417 2.19833C14.3064 1.64693 13.9918 1.15757 13.5361 0.828039C13.2669 0.66287 12.3921 0.828041 11.7009 1.3052C11.34 1.55601 11.1381 1.82517 11.1748 2.01481C11.7865 5.0735 14.3803 8.78063 16.7538 10.0163C17.1765 10.2124 17.6368 10.314 18.1027 10.314C18.5686 10.314 19.0289 10.2124 19.4516 10.0163C20.0645 9.77636 20.6233 9.41623 21.095 8.95714C21.5667 8.49804 21.9418 7.94925 22.1983 7.34305C22.2252 7.25654 22.271 7.1771 22.3324 7.11045C22.3937 7.0438 22.4691 6.99161 22.5531 6.95765C22.6217 6.93274 22.6942 6.92031 22.7672 6.92095V6.89648Z" fill="#141414"/>
<path d="M20.9627 5.82597L19.6536 5.07353C19.2131 4.8166 18.8461 5.03071 18.8461 5.54457C18.8461 7.44707 17.5798 8.36468 15.9281 7.48378C15.1583 7.01023 14.4911 6.38739 13.9658 5.65195C13.4405 4.91652 13.0677 4.08337 12.8694 3.20161C12.7411 2.58784 12.3875 2.0444 11.8784 1.67839C11.181 1.24405 10.6549 1.67839 10.8079 2.54705C11.4196 5.53845 13.5484 8.71337 16.0504 10.0225C18.2405 11.1603 20.0206 10.4324 20.6691 8.49926C20.7547 8.24845 20.9994 8.18116 21.2808 8.34021L31.9556 14.5065C34.7233 16.1063 37.36 17.9227 39.8409 19.9388L45.9583 24.8755C48.4385 26.8968 51.073 28.7213 53.8375 30.3322L55.8929 31.5189C55.9347 31.5424 55.9819 31.5545 56.0298 31.5541C56.0776 31.5537 56.1246 31.5408 56.166 31.5167C56.2074 31.4926 56.2418 31.4582 56.2658 31.4167C56.2897 31.3753 56.3025 31.3283 56.3028 31.2804V26.3865C56.3044 26.3382 56.2927 26.2904 56.269 26.2483C56.2453 26.2062 56.2104 26.1715 56.1682 26.1479L20.9627 5.82597Z" fill="#86B2FF"/>
<path d="M56.0024 31.8187C55.9141 31.8225 55.8261 31.8058 55.7455 31.7697L53.6839 30.5463C50.9065 28.9221 48.2617 27.0811 45.7741 25.0406L39.6812 20.1467C37.2148 18.1296 34.5925 16.3111 31.8388 14.7084L21.1639 8.5237C21.1396 8.50323 21.1112 8.48826 21.0806 8.47981C21.05 8.47136 21.0179 8.46964 20.9865 8.47476C20.9865 8.47476 20.9498 8.51146 20.9437 8.53593C20.8152 8.98392 20.5896 9.39812 20.283 9.74913C19.9764 10.1001 19.5963 10.3793 19.1697 10.5669C18.6395 10.7454 18.0767 10.8056 17.5208 10.7432C16.9649 10.6809 16.4294 10.4975 15.9519 10.206C13.4622 8.90909 11.1987 5.68524 10.5748 2.55314C10.5052 2.33759 10.5013 2.10626 10.5633 1.88846C10.6254 1.67065 10.7508 1.47617 10.9235 1.32966C11.0953 1.22732 11.2939 1.17901 11.4935 1.19101C11.6932 1.20301 11.8846 1.27476 12.0429 1.39695C12.6129 1.80153 13.0085 2.40698 13.1502 3.09147C13.336 3.93822 13.6887 4.73946 14.1876 5.44843C14.6865 6.15739 15.3216 6.75987 16.0559 7.2207C16.3112 7.39249 16.6068 7.49471 16.9137 7.51724C17.2205 7.53977 17.5279 7.48184 17.8055 7.34916C18.0807 7.13454 18.2969 6.85358 18.4338 6.5326C18.5708 6.21161 18.624 5.86112 18.5885 5.51395C18.5645 5.36287 18.5871 5.20805 18.6533 5.07013C18.7194 4.93222 18.8261 4.81775 18.959 4.74199C19.0919 4.66624 19.2447 4.63279 19.3971 4.64612C19.5495 4.65944 19.6943 4.7189 19.812 4.81657L56.2838 25.8726C56.3675 25.9194 56.4371 25.9878 56.4855 26.0706C56.5339 26.1535 56.5593 26.2477 56.5591 26.3436V31.2375C56.5593 31.3327 56.5346 31.4263 56.4873 31.5089C56.4401 31.5916 56.372 31.6604 56.2899 31.7086C56.205 31.7692 56.1061 31.8071 56.0024 31.8187ZM21.011 7.9609C21.1579 7.96505 21.3012 8.0072 21.427 8.08324L32.1018 14.2434C34.8796 15.867 37.5244 17.708 40.0116 19.7491L46.1289 24.6797C48.5771 26.6887 51.1789 28.5029 53.9102 30.1058L55.9718 31.2926V26.3987L19.5306 5.30596C19.4021 5.23255 19.292 5.20808 19.2247 5.24478C19.1842 5.28266 19.1532 5.32951 19.134 5.38157C19.1149 5.43363 19.1083 5.48944 19.1146 5.54454C19.1529 5.98316 19.0773 6.42423 18.8951 6.82506C18.7129 7.22588 18.4303 7.57288 18.0747 7.83243C17.7206 8.01433 17.3248 8.09938 16.9273 8.07897C16.5298 8.05856 16.1448 7.93341 15.8112 7.7162C15.0062 7.22245 14.3097 6.57046 13.764 5.79971C13.2183 5.02897 12.8346 4.15549 12.6363 3.23217C12.5235 2.68978 12.2141 2.20826 11.7676 1.88023C11.5474 1.73953 11.3394 1.70894 11.2232 1.79458C11.107 1.88023 11.0274 2.15551 11.0886 2.47361C11.7004 5.46501 13.8353 8.5237 16.1966 9.74717C16.606 10.002 17.0659 10.1646 17.5445 10.2238C18.023 10.2829 18.5087 10.2372 18.9678 10.0897C19.3251 9.93137 19.6428 9.69552 19.8978 9.39928C20.1527 9.10304 20.3387 8.75381 20.4421 8.37688C20.469 8.29038 20.5148 8.21093 20.5762 8.14428C20.6375 8.07763 20.7129 8.02544 20.7969 7.99149C20.8663 7.97072 20.9387 7.96244 21.011 7.96702V7.9609Z" fill="#141414"/>
<path d="M49.6302 24.7423L49.3672 25.1979L53.7962 27.755L54.0592 27.2994L49.6302 24.7423Z" fill="#141414"/>
<path d="M14.3712 2.34215L13.0879 3.15125L13.3032 3.49278L14.5866 2.68368L14.3712 2.34215Z" fill="#0962FF"/>
<path d="M57.584 25.0834L56.3008 25.8927L56.5162 26.2342L57.7994 25.4249L57.584 25.0834Z" fill="#0962FF"/>
<path d="M24.8048 6.15116L23.5215 6.96027L23.7368 7.3018L25.0202 6.49269L24.8048 6.15116Z" fill="#0962FF"/>
<path d="M52.1486 21.7772L50.8652 22.5863L51.0806 22.9278L52.3639 22.1187L52.1486 21.7772Z" fill="#0962FF"/>
<path d="M74.5822 34.935L73.2988 35.7441L73.5142 36.0856L74.7975 35.2765L74.5822 34.935Z" fill="#0962FF"/>
<path d="M44.5 17.5125L43.2168 18.3218L43.4322 18.6633L44.7154 17.854L44.5 17.5125Z" fill="#0962FF"/>
<path d="M63.8884 32.3814C63.3177 30.1131 62.1149 28.0533 60.4198 26.4415C58.1564 24.3004 55.997 23.8171 54.5777 24.6063L52.5957 25.8297L53.1034 26.6923C52.9658 27.2111 52.8979 27.746 52.9016 28.2828C52.9016 31.8982 55.4342 36.2843 58.5601 38.0706C59.0707 38.3726 59.6232 38.5973 60.1996 38.7374L60.6217 39.4592C60.6456 39.4969 60.6833 39.5237 60.7267 39.534C60.7702 39.5443 60.8159 39.5372 60.8542 39.5143L62.7934 38.2908C64.0597 37.3916 64.6225 35.3117 63.8884 32.3814Z" fill="white"/>
<path d="M60.7633 39.8079H60.6593C60.6027 39.7952 60.5494 39.7707 60.503 39.7359C60.4566 39.7011 60.4182 39.6568 60.3901 39.606L60.0231 38.9943C59.4625 38.8443 58.9253 38.6179 58.4265 38.3214C55.2332 36.4862 52.6333 31.9777 52.6333 28.2889C52.6307 27.7654 52.6923 27.2436 52.8168 26.7351L52.2051 25.7441L54.5236 24.3065C56.1569 23.4623 58.4081 24.178 60.5675 26.2274C62.3031 27.8707 63.5322 29.9764 64.1095 32.2958C64.8252 35.1342 64.3726 37.465 62.886 38.5233L60.9346 39.7468C60.8826 39.7793 60.8242 39.8002 60.7633 39.8079ZM52.9453 25.9031L53.3796 26.6433V26.7473C53.2476 27.2442 53.1817 27.7564 53.1839 28.2706C53.1839 31.7942 55.6614 36.0886 58.6895 37.8504C59.1782 38.131 59.706 38.3372 60.2555 38.4621H60.3657L60.7939 39.1962L62.6291 38.04C63.8954 37.1224 64.2685 34.9813 63.614 32.3814C63.0607 30.1597 61.8825 28.143 60.2188 26.5699C58.1879 24.6429 56.1202 23.97 54.7132 24.7775L52.9453 25.9031Z" fill="#141414"/>
<path d="M56.9689 30.3504L55.672 31.1946C55.672 31.1946 55.5252 33.1889 55.3906 35.1648C56.233 36.3363 57.3023 37.3266 58.5349 38.0767C59.0455 38.3787 59.598 38.6034 60.1744 38.7435L60.5414 39.3552C60.5598 39.3867 60.5841 39.4143 60.6132 39.4363C60.6422 39.4583 60.6754 39.4743 60.7106 39.4834C60.7459 39.4925 60.7826 39.4945 60.8187 39.4893C60.8548 39.4841 60.8894 39.4718 60.9207 39.4531L62.7559 38.303C63.643 37.6913 64.1813 36.4678 64.1813 34.7978C64.0802 32.366 63.2488 30.0211 61.7955 28.0687L59.0733 29.5674L56.9689 30.3504Z" fill="#0962FF"/>
<path d="M60.7992 39.7653C60.7566 39.7713 60.7133 39.7713 60.6707 39.7653C60.6007 39.7481 60.5348 39.7171 60.477 39.674C60.4193 39.6309 60.3707 39.5767 60.3343 39.5145L60.0223 38.9884C59.4617 38.8384 58.9245 38.6119 58.4257 38.3155C57.1596 37.5495 56.0626 36.5338 55.2018 35.3302L55.1406 35.2507V35.1589C55.2752 33.183 55.422 31.1887 55.422 31.1887V31.0603L56.8902 30.1121L58.9823 29.3719L61.8942 27.7691L62.0288 27.9587C63.5118 29.9508 64.364 32.3415 64.4757 34.8224C64.4757 36.5047 63.9252 37.8261 62.9342 38.5418L61.0989 39.698C61.0082 39.7505 60.9036 39.7739 60.7992 39.7653ZM55.6851 35.0855C56.4919 36.1982 57.5131 37.1383 58.6887 37.8505C59.1774 38.1312 59.7052 38.3374 60.2547 38.4623H60.3649L60.7931 39.1902L62.6283 38.0402C63.4664 37.4284 63.9313 36.2661 63.9313 34.7613C63.8299 32.4719 63.0647 30.2614 61.729 28.3992L59.172 29.8001L57.0921 30.5403L55.9236 31.2988C55.9114 31.8127 55.7952 33.446 55.6851 35.0855Z" fill="#141414"/>
<path d="M63.644 31.6413L61.6008 32.7669L59.4842 33.5132L58.1934 34.3635C58.1934 34.3635 58.0772 35.9479 57.9609 37.6914C58.1567 37.826 58.3586 37.9605 58.5727 38.0768C59.0832 38.3788 59.6357 38.6035 60.2121 38.7436L60.622 39.441C60.6351 39.4632 60.6527 39.4826 60.6735 39.4978C60.6944 39.5131 60.7182 39.5239 60.7434 39.5296C60.7686 39.5354 60.7947 39.5359 60.8201 39.5311C60.8455 39.5264 60.8697 39.5165 60.8912 39.5021L62.8059 38.3154C63.6929 37.7036 64.2312 36.4801 64.2312 34.8101C64.2076 33.7291 64.0093 32.659 63.644 31.6413Z" fill="#141414"/>
<path d="M60.769 39.7959C60.7325 39.802 60.6953 39.802 60.6588 39.7959C60.5998 39.7813 60.5444 39.7547 60.4961 39.7179C60.4477 39.6811 60.4073 39.6348 60.3775 39.5818L60.0226 38.9701C59.2274 38.741 58.4766 38.379 57.802 37.8995L57.6797 37.8139V37.6671C57.7959 35.9236 57.9122 34.3392 57.9122 34.3392V34.2169L59.3803 33.2687L61.4724 32.5346L63.7726 31.2683L63.8766 31.5619C64.2541 32.6068 64.4607 33.7057 64.4883 34.8164C64.4883 36.4987 63.9378 37.82 62.9467 38.5358L61.0198 39.7592C60.9417 39.7961 60.8543 39.8089 60.769 39.7959ZM58.2241 37.557C58.3954 37.6732 58.5422 37.765 58.6891 37.8506C59.1777 38.1313 59.7056 38.3375 60.2551 38.4623H60.3652L60.7934 39.1964L62.6286 38.0402C63.4667 37.4285 63.9316 36.2662 63.9316 34.7613C63.9189 33.8158 63.7642 32.8775 63.4728 31.9779L61.6376 32.9689L59.5577 33.703L58.3893 34.4616C58.4138 34.9143 58.322 36.1683 58.2241 37.557Z" fill="#141414"/>
<path d="M62.3096 35.9784C62.3096 39.5877 59.777 41.0497 56.651 39.2451C53.525 37.4405 50.9863 33.0543 50.9863 29.4573C50.9863 25.8603 53.525 24.386 56.651 26.1906C59.777 27.9953 62.3096 32.3814 62.3096 35.9784Z" fill="#0962FF"/>
<path d="M59.1769 40.2852C58.2337 40.2527 57.3158 39.9721 56.5158 39.4716C53.3225 37.6364 50.7227 33.1279 50.7227 29.4391C50.7227 27.6039 51.3344 26.2152 52.515 25.5484C53.6957 24.8816 55.1822 25.0223 56.7972 25.9461C59.9905 27.7813 62.5904 32.2898 62.5904 35.9785C62.5904 37.8138 61.9786 39.2024 60.8041 39.8692C60.3095 40.1531 59.747 40.2969 59.1769 40.2852ZM54.1239 25.6524C53.6527 25.6437 53.1878 25.762 52.7781 25.995C51.7932 26.5639 51.2549 27.7813 51.2549 29.4268C51.2549 32.9504 53.7018 37.2448 56.7605 39.0067C58.1859 39.8264 59.5194 39.9671 60.4982 39.4043C61.477 38.8415 62.0276 37.6119 62.0276 35.9663C62.0276 32.4427 59.55 28.1483 56.5219 26.3926C55.8017 25.939 54.9745 25.6837 54.1239 25.6524Z" fill="#141414"/>
<path d="M60.4086 34.8775C60.4086 37.2755 58.7264 38.242 56.6526 37.0491C55.5598 36.3363 54.6504 35.3762 53.9978 34.2464C53.3453 33.1167 52.968 31.8491 52.8965 30.5464C52.8965 28.1545 54.5788 27.1818 56.6526 28.3808C57.7445 29.093 58.6535 30.0523 59.306 31.1809C59.9585 32.3095 60.3362 33.5758 60.4086 34.8775Z" fill="#141414"/>
<path d="M58.3272 37.8259C57.6775 37.8081 57.0442 37.6181 56.492 37.2754C55.3622 36.5369 54.422 35.543 53.7472 34.3741C53.0724 33.2051 52.682 31.8939 52.6074 30.5463C52.6074 29.3228 53.0418 28.344 53.8309 27.8913C54.62 27.4386 55.6661 27.5243 56.7489 28.1544C57.8822 28.8897 58.8254 29.8826 59.5016 31.0521C60.1778 32.2216 60.5677 33.5345 60.6395 34.8835C60.6395 36.1069 60.1991 37.0857 59.4161 37.5445C59.0837 37.7313 58.7084 37.8282 58.3272 37.8259ZM54.9748 28.0993C54.6777 28.096 54.3847 28.1697 54.1245 28.3134C53.5128 28.6743 53.158 29.4574 53.158 30.5157C53.2271 31.7725 53.591 32.9955 54.2201 34.0858C54.8492 35.1762 55.7259 36.1032 56.7795 36.7921C57.6971 37.3243 58.5474 37.4038 59.1714 37.0551C59.7953 36.7064 60.1379 35.9112 60.1379 34.8529C60.0692 33.5959 59.7056 32.3727 59.0765 31.2823C58.4473 30.192 57.5703 29.265 56.5164 28.5765C56.0527 28.2863 55.5214 28.1218 54.9748 28.0993Z" fill="#141414"/>
<path d="M56.6514 28.3685C56.1328 28.0465 55.5366 27.871 54.9263 27.8608C54.6676 28.1521 54.4695 28.492 54.3434 28.8606C54.2174 29.2292 54.166 29.6193 54.1922 30.008C54.2622 31.311 54.6389 32.5791 55.2916 33.7091C55.9443 34.8391 56.8545 35.799 57.9483 36.5107C58.4643 36.8342 59.0584 37.0118 59.6673 37.0246C59.9264 36.7321 60.1251 36.3913 60.2521 36.0218C60.3792 35.6523 60.4319 35.2613 60.4075 34.8713C60.336 33.5686 59.9587 32.301 59.3061 31.1713C58.6536 30.0415 57.7441 29.0813 56.6514 28.3685Z" fill="#86B2FF"/>
<path d="M59.6191 37.2755C58.9804 37.2542 58.3584 37.0665 57.8145 36.731C56.6851 35.9922 55.7451 34.9982 55.0704 33.8294C54.3956 32.6605 54.005 31.3495 53.93 30.0019C53.9036 29.5779 53.962 29.1529 54.1017 28.7517C54.2414 28.3504 54.4596 27.9811 54.7436 27.6651L54.817 27.5917H54.9271C55.5768 27.6041 56.211 27.7922 56.7623 28.1361C57.8956 28.8714 58.8388 29.8644 59.515 31.0339C60.1912 32.2034 60.5811 33.5162 60.653 34.8652C60.6799 35.2898 60.6212 35.7154 60.4803 36.1169C60.3395 36.5183 60.1195 36.8873 59.8332 37.2021L59.7598 37.2755H59.6008H59.6191ZM55.0433 28.0994C54.6142 28.6306 54.3964 29.3016 54.4316 29.9836C54.5012 31.2403 54.8653 32.4632 55.4943 33.5534C56.1234 34.6436 56.9999 35.5707 58.0531 36.26C58.5009 36.5351 59.0091 36.6968 59.5335 36.731C59.9511 36.1952 60.1579 35.5249 60.1147 34.8469C60.047 33.5905 59.6837 32.3678 59.0544 31.2783C58.4251 30.1887 57.5476 29.2631 56.4932 28.5766C56.0546 28.3046 55.5577 28.1411 55.0433 28.0994Z" fill="#141414"/>
<path d="M56.3277 29.9317L53.7168 31.3558L53.9106 31.7111L56.5215 30.287L56.3277 29.9317Z" fill="#0962FF"/>
<path d="M58.8873 35.0243L56.2852 36.4495L56.4791 36.8036L59.0813 35.3784L58.8873 35.0243Z" fill="#0962FF"/>
<path d="M63.8398 35.6962L62.4395 36.4632L62.6334 36.8173L64.0338 36.0503L63.8398 35.6962Z" fill="#0962FF"/>
<path d="M6.25668 39.9977C5.8985 40.2344 5.60108 40.5521 5.38853 40.9252C5.17597 41.2982 5.05425 41.716 5.0332 42.1449V44.5368C5.0332 45.3259 5.58988 45.6501 6.25668 45.2525C6.61418 45.0151 6.91107 44.6971 7.12354 44.3243C7.33601 43.9514 7.45815 43.5339 7.48015 43.1053V40.7134C7.49851 39.9181 6.94182 39.6 6.25668 39.9977ZM6.25668 42.4079C5.77341 42.6893 5.3819 42.463 5.3819 41.9063C5.39897 41.6026 5.48699 41.3072 5.63891 41.0437C5.79083 40.7803 6.00242 40.5561 6.25668 40.3892C6.73995 40.1139 7.13146 40.3402 7.13146 40.8969C7.11538 41.2 7.02772 41.4949 6.87566 41.7575C6.7236 42.0202 6.51149 42.2431 6.25668 42.4079Z" fill="#141414"/>
<path d="M5.70053 45.6867C5.54188 45.6897 5.38541 45.6495 5.24785 45.5705C5.08021 45.4583 4.94577 45.3032 4.85861 45.1214C4.77144 44.9395 4.73474 44.7375 4.75234 44.5366V42.1692C4.77463 41.6921 4.9106 41.2272 5.14896 40.8132C5.38732 40.3993 5.72115 40.0483 6.12263 39.7895C6.28231 39.6612 6.47708 39.5842 6.68135 39.5686C6.88561 39.553 7.08982 39.5995 7.26715 39.702C7.44449 39.8046 7.58666 39.9584 7.67499 40.1433C7.76332 40.3281 7.79368 40.5353 7.76208 40.7377V43.1296C7.73863 43.6072 7.6015 44.0723 7.3621 44.4862C7.1227 44.9001 6.78794 45.2508 6.38567 45.5093C6.17645 45.6266 5.9404 45.6877 5.70053 45.6867ZM5.27843 42.4873V44.5366C5.2624 44.6445 5.27551 44.7547 5.31638 44.8558C5.35725 44.9569 5.42441 45.0452 5.51089 45.1117C5.61129 45.1529 5.72085 45.1668 5.82835 45.1517C5.93586 45.1367 6.03743 45.0933 6.12263 45.026C6.44417 44.8138 6.71207 44.5299 6.90526 44.1966C7.09845 43.8633 7.21168 43.4897 7.236 43.1052V41.6248C7.06628 42.0442 6.76876 42.3995 6.38567 42.6402C6.25697 42.7265 6.10793 42.7775 5.95338 42.7882C5.79883 42.799 5.64416 42.769 5.50477 42.7014C5.41532 42.6465 5.33825 42.5736 5.27843 42.4873ZM6.64871 40.5359C6.55532 40.5423 6.46497 40.5718 6.38567 40.6215C6.17203 40.7645 5.99416 40.9548 5.8658 41.1775C5.73745 41.4003 5.66207 41.6496 5.64547 41.9062C5.63764 41.9679 5.64466 42.0307 5.66594 42.0892C5.68721 42.1477 5.72213 42.2003 5.76781 42.2426C5.82746 42.2621 5.89097 42.2667 5.9528 42.256C6.01463 42.2453 6.07294 42.2198 6.12263 42.1814C6.33806 42.0398 6.51761 41.85 6.64713 41.627C6.77665 41.4041 6.85259 41.1541 6.86895 40.8968C6.8771 40.8345 6.86962 40.7711 6.8472 40.7123C6.82478 40.6536 6.78811 40.6014 6.74049 40.5603C6.71346 40.5422 6.68117 40.5336 6.64871 40.5359Z" fill="#0962FF"/>
<path d="M31.0323 54.5692H30.0535C30.0324 54.5692 30.0122 54.5608 29.9973 54.5459C29.9824 54.531 29.974 54.5107 29.974 54.4896C29.9189 52.5504 28.6098 50.6112 26.0405 49.1308C20.7979 46.1027 12.2887 46.1027 7.04608 49.1308C4.47678 50.6112 3.16765 52.5504 3.11259 54.4896C3.11259 54.5107 3.10423 54.531 3.08931 54.5459C3.0744 54.5608 3.05416 54.5692 3.03306 54.5692H2.09711C2.08066 54.5688 2.06447 54.5733 2.05047 54.5819C2.03647 54.5905 2.02525 54.603 2.01816 54.6178C2.01106 54.6327 2.00838 54.6493 2.01045 54.6656C2.01252 54.6819 2.01925 54.6973 2.02982 54.7099L3.99962 57.3526C4.78916 58.4958 5.83706 59.4368 7.05831 60.0993C12.3009 63.1274 20.8102 63.1274 26.0528 60.0993C27.2728 59.4351 28.3204 58.4944 29.1114 57.3526L31.0812 54.7099C31.0912 54.6985 31.098 54.6847 31.1009 54.6698C31.1038 54.6549 31.1027 54.6396 31.0977 54.6253C31.0928 54.611 31.0841 54.5982 31.0726 54.5884C31.0611 54.5785 31.0472 54.5719 31.0323 54.5692Z" fill="#141414"/>
<path d="M16.5957 62.6259C13.2428 62.69 9.92886 61.8984 6.96694 60.3258C5.72089 59.6485 4.6488 58.6915 3.83484 57.5301L1.85892 54.8813C1.826 54.8269 1.80859 54.7645 1.80859 54.7008C1.80859 54.6372 1.826 54.5748 1.85892 54.5204C1.88689 54.4614 1.93111 54.4117 1.98638 54.377C2.04165 54.3423 2.10567 54.3242 2.17092 54.3246H2.96004C3.08851 52.2753 4.51997 50.3606 7.00975 48.923C12.3196 45.8643 20.9635 45.8643 26.2734 48.923C28.7631 50.3606 30.1946 52.2753 30.3231 54.3246H31.1061C31.1709 54.3243 31.2344 54.3421 31.2896 54.3759C31.3449 54.4097 31.3896 54.4582 31.4188 54.516C31.448 54.5738 31.4606 54.6386 31.4551 54.7031C31.4495 54.7676 31.4261 54.8293 31.3875 54.8813L29.3993 57.5546C28.5881 58.7145 27.5178 59.6696 26.2734 60.3441C23.2951 61.9182 19.9635 62.7038 16.5957 62.6259ZM4.16517 57.0897L4.2447 57.212C5.01485 58.3192 6.0356 59.2289 7.22386 59.867C12.3869 62.8522 20.7861 62.8522 25.9492 59.867C27.1361 59.227 28.1564 58.3177 28.9283 57.212L29.0201 57.0897L30.6962 54.8385H30.0845C29.9931 54.8385 29.9053 54.8026 29.8401 54.7385C29.7749 54.6745 29.7374 54.5873 29.7358 54.4959C29.6869 52.5689 28.3349 50.746 25.9369 49.3573C20.7738 46.3782 12.3747 46.3782 7.21163 49.3573C4.81362 50.746 3.46168 52.5689 3.41274 54.4959C3.41114 54.5873 3.37368 54.6745 3.30846 54.7385C3.24324 54.8026 3.15548 54.8385 3.06405 54.8385H2.45231L4.16517 57.0897Z" fill="#141414"/>
<path d="M8.8751 60.9619C12.9551 62.4943 17.3977 62.7838 21.6421 61.7938L24.7742 55.2849L4.19531 53.6516L8.8751 60.9619Z" fill="#0962FF"/>
<path d="M16.5941 62.6319C13.9296 62.6534 11.2851 62.1697 8.8006 61.2066L8.72107 61.176L3.71094 53.3519L25.1585 55.0525L21.8061 62.0202L21.6838 62.0508C20.015 62.438 18.3073 62.633 16.5941 62.6319ZM9.07587 60.7478C13.0441 62.229 17.3595 62.514 21.488 61.5675L24.3999 55.5174L4.73253 53.9575L9.07587 60.7478Z" fill="#141414"/>
<path d="M16.5708 60.0504C25.4259 60.0504 32.6044 55.9066 32.6044 50.7948C32.6044 45.6831 25.4259 41.5392 16.5708 41.5392C7.71562 41.5392 0.537109 45.6831 0.537109 50.7948C0.537109 55.9066 7.71562 60.0504 16.5708 60.0504Z" fill="white"/>
<path d="M16.5953 60.3013C12.4416 60.3013 8.29399 59.3898 5.13131 57.5668C1.96862 55.7438 0.304688 53.3642 0.304688 50.7949C0.304688 48.2256 2.01756 45.8153 5.13131 44.0168C11.4506 40.3464 21.74 40.3464 28.0653 44.0168C31.1791 45.8153 32.892 48.2194 32.892 50.7949C32.892 53.3703 31.1791 55.7683 28.0653 57.5668C24.9516 59.3653 20.7184 60.3013 16.5953 60.3013ZM16.5953 41.8023C12.5394 41.8023 8.48362 42.6893 5.39435 44.4756C2.45189 46.1762 0.830792 48.4152 0.830792 50.7949C0.830792 53.1745 2.45189 55.4074 5.39435 57.108C11.5729 60.6744 21.6238 60.6744 27.8023 57.108C30.7448 55.4074 32.3659 53.1684 32.3659 50.7949C32.3659 48.4213 30.7448 46.1762 27.8023 44.4756C24.6824 42.6893 20.6266 41.8023 16.5953 41.8023Z" fill="#141414"/>
<path d="M16.5637 58.2765C24.2262 58.2765 30.4379 54.9268 30.4379 50.7949C30.4379 46.663 24.2262 43.3134 16.5637 43.3134C8.90114 43.3134 2.68945 46.663 2.68945 50.7949C2.68945 54.9268 8.90114 58.2765 16.5637 58.2765Z" fill="#86B2FF"/>
<path d="M16.594 58.5333C13.1523 58.6011 9.74476 57.8394 6.65942 56.3127C3.94942 54.8567 2.46289 52.8931 2.46289 50.807C2.46289 48.721 3.94942 46.7451 6.65942 45.3014C12.1651 42.3467 21.0536 42.3467 26.5286 45.3014C29.2386 46.7635 30.7313 48.721 30.7313 50.807C30.7313 52.8931 29.2386 54.869 26.5286 56.3127C23.8186 57.7564 20.1605 58.5333 16.594 58.5333ZM16.594 43.5702C13.2391 43.5045 9.91764 44.2473 6.91023 45.7357C4.38376 47.0999 2.98899 48.8923 2.98899 50.7948C2.98899 52.6973 4.38376 54.4652 6.91023 55.8539C12.2507 58.729 20.9435 58.729 26.2778 55.8539C28.8104 54.4836 30.2052 52.6912 30.2052 50.7948C30.2052 48.8984 28.8104 47.1244 26.2778 45.7357C23.2709 44.2459 19.9491 43.5031 16.594 43.5702Z" fill="#141414"/>
<path d="M6.75829 47.7422C12.1783 44.8181 20.9567 44.8181 26.3767 47.7422C28.4872 48.88 29.778 50.2993 30.2429 51.7736C30.2461 51.7815 30.2516 51.7883 30.2586 51.7931C30.2657 51.7979 30.2741 51.8005 30.2826 51.8005C30.2912 51.8005 30.2996 51.7979 30.3067 51.7931C30.3137 51.7883 30.3192 51.7815 30.3224 51.7736C30.8607 49.5468 29.5455 47.2161 26.3767 45.5094C20.9567 42.5853 12.1783 42.5853 6.75829 45.5094C3.58949 47.2161 2.27424 49.5468 2.81257 51.7736C2.81575 51.7815 2.82124 51.7883 2.82833 51.7931C2.83542 51.7979 2.84378 51.8005 2.85234 51.8005C2.8609 51.8005 2.86926 51.7979 2.87634 51.7931C2.88343 51.7883 2.88892 51.7815 2.8921 51.7736C3.35702 50.2993 4.64779 48.8984 6.75829 47.7422Z" fill="#0962FF"/>
<path d="M2.85507 52.0672C2.78811 52.0629 2.72423 52.0374 2.67259 51.9946C2.62095 51.9517 2.58419 51.8937 2.56756 51.8287C1.95582 49.3817 3.4607 46.9898 6.64173 45.2708C12.1474 42.3161 21.0359 42.3161 26.511 45.2708C29.6981 46.9898 31.1846 49.3817 30.5851 51.8348C30.5691 51.8996 30.5324 51.9574 30.4805 51.9994C30.4286 52.0413 30.3643 52.0652 30.2976 52.0672C30.2327 52.0658 30.1697 52.0445 30.1172 52.0062C30.0647 51.968 30.0252 51.9145 30.004 51.8531C29.5452 50.385 28.2544 49.0452 26.2724 47.9747C20.9319 45.0934 12.2391 45.0934 6.89865 47.9747C4.91662 49.0452 3.62586 50.385 3.16094 51.8531C3.14075 51.9176 3.0998 51.9735 3.04447 52.0123C2.98914 52.051 2.92254 52.0703 2.85507 52.0672ZM16.5947 43.5702C13.2398 43.5045 9.9183 44.2473 6.9109 45.7358C4.31101 47.1366 2.92237 48.9902 2.98966 50.9172C3.84422 49.4394 5.12293 48.2523 6.66008 47.5098C12.1657 44.5551 21.0543 44.5551 26.5293 47.5098C28.0671 48.2514 29.3461 49.4387 30.1997 50.9172C30.267 48.9902 28.8784 47.1366 26.2785 45.7358C23.271 44.2475 19.9496 43.5048 16.5947 43.5702Z" fill="#141414"/>
<path d="M25.7809 58.3517L24.6953 60.4142L25.0526 60.6022L26.1382 58.5398L25.7809 58.3517Z" fill="#0962FF"/>
<path d="M22.5959 46.2985L23.8194 44.4143C18.4789 42.6464 11.395 43.0012 6.76413 45.4971C3.59533 47.21 2.2801 49.5407 2.81843 51.7674C2.82161 51.7754 2.82708 51.7822 2.83417 51.787C2.84126 51.7918 2.84964 51.7944 2.8582 51.7944C2.86676 51.7944 2.87512 51.7918 2.8822 51.787C2.88929 51.7822 2.89477 51.7754 2.89794 51.7674C3.36286 50.287 4.65363 48.8739 6.76413 47.7361C11.0463 45.4298 17.4328 44.9527 22.5959 46.2985Z" fill="#141414"/>
<path d="M2.85507 52.0611C2.78835 52.0591 2.72413 52.0352 2.67221 51.9932C2.6203 51.9513 2.58355 51.8935 2.56756 51.8287C1.95582 49.3817 3.46069 46.9837 6.64173 45.2647C11.2542 42.7749 18.3565 42.3284 23.9111 44.1636L24.2353 44.2737L22.7121 46.6044L22.5286 46.5555C17.2798 45.1852 10.9912 45.7541 6.8803 47.9747C4.89827 49.0453 3.60751 50.385 3.14259 51.847C3.12504 51.9094 3.08729 51.9643 3.03528 52.003C2.98327 52.0418 2.91991 52.0622 2.85507 52.0611ZM16.5396 43.5641C13.1929 43.5024 9.88032 44.245 6.8803 45.7296C4.28041 47.1366 2.89177 48.9902 2.95906 50.9172C3.81362 49.4394 5.09233 48.2523 6.62948 47.5098C10.8015 45.2586 17.1453 44.6591 22.4796 45.9988L23.4095 44.5612C21.1816 43.8902 18.8663 43.5541 16.5396 43.5641Z" fill="#141414"/>
<path d="M6.44594 47.9073L6.06055 47.7788C6.35103 46.9216 6.73897 46.1006 7.21674 45.3318L7.55319 45.5643C7.09533 46.3002 6.7238 47.0863 6.44594 47.9073Z" fill="#0962FF"/>
<path d="M28.0164 52.4281C27.6581 52.6661 27.3607 52.985 27.1482 53.359C26.9357 53.733 26.814 54.1517 26.793 54.5814V56.9733C26.793 57.7624 27.3497 58.0805 28.0164 57.689C28.3748 57.451 28.6721 57.1321 28.8846 56.7581C29.0971 56.3841 29.2189 55.9654 29.2399 55.5357V53.1438C29.2583 52.3547 28.7016 52.0366 28.0164 52.4281ZM28.0164 54.8444C27.5332 55.1197 27.1416 54.8995 27.1416 54.3367C27.1577 54.0336 27.2454 53.7387 27.3974 53.4761C27.5495 53.2134 27.7616 52.9906 28.0164 52.8257C28.4997 52.5443 28.8912 52.7707 28.8912 53.3273C28.8751 53.6312 28.7875 53.927 28.6355 54.1906C28.4835 54.4542 28.2714 54.6783 28.0164 54.8444Z" fill="#141414"/>
<path d="M27.4601 58.1234C27.301 58.1234 27.1448 58.0812 27.0074 58.0011C26.8403 57.8899 26.7061 57.7359 26.6189 57.5551C26.5317 57.3743 26.4948 57.1733 26.5119 56.9733V54.5814C26.5347 54.1044 26.6709 53.6397 26.9092 53.2259C27.1475 52.812 27.4811 52.4609 27.8822 52.2018C28.0479 52.0869 28.2414 52.0183 28.4425 52.0033C28.6436 51.9882 28.8451 52.0272 29.0261 52.1161C29.1933 52.2273 29.3275 52.3813 29.4146 52.5621C29.5018 52.7429 29.5388 52.9439 29.5217 53.1439V55.5358C29.4994 56.0129 29.3634 56.4778 29.125 56.8917C28.8867 57.3057 28.5529 57.6566 28.1514 57.9154C27.9438 58.0456 27.705 58.1174 27.4601 58.1234ZM27.038 54.9179V56.9733C27.022 57.0812 27.0351 57.1914 27.076 57.2925C27.1168 57.3936 27.184 57.4819 27.2705 57.5484C27.372 57.5852 27.4811 57.5962 27.588 57.5801C27.6948 57.5641 27.7959 57.5217 27.8822 57.4566C28.2061 57.2469 28.4758 56.9635 28.6693 56.6297C28.8628 56.2959 28.9746 55.921 28.9955 55.5358V54.0615C28.826 54.4776 28.5309 54.8304 28.1514 55.0708C28.0227 55.16 27.8724 55.2127 27.7163 55.2235C27.5601 55.2343 27.404 55.2027 27.2643 55.132C27.1735 55.079 27.096 55.0057 27.038 54.9179ZM28.4083 52.9726C28.3171 52.9758 28.2284 53.0032 28.1514 53.0521C27.9359 53.1938 27.7564 53.3836 27.6269 53.6065C27.4973 53.8294 27.4214 54.0794 27.405 54.3367C27.3977 54.3994 27.4049 54.4629 27.4261 54.5223C27.4473 54.5818 27.482 54.6355 27.5274 54.6793C27.5872 54.6973 27.6504 54.7011 27.712 54.6905C27.7735 54.6799 27.8318 54.6551 27.8822 54.6181C28.0978 54.4752 28.2773 54.2842 28.4068 54.0603C28.5363 53.8364 28.6122 53.5855 28.6285 53.3274C28.6354 53.2657 28.6279 53.2032 28.6067 53.1448C28.5855 53.0865 28.5511 53.0338 28.5062 52.9909C28.4751 52.9783 28.4418 52.9721 28.4083 52.9726Z" fill="#0962FF"/>
<path d="M27.4403 58.1173C27.3057 58.1182 27.1724 58.0911 27.0488 58.0378L27.2324 57.6769C27.2324 57.6769 27.9358 57.9827 28.7128 56.6614L29.0615 56.8694C28.4497 57.9154 27.8319 58.1173 27.4403 58.1173Z" fill="#86B2FF"/>
<path d="M27.7651 52.9054L16.5336 16.4274L6.5011 40.0956L6.01172 39.8937L16.1115 16.0726C16.1427 15.983 16.2015 15.9056 16.2796 15.8517C16.3577 15.7978 16.451 15.7702 16.5458 15.7729C16.6476 15.7746 16.7458 15.8106 16.8246 15.8749C16.9034 15.9393 16.9582 16.0283 16.9802 16.1277L28.2545 52.7463L27.7651 52.9054Z" fill="#0962FF"/>
<path d="M18.4304 16.2683L16.7175 12.3715C16.6893 12.3074 16.6431 12.2529 16.5844 12.2146C16.5258 12.1764 16.4572 12.156 16.3872 12.156C16.3172 12.156 16.2486 12.1764 16.19 12.2146C16.1313 12.2529 16.0851 12.3074 16.0569 12.3715L14.344 16.2683C14.136 16.8005 14.5397 17.3878 15.5675 17.6569C16.1007 17.7977 16.6614 17.7977 17.1947 17.6569C18.2041 17.3878 18.6017 16.8005 18.4304 16.2683Z" fill="white"/>
<path d="M16.3571 18.0301C16.0597 18.0283 15.7638 17.9893 15.4762 17.9138C15.1983 17.8641 14.9336 17.7574 14.6989 17.6006C14.4641 17.4437 14.2643 17.2401 14.112 17.0023C14.0452 16.8762 14.0063 16.7372 13.9978 16.5947C13.9894 16.4523 14.0116 16.3096 14.0631 16.1765L15.7821 12.2675C15.8297 12.155 15.9099 12.0593 16.0124 11.9928C16.1149 11.9263 16.2349 11.892 16.3571 11.8943C16.4792 11.892 16.5993 11.9263 16.7018 11.9928C16.8043 12.0593 16.8845 12.155 16.9321 12.2675L18.6511 16.1765C18.7025 16.3096 18.7248 16.4523 18.7163 16.5947C18.7079 16.7372 18.6689 16.8762 18.6022 17.0023C18.4498 17.2401 18.25 17.4437 18.0153 17.6006C17.7805 17.7574 17.5159 17.8641 17.238 17.9138C16.9503 17.9889 16.6544 18.0279 16.3571 18.0301ZM16.3571 12.4204C16.3372 12.4193 16.3175 12.4247 16.301 12.4357C16.2844 12.4467 16.2719 12.4628 16.2653 12.4816L14.5525 16.3784C14.5241 16.4387 14.5094 16.5045 14.5094 16.5711C14.5094 16.6377 14.5241 16.7035 14.5525 16.7638C14.8033 17.0926 15.1715 17.3118 15.5802 17.3755C16.0694 17.5041 16.5836 17.5041 17.0728 17.3755C17.4815 17.3118 17.8497 17.0926 18.1005 16.7638C18.129 16.7024 18.1437 16.6356 18.1437 16.568C18.1437 16.5004 18.129 16.4336 18.1005 16.3723L16.3938 12.4816C16.3921 12.4695 16.3879 12.4578 16.3816 12.4473C16.3753 12.4368 16.367 12.4277 16.3571 12.4204Z" fill="#141414"/>
<path d="M16.8632 17.6999C17.9949 17.443 18.6128 16.8007 18.3987 16.2501L16.6858 12.3533C16.659 12.2879 16.6132 12.2319 16.5543 12.1927C16.4955 12.1535 16.4262 12.1327 16.3555 12.1331L16.8632 17.6999Z" fill="#141414"/>
<path d="M17.5116 14.6746L17.125 14.7909L17.71 16.7358L18.0966 16.6195L17.5116 14.6746Z" fill="#0962FF"/>
<path d="M16.7596 12.1576H15.9827V11.9435C15.9827 11.4686 15.8722 11.0003 15.6598 10.5756C15.4475 10.1509 15.1391 9.78144 14.7593 9.49653C14.2885 9.14742 13.9534 8.64584 13.8111 8.0773C13.6862 7.65704 13.6555 7.21444 13.7211 6.78095C13.7866 6.34747 13.9468 5.93374 14.1903 5.56918C14.3724 5.31145 14.6096 5.09755 14.8848 4.94305C15.1599 4.78855 15.466 4.69734 15.7809 4.67604C16.238 4.597 16.7084 4.68033 17.1106 4.91159C17.5128 5.14285 17.8214 5.50748 17.9831 5.94234L17.2246 6.22986C17.0961 5.88117 16.8025 5.42236 15.8359 5.48965C15.6398 5.49974 15.4488 5.55528 15.2778 5.65189C15.1069 5.7485 14.9608 5.88354 14.851 6.04634C14.6759 6.31452 14.562 6.61803 14.5176 6.93525C14.4732 7.25247 14.4993 7.57558 14.5941 7.88155C14.697 8.27327 14.9299 8.6184 15.2548 8.86033C15.7318 9.21654 16.1205 9.67762 16.391 10.208C16.6615 10.7383 16.8064 11.3237 16.8147 11.919L16.7596 12.1576Z" fill="#141414"/>
<path d="M14.8091 6.07671L14.1484 5.55674C14.3409 5.3075 14.5848 5.10258 14.8634 4.95586C15.1421 4.80915 15.449 4.72408 15.7634 4.70642L15.7145 5.52003C15.5334 5.54545 15.3594 5.60802 15.2037 5.70381C15.0479 5.79961 14.9135 5.92656 14.8091 6.07671Z" fill="#0962FF"/>
<path d="M92.5047 89.6097C92.1464 89.8477 91.849 90.1666 91.6365 90.5406C91.424 90.9146 91.3023 91.3333 91.2812 91.763V94.1671C91.2812 94.9563 91.8379 95.2805 92.5047 94.8828C92.8622 94.6454 93.1591 94.3275 93.3716 93.9546C93.5841 93.5817 93.7062 93.1642 93.7282 92.7356V90.3376C93.7466 89.5363 93.1899 89.2182 92.5047 89.6097ZM92.5047 92.026C92.0215 92.3074 91.6299 92.0811 91.6299 91.5183C91.646 91.2152 91.7337 90.9203 91.8857 90.6577C92.0378 90.395 92.2499 90.1721 92.5047 90.0073C92.988 89.7259 93.3795 89.9522 93.3795 90.5089C93.3634 90.8128 93.2758 91.1086 93.1238 91.3722C92.9718 91.6358 92.7597 91.8599 92.5047 92.026Z" fill="#141414"/>
<path d="M91.9545 95.3048C91.7935 95.305 91.6352 95.2628 91.4957 95.1825C91.3285 95.0713 91.1944 94.9173 91.1072 94.7365C91.02 94.5556 90.983 94.3547 91.0002 94.1547V91.7628C91.0231 91.2852 91.1601 90.8199 91.3995 90.4059C91.6389 89.9919 91.974 89.6413 92.3766 89.3832C92.536 89.2577 92.7294 89.1828 92.9318 89.1682C93.1342 89.1536 93.3363 89.2 93.5121 89.3014C93.6879 89.4028 93.8292 89.5545 93.918 89.737C94.0067 89.9195 94.0387 90.1244 94.0099 90.3253V92.7233C93.9882 93.1997 93.8524 93.6639 93.6139 94.077C93.3755 94.49 93.0413 94.8397 92.6396 95.0968C92.434 95.2262 92.1974 95.298 91.9545 95.3048ZM91.5263 92.1054V94.167C91.5102 94.2748 91.5233 94.385 91.5642 94.4861C91.6051 94.5872 91.6722 94.6756 91.7587 94.742C91.86 94.7786 91.9686 94.79 92.0752 94.7751C92.1818 94.7601 92.2832 94.7194 92.3705 94.6564C92.6902 94.4428 92.9564 94.1584 93.1485 93.8253C93.3405 93.4921 93.4532 93.1192 93.4777 92.7355V91.2551C93.3082 91.6712 93.0131 92.024 92.6335 92.2645C92.5055 92.3525 92.3563 92.4046 92.2014 92.4153C92.0465 92.4261 91.8915 92.3951 91.7526 92.3256C91.661 92.2709 91.5835 92.1954 91.5263 92.1054ZM92.8966 90.154C92.8054 90.1572 92.7167 90.1846 92.6396 90.2335C92.4242 90.3752 92.2446 90.565 92.1151 90.7879C91.9856 91.0108 91.9097 91.2608 91.8933 91.5181C91.8852 91.5814 91.8927 91.6457 91.9151 91.7054C91.9374 91.7651 91.9741 91.8184 92.0218 91.8607C92.0816 91.8787 92.1448 91.8825 92.2064 91.8719C92.268 91.8613 92.3262 91.8365 92.3766 91.7995C92.5904 91.6552 92.7682 91.4638 92.8965 91.2401C93.0249 91.0163 93.1002 90.7662 93.1168 90.5088C93.1236 90.4471 93.1162 90.3846 93.0949 90.3262C93.0737 90.2679 93.0393 90.2152 92.9944 90.1723C92.9634 90.1597 92.9301 90.1535 92.8966 90.154Z" fill="#0962FF"/>
<path d="M117.288 104.187H116.309C116.288 104.187 116.268 104.179 116.253 104.164C116.238 104.149 116.229 104.129 116.229 104.108C116.174 102.162 114.865 100.229 112.296 98.749C107.053 95.6903 98.5502 95.6903 93.3015 98.749C90.7322 100.229 89.423 102.162 89.3741 104.108C89.3741 104.119 89.3719 104.13 89.3675 104.14C89.3631 104.15 89.3567 104.159 89.3487 104.166C89.3406 104.174 89.3311 104.179 89.3208 104.183C89.3104 104.187 89.2994 104.188 89.2884 104.187H88.3525C88.3366 104.187 88.3208 104.191 88.307 104.198C88.2931 104.206 88.2817 104.218 88.2741 104.232C88.2665 104.246 88.2629 104.262 88.2638 104.278C88.2647 104.294 88.27 104.309 88.2791 104.322L90.255 106.971C91.0465 108.111 92.094 109.049 93.3137 109.711C98.5624 112.77 107.066 112.77 112.308 109.711C113.527 109.049 114.575 108.11 115.367 106.971L117.337 104.322C117.345 104.311 117.351 104.297 117.353 104.283C117.355 104.269 117.353 104.255 117.348 104.241C117.344 104.228 117.336 104.216 117.325 104.207C117.314 104.197 117.301 104.191 117.288 104.187Z" fill="#141414"/>
<path d="M102.851 112.238C99.4981 112.304 96.1843 111.514 93.2218 109.944C91.9744 109.263 90.9005 108.304 90.0836 107.142L88.1138 104.493C88.0751 104.441 88.0517 104.379 88.0462 104.315C88.0407 104.25 88.0532 104.186 88.0824 104.128C88.1116 104.07 88.1564 104.021 88.2116 103.988C88.2668 103.954 88.3304 103.936 88.3952 103.936H89.1782C89.3066 101.881 90.7381 99.9662 93.234 98.5286C98.5439 95.4699 107.182 95.4699 112.492 98.5286C114.981 99.9662 116.413 101.881 116.547 103.936H117.33C117.395 103.937 117.458 103.955 117.513 103.988C117.568 104.021 117.612 104.069 117.642 104.126C117.673 104.184 117.686 104.249 117.681 104.314C117.675 104.379 117.651 104.441 117.612 104.493L115.617 107.166C114.805 108.325 113.735 109.28 112.492 109.956C109.524 111.524 106.206 112.31 102.851 112.238ZM90.4139 106.732L90.4934 106.848C91.2647 107.956 92.2851 108.867 93.4726 109.509C98.6357 112.488 107.035 112.488 112.204 109.509C113.391 108.869 114.409 107.957 115.177 106.848L115.269 106.732L116.951 104.475H116.339C116.25 104.475 116.163 104.439 116.099 104.377C116.035 104.314 115.998 104.228 115.997 104.138C115.942 102.211 114.596 100.382 112.198 98.9997C107.035 96.0205 98.6295 96.0205 93.4665 98.9997C91.0685 100.382 89.7165 102.211 89.6676 104.138C89.6644 104.229 89.6263 104.314 89.5612 104.377C89.4962 104.44 89.4093 104.475 89.3189 104.475H88.7071L90.4139 106.732Z" fill="#141414"/>
<path d="M95.1293 110.58C99.2092 112.113 103.652 112.402 107.896 111.412L111.022 104.903L90.4434 103.27L95.1293 110.58Z" fill="#0962FF"/>
<path d="M102.85 112.25C100.187 112.271 97.5449 111.788 95.0626 110.825H94.9831L94.9341 110.751L89.9668 102.994L111.414 104.67L108.062 111.638L107.94 111.669C106.271 112.056 104.563 112.251 102.85 112.25ZM95.3379 110.366C99.3046 111.844 103.618 112.127 107.744 111.179L110.65 105.135L90.9823 103.575L95.3379 110.366Z" fill="#141414"/>
<path d="M114.156 93.8611C120.414 97.4764 120.414 103.337 114.156 106.952C107.898 110.568 97.743 110.568 91.4849 106.952C85.2268 103.337 85.2207 97.4764 91.4849 93.8611C97.7491 90.2457 107.892 90.2457 114.156 93.8611Z" fill="white"/>
<path d="M102.849 109.919C98.6957 109.919 94.542 109.008 91.3794 107.179C88.2167 105.349 86.5527 102.976 86.5527 100.407C86.5527 97.8373 88.2656 95.4332 91.3794 93.6347C97.7047 89.9643 107.994 89.9643 114.32 93.6347C117.427 95.4332 119.146 97.8373 119.146 100.407C119.146 102.976 117.427 105.386 114.32 107.179C111.212 108.971 106.973 109.919 102.849 109.919ZM102.849 91.4141C98.7936 91.4141 94.7317 92.3072 91.6424 94.0935C88.6999 95.788 87.0788 98.0331 87.0788 100.407C87.0788 102.78 88.6999 105.025 91.6424 106.726C97.8209 110.292 107.878 110.292 114.05 106.726C116.999 105.025 118.614 102.78 118.614 100.407C118.614 98.0331 116.999 95.788 114.05 94.0935C110.93 92.3317 106.875 91.4141 102.849 91.4141Z" fill="#141414"/>
<path d="M102.82 107.888C110.482 107.888 116.694 104.538 116.694 100.407C116.694 96.2746 110.482 92.925 102.82 92.925C95.157 92.925 88.9453 96.2746 88.9453 100.407C88.9453 104.538 95.157 107.888 102.82 107.888Z" fill="#86B2FF"/>
<path d="M102.85 108.145C99.247 108.145 95.65 107.411 92.9155 105.931C90.1811 104.45 88.7129 102.511 88.7129 100.425C88.7129 98.3391 90.2055 96.3632 92.9155 94.9195C98.4212 91.9648 107.304 91.9648 112.785 94.9195C115.495 96.3816 116.987 98.3452 116.981 100.425C116.975 102.505 115.495 104.487 112.785 105.931C110.075 107.374 106.417 108.145 102.85 108.145ZM102.85 93.1883C99.4958 93.1222 96.1748 93.8628 93.1663 95.3477C90.6337 96.7119 89.239 98.5104 89.239 100.407C89.239 102.303 90.6337 104.077 93.1663 105.466C98.5007 108.347 107.193 108.347 112.534 105.466C115.06 104.102 116.455 102.303 116.455 100.407C116.455 98.5104 115.06 96.7364 112.534 95.3477C109.525 93.8641 106.204 93.1236 102.85 93.1883Z" fill="#141414"/>
<path d="M93.0064 97.3603C98.4264 94.4362 107.211 94.4362 112.625 97.3603C114.741 98.4981 116.026 99.9113 116.491 101.392C116.494 101.4 116.5 101.406 116.507 101.411C116.514 101.416 116.522 101.419 116.531 101.419C116.539 101.419 116.548 101.416 116.555 101.411C116.562 101.406 116.567 101.4 116.571 101.392C117.109 99.1649 115.8 96.8342 112.625 95.1214C107.211 92.2034 98.4264 92.2034 93.0064 95.1214C89.8376 96.8342 88.5224 99.1649 89.0668 101.392C89.07 101.4 89.0755 101.406 89.0826 101.411C89.0897 101.416 89.098 101.419 89.1066 101.419C89.1152 101.419 89.1235 101.416 89.1306 101.411C89.1377 101.406 89.1432 101.4 89.1464 101.392C89.6113 99.9113 90.8959 98.4981 93.0064 97.3603Z" fill="#0962FF"/>
<path d="M116.528 101.679C116.463 101.679 116.4 101.658 116.349 101.62C116.297 101.581 116.259 101.527 116.24 101.465C115.775 100.003 114.485 98.6633 112.503 97.5928C107.162 94.7115 98.4755 94.7115 93.1351 97.5928C91.153 98.6633 89.8562 100.003 89.3974 101.471C89.3755 101.533 89.3349 101.586 89.2811 101.624C89.2273 101.661 89.1631 101.68 89.0976 101.679C89.0303 101.679 88.965 101.656 88.9127 101.614C88.8603 101.572 88.8241 101.513 88.8101 101.447C88.1983 98.9998 89.6971 96.6017 92.8843 94.8828C98.3899 91.9281 107.272 91.9281 112.753 94.8828C115.935 96.6017 117.421 98.9936 116.828 101.447C116.812 101.512 116.775 101.569 116.723 101.611C116.671 101.653 116.607 101.677 116.54 101.679H116.528ZM102.849 93.1883C99.4952 93.1221 96.1741 93.8627 93.1657 95.3477C90.5597 96.7547 89.171 98.6083 89.2444 100.535C90.0957 99.0548 91.3753 97.8669 92.9149 97.1278C98.4205 94.1732 107.303 94.1732 112.784 97.1278C114.323 97.8685 115.602 99.056 116.455 100.535C116.522 98.6083 115.133 96.7547 112.533 95.3477C109.524 93.8641 106.204 93.1236 102.849 93.1883Z" fill="#141414"/>
<path d="M112.033 107.974L110.947 110.036L111.305 110.224L112.39 108.162L112.033 107.974Z" fill="#0962FF"/>
<path d="M108.844 95.9164L110.068 94.0323C104.721 92.2583 97.6373 92.6192 93.0064 95.1151C89.8376 96.8218 88.5224 99.1587 89.0668 101.385C89.07 101.393 89.0755 101.4 89.0826 101.405C89.0897 101.41 89.098 101.412 89.1066 101.412C89.1152 101.412 89.1235 101.41 89.1306 101.405C89.1377 101.4 89.1432 101.393 89.1464 101.385C89.6113 99.9111 90.8959 98.498 93.0064 97.354C97.2947 95.0417 103.681 94.5706 108.844 95.9164Z" fill="#141414"/>
<path d="M89.1054 101.679C89.0387 101.677 88.9745 101.653 88.9226 101.611C88.8706 101.569 88.8339 101.512 88.8179 101.447C88.2062 98.9998 89.7049 96.6018 92.8921 94.8828C97.5046 92.393 104.607 91.9404 110.155 93.7817L110.48 93.8918L108.975 96.2164L108.791 96.1736C103.536 94.8033 97.2476 95.3722 93.1429 97.5867C91.1609 98.6572 89.864 99.9969 89.4052 101.465C89.3852 101.529 89.3452 101.584 89.2911 101.622C89.237 101.661 89.1719 101.681 89.1054 101.679ZM102.796 93.1822C99.4493 93.119 96.1363 93.8618 93.1368 95.3477C90.5308 96.7486 89.1421 98.6083 89.2155 100.535C90.0661 99.0528 91.3458 97.8627 92.8859 97.1218C97.0519 94.8767 103.396 94.2711 108.73 95.6108L109.66 94.1793C107.435 93.5049 105.121 93.1688 102.796 93.1822Z" fill="#141414"/>
<path d="M92.7018 97.5193L92.3164 97.3908C92.6021 96.5327 92.9881 95.7114 93.4665 94.9438L93.8029 95.1702C93.3478 95.9088 92.9784 96.6969 92.7018 97.5193Z" fill="#0962FF"/>
<path d="M114.264 102.046C113.907 102.284 113.61 102.602 113.398 102.974C113.185 103.347 113.063 103.765 113.041 104.193V106.585C113.041 107.381 113.598 107.699 114.264 107.301C114.623 107.065 114.921 106.747 115.133 106.374C115.346 106.001 115.467 105.583 115.488 105.154V102.762C115.506 101.973 114.95 101.649 114.264 102.046ZM114.264 104.493C113.781 104.768 113.39 104.542 113.39 103.985C113.406 103.682 113.493 103.387 113.646 103.125C113.798 102.862 114.01 102.639 114.264 102.474C114.748 102.193 115.139 102.419 115.139 102.976C115.118 103.274 115.027 103.564 114.876 103.822C114.724 104.079 114.515 104.299 114.264 104.463V104.493Z" fill="#141414"/>
<path d="M113.715 107.735C113.553 107.741 113.392 107.703 113.25 107.625C113.082 107.513 112.948 107.358 112.861 107.176C112.773 106.994 112.737 106.792 112.754 106.591V104.199C112.777 103.723 112.914 103.258 113.154 102.845C113.393 102.432 113.728 102.083 114.131 101.826C114.289 101.697 114.483 101.619 114.687 101.603C114.891 101.587 115.095 101.633 115.272 101.735C115.449 101.837 115.59 101.99 115.678 102.175C115.766 102.359 115.796 102.566 115.764 102.768V105.178C115.742 105.655 115.606 106.12 115.367 106.534C115.129 106.948 114.795 107.299 114.394 107.558C114.186 107.673 113.952 107.734 113.715 107.735ZM113.293 104.536V106.585C113.26 106.693 113.265 106.809 113.307 106.914C113.348 107.019 113.424 107.107 113.522 107.163C113.619 107.22 113.733 107.242 113.845 107.226C113.956 107.21 114.059 107.156 114.137 107.075C114.457 106.862 114.724 106.578 114.916 106.244C115.108 105.911 115.22 105.538 115.244 105.154V103.679C115.073 104.095 114.778 104.447 114.4 104.689C114.271 104.775 114.122 104.826 113.968 104.837C113.813 104.848 113.658 104.818 113.519 104.75C113.43 104.708 113.352 104.645 113.293 104.567V104.536ZM114.657 102.584C114.565 102.59 114.477 102.62 114.4 102.67C114.185 102.812 114.007 103.002 113.878 103.225C113.75 103.448 113.675 103.698 113.66 103.955C113.66 104.12 113.702 104.248 113.782 104.291C113.862 104.334 113.99 104.291 114.137 104.23C114.351 104.088 114.53 103.898 114.659 103.675C114.787 103.452 114.862 103.202 114.877 102.945C114.885 102.884 114.878 102.821 114.857 102.762C114.835 102.704 114.8 102.651 114.755 102.609C114.725 102.591 114.691 102.583 114.657 102.584Z" fill="#0962FF"/>
<path d="M113.696 107.735C113.56 107.737 113.424 107.71 113.299 107.656L113.488 107.295L113.391 107.472L113.482 107.289C113.513 107.289 114.192 107.601 114.969 106.279L115.318 106.487C114.7 107.534 114.082 107.735 113.696 107.735Z" fill="#86B2FF"/>
<path d="M114.015 102.517L102.79 66.0271L92.7511 89.7013L92.2617 89.4933L102.368 65.6784C102.395 65.5849 102.454 65.5036 102.534 65.448C102.614 65.3923 102.711 65.3657 102.808 65.3725C102.91 65.375 103.009 65.4111 103.088 65.4752C103.168 65.5394 103.224 65.628 103.249 65.7273L114.517 102.352L114.015 102.517Z" fill="#0962FF"/>
<path d="M104.686 65.8864L102.973 61.9896C102.944 61.9259 102.897 61.8719 102.838 61.8341C102.779 61.7962 102.71 61.7761 102.64 61.7761C102.569 61.7761 102.501 61.7962 102.442 61.8341C102.383 61.8719 102.336 61.9259 102.306 61.9896L100.593 65.8864C100.392 66.4125 100.795 66.9998 101.817 67.2751C102.35 67.4159 102.911 67.4159 103.444 67.2751C104.453 66.9998 104.857 66.4125 104.686 65.8864Z" fill="white"/>
<path d="M102.605 67.642C102.308 67.6419 102.012 67.605 101.724 67.5319C101.447 67.4804 101.183 67.373 100.949 67.2163C100.714 67.0596 100.514 66.8569 100.36 66.6204C100.293 66.4942 100.255 66.3549 100.247 66.2122C100.24 66.0696 100.264 65.927 100.317 65.7946L102.036 61.8794C102.084 61.7679 102.163 61.6729 102.264 61.6065C102.366 61.54 102.484 61.5052 102.605 61.5063C102.728 61.5039 102.848 61.5382 102.95 61.6047C103.053 61.6713 103.133 61.7669 103.18 61.8794L104.899 65.7946C104.952 65.9274 104.975 66.0702 104.966 66.2129C104.958 66.3556 104.918 66.4947 104.85 66.6204C104.698 66.8581 104.498 67.0618 104.264 67.2186C104.029 67.3755 103.764 67.4821 103.486 67.5319C103.198 67.6053 102.902 67.6423 102.605 67.642ZM102.605 62.0385C102.587 62.0373 102.569 62.042 102.554 62.0519C102.538 62.0618 102.526 62.0764 102.52 62.0935L100.801 65.9903C100.779 66.0541 100.77 66.1219 100.775 66.1893C100.78 66.2566 100.8 66.3222 100.831 66.3818C101.081 66.7117 101.45 66.9311 101.859 66.9936C102.348 67.1221 102.862 67.1221 103.352 66.9936C103.763 66.9326 104.134 66.713 104.386 66.3818C104.413 66.319 104.427 66.2514 104.427 66.183C104.427 66.1146 104.413 66.047 104.386 65.9842L102.673 62.0935C102.666 62.0798 102.657 62.0677 102.645 62.0581C102.634 62.0486 102.62 62.0419 102.605 62.0385Z" fill="#141414"/>
<path d="M103.113 67.3423C104.251 67.0854 104.863 66.437 104.655 65.8925L102.942 61.9896C102.912 61.9258 102.864 61.8718 102.805 61.8339C102.745 61.796 102.676 61.7757 102.605 61.7755L103.113 67.3423Z" fill="#141414"/>
<path d="M103.758 64.2948L103.371 64.4111L103.956 66.356L104.343 66.2397L103.758 64.2948Z" fill="#0962FF"/>
<path d="M103.015 61.7755H102.202V61.5614C102.197 61.0917 102.084 60.6294 101.872 60.2104C101.66 59.7913 101.354 59.4268 100.978 59.145C100.512 58.7918 100.178 58.2919 100.03 57.7258C99.906 57.3051 99.8762 56.8622 99.9428 56.4287C100.009 55.9952 100.171 55.5817 100.415 55.2176C100.596 54.9583 100.833 54.7433 101.108 54.5886C101.384 54.4339 101.69 54.3436 102.006 54.3245C102.462 54.2458 102.932 54.3293 103.333 54.5606C103.734 54.792 104.041 55.1564 104.202 55.5908L103.443 55.8783C103.315 55.5296 103.027 55.0708 102.055 55.132C101.86 55.1457 101.67 55.2027 101.499 55.299C101.329 55.3953 101.182 55.5285 101.07 55.6887C100.895 55.9568 100.781 56.2606 100.738 56.578C100.694 56.8954 100.722 57.2186 100.819 57.5239C100.915 57.9186 101.147 58.2671 101.474 58.5088C101.952 58.8644 102.342 59.3252 102.613 59.8556C102.885 60.3859 103.031 60.9717 103.04 61.5675L103.015 61.7755Z" fill="#141414"/>
<path d="M101.058 55.6765L100.416 55.1748C100.607 54.9244 100.851 54.7186 101.13 54.5718C101.409 54.4249 101.716 54.3406 102.031 54.3245L101.982 55.132C101.799 55.155 101.623 55.2151 101.464 55.3087C101.305 55.4024 101.167 55.5275 101.058 55.6765Z" fill="#0962FF"/>
<path d="M18.2065 54.9203C12.4633 54.9203 7.80755 50.0391 7.80755 44.0179C7.80755 37.9966 12.4633 33.1154 18.2065 33.1154C23.9497 33.1154 28.6055 37.9966 28.6055 44.0179C28.6055 50.0391 23.9497 54.9203 18.2065 54.9203Z" fill="#0962FF" stroke="#141414" stroke-width="0.256675" stroke-miterlimit="10"/>
<path d="M17.1284 54.0887C11.3852 54.0887 6.72943 49.2075 6.72943 43.1862C6.72943 37.1649 11.3852 32.2838 17.1284 32.2838C22.8716 32.2838 27.5273 37.1649 27.5273 43.1862C27.5273 49.2075 22.8716 54.0887 17.1284 54.0887Z" fill="white" stroke="#141414" stroke-width="0.256675" stroke-miterlimit="10"/>
<path d="M12.8145 45.7641H14.5153C14.5153 46.6826 15.6803 47.465 17.0665 47.465C18.4527 47.465 19.6177 46.6826 19.6177 45.7641C19.6177 44.8287 18.7333 44.4885 16.8624 44.0378C15.0595 43.587 12.8145 43.0258 12.8145 40.6616C12.8145 39.1393 14.0646 37.8467 15.7909 37.413V35.5591H18.3421V37.413C20.0684 37.8467 21.3185 39.1393 21.3185 40.6616H19.6177C19.6177 39.7431 18.4527 38.9608 17.0665 38.9608C15.6803 38.9608 14.5153 39.7431 14.5153 40.6616C14.5153 41.5971 15.3997 41.9372 17.2706 42.388C19.0734 42.8387 21.3185 43.4 21.3185 45.7641C21.3185 47.2864 20.0684 48.579 18.3421 49.0127V50.8666H15.7909V49.0127C14.0646 48.579 12.8145 47.2864 12.8145 45.7641Z" fill="#141414"/>
<path d="M27.7651 52.9054L16.5336 16.4275L6.5011 40.0956L6.01172 39.8938L16.1115 16.0727C16.1427 15.9831 16.2015 15.9057 16.2796 15.8518C16.3577 15.7979 16.451 15.7703 16.5458 15.7729C16.6476 15.7747 16.7458 15.8106 16.8246 15.875C16.9034 15.9394 16.9582 16.0284 16.9802 16.1278L28.2545 52.7464L27.7651 52.9054Z" fill="#0962FF"/>
<path d="M104.781 104.92C99.0375 104.92 94.3818 100.039 94.3818 94.0179C94.3818 87.9966 99.0375 83.1154 104.781 83.1154C110.524 83.1154 115.18 87.9966 115.18 94.0179C115.18 100.039 110.524 104.92 104.781 104.92Z" fill="#0962FF" stroke="#141414" stroke-width="0.256675" stroke-miterlimit="10"/>
<path d="M103.703 104.089C97.9594 104.089 93.3036 99.2075 93.3036 93.1862C93.3036 87.1649 97.9594 82.2838 103.703 82.2838C109.446 82.2838 114.102 87.1649 114.102 93.1862C114.102 99.2075 109.446 104.089 103.703 104.089Z" fill="white" stroke="#141414" stroke-width="0.256675" stroke-miterlimit="10"/>
<path d="M99.3887 95.7641H101.089C101.089 96.6826 102.255 97.465 103.641 97.465C105.027 97.465 106.192 96.6826 106.192 95.7641C106.192 94.8287 105.308 94.4885 103.437 94.0378C101.634 93.587 99.3887 93.0258 99.3887 90.6616C99.3887 89.1393 100.639 87.8467 102.365 87.413V85.5591H104.916V87.413C106.643 87.8467 107.893 89.1393 107.893 90.6616H106.192C106.192 89.7431 105.027 88.9608 103.641 88.9608C102.255 88.9608 101.089 89.7431 101.089 90.6616C101.089 91.5971 101.974 91.9372 103.845 92.388C105.648 92.8387 107.893 93.4 107.893 95.7641C107.893 97.2864 106.643 98.579 104.916 99.0127V100.867H102.365V99.0127C100.639 98.579 99.3887 97.2864 99.3887 95.7641Z" fill="#141414"/>
<path d="M114.015 102.517L102.79 66.027L92.7511 89.7012L92.2617 89.4933L102.368 65.6783C102.395 65.5848 102.454 65.5035 102.534 65.4479C102.614 65.3923 102.711 65.3657 102.808 65.3724C102.91 65.3749 103.009 65.411 103.088 65.4752C103.168 65.5393 103.224 65.6279 103.249 65.7272L114.517 102.352L114.015 102.517Z" fill="#0962FF"/>
</svg>
