<svg width="463" height="300" viewBox="0 0 463 300" fill="none" xmlns="http://www.w3.org/2000/svg">
<line y1="-0.839285" x2="35.5381" y2="-0.839285" transform="matrix(0.866026 -0.499998 0.500002 0.866024 345.12 79.1688)" stroke="white" stroke-width="1.67857"/>
<path d="M335.314 55.0789C336.46 54.4174 337.872 54.4174 339.018 55.0789L362.478 68.6234C363.623 69.2849 364.329 70.5076 364.329 71.8307V98.9196C364.329 100.243 363.623 101.465 362.478 102.127L339.018 115.671C337.872 116.333 336.46 116.333 335.314 115.671L311.855 102.127C310.709 101.465 310.003 100.243 310.003 98.9196V71.8307C310.003 70.5076 310.709 69.2849 311.855 68.6234L335.314 55.0789Z" fill="#141414" stroke="#0962FF" stroke-width="1.48141"/>
<path d="M312.722 71.9683L335.314 85.0046" stroke="#0962FF" stroke-width="1.48141" stroke-linecap="round"/>
<path d="M361.979 71.9683L339.387 85.0046" stroke="#0962FF" stroke-width="1.48141" stroke-linecap="round"/>
<path d="M337.164 87.2267L337.164 113.151" stroke="#0962FF" stroke-width="1.48141" stroke-linecap="round"/>
<ellipse cx="5.875" cy="5.87498" rx="5.875" ry="5.87498" transform="matrix(0.866026 0.499998 -2.20306e-08 1 317.814 83.9282)" fill="white"/>
<line y1="-0.839285" x2="80.312" y2="-0.839285" transform="matrix(0.866026 -0.499998 0.500002 0.866024 253.478 133.348)" stroke="white" stroke-width="1.67857"/>
<line y1="-0.839285" x2="37.1989" y2="-0.839285" transform="matrix(0.866026 0.499998 -0.500002 0.866024 87.9658 66.2358)" stroke="white" stroke-width="1.67857"/>
<line y1="-0.839285" x2="65.0779" y2="-0.839285" transform="matrix(0.866026 -0.499998 0.500002 0.866024 33.1475 98.6252)" stroke="white" stroke-width="1.67857"/>
<path d="M113.783 59.2211C114.73 58.6744 115.896 58.6744 116.843 59.2211L136.229 70.4135C137.176 70.9602 137.759 71.9705 137.759 73.0639V95.4486C137.759 96.542 137.176 97.5523 136.229 98.099L116.843 109.291C115.896 109.838 114.73 109.838 113.783 109.291L94.3969 98.099C93.45 97.5523 92.8667 96.542 92.8667 95.4486V73.0639C92.8667 71.9705 93.45 70.9602 94.3969 70.4135L113.783 59.2211Z" fill="#141414" stroke="#0962FF" stroke-width="1.22416"/>
<path d="M95.1146 73.1776L113.783 83.9501" stroke="#0962FF" stroke-width="1.22416" stroke-linecap="round"/>
<path d="M135.817 73.1776L117.149 83.9501" stroke="#0962FF" stroke-width="1.22416" stroke-linecap="round"/>
<path d="M115.312 85.7864L115.312 107.209" stroke="#0962FF" stroke-width="1.22416" stroke-linecap="round"/>
<ellipse cx="5.19901" cy="5.19899" rx="5.19901" ry="5.19899" transform="matrix(0.866026 -0.499998 2.20306e-08 1 122.766 88.3206)" fill="#86B2FF"/>
<line y1="-0.839285" x2="80.7141" y2="-0.839285" transform="matrix(0.866026 0.499998 -0.500002 0.866024 127.013 91.7617)" stroke="white" stroke-width="1.67857"/>
<path d="M311.732 1.42313C312.579 0.933891 313.623 0.93389 314.471 1.42313L331.82 11.4395C332.667 11.9287 333.189 12.8329 333.189 13.8114V33.8441C333.189 34.8226 332.667 35.7268 331.82 36.216L314.471 46.2324C313.623 46.7216 312.579 46.7216 311.732 46.2324L294.383 36.216C293.536 35.7268 293.014 34.8226 293.014 33.8441V13.8114C293.014 12.8329 293.536 11.9287 294.383 11.4395L311.732 1.42313Z" stroke="#0962FF" stroke-width="1.09553"/>
<path d="M295.026 13.913L311.732 23.5536" stroke="#0962FF" stroke-width="1.09553" stroke-linecap="round"/>
<path d="M331.451 13.913L314.744 23.5535" stroke="#0962FF" stroke-width="1.09553" stroke-linecap="round"/>
<path d="M313.102 25.197L313.102 44.3688" stroke="#0962FF" stroke-width="1.09553" stroke-linecap="round"/>
<path fill-rule="evenodd" clip-rule="evenodd" d="M225.938 94.6697C224.391 93.7765 222.485 93.7765 220.938 94.6697L173.436 122.095C173.435 122.095 173.435 122.096 173.436 122.096C173.436 122.096 173.436 122.096 173.436 122.096V176.946C173.436 178.733 174.389 180.384 175.936 181.277L215.939 204.372C219.272 206.297 223.439 203.891 223.439 200.042L223.439 150.964C223.439 150.964 223.439 150.964 223.439 150.964C223.439 150.964 223.439 150.964 223.439 150.964L265.94 126.426C269.274 124.501 269.274 119.69 265.94 117.765L225.938 94.6697ZM223.44 153.851C223.44 152.065 224.393 150.414 225.94 149.521L265.942 126.426C269.276 124.501 273.443 126.907 273.443 130.756L273.443 176.947C273.443 178.733 272.49 180.384 270.943 181.277L230.94 204.372C227.607 206.297 223.44 203.891 223.44 200.042V153.851Z" fill="white"/>
<path fill-rule="evenodd" clip-rule="evenodd" d="M174.754 123.868C174.742 123.875 174.728 123.875 174.716 123.868C174.691 123.854 174.66 123.872 174.66 123.901V123.921V177.842C174.66 178.718 175.13 179.526 175.89 179.961L223.153 206.939C223.167 206.947 223.176 206.962 223.176 206.978C223.176 207.012 223.213 207.034 223.243 207.017L270.492 180.046C271.253 179.612 271.722 178.803 271.722 177.928L271.722 123.948C271.722 123.942 271.725 123.937 271.73 123.935C271.74 123.929 271.74 123.914 271.73 123.908L224.416 96.9004C223.666 96.4726 222.747 96.4726 221.997 96.9004L174.754 123.868Z" fill="#86B2FF"/>
<rect width="55.5194" height="54.9562" rx="1.21958" transform="matrix(0.866026 -0.499999 0.866026 0.499999 174.902 123.729)" fill="#0962FF"/>
<path d="M215.685 133.064L233.293 130.33L234.563 127.633L217.773 130.243C217.256 130.318 216.697 130.243 216.309 130.019L210.519 126.676C210.239 126.515 210.067 126.291 210.067 126.067C210.067 125.844 210.217 125.607 210.497 125.446C210.691 125.334 210.906 125.26 211.186 125.222L231.915 122.003L228.471 120.04L210.067 122.911C209.529 122.998 208.991 122.911 208.603 122.687C208.216 122.463 208.065 122.153 208.216 121.842L210.347 117.231C210.433 117.082 210.54 116.945 210.734 116.834C210.928 116.722 211.143 116.647 211.423 116.61L227.761 114.037L224.317 112.074L207.161 114.746L202.275 125.322L215.685 133.064Z" fill="white"/>
<path d="M243.646 123.234L230.214 115.504L212.607 118.238L211.337 120.935L228.083 118.325C228.6 118.25 229.16 118.325 229.547 118.549L235.337 121.892C235.617 122.053 235.789 122.277 235.789 122.501C235.789 122.724 235.639 122.96 235.359 123.122C235.165 123.234 234.95 123.308 234.67 123.346L213.941 126.564L217.385 128.528L235.789 125.657C236.327 125.57 236.866 125.657 237.253 125.881C237.641 126.105 237.791 126.415 237.641 126.726L235.51 131.337C235.423 131.486 235.316 131.622 235.122 131.734C234.928 131.846 234.713 131.921 234.433 131.958L218.096 134.506L221.54 136.469L238.781 133.822L243.646 123.234Z" fill="white"/>
<rect width="54.9562" height="54.956" rx="2.37967" transform="matrix(0.866026 0.499999 -2.20306e-08 1 175.391 124.525)" fill="#86B2FF"/>
<rect width="5.71742" height="5.7174" transform="matrix(0.866026 0.499998 -2.20306e-08 1 178.49 132.047)" fill="#0962FF"/>
<rect width="5.71742" height="5.7174" transform="matrix(0.866026 0.499998 -2.20306e-08 1 178.49 139.766)" fill="#0962FF"/>
<rect width="5.71742" height="5.7174" transform="matrix(0.866026 0.499998 -2.20306e-08 1 178.49 147.484)" fill="#0962FF"/>
<rect width="54.9562" height="54.4486" rx="1.21958" transform="matrix(0.866026 -0.499999 2.20306e-08 1 224.172 152.062)" fill="#141414"/>
<ellipse cx="7.43953" cy="7.4395" rx="7.43953" ry="7.4395" transform="matrix(0.866026 -0.499998 2.20306e-08 1 243.922 163.298)" fill="#86B2FF"/>
<line y1="-0.839285" x2="100.286" y2="-0.839285" transform="matrix(0.866026 0.499998 -0.500002 0.866024 250.049 168.523)" stroke="white" stroke-width="1.67857"/>
<ellipse cx="7.43953" cy="7.4395" rx="7.43953" ry="7.4395" transform="matrix(0.866026 -0.499998 2.20306e-08 1 344.635 90.5597)" fill="#86B2FF"/>
<line y1="-0.839285" x2="100.286" y2="-0.839285" transform="matrix(0.866026 0.499998 -0.500002 0.866024 350.762 95.7853)" stroke="white" stroke-width="1.67857"/>
<ellipse cx="4.77553" cy="4.77551" rx="4.77553" ry="4.77551" transform="matrix(0.866026 -0.499998 2.20306e-08 1 319.523 29.0917)" fill="#86B2FF"/>
<line y1="-0.839285" x2="59.6905" y2="-0.839285" transform="matrix(0.866026 0.499998 -0.500002 0.866024 323.264 32.1307)" stroke="white" stroke-width="1.67857"/>
<path d="M338.629 195.268C339.625 194.693 340.853 194.693 341.85 195.268L362.254 207.049C363.251 207.624 363.865 208.688 363.865 209.839V233.399C363.865 234.55 363.251 235.614 362.254 236.189L341.85 247.969C340.853 248.545 339.625 248.545 338.629 247.969L318.224 236.189C317.228 235.614 316.614 234.55 316.614 233.399V209.839C316.614 208.688 317.228 207.624 318.224 207.049L338.629 195.268Z" fill="#141414" stroke="#0962FF" stroke-width="1.28847"/>
<path d="M318.979 209.958L338.629 221.297" stroke="#0962FF" stroke-width="1.28847" stroke-linecap="round"/>
<path d="M361.821 209.958L342.172 221.297" stroke="#0962FF" stroke-width="1.28847" stroke-linecap="round"/>
<path d="M340.24 223.229L340.24 245.778" stroke="#0962FF" stroke-width="1.28847" stroke-linecap="round"/>
<path d="M437.626 127.875C438.474 127.386 439.518 127.386 440.365 127.875L457.714 137.891C458.562 138.381 459.084 139.285 459.084 140.263V160.296C459.084 161.275 458.562 162.179 457.714 162.668L440.365 172.684C439.518 173.174 438.474 173.174 437.626 172.684L420.277 162.668C419.43 162.179 418.908 161.275 418.908 160.296V140.263C418.908 139.285 419.43 138.381 420.277 137.891L437.626 127.875Z" fill="#141414" stroke="#0962FF" stroke-width="1.09553"/>
<path d="M420.918 140.365L437.625 150.006" stroke="#0962FF" stroke-width="1.09553" stroke-linecap="round"/>
<path d="M457.346 140.365L440.639 150.006" stroke="#0962FF" stroke-width="1.09553" stroke-linecap="round"/>
<path d="M438.996 151.649L438.996 170.821" stroke="#0962FF" stroke-width="1.09553" stroke-linecap="round"/>
<path d="M22.4585 87.0299C23.3058 86.5407 24.3499 86.5407 25.1973 87.0299L42.5462 97.0463C43.3936 97.5356 43.9156 98.4397 43.9156 99.4182V119.451C43.9156 120.429 43.3936 121.334 42.5462 121.823L25.1973 131.839C24.3499 132.328 23.3058 132.328 22.4585 131.839L5.10952 121.823C4.26212 121.334 3.7401 120.429 3.7401 119.451V99.4182C3.7401 98.4397 4.26212 97.5356 5.10951 97.0463L22.4585 87.0299Z" fill="#141414" stroke="#0962FF" stroke-width="1.09553"/>
<path d="M5.75012 99.5199L22.4569 109.16" stroke="#0962FF" stroke-width="1.09553" stroke-linecap="round"/>
<path d="M42.1776 99.5199L25.4708 109.16" stroke="#0962FF" stroke-width="1.09553" stroke-linecap="round"/>
<path d="M23.8281 110.804L23.8281 129.976" stroke="#0962FF" stroke-width="1.09553" stroke-linecap="round"/>
<ellipse cx="5.875" cy="5.87498" rx="5.875" ry="5.87498" transform="matrix(0.866026 0.499998 -2.20306e-08 1 191.358 160.023)" fill="#141414"/>
<line y1="-0.839285" x2="100.325" y2="-0.839285" transform="matrix(0.866026 -0.499998 0.500002 0.866024 110.421 220.945)" stroke="white" stroke-width="1.67857"/>
<path d="M98.0036 195.861C99.0201 195.274 100.273 195.274 101.289 195.861L122.101 207.877C123.117 208.464 123.744 209.548 123.744 210.722V234.753C123.744 235.927 123.117 237.012 122.101 237.599L101.289 249.614C100.273 250.201 99.0201 250.201 98.0036 249.614L77.1919 237.599C76.1753 237.012 75.5491 235.927 75.5491 234.753V210.722C75.5491 209.548 76.1753 208.464 77.1919 207.877L98.0036 195.861Z" fill="#141414" stroke="#0962FF" stroke-width="1.3142"/>
<path d="M77.9609 210.844L98.0024 222.409" stroke="#0962FF" stroke-width="1.3142" stroke-linecap="round"/>
<path d="M121.658 210.844L101.617 222.409" stroke="#0962FF" stroke-width="1.3142" stroke-linecap="round"/>
<path d="M99.6445 224.381L99.6445 247.379" stroke="#0962FF" stroke-width="1.3142" stroke-linecap="round"/>
<ellipse cx="7.43953" cy="7.4395" rx="7.43953" ry="7.4395" transform="matrix(0.866026 -0.499998 2.20306e-08 1 106.836 226.523)" fill="#86B2FF"/>
<line y1="-0.839285" x2="100.286" y2="-0.839285" transform="matrix(0.866026 0.499998 -0.500002 0.866024 112.965 231.749)" stroke="white" stroke-width="1.67857"/>
<path d="M197.873 253.768C198.72 253.278 199.764 253.278 200.611 253.768L217.96 263.784C218.808 264.273 219.33 265.177 219.33 266.156V286.189C219.33 287.167 218.808 288.071 217.96 288.561L200.611 298.577C199.764 299.066 198.72 299.066 197.873 298.577L180.524 288.561C179.676 288.071 179.154 287.167 179.154 286.189V266.156C179.154 265.177 179.676 264.273 180.524 263.784L197.873 253.768Z" fill="#141414" stroke="#0962FF" stroke-width="1.09553"/>
<path d="M181.164 266.257L197.871 275.898" stroke="#0962FF" stroke-width="1.09553" stroke-linecap="round"/>
<path d="M217.592 266.257L200.885 275.898" stroke="#0962FF" stroke-width="1.09553" stroke-linecap="round"/>
<path d="M199.242 277.542L199.242 296.713" stroke="#0962FF" stroke-width="1.09553" stroke-linecap="round"/>
</svg>
