<svg width="208" height="287" viewBox="0 0 208 287" fill="none" xmlns="http://www.w3.org/2000/svg">
<rect x="0.920453" width="117.976" height="117.976" rx="12.2228" transform="matrix(0.866025 -0.5 0.866025 0.5 1.11062 227.941)" fill="#141414" stroke="#0962FF" stroke-width="1.06285"/>
<rect x="0.920453" width="117.976" height="117.976" rx="12.2228" transform="matrix(0.866025 -0.5 0.866025 0.5 1.11062 216.249)" fill="#86B2FF" stroke="#0962FF" stroke-width="1.06285"/>
<rect opacity="0.5" width="110.087" height="26.2813" rx="3.6855" transform="matrix(0.866025 -0.5 0.866025 0.5 49.5811 236.045)" fill="white"/>
<path d="M7.92578 226.93V215.746C7.92578 216.986 9.09491 220.104 13.7714 222.655C18.448 225.206 19.9714 226.198 20.1485 226.375V237.854L10.5829 232.22C10.0844 231.847 9.18273 230.999 8.54379 229.938C8.00605 229.044 7.92578 227.973 7.92578 226.93Z" fill="#0962FF" stroke="#0962FF" stroke-width="1.06285"/>
<path d="M199.981 215.746V227.969" stroke="#0962FF" stroke-width="1.06285"/>
<path d="M92.4229 268.357V279.517" stroke="#0962FF" stroke-width="1.06285"/>
<path d="M115.803 267.826V279.517" stroke="#0962FF" stroke-width="1.06285"/>
<path d="M192.861 228.02V223.717C192.861 223.717 195.663 222.377 197.112 221.06C198.321 219.962 199.602 217.63 200.093 216.687C200.145 216.587 200.301 216.625 200.301 216.738V226.119C200.301 227.692 200.133 229.332 199.238 230.626C198.095 232.276 196.239 233.255 194.502 234.259L135.467 268.357L188.84 235.246C191.34 233.695 192.861 230.962 192.861 228.02Z" fill="#0962FF" stroke="#0962FF" stroke-width="1.06285"/>
<path d="M28.1201 242.53V231.37L36.6229 236.684V247.313L28.1201 242.53Z" fill="#0962FF" stroke="#0962FF" stroke-width="1.06285"/>
<path d="M113.308 167.302L113.295 167.331L113.283 167.361C112.339 169.723 110.673 171.875 108.82 172.944L108.786 172.964L108.753 172.987L102.296 177.452L95.2851 173.809C94.44 173.37 94.2022 172.06 94.6944 170.556L127.955 68.899C128.282 68.0971 128.51 67.3497 128.654 66.6332C128.702 66.6538 128.748 66.6772 128.794 66.7037C128.872 66.7488 128.956 66.7888 129.043 66.8097C129.086 66.8203 129.145 66.8298 129.216 66.8251C129.28 66.8208 129.403 66.8024 129.561 66.7029C129.748 66.5851 129.946 66.3739 130.086 66.0901C130.204 65.849 130.232 65.6525 130.24 65.5545C130.255 65.365 130.22 65.2254 130.201 65.1604C130.121 64.8725 129.907 64.5271 129.696 64.2615C129.585 64.1206 129.46 63.9845 129.333 63.8743C129.212 63.7704 129.061 63.6644 128.893 63.6226C128.81 63.6021 128.681 63.5856 128.517 63.6384C128.333 63.6975 128.086 63.8535 127.865 64.1701C127.668 64.4528 127.585 64.7306 127.549 64.9032C127.543 64.9322 127.537 64.9609 127.532 64.9893C126.923 65.1991 126.298 65.5333 125.687 65.8797C125.424 66.0294 125.163 66.2095 124.911 66.4116L105.967 81.5669C105.791 81.7075 105.636 81.8141 105.492 81.888C104.998 82.142 104.385 82.3971 103.688 82.6834L103.581 82.7274C102.926 82.9963 102.213 83.2889 101.523 83.6166C100.798 83.9606 100.06 84.3607 99.4035 84.8447C98.7578 85.321 98.0945 85.9501 97.6272 86.7904C97.3936 87.2104 97.2768 87.6203 97.2076 87.8661L92.5469 104.438L62.3888 173.022L45.1759 159.504C44.436 158.922 44.3236 157.551 44.8949 156.076L77.8084 71.1057C78.292 69.8573 79.1863 68.743 80.155 68.182L149.802 27.8421C150.562 27.402 151.288 27.3497 151.802 27.6981L168.54 39.0257C168.738 39.1599 168.901 39.3504 169.02 39.5897L194.593 90.7345C194.915 91.3799 194.908 92.3367 194.574 93.3552L168.205 173.587C167.883 174.568 167.286 175.516 166.56 176.197L158.477 183.79C157.499 184.708 156.432 185.012 155.718 184.574L141.222 175.688C141.02 175.564 140.856 175.387 140.733 175.169L165.961 99.4046C166.04 99.1682 166.107 98.9349 166.162 98.7061L167.958 93.4989C168.606 91.916 168.865 90.546 168.865 89.2067C168.865 87.8078 168.459 86.8287 167.972 85.9851L167.963 85.9691L167.952 85.9544L152 63.3361C151.999 63.335 151.999 63.3339 151.998 63.3327C150.818 61.5959 148.713 61.4481 146.364 62.804C146.23 62.8814 146.055 63.007 145.883 63.2137C145.694 63.4411 145.556 63.7106 145.486 63.9787C145.368 64.4269 145.472 64.7436 145.539 64.9074C145.695 65.2879 146.031 65.688 146.427 66.0856C147.15 66.8106 148.233 67.6772 149.359 68.5776C149.498 68.6893 149.638 68.8014 149.778 68.9139C151.063 69.9438 152.357 71.0051 153.265 71.9768C153.721 72.4647 154.059 72.9088 154.25 73.2937C154.346 73.4866 154.393 73.6393 154.408 73.7483C154.412 73.7736 154.413 73.7931 154.414 73.807L144.852 96.7072L113.308 167.302ZM91.0322 186.816L101.812 179.361L106.238 181.661C108.095 182.626 111.102 180.463 112.476 177.172L145.982 96.9223L147.29 93.995C148.201 91.9563 150.04 90.6116 151.262 91.091L164.032 96.0999C164.86 96.425 165.185 97.518 164.897 98.8557L139.526 172.393C139.06 173.742 138.983 175 139.26 175.947L135.362 187.655C134.952 188.887 134.119 190.041 133.169 190.693L68.1174 235.384C67.3232 235.929 66.536 236.063 65.9652 235.749L49.2033 226.522C49.0268 226.425 48.8746 226.287 48.751 226.112L13.3584 175.944C12.873 175.257 12.8716 174.064 13.3545 172.815L45.55 89.5851C46.031 88.3416 46.92 87.2301 47.8849 86.6661L58.7056 80.3401C60.7964 79.1179 62.1157 80.9624 61.0783 83.6574L31.6233 160.183C30.9683 161.777 30.7062 163.154 30.7062 164.501C30.7062 165.9 31.1121 166.879 31.5991 167.723L31.6084 167.739L31.6187 167.753L47.571 190.372C47.5717 190.373 47.5724 190.374 47.5731 190.375C48.7528 192.112 50.8584 192.26 53.2072 190.904C55.5477 189.552 57.6468 186.987 58.8288 183.902L62.5068 175.537L67.3063 179.307C69.3018 180.874 73.0899 177.951 74.2057 173.984L93.7557 104.473L98.601 93.454C99.0494 92.4342 99.7649 91.5265 100.557 90.9717L106.251 86.9859C107.452 86.1452 108.593 86.2737 109.05 87.3011L115.278 101.315C115.601 102.04 115.533 103.113 115.095 104.212L85.3415 178.889C84.6838 180.486 84.4208 181.866 84.4208 183.215C84.4208 185.206 85.2102 186.705 86.3794 187.38C87.5732 188.069 89.276 187.834 90.9654 186.858L90.9989 186.839L91.0322 186.816ZM127.387 138.539L111.331 176.993C110.415 179.187 108.41 180.63 107.172 179.986L103.596 178.128L108.854 174.491C111.203 173.12 113.27 170.421 114.434 167.525L127.387 138.539ZM68.3413 177.696L63.2988 173.736L90.3741 112.163L72.9409 174.148C72.197 176.793 69.6716 178.741 68.3413 177.696Z" fill="#86B2FF" stroke="#141414" stroke-width="1.56643"/>
<path d="M150.812 27.691L169.727 39.4392" stroke="#141414" stroke-width="1.95804"/>
<path fill-rule="evenodd" clip-rule="evenodd" d="M96.9654 80.5577C96.9434 81.0851 96.5464 81.2732 96.0787 80.9778L79.1711 70.2996C78.7034 70.0042 78.342 69.3372 78.364 68.8097V68.8097C78.3859 68.2823 78.7829 68.0942 79.2507 68.3896L96.1582 79.0679C96.626 79.3633 96.9873 80.0303 96.9654 80.5577V80.5577Z" fill="#141414"/>
<path d="M12.7695 174.74L30.3919 186.292" stroke="#141414" stroke-width="1.95804"/>
<path d="M48.0146 225.257L66.616 236.614" stroke="#141414" stroke-width="1.95804"/>
<path d="M138.084 173.369L156.685 184.726" stroke="#141414" stroke-width="1.95804"/>
<path d="M169.413 89.1736L188.014 100.53" stroke="#141414" stroke-width="1.95804"/>
<path d="M89.1338 171.411L107.735 182.768" stroke="#141414" stroke-width="1.95804"/>
<path d="M146.896 89.3693L166.476 96.6141" stroke="#141414" stroke-width="1.95804"/>
<path d="M107.734 86.1847L127.315 93.4295" stroke="#141414" stroke-width="1.95804"/>
<path d="M94.0293 94.0168L113.61 101.262" stroke="#141414" stroke-width="1.95804"/>
<rect width="22.5601" height="10.4193" transform="translate(105.836 86.0801) rotate(21.4812)" fill="#86B2FF"/>
<rect width="15.4811" height="11.931" transform="translate(99.1016 162.796) rotate(29.1334)" fill="#86B2FF"/>
<path d="M59.7634 80.5581L77.3858 90.3483L64.6585 98.1805L47.0361 88.3903L59.7634 80.5581Z" fill="#86B2FF"/>
<path d="M47.0357 90.3484L65.6371 100.139L31.3714 186.292L13.749 174.544L47.0357 90.3484Z" fill="#86B2FF"/>
<path d="M46.0566 88.5861L65.1669 99.1593" stroke="#141414" stroke-width="1.95804"/>
<path d="M59.7627 79.5793L78.8729 91.3273" stroke="#141414" stroke-width="1.95804"/>
<path d="M132.069 178.58L132.069 178.58L132.075 178.565L162.565 99.812C163.61 97.1127 166.231 95.6037 167.271 97.1018L172.637 104.828C173.117 105.518 173.115 106.707 172.634 107.95L139.504 193.479C139.02 194.73 138.123 195.845 137.153 196.406L67.9744 236.346C67.0062 236.905 66.1113 236.826 65.6263 236.138L30.9804 187.03C30.4951 186.342 30.4936 185.149 30.9766 183.901L63.1721 100.67C63.6531 99.4268 64.5421 98.3153 65.5069 97.7513L76.3277 91.4254C78.4184 90.2031 79.7377 92.0476 78.7004 94.7426L49.2454 171.268C48.5904 172.862 48.3283 174.24 48.3283 175.586C48.3283 176.985 48.7341 177.964 49.2212 178.808L49.2304 178.824L49.2408 178.839L65.1931 201.457C65.1938 201.458 65.1945 201.459 65.1952 201.46C66.3749 203.197 68.4805 203.345 70.8293 201.989C73.1784 200.633 75.2843 198.053 76.464 194.953C76.4645 194.951 76.465 194.95 76.4655 194.949L112.097 102.771C112.578 101.527 113.468 100.415 114.433 99.8503L125.229 93.5389C127.324 92.3141 128.643 94.1685 127.597 96.8685L89.2543 195.855C88.5988 197.45 88.3366 198.828 88.3366 200.175C88.3366 202.165 89.126 203.664 90.2951 204.339C91.489 205.029 93.1918 204.793 94.8812 203.818L126.442 185.596C128.813 184.227 130.901 181.501 132.069 178.58ZM102.747 97.2978L102.743 97.306L102.74 97.3141L72.366 175.858C71.3218 178.558 68.7002 180.069 67.6593 178.57L62.2952 170.847C61.8158 170.157 61.8172 168.968 62.2989 167.725L95.4305 82.1909C95.914 80.9425 96.8084 79.8282 97.777 79.2672L166.959 39.1968C167.927 38.6359 168.823 38.7131 169.309 39.3993L204.062 88.4377C204.551 89.1276 204.551 90.3275 204.063 91.582L171.529 175.148C171.047 176.387 170.16 177.492 169.199 178.054L158.387 184.375C156.293 185.599 154.974 183.748 156.018 181.049L185.569 104.611C186.225 103.017 186.487 101.639 186.487 100.292C186.487 98.893 186.081 97.9139 185.594 97.0703L185.585 97.0543L185.574 97.0396L169.622 74.4213C169.622 74.4205 169.621 74.4196 169.62 74.4188C168.441 72.6811 166.335 72.5331 163.986 73.8893C161.637 75.2456 159.531 77.8256 158.351 80.9259C158.351 80.9271 158.35 80.9283 158.35 80.9294L122.718 173.107C122.237 174.352 121.348 175.464 120.382 176.028L109.587 182.339C107.492 183.564 106.173 181.71 107.219 179.01L145.561 80.0232C146.216 78.4287 146.479 77.0506 146.479 75.7035C146.479 73.7128 145.689 72.2138 144.52 71.5388C143.326 70.8496 141.623 71.0852 139.934 72.0605L108.373 90.2821C106.003 91.6509 103.914 94.3769 102.747 97.2978Z" fill="#0962FF" stroke="#141414" stroke-width="1.56643"/>
</svg>
