<svg width="130" height="160" viewBox="0 0 130 160" fill="none" xmlns="http://www.w3.org/2000/svg">
<rect x="0.455332" width="58.3607" height="58.3607" rx="6.04638" transform="matrix(0.866025 -0.5 0.866025 0.5 13.4829 114.283)" fill="#141414" stroke="#0962FF" stroke-width="0.525772"/>
<rect x="0.455332" width="58.3607" height="58.3607" rx="6.04638" transform="matrix(0.866025 -0.5 0.866025 0.5 13.4829 108.5)" fill="#86B2FF" stroke="#0962FF" stroke-width="0.525772"/>
<path d="M16.8545 113.784V108.251C16.8545 108.865 17.4328 110.407 19.7462 111.669C22.0596 112.931 22.8132 113.421 22.9009 113.509V119.187L18.1689 116.401C17.9223 116.216 17.4763 115.797 17.1602 115.271C16.8942 114.83 16.8545 114.3 16.8545 113.784Z" fill="#0962FF" stroke="#0962FF" stroke-width="0.525772"/>
<path d="M111.861 108.251V114.298" stroke="#0962FF" stroke-width="0.525772"/>
<path d="M58.6533 134.277V139.798" stroke="#0962FF" stroke-width="0.525772"/>
<path d="M70.2197 134.014V139.797" stroke="#0962FF" stroke-width="0.525772"/>
<path d="M108.339 114.323V112.195C108.339 112.195 109.725 111.531 110.442 110.88C111.04 110.337 111.674 109.183 111.917 108.717C111.942 108.667 112.019 108.686 112.019 108.742V113.383C112.019 114.161 111.937 114.972 111.494 115.612C110.929 116.428 110.01 116.913 109.151 117.409L79.9473 134.277L106.35 117.897C107.587 117.13 108.339 115.778 108.339 114.323Z" fill="#0962FF" stroke="#0962FF" stroke-width="0.525772"/>
<path d="M26.8438 121.501V115.98L31.0499 118.609V123.867L26.8438 121.501Z" fill="#0962FF" stroke="#0962FF" stroke-width="0.525772"/>
<g clip-path="url(#clip0_1237_7882)">
<path opacity="0.5" d="M90.1508 110.145L68.1822 122.825C65.9997 124.087 62.1866 123.929 59.6668 122.474L38.9317 110.497C36.4119 109.042 36.1202 106.842 38.3202 105.577L60.2853 92.8931C62.4677 91.6349 66.2809 91.793 68.8007 93.2445L89.5357 105.218C92.0591 106.684 92.3332 108.877 90.1508 110.145Z" fill="white"/>
<path opacity="0.5" d="M85.2321 118.496C85.2887 118.476 85.3379 118.439 85.3727 118.391C85.4074 118.342 85.4261 118.283 85.4261 118.223C85.4261 118.163 85.4074 118.105 85.3727 118.056C85.3379 118.007 85.2887 117.971 85.2321 117.951C85.108 117.888 84.9726 117.851 84.8339 117.84C84.6952 117.83 84.5558 117.847 84.4238 117.891L82.3151 116.679H87.534C87.5709 116.752 87.6299 116.813 87.7027 116.851C87.8494 116.925 88.0113 116.963 88.1754 116.963C88.3395 116.963 88.5014 116.925 88.6481 116.851C88.7048 116.831 88.7539 116.795 88.7887 116.746C88.8234 116.697 88.8421 116.639 88.8421 116.579C88.8421 116.519 88.8234 116.46 88.7887 116.411C88.7539 116.363 88.7048 116.326 88.6481 116.306C88.5014 116.233 88.3395 116.194 88.1754 116.194C88.0113 116.194 87.8494 116.233 87.7027 116.306C87.6245 116.346 87.5625 116.412 87.527 116.493H81.5384L84.1918 118.025C84.0337 118.172 84.0653 118.376 84.2902 118.496C84.4365 118.569 84.5977 118.607 84.7612 118.607C84.9246 118.607 85.0858 118.569 85.2321 118.496ZM88.9187 115.656C89.0654 115.73 89.2273 115.768 89.3914 115.768C89.5555 115.768 89.7174 115.73 89.8641 115.656C89.9207 115.637 89.9699 115.6 90.0046 115.551C90.0394 115.502 90.0581 115.444 90.0581 115.384C90.0581 115.324 90.0394 115.265 90.0046 115.217C89.9699 115.168 89.9207 115.131 89.8641 115.111C89.7174 115.038 89.5555 114.999 89.3914 114.999C89.2273 114.999 89.0654 115.038 88.9187 115.111C88.8467 115.151 88.788 115.211 88.75 115.284H80.948L74.2003 111.386L73.9719 111.52L80.8145 115.47H88.7395C88.777 115.55 88.84 115.616 88.9187 115.656ZM92.7143 115.842C92.5632 115.99 92.5948 116.194 92.8127 116.31C92.9594 116.383 93.1212 116.422 93.2854 116.422C93.4495 116.422 93.6114 116.383 93.7581 116.31C93.8147 116.29 93.8638 116.253 93.8986 116.205C93.9334 116.156 93.9521 116.097 93.9521 116.037C93.9521 115.978 93.9334 115.919 93.8986 115.87C93.8638 115.821 93.8147 115.785 93.7581 115.765C93.6323 115.701 93.495 115.664 93.3543 115.654C93.2137 115.644 93.0725 115.663 92.9392 115.709L90.0187 114.022H82.6139L76.1227 110.283L75.8943 110.416L82.4803 114.215H89.8817L92.7143 115.842ZM79.1803 121.314C79.0693 121.328 78.962 121.363 78.864 121.416C78.8073 121.436 78.7582 121.473 78.7234 121.521C78.6886 121.57 78.6699 121.629 78.6699 121.689C78.6699 121.749 78.6886 121.807 78.7234 121.856C78.7582 121.905 78.8073 121.941 78.864 121.961C79.0102 122.034 79.1714 122.072 79.3349 122.072C79.4984 122.072 79.6596 122.034 79.8058 121.961C79.8625 121.941 79.9116 121.905 79.9464 121.856C79.9812 121.807 79.9999 121.749 79.9999 121.689C79.9999 121.629 79.9812 121.57 79.9464 121.521C79.9116 121.473 79.8625 121.436 79.8058 121.416C79.7119 121.365 79.6095 121.332 79.5036 121.318V118.306L81.6123 119.518C81.4611 119.666 81.4928 119.87 81.7142 119.986C81.8609 120.059 82.0227 120.098 82.1869 120.098C82.351 120.098 82.5128 120.059 82.6595 119.986C82.7162 119.966 82.7653 119.93 82.8001 119.881C82.8349 119.832 82.8536 119.773 82.8536 119.714C82.8536 119.654 82.8349 119.595 82.8001 119.546C82.7653 119.497 82.7162 119.461 82.6595 119.441C82.4035 119.315 82.108 119.295 81.8372 119.385L79.1838 117.856L79.1803 121.314ZM78.8675 124.906C78.9241 124.886 78.9733 124.85 79.0081 124.801C79.0428 124.752 79.0615 124.694 79.0615 124.634C79.0615 124.574 79.0428 124.515 79.0081 124.466C78.9733 124.418 78.9241 124.381 78.8675 124.361C78.7431 124.299 78.6077 124.262 78.469 124.252C78.3302 124.243 78.191 124.261 78.0592 124.305L75.2125 122.671V118.397L68.6405 114.595L68.4121 114.728L74.9032 118.475V122.748L77.8237 124.435C77.6656 124.583 77.6972 124.787 77.9186 124.906C78.0653 124.98 78.2272 125.018 78.3913 125.018C78.5554 125.018 78.7173 124.98 78.864 124.906H78.8675ZM76.7905 122.116C76.7338 122.135 76.6847 122.172 76.6499 122.221C76.6151 122.27 76.5964 122.328 76.5964 122.388C76.5964 122.448 76.6151 122.506 76.6499 122.555C76.6847 122.604 76.7338 122.641 76.7905 122.66C76.9372 122.734 77.099 122.772 77.2632 122.772C77.4273 122.772 77.5891 122.734 77.7358 122.66C77.7925 122.641 77.8416 122.604 77.8764 122.555C77.9112 122.506 77.9299 122.448 77.9299 122.388C77.9299 122.328 77.9112 122.27 77.8764 122.221C77.8416 122.172 77.7925 122.135 77.7358 122.116C77.6358 122.06 77.526 122.024 77.4125 122.01V117.441L70.5664 113.491L70.338 113.625L77.0892 117.519V122.024C76.9838 122.036 76.8814 122.067 76.787 122.116H76.7905ZM83.1164 118.661L72.3658 112.454L72.1374 112.585L85.4043 120.256C85.2532 120.404 85.2883 120.608 85.5062 120.724C85.6529 120.797 85.8148 120.836 85.9789 120.836C86.143 120.836 86.3049 120.797 86.4516 120.724C86.5079 120.703 86.5565 120.666 86.5908 120.617C86.6252 120.568 86.6436 120.51 86.6436 120.45C86.6436 120.39 86.6252 120.331 86.5908 120.282C86.5565 120.233 86.5079 120.196 86.4516 120.176C86.3251 120.112 86.1871 120.075 86.0458 120.066C85.9045 120.057 85.7628 120.076 85.6292 120.123L83.0988 118.661" fill="#0962FF"/>
<path opacity="0.5" d="M43.2301 97.2301C43.1734 97.2497 43.1243 97.2864 43.0895 97.3353C43.0547 97.3841 43.036 97.4425 43.036 97.5025C43.036 97.5624 43.0547 97.6209 43.0895 97.6697C43.1243 97.7185 43.1734 97.7552 43.2301 97.7748C43.3547 97.8381 43.4906 97.876 43.63 97.8862C43.7693 97.8965 43.9094 97.8789 44.0419 97.8346L46.1505 99.0506H40.9316C40.8947 98.9749 40.8343 98.9133 40.7594 98.8748C40.6132 98.8018 40.452 98.7638 40.2885 98.7638C40.125 98.7638 39.9638 98.8018 39.8176 98.8748C39.7609 98.8944 39.7118 98.9312 39.677 98.98C39.6422 99.0288 39.6235 99.0873 39.6235 99.1472C39.6235 99.2071 39.6422 99.2656 39.677 99.3144C39.7118 99.3632 39.7609 99.4 39.8176 99.4196C39.9638 99.4926 40.125 99.5306 40.2885 99.5306C40.452 99.5306 40.6132 99.4926 40.7594 99.4196C40.8374 99.3808 40.8995 99.3162 40.9351 99.2368H46.9307L44.2844 97.7045C44.4425 97.5569 44.4109 97.3531 44.1895 97.2301C44.041 97.1542 43.8766 97.1146 43.7098 97.1146C43.543 97.1146 43.3786 97.1542 43.2301 97.2301ZM39.547 100.07C39.4002 99.9962 39.2384 99.9578 39.0743 99.9578C38.9101 99.9578 38.7483 99.9962 38.6016 100.07C38.5453 100.09 38.4967 100.127 38.4624 100.177C38.428 100.226 38.4096 100.284 38.4096 100.344C38.4096 100.404 38.428 100.462 38.4624 100.511C38.4967 100.56 38.5453 100.598 38.6016 100.618C38.7483 100.692 38.9101 100.73 39.0743 100.73C39.2384 100.73 39.4002 100.692 39.547 100.618C39.6204 100.579 39.6794 100.517 39.7156 100.442H47.5176L54.2653 104.336L54.4938 104.206L47.6512 100.256H39.7156C39.681 100.178 39.6233 100.113 39.5505 100.07H39.547ZM35.7549 99.8835C35.906 99.7359 35.8744 99.532 35.653 99.4161C35.5063 99.3425 35.3444 99.3042 35.1803 99.3042C35.0162 99.3042 34.8543 99.3425 34.7076 99.4161C34.6513 99.4365 34.6027 99.4738 34.5684 99.5229C34.534 99.5719 34.5156 99.6303 34.5156 99.6902C34.5156 99.7501 34.534 99.8085 34.5684 99.8575C34.6027 99.9066 34.6513 99.9438 34.7076 99.9643C34.8344 100.027 34.9724 100.064 35.1135 100.073C35.2547 100.082 35.3962 100.063 35.53 100.017L38.4505 101.704H45.8553L52.3464 105.45L52.5749 105.32L45.9889 101.518H38.5875L35.7549 99.8835ZM49.2854 94.4151C49.3974 94.4014 49.5059 94.3669 49.6052 94.3131C49.6615 94.2927 49.7101 94.2554 49.7444 94.2063C49.7788 94.1573 49.7972 94.0989 49.7972 94.039C49.7972 93.9791 49.7788 93.9207 49.7444 93.8717C49.7101 93.8226 49.6615 93.7854 49.6052 93.7649C49.4585 93.6913 49.2966 93.653 49.1325 93.653C48.9684 93.653 48.8065 93.6913 48.6598 93.7649C48.6036 93.7854 48.555 93.8226 48.5206 93.8717C48.4863 93.9207 48.4678 93.9791 48.4678 94.039C48.4678 94.0989 48.4863 94.1573 48.5206 94.2063C48.555 94.2554 48.6036 94.2927 48.6598 94.3131C48.7542 94.3631 48.8564 94.3964 48.9621 94.4115V97.4234L46.8534 96.2074C47.001 96.0598 46.9694 95.856 46.7515 95.74C46.6048 95.6664 46.4429 95.6281 46.2788 95.6281C46.1147 95.6281 45.9528 95.6664 45.8061 95.74C45.7495 95.7596 45.7003 95.7963 45.6656 95.8451C45.6308 95.894 45.6121 95.9524 45.6121 96.0123C45.6121 96.0723 45.6308 96.1307 45.6656 96.1796C45.7003 96.2284 45.7495 96.2651 45.8061 96.2847C45.9319 96.3484 46.0692 96.3861 46.2099 96.3958C46.3505 96.4055 46.4917 96.3868 46.625 96.3409L49.2784 97.8732L49.2854 94.4151ZM49.6017 90.8198C49.545 90.8394 49.4959 90.8761 49.4611 90.925C49.4264 90.9738 49.4077 91.0322 49.4077 91.0922C49.4077 91.1521 49.4264 91.2106 49.4611 91.2594C49.4959 91.3082 49.545 91.345 49.6017 91.3645C49.7258 91.4273 49.8611 91.4649 49.9999 91.4752C50.1386 91.4854 50.278 91.4681 50.41 91.4243L53.2215 93.0585V97.332L59.8286 101.145L60.0571 101.015L53.566 97.2688V92.9812L50.6455 91.3048C50.8001 91.1572 50.772 90.9534 50.5471 90.8303C50.4016 90.7557 50.2408 90.7159 50.0774 90.7141C49.9139 90.7122 49.7523 90.7484 49.6052 90.8198H49.6017ZM51.6787 93.6138C51.7354 93.5942 51.7845 93.5574 51.8193 93.5086C51.854 93.4598 51.8727 93.4013 51.8727 93.3414C51.8727 93.2815 51.854 93.223 51.8193 93.1742C51.7845 93.1254 51.7354 93.0886 51.6787 93.069C51.532 92.9954 51.3701 92.9571 51.206 92.9571C51.0419 92.9571 50.88 92.9954 50.7333 93.069C50.6767 93.0886 50.6275 93.1254 50.5928 93.1742C50.558 93.223 50.5393 93.2815 50.5393 93.3414C50.5393 93.4013 50.558 93.4598 50.5928 93.5086C50.6275 93.5574 50.6767 93.5942 50.7333 93.6138C50.8332 93.669 50.9432 93.7037 51.0567 93.7157V98.2844L57.8992 102.235L58.1277 102.105L51.38 98.2071V93.7122C51.4857 93.6974 51.5881 93.6641 51.6822 93.6138H51.6787ZM42.0106 95.0195C41.9539 95.0391 41.9048 95.0759 41.87 95.1247C41.8352 95.1735 41.8165 95.232 41.8165 95.2919C41.8165 95.3518 41.8352 95.4103 41.87 95.4591C41.9048 95.5079 41.9539 95.5447 42.0106 95.5643C42.1364 95.6279 42.2736 95.6657 42.4143 95.6753C42.5549 95.685 42.6961 95.6663 42.8294 95.6205L56.1139 103.289L56.3423 103.155L43.0579 95.4869C43.2055 95.3393 43.1738 95.1355 42.9559 95.0195C42.8108 94.9443 42.6501 94.9039 42.4867 94.9015C42.3232 94.899 42.1614 94.9346 42.0141 95.0055L42.0106 95.0195Z" fill="#0962FF"/>
<path opacity="0.5" d="M82.6525 95.7397C82.5058 95.6661 82.3439 95.6278 82.1798 95.6278C82.0157 95.6278 81.8538 95.6661 81.7071 95.7397C81.4857 95.8662 81.4541 96.0595 81.6052 96.2071L79.4966 97.4231V94.4113C79.6025 94.3972 79.7049 94.3638 79.7988 94.3129C79.8567 94.2941 79.9072 94.2574 79.943 94.2082C79.9788 94.1589 79.9981 94.0996 79.9981 94.0387C79.9981 93.9779 79.9788 93.9185 79.943 93.8693C79.9072 93.82 79.8567 93.7834 79.7988 93.7646C79.6526 93.6916 79.4913 93.6536 79.3279 93.6536C79.1644 93.6536 79.0032 93.6916 78.8569 93.7646C78.799 93.7834 78.7486 93.82 78.7128 93.8693C78.677 93.9185 78.6577 93.9779 78.6577 94.0387C78.6577 94.0996 78.677 94.1589 78.7128 94.2082C78.7486 94.2574 78.799 94.2941 78.8569 94.3129C78.955 94.3666 79.0623 94.4012 79.1732 94.4148V97.873L81.8301 96.3407C81.9635 96.3865 82.1046 96.4052 82.2453 96.3955C82.3859 96.3859 82.5232 96.3481 82.649 96.2845C82.7058 96.2652 82.7551 96.2288 82.7902 96.1802C82.8253 96.1316 82.8444 96.0733 82.8448 96.0133C82.8452 95.9534 82.8269 95.8948 82.7924 95.8458C82.7579 95.7967 82.709 95.7597 82.6525 95.7397ZM77.7323 93.6135C77.789 93.5939 77.8381 93.5572 77.8729 93.5083C77.9077 93.4595 77.9264 93.4011 77.9264 93.3411C77.9264 93.2812 77.9077 93.2227 77.8729 93.1739C77.8381 93.1251 77.789 93.0883 77.7323 93.0688C77.5856 92.9952 77.4238 92.9569 77.2596 92.9569C77.0955 92.9569 76.9337 92.9952 76.787 93.0688C76.7303 93.0883 76.6812 93.1251 76.6464 93.1739C76.6116 93.2227 76.5929 93.2812 76.5929 93.3411C76.5929 93.4011 76.6116 93.4595 76.6464 93.5083C76.6812 93.5572 76.7303 93.5939 76.787 93.6135C76.8798 93.664 76.981 93.6973 77.0857 93.7119V98.2139L70.3345 102.111L70.5629 102.241L77.409 98.2912V93.7224C77.5229 93.7078 77.6328 93.6708 77.7323 93.6135ZM78.0557 91.424C78.1877 91.4679 78.3271 91.4852 78.4658 91.4749C78.6045 91.4647 78.7398 91.4271 78.864 91.3643C78.9206 91.3447 78.9698 91.3079 79.0045 91.2591C79.0393 91.2103 79.058 91.1518 79.058 91.0919C79.058 91.032 79.0393 90.9735 79.0045 90.9247C78.9698 90.8759 78.9206 90.8391 78.864 90.8195C78.7173 90.746 78.5554 90.7076 78.3913 90.7076C78.2272 90.7076 78.0653 90.746 77.9186 90.8195C77.6972 90.9496 77.6656 91.1464 77.8237 91.294L74.9032 92.9809V97.2544L68.4121 101.001L68.6405 101.131L75.2125 97.3317V93.0617L78.0557 91.424ZM87.5446 99.2366C87.5814 99.3152 87.6432 99.3794 87.7203 99.4193C87.867 99.4929 88.0289 99.5312 88.193 99.5312C88.3571 99.5312 88.519 99.4929 88.6657 99.4193C88.7223 99.3997 88.7715 99.363 88.8062 99.3141C88.841 99.2653 88.8597 99.2069 88.8597 99.1469C88.8597 99.087 88.841 99.0286 88.8062 98.9797C88.7715 98.9309 88.7223 98.8942 88.6657 98.8746C88.519 98.801 88.3571 98.7627 88.193 98.7627C88.0289 98.7627 87.867 98.801 87.7203 98.8746C87.6472 98.9142 87.5882 98.9756 87.5516 99.0503H82.3186L84.4273 97.8343C84.5593 97.8782 84.6987 97.8955 84.8374 97.8852C84.9762 97.875 85.1115 97.8374 85.2356 97.7746C85.4992 97.627 85.4992 97.3809 85.2356 97.2298C85.0894 97.1568 84.9281 97.1188 84.7647 97.1188C84.6012 97.1188 84.44 97.1568 84.2937 97.2298C84.0688 97.3599 84.0407 97.5567 84.1953 97.7043L81.5384 99.2366H87.5446ZM93.7686 99.4158C93.6219 99.3422 93.46 99.3039 93.2959 99.3039C93.1318 99.3039 92.9699 99.3422 92.8232 99.4158C92.6053 99.5423 92.5737 99.7356 92.7248 99.8832L89.9133 101.517H82.4803L75.8943 105.32L76.1227 105.45L82.6139 101.704H90.0152L92.9357 100.017C93.0688 100.063 93.2098 100.082 93.3505 100.073C93.4911 100.064 93.6285 100.027 93.7545 99.964C93.8125 99.9453 93.8629 99.9086 93.8987 99.8594C93.9345 99.8101 93.9538 99.7508 93.9538 99.6899C93.9538 99.629 93.9345 99.5697 93.8987 99.5205C93.8629 99.4712 93.8125 99.4346 93.7545 99.4158H93.7686ZM88.9187 100.618C89.065 100.691 89.2262 100.729 89.3896 100.729C89.5531 100.729 89.7143 100.691 89.8606 100.618C89.9185 100.599 89.969 100.562 90.0048 100.513C90.0406 100.464 90.0598 100.404 90.0598 100.344C90.0598 100.283 90.0406 100.223 90.0048 100.174C89.969 100.125 89.9185 100.088 89.8606 100.069C89.7143 99.9965 89.5531 99.9585 89.3896 99.9585C89.2262 99.9585 89.065 99.9965 88.9187 100.069C88.8393 100.111 88.7761 100.178 88.7395 100.259H80.8145L73.9719 104.209L74.2003 104.339L80.948 100.442H88.7465C88.7842 100.517 88.8444 100.578 88.9187 100.618ZM86.5078 95.0333C86.3611 94.9597 86.1993 94.9214 86.0351 94.9214C85.871 94.9214 85.7092 94.9597 85.5624 95.0333C85.3375 95.1633 85.3094 95.3602 85.4676 95.5078L72.1831 103.176L72.4115 103.31L85.696 95.6378C85.8283 95.6827 85.9682 95.7008 86.1076 95.6912C86.2469 95.6815 86.383 95.6443 86.5078 95.5816C86.5641 95.5611 86.6127 95.5238 86.647 95.4748C86.6814 95.4257 86.6998 95.3673 86.6998 95.3074C86.6998 95.2476 86.6814 95.1892 86.647 95.1401C86.6127 95.0911 86.5641 95.0538 86.5078 95.0333Z" fill="#0962FF"/>
<path opacity="0.5" d="M45.8172 119.986C45.9639 120.059 46.1257 120.098 46.2898 120.098C46.454 120.098 46.6158 120.059 46.7625 119.986C46.9804 119.859 47.012 119.67 46.8644 119.518L48.9731 118.306V121.318C48.8674 121.333 48.7652 121.366 48.6709 121.416C48.6142 121.436 48.5651 121.473 48.5303 121.521C48.4955 121.57 48.4768 121.629 48.4768 121.689C48.4768 121.748 48.4955 121.807 48.5303 121.856C48.5651 121.905 48.6142 121.941 48.6709 121.961C48.8176 122.034 48.9794 122.073 49.1435 122.073C49.3077 122.073 49.4695 122.034 49.6162 121.961C49.6729 121.941 49.722 121.905 49.7568 121.856C49.7916 121.807 49.8103 121.748 49.8103 121.689C49.8103 121.629 49.7916 121.57 49.7568 121.521C49.722 121.473 49.6729 121.436 49.6162 121.416C49.517 121.362 49.4085 121.328 49.2964 121.314V117.856L46.643 119.388C46.51 119.342 46.3689 119.323 46.2283 119.332C46.0876 119.341 45.9502 119.378 45.8242 119.441C45.7673 119.46 45.7176 119.496 45.6822 119.544C45.6468 119.593 45.6274 119.651 45.6266 119.711C45.6258 119.771 45.6438 119.83 45.6779 119.879C45.7121 119.928 45.7607 119.966 45.8172 119.986ZM50.7373 122.116C50.6807 122.135 50.6315 122.172 50.5968 122.221C50.562 122.27 50.5433 122.328 50.5433 122.388C50.5433 122.448 50.562 122.506 50.5968 122.555C50.6315 122.604 50.6807 122.641 50.7373 122.66C50.884 122.734 51.0459 122.772 51.21 122.772C51.3741 122.772 51.536 122.734 51.6827 122.66C51.7394 122.641 51.7885 122.604 51.8233 122.555C51.858 122.506 51.8767 122.448 51.8767 122.388C51.8767 122.328 51.858 122.27 51.8233 122.221C51.7885 122.172 51.7394 122.135 51.6827 122.116C51.5896 122.066 51.4885 122.032 51.384 122.017V117.512L58.1316 113.618L57.9032 113.484L51.0607 117.434V122.003C50.9464 122.018 50.8364 122.057 50.7373 122.116ZM50.414 124.305C50.2817 124.26 50.1418 124.242 50.0024 124.252C49.8631 124.261 49.727 124.299 49.6022 124.361C49.5455 124.381 49.4964 124.418 49.4616 124.466C49.4268 124.515 49.4081 124.574 49.4081 124.634C49.4081 124.694 49.4268 124.752 49.4616 124.801C49.4964 124.85 49.5455 124.886 49.6022 124.906C49.7489 124.98 49.9107 125.018 50.0749 125.018C50.239 125.018 50.4008 124.98 50.5475 124.906C50.7725 124.779 50.8006 124.583 50.646 124.435L53.5664 122.748V118.475L60.0576 114.728L59.8291 114.595L53.2431 118.397V122.671L50.414 124.305ZM40.9251 116.492C40.892 116.411 40.8293 116.344 40.7494 116.306C40.6031 116.233 40.4419 116.195 40.2784 116.195C40.115 116.195 39.9538 116.233 39.8075 116.306C39.5439 116.457 39.5439 116.703 39.8075 116.851C39.9538 116.924 40.115 116.962 40.2784 116.962C40.4419 116.962 40.6031 116.924 40.7494 116.851C40.8238 116.814 40.8842 116.753 40.9216 116.679H46.1475L44.0389 117.891C43.7708 117.804 43.4795 117.826 43.227 117.951C43.1704 117.971 43.1212 118.007 43.0865 118.056C43.0517 118.105 43.033 118.163 43.033 118.223C43.033 118.283 43.0517 118.342 43.0865 118.391C43.1212 118.439 43.1704 118.476 43.227 118.496C43.3737 118.569 43.5356 118.608 43.6997 118.608C43.8638 118.608 44.0257 118.569 44.1724 118.496C44.3938 118.369 44.4254 118.172 44.2673 118.025L46.9242 116.492H40.9251ZM34.7011 116.31C34.8478 116.383 35.0096 116.422 35.1737 116.422C35.3379 116.422 35.4997 116.383 35.6464 116.31C35.8678 116.183 35.8995 115.99 35.7484 115.842L38.5775 114.208H45.9894L52.5754 110.406L52.3469 110.272L45.8558 114.022H38.4545L35.534 115.709C35.4002 115.662 35.2584 115.644 35.1171 115.653C34.9758 115.663 34.8379 115.701 34.7116 115.765C34.655 115.785 34.6058 115.821 34.571 115.87C34.5363 115.919 34.5176 115.977 34.5176 116.037C34.5176 116.097 34.5363 116.156 34.571 116.205C34.6058 116.253 34.655 116.29 34.7116 116.31H34.7011ZM39.5404 115.111C39.3937 115.038 39.2318 114.999 39.0677 114.999C38.9036 114.999 38.7417 115.038 38.595 115.111C38.5384 115.131 38.4892 115.168 38.4545 115.216C38.4197 115.265 38.401 115.324 38.401 115.384C38.401 115.444 38.4197 115.502 38.4545 115.551C38.4892 115.6 38.5384 115.636 38.595 115.656C38.7417 115.73 38.9036 115.768 39.0677 115.768C39.2318 115.768 39.3937 115.73 39.5404 115.656C39.6188 115.615 39.6817 115.55 39.7196 115.47H47.6446L54.4872 111.52L54.2588 111.386L47.5111 115.284H39.7161C39.6802 115.21 39.6225 115.15 39.551 115.111H39.5404ZM41.9513 120.692C42.098 120.766 42.2599 120.804 42.424 120.804C42.5881 120.804 42.75 120.766 42.8967 120.692C43.1181 120.566 43.1497 120.369 42.9916 120.218L56.276 112.549L56.0476 112.419L42.7702 120.088C42.6381 120.044 42.4988 120.027 42.36 120.037C42.2213 120.047 42.086 120.085 41.9618 120.147C41.9052 120.167 41.8561 120.204 41.8213 120.253C41.7865 120.301 41.7678 120.36 41.7678 120.42C41.7678 120.48 41.7865 120.538 41.8213 120.587C41.8561 120.636 41.9052 120.673 41.9618 120.692H41.9513Z" fill="#0962FF"/>
<path d="M83.1112 109.527L67.1277 118.763C65.5392 119.68 62.7628 119.564 60.9283 118.506L45.8163 109.783C43.9783 108.729 43.7815 107.12 45.37 106.202L61.3676 96.9664C62.9596 96.0456 65.736 96.1616 67.5705 97.223L82.6825 105.946C84.4994 107.004 84.6998 108.606 83.1112 109.527Z" fill="#86B2FF"/>
<path d="M81.4189 107.682L66.8552 116.092C65.4072 116.925 62.8804 116.823 61.2075 115.856L47.4486 107.914C45.7757 106.951 45.5965 105.492 47.0409 104.656L61.6082 96.2459C63.0561 95.4095 65.583 95.5149 67.2523 96.4814L81.0077 104.42C82.6841 105.387 82.8668 106.845 81.4189 107.682Z" fill="#86B2FF"/>
<path d="M81.4174 107.682L66.8537 116.092C65.4058 116.925 62.8789 116.823 61.206 115.856L47.4471 107.914C46.5123 107.376 46.0413 106.68 46.0659 106.03V107.608C46.0343 108.265 46.5052 108.965 47.4471 109.509L61.199 117.452C62.8719 118.415 65.3987 118.506 66.8467 117.684L81.4104 109.274C81.6788 109.151 81.9102 108.959 82.0816 108.719C82.253 108.478 82.3585 108.197 82.3874 107.903V106.325C82.3548 106.615 82.2486 106.892 82.0788 107.13C81.909 107.367 81.6814 107.557 81.4174 107.682Z" fill="white"/>
<path opacity="0.5" d="M64.374 115.034C63.4195 115.042 62.4785 114.808 61.6398 114.352L50.2355 107.77C49.4518 107.316 49.002 106.715 49.002 106.086C49.0186 105.805 49.111 105.533 49.2693 105.3C49.4277 105.067 49.6462 104.881 49.9016 104.761L61.9737 97.7922C63.2213 97.0893 65.4002 97.1596 66.8306 97.9855L78.2348 104.568C79.0186 105.021 79.4684 105.622 79.4684 106.248C79.4518 106.529 79.3594 106.801 79.201 107.034C79.0426 107.267 78.8242 107.454 78.5687 107.573L66.4932 114.545C65.84 114.886 65.1105 115.054 64.374 115.034ZM64.0964 97.6481C63.42 97.6292 62.75 97.7828 62.1494 98.0944L50.0774 105.067C49.8766 105.157 49.7036 105.299 49.5762 105.478C49.4489 105.657 49.372 105.867 49.3534 106.086C49.3534 106.575 49.74 107.077 50.4077 107.464L61.812 114.046C63.1475 114.82 65.1647 114.904 66.3139 114.24L78.3895 107.271C78.5903 107.18 78.7632 107.037 78.8905 106.858C79.0178 106.678 79.0948 106.467 79.1134 106.248C79.1134 105.763 78.7269 105.26 78.0591 104.874L66.6548 98.2877C65.87 97.8612 64.9896 97.6411 64.0964 97.6481Z" fill="#0962FF"/>
</g>
<path opacity="0.1" d="M63.8104 52.4435C56.2318 26.3182 48.4502 72.4534 63.8107 101.08" stroke="#0962FF" stroke-width="1.11703"/>
<path opacity="0.1" d="M63.8114 52.4433C72.3517 25.2065 80.4115 73.8427 63.8111 101.08" stroke="#0962FF" stroke-width="1.11703"/>
<line opacity="0.08" x1="64.5722" y1="44.1053" x2="64.5722" y2="52.9989" stroke="#0962FF" stroke-width="1.11703"/>
<path opacity="0.2" d="M63.8094 52.4436C41.2228 30.2093 40.3895 74.9548 63.8096 101.08" stroke="#0962FF" stroke-width="1.11703"/>
<path opacity="0.2" d="M63.8115 52.4432C85.6916 30.7648 89.8604 73.565 63.8113 101.08" stroke="#0962FF" stroke-width="1.11703"/>
<path opacity="0.3" d="M63.8124 52.4437C32.609 39.3803 30.3851 79.9573 63.8126 101.08" stroke="#0962FF" stroke-width="1.11703"/>
<path opacity="0.3" d="M63.8116 52.4435C95.4187 39.3806 99.0319 76.9002 63.8113 101.08" stroke="#0962FF" stroke-width="1.11703"/>
<path opacity="0.4" d="M63.8116 52.4442C26.7724 45.7725 20.9359 83.8482 63.8119 101.081" stroke="#0962FF" stroke-width="1.11703"/>
<path opacity="0.4" d="M63.8105 52.4435C105.979 46.8845 104.034 84.682 63.8103 101.08" stroke="#0962FF" stroke-width="1.11703"/>
<path opacity="0.5" d="M63.8103 52.4441C25.104 53.8325 17.0442 94.965 63.8105 101.081" stroke="#0962FF" stroke-width="1.11703"/>
<path opacity="0.5" d="M63.8108 52.4441C104.59 54.9444 110.426 93.5757 63.8106 101.081" stroke="#0962FF" stroke-width="1.11703"/>
<path opacity="0.6" d="M63.81 52.4442C30.3843 60.7806 15.0991 101.081 63.8103 101.081" stroke="#0962FF" stroke-width="1.11703"/>
<path opacity="0.6" d="M63.8114 52.4439C96.2519 59.391 114.595 99.9678 63.8112 101.081" stroke="#0962FF" stroke-width="1.11703"/>
<path opacity="0.7" d="M63.8079 52.4445C31.4962 72.7314 25.104 112.752 63.8082 101.081" stroke="#0962FF" stroke-width="1.11703"/>
<path opacity="0.7" d="M63.8115 52.4447C81.7997 59.9468 115.706 110.807 63.8112 101.081" stroke="#0962FF" stroke-width="1.11703"/>
<path opacity="0.8" d="M63.8038 52.443C41.5011 76.0665 35.3863 122.758 63.804 101.08" stroke="#0962FF" stroke-width="1.11703"/>
<path opacity="0.8" d="M63.8112 52.4447C75.9634 58.8351 101.811 124.147 63.811 101.081" stroke="#0962FF" stroke-width="1.11703"/>
<path d="M63.8183 52.443C55.9676 68.2844 42.9051 132.763 63.8184 100.801" stroke="#0962FF" stroke-width="1.11703"/>
<path d="M63.8127 52.4445C68.7378 57.7235 88.4701 136.654 63.8125 101.081" stroke="#0962FF" stroke-width="1.11703"/>
<line x1="64.5722" y1="52.9988" x2="64.5722" y2="112.474" stroke="#0962FF" stroke-width="1.11703"/>
<path d="M105.527 96.9181C96.3196 110.495 71.5544 109.768 50.2128 95.2944C28.8711 80.8207 19.0345 58.0812 28.2422 44.5043" stroke="white" stroke-width="0.555845"/>
<path d="M23.608 93.8829C32.1867 107.866 56.9592 108.27 78.9391 94.7847C100.919 81.2999 111.783 59.0329 103.204 45.05" stroke="white" stroke-width="0.555845"/>
<path opacity="0.5" d="M22.042 92.0779C13.414 78.1255 24.199 55.8202 46.131 42.2577C68.063 28.6952 92.8368 29.0113 101.465 42.9637" stroke="white" stroke-width="0.444676" stroke-dasharray="11.12 2.78"/>
<path d="M45.8064 42.1811C45.7641 42.3604 45.8752 42.54 46.0544 42.5823L48.9759 43.2711C49.1552 43.3134 49.3348 43.2024 49.377 43.0231C49.4193 42.8438 49.3082 42.6642 49.129 42.6219L46.5321 42.0096L47.1445 39.4128C47.1867 39.2335 47.0757 39.0539 46.8964 39.0116C46.7171 38.9693 46.5375 39.0804 46.4952 39.2597L45.8064 42.1811ZM46.3064 42.5413C57.2268 35.7883 68.8417 32.4992 78.7826 32.6261C88.7283 32.753 96.948 36.2936 101.181 43.1392L101.748 42.7883C97.3537 35.6814 88.8725 32.0878 78.7912 31.9591C68.7052 31.8304 56.9672 35.1646 45.9556 41.974L46.3064 42.5413Z" fill="white"/>
<path d="M85.6938 43.4894C85.7296 43.7013 85.5868 43.9021 85.375 43.9379L81.9221 44.5213C81.7102 44.5571 81.5094 44.4144 81.4736 44.2025C81.4378 43.9906 81.5805 43.7898 81.7924 43.754L84.8617 43.2354L84.3431 40.1662C84.3073 39.9543 84.45 39.7535 84.6619 39.7177C84.8738 39.6819 85.0746 39.8246 85.1104 40.0365L85.6938 43.4894ZM85.0847 43.8714C74.6272 36.437 63.2571 32.4141 53.3406 31.9037C43.4186 31.3931 35.0108 34.3961 30.362 40.9352L29.7278 40.4843C34.5842 33.6531 43.3005 30.6078 53.3806 31.1266C63.4662 31.6457 74.9761 35.7302 85.5356 43.2371L85.0847 43.8714Z" fill="white"/>
<path opacity="0.5" d="M29.8816 41.1003C39.2132 27.6083 63.9707 28.5619 85.179 43.2304C106.387 57.8989 116.015 80.7274 106.684 94.2195" stroke="white" stroke-width="0.444676" stroke-dasharray="11.12 2.78"/>
<defs>
<clipPath id="clip0_1237_7882">
<rect width="59.4322" height="34.3147" fill="white" transform="translate(34.5186 90.7072)"/>
</clipPath>
</defs>
</svg>
