<svg width="150" height="160" viewBox="0 0 150 160" fill="none" xmlns="http://www.w3.org/2000/svg">
<rect x="0.52407" width="67.171" height="67.171" rx="6.95916" transform="matrix(0.866026 -0.5 0.866025 0.5 16.3739 106.09)" fill="#141414" stroke="#0962FF" stroke-width="0.605144"/>
<rect x="0.52407" width="67.171" height="67.171" rx="6.95916" transform="matrix(0.866026 -0.5 0.866025 0.5 16.3739 99.434)" fill="#86B2FF" stroke="#0962FF" stroke-width="0.605144"/>
<circle opacity="0.3" cx="15.0987" cy="15.0987" r="15.0987" transform="matrix(0.866026 0.5 -0.866026 0.5 67.4551 83.2838)" fill="#141414"/>
<circle opacity="0.3" cx="12.5335" cy="12.5335" r="12.5335" transform="matrix(0.866026 0.5 -0.866026 0.5 88.4551 89.2838)" fill="#141414"/>
<path d="M20.2549 105.515V99.1476C20.2549 99.8536 20.9205 101.629 23.5832 103.081C26.2458 104.533 27.1132 105.098 27.214 105.199V111.735L21.7677 108.527C21.4839 108.314 20.9705 107.832 20.6068 107.228C20.3006 106.719 20.2549 106.109 20.2549 105.515Z" fill="#0962FF" stroke="#0962FF" stroke-width="0.605144"/>
<path d="M129.604 99.1476V106.107" stroke="#0962FF" stroke-width="0.605144"/>
<path d="M68.3633 129.102V135.456" stroke="#0962FF" stroke-width="0.605144"/>
<path d="M81.6768 128.799V135.456" stroke="#0962FF" stroke-width="0.605144"/>
<path d="M125.55 106.136V103.686C125.55 103.686 127.145 102.923 127.97 102.173C128.659 101.548 129.388 100.221 129.667 99.6832C129.697 99.6263 129.786 99.6481 129.786 99.7122V105.054C129.786 105.95 129.691 106.883 129.181 107.62C128.53 108.559 127.474 109.117 126.484 109.688L92.8721 129.102L123.261 110.25C124.684 109.367 125.55 107.811 125.55 106.136Z" fill="#0962FF" stroke="#0962FF" stroke-width="0.605144"/>
<path d="M31.752 114.397V108.043L36.5931 111.069V117.12L31.752 114.397Z" fill="#0962FF" stroke="#0962FF" stroke-width="0.605144"/>
<path d="M61.6408 83.2837C49.4626 83.2837 39.5902 72.9333 39.5902 60.1655C39.5902 47.3976 49.4626 37.0472 61.6408 37.0472C73.819 37.0472 83.6914 47.3976 83.6914 60.1655C83.6914 72.9333 73.819 83.2837 61.6408 83.2837Z" fill="#0962FF" stroke="#141414" stroke-width="0.54427" stroke-miterlimit="10"/>
<path d="M59.3547 81.5203C47.1764 81.5203 37.304 71.1699 37.304 58.402C37.304 45.6342 47.1764 35.2838 59.3547 35.2838C71.5329 35.2838 81.4053 45.6342 81.4053 58.402C81.4053 71.1699 71.5329 81.5203 59.3547 81.5203Z" fill="white" stroke="#141414" stroke-width="0.54427" stroke-miterlimit="10"/>
<path d="M50.2051 63.8685H53.8116C53.8116 65.816 56.2821 67.475 59.2214 67.475C62.1607 67.475 64.6311 65.816 64.6311 63.8685C64.6311 61.8849 62.7557 61.1636 58.7886 60.2078C54.9657 59.2521 50.2051 58.0619 50.2051 53.0488C50.2051 49.8209 52.8559 47.0799 56.5165 46.1602V42.2291H61.9263V46.1602C65.5869 47.0799 68.2376 49.8209 68.2376 53.0488H64.6311C64.6311 51.1012 62.1607 49.4422 59.2214 49.4422C56.2821 49.4422 53.8116 51.1012 53.8116 53.0488C53.8116 55.0324 55.687 55.7537 59.6541 56.7094C63.4771 57.6652 68.2376 58.8553 68.2376 63.8685C68.2376 67.0964 65.5869 69.8373 61.9263 70.757V74.6882H56.5165V70.757C52.8559 69.8373 50.2051 67.0964 50.2051 63.8685Z" fill="#141414"/>
<ellipse cx="15.4402" cy="23.8916" rx="15.4402" ry="23.8916" transform="matrix(0.870143 0.4928 -0.492797 0.870144 98.917 23.4875)" fill="#0962FF"/>
<path fill-rule="evenodd" clip-rule="evenodd" d="M93.099 36.6252C90.8584 38.8029 88.7933 41.4593 87.0658 44.5095C80.5634 55.9911 81.3072 68.7053 88.7273 72.9076C95.1965 76.5714 104.605 72.5554 111.219 63.8569L86.0511 47.4105L93.099 36.6252Z" fill="#86B2FF"/>
<path d="M108.861 57.268C105.536 63.1391 100.996 67.5669 96.3632 69.9893C91.7259 72.4138 87.0475 72.8081 83.3737 70.7274C79.6999 68.6468 77.6319 64.4318 77.3262 59.2078C77.0209 53.9886 78.4834 47.8181 81.8085 41.947C85.1335 36.0759 89.6732 31.6481 94.3063 29.2257C98.9436 26.8011 103.622 26.4069 107.296 28.4875C110.97 30.5682 113.038 34.7831 113.343 40.0072C113.649 45.2264 112.186 51.3969 108.861 57.268Z" fill="white" stroke="#08153D" stroke-width="0.797175"/>
<path d="M105.748 51.9898C106.017 51.5113 106.172 51.021 106.126 50.5732C106.118 50.1294 105.886 49.7573 105.567 49.4397C105.249 49.122 104.782 48.8839 104.219 48.7625C105.299 48.5575 106.355 48.1287 107.302 47.5303C108.225 46.9611 108.939 46.2437 109.338 45.5571C111.047 43.0754 109.008 41.979 105.789 41.3618L108.57 37.9783L105.923 37.6733L103.214 40.9693C102.527 40.8984 101.802 40.8235 101.077 40.7486L103.81 37.4235L101.162 37.1185L98.3813 40.502C97.8088 40.4429 97.2363 40.3838 96.7021 40.3286L93.0624 39.9212L91.2643 42.1088C91.2643 42.1088 93.2728 42.2845 93.2106 42.3097C93.5781 42.316 93.8878 42.443 94.0351 42.6164C94.1584 42.819 94.1574 43.072 93.994 43.3716L86.332 52.6432C86.2601 52.7307 86.15 52.8142 86.0399 52.8978C85.9299 52.9814 85.7816 53.061 85.6192 53.1075C85.4949 53.158 85.3325 53.2045 85.194 53.2218C85.0555 53.2392 84.941 53.2273 84.7884 53.2116C84.8026 53.2447 82.8421 53.0106 82.8421 53.0106L80.294 55.4056L83.7428 55.7933C84.3916 55.8603 85.0164 55.9565 85.627 56.0195L82.8221 59.4322L85.4695 59.7372L88.2505 56.3537C88.9516 56.4577 89.6385 56.5287 90.3636 56.6035L87.6066 59.9579L90.2541 60.2629L93.059 56.8502C97.7061 57.1401 101.531 56.6174 104.574 53.4191C105.009 52.9895 105.455 52.4975 105.748 51.9898ZM99.1249 43.1736C100.613 43.3272 105.609 43.495 103.619 45.916C101.701 48.2494 97.233 47.44 95.7064 47.2824L99.1249 43.1736ZM90.2643 53.9036L94.0185 49.3864C95.8121 49.5716 101.786 49.8087 99.6045 52.463C97.4566 55.0259 92.0961 54.0927 90.2643 53.9036Z" fill="#141414"/>
<path d="M105.579 62.7299L109.712 65.7618" stroke="#08153D" stroke-width="0.558022"/>
<path d="M104.099 64.3848L108.127 67.3948" stroke="#08153D" stroke-width="0.558022"/>
</svg>
