<svg width="138" height="160" viewBox="0 0 138 160" fill="none" xmlns="http://www.w3.org/2000/svg">
<rect x="0.4995" width="64.0219" height="64.0219" rx="6.6329" transform="matrix(0.866025 -0.5 0.866025 0.5 11.2554 117.56)" fill="#141414" stroke="#0962FF" stroke-width="0.576774"/>
<rect x="0.4995" width="64.0219" height="64.0219" rx="6.6329" transform="matrix(0.866025 -0.5 0.866025 0.5 11.2554 111.216)" fill="#86B2FF" stroke="#0962FF" stroke-width="0.576774"/>
<rect opacity="0.5" width="46.6402" height="46.6402" rx="23.3201" transform="matrix(0.866025 -0.5 0.866025 0.5 26.7412 108.7)" fill="white"/>
<path d="M14.9541 117.012V110.943C14.9541 111.616 15.5886 113.308 18.1264 114.692C20.6642 116.076 21.4909 116.614 21.587 116.711V122.94L16.396 119.883C16.1255 119.68 15.6362 119.22 15.2895 118.644C14.9977 118.159 14.9541 117.578 14.9541 117.012Z" fill="#0962FF" stroke="#0962FF" stroke-width="0.576774"/>
<path d="M119.177 110.943V117.576" stroke="#0962FF" stroke-width="0.576774"/>
<path d="M60.8076 139.493V145.549" stroke="#0962FF" stroke-width="0.576774"/>
<path d="M73.4961 139.205V145.549" stroke="#0962FF" stroke-width="0.576774"/>
<path d="M115.313 117.604V115.268C115.313 115.268 116.833 114.541 117.62 113.827C118.276 113.231 118.971 111.965 119.237 111.453C119.266 111.399 119.35 111.42 119.35 111.481V116.572C119.35 117.426 119.259 118.316 118.773 119.018C118.154 119.913 117.146 120.445 116.203 120.989L84.167 139.493L113.131 121.525C114.488 120.683 115.313 119.2 115.313 117.604Z" fill="#0962FF" stroke="#0962FF" stroke-width="0.576774"/>
<path d="M25.9131 125.478V119.421L30.5273 122.305V128.073L25.9131 125.478Z" fill="#0962FF" stroke="#0962FF" stroke-width="0.576774"/>
<g clip-path="url(#clip0_1237_7784)">
<path opacity="0.25" d="M39.0969 87.891C50.7002 81.1915 73.6435 83.627 90.3381 93.3299C103.268 100.841 108.658 110.513 105.052 117.603L107.577 119.061C107.728 119.148 107.853 119.273 107.94 119.423C108.027 119.574 108.072 119.745 108.072 119.919C108.072 120.093 108.027 120.264 107.94 120.414C107.853 120.565 107.728 120.69 107.577 120.777L95.847 127.557C95.3413 127.849 94.7677 128.002 94.1838 128.002C93.5998 128.002 93.0262 127.849 92.5205 127.557L90.1539 126.193C77.9013 128.251 61.2407 125.099 48.3182 117.59C31.6268 107.885 27.4925 94.5873 39.0969 87.891Z" fill="#141414"/>
<path d="M69.9133 104.608C69.9061 105.851 70.718 107.094 72.3499 108.043C75.6126 109.939 80.9199 109.938 84.2043 108.043C85.8506 107.094 86.6737 105.852 86.6737 104.609C86.6737 109.465 82.6609 119.455 82.6609 119.455C82.3913 120.108 81.8151 120.73 80.9312 121.24C78.398 122.702 74.3048 122.703 71.7881 121.24C70.5297 120.509 69.9041 119.55 69.9092 118.591V104.608H69.9133Z" fill="#0962FF"/>
<path d="M72.3875 101.175C75.6718 99.2783 80.9791 99.2793 84.2429 101.175C85.8738 102.123 86.6856 103.365 86.6784 104.607C86.6712 105.849 85.846 107.092 84.209 108.041C80.9246 109.937 75.6173 109.938 72.3545 108.041C70.7226 107.092 69.9108 105.849 69.918 104.606C69.9252 103.363 70.7453 102.123 72.3875 101.175Z" fill="#86B2FF"/>
<path d="M86.6745 104.608C86.6673 105.851 85.8421 107.093 84.2051 108.042C80.9207 109.938 75.6134 109.939 72.3506 108.042C70.7187 107.093 69.9069 105.85 69.9141 104.607V112.976C74.1955 114.431 79.9205 114.682 84.7134 113.727C85.7032 110.648 86.6797 107.003 86.6797 104.607L86.6745 104.608Z" fill="#141414"/>
<path d="M87.9426 94.1953C87.9354 95.4383 88.7473 96.6812 90.3792 97.6299C93.6419 99.5262 98.9492 99.5252 102.234 97.6299C103.88 96.6812 104.703 95.4393 104.703 94.1963C104.703 99.0519 100.69 109.042 100.69 109.042C100.421 109.695 99.8444 110.317 98.9605 110.827C96.4273 112.289 92.3341 112.29 89.8174 110.827C88.559 110.097 87.9334 109.138 87.9385 108.179V94.1953H87.9426Z" fill="#141414"/>
<path d="M90.4168 90.7618C93.7011 88.8654 99.0084 88.8665 102.272 90.7618C103.903 91.7094 104.715 92.9524 104.708 94.1943C104.701 95.4362 103.875 96.6792 102.238 97.6279C98.9539 99.5242 93.6466 99.5252 90.3838 97.6279C88.7519 96.6792 87.9401 95.4362 87.9473 94.1933C87.9545 92.9503 88.7746 91.7094 90.4168 90.7618Z" fill="#86B2FF"/>
<path d="M37.9024 86.1099C37.8952 87.3529 38.707 88.5958 40.3389 89.5445C43.6017 91.4398 48.909 91.4398 52.1933 89.5445C53.8396 88.5958 54.6628 87.3539 54.6679 86.111C54.6679 90.9665 50.6551 100.956 50.6551 100.956C50.3855 101.61 49.8093 102.231 48.9254 102.742C46.3922 104.204 42.2991 104.205 39.7823 102.742C38.5239 102.011 37.8983 101.052 37.9034 100.093V86.1099H37.9024Z" fill="#0962FF"/>
<path d="M40.3799 82.6763C43.6643 80.78 48.9716 80.781 52.2354 82.6763C53.8662 83.624 54.6781 84.8669 54.6709 86.1089C54.6637 87.3508 53.8385 88.5938 52.1963 89.5424C48.9119 91.4388 43.6046 91.4388 40.3419 89.5424C38.71 88.5938 37.8981 87.3508 37.9053 86.1078C37.9125 84.8649 38.7377 83.624 40.3799 82.6763Z" fill="#86B2FF"/>
<path d="M54.6748 86.1099C54.6748 88.5382 53.6716 92.2485 52.6684 95.3539C51.6652 98.4592 50.662 100.958 50.662 100.958C50.3924 101.613 49.8172 102.232 48.9334 102.743C48.6682 102.895 48.3932 103.029 48.1102 103.144V102.944C48.1103 102.281 47.9439 101.628 47.6262 101.046C47.3086 100.463 46.8499 99.9698 46.2921 99.6106C45.8486 99.3245 45.3928 99.0292 45.0121 98.7761C42.5025 97.1154 39.677 95.0009 37.9072 92.5685V86.1304C37.9072 87.3652 38.7191 88.5999 40.3438 89.5475C43.6065 91.4429 48.9138 91.4429 52.1982 89.5475C53.8383 88.5948 54.6635 87.3528 54.6748 86.1099Z" fill="#141414"/>
<path d="M55.9338 75.697C55.9266 76.9399 56.7385 78.1829 58.3704 79.1305C61.6331 81.0269 66.9404 81.0269 70.2248 79.1305C71.8711 78.1818 72.6942 76.9399 72.6942 75.697C72.6942 80.5525 68.6814 90.5425 68.6814 90.5425C68.4118 91.1959 67.8356 91.8173 66.9517 92.3267C64.4185 93.7898 60.3254 93.7908 57.8086 92.3267C56.5502 91.5951 55.9246 90.6371 55.9297 89.6782V75.697H55.9338Z" fill="#141414"/>
<path d="M58.409 72.2635C61.6933 70.3671 67.0006 70.3682 70.2644 72.2635C71.8953 73.2111 72.7071 74.4541 72.6999 75.696C72.6927 76.9379 71.8675 78.1809 70.2305 79.1296C66.9461 81.0259 61.6388 81.0259 58.376 79.1296C56.7441 78.1819 55.9323 76.939 55.9395 75.696C55.9467 74.4531 56.7668 73.2111 58.409 72.2635Z" fill="#86B2FF"/>
<path d="M48.0747 43.8843C40.9647 42.1351 44.5968 36.8402 43.4763 35.9996C42.3558 35.1589 39.5489 38.006 40.4574 50.0435L48.0747 43.8843Z" fill="white"/>
<path d="M40.4561 50.0426L42.9101 48.0588C40.2461 40.1853 42.9502 35.873 42.9502 35.873C41.6702 36.0871 39.673 39.6194 40.4561 50.0426Z" fill="#0962FF"/>
<path d="M49.6949 101.12C39.2862 95.4372 32.2256 84.3926 32.2256 71.6924C32.2256 53.1921 47.2234 38.1933 65.7238 38.1933C71.5705 38.1838 77.3169 39.7121 82.3864 42.6249L82.3977 42.6311L96.025 50.4984C106.097 56.2758 112.883 67.1342 112.883 79.5782C112.883 98.0795 97.8843 113.077 79.384 113.077C73.801 113.086 68.3052 111.692 63.4004 109.025L63.3551 108.999C62.8846 108.743 62.4215 108.476 61.9661 108.197L49.6949 101.12Z" fill="#86B2FF"/>
<path opacity="0.5" d="M96.0272 50.5056L82.3999 42.6383L82.3886 42.6321C77.319 39.7193 71.5726 38.191 65.7259 38.2005C51.0604 38.2005 38.5969 47.6256 34.0592 60.7476C33.0077 67.5386 36.005 74.2051 37.3611 76.0901C42.9071 83.7979 50.4986 89.5229 59.3393 92.9863C68.1799 96.4497 75.9114 99.6579 86.6813 99.7547C94.5867 99.8257 106.231 97.7688 111.362 89.6073C112.376 86.364 112.89 82.9854 112.887 79.5875C112.885 67.1414 106.099 56.283 96.0272 50.5056Z" fill="white"/>
<path d="M47.0375 94.4196L62.5004 103.348C67.9538 106.053 73.9978 108.042 84.4446 108.042C92.0104 108.042 99.1101 104.362 105.25 100.875C100.305 106.88 93.4254 110.977 85.7905 112.465C78.1557 113.954 70.241 112.74 63.4028 109.033L63.3575 109.006C62.887 108.75 62.4239 108.483 61.9685 108.204L49.6953 101.119C45.4875 98.8232 41.8206 95.6522 38.9417 91.8196C36.0628 87.987 34.0387 83.582 33.0059 78.9012C36.6905 84.0006 41.4833 91.3894 47.0375 94.4196Z" fill="#0962FF"/>
<path d="M102.999 93.2816C100.69 94.6193 98.8239 97.8491 98.8311 100.502L98.8445 105.263C98.8517 107.916 100.731 108.985 103.04 107.652L111.315 102.874C113.626 101.537 115.492 98.309 115.484 95.6554L115.471 90.8955C115.463 88.2419 113.585 87.1698 111.275 88.5043L102.999 93.2816Z" fill="#86B2FF"/>
<path d="M103.206 96.3283C102.471 96.7533 101.877 97.7812 101.88 98.6259L101.904 103.634C101.904 104.479 102.503 104.819 103.241 104.395C103.979 103.971 104.57 102.942 104.567 102.097L104.548 97.0835C104.539 96.2408 103.942 95.9003 103.206 96.3283Z" fill="#141414"/>
<path d="M111.081 91.7784C110.348 92.2023 109.752 93.2302 109.755 94.076L109.773 99.089C109.773 99.9338 110.374 100.273 111.111 99.8494C111.848 99.4255 112.441 98.3965 112.438 97.5518L112.42 92.5388C112.416 91.6981 111.817 91.3534 111.081 91.7784Z" fill="#141414"/>
<mask id="path-30-inside-1_1237_7784" fill="white">
<path d="M93.9506 97.4756C93.9506 97.4087 93.9506 97.3418 93.9598 97.2698C93.9598 97.2389 93.9598 97.208 93.9681 97.1772V97.137C93.9681 97.1134 93.9681 97.0897 93.9681 97.066C93.9753 96.9981 93.9825 96.9302 93.9907 96.8603C93.9989 96.7903 94.0103 96.7214 94.0205 96.6545C94.021 96.6524 94.021 96.6503 94.0205 96.6483C94.0205 96.6483 94.0205 96.6483 94.0205 96.6411C94.0308 96.5725 94.0421 96.5066 94.0545 96.4435C94.0679 96.3705 94.0833 96.2985 94.0987 96.2254C94.0987 96.1997 94.1111 96.174 94.1162 96.1482C94.1214 96.1225 94.1234 96.1174 94.1276 96.1019C94.1348 96.07 94.142 96.0381 94.1502 96.0062C94.1677 95.9322 94.1872 95.8581 94.2078 95.784L94.2551 95.6224L94.2644 95.5926C94.2644 95.5833 94.2695 95.5731 94.2726 95.5638C94.2942 95.4918 94.3179 95.4197 94.3416 95.3477C94.3652 95.2757 94.391 95.2047 94.4167 95.1337C94.4167 95.1203 94.4259 95.108 94.4311 95.0946L94.4434 95.0627L94.4928 94.9289C94.5196 94.861 94.5463 94.7931 94.5751 94.7232C94.5947 94.6738 94.6163 94.6203 94.6379 94.577C94.6409 94.5686 94.6443 94.5604 94.6482 94.5523L94.6605 94.5235C94.6904 94.4556 94.7212 94.3887 94.7521 94.3177C94.783 94.2468 94.8221 94.1696 94.855 94.0965C94.855 94.0852 94.8663 94.0749 94.8725 94.0636L94.8941 94.0204C94.924 93.9617 94.9538 93.9031 94.9847 93.8455C95.0155 93.7878 95.0649 93.7024 95.1051 93.6315C95.1256 93.5944 95.1452 93.5574 95.1668 93.5213L95.1904 93.4781C95.2275 93.4154 95.2676 93.3557 95.3057 93.295C95.3613 93.2044 95.4158 93.1149 95.4744 93.0264C95.4837 93.0131 95.4919 92.9976 95.5012 92.9842C95.5862 92.8567 95.674 92.7315 95.7646 92.6087C95.8253 92.5264 95.8881 92.4451 95.9508 92.3648C96.0023 92.3 96.0537 92.2362 96.1062 92.1724C96.1587 92.1086 96.2091 92.0459 96.2677 91.9831C96.3264 91.9203 96.3706 91.8617 96.4303 91.803L96.4571 91.7742L96.4859 91.7454C96.524 91.7042 96.562 91.6631 96.6011 91.624C96.6598 91.5643 96.7184 91.5067 96.7781 91.4491L96.8326 91.3976L96.8738 91.3595L96.9612 91.2783C97.023 91.2227 97.0847 91.1692 97.1475 91.1157L97.2298 91.0488L97.272 91.0149L97.3337 90.9644C97.3944 90.9161 97.4551 90.8698 97.5169 90.8245C97.5611 90.7916 97.6064 90.7607 97.6506 90.7288L97.6753 90.7113L97.699 90.6949C97.7577 90.6547 97.8163 90.6156 97.876 90.5776C97.9357 90.5395 97.9943 90.5045 98.053 90.4747L98.0941 90.451L106.37 85.6726L106.503 85.5985L106.553 85.5728L106.621 85.5368L106.674 85.51L106.758 85.4699L106.819 85.4411L106.843 85.4298C106.899 85.4051 106.954 85.3814 107.009 85.3598C107.065 85.3372 107.121 85.3156 107.177 85.296L107.198 85.2888L107.259 85.2693C107.287 85.26 107.315 85.2497 107.344 85.2415L107.385 85.2302L107.46 85.2096C107.479 85.2096 107.498 85.1983 107.517 85.1942L107.576 85.1808L107.649 85.1643L107.688 85.1561C107.712 85.1561 107.734 85.1489 107.757 85.1448L107.841 85.1304H107.871L107.941 85.1232L108.031 85.1149H108.057H108.118C108.153 85.1149 108.189 85.1149 108.221 85.1149H108.251H108.296C108.34 85.1149 108.385 85.1149 108.428 85.1211C108.441 85.1211 108.455 85.1211 108.468 85.1211C108.477 85.1206 108.486 85.1206 108.496 85.1211C108.563 85.1273 108.628 85.1365 108.692 85.1489H108.709C108.799 85.1679 108.887 85.1923 108.974 85.2219L108.998 85.2291L109.015 85.2363C109.053 85.2497 109.089 85.2652 109.126 85.2816L109.18 85.3043C109.233 85.3289 109.284 85.3557 109.334 85.3845L114.217 88.2223C114.166 88.1926 114.114 88.1655 114.06 88.141L114.007 88.1174C113.971 88.1019 113.934 88.0865 113.897 88.0731L113.854 88.0587C113.767 88.029 113.679 88.0046 113.589 87.9857H113.569C113.506 87.9733 113.44 87.9641 113.373 87.9569L113.305 87.9507C113.262 87.9507 113.217 87.9507 113.173 87.9445H113.098H112.995H112.908L112.818 87.9538L112.715 87.9661L112.631 87.9795L112.528 88.0001L112.454 88.0165C112.416 88.0248 112.377 88.0351 112.338 88.0453L112.265 88.0659C112.222 88.0772 112.179 88.0906 112.137 88.105L112.076 88.1246C112.014 88.1462 111.951 88.1698 111.887 88.1945C111.824 88.2192 111.761 88.247 111.697 88.2758L111.636 88.3046C111.591 88.3262 111.545 88.3479 111.499 88.3715L111.431 88.4065C111.371 88.4394 111.309 88.4713 111.248 88.5094L102.972 93.2867C102.831 93.3691 102.691 93.4579 102.554 93.5533L102.529 93.5707C102.401 93.6599 102.275 93.7553 102.15 93.8568L102.108 93.8907C101.987 93.9895 101.869 94.0924 101.752 94.1994L101.711 94.2375C101.593 94.3486 101.477 94.4649 101.364 94.5843L101.335 94.6141C101.215 94.7437 101.097 94.8765 100.982 95.0143C100.865 95.1553 100.751 95.3014 100.641 95.4506C100.538 95.5864 100.444 95.7264 100.351 95.8684C100.292 95.9558 100.237 96.0464 100.183 96.1359C100.128 96.2254 100.087 96.2861 100.043 96.3633C100.021 96.3993 100.002 96.4363 99.9812 96.4724C99.9092 96.601 99.8382 96.7306 99.7754 96.8623C99.7672 96.8767 99.76 96.8911 99.7528 96.9055C99.6725 97.0647 99.5964 97.2259 99.5243 97.3891L99.5141 97.4149C99.4441 97.5743 99.3793 97.7359 99.3196 97.8974L99.3072 97.9293C99.2465 98.094 99.191 98.2606 99.1406 98.4263L99.1313 98.4572C99.084 98.6166 99.0407 98.7772 99.0037 98.9367C99.0037 98.9521 98.9965 98.9675 98.9934 98.9819C98.9553 99.1476 98.9224 99.3122 98.8967 99.4748C98.8962 99.4775 98.8962 99.4803 98.8967 99.483C98.8699 99.6477 98.8504 99.8123 98.837 99.9748V100.015C98.8236 100.178 98.8164 100.339 98.8175 100.498L98.8308 105.258C98.8308 105.337 98.8308 105.413 98.837 105.488V105.551C98.837 105.602 98.8442 105.654 98.8483 105.704L98.8576 105.79C98.8617 105.834 98.8669 105.876 98.873 105.917C98.873 105.948 98.8813 105.979 98.8864 106.009C98.8915 106.038 98.8987 106.085 98.9059 106.122C98.9132 106.159 98.9183 106.189 98.9255 106.225C98.9327 106.261 98.9409 106.293 98.9492 106.328C98.9574 106.363 98.9677 106.404 98.978 106.442L99.0037 106.529C99.0181 106.574 99.0325 106.618 99.0479 106.662L99.0726 106.732C99.1004 106.805 99.1303 106.876 99.1622 106.944C99.1655 106.951 99.1693 106.958 99.1735 106.965C99.2157 107.054 99.2631 107.14 99.3155 107.223L99.3268 107.242C99.37 107.309 99.4153 107.372 99.4626 107.432L99.4976 107.475C99.5439 107.53 99.5912 107.578 99.6416 107.633L99.653 107.645C99.7065 107.696 99.7631 107.747 99.8207 107.79L99.8639 107.822C99.9224 107.866 99.9836 107.908 100.047 107.945L95.1647 105.107C95.1015 105.07 95.0404 105.029 94.9816 104.985L94.9384 104.952C94.8798 104.907 94.8238 104.858 94.7706 104.807L94.7593 104.795C94.7087 104.745 94.6606 104.692 94.6153 104.637C94.604 104.623 94.5916 104.609 94.5803 104.594C94.5329 104.534 94.4877 104.471 94.4445 104.405V104.399C94.4415 104.395 94.439 104.39 94.4373 104.385C94.3849 104.302 94.3372 104.216 94.2942 104.128C94.2942 104.128 94.2891 104.118 94.287 104.113V104.107C94.2555 104.038 94.2256 103.967 94.1975 103.894C94.1975 103.888 94.1975 103.883 94.1903 103.876C94.1831 103.868 94.179 103.841 94.1728 103.824C94.1574 103.781 94.142 103.737 94.1286 103.691C94.1286 103.679 94.1203 103.668 94.1173 103.656C94.1142 103.645 94.108 103.62 94.1029 103.604C94.0926 103.566 94.0833 103.528 94.073 103.49C94.073 103.473 94.0648 103.459 94.0617 103.442C94.0586 103.426 94.0545 103.407 94.0504 103.39C94.0463 103.372 94.037 103.323 94.0308 103.287C94.0308 103.271 94.0236 103.253 94.0205 103.236C94.0175 103.218 94.0144 103.194 94.0113 103.174C94.0082 103.153 94.002 103.113 93.9969 103.083L93.9907 103.036C93.9907 103.01 93.9845 102.982 93.9825 102.956C93.9804 102.929 93.9753 102.899 93.9732 102.87C93.9732 102.858 93.9732 102.847 93.9732 102.835C93.9732 102.796 93.9732 102.756 93.966 102.716C93.966 102.695 93.966 102.675 93.966 102.653C93.9655 102.648 93.9655 102.643 93.966 102.638C93.966 102.572 93.966 102.504 93.966 102.432V102.42L93.9526 97.6597C93.9485 97.6021 93.9485 97.5394 93.9506 97.4756Z"/>
</mask>
<path d="M93.9506 97.4756C93.9506 97.4087 93.9506 97.3418 93.9598 97.2698C93.9598 97.2389 93.9598 97.208 93.9681 97.1772V97.137C93.9681 97.1134 93.9681 97.0897 93.9681 97.066C93.9753 96.9981 93.9825 96.9302 93.9907 96.8603C93.9989 96.7903 94.0103 96.7214 94.0205 96.6545C94.021 96.6524 94.021 96.6503 94.0205 96.6483C94.0205 96.6483 94.0205 96.6483 94.0205 96.6411C94.0308 96.5725 94.0421 96.5066 94.0545 96.4435C94.0679 96.3705 94.0833 96.2985 94.0987 96.2254C94.0987 96.1997 94.1111 96.174 94.1162 96.1482C94.1214 96.1225 94.1234 96.1174 94.1276 96.1019C94.1348 96.07 94.142 96.0381 94.1502 96.0062C94.1677 95.9322 94.1872 95.8581 94.2078 95.784L94.2551 95.6224L94.2644 95.5926C94.2644 95.5833 94.2695 95.5731 94.2726 95.5638C94.2942 95.4918 94.3179 95.4197 94.3416 95.3477C94.3652 95.2757 94.391 95.2047 94.4167 95.1337C94.4167 95.1203 94.4259 95.108 94.4311 95.0946L94.4434 95.0627L94.4928 94.9289C94.5196 94.861 94.5463 94.7931 94.5751 94.7232C94.5947 94.6738 94.6163 94.6203 94.6379 94.577C94.6409 94.5686 94.6443 94.5604 94.6482 94.5523L94.6605 94.5235C94.6904 94.4556 94.7212 94.3887 94.7521 94.3177C94.783 94.2468 94.8221 94.1696 94.855 94.0965C94.855 94.0852 94.8663 94.0749 94.8725 94.0636L94.8941 94.0204C94.924 93.9617 94.9538 93.9031 94.9847 93.8455C95.0155 93.7878 95.0649 93.7024 95.1051 93.6315C95.1256 93.5944 95.1452 93.5574 95.1668 93.5213L95.1904 93.4781C95.2275 93.4154 95.2676 93.3557 95.3057 93.295C95.3613 93.2044 95.4158 93.1149 95.4744 93.0264C95.4837 93.0131 95.4919 92.9976 95.5012 92.9842C95.5862 92.8567 95.674 92.7315 95.7646 92.6087C95.8253 92.5264 95.8881 92.4451 95.9508 92.3648C96.0023 92.3 96.0537 92.2362 96.1062 92.1724C96.1587 92.1086 96.2091 92.0459 96.2677 91.9831C96.3264 91.9203 96.3706 91.8617 96.4303 91.803L96.4571 91.7742L96.4859 91.7454C96.524 91.7042 96.562 91.6631 96.6011 91.624C96.6598 91.5643 96.7184 91.5067 96.7781 91.4491L96.8326 91.3976L96.8738 91.3595L96.9612 91.2783C97.023 91.2227 97.0847 91.1692 97.1475 91.1157L97.2298 91.0488L97.272 91.0149L97.3337 90.9644C97.3944 90.9161 97.4551 90.8698 97.5169 90.8245C97.5611 90.7916 97.6064 90.7607 97.6506 90.7288L97.6753 90.7113L97.699 90.6949C97.7577 90.6547 97.8163 90.6156 97.876 90.5776C97.9357 90.5395 97.9943 90.5045 98.053 90.4747L98.0941 90.451L106.37 85.6726L106.503 85.5985L106.553 85.5728L106.621 85.5368L106.674 85.51L106.758 85.4699L106.819 85.4411L106.843 85.4298C106.899 85.4051 106.954 85.3814 107.009 85.3598C107.065 85.3372 107.121 85.3156 107.177 85.296L107.198 85.2888L107.259 85.2693C107.287 85.26 107.315 85.2497 107.344 85.2415L107.385 85.2302L107.46 85.2096C107.479 85.2096 107.498 85.1983 107.517 85.1942L107.576 85.1808L107.649 85.1643L107.688 85.1561C107.712 85.1561 107.734 85.1489 107.757 85.1448L107.841 85.1304H107.871L107.941 85.1232L108.031 85.1149H108.057H108.118C108.153 85.1149 108.189 85.1149 108.221 85.1149H108.251H108.296C108.34 85.1149 108.385 85.1149 108.428 85.1211C108.441 85.1211 108.455 85.1211 108.468 85.1211C108.477 85.1206 108.486 85.1206 108.496 85.1211C108.563 85.1273 108.628 85.1365 108.692 85.1489H108.709C108.799 85.1679 108.887 85.1923 108.974 85.2219L108.998 85.2291L109.015 85.2363C109.053 85.2497 109.089 85.2652 109.126 85.2816L109.18 85.3043C109.233 85.3289 109.284 85.3557 109.334 85.3845L114.217 88.2223C114.166 88.1926 114.114 88.1655 114.06 88.141L114.007 88.1174C113.971 88.1019 113.934 88.0865 113.897 88.0731L113.854 88.0587C113.767 88.029 113.679 88.0046 113.589 87.9857H113.569C113.506 87.9733 113.44 87.9641 113.373 87.9569L113.305 87.9507C113.262 87.9507 113.217 87.9507 113.173 87.9445H113.098H112.995H112.908L112.818 87.9538L112.715 87.9661L112.631 87.9795L112.528 88.0001L112.454 88.0165C112.416 88.0248 112.377 88.0351 112.338 88.0453L112.265 88.0659C112.222 88.0772 112.179 88.0906 112.137 88.105L112.076 88.1246C112.014 88.1462 111.951 88.1698 111.887 88.1945C111.824 88.2192 111.761 88.247 111.697 88.2758L111.636 88.3046C111.591 88.3262 111.545 88.3479 111.499 88.3715L111.431 88.4065C111.371 88.4394 111.309 88.4713 111.248 88.5094L102.972 93.2867C102.831 93.3691 102.691 93.4579 102.554 93.5533L102.529 93.5707C102.401 93.6599 102.275 93.7553 102.15 93.8568L102.108 93.8907C101.987 93.9895 101.869 94.0924 101.752 94.1994L101.711 94.2375C101.593 94.3486 101.477 94.4649 101.364 94.5843L101.335 94.6141C101.215 94.7437 101.097 94.8765 100.982 95.0143C100.865 95.1553 100.751 95.3014 100.641 95.4506C100.538 95.5864 100.444 95.7264 100.351 95.8684C100.292 95.9558 100.237 96.0464 100.183 96.1359C100.128 96.2254 100.087 96.2861 100.043 96.3633C100.021 96.3993 100.002 96.4363 99.9812 96.4724C99.9092 96.601 99.8382 96.7306 99.7754 96.8623C99.7672 96.8767 99.76 96.8911 99.7528 96.9055C99.6725 97.0647 99.5964 97.2259 99.5243 97.3891L99.5141 97.4149C99.4441 97.5743 99.3793 97.7359 99.3196 97.8974L99.3072 97.9293C99.2465 98.094 99.191 98.2606 99.1406 98.4263L99.1313 98.4572C99.084 98.6166 99.0407 98.7772 99.0037 98.9367C99.0037 98.9521 98.9965 98.9675 98.9934 98.9819C98.9553 99.1476 98.9224 99.3122 98.8967 99.4748C98.8962 99.4775 98.8962 99.4803 98.8967 99.483C98.8699 99.6477 98.8504 99.8123 98.837 99.9748V100.015C98.8236 100.178 98.8164 100.339 98.8175 100.498L98.8308 105.258C98.8308 105.337 98.8308 105.413 98.837 105.488V105.551C98.837 105.602 98.8442 105.654 98.8483 105.704L98.8576 105.79C98.8617 105.834 98.8669 105.876 98.873 105.917C98.873 105.948 98.8813 105.979 98.8864 106.009C98.8915 106.038 98.8987 106.085 98.9059 106.122C98.9132 106.159 98.9183 106.189 98.9255 106.225C98.9327 106.261 98.9409 106.293 98.9492 106.328C98.9574 106.363 98.9677 106.404 98.978 106.442L99.0037 106.529C99.0181 106.574 99.0325 106.618 99.0479 106.662L99.0726 106.732C99.1004 106.805 99.1303 106.876 99.1622 106.944C99.1655 106.951 99.1693 106.958 99.1735 106.965C99.2157 107.054 99.2631 107.14 99.3155 107.223L99.3268 107.242C99.37 107.309 99.4153 107.372 99.4626 107.432L99.4976 107.475C99.5439 107.53 99.5912 107.578 99.6416 107.633L99.653 107.645C99.7065 107.696 99.7631 107.747 99.8207 107.79L99.8639 107.822C99.9224 107.866 99.9836 107.908 100.047 107.945L95.1647 105.107C95.1015 105.07 95.0404 105.029 94.9816 104.985L94.9384 104.952C94.8798 104.907 94.8238 104.858 94.7706 104.807L94.7593 104.795C94.7087 104.745 94.6606 104.692 94.6153 104.637C94.604 104.623 94.5916 104.609 94.5803 104.594C94.5329 104.534 94.4877 104.471 94.4445 104.405V104.399C94.4415 104.395 94.439 104.39 94.4373 104.385C94.3849 104.302 94.3372 104.216 94.2942 104.128C94.2942 104.128 94.2891 104.118 94.287 104.113V104.107C94.2555 104.038 94.2256 103.967 94.1975 103.894C94.1975 103.888 94.1975 103.883 94.1903 103.876C94.1831 103.868 94.179 103.841 94.1728 103.824C94.1574 103.781 94.142 103.737 94.1286 103.691C94.1286 103.679 94.1203 103.668 94.1173 103.656C94.1142 103.645 94.108 103.62 94.1029 103.604C94.0926 103.566 94.0833 103.528 94.073 103.49C94.073 103.473 94.0648 103.459 94.0617 103.442C94.0586 103.426 94.0545 103.407 94.0504 103.39C94.0463 103.372 94.037 103.323 94.0308 103.287C94.0308 103.271 94.0236 103.253 94.0205 103.236C94.0175 103.218 94.0144 103.194 94.0113 103.174C94.0082 103.153 94.002 103.113 93.9969 103.083L93.9907 103.036C93.9907 103.01 93.9845 102.982 93.9825 102.956C93.9804 102.929 93.9753 102.899 93.9732 102.87C93.9732 102.858 93.9732 102.847 93.9732 102.835C93.9732 102.796 93.9732 102.756 93.966 102.716C93.966 102.695 93.966 102.675 93.966 102.653C93.9655 102.648 93.9655 102.643 93.966 102.638C93.966 102.572 93.966 102.504 93.966 102.432V102.42L93.9526 97.6597C93.9485 97.6021 93.9485 97.5394 93.9506 97.4756Z" fill="#86B2FF" stroke="#141414" stroke-width="0.72418" mask="url(#path-30-inside-1_1237_7784)"/>
<path d="M94.1131 103.662C94.1115 103.656 94.1095 103.651 94.1076 103.645C94.1031 103.633 94.0987 103.621 94.0987 103.609C94.0935 103.59 94.0886 103.571 94.0838 103.552C94.0789 103.533 94.074 103.514 94.0688 103.495C94.0669 103.484 94.0645 103.475 94.062 103.465C94.0605 103.46 94.059 103.454 94.0575 103.447L94.0575 103.447C94.0534 103.43 94.0534 103.43 94.0462 103.395C94.039 103.36 94.0328 103.326 94.0266 103.292L94.1131 103.662ZM94.1131 103.662C94.1169 103.674 94.119 103.681 94.1215 103.688M94.1131 103.662L94.1215 103.688M94.1215 103.688C94.1224 103.69 94.1233 103.693 94.1244 103.696L94.1215 103.688ZM94.1429 102.425H94.1429L94.1429 102.423L94.1287 101.05L98.6456 103.675V105.264C98.6456 105.307 98.6473 105.349 98.6488 105.386L98.6488 105.387C98.6504 105.426 98.6518 105.46 98.6518 105.493V105.556H98.6514L98.6521 105.567C98.6535 105.59 98.6559 105.614 98.6579 105.634C98.6584 105.64 98.659 105.645 98.6594 105.65C98.6618 105.674 98.6631 105.693 98.6631 105.709V105.719L98.6641 105.728L98.6733 105.814C98.6774 105.856 98.684 105.906 98.6881 105.937C98.6886 105.94 98.689 105.943 98.6894 105.946C98.6936 105.978 98.6969 106.002 98.7035 106.043C98.7066 106.062 98.7112 106.088 98.7154 106.112C98.7185 106.129 98.7213 106.145 98.7232 106.157C98.7291 106.192 98.7351 106.222 98.7411 106.252C98.742 106.256 98.7429 106.261 98.7438 106.265C98.751 106.302 98.7584 106.332 98.7663 106.364C98.7672 106.368 98.7681 106.372 98.7691 106.375L98.945 106.333L98.7691 106.375C98.7784 106.414 98.7902 106.461 98.7993 106.494C98.8042 106.512 98.8108 106.534 98.8165 106.554C98.82 106.565 98.8231 106.576 98.8254 106.584L98.8254 106.584L98.827 106.589C98.8419 106.636 98.8568 106.681 98.8728 106.727L98.873 106.727L98.8977 106.797L98.8977 106.797L98.8992 106.801C98.9283 106.878 98.9598 106.953 98.9936 107.025C98.9983 107.035 99.0035 107.045 99.009 107.055C99.0286 107.096 99.0492 107.136 99.0708 107.176L95.2528 104.957C95.2526 104.956 95.2524 104.956 95.2522 104.956C95.195 104.922 95.1398 104.885 95.0866 104.845C95.0864 104.845 95.0862 104.845 95.086 104.845L95.0449 104.814C95.0447 104.814 95.0446 104.813 95.0444 104.813C94.9917 104.773 94.9413 104.729 94.8933 104.683L94.8832 104.673L94.8828 104.672C94.8368 104.626 94.7932 104.579 94.7521 104.529C94.7459 104.521 94.7394 104.513 94.7349 104.508C94.734 104.507 94.7332 104.506 94.7325 104.505C94.727 104.498 94.7242 104.495 94.7221 104.492L94.7224 104.492L94.7153 104.483C94.6833 104.445 94.6519 104.403 94.6213 104.357V104.349L94.599 104.316L94.5973 104.311L94.5862 104.293C94.5418 104.223 94.501 104.15 94.4639 104.076V104.072L94.4467 104.035C94.4166 103.971 94.3887 103.905 94.3629 103.836L94.3494 103.8L94.3455 103.787C94.3438 103.782 94.3415 103.775 94.3387 103.767C94.3236 103.725 94.3098 103.685 94.298 103.645L94.2981 103.645L94.2962 103.639C94.2944 103.634 94.2932 103.63 94.2922 103.628C94.2903 103.622 94.2894 103.619 94.2868 103.61L94.1134 103.661L94.2868 103.61C94.2843 103.602 94.2816 103.594 94.2797 103.589V103.585L94.2735 103.562C94.2687 103.544 94.264 103.526 94.2591 103.507L94.259 103.506C94.2546 103.489 94.25 103.471 94.2451 103.453C94.2416 103.437 94.2365 103.417 94.2345 103.409C94.2341 103.407 94.2338 103.406 94.2337 103.406L94.0578 103.447L94.2337 103.406L94.23 103.39L94.2235 103.359C94.217 103.327 94.2113 103.296 94.2052 103.262C94.205 103.26 94.2043 103.252 94.2035 103.245C94.2017 103.231 94.1982 103.211 94.1902 103.188C94.1895 103.178 94.1881 103.163 94.1855 103.148C94.1836 103.137 94.1815 103.127 94.1798 103.119L94.1757 103.099C94.1742 103.091 94.1738 103.088 94.1737 103.087V103.077L94.1722 103.065L94.1661 103.018L94.1639 103.001L94.1613 102.993C94.1613 102.993 94.1613 102.993 94.1613 102.993L94.161 102.985L94.1606 102.974C94.1603 102.966 94.1597 102.954 94.1582 102.941C94.1552 102.913 94.1531 102.901 94.1518 102.894C94.1506 102.886 94.1501 102.883 94.1501 102.875V102.875V102.875V102.875V102.875V102.875V102.875V102.875V102.875V102.875V102.875V102.875V102.875V102.874V102.874V102.874V102.874V102.874V102.874V102.874V102.874V102.874V102.874V102.874V102.874V102.874V102.874V102.873V102.873V102.873V102.873V102.873V102.873V102.873V102.873V102.873V102.873V102.873V102.873V102.873V102.873V102.872V102.872V102.872V102.872V102.872V102.872V102.872V102.872V102.872V102.872V102.872V102.872V102.872V102.872V102.871V102.871V102.871V102.871V102.871V102.871V102.871V102.871V102.871V102.871V102.871V102.871V102.871V102.871V102.87V102.87V102.87V102.87V102.87V102.87V102.87V102.87V102.87V102.87V102.87V102.87V102.87V102.87V102.869V102.869V102.869V102.869V102.869V102.869V102.869V102.869V102.869V102.869V102.869V102.869V102.869V102.869V102.868V102.868V102.868V102.868V102.868V102.868V102.868V102.868V102.868V102.868V102.868V102.868V102.868V102.868V102.868V102.867V102.867V102.867V102.867V102.867V102.867V102.867V102.867V102.867V102.867V102.867V102.867V102.867V102.867V102.866V102.866V102.866V102.866V102.866V102.866V102.866V102.866V102.866V102.866V102.866V102.866V102.866V102.866V102.865V102.865V102.865V102.865V102.865V102.865V102.865V102.865V102.865V102.865V102.865V102.865V102.865V102.865V102.865V102.864V102.864V102.864V102.864V102.864V102.864V102.864V102.864V102.864V102.864V102.864V102.864V102.864V102.864V102.863V102.863V102.863V102.863V102.863V102.863V102.863V102.863V102.863V102.863V102.863V102.863V102.863V102.863V102.863V102.862V102.862V102.862V102.862V102.862V102.862V102.862V102.862V102.862V102.862V102.862V102.862V102.862V102.862V102.861V102.861V102.861V102.861V102.861V102.861V102.861V102.861V102.861V102.861V102.861V102.861V102.861V102.861V102.861V102.86V102.86V102.86V102.86V102.86V102.86V102.86V102.86V102.86V102.86V102.86V102.86V102.86V102.86V102.859V102.859V102.859V102.859V102.859V102.859V102.859V102.859V102.859V102.859V102.859V102.859V102.859V102.859V102.859V102.858V102.858V102.858V102.858V102.858V102.858V102.858V102.858V102.858V102.858V102.858V102.858V102.858V102.858V102.858V102.857V102.857V102.857V102.857V102.857V102.857V102.857V102.857V102.857V102.857V102.857V102.857V102.857V102.857V102.857V102.856V102.856V102.856V102.856V102.856V102.856V102.856V102.856V102.856V102.856V102.856V102.856V102.856V102.856V102.855V102.855V102.855V102.855V102.855V102.855V102.855V102.855V102.855V102.855V102.855V102.855V102.855V102.855V102.855V102.854V102.854V102.854V102.854V102.854V102.854V102.854V102.854V102.854V102.854V102.854V102.854V102.854V102.854V102.854V102.853V102.853V102.853V102.853V102.853V102.853V102.853V102.853V102.853V102.853V102.853V102.853V102.853V102.853V102.853V102.852V102.852V102.852V102.852V102.852V102.852V102.852V102.852V102.852V102.852V102.852V102.852V102.852V102.852V102.852V102.851V102.851V102.851V102.851V102.851V102.851V102.851V102.851V102.851V102.851V102.851V102.851V102.851V102.851V102.851V102.85V102.85V102.85V102.85V102.85V102.85V102.85V102.85V102.85V102.85V102.85V102.85V102.85V102.85V102.85V102.849V102.849V102.849V102.849V102.849V102.849V102.849V102.849V102.849V102.849V102.849V102.849V102.849V102.849V102.849V102.848V102.848V102.848V102.848V102.848V102.848V102.848V102.848V102.848V102.848V102.848V102.848V102.848V102.848V102.848V102.847V102.847V102.847V102.847V102.847V102.847V102.847V102.847V102.847V102.847V102.847V102.847V102.847V102.847V102.847V102.846V102.846V102.846V102.846V102.846V102.846V102.846V102.846V102.846V102.846V102.846V102.846V102.846V102.846V102.846V102.845V102.845V102.845V102.845V102.845V102.845V102.845V102.845V102.845V102.845V102.845V102.845V102.845V102.845V102.845V102.844V102.844V102.844V102.844V102.844V102.844V102.844V102.844V102.844V102.844V102.844V102.844V102.844V102.844V102.844V102.843V102.843V102.843V102.843V102.843V102.843V102.843V102.843V102.843V102.843V102.843V102.843V102.843V102.843V102.843V102.842V102.842V102.842V102.842V102.842V102.842V102.842V102.842V102.842V102.842V102.842V102.842V102.842V102.842V102.842V102.841V102.841V102.841V102.841V102.841V102.841V102.841V102.841V102.841V102.841V102.841V102.841V102.841V102.841V102.841V102.84V102.84V102.824L94.1471 102.808C94.1434 102.788 94.1429 102.764 94.1429 102.721V102.721V102.721V102.721V102.721V102.72V102.72V102.72V102.72V102.72V102.72V102.72V102.72V102.719V102.719V102.719V102.719V102.719V102.719V102.719V102.719V102.719V102.718V102.718V102.718V102.718V102.718V102.718V102.718V102.718V102.717V102.717V102.717V102.717V102.717V102.717V102.717V102.717V102.716V102.716V102.716V102.716V102.716V102.716V102.716V102.716V102.716V102.715V102.715V102.715V102.715V102.715V102.715V102.715V102.715V102.714V102.714V102.714V102.714V102.714V102.714V102.714V102.714V102.713V102.713V102.713V102.713V102.713V102.713V102.713V102.713V102.712V102.712V102.712V102.712V102.712V102.712V102.712V102.712V102.712V102.711V102.711V102.711V102.711V102.711V102.711V102.711V102.711V102.71V102.71V102.71V102.71V102.71V102.71V102.71V102.71V102.709V102.709V102.709V102.709V102.709V102.709V102.709V102.709V102.709V102.708V102.708V102.708V102.708V102.708V102.708V102.708V102.708V102.707V102.707V102.707V102.707V102.707V102.707V102.707V102.707V102.706V102.706V102.706V102.706V102.706V102.706V102.706V102.706V102.705V102.705V102.705V102.705V102.705V102.705V102.705V102.705V102.705V102.704V102.704V102.704V102.704V102.704V102.704V102.704V102.704V102.703V102.703V102.703V102.703V102.703V102.703V102.703V102.703V102.702V102.702V102.702V102.702V102.702V102.702V102.702V102.702V102.701V102.701V102.701V102.701V102.701V102.701V102.701V102.701V102.701V102.7V102.7V102.7V102.7V102.7V102.7V102.7V102.7V102.699V102.699V102.699V102.699V102.699V102.699V102.699V102.699V102.698V102.698V102.698V102.698V102.698V102.698V102.698V102.698V102.697V102.697V102.697V102.697V102.697V102.697V102.697V102.697V102.697V102.696V102.696V102.696V102.696V102.696V102.696V102.696V102.696V102.695V102.695V102.695V102.695V102.695V102.695V102.695V102.695V102.694V102.694V102.694V102.694V102.694V102.694V102.694V102.694V102.693V102.693V102.693V102.693V102.693V102.693V102.693V102.693V102.693V102.692V102.692V102.692V102.692V102.692V102.692V102.692V102.692V102.691V102.691V102.691V102.691V102.691V102.691V102.691V102.691V102.69V102.69V102.69V102.69V102.69V102.69V102.69V102.69V102.689V102.689V102.689V102.689V102.689V102.689V102.689V102.689V102.688V102.688V102.688V102.688V102.688V102.688V102.688V102.688V102.687V102.687V102.687V102.687V102.687V102.687V102.687V102.687V102.687V102.686V102.686V102.686V102.686V102.686V102.686V102.686V102.686V102.685V102.685V102.685V102.685V102.685V102.685V102.685V102.685V102.684V102.684V102.684V102.684V102.684V102.684V102.684V102.684V102.683V102.683V102.683V102.683V102.683V102.683V102.683V102.683V102.682V102.682V102.682V102.682V102.682V102.682V102.682V102.682V102.681V102.681V102.681V102.681V102.681V102.681V102.681V102.681V102.68V102.68V102.68V102.68V102.68V102.68V102.68V102.68V102.68V102.679V102.679V102.679V102.679V102.679V102.679V102.679V102.679V102.678V102.678V102.678V102.678V102.678V102.678V102.678V102.678V102.677V102.677V102.677V102.677V102.677V102.677V102.677V102.677V102.676V102.676V102.676V102.676V102.676V102.676V102.676V102.676V102.675V102.675V102.675V102.675V102.675V102.675V102.675V102.675V102.674V102.674V102.674V102.674V102.674V102.674V102.674V102.674V102.673V102.673V102.673V102.673V102.673V102.673V102.673V102.673V102.672V102.672V102.672V102.672V102.672V102.672V102.672V102.672V102.671V102.671V102.671V102.671V102.671V102.671V102.671V102.671V102.67V102.67V102.67V102.67V102.67V102.67V102.67V102.67V102.669V102.669V102.669V102.669V102.669V102.669V102.669V102.669V102.668V102.668V102.668V102.668V102.668V102.668V102.668V102.668V102.667V102.667V102.667V102.667V102.667V102.667V102.667V102.667V102.666V102.666V102.666V102.666V102.666V102.666V102.666V102.666V102.665V102.665V102.665V102.665V102.665V102.665V102.665V102.665V102.664V102.664V102.664V102.664V102.664V102.664V102.664V102.664V102.663V102.663V102.663V102.663V102.663V102.663V102.663V102.663V102.662V102.662V102.662V102.662V102.662V102.662V102.662V102.662V102.661V102.661V102.661V102.661V102.661V102.661V102.661V102.661V102.66V102.66V102.66V102.66V102.66V102.66V102.66V102.66V102.659V102.659V102.659V102.659V102.659V102.659V102.659V102.659V102.658V102.658V102.652V102.649V102.643V102.642V102.642V102.642V102.641V102.641V102.64V102.64V102.64V102.639V102.639V102.638V102.638V102.638V102.637V102.637V102.636V102.636V102.635V102.635V102.635V102.634V102.634V102.633V102.633V102.633V102.632V102.632V102.631V102.631V102.631V102.63V102.63V102.629V102.629V102.629V102.628V102.628V102.627V102.627V102.626V102.626V102.626V102.625V102.625V102.624V102.624V102.624V102.623V102.623V102.622V102.622V102.622V102.621V102.621V102.62V102.62V102.62V102.619V102.619V102.618V102.618V102.618V102.617V102.617V102.616V102.616V102.615V102.615V102.615V102.614V102.614V102.613V102.613V102.613V102.612V102.612V102.611V102.611V102.611V102.61V102.61V102.609V102.609V102.609V102.608V102.608V102.607V102.607V102.607V102.606V102.606V102.605V102.605V102.605V102.604V102.604V102.603V102.603V102.602V102.602V102.602V102.601V102.601V102.6V102.6V102.6V102.599V102.599V102.598V102.598V102.598V102.597V102.597V102.596V102.596V102.596V102.595V102.595V102.594V102.594V102.594V102.593V102.593V102.592V102.592V102.592V102.591V102.591V102.59V102.59V102.59V102.589V102.589V102.588V102.588V102.587V102.587V102.587V102.586V102.586V102.585V102.585V102.585V102.584V102.584V102.583V102.583V102.583V102.582V102.582V102.581V102.581V102.581V102.58V102.58V102.579V102.579V102.579V102.578V102.578V102.577V102.577V102.577V102.576V102.576V102.575V102.575V102.575V102.574V102.574V102.573V102.573V102.573V102.572V102.572V102.571V102.571V102.571V102.57V102.57V102.569V102.569V102.569V102.568V102.568V102.567V102.567V102.567V102.566V102.566V102.565V102.565V102.565V102.564V102.564V102.563V102.563V102.562V102.562V102.562V102.561V102.561V102.56V102.56V102.56V102.559V102.559V102.558V102.558V102.558V102.557V102.557V102.556V102.556V102.556V102.555V102.555V102.554V102.554V102.554V102.553V102.553V102.552V102.552V102.552V102.551V102.551V102.55V102.55V102.55V102.549V102.549V102.548V102.548V102.548V102.547V102.547V102.546V102.546V102.546V102.545V102.545V102.544V102.544V102.544V102.543V102.543V102.542V102.542V102.542V102.541V102.541V102.54V102.54V102.54V102.539V102.539V102.538V102.538V102.538V102.537V102.537V102.536V102.536V102.536V102.535V102.535V102.534V102.534V102.534V102.533V102.533V102.532V102.532V102.532V102.531V102.531V102.53V102.53V102.53V102.529V102.529V102.528V102.528V102.528V102.527V102.527V102.526V102.526V102.526V102.525V102.525V102.524V102.524V102.524V102.523V102.523V102.522V102.522V102.522V102.521V102.521V102.52V102.52V102.52V102.519V102.519V102.518V102.518V102.518V102.517V102.517V102.516V102.516V102.516V102.515V102.515V102.514V102.514V102.514V102.513V102.513V102.512V102.512V102.512V102.511V102.511V102.51V102.51V102.51V102.509V102.509V102.508V102.508V102.508V102.507V102.507V102.506V102.506V102.506V102.505V102.505V102.504V102.504V102.504V102.503V102.503V102.502V102.502V102.502V102.501V102.501V102.5V102.5V102.5V102.499V102.499V102.498V102.498V102.498V102.497V102.497V102.496V102.496V102.496V102.495V102.495V102.494V102.494V102.494V102.493V102.493V102.492V102.492V102.492V102.491V102.491V102.49V102.49V102.49V102.489V102.489V102.488V102.488V102.488V102.487V102.487V102.486V102.486V102.486V102.485V102.485V102.484V102.484V102.484V102.483V102.483V102.482V102.482V102.482V102.481V102.481V102.48V102.48V102.48V102.479V102.479V102.478V102.478V102.478V102.477V102.477V102.476V102.476V102.476V102.475V102.475V102.474V102.474V102.474V102.473V102.473V102.472V102.472V102.472V102.471V102.471V102.471V102.47V102.47V102.469V102.469V102.469V102.468V102.468V102.467V102.467V102.467V102.466V102.466V102.465V102.465V102.465V102.464V102.464V102.463V102.463V102.463V102.462V102.462V102.461V102.461V102.461V102.46V102.46V102.459V102.459V102.459V102.458V102.458V102.457V102.457V102.457V102.456V102.456V102.455V102.455V102.455V102.454V102.454V102.453V102.453V102.453V102.452V102.452V102.451V102.451V102.451V102.45V102.45V102.449V102.449V102.449V102.448V102.448V102.447V102.447V102.447V102.446V102.446V102.445V102.445V102.445V102.444V102.444V102.443V102.443V102.443V102.442V102.442V102.441V102.441V102.441V102.44V102.44V102.439V102.439V102.439V102.438V102.438V102.437V102.437V102.425ZM94.3708 103.894C94.3708 103.894 94.3708 103.894 94.3708 103.894C94.3708 103.894 94.3708 103.894 94.3708 103.894L94.3708 103.894ZM94.191 103.204C94.191 103.204 94.1909 103.204 94.1909 103.204C94.191 103.204 94.191 103.204 94.191 103.204C94.191 103.204 94.191 103.204 94.191 103.204Z" fill="#0962FF" stroke="#141414" stroke-width="0.36209"/>
<path d="M91.927 89.0753C93.0107 89.0753 93.8892 87.2865 93.8892 85.08C93.8892 82.8734 93.0107 81.0846 91.927 81.0846C90.8433 81.0846 89.9648 82.8734 89.9648 85.08C89.9648 87.2865 90.8433 89.0753 91.927 89.0753Z" fill="#141414"/>
<path d="M105.735 81.1021C106.818 81.1021 107.697 79.3133 107.697 77.1067C107.697 74.9001 106.818 73.1113 105.735 73.1113C104.651 73.1113 103.772 74.9001 103.772 77.1067C103.772 79.3133 104.651 81.1021 105.735 81.1021Z" fill="#141414"/>
<path d="M107.406 53.8002L107.251 53.903C107.186 53.9473 107.119 53.9967 107.054 54.043C106.988 54.0893 106.921 54.1356 106.848 54.186C106.775 54.2364 106.738 54.2693 106.682 54.3105C106.597 54.3753 106.512 54.4381 106.425 54.507C106.371 54.5492 106.316 54.5945 106.262 54.6387C106.168 54.7149 106.073 54.791 105.977 54.8713L105.799 55.0236C105.696 55.1079 105.603 55.1933 105.503 55.2829C105.387 55.3857 105.27 55.4886 105.152 55.5998L105.133 55.6183C105 55.7424 104.866 55.8711 104.729 56.0041L104.662 56.07C104.525 56.2038 104.388 56.3409 104.251 56.4816C104.223 56.5093 104.196 56.5382 104.168 56.567C104.028 56.7131 103.885 56.8636 103.74 57.0187L103.69 57.0742C103.553 57.2238 103.414 57.3781 103.272 57.5373C103.251 57.5609 103.23 57.5836 103.209 57.6083C103.062 57.7739 102.914 57.9468 102.765 58.1227L102.668 58.2369C102.513 58.4211 102.36 58.6084 102.2 58.8039C102.049 58.9891 101.898 59.1825 101.744 59.378C101.691 59.4466 101.637 59.5152 101.584 59.5838C101.466 59.7351 101.348 59.8925 101.23 60.0489L101.083 60.2444C100.915 60.4697 100.746 60.6992 100.576 60.9358L96.9463 58.8265C97.0945 58.6207 97.2416 58.4187 97.3877 58.2205L97.4525 58.1351L97.6007 57.9385C97.719 57.7811 97.8363 57.6299 97.9536 57.4745L98.1141 57.2687L98.2253 57.1267C98.3405 56.9799 98.4554 56.8359 98.57 56.6946C98.6852 56.5526 98.7994 56.4126 98.9126 56.2768L99.0381 56.1276L99.1348 56.0134C99.2717 55.8519 99.4075 55.6934 99.5413 55.5401L99.5783 55.4989L99.6421 55.4269C99.7834 55.2684 99.9227 55.1144 100.06 54.9649L100.11 54.9093L100.136 54.8816C100.271 54.7355 100.405 54.5955 100.538 54.4576L100.621 54.3712C100.649 54.3424 100.679 54.3115 100.707 54.2817C100.817 54.1706 100.925 54.0636 101.032 53.9576L101.1 53.8917C101.155 53.8382 101.203 53.7888 101.263 53.7333C101.343 53.6561 101.422 53.581 101.501 53.5069L101.522 53.4874C101.614 53.402 101.705 53.3186 101.795 53.2383C101.821 53.2137 101.846 53.1931 101.872 53.1704C101.975 53.0809 102.071 52.9945 102.17 52.9101C102.211 52.8741 102.255 52.835 102.297 52.8L102.346 52.7589C102.443 52.6786 102.538 52.6014 102.632 52.5253C102.676 52.4903 102.722 52.4512 102.765 52.4224L102.796 52.3998C102.882 52.3308 102.968 52.267 103.054 52.2022C103.101 52.1662 103.151 52.1271 103.198 52.0921L103.218 52.0787C103.287 52.0283 103.354 51.982 103.423 51.9337C103.493 51.8853 103.542 51.8483 103.599 51.8092L103.619 51.7958C103.671 51.7598 103.722 51.7279 103.775 51.6929C103.829 51.6579 103.905 51.6054 103.969 51.5653L103.997 51.5478L104.137 51.4624C104.195 51.4264 104.256 51.3883 104.314 51.3595L104.391 51.3142C104.473 51.2659 104.555 51.2206 104.637 51.1764L104.677 51.1558L104.821 51.0807L104.94 51.0189L104.984 50.9984C105.03 50.9757 105.074 50.9562 105.119 50.9346L105.222 50.8841L105.275 50.8615L105.401 50.808L105.496 50.7679L105.555 50.7452L105.678 50.6989L105.758 50.6691L105.825 50.6475C105.864 50.6331 105.903 50.6207 105.942 50.6084L106.009 50.5868C106.034 50.5785 106.058 50.5734 106.082 50.5662L106.195 50.5353L106.251 50.5199C106.278 50.5127 106.301 50.5086 106.327 50.5024L106.439 50.4777L106.486 50.4674L106.561 50.4551L106.672 50.4366L106.713 50.4293L106.783 50.4221L106.895 50.4108H106.935H106.995H107.11H107.151H107.199C107.241 50.4108 107.282 50.4108 107.322 50.4108H107.367L107.399 50.416C107.449 50.416 107.496 50.4273 107.542 50.4355C107.556 50.4355 107.571 50.4355 107.585 50.4417H107.595C107.665 50.4553 107.733 50.4736 107.801 50.4962H107.818L107.84 50.5065C107.908 50.5303 107.975 50.5603 108.038 50.596L111.678 52.7012C111.614 52.6659 111.548 52.636 111.479 52.6117L111.44 52.5973C111.373 52.5746 111.304 52.5564 111.234 52.5428L111.182 52.5335C111.135 52.5263 111.088 52.5191 111.039 52.514L110.961 52.5068H110.838H110.752H110.636L110.533 52.5129L110.421 52.5243L110.31 52.5387L110.199 52.5572L110.078 52.5798L109.965 52.6045L109.834 52.6375L109.721 52.6683L109.581 52.7105L109.463 52.7496L109.315 52.801L109.194 52.8474L109.039 52.9101L108.913 52.9636L108.751 53.0377L108.618 53.1005L108.453 53.1838L108.309 53.2579C108.215 53.3083 108.121 53.3608 108.024 53.4164C107.927 53.4719 107.855 53.5193 107.77 53.5697L107.63 53.6551C107.556 53.7003 107.481 53.7508 107.406 53.8002Z" fill="#0962FF"/>
<path d="M111.583 52.8597L111.583 52.8597C111.866 53.0208 112.163 53.3738 112.383 53.9746C112.602 54.5731 112.739 55.4042 112.711 56.496C112.658 58.6327 111.974 61.7464 110.077 66.0167C107.829 62.9953 104.67 61.1953 100.912 60.7922C103.796 56.8272 106.25 54.6484 108.114 53.5722C108.979 53.073 109.712 52.8142 110.298 52.7219C110.886 52.6293 111.314 52.706 111.583 52.8597Z" fill="#86B2FF" stroke="#141414" stroke-width="0.36209"/>
<path d="M69.4424 77.4925C69.4424 77.473 69.4424 77.4544 69.4424 77.4359C69.4424 77.3742 69.4424 77.3135 69.4424 77.2528C69.4424 77.1921 69.4424 77.155 69.4424 77.1067C69.4424 77.085 69.4424 77.0635 69.4424 77.0418C69.4424 76.9832 69.4424 76.9256 69.4424 76.8679C69.4424 76.8103 69.4424 76.7774 69.4424 76.7332C69.4424 76.7074 69.4424 76.6817 69.4424 76.656C69.4424 76.6025 69.4424 76.5531 69.4496 76.4965C69.4568 76.4399 69.4496 76.4183 69.4558 76.3792C69.4619 76.3401 69.4609 76.3154 69.463 76.2835L69.4753 76.1271C69.4753 76.0962 69.4753 76.0654 69.4825 76.0345C69.4897 76.0036 69.4918 75.9553 69.4959 75.9151C69.5 75.875 69.5062 75.8184 69.5123 75.7701C69.5123 75.7474 69.5124 75.7248 69.5196 75.7011C69.5257 75.6517 69.534 75.5982 69.5412 75.554C69.5484 75.5097 69.5525 75.4655 69.5597 75.4213L69.5659 75.378C69.5761 75.3132 69.5875 75.2494 69.5988 75.1856C69.605 75.1517 69.6101 75.1167 69.6163 75.0827C69.6168 75.0762 69.6168 75.0697 69.6163 75.0632C69.6348 74.9603 69.6564 74.8574 69.678 74.7545L69.6873 74.7123C69.7058 74.628 69.7253 74.5446 69.7459 74.4633C69.7478 74.4536 69.7502 74.444 69.7531 74.4345C69.7613 74.4016 69.7696 74.3697 69.7788 74.3316C69.7922 74.2812 69.8046 74.2287 69.8179 74.1814C69.8241 74.1618 69.8293 74.1433 69.8344 74.1248C69.8457 74.0878 69.856 74.0507 69.8663 74.0147C69.8766 73.9787 69.8859 73.9468 69.8961 73.9118C69.9064 73.8768 69.9167 73.849 69.926 73.8182C69.9352 73.7873 69.9455 73.7575 69.9548 73.7287C69.9641 73.6998 69.9661 73.6916 69.9723 73.6731C69.9918 73.6155 70.0124 73.5589 70.032 73.5023C70.0371 73.4869 70.0423 73.4714 70.0484 73.456C70.0478 73.4522 70.0478 73.4484 70.0484 73.4447C70.0731 73.3768 70.0978 73.3099 70.1235 73.2389C70.1235 73.2245 70.1349 73.2111 70.14 73.1977L70.1647 73.135L70.1987 73.0506L70.2511 72.9292C70.2511 72.9158 70.2624 72.9024 70.2676 72.8901C70.2704 72.8844 70.2728 72.8786 70.2748 72.8726C70.2995 72.816 70.3252 72.7615 70.3509 72.7069C70.3571 72.6925 70.3643 72.6791 70.3705 72.6658C70.3767 72.6524 70.3869 72.6328 70.3942 72.6164C70.4014 72.5999 70.4168 72.5701 70.4271 72.5474L70.4744 72.4559C70.4878 72.4312 70.5001 72.4054 70.5135 72.3818L70.5289 72.3519C70.5598 72.2933 70.5917 72.2357 70.6246 72.1801C70.6299 72.1698 70.6357 72.1598 70.6421 72.1503C70.6421 72.142 70.6524 72.1338 70.6565 72.1256C70.7234 72.0134 70.7954 71.8982 70.8747 71.7809L70.8819 71.7696C70.9395 71.6852 71.0002 71.5998 71.063 71.5133L71.0794 71.4907L71.1576 71.3878L71.2214 71.3045L71.2358 71.286C71.2811 71.2283 71.3295 71.1687 71.3778 71.11C71.3828 71.105 71.3873 71.0995 71.3912 71.0935C71.4447 71.0287 71.5003 70.9629 71.5579 70.898L71.5723 70.8816L71.6371 70.8096L71.74 70.6964L71.7688 70.6665C71.7976 70.6346 71.8275 70.6038 71.8573 70.5729C71.8871 70.542 71.9139 70.5132 71.9427 70.4844L71.9808 70.4463C72.0158 70.4103 72.0518 70.3753 72.0837 70.3434L72.1629 70.2652L72.2061 70.2251L72.3306 70.1089L72.4109 70.0348L72.4531 69.9977C72.4983 69.9566 72.5457 69.9164 72.592 69.8763L72.6774 69.8022L72.7175 69.7693L72.8646 69.6489C72.8965 69.6232 72.9264 69.5975 72.9593 69.5728C72.9706 69.5625 72.984 69.5532 72.9963 69.544C73.0457 69.5049 73.0992 69.4668 73.1486 69.4277L73.2515 69.3495L73.2865 69.3248C73.3369 69.2878 73.3894 69.2517 73.4398 69.2157L73.552 69.1355L73.587 69.1128L73.7413 69.0099C73.7814 68.9842 73.8205 68.9564 73.8617 68.9307C73.874 68.9225 73.8864 68.9163 73.8977 68.9081L74.0551 68.8124C74.0973 68.7867 74.1385 68.7599 74.1817 68.7352L74.2568 68.691C74.3412 68.6426 74.4266 68.5943 74.513 68.548C74.5325 68.5366 74.5531 68.5274 74.5737 68.5161L74.7394 68.444C74.7826 68.4214 74.8258 68.3977 74.87 68.3761L74.9524 68.337L75.117 68.2598L75.2302 68.2063C75.2631 68.1909 75.2981 68.1775 75.3331 68.1631L75.5111 68.088L75.614 68.0458C75.651 68.0304 75.6901 68.017 75.7282 68.0026C75.793 67.9779 75.8568 67.9532 75.9226 67.9296C75.9535 67.9182 75.9844 67.9049 76.0153 67.8946C76.0461 67.8843 76.0965 67.8678 76.1367 67.8545L76.3517 67.7845L76.4443 67.7536L76.5637 67.7207C76.6439 67.698 76.7242 67.6754 76.8055 67.6548L76.9084 67.626L77.0113 67.6024L77.2932 67.5396C77.3333 67.5314 77.3724 67.5211 77.4125 67.5139C77.4527 67.5067 77.4681 67.5046 77.4959 67.4995C77.6091 67.4789 77.7243 67.4604 77.8396 67.4429C77.8838 67.4367 77.926 67.4274 77.9713 67.4213H78.0165C78.2059 67.3966 78.3962 67.376 78.5907 67.3616H78.6061C78.745 67.3513 78.887 67.3462 79.029 67.342H79.1484C79.2111 67.342 79.2749 67.342 79.3387 67.342C79.385 67.342 79.4324 67.342 79.4787 67.342H79.6628C79.7657 67.342 79.8686 67.3523 79.9787 67.3585L80.1536 67.3708H80.2195C80.2823 67.377 80.3461 67.3863 80.4099 67.3935C80.5127 67.4038 80.6064 67.4141 80.7062 67.4274L80.9624 67.4676C81.0653 67.484 81.162 67.4995 81.2628 67.519L81.3421 67.5324C81.4717 67.5581 81.6024 67.5859 81.7341 67.6168L85.3642 69.7261C85.2047 69.689 85.0483 69.6582 84.8919 69.6232C84.789 69.6036 84.6923 69.5882 84.5925 69.5717C84.4927 69.5553 84.4207 69.544 84.3363 69.5326C84.2334 69.5182 84.1387 69.508 84.041 69.4977C83.9432 69.4874 83.8681 69.4781 83.7838 69.4709C83.7251 69.4709 83.6675 69.4627 83.6099 69.4596C83.507 69.4524 83.3979 69.4462 83.2929 69.4421H83.1088C82.9976 69.4421 82.8875 69.4421 82.7774 69.4421H82.6591C82.5109 69.4421 82.3648 69.4524 82.2198 69.4637C82.0263 69.4771 81.836 69.4977 81.6466 69.5224C81.587 69.5296 81.5293 69.5398 81.4697 69.5481C81.3544 69.5656 81.2392 69.5841 81.126 69.6047L80.9202 69.6458C80.8255 69.6654 80.7319 69.686 80.6383 69.7076C80.5683 69.7251 80.4994 69.7415 80.4325 69.76C80.3656 69.7786 80.2709 69.8033 80.1907 69.8269L79.9777 69.8897L79.7647 69.9597C79.6927 69.9843 79.6196 70.009 79.5486 70.0348L79.3562 70.1078C79.2832 70.1356 79.2111 70.1644 79.1401 70.1932L78.9621 70.2694C78.8901 70.3002 78.8191 70.3321 78.7481 70.3651L78.5825 70.4433C78.5115 70.4772 78.4405 70.5132 78.3705 70.5462C78.319 70.5719 78.2676 70.5986 78.2182 70.6254C78.1153 70.682 78.0052 70.7396 77.9013 70.7993C77.8324 70.8394 77.7665 70.8795 77.6955 70.9207C77.6245 70.9618 77.5926 70.9845 77.5381 71.0174C77.4835 71.0503 77.4352 71.0843 77.3817 71.1203C77.3282 71.1563 77.2788 71.1872 77.2273 71.2232C77.1759 71.2592 77.1244 71.2921 77.0802 71.3261C77.036 71.36 76.9773 71.3981 76.9269 71.4351C76.8765 71.4722 76.8343 71.5041 76.789 71.538L76.6357 71.6553L76.5061 71.7582L76.3579 71.8786L76.2324 71.9815L76.0934 72.1029L75.971 72.2141L75.8465 72.3303C75.8053 72.3694 75.7642 72.4085 75.7251 72.4487C75.686 72.4888 75.652 72.5197 75.6222 72.5516C75.5924 72.5835 75.5399 72.6359 75.4998 72.6771L75.4092 72.7718L75.2785 72.9148C75.2569 72.9395 75.2343 72.9631 75.2137 72.9878C75.1509 73.0588 75.0892 73.1298 75.0306 73.1998L75.0182 73.2162C74.9637 73.2821 74.9153 73.3469 74.8608 73.4117C74.8392 73.4385 74.8186 73.4663 74.798 73.493C74.7774 73.5198 74.7332 73.5774 74.7023 73.6196C74.6396 73.706 74.5789 73.7914 74.5212 73.8748C74.5184 73.8806 74.515 73.8861 74.5109 73.8912C74.4317 74.0096 74.3597 74.1238 74.2928 74.2359C74.2825 74.2544 74.2712 74.273 74.2599 74.2905C74.2228 74.3553 74.1858 74.4232 74.1498 74.4962C74.1364 74.5199 74.1241 74.5456 74.1117 74.5703C74.0839 74.6228 74.0572 74.6732 74.0304 74.7308C74.0222 74.7473 74.015 74.7638 74.0068 74.7792C73.9718 74.8523 73.9378 74.9274 73.9039 75.0045C73.9039 75.0169 73.8925 75.0303 73.8874 75.0436C73.8576 75.1105 73.8288 75.1805 73.801 75.2494L73.7763 75.3112C73.7434 75.3935 73.7115 75.4778 73.6806 75.5653C73.6744 75.5797 73.6703 75.5941 73.6652 75.6096C73.6384 75.6836 73.6127 75.7598 73.587 75.8369C73.5777 75.8668 73.5674 75.8966 73.5581 75.9265C73.5376 75.9903 73.518 76.0561 73.4985 76.1209C73.4882 76.158 73.4769 76.194 73.4666 76.231C73.447 76.299 73.4285 76.3699 73.41 76.4368L73.3853 76.5335C73.3616 76.6251 73.34 76.7187 73.3194 76.8134C73.3194 76.8268 73.3122 76.8402 73.3102 76.8535C73.2865 76.9616 73.2639 77.0707 73.2433 77.1818C73.2371 77.2157 73.232 77.2497 73.2258 77.2847C73.2124 77.3639 73.199 77.4421 73.1867 77.5224C73.1795 77.5656 73.1743 77.6098 73.1682 77.6541C73.1579 77.7261 73.1476 77.7981 73.1394 77.8712C73.1332 77.9185 73.128 77.9669 73.1229 78.0152C73.1157 78.0862 73.1085 78.1572 73.1023 78.2282L73.09 78.3836C73.09 78.4535 73.0807 78.5256 73.0766 78.5966C73.0766 78.6501 73.0715 78.6995 73.0694 78.756C73.0694 78.826 73.0694 78.897 73.0694 78.968C73.0694 79.039 73.0694 79.0843 73.0694 79.1419C73.0694 79.1995 73.0694 79.2829 73.0694 79.3477C73.0694 79.4125 73.0694 79.4691 73.0694 79.5308C73.0694 79.5926 73.0756 79.6646 73.0797 79.7366C73.0838 79.8087 73.0869 79.8745 73.092 79.9424C73.0972 80.0103 73.1033 80.0679 73.1095 80.1307C73.1171 80.2096 73.1253 80.2888 73.1342 80.3684C73.1414 80.4301 73.1497 80.4908 73.1589 80.5526C73.1702 80.639 73.1836 80.7265 73.198 80.8139C73.2073 80.8726 73.2176 80.9322 73.2289 80.9919C73.2474 81.0948 73.268 81.1977 73.2906 81.3006C73.3019 81.3541 73.3143 81.4035 73.3266 81.4622C73.3668 81.633 73.41 81.8048 73.4604 81.9766C73.4974 82.1028 73.5376 82.2294 73.5808 82.3563C73.5931 82.3933 73.6065 82.4314 73.6199 82.4685C73.6507 82.5559 73.6826 82.6434 73.7166 82.7308C73.7392 82.7905 73.7629 82.8502 73.7876 82.9109C73.8123 82.9716 73.8514 83.0632 73.8843 83.1393C73.9111 83.2 73.9378 83.2597 73.9656 83.3194C73.9934 83.3791 74.0242 83.4449 74.0551 83.5067C74.1107 83.6219 74.1704 83.7361 74.2311 83.8503C74.2588 83.9018 74.2856 83.9532 74.3154 84.0047C74.3988 84.1539 74.4862 84.302 74.5799 84.4502L74.6046 84.4903C74.654 84.5685 74.7075 84.6457 74.761 84.7229C74.8021 84.7836 74.8412 84.8453 74.8834 84.905C74.9421 84.9873 75.0048 85.0686 75.0666 85.1499C75.1088 85.2054 75.1479 85.261 75.1911 85.3155C75.2631 85.4071 75.3392 85.4966 75.4154 85.5872C75.4524 85.6324 75.4874 85.6767 75.5265 85.722C75.6428 85.8557 75.7652 85.9895 75.8918 86.1212L72.2617 84.0119C72.1351 83.8802 72.0127 83.7464 71.8964 83.6116C71.8583 83.5674 71.8233 83.5221 71.7853 83.4778C71.7091 83.3873 71.633 83.2978 71.561 83.2062C71.5167 83.1506 71.4766 83.093 71.4344 83.0375C71.3737 82.9572 71.3109 82.8769 71.2543 82.7957C71.2111 82.735 71.171 82.6732 71.1298 82.6115C71.0887 82.5497 71.0269 82.4582 70.9745 82.381V82.3748L70.9539 82.3409C70.8603 82.1927 70.7728 82.0435 70.6895 81.8943C70.6606 81.8439 70.6329 81.7914 70.6061 81.741C70.5444 81.6268 70.4847 81.5115 70.4291 81.3973C70.4147 81.3675 70.3972 81.3377 70.3828 81.3078C70.3684 81.278 70.354 81.243 70.3396 81.2049C70.3118 81.1452 70.2851 81.0856 70.2583 81.0249C70.2254 80.9487 70.1925 80.8726 70.1616 80.7954C70.1369 80.7357 70.1133 80.6761 70.0906 80.6164C70.0783 80.5845 70.0649 80.5526 70.0525 80.5217C70.032 80.4651 70.0134 80.4096 69.9939 80.354C69.9805 80.3159 69.9671 80.2789 69.9548 80.2418C69.9126 80.1163 69.8725 79.9918 69.8354 79.8673C69.8354 79.8673 69.8354 79.8673 69.8354 79.8611C69.785 79.6893 69.7418 79.5185 69.7017 79.3467C69.7017 79.3281 69.6914 79.3106 69.6873 79.2931C69.679 79.2571 69.6739 79.2211 69.6657 79.1903C69.6441 79.0874 69.6224 78.9845 69.6039 78.8816C69.6039 78.8517 69.5905 78.8219 69.5854 78.7921C69.5803 78.7622 69.5772 78.7334 69.5731 78.7046C69.5586 78.6171 69.5453 78.5297 69.534 78.4422C69.534 78.4042 69.5216 78.3661 69.5165 78.328C69.5113 78.2899 69.5165 78.2817 69.5093 78.2591C69.4997 78.1802 69.4914 78.101 69.4846 78.0214C69.4846 77.9771 69.4743 77.9339 69.4712 77.8897C69.4712 77.8712 69.4712 77.8516 69.4712 77.8331C69.466 77.7631 69.463 77.6952 69.4588 77.6273C69.4486 77.5892 69.4444 77.5398 69.4424 77.4925Z" fill="#0962FF"/>
<path d="M77.9943 70.9613L77.9943 70.9613C79.8327 69.8997 82.2279 69.2588 85.0431 69.8433C81.2024 74.6799 78.0977 80.0576 75.8296 85.8021C72.0941 81.6942 73.1457 76.5991 74.4181 74.3934C75.0319 73.3304 76.2643 71.96 77.9943 70.9613Z" fill="#86B2FF" stroke="#141414" stroke-width="0.36209"/>
<path d="M62.9751 51.3636C63.0564 51.3441 63.1387 51.3276 63.221 51.3112C63.2766 51.2998 63.3332 51.2875 63.3897 51.2772C63.5564 51.2474 63.7252 51.2247 63.896 51.2062L64.0555 51.1928C64.1584 51.1846 64.2551 51.1774 64.3559 51.1733C64.4207 51.1733 64.4845 51.1733 64.5494 51.1733C64.6306 51.1733 64.7119 51.1733 64.7932 51.1733C64.8745 51.1733 64.9301 51.1733 64.999 51.1733L65.2244 51.1856C65.2933 51.1856 65.3622 51.1959 65.4301 51.2021C65.498 51.2083 65.5783 51.2175 65.6524 51.2278C65.7265 51.2381 65.7851 51.2453 65.852 51.2556C65.9189 51.2659 66.0094 51.2813 66.0876 51.2967C66.1494 51.3077 66.2111 51.3201 66.2728 51.3338C66.3665 51.3544 66.458 51.378 66.5496 51.4017L66.7019 51.4429C66.8655 51.4902 67.026 51.5458 67.1804 51.6044C67.2575 51.6342 67.3316 51.6672 67.4057 51.7001C67.4438 51.7166 67.4829 51.732 67.5199 51.7505C67.6331 51.8026 67.7422 51.8592 67.8471 51.9203L73.4425 55.1512C73.6143 55.1378 73.7862 55.1285 73.957 55.1213H74.0815C74.3037 55.1138 74.526 55.1138 74.7482 55.1213H74.8346C75.0497 55.1275 75.2637 55.1378 75.4767 55.1553H75.5107C75.7267 55.1738 75.9418 55.1985 76.1558 55.2273L76.2587 55.2417C76.4727 55.2726 76.6837 55.3096 76.8936 55.3518L77.051 55.3847C77.1148 55.3978 77.1786 55.4122 77.2424 55.4279L77.441 55.4763L77.6303 55.5267L77.8052 55.5771C77.8957 55.6029 77.9853 55.6317 78.0748 55.6605L78.2271 55.7109C78.3238 55.7438 78.4195 55.7798 78.5152 55.8138L78.6294 55.857C78.794 55.9218 78.9556 55.9928 79.113 56.0628L79.2159 56.1132C79.3754 56.1914 79.5318 56.2717 79.681 56.3581C80.1772 56.6354 80.6274 56.9881 81.0155 57.4035C81.2825 57.6906 81.4986 58.0212 81.6545 58.381C81.6833 58.4489 81.708 58.5168 81.7306 58.5868C81.7607 58.6775 81.7854 58.7699 81.8047 58.8636V59.9758L86.3619 62.6079C86.2452 62.6429 86.1269 62.6748 86.0069 62.7036L85.8772 62.7313C85.7959 62.7499 85.7136 62.7663 85.6313 62.7818C85.583 62.791 85.5336 62.7982 85.4842 62.8065C85.4039 62.8198 85.3216 62.8311 85.2403 62.8414L85.0963 62.8589C85.0006 62.8682 84.9049 62.8764 84.8082 62.8826C84.7742 62.8826 84.7413 62.8888 84.7053 62.8898C84.5777 62.897 84.4491 62.9001 84.3194 62.9011H84.2042C84.1116 62.9011 84.019 62.9011 83.9264 62.8929L83.7823 62.8847C83.6979 62.8785 83.6125 62.8723 83.5282 62.863L83.3862 62.8486C83.2946 62.8373 83.2041 62.8239 83.1135 62.8095C83.0765 62.8034 83.0384 62.7993 83.0014 62.792C82.8758 62.7704 82.7513 62.7457 82.6289 62.7169C82.6042 62.7169 82.5815 62.7046 82.5568 62.6984C82.4539 62.6747 82.3603 62.648 82.2646 62.6202L82.1473 62.5791C82.0681 62.5533 81.9899 62.5266 81.9117 62.4978C81.8705 62.4834 81.8304 62.4679 81.7893 62.4515C81.7111 62.4206 81.6349 62.3877 81.5598 62.3486C81.5248 62.3331 81.4898 62.3187 81.4569 62.3023C81.354 62.2508 81.2449 62.1994 81.1482 62.1397L75.5539 58.9099C73.3427 59.0858 71.0152 58.6825 69.3092 57.6967C68.1044 57.0022 67.4016 56.1266 67.1958 55.2211V54.0893L62.6396 51.4583L62.8084 51.4099C62.8578 51.3935 62.9154 51.376 62.9751 51.3636Z" fill="#141414"/>
<path d="M81.8268 55.2634L81.8073 58.8647C81.788 58.7711 81.7633 58.6786 81.7332 58.5879C81.7106 58.52 81.6859 58.4521 81.6571 58.3821C81.5012 58.0223 81.2851 57.6917 81.0181 57.4046C80.6311 56.9903 80.1823 56.6383 79.6877 56.3613C79.5385 56.2748 79.379 56.1946 79.2226 56.1164L79.1197 56.066C78.9623 55.9919 78.8007 55.9209 78.6361 55.8602L78.5219 55.817C78.4262 55.781 78.3305 55.7449 78.2338 55.7141L78.0815 55.6637C77.992 55.6348 77.9025 55.606 77.8119 55.5803L77.637 55.5299L77.4477 55.4795L77.2491 55.4311C77.1853 55.4153 77.1215 55.4009 77.0577 55.3879L76.9003 55.355C76.6945 55.3128 76.4794 55.2757 76.2654 55.2449L76.1625 55.2305C75.9485 55.2017 75.7335 55.177 75.5174 55.1585H75.4834C75.2704 55.141 75.0564 55.1307 74.8414 55.1245H74.7549C74.5327 55.1197 74.3104 55.1197 74.0882 55.1245H73.9637C73.7908 55.1317 73.619 55.141 73.4492 55.1543L73.4739 50.4439C73.6457 50.4295 73.8186 50.4212 73.9884 50.414H74.1119C74.3334 50.4072 74.5553 50.4072 74.7776 50.414H74.864C75.078 50.4202 75.2931 50.4305 75.5061 50.448H75.54C75.7561 50.4665 75.9711 50.4912 76.1841 50.52L76.287 50.5344C76.5 50.5653 76.712 50.6023 76.9209 50.6445L77.0783 50.6774C77.1428 50.6905 77.2066 50.7049 77.2697 50.7206L77.4683 50.769L77.6576 50.8194C77.7162 50.8349 77.7739 50.8523 77.8325 50.8688C77.923 50.8945 78.0136 50.9233 78.1021 50.9522L78.2554 51.0026C78.3521 51.0355 78.4478 51.0715 78.5425 51.1055L78.6567 51.1477C78.8223 51.2135 78.9829 51.2845 79.1403 51.3534L79.1794 51.372L79.2473 51.4049C79.4058 51.4821 79.5622 51.5623 79.7124 51.6487C79.8153 51.7064 79.9068 51.765 80.0005 51.8257L80.0879 51.8844C80.1497 51.9255 80.2104 51.9667 80.269 52.0089C80.3009 52.0325 80.3328 52.0562 80.3637 52.0809C80.4162 52.12 80.4666 52.1601 80.518 52.2003L80.6086 52.2764C80.6569 52.3176 80.7043 52.3587 80.7496 52.4009L80.8298 52.475C80.8782 52.5213 80.9245 52.5686 80.9697 52.6159L81.0294 52.6777C81.0922 52.7456 81.1519 52.8145 81.2074 52.8835L81.227 52.9102C81.2753 52.972 81.3206 53.0337 81.3638 53.0954C81.3803 53.1191 81.3957 53.1438 81.4112 53.1685C81.442 53.2158 81.4729 53.2631 81.5007 53.3115C81.5171 53.3393 81.5315 53.3671 81.547 53.3938C81.5717 53.4401 81.5953 53.4864 81.618 53.5317C81.6313 53.5605 81.6447 53.5883 81.6571 53.6171C81.6776 53.6644 81.6972 53.7118 81.7157 53.7591C81.726 53.7859 81.7363 53.8136 81.7456 53.8404C81.7641 53.8949 81.7805 53.9433 81.796 54.003C81.8011 54.0235 81.8083 54.0441 81.8135 54.0637C81.832 54.1391 81.8474 54.2142 81.8598 54.289C81.8598 54.3044 81.8598 54.3188 81.8659 54.3343C81.8742 54.395 81.8814 54.4547 81.8855 54.5154C81.8855 54.5411 81.8855 54.5678 81.8855 54.5936C81.8959 54.8185 81.8761 55.0437 81.8268 55.2634Z" fill="#0962FF"/>
<path d="M67.8449 51.9172C67.74 51.8562 67.6309 51.7996 67.5177 51.7475C67.4807 51.7289 67.4416 51.7135 67.4035 51.697C67.3294 51.6641 67.2554 51.6312 67.1782 51.6013C67.0238 51.5406 66.8633 51.4871 66.6997 51.4398L66.5474 51.3986C66.4559 51.375 66.3643 51.3513 66.2707 51.3307C66.2089 51.317 66.1472 51.3047 66.0855 51.2937C66.0073 51.2783 65.929 51.2649 65.8498 51.2525C65.7706 51.2402 65.7171 51.233 65.6502 51.2248C65.5833 51.2165 65.502 51.2062 65.428 51.199C65.3539 51.1918 65.2901 51.1867 65.2222 51.1826L64.9968 51.1702C64.9289 51.1702 64.861 51.1702 64.791 51.1702C64.7211 51.1702 64.6285 51.1702 64.5472 51.1702C64.4824 51.1702 64.4186 51.1702 64.3537 51.1702C64.2509 51.1702 64.148 51.1815 64.0533 51.1898L63.8938 51.2031C63.723 51.2217 63.5543 51.2443 63.3876 51.2741C63.331 51.2844 63.2744 51.2968 63.2188 51.3081C63.1365 51.3246 63.0542 51.341 62.9729 51.3606C62.9132 51.375 62.8556 51.3925 62.797 51.4079L62.6282 51.4563L61.589 50.8564C60.6537 50.3162 60.2215 49.5959 60.2843 48.8891C60.2843 48.8438 60.2925 48.7996 60.2997 48.7543C60.3069 48.709 60.3182 48.6761 60.3285 48.637C60.3399 48.5938 60.3501 48.5505 60.3645 48.5084C60.3789 48.4662 60.3954 48.4332 60.4119 48.3962C60.4314 48.3509 60.452 48.3057 60.4757 48.2604C60.5069 48.1997 60.5413 48.1406 60.5786 48.0834L60.5878 48.069C60.5927 48.061 60.5982 48.0535 60.6043 48.0464C60.65 47.9824 60.6991 47.9209 60.7514 47.8622V47.856L60.7792 47.8241C60.8368 47.761 60.8996 47.6993 60.9675 47.6389C61.0097 47.6019 61.056 47.5648 61.1023 47.5288L61.1651 47.4784C61.1856 47.4619 61.2062 47.4444 61.2299 47.428C61.2782 47.392 61.3328 47.358 61.3863 47.3251C61.4398 47.2922 61.4974 47.25 61.5591 47.214C61.6425 47.1656 61.7299 47.1213 61.8184 47.0781C61.8719 47.0524 61.9213 47.0267 61.9789 47.002L62.1065 46.9475C62.2197 46.9001 62.336 46.8559 62.4553 46.8147L62.584 46.7705C62.6591 46.7478 62.7362 46.7262 62.8134 46.7057C62.871 46.6902 62.9297 46.6727 62.9894 46.6583C63.0696 46.6388 63.1519 46.6223 63.2343 46.6059C63.2908 46.5945 63.3464 46.5822 63.403 46.5719C63.5707 46.5421 63.7395 46.5194 63.9103 46.5009L64.0687 46.4875C64.1716 46.4793 64.2745 46.4721 64.3692 46.468C64.434 46.468 64.4988 46.468 64.5626 46.4628C64.6449 46.4628 64.7262 46.4628 64.8075 46.4628C64.8761 46.4628 64.9447 46.4649 65.0133 46.469C65.0894 46.469 65.1645 46.4762 65.2397 46.4813C65.3086 46.4813 65.3775 46.4916 65.4454 46.4978C65.5134 46.504 65.5936 46.5133 65.6677 46.5235C65.7418 46.5338 65.8015 46.541 65.8673 46.5513C65.9332 46.5616 66.0258 46.577 66.104 46.5925C66.1657 46.6038 66.2274 46.6161 66.2882 46.6295C66.3818 46.6501 66.4734 46.6738 66.5649 46.6974L66.7182 46.7386C66.8822 46.7859 67.0413 46.8398 67.1957 46.9001C67.2728 46.93 67.348 46.9629 67.422 46.9958C67.4601 47.0123 67.4992 47.0277 67.5363 47.0452C67.6484 47.0987 67.7575 47.1553 67.8635 47.216L73.4671 50.4376L73.4424 55.1481L67.8449 51.9172Z" fill="#0962FF"/>
<path d="M81.8069 58.8615L81.8265 55.2603L81.8892 55.2963L87.4208 58.486C87.5299 58.5487 87.6328 58.6146 87.7295 58.6825C87.7614 58.7051 87.7881 58.7288 87.818 58.7525C87.8797 58.7988 87.9414 58.844 87.996 58.8924C88.0299 58.9212 88.0567 58.9521 88.0875 58.9819C88.1339 59.0251 88.1812 59.0684 88.2223 59.1126C88.2635 59.1568 88.2769 59.1805 88.3036 59.2155C88.3304 59.2505 88.3767 59.2999 88.4065 59.3441C88.4364 59.3884 88.4497 59.4161 88.4724 59.447C88.495 59.4779 88.5279 59.5324 88.5495 59.5756C88.5712 59.6188 88.5814 59.6497 88.5979 59.6867C88.6144 59.7238 88.638 59.7742 88.6524 59.8184C88.6668 59.8627 88.672 59.8946 88.6823 59.9327C88.6926 59.9707 88.707 60.0212 88.7152 60.0654C88.7234 60.1096 88.7214 60.1426 88.7245 60.1806C88.7276 60.2187 88.7358 60.2691 88.7358 60.3134C88.7358 60.9719 88.3057 61.6294 87.4403 62.1325C87.0988 62.3276 86.736 62.4826 86.3589 62.5945L81.8018 59.9625L81.8069 58.8615Z" fill="#0962FF"/>
<path d="M77.7921 56.7326C72.532 56.7326 68.2678 52.262 68.2678 46.7472C68.2678 41.2323 72.532 36.7617 77.7921 36.7617C83.0522 36.7617 87.3164 41.2323 87.3164 46.7472C87.3164 52.262 83.0522 56.7326 77.7921 56.7326Z" fill="#0962FF" stroke="#141414" stroke-width="0.235086" stroke-miterlimit="10"/>
<path d="M76.8048 55.9709C71.5447 55.9709 67.2805 51.5002 67.2805 45.9854C67.2805 40.4706 71.5447 36 76.8048 36C82.0649 36 86.3291 40.4706 86.3291 45.9854C86.3291 51.5002 82.0649 55.9709 76.8048 55.9709Z" fill="white" stroke="#141414" stroke-width="0.235086" stroke-miterlimit="10"/>
<path d="M72.8535 48.3464H74.4113C74.4113 49.1876 75.4783 49.9041 76.7479 49.9041C78.0175 49.9041 79.0845 49.1876 79.0845 48.3464C79.0845 47.4896 78.2745 47.178 76.561 46.7652C74.9098 46.3524 72.8535 45.8383 72.8535 43.673C72.8535 42.2788 73.9985 41.0949 75.5796 40.6977V38.9997H77.9162V40.6977C79.4974 41.0949 80.6423 42.2788 80.6423 43.673H79.0845C79.0845 42.8318 78.0175 42.1153 76.7479 42.1153C75.4783 42.1153 74.4113 42.8318 74.4113 43.673C74.4113 44.5298 75.2213 44.8414 76.9348 45.2542C78.5861 45.667 80.6423 46.1811 80.6423 48.3464C80.6423 49.7406 79.4974 50.9245 77.9162 51.3217V53.0197H75.5796V51.3217C73.9985 50.9245 72.8535 49.7406 72.8535 48.3464Z" fill="#141414"/>
</g>
<ellipse cx="7.64944" cy="11.8365" rx="7.64944" ry="11.8365" transform="matrix(0.870143 0.492799 -0.492798 0.870144 96.6709 15.5873)" fill="#0962FF"/>
<path fill-rule="evenodd" clip-rule="evenodd" d="M93.7873 22.0965C92.6774 23.1753 91.6545 24.4912 90.7988 26.0021C87.5773 31.6903 87.9458 37.9893 91.6219 40.0712C94.8269 41.8863 99.4879 39.8967 102.765 35.5872L90.296 27.4392L93.7873 22.0965Z" fill="#86B2FF"/>
<path d="M101.597 32.3228C99.9498 35.2315 97.7007 37.4251 95.4054 38.6252C93.1079 39.8264 90.7901 40.0217 88.9701 38.9909C87.15 37.9602 86.1254 35.872 85.974 33.2839C85.8227 30.6981 86.5473 27.6411 88.1946 24.7324C89.8419 21.8238 92.091 19.6301 94.3863 18.43C96.6838 17.2288 99.0016 17.0335 100.822 18.0643C102.642 19.0951 103.666 21.1833 103.818 23.7714C103.969 26.3571 103.244 29.4142 101.597 32.3228Z" fill="white" stroke="#08153D" stroke-width="0.394939"/>
<path d="M100.054 29.7079C100.187 29.4708 100.264 29.2279 100.241 29.0061C100.237 28.7862 100.122 28.6018 99.9644 28.4445C99.8066 28.2871 99.5754 28.1691 99.2966 28.109C99.8313 28.0074 100.355 27.795 100.824 27.4985C101.281 27.2165 101.635 26.8611 101.833 26.521C102.679 25.2915 101.669 24.7483 100.074 24.4425L101.452 22.7662L100.141 22.6151L98.7985 24.2481C98.4581 24.2129 98.0989 24.1758 97.7397 24.1387L99.0937 22.4914L97.7821 22.3403L96.4043 24.0165C96.1207 23.9873 95.8371 23.958 95.5724 23.9306L93.7692 23.7288L92.8784 24.8126C92.8784 24.8126 93.8735 24.8996 93.8427 24.9121C94.0247 24.9153 94.1781 24.9781 94.2511 25.064C94.3122 25.1644 94.3117 25.2898 94.2307 25.4382L90.4349 30.0315C90.3992 30.0749 90.3447 30.1163 90.2901 30.1577C90.2356 30.1991 90.1622 30.2385 90.0817 30.2616C90.0201 30.2866 89.9396 30.3096 89.871 30.3182C89.8024 30.3268 89.7457 30.321 89.6701 30.3132C89.6771 30.3296 88.7058 30.2136 88.7058 30.2136L87.4434 31.4001L89.1521 31.5922C89.4735 31.6254 89.7831 31.673 90.0856 31.7043L88.6959 33.395L90.0075 33.5461L91.3853 31.8698C91.7327 31.9214 92.073 31.9565 92.4322 31.9936L91.0663 33.6554L92.3779 33.8065L93.7676 32.1158C96.0698 32.2595 97.9646 32.0005 99.4721 30.416C99.6881 30.2031 99.9089 29.9594 100.054 29.7079ZM96.7728 25.3401C97.5101 25.4162 99.9852 25.4993 98.9994 26.6987C98.0492 27.8548 95.8354 27.4538 95.0791 27.3757L96.7728 25.3401ZM92.383 30.656L94.2429 28.4181C95.1315 28.5098 98.0912 28.6273 97.0103 29.9423C95.9462 31.212 93.2905 30.7497 92.383 30.656Z" fill="#141414"/>
<path d="M99.9721 35.0288L102.019 36.5309" stroke="#08153D" stroke-width="0.276457"/>
<path d="M99.2383 35.8487L101.234 37.3399" stroke="#08153D" stroke-width="0.276457"/>
<defs>
<clipPath id="clip0_1237_7784">
<rect width="87.4846" height="92.1373" fill="white" transform="translate(28 35.8627)"/>
</clipPath>
</defs>
</svg>
