<svg width="160" height="160" viewBox="0 0 160 160" fill="none" xmlns="http://www.w3.org/2000/svg">
<rect x="0.587807" width="75.3403" height="75.3403" rx="7.80553" transform="matrix(0.866025 -0.5 0.866025 0.5 25.7086 93.966)" fill="#141414" stroke="#0962FF" stroke-width="0.678742"/>
<rect x="0.587807" width="75.3403" height="75.3403" rx="7.80553" transform="matrix(0.866025 -0.5 0.866025 0.5 25.7086 86.5001)" fill="#86B2FF" stroke="#0962FF" stroke-width="0.678742"/>
<rect opacity="0.3" width="45.4829" height="40.7383" rx="6.81513" transform="matrix(-0.866025 -0.5 -0.866025 0.5 114.357 83.9735)" fill="#141414"/>
<path d="M30.0615 93.3209V86.1787C30.0615 86.9706 30.8081 88.9616 33.7946 90.5905C36.7811 92.2195 37.7539 92.853 37.867 92.9661V100.297L31.7584 96.6992C31.4401 96.4605 30.8642 95.9194 30.4562 95.2415C30.1128 94.6709 30.0615 93.9869 30.0615 93.3209Z" fill="#0962FF" stroke="#0962FF" stroke-width="0.678742"/>
<path d="M152.709 86.1787V93.9842" stroke="#0962FF" stroke-width="0.678742"/>
<path d="M84.0205 119.776V126.903" stroke="#0962FF" stroke-width="0.678742"/>
<path d="M98.9531 119.437V126.903" stroke="#0962FF" stroke-width="0.678742"/>
<path d="M148.162 94.0173V91.2694C148.162 91.2694 149.951 90.4133 150.877 89.5725C151.649 88.8712 152.467 87.3822 152.78 86.7796C152.813 86.7157 152.913 86.7401 152.913 86.8121V92.8034C152.913 93.808 152.806 94.8552 152.234 95.6812C151.505 96.7349 150.32 97.3605 149.21 98.0015L111.51 119.777L145.594 98.6314C147.191 97.6411 148.162 95.8959 148.162 94.0173Z" fill="#0962FF" stroke="#0962FF" stroke-width="0.678742"/>
<path d="M42.957 103.283V96.1562L48.387 99.55V106.337L42.957 103.283Z" fill="#0962FF" stroke="#0962FF" stroke-width="0.678742"/>
<path d="M50.6441 103.318C46.1695 103.318 42.5421 99.5153 42.5421 94.824C42.5421 90.1327 46.1695 86.3297 50.6441 86.3297C55.1187 86.3297 58.7461 90.1327 58.7461 94.824C58.7461 99.5153 55.1187 103.318 50.6441 103.318Z" fill="#0962FF" stroke="#141414" stroke-width="0.19998" stroke-miterlimit="10"/>
<path d="M49.8042 102.67C45.3296 102.67 41.7022 98.8673 41.7022 94.1761C41.7022 89.4848 45.3296 85.6818 49.8042 85.6818C54.2789 85.6818 57.9062 89.4848 57.9062 94.1761C57.9062 98.8673 54.2789 102.67 49.8042 102.67Z" fill="#D0E1FF" stroke="#141414" stroke-width="0.19998" stroke-miterlimit="10"/>
<path d="M46.4424 96.1846H47.7675C47.7675 96.9002 48.6752 97.5097 49.7552 97.5097C50.8352 97.5097 51.7429 96.9002 51.7429 96.1846C51.7429 95.4557 51.0539 95.1907 49.5962 94.8395C48.1916 94.4884 46.4424 94.0511 46.4424 92.2091C46.4424 91.0231 47.4164 90.016 48.7614 89.6781V88.2336H50.7491V89.6781C52.0941 90.016 53.0681 91.0231 53.0681 92.2091H51.7429C51.7429 91.4935 50.8352 90.884 49.7552 90.884C48.6752 90.884 47.7675 91.4935 47.7675 92.2091C47.7675 92.9379 48.4566 93.203 49.9142 93.5541C51.3189 93.9053 53.0681 94.3426 53.0681 96.1846C53.0681 97.3706 52.0941 98.3777 50.7491 98.7156V100.16H48.7614V98.7156C47.4164 98.3777 46.4424 97.3706 46.4424 96.1846Z" fill="#141414"/>
<path d="M47.876 139.18C45.287 135.53 46.29 130.371 50.1163 127.657C53.9425 124.942 59.1431 125.7 61.7321 129.35C64.3211 133 63.3181 138.159 59.4918 140.873C55.6656 143.587 50.465 142.829 47.876 139.18Z" fill="#0962FF" stroke="#141414" stroke-width="0.19998" stroke-miterlimit="10"/>
<path d="M47.9189 138.12C45.3299 134.47 46.333 129.311 50.1592 126.597C53.9855 123.882 59.1861 124.641 61.7751 128.29C64.3641 131.94 63.3611 137.099 59.5348 139.813C55.7085 142.527 50.5079 141.769 47.9189 138.12Z" fill="#D0E1FF" stroke="#141414" stroke-width="0.19998" stroke-miterlimit="10"/>
<g clip-path="url(#clip0_1237_7935)">
<path d="M51.2631 131.625L52.0299 132.706C51.4462 133.12 51.4742 134.213 52.0991 135.094C52.724 135.974 53.7464 136.362 54.33 135.948C54.9245 135.526 54.7419 134.811 54.185 133.419C53.6587 132.07 53.0033 130.39 54.5056 129.325C55.4729 128.638 56.8579 128.85 57.9117 129.752L59.0898 128.916L60.2399 130.537L59.0618 131.373C59.5644 132.665 59.3065 134.042 58.3392 134.729L57.5725 133.648C58.1561 133.234 58.1281 132.141 57.5032 131.26C56.8783 130.379 55.856 129.991 55.2723 130.406C54.6779 130.827 54.8604 131.543 55.4174 132.935C55.9437 134.283 56.5991 135.963 55.0967 137.029C54.1294 137.715 52.7444 137.503 51.6906 136.602L50.5125 137.438L49.3624 135.816L50.5405 134.981C50.0379 133.688 50.2958 132.311 51.2631 131.625Z" fill="#141414"/>
</g>
<path d="M88.9232 13.4799C90.5893 12.5179 92.6421 12.5179 94.3082 13.4799L128.419 33.1736C130.085 34.1356 131.111 35.9133 131.111 37.8371V77.2247C131.111 79.1485 130.085 80.9262 128.419 81.8882L94.3082 101.582C92.6421 102.544 90.5893 102.544 88.9232 101.582L54.8127 81.8882C53.1465 80.9262 52.1202 79.1485 52.1202 77.2247V37.8371C52.1202 35.9133 53.1465 34.1356 54.8127 33.1736L88.9232 13.4799Z" stroke="#0962FF" stroke-width="2.15398"/>
<path d="M56.0749 38.0373L88.9229 56.9922" stroke="#0962FF" stroke-width="2.15398" stroke-linecap="round"/>
<path d="M127.695 38.0373L94.8466 56.9922" stroke="#0962FF" stroke-width="2.15398" stroke-linecap="round"/>
<path d="M98.6441 82.3183C94.1695 82.3183 90.5421 78.5153 90.5421 73.824C90.5421 69.1327 94.1695 65.3297 98.6441 65.3297C103.119 65.3297 106.746 69.1327 106.746 73.824C106.746 78.5153 103.119 82.3183 98.6441 82.3183Z" fill="#0962FF" stroke="#141414" stroke-width="0.19998" stroke-miterlimit="10"/>
<path d="M97.8042 81.6704C93.3296 81.6704 89.7022 77.8673 89.7022 73.1761C89.7022 68.4848 93.3296 64.6818 97.8042 64.6818C102.279 64.6818 105.906 68.4848 105.906 73.1761C105.906 77.8673 102.279 81.6704 97.8042 81.6704Z" fill="#D0E1FF" stroke="#141414" stroke-width="0.19998" stroke-miterlimit="10"/>
<path d="M94.4424 75.1846H95.7675C95.7675 75.9002 96.6752 76.5097 97.7552 76.5097C98.8352 76.5097 99.7429 75.9002 99.7429 75.1846C99.7429 74.4557 99.0539 74.1907 97.5962 73.8395C96.1916 73.4884 94.4424 73.0511 94.4424 71.2091C94.4424 70.0231 95.4164 69.016 96.7614 68.6781V67.2336H98.7491V68.6781C100.094 69.016 101.068 70.0231 101.068 71.2091H99.7429C99.7429 70.4935 98.8352 69.884 97.7552 69.884C96.6752 69.884 95.7675 70.4935 95.7675 71.2091C95.7675 71.9379 96.4566 72.203 97.9142 72.5541C99.3189 72.9053 101.068 73.3426 101.068 75.1846C101.068 76.3706 100.094 77.3777 98.7491 77.7156V79.16H96.7614V77.7156C95.4164 77.3777 94.4424 76.3706 94.4424 75.1846Z" fill="#141414"/>
<path d="M84.6441 76.3183C80.1695 76.3183 76.5421 72.5152 76.5421 67.824C76.5421 63.1327 80.1695 59.3297 84.6441 59.3297C89.1187 59.3297 92.7461 63.1327 92.7461 67.824C92.7461 72.5152 89.1187 76.3183 84.6441 76.3183Z" fill="#0962FF" stroke="#141414" stroke-width="0.19998" stroke-miterlimit="10"/>
<path d="M83.8042 75.6704C79.3296 75.6704 75.7022 71.8673 75.7022 67.1761C75.7022 62.4848 79.3296 58.6818 83.8042 58.6818C88.2789 58.6818 91.9062 62.4848 91.9062 67.1761C91.9062 71.8673 88.2789 75.6704 83.8042 75.6704Z" fill="#D0E1FF" stroke="#141414" stroke-width="0.19998" stroke-miterlimit="10"/>
<path d="M80.4424 69.1846H81.7675C81.7675 69.9002 82.6752 70.5097 83.7552 70.5097C84.8352 70.5097 85.7429 69.9002 85.7429 69.1846C85.7429 68.4557 85.0539 68.1907 83.5962 67.8395C82.1916 67.4884 80.4424 67.0511 80.4424 65.2091C80.4424 64.0231 81.4164 63.016 82.7614 62.6781V61.2336H84.7491V62.6781C86.0941 63.016 87.0681 64.0231 87.0681 65.2091H85.7429C85.7429 64.4935 84.8352 63.884 83.7552 63.884C82.6752 63.884 81.7675 64.4935 81.7675 65.2091C81.7675 65.9379 82.4566 66.203 83.9142 66.5541C85.3189 66.9053 87.0681 67.3426 87.0681 69.1846C87.0681 70.3706 86.0941 71.3777 84.7491 71.7156V73.16H82.7614V71.7156C81.4164 71.3777 80.4424 70.3706 80.4424 69.1846Z" fill="#141414"/>
<path d="M91.6152 60.2233L91.6152 97.918" stroke="#0962FF" stroke-width="2.15398" stroke-linecap="round"/>
<rect width="2.82489" height="2.8249" transform="matrix(-0.866025 0.5 2.20305e-08 1 126.911 45.1455)" fill="white"/>
<rect width="2.82489" height="2.8249" transform="matrix(-0.866025 0.5 2.20305e-08 1 126.911 48.9592)" fill="white"/>
<rect width="2.82489" height="2.8249" transform="matrix(-0.866025 0.5 2.20305e-08 1 126.911 52.7729)" fill="white"/>
<path d="M68.3656 110.458C66.1543 106.568 67.6678 101.535 71.7462 99.2164C75.8246 96.898 80.9234 98.1721 83.1347 102.062C85.346 105.952 83.8325 110.985 79.7541 113.303C75.6758 115.622 70.577 114.348 68.3656 110.458Z" fill="#0962FF" stroke="#141414" stroke-width="0.19998" stroke-miterlimit="10"/>
<path d="M68.5141 109.407C66.3027 105.517 67.8163 100.485 71.8946 98.1661C75.973 95.8477 81.0718 97.1218 83.2831 101.012C85.4945 104.902 83.9809 109.935 79.9026 112.253C75.8242 114.572 70.7254 113.297 68.5141 109.407Z" fill="#D0E1FF" stroke="#141414" stroke-width="0.19998" stroke-miterlimit="10"/>
<path d="M72.4912 103.28L73.146 104.432C72.5239 104.785 72.4426 105.876 72.9763 106.814C73.51 107.753 74.4886 108.241 75.1107 107.888C75.7443 107.527 75.6341 106.797 75.2191 105.357C74.8302 103.962 74.3459 102.225 75.9472 101.315C76.9783 100.729 78.3352 101.078 79.2936 102.08L80.5493 101.366L81.5317 103.094L80.2759 103.808C80.6469 105.144 80.2527 106.489 79.2216 107.075L78.5667 105.923C79.1888 105.569 79.2702 104.479 78.7364 103.54C78.2027 102.601 77.2242 102.113 76.6021 102.467C75.9685 102.827 76.0786 103.557 76.4937 104.998C76.8826 106.393 77.3668 108.129 75.7655 109.04C74.7345 109.626 73.3776 109.277 72.4191 108.274L71.1634 108.988L70.1811 107.26L71.4368 106.546C71.0659 105.21 71.4601 103.866 72.4912 103.28Z" fill="#141414"/>
<path d="M29.1205 131.171C26.9092 127.281 28.4227 122.248 32.5011 119.93C36.5795 117.612 41.6783 118.886 43.8896 122.776C46.1009 126.666 44.5874 131.699 40.509 134.017C36.4306 136.335 31.3318 135.061 29.1205 131.171Z" fill="#0962FF" stroke="#141414" stroke-width="0.19998" stroke-miterlimit="10"/>
<path d="M29.2689 130.121C27.0576 126.231 28.5712 121.198 32.6495 118.88C36.7279 116.561 41.8267 117.835 44.038 121.725C46.2494 125.615 44.7358 130.648 40.6575 132.967C36.5791 135.285 31.4803 134.011 29.2689 130.121Z" fill="#D0E1FF" stroke="#141414" stroke-width="0.19998" stroke-miterlimit="10"/>
<g clip-path="url(#clip1_1237_7935)">
<path d="M33.246 123.993L33.9009 125.145C33.2788 125.499 33.1975 126.589 33.7312 127.528C34.2649 128.467 35.2434 128.955 35.8655 128.601C36.4992 128.241 36.389 127.511 35.9739 126.07C35.5851 124.676 35.1008 122.939 36.7021 122.028C37.7332 121.442 39.0901 121.791 40.0485 122.794L41.3042 122.08L42.2865 123.808L41.0308 124.522C41.4018 125.858 41.0076 127.202 39.9765 127.789L39.3216 126.637C39.9437 126.283 40.0251 125.193 39.4913 124.254C38.9576 123.315 37.9791 122.827 37.357 123.18C36.7234 123.541 36.8335 124.271 37.2486 125.711C37.6375 127.106 38.1217 128.843 36.5204 129.753C35.4893 130.339 34.1325 129.99 33.174 128.988L31.9183 129.702L30.936 127.974L32.1917 127.26C31.8208 125.924 32.215 124.579 33.246 123.993Z" fill="#141414"/>
</g>
<rect x="0.866025" y="1.5" width="33.7957" height="9" rx="4.5" transform="matrix(0.866025 0.5 -2.20305e-08 1 57.8182 58.5581)" stroke="#0962FF" stroke-width="2"/>
<path d="M61.6441 114.318C57.1695 114.318 53.5421 110.515 53.5421 105.824C53.5421 101.133 57.1695 97.3297 61.6441 97.3297C66.1187 97.3297 69.7461 101.133 69.7461 105.824C69.7461 110.515 66.1187 114.318 61.6441 114.318Z" fill="#0962FF" stroke="#141414" stroke-width="0.19998" stroke-miterlimit="10"/>
<path d="M60.8042 113.67C56.3296 113.67 52.7022 109.867 52.7022 105.176C52.7022 100.485 56.3296 96.6818 60.8042 96.6818C65.2789 96.6818 68.9062 100.485 68.9062 105.176C68.9062 109.867 65.2789 113.67 60.8042 113.67Z" fill="#D0E1FF" stroke="#141414" stroke-width="0.19998" stroke-miterlimit="10"/>
<path d="M57.4424 107.185H58.7675C58.7675 107.9 59.6752 108.51 60.7552 108.51C61.8352 108.51 62.7429 107.9 62.7429 107.185C62.7429 106.456 62.0539 106.191 60.5962 105.84C59.1916 105.488 57.4424 105.051 57.4424 103.209C57.4424 102.023 58.4164 101.016 59.7614 100.678V99.2336H61.7491V100.678C63.0941 101.016 64.0681 102.023 64.0681 103.209H62.7429C62.7429 102.494 61.8352 101.884 60.7552 101.884C59.6752 101.884 58.7675 102.494 58.7675 103.209C58.7675 103.938 59.4566 104.203 60.9142 104.554C62.3189 104.905 64.0681 105.343 64.0681 107.185C64.0681 108.371 63.0941 109.378 61.7491 109.716V111.16H59.7614V109.716C58.4164 109.378 57.4424 108.371 57.4424 107.185Z" fill="#141414"/>
<path d="M33.6441 149.318C29.1695 149.318 25.5421 145.515 25.5421 140.824C25.5421 136.133 29.1695 132.33 33.6441 132.33C38.1187 132.33 41.7461 136.133 41.7461 140.824C41.7461 145.515 38.1187 149.318 33.6441 149.318Z" fill="#0962FF" stroke="#141414" stroke-width="0.19998" stroke-miterlimit="10"/>
<path d="M32.8042 148.67C28.3296 148.67 24.7022 144.867 24.7022 140.176C24.7022 135.485 28.3296 131.682 32.8042 131.682C37.2789 131.682 40.9062 135.485 40.9062 140.176C40.9062 144.867 37.2789 148.67 32.8042 148.67Z" fill="#D0E1FF" stroke="#141414" stroke-width="0.19998" stroke-miterlimit="10"/>
<path d="M29.4424 142.185H30.7675C30.7675 142.9 31.6752 143.51 32.7552 143.51C33.8352 143.51 34.7429 142.9 34.7429 142.185C34.7429 141.456 34.0539 141.191 32.5962 140.84C31.1916 140.488 29.4424 140.051 29.4424 138.209C29.4424 137.023 30.4164 136.016 31.7614 135.678V134.234H33.7491V135.678C35.0941 136.016 36.0681 137.023 36.0681 138.209H34.7429C34.7429 137.494 33.8352 136.884 32.7552 136.884C31.6752 136.884 30.7675 137.494 30.7675 138.209C30.7675 138.938 31.4566 139.203 32.9142 139.554C34.3189 139.905 36.0681 140.343 36.0681 142.185C36.0681 143.371 35.0941 144.378 33.7491 144.716V146.16H31.7614V144.716C30.4164 144.378 29.4424 143.371 29.4424 142.185Z" fill="#141414"/>
<path d="M11.6441 149.318C7.16946 149.318 3.54206 145.515 3.54206 140.824C3.54206 136.133 7.16946 132.33 11.6441 132.33C16.1187 132.33 19.7461 136.133 19.7461 140.824C19.7461 145.515 16.1187 149.318 11.6441 149.318Z" fill="#0962FF" stroke="#141414" stroke-width="0.19998" stroke-miterlimit="10"/>
<path d="M10.8042 148.67C6.32961 148.67 2.70222 144.867 2.70222 140.176C2.70222 135.485 6.32961 131.682 10.8042 131.682C15.2789 131.682 18.9062 135.485 18.9062 140.176C18.9062 144.867 15.2789 148.67 10.8042 148.67Z" fill="#D0E1FF" stroke="#141414" stroke-width="0.19998" stroke-miterlimit="10"/>
<path d="M7.44238 142.185H8.76752C8.76752 142.9 9.67524 143.51 10.7552 143.51C11.8352 143.51 12.7429 142.9 12.7429 142.185C12.7429 141.456 12.0539 141.191 10.5962 140.84C9.19156 140.488 7.44238 140.051 7.44238 138.209C7.44238 137.023 8.41636 136.016 9.76137 135.678V134.234H11.7491V135.678C13.0941 136.016 14.0681 137.023 14.0681 138.209H12.7429C12.7429 137.494 11.8352 136.884 10.7552 136.884C9.67524 136.884 8.76752 137.494 8.76752 138.209C8.76752 138.938 9.45659 139.203 10.9142 139.554C12.3189 139.905 14.0681 140.343 14.0681 142.185C14.0681 143.371 13.0941 144.378 11.7491 144.716V146.16H9.76137V144.716C8.41636 144.378 7.44238 143.371 7.44238 142.185Z" fill="#141414"/>
<path d="M70.6441 87.3183C66.1695 87.3183 62.5421 83.5153 62.5421 78.824C62.5421 74.1327 66.1695 70.3297 70.6441 70.3297C75.1187 70.3297 78.7461 74.1327 78.7461 78.824C78.7461 83.5153 75.1187 87.3183 70.6441 87.3183Z" fill="#0962FF" stroke="#141414" stroke-width="0.19998" stroke-miterlimit="10"/>
<path d="M69.8042 86.6704C65.3296 86.6704 61.7022 82.8673 61.7022 78.1761C61.7022 73.4848 65.3296 69.6818 69.8042 69.6818C74.2789 69.6818 77.9062 73.4848 77.9062 78.1761C77.9062 82.8673 74.2789 86.6704 69.8042 86.6704Z" fill="#D0E1FF" stroke="#141414" stroke-width="0.19998" stroke-miterlimit="10"/>
<path d="M66.4424 80.1846H67.7675C67.7675 80.9002 68.6752 81.5097 69.7552 81.5097C70.8352 81.5097 71.7429 80.9002 71.7429 80.1846C71.7429 79.4557 71.0539 79.1907 69.5962 78.8395C68.1916 78.4884 66.4424 78.0511 66.4424 76.2091C66.4424 75.0231 67.4164 74.016 68.7614 73.6781V72.2336H70.7491V73.6781C72.0941 74.016 73.0681 75.0231 73.0681 76.2091H71.7429C71.7429 75.4935 70.8352 74.884 69.7552 74.884C68.6752 74.884 67.7675 75.4935 67.7675 76.2091C67.7675 76.9379 68.4566 77.203 69.9142 77.5541C71.3189 77.9053 73.0681 78.3426 73.0681 80.1846C73.0681 81.3706 72.0941 82.3777 70.7491 82.7156V84.16H68.7614V82.7156C67.4164 82.3777 66.4424 81.3706 66.4424 80.1846Z" fill="#141414"/>
<defs>
<clipPath id="clip0_1237_7935">
<rect width="15.9016" height="15.9019" fill="white" transform="translate(56.6855 122.092) rotate(54.6483)"/>
</clipPath>
<clipPath id="clip1_1237_7935">
<rect width="15.9016" height="15.9019" fill="white" transform="translate(39.5938 115.05) rotate(60.3834)"/>
</clipPath>
</defs>
</svg>
