<svg width="505" height="34" viewBox="0 0 505 34" fill="none" xmlns="http://www.w3.org/2000/svg">
<path d="M28.478 32.8025L37.5849 16.9949L35.1787 12.7917L26.4983 27.8683C26.2241 28.3252 25.7368 28.6298 25.1886 28.6298H16.9954C16.5995 28.6298 16.2035 28.4775 15.9294 28.2034C15.6553 27.9293 15.4726 27.5333 15.4726 27.1374C15.4726 26.8632 15.5335 26.6196 15.6858 26.3759L26.4069 7.76621L21.5641 7.79667L12.0613 24.3352C11.7872 24.8226 11.2998 25.0967 10.7516 25.0967C10.2034 25.0967 9.71603 24.8226 9.44191 24.3352L5.29965 17.1777C5.17782 16.934 5.08645 16.6903 5.08645 16.4162C5.08645 16.1421 5.14736 15.8984 5.29965 15.6548L13.706 0.943665L8.86321 0.974122L0 16.3858L9.50283 32.8025H28.478Z" fill="#0765FF"/>
<path d="M36.214 0.974182L17.2388 1.00464L8.13196 16.8122L10.5381 21.0154L19.1881 5.96926C19.4623 5.51239 19.9496 5.20781 20.4978 5.20781H28.691C29.0869 5.20781 29.4829 5.3601 29.757 5.63422C30.0311 5.90834 30.2138 6.30429 30.2138 6.70024C30.2138 6.97436 30.1529 7.21803 30.0006 7.46169L19.2795 26.0714L24.1223 26.0409L33.6251 9.50236C33.8992 9.01504 34.3866 8.74092 34.9348 8.74092C35.483 8.74092 35.9704 9.01504 36.2445 9.50236L40.3867 16.6599C40.5086 16.9036 40.5999 17.1473 40.5999 17.4214C40.5999 17.6955 40.539 17.9392 40.3867 18.1828L31.9499 32.8635L36.7927 32.833L45.7473 17.3909L36.214 0.974182Z" fill="#0765FF"/>
<path d="M73.1447 8.43026C74.0864 8.43026 74.8869 8.52444 75.499 8.66569C76.1111 8.80695 76.629 9.08947 77.0057 9.46616C77.3824 9.84285 77.6649 10.3608 77.8533 10.9729C78.0416 11.585 78.0887 12.3855 78.0887 13.3272V25.3812H73.8981V14.1277C73.8981 13.751 73.8981 13.4214 73.851 13.1389C73.851 12.8563 73.7568 12.668 73.6626 12.5267C73.5685 12.3855 73.3801 12.2913 73.1447 12.2442C72.9092 12.1971 72.6267 12.1501 72.25 12.1501C71.3554 12.1501 70.7433 12.4326 70.5079 13.0447C70.2253 13.6568 70.0841 14.4102 70.0841 15.3048V25.3341H65.8934V14.0806C65.8934 13.6568 65.8934 13.3272 65.8463 13.0918C65.8463 12.8093 65.7522 12.6209 65.658 12.4326C65.5638 12.2442 65.3755 12.1501 65.1871 12.0559C64.9517 12.0088 64.6692 11.9617 64.2454 11.9617C63.8217 11.9617 63.4921 12.103 63.2095 12.3384C62.927 12.5738 62.6916 12.9034 62.5032 13.233C62.3149 13.6097 62.1736 14.0335 62.0795 14.4573C61.9853 14.881 61.9382 15.3048 61.9382 15.6815V25.3341H57.7476V8.71278H61.3261L61.6086 10.5021C62.0795 9.84285 62.5974 9.3249 63.2566 8.94821C63.9158 8.57152 64.6221 8.38318 65.4226 8.38318C66.4585 8.38318 67.2589 8.52444 67.871 8.80695C68.4832 9.08947 69.0011 9.70158 69.4249 10.6433C69.8487 9.9841 70.3666 9.46616 70.9787 8.9953C71.5908 8.61861 72.2971 8.43026 73.1447 8.43026Z" fill="#0765FF"/>
<path d="M85.1044 25.7109L80.3488 8.75995H84.6336L87.1291 21.379L89.5305 8.75995H93.8154L88.4005 28.0181C87.9296 29.6661 87.0821 30.8904 85.8578 31.7379C84.5865 32.5855 83.0797 33.0092 81.2434 33.0563L80.8196 29.9016C81.1963 29.9016 81.573 29.8074 81.9497 29.6661C82.3264 29.5249 82.7031 29.3836 83.0797 29.1953C83.4093 29.0069 83.7389 28.7715 83.9744 28.5361C84.2569 28.2535 84.3982 27.971 84.5394 27.6885L85.1044 25.7109Z" fill="#0765FF"/>
<path d="M111.708 8.43026C112.65 8.43026 113.45 8.52444 114.062 8.66569C114.675 8.80695 115.193 9.08947 115.569 9.46616C115.946 9.84285 116.228 10.3608 116.417 10.9729C116.605 11.585 116.652 12.3855 116.652 13.3272V25.3812H112.462V14.1277C112.462 13.751 112.462 13.4214 112.414 13.1389C112.414 12.8563 112.32 12.668 112.226 12.5267C112.132 12.3855 111.944 12.2913 111.708 12.2442C111.473 12.1971 111.19 12.1501 110.814 12.1501C109.919 12.1501 109.307 12.4326 109.071 13.0447C108.789 13.6568 108.648 14.4102 108.648 15.3048V25.3341H104.457V14.0806C104.457 13.6568 104.457 13.3272 104.41 13.0918C104.41 12.8093 104.316 12.6209 104.221 12.4326C104.127 12.2442 103.939 12.1501 103.751 12.0559C103.515 12.0088 103.233 11.9617 102.809 11.9617C102.385 11.9617 102.056 12.103 101.773 12.3384C101.49 12.5738 101.255 12.9034 101.067 13.233C100.878 13.6097 100.737 14.0335 100.643 14.4573C100.549 14.881 100.502 15.3048 100.502 15.6815V25.3341H96.311V8.71278H99.8896L100.172 10.5021C100.643 9.84285 101.161 9.3249 101.82 8.94821C102.479 8.57152 103.186 8.38318 103.986 8.38318C105.022 8.38318 105.822 8.52444 106.435 8.80695C107.047 9.08947 107.565 9.70158 107.988 10.6433C108.412 9.9841 108.93 9.46616 109.542 8.9953C110.154 8.61861 110.861 8.43026 111.708 8.43026Z" fill="#0765FF"/>
<path d="M126.257 8.43045C127.152 8.43045 127.952 8.57171 128.753 8.80714C129.553 9.04257 130.26 9.41925 130.825 9.9372C131.437 10.4551 131.908 11.0202 132.237 11.7736C132.567 12.4798 132.755 13.3274 132.755 14.2691V19.9194C132.755 20.8612 132.614 21.7087 132.284 22.415C131.955 23.1213 131.484 23.7334 130.919 24.2513C130.354 24.7222 129.648 25.0989 128.894 25.3814C128.094 25.6639 127.246 25.7581 126.352 25.7581C125.41 25.7581 124.515 25.6168 123.715 25.3814C122.914 25.146 122.208 24.7693 121.596 24.2513C120.984 23.7334 120.513 23.1213 120.183 22.415C119.854 21.7087 119.712 20.8612 119.712 19.9194V14.2691C119.712 13.3274 119.901 12.4798 120.23 11.7736C120.56 11.0673 121.031 10.4551 121.643 9.9372C122.208 9.41925 122.914 9.08966 123.715 8.80714C124.468 8.52462 125.316 8.43045 126.257 8.43045ZM128.565 14.1749C128.565 13.3274 128.376 12.7624 128.047 12.5269C127.717 12.2915 127.105 12.1502 126.257 12.1502C125.504 12.1502 124.892 12.2915 124.515 12.6211C124.091 12.9507 123.903 13.4687 123.903 14.1749V19.8253C123.903 20.7199 124.091 21.332 124.421 21.5674C124.751 21.85 125.41 21.9441 126.352 21.9441C127.058 21.9441 127.623 21.8029 128 21.4733C128.376 21.1437 128.565 20.6257 128.565 19.8253V14.1749Z" fill="#0765FF"/>
<path d="M143.915 8.38318C145.798 8.38318 147.117 8.85404 147.87 9.84284C148.623 10.7846 149 12.2442 149 14.1748V25.3812H144.809V14.881C144.809 14.1277 144.668 13.4685 144.433 12.9034C144.15 12.3855 143.679 12.103 142.879 12.103C142.455 12.103 142.126 12.1971 141.796 12.3855C141.466 12.5738 141.184 12.8093 140.948 13.1389C140.713 13.4685 140.525 13.7981 140.383 14.2218C140.242 14.5985 140.195 15.0223 140.195 15.4461V25.3812H136.004V8.75987H139.771L140.101 10.5021C140.572 9.74868 141.09 9.23073 141.702 8.90112C142.267 8.57152 143.02 8.38318 143.915 8.38318Z" fill="#0765FF"/>
<path d="M159.124 21.991C159.83 21.991 160.489 21.8498 161.007 21.5202C161.525 21.1906 162.09 20.7668 162.702 20.1547L164.868 22.8386C163.973 23.7803 163.079 24.4866 162.184 25.0045C161.29 25.4754 160.159 25.7108 158.888 25.7108C156.675 25.7108 155.027 25.24 153.85 24.2982C152.673 23.3565 152.061 21.8027 152.061 19.6367V14.1748C152.061 12.2442 152.626 10.8316 153.803 9.84284C154.98 8.90112 156.534 8.38318 158.464 8.38318C159.359 8.38318 160.159 8.52444 160.913 8.80695C161.666 9.08947 162.278 9.46615 162.843 9.93701C163.361 10.455 163.785 11.0671 164.068 11.7734C164.35 12.4797 164.491 13.2801 164.491 14.1748V17.2353L156.11 18.7421V19.6367C156.11 20.4843 156.393 21.0493 156.958 21.426C157.57 21.8027 158.276 21.991 159.124 21.991ZM158.511 12.1501C157.805 12.1501 157.193 12.2913 156.769 12.6209C156.345 12.9505 156.11 13.4685 156.11 14.1277V15.964L160.348 15.2107V14.2218C160.348 13.5626 160.207 13.0447 159.924 12.668C159.642 12.3384 159.124 12.1501 158.511 12.1501Z" fill="#0765FF"/>
<path d="M171.131 25.7109L166.375 8.75995H170.66L173.156 21.379L175.557 8.75995H179.842L174.427 28.0181C173.956 29.6661 173.109 30.8904 171.884 31.7379C170.613 32.5855 169.106 33.0092 167.27 33.0563L166.846 29.9016C167.223 29.9016 167.599 29.8074 167.976 29.6661C168.353 29.5249 168.73 29.3836 169.106 29.1953C169.436 29.0069 169.765 28.7715 170.001 28.5361C170.283 28.2535 170.425 27.971 170.566 27.6885L171.131 25.7109Z" fill="#0765FF"/>
<path d="M180.925 20.8136H185.256V25.381H180.925V20.8136Z" fill="#0765FF"/>
<path d="M195.568 12.1501C194.203 12.1501 193.496 12.8563 193.496 14.2218V19.9193C193.496 20.6726 193.685 21.1906 194.108 21.5202C194.485 21.8498 195.097 21.991 195.804 21.991C196.416 21.991 196.981 21.8969 197.452 21.6614C197.969 21.426 198.393 21.0964 198.817 20.5785L201.313 23.1682C200.465 24.0628 199.617 24.6749 198.77 25.0987C197.922 25.5225 196.839 25.7108 195.615 25.7108C193.732 25.7108 192.225 25.24 191.095 24.2512C189.965 23.2624 189.447 21.8027 189.447 19.9193V14.2218C189.447 13.3272 189.588 12.5267 189.918 11.8205C190.2 11.1142 190.624 10.502 191.189 9.9841C191.707 9.46616 192.366 9.08947 193.12 8.80695C193.873 8.52444 194.721 8.38318 195.615 8.38318C196.886 8.38318 197.969 8.57152 198.864 8.9953C199.759 9.37199 200.606 10.1254 201.407 11.2554L198.77 13.8452C198.346 13.3272 197.875 12.9034 197.357 12.5738C196.792 12.2913 196.18 12.1501 195.568 12.1501Z" fill="#0765FF"/>
<path d="M211.013 8.52454C211.531 8.52454 211.907 8.57162 212.143 8.66579C212.378 8.75996 212.614 8.85414 212.849 8.9954L212.143 12.7623C211.531 12.4327 210.918 12.2914 210.4 12.2914C209.788 12.2914 209.317 12.5268 208.941 12.9506C208.564 13.3744 208.376 14.0336 208.376 14.9282V25.4284H204.279V8.80705H207.34L207.811 10.5492C208.282 9.79586 208.752 9.27791 209.27 8.9954C209.788 8.66579 210.353 8.52454 211.013 8.52454Z" fill="#0765FF"/>
<path d="M221.23 21.991C221.936 21.991 222.595 21.8498 223.113 21.5202C223.631 21.1906 224.196 20.7668 224.808 20.1547L226.974 22.8386C226.08 23.7803 225.185 24.4866 224.29 25.0045C223.396 25.4754 222.266 25.7108 220.994 25.7108C218.781 25.7108 217.133 25.24 215.956 24.2982C214.779 23.3565 214.167 21.8027 214.167 19.6367V14.1748C214.167 12.2442 214.732 10.8316 215.909 9.84284C217.086 8.90112 218.64 8.38318 220.571 8.38318C221.465 8.38318 222.266 8.52444 223.019 8.80695C223.773 9.08947 224.385 9.46615 224.95 9.93701C225.468 10.455 225.891 11.0671 226.174 11.7734C226.456 12.4797 226.598 13.2801 226.598 14.1748V17.2353L218.216 18.7421V19.6367C218.216 20.4843 218.499 21.0493 219.064 21.426C219.676 21.8027 220.382 21.991 221.23 21.991ZM220.618 12.1501C219.911 12.1501 219.299 12.2913 218.876 12.6209C218.452 12.9505 218.216 13.4685 218.216 14.1277V15.964L222.454 15.2107V14.2218C222.454 13.5626 222.313 13.0447 222.03 12.668C221.748 12.3384 221.23 12.1501 220.618 12.1501Z" fill="#0765FF"/>
<path d="M238.087 0.943665H242.372V25.3813H239.028L238.463 23.9687C237.946 24.4396 237.428 24.8163 236.91 25.1459C236.345 25.4755 235.78 25.6167 235.12 25.6167C231.259 25.6167 229.376 23.6862 229.376 19.8722V14.1748C229.376 12.2443 229.847 10.7846 230.788 9.84292C231.73 8.85411 233.19 8.38325 235.167 8.38325C235.544 8.38325 235.827 8.38325 236.109 8.43034C236.392 8.47742 236.627 8.52451 236.815 8.61868C237.051 8.71285 237.239 8.85411 237.475 9.04245C237.663 9.2308 237.898 9.46623 238.181 9.70166V0.943665H238.087ZM238.134 14.7399C238.134 13.9394 237.946 13.3273 237.522 12.8093C237.145 12.3385 236.533 12.103 235.732 12.103C234.979 12.103 234.414 12.2443 234.037 12.5739C233.661 12.9035 233.472 13.4215 233.472 14.1277V19.7781C233.472 20.6256 233.614 21.1906 233.943 21.4261C234.273 21.7086 234.838 21.8498 235.685 21.8498C236.439 21.8498 237.004 21.6144 237.475 21.1436C237.898 20.6727 238.134 20.0606 238.134 19.2601V14.7399Z" fill="#0765FF"/>
<path d="M246.562 2.30908H250.753V6.59391H246.562V2.30908ZM246.562 8.75987H250.753V25.3812H246.562V8.75987Z" fill="#0765FF"/>
<path d="M261.018 21.897C261.677 21.897 262.242 21.8029 262.666 21.6616C263.089 21.5203 263.513 21.332 263.937 21.1907L264.737 24.1572C264.031 24.5339 263.325 24.8635 262.571 25.146C261.818 25.4285 261.112 25.6168 260.405 25.6168C258.757 25.6168 257.627 25.3343 256.968 24.7222C256.309 24.1101 255.932 23.0271 255.932 21.3791V11.6323H253.343V8.76004H255.932V3.8631H260.123V8.76004H263.325V11.6323H260.123V20.8141C260.123 21.0495 260.217 21.2849 260.358 21.5203C260.594 21.7558 260.782 21.897 261.018 21.897Z" fill="#0765FF"/>
</svg>
