<svg width="68" height="68" viewBox="0 0 68 68" fill="none" xmlns="http://www.w3.org/2000/svg">
<g clip-path="url(#clip0_1051_42888)">
<rect width="8.53963" height="2" rx="1" transform="matrix(-0.716594 -0.69749 -0.69749 0.716594 26.0927 29.9996)" fill="url(#paint0_linear_1051_42888)"/>
<path d="M23.8629 30.8099C24.2626 31.191 24.8956 31.1759 25.2768 30.7762L36.3664 19.1458C36.7475 18.7461 36.7324 18.1131 36.3327 17.732C35.933 17.3509 35.3 17.3659 34.9189 17.7656L23.8293 29.396C23.4482 29.7958 23.4632 30.4287 23.8629 30.8099Z" fill="url(#paint1_linear_1051_42888)"/>
<path fill-rule="evenodd" clip-rule="evenodd" d="M40.0763 5.10242H35.1405V5.57522C35.1405 6.1275 34.6928 6.57522 34.1405 6.57522H20.9318C20.3795 6.57522 19.9318 6.1275 19.9318 5.57522V5.10242H14.4374C13.8851 5.10242 13.4374 5.55013 13.4374 6.10242V59.6024C13.4374 60.1547 13.8851 60.6024 14.4374 60.6024H40.0763C40.6285 60.6024 41.0763 60.1547 41.0763 59.6024V59.5424H43.0763V59.6024C43.0763 61.2593 41.7331 62.6024 40.0763 62.6024H14.4374C12.7805 62.6024 11.4374 61.2593 11.4374 59.6024V6.10242C11.4374 4.44556 12.7805 3.10242 14.4374 3.10242H40.0763C41.7331 3.10242 43.0763 4.44556 43.0763 6.10242V30.4601H41.0763V6.10242C41.0763 5.55013 40.6285 5.10242 40.0763 5.10242Z" fill="url(#paint2_linear_1051_42888)"/>
<path d="M39.9025 33.5203C38.4025 34.5203 38.4026 36.0205 39.4026 38.0205L46.4027 52.0205C45.736 51.5205 44.0026 50.3203 42.4026 49.5203C40.4026 48.5203 38.4025 48.5203 37.4025 50.0203C36.4025 51.5203 37.4025 53.0203 38.9025 54.0203L44.9025 58.0203C46.7359 59.3536 51.8026 61.2203 57.4026 58.0203C64.4026 54.0203 61.9026 46.5203 61.4026 45.0203C60.9026 43.5203 59.4026 40.5203 58.9026 39.5203C58.4026 38.5203 56.9026 36.7203 54.9026 37.5203C53.4026 38.1203 52.9026 40.0203 53.4026 41.5203C52.9026 40.5203 51.9026 38.0205 49.4026 39.0203C47.4026 39.8201 47.9026 42.0202 48.4026 43.0203C47.2359 40.6869 44.7025 35.7203 43.9025 34.5203C42.9025 33.0203 41.4025 32.5203 39.9025 33.5203Z" stroke="url(#paint3_linear_1051_42888)" stroke-width="2" stroke-linecap="round" stroke-linejoin="round"/>
</g>
<defs>
<linearGradient id="paint0_linear_1051_42888" x1="4.26981" y1="0" x2="4.26981" y2="2" gradientUnits="userSpaceOnUse">
<stop offset="0.766667" stop-color="#05A8EC"/>
<stop offset="1" stop-color="#9F83F1"/>
</linearGradient>
<linearGradient id="paint1_linear_1051_42888" x1="36.6023" y1="17.0512" x2="24.0475" y2="29.853" gradientUnits="userSpaceOnUse">
<stop offset="0.766667" stop-color="#05A8EC"/>
<stop offset="1" stop-color="#9F83F1"/>
</linearGradient>
<linearGradient id="paint2_linear_1051_42888" x1="27.2568" y1="3.10242" x2="27.2568" y2="62.6024" gradientUnits="userSpaceOnUse">
<stop offset="0.714583" stop-color="#05A8EC"/>
<stop offset="1" stop-color="#9F83F1"/>
</linearGradient>
<linearGradient id="paint3_linear_1051_42888" x1="49.6224" y1="33" x2="49.6224" y2="59.7871" gradientUnits="userSpaceOnUse">
<stop offset="0.730208" stop-color="#05A8EC"/>
<stop offset="1" stop-color="#9F83F1"/>
</linearGradient>
<clipPath id="clip0_1051_42888">
<rect width="68" height="68" fill="white"/>
</clipPath>
</defs>
</svg>
