<svg width="68" height="68" viewBox="0 0 68 68" fill="none" xmlns="http://www.w3.org/2000/svg">
<path d="M18.1912 25.3665V19.3189C18.1909 19.0537 18.121 18.7933 17.9883 18.5638C17.8556 18.3342 17.6649 18.1436 17.4353 18.0111L12.1436 14.9872C11.9137 14.8545 11.653 14.7847 11.3876 14.7847C11.1222 14.7847 10.8615 14.8545 10.6316 14.9872L5.33994 18.0111C5.11033 18.1436 4.91961 18.3342 4.78693 18.5638C4.65425 18.7933 4.58426 19.0537 4.58398 19.3189V25.3665C4.58426 25.6317 4.65425 25.8921 4.78693 26.1216C4.91961 26.3511 5.11033 26.5418 5.33994 26.6743L10.6316 29.6982C10.8615 29.8309 11.1222 29.9007 11.3876 29.9007C11.653 29.9007 11.9137 29.8309 12.1436 29.6982L17.4353 26.6743C17.6649 26.5418 17.8556 26.3511 17.9883 26.1216C18.121 25.8921 18.1909 25.6317 18.1912 25.3665Z" stroke="url(#paint0_linear_1051_42783)" stroke-width="2" stroke-linecap="round" stroke-linejoin="round"/>
<path d="M4.78809 18.5327L11.3876 22.3503L17.9871 18.5327" stroke="url(#paint1_linear_1051_42783)" stroke-width="2" stroke-linecap="round" stroke-linejoin="round"/>
<path d="M11.3876 29.9627V22.3427" stroke="url(#paint2_linear_1051_42783)" stroke-width="2" stroke-linecap="round" stroke-linejoin="round"/>
<path d="M63.4158 25.3665V19.3189C63.4155 19.0537 63.3455 18.7933 63.2128 18.5638C63.0801 18.3342 62.8894 18.1436 62.6598 18.0111L57.3681 14.9872C57.1383 14.8545 56.8775 14.7847 56.6121 14.7847C56.3468 14.7847 56.086 14.8545 55.8562 14.9872L50.5645 18.0111C50.3349 18.1436 50.1442 18.3342 50.0115 18.5638C49.8788 18.7933 49.8088 19.0537 49.8085 19.3189V25.3665C49.8088 25.6317 49.8788 25.8921 50.0115 26.1216C50.1442 26.3511 50.3349 26.5418 50.5645 26.6743L55.8562 29.6982C56.086 29.8309 56.3468 29.9007 56.6121 29.9007C56.8775 29.9007 57.1383 29.8309 57.3681 29.6982L62.6598 26.6743C62.8894 26.5418 63.0801 26.3511 63.2128 26.1216C63.3455 25.8921 63.4155 25.6317 63.4158 25.3665Z" stroke="url(#paint3_linear_1051_42783)" stroke-width="2" stroke-linecap="round" stroke-linejoin="round"/>
<path d="M50.0126 18.5327L56.6121 22.3503L63.2117 18.5327" stroke="url(#paint4_linear_1051_42783)" stroke-width="2" stroke-linecap="round" stroke-linejoin="round"/>
<path d="M56.6121 29.9627V22.3427" stroke="url(#paint5_linear_1051_42783)" stroke-width="2" stroke-linecap="round" stroke-linejoin="round"/>
<path d="M40.8036 13.2946V7.24696C40.8034 6.98183 40.7334 6.72143 40.6007 6.49188C40.468 6.26234 40.2773 6.07172 40.0477 5.93916L34.756 2.91533C34.5261 2.78263 34.2654 2.71277 34 2.71277C33.7346 2.71277 33.4739 2.78263 33.2441 2.91533L27.9524 5.93916C27.7228 6.07172 27.532 6.26234 27.3994 6.49188C27.2667 6.72143 27.1967 6.98183 27.1964 7.24696V13.2946C27.1967 13.5598 27.2667 13.8202 27.3994 14.0497C27.532 14.2792 27.7228 14.4699 27.9524 14.6024L33.2441 17.6263C33.4739 17.759 33.7346 17.8288 34 17.8288C34.2654 17.8288 34.5261 17.759 34.756 17.6263L40.0477 14.6024C40.2773 14.4699 40.468 14.2792 40.6007 14.0497C40.7334 13.8202 40.8034 13.5598 40.8036 13.2946Z" stroke="url(#paint6_linear_1051_42783)" stroke-width="2" stroke-linecap="round" stroke-linejoin="round"/>
<path d="M27.4005 6.46082L34 10.2784L40.5995 6.46082" stroke="url(#paint7_linear_1051_42783)" stroke-width="2" stroke-linecap="round" stroke-linejoin="round"/>
<path d="M34 17.8908V10.2708" stroke="url(#paint8_linear_1051_42783)" stroke-width="2" stroke-linecap="round" stroke-linejoin="round"/>
<path d="M40.8036 60.6909V54.6433C40.8034 54.3781 40.7334 54.1177 40.6007 53.8882C40.468 53.6586 40.2773 53.468 40.0477 53.3355L34.756 50.3116C34.5261 50.1789 34.2654 50.1091 34 50.1091C33.7346 50.1091 33.4739 50.1789 33.2441 50.3116L27.9524 53.3355C27.7228 53.468 27.532 53.6586 27.3994 53.8882C27.2667 54.1177 27.1967 54.3781 27.1964 54.6433V60.6909C27.1967 60.9561 27.2667 61.2165 27.3994 61.446C27.532 61.6755 27.7228 61.8662 27.9524 61.9987L33.2441 65.0226C33.4739 65.1553 33.7346 65.2251 34 65.2251C34.2654 65.2251 34.5261 65.1553 34.756 65.0226L40.0477 61.9987C40.2773 61.8662 40.468 61.6755 40.6007 61.446C40.7334 61.2165 40.8034 60.9561 40.8036 60.6909Z" stroke="url(#paint9_linear_1051_42783)" stroke-width="2" stroke-linecap="round" stroke-linejoin="round"/>
<path d="M27.4005 53.8571L34 57.6746L40.5995 53.8571" stroke="url(#paint10_linear_1051_42783)" stroke-width="2" stroke-linecap="round" stroke-linejoin="round"/>
<path d="M34 65.2872V57.6671" stroke="url(#paint11_linear_1051_42783)" stroke-width="2" stroke-linecap="round" stroke-linejoin="round"/>
<path d="M18.1912 47.1135V41.0658C18.1909 40.8007 18.121 40.5403 17.9883 40.3107C17.8556 40.0812 17.6649 39.8906 17.4353 39.758L12.1436 36.7342C11.9137 36.6015 11.653 36.5316 11.3876 36.5316C11.1222 36.5316 10.8615 36.6015 10.6316 36.7342L5.33994 39.758C5.11033 39.8906 4.91961 40.0812 4.78693 40.3107C4.65425 40.5403 4.58426 40.8007 4.58398 41.0658V47.1135C4.58426 47.3786 4.65425 47.639 4.78693 47.8685C4.91961 48.0981 5.11033 48.2887 5.33994 48.4213L10.6316 51.4451C10.8615 51.5778 11.1222 51.6477 11.3876 51.6477C11.653 51.6477 11.9137 51.5778 12.1436 51.4451L17.4353 48.4213C17.6649 48.2887 17.8556 48.0981 17.9883 47.8685C18.121 47.639 18.1909 47.3786 18.1912 47.1135Z" stroke="url(#paint12_linear_1051_42783)" stroke-width="2" stroke-linecap="round" stroke-linejoin="round"/>
<path d="M4.78809 40.2797L11.3876 44.0972L17.9871 40.2797" stroke="url(#paint13_linear_1051_42783)" stroke-width="2" stroke-linecap="round" stroke-linejoin="round"/>
<path d="M11.3876 51.7096V44.0896" stroke="url(#paint14_linear_1051_42783)" stroke-width="2" stroke-linecap="round" stroke-linejoin="round"/>
<path d="M63.4158 47.1135V41.0658C63.4155 40.8007 63.3455 40.5403 63.2128 40.3107C63.0801 40.0812 62.8894 39.8906 62.6598 39.758L57.3681 36.7342C57.1383 36.6015 56.8775 36.5316 56.6121 36.5316C56.3468 36.5316 56.086 36.6015 55.8562 36.7342L50.5645 39.758C50.3349 39.8906 50.1442 40.0812 50.0115 40.3107C49.8788 40.5403 49.8088 40.8007 49.8085 41.0658V47.1135C49.8088 47.3786 49.8788 47.639 50.0115 47.8685C50.1442 48.0981 50.3349 48.2887 50.5645 48.4213L55.8562 51.4451C56.086 51.5778 56.3468 51.6477 56.6121 51.6477C56.8775 51.6477 57.1383 51.5778 57.3681 51.4451L62.6598 48.4213C62.8894 48.2887 63.0801 48.0981 63.2128 47.8685C63.3455 47.639 63.4155 47.3786 63.4158 47.1135Z" stroke="url(#paint15_linear_1051_42783)" stroke-width="2" stroke-linecap="round" stroke-linejoin="round"/>
<path d="M50.0126 40.2797L56.6121 44.0972L63.2117 40.2797" stroke="url(#paint16_linear_1051_42783)" stroke-width="2" stroke-linecap="round" stroke-linejoin="round"/>
<path d="M56.6121 51.7096V44.0896" stroke="url(#paint17_linear_1051_42783)" stroke-width="2" stroke-linecap="round" stroke-linejoin="round"/>
<path d="M38.0392 27.004C36.6556 26.2052 35.0661 25.8346 33.4719 25.9391C31.8776 26.0436 30.3502 26.6185 29.0826 27.5911C27.8151 28.5637 26.8645 29.8903 26.3509 31.4032C25.8374 32.9161 25.784 34.5473 26.1975 36.0905C26.611 37.6337 27.4728 39.0197 28.674 40.0731C29.8752 41.1265 31.3618 41.8001 32.9458 42.0086C34.5298 42.2172 36.1401 41.9513 37.573 41.2447C39.0059 40.5381 40.1971 39.4224 40.9959 38.0388C42.0647 36.1828 42.3536 33.9787 41.7993 31.91C41.245 29.8413 39.8927 28.077 38.0392 27.004V27.004ZM30.971 39.2466C29.9332 38.6474 29.0965 37.7541 28.5665 36.6794C28.0365 35.6047 27.8371 34.397 27.9935 33.209C28.1499 32.021 28.6551 30.906 29.4452 30.0051C30.2352 29.1042 31.2747 28.4578 32.4321 28.1477C33.5896 27.8376 34.813 27.8776 35.9476 28.2628C37.0823 28.648 38.0773 29.361 38.8067 30.3116C39.5362 31.2622 39.9673 32.4078 40.0457 33.6035C40.1241 34.7992 39.8461 35.9913 39.247 37.029C38.4423 38.4192 37.119 39.4333 35.5675 39.8491C34.016 40.2648 32.3629 40.0481 30.971 39.2466V39.2466ZM47.5122 38.1157C47.5979 37.8286 47.6189 37.5261 47.5736 37.23C47.5282 36.9338 47.4178 36.6514 47.2501 36.4032L46.1173 34.7038L46.1172 33.2958L47.2501 31.5964C47.4178 31.3481 47.5283 31.0658 47.5737 30.7696C47.619 30.4735 47.598 30.171 47.5123 29.884C46.8984 27.8158 45.8048 25.9217 44.3206 24.3559C44.1149 24.1381 43.8634 23.9688 43.5843 23.8599C43.3052 23.7511 43.0054 23.7056 42.7066 23.7267L40.6685 23.8581L39.4491 23.154L38.5438 21.3234C38.4127 21.054 38.2234 20.8171 37.9896 20.6297C37.7558 20.4423 37.4833 20.3092 37.1919 20.24C35.0938 19.7376 32.9067 19.7376 30.8086 20.24C30.5171 20.3093 30.2447 20.4423 30.0109 20.6297C29.7771 20.817 29.5878 21.0539 29.4566 21.3232L28.5514 23.154L27.3319 23.858L25.2938 23.7266C24.9949 23.7055 24.6952 23.751 24.416 23.8598C24.1369 23.9686 23.8854 24.138 23.6797 24.3558C22.1956 25.9216 21.1021 27.8156 20.4881 29.8838C20.4024 30.1709 20.3814 30.4734 20.4267 30.7695C20.472 31.0656 20.5825 31.348 20.7502 31.5963L21.883 33.2956L21.883 34.7037L20.7502 36.4031C20.5825 36.6513 20.472 36.9337 20.4266 37.2298C20.3813 37.5259 20.4023 37.8284 20.488 38.1155C21.1019 40.1837 22.1955 42.0778 23.6796 43.6436C23.8853 43.8614 24.1368 44.0308 24.4159 44.1396C24.6951 44.2484 24.9949 44.2939 25.2937 44.2728L27.3318 44.1414L28.5512 44.8454L29.4565 46.6761C29.6345 47.0394 29.9163 47.3417 30.2662 47.5449C30.4354 47.6426 30.6181 47.7149 30.8084 47.7595C32.9065 48.2619 35.0936 48.2619 37.1917 47.7595C37.4831 47.6902 37.7556 47.5571 37.9894 47.3698C38.2232 47.1825 38.4125 46.9456 38.5437 46.6763L39.4489 44.8455L40.6684 44.1415L42.7065 44.2729C43.0053 44.294 43.3051 44.2485 43.5842 44.1397C43.8633 44.0309 44.1148 43.8615 44.3206 43.6437C45.8047 42.0779 46.8982 40.1839 47.5122 38.1157L47.5122 38.1157ZM42.8561 42.255C42.8498 42.2573 42.8431 42.2582 42.8365 42.2576L40.1881 42.0868L37.9097 43.4023L36.7334 45.7811C36.7294 45.7892 36.7247 45.7941 36.7283 45.7938C34.9373 46.2234 33.0703 46.2244 31.2788 45.7968C31.2737 45.7925 31.2696 45.7872 31.2668 45.781L30.0905 43.4022L27.812 42.0867L25.1638 42.2575C25.1548 42.2581 25.148 42.2564 25.1503 42.2595C23.8827 40.9233 22.9483 39.3068 22.423 37.5415C22.424 37.5349 22.4266 37.5287 22.4305 37.5233L23.9025 35.3151L23.9025 32.6842L22.4306 30.4762C22.4284 30.4721 22.426 30.4683 22.4234 30.4646C22.4229 30.4643 22.4224 30.4645 22.422 30.4654C22.9455 28.6996 23.8782 27.0821 25.1442 25.7445C25.1505 25.7422 25.1572 25.7413 25.1638 25.7419L27.8122 25.9127L30.0906 24.5972L31.2669 22.2184C31.271 22.2102 31.2758 22.2051 31.2719 22.2056C33.0629 21.7761 34.93 21.7751 36.7214 22.2027C36.7266 22.2069 36.7307 22.2123 36.7335 22.2184L37.9098 24.5973L40.1882 25.9127L42.8364 25.742C42.8455 25.7414 42.8523 25.7431 42.85 25.74C44.1175 27.0762 45.052 28.6927 45.5773 30.4579C45.5762 30.4645 45.5737 30.4708 45.5698 30.4762L44.0978 32.6843L44.0977 35.3153L45.5697 37.5233C45.5748 37.531 45.5766 37.5377 45.5783 37.534C45.0548 39.2999 44.1221 40.9173 42.8561 42.255L42.8561 42.255Z" fill="url(#paint18_linear_1051_42783)"/>
<defs>
<linearGradient id="paint0_linear_1051_42783" x1="11.3876" y1="14.7847" x2="11.3876" y2="29.9007" gradientUnits="userSpaceOnUse">
<stop offset="0.730208" stop-color="#05A8EC"/>
<stop offset="1" stop-color="#9F83F1"/>
</linearGradient>
<linearGradient id="paint1_linear_1051_42783" x1="11.3876" y1="18.5327" x2="11.3876" y2="22.3503" gradientUnits="userSpaceOnUse">
<stop offset="0.730208" stop-color="#05A8EC"/>
<stop offset="1" stop-color="#9F83F1"/>
</linearGradient>
<linearGradient id="paint2_linear_1051_42783" x1="11.8876" y1="22.3427" x2="11.8876" y2="29.9627" gradientUnits="userSpaceOnUse">
<stop offset="0.730208" stop-color="#05A8EC"/>
<stop offset="1" stop-color="#9F83F1"/>
</linearGradient>
<linearGradient id="paint3_linear_1051_42783" x1="56.6121" y1="14.7847" x2="56.6121" y2="29.9007" gradientUnits="userSpaceOnUse">
<stop offset="0.730208" stop-color="#05A8EC"/>
<stop offset="1" stop-color="#9F83F1"/>
</linearGradient>
<linearGradient id="paint4_linear_1051_42783" x1="56.6121" y1="18.5327" x2="56.6121" y2="22.3503" gradientUnits="userSpaceOnUse">
<stop offset="0.730208" stop-color="#05A8EC"/>
<stop offset="1" stop-color="#9F83F1"/>
</linearGradient>
<linearGradient id="paint5_linear_1051_42783" x1="57.1121" y1="22.3427" x2="57.1121" y2="29.9627" gradientUnits="userSpaceOnUse">
<stop offset="0.730208" stop-color="#05A8EC"/>
<stop offset="1" stop-color="#9F83F1"/>
</linearGradient>
<linearGradient id="paint6_linear_1051_42783" x1="34" y1="2.71277" x2="34" y2="17.8288" gradientUnits="userSpaceOnUse">
<stop offset="0.730208" stop-color="#05A8EC"/>
<stop offset="1" stop-color="#9F83F1"/>
</linearGradient>
<linearGradient id="paint7_linear_1051_42783" x1="34" y1="6.46082" x2="34" y2="10.2784" gradientUnits="userSpaceOnUse">
<stop offset="0.730208" stop-color="#05A8EC"/>
<stop offset="1" stop-color="#9F83F1"/>
</linearGradient>
<linearGradient id="paint8_linear_1051_42783" x1="34.5" y1="10.2708" x2="34.5" y2="17.8908" gradientUnits="userSpaceOnUse">
<stop offset="0.730208" stop-color="#05A8EC"/>
<stop offset="1" stop-color="#9F83F1"/>
</linearGradient>
<linearGradient id="paint9_linear_1051_42783" x1="34" y1="50.1091" x2="34" y2="65.2251" gradientUnits="userSpaceOnUse">
<stop offset="0.730208" stop-color="#05A8EC"/>
<stop offset="1" stop-color="#9F83F1"/>
</linearGradient>
<linearGradient id="paint10_linear_1051_42783" x1="34" y1="53.8571" x2="34" y2="57.6746" gradientUnits="userSpaceOnUse">
<stop offset="0.730208" stop-color="#05A8EC"/>
<stop offset="1" stop-color="#9F83F1"/>
</linearGradient>
<linearGradient id="paint11_linear_1051_42783" x1="34.5" y1="57.6671" x2="34.5" y2="65.2872" gradientUnits="userSpaceOnUse">
<stop offset="0.730208" stop-color="#05A8EC"/>
<stop offset="1" stop-color="#9F83F1"/>
</linearGradient>
<linearGradient id="paint12_linear_1051_42783" x1="11.3876" y1="36.5316" x2="11.3876" y2="51.6477" gradientUnits="userSpaceOnUse">
<stop offset="0.730208" stop-color="#05A8EC"/>
<stop offset="1" stop-color="#9F83F1"/>
</linearGradient>
<linearGradient id="paint13_linear_1051_42783" x1="11.3876" y1="40.2797" x2="11.3876" y2="44.0972" gradientUnits="userSpaceOnUse">
<stop offset="0.730208" stop-color="#05A8EC"/>
<stop offset="1" stop-color="#9F83F1"/>
</linearGradient>
<linearGradient id="paint14_linear_1051_42783" x1="11.8876" y1="44.0896" x2="11.8876" y2="51.7097" gradientUnits="userSpaceOnUse">
<stop offset="0.730208" stop-color="#05A8EC"/>
<stop offset="1" stop-color="#9F83F1"/>
</linearGradient>
<linearGradient id="paint15_linear_1051_42783" x1="56.6121" y1="36.5316" x2="56.6121" y2="51.6477" gradientUnits="userSpaceOnUse">
<stop offset="0.730208" stop-color="#05A8EC"/>
<stop offset="1" stop-color="#9F83F1"/>
</linearGradient>
<linearGradient id="paint16_linear_1051_42783" x1="56.6121" y1="40.2797" x2="56.6121" y2="44.0972" gradientUnits="userSpaceOnUse">
<stop offset="0.730208" stop-color="#05A8EC"/>
<stop offset="1" stop-color="#9F83F1"/>
</linearGradient>
<linearGradient id="paint17_linear_1051_42783" x1="57.1121" y1="44.0896" x2="57.1121" y2="51.7097" gradientUnits="userSpaceOnUse">
<stop offset="0.730208" stop-color="#05A8EC"/>
<stop offset="1" stop-color="#9F83F1"/>
</linearGradient>
<linearGradient id="paint18_linear_1051_42783" x1="27.2014" y1="19.5441" x2="27.2014" y2="45.7754" gradientUnits="userSpaceOnUse">
<stop offset="0.730208" stop-color="#05A8EC"/>
<stop offset="1" stop-color="#9F83F1"/>
</linearGradient>
</defs>
</svg>
