<svg width="68" height="68" viewBox="0 0 68 68" fill="none" xmlns="http://www.w3.org/2000/svg">
<path d="M34 35.3986C28.6049 35.3986 24.2307 39.7728 24.2307 45.168C24.2307 50.5631 28.6049 54.9373 34 54.9373C39.3951 54.9373 43.7694 50.5631 43.7694 45.168C43.7694 39.7728 39.3951 35.3986 34 35.3986ZM37.8223 52.8003L37.3704 51.7012L36.247 52.1653L36.6988 53.2643C35.894 53.5452 34.966 53.7076 34 53.7076C33.0341 53.7076 32.106 53.5452 31.2414 53.246L31.7531 52.1653L30.6296 51.7012L30.1777 52.8003C28.5231 51.9577 27.2103 50.6449 26.3897 49.0391L27.4668 48.5384L27.0027 47.4027L25.9037 47.8545C25.6228 47.0498 25.4604 46.1217 25.4604 45.1558C25.4604 44.1898 25.6228 43.2617 25.922 42.3971L27.0027 42.9088L27.4668 41.7853L26.3677 41.3335C27.2115 39.6837 28.5243 38.3746 30.1289 37.5576L30.6296 38.6347L31.7531 38.1707L31.3012 37.0716C32.106 36.7908 33.0341 36.6283 34 36.6283C34.966 36.6283 35.894 36.7908 36.7586 37.0899L36.247 38.1707L37.3704 38.6347L37.8223 37.5357C39.4769 38.3783 40.7897 39.691 41.6103 41.2969L40.5333 41.7975L40.9973 42.921L42.0964 42.4692C42.3772 43.2739 42.5396 44.202 42.5396 45.168C42.5396 46.1339 42.3772 47.062 42.078 47.9266L40.9973 47.4149L40.5333 48.5384L41.6323 48.9902C40.7897 50.6449 39.4769 51.9577 37.8711 52.7783L37.8223 52.8003Z" fill="url(#paint0_linear_1051_42862)"/>
<path d="M36.882 39.8193L35.4654 43.2263C35.0636 42.9174 34.5544 42.7293 34.0012 42.7256H34.3419L35.7463 39.343C35.2261 39.172 34.6265 39.0707 34.0037 39.0621C33.9756 39.0621 33.9463 39.0621 33.917 39.0621C30.5038 39.0621 27.7379 41.8281 27.7379 45.2413C27.7379 48.6544 30.5038 51.4204 33.917 51.4204C37.3301 51.4204 40.0961 48.6544 40.0961 45.2413C40.0961 42.9161 38.8114 40.8902 36.9137 39.8364L36.882 39.8193Z" fill="url(#paint1_linear_1051_42862)"/>
<path d="M11.3333 31.2249C6.61109 31.2249 2.83331 27.4471 2.83331 22.7249C2.83331 18.0027 6.61109 14.2249 11.3333 14.2249C16.0555 14.2249 19.8333 18.0027 19.8333 22.7249C19.8333 27.4471 16.0555 31.2249 11.3333 31.2249ZM11.3333 16.1138C7.64998 16.1138 4.7222 19.0416 4.7222 22.7249C4.7222 26.4082 7.64998 29.336 11.3333 29.336C15.0166 29.336 17.9444 26.4082 17.9444 22.7249C17.9444 19.0416 15.0166 16.1138 11.3333 16.1138Z" fill="url(#paint2_linear_1051_42862)"/>
<path d="M12.2778 27.4471H10.3889C8.78332 27.4471 7.55554 26.2193 7.55554 24.6138V23.6694H9.44443V24.6138C9.44443 25.1805 9.82221 25.5582 10.3889 25.5582H12.2778C12.8444 25.5582 13.2222 25.1805 13.2222 24.6138C13.2222 24.0471 12.8444 23.6694 12.2778 23.6694H10.3889C8.78332 23.6694 7.55554 22.4416 7.55554 20.836C7.55554 19.2305 8.78332 18.0027 10.3889 18.0027H12.2778C13.8833 18.0027 15.1111 19.2305 15.1111 20.836V21.7805H13.2222V20.836C13.2222 20.2694 12.8444 19.8916 12.2778 19.8916H10.3889C9.82221 19.8916 9.44443 20.2694 9.44443 20.836C9.44443 21.4027 9.82221 21.7805 10.3889 21.7805H12.2778C13.8833 21.7805 15.1111 23.0082 15.1111 24.6138C15.1111 26.2193 13.8833 27.4471 12.2778 27.4471Z" fill="url(#paint3_linear_1051_42862)"/>
<path d="M12.2777 17.0583H10.3889V18.9472H12.2777V17.0583Z" fill="url(#paint4_linear_1051_42862)"/>
<path d="M58.0833 34.0582C53.3611 34.0582 49.5833 30.2804 49.5833 25.5582C49.5833 20.836 53.3611 17.0582 58.0833 17.0582C62.8055 17.0582 66.5833 20.836 66.5833 25.5582C66.5833 30.2804 62.8055 34.0582 58.0833 34.0582ZM58.0833 18.9471C54.4 18.9471 51.4722 21.8749 51.4722 25.5582C51.4722 29.2416 54.4 32.1693 58.0833 32.1693C61.7666 32.1693 64.6944 29.2416 64.6944 25.5582C64.6944 21.8749 61.7666 18.9471 58.0833 18.9471Z" fill="url(#paint5_linear_1051_42862)"/>
<path d="M59.0278 30.2804H57.1389C55.5333 30.2804 54.3055 29.0527 54.3055 27.4471V26.5027H56.1944V27.4471C56.1944 28.0138 56.5722 28.3916 57.1389 28.3916H59.0278C59.5944 28.3916 59.9722 28.0138 59.9722 27.4471C59.9722 26.8804 59.5944 26.5027 59.0278 26.5027H57.1389C55.5333 26.5027 54.3055 25.2749 54.3055 23.6693C54.3055 22.0638 55.5333 20.836 57.1389 20.836H59.0278C60.6333 20.836 61.8611 22.0638 61.8611 23.6693V24.6138H59.9722V23.6693C59.9722 23.1027 59.5944 22.7249 59.0278 22.7249H57.1389C56.5722 22.7249 56.1944 23.1027 56.1944 23.6693C56.1944 24.236 56.5722 24.6138 57.1389 24.6138H59.0278C60.6333 24.6138 61.8611 25.8416 61.8611 27.4471C61.8611 29.0527 60.6333 30.2804 59.0278 30.2804Z" fill="url(#paint6_linear_1051_42862)"/>
<path d="M59.0277 19.8916H57.1389V21.7805H59.0277V19.8916Z" fill="url(#paint7_linear_1051_42862)"/>
<path d="M34 25.5583C28.4908 25.5583 24.0834 21.1508 24.0834 15.6416C24.0834 10.1323 28.4908 5.72491 34 5.72491C39.5093 5.72491 43.9167 10.1323 43.9167 15.6416C43.9167 21.1508 39.5093 25.5583 34 25.5583ZM34 7.92862C29.7028 7.92862 26.2871 11.3444 26.2871 15.6416C26.2871 19.9388 29.7028 23.3545 34 23.3545C38.2973 23.3545 41.713 19.9388 41.713 15.6416C41.713 11.3444 38.2973 7.92862 34 7.92862Z" fill="url(#paint8_linear_1051_42862)"/>
<path d="M35.1019 21.1508H32.8982C31.0251 21.1508 29.5927 19.7184 29.5927 17.8453V16.7434H31.7964V17.8453C31.7964 18.5064 32.2371 18.9471 32.8982 18.9471H35.1019C35.763 18.9471 36.2038 18.5064 36.2038 17.8453C36.2038 17.1842 35.763 16.7434 35.1019 16.7434H32.8982C31.0251 16.7434 29.5927 15.311 29.5927 13.4379C29.5927 11.5647 31.0251 10.1323 32.8982 10.1323H35.1019C36.9751 10.1323 38.4075 11.5647 38.4075 13.4379V14.5397H36.2038V13.4379C36.2038 12.7768 35.763 12.336 35.1019 12.336H32.8982C32.2371 12.336 31.7964 12.7768 31.7964 13.4379C31.7964 14.099 32.2371 14.5397 32.8982 14.5397H35.1019C36.9751 14.5397 38.4075 15.9721 38.4075 17.8453C38.4075 19.7184 36.9751 21.1508 35.1019 21.1508Z" fill="url(#paint9_linear_1051_42862)"/>
<path d="M35.1019 9.03052H32.8982V11.2342H35.1019V9.03052Z" fill="url(#paint10_linear_1051_42862)"/>
<path d="M21.8119 62.0058C21.8119 61.4535 22.2596 61.0058 22.8119 61.0058H45.188C45.7403 61.0058 46.188 61.4535 46.188 62.0058V63.0058H21.8119V62.0058Z" fill="url(#paint11_linear_1051_42862)"/>
<path fill-rule="evenodd" clip-rule="evenodd" d="M59.0278 35.4305V58.5028C59.0278 59.0551 58.58 59.5028 58.0278 59.5028H10.0556C9.50332 59.5028 9.0556 59.0551 9.0556 58.5028V32.2146C9.70052 32.3605 10.3695 32.443 11.0556 32.4551V57.5028H57.0278V35.4194C57.3746 35.4561 57.7268 35.4749 58.0834 35.4749C58.4019 35.4749 58.7169 35.4599 59.0278 35.4305ZM48.8839 29.268H18.4816C17.7483 30.0676 16.8845 30.7456 15.9238 31.268H49.9744C49.5383 30.6497 49.1711 29.9793 48.8839 29.268Z" fill="url(#paint12_linear_1051_42862)"/>
<defs>
<linearGradient id="paint0_linear_1051_42862" x1="34" y1="35.3986" x2="34" y2="54.9373" gradientUnits="userSpaceOnUse">
<stop offset="0.777083" stop-color="#05A8EC"/>
<stop offset="1" stop-color="#9F83F1"/>
</linearGradient>
<linearGradient id="paint1_linear_1051_42862" x1="33.917" y1="39.0621" x2="33.917" y2="51.4204" gradientUnits="userSpaceOnUse">
<stop offset="0.777083" stop-color="#05A8EC"/>
<stop offset="1" stop-color="#9F83F1"/>
</linearGradient>
<linearGradient id="paint2_linear_1051_42862" x1="11.3333" y1="14.2249" x2="11.3333" y2="31.2249" gradientUnits="userSpaceOnUse">
<stop offset="0.666667" stop-color="#05A8EC"/>
<stop offset="1" stop-color="#9F83F1"/>
</linearGradient>
<linearGradient id="paint3_linear_1051_42862" x1="11.3333" y1="18.0027" x2="11.3333" y2="27.4471" gradientUnits="userSpaceOnUse">
<stop offset="0.666667" stop-color="#05A8EC"/>
<stop offset="1" stop-color="#9F83F1"/>
</linearGradient>
<linearGradient id="paint4_linear_1051_42862" x1="11.3333" y1="17.0583" x2="11.3333" y2="18.9472" gradientUnits="userSpaceOnUse">
<stop offset="0.666667" stop-color="#05A8EC"/>
<stop offset="1" stop-color="#9F83F1"/>
</linearGradient>
<linearGradient id="paint5_linear_1051_42862" x1="58.0833" y1="17.0582" x2="58.0833" y2="34.0582" gradientUnits="userSpaceOnUse">
<stop offset="0.666667" stop-color="#05A8EC"/>
<stop offset="1" stop-color="#9F83F1"/>
</linearGradient>
<linearGradient id="paint6_linear_1051_42862" x1="58.0833" y1="20.836" x2="58.0833" y2="30.2804" gradientUnits="userSpaceOnUse">
<stop offset="0.666667" stop-color="#05A8EC"/>
<stop offset="1" stop-color="#9F83F1"/>
</linearGradient>
<linearGradient id="paint7_linear_1051_42862" x1="58.0833" y1="19.8916" x2="58.0833" y2="21.7805" gradientUnits="userSpaceOnUse">
<stop offset="0.666667" stop-color="#05A8EC"/>
<stop offset="1" stop-color="#9F83F1"/>
</linearGradient>
<linearGradient id="paint8_linear_1051_42862" x1="34" y1="5.72491" x2="34" y2="25.5582" gradientUnits="userSpaceOnUse">
<stop offset="0.666667" stop-color="#05A8EC"/>
<stop offset="1" stop-color="#9F83F1"/>
</linearGradient>
<linearGradient id="paint9_linear_1051_42862" x1="34.0001" y1="10.1323" x2="34.0001" y2="21.1508" gradientUnits="userSpaceOnUse">
<stop offset="0.666667" stop-color="#05A8EC"/>
<stop offset="1" stop-color="#9F83F1"/>
</linearGradient>
<linearGradient id="paint10_linear_1051_42862" x1="34" y1="9.03052" x2="34" y2="11.2342" gradientUnits="userSpaceOnUse">
<stop offset="0.666667" stop-color="#05A8EC"/>
<stop offset="1" stop-color="#9F83F1"/>
</linearGradient>
<linearGradient id="paint11_linear_1051_42862" x1="34" y1="61.0058" x2="34" y2="63.0058" gradientUnits="userSpaceOnUse">
<stop offset="0.5375" stop-color="#05A8EC"/>
<stop offset="1" stop-color="#9F83F1"/>
</linearGradient>
<linearGradient id="paint12_linear_1051_42862" x1="34.0417" y1="29.268" x2="34.0417" y2="59.5028" gradientUnits="userSpaceOnUse">
<stop offset="0.714583" stop-color="#05A8EC"/>
<stop offset="1" stop-color="#9F83F1"/>
</linearGradient>
</defs>
</svg>
