<svg width="68" height="68" viewBox="0 0 68 68" fill="none" xmlns="http://www.w3.org/2000/svg">
<path d="M23.7966 19.01C19.6966 19.01 16.4166 15.73 16.4166 11.63C16.4166 7.53 19.6966 4.25 23.7966 4.25C27.8966 4.25 31.1766 7.53 31.1766 11.63C31.1766 15.73 27.8966 19.01 23.7966 19.01ZM23.7966 5.89C20.5986 5.89 18.0566 8.432 18.0566 11.63C18.0566 14.828 20.5986 17.37 23.7966 17.37C26.9946 17.37 29.5366 14.828 29.5366 11.63C29.5366 8.432 26.9946 5.89 23.7966 5.89Z" fill="url(#paint0_linear_1051_42837)"/>
<path d="M24.6166 15.73H22.9766C21.5826 15.73 20.5166 14.664 20.5166 13.27V12.45H22.1566V13.27C22.1566 13.762 22.4846 14.09 22.9766 14.09H24.6166C25.1086 14.09 25.4366 13.762 25.4366 13.27C25.4366 12.778 25.1086 12.45 24.6166 12.45H22.9766C21.5826 12.45 20.5166 11.384 20.5166 9.99003C20.5166 8.59603 21.5826 7.53003 22.9766 7.53003H24.6166C26.0106 7.53003 27.0766 8.59603 27.0766 9.99003V10.81H25.4366V9.99003C25.4366 9.49803 25.1086 9.17003 24.6166 9.17003H22.9766C22.4846 9.17003 22.1566 9.49803 22.1566 9.99003C22.1566 10.482 22.4846 10.81 22.9766 10.81H24.6166C26.0106 10.81 27.0766 11.876 27.0766 13.27C27.0766 14.664 26.0106 15.73 24.6166 15.73Z" fill="url(#paint1_linear_1051_42837)"/>
<path d="M24.6166 6.71008H22.9766V8.35008H24.6166V6.71008Z" fill="url(#paint2_linear_1051_42837)"/>
<path fill-rule="evenodd" clip-rule="evenodd" d="M35.3736 21H16C12.9699 21 10.4644 23.2462 10.0577 26.1643C10.0204 26.2693 10 26.3822 10 26.5V27V29.5V58C10 61.3137 12.6863 64 16 64H52C55.3137 64 58 61.3137 58 58V54.5V52.5V44.5V42.5V40V27C58 23.6863 55.3137 21 52 21H51.6264C51.408 21.7109 51.0988 22.3821 50.7124 23H52C54.2091 23 56 24.7909 56 27V35.0438C55.7681 34.8468 55.5218 34.6719 55.2645 34.5175C53.7763 33.6246 52.0512 33.5 51 33.5H50.4865C50.3619 31.2347 49.3873 29.8022 48.1058 28.9729C46.8067 28.1324 45.3287 28 44.5 28H22.5C20.534 28 19.1727 28.9422 18.3129 30.0869C17.4797 31.1962 17.1048 32.5013 17.0061 33.3896C17.0035 33.4129 17.0018 33.4361 17.0008 33.4591C15.0166 33.2903 13.8176 32.6228 13.1043 31.9151C12.2578 31.0754 12 30.0876 12 29.5V27C12 24.7909 13.7909 23 16 23H36.2876C35.9012 22.3821 35.592 21.7109 35.3736 21ZM12 58V33.6172C13.2837 34.7309 15.222 35.5 18 35.5H51C51.9488 35.5 53.2237 35.6254 54.2355 36.2325C55.1601 36.7872 56 37.822 56 40V42.5H47C43.6863 42.5 41 45.1863 41 48.5C41 51.8137 43.6863 54.5 47 54.5H56V58C56 60.2091 54.2091 62 52 62H16C13.7909 62 12 60.2091 12 58ZM47 44.5H56V52.5H47C44.7909 52.5 43 50.7091 43 48.5C43 46.2909 44.7909 44.5 47 44.5ZM47.0192 30.6521C47.7032 31.0946 48.3686 31.8951 48.4828 33.5H19.0079C19.095 32.889 19.3705 32.0091 19.9121 31.2881C20.4606 30.5578 21.266 30 22.5 30H44.5C45.1713 30 46.1933 30.1176 47.0192 30.6521Z" fill="url(#paint3_linear_1051_42837)"/>
<path d="M43.3818 25.7635C39.2808 25.7635 36 22.4827 36 18.3818C36 14.2808 39.2808 11 43.3818 11C47.4827 11 50.7635 14.2808 50.7635 18.3818C50.7635 22.4827 47.4827 25.7635 43.3818 25.7635ZM43.3818 12.6404C40.183 12.6404 37.6404 15.183 37.6404 18.3818C37.6404 21.5805 40.183 24.1231 43.3818 24.1231C46.5805 24.1231 49.1231 21.5805 49.1231 18.3818C49.1231 15.183 46.5805 12.6404 43.3818 12.6404Z" fill="url(#paint4_linear_1051_42837)"/>
<path d="M44.2019 22.4827H42.5615C41.1672 22.4827 40.101 21.4165 40.101 20.0221V19.2019H41.7413V20.0221C41.7413 20.5142 42.0694 20.8423 42.5615 20.8423H44.2019C44.694 20.8423 45.0221 20.5142 45.0221 20.0221C45.0221 19.53 44.694 19.2019 44.2019 19.2019H42.5615C41.1672 19.2019 40.101 18.1357 40.101 16.7413C40.101 15.347 41.1672 14.2808 42.5615 14.2808H44.2019C45.5963 14.2808 46.6625 15.347 46.6625 16.7413V17.5615H45.0221V16.7413C45.0221 16.2492 44.694 15.9212 44.2019 15.9212H42.5615C42.0694 15.9212 41.7413 16.2492 41.7413 16.7413C41.7413 17.2335 42.0694 17.5615 42.5615 17.5615H44.2019C45.5963 17.5615 46.6625 18.6278 46.6625 20.0221C46.6625 21.4165 45.5963 22.4827 44.2019 22.4827Z" fill="url(#paint5_linear_1051_42837)"/>
<path d="M44.2019 13.4607H42.5615V15.1011H44.2019V13.4607Z" fill="url(#paint6_linear_1051_42837)"/>
<defs>
<linearGradient id="paint0_linear_1051_42837" x1="23.7966" y1="4.25" x2="23.7966" y2="19.01" gradientUnits="userSpaceOnUse">
<stop offset="0.666667" stop-color="#05A8EC"/>
<stop offset="1" stop-color="#9F83F1"/>
</linearGradient>
<linearGradient id="paint1_linear_1051_42837" x1="23.7966" y1="7.53003" x2="23.7966" y2="15.73" gradientUnits="userSpaceOnUse">
<stop offset="0.666667" stop-color="#05A8EC"/>
<stop offset="1" stop-color="#9F83F1"/>
</linearGradient>
<linearGradient id="paint2_linear_1051_42837" x1="23.7966" y1="6.71008" x2="23.7966" y2="8.35008" gradientUnits="userSpaceOnUse">
<stop offset="0.666667" stop-color="#05A8EC"/>
<stop offset="1" stop-color="#9F83F1"/>
</linearGradient>
<linearGradient id="paint3_linear_1051_42837" x1="34" y1="25.5" x2="34" y2="54.5" gradientUnits="userSpaceOnUse">
<stop offset="0.730208" stop-color="#05A8EC"/>
<stop offset="1" stop-color="#9F83F1"/>
</linearGradient>
<linearGradient id="paint4_linear_1051_42837" x1="43.3818" y1="11" x2="43.3818" y2="25.7635" gradientUnits="userSpaceOnUse">
<stop offset="0.666667" stop-color="#05A8EC"/>
<stop offset="1" stop-color="#9F83F1"/>
</linearGradient>
<linearGradient id="paint5_linear_1051_42837" x1="43.3817" y1="14.2808" x2="43.3817" y2="22.4827" gradientUnits="userSpaceOnUse">
<stop offset="0.666667" stop-color="#05A8EC"/>
<stop offset="1" stop-color="#9F83F1"/>
</linearGradient>
<linearGradient id="paint6_linear_1051_42837" x1="43.3817" y1="13.4607" x2="43.3817" y2="15.1011" gradientUnits="userSpaceOnUse">
<stop offset="0.666667" stop-color="#05A8EC"/>
<stop offset="1" stop-color="#9F83F1"/>
</linearGradient>
</defs>
</svg>
