<svg width="39" height="39" viewBox="0 0 39 39" fill="none" xmlns="http://www.w3.org/2000/svg">
<rect x="0.539474" y="0.539474" width="37.7632" height="37.7632" rx="18.8816" fill="white"/>
<path d="M22.5228 12.4937C22.598 12.4141 22.6567 12.3205 22.6958 12.2183C22.7348 12.116 22.7533 12.007 22.7502 11.8976C22.7471 11.7882 22.7224 11.6805 22.6777 11.5806C22.633 11.4807 22.569 11.3905 22.4895 11.3154C22.4099 11.2402 22.3163 11.1814 22.214 11.1424C22.1118 11.1034 22.0028 11.0849 21.8934 11.088C21.784 11.0911 21.6762 11.1157 21.5763 11.1604C21.4764 11.2052 21.3863 11.2691 21.3111 11.3487L14.2278 18.8487C14.0815 19.0034 14 19.2083 14 19.4212C14 19.6341 14.0815 19.839 14.2278 19.9937L21.3111 27.4945C21.3858 27.5758 21.4759 27.6415 21.5762 27.6877C21.6764 27.7338 21.7849 27.7597 21.8952 27.7636C22.0056 27.7675 22.1156 27.7494 22.2189 27.7105C22.3222 27.6715 22.4167 27.6124 22.497 27.5367C22.5772 27.4609 22.6416 27.3699 22.6864 27.269C22.7312 27.1681 22.7555 27.0593 22.7579 26.9489C22.7604 26.8385 22.7408 26.7288 22.7004 26.626C22.6601 26.5233 22.5997 26.4296 22.5228 26.3504L15.9795 19.4212L22.5228 12.4937Z" fill="#010615"/>
<rect x="0.539474" y="0.539474" width="37.7632" height="37.7632" rx="18.8816" stroke="#DADDE5" stroke-width="1.07895"/>
</svg>
