<svg width="29" height="29" viewBox="0 0 29 29" fill="none" xmlns="http://www.w3.org/2000/svg">
<rect x="1.03947" y="1.36076" width="26.9211" height="26.9211" rx="13.4605" fill="#F0F1F3"/>
<path d="M10.4772 21.758C10.402 21.8376 10.3433 21.9312 10.3042 22.0334C10.2652 22.1357 10.2467 22.2447 10.2498 22.3541C10.2529 22.4635 10.2776 22.5712 10.3223 22.6712C10.367 22.7711 10.431 22.8612 10.5105 22.9364C10.5901 23.0115 10.6837 23.0703 10.786 23.1093C10.8882 23.1483 10.9972 23.1668 11.1066 23.1637C11.216 23.1606 11.3238 23.136 11.4237 23.0913C11.5236 23.0466 11.6137 22.9826 11.6889 22.903L18.7722 15.403C18.9185 15.2483 19 15.0434 19 14.8305C19 14.6176 18.9185 14.4127 18.7722 14.258L11.6889 6.75719C11.6142 6.67589 11.5241 6.61024 11.4238 6.56405C11.3236 6.51786 11.2151 6.49206 11.1048 6.48814C10.9944 6.48422 10.8844 6.50226 10.7811 6.54122C10.6778 6.58017 10.5833 6.63926 10.5031 6.71506C10.4228 6.79085 10.3584 6.88184 10.3136 6.98274C10.2688 7.08364 10.2445 7.19243 10.2421 7.3028C10.2396 7.41318 10.2592 7.52293 10.2996 7.62568C10.3399 7.72843 10.4003 7.82214 10.4772 7.90136L17.0205 14.8305L10.4772 21.758Z" fill="#68686A"/>
<rect x="1.03947" y="1.36076" width="26.9211" height="26.9211" rx="13.4605" stroke="#DADDE5" stroke-width="1.07895"/>
</svg>
