<svg width="40" height="40" viewBox="0 0 40 40" fill="none" xmlns="http://www.w3.org/2000/svg">
<rect x="1.03947" y="1.36076" width="37.7632" height="37.7632" rx="18.8816" fill="white"/>
<path d="M27.9219 16.2422L19.9219 21.2422L11.9219 16.2422V14.2422L19.9219 19.2422L27.9219 14.2422M27.9219 12.2422H11.9219C10.8119 12.2422 9.92188 13.1322 9.92188 14.2422V26.2422C9.92188 26.7726 10.1326 27.2813 10.5077 27.6564C10.8827 28.0315 11.3914 28.2422 11.9219 28.2422H27.9219C28.4523 28.2422 28.961 28.0315 29.3361 27.6564C29.7112 27.2813 29.9219 26.7726 29.9219 26.2422V14.2422C29.9219 13.7118 29.7112 13.203 29.3361 12.828C28.961 12.4529 28.4523 12.2422 27.9219 12.2422Z" fill="#0765FF"/>
<rect x="1.03947" y="1.36076" width="37.7632" height="37.7632" rx="18.8816" stroke="#DADDE5" stroke-width="1.07895"/>
</svg>
