<svg width="29" height="29" viewBox="0 0 29 29" fill="none" xmlns="http://www.w3.org/2000/svg">
<rect x="1.03947" y="0.781661" width="26.9211" height="26.9211" rx="13.4605" fill="#F0F1F3"/>
<path d="M22.3125 14.2422C22.3125 14.4908 22.2137 14.7293 22.0379 14.9051C21.8621 15.0809 21.6236 15.1797 21.375 15.1797H15.4375V21.1172C15.4375 21.3658 15.3387 21.6043 15.1629 21.7801C14.9871 21.9559 14.7486 22.0547 14.5 22.0547C14.2514 22.0547 14.0129 21.9559 13.8371 21.7801C13.6613 21.6043 13.5625 21.3658 13.5625 21.1172V15.1797H7.625C7.37636 15.1797 7.1379 15.0809 6.96209 14.9051C6.78627 14.7293 6.6875 14.4908 6.6875 14.2422C6.6875 13.9935 6.78627 13.7551 6.96209 13.5793C7.1379 13.4035 7.37636 13.3047 7.625 13.3047H13.5625V7.36719C13.5625 7.11855 13.6613 6.88009 13.8371 6.70427C14.0129 6.52846 14.2514 6.42969 14.5 6.42969C14.7486 6.42969 14.9871 6.52846 15.1629 6.70427C15.3387 6.88009 15.4375 7.11855 15.4375 7.36719V13.3047H21.375C21.6236 13.3047 21.8621 13.4035 22.0379 13.5793C22.2137 13.7551 22.3125 13.9935 22.3125 14.2422Z" fill="#4B4B4B"/>
<rect x="1.03947" y="0.781661" width="26.9211" height="26.9211" rx="13.4605" stroke="#DADDE5" stroke-width="1.07895"/>
</svg>
