<svg width="39" height="39" viewBox="0 0 39 39" fill="none" xmlns="http://www.w3.org/2000/svg">
<rect x="0.5" y="0.5" width="37.8421" height="37.8421" rx="18.9211" fill="#F6FAFD"/>
<path d="M18.2969 14.9209C18.2969 13.7274 18.771 12.5828 19.6149 11.7389C20.4588 10.895 21.6034 10.4209 22.7969 10.4209C23.9903 10.4209 25.1349 10.895 25.9789 11.7389C26.8228 12.5828 27.2969 13.7274 27.2969 14.9209V23.9209H30.6719L26.1719 28.4209L21.6719 23.9209H25.0469V14.9209C25.0469 14.3242 24.8098 13.7519 24.3879 13.3299C23.9659 12.908 23.3936 12.6709 22.7969 12.6709C22.2001 12.6709 21.6278 12.908 21.2059 13.3299C20.7839 13.7519 20.5469 14.3242 20.5469 14.9209V23.9209C20.5469 25.1144 20.0728 26.259 19.2289 27.1029C18.3849 27.9468 17.2403 28.4209 16.0469 28.4209C14.8534 28.4209 13.7088 27.9468 12.8649 27.1029C12.021 26.259 11.5469 25.1144 11.5469 23.9209V14.9209H8.17188L12.6719 10.4209L17.1719 14.9209H13.7969V23.9209C13.7969 24.5176 14.0339 25.0899 14.4559 25.5119C14.8778 25.9338 15.4501 26.1709 16.0469 26.1709C16.6436 26.1709 17.2159 25.9338 17.6379 25.5119C18.0598 25.0899 18.2969 24.5176 18.2969 23.9209V14.9209Z" fill="#0765FF"/>
<rect x="0.5" y="0.5" width="37.8421" height="37.8421" rx="18.9211" stroke="#DADDE5"/>
</svg>
