<svg width="85" height="85" viewBox="0 0 85 85" fill="none" xmlns="http://www.w3.org/2000/svg">
<rect x="0.5" y="0.105469" width="84" height="84" rx="20" fill="white"/>
<g clip-path="url(#clip0_2098_7198)">
<path d="M20 64.6055C18.625 64.6055 17.4475 64.1155 16.4675 63.1355C15.4875 62.1555 14.9983 60.9788 15 59.6055V27.1055H20V59.6055H57.5V64.6055H20ZM30 54.6055C28.625 54.6055 27.4475 54.1155 26.4675 53.1355C25.4875 52.1555 24.9983 50.9788 25 49.6055V28.3555C25 27.4805 25.1983 26.6471 25.595 25.8555C25.9917 25.0638 26.585 24.4388 27.375 23.9805L47.5 12.1055L53.625 15.7305L49.875 19.3555L47.5 17.9805L30.5 27.9805L47.5 37.9805L64.5 27.9805L61.125 25.9805L64.75 22.3555L67.625 23.9805C68.4167 24.4388 69.01 25.0638 69.405 25.8555C69.8 26.6471 69.9983 27.4805 70 28.3555V49.6055C70 50.9805 69.51 52.158 68.53 53.138C67.55 54.118 66.3733 54.6071 65 54.6055H30ZM47.125 34.6055L40.125 27.6055L43.625 24.1055L47.125 27.6055L58.75 15.9805L62.25 19.4805L47.125 34.6055Z" fill="#0765FF"/>
</g>
<defs>
<clipPath id="clip0_2098_7198">
<rect width="60" height="60" fill="white" transform="translate(12.5 12.1055)"/>
</clipPath>
</defs>
</svg>
