<svg width="40" height="39" viewBox="0 0 40 39" fill="none" xmlns="http://www.w3.org/2000/svg">
<rect x="1.06584" y="0.539474" width="37.7632" height="37.7632" rx="18.8816" fill="white"/>
<path d="M25.5976 13.7712C24.3836 12.5535 22.8094 11.7593 21.1086 11.5064C19.4077 11.2535 17.6706 11.5554 16.1548 12.3674C14.639 13.1793 13.4251 14.458 12.6932 16.014C11.9612 17.57 11.75 19.3204 12.091 21.0058C12.432 22.6912 13.3069 24.2219 14.5862 25.371C15.8654 26.5201 17.4809 27.2264 19.1931 27.3852C20.9053 27.5441 22.6231 27.147 24.092 26.2529C25.5608 25.3588 26.7024 24.0151 27.3476 22.4212H25.1276C24.5095 23.5129 23.5648 24.3834 22.4263 24.9103C21.2877 25.4372 20.0127 25.594 18.7804 25.3586C17.5482 25.1231 16.4207 24.5074 15.5566 23.5979C14.6925 22.6884 14.1352 21.531 13.9631 20.2883C13.791 19.0456 14.0127 17.7803 14.5971 16.6702C15.1815 15.5601 16.0992 14.6611 17.221 14.0996C18.3429 13.5381 19.6126 13.3424 20.8514 13.54C22.0903 13.7376 23.2361 14.3186 24.1276 15.2012L20.9476 18.4212H27.9476V11.4212L25.5976 13.7712Z" fill="#010615"/>
<rect x="1.06584" y="0.539474" width="37.7632" height="37.7632" rx="18.8816" stroke="#DADDE5" stroke-width="1.07895"/>
</svg>
