<svg width="39" height="40" viewBox="0 0 39 40" fill="none" xmlns="http://www.w3.org/2000/svg">
<rect x="0.539474" y="1.48674" width="37.7632" height="37.7632" rx="18.8816" fill="white"/>
<path d="M11.8984 13.2433H26.8984C27.0737 13.2432 27.2487 13.2543 27.4225 13.2766C27.3636 12.863 27.2215 12.4657 27.0049 12.1085C26.7883 11.7514 26.5016 11.4418 26.1621 11.1984C25.8226 10.955 25.4373 10.783 25.0295 10.6925C24.6217 10.6021 24.1998 10.5952 23.7892 10.6722L11.4531 12.7783H11.4391C10.6647 12.9264 9.97612 13.3645 9.51391 14.0031C10.2103 13.5078 11.0439 13.2422 11.8984 13.2433ZM26.8984 14.3683H11.8984C11.1031 14.3692 10.3405 14.6855 9.77808 15.2479C9.21566 15.8103 8.89931 16.5729 8.89844 17.3683V26.3683C8.89931 27.1637 9.21566 27.9262 9.77808 28.4886C10.3405 29.0511 11.1031 29.3674 11.8984 29.3683H26.8984C27.6938 29.3674 28.4564 29.0511 29.0188 28.4886C29.5812 27.9262 29.8976 27.1637 29.8984 26.3683V17.3683C29.8976 16.5729 29.5812 15.8103 29.0188 15.2479C28.4564 14.6855 27.6938 14.3692 26.8984 14.3683ZM24.6719 23.3683C24.3752 23.3683 24.0852 23.2803 23.8385 23.1155C23.5918 22.9507 23.3996 22.7164 23.2861 22.4423C23.1725 22.1682 23.1428 21.8666 23.2007 21.5756C23.2586 21.2847 23.4014 21.0174 23.6112 20.8076C23.821 20.5978 24.0883 20.455 24.3792 20.3971C24.6702 20.3392 24.9718 20.3689 25.2459 20.4825C25.52 20.596 25.7543 20.7883 25.9191 21.0349C26.0839 21.2816 26.1719 21.5716 26.1719 21.8683C26.1719 22.2661 26.0138 22.6476 25.7325 22.9289C25.4512 23.2102 25.0697 23.3683 24.6719 23.3683Z" fill="#0765FF"/>
<path d="M8.92188 20.5322V15.8682C8.92188 14.8524 9.48438 13.1494 11.4367 12.7805C13.0938 12.4697 14.7344 12.4697 14.7344 12.4697C14.7344 12.4697 15.8125 13.2197 14.9219 13.2197C14.0312 13.2197 14.0547 14.3682 14.9219 14.3682C15.7891 14.3682 14.9219 15.4697 14.9219 15.4697L11.4297 19.4307L8.92188 20.5322Z" fill="#0765FF"/>
<rect x="0.539474" y="1.48674" width="37.7632" height="37.7632" rx="18.8816" stroke="#DADDE5" stroke-width="1.07895"/>
</svg>
