<svg width="28" height="28" viewBox="0 0 28 28" fill="none" xmlns="http://www.w3.org/2000/svg">
<g clip-path="url(#clip0_2098_7944)">
<path d="M13.9991 1.55566C11.5379 1.55566 9.13185 2.28552 7.08537 3.65293C5.0389 5.02034 3.44386 6.9639 2.50197 9.23783C1.56008 11.5118 1.31364 14.0139 1.79381 16.4279C2.27398 18.8419 3.4592 21.0593 5.19959 22.7997C6.93997 24.54 9.15736 25.7253 11.5713 26.2054C13.9853 26.6856 16.4875 26.4392 18.7614 25.4973C21.0353 24.5554 22.9789 22.9604 24.3463 20.9139C25.7137 18.8674 26.4436 16.4614 26.4436 14.0001C26.4436 10.6996 25.1325 7.53434 22.7987 5.20056C20.4649 2.86677 17.2996 1.55566 13.9991 1.55566ZM13.9991 24.889C11.8455 24.889 9.74026 24.2504 7.9496 23.0539C6.15893 21.8574 4.76327 20.1568 3.93912 18.1671C3.11496 16.1774 2.89933 13.988 3.31948 11.8758C3.73963 9.76356 4.77669 7.82334 6.29953 6.3005C7.82237 4.77766 9.76258 3.7406 11.8748 3.32045C13.9871 2.9003 16.1765 3.11593 18.1661 3.94009C20.1558 4.76424 21.8564 6.1599 23.0529 7.95057C24.2494 9.74123 24.888 11.8465 24.888 14.0001C24.888 16.888 23.7408 19.6577 21.6987 21.6997C19.6567 23.7418 16.8871 24.889 13.9991 24.889Z" fill="#5EC28B"/>
<path d="M21.7776 9.41074C21.6319 9.26588 21.4348 9.18457 21.2293 9.18457C21.0238 9.18457 20.8267 9.26588 20.681 9.41074L12.0476 18.0052L7.38095 13.3385C7.23862 13.1848 7.04107 13.094 6.83176 13.086C6.62245 13.078 6.41852 13.1534 6.26484 13.2957C6.11116 13.4381 6.02032 13.6356 6.0123 13.8449C6.00428 14.0543 6.07973 14.2582 6.22206 14.4119L12.0476 20.2219L21.7776 10.5152C21.8505 10.4429 21.9084 10.3569 21.9479 10.2621C21.9874 10.1673 22.0077 10.0656 22.0077 9.96297C22.0077 9.86029 21.9874 9.75863 21.9479 9.66385C21.9084 9.56907 21.8505 9.48305 21.7776 9.41074Z" fill="#5EC28B"/>
</g>
<defs>
<clipPath id="clip0_2098_7944">
<rect width="28" height="28" fill="white"/>
</clipPath>
</defs>
</svg>
