<svg width="20" height="21" viewBox="0 0 20 21" fill="none" xmlns="http://www.w3.org/2000/svg">
<path d="M2.31706 17.1477C2.24188 17.2272 2.1831 17.3208 2.14409 17.4231C2.10508 17.5254 2.08659 17.6343 2.08968 17.7437C2.09278 17.8532 2.1174 17.9609 2.16213 18.0608C2.20686 18.1607 2.27083 18.2508 2.35039 18.326C2.42995 18.4012 2.52354 18.46 2.62581 18.499C2.72809 18.538 2.83704 18.5565 2.94646 18.5534C3.05588 18.5503 3.16362 18.5257 3.26352 18.4809C3.36343 18.4362 3.45354 18.3722 3.52873 18.2927L10.6121 10.7927C10.7583 10.6379 10.8398 10.4331 10.8398 10.2202C10.8398 10.0072 10.7583 9.80239 10.6121 9.64767L3.52873 2.14684C3.45404 2.06554 3.36394 1.99989 3.26367 1.9537C3.1634 1.90751 3.05495 1.88171 2.94462 1.87779C2.83429 1.87387 2.72428 1.89191 2.62099 1.93087C2.51769 1.96982 2.42316 2.02891 2.34289 2.10471C2.26263 2.1805 2.19822 2.27149 2.15342 2.37239C2.10861 2.47329 2.0843 2.58208 2.0819 2.69245C2.07949 2.80282 2.09904 2.91257 2.13941 3.01533C2.17978 3.11808 2.24017 3.21179 2.31706 3.291L8.86039 10.2202L2.31706 17.1477Z" fill="#010615"/>
</svg>
