<svg width="157" height="66" viewBox="0 0 157 66" fill="none" xmlns="http://www.w3.org/2000/svg">
<rect x="0.5" y="0.5" width="155.333" height="65" rx="7.5" fill="white" fill-opacity="0.1"/>
<g clip-path="url(#clip0_1555_50)">
<path d="M75.6248 21.1999C77.8147 21.0999 79.5745 19.6332 79.7701 17.8332C79.7701 17.7332 79.7701 17.5999 79.7701 17.4999V16.1999C79.7701 14.1332 77.8147 12.4666 75.3902 12.4666H74.9991C74.0997 13.0332 73.474 13.9666 73.3958 14.9999V23.0666C73.3958 22.0666 74.2952 21.2666 75.4684 21.2332C75.5466 21.1999 75.5857 21.1999 75.6248 21.1999Z" fill="url(#paint0_linear_1555_50)"/>
<path d="M63.4237 16.6333C63.4237 11.8667 58.8874 8 53.2952 8C47.7031 8 43.1667 11.8667 43.1667 16.6333C43.1667 21.4 47.7031 25.2667 53.2952 25.2667C58.8874 25.2667 63.4237 21.4 63.4237 16.6333ZM53.2952 18.1667C52.3176 18.1667 51.4964 17.5 51.4964 16.6333C51.4964 15.8 52.2785 15.1 53.2952 15.1C54.2729 15.1 55.0941 15.7667 55.0941 16.6333C55.0941 17.4667 54.2729 18.1667 53.2952 18.1667Z" fill="url(#paint1_linear_1555_50)"/>
<path d="M53.2952 8C52.5522 8 51.8483 8.06667 51.1835 8.2C53.8427 9.36667 55.6416 11.7333 55.6416 14.4667C55.6416 15.7 55.2505 16.8667 54.6248 17.8667L50.7142 24.9667L49.6584 26.9C49.4237 27.3333 49.3064 27.8 49.3064 28.3C49.3064 30.2 51.1053 31.7 53.3343 31.7C54.7813 31.7 56.0718 31.0333 56.7757 30.0333L62.2114 20.8667L62.6807 20.0667V20.0333C63.2282 19 63.5019 17.8333 63.5019 16.6C63.4237 11.8667 58.8874 8 53.2952 8Z" fill="url(#paint2_linear_1555_50)"/>
<path d="M105.619 26.9334C105.737 26.6001 105.815 26.2668 105.815 25.9001C105.815 25.1335 105.541 24.4334 105.072 23.8668L104.915 23.6668L102.999 21.4334L102.686 21.1001C102.765 21.2334 102.843 21.3668 102.843 21.5334C102.843 21.6334 102.804 21.7334 102.765 21.8334C102.765 21.8668 102.725 21.9001 102.725 21.9334L102.491 22.3668L101.826 23.5334C101.122 24.8001 101.709 26.3001 103.195 26.9001C103.977 27.2001 104.876 27.2001 105.619 26.9334Z" fill="url(#paint3_linear_1555_50)"/>
<path d="M112.189 16.8667L112.658 16.0667C113.362 14.8 112.776 13.3 111.29 12.7C110.938 12.5333 110.547 12.4667 110.156 12.4333C110.117 12.4333 110.077 12.4333 110.038 12.4333C109.999 12.4333 109.96 12.4333 109.921 12.4333C108.826 12.4333 107.809 12.9667 107.301 13.8333L106.362 15.4667C106.284 15.6333 106.089 15.7667 105.854 15.7667C105.698 15.7667 105.541 15.7 105.424 15.6L105.932 16.2333C105.932 16.2333 105.932 16.2667 105.971 16.2667C106.753 17.1667 108.005 17.7333 109.413 17.7333C110.469 17.7333 111.446 17.4 112.189 16.8667Z" fill="url(#paint4_linear_1555_50)"/>
<path d="M90.6026 24.3332C91.7758 24.3332 92.8317 24.8332 93.4182 25.5999L93.4574 25.6666C93.5356 25.7665 93.6138 25.8999 93.6529 25.9999C94.4741 26.9999 96.0775 27.3999 97.4071 26.8332C98.8931 26.2332 99.4797 24.6999 98.7758 23.4666L96.3121 19.1666L93.2618 13.7999C92.7534 12.9332 91.7367 12.3999 90.6417 12.3999C90.6026 12.3999 90.5635 12.3999 90.5244 12.3999C90.4853 12.3999 90.4462 12.3999 90.4071 12.3999C89.3121 12.3999 88.2953 12.9332 87.787 13.7999L84.7367 19.1666L82.273 23.4666C81.5691 24.7332 82.1557 26.2332 83.6417 26.8332C84.9713 27.3999 86.5747 26.9999 87.3959 25.9999C87.4741 25.8999 87.5523 25.7999 87.6305 25.6666L87.6696 25.5999C88.4127 24.8332 89.4294 24.3332 90.6026 24.3332Z" fill="url(#paint5_linear_1555_50)"/>
<path d="M92.636 24.2333C92.7925 24.4333 92.9098 24.6666 93.0662 24.9C93.1444 25.0333 93.2226 25.1666 93.2617 25.3L93.4573 25.6333L93.4964 25.6999C93.5746 25.7999 93.6528 25.9333 93.6919 26.0333C94.5131 27.0333 96.1165 27.4333 97.4461 26.8666C98.9321 26.2666 99.5187 24.7333 98.8148 23.4999L96.3511 19.1999L93.8092 14.7666C93.34 16.2666 91.7366 17.4 89.7813 17.4C89.5467 17.4 89.3511 17.3999 89.1556 17.3666C88.8428 17.3333 88.4908 17.2999 88.1779 17.2999C87.2785 17.2999 86.3791 17.4666 85.636 17.7999L84.8148 19.2333L83.1724 22.0999C84.1891 21.6333 85.3232 21.3666 86.5355 21.3666C87.7087 21.3666 88.8428 21.5999 89.8204 22.0333C90.9936 22.4999 91.9712 23.2666 92.636 24.2333Z" fill="url(#paint6_linear_1555_50)"/>
<path d="M105.033 23.8332C105.072 23.8332 105.072 23.8332 105.033 23.8332C105.502 24.4332 105.776 25.1332 105.776 25.8999C105.776 26.2665 105.697 26.5999 105.58 26.9332C106.089 26.7665 106.558 26.4665 106.871 26.0332C106.91 25.9999 106.91 25.9999 106.91 25.9666C106.949 25.8999 107.027 25.7999 107.066 25.7332L107.105 25.6666L109.804 20.9332L109.921 20.7332L110.077 20.4332L112.072 16.9332C111.329 17.4666 110.351 17.7999 109.295 17.7999C107.887 17.7999 106.636 17.2332 105.854 16.3332L105.815 16.2999L105.306 15.6666L105.267 15.6332L103.82 13.9332C103.234 13.2666 102.334 12.8999 101.435 12.8999C101.278 12.8999 101.122 12.8999 100.966 12.9332C100.927 12.9332 100.887 12.9332 100.848 12.9332C100.809 12.9332 100.77 12.9332 100.731 12.9666C100.34 13.0332 99.988 13.1666 99.6751 13.3666C98.3455 14.1999 98.0326 15.7666 99.0103 16.8999L102.295 20.7665L102.53 21.0332C102.569 21.0665 102.569 21.0999 102.608 21.0999L102.921 21.4332L104.837 23.6666C104.954 23.6999 104.994 23.7665 105.033 23.8332Z" fill="url(#paint7_linear_1555_50)"/>
<path d="M70.4628 27.0999C72.1052 27.0999 73.4349 25.9666 73.4349 24.5666V15.3332C73.4349 15.2666 73.4349 15.1999 73.4349 15.1666C73.4349 15.1332 73.4349 15.0666 73.4349 14.9999C73.5131 13.9666 74.0997 13.0666 75.0382 12.4666H70.541C70.5019 12.4666 70.4628 12.4666 70.4628 12.4666C68.8203 12.4666 67.4907 13.5999 67.4907 14.9999V24.6332C67.4907 25.9999 68.8203 27.0999 70.4628 27.0999Z" fill="url(#paint8_linear_1555_50)"/>
</g>
<path d="M65.9227 43.717C66.5714 43.717 67.1571 43.8733 67.6797 44.186C68.2024 44.494 68.6177 44.9187 68.9257 45.46C69.2337 46.0013 69.3877 46.6197 69.3877 47.315V50.521C69.3877 51.2583 69.2337 51.9047 68.9257 52.46C68.6224 53.0107 68.1977 53.44 67.6517 53.748C67.1104 54.056 66.4851 54.21 65.7757 54.21C65.2437 54.21 64.7444 54.1097 64.2777 53.909C63.8111 53.7083 63.4051 53.4097 63.0597 53.013L64.1377 52.012C64.3291 52.2593 64.5694 52.4577 64.8587 52.607C65.1481 52.7563 65.4537 52.831 65.7757 52.831C66.1911 52.831 66.5574 52.7307 66.8747 52.53C67.1967 52.3293 67.4464 52.068 67.6237 51.746C67.8011 51.424 67.8897 51.0787 67.8897 50.71V48.862L68.1837 49.184C67.8944 49.562 67.5351 49.8607 67.1057 50.08C66.6764 50.2993 66.2167 50.409 65.7267 50.409C65.0967 50.409 64.5367 50.2643 64.0467 49.975C63.5567 49.6857 63.1694 49.2913 62.8847 48.792C62.6001 48.2927 62.4577 47.728 62.4577 47.098C62.4577 46.468 62.6164 45.8987 62.9337 45.39C63.2511 44.8813 63.6711 44.4753 64.1937 44.172C64.7164 43.8687 65.2927 43.717 65.9227 43.717ZM65.9227 45.131C65.5587 45.131 65.2251 45.2197 64.9217 45.397C64.6231 45.5697 64.3851 45.8053 64.2077 46.104C64.0304 46.4027 63.9417 46.734 63.9417 47.098C63.9417 47.462 64.0304 47.7957 64.2077 48.099C64.3851 48.3977 64.6231 48.6357 64.9217 48.813C65.2204 48.9903 65.5517 49.079 65.9157 49.079C66.2797 49.079 66.6111 48.9903 66.9097 48.813C67.2084 48.6357 67.4464 48.3977 67.6237 48.099C67.8011 47.7957 67.8897 47.462 67.8897 47.098C67.8897 46.7387 67.8011 46.4097 67.6237 46.111C67.4511 45.8123 67.2154 45.5743 66.9167 45.397C66.6181 45.2197 66.2867 45.131 65.9227 45.131ZM71.5147 54V43.92H75.5887C75.6867 43.92 75.808 43.9247 75.9527 43.934C76.0974 43.9387 76.235 43.9527 76.3657 43.976C76.9257 44.0647 77.3924 44.256 77.7657 44.55C78.1437 44.844 78.426 45.215 78.6127 45.663C78.7994 46.111 78.8927 46.6057 78.8927 47.147C78.8927 47.693 78.7994 48.19 78.6127 48.638C78.426 49.086 78.1437 49.457 77.7657 49.751C77.3924 50.045 76.9257 50.2363 76.3657 50.325C76.235 50.3437 76.095 50.3577 75.9457 50.367C75.801 50.3763 75.682 50.381 75.5887 50.381H72.9777V54H71.5147ZM72.9777 48.995H75.5327C75.626 48.995 75.7287 48.9903 75.8407 48.981C75.9574 48.9717 76.067 48.9553 76.1697 48.932C76.4684 48.862 76.7087 48.7337 76.8907 48.547C77.0727 48.3557 77.2034 48.1363 77.2827 47.889C77.362 47.6417 77.4017 47.3943 77.4017 47.147C77.4017 46.8997 77.362 46.6547 77.2827 46.412C77.2034 46.1647 77.0727 45.9477 76.8907 45.761C76.7087 45.5697 76.4684 45.439 76.1697 45.369C76.067 45.341 75.9574 45.3223 75.8407 45.313C75.7287 45.3037 75.626 45.299 75.5327 45.299H72.9777V48.995ZM82.3672 54.21C81.8072 54.21 81.3382 54.1073 80.9602 53.902C80.5822 53.692 80.2952 53.4167 80.0992 53.076C79.9079 52.7307 79.8122 52.3527 79.8122 51.942C79.8122 51.5593 79.8799 51.2233 80.0152 50.934C80.1506 50.6447 80.3512 50.3997 80.6172 50.199C80.8832 49.9937 81.2099 49.828 81.5972 49.702C81.9332 49.604 82.3136 49.5177 82.7382 49.443C83.1629 49.3683 83.6086 49.2983 84.0752 49.233C84.5466 49.1677 85.0132 49.1023 85.4752 49.037L84.9432 49.331C84.9526 48.7383 84.8266 48.2997 84.5652 48.015C84.3086 47.7257 83.8652 47.581 83.2352 47.581C82.8386 47.581 82.4746 47.6743 82.1432 47.861C81.8119 48.043 81.5809 48.3463 81.4502 48.771L80.0852 48.351C80.2719 47.7023 80.6266 47.1867 81.1492 46.804C81.6766 46.4213 82.3766 46.23 83.2492 46.23C83.9259 46.23 84.5139 46.3467 85.0132 46.58C85.5172 46.8087 85.8859 47.1727 86.1192 47.672C86.2406 47.9193 86.3152 48.1807 86.3432 48.456C86.3712 48.7313 86.3852 49.0277 86.3852 49.345V54H85.0902V52.271L85.3422 52.495C85.0296 53.0737 84.6306 53.5053 84.1452 53.79C83.6646 54.07 83.0719 54.21 82.3672 54.21ZM82.6262 53.013C83.0416 53.013 83.3986 52.9407 83.6972 52.796C83.9959 52.6467 84.2362 52.4577 84.4182 52.229C84.6002 52.0003 84.7192 51.7623 84.7752 51.515C84.8546 51.291 84.8989 51.039 84.9082 50.759C84.9222 50.479 84.9292 50.255 84.9292 50.087L85.4052 50.262C84.9432 50.332 84.5232 50.395 84.1452 50.451C83.7672 50.507 83.4242 50.563 83.1162 50.619C82.8129 50.6703 82.5422 50.7333 82.3042 50.808C82.1036 50.878 81.9239 50.962 81.7652 51.06C81.6112 51.158 81.4876 51.277 81.3942 51.417C81.3056 51.557 81.2612 51.7273 81.2612 51.928C81.2612 52.124 81.3102 52.306 81.4082 52.474C81.5062 52.6373 81.6556 52.768 81.8562 52.866C82.0569 52.964 82.3136 53.013 82.6262 53.013ZM88.9738 57.36L90.4368 53.377L90.4578 54.553L87.1608 46.44H88.6868L91.1508 52.705H90.7028L93.0548 46.44H94.5388L90.3668 57.36H88.9738Z" fill="white"/>
<rect x="0.5" y="0.5" width="155.333" height="65" rx="7.5" stroke="#525252"/>
<defs>
<linearGradient id="paint0_linear_1555_50" x1="77.7951" y1="20.9023" x2="73.7447" y2="12.4372" gradientUnits="userSpaceOnUse">
<stop stop-color="#30548B"/>
<stop offset="1" stop-color="#4778BB"/>
</linearGradient>
<linearGradient id="paint1_linear_1555_50" x1="56.3186" y1="18.8792" x2="44.7846" y2="7.11119" gradientUnits="userSpaceOnUse">
<stop stop-color="#30548B"/>
<stop offset="0.1859" stop-color="#30548B"/>
<stop offset="0.4106" stop-color="#44788E"/>
<stop offset="0.7897" stop-color="#6FC387"/>
<stop offset="1" stop-color="#6FC387"/>
</linearGradient>
<linearGradient id="paint2_linear_1555_50" x1="56.3189" y1="27.017" x2="56.3189" y2="13.4777" gradientUnits="userSpaceOnUse">
<stop stop-color="#4A96D1"/>
<stop offset="1" stop-color="#6FC387"/>
</linearGradient>
<linearGradient id="paint3_linear_1555_50" x1="104.866" y1="25.8529" x2="102.397" y2="22.7811" gradientUnits="userSpaceOnUse">
<stop stop-color="#30548B"/>
<stop offset="0.9838" stop-color="#4778BB"/>
<stop offset="1" stop-color="#4778BB"/>
</linearGradient>
<linearGradient id="paint4_linear_1555_50" x1="111.091" y1="16.7658" x2="107.012" y2="11.2862" gradientUnits="userSpaceOnUse">
<stop stop-color="#30548B"/>
<stop offset="0.9838" stop-color="#4778BB"/>
<stop offset="1" stop-color="#4778BB"/>
</linearGradient>
<linearGradient id="paint5_linear_1555_50" x1="91.8955" y1="24.4475" x2="86.8975" y2="16.4714" gradientUnits="userSpaceOnUse">
<stop stop-color="#30548B"/>
<stop offset="0.9838" stop-color="#4778BB"/>
<stop offset="1" stop-color="#4778BB"/>
</linearGradient>
<linearGradient id="paint6_linear_1555_50" x1="96.6088" y1="24.9809" x2="86.8468" y2="14.0354" gradientUnits="userSpaceOnUse">
<stop stop-color="#4896D2"/>
<stop offset="1" stop-color="#52BDD0"/>
</linearGradient>
<linearGradient id="paint7_linear_1555_50" x1="109.839" y1="22.7381" x2="101.112" y2="11.6828" gradientUnits="userSpaceOnUse">
<stop stop-color="#4896D2"/>
<stop offset="1" stop-color="#52BDD0"/>
</linearGradient>
<linearGradient id="paint8_linear_1555_50" x1="71.2754" y1="25.928" x2="71.2754" y2="14.5672" gradientUnits="userSpaceOnUse">
<stop stop-color="#4896D2"/>
<stop offset="1" stop-color="#52BDD0"/>
</linearGradient>
<clipPath id="clip0_1555_50">
<rect width="70" height="24" fill="white" transform="translate(43.1667 8)"/>
</clipPath>
</defs>
</svg>
