<svg width="39" height="39" viewBox="0 0 39 39" fill="none" xmlns="http://www.w3.org/2000/svg">
<rect x="0.539474" y="0.644942" width="37.7632" height="37.7632" rx="18.8816" fill="white"/>
<path d="M20.4219 10.5264C18.0349 10.5264 15.7457 11.4746 14.0579 13.1624C12.3701 14.8502 11.4219 17.1394 11.4219 19.5264H8.42188L12.3119 23.4164L12.3819 23.5564L16.4219 19.5264H13.4219C13.4219 15.6564 16.5519 12.5264 20.4219 12.5264C24.2919 12.5264 27.4219 15.6564 27.4219 19.5264C27.4219 23.3964 24.2919 26.5264 20.4219 26.5264C18.4919 26.5264 16.7419 25.7364 15.4819 24.4664L14.0619 25.8864C14.8953 26.7244 15.8864 27.3891 16.9779 27.8422C18.0695 28.2953 19.24 28.5278 20.4219 28.5264C22.8088 28.5264 25.098 27.5782 26.7858 25.8903C28.4737 24.2025 29.4219 21.9133 29.4219 19.5264C29.4219 17.1394 28.4737 14.8502 26.7858 13.1624C25.098 11.4746 22.8088 10.5264 20.4219 10.5264ZM19.4219 15.5264V20.5264L23.6719 23.0464L24.4419 21.7664L20.9219 19.6764V15.5264H19.4219Z" fill="#0765FF"/>
<rect x="0.539474" y="0.644942" width="37.7632" height="37.7632" rx="18.8816" stroke="#DADDE5" stroke-width="1.07895"/>
</svg>
