<svg width="157" height="67" viewBox="0 0 157 67" fill="none" xmlns="http://www.w3.org/2000/svg">
<rect x="0.833252" y="1.39465" width="155.333" height="65" rx="7.5" fill="white" fill-opacity="0.1"/>
<g clip-path="url(#clip0_1334_2617)">
<path d="M68.8334 17.9346L69.8334 17.348V19.5613H87.1667V17.368L88.1534 17.9346C88.3058 18.0143 88.483 18.0321 88.6482 17.9842C88.8133 17.9363 88.9535 17.8264 89.0396 17.6775C89.1256 17.5287 89.1508 17.3523 89.1099 17.1853C89.069 17.0183 88.9652 16.8736 88.8201 16.7813L78.5001 10.8413L68.1667 16.7813C68.0871 16.823 68.0166 16.8803 67.9597 16.9499C67.9028 17.0195 67.8605 17.0999 67.8355 17.1863C67.8104 17.2726 67.8031 17.3632 67.8139 17.4524C67.8248 17.5417 67.8536 17.6278 67.8986 17.7057C67.9436 17.7835 68.0038 17.8514 68.0758 17.9054C68.1477 17.9593 68.2298 17.9982 68.3171 18.0196C68.4045 18.0409 68.4952 18.0445 68.5839 18.0299C68.6727 18.0153 68.7575 17.9829 68.8334 17.9346ZM78.4001 13.6346C78.4811 13.5878 78.5731 13.5632 78.6667 13.5632C78.7604 13.5632 78.8523 13.5878 78.9334 13.6346L83.4134 16.228H81.2667L78.6667 14.7346L76.0667 16.228H73.9267L78.4001 13.6346Z" fill="#DBDBDB"/>
<path d="M88.3999 26.8946H87.8333V26.3279C87.8333 26.1246 87.7525 25.9296 87.6087 25.7858C87.4649 25.6421 87.2699 25.5613 87.0666 25.5613H85.1666V20.6479H82.4999V25.5613H79.8333V20.6479H77.1666V25.5613H74.4999V20.6479H71.8333V25.5613H69.9333C69.7299 25.5613 69.5349 25.6421 69.3911 25.7858C69.2474 25.9296 69.1666 26.1246 69.1666 26.3279V26.8946H68.5999C68.3966 26.8946 68.2016 26.9754 68.0578 27.1192C67.914 27.2629 67.8333 27.458 67.8333 27.6613V29.5613H89.1666V27.6613C89.1666 27.458 89.0858 27.2629 88.942 27.1192C88.7983 26.9754 88.6033 26.8946 88.3999 26.8946Z" fill="#DBDBDB"/>
</g>
<path d="M62.48 54.8947V44.8147H66.442C67.0813 44.8147 67.618 44.9453 68.052 45.2067C68.486 45.468 68.8127 45.8063 69.032 46.2217C69.2513 46.6323 69.361 47.0663 69.361 47.5237C69.361 48.079 69.2233 48.555 68.948 48.9517C68.6773 49.3483 68.311 49.619 67.849 49.7637L67.835 49.4207C68.479 49.5793 68.9737 49.8897 69.319 50.3517C69.6643 50.809 69.837 51.3433 69.837 51.9547C69.837 52.5473 69.718 53.063 69.48 53.5017C69.2467 53.9403 68.9037 54.2833 68.451 54.5307C68.003 54.7733 67.4593 54.8947 66.82 54.8947H62.48ZM63.964 53.5017H66.596C66.9273 53.5017 67.2237 53.4387 67.485 53.3127C67.751 53.1867 67.9587 53.007 68.108 52.7737C68.262 52.5357 68.339 52.2533 68.339 51.9267C68.339 51.6233 68.2713 51.3503 68.136 51.1077C68.0053 50.8603 67.814 50.6667 67.562 50.5267C67.3147 50.382 67.023 50.3097 66.687 50.3097H63.964V53.5017ZM63.964 48.9307H66.421C66.6917 48.9307 66.9343 48.877 67.149 48.7697C67.3683 48.6577 67.541 48.499 67.667 48.2937C67.7977 48.0837 67.863 47.8317 67.863 47.5377C67.863 47.1457 67.7323 46.8237 67.471 46.5717C67.2097 46.3197 66.8597 46.1937 66.421 46.1937H63.964V48.9307ZM73.5376 55.1047C72.9776 55.1047 72.5086 55.002 72.1306 54.7967C71.7526 54.5867 71.4656 54.3113 71.2696 53.9707C71.0783 53.6253 70.9826 53.2473 70.9826 52.8367C70.9826 52.454 71.0503 52.118 71.1856 51.8287C71.321 51.5393 71.5216 51.2943 71.7876 51.0937C72.0536 50.8883 72.3803 50.7227 72.7676 50.5967C73.1036 50.4987 73.484 50.4123 73.9086 50.3377C74.3333 50.263 74.779 50.193 75.2456 50.1277C75.717 50.0623 76.1836 49.997 76.6456 49.9317L76.1136 50.2257C76.123 49.633 75.997 49.1943 75.7356 48.9097C75.479 48.6203 75.0356 48.4757 74.4056 48.4757C74.009 48.4757 73.645 48.569 73.3136 48.7557C72.9823 48.9377 72.7513 49.241 72.6206 49.6657L71.2556 49.2457C71.4423 48.597 71.797 48.0813 72.3196 47.6987C72.847 47.316 73.547 47.1247 74.4196 47.1247C75.0963 47.1247 75.6843 47.2413 76.1836 47.4747C76.6876 47.7033 77.0563 48.0673 77.2896 48.5667C77.411 48.814 77.4856 49.0753 77.5136 49.3507C77.5416 49.626 77.5556 49.9223 77.5556 50.2397V54.8947H76.2606V53.1657L76.5126 53.3897C76.2 53.9683 75.801 54.4 75.3156 54.6847C74.835 54.9647 74.2423 55.1047 73.5376 55.1047ZM73.7966 53.9077C74.212 53.9077 74.569 53.8353 74.8676 53.6907C75.1663 53.5413 75.4066 53.3523 75.5886 53.1237C75.7706 52.895 75.8896 52.657 75.9456 52.4097C76.025 52.1857 76.0693 51.9337 76.0786 51.6537C76.0926 51.3737 76.0996 51.1497 76.0996 50.9817L76.5756 51.1567C76.1136 51.2267 75.6936 51.2897 75.3156 51.3457C74.9376 51.4017 74.5946 51.4577 74.2866 51.5137C73.9833 51.565 73.7126 51.628 73.4746 51.7027C73.274 51.7727 73.0943 51.8567 72.9356 51.9547C72.7816 52.0527 72.658 52.1717 72.5646 52.3117C72.476 52.4517 72.4316 52.622 72.4316 52.8227C72.4316 53.0187 72.4806 53.2007 72.5786 53.3687C72.6766 53.532 72.826 53.6627 73.0266 53.7607C73.2273 53.8587 73.484 53.9077 73.7966 53.9077ZM84.852 54.8947V51.1777C84.852 50.8837 84.8263 50.5827 84.775 50.2747C84.7283 49.962 84.635 49.6727 84.495 49.4067C84.3596 49.1407 84.166 48.926 83.914 48.7627C83.6666 48.5993 83.3423 48.5177 82.941 48.5177C82.6796 48.5177 82.4323 48.562 82.199 48.6507C81.9656 48.7347 81.7603 48.8723 81.583 49.0637C81.4103 49.255 81.2726 49.507 81.17 49.8197C81.072 50.1323 81.023 50.5127 81.023 50.9607L80.113 50.6177C80.113 49.9317 80.2413 49.3273 80.498 48.8047C80.7546 48.2773 81.1233 47.8667 81.604 47.5727C82.0846 47.2787 82.6656 47.1317 83.347 47.1317C83.8696 47.1317 84.3083 47.2157 84.663 47.3837C85.0176 47.5517 85.3046 47.7733 85.524 48.0487C85.748 48.3193 85.9183 48.6157 86.035 48.9377C86.1516 49.2597 86.231 49.5747 86.273 49.8827C86.315 50.1907 86.336 50.4613 86.336 50.6947V54.8947H84.852ZM79.539 54.8947V47.3347H80.848V49.5187H81.023V54.8947H79.539ZM88.3249 54.8947L88.3319 44.8147H89.8159V50.9747L92.7839 47.3347H94.6459L91.5099 51.1147L94.9679 54.8947H92.9799L89.8159 51.2547V54.8947H88.3249Z" fill="white"/>
<rect x="0.833252" y="1.39465" width="155.333" height="65" rx="7.5" stroke="#525252"/>
<defs>
<clipPath id="clip0_1334_2617">
<rect width="24" height="24" fill="white" transform="translate(66.5 8.89465)"/>
</clipPath>
</defs>
</svg>
