<svg width="40" height="40" viewBox="0 0 40 40" fill="none" xmlns="http://www.w3.org/2000/svg">
<g clip-path="url(#clip0_2098_7948)">
<path d="M20.0004 2.22266C16.4843 2.22266 13.0472 3.2653 10.1236 5.21875C7.2001 7.1722 4.92147 9.94871 3.57592 13.1972C2.23036 16.4456 1.8783 20.0202 2.56426 23.4687C3.25022 26.9173 4.94339 30.085 7.42966 32.5712C9.91592 35.0575 13.0836 36.7507 16.5322 37.4366C19.9807 38.1226 23.5552 37.7705 26.8037 36.425C30.0522 35.0794 32.8287 32.8008 34.7821 29.8772C36.7356 26.9537 37.7782 23.5165 37.7782 20.0004C37.7782 15.2855 35.9052 10.7636 32.5712 7.42965C29.2373 4.09567 24.7154 2.22266 20.0004 2.22266ZM20.0004 35.556C16.9238 35.556 13.9163 34.6437 11.3582 32.9344C8.80014 31.2251 6.80635 28.7957 5.62898 25.9533C4.45162 23.1109 4.14357 19.9832 4.74378 16.9657C5.344 13.9482 6.82552 11.1765 9.001 9.001C11.1765 6.82551 13.9482 5.34399 16.9657 4.74377C19.9832 4.14356 23.1109 4.45161 25.9533 5.62897C28.7957 6.80634 31.2252 8.80013 32.9344 11.3582C34.6437 13.9163 35.556 16.9238 35.556 20.0004C35.556 24.126 33.9171 28.0826 30.9999 30.9999C28.0826 33.9171 24.126 35.556 20.0004 35.556Z" fill="white"/>
<path d="M31.1126 13.4442C30.9044 13.2373 30.6228 13.1211 30.3292 13.1211C30.0357 13.1211 29.7541 13.2373 29.5459 13.4442L17.2126 25.722L10.5459 19.0553C10.3426 18.8358 10.0603 18.706 9.76133 18.6945C9.46231 18.6831 9.17099 18.7909 8.95145 18.9942C8.73191 19.1975 8.60213 19.4797 8.59067 19.7788C8.57921 20.0778 8.687 20.3691 8.89034 20.5886L17.2126 28.8886L31.1126 15.022C31.2167 14.9187 31.2994 14.7958 31.3558 14.6604C31.4122 14.525 31.4412 14.3798 31.4412 14.2331C31.4412 14.0864 31.4122 13.9412 31.3558 13.8058C31.2994 13.6704 31.2167 13.5475 31.1126 13.4442Z" fill="white"/>
</g>
<defs>
<clipPath id="clip0_2098_7948">
<rect width="40" height="40" fill="white"/>
</clipPath>
</defs>
</svg>
