<svg width="40" height="39" viewBox="0 0 40 39" fill="none" xmlns="http://www.w3.org/2000/svg">
<rect x="0.906661" y="0.539474" width="37.7632" height="37.7632" rx="18.8816" fill="white"/>
<path d="M14.9765 13.4302C14.8194 13.2784 14.6089 13.1944 14.3904 13.1963C14.1719 13.1982 13.9629 13.2859 13.8084 13.4404C13.6539 13.5949 13.5662 13.8039 13.5643 14.0224C13.5624 14.2409 13.6464 14.4514 13.7982 14.6085L18.6107 19.421L13.7974 24.2335C13.7178 24.3104 13.6543 24.4024 13.6106 24.504C13.5669 24.6057 13.544 24.7151 13.543 24.8257C13.542 24.9364 13.5631 25.0461 13.605 25.1485C13.6469 25.2509 13.7088 25.344 13.787 25.4222C13.8653 25.5005 13.9583 25.5623 14.0607 25.6042C14.1632 25.6461 14.2729 25.6672 14.3835 25.6663C14.4942 25.6653 14.6035 25.6423 14.7052 25.5986C14.8069 25.555 14.8988 25.4915 14.9757 25.4119L19.789 20.5994L24.6015 25.4119C24.7587 25.5637 24.9692 25.6477 25.1877 25.6458C25.4062 25.6439 25.6152 25.5562 25.7697 25.4017C25.9242 25.2472 26.0119 25.0382 26.0138 24.8197C26.0157 24.6012 25.9317 24.3907 25.7799 24.2335L20.9674 19.421L25.7799 14.6085C25.9317 14.4514 26.0157 14.2409 26.0138 14.0224C26.0119 13.8039 25.9242 13.5949 25.7697 13.4404C25.6152 13.2859 25.4062 13.1982 25.1877 13.1963C24.9692 13.1944 24.7587 13.2784 24.6015 13.4302L19.789 18.2427L14.9765 13.4302Z" fill="#010615"/>
<rect x="0.906661" y="0.539474" width="37.7632" height="37.7632" rx="18.8816" stroke="#DADDE5" stroke-width="1.07895"/>
</svg>
