<svg width="39" height="40" viewBox="0 0 39 40" fill="none" xmlns="http://www.w3.org/2000/svg">
<rect x="0.539474" y="1.32951" width="37.7632" height="37.7632" rx="18.8816" fill="white"/>
<path d="M19.4219 10.2109C13.9079 10.2109 9.42188 14.6969 9.42188 20.2109V24.3539C9.42188 25.3779 10.3189 26.2109 11.4219 26.2109H12.4219C12.6871 26.2109 12.9414 26.1056 13.129 25.918C13.3165 25.7305 13.4219 25.4762 13.4219 25.2109V20.0679C13.4219 19.8027 13.3165 19.5484 13.129 19.3608C12.9414 19.1733 12.6871 19.0679 12.4219 19.0679H11.5139C12.0699 15.1979 15.3999 12.2109 19.4219 12.2109C23.4439 12.2109 26.7739 15.1979 27.3299 19.0679H26.4219C26.1567 19.0679 25.9023 19.1733 25.7148 19.3608C25.5272 19.5484 25.4219 19.8027 25.4219 20.0679V26.2109C25.4219 27.3139 24.5249 28.2109 23.4219 28.2109H21.4219V27.2109H17.4219V30.2109H23.4219C25.6279 30.2109 27.4219 28.4169 27.4219 26.2109C28.5249 26.2109 29.4219 25.3779 29.4219 24.3539V20.2109C29.4219 14.6969 24.9359 10.2109 19.4219 10.2109Z" fill="#0765FF"/>
<rect x="0.539474" y="1.32951" width="37.7632" height="37.7632" rx="18.8816" stroke="#DADDE5" stroke-width="1.07895"/>
</svg>
