<svg width="62" height="61" viewBox="0 0 62 61" fill="none" xmlns="http://www.w3.org/2000/svg">
<mask id="mask0_2098_6622" style="mask-type:alpha" maskUnits="userSpaceOnUse" x="0" y="8" width="44" height="51">
<path d="M42.1302 12.257L23.2952 8.13327C22.5797 7.97662 21.8388 7.97662 21.1232 8.13327L2.28828 12.257C1.43278 12.4387 0.882812 13.1656 0.882812 14.0137V38.1836C0.882812 42.848 3.20489 47.1489 7.11575 49.6931L19.4057 57.8316C21.1053 58.9571 23.3132 58.9571 25.0128 57.8316L37.3027 49.6931C41.2136 47.1489 43.5356 42.7874 43.5356 38.1836V14.0137C43.5356 13.1656 42.9246 12.4387 42.1302 12.257Z" fill="url(#paint0_linear_2098_6622)"/>
</mask>
<g mask="url(#mask0_2098_6622)">
<path d="M42.1302 12.257L23.2952 8.13327C22.5797 7.97662 21.8388 7.97662 21.1232 8.13327L2.28828 12.257C1.43278 12.4387 0.882812 13.1656 0.882812 14.0137V38.1836C0.882812 42.848 3.20489 47.1489 7.11575 49.6931L19.4057 57.8316C21.1053 58.9571 23.3132 58.9571 25.0128 57.8316L37.3027 49.6931C41.2136 47.1489 43.5356 42.7874 43.5356 38.1836V14.0137C43.5356 13.1656 42.9246 12.4387 42.1302 12.257Z" fill="#0765FF"/>
</g>
<g clip-path="url(#clip0_2098_6622)">
<path d="M60.1839 4.53462L41.6859 0.429688L23.1879 4.53462C22.3935 4.70565 21.8828 5.38981 21.8828 6.18799V28.9361C21.8828 33.3261 24.039 37.374 27.6705 39.7686L41.6859 49.1757L55.7013 39.7686C59.3328 37.374 61.489 33.2691 61.489 28.9361V6.18799C61.489 5.38981 60.9216 4.70565 60.1839 4.53462ZM58.1412 28.9361C58.1412 32.1859 56.5524 35.2076 53.8288 37.032L41.6859 45.1848L29.4863 37.032C26.8194 35.2076 25.1739 32.1859 25.1739 28.9361V7.49929L42.2533 3.67942L58.1412 7.21422V28.9361Z" fill="white"/>
<path d="M51.2749 22.0949L39.2455 34.2387L31.6421 26.5989C31.3016 26.2569 31.3016 25.7437 31.6421 25.4587L32.6634 24.4325C33.0039 24.0904 33.5146 24.0904 33.7983 24.4325L39.1888 29.8487L49.1187 19.9284C49.4592 19.5864 49.9131 19.5864 50.2536 19.9284L51.2749 20.9547C51.6154 21.2967 51.6154 21.8099 51.2749 22.0949Z" fill="white"/>
</g>
<defs>
<linearGradient id="paint0_linear_2098_6622" x1="34.4681" y1="33.7342" x2="16.2323" y2="16.4532" gradientUnits="userSpaceOnUse">
<stop/>
<stop offset="1" stop-opacity="0"/>
</linearGradient>
<clipPath id="clip0_2098_6622">
<rect width="39.6062" height="48.746" fill="white" transform="translate(21.8828 0.429688)"/>
</clipPath>
</defs>
</svg>
