<svg width="62" height="61" viewBox="0 0 62 61" fill="none" xmlns="http://www.w3.org/2000/svg">
<mask id="mask0_2098_6611" style="mask-type:alpha" maskUnits="userSpaceOnUse" x="0" y="9" width="51" height="50">
<rect x="0.146484" y="9.53809" width="50.4878" height="49.333" rx="24.6665" fill="url(#paint0_linear_2098_6611)"/>
</mask>
<g mask="url(#mask0_2098_6611)">
<rect x="0.146484" y="9.53809" width="50.4878" height="49.333" rx="24.6665" fill="#0765FF"/>
</g>
<path d="M28.8708 41.7102C27.4807 40.0867 26.1128 38.4289 24.6802 36.8397C24.479 36.6161 23.9565 36.6107 23.5725 36.607C21.5972 36.5836 19.6219 36.607 17.6466 36.5854C16.4245 36.5746 15.6454 35.9378 15.6362 35.007C15.627 34.0762 16.3746 33.4106 17.6097 33.3835C19.1401 33.3547 20.6723 33.3835 22.3541 33.3835C21.8815 31.807 21.4975 30.3404 20.964 28.9244C20.868 28.6646 20.172 28.5005 19.7493 28.4951C16.3709 28.4608 12.9889 28.4861 9.61058 28.4626C9.10106 28.4626 8.41431 28.4626 8.13371 28.174C7.7368 27.7717 7.34357 26.987 7.49679 26.5505C7.6814 26.049 8.41984 25.4465 8.97366 25.4123C11.0284 25.277 13.096 25.3527 15.1599 25.3509H20.4674C20.652 23.7166 20.8256 22.2014 21.0212 20.5112L19.1198 20.4192C18.1173 20.3741 17.3955 19.97 17.3623 18.9075C17.3291 17.7729 18.0693 17.3219 19.1253 17.2606C19.6067 17.2173 20.0912 17.2173 20.5726 17.2606C21.7191 17.4013 22.3024 16.9503 22.9079 15.9402C23.6464 14.7063 23.4876 13.9559 22.4169 13.1568C21.9802 12.7981 21.5728 12.4067 21.1985 11.9861C20.4397 11.2032 20.388 10.3825 21.1708 9.60141C22.4914 8.27857 23.8292 6.97739 25.1842 5.69785C25.9854 4.94022 26.9989 4.89152 27.6007 5.75016C29.1976 8.02122 30.8905 8.10961 33.2405 6.73507C34.614 5.93235 36.401 5.78083 38.02 5.41103C39.3935 5.09716 39.4046 5.14406 39.0779 3.44843C38.5997 3.44843 38.0847 3.47368 37.5733 3.44843C36.5875 3.3889 36.03 2.85496 36.0207 1.88989C36.0207 0.977137 36.5505 0.392685 37.4662 0.372842C39.7455 0.322334 42.0273 0.322334 44.3115 0.372842C45.2899 0.396292 45.8419 1.01321 45.7884 1.99632C45.7349 2.97942 45.0813 3.39431 44.1269 3.46286C43.4199 3.51337 42.351 3.14177 42.5817 4.47844C42.6353 4.78509 43.0211 5.23065 43.3072 5.27214C46.0042 5.66363 48.6102 6.51345 51.0073 7.78311C51.2971 7.93644 51.9193 7.81198 52.2054 7.5901C52.9217 7.03451 53.5217 6.3274 54.1918 5.71589C54.9985 4.97089 55.8533 4.9763 56.6397 5.7249C57.9615 6.97799 59.2661 8.25031 60.5534 9.54188C61.3638 10.3536 61.4654 11.3457 60.535 12.0096C58.3621 13.5465 58.4304 14.9968 59.5048 17.4049C65.2277 30.2124 55.4434 44.5801 41.1529 44.6433C32.155 44.6811 23.1553 44.6523 14.1556 44.6577C13.2954 44.6577 12.3686 44.6577 12.125 43.6656C11.9994 43.1677 12.0972 42.3722 12.4332 42.0655C12.8431 41.6903 13.6092 41.5496 14.224 41.5442C18.6546 41.5045 23.0852 41.5262 27.5158 41.528H29.2954L28.8708 41.7102ZM29.0462 36.6395C33.3088 41.5605 42.2476 42.8556 48.6147 39.6808C55.713 36.138 59.3627 28.3291 57.4169 20.8467C55.4324 13.2145 48.3895 8.1024 40.143 8.31165C34.3998 8.45596 26.9693 13.1226 26.1128 17.1506C27.5896 17.3743 28.7693 17.2768 29.8585 15.8879C32.5556 12.4389 36.3456 10.8371 40.7375 10.8136C42.3657 10.8136 44.0106 11.297 45.6222 11.6704C46.6228 11.9031 47.0696 12.6752 46.7557 13.6547C46.4419 14.6342 45.6629 14.9282 44.6604 14.6558C44.2801 14.5512 43.9072 14.4267 43.5232 14.3402C38.9819 13.3174 35.1198 14.5314 32.2196 18.0417C29.2954 21.5827 28.7674 25.6089 30.8388 29.7325C32.8085 33.6505 36.2312 35.5807 40.6489 35.8386C41.7417 35.9035 42.4211 36.3527 42.482 37.4296C42.5356 38.3712 41.6698 39.1451 40.4827 38.9268C38.3523 38.5372 36.1426 38.171 34.206 37.2907C32.5205 36.5169 30.968 36.6251 29.0462 36.6359V36.6395ZM24.2741 28.7494C24.6433 29.7415 24.9423 30.7481 25.3614 31.706C26.1718 33.5549 26.914 33.8255 29.0388 33.122C28.7416 32.6007 28.4315 32.0938 28.1582 31.5689C27.885 31.0439 27.621 30.4956 27.3939 29.9454C26.7054 28.2678 26.4303 28.1451 24.2741 28.7458V28.7494ZM27.0118 20.4138C26.3823 20.4138 25.8506 20.3434 25.3503 20.4372C24.9977 20.5022 24.4439 20.7385 24.3959 20.9784C24.1116 22.3673 23.9528 23.778 23.7442 25.2355H26.2697C26.5189 23.6102 26.7497 22.104 27.0118 20.4102V20.4138ZM57.2618 10.8533L55.3124 8.93578L54.2509 9.91889L56.1154 11.6903L57.2618 10.8533ZM25.5553 11.7552L27.3792 10.0812C27.0524 9.69882 26.7589 9.35969 26.482 9.0368L24.5657 10.7126L25.5553 11.7552Z" fill="white"/>
<path d="M13.3969 20.3809C12.9169 20.3809 12.3169 20.5613 11.9791 20.3412C11.4253 19.9805 10.6868 19.3888 10.6702 18.8747C10.6536 18.3606 11.3477 17.538 11.8923 17.3793C12.7766 17.1195 13.7993 17.226 14.7538 17.2963C15.7082 17.3667 16.2934 17.9367 16.2306 18.9198C16.1679 19.9029 15.5439 20.3521 14.5821 20.4026C14.1889 20.4242 13.7938 20.4026 13.3987 20.4026L13.3969 20.3809Z" fill="white"/>
<path d="M41.5214 25.9403C41.0359 25.5327 40.3676 25.2332 40.2292 24.7805C40.0723 24.27 40.196 23.451 40.5449 23.0614C41.7522 21.7103 43.1072 20.4873 44.4106 19.2173C45.869 17.7971 47.3286 16.3787 48.7895 14.962C49.5575 14.2098 50.4122 14.0493 51.219 14.8033C52.0608 15.588 51.8152 16.443 51.075 17.17C48.3538 19.8397 45.621 22.4962 42.8765 25.1394C42.5516 25.4497 42.0845 25.6138 41.5214 25.9403Z" fill="white"/>
<defs>
<linearGradient id="paint0_linear_2098_6611" x1="39.9012" y1="34.1497" x2="22.7362" y2="13.9355" gradientUnits="userSpaceOnUse">
<stop/>
<stop offset="1" stop-opacity="0"/>
</linearGradient>
</defs>
</svg>
