<svg width="170" height="141" viewBox="0 0 170 141" fill="none" xmlns="http://www.w3.org/2000/svg">
<path d="M0.562687 22.395C0.562687 10.5555 10.1605 0.957706 22 0.957706H148C159.84 0.957706 169.437 10.5555 169.437 22.395V118.395C169.437 130.235 159.84 139.832 148 139.832H22C10.1605 139.832 0.562687 130.235 0.562687 118.395V22.395Z" fill="url(#paint0_linear_1334_1850)"/>
<mask id="mask0_1334_1850" style="mask-type:alpha" maskUnits="userSpaceOnUse" x="54" y="29" width="51" height="50">
<rect x="54.1464" y="29.5386" width="50.4878" height="49.333" rx="24.6665" fill="url(#paint1_linear_1334_1850)"/>
</mask>
<g mask="url(#mask0_1334_1850)">
<rect x="54.1464" y="29.5386" width="50.4878" height="49.333" rx="24.6665" fill="url(#paint2_linear_1334_1850)"/>
</g>
<path d="M82.8714 61.7102C81.4813 60.0867 80.1134 58.4289 78.6808 56.8397C78.4796 56.6161 77.9571 56.6107 77.5731 56.607C75.5978 56.5836 73.6225 56.607 71.6472 56.5854C70.4251 56.5746 69.646 55.9378 69.6368 55.007C69.6276 54.0762 70.3753 53.4106 71.6103 53.3835C73.1407 53.3547 74.6729 53.3835 76.3547 53.3835C75.8821 51.807 75.4982 50.3404 74.9646 48.9244C74.8686 48.6646 74.1727 48.5005 73.7499 48.4951C70.3716 48.4608 66.9895 48.4861 63.6112 48.4626C63.1017 48.4626 62.4149 48.4626 62.1343 48.174C61.7374 47.7717 61.3442 46.987 61.4974 46.5505C61.682 46.049 62.4204 45.4465 62.9743 45.4123C65.029 45.277 67.0966 45.3527 69.1605 45.3509H74.468C74.6526 43.7166 74.8262 42.2014 75.0219 40.5112L73.1204 40.4192C72.1179 40.3741 71.3961 39.97 71.3629 38.9075C71.3297 37.7729 72.07 37.3219 73.1259 37.2606C73.6073 37.2173 74.0918 37.2173 74.5732 37.2606C75.7197 37.4013 76.303 36.9503 76.9086 35.9402C77.647 34.7063 77.4882 33.9559 76.4175 33.1568C75.9808 32.7981 75.5734 32.4067 75.1991 31.9861C74.4403 31.2032 74.3887 30.3825 75.1714 29.6014C76.492 28.2786 77.8298 26.9774 79.1848 25.6978C79.986 24.9402 80.9995 24.8915 81.6013 25.7502C83.1982 28.0212 84.8911 28.1096 87.2411 26.7351C88.6146 25.9323 90.4016 25.7808 92.0206 25.411C93.3941 25.0972 93.4052 25.1441 93.0785 23.4484C92.6003 23.4484 92.0853 23.4737 91.5739 23.4484C90.5881 23.3889 90.0306 22.855 90.0213 21.8899C90.0213 20.9771 90.5512 20.3927 91.4668 20.3728C93.7461 20.3223 96.0279 20.3223 98.3121 20.3728C99.2906 20.3963 99.8425 21.0132 99.789 21.9963C99.7355 22.9794 99.0819 23.3943 98.1275 23.4629C97.4205 23.5134 96.3516 23.1418 96.5823 24.4784C96.6359 24.7851 97.0217 25.2306 97.3078 25.2721C100.005 25.6636 102.611 26.5134 105.008 27.7831C105.298 27.9364 105.92 27.812 106.206 27.5901C106.922 27.0345 107.522 26.3274 108.192 25.7159C108.999 24.9709 109.854 24.9763 110.64 25.7249C111.962 26.978 113.267 28.2503 114.554 29.5419C115.364 30.3536 115.466 31.3457 114.536 32.0096C112.363 33.5465 112.431 34.9968 113.505 37.4049C119.228 50.2124 109.444 64.5801 95.1535 64.6433C86.1556 64.6811 77.1559 64.6523 68.1563 64.6577C67.296 64.6577 66.3692 64.6577 66.1256 63.6656C66 63.1677 66.0979 62.3722 66.4338 62.0655C66.8437 61.6903 67.6098 61.5496 68.2246 61.5442C72.6552 61.5045 77.0858 61.5262 81.5164 61.528H83.296L82.8714 61.7102ZM83.0468 56.6395C87.3094 61.5605 96.2482 62.8556 102.615 59.6808C109.714 56.138 113.363 48.3291 111.418 40.8467C109.433 33.2145 102.39 28.1024 94.1436 28.3116C88.4005 28.456 80.9699 33.1226 80.1134 37.1506C81.5902 37.3743 82.7699 37.2768 83.8591 35.8879C86.5562 32.4389 90.3463 30.8371 94.7381 30.8136C96.3664 30.8136 98.0112 31.297 99.6228 31.6704C100.623 31.9031 101.07 32.6752 100.756 33.6547C100.443 34.6342 99.6635 34.9282 98.661 34.6558C98.2807 34.5512 97.9078 34.4267 97.5238 34.3402C92.9825 33.3174 89.1204 34.5314 86.2202 38.0417C83.296 41.5827 82.7681 45.6089 84.8394 49.7325C86.8091 53.6505 90.2318 55.5807 94.6495 55.8386C95.7424 55.9035 96.4217 56.3527 96.4826 57.4296C96.5362 58.3712 95.6704 59.1451 94.4833 58.9268C92.353 58.5372 90.1432 58.171 88.2066 57.2907C86.5212 56.5169 84.9686 56.6251 83.0468 56.6359V56.6395ZM78.2747 48.7494C78.6439 49.7415 78.943 50.7481 79.362 51.706C80.1724 53.5549 80.9146 53.8255 83.0394 53.122C82.7422 52.6007 82.4321 52.0938 82.1588 51.5689C81.8856 51.0439 81.6216 50.4956 81.3946 49.9454C80.706 48.2678 80.4309 48.1451 78.2747 48.7458V48.7494ZM81.0124 40.4138C80.3829 40.4138 79.8512 40.3434 79.3509 40.4372C78.9983 40.5022 78.4445 40.7385 78.3965 40.9784C78.1122 42.3673 77.9534 43.778 77.7448 45.2355H80.2703C80.5195 43.6102 80.7503 42.104 81.0124 40.4102V40.4138ZM111.262 30.8533L109.313 28.9358L108.251 29.9189L110.116 31.6903L111.262 30.8533ZM79.5559 31.7552L81.3798 30.0812C81.053 29.6988 80.7595 29.3597 80.4826 29.0368L78.5663 30.7126L79.5559 31.7552Z" fill="white"/>
<path d="M67.3981 40.3812C66.9181 40.3812 66.3182 40.5616 65.9803 40.3415C65.4265 39.9807 64.6881 39.389 64.6714 38.8749C64.6548 38.3608 65.3489 37.5383 65.8935 37.3795C66.7778 37.1198 67.8006 37.2262 68.755 37.2966C69.7094 37.3669 70.2946 37.9369 70.2319 38.92C70.1691 39.9032 69.5451 40.3523 68.5833 40.4028C68.1901 40.4245 67.795 40.4028 67.4 40.4028L67.3981 40.3812Z" fill="white"/>
<path d="M95.5233 45.9401C95.0378 45.5324 94.3695 45.233 94.231 44.7802C94.0741 44.2697 94.1978 43.4508 94.5467 43.0611C95.7541 41.71 97.1091 40.487 98.4124 39.2171C99.8708 37.7969 101.33 36.3784 102.791 34.9618C103.559 34.2096 104.414 34.049 105.221 34.803C106.063 35.5877 105.817 36.4428 105.077 37.1697C102.356 39.8394 99.6228 42.4959 96.8783 45.1392C96.5534 45.4494 96.0863 45.6136 95.5233 45.9401Z" fill="white"/>
<path d="M66.1461 114.395V99.995H74.6761V102.085H68.2361V106.145H73.4761V108.245H68.2361V114.395H66.1461ZM79.1375 114.695C78.3375 114.695 77.6675 114.548 77.1275 114.255C76.5875 113.955 76.1775 113.562 75.8975 113.075C75.6242 112.582 75.4875 112.042 75.4875 111.455C75.4875 110.908 75.5842 110.428 75.7775 110.015C75.9708 109.602 76.2575 109.252 76.6375 108.965C77.0175 108.672 77.4842 108.435 78.0375 108.255C78.5175 108.115 79.0608 107.992 79.6675 107.885C80.2742 107.778 80.9108 107.678 81.5775 107.585C82.2508 107.492 82.9175 107.398 83.5775 107.305L82.8175 107.725C82.8308 106.878 82.6508 106.252 82.2775 105.845C81.9108 105.432 81.2775 105.225 80.3775 105.225C79.8108 105.225 79.2908 105.358 78.8175 105.625C78.3442 105.885 78.0142 106.318 77.8275 106.925L75.8775 106.325C76.1442 105.398 76.6508 104.662 77.3975 104.115C78.1508 103.568 79.1508 103.295 80.3975 103.295C81.3642 103.295 82.2042 103.462 82.9175 103.795C83.6375 104.122 84.1642 104.642 84.4975 105.355C84.6708 105.708 84.7775 106.082 84.8175 106.475C84.8575 106.868 84.8775 107.292 84.8775 107.745V114.395H83.0275V111.925L83.3875 112.245C82.9408 113.072 82.3708 113.688 81.6775 114.095C80.9908 114.495 80.1442 114.695 79.1375 114.695ZM79.5075 112.985C80.1008 112.985 80.6108 112.882 81.0375 112.675C81.4642 112.462 81.8075 112.192 82.0675 111.865C82.3275 111.538 82.4975 111.198 82.5775 110.845C82.6908 110.525 82.7542 110.165 82.7675 109.765C82.7875 109.365 82.7975 109.045 82.7975 108.805L83.4775 109.055C82.8175 109.155 82.2175 109.245 81.6775 109.325C81.1375 109.405 80.6475 109.485 80.2075 109.565C79.7742 109.638 79.3875 109.728 79.0475 109.835C78.7608 109.935 78.5042 110.055 78.2775 110.195C78.0575 110.335 77.8808 110.505 77.7475 110.705C77.6208 110.905 77.5575 111.148 77.5575 111.435C77.5575 111.715 77.6275 111.975 77.7675 112.215C77.9075 112.448 78.1208 112.635 78.4075 112.775C78.6942 112.915 79.0608 112.985 79.5075 112.985ZM91.6042 114.685C90.2909 114.685 89.2209 114.395 88.3942 113.815C87.5676 113.235 87.0609 112.418 86.8742 111.365L89.0142 111.035C89.1476 111.595 89.4542 112.038 89.9342 112.365C90.4209 112.685 91.0242 112.845 91.7442 112.845C92.3976 112.845 92.9076 112.712 93.2742 112.445C93.6476 112.178 93.8342 111.812 93.8342 111.345C93.8342 111.072 93.7676 110.852 93.6342 110.685C93.5076 110.512 93.2376 110.348 92.8242 110.195C92.4109 110.042 91.7809 109.852 90.9342 109.625C90.0076 109.385 89.2709 109.128 88.7242 108.855C88.1842 108.575 87.7976 108.252 87.5642 107.885C87.3376 107.512 87.2242 107.062 87.2242 106.535C87.2242 105.882 87.3976 105.312 87.7442 104.825C88.0909 104.338 88.5776 103.962 89.2042 103.695C89.8376 103.428 90.5776 103.295 91.4242 103.295C92.2509 103.295 92.9876 103.425 93.6342 103.685C94.2809 103.945 94.8042 104.315 95.2042 104.795C95.6042 105.268 95.8442 105.825 95.9242 106.465L93.7842 106.855C93.7109 106.335 93.4676 105.925 93.0542 105.625C92.6409 105.325 92.1042 105.162 91.4442 105.135C90.8109 105.108 90.2976 105.215 89.9042 105.455C89.5109 105.688 89.3142 106.012 89.3142 106.425C89.3142 106.665 89.3876 106.868 89.5342 107.035C89.6876 107.202 89.9809 107.362 90.4142 107.515C90.8476 107.668 91.4876 107.852 92.3342 108.065C93.2409 108.298 93.9609 108.558 94.4942 108.845C95.0276 109.125 95.4076 109.462 95.6342 109.855C95.8676 110.242 95.9842 110.712 95.9842 111.265C95.9842 112.332 95.5942 113.168 94.8142 113.775C94.0409 114.382 92.9709 114.685 91.6042 114.685ZM104.377 114.395C103.697 114.528 103.03 114.585 102.377 114.565C101.724 114.545 101.14 114.418 100.627 114.185C100.114 113.952 99.7269 113.585 99.4669 113.085C99.2335 112.638 99.1069 112.185 99.0869 111.725C99.0735 111.258 99.0669 110.732 99.0669 110.145V100.595H101.167V110.045C101.167 110.478 101.17 110.855 101.177 111.175C101.19 111.495 101.26 111.765 101.387 111.985C101.627 112.398 102.007 112.635 102.527 112.695C103.054 112.748 103.67 112.725 104.377 112.625V114.395ZM96.9969 105.275V103.595H104.377V105.275H96.9969Z" fill="white"/>
<path d="M0.562687 22.395C0.562687 10.5555 10.1605 0.957706 22 0.957706H148C159.84 0.957706 169.437 10.5555 169.437 22.395V118.395C169.437 130.235 159.84 139.832 148 139.832H22C10.1605 139.832 0.562687 130.235 0.562687 118.395V22.395Z" stroke="url(#paint3_linear_1334_1850)" stroke-width="1.12537"/>
<defs>
<linearGradient id="paint0_linear_1334_1850" x1="91.6786" y1="0.39502" x2="91.6786" y2="140.395" gradientUnits="userSpaceOnUse">
<stop stop-color="#262626"/>
<stop offset="1" stop-opacity="0.25"/>
</linearGradient>
<linearGradient id="paint1_linear_1334_1850" x1="93.9011" y1="54.1502" x2="76.7361" y2="33.936" gradientUnits="userSpaceOnUse">
<stop/>
<stop offset="1" stop-opacity="0"/>
</linearGradient>
<linearGradient id="paint2_linear_1334_1850" x1="54.1464" y1="78.8716" x2="112.321" y2="49.3536" gradientUnits="userSpaceOnUse">
<stop offset="0.130208" stop-color="#A60FFF"/>
<stop offset="0.364583" stop-color="#8349FF"/>
<stop offset="0.578125" stop-color="#0D9EFF"/>
</linearGradient>
<linearGradient id="paint3_linear_1334_1850" x1="64.9643" y1="-11.2716" x2="64.9643" y2="123.111" gradientUnits="userSpaceOnUse">
<stop stop-color="#A60FFF"/>
<stop offset="1" stop-color="#0D9EFF"/>
</linearGradient>
</defs>
</svg>
