<svg width="170" height="141" viewBox="0 0 170 141" fill="none" xmlns="http://www.w3.org/2000/svg">
<path d="M0.562687 22.395C0.562687 10.5555 10.1605 0.957706 22 0.957706H148C159.84 0.957706 169.437 10.5555 169.437 22.395V118.395C169.437 130.235 159.84 139.832 148 139.832H22C10.1605 139.832 0.562687 130.235 0.562687 118.395V22.395Z" fill="url(#paint0_linear_1334_1873)"/>
<mask id="mask0_1334_1873" style="mask-type:alpha" maskUnits="userSpaceOnUse" x="54" y="28" width="44" height="51">
<path d="M96.1321 32.257L77.2972 28.1333C76.5816 27.9766 75.8407 27.9766 75.1252 28.1333L56.2902 32.257C55.4347 32.4387 54.8848 33.1656 54.8848 34.0137V58.1836C54.8848 62.848 57.2068 67.1489 61.1177 69.6931L73.4076 77.8316C75.1072 78.9571 77.3151 78.9571 79.0147 77.8316L91.3047 69.6931C95.2155 67.1489 97.5376 62.7874 97.5376 58.1836V34.0137C97.5376 33.1656 96.9265 32.4387 96.1321 32.257Z" fill="url(#paint1_linear_1334_1873)"/>
</mask>
<g mask="url(#mask0_1334_1873)">
<path d="M96.1321 32.257L77.2972 28.1333C76.5816 27.9766 75.8407 27.9766 75.1252 28.1333L56.2902 32.257C55.4347 32.4387 54.8848 33.1656 54.8848 34.0137V58.1836C54.8848 62.848 57.2068 67.1489 61.1177 69.6931L73.4076 77.8316C75.1072 78.9571 77.3151 78.9571 79.0147 77.8316L91.3047 69.6931C95.2155 67.1489 97.5376 62.7874 97.5376 58.1836V34.0137C97.5376 33.1656 96.9265 32.4387 96.1321 32.257Z" fill="url(#paint2_linear_1334_1873)"/>
</g>
<g clip-path="url(#clip0_1334_1873)">
<path d="M114.186 24.5336L95.6879 20.4287L77.1898 24.5336C76.3954 24.7047 75.8848 25.3888 75.8848 26.187V48.9352C75.8848 53.3252 78.041 57.3731 81.6725 59.7676L95.6879 69.1747L109.703 59.7676C113.335 57.3731 115.491 53.2681 115.491 48.9352V26.187C115.491 25.3888 114.924 24.7047 114.186 24.5336ZM112.143 48.9352C112.143 52.1849 110.554 55.2066 107.831 57.031L95.6879 65.1838L83.4882 57.031C80.8214 55.2066 79.1758 52.1849 79.1758 48.9352V27.4983L96.2553 23.6784L112.143 27.2132V48.9352Z" fill="white"/>
<path d="M105.277 42.0937L93.248 54.2374L85.6445 46.5977C85.304 46.2556 85.304 45.7425 85.6445 45.4575L86.6659 44.4312C87.0063 44.0892 87.517 44.0892 87.8007 44.4312L93.1912 49.8475L103.121 39.9272C103.462 39.5851 103.916 39.5851 104.256 39.9272L105.277 40.9534C105.618 41.2955 105.618 41.8086 105.277 42.0937Z" fill="white"/>
</g>
<path d="M57.6454 114.695C56.6121 114.695 55.6787 114.518 54.8454 114.165C54.0187 113.805 53.3354 113.295 52.7954 112.635C52.2621 111.968 51.9154 111.178 51.7554 110.265L53.9354 109.935C54.1554 110.815 54.6154 111.502 55.3154 111.995C56.0154 112.482 56.8321 112.725 57.7654 112.725C58.3454 112.725 58.8787 112.635 59.3654 112.455C59.8521 112.268 60.2421 112.005 60.5354 111.665C60.8354 111.318 60.9854 110.905 60.9854 110.425C60.9854 110.165 60.9387 109.935 60.8454 109.735C60.7587 109.535 60.6354 109.362 60.4754 109.215C60.3221 109.062 60.1321 108.932 59.9054 108.825C59.6854 108.712 59.4421 108.615 59.1754 108.535L55.4854 107.445C55.1254 107.338 54.7587 107.202 54.3854 107.035C54.0121 106.862 53.6687 106.638 53.3554 106.365C53.0487 106.085 52.7987 105.742 52.6054 105.335C52.4121 104.922 52.3154 104.422 52.3154 103.835C52.3154 102.948 52.5421 102.198 52.9954 101.585C53.4554 100.965 54.0754 100.498 54.8554 100.185C55.6354 99.865 56.5087 99.705 57.4754 99.705C58.4487 99.7184 59.3187 99.8917 60.0854 100.225C60.8587 100.558 61.4987 101.038 62.0054 101.665C62.5187 102.285 62.8721 103.038 63.0654 103.925L60.8254 104.305C60.7254 103.765 60.5121 103.302 60.1854 102.915C59.8587 102.522 59.4587 102.222 58.9854 102.015C58.5121 101.802 57.9987 101.692 57.4454 101.685C56.9121 101.672 56.4221 101.752 55.9754 101.925C55.5354 102.098 55.1821 102.342 54.9154 102.655C54.6554 102.968 54.5254 103.328 54.5254 103.735C54.5254 104.135 54.6421 104.458 54.8754 104.705C55.1087 104.952 55.3954 105.148 55.7354 105.295C56.0821 105.435 56.4254 105.552 56.7654 105.645L59.4254 106.395C59.7587 106.488 60.1354 106.615 60.5554 106.775C60.9821 106.928 61.3921 107.145 61.7854 107.425C62.1854 107.705 62.5154 108.078 62.7754 108.545C63.0354 109.005 63.1654 109.585 63.1654 110.285C63.1654 111.012 63.0187 111.652 62.7254 112.205C62.4321 112.752 62.0287 113.212 61.5154 113.585C61.0087 113.952 60.4221 114.228 59.7554 114.415C59.0887 114.602 58.3854 114.695 57.6454 114.695ZM70.0865 114.695C69.0132 114.695 68.0698 114.462 67.2565 113.995C66.4498 113.522 65.8198 112.865 65.3665 112.025C64.9198 111.178 64.6965 110.198 64.6965 109.085C64.6965 107.905 64.9165 106.882 65.3565 106.015C65.8032 105.148 66.4232 104.478 67.2165 104.005C68.0098 103.532 68.9332 103.295 69.9865 103.295C71.0865 103.295 72.0232 103.552 72.7965 104.065C73.5698 104.572 74.1465 105.295 74.5265 106.235C74.9132 107.175 75.0665 108.292 74.9865 109.585H72.8965V108.825C72.8832 107.572 72.6432 106.645 72.1765 106.045C71.7165 105.445 71.0132 105.145 70.0665 105.145C69.0198 105.145 68.2332 105.475 67.7065 106.135C67.1798 106.795 66.9165 107.748 66.9165 108.995C66.9165 110.182 67.1798 111.102 67.7065 111.755C68.2332 112.402 68.9932 112.725 69.9865 112.725C70.6398 112.725 71.2032 112.578 71.6765 112.285C72.1565 111.985 72.5298 111.558 72.7965 111.005L74.8465 111.655C74.4265 112.622 73.7898 113.372 72.9365 113.905C72.0832 114.432 71.1332 114.695 70.0865 114.695ZM66.2365 109.585V107.955H73.9465V109.585H66.2365ZM81.8501 114.695C80.7434 114.695 79.8034 114.448 79.0301 113.955C78.2567 113.462 77.6634 112.785 77.2501 111.925C76.8434 111.065 76.6367 110.088 76.6301 108.995C76.6367 107.882 76.8501 106.898 77.2701 106.045C77.6901 105.185 78.2901 104.512 79.0701 104.025C79.8501 103.538 80.7867 103.295 81.8801 103.295C83.0601 103.295 84.0667 103.588 84.9001 104.175C85.7401 104.762 86.2934 105.565 86.5601 106.585L84.4801 107.185C84.2734 106.578 83.9334 106.108 83.4601 105.775C82.9934 105.435 82.4567 105.265 81.8501 105.265C81.1634 105.265 80.6001 105.428 80.1601 105.755C79.7201 106.075 79.3934 106.515 79.1801 107.075C78.9667 107.635 78.8567 108.275 78.8501 108.995C78.8567 110.108 79.1101 111.008 79.6101 111.695C80.1167 112.382 80.8634 112.725 81.8501 112.725C82.5234 112.725 83.0667 112.572 83.4801 112.265C83.9001 111.952 84.2201 111.505 84.4401 110.925L86.5601 111.425C86.2067 112.478 85.6234 113.288 84.8101 113.855C83.9967 114.415 83.0101 114.695 81.8501 114.695ZM92.6673 114.685C91.9206 114.685 91.2939 114.565 90.7873 114.325C90.2806 114.085 89.8673 113.772 89.5473 113.385C89.2339 112.992 88.9939 112.565 88.8273 112.105C88.6606 111.645 88.5473 111.195 88.4873 110.755C88.4273 110.315 88.3973 109.928 88.3973 109.595V103.595H90.5173V108.905C90.5173 109.325 90.5506 109.758 90.6173 110.205C90.6906 110.645 90.8239 111.055 91.0173 111.435C91.2173 111.815 91.4939 112.122 91.8473 112.355C92.2073 112.588 92.6739 112.705 93.2473 112.705C93.6206 112.705 93.9739 112.645 94.3073 112.525C94.6406 112.398 94.9306 112.198 95.1773 111.925C95.4306 111.652 95.6273 111.292 95.7673 110.845C95.9139 110.398 95.9873 109.855 95.9873 109.215L97.2873 109.705C97.2873 110.685 97.1039 111.552 96.7373 112.305C96.3706 113.052 95.8439 113.635 95.1573 114.055C94.4706 114.475 93.6406 114.685 92.6673 114.685ZM96.2373 114.395V111.275H95.9873V103.595H98.0973V114.395H96.2373ZM100.902 114.395V103.595H102.762V106.215L102.502 105.875C102.635 105.528 102.809 105.212 103.022 104.925C103.235 104.632 103.482 104.392 103.762 104.205C104.035 104.005 104.339 103.852 104.672 103.745C105.012 103.632 105.359 103.565 105.712 103.545C106.065 103.518 106.405 103.535 106.732 103.595V105.555C106.379 105.462 105.985 105.435 105.552 105.475C105.125 105.515 104.732 105.652 104.372 105.885C104.032 106.105 103.762 106.372 103.562 106.685C103.369 106.998 103.229 107.348 103.142 107.735C103.055 108.115 103.012 108.518 103.012 108.945V114.395H100.902ZM113.231 114.695C112.158 114.695 111.214 114.462 110.401 113.995C109.594 113.522 108.964 112.865 108.511 112.025C108.064 111.178 107.841 110.198 107.841 109.085C107.841 107.905 108.061 106.882 108.501 106.015C108.948 105.148 109.568 104.478 110.361 104.005C111.154 103.532 112.078 103.295 113.131 103.295C114.231 103.295 115.168 103.552 115.941 104.065C116.714 104.572 117.291 105.295 117.671 106.235C118.058 107.175 118.211 108.292 118.131 109.585H116.041V108.825C116.028 107.572 115.788 106.645 115.321 106.045C114.861 105.445 114.158 105.145 113.211 105.145C112.164 105.145 111.378 105.475 110.851 106.135C110.324 106.795 110.061 107.748 110.061 108.995C110.061 110.182 110.324 111.102 110.851 111.755C111.378 112.402 112.138 112.725 113.131 112.725C113.784 112.725 114.348 112.578 114.821 112.285C115.301 111.985 115.674 111.558 115.941 111.005L117.991 111.655C117.571 112.622 116.934 113.372 116.081 113.905C115.228 114.432 114.278 114.695 113.231 114.695ZM109.381 109.585V107.955H117.091V109.585H109.381Z" fill="white"/>
<path d="M0.562687 22.395C0.562687 10.5555 10.1605 0.957706 22 0.957706H148C159.84 0.957706 169.437 10.5555 169.437 22.395V118.395C169.437 130.235 159.84 139.832 148 139.832H22C10.1605 139.832 0.562687 130.235 0.562687 118.395V22.395Z" stroke="url(#paint3_linear_1334_1873)" stroke-width="1.12537"/>
<defs>
<linearGradient id="paint0_linear_1334_1873" x1="91.6786" y1="0.39502" x2="91.6786" y2="140.395" gradientUnits="userSpaceOnUse">
<stop stop-color="#262626"/>
<stop offset="1" stop-opacity="0.25"/>
</linearGradient>
<linearGradient id="paint1_linear_1334_1873" x1="88.4701" y1="53.7342" x2="70.2342" y2="36.4532" gradientUnits="userSpaceOnUse">
<stop/>
<stop offset="1" stop-opacity="0"/>
</linearGradient>
<linearGradient id="paint2_linear_1334_1873" x1="54.8848" y1="79.6882" x2="107.854" y2="58.0606" gradientUnits="userSpaceOnUse">
<stop offset="0.130208" stop-color="#A60FFF"/>
<stop offset="0.364583" stop-color="#8349FF"/>
<stop offset="0.578125" stop-color="#0D9EFF"/>
</linearGradient>
<linearGradient id="paint3_linear_1334_1873" x1="64.9643" y1="-11.2716" x2="64.9643" y2="123.111" gradientUnits="userSpaceOnUse">
<stop stop-color="#A60FFF"/>
<stop offset="1" stop-color="#0D9EFF"/>
</linearGradient>
<clipPath id="clip0_1334_1873">
<rect width="39.6062" height="48.746" fill="white" transform="translate(75.8848 20.4287)"/>
</clipPath>
</defs>
</svg>
