<svg width="74" height="61" viewBox="0 0 74 61" fill="none" xmlns="http://www.w3.org/2000/svg">
<mask id="mask0_2098_6633" style="mask-type:alpha" maskUnits="userSpaceOnUse" x="0" y="0" width="53" height="40">
<rect x="0.363281" y="0.395508" width="52.3163" height="38.7141" rx="5.23163" fill="url(#paint0_linear_2098_6633)"/>
</mask>
<g mask="url(#mask0_2098_6633)">
<rect x="0.363281" y="0.395508" width="52.3163" height="38.7141" rx="5.23163" fill="#0765FF"/>
<rect x="10.4258" y="30.2852" width="6.03797" height="6.03797" rx="3.01898" transform="rotate(90 10.4258 30.2852)" fill="white"/>
<rect x="17.5137" y="31.0391" width="4.52848" height="4.52848" rx="2.26424" transform="rotate(90 17.5137 31.0391)" fill="white"/>
<rect x="23.5098" y="31.7939" width="3.01898" height="3.01898" rx="1.50949" transform="rotate(90 23.5098 31.7939)" fill="white"/>
</g>
<path d="M49.2304 29.297C51.8797 27.3706 53.0658 27.309 55.3604 28.9369C58.335 26.9021 59.4073 26.9288 61.9362 29.1672C62.2708 28.9704 62.6055 28.7468 62.9723 28.5581C65.0273 27.4871 67.0768 28.0815 68.0594 30.1846C69.441 33.1405 70.6539 36.178 72.0475 39.1286C73.4411 42.0791 73.3929 45.2385 73.5937 48.3657C73.6713 49.5786 73.6285 50.8008 73.6151 52.0177C73.6044 53.0111 73.2443 53.8062 72.2764 54.2306C67.9229 56.1262 63.5587 58.0004 59.2266 59.9429C57.7915 60.5868 56.4273 60.5574 55.1422 59.7662C52.8958 58.3833 50.5905 57.0473 48.5249 55.4274C45.5596 53.1088 42.7684 50.5639 39.933 48.0859C39.4292 47.6235 38.9845 47.1005 38.609 46.529C37.688 45.1903 37.8567 43.7525 39.0923 42.7056C40.4136 41.5878 41.9036 41.0751 43.6292 41.7324L46.5664 42.8489C45.8635 41.1996 45.2276 39.6788 44.569 38.1634C43.0027 34.5408 41.4337 30.9191 39.8621 27.2983C39.2918 25.9743 39.4002 24.6718 40.1767 23.4709C40.9906 22.2112 42.2048 21.6664 43.6894 21.819C45.1741 21.9716 46.2049 22.8243 46.8394 24.1376C47.4968 25.5004 48.0965 26.8914 48.7284 28.2676C48.8756 28.6116 49.0564 28.9476 49.2304 29.297ZM71.7811 48.4915L71.939 48.4554C71.595 46.1796 71.5856 43.7793 70.8319 41.644C69.5427 37.992 67.7944 34.502 66.2187 30.953C66.078 30.6928 65.8763 30.4705 65.631 30.3051C64.9804 29.8124 64.3378 30.0052 63.7381 30.4189C63.1383 30.8325 63.22 31.356 63.4462 31.929C63.714 32.5903 63.9456 33.2677 64.22 33.921C64.4529 34.4819 64.469 35.0147 63.8693 35.2931C63.2695 35.5716 62.8411 35.1927 62.6055 34.6532C62.2735 33.8928 62.0566 33.0736 61.659 32.352C61.1936 31.4714 60.6324 30.6449 59.9856 29.8874C59.4127 29.2421 58.256 29.277 57.509 29.7776C56.762 30.2783 56.8705 30.9945 57.09 31.6947C57.248 32.202 57.4916 32.6826 57.6978 33.1673C57.8919 33.6318 58.1195 34.087 58.2721 34.5649C58.4247 35.0428 58.3779 35.6171 57.7982 35.7148C57.4153 35.7791 56.9347 35.5636 56.5746 35.344C56.3617 35.2101 56.3002 34.8366 56.173 34.5716C55.5746 33.344 55.0324 32.0856 54.3604 30.9008C53.7245 29.7763 52.6107 29.4282 51.6414 29.9169C50.6414 30.4162 50.3134 31.4376 50.8128 32.6733C51.2572 33.7737 51.7499 34.854 52.2278 35.9424C52.4955 36.5542 52.6829 37.1848 51.8931 37.5261C51.1568 37.8434 50.8221 37.3226 50.5544 36.7376C49.454 34.336 48.3415 31.9397 47.2437 29.5367C46.565 28.052 45.9251 26.5487 45.2357 25.072C44.7618 24.0627 43.7711 23.5606 42.8407 23.7802C42.0375 23.9689 41.4163 24.7601 41.4458 25.728C41.4591 26.2126 41.6426 26.7133 41.8474 27.1671C44.1937 32.588 46.5561 38.0018 48.9345 43.4084C49.2411 44.1046 49.4071 44.7779 48.8007 45.3871C48.1474 46.043 47.5008 45.6548 46.8448 45.3429C45.6123 44.7574 44.3731 44.1871 43.1272 43.632C42.261 43.2491 41.4444 43.4419 40.6747 43.9346C40.0267 44.3469 39.8714 44.8877 40.3453 45.5062C40.8448 46.1726 41.3887 46.8046 41.9732 47.3978C45.5409 50.9106 49.5155 53.9254 53.6361 56.7487C54.363 57.2467 55.2051 57.5841 56.015 57.9536C57.0539 58.4208 58.09 58.3217 59.1208 57.8679C63.0031 56.1557 66.8854 54.4435 70.7891 52.7607C71.5307 52.4408 71.8132 51.9387 71.7918 51.1676C71.761 50.2734 71.7811 49.3831 71.7811 48.4915Z" fill="white"/>
<path d="M49.522 24.3626C49.2717 24.1109 48.7616 23.8271 48.7456 23.5272C48.7228 23.1256 48.9732 22.5111 49.3025 22.3103C50.182 21.7749 51.1673 21.408 52.1138 20.9716C53.4083 20.3799 54.6989 19.7802 55.9961 19.2032C56.7993 18.8484 57.3964 19.0158 57.6347 19.6583C57.9158 20.4201 57.4713 20.815 56.8421 21.1015C54.6828 22.0828 52.5275 23.0721 50.3668 24.0533C50.1553 24.1551 49.9263 24.218 49.522 24.3626Z" fill="white"/>
<path d="M45.9721 20.6127C45.0229 20.5939 44.541 19.9621 44.8034 19.2311C45.6727 16.8054 46.5736 14.3908 47.5063 11.9873C47.7231 11.4277 48.2265 11.1908 48.8249 11.4291C49.4233 11.6674 49.6281 12.148 49.4153 12.733C48.5317 15.1547 47.6415 17.5738 46.6977 19.9674C46.5745 20.2887 46.1301 20.4788 45.9721 20.6127Z" fill="white"/>
<path d="M41.5362 19.9502C41.302 20.1845 41.0249 20.6878 40.721 20.7052C40.3194 20.7293 39.6955 20.4897 39.4987 20.1698C38.9525 19.2621 38.5763 18.2527 38.1332 17.2821C37.5429 15.989 36.9605 14.6917 36.3608 13.3999C36.0689 12.7693 36.1171 12.195 36.7624 11.8804C37.4532 11.5404 37.9525 11.8711 38.2577 12.5391C39.2653 14.7489 40.2738 16.9586 41.2832 19.1684C41.3676 19.3518 41.4104 19.5566 41.5362 19.9502Z" fill="white"/>
<path d="M37.087 27.9072C37.3547 28.1562 37.846 28.4039 37.8902 28.7212C37.9491 29.0947 37.7282 29.6516 37.435 29.9046C37.0254 30.258 36.4377 30.4053 35.9249 30.6395C34.202 31.4307 32.4791 32.2273 30.7521 33.0104C29.8619 33.412 29.2715 33.2915 29.0118 32.6275C28.6959 31.8243 29.1912 31.4294 29.8472 31.1322C31.9249 30.1951 33.9972 29.2366 36.0762 28.2928C36.3493 28.171 36.6291 28.0813 37.087 27.9072Z" fill="white"/>
<path d="M36.9978 24.7651C36.7509 24.7278 36.5064 24.676 36.2655 24.6098C33.9308 23.745 31.5921 22.8936 29.2774 21.9766C28.9615 21.8521 28.6442 21.4237 28.5639 21.081C28.4099 20.4304 29.0592 19.7931 29.7165 20.0207C32.2646 20.9016 34.788 21.8445 37.287 22.8494C37.5547 22.9565 37.7877 23.6085 37.7274 23.9539C37.6672 24.2992 37.2107 24.5469 36.9978 24.7651Z" fill="white"/>
<defs>
<linearGradient id="paint0_linear_2098_6633" x1="41.5578" y1="19.7095" x2="29.1372" y2="0.395511" gradientUnits="userSpaceOnUse">
<stop/>
<stop offset="1" stop-opacity="0"/>
</linearGradient>
</defs>
</svg>
