<svg width="170" height="141" viewBox="0 0 170 141" fill="none" xmlns="http://www.w3.org/2000/svg">
<path d="M0.562687 22.395C0.562687 10.5555 10.1605 0.957706 22 0.957706H148C159.84 0.957706 169.437 10.5555 169.437 22.395V118.395C169.437 130.235 159.84 139.832 148 139.832H22C10.1605 139.832 0.562687 130.235 0.562687 118.395V22.395Z" fill="url(#paint0_linear_1334_1886)"/>
<mask id="mask0_1334_1886" style="mask-type:alpha" maskUnits="userSpaceOnUse" x="48" y="20" width="53" height="40">
<rect x="48.3628" y="20.395" width="52.3163" height="38.7141" rx="5.23163" fill="url(#paint1_linear_1334_1886)"/>
</mask>
<g mask="url(#mask0_1334_1886)">
<rect x="48.3628" y="20.395" width="52.3163" height="38.7141" rx="5.23163" fill="url(#paint2_linear_1334_1886)"/>
<rect x="58.4258" y="50.2843" width="6.03797" height="6.03797" rx="3.01898" transform="rotate(90 58.4258 50.2843)" fill="white"/>
<rect x="65.5122" y="51.0391" width="4.52848" height="4.52848" rx="2.26424" transform="rotate(90 65.5122 51.0391)" fill="white"/>
<rect x="71.5083" y="51.7937" width="3.01898" height="3.01898" rx="1.50949" transform="rotate(90 71.5083 51.7937)" fill="white"/>
</g>
<path d="M97.2287 49.2965C99.878 47.3701 101.064 47.3086 103.359 48.9364C106.333 46.9016 107.406 46.9284 109.934 49.1667C110.269 48.9699 110.604 48.7463 110.971 48.5576C113.026 47.4866 115.075 48.081 116.058 50.1841C117.439 53.14 118.652 56.1775 120.046 59.1281C121.439 62.0786 121.391 65.238 121.592 68.3652C121.67 69.5781 121.627 70.8003 121.613 72.0172C121.603 73.0106 121.243 73.8058 120.275 74.2301C115.921 76.1258 111.557 78 107.225 79.9424C105.79 80.5864 104.426 80.5569 103.14 79.7657C100.894 78.3828 98.5888 77.0468 96.5232 75.4269C93.5579 73.1083 90.7667 70.5634 87.9313 68.0854C87.4275 67.623 86.9828 67.1 86.6073 66.5285C85.6863 65.1898 85.8549 63.752 87.0906 62.7051C88.4119 61.5873 89.9019 61.0746 91.6275 61.7319L94.5646 62.8484C93.8618 61.1991 93.2259 59.6783 92.5673 58.1629C91.001 54.5403 89.432 50.9186 87.8603 47.2978C87.2901 45.9739 87.3985 44.6713 88.1749 43.4705C88.9889 42.2107 90.2031 41.6659 91.6877 41.8185C93.1724 41.9711 94.2032 42.8239 94.8377 44.1371C95.495 45.4999 96.0948 46.8909 96.7267 48.2671C96.8739 48.6111 97.0547 48.9471 97.2287 49.2965ZM119.779 68.4911L119.937 68.4549C119.593 66.1791 119.584 63.7788 118.83 61.6435C117.541 57.9915 115.793 54.5015 114.217 50.9525C114.076 50.6923 113.875 50.47 113.629 50.3046C112.979 49.812 112.336 50.0047 111.736 50.4184C111.137 50.8321 111.218 51.3555 111.445 51.9285C111.712 52.5898 111.944 53.2672 112.218 53.9205C112.451 54.4814 112.467 55.0142 111.868 55.2927C111.268 55.5711 110.839 55.1923 110.604 54.6528C110.272 53.8924 110.055 53.0731 109.657 52.3515C109.192 51.4709 108.631 50.6444 107.984 49.8869C107.411 49.2417 106.254 49.2765 105.507 49.7771C104.76 50.2778 104.869 50.994 105.088 51.6942C105.246 52.2016 105.49 52.6822 105.696 53.1668C105.89 53.6313 106.118 54.0865 106.27 54.5644C106.423 55.0423 106.376 55.6166 105.796 55.7144C105.414 55.7786 104.933 55.5631 104.573 55.3435C104.36 55.2097 104.298 54.8362 104.171 54.5711C103.573 53.3435 103.031 52.0851 102.359 50.9003C101.723 49.7758 100.609 49.4277 99.6397 49.9164C98.6397 50.4157 98.3117 51.4372 98.8111 52.6728C99.2555 53.7732 99.7481 54.8536 100.226 55.9419C100.494 56.5537 100.681 57.1843 99.8914 57.5256C99.1551 57.8429 98.8204 57.3221 98.5527 56.7371C97.4523 54.3355 96.3398 51.9392 95.242 49.5362C94.5633 48.0515 93.9234 46.5482 93.234 45.0716C92.7601 44.0622 91.7694 43.5601 90.839 43.7797C90.0358 43.9685 89.4146 44.7596 89.4441 45.7275C89.4574 46.2121 89.6408 46.7128 89.8457 47.1666C92.192 52.5876 94.5544 58.0013 96.9328 63.408C97.2394 64.1041 97.4054 64.7775 96.799 65.3866C96.1457 66.0425 95.4991 65.6543 94.8431 65.3424C93.6106 64.7569 92.3714 64.1866 91.1255 63.6315C90.2593 63.2486 89.4427 63.4414 88.6729 63.9341C88.025 64.3464 87.8697 64.8872 88.3436 65.5057C88.8431 66.1721 89.387 66.8041 89.9715 67.3973C93.5392 70.9101 97.5138 73.9249 101.634 76.7483C102.361 77.2463 103.203 77.5836 104.013 77.9531C105.052 78.4203 106.088 78.3212 107.119 77.8674C111.001 76.1552 114.884 74.443 118.787 72.7602C119.529 72.4403 119.811 71.9383 119.79 71.1672C119.759 70.2729 119.779 69.3826 119.779 68.4911Z" fill="white"/>
<path d="M97.5218 44.3621C97.2715 44.1104 96.7614 43.8266 96.7453 43.5267C96.7226 43.1251 96.9729 42.5107 97.3022 42.3099C98.1818 41.7744 99.1671 41.4076 100.114 40.9711C101.408 40.3794 102.699 39.7797 103.996 39.2027C104.799 38.8479 105.396 39.0153 105.634 39.6579C105.916 40.4196 105.471 40.8145 104.842 41.101C102.683 42.0823 100.527 43.0716 98.3665 44.0529C98.155 44.1546 97.9261 44.2175 97.5218 44.3621Z" fill="white"/>
<path d="M93.9716 40.6123C93.0225 40.5936 92.5405 39.9617 92.8029 39.2308C93.6722 36.805 94.5731 34.3904 95.5058 31.987C95.7226 31.4274 96.226 31.1904 96.8244 31.4287C97.4228 31.667 97.6276 32.1476 97.4148 32.7326C96.5312 35.1544 95.641 37.5734 94.6972 39.9671C94.574 40.2883 94.1296 40.4784 93.9716 40.6123Z" fill="white"/>
<path d="M89.535 39.9496C89.3007 40.1839 89.0236 40.6872 88.7197 40.7046C88.3181 40.7287 87.6943 40.4891 87.4975 40.1691C86.9513 39.2615 86.5751 38.2521 86.132 37.2815C85.5416 35.9883 84.9593 34.6911 84.3595 33.3993C84.0677 32.7687 84.1159 32.1944 84.7612 31.8798C85.4519 31.5398 85.9513 31.8704 86.2565 32.5385C87.2641 34.7482 88.2726 36.958 89.282 39.1678C89.3663 39.3512 89.4092 39.556 89.535 39.9496Z" fill="white"/>
<path d="M85.0865 47.907C85.3542 48.156 85.8455 48.4036 85.8897 48.7209C85.9486 49.0944 85.7277 49.6513 85.4345 49.9043C85.0249 50.2578 84.4372 50.405 83.9245 50.6393C82.2015 51.4305 80.4786 52.227 78.7517 53.0102C77.8614 53.4118 77.271 53.2913 77.0113 52.6273C76.6954 51.8241 77.1907 51.4291 77.8467 51.1319C79.9244 50.1948 81.9967 49.2363 84.0757 48.2925C84.3488 48.1707 84.6286 48.081 85.0865 47.907Z" fill="white"/>
<path d="M84.9968 44.7651C84.7499 44.7278 84.5054 44.676 84.2646 44.6098C81.9298 43.745 79.5911 42.8936 77.2765 41.9766C76.9605 41.8521 76.6432 41.4237 76.5629 41.081C76.409 40.4304 77.0582 39.7931 77.7156 40.0207C80.2636 40.9016 82.7871 41.8445 85.286 42.8494C85.5537 42.9565 85.7867 43.6085 85.7264 43.9539C85.6662 44.2992 85.2097 44.5469 84.9968 44.7651Z" fill="white"/>
<path d="M36.8534 114.695C35.4134 114.695 34.1867 114.382 33.1734 113.755C32.16 113.122 31.3834 112.242 30.8434 111.115C30.31 109.988 30.0434 108.682 30.0434 107.195C30.0434 105.708 30.31 104.402 30.8434 103.275C31.3834 102.148 32.16 101.272 33.1734 100.645C34.1867 100.012 35.4134 99.695 36.8534 99.695C38.5134 99.695 39.8867 100.115 40.9734 100.955C42.0667 101.795 42.8267 102.925 43.2534 104.345L41.1334 104.915C40.8534 103.908 40.3534 103.118 39.6334 102.545C38.92 101.972 37.9934 101.685 36.8534 101.685C35.8334 101.685 34.9834 101.915 34.3034 102.375C33.6234 102.835 33.11 103.478 32.7634 104.305C32.4234 105.132 32.2534 106.095 32.2534 107.195C32.2467 108.295 32.4134 109.258 32.7534 110.085C33.1 110.912 33.6134 111.555 34.2934 112.015C34.98 112.475 35.8334 112.705 36.8534 112.705C37.9934 112.705 38.92 112.418 39.6334 111.845C40.3534 111.265 40.8534 110.475 41.1334 109.475L43.2534 110.045C42.8267 111.465 42.0667 112.595 40.9734 113.435C39.8867 114.275 38.5134 114.695 36.8534 114.695ZM50.1427 114.695C49.0627 114.695 48.1261 114.452 47.3327 113.965C46.5394 113.478 45.9261 112.808 45.4927 111.955C45.0661 111.095 44.8527 110.105 44.8527 108.985C44.8527 107.858 45.0727 106.868 45.5127 106.015C45.9527 105.155 46.5694 104.488 47.3627 104.015C48.1561 103.535 49.0827 103.295 50.1427 103.295C51.2227 103.295 52.1594 103.538 52.9527 104.025C53.7461 104.512 54.3594 105.182 54.7927 106.035C55.2261 106.888 55.4427 107.872 55.4427 108.985C55.4427 110.112 55.2227 111.105 54.7827 111.965C54.3494 112.818 53.7361 113.488 52.9427 113.975C52.1494 114.455 51.2161 114.695 50.1427 114.695ZM50.1427 112.725C51.1761 112.725 51.9461 112.378 52.4527 111.685C52.9661 110.985 53.2227 110.085 53.2227 108.985C53.2227 107.858 52.9627 106.958 52.4427 106.285C51.9294 105.605 51.1627 105.265 50.1427 105.265C49.4427 105.265 48.8661 105.425 48.4127 105.745C47.9594 106.058 47.6227 106.495 47.4027 107.055C47.1827 107.608 47.0727 108.252 47.0727 108.985C47.0727 110.118 47.3327 111.025 47.8527 111.705C48.3727 112.385 49.1361 112.725 50.1427 112.725ZM65.2202 114.395V109.085C65.2202 108.665 65.1836 108.235 65.1102 107.795C65.0436 107.348 64.9102 106.935 64.7102 106.555C64.5169 106.175 64.2402 105.868 63.8802 105.635C63.5269 105.402 63.0636 105.285 62.4902 105.285C62.1169 105.285 61.7636 105.348 61.4302 105.475C61.0969 105.595 60.8036 105.792 60.5502 106.065C60.3036 106.338 60.1069 106.698 59.9602 107.145C59.8202 107.592 59.7502 108.135 59.7502 108.775L58.4502 108.285C58.4502 107.305 58.6336 106.442 59.0002 105.695C59.3669 104.942 59.8936 104.355 60.5802 103.935C61.2669 103.515 62.0969 103.305 63.0702 103.305C63.8169 103.305 64.4436 103.425 64.9502 103.665C65.4569 103.905 65.8669 104.222 66.1802 104.615C66.5002 105.002 66.7436 105.425 66.9102 105.885C67.0769 106.345 67.1902 106.795 67.2502 107.235C67.3102 107.675 67.3402 108.062 67.3402 108.395V114.395H65.2202ZM57.6302 114.395V103.595H59.5002V106.715H59.7502V114.395H57.6302ZM72.8649 114.395L68.9449 103.595H71.0549L73.9249 111.775L76.7949 103.595H78.9049L74.9849 114.395H72.8649ZM85.106 114.695C84.0327 114.695 83.0893 114.462 82.276 113.995C81.4693 113.522 80.8393 112.865 80.386 112.025C79.9393 111.178 79.716 110.198 79.716 109.085C79.716 107.905 79.936 106.882 80.376 106.015C80.8227 105.148 81.4427 104.478 82.236 104.005C83.0293 103.532 83.9527 103.295 85.006 103.295C86.106 103.295 87.0427 103.552 87.816 104.065C88.5893 104.572 89.166 105.295 89.546 106.235C89.9327 107.175 90.086 108.292 90.006 109.585H87.916V108.825C87.9027 107.572 87.6627 106.645 87.196 106.045C86.736 105.445 86.0327 105.145 85.086 105.145C84.0393 105.145 83.2527 105.475 82.726 106.135C82.1993 106.795 81.936 107.748 81.936 108.995C81.936 110.182 82.1993 111.102 82.726 111.755C83.2527 112.402 84.0127 112.725 85.006 112.725C85.6593 112.725 86.2227 112.578 86.696 112.285C87.176 111.985 87.5493 111.558 87.816 111.005L89.866 111.655C89.446 112.622 88.8093 113.372 87.956 113.905C87.1027 114.432 86.1527 114.695 85.106 114.695ZM81.256 109.585V107.955H88.966V109.585H81.256ZM99.5366 114.395V109.085C99.5366 108.665 99.5 108.235 99.4266 107.795C99.36 107.348 99.2266 106.935 99.0266 106.555C98.8333 106.175 98.5566 105.868 98.1966 105.635C97.8433 105.402 97.38 105.285 96.8066 105.285C96.4333 105.285 96.08 105.348 95.7466 105.475C95.4133 105.595 95.12 105.792 94.8666 106.065C94.62 106.338 94.4233 106.698 94.2766 107.145C94.1366 107.592 94.0666 108.135 94.0666 108.775L92.7666 108.285C92.7666 107.305 92.95 106.442 93.3166 105.695C93.6833 104.942 94.21 104.355 94.8966 103.935C95.5833 103.515 96.4133 103.305 97.3866 103.305C98.1333 103.305 98.76 103.425 99.2666 103.665C99.7733 103.905 100.183 104.222 100.497 104.615C100.817 105.002 101.06 105.425 101.227 105.885C101.393 106.345 101.507 106.795 101.567 107.235C101.627 107.675 101.657 108.062 101.657 108.395V114.395H99.5366ZM91.9466 114.395V103.595H93.8166V106.715H94.0666V114.395H91.9466ZM104.461 101.825V99.795H106.551V101.825H104.461ZM104.461 114.395V103.595H106.551V114.395H104.461ZM114.344 114.695C113.271 114.695 112.328 114.462 111.514 113.995C110.708 113.522 110.078 112.865 109.624 112.025C109.178 111.178 108.954 110.198 108.954 109.085C108.954 107.905 109.174 106.882 109.614 106.015C110.061 105.148 110.681 104.478 111.474 104.005C112.268 103.532 113.191 103.295 114.244 103.295C115.344 103.295 116.281 103.552 117.054 104.065C117.828 104.572 118.404 105.295 118.784 106.235C119.171 107.175 119.324 108.292 119.244 109.585H117.154V108.825C117.141 107.572 116.901 106.645 116.434 106.045C115.974 105.445 115.271 105.145 114.324 105.145C113.278 105.145 112.491 105.475 111.964 106.135C111.438 106.795 111.174 107.748 111.174 108.995C111.174 110.182 111.438 111.102 111.964 111.755C112.491 112.402 113.251 112.725 114.244 112.725C114.898 112.725 115.461 112.578 115.934 112.285C116.414 111.985 116.788 111.558 117.054 111.005L119.104 111.655C118.684 112.622 118.048 113.372 117.194 113.905C116.341 114.432 115.391 114.695 114.344 114.695ZM110.494 109.585V107.955H118.204V109.585H110.494ZM128.775 114.395V109.085C128.775 108.665 128.738 108.235 128.665 107.795C128.598 107.348 128.465 106.935 128.265 106.555C128.072 106.175 127.795 105.868 127.435 105.635C127.082 105.402 126.618 105.285 126.045 105.285C125.672 105.285 125.318 105.348 124.985 105.475C124.652 105.595 124.358 105.792 124.105 106.065C123.858 106.338 123.662 106.698 123.515 107.145C123.375 107.592 123.305 108.135 123.305 108.775L122.005 108.285C122.005 107.305 122.188 106.442 122.555 105.695C122.922 104.942 123.448 104.355 124.135 103.935C124.822 103.515 125.652 103.305 126.625 103.305C127.372 103.305 127.998 103.425 128.505 103.665C129.012 103.905 129.422 104.222 129.735 104.615C130.055 105.002 130.298 105.425 130.465 105.885C130.632 106.345 130.745 106.795 130.805 107.235C130.865 107.675 130.895 108.062 130.895 108.395V114.395H128.775ZM121.185 114.395V103.595H123.055V106.715H123.305V114.395H121.185ZM139.68 114.395C139 114.528 138.333 114.585 137.68 114.565C137.026 114.545 136.443 114.418 135.93 114.185C135.416 113.952 135.03 113.585 134.77 113.085C134.536 112.638 134.41 112.185 134.39 111.725C134.376 111.258 134.37 110.732 134.37 110.145V100.595H136.47V110.045C136.47 110.478 136.473 110.855 136.48 111.175C136.493 111.495 136.563 111.765 136.69 111.985C136.93 112.398 137.31 112.635 137.83 112.695C138.356 112.748 138.973 112.725 139.68 112.625V114.395ZM132.3 105.275V103.595H139.68V105.275H132.3Z" fill="white"/>
<path d="M0.562687 22.395C0.562687 10.5555 10.1605 0.957706 22 0.957706H148C159.84 0.957706 169.437 10.5555 169.437 22.395V118.395C169.437 130.235 159.84 139.832 148 139.832H22C10.1605 139.832 0.562687 130.235 0.562687 118.395V22.395Z" stroke="url(#paint3_linear_1334_1886)" stroke-width="1.12537"/>
<defs>
<linearGradient id="paint0_linear_1334_1886" x1="91.6786" y1="0.39502" x2="91.6786" y2="140.395" gradientUnits="userSpaceOnUse">
<stop stop-color="#262626"/>
<stop offset="1" stop-opacity="0.25"/>
</linearGradient>
<linearGradient id="paint1_linear_1334_1886" x1="89.5573" y1="39.709" x2="77.1368" y2="20.395" gradientUnits="userSpaceOnUse">
<stop/>
<stop offset="1" stop-opacity="0"/>
</linearGradient>
<linearGradient id="paint2_linear_1334_1886" x1="48.3628" y1="59.1091" x2="100.679" y2="24.0572" gradientUnits="userSpaceOnUse">
<stop offset="0.130208" stop-color="#A60FFF"/>
<stop offset="0.364583" stop-color="#8349FF"/>
<stop offset="0.578125" stop-color="#0D9EFF"/>
</linearGradient>
<linearGradient id="paint3_linear_1334_1886" x1="64.9643" y1="-11.2716" x2="64.9643" y2="123.111" gradientUnits="userSpaceOnUse">
<stop stop-color="#A60FFF"/>
<stop offset="1" stop-color="#0D9EFF"/>
</linearGradient>
</defs>
</svg>
