<svg width="126" height="160" viewBox="0 0 126 160" fill="none" xmlns="http://www.w3.org/2000/svg">
<rect x="0.533336" width="68.3586" height="68.3586" rx="7.0822" transform="matrix(0.866025 -0.5 0.866025 0.5 3.2697 125.78)" fill="#141414" stroke="#0962FF" stroke-width="0.615843"/>
<rect x="0.533336" width="68.3586" height="68.3586" rx="7.0822" transform="matrix(0.866025 -0.5 0.866025 0.5 3.2697 119.005)" fill="#86B2FF" stroke="#0962FF" stroke-width="0.615843"/>
<rect opacity="0.3" width="24.76" height="24.76" rx="3.09179" transform="matrix(0.866025 -0.5 0.866025 0.5 41.4893 118.739)" fill="#141414"/>
<path d="M7.21875 125.194V118.714C7.21875 119.432 7.89618 121.239 10.6059 122.717C13.3156 124.195 14.1983 124.77 14.3009 124.872V131.523L8.75836 128.259C8.46954 128.043 7.94706 127.552 7.57684 126.937C7.26526 126.419 7.21875 125.798 7.21875 125.194Z" fill="#0962FF" stroke="#0962FF" stroke-width="0.615843"/>
<path d="M118.502 118.714V125.796" stroke="#0962FF" stroke-width="0.615843"/>
<path d="M56.1787 149.198V155.665" stroke="#0962FF" stroke-width="0.615843"/>
<path d="M69.7266 148.89V155.664" stroke="#0962FF" stroke-width="0.615843"/>
<path d="M114.376 125.826V123.333C114.376 123.333 115.999 122.556 116.839 121.793C117.539 121.157 118.282 119.806 118.566 119.259C118.596 119.201 118.687 119.223 118.687 119.289V124.725C118.687 125.636 118.59 126.586 118.071 127.336C117.409 128.292 116.333 128.859 115.327 129.441L81.1201 149.198L112.046 130.013C113.495 129.114 114.376 127.531 114.376 125.826Z" fill="#0962FF" stroke="#0962FF" stroke-width="0.615843"/>
<path d="M18.9199 134.233V127.767L23.8467 130.846V137.004L18.9199 134.233Z" fill="#0962FF" stroke="#0962FF" stroke-width="0.615843"/>
<path d="M10.1843 30.7037C8.70685 30.7037 7.50917 29.448 7.50917 27.8991C7.50917 26.3501 8.70685 25.0945 10.1843 25.0945C11.6617 25.0945 12.8594 26.3501 12.8594 27.8991C12.8594 29.448 11.6617 30.7037 10.1843 30.7037Z" fill="#0962FF" stroke="black" stroke-width="0.0309966" stroke-miterlimit="10"/>
<path d="M9.90693 30.4898C8.42951 30.4898 7.23183 29.2341 7.23183 27.6852C7.23183 26.1363 8.42951 24.8806 9.90693 24.8806C11.3843 24.8806 12.582 26.1363 12.582 27.6852C12.582 29.2341 11.3843 30.4898 9.90693 30.4898Z" fill="white" stroke="#050505" stroke-width="0.0357453" stroke-miterlimit="10"/>
<path d="M10.6977 28.9952C10.6977 28.9952 10.8109 28.7437 10.7976 28.2673C10.7869 27.8826 10.5512 27.7309 10.3674 27.6693C10.2898 27.6433 10.2074 27.6394 10.1256 27.6411C9.9742 27.6441 9.69108 27.648 9.24989 27.6386C8.62415 27.6254 8.54685 27.1589 8.55093 26.9273V26.1993H10.6977M10.6977 28.9952H8.66744L9.68259 27.5973L10.6977 26.1993M10.6977 28.9952L11.5798 27.6386L10.6977 26.1993" stroke="#141414" stroke-width="0.332838"/>
<path d="M13.3971 34.4093C11.5167 34.4093 9.99241 32.8112 9.99241 30.8399C9.99241 28.8685 11.5167 27.2704 13.3971 27.2704C15.2774 27.2704 16.8018 28.8685 16.8018 30.8399C16.8018 32.8112 15.2774 34.4093 13.3971 34.4093Z" fill="#0962FF" stroke="black" stroke-width="0.0394502" stroke-miterlimit="10"/>
<path d="M13.0445 34.1371C11.1642 34.1371 9.63987 32.539 9.63987 30.5676C9.63987 28.5963 11.1642 26.9982 13.0445 26.9982C14.9249 26.9982 16.4492 28.5963 16.4492 30.5676C16.4492 32.539 14.9249 34.1371 13.0445 34.1371Z" fill="white" stroke="#050505" stroke-width="0.045494" stroke-miterlimit="10"/>
<path d="M14.0509 32.235C14.0509 32.235 14.1949 31.9149 14.1779 31.3085C14.1643 30.819 13.8644 30.6259 13.6304 30.5475C13.5317 30.5144 13.4268 30.5094 13.3227 30.5115C13.13 30.5155 12.7697 30.5203 12.2081 30.5084C11.4117 30.4916 11.3134 29.8978 11.3185 29.6031V28.6766H14.0509M14.0509 32.235H11.4668L12.7588 30.4558L14.0509 28.6766M14.0509 32.235L15.1734 30.5084L14.0509 28.6766" stroke="#141414" stroke-width="0.423612"/>
<path d="M61.237 102.699C59.6252 102.699 58.3187 101.329 58.3187 99.639C58.3187 97.9493 59.6252 96.5795 61.237 96.5795C62.8487 96.5795 64.1553 97.9493 64.1553 99.639C64.1553 101.329 62.8487 102.699 61.237 102.699Z" fill="#0962FF" stroke="black" stroke-width="0.0338145" stroke-miterlimit="10"/>
<path d="M60.9352 102.465C59.3235 102.465 58.0169 101.095 58.0169 99.4057C58.0169 97.716 59.3235 96.3462 60.9352 96.3462C62.5469 96.3462 63.8535 97.716 63.8535 99.4057C63.8535 101.095 62.5469 102.465 60.9352 102.465Z" fill="white" stroke="#050505" stroke-width="0.0389949" stroke-miterlimit="10"/>
<path d="M62.3043 99.4953C62.2895 99.4125 62.2598 99.3296 62.2105 99.2572C62.166 99.1847 62.1018 99.1278 62.0327 99.0812C61.9636 99.0346 61.8846 99.0035 61.8056 98.9932C61.9142 98.9414 61.9982 98.8534 62.0525 98.7395C62.1068 98.6308 62.1216 98.5014 62.1018 98.3824C62.0623 97.9475 61.7118 97.8026 61.2674 97.756V97.1555L60.9218 97.1504V97.7353C60.8329 97.7353 60.7391 97.7353 60.6453 97.7353V97.1452L60.2997 97.14V97.7405C60.2256 97.7405 60.1516 97.7405 60.0824 97.7405L59.6085 97.7353V98.1235C59.6085 98.1235 59.8652 98.1184 59.8603 98.1235C59.9047 98.1184 59.9541 98.1339 59.9886 98.1598C60.0232 98.1908 60.0479 98.2322 60.0578 98.284L60.0528 99.9301C60.0528 99.9456 60.0479 99.9612 60.0429 99.9767C60.038 99.9922 60.0281 100.008 60.0133 100.018C60.0034 100.028 59.9886 100.039 59.9738 100.044C59.959 100.049 59.9442 100.049 59.9244 100.049C59.9294 100.054 59.6726 100.049 59.6726 100.049L59.6035 100.484L60.0528 100.489C60.1368 100.489 60.2207 100.494 60.2997 100.494V101.1L60.6453 101.105V100.505C60.7391 100.51 60.828 100.51 60.9218 100.51V101.105L61.2674 101.11V100.505C61.85 100.474 62.2549 100.324 62.3043 99.7489C62.3142 99.6713 62.3191 99.5833 62.3043 99.4953ZM60.6502 98.1649C60.8428 98.1649 61.455 98.108 61.455 98.5376C61.455 98.9518 60.8428 98.8948 60.6453 98.8948L60.6502 98.1649ZM60.6453 100.07L60.6502 99.2675C60.8823 99.2675 61.618 99.2054 61.618 99.6765C61.613 100.132 60.8823 100.07 60.6453 100.07Z" fill="#141414"/>
<path d="M58.6402 114.874C56.4912 114.874 54.7491 113.048 54.7491 110.795C54.7491 108.542 56.4912 106.715 58.6402 106.715C60.7892 106.715 62.5312 108.542 62.5312 110.795C62.5312 113.048 60.7892 114.874 58.6402 114.874Z" fill="#0962FF" stroke="black" stroke-width="0.045086" stroke-miterlimit="10"/>
<path d="M58.2369 114.563C56.0879 114.563 54.3458 112.737 54.3458 110.484C54.3458 108.231 56.0879 106.404 58.2369 106.404C60.3858 106.404 62.1279 108.231 62.1279 110.484C62.1279 112.737 60.3858 114.563 58.2369 114.563Z" fill="white" stroke="#050505" stroke-width="0.0519932" stroke-miterlimit="10"/>
<path d="M60.0639 110.603C60.0442 110.493 60.0047 110.383 59.9388 110.286C59.8796 110.189 59.794 110.113 59.7018 110.051C59.6097 109.989 59.5043 109.948 59.399 109.934C59.5438 109.865 59.6558 109.748 59.7282 109.596C59.8006 109.451 59.8203 109.278 59.794 109.119C59.7413 108.54 59.2739 108.346 58.6814 108.284V107.484L58.2206 107.477V108.257C58.1021 108.257 57.977 108.257 57.8519 108.257V107.47L57.3911 107.463V108.264C57.2924 108.264 57.1936 108.264 57.1015 108.264L56.4695 108.257V108.774C56.4695 108.774 56.8118 108.767 56.8052 108.774C56.8645 108.767 56.9303 108.788 56.9764 108.823C57.0225 108.864 57.0554 108.919 57.0685 108.988L57.062 111.183C57.062 111.204 57.0554 111.225 57.0488 111.245C57.0422 111.266 57.029 111.287 57.0093 111.3C56.9961 111.314 56.9764 111.328 56.9566 111.335C56.9369 111.342 56.9171 111.342 56.8908 111.342C56.8974 111.349 56.5551 111.342 56.5551 111.342L56.4629 111.922L57.062 111.929C57.1739 111.929 57.2858 111.935 57.3911 111.935V112.743L57.8519 112.75V111.949C57.977 111.956 58.0955 111.956 58.2206 111.956V112.75L58.6814 112.757V111.949C59.4583 111.908 59.9981 111.708 60.0639 110.942C60.0771 110.838 60.0837 110.721 60.0639 110.603ZM57.8585 108.83C58.1153 108.83 58.9316 108.754 58.9316 109.327C58.9316 109.879 58.1153 109.803 57.8519 109.803L57.8585 108.83ZM57.8519 111.369L57.8585 110.3C58.1679 110.3 59.1488 110.217 59.1488 110.845C59.1423 111.452 58.1679 111.369 57.8519 111.369Z" fill="#141414"/>
<path d="M21.0977 30.745C18.1324 30.745 15.7286 28.2248 15.7286 25.116C15.7286 22.0072 18.1324 19.4871 21.0977 19.4871C24.063 19.4871 26.4668 22.0072 26.4668 25.116C26.4668 28.2248 24.063 30.745 21.0977 30.745Z" fill="#0962FF" stroke="black" stroke-width="0.062212" stroke-miterlimit="10"/>
<path d="M20.542 30.3158C17.5768 30.3158 15.173 27.7956 15.173 24.6868C15.173 21.578 17.5768 19.0579 20.542 19.0579C23.5073 19.0579 25.9111 21.578 25.9111 24.6868C25.9111 27.7956 23.5073 30.3158 20.542 30.3158Z" fill="white" stroke="#050505" stroke-width="0.0717428" stroke-miterlimit="10"/>
<path d="M22.1284 27.3161C22.1284 27.3161 22.3556 26.8114 22.3288 25.8552C22.3073 25.0832 21.8343 24.7786 21.4654 24.6549C21.3097 24.6027 21.1443 24.595 20.9801 24.5983C20.6762 24.6045 20.108 24.6122 19.2225 24.5934C17.9666 24.5669 17.8114 23.6305 17.8196 23.1657V21.7047H22.1284M22.1284 27.3161H18.0535L20.0909 24.5104L22.1284 21.7047M22.1284 27.3161L23.8987 24.5934L22.1284 21.7047" stroke="#141414" stroke-width="0.668025"/>
<path d="M54.9787 63.525C51.218 63.525 48.1694 60.3288 48.1694 56.386C48.1694 52.4433 51.218 49.2471 54.9787 49.2471C58.7394 49.2471 61.7881 52.4433 61.7881 56.386C61.7881 60.3288 58.7394 63.525 54.9787 63.525Z" fill="#0962FF" stroke="black" stroke-width="0.0789005" stroke-miterlimit="10"/>
<path d="M54.2727 62.9803C50.512 62.9803 47.4633 59.7841 47.4633 55.8414C47.4633 51.8986 50.512 48.7024 54.2727 48.7024C58.0334 48.7024 61.082 51.8986 61.082 55.8414C61.082 59.7841 58.0334 62.9803 54.2727 62.9803Z" fill="white" stroke="#050505" stroke-width="0.0909881" stroke-miterlimit="10"/>
<path d="M51.4473 57.5298H52.561C52.561 58.1312 53.3239 58.6435 54.2315 58.6435C55.1392 58.6435 55.9021 58.1312 55.9021 57.5298C55.9021 56.9173 55.323 56.6945 54.0979 56.3994C52.9174 56.1043 51.4473 55.7367 51.4473 54.1887C51.4473 53.1919 52.2658 52.3455 53.3963 52.0615V50.8475H55.0668V52.0615C56.1972 52.3455 57.0158 53.1919 57.0158 54.1887H55.9021C55.9021 53.5873 55.1392 53.075 54.2315 53.075C53.3239 53.075 52.561 53.5873 52.561 54.1887C52.561 54.8012 53.1401 55.024 54.3652 55.3191C55.5457 55.6142 57.0158 55.9818 57.0158 57.5298C57.0158 58.5266 56.1972 59.373 55.0668 59.657V60.871H53.3963V59.657C52.2658 59.373 51.4473 58.5266 51.4473 57.5298Z" fill="#141414"/>
<path d="M69.3394 63.5853C64.2203 63.5853 60.0705 59.2345 60.0705 53.8677C60.0705 48.5008 64.2203 44.15 69.3394 44.15C74.4585 44.15 78.6084 48.5008 78.6084 53.8677C78.6084 59.2345 74.4585 63.5853 69.3394 63.5853Z" fill="#0962FF" stroke="black" stroke-width="0.1074" stroke-miterlimit="10"/>
<path d="M68.3785 62.8439C63.2594 62.8439 59.1095 58.4932 59.1095 53.1263C59.1095 47.7594 63.2594 43.4087 68.3785 43.4087C73.4976 43.4087 77.6475 47.7594 77.6475 53.1263C77.6475 58.4932 73.4976 62.8439 68.3785 62.8439Z" fill="white" stroke="#050505" stroke-width="0.123854" stroke-miterlimit="10"/>
<path d="M64.5322 55.4246H66.0482C66.0482 56.2432 67.0867 56.9406 68.3222 56.9406C69.5578 56.9406 70.5962 56.2432 70.5962 55.4246C70.5962 54.5908 69.8079 54.2876 68.1403 53.8859C66.5333 53.4841 64.5322 52.9838 64.5322 50.8766C64.5322 49.5198 65.6465 48.3676 67.1852 47.9811V46.3286H69.4592V47.9811C70.998 48.3676 72.1122 49.5198 72.1122 50.8766H70.5962C70.5962 50.058 69.5578 49.3606 68.3222 49.3606C67.0867 49.3606 66.0482 50.058 66.0482 50.8766C66.0482 51.7104 66.8365 52.0136 68.5041 52.4153C70.1111 52.8171 72.1122 53.3174 72.1122 55.4246C72.1122 56.7814 70.998 57.9336 69.4592 58.3202V59.9726H67.1852V58.3202C65.6465 57.9336 64.5322 56.7814 64.5322 55.4246Z" fill="#141414"/>
<path d="M61.3441 30.0675C62.2261 29.5583 63.3128 29.5583 64.1948 30.0675L82.252 40.4929C83.134 41.0021 83.6773 41.9432 83.6773 42.9616V63.8124C83.6773 64.8308 83.134 65.7719 82.252 66.2811L64.1948 76.7065C63.3128 77.2157 62.2261 77.2157 61.3441 76.7065L43.2869 66.2811C42.4049 65.7719 41.8615 64.8308 41.8615 63.8124V42.9616C41.8615 41.9432 42.4049 41.0021 43.2869 40.4929L61.3441 30.0675L61.059 29.5738L61.3441 30.0675Z" stroke="#0962FF" stroke-width="1.14026"/>
<path d="M43.9545 43.0675L61.3434 53.1017" stroke="#0962FF" stroke-width="1.14026" stroke-linecap="round"/>
<path d="M81.8678 43.0675L64.4789 53.1017" stroke="#0962FF" stroke-width="1.14026" stroke-linecap="round"/>
<path d="M62.7695 54.8123L62.7695 74.7668" stroke="#0962FF" stroke-width="1.14026" stroke-linecap="round"/>
<path d="M116.6 34.9194C114.322 34.9194 112.475 32.983 112.475 30.5943C112.475 28.2056 114.322 26.2692 116.6 26.2692C118.879 26.2692 120.726 28.2056 120.726 30.5943C120.726 32.983 118.879 34.9194 116.6 34.9194Z" fill="#0962FF" stroke="black" stroke-width="0.0478017" stroke-miterlimit="10"/>
<path d="M116.171 34.5896C113.893 34.5896 112.046 32.6531 112.046 30.2645C112.046 27.8758 113.893 25.9393 116.171 25.9393C118.45 25.9393 120.297 27.8758 120.297 30.2645C120.297 32.6531 118.45 34.5896 116.171 34.5896Z" fill="white" stroke="#050505" stroke-width="0.0551249" stroke-miterlimit="10"/>
<g clip-path="url(#clip0_1237_8331)">
<path d="M116.149 26.7991C116.131 27.42 116.112 28.3902 116.085 29.3312L114.206 29.729L116.149 26.7991Z" fill="#343434"/>
<path d="M116.15 26.7991L117.917 30.8447L116.085 29.3312C116.103 28.3902 116.131 27.42 116.15 26.7991Z" fill="#8C8C8C"/>
<path d="M114.197 30.1268L116.02 31.9217L115.973 33.6389L114.197 30.1268Z" fill="#3C3C3B"/>
<path d="M117.908 31.2426L115.974 33.6389L116.02 31.9217L117.908 31.2426Z" fill="#8C8C8C"/>
<path d="M116.085 29.3314L116.029 31.524L114.206 29.7292L116.085 29.3314Z" fill="#141414"/>
<path d="M116.085 29.3314L117.917 30.8449L116.029 31.524L116.085 29.3314Z" fill="#393939"/>
</g>
<path d="M106.326 31.8036C103.361 31.8036 100.957 29.2834 100.957 26.1746C100.957 23.0658 103.361 20.5457 106.326 20.5457C109.291 20.5457 111.695 23.0658 111.695 26.1746C111.695 29.2834 109.291 31.8036 106.326 31.8036Z" fill="#0962FF" stroke="black" stroke-width="0.062212" stroke-miterlimit="10"/>
<path d="M105.77 31.3742C102.804 31.3742 100.401 28.854 100.401 25.7452C100.401 22.6364 102.804 20.1162 105.77 20.1162C108.735 20.1162 111.139 22.6364 111.139 25.7452C111.139 28.854 108.735 31.3742 105.77 31.3742Z" fill="white" stroke="#050505" stroke-width="0.0717428" stroke-miterlimit="10"/>
<path d="M105.74 21.2355C105.716 22.0436 105.692 23.3062 105.656 24.531L103.211 25.0487L105.74 21.2355Z" fill="#343434"/>
<path d="M105.74 21.2355L108.04 26.5007L105.655 24.531C105.68 23.3062 105.716 22.0436 105.74 21.2355Z" fill="#8C8C8C"/>
<path d="M103.198 25.5664L105.57 27.9023L105.51 30.1372L103.198 25.5664Z" fill="#3C3C3B"/>
<path d="M108.027 27.0184L105.51 30.1372L105.57 27.9023L108.027 27.0184Z" fill="#8C8C8C"/>
<path d="M105.655 24.531L105.583 27.3846L103.21 25.0487L105.655 24.531Z" fill="#141414"/>
<path d="M105.655 24.531L108.04 26.5007L105.583 27.3846L105.655 24.531Z" fill="#393939"/>
<path d="M109.252 13.072C109.786 12.7638 110.443 12.7638 110.977 13.072L121.904 19.3805C122.438 19.6887 122.766 20.2581 122.766 20.8744V33.4915C122.766 34.1078 122.438 34.6772 121.904 34.9854L110.977 41.2939C110.443 41.602 109.786 41.602 109.252 41.2939L98.3255 34.9854C97.7918 34.6772 97.463 34.1078 97.463 33.4915V20.8744C97.463 20.2581 97.7918 19.6887 98.3255 19.3805L109.252 13.072Z" stroke="#0962FF" stroke-width="0.68999"/>
<path d="M98.7299 20.9386L109.252 27.0105" stroke="#0962FF" stroke-width="0.68999" stroke-linecap="round"/>
<path d="M121.671 20.9386L111.149 27.0105" stroke="#0962FF" stroke-width="0.68999" stroke-linecap="round"/>
<path d="M110.114 28.0453L110.114 40.1201" stroke="#0962FF" stroke-width="0.68999" stroke-linecap="round"/>
<path d="M66.6231 113.327C63.6578 113.327 61.254 110.807 61.254 107.698C61.254 104.589 63.6578 102.069 66.6231 102.069C69.5884 102.069 71.9922 104.589 71.9922 107.698C71.9922 110.807 69.5884 113.327 66.6231 113.327Z" fill="#0962FF" stroke="black" stroke-width="0.062212" stroke-miterlimit="10"/>
<path d="M66.0665 112.898C63.1012 112.898 60.6974 110.378 60.6974 107.269C60.6974 104.16 63.1012 101.64 66.0665 101.64C69.0317 101.64 71.4355 104.16 71.4355 107.269C71.4355 110.378 69.0317 112.898 66.0665 112.898Z" fill="white" stroke="#050505" stroke-width="0.0717428" stroke-miterlimit="10"/>
<path d="M68.3737 107.84C68.348 107.696 68.2967 107.553 68.2111 107.427C68.1341 107.302 68.0228 107.203 67.903 107.122C67.7832 107.041 67.6463 106.988 67.5093 106.97C67.6976 106.88 67.8431 106.727 67.9372 106.53C68.0314 106.342 68.0571 106.117 68.0228 105.911C67.9544 105.157 67.3467 104.906 66.5765 104.825V103.784L65.9774 103.775V104.789C65.8234 104.789 65.6608 104.789 65.4982 104.789V103.766L64.8991 103.757V104.798C64.7707 104.798 64.6423 104.798 64.5225 104.798L63.7009 104.789V105.462C63.7009 105.462 64.146 105.453 64.1374 105.462C64.2144 105.453 64.3 105.48 64.3599 105.525C64.4198 105.579 64.4626 105.651 64.4797 105.74L64.4712 108.594C64.4712 108.621 64.4626 108.647 64.4541 108.674C64.4455 108.701 64.4284 108.728 64.4027 108.746C64.3856 108.764 64.3599 108.782 64.3342 108.791C64.3086 108.8 64.2829 108.8 64.2487 108.8C64.2572 108.809 63.8122 108.8 63.8122 108.8L63.6924 109.554L64.4712 109.563C64.6167 109.563 64.7622 109.572 64.8991 109.572V110.621L65.4982 110.63V109.59C65.6608 109.599 65.8148 109.599 65.9774 109.599V110.63L66.5765 110.639V109.59C67.5864 109.536 68.2881 109.275 68.3737 108.28C68.3908 108.145 68.3994 107.992 68.3737 107.84ZM65.5067 105.534C65.8405 105.534 66.9017 105.435 66.9017 106.18C66.9017 106.898 65.8405 106.799 65.4982 106.799L65.5067 105.534ZM65.4982 108.836L65.5067 107.445C65.9089 107.445 67.1841 107.337 67.1841 108.154C67.1756 108.944 65.909 108.836 65.4982 108.836Z" fill="#141414"/>
<path d="M62.1379 93.0074C62.6717 92.6993 63.3292 92.6993 63.8629 93.0074L74.7896 99.316C75.3233 99.6241 75.6521 100.194 75.6521 100.81V113.427C75.6521 114.043 75.3233 114.613 74.7896 114.921L63.8629 121.229C63.3292 121.537 62.6717 121.537 62.1379 121.229L51.2112 114.921C50.6775 114.613 50.3488 114.043 50.3488 113.427V100.81C50.3488 100.194 50.6775 99.6241 51.2112 99.316L62.1379 93.0074Z" stroke="#0962FF" stroke-width="0.68999"/>
<path d="M51.6156 100.874L62.1379 106.946" stroke="#0962FF" stroke-width="0.68999" stroke-linecap="round"/>
<path d="M74.5572 100.874L64.035 106.946" stroke="#0962FF" stroke-width="0.68999" stroke-linecap="round"/>
<path d="M63 107.981L63 120.056" stroke="#0962FF" stroke-width="0.68999" stroke-linecap="round"/>
<path d="M15.0237 10.9546C15.5574 10.6464 16.215 10.6464 16.7487 10.9546L27.6754 17.2631C28.2091 17.5712 28.5379 18.1407 28.5379 18.757V31.3741C28.5379 31.9903 28.2091 32.5598 27.6754 32.8679L16.7487 39.1765C16.215 39.4846 15.5574 39.4846 15.0237 39.1765L4.09698 32.8679C3.56327 32.5598 3.23449 31.9903 3.23449 31.3741V18.757C3.23449 18.1407 3.56327 17.5712 4.09698 17.2631L15.0237 10.9546Z" stroke="#0962FF" stroke-width="0.68999"/>
<path d="M4.50135 18.821L15.0236 24.8929" stroke="#0962FF" stroke-width="0.68999" stroke-linecap="round"/>
<path d="M27.443 18.821L16.9207 24.8929" stroke="#0962FF" stroke-width="0.68999" stroke-linecap="round"/>
<path d="M15.8867 25.9279L15.8867 38.0027" stroke="#0962FF" stroke-width="0.68999" stroke-linecap="round"/>
<path d="M95.785 35.1812L85.5787 41.095" stroke="#0962FF" stroke-width="1.14026" stroke-linecap="round"/>
<path d="M30.1632 33.5085L39.931 40.1214" stroke="#0962FF" stroke-width="1.14026" stroke-linecap="round"/>
<path d="M62.8154 79.9355L62.8154 90.523" stroke="#0962FF" stroke-width="1.14026" stroke-linecap="round"/>
<path fill-rule="evenodd" clip-rule="evenodd" d="M98.0314 61.0367C97.6645 60.8248 97.2123 60.8248 96.8454 61.0367L87.3572 66.5147C86.5665 66.9712 86.5665 68.1125 87.3572 68.569L97.4384 74.3894L87.3572 68.569C86.5665 68.1125 85.5781 68.6831 85.5781 69.5961V80.5522C85.5781 80.9759 85.8042 81.3675 86.1711 81.5793L95.6594 87.0574C96.45 87.5139 97.4384 86.9432 97.4384 86.0302V74.3894C97.4384 74.3894 97.4384 74.3894 97.4384 74.3894L107.52 68.569C108.31 68.1125 108.31 66.9712 107.52 66.5147L98.0314 61.0367ZM97.4395 75.0742C97.4395 74.6504 97.6655 74.2589 98.0325 74.047L107.521 68.569C108.311 68.1125 109.3 68.6831 109.3 69.5961L109.3 80.5522C109.3 80.9759 109.074 81.3675 108.707 81.5793L99.2185 87.0574C98.4278 87.5139 97.4395 86.9432 97.4395 86.0302V75.0742Z" fill="white"/>
<path fill-rule="evenodd" clip-rule="evenodd" d="M85.8805 67.9198C85.8746 67.9164 85.8672 67.9207 85.8672 67.9276V67.9324L85.8672 80.6353C85.8672 80.8434 85.9789 81.0354 86.1598 81.1383L97.3401 87.4943C97.3434 87.4962 97.3455 87.4997 97.3455 87.5035C97.3455 87.5117 97.3543 87.5168 97.3613 87.5128L108.539 81.1583C108.72 81.0555 108.831 80.8634 108.831 80.6553V67.939C108.831 67.9376 108.832 67.9364 108.833 67.9357C108.836 67.9342 108.836 67.9306 108.833 67.9291L97.6391 61.5651C97.4618 61.4643 97.2445 61.4643 97.0672 61.5651L85.8894 67.9198C85.8866 67.9213 85.8833 67.9213 85.8805 67.9198Z" fill="#86B2FF"/>
<rect width="13.0352" height="13.0352" rx="0.289275" transform="matrix(0.866025 -0.500001 0.866025 0.500001 86.041 67.8625)" fill="#0962FF"/>
<rect width="13.0352" height="13.0352" rx="0.564439" transform="matrix(0.866025 0.500001 -2.20305e-08 1 86.041 68.1184)" fill="#86B2FF"/>
<rect width="13.0352" height="13.0352" rx="0.289275" transform="matrix(0.866025 -0.500001 2.20305e-08 1 97.6123 74.6499)" fill="#141414"/>
<path fill-rule="evenodd" clip-rule="evenodd" d="M28.6838 60.5075C28.3168 60.2957 27.8647 60.2957 27.4977 60.5075L18.0095 65.9856C17.2188 66.4421 17.2188 67.5833 18.0095 68.0398L27.4977 73.5179C27.8647 73.7297 28.3168 73.7297 28.6838 73.5179L38.172 68.0398C38.9627 67.5833 38.9627 66.4421 38.172 65.9856L28.6838 60.5075ZM28.0908 74.545C28.0908 74.1213 28.3169 73.7297 28.6838 73.5179L38.172 68.0398C38.9627 67.5833 39.9511 68.154 39.9511 69.067L39.9511 80.023C39.9511 80.4468 39.725 80.8383 39.3581 81.0502L29.8699 86.5282C29.0792 86.9847 28.0908 86.4141 28.0908 85.5011V74.545ZM16.2305 69.0671C16.2305 68.1541 17.2188 67.5835 18.0095 68.04L27.4977 73.518C27.8647 73.7299 28.0907 74.1214 28.0907 74.5451V85.5012C28.0907 86.4142 27.1024 86.9848 26.3117 86.5283L16.8235 81.0503C16.4565 80.8384 16.2305 80.4469 16.2305 80.0232V69.0671Z" fill="white"/>
<path fill-rule="evenodd" clip-rule="evenodd" d="M16.5328 67.3906C16.5269 67.3872 16.5195 67.3915 16.5195 67.3983V67.4031L16.5195 80.1061C16.5195 80.3142 16.6313 80.5062 16.8121 80.6091L27.9926 86.9652C27.9959 86.9671 27.998 86.9706 27.998 86.9744C27.998 86.9826 28.0068 86.9877 28.0138 86.9836L39.1914 80.6292C39.3722 80.5263 39.484 80.3343 39.484 80.1262V67.4095C39.484 67.4082 39.4847 67.407 39.4858 67.4063C39.4883 67.4049 39.4883 67.4013 39.4858 67.3999L28.2915 61.0358C28.1142 60.935 27.8969 60.935 27.7196 61.0358L16.5416 67.3906C16.5389 67.3921 16.5355 67.3921 16.5328 67.3906Z" fill="#86B2FF"/>
<rect width="13.0352" height="13.0352" rx="0.289275" transform="matrix(0.866025 -0.500001 0.866025 0.500001 16.6934 67.3333)" fill="#0962FF"/>
<rect width="13.0352" height="13.0352" rx="0.564439" transform="matrix(0.866025 0.500001 -2.20305e-08 1 16.6934 67.5891)" fill="#86B2FF"/>
<rect width="13.0352" height="13.0352" rx="0.289275" transform="matrix(0.866025 -0.500001 2.20305e-08 1 28.2637 74.1207)" fill="#141414"/>
<path fill-rule="evenodd" clip-rule="evenodd" d="M63.624 0.15902C63.257 -0.0528439 62.8049 -0.0528441 62.4379 0.15902L51.171 6.66401C51.1709 6.66409 51.1709 6.66429 51.171 6.66437C51.1711 6.6644 51.1711 6.66447 51.1711 6.66455V19.6746C51.1711 20.0983 51.3972 20.4898 51.7641 20.7017L61.2523 26.1797C62.043 26.6362 63.0314 26.0656 63.0314 25.1526V13.5118C63.0314 13.5118 63.0314 13.5118 63.0313 13.5117C63.0312 13.5117 63.0312 13.5116 63.0313 13.5115L73.1122 7.69132C73.9029 7.23481 73.9029 6.09356 73.1122 5.63706L63.624 0.15902ZM63.0315 14.1964C63.0315 13.7727 63.2575 13.3812 63.6245 13.1693L73.1127 7.69127C73.9034 7.23477 74.8917 7.8054 74.8917 8.7184L74.8917 19.6745C74.8917 20.0982 74.6657 20.4897 74.2987 20.7016L64.8105 26.1796C64.0198 26.6361 63.0315 26.0655 63.0315 25.1525V14.1964Z" fill="white"/>
<path fill-rule="evenodd" clip-rule="evenodd" d="M51.4723 7.04211C51.4664 7.03872 51.459 7.04302 51.459 7.04987V7.05471V19.7576C51.459 19.9657 51.5707 20.1577 51.7516 20.2606L62.9324 26.6169C62.9357 26.6188 62.9377 26.6223 62.9377 26.6261C62.9377 26.6341 62.9464 26.6392 62.9534 26.6352L74.1311 20.2807C74.312 20.1778 74.4237 19.9858 74.4237 19.7777V7.06093C74.4237 7.05964 74.4244 7.05845 74.4255 7.05782C74.4279 7.05645 74.4279 7.05297 74.4255 7.0516L63.2309 0.687412C63.0536 0.586618 62.8363 0.586618 62.659 0.687412L51.4812 7.04211C51.4784 7.04366 51.4751 7.04366 51.4723 7.04211Z" fill="#86B2FF"/>
<rect width="13.0352" height="13.0352" rx="0.289275" transform="matrix(0.866025 -0.500001 0.866025 0.500001 51.6338 6.98474)" fill="#0962FF"/>
<rect width="13.0352" height="13.0352" rx="0.564439" transform="matrix(0.866025 0.500001 -2.20305e-08 1 51.6338 7.24036)" fill="#86B2FF"/>
<rect width="13.0352" height="13.0352" rx="0.289275" transform="matrix(0.866025 -0.500001 2.20305e-08 1 63.2051 13.7721)" fill="#141414"/>
<defs>
<clipPath id="clip0_1237_8331">
<rect width="8.09688" height="8.09689" fill="white" transform="translate(112.1 26.2269)"/>
</clipPath>
</defs>
</svg>
