<svg width="120" height="130" viewBox="0 0 120 130" fill="none" xmlns="http://www.w3.org/2000/svg">
<rect x="0.527649" width="67.6298" height="67.6298" rx="7.00669" transform="matrix(0.866025 -0.5 0.866025 0.5 0.974012 96.1443)" fill="#141414" stroke="#0962FF" stroke-width="0.609277"/>
<rect x="0.527649" width="67.6298" height="67.6298" rx="7.00669" transform="matrix(0.866025 -0.5 0.866025 0.5 0.974012 89.4422)" fill="#86B2FF" stroke="#0962FF" stroke-width="0.609277"/>
<path d="M4.88184 95.5651V89.1538C4.88184 89.8646 5.55204 91.6518 8.23286 93.1141C10.9137 94.5764 11.787 95.145 11.8885 95.2466V101.827L6.40503 98.5976C6.11929 98.3833 5.60238 97.8976 5.23611 97.2891C4.92785 96.7769 4.88184 96.1629 4.88184 95.5651Z" fill="#0962FF" stroke="#0962FF" stroke-width="0.609277"/>
<path d="M114.977 89.1538V96.1605" stroke="#0962FF" stroke-width="0.609277"/>
<path d="M53.3174 119.313V125.711" stroke="#0962FF" stroke-width="0.609277"/>
<path d="M66.7217 119.008V125.71" stroke="#0962FF" stroke-width="0.609277"/>
<path d="M110.896 96.1901V93.7234C110.896 93.7234 112.502 92.9549 113.333 92.2002C114.026 91.5707 114.76 90.2341 115.042 89.6931C115.072 89.6358 115.161 89.6577 115.161 89.7223V95.1004C115.161 96.0023 115.065 96.9423 114.552 97.6837C113.897 98.6296 112.833 99.1912 111.837 99.7666L77.9951 119.313L108.591 100.332C110.024 99.443 110.896 97.8765 110.896 96.1901Z" fill="#0962FF" stroke="#0962FF" stroke-width="0.609277"/>
<path d="M16.458 104.508V98.1102L21.3322 101.157V107.249L16.458 104.508Z" fill="#0962FF" stroke="#0962FF" stroke-width="0.609277"/>
<rect width="9.93279" height="9.93279" transform="matrix(0.866025 -0.5 0.866025 0.5 85.3691 4.96643)" fill="#0962FF"/>
<rect width="9.93279" height="62.1258" transform="matrix(0.866025 -0.5 2.20305e-08 1 93.9785 10.2639)" fill="#141414"/>
<rect width="9.93279" height="62.5292" transform="matrix(0.866025 0.5 -2.20305e-08 1 85.2041 5.13196)" fill="#86B2FF"/>
<rect width="9.93279" height="9.93279" transform="matrix(0.866025 -0.5 0.866025 0.5 71.2998 21.19)" fill="#0962FF"/>
<rect width="9.93279" height="52.0341" transform="matrix(0.866025 -0.5 2.20305e-08 1 79.9082 26.4875)" fill="#141414"/>
<rect width="9.93279" height="51.5779" transform="matrix(0.866025 0.5 -2.20305e-08 1 71.1338 21.3555)" fill="#86B2FF"/>
<rect width="9.93279" height="9.93279" transform="matrix(0.866025 -0.5 0.866025 0.5 57.2285 36.2547)" fill="#0962FF"/>
<rect width="9.93279" height="49.1298" transform="matrix(0.866025 -0.5 2.20305e-08 1 65.8369 41.5523)" fill="#141414"/>
<rect width="9.93279" height="49.1298" transform="matrix(0.866025 0.5 -2.20305e-08 1 57.0625 36.4203)" fill="#86B2FF"/>
<path d="M99.4333 60.5543L94.8339 63.2098L97.1996 67.3002L84.4496 74.6258L67.6594 64.2947L53.3086 72.5423L53.3139 72.5513L48.71 75.1979L53.5894 83.6316L65.8237 76.6026L82.6124 86.9351L102.084 75.7475L104.456 79.8468L109.056 77.1912L109.611 65.7896L99.4333 60.5543Z" fill="#0962FF"/>
<path d="M105.012 68.4453L94.8339 63.21L97.2049 67.3108L79.8494 77.2815L63.06 66.9504L48.71 75.198L53.5894 83.6317L65.8237 76.6027L82.6124 86.9353L102.084 75.7476L104.456 79.847L105.012 68.4453Z" fill="white"/>
<path d="M63.0596 66.9502L67.6582 64.2946L84.4484 74.6256L79.8482 77.2812L63.0596 66.9502ZM109.609 65.7895L105.01 68.445L104.453 79.8467L109.053 77.1911L109.609 65.7895Z" fill="#141414"/>
<path d="M104.455 80.048C104.418 80.0477 104.382 80.0376 104.35 80.0187C104.319 79.9996 104.294 79.9727 104.277 79.9408C104.26 79.9089 104.252 79.8731 104.254 79.837L104.811 68.4354C104.812 68.4018 104.822 68.3691 104.84 68.3404C104.857 68.3116 104.882 68.2878 104.911 68.2709L109.51 65.6153C109.541 65.5973 109.577 65.5881 109.613 65.5886C109.649 65.589 109.684 65.5992 109.715 65.6181C109.746 65.6369 109.771 65.6637 109.788 65.6956C109.804 65.7275 109.812 65.7633 109.81 65.7993L109.255 77.2009C109.253 77.2346 109.243 77.2672 109.225 77.2959C109.208 77.3247 109.183 77.3485 109.154 77.3654L104.554 80.021C104.524 80.0385 104.49 80.0479 104.455 80.048ZM105.206 68.5645L104.672 79.4886L108.857 77.0741L109.389 66.1492L105.206 68.5645ZM79.8483 77.4817C79.8112 77.4818 79.7748 77.4717 79.7431 77.4525L62.9537 67.1215C62.9242 67.1031 62.8998 67.0775 62.8831 67.0469C62.8664 67.0164 62.8579 66.9821 62.8584 66.9473C62.859 66.9125 62.8685 66.8784 62.8861 66.8484C62.9038 66.8184 62.9289 66.7935 62.959 66.7761L67.5577 64.1205C67.5888 64.1021 67.6243 64.0923 67.6605 64.0923C67.6967 64.0923 67.7322 64.1021 67.7634 64.1205L84.5535 74.4515C84.5832 74.4698 84.6075 74.4954 84.6243 74.5259C84.6411 74.5564 84.6497 74.5907 84.6492 74.6255C84.6488 74.6603 84.6393 74.6944 84.6217 74.7244C84.6042 74.7544 84.5791 74.7794 84.549 74.7969L79.9511 77.4547C79.9198 77.4727 79.8843 77.4821 79.8483 77.4817ZM63.4515 66.9555L79.852 77.047L84.0565 74.6204L67.6545 64.5289L63.4515 66.9555Z" fill="#141414"/>
<path d="M48.6084 102.471C61.414 102.471 71.795 99.0436 71.795 94.8163C71.795 90.5889 61.414 87.162 48.6084 87.162C35.8028 87.162 25.4219 90.5889 25.4219 94.8163C25.4219 99.0436 35.8028 102.471 48.6084 102.471Z" fill="#0962FF"/>
<path d="M33.4775 42.1969C33.4775 42.1969 36.7021 39.193 41.0035 40.1088C45.305 41.0246 46.1253 38.8261 49.144 38.7367C52.1628 38.6472 52.9861 41.2214 54.8117 41.2125C56.6372 41.2035 56.9146 38.6442 58.7432 39.2855C60.5717 39.9268 60.9655 41.2423 60.9655 41.2423L50.8772 54.5612L33.4775 42.1969Z" fill="#0962FF"/>
<path d="M50.9005 54.7582L33.2295 42.2029L33.3638 42.0777C33.3966 42.0478 36.6957 39.032 41.021 39.9508C43.5625 40.4937 44.878 39.921 46.1517 39.3542C47.0818 38.8898 48.0968 38.6198 49.1347 38.5607C50.8946 38.507 51.9237 39.3274 52.8305 40.0522C53.4927 40.5802 54.0655 41.0396 54.8023 41.0396C55.5868 41.0396 56.076 40.5086 56.5473 40.0015C57.123 39.3841 57.7137 38.7427 58.7875 39.1066C60.6668 39.7659 61.0844 41.1052 61.1023 41.1619L61.1231 41.2365L61.0784 41.2961L50.9005 54.7582ZM33.7098 42.1761L50.8379 54.3466L60.7891 41.2066C60.6787 40.9381 60.1925 39.9389 58.701 39.4168C57.8061 39.1185 57.3348 39.6227 56.78 40.2193C56.2878 40.7502 55.73 41.3498 54.8172 41.3528C53.973 41.3528 53.3257 40.8427 52.6575 40.2998C51.7925 39.6108 50.8111 38.8262 49.1585 38.8769C47.9833 38.9127 47.1629 39.2677 46.2919 39.6465C44.9764 40.2163 43.6072 40.8069 40.9792 40.2431C37.2833 39.4735 34.372 41.6332 33.7098 42.185V42.1761Z" fill="#0962FF"/>
<path d="M69.917 84.6383C69.9323 86.1966 69.7712 87.7517 69.4368 89.2738C67.2502 98.8192 57.839 100.358 46.5605 100.358H45.7073H44.529L43.8579 100.341C43.2255 100.323 42.602 100.302 41.9846 100.269L41.6177 100.248L41.2508 100.227L40.5886 100.182L40.1679 100.15L39.81 100.117L39.1269 100.051H39.1031L38.408 99.9736L38.062 99.9319L37.7189 99.8872L37.3789 99.8364L37.0448 99.7857C36.9344 99.7708 36.8211 99.7529 36.7107 99.732L36.3199 99.6664L36.0514 99.6187L35.7263 99.5561C35.3952 99.4904 35.0671 99.4188 34.7449 99.3442L34.5152 99.2906L34.4347 99.2697L34.199 99.21L34.1096 99.1861L33.8918 99.1295L33.7755 99.0967L33.5876 99.0459L33.4533 99.0072L33.2714 98.9535C32.812 98.8163 32.3616 98.6552 31.926 98.5001L31.747 98.4315L31.4965 98.33L31.3056 98.2525L31.1594 98.1898L31.0669 98.1481L30.8611 98.0586L30.7656 98.0139L30.5598 97.9184L30.5002 97.8886L30.3301 97.8051L30.175 97.7275L29.9185 97.5933C29.8052 97.5336 29.6948 97.471 29.5844 97.4083L29.3875 97.295L29.1698 97.1607L29.0177 97.0653L28.8923 96.9848L28.776 96.9072C28.7343 96.8803 28.6925 96.8535 28.6537 96.8237L28.5195 96.7312L28.4091 96.6536L28.2928 96.5701L28.1496 96.4627L28.0601 96.3941C28.0184 96.3613 27.9766 96.3315 27.9378 96.2957L27.8036 96.1883C27.6246 96.0451 27.4546 95.89 27.2845 95.7379L27.1503 95.6155L27.1264 95.5887C27.0638 95.532 27.0042 95.4754 26.9445 95.4127L26.7566 95.2218L26.6403 95.0965L26.5328 94.9802C26.5074 94.9537 26.4835 94.9259 26.4612 94.8967C26.4225 94.8549 26.3837 94.8131 26.3479 94.7684C26.3121 94.7237 26.2733 94.6849 26.2405 94.6401C26.2077 94.5954 26.2047 94.5984 26.1868 94.5775L26.0556 94.4134C26.0288 94.3806 25.9989 94.3448 25.9751 94.309C25.9512 94.2732 25.9124 94.2285 25.8826 94.1897C25.7632 94.0316 25.6499 93.8676 25.5365 93.7005C24.045 91.4782 23.2158 88.537 23.2158 84.6591C23.2158 78.9408 25.0324 72.086 28.084 66.0336C32.3556 57.5679 39.0493 50.6773 46.5783 50.6773C59.4587 50.6564 69.917 70.9137 69.917 84.6383Z" fill="white"/>
<path d="M46.561 100.508H45.7079H44.5147L43.8435 100.49C43.1604 100.472 42.5459 100.448 41.9672 100.418L41.5973 100.4L41.2304 100.376L40.5652 100.332L40.1417 100.299L39.8971 100.278H39.7867L39.1006 100.212H39.0827L38.3787 100.132H38.2743L38.0297 100.102L37.6956 100.057L37.3466 100.007L37.0096 99.9558L36.6755 99.9021L36.2817 99.8335L36.0132 99.7858L35.6851 99.7231C35.3242 99.6515 35.002 99.5829 34.6978 99.5114L34.3995 99.4368L34.1608 99.3771L34.0713 99.3532L33.8536 99.2966L33.7611 99.2697H33.7343L33.5463 99.216L33.4121 99.1773L33.2271 99.1236C32.7648 98.9834 32.3084 98.8253 31.8729 98.6672L31.6939 98.5986L31.4403 98.4971L31.2465 98.4166L31.1003 98.354L31.0048 98.3122L30.799 98.2197L30.7006 98.175L30.5007 98.0825L30.4589 98.0646H30.4381L30.2621 97.9781L30.107 97.9006L29.8475 97.7633C29.7341 97.7037 29.6237 97.641 29.5104 97.5754L29.3255 97.471L29.1077 97.3398L28.9496 97.2413L28.8213 97.1578L28.702 97.0773L28.5797 96.9937C28.535 96.9669 28.4902 96.9341 28.4454 96.9013C28.4063 96.8764 28.3685 96.8495 28.3321 96.8207L28.2158 96.7372L28.0697 96.6268L28.001 96.5731H27.9831L27.8518 96.4717L27.7206 96.3643C27.5416 96.2182 27.3626 96.066 27.1956 95.9079L27.0584 95.7827L27.0285 95.7498L26.8496 95.5768L26.6587 95.3829L26.5423 95.2577C26.5066 95.2219 26.4677 95.1801 26.4319 95.1383C26.3961 95.0966 26.3842 95.0816 26.3574 95.0548L26.2441 94.9236L26.1366 94.7953L26.08 94.7267C26.0382 94.6789 25.9935 94.6223 25.9487 94.5656C25.904 94.5089 25.8921 94.494 25.8652 94.4552L25.7787 94.3419C25.6504 94.1718 25.5341 94.0078 25.4267 93.8437C23.8458 91.4842 23.0791 88.4982 23.0791 84.7188C23.0791 78.9945 24.8689 72.1904 27.9622 66.0276C30.2114 61.5532 33.0005 57.7976 36.0162 55.1279C39.4258 52.1151 42.9814 50.5878 46.5789 50.5878C49.6782 50.5878 52.7685 51.7333 55.7604 53.9973C58.4451 56.0198 61.0134 58.958 63.2178 62.5018C67.4506 69.294 70.0786 77.8073 70.0786 84.7188C70.0932 86.2881 69.9311 87.8541 69.5954 89.3872C68.5723 93.8616 65.9145 96.8863 61.4758 98.6343C57.0372 100.382 51.1518 100.508 46.561 100.508ZM45.7168 100.209H46.561C58.6987 100.209 67.209 98.342 69.2911 89.241C69.6218 87.7294 69.7818 86.1856 69.7684 84.6383C69.7684 77.7775 67.1553 69.3268 62.9494 62.5644C58.2154 54.9728 52.3957 50.7907 46.561 50.7907C39.8941 50.7907 33.0333 56.5001 28.2069 66.0664C25.1225 72.1815 23.3536 78.9438 23.3536 84.6234C23.3536 88.3431 24.1053 91.2724 25.6504 93.5723C25.7549 93.7304 25.8712 93.8944 25.9905 94.0555L26.08 94.1689L26.1605 94.2762C26.2053 94.3299 26.247 94.3836 26.2918 94.4344C26.3064 94.4561 26.3224 94.4771 26.3395 94.497L26.4499 94.6253C26.4843 94.6691 26.5212 94.7109 26.5603 94.7505C26.5826 94.7796 26.6065 94.8075 26.6319 94.8341C26.6676 94.8728 26.7004 94.9116 26.7362 94.9474C26.772 94.9832 26.8138 95.0309 26.8526 95.0697C26.8914 95.1085 26.9778 95.201 27.0375 95.2606L27.2165 95.4366L27.2404 95.4575C27.2841 95.5032 27.3289 95.545 27.3746 95.5828C27.5387 95.7349 27.7117 95.8811 27.8877 96.0272C27.9294 96.066 27.9742 96.0988 28.0159 96.1316L28.1383 96.2301L28.1591 96.245L28.2247 96.2927C28.2784 96.3345 28.3231 96.3703 28.3709 96.4031C28.4062 96.4319 28.4431 96.4588 28.4813 96.4836L28.5946 96.5642C28.6393 96.597 28.6812 96.6268 28.7259 96.6537L28.8452 96.7372L28.9616 96.8147L29.0868 96.8953L29.239 96.9907L29.4537 97.119C29.5134 97.1548 29.5731 97.1906 29.6357 97.2234C29.7461 97.2861 29.8534 97.3487 29.9668 97.4084C30.0801 97.468 30.1339 97.4979 30.2204 97.5396L30.3725 97.6172L30.5395 97.7007L30.5962 97.7276L30.802 97.823L30.8975 97.8677L31.1033 97.9572L31.1958 97.999L31.339 98.0587L31.5298 98.1392L31.7775 98.2376L31.9534 98.3062C32.3829 98.4673 32.8484 98.6194 33.2898 98.7567L33.4688 98.8074L33.603 98.8462L33.791 98.8998H33.8178L33.9073 98.9267L34.122 98.9834L34.2115 99.0072L34.4472 99.0639L34.7455 99.1385C35.0438 99.2101 35.3659 99.2787 35.7239 99.3503L36.0461 99.4099L36.3115 99.4576C36.4428 99.4845 36.5711 99.5054 36.7023 99.5262L37.0334 99.58L37.3705 99.6307L37.7075 99.6784L38.0476 99.7231L38.2892 99.753H38.3936L39.0857 99.8335H39.1095L39.7896 99.8991H39.903L40.1447 99.917L40.5652 99.9528L41.2304 99.9976L41.5943 100.018L41.9612 100.039C42.537 100.069 43.1544 100.093 43.8286 100.111H44.4968C44.8875 100.111 45.2813 100.111 45.675 100.111L45.7168 100.209Z" fill="#0962FF"/>
<path d="M38.2982 51.5693L33.4658 42.1969C33.4658 42.1969 38.1998 41.1468 40.1208 43.2588C42.0418 45.3707 46.555 44.9859 48.2822 43.9299C50.0093 42.874 50.588 44.9859 53.6515 45.7555C56.715 46.5251 55.4771 40.762 60.9508 41.2423L55.3906 51.5186L54.2272 54.0303H38.862L38.2982 51.5693Z" fill="white"/>
<path d="M54.2367 54.1823H38.8714C38.8375 54.1824 38.8044 54.171 38.7778 54.1498C38.7513 54.1287 38.7327 54.0991 38.7253 54.066L38.1585 51.6199L33.335 42.2654C33.3241 42.2447 33.3184 42.2217 33.3184 42.1983C33.3184 42.1749 33.3241 42.1518 33.335 42.1312C33.3442 42.1106 33.3582 42.0925 33.3759 42.0785C33.3935 42.0645 33.4143 42.0549 33.4365 42.0506C33.6334 42.0059 38.2778 41.0036 40.2346 43.1573C42.1288 45.2454 46.5406 44.8218 48.208 43.8016C49.267 43.1543 49.9322 43.6077 50.8539 44.2371C51.7066 44.8714 52.6725 45.3371 53.6997 45.6093C54.9376 45.9076 55.3881 45.1141 56.0145 44.0015C56.8139 42.5816 57.8042 40.8127 60.9751 41.0931C61 41.0948 61.024 41.1028 61.0449 41.1164C61.0658 41.1299 61.0828 41.1486 61.0945 41.1706C61.1062 41.1927 61.1123 41.2172 61.1123 41.2422C61.1123 41.2672 61.1062 41.2918 61.0945 41.3138L55.5342 51.5901L54.3768 54.0928C54.3644 54.1195 54.3446 54.1421 54.3197 54.1579C54.2949 54.1738 54.2661 54.1822 54.2367 54.1823ZM38.9907 53.884H54.1412L55.2628 51.4589L60.7186 41.3765C57.9176 41.2184 57.0465 42.7725 56.274 44.1506C55.6595 45.2394 55.0808 46.2685 53.6251 45.9046C52.5637 45.6232 51.5655 45.1424 50.6839 44.4877C49.789 43.8911 49.255 43.5153 48.3602 44.0611C46.6181 45.1261 42.0005 45.5526 40.0079 43.3631C38.3822 41.5734 34.5849 42.1431 33.687 42.3072L38.43 51.5036C38.4316 51.5145 38.4316 51.5255 38.43 51.5364L38.9907 53.884Z" fill="#0962FF"/>
<path d="M43.8469 100.323L44.5181 100.341C43.656 100.323 42.8089 100.296 41.9736 100.251C42.5911 100.284 43.2146 100.305 43.8469 100.323Z" fill="white"/>
<path d="M44.5145 100.49C43.5987 100.472 42.7665 100.442 41.967 100.4C41.9474 100.399 41.9282 100.395 41.9105 100.386C41.8928 100.378 41.8769 100.366 41.8638 100.351C41.8506 100.337 41.8404 100.32 41.8338 100.301C41.8272 100.283 41.8244 100.263 41.8254 100.244C41.8264 100.224 41.8312 100.205 41.8396 100.187C41.848 100.17 41.8598 100.154 41.8743 100.141C41.8889 100.127 41.9058 100.117 41.9243 100.111C41.9428 100.104 41.9624 100.101 41.982 100.102C42.5577 100.132 43.1751 100.156 43.8493 100.174H44.5175C44.557 100.176 44.5942 100.193 44.6214 100.222C44.6486 100.251 44.6637 100.289 44.6636 100.329C44.6648 100.349 44.6619 100.37 44.655 100.389C44.6481 100.408 44.6373 100.426 44.6234 100.441C44.6094 100.456 44.5926 100.468 44.5739 100.477C44.5552 100.485 44.535 100.49 44.5145 100.49Z" fill="#0962FF"/>
<path d="M40.3811 54.5612C40.3811 54.5612 36.5511 59.2982 36.2617 63.5668C36.2617 63.5668 38.9464 55.8558 41.7563 55.0982L40.3811 54.5612Z" fill="#D4E4F5"/>
<path d="M36.0371 64.6734L36.1117 63.5548C36.41 59.2892 40.2252 54.5164 40.2639 54.4687L40.3325 54.3822L42.2357 55.122L41.7942 55.2413C39.0797 55.9691 36.4249 63.5399 36.404 63.6144L36.0371 64.6734ZM40.428 54.7581C39.9776 55.3368 37.3943 58.7672 36.6158 62.2155C37.4689 60.0916 39.3154 56.0557 41.3348 55.1041L40.428 54.7581Z" fill="#0962FF"/>
<path d="M46.0947 55.5693C46.0947 55.5693 48.4602 62.3168 48.1828 66.4899C48.1828 66.4899 49.5997 65.4489 47.1507 55.5693H46.0947Z" fill="#D4E4F5"/>
<path d="M48.0098 66.8032L48.0307 66.4811C48.3051 62.3855 45.9754 55.6857 45.9426 55.6171L45.874 55.4172H47.2581L47.285 55.5336C49.6713 65.2282 48.4155 66.4989 48.2604 66.6123L48.0098 66.8032ZM46.3036 55.7185C46.6585 56.7805 48.2962 61.8634 48.3529 65.5921C48.5348 64.4586 48.5258 61.7888 47.0314 55.7185H46.3036Z" fill="#0962FF"/>
<path d="M51.6748 55.0713C51.6748 55.0713 54.974 57.2041 56.0747 60.5689C56.0747 60.5689 56.4625 58.3884 52.516 54.5612L51.6748 55.0713Z" fill="#D4E4F5"/>
<path d="M56.1146 61.1834L55.9297 60.6166C54.8588 57.3354 51.6253 55.2175 51.5925 55.1966L51.3896 55.0654L52.5351 54.3733L52.6186 54.4538C56.577 58.2929 56.2369 60.5033 56.219 60.5957L56.1146 61.1834ZM51.9385 55.0803C52.5709 55.5307 54.5903 57.1027 55.7388 59.3936C55.4405 58.4122 54.6082 56.8313 52.4844 54.7491L51.9385 55.0803Z" fill="#0962FF"/>
<path d="M42.9268 55.313C42.6035 57.3228 42.4538 59.3568 42.4794 61.3923C42.4794 61.3923 43.1506 56.0498 43.6964 55.5695L42.9268 55.313Z" fill="#D4E4F5"/>
<path d="M42.6301 61.4131H42.3318C42.3067 59.3666 42.4574 57.3217 42.7822 55.301L42.8121 55.128L43.9903 55.5247L43.7965 55.6948C43.4296 56.005 42.8866 59.3668 42.6301 61.4131ZM43.0477 55.5098C42.9761 55.9841 42.7733 57.3801 42.6749 58.9909C42.8896 57.6665 43.176 56.2078 43.4623 55.647L43.0477 55.5098Z" fill="#0962FF"/>
<path d="M40.3113 52.5655C40.3113 52.5655 40.1025 48.6578 38.4619 47.0172C38.4619 47.0172 40.3114 48.097 40.9408 53.0547L40.3113 52.5655Z" fill="#D4E4F5"/>
<path d="M41.1343 53.3949L40.1648 52.6432V52.5746C40.1648 52.5358 39.9411 48.6967 38.3751 47.1217L37.5518 46.2984L38.5541 46.895C38.6346 46.9427 40.4751 48.0882 41.1075 53.0459L41.1343 53.3949ZM40.4572 52.5L40.7555 52.7207C40.6067 51.5887 40.3244 50.4782 39.9143 49.4126C40.2037 50.4166 40.3856 51.4486 40.4572 52.491V52.5Z" fill="#0962FF"/>
<path d="M51.6748 53.1591C51.6748 53.1591 52.5518 50.0389 54.3595 48.3536C54.3595 48.3536 52.3699 51.1695 52.6771 52.8847L51.6748 53.1591Z" fill="#D4E4F5"/>
<path d="M51.46 53.374L51.5315 53.1175C51.5673 52.9892 52.4264 49.9377 54.255 48.2463L55.3169 47.256L54.4787 48.4492C54.4608 48.479 52.5309 51.2353 52.8202 52.8669L52.844 53.0012L51.46 53.374ZM53.1453 50.1554C52.6336 51.038 52.2157 51.9719 51.8984 52.9415L52.495 52.7745C52.4175 51.975 52.7486 50.9966 53.1453 50.1554Z" fill="#0962FF"/>
<path d="M46.0947 53.1591C46.0947 53.1591 48.3259 49.4811 48.5884 47.0172C48.5884 47.0172 48.9166 49.8809 46.5809 53.5797L46.0947 53.1591Z" fill="#D4E4F5"/>
<path d="M46.6025 53.7977L45.8896 53.2012L45.9553 53.0908C45.9761 53.055 48.1716 49.4128 48.4281 47.0085L48.5713 45.6632L48.7264 47.0085C48.7264 47.1278 49.0247 49.9676 46.695 53.6605L46.6025 53.7977ZM46.2774 53.1266L46.5339 53.3473C47.4173 51.9579 48.025 50.4115 48.3237 48.7923C47.7892 50.2977 47.113 51.749 46.3042 53.1266H46.2774Z" fill="#0962FF"/>
<path d="M36.8847 54.7999C38.406 55.3965 46.7285 58.4092 56.1696 54.8207C56.2776 54.7789 56.3758 54.7152 56.4579 54.6336C56.54 54.552 56.6043 54.4542 56.6468 54.3464C56.8705 53.7886 57.1688 52.6849 56.444 51.9153C56.2797 51.743 56.0714 51.619 55.8415 51.5569C55.6116 51.4948 55.3692 51.4971 55.1405 51.5634C53.127 52.1421 45.6844 53.9497 38.2986 51.5634C38.1209 51.5048 37.9319 51.4889 37.747 51.5169C37.562 51.5449 37.3862 51.616 37.2338 51.7244C36.6372 52.154 35.8586 53.025 36.5059 54.433C36.5803 54.5994 36.716 54.7307 36.8847 54.7999Z" fill="#86B2FF"/>
<path d="M46.6427 56.7029C43.2914 56.7174 39.9656 56.12 36.8288 54.94C36.6266 54.8569 36.4635 54.7002 36.3724 54.5015C35.6655 52.9712 36.5544 52.0316 37.145 51.608C37.3166 51.4881 37.5134 51.4093 37.7204 51.3778C37.9273 51.3462 38.1387 51.3627 38.3382 51.426C45.6494 53.7796 53.0084 52.0226 55.0905 51.426C55.3458 51.3504 55.6171 51.3472 55.8741 51.4167C56.1311 51.4863 56.3638 51.6258 56.5462 51.8198C57.3218 52.6431 57.0235 53.7945 56.7789 54.406C56.728 54.5334 56.6514 54.6489 56.5539 54.7454C56.4563 54.8419 56.34 54.9172 56.2121 54.9668C53.1547 56.1236 49.9116 56.712 46.6427 56.7029ZM36.9422 54.6626C38.5023 55.289 46.765 58.2421 56.1166 54.6804C56.205 54.6449 56.2854 54.592 56.3531 54.5249C56.4207 54.4578 56.4742 54.3778 56.5104 54.2897C56.7281 53.7438 56.9966 52.7207 56.3373 52.0167C56.1912 51.8652 56.0061 51.7571 55.8023 51.7045C55.5985 51.6518 55.3842 51.6566 55.183 51.7184C53.08 52.315 45.6375 54.1047 38.2547 51.7184C38.0989 51.667 37.9333 51.6529 37.7711 51.6772C37.6089 51.7016 37.4548 51.7637 37.321 51.8586C36.6886 52.309 36.0593 53.1144 36.6439 54.3821C36.7007 54.5166 36.8077 54.6236 36.9422 54.6804V54.6626Z" fill="#0962FF"/>
<path d="M54.1249 90.5535L53.7401 88.1164C52.007 88.3103 50.2679 88.1164 49.203 87.7018L49.5013 84.5787C50.9207 85.0942 52.4457 85.2499 53.94 85.0321C55.4016 84.8024 56.3114 84.0775 56.1503 83.0514C55.9952 82.0789 55.0764 81.5927 53.0779 81.2616C50.1844 80.7724 48.1082 79.7881 47.7085 77.2973C47.3536 75.0392 48.6631 73.0167 51.3239 72.0443L50.9361 69.6072L53.4507 69.2104L53.8087 71.4686C55.0971 71.2834 56.4101 71.3708 57.6627 71.7251L57.3644 74.7409C56.1253 74.3552 54.8152 74.2532 53.5313 74.4426C51.8638 74.7081 51.4432 75.5105 51.5506 76.2323C51.6849 77.0795 52.6692 77.4762 54.981 77.9505C58.2026 78.5471 59.6583 79.7612 60.0252 82.07C60.3921 84.3788 59.0766 86.5444 56.207 87.5408L56.6216 90.1568L54.1249 90.5535Z" fill="#141414"/>
<path d="M53.9997 90.7148L53.6149 88.2718C52.0011 88.4298 50.265 88.2718 49.1404 87.8333L49.033 87.7915L49.3582 84.3641L49.5402 84.4297C50.9366 84.9325 52.4348 85.0861 53.9042 84.8771C55.3301 84.6504 56.1325 83.9584 55.9923 83.0665C55.8521 82.1746 55.0288 81.7272 53.0422 81.3901C50.7304 80.9993 48.0129 80.179 47.5594 77.3004C47.1896 74.9677 48.5647 72.9185 51.1539 71.9311L50.7631 69.4672L53.5731 69.0227L53.9311 71.2868C55.195 71.1275 56.478 71.2229 57.7045 71.5672L57.8209 71.603L57.5076 74.9141L57.3406 74.8723L57.1378 74.8216C55.9763 74.4813 54.754 74.4018 53.5582 74.5889C52.2487 74.7947 51.5716 75.3824 51.7028 76.2027C51.8162 76.9186 52.6215 77.3064 55.0139 77.7986C58.2534 78.3952 59.7866 79.6659 60.1744 82.0433C60.5622 84.4834 59.0737 86.6669 56.3771 87.6334L56.7977 90.2763L53.9997 90.7148ZM53.8655 87.9406L54.2502 90.3718L56.4696 90.0227L56.0579 87.4276L56.1773 87.3858C58.844 86.476 60.2669 84.4446 59.894 82.0821C59.5361 79.824 58.1042 78.6666 54.9691 78.0879C52.7349 77.6256 51.5745 77.2139 51.4224 76.2445C51.3627 75.8716 51.3418 74.6307 53.5254 74.2846C54.7591 74.0924 56.0201 74.175 57.2183 74.5263H57.2481L57.5047 71.8088C56.3063 71.4933 55.0572 71.4183 53.8296 71.5881L53.6865 71.606L53.3315 69.3538L51.1122 69.7058L51.494 72.116L51.3777 72.1578C48.8571 73.0795 47.4998 75.0304 47.8607 77.2467C48.1978 79.3766 49.7639 80.528 53.0988 81.0888C54.8886 81.3871 56.1086 81.8375 56.2965 83.0158C56.4636 84.0867 55.5687 84.9129 53.9579 85.1665C52.5038 85.3757 51.0208 85.2388 49.6296 84.7668L49.3642 87.5857C50.4738 87.9824 52.1682 88.1256 53.7223 87.9526L53.8655 87.9406Z" fill="#0962FF"/>
<rect width="10.7059" height="4.58824" transform="translate(25.373 9.94128)" fill="#86B2FF"/>
<rect width="10.7059" height="4.58824" transform="translate(101.079 38.9999)" fill="#86B2FF"/>
<rect width="10.7059" height="4.58824" transform="translate(72.7852 109.353)" fill="white"/>
<rect width="4.58824" height="3.05882" transform="translate(36.0791 6.88232)" fill="#86B2FF"/>
</svg>
