<svg width="120" height="162" viewBox="0 0 120 162" fill="none" xmlns="http://www.w3.org/2000/svg">
<rect x="0.4562" width="58.4719" height="58.472" rx="6.05791" transform="matrix(0.866025 -0.500001 0.866025 0.500001 0.0611194 132.729)" fill="#141414" stroke="#0962FF" stroke-width="0.526774"/>
<rect x="0.4562" width="58.4719" height="58.472" rx="6.05791" transform="matrix(0.866025 -0.500001 0.866025 0.500001 0.0611194 126.934)" fill="#86B2FF" stroke="#0962FF" stroke-width="0.526774"/>
<rect opacity="0.3" width="16.191" height="16.191" rx="2.64462" transform="matrix(0.866025 -0.500001 0.866025 0.500001 29.752 131.087)" fill="#141414"/>
<rect opacity="0.3" width="16.191" height="45.9742" rx="2.64462" transform="matrix(0.866025 -0.500001 0.866025 0.500001 25.2812 114.873)" fill="#141414"/>
<path d="M3.43945 132.228V126.685C3.43945 127.299 4.0189 128.844 6.33671 130.109C8.65452 131.373 9.40956 131.865 9.49735 131.952V137.642L4.75639 134.85C4.50934 134.664 4.06243 134.245 3.74575 133.718C3.47924 133.276 3.43945 132.745 3.43945 132.228Z" fill="#0962FF" stroke="#0962FF" stroke-width="0.526775"/>
<path d="M98.627 126.685V132.743" stroke="#0962FF" stroke-width="0.526775"/>
<path d="M45.3164 152.76V158.291" stroke="#0962FF" stroke-width="0.526775"/>
<path d="M56.9062 152.497V158.291" stroke="#0962FF" stroke-width="0.526775"/>
<path d="M95.0981 132.768V130.636C95.0981 130.636 96.487 129.971 97.2052 129.319C97.8043 128.774 98.4392 127.619 98.6825 127.151C98.7083 127.101 98.7856 127.12 98.7856 127.176V131.826C98.7856 132.606 98.7026 133.419 98.2588 134.06C97.6926 134.877 96.7728 135.363 95.9115 135.86L66.6523 152.76L93.1055 136.349C94.3445 135.581 95.0981 134.226 95.0981 132.768Z" fill="#0962FF" stroke="#0962FF" stroke-width="0.526775"/>
<path d="M13.4492 139.96V134.428L17.6634 137.062V142.33L13.4492 139.96Z" fill="#0962FF" stroke="#0962FF" stroke-width="0.526775"/>
<path fill-rule="evenodd" clip-rule="evenodd" d="M90.5398 69.5978C90.1707 69.3846 89.7159 69.3846 89.3467 69.5978L79.8023 75.1083C79.0069 75.5675 79.0069 76.7155 79.8023 77.1747L89.9432 83.0296C89.9432 83.0296 89.9433 83.0296 89.9433 83.0296C89.9434 83.0296 89.9435 83.0296 89.9435 83.0297V94.7394C89.9435 95.6578 90.9377 96.2318 91.7331 95.7726L101.278 90.2621C101.647 90.049 101.874 89.6551 101.874 89.2289V76.1416C101.874 76.1415 101.874 76.1414 101.874 76.1415C101.874 76.1415 101.874 76.1415 101.874 76.1415L90.5398 69.5978ZM78.0117 78.2078C78.0117 77.2894 79.0059 76.7154 79.8013 77.1746L89.3458 82.6851C89.7149 82.8982 89.9423 83.2921 89.9423 83.7183V94.7394C89.9423 95.6578 88.9481 96.2318 88.1527 95.7726L78.6082 90.2621C78.2391 90.049 78.0117 89.6551 78.0117 89.2289V78.2078Z" fill="white"/>
<path fill-rule="evenodd" clip-rule="evenodd" d="M78.3289 76.5217C78.3261 76.5232 78.3228 76.5232 78.32 76.5217C78.3141 76.5183 78.3066 76.5226 78.3066 76.5295V76.5343V89.3126C78.3066 89.5219 78.419 89.7151 78.601 89.8185L89.8482 96.2126C89.8515 96.2145 89.8535 96.218 89.8535 96.2218C89.8535 96.2299 89.8622 96.235 89.8693 96.231L101.113 89.8387C101.295 89.7353 101.408 89.5421 101.408 89.3328V76.5405C101.408 76.5392 101.408 76.538 101.409 76.5374C101.412 76.536 101.412 76.5326 101.409 76.5312L90.1483 70.1293C89.97 70.0279 89.7514 70.0279 89.5731 70.1293L78.3289 76.5217Z" fill="#86B2FF"/>
<rect width="13.1124" height="13.1124" rx="0.29099" transform="matrix(0.866025 -0.500001 0.866025 0.500001 78.4824 76.464)" fill="#0962FF"/>
<rect width="13.1124" height="13.1125" rx="0.567785" transform="matrix(0.866025 0.500001 -2.20304e-08 1 78.4824 76.7212)" fill="#86B2FF"/>
<rect width="13.1124" height="13.1125" rx="0.29099" transform="matrix(0.866025 -0.500001 2.20304e-08 1 90.1211 83.2915)" fill="#141414"/>
<path fill-rule="evenodd" clip-rule="evenodd" d="M40.2898 27.9448C39.9207 27.7317 39.4659 27.7317 39.0967 27.9448L29.5523 33.4553C28.7569 33.9145 28.7569 35.0626 29.5523 35.5218L39.0967 41.0323C39.4659 41.2454 39.9207 41.2454 40.2898 41.0323L49.8343 35.5218C50.6296 35.0626 50.6296 33.9145 49.8343 33.4553L40.2898 27.9448ZM27.7617 36.555C27.7617 35.6366 28.7559 35.0626 29.5513 35.5218L39.0958 41.0323C39.4649 41.2454 39.6923 41.6393 39.6923 42.0655V53.0865C39.6923 54.0049 38.6981 54.579 37.9027 54.1197L28.3582 48.6092C27.9891 48.3961 27.7617 48.0023 27.7617 47.576V36.555ZM39.6935 42.0655C39.6935 41.6393 39.9209 41.2454 40.29 41.0323L49.8345 35.5218C50.6298 35.0626 51.6241 35.6366 51.6241 36.555V47.576C51.6241 48.0023 51.3967 48.3961 51.0275 48.6092L41.4831 54.1198C40.6877 54.579 39.6935 54.0049 39.6935 53.0865V42.0655Z" fill="white"/>
<path fill-rule="evenodd" clip-rule="evenodd" d="M28.0828 34.8688C28.0801 34.8704 28.0767 34.8704 28.0739 34.8688C28.068 34.8654 28.0605 34.8698 28.0605 34.8766V34.8815V47.6598C28.0605 47.8691 28.1729 48.0623 28.3549 48.1657L39.6021 54.5598C39.6054 54.5617 39.6074 54.5652 39.6074 54.569C39.6074 54.5771 39.6162 54.5821 39.6232 54.5781L50.8671 48.1859C51.0491 48.0824 51.1615 47.8892 51.1615 47.6799V34.8876C51.1615 34.8864 51.1622 34.8852 51.1633 34.8846C51.1657 34.8832 51.1657 34.8798 51.1633 34.8784L39.9023 28.4764C39.7239 28.375 39.5053 28.375 39.327 28.4764L28.0828 34.8688Z" fill="#86B2FF"/>
<rect width="13.1124" height="13.1124" rx="0.29099" transform="matrix(0.866025 -0.500001 0.866025 0.500001 28.2324 34.8112)" fill="#0962FF"/>
<rect width="13.1124" height="13.1125" rx="0.567785" transform="matrix(0.866025 0.500001 -2.20304e-08 1 28.2324 35.0684)" fill="#86B2FF"/>
<rect width="13.1124" height="13.1125" rx="0.29099" transform="matrix(0.866025 -0.500001 2.20304e-08 1 39.8711 41.6387)" fill="#141414"/>
<path fill-rule="evenodd" clip-rule="evenodd" d="M27.7312 69.5978C27.3621 69.3846 26.9073 69.3846 26.5381 69.5978L16.9937 75.1083C16.1983 75.5675 16.1983 76.7155 16.9937 77.1747L27.1346 83.0296C27.1347 83.0296 27.1347 83.0296 27.1347 83.0296C27.1348 83.0296 27.1349 83.0296 27.1349 83.0297V94.7394C27.1349 95.6578 28.1291 96.2318 28.9245 95.7726L38.4689 90.2621C38.8381 90.049 39.0655 89.6551 39.0655 89.2289V76.1416C39.0655 76.1415 39.0654 76.1414 39.0653 76.1415C39.0653 76.1415 39.0652 76.1415 39.0652 76.1415L27.7312 69.5978ZM15.2031 78.2078C15.2031 77.2894 16.1973 76.7154 16.9927 77.1746L26.5372 82.6851C26.9063 82.8982 27.1337 83.2921 27.1337 83.7183V94.7394C27.1337 95.6578 26.1395 96.2318 25.3441 95.7726L15.7997 90.2621C15.4305 90.049 15.2031 89.6551 15.2031 89.2289V78.2078Z" fill="white"/>
<path fill-rule="evenodd" clip-rule="evenodd" d="M15.5203 76.5217C15.5176 76.5232 15.5142 76.5232 15.5114 76.5217C15.5055 76.5183 15.498 76.5226 15.498 76.5295V76.5343V89.3126C15.498 89.5219 15.6104 89.7151 15.7924 89.8185L27.0396 96.2126C27.0429 96.2145 27.0449 96.218 27.0449 96.2218C27.0449 96.2299 27.0537 96.235 27.0607 96.231L38.3046 89.8387C38.4866 89.7353 38.599 89.5421 38.599 89.3328V76.5405C38.599 76.5392 38.5997 76.538 38.6008 76.5374C38.6032 76.536 38.6032 76.5326 38.6008 76.5312L27.3398 70.1293C27.1614 70.0279 26.9428 70.0279 26.7645 70.1293L15.5203 76.5217Z" fill="#86B2FF"/>
<rect width="13.1124" height="13.1124" rx="0.29099" transform="matrix(0.866025 -0.500001 0.866025 0.500001 15.6699 76.464)" fill="#0962FF"/>
<rect width="13.1124" height="13.1125" rx="0.567785" transform="matrix(0.866025 0.500001 -2.20304e-08 1 15.6699 76.7212)" fill="#86B2FF"/>
<rect width="13.1124" height="13.1125" rx="0.29099" transform="matrix(0.866025 -0.500001 2.20304e-08 1 27.3086 83.2915)" fill="#141414"/>
<path fill-rule="evenodd" clip-rule="evenodd" d="M74.6848 84.8043C74.3157 84.5912 73.8609 84.5912 73.4918 84.8043L62.1584 91.3476C62.1581 91.3478 62.1581 91.3483 62.1584 91.3485C62.1586 91.3486 62.1587 91.3487 62.1587 91.3489V104.436C62.1587 104.862 62.3861 105.256 62.7552 105.469L72.2997 110.979C73.0951 111.438 74.0893 110.864 74.0893 109.946V98.2363C74.0893 98.2362 74.0892 98.2362 74.0892 98.2361C74.089 98.236 74.089 98.2358 74.0891 98.2357L84.2293 92.3813C85.0247 91.9221 85.0247 90.774 84.2293 90.3148L74.6848 84.8043ZM74.0903 98.925C74.0903 98.4988 74.3177 98.1049 74.6869 97.8918L84.2313 92.3813C85.0267 91.9221 86.0209 92.4961 86.0209 93.4145V104.436C86.0209 104.862 85.7935 105.256 85.4244 105.469L75.8799 110.979C75.0845 111.439 74.0903 110.864 74.0903 109.946V98.925Z" fill="white"/>
<path fill-rule="evenodd" clip-rule="evenodd" d="M62.4676 91.7283C62.4648 91.7299 62.4615 91.7299 62.4587 91.7283C62.4527 91.7249 62.4453 91.7293 62.4453 91.7361V91.741V104.519C62.4453 104.729 62.5577 104.922 62.7397 105.025L73.9869 111.419C73.9901 111.421 73.9922 111.425 73.9922 111.428C73.9922 111.437 74.0009 111.442 74.008 111.438L85.2519 105.045C85.4339 104.942 85.5463 104.749 85.5463 104.539V91.7471C85.5463 91.7459 85.5469 91.7447 85.5481 91.7441C85.5504 91.7427 85.5504 91.7393 85.5481 91.7379L74.287 85.3359C74.1087 85.2345 73.8901 85.2345 73.7118 85.3359L62.4676 91.7283Z" fill="#86B2FF"/>
<rect width="13.1124" height="13.1124" rx="0.29099" transform="matrix(0.866025 -0.500001 0.866025 0.500001 62.6172 91.6705)" fill="#0962FF"/>
<rect width="13.1124" height="13.1125" rx="0.567785" transform="matrix(0.866025 0.500001 -2.20304e-08 1 62.6172 91.9277)" fill="#86B2FF"/>
<rect width="13.1124" height="13.1125" rx="0.29099" transform="matrix(0.866025 -0.500001 2.20304e-08 1 74.2559 98.498)" fill="#141414"/>
<path fill-rule="evenodd" clip-rule="evenodd" d="M74.6848 71.581C74.3157 71.3679 73.8609 71.3679 73.4918 71.581L62.1584 78.1244C62.1581 78.1245 62.1581 78.125 62.1584 78.1252C62.1586 78.1253 62.1587 78.1255 62.1587 78.1256V91.2121C62.1587 91.6384 62.3861 92.0322 62.7552 92.2453L72.2997 97.7559C73.0951 98.2151 74.0893 97.6411 74.0893 96.7226V85.0129C74.0893 85.0128 74.0892 85.0128 74.0892 85.0127C74.0891 85.0127 74.0891 85.0125 74.0892 85.0124L84.2293 79.158C85.0247 78.6988 85.0247 77.5508 84.2293 77.0916L74.6848 71.581ZM74.0903 85.7017C74.0903 85.2754 74.3177 84.8816 74.6869 84.6684L84.2313 79.1579C85.0267 78.6987 86.0209 79.2727 86.0209 80.1911V91.2122C86.0209 91.6384 85.7935 92.0323 85.4244 92.2454L75.8799 97.7559C75.0845 98.2151 74.0903 97.6411 74.0903 96.7227V85.7017Z" fill="white"/>
<path fill-rule="evenodd" clip-rule="evenodd" d="M62.4676 78.7459C62.4648 78.7475 62.4614 78.7475 62.4586 78.7459C62.4527 78.7424 62.4453 78.7467 62.4453 78.7535V78.759V92.0316C62.4453 92.2376 62.5542 92.4283 62.7317 92.5329L73.9868 99.1697C73.9901 99.1716 73.9922 99.1752 73.9922 99.1791C73.9922 99.1875 74.0014 99.1928 74.0086 99.1885L85.2599 92.554C85.4374 92.4494 85.5463 92.2587 85.5463 92.0527L85.5463 78.7654C85.5463 78.7641 85.547 78.7629 85.5481 78.7622C85.5505 78.7608 85.5505 78.7573 85.5481 78.7559L74.295 72.1203C74.1126 72.0128 73.8862 72.0128 73.7038 72.1203L62.4676 78.7459Z" fill="#86B2FF"/>
<rect width="13.1124" height="13.1124" rx="0.29099" transform="matrix(0.866025 -0.500001 0.866025 0.500001 62.6172 78.4473)" fill="#0962FF"/>
<rect width="13.1124" height="14.904" rx="0.567785" transform="matrix(0.866025 0.500001 -2.20304e-08 1 62.6172 78.7046)" fill="#86B2FF"/>
<rect width="13.1124" height="14.6303" rx="0.29099" transform="matrix(0.866025 -0.500001 2.20304e-08 1 74.2559 85.2749)" fill="#141414"/>
<path fill-rule="evenodd" clip-rule="evenodd" d="M43.6067 88.11C43.2376 87.8969 42.7828 87.8969 42.4136 88.11L31.0803 94.6533C31.08 94.6535 31.08 94.6539 31.0803 94.6541C31.0805 94.6542 31.0806 94.6544 31.0806 94.6546V107.741C31.0806 108.167 31.308 108.561 31.6771 108.774L41.2216 114.285C42.0169 114.744 43.0111 114.17 43.0111 113.252V101.542C43.0111 101.542 43.0111 101.542 43.011 101.542C43.0109 101.542 43.0109 101.541 43.011 101.541L53.1512 95.6869C53.9465 95.2277 53.9465 94.0797 53.1512 93.6205L43.6067 88.11ZM43.0122 102.231C43.0122 101.804 43.2396 101.411 43.6087 101.197L53.1532 95.687C53.9486 95.2278 54.9428 95.8018 54.9428 96.7202V107.741C54.9428 108.167 54.7154 108.561 54.3463 108.774L44.8018 114.285C44.0064 114.744 43.0122 114.17 43.0122 113.252V102.231Z" fill="white"/>
<path fill-rule="evenodd" clip-rule="evenodd" d="M31.3894 95.034C31.3867 95.0356 31.3833 95.0356 31.3806 95.034C31.3746 95.0306 31.3672 95.0349 31.3672 95.0418V95.0466V107.825C31.3672 108.034 31.4796 108.227 31.6615 108.331L42.9088 114.725C42.912 114.727 42.9141 114.73 42.9141 114.734C42.9141 114.742 42.9228 114.747 42.9297 114.743L54.1738 108.351C54.3557 108.247 54.4681 108.054 54.4681 107.845V95.0528C54.4681 95.0515 54.4688 95.0504 54.4699 95.0497C54.4723 95.0484 54.4723 95.0449 54.4699 95.0436L43.2089 88.6416C43.0305 88.5402 42.812 88.5402 42.6336 88.6416L31.3894 95.034Z" fill="#86B2FF"/>
<rect width="13.1124" height="13.1124" rx="0.29099" transform="matrix(0.866025 -0.500001 0.866025 0.500001 31.543 94.9763)" fill="#0962FF"/>
<rect width="13.1124" height="13.1125" rx="0.567785" transform="matrix(0.866025 0.500001 -2.20304e-08 1 31.543 95.2334)" fill="#86B2FF"/>
<rect width="13.1124" height="13.1125" rx="0.29099" transform="matrix(0.866025 -0.500001 2.20304e-08 1 43.1816 101.804)" fill="#141414"/>
<path fill-rule="evenodd" clip-rule="evenodd" d="M43.6067 78.8537C43.2376 78.6406 42.7828 78.6406 42.4136 78.8537L31.0803 85.3971C31.08 85.3973 31.08 85.3977 31.0803 85.3979C31.0805 85.398 31.0806 85.3982 31.0806 85.3983V98.485C31.0806 98.9112 31.308 99.3051 31.6771 99.5182L41.2216 105.029C42.0169 105.488 43.0111 104.914 43.0111 103.995V92.2858C43.0111 92.2857 43.0111 92.2856 43.011 92.2856C43.0109 92.2855 43.0109 92.2852 43.011 92.2851L53.1512 86.4307C53.9465 85.9715 53.9465 84.8235 53.1512 84.3643L43.6067 78.8537ZM43.0122 92.9745C43.0122 92.5482 43.2396 92.1544 43.6087 91.9413L53.1532 86.4308C53.9486 85.9715 54.9428 86.5456 54.9428 87.464V98.485C54.9428 98.9112 54.7154 99.3051 54.3463 99.5182L44.8018 105.029C44.0064 105.488 43.0122 104.914 43.0122 103.996V92.9745Z" fill="white"/>
<path fill-rule="evenodd" clip-rule="evenodd" d="M31.3896 86.0185C31.3868 86.0202 31.3834 86.0202 31.3806 86.0185C31.3747 86.015 31.3672 86.0193 31.3672 86.0262V86.0318V99.3042C31.3672 99.5102 31.4761 99.7009 31.6536 99.8055L42.9087 106.442C42.912 106.444 42.9141 106.448 42.9141 106.452C42.9141 106.46 42.9232 106.465 42.9305 106.461L54.1818 99.8266C54.3592 99.722 54.4681 99.5313 54.4681 99.3253L54.4681 86.0381C54.4681 86.0368 54.4688 86.0356 54.47 86.0349C54.4724 86.0335 54.4724 86.03 54.47 86.0286L43.2169 79.393C43.0345 79.2855 42.8081 79.2855 42.6257 79.393L31.3896 86.0185Z" fill="#86B2FF"/>
<rect width="13.1124" height="13.1124" rx="0.29099" transform="matrix(0.866025 -0.500001 0.866025 0.500001 31.543 85.72)" fill="#0962FF"/>
<rect width="13.1124" height="14.904" rx="0.567785" transform="matrix(0.866025 0.500001 -2.20304e-08 1 31.543 85.9772)" fill="#86B2FF"/>
<rect width="13.1124" height="14.6303" rx="0.29099" transform="matrix(0.866025 -0.500001 2.20304e-08 1 43.1816 92.5476)" fill="#141414"/>
<path fill-rule="evenodd" clip-rule="evenodd" d="M64.1028 103.978C63.7337 103.765 63.2789 103.765 62.9097 103.978L51.5764 110.521C51.5761 110.522 51.5761 110.522 51.5764 110.522C51.5766 110.522 51.5767 110.522 51.5767 110.523V123.609C51.5767 124.035 51.8041 124.429 52.1732 124.642L61.7177 130.153C62.513 130.612 63.5072 130.038 63.5072 129.12V117.41C63.5072 117.41 63.5072 117.41 63.5071 117.41C63.507 117.41 63.507 117.409 63.5071 117.409L73.6472 111.555C74.4426 111.096 74.4426 109.948 73.6472 109.489L64.1028 103.978ZM63.5083 118.099C63.5083 117.673 63.7357 117.279 64.1048 117.066L73.6493 111.555C74.4447 111.096 75.4389 111.67 75.4389 112.588V123.609C75.4389 124.036 75.2115 124.429 74.8423 124.642L65.2979 130.153C64.5025 130.612 63.5083 130.038 63.5083 129.12V118.099Z" fill="white"/>
<path fill-rule="evenodd" clip-rule="evenodd" d="M51.8855 110.902C51.8828 110.903 51.8794 110.903 51.8767 110.902C51.8707 110.899 51.8633 110.903 51.8633 110.91V110.915V123.693C51.8633 123.902 51.9757 124.095 52.1576 124.199L63.4048 130.593C63.4081 130.595 63.4102 130.598 63.4102 130.602C63.4102 130.61 63.4189 130.615 63.4259 130.611L74.6699 124.219C74.8518 124.116 74.9642 123.922 74.9642 123.713V110.921C74.9642 110.919 74.9649 110.918 74.966 110.918C74.9684 110.916 74.9684 110.913 74.966 110.911L63.705 104.51C63.5266 104.408 63.3081 104.408 63.1297 104.51L51.8855 110.902Z" fill="#86B2FF"/>
<rect width="13.1124" height="13.1124" rx="0.29099" transform="matrix(0.866025 -0.500001 0.866025 0.500001 52.0391 110.844)" fill="#0962FF"/>
<rect width="13.1124" height="13.1125" rx="0.567785" transform="matrix(0.866025 0.500001 -2.20304e-08 1 52.0391 111.101)" fill="#86B2FF"/>
<rect width="13.1124" height="13.1125" rx="0.29099" transform="matrix(0.866025 -0.500001 2.20304e-08 1 63.6777 117.672)" fill="#141414"/>
<path fill-rule="evenodd" clip-rule="evenodd" d="M64.1028 90.755C63.7337 90.5419 63.2789 90.5419 62.9097 90.755L51.5764 97.2983C51.5761 97.2985 51.5761 97.299 51.5764 97.2992C51.5766 97.2992 51.5767 97.2994 51.5767 97.2996V110.386C51.5767 110.812 51.8041 111.206 52.1732 111.419L61.7177 116.93C62.513 117.389 63.5072 116.815 63.5072 115.897V104.187C63.5072 104.187 63.5072 104.187 63.5071 104.187C63.507 104.187 63.507 104.186 63.5071 104.186L73.6472 98.3319C74.4426 97.8727 74.4426 96.7247 73.6472 96.2655L64.1028 90.755ZM63.5083 104.876C63.5083 104.449 63.7357 104.056 64.1048 103.842L73.6493 98.3319C74.4447 97.8727 75.4389 98.4467 75.4389 99.3651V110.386C75.4389 110.812 75.2115 111.206 74.8423 111.419L65.2979 116.93C64.5025 117.389 63.5083 116.815 63.5083 115.897V104.876Z" fill="white"/>
<path fill-rule="evenodd" clip-rule="evenodd" d="M51.8856 97.9196C51.8828 97.9212 51.8794 97.9212 51.8766 97.9196C51.8707 97.9161 51.8633 97.9204 51.8633 97.9272V97.9328V111.205C51.8633 111.411 51.9722 111.602 52.1497 111.707L63.4048 118.343C63.4081 118.345 63.4102 118.349 63.4102 118.353C63.4102 118.361 63.4193 118.366 63.4266 118.362L74.6779 111.728C74.8553 111.623 74.9642 111.432 74.9642 111.226L74.9642 97.9391C74.9642 97.9378 74.9649 97.9366 74.966 97.9359C74.9685 97.9345 74.9685 97.931 74.966 97.9296L63.713 91.294C63.5306 91.1865 63.3041 91.1865 63.1218 91.294L51.8856 97.9196Z" fill="#86B2FF"/>
<rect width="13.1124" height="13.1124" rx="0.29099" transform="matrix(0.866025 -0.500001 0.866025 0.500001 52.0391 97.6212)" fill="#0962FF"/>
<rect width="13.1124" height="14.904" rx="0.567785" transform="matrix(0.866025 0.500001 -2.20304e-08 1 52.0391 97.8784)" fill="#86B2FF"/>
<rect width="13.1124" height="14.6303" rx="0.29099" transform="matrix(0.866025 -0.500001 2.20304e-08 1 63.6777 104.449)" fill="#141414"/>
<path fill-rule="evenodd" clip-rule="evenodd" d="M42.9465 107.284C42.5774 107.071 42.1226 107.071 41.7535 107.284L30.4202 113.827C30.4198 113.827 30.4198 113.828 30.4202 113.828C30.4203 113.828 30.4204 113.828 30.4204 113.828V126.915C30.4204 127.341 30.6478 127.735 31.0169 127.948L40.5614 133.459C41.3568 133.918 42.351 133.344 42.351 132.425V120.716C42.351 120.716 42.3509 120.716 42.3509 120.715C42.3507 120.715 42.3507 120.715 42.3509 120.715L52.491 114.861C53.2864 114.401 53.2864 113.253 52.491 112.794L42.9465 107.284ZM42.3521 121.404C42.3521 120.978 42.5794 120.584 42.9486 120.371L52.493 114.861C53.2884 114.401 54.2826 114.975 54.2826 115.894V126.915C54.2826 127.341 54.0552 127.735 53.6861 127.948L44.1416 133.459C43.3463 133.918 42.3521 133.344 42.3521 132.425V121.404Z" fill="white"/>
<path fill-rule="evenodd" clip-rule="evenodd" d="M30.7293 114.208C30.7265 114.209 30.7232 114.209 30.7204 114.208C30.7144 114.204 30.707 114.209 30.707 114.216V114.22V126.999C30.707 127.208 30.8194 127.401 31.0014 127.505L42.2486 133.899C42.2519 133.901 42.2539 133.904 42.2539 133.908C42.2539 133.916 42.2626 133.921 42.2697 133.917L53.5136 127.525C53.6956 127.421 53.808 127.228 53.808 127.019V114.227C53.808 114.225 53.8087 114.224 53.8098 114.224C53.8122 114.222 53.8122 114.219 53.8098 114.217L42.5487 107.815C42.3704 107.714 42.1518 107.714 41.9735 107.815L30.7293 114.208Z" fill="#86B2FF"/>
<rect width="13.1124" height="13.1124" rx="0.29099" transform="matrix(0.866025 -0.500001 0.866025 0.500001 30.8828 114.15)" fill="#0962FF"/>
<rect width="13.1124" height="13.1125" rx="0.567785" transform="matrix(0.866025 0.500001 -2.20304e-08 1 30.8828 114.407)" fill="#86B2FF"/>
<rect width="13.1124" height="13.1125" rx="0.29099" transform="matrix(0.866025 -0.500001 2.20304e-08 1 42.5215 120.978)" fill="#141414"/>
<path fill-rule="evenodd" clip-rule="evenodd" d="M64.761 47.7796C64.3918 47.5665 63.937 47.5665 63.5679 47.7796L52.2346 54.3229C52.2343 54.3231 52.2343 54.3236 52.2346 54.3238C52.2348 54.3239 52.2349 54.324 52.2349 54.3242V67.4108C52.2349 67.8371 52.4623 68.2309 52.8314 68.4441L62.3759 73.9546C63.1712 74.4138 64.1655 73.8398 64.1655 72.9213V61.2117C64.1655 61.2116 64.1654 61.2115 64.1653 61.2114C64.1652 61.2113 64.1652 61.2111 64.1653 61.211L74.3054 55.3565C75.1008 54.8973 75.1008 53.7493 74.3054 53.2901L64.761 47.7796ZM64.1665 61.9004C64.1665 61.4741 64.3939 61.0803 64.7631 60.8671L74.3075 55.3566C75.1029 54.8974 76.0971 55.4714 76.0971 56.3898V67.4109C76.0971 67.8371 75.8697 68.231 75.5006 68.4441L65.9561 73.9546C65.1607 74.4138 64.1665 73.8398 64.1665 72.9214V61.9004Z" fill="white"/>
<path fill-rule="evenodd" clip-rule="evenodd" d="M52.5497 54.7037C52.547 54.7053 52.5436 54.7053 52.5408 54.7037C52.5348 54.7003 52.5273 54.7046 52.5273 54.7116V54.7164V67.4946C52.5273 67.7039 52.6397 67.8971 52.8217 68.0005L64.0689 74.3946C64.0722 74.3965 64.0742 74.4 64.0742 74.4038C64.0742 74.4119 64.0829 74.417 64.09 74.413L75.3339 68.0207C75.5159 67.9173 75.6283 67.7241 75.6283 67.5148V54.7226C75.6283 54.7213 75.629 54.7202 75.6301 54.7195C75.6325 54.7182 75.6325 54.7147 75.6301 54.7134L64.3691 48.3114C64.1907 48.21 63.9721 48.21 63.7938 48.3114L52.5497 54.7037Z" fill="#86B2FF"/>
<rect width="13.1124" height="13.1124" rx="0.29099" transform="matrix(0.866025 -0.500001 0.866025 0.500001 52.6992 54.6459)" fill="#0962FF"/>
<rect width="13.1124" height="13.1125" rx="0.567785" transform="matrix(0.866025 0.500001 -2.20304e-08 1 52.6992 54.9032)" fill="#86B2FF"/>
<rect width="13.1124" height="13.1125" rx="0.29099" transform="matrix(0.866025 -0.500001 2.20304e-08 1 64.3379 61.4735)" fill="#141414"/>
<path fill-rule="evenodd" clip-rule="evenodd" d="M54.1868 72.2425C53.8176 72.0294 53.3628 72.0294 52.9937 72.2425L41.6604 78.7858C41.6601 78.786 41.6601 78.7865 41.6604 78.7866C41.6606 78.7867 41.6606 78.7869 41.6606 78.7871V91.8737C41.6606 92.2999 41.888 92.6938 42.2572 92.9069L51.8016 98.4174C52.597 98.8766 53.5912 98.3026 53.5912 97.3842V85.6745C53.5912 85.6744 53.5912 85.6743 53.5911 85.6743C53.5909 85.6742 53.5909 85.674 53.5911 85.6739L63.7312 79.8194C64.5266 79.3602 64.5266 78.2122 63.7312 77.753L54.1868 72.2425ZM53.5923 86.3632C53.5923 85.937 53.8197 85.5431 54.1888 85.33L63.7333 79.8195C64.5286 79.3603 65.5229 79.9343 65.5229 80.8527V91.8737C65.5229 92.3 65.2955 92.6938 64.9263 92.907L55.3819 98.4175C54.5865 98.8767 53.5923 98.3027 53.5923 97.3842V86.3632Z" fill="white"/>
<path fill-rule="evenodd" clip-rule="evenodd" d="M41.9674 79.1665C41.9647 79.168 41.9614 79.168 41.9586 79.1665C41.9527 79.1631 41.9453 79.1674 41.9453 79.1742V79.179V91.9574C41.9453 92.1667 42.0577 92.3599 42.2397 92.4634L53.4869 98.8575C53.4901 98.8593 53.4922 98.8628 53.4922 98.8666C53.4922 98.8747 53.5009 98.8798 53.508 98.8758L64.7519 92.4835C64.9339 92.3801 65.0463 92.1869 65.0463 91.9776V79.1852C65.0463 79.1839 65.0469 79.1827 65.0481 79.1821C65.0504 79.1808 65.0504 79.1773 65.0481 79.176L53.787 72.774C53.6087 72.6726 53.3901 72.6726 53.2118 72.774L41.9674 79.1665Z" fill="#86B2FF"/>
<rect width="13.1124" height="13.1124" rx="0.29099" transform="matrix(0.866025 -0.500001 0.866025 0.500001 42.1191 79.1087)" fill="#0962FF"/>
<rect width="13.1124" height="13.1125" rx="0.567785" transform="matrix(0.866025 0.500001 -2.20304e-08 1 42.1191 79.366)" fill="#86B2FF"/>
<rect width="13.1124" height="13.1125" rx="0.29099" transform="matrix(0.866025 -0.500001 2.20304e-08 1 53.7578 85.9363)" fill="#141414"/>
<rect width="18.994" height="13.2954" transform="matrix(0.866025 0.500001 -2.20304e-08 1 39.0098 90.1263)" fill="#86B2FF"/>
<line x1="51.2436" y1="35.0579" x2="51.2436" y2="2.00007" stroke="#86B2FF" stroke-width="0.661156"/>
<line y1="-0.330578" x2="33.0578" y2="-0.330578" transform="matrix(0.866025 0.500001 -2.20305e-08 1 53.5547 114.066)" stroke="white" stroke-width="0.661157"/>
<line y1="-0.330578" x2="19.8347" y2="-0.330578" transform="matrix(0.866025 0.500001 -2.20305e-08 1 42.3184 121.008)" stroke="white" stroke-width="0.661157"/>
<line x1="85.6225" y1="78.6942" x2="85.6225" y2="45.6363" stroke="#86B2FF" stroke-width="0.661156"/>
<line y1="-0.330578" x2="19.8347" y2="-0.330578" transform="matrix(0.866025 -0.500001 2.20305e-08 1 101.82 76.7108)" stroke="#86B2FF" stroke-width="0.661157"/>
<line y1="-0.330578" x2="13.2231" y2="-0.330578" transform="matrix(0.866025 -0.500001 2.20305e-08 1 89.918 69.7687)" stroke="#86B2FF" stroke-width="0.661157"/>
<line y1="-0.330578" x2="19.8347" y2="-0.330578" transform="matrix(0.866025 -0.500001 2.20305e-08 1 9.91797 93.9008)" stroke="white" stroke-width="0.661157"/>
<line y1="-0.330578" x2="13.2231" y2="-0.330578" transform="matrix(0.866025 -0.500001 2.20305e-08 1 3.96875 83.3224)" stroke="white" stroke-width="0.661157"/>
<line x1="28.103" y1="35.0579" x2="28.103" y2="15.2232" stroke="#86B2FF" stroke-width="0.661156"/>
<rect width="7.27272" height="3.30578" transform="translate(85.9531 108.446)" fill="white"/>
<rect width="7.27272" height="3.30578" transform="translate(15.8711 62.8265)" fill="white"/>
<rect width="3.30578" height="3.30578" transform="translate(23.1406 59.5207)" fill="white"/>
<circle cx="51" cy="2" r="2" fill="white"/>
<circle cx="28" cy="14" r="2" fill="white"/>
<circle cx="101" cy="63" r="2" fill="white"/>
<circle cx="118" cy="67" r="2" fill="white"/>
</svg>
