<svg width="303" height="313" viewBox="0 0 303 313" fill="none" xmlns="http://www.w3.org/2000/svg">
<circle cx="181.662" cy="149" r="120.421" fill="#060606" stroke="#0962FF" stroke-width="1.15789"/>
<rect x="0.890418" y="1.54225" width="153.619" height="232.962" rx="12.5899" transform="matrix(0.866025 0.5 -2.20305e-08 1 140.281 -0.445209)" fill="#0962FF" stroke="#141414" stroke-width="2.05633"/>
<rect x="0.294839" y="0.510676" width="29.9824" height="47.5387" rx="5.10676" transform="matrix(0.866025 0.5 -2.20305e-08 1 232.805 76.0008)" fill="#141414" stroke="#0962FF" stroke-width="0.680902"/>
<rect x="0.294839" y="0.510676" width="7.48992" height="54.3707" rx="2.38316" transform="matrix(0.866025 0.5 -2.20305e-08 1 252.549 226.072)" fill="#141414" stroke="#0962FF" stroke-width="0.680902"/>
<rect x="0.412775" y="0.714947" width="29.71" height="7.21756" transform="matrix(0.866025 0.5 -2.20305e-08 1 232.821 91.2851)" fill="#141414" stroke="#0962FF" stroke-width="0.953262"/>
<rect x="0.412775" y="0.714947" width="29.71" height="7.21756" transform="matrix(0.866025 0.5 -2.20305e-08 1 232.821 98.7751)" fill="#141414" stroke="#0962FF" stroke-width="0.953262"/>
<rect x="0.412775" y="0.714947" width="14.5515" height="23.4288" rx="2.24698" transform="matrix(0.866025 0.5 -2.20305e-08 1 239.383 91.6503)" fill="#141414" stroke="#0962FF" stroke-width="0.953262"/>
<rect width="36.1669" height="235.019" transform="matrix(0.866025 0.5 -2.20305e-08 1 162.633 12.973)" fill="#141414"/>
<path d="M141.566 203.823C141.547 196.293 136.564 188.77 126.601 183.019C106.675 171.513 74.3924 171.501 54.4846 182.994C44.5276 188.745 39.5568 196.281 39.5752 203.823V212.595C39.5752 220.124 44.5768 227.648 54.5307 233.399C74.457 244.908 106.758 244.917 126.65 233.424C136.61 227.673 141.578 220.137 141.566 212.595V203.823Z" fill="white"/>
<path d="M90.6299 242.859C76.8511 242.859 63.9018 239.753 54.1169 234.112C44.2275 228.401 38.7713 220.76 38.7559 212.607V203.833C38.7375 195.661 44.1784 188.008 54.08 182.29C63.8189 176.665 76.7589 173.568 90.507 173.568C104.255 173.568 117.235 176.674 127.017 182.315C136.912 188.026 142.378 195.667 142.393 203.82V212.594C142.393 220.773 136.965 228.422 127.066 234.137C117.321 239.762 104.381 242.859 90.6299 242.859ZM90.5039 175.203C77.0385 175.203 64.3903 178.223 54.8972 183.704C45.5301 189.117 40.3811 196.26 40.3965 203.82V212.57C40.4149 220.146 45.5792 227.283 54.9402 232.687C64.464 238.186 77.1368 241.215 90.6299 241.215C104.123 241.215 116.743 238.195 126.24 232.714C135.607 227.307 140.759 220.161 140.743 212.594V203.823C140.743 196.272 135.561 189.135 126.194 183.731C116.67 178.232 103.994 175.203 90.5039 175.203Z" fill="#141414"/>
<path d="M141.567 212.595V203.823C141.548 196.294 136.565 188.77 126.602 183.019C122.543 180.72 118.228 178.909 113.745 177.621V238.828C118.245 237.543 122.576 235.729 126.648 233.424C136.611 227.673 141.579 220.149 141.567 212.595Z" fill="#0962FF"/>
<path d="M113.746 239.651C113.569 239.65 113.397 239.593 113.255 239.488C113.152 239.411 113.07 239.311 113.013 239.197C112.956 239.082 112.926 238.956 112.926 238.828V177.621C112.926 177.493 112.955 177.366 113.013 177.252C113.07 177.137 113.154 177.038 113.256 176.962C113.359 176.885 113.478 176.834 113.604 176.812C113.731 176.79 113.86 176.797 113.983 176.834C118.526 178.141 122.9 179.977 127.015 182.306C136.91 188.017 142.376 195.658 142.391 203.811V212.585C142.391 220.763 136.963 228.413 127.064 234.128C122.934 236.465 118.542 238.304 113.98 239.608C113.904 239.634 113.826 239.648 113.746 239.651ZM114.569 178.73V237.716C118.634 236.485 122.549 234.806 126.244 232.711C135.611 227.304 140.763 220.158 140.748 212.591V203.82C140.748 196.269 135.565 189.132 126.198 183.728C122.516 181.642 118.617 179.965 114.569 178.73Z" fill="#141414"/>
<path d="M126.652 224.653C146.557 213.163 146.535 194.521 126.603 183.018C106.67 171.516 74.394 171.501 54.4862 182.994C34.5784 194.487 34.603 213.126 54.5323 224.628C74.4616 236.13 106.741 236.146 126.652 224.653Z" fill="#86B2FF"/>
<path d="M90.6298 234.087C76.8511 234.087 63.9017 230.981 54.1168 225.341C44.209 219.62 38.7559 211.964 38.7559 203.789C38.7559 195.614 44.1998 187.986 54.0831 182.284C63.8219 176.659 76.7619 173.562 90.51 173.562C104.258 173.562 117.238 176.668 127.02 182.309C136.934 188.029 142.381 195.685 142.381 203.863C142.381 212.041 136.94 219.663 127.057 225.368C117.321 230.991 104.381 234.087 90.6298 234.087ZM90.5038 175.203C77.0384 175.203 64.3902 178.223 54.8972 183.703C45.5454 189.104 40.3934 196.238 40.3934 203.789C40.3934 211.341 45.5607 218.502 54.9401 223.918C64.4639 229.414 77.1368 232.444 90.6298 232.444C104.123 232.444 116.743 229.424 126.24 223.943C135.591 218.542 140.743 211.411 140.743 203.86C140.743 196.309 135.576 189.144 126.194 183.731C116.67 178.232 103.994 175.203 90.5038 175.203Z" fill="#141414"/>
<path d="M61.8303 218.945C61.6152 218.828 61.3786 218.726 61.1697 218.604C44.9424 209.233 44.9271 193.995 61.136 184.637C61.3602 184.508 61.6029 184.401 61.8303 184.278V218.945ZM96.0452 177.86C94.1005 177.713 92.1436 177.627 90.1866 177.633V225.624C92.1436 225.624 94.1005 225.553 96.0452 225.409V177.86ZM119.968 184.659C116.474 182.69 112.75 181.159 108.881 180.1V223.184C112.763 222.13 116.5 220.599 120.005 218.625C136.236 209.267 136.202 194.035 119.968 184.659Z" fill="white"/>
<path d="M86.7914 210.081C88.2128 209.262 88.945 208.368 88.988 207.399C89.031 206.435 88.4042 205.12 87.12 203.455C84.5148 200.432 83.1416 197.872 83.0003 195.774C82.8589 193.677 84.3766 191.708 87.5533 189.866C90.478 188.177 93.8215 187.34 97.584 187.356C101.392 187.384 105.147 188.253 108.579 189.903L114.149 186.693L118.291 189.083L112.644 192.34C115.335 194.388 116.564 196.505 116.33 198.693C116.097 200.88 114.351 202.881 111.092 204.696L110.908 204.739L103.486 200.456C105.378 199.36 106.398 198.278 106.558 197.194C106.718 196.109 106.02 195.126 104.475 194.235C103.028 193.342 101.354 192.887 99.6546 192.923C98.0597 192.997 96.507 193.46 95.1323 194.272C93.7929 195.049 93.117 195.882 93.0894 196.791C93.0617 197.701 93.6853 199.046 94.9511 200.843C97.5583 203.791 98.9112 206.339 99.0095 208.487C99.1078 210.635 97.5788 212.62 94.4227 214.441C91.3613 216.194 87.8787 217.076 84.352 216.991C80.5604 216.929 76.828 216.041 73.415 214.389L68.2937 217.347L64.1523 214.954L69.2737 211.998C66.2384 209.903 64.6071 207.683 64.3798 205.338C64.1524 202.993 65.9281 200.769 69.7069 198.665L69.9373 198.622L77.3382 202.893C75.116 204.175 74.0755 205.404 74.2168 206.579C74.3582 207.755 75.2963 208.841 77.031 209.839C78.5602 210.775 80.3105 211.289 82.1032 211.329C83.7498 211.343 85.3696 210.912 86.7914 210.081Z" fill="#141414"/>
<path d="M95.1997 242.742C94.9819 242.741 94.7733 242.654 94.6196 242.5C94.4658 242.346 94.3795 242.137 94.3795 241.919V233.148C94.3726 233.036 94.3887 232.923 94.4269 232.817C94.4651 232.712 94.5246 232.615 94.6016 232.533C94.6785 232.451 94.7714 232.386 94.8746 232.342C94.9777 232.297 95.0889 232.274 95.2013 232.274C95.3137 232.274 95.4248 232.297 95.5279 232.342C95.6311 232.386 95.724 232.451 95.801 232.533C95.8779 232.615 95.9374 232.712 95.9756 232.817C96.0138 232.923 96.03 233.036 96.0231 233.148V241.919C96.0231 242.137 95.9363 242.347 95.7819 242.501C95.6275 242.655 95.4181 242.742 95.1997 242.742ZM104.475 241.768C104.257 241.768 104.048 241.682 103.894 241.528C103.739 241.374 103.652 241.166 103.651 240.948V232.177C103.644 232.065 103.661 231.952 103.699 231.847C103.737 231.741 103.796 231.644 103.873 231.562C103.95 231.481 104.043 231.415 104.146 231.371C104.25 231.326 104.361 231.303 104.473 231.303C104.586 231.303 104.697 231.326 104.8 231.371C104.903 231.415 104.996 231.481 105.073 231.562C105.15 231.644 105.209 231.741 105.247 231.847C105.286 231.952 105.302 232.065 105.295 232.177V240.948C105.292 241.164 105.204 241.369 105.051 241.521C104.897 241.673 104.69 241.758 104.475 241.759V241.768ZM109.111 240.874C108.892 240.874 108.683 240.787 108.528 240.633C108.374 240.479 108.287 240.269 108.287 240.051V231.142C108.287 230.923 108.374 230.714 108.528 230.559C108.683 230.405 108.892 230.318 109.111 230.318C109.329 230.318 109.538 230.405 109.693 230.559C109.847 230.714 109.934 230.923 109.934 231.142V240.051C109.932 240.268 109.844 240.475 109.69 240.627C109.535 240.78 109.327 240.865 109.111 240.865V240.874Z" fill="#141414"/>
<path d="M141.566 190.656C141.547 183.129 136.564 175.602 126.601 169.851C106.675 158.346 74.3924 158.334 54.4846 169.827C44.5276 175.578 39.5568 183.117 39.5752 190.656V199.43C39.5752 206.957 44.5768 214.484 54.5307 220.235C74.457 231.74 106.758 231.75 126.65 220.26C136.61 214.509 141.578 206.969 141.566 199.43V190.656Z" fill="white"/>
<path d="M90.6299 229.704C76.8511 229.704 63.9018 226.595 54.1169 220.954C44.2275 215.246 38.7713 207.602 38.7559 199.449V190.656C38.7375 182.484 44.1784 174.834 54.08 169.114C63.8189 163.492 76.7589 160.392 90.507 160.392C104.255 160.392 117.235 163.498 127.017 169.142C136.912 174.85 142.378 182.49 142.393 190.647V199.421C142.393 207.596 136.965 215.246 127.066 220.963C117.321 226.601 104.381 229.704 90.6299 229.704ZM90.5039 162.048C77.0385 162.048 64.3903 165.065 54.8972 170.549C45.5301 175.959 40.3811 183.105 40.3965 190.665V199.412C40.4149 206.988 45.5792 214.125 54.9402 219.532C64.464 225.031 77.1368 228.057 90.6299 228.057C104.123 228.057 116.743 225.04 126.24 219.556C135.607 214.149 140.759 207.003 140.743 199.44V190.656C140.743 183.105 135.561 175.968 126.194 170.564C116.67 165.074 103.994 162.048 90.5039 162.048Z" fill="#141414"/>
<path d="M141.567 199.439V190.656C141.548 183.129 136.565 175.602 126.602 169.851C122.543 167.554 118.228 165.743 113.745 164.456V225.679C118.244 224.392 122.575 222.579 126.648 220.275C136.611 214.518 141.579 206.978 141.567 199.439Z" fill="#0962FF"/>
<path d="M113.746 226.493C113.529 226.493 113.32 226.407 113.166 226.253C113.012 226.099 112.926 225.89 112.926 225.673V164.466C112.926 164.338 112.956 164.211 113.013 164.097C113.07 163.982 113.154 163.883 113.256 163.806C113.359 163.729 113.478 163.678 113.604 163.655C113.73 163.633 113.86 163.64 113.983 163.676C118.528 164.983 122.903 166.821 127.018 169.151C136.913 174.859 142.379 182.499 142.394 190.656V199.43C142.394 207.605 136.966 215.255 127.067 220.973C122.936 223.307 118.544 225.147 113.983 226.453C113.906 226.478 113.826 226.491 113.746 226.493ZM114.569 165.575V224.561C118.634 223.328 122.549 221.649 126.244 219.553C135.611 214.146 140.763 207 140.748 199.436V190.656C140.748 183.105 135.565 175.968 126.198 170.564C122.516 168.481 118.616 166.807 114.569 165.575Z" fill="#141414"/>
<path d="M126.652 211.498C146.557 200.008 146.535 181.366 126.603 169.86C106.67 158.355 74.394 158.343 54.4862 169.836C34.5784 181.329 34.603 199.968 54.5323 211.473C74.4616 222.978 106.741 222.988 126.652 211.498Z" fill="#86B2FF"/>
<path d="M90.6298 220.932C76.8511 220.932 63.9017 217.823 54.1168 212.186C44.209 206.462 38.7559 198.809 38.7559 190.634C38.7559 182.459 44.1998 174.828 54.0831 169.129C63.8219 163.507 76.7619 160.407 90.51 160.407C104.258 160.407 117.238 163.513 127.02 169.157C136.934 174.877 142.381 182.53 142.381 190.708C142.381 198.886 136.94 206.511 127.057 212.213C117.321 217.832 104.381 220.932 90.6298 220.932ZM90.5038 162.048C77.0384 162.048 64.3902 165.064 54.8972 170.548C45.5454 175.949 40.3934 183.08 40.3934 190.634C40.3934 198.189 45.5607 205.347 54.9401 210.76C64.4639 216.259 77.1368 219.286 90.6298 219.286C104.123 219.286 116.743 216.269 126.24 210.785C135.591 205.387 140.743 198.253 140.743 190.702C140.743 183.15 135.576 175.989 126.194 170.573C116.67 165.074 103.994 162.048 90.5038 162.048Z" fill="#141414"/>
<path d="M61.8303 205.79C61.6152 205.67 61.3786 205.568 61.1697 205.445C44.9424 196.075 44.9271 180.837 61.136 171.479C61.3602 171.353 61.6029 171.246 61.8303 171.12V205.79ZM96.0452 164.705C94.1005 164.555 92.1436 164.469 90.1866 164.478V212.468C92.1436 212.468 94.1005 212.398 96.0452 212.25V164.705ZM119.968 171.501C116.473 169.534 112.749 168.004 108.881 166.945V210.029C112.764 208.975 116.501 207.443 120.005 205.467C136.236 196.109 136.202 180.871 119.968 171.501Z" fill="white"/>
<path d="M86.7932 196.923C88.2146 196.104 88.9468 195.211 88.9898 194.244C89.0328 193.28 88.406 191.965 87.1219 190.3C84.5166 187.276 83.1434 184.716 83.0021 182.619C82.8608 180.522 84.3784 178.551 87.5551 176.708C90.4798 175.021 93.8233 174.185 97.5858 174.201C101.394 174.229 105.149 175.098 108.581 176.748L114.151 173.535L118.292 175.925L112.646 179.184C115.337 181.232 116.566 183.349 116.332 185.535C116.099 187.72 114.353 189.722 111.094 191.541L110.91 191.584L103.49 187.277C105.383 186.18 106.403 185.095 106.563 184.011C106.722 182.926 106.025 181.943 104.48 181.052C103.033 180.159 101.359 179.704 99.6595 179.743C98.0643 179.816 96.5113 180.279 95.1372 181.092C93.7978 181.866 93.1219 182.702 93.0943 183.611C93.0666 184.521 93.6902 185.866 94.9559 187.661C97.5632 190.608 98.9161 193.156 99.0144 195.304C99.1127 197.453 97.5837 199.437 94.4275 201.258C91.3665 203.012 87.8838 203.895 84.3569 203.811C80.5651 203.749 76.8327 202.859 73.4199 201.206L68.2986 204.167L64.1572 201.771L69.2786 198.819C66.2433 196.723 64.6119 194.503 64.3846 192.158C64.1572 189.813 65.933 187.589 69.7118 185.485L69.9422 185.442L77.3431 189.713C75.1209 190.995 74.0804 192.224 74.2217 193.399C74.3569 194.573 75.297 195.654 77.0359 196.659C78.566 197.593 80.3157 198.107 82.1081 198.149C83.7516 198.169 85.3701 197.746 86.7932 196.923Z" fill="#141414"/>
<path d="M99.8403 229.224C99.6225 229.223 99.4139 229.136 99.2601 228.982C99.1064 228.828 99.0201 228.619 99.0201 228.401V219.627C99.0132 219.514 99.0294 219.402 99.0676 219.296C99.1058 219.191 99.1652 219.094 99.2422 219.012C99.3192 218.93 99.4121 218.865 99.5152 218.821C99.6183 218.776 99.7295 218.753 99.8418 218.753C99.9542 218.753 100.065 218.776 100.169 218.821C100.272 218.865 100.365 218.93 100.442 219.012C100.519 219.094 100.578 219.191 100.616 219.296C100.654 219.402 100.671 219.514 100.664 219.627V228.398C100.664 228.506 100.642 228.613 100.601 228.713C100.56 228.813 100.499 228.903 100.423 228.98C100.346 229.056 100.255 229.117 100.155 229.158C100.056 229.2 99.9485 229.221 99.8403 229.221V229.224ZM104.476 228.61C104.258 228.61 104.048 228.523 103.894 228.369C103.74 228.214 103.653 228.005 103.653 227.786V219.015C103.666 218.806 103.758 218.609 103.911 218.466C104.063 218.322 104.265 218.242 104.475 218.242C104.684 218.242 104.886 218.322 105.039 218.466C105.192 218.609 105.284 218.806 105.297 219.015V227.786C105.295 228.003 105.208 228.211 105.054 228.364C104.901 228.517 104.693 228.603 104.476 228.604V228.61ZM109.112 227.713C108.894 227.713 108.685 227.626 108.531 227.473C108.377 227.319 108.29 227.11 108.289 226.892V217.983C108.289 217.765 108.376 217.555 108.53 217.401C108.684 217.246 108.894 217.16 109.112 217.16C109.331 217.16 109.54 217.246 109.694 217.401C109.849 217.555 109.936 217.765 109.936 217.983V226.892C109.933 227.109 109.845 227.316 109.691 227.469C109.537 227.621 109.329 227.706 109.112 227.706V227.713Z" fill="#141414"/>
<path d="M150.337 177.51C150.337 169.98 145.336 162.456 135.379 156.705C115.447 145.2 83.1517 145.188 63.2562 156.681C53.2992 162.432 48.3284 169.968 48.3438 177.51V186.281C48.3622 193.811 53.3484 201.335 63.2993 207.086C83.2286 218.595 115.527 218.604 135.425 207.111C145.382 201.363 150.35 193.824 150.337 186.281V177.51Z" fill="white"/>
<path d="M99.4022 216.545C85.6265 216.545 72.6588 213.439 62.8923 207.799C52.9998 202.088 47.5313 194.447 47.5313 186.294V177.519C47.5129 169.347 52.9537 161.695 62.8554 155.977C72.5942 150.352 85.5343 147.255 99.2823 147.255C113.03 147.255 126.026 150.361 135.798 156.002C145.691 161.713 151.159 169.353 151.159 177.507V186.281C151.159 194.456 145.731 202.109 135.835 207.823C126.096 213.449 113.153 216.545 99.4022 216.545ZM99.2762 148.89C85.8108 148.89 73.1626 151.91 63.6695 157.39C54.3024 162.804 49.1504 169.946 49.1688 177.507V186.257C49.1872 193.833 54.3515 200.969 63.7125 206.376C73.2363 211.873 85.9091 214.902 99.4022 214.902C112.895 214.902 125.516 211.882 135.015 206.401C144.379 200.991 149.531 193.848 149.519 186.281V177.51C149.5 169.959 144.333 162.822 134.969 157.418C125.442 151.919 112.766 148.89 99.2762 148.89Z" fill="#141414"/>
<path d="M150.339 186.281V177.51C150.339 169.98 145.338 162.456 135.381 156.705C131.32 154.41 127.003 152.599 122.521 151.31V212.515C127.02 211.229 131.351 209.415 135.424 207.111C145.384 201.363 150.367 193.823 150.339 186.281Z" fill="#0962FF"/>
<path d="M122.519 213.338C122.301 213.337 122.092 213.25 121.937 213.096C121.783 212.942 121.696 212.733 121.695 212.515V151.311C121.695 151.183 121.724 151.056 121.781 150.942C121.838 150.827 121.921 150.728 122.024 150.651C122.126 150.574 122.245 150.522 122.371 150.5C122.497 150.477 122.626 150.485 122.749 150.521C127.295 151.829 131.672 153.665 135.791 155.993C145.683 161.704 151.152 169.344 151.152 177.498V186.272C151.152 194.447 145.723 202.1 135.827 207.814C131.696 210.15 127.303 211.99 122.74 213.295C122.668 213.319 122.594 213.334 122.519 213.338ZM123.339 152.42V211.406C127.403 210.172 131.318 208.494 135.013 206.401C144.377 200.991 149.529 193.848 149.517 186.281V177.51C149.499 169.959 144.331 162.822 134.967 157.418C131.283 155.33 127.381 153.653 123.33 152.42H123.339Z" fill="#141414"/>
<path d="M135.426 198.337C155.328 186.847 155.306 168.201 135.38 156.699C115.454 145.197 83.1528 145.181 63.2573 156.675C43.3618 168.168 43.3742 186.807 63.3004 198.309C83.2266 209.811 115.521 209.833 135.426 198.337Z" fill="#86B2FF"/>
<path d="M99.4022 207.774C85.6264 207.774 72.6587 204.668 62.8922 199.028C52.9813 193.307 47.5312 185.655 47.5312 177.476C47.5312 169.298 52.9751 161.673 62.8584 155.971C72.5972 150.346 85.5373 147.249 99.2854 147.249C113.033 147.249 126.029 150.355 135.801 155.996C145.712 161.719 151.162 169.372 151.162 177.55C151.162 185.728 145.722 193.35 135.838 199.055C126.096 204.678 113.153 207.774 99.4022 207.774ZM99.2761 148.89C85.8107 148.89 73.1626 151.91 63.6695 157.39C54.3177 162.791 49.1657 169.925 49.1657 177.476C49.1657 185.028 54.3331 192.189 63.7125 197.605C73.2363 203.102 85.9091 206.131 99.4022 206.131C112.895 206.131 125.516 203.111 135.015 197.63C144.367 192.229 149.519 185.098 149.519 177.547C149.519 169.996 144.348 162.831 134.969 157.418C125.442 151.919 112.766 148.89 99.2761 148.89Z" fill="#141414"/>
<path d="M70.6 192.631C70.3849 192.515 70.1483 192.413 69.9394 192.29C53.7121 182.92 53.6937 167.682 69.9057 158.324C70.1269 158.195 70.3726 158.088 70.6 157.965V192.631ZM104.815 151.55C102.87 151.4 100.91 151.314 98.9563 151.323V199.31C100.91 199.31 102.87 199.24 104.815 199.095V151.55ZM128.738 158.346C125.243 156.376 121.518 154.845 117.647 153.79V196.871C121.531 195.819 125.269 194.287 128.775 192.312C144.99 182.954 144.972 167.716 128.738 158.346Z" fill="white"/>
<path d="M95.5602 183.768C96.9826 182.951 97.7107 182.054 97.7598 181.086C97.809 180.118 97.1761 178.807 95.8919 177.141C93.2867 174.118 91.9135 171.558 91.7721 169.461C91.6308 167.364 93.1485 165.394 96.3252 163.553C99.2499 161.868 102.592 161.031 106.353 161.043C110.162 161.073 113.917 161.943 117.351 163.59L122.921 160.38L127.062 162.77L121.416 166.029C124.107 168.077 125.336 170.194 125.102 172.38C124.869 174.565 123.128 176.566 119.88 178.383L119.695 178.426L112.27 174.131C114.162 173.034 115.182 171.953 115.342 170.868C115.502 169.784 114.804 168.8 113.256 167.91C111.811 167.016 110.138 166.561 108.439 166.598C106.844 166.672 105.291 167.135 103.917 167.946C102.577 168.724 101.898 169.556 101.873 170.466C101.849 171.375 102.469 172.724 103.738 174.518C106.346 177.463 107.697 180.011 107.794 182.161C107.89 184.312 106.361 186.297 103.207 188.115C100.146 189.87 96.663 190.752 93.1362 190.665C89.3446 190.604 85.6122 189.716 82.1992 188.063L77.0778 191.022L72.9365 188.628L78.0578 185.673C75.0225 183.578 73.3912 181.358 73.1639 179.012C72.9365 176.667 74.7123 174.444 78.4911 172.343L78.7215 172.297L86.1223 176.567C83.8981 177.847 82.8577 179.076 83.001 180.254C83.1444 181.431 84.0824 182.518 85.8151 183.513C87.3452 184.45 89.0966 184.964 90.8904 185.003C92.5297 185.019 94.143 184.592 95.5602 183.768Z" fill="#141414"/>
<path d="M103.976 216.429C103.868 216.429 103.761 216.408 103.661 216.367C103.561 216.326 103.47 216.265 103.393 216.188C103.317 216.112 103.256 216.021 103.215 215.921C103.173 215.821 103.152 215.714 103.153 215.605V206.834C103.146 206.722 103.162 206.61 103.2 206.504C103.239 206.398 103.298 206.302 103.375 206.22C103.452 206.138 103.545 206.073 103.648 206.028C103.751 205.984 103.862 205.961 103.975 205.961C104.087 205.961 104.198 205.984 104.301 206.028C104.405 206.073 104.497 206.138 104.574 206.22C104.651 206.302 104.711 206.398 104.749 206.504C104.787 206.61 104.803 206.722 104.796 206.834V215.605C104.796 215.823 104.71 216.032 104.556 216.186C104.403 216.341 104.194 216.428 103.976 216.429ZM113.245 215.455C113.027 215.454 112.819 215.367 112.665 215.213C112.511 215.058 112.425 214.849 112.425 214.631V205.86C112.418 205.748 112.434 205.636 112.472 205.53C112.51 205.424 112.57 205.328 112.647 205.246C112.724 205.164 112.817 205.099 112.92 205.054C113.023 205.01 113.134 204.987 113.247 204.987C113.359 204.987 113.47 205.01 113.573 205.054C113.676 205.099 113.769 205.164 113.846 205.246C113.923 205.328 113.983 205.424 114.021 205.53C114.059 205.636 114.075 205.748 114.068 205.86V214.619C114.069 214.728 114.049 214.835 114.008 214.936C113.966 215.037 113.906 215.128 113.829 215.205C113.753 215.282 113.662 215.344 113.562 215.385C113.461 215.427 113.354 215.449 113.245 215.449V215.455ZM117.884 214.558C117.776 214.558 117.669 214.536 117.569 214.495C117.47 214.454 117.379 214.393 117.303 214.316C117.227 214.24 117.166 214.149 117.125 214.049C117.084 213.949 117.063 213.842 117.064 213.734V204.84C117.057 204.728 117.073 204.616 117.111 204.51C117.149 204.404 117.209 204.308 117.286 204.226C117.363 204.144 117.456 204.079 117.559 204.034C117.662 203.99 117.773 203.967 117.886 203.967C117.998 203.967 118.109 203.99 118.212 204.034C118.315 204.079 118.408 204.144 118.485 204.226C118.562 204.308 118.622 204.404 118.66 204.51C118.698 204.616 118.714 204.728 118.707 204.84V213.734C118.706 213.952 118.618 214.159 118.464 214.313C118.31 214.466 118.101 214.552 117.884 214.552V214.558Z" fill="#141414"/>
<path d="M141.566 164.355C141.547 156.825 136.564 149.301 126.601 143.55C106.675 132.041 74.3924 132.029 54.4846 143.522C44.5276 149.273 39.5568 156.812 39.5752 164.355V173.126C39.5752 180.653 44.5768 188.18 54.5307 193.931C74.457 205.436 106.758 205.445 126.65 193.955C136.61 188.204 141.578 180.665 141.566 173.126V164.355Z" fill="white"/>
<path d="M90.6299 203.39C76.8511 203.39 63.9018 200.284 54.1169 194.644C44.2275 188.932 38.7713 181.289 38.7559 173.138V164.367C38.7375 156.192 44.1784 148.542 54.08 142.822C63.8189 137.2 76.7589 134.103 90.507 134.103C104.255 134.103 117.235 137.206 127.017 142.85C136.912 148.558 142.378 156.198 142.393 164.355V173.129C142.393 181.304 136.965 188.957 127.066 194.671C117.321 200.293 104.381 203.39 90.6299 203.39ZM90.5039 135.734C77.0385 135.734 64.3903 138.754 54.8972 144.235C45.5301 149.645 40.3811 156.791 40.3965 164.352V173.098C40.4149 180.674 45.5792 187.811 54.9402 193.218C64.464 198.717 77.1368 201.743 90.6299 201.743C104.123 201.743 116.743 198.727 126.24 193.243C135.607 187.836 140.759 180.693 140.743 173.126V164.355C140.743 156.8 135.561 149.667 126.194 144.26C116.67 138.76 103.994 135.734 90.5039 135.734Z" fill="#141414"/>
<path d="M141.567 173.126V164.355C141.548 156.825 136.565 149.301 126.602 143.55C122.544 141.251 118.229 139.439 113.745 138.152V199.359C118.244 198.073 122.575 196.259 126.648 193.955C136.611 188.198 141.579 180.665 141.567 173.126Z" fill="#0962FF"/>
<path d="M113.746 200.18C113.529 200.18 113.32 200.093 113.166 199.939C113.012 199.785 112.926 199.577 112.926 199.359V138.152C112.926 138.024 112.956 137.899 113.013 137.785C113.07 137.67 113.153 137.571 113.255 137.495C113.358 137.418 113.477 137.366 113.603 137.344C113.729 137.321 113.859 137.327 113.983 137.362C118.528 138.67 122.903 140.507 127.018 142.837C136.913 148.545 142.379 156.186 142.394 164.342V173.117C142.394 181.292 136.966 188.945 127.067 194.659C122.937 196.995 118.545 198.834 113.983 200.14C113.906 200.164 113.826 200.178 113.746 200.18ZM114.569 139.261V198.247C118.634 197.015 122.549 195.335 126.244 193.239C135.611 187.832 140.763 180.69 140.748 173.123V164.352C140.748 156.797 135.565 149.663 126.198 144.256C122.516 142.171 118.617 140.496 114.569 139.261Z" fill="#141414"/>
<path d="M126.652 185.185C146.557 173.695 146.535 155.053 126.603 143.55C106.67 132.048 74.394 132.03 54.4862 143.523C34.5784 155.016 34.603 173.655 54.5323 185.16C74.4616 196.666 106.741 196.675 126.652 185.185Z" fill="#86B2FF"/>
<path d="M90.6298 194.619C76.8511 194.619 63.9017 191.513 54.1168 185.873C44.209 180.152 38.7559 172.496 38.7559 164.321C38.7559 156.146 44.1998 148.518 54.0831 142.816C63.8219 137.194 76.7619 134.097 90.51 134.097C104.258 134.097 117.238 137.2 127.02 142.844C136.934 148.564 142.381 156.22 142.381 164.398C142.381 172.576 136.94 180.198 127.057 185.903C117.321 191.522 104.381 194.619 90.6298 194.619ZM90.5038 135.734C77.0384 135.734 64.3902 138.754 54.8972 144.235C45.5454 149.636 40.3934 156.767 40.3934 164.321C40.3934 171.876 45.5607 179.034 54.9401 184.447C64.4639 189.946 77.1368 192.976 90.6298 192.976C104.123 192.976 116.743 189.956 126.24 184.472C135.591 179.074 140.743 171.943 140.743 164.392C140.743 156.84 135.576 149.676 126.194 144.26C116.67 138.761 103.994 135.734 90.5038 135.734Z" fill="#141414"/>
<path d="M61.8303 179.476C61.6152 179.36 61.3786 179.255 61.1697 179.132C44.9424 169.762 44.9271 154.524 61.136 145.166C61.3602 145.04 61.6029 144.933 61.8303 144.807V179.476ZM96.0452 138.392C94.1005 138.241 92.1436 138.155 90.1866 138.165V186.155C92.1436 186.155 94.1005 186.085 96.0452 185.94V138.392ZM119.968 145.188C116.477 143.222 112.757 141.692 108.893 140.632V183.716C112.775 182.662 116.512 181.13 120.018 179.157C136.236 169.799 136.202 154.558 119.968 145.188Z" fill="white"/>
<path d="M86.7914 170.61C88.2128 169.791 88.945 168.898 88.988 167.931C89.031 166.967 88.4042 165.652 87.12 163.986C84.5148 160.963 83.1416 158.403 83.0003 156.306C82.862 154.199 84.3797 152.235 87.5533 150.395C90.478 148.707 93.8215 147.872 97.584 147.888C101.391 147.907 105.147 148.769 108.582 150.411L114.152 147.197L118.294 149.587L112.644 152.868C115.335 154.916 116.564 157.033 116.33 159.218C116.097 161.404 114.351 163.406 111.092 165.225L110.908 165.268L103.486 160.985C105.378 159.888 106.398 158.804 106.558 157.719C106.718 156.635 106.02 155.652 104.475 154.761C103.029 153.867 101.354 153.413 99.6546 153.452C98.0594 153.524 96.5065 153.987 95.1323 154.801C93.7929 155.575 93.117 156.41 93.0894 157.32C93.0617 158.229 93.6853 159.575 94.9511 161.369C97.5583 164.314 98.9112 166.863 99.0095 169.016C99.1078 171.168 97.5788 173.152 94.4227 174.967C91.3622 176.722 87.8791 177.605 84.352 177.52C80.5602 177.457 76.8278 176.568 73.415 174.914L68.2937 177.876L64.1523 175.483L69.2737 172.527C66.2384 170.432 64.6071 168.212 64.3798 165.867C64.1524 163.522 65.9281 161.297 69.7069 159.194L69.9373 159.151L77.3382 163.421C75.116 164.703 74.0755 165.932 74.2168 167.108C74.3582 168.283 75.2963 169.37 77.031 170.367C78.5611 171.302 80.3108 171.816 82.1032 171.857C83.75 171.873 85.3701 171.442 86.7914 170.61Z" fill="#141414"/>
<path d="M95.1997 203.271C94.9819 203.27 94.7733 203.183 94.6196 203.028C94.4658 202.874 94.3795 202.665 94.3795 202.447V193.679C94.3726 193.567 94.3887 193.455 94.4269 193.349C94.4651 193.243 94.5246 193.147 94.6016 193.065C94.6785 192.983 94.7714 192.918 94.8746 192.873C94.9777 192.828 95.0889 192.805 95.2013 192.805C95.3137 192.805 95.4248 192.828 95.5279 192.873C95.6311 192.918 95.724 192.983 95.801 193.065C95.8779 193.147 95.9374 193.243 95.9756 193.349C96.0138 193.455 96.03 193.567 96.0231 193.679V202.447C96.0231 202.666 95.9363 202.875 95.7819 203.029C95.6275 203.184 95.4181 203.271 95.1997 203.271ZM104.475 202.281C104.256 202.281 104.047 202.195 103.892 202.04C103.738 201.886 103.651 201.676 103.651 201.458V192.687C103.664 192.478 103.756 192.281 103.909 192.137C104.062 191.994 104.263 191.914 104.473 191.914C104.683 191.914 104.885 191.994 105.037 192.137C105.19 192.281 105.282 192.478 105.295 192.687V201.458C105.296 201.567 105.276 201.674 105.235 201.775C105.195 201.876 105.134 201.968 105.058 202.045C104.982 202.122 104.891 202.184 104.791 202.226C104.691 202.268 104.583 202.29 104.475 202.29V202.281ZM109.111 201.384C109.003 201.385 108.896 201.364 108.796 201.323C108.696 201.282 108.605 201.221 108.529 201.145C108.452 201.069 108.391 200.978 108.35 200.878C108.309 200.779 108.287 200.672 108.287 200.564V191.655C108.287 191.436 108.374 191.227 108.528 191.072C108.683 190.918 108.892 190.831 109.111 190.831C109.329 190.831 109.538 190.918 109.693 191.072C109.847 191.227 109.934 191.436 109.934 191.655V200.564C109.937 200.674 109.918 200.783 109.878 200.886C109.838 200.989 109.778 201.082 109.701 201.161C109.625 201.24 109.533 201.302 109.431 201.345C109.33 201.388 109.221 201.409 109.111 201.409V201.384Z" fill="#141414"/>
<path d="M150.337 151.197C150.337 143.67 145.336 136.143 135.379 130.392C115.447 118.887 83.1517 118.874 63.2562 130.367C53.2992 136.119 48.3284 143.655 48.3438 151.197V159.968C48.3622 167.498 53.3484 175.022 63.2993 180.773C83.2286 192.281 115.527 192.291 135.425 180.801C145.382 175.049 150.35 167.51 150.337 159.968V151.197Z" fill="white"/>
<path d="M99.4022 190.235C85.6265 190.235 72.6588 187.126 62.8923 181.486C52.9998 175.774 47.5313 168.134 47.5313 159.98V151.206C47.5129 143.034 52.9537 135.381 62.8554 129.664C72.5942 124.039 85.5343 120.942 99.2823 120.942C113.03 120.942 126.026 124.048 135.798 129.689C145.691 135.4 151.159 143.04 151.159 151.194V159.968C151.159 168.143 145.731 175.796 135.835 181.51C126.096 187.135 113.153 190.235 99.4022 190.235ZM99.2762 122.576C85.8108 122.576 73.1626 125.596 63.6695 131.077C54.3024 136.49 49.1504 143.633 49.1688 151.194V159.934C49.1872 167.51 54.3515 174.647 63.7125 180.054C73.2363 185.553 85.9091 188.579 99.4022 188.579C112.895 188.579 125.516 185.559 135.015 180.079C144.379 174.668 149.531 167.526 149.519 159.962V151.188C149.5 143.636 144.333 136.5 134.969 131.096C125.442 125.606 112.766 122.576 99.2762 122.576Z" fill="#141414"/>
<path d="M150.339 159.968V151.197C150.339 143.67 145.338 136.143 135.381 130.392C131.32 128.097 127.003 126.286 122.521 124.997V186.201C127.019 184.916 131.35 183.103 135.424 180.8C145.384 175.049 150.367 167.51 150.339 159.968Z" fill="#0962FF"/>
<path d="M122.519 187.025C122.341 187.024 122.168 186.967 122.024 186.862C121.922 186.785 121.839 186.685 121.782 186.57C121.725 186.456 121.695 186.33 121.695 186.202V124.997C121.695 124.869 121.724 124.743 121.781 124.629C121.838 124.514 121.921 124.414 122.024 124.338C122.126 124.261 122.245 124.209 122.371 124.187C122.497 124.164 122.626 124.171 122.749 124.208C127.295 125.515 131.672 127.352 135.791 129.679C145.683 135.391 151.152 143.031 151.152 151.185V159.959C151.152 168.134 145.723 175.787 135.827 181.501C131.697 183.84 127.304 185.68 122.74 186.982C122.668 187.006 122.594 187.02 122.519 187.025ZM123.33 126.106V185.092C127.394 183.858 131.309 182.179 135.004 180.085C144.368 174.675 149.52 167.532 149.508 159.968V151.194C149.489 143.642 144.322 136.506 134.958 131.102C131.277 129.015 127.377 127.34 123.33 126.106Z" fill="#141414"/>
<path d="M135.426 172.029C155.328 160.539 155.306 141.894 135.38 130.392C115.454 118.89 83.1529 118.874 63.2573 130.367C43.3618 141.86 43.3742 160.499 63.3004 172.002C83.2266 183.504 115.522 183.519 135.426 172.029Z" fill="#86B2FF"/>
<path d="M99.4022 181.461C85.6264 181.461 72.6587 178.355 62.8922 172.715C52.9813 166.994 47.5312 159.341 47.5312 151.163C47.5312 142.985 52.9751 135.36 62.8584 129.658C72.5972 124.033 85.5373 120.936 99.2854 120.936C113.033 120.936 126.029 124.042 135.801 129.682C145.712 135.406 151.162 143.059 151.162 151.237C151.162 159.415 145.722 167.037 135.838 172.742C126.096 178.367 113.153 181.461 99.4022 181.461ZM99.2761 122.576C85.8107 122.576 73.1626 125.596 63.6695 131.077C54.3177 136.478 49.1657 143.612 49.1657 151.163C49.1657 158.715 54.3331 165.876 63.7125 171.292C73.2363 176.791 85.9091 179.817 99.4022 179.817C112.895 179.817 125.516 176.798 135.015 171.317C144.367 165.919 149.519 158.785 149.519 151.234C149.519 143.682 144.348 136.521 134.969 131.105C125.442 125.606 112.766 122.576 99.2761 122.576Z" fill="#141414"/>
<path d="M99.3394 189.276C99.2314 189.276 99.1245 189.254 99.0248 189.213C98.9251 189.172 98.8345 189.111 98.7583 189.034C98.6821 188.958 98.6217 188.867 98.5807 188.767C98.5397 188.667 98.5187 188.56 98.5191 188.452V181.498C98.5123 181.385 98.5284 181.273 98.5666 181.167C98.6048 181.062 98.6642 180.965 98.7412 180.883C98.8182 180.801 98.9112 180.736 99.0143 180.692C99.1174 180.647 99.2286 180.624 99.3409 180.624C99.4533 180.624 99.5645 180.647 99.6676 180.692C99.7707 180.736 99.8636 180.801 99.9406 180.883C100.018 180.965 100.077 181.062 100.115 181.167C100.153 181.273 100.17 181.385 100.163 181.498V188.452C100.163 188.561 100.141 188.668 100.1 188.768C100.059 188.867 99.998 188.958 99.9216 189.035C99.8451 189.111 99.7544 189.172 99.6545 189.213C99.5546 189.254 99.4475 189.276 99.3394 189.276ZM112.078 188.806C111.86 188.806 111.65 188.719 111.496 188.565C111.341 188.41 111.255 188.201 111.255 187.982V180.948C111.255 180.729 111.341 180.52 111.496 180.366C111.65 180.211 111.86 180.124 112.078 180.124C112.296 180.124 112.506 180.211 112.66 180.366C112.815 180.52 112.901 180.729 112.901 180.948V187.982C112.9 188.2 112.812 188.408 112.658 188.561C112.504 188.714 112.295 188.8 112.078 188.8V188.806ZM117.883 187.294C117.775 187.294 117.669 187.273 117.569 187.232C117.47 187.191 117.379 187.13 117.303 187.054C117.227 186.978 117.167 186.887 117.125 186.788C117.084 186.688 117.063 186.582 117.063 186.474V179.298C117.056 179.186 117.072 179.073 117.11 178.968C117.149 178.862 117.208 178.765 117.285 178.684C117.362 178.602 117.455 178.536 117.558 178.492C117.661 178.447 117.772 178.424 117.885 178.424C117.997 178.424 118.108 178.447 118.211 178.492C118.315 178.536 118.407 178.602 118.484 178.684C118.561 178.765 118.621 178.862 118.659 178.968C118.697 179.073 118.713 179.186 118.706 179.298V186.474C118.704 186.691 118.616 186.898 118.462 187.05C118.308 187.203 118.1 187.288 117.883 187.288V187.294Z" fill="#141414"/>
<path d="M80.1916 250.742C74.3724 261.017 66.4274 268.766 58.319 273.005C50.2031 277.249 42.0155 277.938 35.5859 274.297C29.1563 270.656 25.5371 263.279 25.0022 254.137C24.4678 245.002 27.0274 234.203 32.8466 223.928C38.6658 213.653 46.6108 205.904 54.7192 201.665C62.8351 197.421 71.0227 196.732 77.4523 200.373C83.8819 204.014 87.5011 211.391 88.036 220.533C88.5704 229.668 86.0108 240.467 80.1916 250.742Z" fill="#0962FF" stroke="#141414" stroke-width="1.39514"/>
<mask id="path-53-inside-1_1247_4614" fill="white">
<path fill-rule="evenodd" clip-rule="evenodd" d="M43.0059 209.756C38.9564 213.692 35.2239 218.493 32.1018 224.006C20.3508 244.755 21.6951 267.731 35.1043 275.325C46.7952 281.947 63.7974 274.689 75.7505 258.969L30.2687 229.248L43.0059 209.756Z"/>
</mask>
<path fill-rule="evenodd" clip-rule="evenodd" d="M43.0059 209.756C38.9564 213.692 35.2239 218.493 32.1018 224.006C20.3508 244.755 21.6951 267.731 35.1043 275.325C46.7952 281.947 63.7974 274.689 75.7505 258.969L30.2687 229.248L43.0059 209.756Z" fill="#86B2FF"/>
<path d="M32.1018 224.006L33.3158 224.693L32.1018 224.006ZM43.0059 209.756L44.1738 210.52L42.0335 208.756L43.0059 209.756ZM35.1043 275.325L35.7918 274.111L35.1043 275.325ZM75.7505 258.969L76.8611 259.813L77.768 258.621L76.5137 257.801L75.7505 258.969ZM30.2687 229.248L29.1008 228.485L28.3376 229.653L29.5055 230.416L30.2687 229.248ZM33.3158 224.693C36.3748 219.292 40.0269 214.597 43.9782 210.757L42.0335 208.756C37.8859 212.787 34.073 217.694 30.8878 223.318L33.3158 224.693ZM35.7918 274.111C29.6372 270.626 26.0872 263.515 25.5607 254.517C25.0353 245.536 27.5529 234.869 33.3158 224.693L30.8878 223.318C24.8997 233.892 22.214 245.087 22.7752 254.68C23.3355 264.256 27.1621 272.431 34.4168 276.539L35.7918 274.111ZM74.64 258.125C68.785 265.825 61.7354 271.393 54.8002 274.234C47.8643 277.075 41.161 277.152 35.7918 274.111L34.4168 276.539C40.7385 280.12 48.3817 279.878 55.8579 276.816C63.3348 273.753 70.7629 267.833 76.8611 259.813L74.64 258.125ZM76.5137 257.801L31.0319 228.08L29.5055 230.416L74.9873 260.137L76.5137 257.801ZM31.4366 230.011L44.1738 210.52L41.838 208.993L29.1008 228.485L31.4366 230.011Z" fill="#141414" mask="url(#path-53-inside-1_1247_4614)"/>
<path d="M71.4859 247.062C65.477 257.672 57.273 265.673 48.9003 270.051C40.5199 274.433 32.0654 275.145 25.4262 271.385C18.7871 267.625 15.0499 260.008 14.4976 250.567C13.9458 241.135 16.5888 229.984 22.5977 219.374C28.6065 208.764 36.8105 200.763 45.1832 196.385C53.5636 192.004 62.0182 191.291 68.6573 195.051C75.2965 198.811 79.0336 206.428 79.586 215.869C80.1378 225.301 77.4947 236.452 71.4859 247.062Z" fill="white" stroke="#141414" stroke-width="1.44062"/>
<path d="M65.8635 237.523C66.3498 236.659 66.6292 235.773 66.5461 234.963C66.5319 234.161 66.1119 233.489 65.5363 232.915C64.9607 232.341 64.1172 231.911 63.1004 231.691C65.0509 231.321 66.9598 230.546 68.6716 229.464C70.3401 228.436 71.6301 227.139 72.3507 225.899C75.4383 221.414 71.7547 219.432 65.9377 218.317L70.9634 212.202L66.179 211.651L61.2833 217.608C60.0419 217.48 58.7315 217.344 57.4212 217.209L62.3602 211.2L57.5759 210.649L52.5502 216.763C51.5157 216.656 50.4812 216.55 49.5156 216.45L42.9382 215.714L39.6888 219.667C39.6888 219.667 43.3184 219.984 43.2061 220.03C43.8701 220.041 44.4298 220.271 44.6959 220.584C44.9187 220.95 44.917 221.408 44.6217 221.949L30.7754 238.704C30.6454 238.862 30.4464 239.013 30.2475 239.164C30.0486 239.315 29.7806 239.459 29.4871 239.543C29.2625 239.634 28.969 239.718 28.7187 239.75C28.4685 239.781 28.2616 239.76 27.9858 239.731C28.0114 239.791 24.4684 239.368 24.4684 239.368L19.8636 243.696L26.0963 244.397C27.2687 244.518 28.3978 244.692 29.5013 244.806L24.4323 250.973L29.2166 251.524L34.2423 245.41C35.5093 245.598 36.7507 245.726 38.0611 245.861L33.0787 251.923L37.8631 252.474L42.9321 246.307C51.3301 246.831 58.2418 245.886 63.7405 240.106C64.5284 239.33 65.3339 238.441 65.8635 237.523ZM53.8941 221.591C56.5838 221.869 65.6123 222.172 62.0163 226.547C58.5503 230.764 50.475 229.301 47.7164 229.016L53.8941 221.591ZM37.8816 240.982L44.6659 232.819C47.9074 233.153 58.7033 233.582 54.7607 238.379C50.8792 243.01 41.192 241.324 37.8816 240.982Z" fill="#141414"/>
<path d="M65.5563 256.932L73.0245 262.412" stroke="#141414" stroke-width="1.00843"/>
<path d="M62.8821 259.923L70.1613 265.362" stroke="#141414" stroke-width="1.00843"/>
<path d="M103.485 149.02C78.88 149.02 58.9341 128.108 58.9341 102.312C58.9341 76.5161 78.88 55.6044 103.485 55.6044C128.089 55.6044 148.035 76.5161 148.035 102.312C148.035 128.108 128.089 149.02 103.485 149.02Z" fill="#0962FF" stroke="#141414" stroke-width="1.09963" stroke-miterlimit="10"/>
<path d="M98.8655 145.457C74.2609 145.457 54.3149 124.545 54.3149 98.7491C54.3149 72.9532 74.2609 52.0415 98.8655 52.0415C123.47 52.0415 143.416 72.9532 143.416 98.7491C143.416 124.545 123.47 145.457 98.8655 145.457Z" fill="white" stroke="#141414" stroke-width="1.09963" stroke-miterlimit="10"/>
<path d="M80.3838 109.793H87.6703C87.6703 113.728 92.6616 117.08 98.6001 117.08C104.539 117.08 109.53 113.728 109.53 109.793C109.53 105.786 105.741 104.328 97.7257 102.398C90.002 100.467 80.3838 98.062 80.3838 87.9335C80.3838 81.412 85.7394 75.8742 93.1352 74.0161V66.0737H104.065V74.0161C111.461 75.8742 116.816 81.412 116.816 87.9335H109.53C109.53 83.9988 104.539 80.6469 98.6001 80.6469C92.6616 80.6469 87.6703 83.9988 87.6703 87.9335C87.6703 91.9412 91.4593 93.3985 99.4745 95.3295C107.198 97.2604 116.816 99.665 116.816 109.793C116.816 116.315 111.461 121.853 104.065 123.711V131.653H93.1352V123.711C85.7394 121.853 80.3838 116.315 80.3838 109.793Z" fill="#141414"/>
</svg>
