<svg width="264" height="371" viewBox="0 0 264 371" fill="none" xmlns="http://www.w3.org/2000/svg">
<rect x="0.88578" y="1.53422" width="152.819" height="231.749" rx="12.5243" transform="matrix(0.866025 0.5 -2.20305e-08 1 129.738 -0.442768)" fill="#0962FF" stroke="#141414" stroke-width="2.04562"/>
<rect x="0.293303" y="0.508016" width="29.8262" height="47.2911" rx="5.08016" transform="matrix(0.866025 0.5 -2.20305e-08 1 221.779 75.6052)" fill="#141414" stroke="#0962FF" stroke-width="0.677355"/>
<rect x="0.293303" y="0.508016" width="7.45091" height="54.0876" rx="2.37074" transform="matrix(0.866025 0.5 -2.20305e-08 1 241.421 224.894)" fill="#141414" stroke="#0962FF" stroke-width="0.677355"/>
<rect x="0.410625" y="0.711223" width="29.5553" height="7.17996" transform="matrix(0.866025 0.5 -2.20305e-08 1 221.794 90.8099)" fill="#141414" stroke="#0962FF" stroke-width="0.948297"/>
<rect x="0.410625" y="0.711223" width="29.5553" height="7.17996" transform="matrix(0.866025 0.5 -2.20305e-08 1 221.794 98.2608)" fill="#141414" stroke="#0962FF" stroke-width="0.948297"/>
<rect x="0.410625" y="0.711223" width="14.4757" height="23.3068" rx="2.23527" transform="matrix(0.866025 0.5 -2.20305e-08 1 228.324 91.1729)" fill="#141414" stroke="#0962FF" stroke-width="0.948297"/>
<rect width="35.9785" height="233.795" transform="matrix(0.866025 0.5 -2.20305e-08 1 151.973 12.9053)" fill="#141414"/>
<path d="M105.987 240.879C105.969 233.388 101.011 225.904 91.1001 220.183C71.2776 208.737 39.1632 208.725 19.3591 220.158C9.45398 225.879 4.50906 233.376 4.52739 240.879V249.604C4.52739 257.095 9.50293 264.58 19.405 270.301C39.2274 281.749 71.3602 281.759 91.149 270.325C101.057 264.604 105.999 257.107 105.987 249.604V240.879Z" fill="white"/>
<path d="M55.3148 279.711C41.6078 279.711 28.7259 276.621 18.9919 271.01C9.15406 265.329 3.72626 257.728 3.71098 249.617V240.888C3.69265 232.759 9.1052 225.146 18.9553 219.459C28.6434 213.863 41.516 210.782 55.1925 210.782C68.8689 210.782 81.7814 213.872 91.5123 219.483C101.356 225.164 106.793 232.765 106.809 240.876V249.605C106.809 257.74 101.408 265.35 91.5611 271.035C81.8669 276.631 68.9943 279.711 55.3148 279.711ZM55.1894 212.408C41.7941 212.408 29.2118 215.412 19.7682 220.864C10.4499 226.249 5.32774 233.355 5.34302 240.876V249.58C5.36135 257.117 10.4988 264.216 19.811 269.592C29.2852 275.063 41.892 278.076 55.3148 278.076C68.7376 278.076 81.2924 275.072 90.739 269.62C100.057 264.241 105.183 257.132 105.167 249.605V240.879C105.167 233.367 100.012 226.268 90.6932 220.892C81.219 215.421 68.6091 212.408 55.1894 212.408Z" fill="#141414"/>
<path d="M105.988 249.604V240.879C105.97 233.388 101.013 225.904 91.1016 220.182C87.0641 217.896 82.7711 216.094 78.3115 214.813V275.701C82.7876 274.423 87.0964 272.618 91.1475 270.325C101.059 264.604 106.001 257.12 105.988 249.604Z" fill="#0962FF"/>
<path d="M78.3102 276.52C78.1342 276.519 77.9631 276.462 77.8212 276.358C77.7197 276.282 77.6374 276.182 77.5806 276.068C77.5239 275.954 77.4943 275.829 77.4941 275.701V214.813C77.494 214.686 77.5237 214.56 77.5808 214.446C77.6379 214.332 77.7209 214.233 77.823 214.157C77.9252 214.081 78.0438 214.03 78.1692 214.008C78.2947 213.986 78.4236 213.994 78.5455 214.031C83.0655 215.33 87.4169 217.157 91.5099 219.474C101.354 225.155 106.791 232.756 106.806 240.867V249.595C106.806 257.731 101.406 265.341 91.5587 271.025C87.4505 273.35 83.0813 275.181 78.5425 276.478C78.4675 276.503 78.3893 276.517 78.3102 276.52ZM79.1292 215.916V274.595C83.1726 273.37 87.0676 271.7 90.7428 269.617C100.061 264.238 105.186 257.129 105.171 249.602V240.876C105.171 233.364 100.015 226.264 90.6969 220.889C87.0346 218.813 83.1554 217.145 79.1292 215.916Z" fill="#141414"/>
<path d="M91.1486 261.601C110.95 250.17 110.928 231.625 91.0997 220.183C71.2711 208.741 39.1628 208.725 19.3587 220.159C-0.445429 231.592 -0.420935 250.134 19.4046 261.576C39.2301 273.018 71.3414 273.034 91.1486 261.601Z" fill="#86B2FF"/>
<path d="M55.3147 270.986C41.6077 270.986 28.7258 267.896 18.9919 262.285C9.13567 256.594 3.71094 248.978 3.71094 240.845C3.71094 232.713 9.12655 225.124 18.9583 219.452C28.6464 213.856 41.519 210.776 55.1955 210.776C68.8719 210.776 81.7844 213.865 91.5153 219.477C101.378 225.167 106.796 232.783 106.796 240.919C106.796 249.054 101.384 256.637 91.5519 262.312C81.8668 267.905 68.9942 270.986 55.3147 270.986ZM55.1894 212.408C41.7941 212.408 29.2118 215.412 19.7682 220.864C10.4651 226.237 5.33991 233.333 5.33991 240.845C5.33991 248.358 10.4804 255.482 19.8109 260.87C29.2851 266.337 41.8919 269.351 55.3147 269.351C68.7375 269.351 81.2923 266.346 90.739 260.894C100.042 255.521 105.167 248.428 105.167 240.916C105.167 233.404 100.027 226.277 90.6932 220.892C81.219 215.421 68.6091 212.408 55.1894 212.408Z" fill="#141414"/>
<path d="M26.6648 255.922C26.4508 255.806 26.2155 255.705 26.0076 255.582C9.86485 246.261 9.84961 231.102 25.9741 221.793C26.1972 221.665 26.4386 221.558 26.6648 221.436V255.922ZM60.7015 215.051C58.7669 214.905 56.8202 214.819 54.8734 214.825V262.566C56.8202 262.566 58.7669 262.496 60.7015 262.352V215.051ZM84.5001 221.815C81.0235 219.856 77.319 218.333 73.4703 217.279V260.139C77.3324 259.091 81.0495 257.567 84.5367 255.604C100.683 246.295 100.649 231.142 84.5001 221.815Z" fill="white"/>
<path d="M51.4987 247.105C52.9127 246.29 53.641 245.401 53.6838 244.437C53.7266 243.477 53.1031 242.169 51.8256 240.513C49.234 237.506 47.8679 234.959 47.7273 232.872C47.5867 230.786 49.0965 228.827 52.2566 226.995C55.1661 225.315 58.4922 224.482 62.235 224.499C66.0233 224.526 69.7587 225.391 73.1731 227.032L78.714 223.838L82.8338 226.216L77.2165 229.456C79.8937 231.493 81.1162 233.6 80.8839 235.776C80.6516 237.952 78.9147 239.942 75.6731 241.748L75.4897 241.79L68.1059 237.53C69.9886 236.439 71.0032 235.363 71.1621 234.284C71.3211 233.206 70.6273 232.228 69.09 231.341C67.6509 230.453 65.9857 230 64.2949 230.036C62.7083 230.109 61.1637 230.57 59.7962 231.378C58.4637 232.151 57.7914 232.979 57.7638 233.884C57.7363 234.789 58.3567 236.127 59.6158 237.915C62.2095 240.847 63.5553 243.382 63.6531 245.519C63.7509 247.656 62.2299 249.631 59.0902 251.442C56.0448 253.186 52.5803 254.063 49.072 253.979C45.3002 253.917 41.5872 253.034 38.192 251.39L33.0974 254.333L28.9775 251.952L34.0723 249.012C31.0527 246.928 29.4299 244.719 29.2038 242.386C28.9776 240.054 30.744 237.841 34.5032 235.748L34.7324 235.706L42.0948 239.954C39.8841 241.229 38.849 242.452 38.9896 243.621C39.1302 244.791 40.0634 245.871 41.7891 246.864C43.3104 247.795 45.0515 248.307 46.8349 248.346C48.4729 248.36 50.0843 247.931 51.4987 247.105Z" fill="#141414"/>
<path d="M59.8624 279.595C59.6457 279.594 59.4382 279.508 59.2853 279.354C59.1323 279.201 59.0465 278.993 59.0465 278.776V270.051C59.0396 269.939 59.0557 269.827 59.0937 269.722C59.1317 269.617 59.1908 269.521 59.2674 269.439C59.344 269.358 59.4364 269.293 59.539 269.249C59.6416 269.204 59.7522 269.182 59.864 269.182C59.9758 269.182 60.0863 269.204 60.1889 269.249C60.2915 269.293 60.3839 269.358 60.4605 269.439C60.5371 269.521 60.5962 269.617 60.6342 269.722C60.6722 269.827 60.6884 269.939 60.6815 270.051V278.776C60.6815 278.993 60.5952 279.202 60.4416 279.355C60.288 279.509 60.0797 279.595 59.8624 279.595ZM69.089 278.626C68.8723 278.626 68.6645 278.54 68.511 278.387C68.3575 278.235 68.2708 278.027 68.27 277.81V269.085C68.2632 268.973 68.2793 268.862 68.3173 268.756C68.3553 268.651 68.4144 268.555 68.4909 268.474C68.5675 268.392 68.66 268.327 68.7626 268.283C68.8652 268.239 68.9758 268.216 69.0876 268.216C69.1993 268.216 69.3099 268.239 69.4125 268.283C69.5151 268.327 69.6076 268.392 69.6842 268.474C69.7608 268.555 69.8198 268.651 69.8578 268.756C69.8958 268.862 69.9119 268.973 69.9051 269.085V277.81C69.9019 278.025 69.8146 278.23 69.662 278.38C69.5094 278.531 69.3036 278.616 69.089 278.617V278.626ZM73.7009 277.737C73.4836 277.737 73.2753 277.651 73.1217 277.497C72.9681 277.343 72.8818 277.135 72.8818 276.918V268.055C72.8818 267.838 72.9681 267.629 73.1217 267.476C73.2753 267.322 73.4836 267.236 73.7009 267.236C73.9181 267.236 74.1264 267.322 74.28 267.476C74.4336 267.629 74.5199 267.838 74.5199 268.055V276.918C74.5175 277.133 74.4302 277.339 74.2768 277.491C74.1235 277.643 73.9165 277.728 73.7009 277.728V277.737Z" fill="#141414"/>
<path d="M105.987 227.781C105.969 220.293 101.011 212.805 91.1001 207.084C71.2776 195.639 39.1632 195.626 19.3591 207.06C9.45398 212.781 4.50906 220.281 4.52739 227.781V236.509C4.52739 243.997 9.50293 251.484 19.405 257.206C39.2274 268.651 71.3602 268.66 91.149 257.23C101.057 251.509 105.999 244.009 105.987 236.509V227.781Z" fill="white"/>
<path d="M55.3148 266.625C41.6078 266.625 28.7259 263.532 18.9919 257.921C9.15406 252.242 3.72626 244.638 3.71098 236.527V227.78C3.69265 219.651 9.1052 212.041 18.9553 206.35C28.6434 200.758 41.516 197.674 55.1925 197.674C68.8689 197.674 81.7814 200.764 91.5123 206.378C101.356 212.056 106.793 219.657 106.809 227.771V236.5C106.809 244.632 101.408 252.242 91.5611 257.93C81.8669 263.538 68.9943 266.625 55.3148 266.625ZM55.1894 199.321C41.7941 199.321 29.2118 202.322 19.7682 207.778C10.4499 213.16 5.32774 220.268 5.34302 227.79V236.491C5.36135 244.027 10.4988 251.127 19.811 256.506C29.2852 261.976 41.892 264.986 55.3148 264.986C68.7376 264.986 81.2924 261.985 90.739 256.53C100.057 251.151 105.183 244.042 105.167 236.518V227.78C105.167 220.268 100.012 213.169 90.6932 207.793C81.219 202.332 68.6091 199.321 55.1894 199.321Z" fill="#141414"/>
<path d="M105.988 236.518V227.78C105.97 220.293 101.013 212.805 91.1016 207.084C87.0639 204.799 82.771 202.997 78.3115 201.717V262.621C82.7872 261.341 87.0958 259.537 91.1475 257.245C101.059 251.518 106.001 244.018 105.988 236.518Z" fill="#0962FF"/>
<path d="M78.3102 263.431C78.0938 263.431 77.8862 263.345 77.7332 263.192C77.5802 263.039 77.4941 262.831 77.4941 262.615V201.726C77.4941 201.599 77.5239 201.473 77.581 201.359C77.6381 201.245 77.721 201.146 77.823 201.07C77.9251 200.994 78.0435 200.942 78.1689 200.92C78.2944 200.898 78.4233 200.905 78.5455 200.941C83.0667 202.241 87.4191 204.069 91.5129 206.387C101.357 212.065 106.794 219.666 106.809 227.78V236.509C106.809 244.641 101.409 252.251 91.5618 257.939C87.4523 260.261 83.0834 262.091 78.5455 263.391C78.4694 263.415 78.3901 263.429 78.3102 263.431ZM79.1292 202.83V261.508C83.1727 260.282 87.0677 258.612 90.7428 256.527C100.061 251.148 105.186 244.039 105.171 236.515V227.78C105.171 220.268 100.015 213.169 90.6969 207.793C87.0342 205.72 83.1551 204.056 79.1292 202.83Z" fill="#141414"/>
<path d="M91.1486 248.513C110.95 237.083 110.928 218.538 91.0997 207.093C71.2711 195.648 39.1628 195.635 19.3587 207.068C-0.445429 218.502 -0.420935 237.044 19.4046 248.489C39.2301 259.934 71.3414 259.944 91.1486 248.513Z" fill="#86B2FF"/>
<path d="M55.3147 257.899C41.6077 257.899 28.7258 254.806 18.9919 249.198C9.13567 243.505 3.71094 235.892 3.71094 227.759C3.71094 219.627 9.12655 212.035 18.9583 206.366C28.6464 200.773 41.519 197.689 55.1955 197.689C68.8719 197.689 81.7844 200.779 91.5153 206.393C101.378 212.084 106.796 219.697 106.796 227.832C106.796 235.968 101.384 243.553 91.5519 249.226C81.8668 254.815 68.9942 257.899 55.3147 257.899ZM55.1894 199.321C41.7941 199.321 29.2118 202.322 19.7682 207.778C10.4651 213.15 5.33991 220.244 5.33991 227.759C5.33991 235.274 10.4804 242.395 19.8109 247.78C29.2851 253.251 41.8919 256.261 55.3147 256.261C68.7375 256.261 81.2923 253.26 90.739 247.805C100.042 242.435 105.167 235.338 105.167 227.826C105.167 220.314 100.027 213.19 90.6932 207.802C81.219 202.332 68.6091 199.321 55.1894 199.321Z" fill="#141414"/>
<path d="M26.6648 242.835C26.4508 242.716 26.2155 242.615 26.0076 242.493C9.86485 233.171 9.84961 218.013 25.9741 208.704C26.1972 208.578 26.4386 208.471 26.6648 208.346V242.835ZM60.7015 201.965C58.7669 201.815 56.8202 201.729 54.8734 201.739V249.479C56.8202 249.479 58.7669 249.409 60.7015 249.262V201.965ZM84.5001 208.725C81.0227 206.769 77.3184 205.247 73.4703 204.193V247.053C77.3329 246.004 81.0502 244.48 84.5367 242.514C100.683 233.205 100.649 218.046 84.5001 208.725Z" fill="white"/>
<path d="M51.4976 234.015C52.9115 233.2 53.6399 232.312 53.6827 231.35C53.7255 230.39 53.102 229.082 51.8245 227.426C49.2329 224.419 47.8668 221.872 47.7262 219.785C47.5856 217.699 49.0954 215.739 52.2555 213.905C55.165 212.226 58.4911 211.395 62.2339 211.411C66.0222 211.439 69.7576 212.304 73.172 213.945L78.7129 210.748L82.8327 213.126L77.2154 216.369C79.8926 218.406 81.1151 220.512 80.8828 222.686C80.6505 224.86 78.9136 226.851 75.672 228.661L75.4886 228.703L68.1079 224.419C69.9905 223.328 71.0052 222.249 71.1641 221.17C71.323 220.091 70.6292 219.113 69.092 218.227C67.6533 217.338 65.9875 216.886 64.2968 216.925C62.71 216.997 61.1651 217.457 59.7981 218.267C58.4656 219.037 57.7933 219.868 57.7658 220.773C57.7383 221.677 58.3586 223.016 59.6178 224.801C62.2115 227.733 63.5573 230.267 63.6551 232.404C63.7529 234.542 62.2319 236.516 59.0921 238.327C56.0471 240.072 52.5825 240.951 49.0739 240.867C45.3019 240.805 41.5889 239.92 38.1939 238.275L33.0993 241.222L28.9795 238.838L34.0742 235.901C31.0547 233.816 29.4318 231.608 29.2056 229.275C28.9795 226.942 30.746 224.729 34.5051 222.637L34.7343 222.594L42.0967 226.842C39.8861 228.118 38.851 229.34 38.9916 230.51C39.126 231.677 40.0613 232.753 41.7911 233.752C43.3132 234.682 45.0538 235.193 46.8369 235.234C48.4718 235.254 50.0819 234.833 51.4976 234.015Z" fill="#141414"/>
<path d="M64.4777 266.148C64.261 266.147 64.0534 266.06 63.9005 265.907C63.7475 265.753 63.6617 265.546 63.6617 265.329V256.6C63.6549 256.489 63.6709 256.377 63.7089 256.272C63.7469 256.167 63.806 256.071 63.8826 255.989C63.9592 255.908 64.0516 255.843 64.1542 255.798C64.2568 255.754 64.3674 255.731 64.4792 255.731C64.5909 255.731 64.7016 255.754 64.8042 255.798C64.9068 255.843 64.9992 255.908 65.0758 255.989C65.1524 256.071 65.2115 256.167 65.2495 256.272C65.2875 256.377 65.3035 256.489 65.2967 256.6V265.326C65.2967 265.433 65.2756 265.54 65.2344 265.639C65.1932 265.739 65.1329 265.829 65.0568 265.905C64.9808 265.981 64.8905 266.041 64.7911 266.082C64.6917 266.124 64.5852 266.145 64.4777 266.145V266.148ZM69.0894 265.537C68.8722 265.537 68.6639 265.45 68.5103 265.297C68.3566 265.143 68.2704 264.935 68.2704 264.718V255.992C68.2831 255.784 68.3748 255.589 68.5267 255.446C68.6787 255.303 68.8793 255.223 69.0879 255.223C69.2965 255.223 69.4972 255.303 69.6491 255.446C69.801 255.589 69.8927 255.784 69.9055 255.992V264.718C69.9039 264.933 69.8172 265.14 69.6645 265.292C69.5117 265.444 69.3051 265.53 69.0894 265.531V265.537ZM73.7012 264.644C73.4845 264.644 73.2766 264.558 73.1231 264.405C72.9696 264.252 72.883 264.045 72.8822 263.828V254.965C72.8822 254.748 72.9685 254.54 73.1221 254.386C73.2757 254.233 73.484 254.146 73.7012 254.146C73.9185 254.146 74.1268 254.233 74.2804 254.386C74.434 254.54 74.5203 254.748 74.5203 254.965V263.828C74.5178 264.044 74.4305 264.25 74.2772 264.401C74.1238 264.553 73.9169 264.638 73.7012 264.638V264.644Z" fill="#141414"/>
<path d="M114.713 214.703C114.713 207.213 109.738 199.728 99.8329 194.007C80.0043 182.561 47.8777 182.549 28.0858 193.982C18.1807 199.704 13.2357 207.2 13.251 214.703V223.429C13.2693 230.92 18.2296 238.404 28.1286 244.125C47.9541 255.574 80.0838 255.583 99.8788 244.15C109.784 238.432 114.726 230.932 114.713 223.429V214.703Z" fill="white"/>
<path d="M64.0412 253.535C50.3373 253.535 37.4371 250.445 27.7214 244.834C17.8805 239.153 12.4405 231.552 12.4405 223.441V214.712C12.4221 206.583 17.8346 198.97 27.6847 193.282C37.3728 187.686 50.2455 184.606 63.922 184.606C77.5984 184.606 90.5261 187.696 100.248 193.307C110.089 198.988 115.529 206.589 115.529 214.7V223.429C115.529 231.561 110.129 239.174 100.285 244.859C90.5964 250.454 77.7207 253.535 64.0412 253.535ZM63.9159 186.232C50.5206 186.232 37.9383 189.236 28.4946 194.688C19.1763 200.073 14.0511 207.179 14.0694 214.7V223.404C14.0878 230.941 19.2252 238.04 28.5374 243.419C38.0116 248.887 50.6184 251.9 64.0412 251.9C77.464 251.9 90.0188 248.896 99.4685 243.444C108.784 238.062 113.909 230.956 113.897 223.429V214.703C113.878 207.191 108.738 200.092 99.4227 194.716C89.9454 189.245 77.3356 186.232 63.9159 186.232Z" fill="#141414"/>
<path d="M114.713 223.428V214.703C114.713 207.212 109.737 199.728 99.8322 194.006C95.7924 191.723 91.4987 189.922 87.0391 188.64V249.525C91.515 248.246 95.8237 246.442 99.8751 244.149C109.783 238.431 114.74 230.931 114.713 223.428Z" fill="#0962FF"/>
<path d="M87.0398 250.344C86.8228 250.343 86.6149 250.257 86.4615 250.103C86.3081 249.95 86.2215 249.742 86.2207 249.525V188.64C86.2202 188.512 86.2495 188.387 86.3062 188.273C86.3629 188.159 86.4456 188.06 86.5474 187.983C86.6493 187.907 86.7676 187.856 86.8929 187.833C87.0182 187.811 87.147 187.818 87.269 187.854C91.7915 189.155 96.1458 190.982 100.243 193.297C110.083 198.979 115.523 206.579 115.523 214.69V223.419C115.523 231.551 110.123 239.164 100.279 244.849C96.1693 247.173 91.7993 249.003 87.2599 250.301C87.1887 250.325 87.1147 250.339 87.0398 250.344ZM87.8558 189.743V248.422C91.8985 247.195 95.7933 245.525 99.4693 243.443C108.785 238.061 113.91 230.955 113.898 223.428V214.703C113.879 207.191 108.739 200.091 99.4234 194.715C95.7588 192.638 91.8765 190.97 87.8466 189.743H87.8558Z" fill="#141414"/>
<path d="M99.8779 235.421C119.676 223.991 119.655 205.443 99.8321 194.001C80.0096 182.558 47.8768 182.543 28.0849 193.976C8.29306 205.409 8.30533 223.951 28.1278 235.394C47.9502 246.836 80.0769 246.857 99.8779 235.421Z" fill="#86B2FF"/>
<path d="M64.0412 244.809C50.3372 244.809 37.437 241.72 27.7214 236.108C17.8621 230.418 12.4404 222.805 12.4404 214.669C12.4404 206.534 17.856 198.948 27.6877 193.276C37.3758 187.68 50.2485 184.599 63.925 184.599C77.6014 184.599 90.5292 187.689 100.251 193.3C110.11 198.994 115.532 206.607 115.532 214.743C115.532 222.878 110.119 230.461 100.288 236.136C90.5964 241.729 77.7207 244.809 64.0412 244.809ZM63.9158 186.231C50.5205 186.231 37.9382 189.236 28.4946 194.688C19.1916 200.061 14.0663 207.157 14.0663 214.669C14.0663 222.181 19.2068 229.305 28.5374 234.693C38.0115 240.161 50.6184 243.174 64.0412 243.174C77.464 243.174 90.0188 240.17 99.4685 234.718C108.772 229.345 113.897 222.252 113.897 214.739C113.897 207.227 108.753 200.1 99.4226 194.715C89.9454 189.245 77.3355 186.231 63.9158 186.231Z" fill="#141414"/>
<path d="M35.3915 229.746C35.1776 229.63 34.9422 229.529 34.7344 229.407C18.5916 220.086 18.5733 204.927 34.7008 195.618C34.9208 195.489 35.1653 195.382 35.3915 195.26V229.746ZM69.4282 188.879C67.4937 188.729 65.5438 188.644 63.6001 188.653V236.39C65.5438 236.39 67.4937 236.32 69.4282 236.177V188.879ZM93.2268 195.639C89.7502 193.679 86.0444 192.157 82.194 191.107V233.964C86.0576 232.917 89.776 231.394 93.2635 229.428C109.394 220.119 109.376 204.961 93.2268 195.639Z" fill="white"/>
<path d="M60.2197 220.929C61.6347 220.116 62.359 219.224 62.4079 218.261C62.4568 217.298 61.8272 215.993 60.5497 214.337C57.9581 211.33 56.592 208.783 56.4514 206.696C56.3108 204.61 57.8206 202.651 60.9807 200.819C63.8902 199.142 67.2153 198.31 70.956 198.322C74.745 198.352 78.4809 199.217 81.8972 200.856L87.4381 197.662L91.5578 200.04L85.9406 203.283C88.6178 205.32 89.8403 207.426 89.608 209.6C89.3757 211.774 87.6439 213.764 84.4125 215.572L84.2291 215.614L76.8423 211.342C78.7249 210.251 79.7395 209.175 79.8985 208.096C80.0574 207.017 79.3636 206.039 77.8233 205.153C76.3855 204.264 74.7211 203.811 73.0312 203.848C71.4447 203.922 69.9002 204.382 68.5325 205.19C67.2 205.963 66.5245 206.791 66.5001 207.696C66.4757 208.6 67.093 209.942 68.3552 211.727C70.9489 214.657 72.2936 217.191 72.3894 219.331C72.4851 221.47 70.9642 223.444 67.8265 225.254C64.7817 226.999 61.3168 227.876 57.8083 227.79C54.0365 227.729 50.3235 226.846 46.9283 225.202L41.8336 228.145L37.7139 225.764L42.8085 222.824C39.789 220.74 38.1662 218.531 37.94 216.198C37.7139 213.865 39.4804 211.653 43.2395 209.563L43.4687 209.517L50.831 213.765C48.6183 215.039 47.5833 216.261 47.7259 217.433C47.8686 218.604 48.8017 219.685 50.5254 220.675C52.0475 221.607 53.7898 222.119 55.5742 222.158C57.205 222.173 58.8099 221.749 60.2197 220.929Z" fill="#141414"/>
<path d="M68.5921 253.419C68.4844 253.42 68.3777 253.399 68.2782 253.358C68.1786 253.317 68.0881 253.256 68.012 253.18C67.9359 253.104 67.8755 253.014 67.8345 252.914C67.7935 252.815 67.7726 252.708 67.773 252.6V243.875C67.7662 243.763 67.7822 243.652 67.8202 243.546C67.8582 243.441 67.9174 243.345 67.9939 243.264C68.0705 243.182 68.1629 243.117 68.2655 243.073C68.3681 243.029 68.4788 243.006 68.5906 243.006C68.7023 243.006 68.8129 243.029 68.9155 243.073C69.0181 243.117 69.1105 243.182 69.1871 243.264C69.2637 243.345 69.3228 243.441 69.3608 243.546C69.3988 243.652 69.4149 243.763 69.408 243.875V252.6C69.408 252.817 69.3222 253.025 69.1693 253.178C69.0163 253.332 68.8088 253.419 68.5921 253.419ZM77.8126 252.451C77.5959 252.45 77.3884 252.363 77.2354 252.21C77.0825 252.056 76.9966 251.848 76.9966 251.631V242.906C76.9898 242.794 77.0058 242.683 77.0438 242.578C77.0818 242.472 77.1409 242.376 77.2175 242.295C77.2941 242.213 77.3866 242.149 77.4892 242.104C77.5918 242.06 77.7023 242.037 77.8141 242.037C77.9259 242.037 78.0365 242.06 78.1391 242.104C78.2417 242.149 78.3341 242.213 78.4107 242.295C78.4872 242.376 78.5464 242.472 78.5844 242.578C78.6224 242.683 78.6385 242.794 78.6317 242.906V251.619C78.6325 251.727 78.6119 251.834 78.5711 251.935C78.5303 252.035 78.4701 252.126 78.3939 252.202C78.3178 252.279 78.2272 252.34 78.1274 252.381C78.0277 252.423 77.9206 252.444 77.8126 252.444V252.451ZM82.4274 251.558C82.32 251.558 82.2136 251.537 82.1144 251.496C82.0152 251.455 81.9251 251.394 81.8493 251.318C81.7735 251.242 81.7135 251.152 81.6726 251.052C81.6318 250.953 81.611 250.846 81.6114 250.739V241.891C81.6046 241.78 81.6207 241.668 81.6587 241.563C81.6967 241.458 81.7558 241.362 81.8324 241.28C81.909 241.199 82.0014 241.134 82.104 241.09C82.2066 241.045 82.3171 241.022 82.4289 241.022C82.5407 241.022 82.6513 241.045 82.7539 241.09C82.8565 241.134 82.9489 241.199 83.0255 241.28C83.1021 241.362 83.1612 241.458 83.1992 241.563C83.2372 241.668 83.2533 241.78 83.2465 241.891V250.739C83.2449 250.955 83.1578 251.162 83.0044 251.314C82.851 251.467 82.6436 251.552 82.4274 251.552V251.558Z" fill="#141414"/>
<path d="M105.987 201.616C105.969 194.126 101.011 186.641 91.1001 180.92C71.2776 169.471 39.1632 169.459 19.3591 180.892C9.45398 186.614 4.50906 194.114 4.52739 201.616V210.342C4.52739 217.83 9.50293 225.317 19.405 231.038C39.2274 242.484 71.3602 242.493 91.149 231.063C101.057 225.342 105.999 217.842 105.987 210.342V201.616Z" fill="white"/>
<path d="M55.3148 240.448C41.6078 240.448 28.7259 237.358 18.9919 231.747C9.15406 226.066 3.72626 218.462 3.71098 210.354V201.629C3.69265 193.496 9.1052 185.886 18.9553 180.195C28.6434 174.603 41.516 171.522 55.1925 171.522C68.8689 171.522 81.7814 174.609 91.5123 180.223C101.356 185.901 106.793 193.502 106.809 201.616V210.345C106.809 218.477 101.408 226.09 91.5611 231.775C81.8669 237.368 68.9943 240.448 55.3148 240.448ZM55.1894 173.145C41.7941 173.145 29.2118 176.149 19.7682 181.601C10.4499 186.983 5.32774 194.092 5.34302 201.613V210.314C5.36135 217.851 10.4988 224.95 19.811 230.329C29.2852 235.8 41.892 238.81 55.3148 238.81C68.7376 238.81 81.2924 235.809 90.739 230.354C100.057 224.975 105.183 217.869 105.167 210.342V201.616C105.167 194.101 100.012 187.005 90.6932 181.626C81.219 176.155 68.6091 173.145 55.1894 173.145Z" fill="#141414"/>
<path d="M105.988 210.342V201.616C105.97 194.126 101.013 186.641 91.1016 180.92C87.0647 178.632 82.7716 176.83 78.3115 175.55V236.438C82.7872 235.159 87.0958 233.354 91.1475 231.063C101.059 225.335 106.001 217.842 105.988 210.342Z" fill="#0962FF"/>
<path d="M78.3102 237.254C78.0938 237.254 77.8862 237.168 77.7332 237.015C77.5802 236.862 77.4941 236.655 77.4941 236.438V175.55C77.4943 175.423 77.5239 175.298 77.5806 175.184C77.6374 175.071 77.7197 174.972 77.8212 174.896C77.9237 174.82 78.0424 174.768 78.168 174.746C78.2936 174.723 78.4228 174.729 78.5455 174.764C83.0667 176.065 87.4191 177.893 91.5129 180.211C101.357 185.889 106.794 193.49 106.809 201.604V210.332C106.809 218.465 101.409 226.078 91.5618 231.762C87.4529 234.086 83.0839 235.916 78.5455 237.215C78.4694 237.239 78.3901 237.252 78.3102 237.254ZM79.1292 176.653V235.332C83.1727 234.106 87.0677 232.435 90.7428 230.35C100.061 224.972 105.186 217.866 105.171 210.339V201.613C105.171 194.098 100.015 187.001 90.6969 181.623C87.0345 179.548 83.1553 177.881 79.1292 176.653Z" fill="#141414"/>
<path d="M91.1486 222.338C110.95 210.908 110.928 192.363 91.0997 180.92C71.2711 169.478 39.1628 169.46 19.3587 180.893C-0.445429 192.326 -0.420935 210.868 19.4046 222.313C39.2301 233.759 71.3414 233.768 91.1486 222.338Z" fill="#86B2FF"/>
<path d="M55.3147 231.723C41.6077 231.723 28.7258 228.633 18.9919 223.022C9.13567 217.332 3.71094 209.716 3.71094 201.583C3.71094 193.451 9.12655 185.862 18.9583 180.19C28.6464 174.597 41.519 171.516 55.1955 171.516C68.8719 171.516 81.7844 174.603 91.5153 180.217C101.378 185.908 106.796 193.524 106.796 201.659C106.796 209.795 101.384 217.377 91.5519 223.053C81.8668 228.643 68.9942 231.723 55.3147 231.723ZM55.1894 173.145C41.7941 173.145 29.2118 176.149 19.7682 181.602C10.4651 186.974 5.33991 194.068 5.33991 201.583C5.33991 209.098 10.4804 216.219 19.8109 221.604C29.2851 227.075 41.8919 230.088 55.3147 230.088C68.7375 230.088 81.2923 227.084 90.739 221.629C100.042 216.259 105.167 209.165 105.167 201.653C105.167 194.141 100.027 187.014 90.6932 181.626C81.219 176.156 68.6091 173.145 55.1894 173.145Z" fill="#141414"/>
<path d="M26.6648 216.659C26.4508 216.543 26.2155 216.439 26.0076 216.317C9.86485 206.995 9.84961 191.837 25.9741 182.527C26.1972 182.402 26.4386 182.295 26.6648 182.17V216.659ZM60.7015 175.789C58.7669 175.639 56.8202 175.553 54.8734 175.562V223.303C56.8202 223.303 58.7669 223.233 60.7015 223.089V175.789ZM84.5001 182.549C81.0266 180.594 77.3265 179.071 73.4825 178.017V220.877C77.3446 219.828 81.0617 218.304 84.549 216.341C100.683 207.032 100.649 191.87 84.5001 182.549Z" fill="white"/>
<path d="M51.4987 207.839C52.9127 207.024 53.641 206.136 53.6838 205.174C53.7266 204.214 53.1031 202.906 51.8256 201.25C49.234 198.243 47.8679 195.696 47.7273 193.609C47.5898 191.513 49.0995 189.56 52.2566 187.729C55.1661 186.05 58.4922 185.219 62.235 185.235C66.0225 185.255 69.7589 186.111 73.1762 187.745L78.717 184.548L82.8368 186.926L77.2165 190.19C79.8937 192.227 81.1162 194.333 80.8839 196.507C80.6516 198.681 78.9147 200.672 75.6731 202.482L75.4897 202.524L68.1059 198.264C69.9886 197.173 71.0032 196.094 71.1621 195.015C71.3211 193.936 70.6273 192.959 69.09 192.072C67.6513 191.183 65.9856 190.731 64.2949 190.77C62.708 190.842 61.1631 191.303 59.7962 192.112C58.4637 192.882 57.7913 193.713 57.7638 194.618C57.7363 195.523 58.3567 196.861 59.6158 198.646C62.2095 201.576 63.5553 204.112 63.6531 206.253C63.7509 208.394 62.2299 210.368 59.0902 212.173C56.0456 213.919 52.5807 214.797 49.072 214.712C45.3 214.65 41.587 213.766 38.192 212.121L33.0974 215.067L28.9775 212.686L34.0723 209.746C31.0527 207.662 29.4299 205.453 29.2038 203.12C28.9776 200.787 30.744 198.575 34.5032 196.482L34.7324 196.439L42.0948 200.688C39.8841 201.963 38.849 203.186 38.9896 204.355C39.1302 205.525 40.0634 206.605 41.7891 207.598C43.3113 208.527 45.0518 209.039 46.8349 209.08C48.4731 209.095 50.0848 208.667 51.4987 207.839Z" fill="#141414"/>
<path d="M59.8624 240.329C59.6457 240.328 59.4382 240.242 59.2853 240.088C59.1323 239.935 59.0465 239.727 59.0465 239.51V230.788C59.0396 230.676 59.0557 230.564 59.0937 230.459C59.1317 230.354 59.1908 230.258 59.2674 230.177C59.344 230.095 59.4364 230.03 59.539 229.986C59.6416 229.942 59.7522 229.919 59.864 229.919C59.9758 229.919 60.0863 229.942 60.1889 229.986C60.2915 230.03 60.384 230.095 60.4605 230.177C60.5371 230.258 60.5962 230.354 60.6342 230.459C60.6722 230.564 60.6884 230.676 60.6815 230.788V239.51C60.6815 239.727 60.5952 239.936 60.4416 240.089C60.288 240.243 60.0797 240.329 59.8624 240.329ZM69.089 239.345C68.8718 239.345 68.6635 239.259 68.5099 239.105C68.3563 238.952 68.27 238.743 68.27 238.526V229.801C68.2827 229.592 68.3745 229.397 68.5264 229.254C68.6783 229.111 68.879 229.032 69.0876 229.032C69.2961 229.032 69.4968 229.111 69.6487 229.254C69.8006 229.397 69.8924 229.592 69.9051 229.801V238.526C69.9063 238.634 69.8861 238.741 69.8457 238.842C69.8053 238.942 69.7454 239.033 69.6695 239.11C69.5937 239.187 69.5033 239.248 69.4037 239.29C69.3041 239.332 69.1971 239.354 69.089 239.354V239.345ZM73.7009 238.453C73.5934 238.453 73.487 238.432 73.3876 238.391C73.2883 238.351 73.198 238.291 73.1219 238.215C73.0458 238.139 72.9854 238.049 72.9442 237.95C72.903 237.851 72.8818 237.744 72.8818 237.637V228.774C72.8818 228.557 72.9681 228.348 73.1217 228.195C73.2753 228.041 73.4836 227.955 73.7009 227.955C73.9181 227.955 74.1264 228.041 74.28 228.195C74.4336 228.348 74.5199 228.557 74.5199 228.774V237.637C74.5232 237.746 74.5044 237.855 74.4647 237.957C74.425 238.059 74.3651 238.152 74.2887 238.231C74.2122 238.309 74.1208 238.371 74.0198 238.414C73.9189 238.456 73.8104 238.478 73.7009 238.477V238.453Z" fill="#141414"/>
<path d="M114.713 188.527C114.713 181.039 109.738 173.551 99.8329 167.83C80.0043 156.385 47.8777 156.372 28.0858 167.806C18.1807 173.527 13.2357 181.024 13.251 188.527V197.252C13.2693 204.743 18.2296 212.227 28.1286 217.949C47.9541 229.397 80.0838 229.406 99.8788 217.976C109.784 212.255 114.726 204.755 114.713 197.252V188.527Z" fill="white"/>
<path d="M64.0412 227.362C50.3373 227.362 37.4371 224.269 27.7214 218.658C17.8805 212.976 12.4405 205.376 12.4405 197.265V188.536C12.4221 180.407 17.8346 172.794 27.6847 167.106C37.3728 161.51 50.2455 158.43 63.922 158.43C77.5984 158.43 90.5261 161.519 100.248 167.131C110.089 172.812 115.529 180.413 115.529 188.524V197.252C115.529 205.385 110.129 212.998 100.285 218.682C90.5964 224.278 77.7207 227.362 64.0412 227.362ZM63.9159 160.055C50.5206 160.055 37.9383 163.06 28.4946 168.512C19.1763 173.897 14.0511 181.003 14.0694 188.524V197.219C14.0878 204.755 19.2252 211.855 28.5374 217.234C38.0116 222.704 50.6184 225.715 64.0412 225.715C77.464 225.715 90.0188 222.71 99.4685 217.258C108.784 211.876 113.909 204.771 113.897 197.246V188.518C113.878 181.006 108.738 173.906 99.4227 168.53C89.9454 163.069 77.3356 160.055 63.9159 160.055Z" fill="#141414"/>
<path d="M114.713 197.252V188.527C114.713 181.039 109.737 173.551 99.8322 167.83C95.7924 165.547 91.4987 163.746 87.0391 162.464V223.349C91.5144 222.07 95.8229 220.266 99.8751 217.976C109.783 212.255 114.74 204.755 114.713 197.252Z" fill="#0962FF"/>
<path d="M87.0398 224.168C86.8628 224.167 86.6906 224.11 86.5477 224.006C86.4462 223.929 86.3639 223.83 86.3072 223.716C86.2505 223.602 86.2208 223.476 86.2207 223.349V162.463C86.2202 162.336 86.2495 162.21 86.3062 162.096C86.3629 161.983 86.4456 161.883 86.5474 161.807C86.6493 161.731 86.7676 161.679 86.8929 161.657C87.0182 161.635 87.147 161.642 87.269 161.678C91.7915 162.979 96.1458 164.806 100.243 167.121C110.083 172.802 115.523 180.403 115.523 188.514V197.243C115.523 205.375 110.123 212.988 100.279 218.673C96.1705 220.999 91.8002 222.829 87.2599 224.125C87.1887 224.149 87.1147 224.163 87.0398 224.168ZM87.8466 163.567V222.245C91.8894 221.018 95.7842 219.347 99.4601 217.264C108.775 211.882 113.901 204.776 113.888 197.252V188.523C113.87 181.011 108.73 173.912 99.4143 168.536C95.7525 166.46 91.8732 164.794 87.8466 163.567Z" fill="#141414"/>
<path d="M99.8779 209.251C119.676 197.82 119.655 179.272 99.8321 167.83C80.0096 156.388 47.8768 156.372 28.0849 167.806C8.29306 179.239 8.30532 197.781 28.1278 209.223C47.9502 220.665 80.0769 220.681 99.8779 209.251Z" fill="#86B2FF"/>
<path d="M64.0412 218.633C50.3372 218.633 37.437 215.543 27.7214 209.932C17.8621 204.242 12.4404 196.629 12.4404 188.493C12.4404 180.358 17.856 172.772 27.6877 167.1C37.3758 161.504 50.2485 158.423 63.925 158.423C77.6014 158.423 90.5292 161.513 100.251 167.124C110.11 172.818 115.532 180.431 115.532 188.567C115.532 196.702 110.119 204.284 100.288 209.96C90.5964 215.556 77.7207 218.633 64.0412 218.633ZM63.9158 160.055C50.5205 160.055 37.9382 163.06 28.4946 168.512C19.1916 173.885 14.0663 180.981 14.0663 188.493C14.0663 196.005 19.2068 203.129 28.5374 208.517C38.0115 213.988 50.6184 216.998 64.0412 216.998C77.464 216.998 90.0188 213.994 99.4685 208.542C108.772 203.172 113.897 196.076 113.897 188.563C113.897 181.051 108.753 173.927 99.4226 168.539C89.9454 163.069 77.3355 160.055 63.9158 160.055Z" fill="#141414"/>
<path d="M63.9786 226.407C63.8712 226.407 63.7649 226.386 63.6657 226.345C63.5665 226.304 63.4764 226.243 63.4006 226.167C63.3248 226.091 63.2647 226.001 63.2239 225.901C63.1831 225.802 63.1623 225.696 63.1627 225.588V218.669C63.1558 218.558 63.1719 218.446 63.2099 218.341C63.2479 218.236 63.307 218.14 63.3836 218.058C63.4602 217.977 63.5527 217.912 63.6553 217.868C63.7579 217.823 63.8684 217.8 63.9802 217.8C64.092 217.8 64.2026 217.823 64.3052 217.868C64.4078 217.912 64.5002 217.977 64.5767 218.058C64.6533 218.14 64.7125 218.236 64.7504 218.341C64.7884 218.446 64.8046 218.558 64.7978 218.669V225.588C64.7978 225.696 64.7765 225.802 64.7354 225.902C64.6942 226.001 64.6339 226.091 64.5578 226.167C64.4817 226.243 64.3915 226.304 64.2921 226.345C64.1927 226.386 64.0862 226.407 63.9786 226.407ZM76.6509 225.94C76.4337 225.94 76.2253 225.853 76.0717 225.7C75.9181 225.546 75.8318 225.338 75.8318 225.12V218.122C75.8318 217.905 75.9181 217.697 76.0717 217.543C76.2253 217.39 76.4337 217.303 76.6509 217.303C76.8681 217.303 77.0764 217.39 77.2301 217.543C77.3837 217.697 77.4699 217.905 77.4699 218.122V225.12C77.4683 225.337 77.3813 225.543 77.2279 225.696C77.0745 225.848 76.8671 225.933 76.6509 225.933V225.94ZM82.4258 224.436C82.3187 224.436 82.2126 224.415 82.1136 224.374C82.0146 224.333 81.9246 224.273 81.8488 224.197C81.7731 224.121 81.7129 224.031 81.6719 223.932C81.6309 223.833 81.6099 223.727 81.6099 223.62V216.481C81.603 216.37 81.6191 216.258 81.6571 216.153C81.6951 216.048 81.7542 215.951 81.8308 215.87C81.9074 215.789 81.9998 215.724 82.1024 215.679C82.205 215.635 82.3156 215.612 82.4273 215.612C82.5391 215.612 82.6497 215.635 82.7523 215.679C82.8549 215.724 82.9474 215.789 83.0239 215.87C83.1005 215.951 83.1596 216.048 83.1976 216.153C83.2356 216.258 83.2517 216.37 83.2449 216.481V223.62C83.2425 223.836 83.1551 224.042 83.0018 224.193C82.8484 224.345 82.6415 224.43 82.4258 224.43V224.436Z" fill="#141414"/>
<path d="M23.2175 198.003C23.0036 197.884 22.7682 197.783 22.5604 197.661C6.41758 188.339 6.40234 173.18 22.5268 163.871C22.7499 163.746 22.9913 163.639 23.2175 163.514V198.003ZM57.2542 157.132C55.3197 156.983 53.3729 156.897 51.4261 156.906V204.647C53.3729 204.647 55.3197 204.577 57.2542 204.43V157.132ZM81.0528 163.893C77.5755 161.936 73.8712 160.414 70.023 159.36V202.22C73.8857 201.172 77.603 199.648 81.0895 197.682C97.2353 188.373 97.2017 173.214 81.0528 163.893Z" fill="white"/>
<path d="M48.0503 189.183C49.4643 188.368 50.1926 187.479 50.2354 186.518C50.2782 185.558 49.6547 184.25 48.3772 182.594C45.7856 179.586 44.4195 177.039 44.2789 174.953C44.1383 172.867 45.6481 170.907 48.8082 169.073C51.7177 167.394 55.0438 166.563 58.7866 166.579C62.575 166.606 66.3103 167.471 69.7248 169.113L75.2657 165.916L79.3854 168.294L73.7681 171.536C76.4453 173.574 77.6678 175.679 77.4355 177.853C77.2033 180.027 75.4663 182.019 72.2247 183.828L72.0414 183.871L64.6606 179.586C66.5432 178.495 67.5579 177.416 67.7168 176.337C67.8757 175.259 67.182 174.281 65.6447 173.394C64.206 172.505 62.5403 172.053 60.8496 172.092C59.2627 172.164 57.7178 172.625 56.3509 173.434C55.0184 174.204 54.346 175.036 54.3185 175.94C54.291 176.845 54.9114 178.183 56.1705 179.968C58.7642 182.9 60.11 185.435 60.2078 187.572C60.3056 189.709 58.7846 191.684 55.6449 193.495C52.5998 195.24 49.1353 196.118 45.6267 196.035C41.8547 195.972 38.1417 195.088 34.7467 193.443L29.652 196.389L25.5322 194.005L30.6269 191.068C27.6074 188.984 25.9845 186.775 25.7584 184.443C25.5322 182.11 27.2987 179.897 31.0578 177.804L31.2871 177.762L38.6494 182.01C36.4388 183.285 35.4037 184.508 35.5443 185.677C35.6788 186.845 36.614 187.92 38.3438 188.92C39.866 189.849 41.6065 190.361 43.3896 190.402C45.0245 190.422 46.6346 190.001 48.0503 189.183Z" fill="#141414"/>
<path d="M111.266 169.871C111.266 162.38 106.291 154.896 96.3856 149.174C76.5571 137.729 44.4304 137.717 24.6385 149.15C14.7334 154.871 9.78847 162.368 9.80375 169.871V178.596C9.82208 186.087 14.7823 193.572 24.6813 199.293C44.5068 210.741 76.6366 210.75 96.4315 199.317C106.337 193.599 111.278 186.099 111.266 178.596V169.871Z" fill="white"/>
<path d="M60.5939 208.702C46.89 208.702 33.9898 205.613 24.2742 200.001C14.4332 194.32 8.99321 186.719 8.99321 178.608V169.88C8.97487 161.75 14.3874 154.137 24.2374 148.45C33.9256 142.854 46.7983 139.773 60.4747 139.773C74.1512 139.773 87.0789 142.863 96.8006 148.474C106.642 154.155 112.082 161.756 112.082 169.867V178.596C112.082 186.728 106.681 194.341 96.8372 200.026C87.1491 205.622 74.2735 208.702 60.5939 208.702ZM60.4686 141.399C47.0733 141.399 34.491 144.403 25.0474 149.855C15.7291 155.24 10.6038 162.346 10.6222 169.867V178.571C10.6405 186.108 15.7779 193.207 25.0901 198.586C34.5643 204.054 47.1712 207.067 60.5939 207.067C74.0167 207.067 86.5715 204.063 96.0213 198.611C105.337 193.229 110.462 186.123 110.45 178.596V169.87C110.431 162.358 105.291 155.259 95.9754 149.883C86.4981 144.412 73.8883 141.399 60.4686 141.399Z" fill="#141414"/>
<path d="M111.266 178.596V169.87C111.266 162.38 106.29 154.895 96.385 149.174C92.3451 146.891 88.0514 145.09 83.5918 143.807V204.693C88.0677 203.414 92.3764 201.609 96.4278 199.317C106.336 193.599 111.293 186.099 111.266 178.596Z" fill="#0962FF"/>
<path d="M83.5926 205.512C83.3756 205.511 83.1677 205.425 83.0142 205.271C82.8608 205.118 82.7742 204.91 82.7734 204.693V143.807C82.7729 143.68 82.8022 143.555 82.859 143.441C82.9157 143.327 82.9983 143.228 83.1002 143.151C83.202 143.075 83.3203 143.023 83.4456 143.001C83.5709 142.979 83.6998 142.986 83.8218 143.022C88.3443 144.323 92.6985 146.15 96.7953 148.465C106.636 154.147 112.076 161.747 112.076 169.858V178.587C112.076 186.719 106.676 194.332 96.8319 200.017C92.722 202.341 88.352 204.171 83.8126 205.469C83.7415 205.493 83.6675 205.507 83.5926 205.512ZM84.4085 144.911V203.59C88.4512 202.363 92.346 200.693 96.0221 198.611C105.337 193.229 110.463 186.123 110.45 178.596V169.871C110.432 162.359 105.291 155.259 95.9762 149.883C92.3115 147.806 88.4292 146.138 84.3994 144.911H84.4085Z" fill="#141414"/>
<path d="M96.4307 190.589C116.229 179.159 116.207 160.611 96.3848 149.168C76.5623 137.726 44.4296 137.711 24.6377 149.144C4.84579 160.577 4.85806 179.119 24.6805 190.561C44.503 202.004 76.6296 202.025 96.4307 190.589Z" fill="#86B2FF"/>
<path d="M60.5939 199.977C46.8899 199.977 33.9897 196.887 24.2741 191.276C14.4148 185.585 8.99316 177.972 8.99316 169.837C8.99316 161.701 14.4087 154.116 24.2405 148.444C33.9286 142.848 46.8013 139.767 60.4777 139.767C74.1542 139.767 87.0819 142.857 96.8036 148.468C106.663 154.162 112.085 161.775 112.085 169.91C112.085 178.046 106.672 185.628 96.8403 191.304C87.1491 196.896 74.2734 199.977 60.5939 199.977ZM60.4685 141.399C47.0733 141.399 34.491 144.403 25.0473 149.856C15.7443 155.228 10.6191 162.325 10.6191 169.837C10.6191 177.349 15.7595 184.473 25.0901 189.861C34.5643 195.329 47.1711 198.342 60.5939 198.342C74.0167 198.342 86.5715 195.338 96.0212 189.886C105.324 184.513 110.449 177.419 110.449 169.907C110.449 162.395 105.306 155.268 95.9753 149.883C86.4981 144.413 73.8883 141.399 60.4685 141.399Z" fill="#141414"/>
<path d="M31.9442 184.914C31.7303 184.797 31.4949 184.697 31.2871 184.574C15.1443 175.253 15.126 160.094 31.2535 150.785C31.4736 150.657 31.7181 150.55 31.9442 150.427V184.914ZM65.981 144.046C64.0464 143.896 62.0965 143.811 60.1528 143.82V191.558C62.0965 191.558 64.0464 191.487 65.981 191.344V144.046ZM89.7796 150.806C86.3029 148.847 82.5971 147.324 78.7467 146.274V189.131C82.6104 188.084 86.3288 186.561 89.8162 184.596C105.947 175.287 105.928 160.128 89.7796 150.806Z" fill="white"/>
<path d="M56.7734 176.096C58.1884 175.283 58.9127 174.391 58.9616 173.428C59.0105 172.465 58.3809 171.16 57.1034 169.504C54.5118 166.497 53.1457 163.95 53.0051 161.863C52.8645 159.777 54.3743 157.818 57.5344 155.986C60.4439 154.31 63.769 153.477 67.5098 153.489C71.2987 153.519 75.0346 154.384 78.4509 156.023L83.9918 152.829L88.1115 155.207L82.4943 158.45C85.1715 160.487 86.394 162.593 86.1617 164.767C85.9294 166.941 84.1976 168.931 80.9662 170.739L80.7828 170.781L73.396 166.509C75.2786 165.418 76.2933 164.342 76.4522 163.263C76.6111 162.184 75.9173 161.206 74.377 160.32C72.9392 159.431 71.2748 158.978 69.5849 159.015C67.9984 159.089 66.4539 159.549 65.0862 160.357C63.7537 161.13 63.0783 161.958 63.0538 162.863C63.0294 163.767 63.6467 165.109 64.9089 166.894C67.5026 169.824 68.8473 172.358 68.9431 174.498C69.0389 176.637 67.5179 178.611 64.3802 180.421C61.3354 182.166 57.8705 183.043 54.362 182.957C50.5902 182.896 46.8772 182.013 43.482 180.369L38.3873 183.312L34.2676 180.931L39.3622 177.991C36.3427 175.907 34.7199 173.698 34.4937 171.365C34.2676 169.032 36.0341 166.821 39.7932 164.73L40.0224 164.684L47.3847 168.932C45.172 170.206 44.137 171.428 44.2797 172.6C44.4223 173.771 45.3554 174.852 47.0791 175.842C48.6012 176.775 50.3435 177.286 52.1279 177.325C53.7587 177.34 55.3636 176.916 56.7734 176.096Z" fill="#141414"/>
<path d="M65.1448 208.586C65.0371 208.587 64.9304 208.566 64.8309 208.525C64.7313 208.484 64.6409 208.423 64.5647 208.347C64.4886 208.271 64.4282 208.181 64.3872 208.081C64.3462 207.982 64.3253 207.875 64.3257 207.767V199.042C64.3189 198.93 64.335 198.819 64.373 198.713C64.411 198.608 64.4701 198.512 64.5467 198.431C64.6233 198.349 64.7157 198.284 64.8183 198.24C64.9209 198.196 65.0315 198.173 65.1433 198.173C65.2551 198.173 65.3656 198.196 65.4682 198.24C65.5708 198.284 65.6633 198.349 65.7398 198.431C65.8164 198.512 65.8755 198.608 65.9135 198.713C65.9515 198.819 65.9676 198.93 65.9608 199.042V207.767C65.9608 207.984 65.8749 208.192 65.722 208.345C65.5691 208.499 65.3615 208.586 65.1448 208.586ZM74.3653 207.618C74.1486 207.617 73.9411 207.53 73.7881 207.377C73.6352 207.223 73.5493 207.015 73.5493 206.798V198.073C73.5425 197.961 73.5585 197.85 73.5965 197.745C73.6345 197.639 73.6937 197.543 73.7702 197.462C73.8468 197.38 73.9393 197.316 74.0419 197.271C74.1445 197.227 74.2551 197.204 74.3669 197.204C74.4786 197.204 74.5892 197.227 74.6918 197.271C74.7944 197.316 74.8868 197.38 74.9634 197.462C75.04 197.543 75.0991 197.639 75.1371 197.745C75.1751 197.85 75.1912 197.961 75.1844 198.073V206.786C75.1852 206.894 75.1646 207.001 75.1238 207.102C75.083 207.202 75.0228 207.293 74.9467 207.369C74.8705 207.446 74.7799 207.507 74.6802 207.548C74.5804 207.59 74.4734 207.611 74.3653 207.611V207.618ZM78.9802 206.725C78.8727 206.725 78.7664 206.704 78.6672 206.663C78.568 206.622 78.4779 206.561 78.4021 206.485C78.3262 206.409 78.2662 206.319 78.2254 206.219C78.1845 206.12 78.1638 206.013 78.1642 205.906V197.058C78.1574 196.947 78.1734 196.835 78.2114 196.73C78.2494 196.625 78.3085 196.529 78.3851 196.447C78.4617 196.366 78.5541 196.301 78.6567 196.257C78.7593 196.212 78.8699 196.189 78.9817 196.189C79.0934 196.189 79.2041 196.212 79.3067 196.257C79.4093 196.301 79.5017 196.366 79.5783 196.447C79.6549 196.529 79.714 196.625 79.752 196.73C79.79 196.835 79.806 196.947 79.7992 197.058V205.906C79.7976 206.122 79.7106 206.329 79.5572 206.481C79.4037 206.634 79.1963 206.719 78.9802 206.719V206.725Z" fill="#141414"/>
<path d="M102.54 156.784C102.521 149.293 97.564 141.809 87.6528 136.087C67.8304 124.639 35.7159 124.627 15.9118 136.06C6.00672 141.781 1.06179 149.281 1.08013 156.784V165.509C1.08013 172.997 6.05566 180.485 15.9577 186.206C35.7802 197.651 67.9129 197.66 87.7018 186.23C97.6099 180.509 102.552 173.009 102.54 165.509V156.784Z" fill="white"/>
<path d="M51.8675 195.616C38.1605 195.616 25.2786 192.526 15.5447 186.915C5.70679 181.234 0.278999 173.63 0.263718 165.522V156.796C0.245381 148.664 5.65793 141.054 15.508 135.363C25.1962 129.77 38.0688 126.69 51.7452 126.69C65.4217 126.69 78.3341 129.777 88.065 135.391C97.909 141.069 103.346 148.67 103.361 156.784V165.513C103.361 173.645 97.9609 181.258 88.1139 186.943C78.4196 192.535 65.547 195.616 51.8675 195.616ZM51.7422 128.313C38.3469 128.313 25.7646 131.317 16.3209 136.769C7.00263 142.151 1.88047 149.26 1.89575 156.781V165.482C1.91409 173.019 7.05149 180.118 16.3637 185.497C25.8379 190.968 38.4447 193.978 51.8675 193.978C65.2903 193.978 77.8451 190.977 87.2918 185.521C96.6101 180.143 101.735 173.037 101.72 165.51V156.784C101.72 149.269 96.5643 142.172 87.246 136.794C77.7718 131.323 65.1619 128.313 51.7422 128.313Z" fill="#141414"/>
<path d="M102.541 165.509V156.784C102.523 149.293 97.5656 141.808 87.6544 136.087C83.6174 133.8 79.3243 131.997 74.8643 130.717V191.606C79.3399 190.326 83.6485 188.522 87.7003 186.23C97.6115 180.503 102.553 173.009 102.541 165.509Z" fill="#0962FF"/>
<path d="M74.8629 192.422C74.6465 192.422 74.439 192.336 74.2859 192.183C74.1329 192.03 74.0469 191.823 74.0469 191.606V130.718C74.047 130.591 74.0766 130.466 74.1334 130.352C74.1901 130.239 74.2725 130.14 74.3739 130.064C74.4764 129.988 74.5951 129.936 74.7207 129.913C74.8463 129.891 74.9755 129.897 75.0983 129.932C79.6194 131.233 83.9718 133.061 88.0657 135.378C97.9096 141.057 103.347 148.657 103.362 156.772V165.5C103.362 173.633 97.9616 181.246 88.1145 186.93C84.0056 189.254 79.6366 191.084 75.0983 192.382C75.0221 192.407 74.9429 192.42 74.8629 192.422ZM75.682 131.821V190.5C79.7255 189.274 83.6205 187.603 87.2955 185.518C96.6138 180.139 101.739 173.034 101.724 165.506V156.781C101.724 149.266 96.568 142.169 87.2497 136.79C83.5872 134.716 79.7081 133.049 75.682 131.821Z" fill="#141414"/>
<path d="M87.7013 177.505C107.502 166.075 107.481 147.53 87.6524 136.088C67.8238 124.645 35.7155 124.627 15.9114 136.06C-3.89269 147.493 -3.8682 166.035 15.9573 177.481C35.7828 188.926 67.8942 188.935 87.7013 177.505Z" fill="#86B2FF"/>
<path d="M51.8694 186.891C38.1624 186.891 25.2805 183.801 15.5466 178.19C5.69036 172.499 0.265625 164.883 0.265625 156.751C0.265625 148.618 5.68123 141.03 15.513 135.357C25.2011 129.764 38.0737 126.684 51.7502 126.684C65.4266 126.684 78.3391 129.771 88.07 135.385C97.9323 141.075 103.351 148.691 103.351 156.827C103.351 164.963 97.9384 172.545 88.1066 178.22C78.4215 183.81 65.5489 186.891 51.8694 186.891ZM51.7441 128.313C38.3488 128.313 25.7665 131.317 16.3229 136.769C7.01982 142.142 1.8946 149.235 1.8946 156.751C1.8946 164.266 7.03506 171.387 16.3656 176.772C25.8398 182.242 38.4466 185.256 51.8694 185.256C65.2922 185.256 77.847 182.251 87.2937 176.796C96.5967 171.426 101.722 164.333 101.722 156.821C101.722 149.309 96.5815 142.182 87.2479 136.794C77.7737 131.323 65.1638 128.313 51.7441 128.313Z" fill="#141414"/>
<path d="M23.2175 171.827C23.0036 171.711 22.7682 171.607 22.5604 171.485C6.41758 162.163 6.40234 147.004 22.5268 137.695C22.7499 137.57 22.9913 137.463 23.2175 137.338V171.827ZM57.2542 130.956C55.3197 130.807 53.3729 130.721 51.4261 130.73V178.471C53.3729 178.471 55.3197 178.401 57.2542 178.257V130.956ZM81.0528 137.717C77.5793 135.761 73.8792 134.239 70.0352 133.184V176.044C73.8973 174.996 77.6145 173.472 81.1017 171.509C97.2353 162.2 97.2017 147.038 81.0528 137.717Z" fill="white"/>
<path d="M48.0514 163.006C49.4654 162.191 50.1937 161.303 50.2365 160.341C50.2793 159.382 49.6558 158.074 48.3783 156.417C45.7867 153.41 44.4206 150.863 44.28 148.777C44.1425 146.68 45.6523 144.727 48.8093 142.897C51.7188 141.218 55.0449 140.386 58.7877 140.403C62.5752 140.422 66.3116 141.279 69.7289 142.912L75.2698 139.715L79.3896 142.093L73.7692 145.357C76.4464 147.394 77.6689 149.5 77.4366 151.674C77.2043 153.848 75.4674 155.84 72.2258 157.649L72.0425 157.692L64.6587 153.431C66.5413 152.34 67.5559 151.261 67.7149 150.183C67.8738 149.104 67.18 148.126 65.6428 147.239C64.204 146.351 62.5383 145.898 60.8476 145.938C59.2607 146.009 57.7159 146.47 56.3489 147.279C55.0164 148.049 54.3441 148.881 54.3166 149.785C54.2891 150.69 54.9094 152.028 56.1686 153.813C58.7623 156.743 60.1081 159.279 60.2059 161.42C60.3037 163.562 58.7826 165.535 55.6429 167.34C52.5984 169.086 49.1335 169.965 45.6247 169.88C41.8527 169.817 38.1397 168.933 34.7447 167.288L29.6501 170.234L25.5303 167.853L30.625 164.913C27.6055 162.829 25.9827 160.62 25.7565 158.288C25.5303 155.955 27.2968 153.742 31.0559 151.65L31.2851 151.607L38.6475 155.855C36.4368 157.13 35.4018 158.353 35.5424 159.522C35.6829 160.692 36.6161 161.773 38.3419 162.765C39.864 163.694 41.6046 164.206 43.3876 164.247C45.0258 164.263 46.6376 163.834 48.0514 163.006Z" fill="#141414"/>
<path d="M56.4152 195.497C56.1985 195.496 55.991 195.409 55.838 195.256C55.6851 195.102 55.5992 194.894 55.5992 194.678V185.955C55.5924 185.844 55.6084 185.732 55.6464 185.627C55.6844 185.522 55.7435 185.426 55.8201 185.344C55.8967 185.263 55.9891 185.198 56.0917 185.154C56.1943 185.109 56.305 185.086 56.4167 185.086C56.5285 185.086 56.6391 185.109 56.7417 185.154C56.8443 185.198 56.9367 185.263 57.0133 185.344C57.0899 185.426 57.149 185.522 57.187 185.627C57.225 185.732 57.2411 185.844 57.2343 185.955V194.678C57.2343 194.895 57.1479 195.103 56.9943 195.257C56.8407 195.411 56.6324 195.497 56.4152 195.497ZM65.6418 194.513C65.4246 194.513 65.2162 194.426 65.0626 194.273C64.909 194.119 64.8227 193.911 64.8227 193.694V184.968C64.8355 184.76 64.9272 184.565 65.0791 184.422C65.231 184.279 65.4317 184.199 65.6403 184.199C65.8489 184.199 66.0495 184.279 66.2015 184.422C66.3534 184.565 66.4451 184.76 66.4578 184.968V193.694C66.459 193.802 66.4389 193.909 66.3984 194.009C66.358 194.109 66.2981 194.201 66.2223 194.278C66.1464 194.355 66.056 194.416 65.9564 194.458C65.8568 194.5 65.7499 194.522 65.6418 194.522V194.513ZM70.2536 193.62C70.1462 193.621 70.0397 193.6 69.9404 193.559C69.841 193.518 69.7507 193.458 69.6746 193.382C69.5985 193.307 69.5381 193.217 69.4969 193.117C69.4557 193.018 69.4346 192.912 69.4346 192.804V183.941C69.4346 183.724 69.5208 183.516 69.6744 183.362C69.828 183.209 70.0364 183.122 70.2536 183.122C70.4708 183.122 70.6791 183.209 70.8328 183.362C70.9864 183.516 71.0726 183.724 71.0726 183.941V192.804C71.0759 192.914 71.0571 193.023 71.0174 193.125C70.9777 193.227 70.9178 193.32 70.8414 193.398C70.765 193.477 70.6736 193.539 70.5726 193.581C70.4716 193.624 70.3631 193.645 70.2536 193.645V193.62Z" fill="#141414"/>
<path d="M111.266 143.694C111.266 136.207 106.291 128.719 96.3856 122.998C76.5571 111.552 44.4304 111.54 24.6385 122.973C14.7334 128.695 9.78847 136.191 9.80375 143.694V152.42C9.82208 159.91 14.7823 167.395 24.6813 173.116C44.5068 184.565 76.6366 184.574 96.4315 173.144C106.337 167.423 111.278 159.923 111.266 152.42V143.694Z" fill="white"/>
<path d="M60.5939 182.529C46.89 182.529 33.9898 179.437 24.2742 173.825C14.4332 168.144 8.99321 160.543 8.99321 152.432V143.704C8.97487 135.574 14.3874 127.961 24.2374 122.274C33.9256 116.678 46.7983 113.597 60.4747 113.597C74.1512 113.597 87.0789 116.687 96.8006 122.298C106.642 127.979 112.082 135.58 112.082 143.691V152.42C112.082 160.552 106.681 168.165 96.8372 173.85C87.1491 179.446 74.2735 182.529 60.5939 182.529ZM60.4686 115.223C47.0733 115.223 34.491 118.227 25.0474 123.679C15.7291 129.064 10.6038 136.17 10.6222 143.691V152.386C10.6405 159.923 15.7779 167.022 25.0901 172.401C34.5643 177.872 47.1712 180.882 60.5939 180.882C74.0167 180.882 86.5715 177.878 96.0213 172.426C105.337 167.044 110.462 159.938 110.45 152.414V143.685C110.431 136.173 105.291 129.074 95.9754 123.698C86.4981 118.236 73.8883 115.223 60.4686 115.223Z" fill="#141414"/>
<path d="M111.266 152.42V143.694C111.266 136.207 106.29 128.719 96.385 122.998C92.3451 120.715 88.0514 118.913 83.5918 117.631V178.516C88.0671 177.237 92.3757 175.434 96.4278 173.144C106.336 167.422 111.293 159.923 111.266 152.42Z" fill="#0962FF"/>
<path d="M83.5926 179.336C83.4156 179.335 83.2433 179.278 83.1005 179.174C82.999 179.097 82.9167 178.998 82.8599 178.884C82.8032 178.77 82.7736 178.644 82.7734 178.517V117.631C82.7729 117.504 82.8022 117.378 82.859 117.264C82.9157 117.151 82.9983 117.051 83.1002 116.975C83.202 116.899 83.3203 116.847 83.4456 116.825C83.5709 116.802 83.6998 116.81 83.8218 116.846C88.3443 118.147 92.6985 119.973 96.7953 122.289C106.636 127.97 112.076 135.571 112.076 143.682V152.411C112.076 160.543 106.676 168.156 96.8319 173.841C92.7233 176.167 88.3529 177.997 83.8126 179.293C83.7415 179.317 83.6675 179.331 83.5926 179.336ZM84.3994 118.735V177.413C88.4421 176.186 92.3369 174.515 96.0129 172.432C105.328 167.05 110.453 159.944 110.441 152.42V143.691C110.423 136.179 105.282 129.08 95.9671 123.704C92.3052 121.628 88.4259 119.962 84.3994 118.735Z" fill="#141414"/>
<path d="M96.4307 164.418C116.229 152.988 116.207 134.44 96.3848 122.998C76.5623 111.555 44.4296 111.54 24.6377 122.973C4.84579 134.407 4.85806 152.948 24.6805 164.391C44.503 175.833 76.6296 175.848 96.4307 164.418Z" fill="#86B2FF"/>
<path d="M60.5939 173.801C46.8899 173.801 33.9897 170.711 24.2741 165.1C14.4148 159.409 8.99316 151.796 8.99316 143.661C8.99316 135.525 14.4087 127.94 24.2405 122.267C33.9286 116.672 46.8013 113.591 60.4777 113.591C74.1542 113.591 87.0819 116.681 96.8036 122.292C106.663 127.986 112.085 135.599 112.085 143.734C112.085 151.87 106.672 159.452 96.8403 165.127C87.1491 170.723 74.2734 173.801 60.5939 173.801ZM60.4685 115.223C47.0733 115.223 34.491 118.227 25.0473 123.679C15.7443 129.052 10.6191 136.149 10.6191 143.661C10.6191 151.173 15.7595 158.297 25.0901 163.685C34.5643 169.155 47.1711 172.166 60.5939 172.166C74.0167 172.166 86.5715 169.162 96.0212 163.709C105.324 158.34 110.449 151.243 110.449 143.731C110.449 136.219 105.306 129.095 95.9753 123.707C86.4981 118.236 73.8883 115.223 60.4685 115.223Z" fill="#141414"/>
<path d="M60.5333 181.575C60.4259 181.575 60.3196 181.554 60.2204 181.512C60.1212 181.471 60.0311 181.411 59.9553 181.335C59.8795 181.259 59.8194 181.168 59.7786 181.069C59.7378 180.97 59.7169 180.863 59.7173 180.756V173.837C59.7105 173.726 59.7266 173.614 59.7646 173.509C59.8026 173.404 59.8617 173.307 59.9383 173.226C60.0149 173.144 60.1074 173.08 60.21 173.035C60.3126 172.991 60.4231 172.968 60.5349 172.968C60.6467 172.968 60.7572 172.991 60.8598 173.035C60.9624 173.08 61.0549 173.144 61.1314 173.226C61.208 173.307 61.2671 173.404 61.3051 173.509C61.3431 173.614 61.3593 173.726 61.3524 173.837V180.756C61.3524 180.863 61.3312 180.97 61.2901 181.069C61.2489 181.168 61.1885 181.259 61.1125 181.335C61.0364 181.411 60.9462 181.471 60.8468 181.512C60.7474 181.554 60.6409 181.575 60.5333 181.575ZM73.2056 181.107C72.9884 181.107 72.78 181.021 72.6264 180.867C72.4728 180.714 72.3865 180.505 72.3865 180.288V173.29C72.3865 173.073 72.4728 172.864 72.6264 172.711C72.78 172.557 72.9884 172.471 73.2056 172.471C73.4228 172.471 73.6311 172.557 73.7847 172.711C73.9383 172.864 74.0246 173.073 74.0246 173.29V180.288C74.023 180.504 73.936 180.711 73.7826 180.863C73.6291 181.016 73.4218 181.101 73.2056 181.101V181.107ZM78.9805 179.604C78.8734 179.604 78.7673 179.582 78.6683 179.541C78.5693 179.5 78.4793 179.44 78.4035 179.364C78.3278 179.289 78.2676 179.199 78.2266 179.1C78.1856 179.001 78.1645 178.895 78.1645 178.787V171.649C78.1577 171.537 78.1738 171.426 78.2118 171.32C78.2498 171.215 78.3089 171.119 78.3855 171.038C78.4621 170.956 78.5545 170.891 78.6571 170.847C78.7597 170.803 78.8702 170.78 78.982 170.78C79.0938 170.78 79.2044 170.803 79.307 170.847C79.4096 170.891 79.502 170.956 79.5786 171.038C79.6552 171.119 79.7143 171.215 79.7523 171.32C79.7903 171.426 79.8064 171.537 79.7996 171.649V178.787C79.7971 179.003 79.7098 179.209 79.5565 179.361C79.4031 179.512 79.1962 179.597 78.9805 179.597V179.604Z" fill="#141414"/>
<path d="M169.714 284.034C169.696 276.543 164.739 269.059 154.828 263.338C135.005 251.892 102.891 251.88 83.0866 263.313C73.1815 269.034 68.2366 276.531 68.2549 284.034V292.759C68.2549 300.25 73.2305 307.735 83.1325 313.456C102.955 324.904 135.088 324.914 154.877 313.48C164.785 307.759 169.727 300.262 169.714 292.759V284.034Z" fill="white"/>
<path d="M119.043 322.866C105.336 322.866 92.4544 319.776 82.7204 314.165C72.8826 308.483 67.4548 300.882 67.4395 292.771V284.043C67.4212 275.913 72.8337 268.3 82.6838 262.613C92.3719 257.017 105.245 253.936 118.921 253.936C132.597 253.936 145.51 257.026 155.241 262.637C165.085 268.319 170.522 275.92 170.537 284.031V292.759C170.537 300.895 165.137 308.505 155.29 314.189C145.595 319.785 132.723 322.866 119.043 322.866ZM118.918 255.562C105.523 255.562 92.9404 258.567 83.4967 264.019C74.1784 269.404 69.0563 276.509 69.0715 284.031V292.735C69.0899 300.271 74.2273 307.371 83.5395 312.747C93.0137 318.217 105.621 321.231 119.043 321.231C132.466 321.231 145.021 318.226 154.468 312.774C163.786 307.395 168.911 300.287 168.896 292.759V284.034C168.896 276.522 163.74 269.422 154.422 264.046C144.948 258.576 132.338 255.562 118.918 255.562Z" fill="#141414"/>
<path d="M169.715 292.759V284.034C169.697 276.543 164.739 269.059 154.828 263.338C150.791 261.051 146.498 259.249 142.038 257.968V318.856C146.514 317.578 150.823 315.773 154.874 313.48C164.785 307.759 169.727 300.275 169.715 292.759Z" fill="#0962FF"/>
<path d="M142.039 319.675C141.863 319.674 141.692 319.617 141.55 319.513C141.448 319.436 141.366 319.337 141.309 319.223C141.252 319.109 141.223 318.983 141.223 318.856V257.967C141.222 257.84 141.252 257.714 141.309 257.6C141.366 257.487 141.449 257.388 141.552 257.312C141.654 257.236 141.772 257.185 141.898 257.163C142.023 257.141 142.152 257.148 142.274 257.185C146.794 258.485 151.145 260.311 155.238 262.628C165.082 268.309 170.519 275.91 170.535 284.021V292.75C170.535 300.885 165.134 308.495 155.287 314.18C151.179 316.505 146.81 318.335 142.271 319.632C142.196 319.657 142.118 319.672 142.039 319.675ZM142.858 259.071V317.749C146.901 316.525 150.796 314.855 154.471 312.771C163.79 307.392 168.915 300.283 168.9 292.756V284.031C168.9 276.518 163.744 269.419 154.425 264.043C150.763 261.967 146.884 260.3 142.858 259.071Z" fill="#141414"/>
<path d="M154.877 304.755C174.678 293.325 174.657 274.78 154.828 263.337C135 251.895 102.891 251.88 83.0872 263.313C63.2831 274.746 63.3076 293.288 83.1331 304.73C102.959 316.173 135.07 316.188 154.877 304.755Z" fill="#86B2FF"/>
<path d="M119.043 314.14C105.336 314.14 92.4544 311.05 82.7204 305.439C72.8642 299.748 67.4395 292.132 67.4395 284C67.4395 275.867 72.8551 268.279 82.6868 262.606C92.3749 257.011 105.248 253.93 118.924 253.93C132.6 253.93 145.513 257.02 155.244 262.631C165.106 268.322 170.525 275.938 170.525 284.073C170.525 292.209 165.112 299.791 155.28 305.466C145.595 311.059 132.723 314.14 119.043 314.14ZM118.918 255.562C105.523 255.562 92.9403 258.566 83.4967 264.018C74.1936 269.391 69.0684 276.488 69.0684 284C69.0684 291.512 74.2089 298.636 83.5394 304.024C93.0136 309.491 105.62 312.505 119.043 312.505C132.466 312.505 145.021 309.501 154.468 304.048C163.771 298.676 168.896 291.582 168.896 284.07C168.896 276.558 163.755 269.431 154.422 264.046C144.948 258.575 132.338 255.562 118.918 255.562Z" fill="#141414"/>
<path d="M90.3933 299.076C90.1793 298.96 89.944 298.859 89.7362 298.737C73.5934 289.416 73.5781 274.257 89.7026 264.948C89.9257 264.819 90.1671 264.712 90.3933 264.59V299.076ZM124.43 258.206C122.495 258.059 120.549 257.974 118.602 257.98V305.72C120.549 305.72 122.495 305.65 124.43 305.506V258.206ZM148.229 264.969C144.752 263.011 141.048 261.487 137.199 260.434V303.294C141.061 302.245 144.778 300.722 148.265 298.758C164.411 289.449 164.378 274.297 148.229 264.969Z" fill="white"/>
<path d="M115.225 290.26C116.639 289.445 117.368 288.555 117.41 287.592C117.453 286.632 116.83 285.324 115.552 283.667C112.961 280.66 111.594 278.113 111.454 276.027C111.313 273.941 112.823 271.982 115.983 270.15C118.893 268.469 122.219 267.637 125.962 267.653C129.75 267.68 133.485 268.545 136.9 270.187L142.441 266.993L146.56 269.371L140.943 272.61C143.62 274.648 144.843 276.754 144.61 278.93C144.378 281.106 142.641 283.097 139.4 284.902L139.216 284.945L131.833 280.685C133.715 279.593 134.73 278.518 134.889 277.439C135.048 276.36 134.354 275.382 132.817 274.496C131.378 273.607 129.712 273.154 128.021 273.191C126.435 273.264 124.89 273.725 123.523 274.532C122.19 275.306 121.518 276.134 121.49 277.038C121.463 277.943 122.083 279.282 123.342 281.07C125.936 284.002 127.282 286.536 127.38 288.673C127.477 290.811 125.956 292.785 122.817 294.596C119.771 296.34 116.307 297.217 112.799 297.133C109.027 297.072 105.314 296.188 101.919 294.544L96.8239 297.487L92.7041 295.107L97.7988 292.167C94.7793 290.082 93.1565 287.874 92.9303 285.541C92.7042 283.208 94.4706 280.995 98.2297 278.903L98.4589 278.86L105.821 283.108C103.611 284.384 102.576 285.606 102.716 286.775C102.857 287.945 103.79 289.026 105.516 290.018C107.037 290.95 108.778 291.461 110.561 291.5C112.199 291.515 113.811 291.086 115.225 290.26Z" fill="#141414"/>
<path d="M123.59 322.75C123.373 322.749 123.166 322.662 123.013 322.509C122.86 322.355 122.774 322.147 122.774 321.931V313.205C122.767 313.094 122.783 312.982 122.821 312.877C122.859 312.772 122.918 312.676 122.995 312.594C123.072 312.513 123.164 312.448 123.267 312.404C123.369 312.359 123.48 312.336 123.592 312.336C123.703 312.336 123.814 312.359 123.916 312.404C124.019 312.448 124.111 312.513 124.188 312.594C124.265 312.676 124.324 312.772 124.362 312.877C124.4 312.982 124.416 313.094 124.409 313.205V321.931C124.409 322.148 124.323 322.356 124.169 322.51C124.016 322.664 123.807 322.75 123.59 322.75ZM132.817 321.781C132.6 321.781 132.392 321.695 132.239 321.542C132.085 321.389 131.998 321.182 131.998 320.965V312.24C131.991 312.128 132.007 312.016 132.045 311.911C132.083 311.806 132.142 311.71 132.218 311.628C132.295 311.547 132.388 311.482 132.49 311.438C132.593 311.393 132.703 311.371 132.815 311.371C132.927 311.371 133.037 311.393 133.14 311.438C133.243 311.482 133.335 311.547 133.412 311.628C133.488 311.71 133.547 311.806 133.585 311.911C133.623 312.016 133.639 312.128 133.633 312.24V320.965C133.629 321.18 133.542 321.384 133.39 321.535C133.237 321.686 133.031 321.771 132.817 321.772V321.781ZM137.428 320.892C137.211 320.892 137.003 320.805 136.849 320.652C136.696 320.498 136.609 320.29 136.609 320.073V311.21C136.609 310.992 136.696 310.784 136.849 310.631C137.003 310.477 137.211 310.391 137.428 310.391C137.646 310.391 137.854 310.477 138.008 310.631C138.161 310.784 138.247 310.992 138.247 311.21V320.073C138.245 320.288 138.158 320.494 138.004 320.646C137.851 320.797 137.644 320.883 137.428 320.883V320.892Z" fill="#141414"/>
<path d="M169.714 270.935C169.696 263.447 164.739 255.96 154.828 250.238C135.005 238.793 102.891 238.781 83.0866 250.214C73.1815 255.935 68.2366 263.435 68.2549 270.935V279.663C68.2549 287.151 73.2305 294.639 83.1325 300.36C102.955 311.805 135.088 311.814 154.877 300.384C164.785 294.663 169.727 287.163 169.714 279.663V270.935Z" fill="white"/>
<path d="M119.043 309.78C105.336 309.78 92.4544 306.687 82.7204 301.075C72.8826 295.397 67.4548 287.793 67.4395 279.682V270.935C67.4212 262.806 72.8337 255.196 82.6838 249.505C92.3719 243.913 105.245 240.829 118.921 240.829C132.597 240.829 145.51 243.919 155.241 249.533C165.085 255.211 170.522 262.812 170.537 270.926V279.655C170.537 287.787 165.137 295.397 155.29 301.085C145.595 306.693 132.723 309.78 119.043 309.78ZM118.918 242.476C105.523 242.476 92.9404 245.477 83.4967 250.933C74.1784 256.315 69.0563 263.423 69.0715 270.945V279.646C69.0899 287.182 74.2273 294.282 83.5395 299.66C93.0137 305.131 105.621 308.141 119.043 308.141C132.466 308.141 145.021 305.14 154.468 299.685C163.786 294.306 168.911 287.197 168.896 279.673V270.935C168.896 263.423 163.74 256.324 154.422 250.948C144.948 245.486 132.338 242.476 118.918 242.476Z" fill="#141414"/>
<path d="M169.715 279.673V270.935C169.697 263.447 164.739 255.96 154.828 250.239C150.79 247.953 146.498 246.152 142.038 244.872V305.776C146.514 304.496 150.822 302.691 154.874 300.4C164.785 294.672 169.727 287.173 169.715 279.673Z" fill="#0962FF"/>
<path d="M142.039 306.586C141.822 306.586 141.615 306.5 141.462 306.347C141.309 306.194 141.223 305.986 141.223 305.77V244.881C141.223 244.754 141.252 244.628 141.31 244.514C141.367 244.4 141.449 244.301 141.552 244.225C141.654 244.149 141.772 244.098 141.897 244.075C142.023 244.053 142.152 244.06 142.274 244.096C146.795 245.396 151.148 247.224 155.241 249.542C165.085 255.22 170.522 262.821 170.538 270.935V279.664C170.538 287.796 165.137 295.406 155.29 301.094C151.181 303.416 146.812 305.246 142.274 306.546C142.198 306.57 142.119 306.584 142.039 306.586ZM142.858 245.985V304.663C146.901 303.437 150.796 301.767 154.471 299.682C163.79 294.303 168.915 287.194 168.9 279.67V270.935C168.9 263.423 163.744 256.324 154.425 250.948C150.763 248.875 146.884 247.211 142.858 245.985Z" fill="#141414"/>
<path d="M154.877 291.668C174.678 280.238 174.657 261.693 154.828 250.248C135 238.802 102.891 238.79 83.0872 250.223C63.2831 261.657 63.3076 280.198 83.1331 291.644C102.959 303.089 135.07 303.098 154.877 291.668Z" fill="#86B2FF"/>
<path d="M119.043 301.054C105.336 301.054 92.4544 297.961 82.7204 292.353C72.8642 286.659 67.4395 279.046 67.4395 270.913C67.4395 262.781 72.8551 255.189 82.6868 249.52C92.3749 243.927 105.248 240.844 118.924 240.844C132.6 240.844 145.513 243.933 155.244 249.548C165.106 255.238 170.525 262.851 170.525 270.987C170.525 279.122 165.112 286.708 155.28 292.38C145.595 297.97 132.723 301.054 119.043 301.054ZM118.918 242.476C105.523 242.476 92.9403 245.477 83.4967 250.932C74.1936 256.305 69.0684 263.398 69.0684 270.913C69.0684 278.429 74.2089 285.55 83.5394 290.935C93.0136 296.405 105.62 299.415 119.043 299.415C132.466 299.415 145.021 296.414 154.468 290.959C163.771 285.589 168.896 278.493 168.896 270.981C168.896 263.469 163.755 256.345 154.422 250.957C144.948 245.486 132.338 242.476 118.918 242.476Z" fill="#141414"/>
<path d="M90.3933 285.99C90.1793 285.871 89.944 285.77 89.7362 285.648C73.5934 276.326 73.5781 261.168 89.7026 251.859C89.9257 251.733 90.1671 251.626 90.3933 251.501V285.99ZM124.43 245.12C122.495 244.97 120.549 244.884 118.602 244.893V292.634C120.549 292.634 122.495 292.564 124.43 292.417V245.12ZM148.229 251.88C144.751 249.924 141.047 248.401 137.199 247.348V290.208C141.061 289.159 144.779 287.635 148.265 285.669C164.411 276.36 164.378 261.201 148.229 251.88Z" fill="white"/>
<path d="M115.226 277.17C116.64 276.355 117.368 275.467 117.411 274.505C117.454 273.545 116.831 272.237 115.553 270.581C112.961 267.573 111.595 265.027 111.455 262.94C111.314 260.854 112.824 258.894 115.984 257.06C118.893 255.381 122.22 254.55 125.962 254.566C129.751 254.593 133.486 255.459 136.901 257.1L142.441 253.903L146.561 256.281L140.944 259.523C143.621 261.561 144.844 263.667 144.611 265.841C144.379 268.014 142.642 270.006 139.4 271.815L139.217 271.858L131.836 267.573C133.719 266.482 134.734 265.404 134.893 264.325C135.052 263.246 134.358 262.268 132.82 261.382C131.382 260.493 129.716 260.04 128.025 260.08C126.438 260.151 124.894 260.612 123.527 261.421C122.194 262.191 121.522 263.023 121.494 263.927C121.467 264.832 122.087 266.171 123.346 267.955C125.94 270.887 127.286 273.422 127.384 275.559C127.481 277.697 125.96 279.671 122.821 281.482C119.776 283.227 116.311 284.105 112.802 284.022C109.03 283.96 105.317 283.075 101.922 281.43L96.8278 284.376L92.708 281.993L97.8027 279.055C94.7832 276.971 93.1603 274.763 92.9342 272.43C92.708 270.097 94.4745 267.884 98.2336 265.792L98.4628 265.749L105.825 269.997C103.615 271.272 102.58 272.495 102.72 273.664C102.855 274.832 103.79 275.908 105.52 276.907C107.042 277.837 108.782 278.348 110.565 278.389C112.2 278.409 113.81 277.988 115.226 277.17Z" fill="#141414"/>
<path d="M128.206 309.302C127.989 309.302 127.782 309.215 127.629 309.061C127.476 308.908 127.39 308.7 127.39 308.483V299.755C127.383 299.643 127.399 299.532 127.437 299.426C127.475 299.321 127.535 299.225 127.611 299.144C127.688 299.062 127.78 298.997 127.883 298.953C127.985 298.909 128.096 298.886 128.208 298.886C128.319 298.886 128.43 298.909 128.533 298.953C128.635 298.997 128.728 299.062 128.804 299.144C128.881 299.225 128.94 299.321 128.978 299.426C129.016 299.532 129.032 299.643 129.025 299.755V308.48C129.025 308.588 129.004 308.694 128.963 308.794C128.922 308.893 128.861 308.983 128.785 309.059C128.709 309.136 128.619 309.196 128.52 309.237C128.42 309.278 128.314 309.299 128.206 309.299V309.302ZM132.818 308.691C132.601 308.691 132.392 308.605 132.239 308.451C132.085 308.298 131.999 308.089 131.999 307.872V299.147C132.012 298.939 132.103 298.743 132.255 298.6C132.407 298.457 132.608 298.378 132.816 298.378C133.025 298.378 133.226 298.457 133.378 298.6C133.53 298.743 133.621 298.939 133.634 299.147V307.872C133.632 308.088 133.546 308.294 133.393 308.446C133.24 308.598 133.034 308.684 132.818 308.685V308.691ZM137.43 307.799C137.213 307.799 137.005 307.713 136.852 307.56C136.698 307.407 136.612 307.199 136.611 306.983V298.12C136.611 297.903 136.697 297.694 136.851 297.541C137.004 297.387 137.213 297.301 137.43 297.301C137.647 297.301 137.855 297.387 138.009 297.541C138.162 297.694 138.249 297.903 138.249 298.12V306.983C138.246 307.198 138.159 307.404 138.006 307.556C137.852 307.708 137.645 307.793 137.43 307.793V307.799Z" fill="#141414"/>
<path d="M178.44 257.858C178.44 250.367 173.465 242.883 163.559 237.161C143.731 225.716 111.604 225.704 91.8123 237.137C81.9072 242.858 76.9623 250.355 76.9776 257.858V266.583C76.9959 274.074 81.9562 281.559 91.8552 287.28C111.681 298.728 143.81 298.738 163.605 287.304C173.51 281.586 178.452 274.086 178.44 266.583V257.858Z" fill="white"/>
<path d="M127.77 296.689C114.066 296.689 101.166 293.6 91.4499 287.988C81.609 282.307 76.169 274.706 76.169 266.595V257.867C76.1507 249.737 81.5631 242.124 91.4132 236.437C101.101 230.841 113.974 227.76 127.65 227.76C141.327 227.76 154.255 230.85 163.976 236.461C173.817 242.143 179.257 249.743 179.257 257.854V266.583C179.257 274.715 173.857 282.328 164.013 288.013C154.325 293.609 141.449 296.689 127.77 296.689ZM127.644 229.386C114.249 229.386 101.667 232.39 92.2232 237.842C82.9048 243.227 77.7796 250.333 77.798 257.854V266.558C77.8163 274.095 82.9537 281.195 92.2659 286.573C101.74 292.041 114.347 295.054 127.77 295.054C141.193 295.054 153.747 292.05 163.197 286.598C172.512 281.216 177.638 274.11 177.625 266.583V257.857C177.607 250.345 172.466 243.246 163.151 237.87C153.674 232.399 141.064 229.386 127.644 229.386Z" fill="#141414"/>
<path d="M178.441 266.583V257.857C178.441 250.367 173.466 242.882 163.561 237.161C159.521 234.878 155.227 233.077 150.768 231.794V292.68C155.243 291.401 159.552 289.596 163.604 287.304C173.512 281.586 178.469 274.086 178.441 266.583Z" fill="#0962FF"/>
<path d="M150.766 293.499C150.549 293.498 150.341 293.412 150.188 293.258C150.035 293.105 149.948 292.897 149.947 292.68V231.795C149.947 231.667 149.976 231.542 150.033 231.428C150.09 231.314 150.172 231.215 150.274 231.138C150.376 231.062 150.494 231.011 150.619 230.988C150.745 230.966 150.874 230.973 150.996 231.009C155.518 232.31 159.872 234.137 163.969 236.452C173.81 242.134 179.25 249.734 179.25 257.846V266.574C179.25 274.706 173.85 282.319 164.006 288.004C159.896 290.328 155.526 292.158 150.986 293.456C150.915 293.48 150.841 293.494 150.766 293.499ZM151.582 232.898V291.577C155.625 290.35 159.52 288.68 163.196 286.598C172.511 281.216 177.636 274.111 177.624 266.583V257.858C177.606 250.346 172.465 243.246 163.15 237.87C159.485 235.793 155.603 234.125 151.573 232.898H151.582Z" fill="#141414"/>
<path d="M163.606 278.575C183.404 267.145 183.383 248.597 163.561 237.155C143.738 225.713 111.605 225.697 91.8135 237.13C72.0216 248.564 72.0338 267.106 91.8563 278.548C111.679 289.99 143.805 290.012 163.606 278.575Z" fill="#86B2FF"/>
<path d="M127.77 287.964C114.066 287.964 101.166 284.874 91.4499 279.263C81.5906 273.573 76.1689 265.96 76.1689 257.824C76.1689 249.689 81.5845 242.103 91.4162 236.431C101.104 230.835 113.977 227.754 127.654 227.754C141.33 227.754 154.258 230.844 163.979 236.455C173.839 242.149 179.26 249.762 179.26 257.897C179.26 266.033 173.848 273.615 164.016 279.291C154.325 284.884 141.449 287.964 127.77 287.964ZM127.644 229.386C114.249 229.386 101.667 232.39 92.2231 237.843C82.9201 243.216 77.7949 250.312 77.7949 257.824C77.7949 265.336 82.9353 272.46 92.2659 277.848C101.74 283.316 114.347 286.329 127.77 286.329C141.192 286.329 153.747 283.325 163.197 277.873C172.5 272.5 177.625 265.406 177.625 257.894C177.625 250.382 172.482 243.255 163.151 237.87C153.674 232.4 141.064 229.386 127.644 229.386Z" fill="#141414"/>
<path d="M99.1181 272.9C98.9041 272.784 98.6688 272.683 98.4609 272.561C82.3181 263.24 82.2998 248.081 98.4274 238.772C98.6474 238.644 98.8919 238.537 99.1181 238.414V272.9ZM133.155 232.033C131.22 231.883 129.27 231.798 127.327 231.807V279.545C129.27 279.545 131.22 279.474 133.155 279.331V232.033ZM156.953 238.793C153.477 236.833 149.771 235.311 145.921 234.261V277.118C149.784 276.071 153.503 274.548 156.99 272.583C173.121 263.273 173.102 248.115 156.953 238.793Z" fill="white"/>
<path d="M123.948 264.083C125.363 263.27 126.088 262.378 126.136 261.415C126.185 260.453 125.556 259.148 124.278 257.491C121.687 254.484 120.32 251.937 120.18 249.851C120.039 247.764 121.549 245.805 124.709 243.974C127.619 242.297 130.944 241.465 134.685 241.477C138.474 241.506 142.209 242.372 145.626 244.01L151.167 240.817L155.286 243.194L149.669 246.437C152.346 248.474 153.569 250.58 153.336 252.754C153.104 254.928 151.372 256.919 148.141 258.726L147.958 258.769L140.571 254.496C142.453 253.405 143.468 252.329 143.627 251.25C143.786 250.172 143.092 249.194 141.552 248.307C140.114 247.419 138.45 246.965 136.76 247.002C135.173 247.076 133.629 247.537 132.261 248.344C130.929 249.117 130.253 249.946 130.229 250.85C130.204 251.755 130.822 253.096 132.084 254.881C134.677 257.811 136.022 260.346 136.118 262.485C136.214 264.624 134.693 266.599 131.555 268.408C128.51 270.153 125.045 271.031 121.537 270.945C117.765 270.883 114.052 270 110.657 268.356L105.562 271.299L101.442 268.918L106.537 265.978C103.518 263.894 101.895 261.685 101.669 259.352C101.442 257.02 103.209 254.808 106.968 252.717L107.197 252.672L114.56 256.92C112.347 258.193 111.312 259.416 111.454 260.587C111.597 261.759 112.53 262.84 114.254 263.83C115.776 264.762 117.518 265.273 119.303 265.312C120.934 265.328 122.538 264.903 123.948 264.083Z" fill="#141414"/>
<path d="M132.322 296.574C132.214 296.574 132.107 296.553 132.008 296.512C131.908 296.471 131.818 296.411 131.741 296.335C131.665 296.259 131.605 296.168 131.564 296.068C131.523 295.969 131.502 295.862 131.503 295.755V287.029C131.496 286.918 131.512 286.806 131.55 286.701C131.588 286.596 131.647 286.499 131.723 286.418C131.8 286.337 131.892 286.272 131.995 286.227C132.098 286.183 132.208 286.16 132.32 286.16C132.432 286.16 132.542 286.183 132.645 286.227C132.748 286.272 132.84 286.337 132.917 286.418C132.993 286.499 133.052 286.596 133.09 286.701C133.128 286.806 133.144 286.918 133.138 287.029V295.755C133.138 295.971 133.052 296.179 132.899 296.333C132.746 296.486 132.538 296.573 132.322 296.574ZM141.542 295.605C141.325 295.604 141.118 295.517 140.965 295.364C140.812 295.21 140.726 295.002 140.726 294.786V286.06C140.719 285.949 140.735 285.837 140.773 285.732C140.811 285.627 140.87 285.531 140.947 285.449C141.024 285.368 141.116 285.303 141.219 285.259C141.321 285.214 141.432 285.191 141.544 285.191C141.655 285.191 141.766 285.214 141.869 285.259C141.971 285.303 142.064 285.368 142.14 285.449C142.217 285.531 142.276 285.627 142.314 285.732C142.352 285.837 142.368 285.949 142.361 286.06V294.774C142.362 294.882 142.341 294.989 142.301 295.089C142.26 295.189 142.2 295.28 142.123 295.357C142.047 295.433 141.957 295.494 141.857 295.536C141.757 295.577 141.65 295.599 141.542 295.599V295.605ZM146.157 294.712C146.05 294.712 145.943 294.691 145.844 294.65C145.745 294.609 145.655 294.548 145.579 294.472C145.503 294.396 145.443 294.306 145.402 294.207C145.361 294.107 145.341 294.001 145.341 293.893V285.046C145.334 284.934 145.35 284.822 145.388 284.717C145.426 284.612 145.485 284.516 145.562 284.434C145.638 284.353 145.731 284.288 145.833 284.244C145.936 284.199 146.047 284.177 146.158 284.177C146.27 284.177 146.381 284.199 146.483 284.244C146.586 284.288 146.678 284.353 146.755 284.434C146.832 284.516 146.891 284.612 146.929 284.717C146.967 284.822 146.983 284.934 146.976 285.046V293.893C146.974 294.11 146.887 294.316 146.734 294.469C146.58 294.621 146.373 294.706 146.157 294.706V294.712Z" fill="#141414"/>
<path d="M169.714 244.771C169.696 237.28 164.739 229.796 154.828 224.074C135.005 212.626 102.891 212.614 83.0866 224.047C73.1815 229.768 68.2366 237.268 68.2549 244.771V253.496C68.2549 260.984 73.2305 268.472 83.1325 274.193C102.955 285.638 135.088 285.648 154.877 274.217C164.785 268.496 169.727 260.996 169.714 253.496V244.771Z" fill="white"/>
<path d="M119.043 283.603C105.336 283.603 92.4544 280.513 82.7204 274.902C72.8826 269.221 67.4548 261.617 67.4395 253.509V244.784C67.4212 236.651 72.8337 229.041 82.6838 223.35C92.3719 217.758 105.245 214.677 118.921 214.677C132.597 214.677 145.51 217.764 155.241 223.378C165.085 229.056 170.522 236.657 170.537 244.771V253.5C170.537 261.632 165.137 269.245 155.29 274.93C145.595 280.523 132.723 283.603 119.043 283.603ZM118.918 216.3C105.523 216.3 92.9404 219.304 83.4967 224.756C74.1784 230.138 69.0563 237.247 69.0715 244.768V253.469C69.0899 261.006 74.2273 268.105 83.5395 273.484C93.0137 278.955 105.621 281.965 119.043 281.965C132.466 281.965 145.021 278.964 154.468 273.509C163.786 268.13 168.911 261.024 168.896 253.497V244.771C168.896 237.256 163.74 230.16 154.422 224.781C144.948 219.31 132.338 216.3 118.918 216.3Z" fill="#141414"/>
<path d="M169.715 253.496V244.771C169.697 237.28 164.739 229.795 154.828 224.074C150.791 221.787 146.498 219.984 142.038 218.704V279.593C146.514 278.313 150.822 276.509 154.874 274.217C164.785 268.49 169.727 260.996 169.715 253.496Z" fill="#0962FF"/>
<path d="M142.039 280.409C141.822 280.409 141.615 280.323 141.462 280.17C141.309 280.017 141.223 279.81 141.223 279.593V218.705C141.223 218.578 141.252 218.453 141.309 218.339C141.366 218.226 141.448 218.127 141.55 218.051C141.652 217.975 141.771 217.923 141.896 217.901C142.022 217.878 142.151 217.884 142.274 217.919C146.795 219.22 151.148 221.048 155.241 223.366C165.085 229.044 170.522 236.645 170.538 244.759V253.487C170.538 261.62 165.137 269.233 155.29 274.917C151.181 277.241 146.812 279.071 142.274 280.37C142.198 280.394 142.119 280.407 142.039 280.409ZM142.858 219.808V278.487C146.901 277.261 150.796 275.59 154.471 273.505C163.79 268.126 168.915 261.021 168.9 253.493V244.768C168.9 237.253 163.744 230.156 154.425 224.777C150.763 222.703 146.884 221.036 142.858 219.808Z" fill="#141414"/>
<path d="M154.877 265.492C174.678 254.062 174.657 235.517 154.828 224.075C135 212.632 102.891 212.614 83.0872 224.047C63.2831 235.48 63.3076 254.022 83.1331 265.468C102.959 276.913 135.07 276.922 154.877 265.492Z" fill="#86B2FF"/>
<path d="M119.043 274.877C105.336 274.877 92.4544 271.788 82.7204 266.176C72.8642 260.486 67.4395 252.87 67.4395 244.737C67.4395 236.605 72.8551 229.016 82.6868 223.344C92.3749 217.751 105.248 214.671 118.924 214.671C132.6 214.671 145.513 217.757 155.244 223.371C165.106 229.062 170.525 236.678 170.525 244.814C170.525 252.949 165.112 260.532 155.28 266.207C145.595 271.797 132.723 274.877 119.043 274.877ZM118.918 216.299C105.523 216.299 92.9403 219.304 83.4967 224.756C74.1936 230.129 69.0684 237.222 69.0684 244.737C69.0684 252.252 74.2089 259.373 83.5394 264.758C93.0136 270.229 105.62 273.242 119.043 273.242C132.466 273.242 145.021 270.238 154.468 264.783C163.771 259.413 168.896 252.32 168.896 244.808C168.896 237.295 163.755 230.168 154.422 224.78C144.948 219.31 132.338 216.299 118.918 216.299Z" fill="#141414"/>
<path d="M90.3933 259.814C90.1793 259.698 89.944 259.594 89.7362 259.472C73.5934 250.15 73.5781 234.992 89.7026 225.682C89.9257 225.557 90.1671 225.45 90.3933 225.325V259.814ZM124.43 218.943C122.495 218.794 120.549 218.708 118.602 218.717V266.458C120.549 266.458 122.495 266.388 124.43 266.244V218.943ZM148.229 225.704C144.755 223.748 141.055 222.226 137.211 221.171V264.031C141.073 262.983 144.79 261.459 148.277 259.496C164.411 250.187 164.378 235.025 148.229 225.704Z" fill="white"/>
<path d="M115.225 250.993C116.639 250.179 117.368 249.29 117.41 248.329C117.453 247.369 116.83 246.061 115.552 244.404C112.961 241.397 111.594 238.85 111.454 236.764C111.316 234.667 112.826 232.714 115.983 230.884C118.893 229.205 122.219 228.374 125.962 228.39C129.749 228.409 133.485 229.266 136.903 230.899L142.444 227.702L146.563 230.08L140.943 233.344C143.62 235.381 144.843 237.487 144.61 239.661C144.378 241.835 142.641 243.827 139.4 245.636L139.216 245.679L131.833 241.418C133.715 240.327 134.73 239.249 134.889 238.17C135.048 237.091 134.354 236.113 132.817 235.227C131.378 234.338 129.712 233.885 128.021 233.925C126.435 233.996 124.89 234.457 123.523 235.266C122.19 236.037 121.518 236.868 121.49 237.772C121.463 238.677 122.083 240.016 123.342 241.8C125.936 244.73 127.282 247.266 127.38 249.407C127.477 251.549 125.956 253.522 122.817 255.327C119.772 257.073 116.307 257.952 112.799 257.867C109.027 257.805 105.314 256.92 101.919 255.275L96.8239 258.221L92.7041 255.841L97.7988 252.901C94.7793 250.816 93.1565 248.608 92.9303 246.275C92.7042 243.942 94.4706 241.729 98.2297 239.637L98.4589 239.594L105.821 243.842C103.611 245.117 102.576 246.34 102.716 247.509C102.857 248.679 103.79 249.76 105.516 250.752C107.038 251.682 108.778 252.193 110.561 252.234C112.2 252.25 113.811 251.821 115.225 250.993Z" fill="#141414"/>
<path d="M123.59 283.484C123.373 283.483 123.166 283.396 123.013 283.243C122.86 283.089 122.774 282.881 122.774 282.665V273.942C122.767 273.831 122.783 273.719 122.821 273.614C122.859 273.509 122.918 273.412 122.995 273.331C123.072 273.25 123.164 273.185 123.267 273.14C123.369 273.096 123.48 273.073 123.592 273.073C123.703 273.073 123.814 273.096 123.916 273.14C124.019 273.185 124.111 273.25 124.188 273.331C124.265 273.412 124.324 273.509 124.362 273.614C124.4 273.719 124.416 273.831 124.409 273.942V282.665C124.409 282.882 124.323 283.09 124.169 283.244C124.016 283.397 123.807 283.484 123.59 283.484ZM132.817 282.5C132.599 282.5 132.391 282.413 132.237 282.26C132.084 282.106 131.998 281.898 131.998 281.681V272.955C132.01 272.747 132.102 272.551 132.254 272.408C132.406 272.266 132.607 272.186 132.815 272.186C133.024 272.186 133.224 272.266 133.376 272.408C133.528 272.551 133.62 272.747 133.633 272.955V281.681C133.634 281.789 133.614 281.896 133.573 281.996C133.533 282.096 133.473 282.188 133.397 282.265C133.321 282.342 133.231 282.403 133.131 282.445C133.032 282.487 132.925 282.508 132.817 282.509V282.5ZM137.428 281.607C137.321 281.608 137.215 281.587 137.115 281.546C137.016 281.505 136.925 281.445 136.849 281.369C136.773 281.293 136.713 281.203 136.672 281.104C136.631 281.005 136.609 280.899 136.609 280.791V271.928C136.609 271.711 136.696 271.503 136.849 271.349C137.003 271.195 137.211 271.109 137.428 271.109C137.646 271.109 137.854 271.195 138.008 271.349C138.161 271.503 138.247 271.711 138.247 271.928V280.791C138.251 280.901 138.232 281.01 138.192 281.112C138.152 281.214 138.093 281.307 138.016 281.385C137.94 281.464 137.848 281.526 137.747 281.568C137.646 281.61 137.538 281.632 137.428 281.632V281.607Z" fill="#141414"/>
<path d="M178.44 231.682C178.44 224.194 173.465 216.706 163.559 210.985C143.731 199.54 111.604 199.527 91.8123 210.961C81.9072 216.682 76.9623 224.179 76.9776 231.682V240.407C76.9959 247.898 81.9562 255.382 91.8552 261.104C111.681 272.552 143.81 272.561 163.605 261.131C173.51 255.41 178.452 247.91 178.44 240.407V231.682Z" fill="white"/>
<path d="M127.77 270.516C114.066 270.516 101.166 267.423 91.4499 261.812C81.609 256.131 76.169 248.53 76.169 240.419V231.69C76.1507 223.561 81.5631 215.948 91.4132 210.26C101.101 204.665 113.974 201.584 127.65 201.584C141.327 201.584 154.255 204.674 163.976 210.285C173.817 215.966 179.257 223.567 179.257 231.678V240.407C179.257 248.539 173.857 256.152 164.013 261.837C154.325 267.433 141.449 270.516 127.77 270.516ZM127.644 203.21C114.249 203.21 101.667 206.214 92.2232 211.666C82.9048 217.051 77.7796 224.157 77.798 231.678V240.373C77.8163 247.91 82.9537 255.009 92.2659 260.388C101.74 265.859 114.347 268.869 127.77 268.869C141.193 268.869 153.747 265.865 163.197 260.413C172.512 255.031 177.638 247.925 177.625 240.401V231.672C177.607 224.16 172.466 217.061 163.151 211.685C153.674 206.223 141.064 203.21 127.644 203.21Z" fill="#141414"/>
<path d="M178.441 240.407V231.681C178.441 224.194 173.466 216.706 163.561 210.985C159.521 208.702 155.227 206.9 150.768 205.618V266.503C155.243 265.224 159.551 263.421 163.604 261.131C173.512 255.409 178.469 247.91 178.441 240.407Z" fill="#0962FF"/>
<path d="M150.766 267.323C150.589 267.322 150.417 267.265 150.274 267.161C150.173 267.084 150.09 266.985 150.034 266.871C149.977 266.757 149.947 266.631 149.947 266.504V205.618C149.947 205.491 149.976 205.365 150.033 205.252C150.09 205.138 150.172 205.038 150.274 204.962C150.376 204.886 150.494 204.834 150.619 204.812C150.745 204.79 150.874 204.797 150.996 204.833C155.518 206.134 159.872 207.961 163.969 210.276C173.81 215.957 179.25 223.558 179.25 231.669V240.398C179.25 248.53 173.85 256.143 164.006 261.828C159.897 264.154 155.527 265.984 150.986 267.28C150.915 267.304 150.841 267.318 150.766 267.323ZM151.573 206.722V265.401C155.616 264.173 159.511 262.502 163.187 260.419C172.502 255.037 177.627 247.931 177.615 240.407V231.679C177.597 224.166 172.456 217.067 163.141 211.691C159.479 209.615 155.6 207.949 151.573 206.722Z" fill="#141414"/>
<path d="M163.606 252.406C183.404 240.975 183.383 222.427 163.561 210.985C143.738 199.543 111.605 199.527 91.8135 210.961C72.0216 222.394 72.0338 240.936 91.8563 252.378C111.679 263.82 143.805 263.836 163.606 252.406Z" fill="#86B2FF"/>
<path d="M127.77 261.788C114.066 261.788 101.166 258.699 91.4499 253.087C81.5906 247.397 76.1689 239.784 76.1689 231.648C76.1689 223.513 81.5845 215.927 91.4162 210.255C101.104 204.659 113.977 201.578 127.654 201.578C141.33 201.578 154.258 204.668 163.979 210.279C173.839 215.973 179.26 223.586 179.26 231.722C179.26 239.857 173.848 247.44 164.016 253.115C154.325 258.711 141.449 261.788 127.77 261.788ZM127.644 203.21C114.249 203.21 101.667 206.215 92.2231 211.667C82.9201 217.04 77.7949 224.136 77.7949 231.648C77.7949 239.16 82.9353 246.284 92.2659 251.672C101.74 257.143 114.347 260.153 127.77 260.153C141.192 260.153 153.747 257.149 163.197 251.697C172.5 246.327 177.625 239.231 177.625 231.719C177.625 224.206 172.482 217.082 163.151 211.694C153.674 206.224 141.064 203.21 127.644 203.21Z" fill="#141414"/>
<path d="M127.707 269.562C127.6 269.562 127.493 269.541 127.394 269.5C127.295 269.458 127.205 269.398 127.129 269.322C127.053 269.246 126.993 269.156 126.952 269.056C126.912 268.957 126.891 268.85 126.891 268.743V261.824C126.884 261.713 126.9 261.601 126.938 261.496C126.976 261.391 127.036 261.295 127.112 261.213C127.189 261.132 127.281 261.067 127.384 261.023C127.486 260.978 127.597 260.955 127.709 260.955C127.82 260.955 127.931 260.978 128.034 261.023C128.136 261.067 128.229 261.132 128.305 261.213C128.382 261.295 128.441 261.391 128.479 261.496C128.517 261.601 128.533 261.713 128.526 261.824V268.743C128.526 268.851 128.505 268.957 128.464 269.056C128.423 269.156 128.362 269.246 128.286 269.322C128.21 269.398 128.12 269.459 128.021 269.5C127.921 269.541 127.815 269.562 127.707 269.562ZM140.379 269.094C140.162 269.094 139.954 269.008 139.8 268.855C139.647 268.701 139.56 268.493 139.56 268.275V261.277C139.56 261.06 139.647 260.852 139.8 260.698C139.954 260.545 140.162 260.458 140.379 260.458C140.597 260.458 140.805 260.545 140.959 260.698C141.112 260.852 141.198 261.06 141.198 261.277V268.275C141.197 268.492 141.11 268.698 140.956 268.851C140.803 269.003 140.596 269.088 140.379 269.088V269.094ZM146.154 267.591C146.047 267.591 145.941 267.57 145.842 267.529C145.743 267.488 145.653 267.428 145.577 267.352C145.502 267.276 145.441 267.186 145.4 267.087C145.359 266.988 145.338 266.882 145.338 266.775V259.636C145.332 259.525 145.348 259.413 145.386 259.308C145.424 259.203 145.483 259.106 145.559 259.025C145.636 258.944 145.728 258.879 145.831 258.834C145.933 258.79 146.044 258.767 146.156 258.767C146.268 258.767 146.378 258.79 146.481 258.834C146.583 258.879 146.676 258.944 146.752 259.025C146.829 259.106 146.888 259.203 146.926 259.308C146.964 259.413 146.98 259.525 146.973 259.636V266.775C146.971 266.99 146.884 267.196 146.73 267.348C146.577 267.5 146.37 267.585 146.154 267.585V267.591Z" fill="#141414"/>
<path d="M108.658 330.707C102.869 340.929 94.9656 348.638 86.8995 352.855C78.8259 357.076 70.6808 357.763 64.2848 354.14C57.8887 350.518 54.2883 343.18 53.7562 334.085C53.2246 324.998 55.7709 314.255 61.5597 304.034C67.3486 293.812 75.2522 286.103 83.3184 281.886C91.392 277.665 99.537 276.979 105.933 280.601C112.329 284.223 115.93 291.562 116.462 300.656C116.993 309.743 114.447 320.486 108.658 330.707Z" fill="#0962FF" stroke="#141414" stroke-width="1.38788"/>
<mask id="path-122-inside-1_1247_4963" fill="white">
<path fill-rule="evenodd" clip-rule="evenodd" d="M71.6677 289.933C67.6383 293.848 63.9244 298.625 60.8179 304.11C49.1282 324.751 50.4654 347.608 63.8048 355.163C75.4349 361.749 92.3487 354.529 104.24 338.891L58.9953 309.325L71.6677 289.933Z"/>
</mask>
<path fill-rule="evenodd" clip-rule="evenodd" d="M71.6677 289.933C67.6383 293.848 63.9244 298.625 60.8179 304.11C49.1282 324.751 50.4654 347.608 63.8048 355.163C75.4349 361.749 92.3487 354.529 104.24 338.891L58.9953 309.325L71.6677 289.933Z" fill="#86B2FF"/>
<path d="M60.8179 304.11L62.0255 304.794L60.8179 304.11ZM71.6677 289.933L72.8296 290.692L70.7005 288.937L71.6677 289.933ZM63.8048 355.163L63.1208 356.37H63.1208L63.8048 355.163ZM104.24 338.891L105.344 339.731L106.247 338.545L104.999 337.729L104.24 338.891ZM58.9953 309.325L57.8335 308.566L57.0743 309.728L58.2361 310.487L58.9953 309.325ZM62.0255 304.794C65.0693 299.42 68.7032 294.749 72.635 290.928L70.7005 288.937C66.5734 292.948 62.7795 297.83 59.6102 303.426L62.0255 304.794ZM64.4887 353.955C58.3662 350.488 54.8346 343.414 54.3109 334.463C53.7882 325.528 56.2927 314.917 62.0255 304.794L59.6102 303.426C53.6534 313.945 50.9816 325.082 51.5399 334.625C52.0972 344.151 55.904 352.283 63.1208 356.37L64.4887 353.955ZM103.135 338.051C97.3104 345.711 90.2975 351.251 83.3983 354.077C76.4985 356.903 69.83 356.98 64.4887 353.955L63.1208 356.37C69.4097 359.932 77.0132 359.692 84.4505 356.645C91.8886 353.599 99.278 347.709 105.344 339.731L103.135 338.051ZM104.999 337.729L59.7545 308.163L58.2361 310.487L103.48 340.053L104.999 337.729ZM60.1571 310.084L72.8296 290.692L70.5059 289.174L57.8335 308.566L60.1571 310.084Z" fill="#141414" mask="url(#path-122-inside-1_1247_4963)"/>
<path d="M99.9977 327.047C94.0201 337.601 85.8589 345.562 77.5298 349.916C69.193 354.275 60.7825 354.984 54.178 351.243C47.5734 347.503 43.8557 339.925 43.3062 330.534C42.7573 321.151 45.3866 310.058 51.3641 299.504C57.3417 288.949 65.5029 280.989 73.832 276.634C82.1688 272.275 90.5793 271.567 97.1839 275.307C103.788 279.048 107.506 286.625 108.056 296.016C108.605 305.399 105.975 316.492 99.9977 327.047Z" fill="white" stroke="#141414" stroke-width="1.43311"/>
<path d="M94.4054 317.558C94.8892 316.698 95.1671 315.817 95.0844 315.012C95.0704 314.214 94.6525 313.545 94.0799 312.974C93.5073 312.403 92.6682 311.975 91.6567 311.756C93.5971 311.388 95.4961 310.617 97.1989 309.541C98.8587 308.518 100.142 307.228 100.859 305.994C103.93 301.532 100.266 299.561 94.4792 298.452L99.4787 292.369L94.7193 291.821L89.8491 297.746C88.6141 297.619 87.3106 297.484 86.0071 297.35L90.9204 291.372L86.161 290.823L81.1614 296.906C80.1323 296.8 79.1032 296.694 78.1427 296.594L71.5995 295.862L68.367 299.795C68.367 299.795 71.9777 300.111 71.866 300.156C72.5266 300.167 73.0834 300.395 73.3481 300.707C73.5698 301.071 73.568 301.526 73.2742 302.065L59.5001 318.733C59.3708 318.89 59.1728 319.04 58.9749 319.19C58.777 319.341 58.5105 319.484 58.2185 319.567C57.9951 319.658 57.7031 319.742 57.4541 319.773C57.2052 319.804 56.9994 319.783 56.725 319.755C56.7505 319.814 53.226 319.393 53.226 319.393L48.6451 323.699L54.8453 324.396C56.0117 324.516 57.1349 324.689 58.2326 324.803L53.19 330.938L57.9494 331.486L62.9489 325.403C64.2094 325.59 65.4443 325.718 66.7478 325.852L61.7914 331.883L66.5508 332.431L71.5935 326.296C79.9477 326.817 86.8234 325.877 92.2935 320.128C93.0772 319.355 93.8785 318.471 94.4054 317.558ZM82.4984 301.709C85.1741 301.985 94.1555 302.287 90.5783 306.639C87.1304 310.834 79.0971 309.379 76.3528 309.095L82.4984 301.709ZM66.5693 320.999L73.3183 312.878C76.5428 313.211 87.2825 313.637 83.3605 318.409C79.4991 323.016 69.8624 321.339 66.5693 320.999Z" fill="#141414"/>
<path d="M94.0999 336.866L101.529 342.316" stroke="#141414" stroke-width="1.00318"/>
<path d="M91.4403 339.841L98.6816 345.252" stroke="#141414" stroke-width="1.00318"/>
<path d="M124.681 370C107.333 370 93.2695 355.256 93.2695 337.068C93.2695 318.88 107.333 304.136 124.681 304.136C142.029 304.136 156.092 318.88 156.092 337.068C156.092 355.256 142.029 370 124.681 370Z" fill="#0962FF" stroke="#141414" stroke-width="0.775314" stroke-miterlimit="10"/>
<path d="M121.426 367.488C104.078 367.488 90.0146 352.744 90.0146 334.556C90.0146 316.368 104.078 301.624 121.426 301.624C138.774 301.624 152.837 316.368 152.837 334.556C152.837 352.744 138.774 367.488 121.426 367.488Z" fill="white" stroke="#141414" stroke-width="0.775314" stroke-miterlimit="10"/>
<path d="M108.391 342.343H113.528C113.528 345.117 117.047 347.481 121.234 347.481C125.421 347.481 128.941 345.117 128.941 342.343C128.941 339.517 126.269 338.49 120.618 337.128C115.172 335.767 108.391 334.072 108.391 326.93C108.391 322.332 112.167 318.428 117.381 317.118V311.518H125.087V317.118C130.302 318.428 134.078 322.332 134.078 326.93H128.941C128.941 324.156 125.421 321.793 121.234 321.793C117.047 321.793 113.528 324.156 113.528 326.93C113.528 329.756 116.2 330.784 121.851 332.145C127.297 333.506 134.078 335.202 134.078 342.343C134.078 346.941 130.302 350.846 125.087 352.156V357.756H117.381V352.156C112.167 350.846 108.391 346.941 108.391 342.343Z" fill="#141414"/>
<rect x="1.09369" width="31.5722" height="31.5722" rx="15.7861" transform="matrix(0.866025 -0.5 0.866025 0.5 33.4473 140.946)" fill="white" stroke="#0962FF" stroke-width="1.26289"/>
<rect width="9.0223" height="9.0223" rx="4.51115" transform="matrix(0.866025 -0.5 0.866025 0.5 53.9238 139.136)" fill="#141414"/>
<rect width="9.0223" height="9.0223" rx="4.51115" transform="matrix(0.866025 -0.5 0.866025 0.5 53.9238 135.348)" fill="#141414"/>
<rect x="56.2217" y="134.986" width="10.9871" height="5.05155" rx="0.757733" fill="#141414"/>
<rect x="60.6683" y="50.5894" width="2.09352" height="84.1813" fill="#86B2FF" stroke="#141414" stroke-width="0.43226"/>
<circle cx="61.7146" cy="45.5507" r="5.05155" fill="#0962FF"/>
<line x1="59.8213" y1="56.1825" x2="63.61" y2="56.1825" stroke="#0962FF" stroke-width="1.01031"/>
<line x1="59.8213" y1="91.5433" x2="63.61" y2="91.5433" stroke="#0962FF" stroke-width="1.01031"/>
<path d="M63.6094 91.7642V56.056C70.7657 60.6866 88.8671 68.5586 104.022 63.0019C119.176 57.4452 132.226 71.2107 136.857 78.788C134.542 78.1566 128.269 76.8937 121.702 76.8937C113.493 76.8937 104.653 83.2081 95.813 89.5226C88.7409 94.5741 71.3972 93.1218 63.6094 91.7642Z" fill="white"/>
</svg>
