<svg width="312" height="370" viewBox="0 0 312 370" fill="none" xmlns="http://www.w3.org/2000/svg">
<path d="M227.942 0L211.665 9.39808L220.037 23.8738L174.915 49.7989L115.495 13.2376L64.7072 42.4255L64.7258 42.4574L48.4326 51.8236L65.701 81.6706L108.998 56.795L168.413 93.3617L237.324 53.7686L245.718 68.2762L261.995 58.8782L263.961 18.5278L227.942 0Z" fill="#0962FF"/>
<path d="M48.6143 51.8722L99.215 22.7899L158.565 59.3099L158.633 59.3513L158.701 59.3119L220.122 24.026L220.238 23.9596L220.171 23.8443L212.006 9.7228L247.55 28.0046L245.607 67.8193L237.439 53.7018L237.373 53.5872L237.258 53.6531L168.415 93.2069L109.068 56.6816L109 56.6402L108.932 56.6796L65.7496 81.4891L48.6143 51.8722Z" fill="white" stroke="#141414" stroke-width="0.265708"/>
<path d="M99.2148 22.6356L115.489 13.2375L174.91 49.7989L158.63 59.197L99.2148 22.6356ZM263.954 18.5278L247.676 27.9259L245.707 68.2762L261.985 58.8781L263.954 18.5278Z" fill="#141414"/>
<path d="M245.716 68.9885C245.585 68.9874 245.457 68.9516 245.344 68.8848C245.235 68.8173 245.147 68.7222 245.087 68.6092C245.027 68.4963 244.999 68.3695 245.004 68.2418L246.975 27.8915C246.981 27.7726 247.016 27.657 247.078 27.5554C247.139 27.4537 247.226 27.3691 247.329 27.3096L263.606 17.9115C263.716 17.8478 263.842 17.815 263.97 17.8167C264.097 17.8184 264.222 17.8545 264.331 17.9211C264.44 17.9878 264.528 18.0825 264.588 18.1954C264.647 18.3082 264.675 18.4351 264.669 18.5625L262.703 58.9128C262.696 59.0318 262.661 59.1474 262.598 59.249C262.536 59.3506 262.45 59.4351 262.346 59.4947L246.067 68.8928C245.96 68.9551 245.839 68.9881 245.716 68.9885ZM248.373 28.3485L246.484 67.0089L261.294 58.4638L263.178 19.8007L248.373 28.3485ZM158.633 59.9066C158.502 59.9068 158.373 59.871 158.261 59.8029L98.8433 23.2416C98.7386 23.1768 98.6524 23.0859 98.5933 22.9779C98.5342 22.8699 98.5041 22.7483 98.5059 22.6252C98.5078 22.502 98.5416 22.3815 98.604 22.2753C98.6664 22.1691 98.7553 22.0809 98.8619 22.0193L115.136 12.6212C115.247 12.556 115.372 12.5216 115.501 12.5216C115.629 12.5216 115.754 12.556 115.865 12.6212L175.285 49.1826C175.39 49.2472 175.476 49.3379 175.535 49.4458C175.595 49.5537 175.625 49.6751 175.623 49.7983C175.622 49.9214 175.588 50.042 175.526 50.1484C175.464 50.2547 175.375 50.3431 175.269 50.4049L158.997 59.8109C158.886 59.8746 158.76 59.9076 158.633 59.9066ZM100.605 22.6544L158.646 58.3681L173.526 49.7805L115.479 14.0667L100.605 22.6544Z" fill="#141414"/>
<path d="M161.768 218.595L161.232 246.454L180.612 308.925L180.44 317.795L190.412 349.949L191.117 313.236L161.768 218.595Z" fill="white"/>
<path d="M162 202.101L161.77 209.093L274.6 262.875L274.829 255.883L162 202.101Z" fill="white"/>
<path d="M201.826 124.094V140.353L162 210.548L161.77 217.539L161.234 245.398L151.254 213.227L201.826 124.094Z" fill="white"/>
<path d="M214.684 110.859L164.114 199.989L276.94 253.772C284.931 245.028 291.043 235.167 294.752 224.411C311.02 177.259 275.784 129.164 214.684 110.859Z" fill="#86B2FF"/>
<path d="M203.936 113.538C197.923 111.739 191.818 110.26 185.648 109.109C172.269 106.613 158.657 105.593 145.056 106.066C87.9053 108.062 37.1859 136.345 22.7224 178.259C4.88424 229.937 48.9205 282.755 121.078 296.237C134.436 298.73 148.028 299.748 161.608 299.272C168.678 299.027 175.727 298.374 182.722 297.315L153.363 202.676L203.936 113.538Z" fill="white"/>
<path d="M163.883 206.981L193.23 301.62C227.292 296.442 257.472 281.836 276.712 260.759L163.883 206.981Z" fill="#0962FF"/>
<path d="M294.751 236.022C291.039 246.779 284.93 256.64 276.939 265.387L276.234 302.1C284.225 293.355 290.337 283.492 294.044 272.735C296.57 265.419 297.853 258.076 297.994 250.83C298.229 238.589 298.464 226.352 298.699 214.118C298.56 221.369 297.275 228.706 294.751 236.022Z" fill="#86B2FF"/>
<path d="M161.609 310.886C148.029 311.363 134.438 310.346 121.08 307.855C59.1447 296.287 17.9267 255.729 18.7717 211.793C18.5374 224.033 18.302 236.271 18.0655 248.505C17.2205 292.443 58.4385 332.997 120.372 344.568C133.731 347.059 147.322 348.077 160.903 347.603C167.972 347.355 175.02 346.7 182.013 345.638L182.718 308.926C175.726 309.986 168.677 310.641 161.609 310.886Z" fill="#0962FF"/>
<path d="M100.387 302.685C50.1479 286.813 18.0236 250.626 18.7717 211.792C18.5374 224.032 18.302 236.27 18.0655 248.504C17.3152 287.525 49.7414 323.873 100.387 339.627V302.685Z" fill="white"/>
<path d="M193.229 313.236L192.525 349.949C226.584 344.771 256.764 330.166 276.006 309.088L276.712 272.375C257.471 293.452 227.296 308.06 193.229 313.236Z" fill="#0962FF"/>
<path d="M276.941 260.635C276.863 260.635 276.785 260.617 276.714 260.583L163.885 206.801C163.819 206.77 163.761 206.726 163.713 206.671C163.665 206.616 163.629 206.552 163.608 206.483C163.586 206.414 163.579 206.341 163.587 206.268C163.595 206.196 163.618 206.127 163.655 206.064L214.224 116.934C214.284 116.83 214.377 116.75 214.488 116.706C214.598 116.662 214.721 116.656 214.835 116.689C249.923 127.202 277.627 148.014 290.841 173.789C300.274 192.187 301.799 211.944 295.248 230.92C291.592 241.513 285.562 251.453 277.327 260.467C277.278 260.52 277.218 260.563 277.152 260.591C277.085 260.62 277.014 260.635 276.941 260.635ZM164.851 206.092L276.816 259.463C284.819 250.632 290.686 240.916 294.254 230.571C300.706 211.874 299.202 192.406 289.902 174.272C276.867 148.85 249.56 128.291 214.936 117.823L164.851 206.092Z" fill="#141414"/>
<path d="M276.234 297.346C276.164 297.346 276.094 297.333 276.029 297.306C275.964 297.279 275.906 297.239 275.857 297.189C275.807 297.138 275.769 297.079 275.743 297.014C275.718 296.948 275.705 296.878 275.707 296.808L276.411 260.097C276.415 259.969 276.464 259.847 276.55 259.751C284.689 250.847 290.645 241.028 294.252 230.571C296.688 223.573 298.011 216.235 298.172 208.827C298.174 208.689 298.231 208.558 298.329 208.461C298.428 208.364 298.56 208.31 298.698 208.31H298.709C298.779 208.312 298.847 208.327 298.91 208.354C298.974 208.382 299.031 208.422 299.08 208.472C299.128 208.522 299.165 208.581 299.191 208.645C299.216 208.71 299.228 208.779 299.227 208.848L298.52 245.558C298.379 252.968 297.04 260.394 294.542 267.625C290.89 278.222 284.859 288.163 276.623 297.174C276.574 297.228 276.514 297.271 276.447 297.301C276.38 297.331 276.307 297.346 276.234 297.346ZM277.462 260.315L276.789 295.412C284.444 286.789 290.078 277.332 293.544 267.283C296.006 260.156 297.325 252.84 297.464 245.538L297.939 220.917C297.278 224.309 296.379 227.651 295.25 230.917C291.614 241.453 285.632 251.342 277.462 260.315Z" fill="#141414"/>
<path d="M155.133 306.247C143.677 306.247 132.246 305.19 120.985 303.09C79.1343 295.268 45.5326 274.284 28.795 245.51C17.4406 225.99 15.1688 204.866 22.2276 184.42C29.2864 163.974 44.9795 146.216 67.619 133.071C89.4741 120.382 116.969 112.853 145.039 111.872C158.678 111.401 172.329 112.425 185.746 114.924C191.934 116.08 198.057 117.563 204.09 119.366C204.165 119.389 204.235 119.429 204.293 119.482C204.352 119.536 204.397 119.601 204.427 119.675C204.456 119.748 204.469 119.828 204.463 119.907C204.458 119.986 204.435 120.063 204.397 120.132L153.938 209.066L183.227 303.49C183.249 303.563 183.255 303.639 183.245 303.715C183.235 303.79 183.209 303.862 183.168 303.926C183.128 303.991 183.075 304.046 183.011 304.088C182.948 304.13 182.877 304.158 182.802 304.17C175.789 305.232 168.721 305.887 161.633 306.133C159.476 306.21 157.29 306.247 155.133 306.247ZM151.524 112.815C149.383 112.815 147.214 112.854 145.077 112.926C86.3121 114.977 37.3434 143.847 23.2258 184.759C16.2716 204.905 18.5126 225.728 29.7084 244.972C46.0471 273.06 80.2426 294.399 121.18 302.047C134.5 304.527 148.052 305.542 161.593 305.072C168.438 304.834 175.263 304.212 182.038 303.21L152.862 209.154C152.841 209.085 152.834 209.013 152.842 208.941C152.85 208.869 152.872 208.8 152.907 208.737L203.154 120.182C197.363 118.475 191.489 117.065 185.555 115.955C174.332 113.865 162.94 112.814 151.524 112.815Z" fill="#141414"/>
<path d="M154.43 342.96C142.973 342.959 131.54 341.903 120.277 339.803C90.5012 334.239 63.8789 321.443 45.3137 303.771C26.9874 286.329 17.1236 264.821 17.539 243.212L18.2452 206.501C18.2447 206.431 18.2584 206.362 18.2855 206.298C18.3126 206.234 18.3525 206.175 18.4028 206.127C18.4531 206.079 18.5128 206.041 18.5781 206.017C18.6435 205.992 18.7131 205.981 18.7828 205.984C18.8522 205.986 18.9207 206 18.9844 206.028C19.048 206.056 19.1056 206.096 19.1538 206.146C19.202 206.196 19.2399 206.255 19.2653 206.319C19.2907 206.384 19.3031 206.453 19.3017 206.522C18.8908 227.831 28.6389 249.06 46.7481 266.298C65.1669 283.83 91.6008 296.529 121.178 302.056C134.498 304.536 148.05 305.55 161.592 305.081C168.641 304.837 175.67 304.184 182.644 303.126C182.72 303.115 182.797 303.12 182.871 303.142C182.945 303.163 183.014 303.201 183.072 303.251C183.13 303.302 183.176 303.365 183.207 303.435C183.238 303.505 183.254 303.582 183.253 303.659L182.545 340.373C182.543 340.497 182.496 340.616 182.414 340.71C182.332 340.803 182.219 340.864 182.096 340.883C175.082 341.944 168.012 342.601 160.923 342.848C158.77 342.922 156.586 342.96 154.43 342.96ZM19.0704 218.528L18.5955 243.232C18.1857 264.543 27.9327 285.771 46.043 303.009C64.4618 320.54 90.8956 333.238 120.472 338.766C133.793 341.245 147.346 342.259 160.888 341.788C167.789 341.548 174.671 340.918 181.501 339.901L182.186 304.26C175.375 305.268 168.513 305.893 161.631 306.133C148.012 306.605 134.383 305.585 120.986 303.09C91.2107 297.529 64.5874 284.73 46.0232 267.063C31.1057 252.862 21.7972 235.975 19.0704 218.528Z" fill="#141414"/>
<path d="M193.228 308.486C193.115 308.486 193.006 308.449 192.916 308.382C192.825 308.316 192.759 308.221 192.726 308.114L163.375 213.475C163.345 213.377 163.344 213.272 163.372 213.173C163.4 213.074 163.457 212.986 163.534 212.919C163.612 212.852 163.708 212.809 163.81 212.795C163.912 212.782 164.015 212.798 164.108 212.843L276.939 266.619C277.013 266.655 277.078 266.708 277.128 266.773C277.179 266.838 277.213 266.914 277.23 266.995C277.245 267.076 277.242 267.16 277.219 267.24C277.197 267.319 277.156 267.393 277.1 267.453C258.04 288.328 227.503 303.282 193.309 308.481C193.282 308.484 193.255 308.486 193.228 308.486ZM164.743 214.311L193.6 307.367C227.093 302.189 256.993 287.6 275.837 267.264L164.743 214.311Z" fill="#141414"/>
<path d="M192.524 345.204C192.395 345.204 192.271 345.157 192.175 345.072C192.117 345.022 192.071 344.959 192.04 344.889C192.009 344.819 191.994 344.742 191.996 344.666L192.701 307.954C192.704 307.829 192.751 307.709 192.833 307.615C192.914 307.521 193.027 307.459 193.15 307.439C227.11 302.28 257.425 287.447 276.322 266.746C276.394 266.667 276.489 266.612 276.593 266.588C276.697 266.564 276.806 266.572 276.906 266.611C277.006 266.651 277.091 266.72 277.15 266.81C277.209 266.9 277.239 267.005 277.236 267.113L276.532 303.823C276.53 303.952 276.481 304.076 276.393 304.171C257.333 325.048 226.795 340.002 192.601 345.199C192.576 345.202 192.55 345.204 192.524 345.204ZM193.749 308.416L193.064 344.06C226.689 338.825 256.688 324.104 275.482 303.605L276.155 268.476C257.125 288.727 227.207 303.242 193.749 308.412V308.416Z" fill="#141414"/>
<path d="M192.526 345.204C192.413 345.203 192.304 345.167 192.213 345.1C192.122 345.033 192.054 344.939 192.02 344.831L182.051 312.679C182.035 312.624 182.026 312.568 182.027 312.511L182.196 303.726L162.845 241.334C162.829 241.279 162.822 241.223 162.822 241.166L163.359 213.306C163.361 213.18 163.407 213.059 163.491 212.964C163.574 212.87 163.688 212.809 163.812 212.791C163.937 212.773 164.064 212.801 164.17 212.868C164.276 212.936 164.354 213.039 164.391 213.159L193.741 307.803C193.758 307.856 193.765 307.912 193.763 307.967L193.057 344.682C193.055 344.807 193.008 344.927 192.925 345.02C192.842 345.114 192.729 345.176 192.605 345.194C192.579 345.199 192.553 345.202 192.526 345.204ZM183.084 312.446L192.059 341.395L192.703 308.038L164.348 216.602L163.876 241.107L183.227 303.49C183.244 303.544 183.252 303.6 183.252 303.656L183.084 312.446Z" fill="#141414"/>
<path d="M276.709 267.624C276.631 267.625 276.553 267.607 276.482 267.573L163.652 213.793C163.559 213.748 163.481 213.678 163.428 213.59C163.375 213.502 163.348 213.401 163.352 213.298L163.581 206.309C163.584 206.221 163.609 206.136 163.653 206.06C163.697 205.985 163.76 205.922 163.834 205.876C163.909 205.831 163.994 205.804 164.081 205.8C164.168 205.795 164.255 205.812 164.335 205.849L277.166 259.63C277.259 259.675 277.336 259.745 277.389 259.832C277.442 259.92 277.469 260.021 277.465 260.124L277.236 267.113C277.234 267.202 277.21 267.289 277.166 267.366C277.122 267.443 277.059 267.508 276.982 267.554C276.9 267.603 276.805 267.627 276.709 267.624ZM164.417 212.988L276.21 266.274L276.402 260.434L164.61 207.149L164.417 212.988Z" fill="#141414"/>
<path d="M163.345 241.704C163.233 241.704 163.123 241.668 163.033 241.601C162.942 241.534 162.875 241.441 162.841 241.334L152.861 209.163C152.84 209.094 152.833 209.021 152.841 208.95C152.849 208.878 152.871 208.808 152.907 208.746L203.476 119.615C203.533 119.514 203.623 119.435 203.73 119.389C203.837 119.344 203.957 119.336 204.069 119.366C204.182 119.396 204.281 119.462 204.352 119.554C204.423 119.647 204.461 119.76 204.461 119.877V136.136C204.461 136.227 204.438 136.316 204.394 136.396L164.63 206.477L164.41 213.338L163.873 241.19C163.871 241.316 163.825 241.437 163.742 241.531C163.659 241.626 163.545 241.687 163.42 241.705L163.345 241.704ZM153.938 209.066L162.882 237.895L163.354 213.306L163.584 206.309C163.587 206.223 163.611 206.138 163.654 206.064L203.41 135.994V121.872L153.938 209.066Z" fill="#141414"/>
<path d="M123.363 187.285C150.82 187.285 173.078 179.937 173.078 170.873C173.078 161.809 150.82 154.461 123.363 154.461C95.9058 154.461 73.6475 161.809 73.6475 170.873C73.6475 179.937 95.9058 187.285 123.363 187.285Z" fill="#0962FF"/>
<path d="M128.098 83.7212L91.9152 58.0089C92.0783 57.8803 92.2743 57.7309 92.5013 57.5667C93.2698 57.0107 94.3901 56.2877 95.7905 55.6244C98.5932 54.2969 102.488 53.2218 106.93 54.1674C111.677 55.1782 114.546 54.4689 117.041 53.4748C117.558 53.2687 118.05 53.0556 118.533 52.8464C120.371 52.0501 122.077 51.3111 124.529 51.2384C127.555 51.1487 129.475 52.3789 131.173 53.6999C131.388 53.867 131.603 54.0391 131.819 54.2115C132.441 54.7089 133.068 55.2097 133.7 55.606C134.575 56.1537 135.533 56.5528 136.666 56.5472C138.759 56.537 140.038 55.1521 141.064 54.0425C141.151 53.9481 141.236 53.8556 141.32 53.7662C141.887 53.1619 142.382 52.6846 142.936 52.4181C143.452 52.1702 144.056 52.0882 144.892 52.3812C146.735 53.0279 147.834 54.005 148.47 54.8003C148.79 55.1999 148.995 55.557 149.118 55.8084C149.136 55.8437 149.151 55.8769 149.165 55.9078L128.098 83.7212Z" fill="#0962FF" stroke="#141414" stroke-width="1.21811"/>
<path d="M128.283 84.9824L90.3936 58.0621L90.6815 57.7935C90.7519 57.7295 97.8257 51.2633 107.1 53.2332C112.549 54.3972 115.37 53.1692 118.101 51.954C120.095 50.9583 122.271 50.3794 124.497 50.2527C128.27 50.1376 130.477 51.8964 132.421 53.4506C133.841 54.5827 135.069 55.5677 136.649 55.5677C138.331 55.5677 139.38 54.4293 140.39 53.342C141.625 52.018 142.891 50.6429 145.194 51.4232C149.223 52.8367 150.119 55.7084 150.157 55.83L150.202 55.9899L150.106 56.1177L128.283 84.9824ZM91.4234 58.0045L128.149 84.0998L149.485 55.9258C149.249 55.3502 148.206 53.2076 145.008 52.0883C143.089 51.4487 142.079 52.5297 140.889 53.8088C139.834 54.9473 138.638 56.2329 136.681 56.2393C134.871 56.2393 133.483 55.1456 132.05 53.9815C130.195 52.5041 128.091 50.822 124.548 50.9307C122.028 51.0074 120.269 51.7685 118.401 52.5808C115.581 53.8024 112.645 55.0688 107.01 53.86C99.0856 52.2098 92.8433 56.8405 91.4234 58.0237V58.0045Z" fill="#0962FF"/>
<path d="M168.444 149.056L168.444 149.05C168.444 134.467 162.879 116.361 153.872 101.911C144.847 87.433 132.496 76.8195 119.013 76.8414L119.012 76.8414C111.133 76.8414 103.647 80.4462 96.9683 86.3451C90.2898 92.2437 84.4552 100.407 79.9007 109.433C73.3915 122.343 69.528 136.947 69.528 149.094C69.528 157.322 71.2867 163.501 74.3996 168.14C74.6404 168.495 74.8757 168.835 75.121 169.16C75.1272 169.168 75.1381 169.181 75.152 169.199C75.2025 169.261 75.2926 169.373 75.3419 169.447C75.3714 169.492 75.4106 169.539 75.4713 169.614L75.4792 169.623L75.4835 169.629L75.7523 169.965L75.7555 169.968C75.7604 169.973 75.7678 169.98 75.7764 169.989C75.8153 170.03 75.8512 170.075 75.8955 170.135C75.9139 170.16 75.9373 170.188 75.9754 170.232L75.9911 170.249C76.024 170.287 76.0682 170.337 76.1102 170.39C76.1707 170.465 76.2385 170.539 76.3239 170.631L76.344 170.652L76.362 170.676C76.3955 170.72 76.4315 170.762 76.4701 170.802L76.4787 170.811L76.4786 170.811L76.7078 171.059L76.7089 171.061L76.9511 171.321L77.3478 171.724L77.3549 171.732L77.3549 171.732C77.4693 171.852 77.5855 171.963 77.7125 172.077L77.7369 172.1L77.7588 172.124L77.7888 172.158L78.049 172.395C78.0497 172.396 78.0504 172.396 78.0511 172.397C78.0987 172.439 78.1461 172.482 78.1931 172.524C78.5115 172.81 78.8169 173.084 79.1362 173.339L78.7558 173.815L79.1363 173.339L79.424 173.569L79.4408 173.583L79.4567 173.597C79.4962 173.634 79.5304 173.66 79.5836 173.701C79.6099 173.721 79.6409 173.745 79.6794 173.775C79.6803 173.776 79.6813 173.776 79.6822 173.777L79.8629 173.916L79.8685 173.92L80.1652 174.142L80.4044 174.314L80.4093 174.318L80.6362 174.477L80.641 174.48L80.9241 174.675L80.9373 174.684L80.95 174.694C81.0094 174.74 81.077 174.784 81.1702 174.844L81.1788 174.849L81.1787 174.849L81.4194 175.01L81.4281 175.016L81.6827 175.179L81.6881 175.183L82.0047 175.381L82.0089 175.384L82.4639 175.664L82.8747 175.901C82.8753 175.901 82.8759 175.901 82.8764 175.902C83.1133 176.036 83.3408 176.165 83.573 176.287L168.444 149.056ZM168.444 149.056C168.476 152.35 168.136 155.638 167.429 158.856C165.136 168.864 159.08 174.66 150.587 177.98C142.048 181.319 131.057 182.147 118.973 182.147H117.144H114.626M168.444 149.056L114.626 182.147M103.064 181.488L103.093 181.491L104.555 181.632L104.558 181.632L105.314 181.701L105.322 181.702L106.21 181.771L106.216 181.772L107.623 181.867L107.63 181.867L108.41 181.911L109.194 181.956C109.195 181.956 109.195 181.956 109.196 181.956C110.511 182.026 111.841 182.071 113.195 182.109C113.195 182.109 113.195 182.109 113.196 182.109M103.064 181.488L113.179 182.718L113.196 182.109M103.064 181.488H103.035M103.064 181.488H103.035M113.196 182.109L114.626 182.147M113.196 182.109L114.626 182.147M103.035 181.488H103.017L101.566 181.326L101.561 181.326L100.83 181.237L100.824 181.237L100.106 181.143L100.094 181.142L99.3781 181.035L99.3765 181.034L98.6617 180.926L98.6617 180.926M103.035 181.488L98.6617 180.926M98.6617 180.926L98.6518 180.924M98.6617 180.926L98.6518 180.924M98.6518 180.924C98.424 180.894 98.1918 180.857 97.9672 180.815L97.9672 180.814M98.6518 180.924L97.9672 180.814M97.9672 180.814L97.9548 180.812M97.9672 180.814L97.9548 180.812M97.9548 180.812L97.1227 180.673M97.9548 180.812L97.1227 180.673M97.1227 180.673L97.1169 180.672M97.1227 180.673L97.1169 180.672M97.1169 180.672L96.5556 180.572L96.547 180.57L95.8617 180.438C95.8611 180.438 95.8606 180.438 95.86 180.438C95.1586 180.299 94.4624 180.147 93.7776 179.988L97.1169 180.672ZM84.1128 176.57L83.5742 176.288L93.7764 179.988L93.2924 179.875L93.1268 179.832L93.1233 179.831L92.6257 179.705L92.618 179.703L92.434 179.654L92.4301 179.653L91.9692 179.533L91.7257 179.464L91.7191 179.463L91.3265 179.357L91.3162 179.354L91.0419 179.275L91.0385 179.274L90.6538 179.16C90.6532 179.16 90.6526 179.16 90.652 179.16C89.7064 178.877 88.7766 178.546 87.8599 178.219L87.8062 178.2L87.4397 178.06L87.4291 178.056L86.9031 177.843L86.9026 177.842L86.4988 177.678L86.4937 177.676L86.2018 177.551L86.1912 177.546L86.0035 177.462L86.0035 177.462L85.9957 177.458L85.5621 177.27L85.3653 177.177L85.3632 177.176L84.9299 176.975L84.8101 176.915L84.8061 176.914L84.4454 176.736L84.4415 176.735L84.1229 176.575L84.1128 176.57ZM75.7471 169.959C75.7471 169.959 75.7478 169.96 75.7489 169.961L75.7472 169.96L75.7471 169.959Z" fill="white" stroke="#141414" stroke-width="1.21811"/>
<path d="M118.973 183.076H117.143H114.585L113.146 183.037C111.681 182.999 110.364 182.948 109.123 182.884L108.33 182.846L107.543 182.794L106.117 182.698L105.209 182.628L104.684 182.583H104.447L102.977 182.443H102.938L101.429 182.27H101.205L100.68 182.206L99.9639 182.11L99.2157 182.001L98.493 181.893L97.7766 181.777L96.9323 181.63L96.3567 181.528L95.6531 181.394C94.8792 181.24 94.1886 181.093 93.5362 180.94L92.8966 180.78L92.3849 180.652L92.193 180.601L91.7261 180.479L91.5278 180.421H91.4703L91.0673 180.306L90.7795 180.223L90.3829 180.108C89.3915 179.807 88.4131 179.468 87.4793 179.129L87.0955 178.982L86.5518 178.765L86.1361 178.592L85.8227 178.458L85.618 178.368L85.1767 178.17L84.9656 178.074L84.5371 177.876L84.4475 177.838H84.4028L84.0254 177.652L83.6928 177.486L83.1364 177.192C82.8934 177.064 82.6567 176.929 82.4136 176.789L82.0172 176.565L81.5503 176.283L81.2113 176.072L80.9361 175.893L80.6804 175.72L80.4182 175.541C80.3222 175.484 80.2262 175.414 80.1302 175.343C80.0463 175.29 79.9652 175.232 79.8873 175.17L79.6379 174.991L79.3245 174.755L79.1773 174.64H79.139L78.8575 174.422L78.5761 174.192C78.1923 173.878 77.8086 173.552 77.4504 173.213L77.1562 172.945L77.0922 172.874L76.7085 172.503L76.2991 172.088L76.0497 171.819C75.973 171.742 75.8898 171.653 75.813 171.563C75.7363 171.474 75.7107 171.442 75.6531 171.384L75.4101 171.103L75.1798 170.828L75.0583 170.681C74.9688 170.578 74.8729 170.457 74.777 170.335C74.681 170.214 74.6554 170.182 74.5979 170.098L74.4123 169.855C74.1373 169.491 73.8879 169.139 73.6577 168.787C70.2678 163.728 68.624 157.326 68.624 149.222C68.624 136.949 72.4616 122.36 79.0942 109.146C83.9167 99.5517 89.8969 91.4993 96.3631 85.7749C103.674 79.3151 111.297 76.0404 119.011 76.0404C125.656 76.0404 132.282 78.4964 138.698 83.3509C144.454 87.6873 149.961 93.9873 154.687 101.586C163.763 116.149 169.398 134.403 169.398 149.222C169.429 152.587 169.082 155.945 168.362 159.232C166.168 168.826 160.469 175.311 150.952 179.059C141.435 182.807 128.816 183.076 118.973 183.076ZM117.163 182.436H118.973C144.998 182.436 163.245 178.432 167.709 158.918C168.418 155.677 168.762 152.367 168.733 149.05C168.733 134.339 163.13 116.219 154.112 101.72C143.961 85.4424 131.483 76.4753 118.973 76.4753C104.678 76.4753 89.9673 88.7171 79.6187 109.229C73.0053 122.34 69.2126 136.84 69.2126 149.018C69.2126 156.993 70.8243 163.274 74.1374 168.205C74.3612 168.544 74.6106 168.896 74.8664 169.241L75.0583 169.484L75.231 169.715C75.327 169.83 75.4165 169.945 75.5124 170.054C75.5439 170.1 75.5782 170.145 75.6149 170.188L75.8514 170.463C75.9252 170.557 76.0043 170.647 76.0881 170.732C76.1361 170.794 76.1873 170.854 76.2416 170.911C76.3184 170.994 76.3887 171.077 76.4654 171.154C76.5422 171.231 76.6318 171.333 76.7149 171.416C76.7981 171.499 76.9835 171.697 77.1114 171.825L77.4952 172.203L77.5464 172.247C77.6402 172.346 77.7361 172.435 77.8342 172.516C78.186 172.842 78.5569 173.156 78.9343 173.469C79.0238 173.552 79.1197 173.623 79.2093 173.693L79.4716 173.904L79.5163 173.936L79.657 174.038C79.7721 174.128 79.868 174.205 79.9703 174.275C80.0461 174.337 80.1252 174.394 80.2071 174.448L80.45 174.62C80.546 174.691 80.6356 174.755 80.7316 174.812L80.9873 174.991L81.2369 175.158L81.5055 175.33L81.8317 175.535L82.2921 175.81C82.4201 175.887 82.548 175.964 82.6824 176.034C82.919 176.168 83.1492 176.303 83.3922 176.43C83.6353 176.558 83.7504 176.622 83.9359 176.712L84.2621 176.878L84.6202 177.057L84.7418 177.115L85.1831 177.319L85.3878 177.415L85.8291 177.607L86.0274 177.697L86.3344 177.825L86.7437 177.997L87.2746 178.209L87.6518 178.356C88.5728 178.701 89.5707 179.027 90.5173 179.321L90.901 179.43L91.1888 179.513L91.5918 179.628H91.6493L91.8412 179.686L92.3017 179.807L92.4936 179.859L92.9989 179.98L93.6385 180.14C94.2781 180.294 94.9688 180.441 95.7363 180.594L96.4271 180.722L96.9963 180.824C97.2777 180.882 97.5528 180.927 97.8342 180.972L98.5441 181.087L99.2669 181.195L99.9895 181.298L100.719 181.394L101.237 181.458H101.461L102.945 181.63H102.996L104.454 181.771H104.697L105.215 181.809L106.117 181.886L107.543 181.982L108.323 182.027L109.11 182.072C110.345 182.136 111.668 182.187 113.114 182.225H114.547C115.384 182.225 116.229 182.225 117.073 182.225L117.163 182.436Z" fill="#0962FF"/>
<path d="M101.848 78.0093L101.83 77.9344L101.795 77.8662L91.8085 58.4967C92.0388 58.4579 92.3139 58.4148 92.6263 58.3716C93.6232 58.2339 94.9915 58.0972 96.482 58.0987C99.5132 58.1019 102.839 58.6782 104.711 60.7361C106.936 63.1814 110.589 64.1236 114.054 64.2018C117.523 64.2802 120.995 63.4976 122.979 62.2849C123.804 61.7806 124.426 61.6884 124.991 61.7893C125.596 61.8971 126.211 62.2361 127.007 62.7624C127.209 62.8964 127.42 63.0402 127.64 63.1908C129.123 64.2034 131.059 65.5251 134.025 66.2703C134.931 66.4978 135.723 66.4945 136.43 66.2775C137.135 66.0608 137.702 65.6467 138.183 65.1367C138.659 64.632 139.063 64.0189 139.441 63.3825C139.631 63.0626 139.819 62.7291 140.007 62.395L140.013 62.3846C140.2 62.0519 140.388 61.7178 140.586 61.3832C141.385 60.028 142.301 58.7307 143.686 57.8213C144.898 57.0251 146.52 56.495 148.833 56.5552L137.367 77.7467L137.358 77.7633L137.35 77.7805L135.019 82.8128H102.948L101.848 78.0093Z" fill="white" stroke="#141414" stroke-width="1.21811"/>
<path d="M135.428 83.7479H102.483C102.41 83.7483 102.339 83.7237 102.282 83.6784C102.225 83.633 102.185 83.5696 102.169 83.4986L100.954 78.2539L90.6119 58.1963C90.5884 58.152 90.5762 58.1026 90.5762 58.0524C90.5762 58.0023 90.5884 57.9529 90.6119 57.9086C90.6316 57.8644 90.6617 57.8256 90.6995 57.7956C90.7374 57.7655 90.782 57.745 90.8294 57.7359C91.2516 57.6399 101.21 55.4909 105.406 60.1087C109.467 64.5858 118.926 63.6776 122.502 61.4902C124.772 60.1023 126.199 61.0745 128.175 62.424C130.003 63.784 132.074 64.7825 134.277 65.3661C136.931 66.0057 137.897 64.3044 139.24 61.9187C140.954 58.8743 143.077 55.0815 149.876 55.6827C149.93 55.6863 149.981 55.7036 150.026 55.7327C150.071 55.7618 150.107 55.8018 150.132 55.849C150.157 55.8963 150.17 55.949 150.17 56.0025C150.17 56.056 150.157 56.1088 150.132 56.1561L138.21 78.1899L135.729 83.5561C135.702 83.6133 135.659 83.6617 135.606 83.6957C135.553 83.7297 135.491 83.7478 135.428 83.7479ZM102.739 83.1083H135.223L137.628 77.9085L149.326 56.2904C143.321 55.9514 141.453 59.2836 139.796 62.2385C138.479 64.573 137.238 66.7796 134.117 65.9993C131.841 65.3961 129.701 64.365 127.81 62.9613C125.892 61.6821 124.747 60.8762 122.828 62.0467C119.093 64.33 109.192 65.2447 104.919 60.5501C101.434 56.7125 93.2918 57.9341 91.3666 58.2859L101.536 78.0044C101.54 78.0277 101.54 78.0515 101.536 78.0748L102.739 83.1083Z" fill="#0962FF"/>
<path d="M113.154 182.68L114.593 182.718C112.745 182.68 110.929 182.622 109.138 182.526C110.462 182.597 111.798 182.641 113.154 182.68Z" fill="white"/>
<path d="M114.588 183.038C112.624 183 110.84 182.936 109.125 182.846C109.083 182.844 109.042 182.834 109.004 182.816C108.966 182.798 108.932 182.772 108.904 182.741C108.876 182.71 108.854 182.674 108.84 182.634C108.826 182.594 108.82 182.552 108.822 182.51C108.824 182.468 108.834 182.427 108.852 182.389C108.87 182.351 108.895 182.317 108.927 182.289C108.958 182.261 108.994 182.239 109.034 182.225C109.073 182.211 109.115 182.205 109.157 182.207C110.392 182.271 111.716 182.322 113.161 182.36H114.594C114.679 182.365 114.758 182.402 114.817 182.464C114.875 182.526 114.907 182.608 114.907 182.693C114.91 182.737 114.904 182.781 114.889 182.822C114.874 182.863 114.851 182.901 114.821 182.934C114.791 182.966 114.755 182.992 114.715 183.01C114.675 183.028 114.631 183.037 114.588 183.038Z" fill="#0962FF"/>
<path d="M105.72 84.5601C105.72 84.5601 97.5081 94.7168 96.8877 103.869C96.8877 103.869 102.644 87.3359 108.669 85.7114L105.72 84.5601Z" fill="#D4E4F5"/>
<path d="M96.4062 106.242L96.5661 103.843C97.2057 94.6972 105.386 84.4637 105.469 84.3614L105.616 84.1759L109.697 85.7621L108.75 86.0179C102.93 87.5785 97.2377 103.811 97.1929 103.971L96.4062 106.242ZM105.821 84.9818C104.855 86.2226 99.3163 93.5779 97.647 100.972C99.4762 96.4177 103.435 87.764 107.765 85.7237L105.821 84.9818Z" fill="#0962FF"/>
<path d="M117.975 86.7219C117.975 86.7219 123.047 101.189 122.452 110.137C122.452 110.137 125.49 107.905 120.239 86.7219H117.975Z" fill="#D4E4F5"/>
<path d="M122.081 110.809L122.126 110.118C122.715 101.337 117.719 86.9714 117.649 86.8243L117.502 86.3958H120.47L120.527 86.6452C125.644 107.432 122.951 110.157 122.619 110.4L122.081 110.809ZM118.423 87.0417C119.184 89.3187 122.695 100.217 122.817 108.212C123.207 105.782 123.188 100.057 119.983 87.0417H118.423Z" fill="#0962FF"/>
<path d="M129.938 85.6538C129.938 85.6538 137.012 90.2268 139.372 97.4414C139.372 97.4414 140.204 92.766 131.742 84.5601L129.938 85.6538Z" fill="#D4E4F5"/>
<path d="M139.458 98.7589L139.062 97.5436C136.766 90.5081 129.832 85.967 129.762 85.9223L129.327 85.6409L131.783 84.157L131.962 84.3297C140.45 92.5612 139.72 97.3005 139.682 97.4988L139.458 98.7589ZM130.504 85.6728C131.86 86.6386 136.19 90.0093 138.652 94.9213C138.013 92.8171 136.228 89.4272 131.674 84.9629L130.504 85.6728Z" fill="#0962FF"/>
<path d="M111.182 86.1715C110.489 90.4809 110.168 94.8419 110.223 99.2064C110.223 99.2064 111.662 87.7513 112.832 86.7215L111.182 86.1715Z" fill="#D4E4F5"/>
<path d="M110.541 99.2514H109.901C109.848 94.8634 110.171 90.4788 110.867 86.1461L110.931 85.7751L113.457 86.6258L113.042 86.9904C112.255 87.6556 111.091 94.8638 110.541 99.2514ZM111.436 86.5938C111.283 87.6108 110.848 90.604 110.637 94.0578C111.097 91.218 111.711 88.0905 112.325 86.888L111.436 86.5938Z" fill="#0962FF"/>
<path d="M105.573 80.2809C105.573 80.2809 105.125 71.9023 101.607 68.3845C101.607 68.3845 105.573 70.6998 106.922 81.3298L105.573 80.2809Z" fill="#D4E4F5"/>
<path d="M107.34 82.0591L105.261 80.4474V80.3003C105.261 80.2171 104.781 71.9856 101.423 68.6085L99.6582 66.8433L101.807 68.1224C101.98 68.2248 105.926 70.6808 107.282 81.3108L107.34 82.0591ZM105.888 80.1404L106.527 80.6137C106.208 78.1864 105.603 75.8053 104.724 73.5205C105.344 75.6734 105.734 77.886 105.888 80.1212V80.1404Z" fill="#0962FF"/>
<path d="M129.938 81.5538C129.938 81.5538 131.819 74.8637 135.695 71.25C135.695 71.25 131.429 77.2877 132.088 80.9653L129.938 81.5538Z" fill="#D4E4F5"/>
<path d="M129.475 82.0144L129.628 81.4643C129.705 81.1893 131.547 74.6463 135.467 71.0198L137.744 68.8964L135.947 71.4547C135.909 71.5187 131.771 77.4285 132.391 80.9271L132.442 81.2149L129.475 82.0144ZM133.088 75.1132C131.991 77.0057 131.095 79.0079 130.415 81.087L131.694 80.7288C131.528 79.0147 132.238 76.9168 133.088 75.1132Z" fill="#0962FF"/>
<path d="M117.975 81.5537C117.975 81.5537 122.759 73.6675 123.321 68.3845C123.321 68.3845 124.025 74.5246 119.017 82.4555L117.975 81.5537Z" fill="#D4E4F5"/>
<path d="M119.062 82.9227L117.533 81.6435L117.674 81.4069C117.719 81.3301 122.426 73.5207 122.976 68.3656L123.283 65.4811L123.616 68.3656C123.616 68.6215 124.255 74.7103 119.26 82.6284L119.062 82.9227ZM118.365 81.4836L118.915 81.9569C120.809 78.9779 122.112 75.662 122.752 72.1904C121.606 75.4181 120.156 78.5298 118.422 81.4836H118.365Z" fill="#0962FF"/>
<path d="M98.2235 85.0717C101.485 86.3509 119.33 92.8107 139.573 85.1165C139.805 85.0268 140.015 84.8903 140.191 84.7152C140.367 84.5402 140.505 84.3305 140.596 84.0995C141.076 82.9035 141.716 80.537 140.161 78.8868C139.809 78.5173 139.362 78.2514 138.87 78.1184C138.377 77.9853 137.857 77.9901 137.367 78.1322C133.049 79.373 117.091 83.2489 101.255 78.1322C100.874 78.0067 100.469 77.9726 100.072 78.0326C99.6756 78.0925 99.2988 78.2449 98.9719 78.4775C97.6927 79.3985 96.0233 81.2662 97.4112 84.285C97.5709 84.6418 97.8617 84.9235 98.2235 85.0717Z" fill="#86B2FF"/>
<path d="M119.143 89.1522C111.958 89.1834 104.827 87.9024 98.1009 85.3722C97.6673 85.1942 97.3175 84.8581 97.1223 84.432C95.6065 81.1509 97.5125 79.1362 98.7789 78.2279C99.1468 77.9709 99.5688 77.802 100.012 77.7343C100.456 77.6667 100.91 77.7021 101.337 77.8378C117.014 82.8842 132.792 79.117 137.257 77.8378C137.804 77.6757 138.386 77.6688 138.937 77.8179C139.488 77.967 139.987 78.2662 140.378 78.6821C142.041 80.4474 141.401 82.9161 140.877 84.2273C140.768 84.5004 140.603 84.7482 140.394 84.955C140.185 85.1619 139.936 85.3234 139.661 85.4297C133.106 87.9102 126.152 89.1717 119.143 89.1522ZM98.344 84.7774C101.689 86.1205 119.406 92.4524 139.457 84.8157C139.646 84.7396 139.819 84.6262 139.964 84.4823C140.109 84.3384 140.223 84.1669 140.301 83.9779C140.768 82.8075 141.344 80.6137 139.93 79.1042C139.617 78.7795 139.22 78.5477 138.783 78.4348C138.346 78.3219 137.886 78.3323 137.455 78.4647C132.946 79.7438 116.988 83.5814 101.158 78.4647C100.824 78.3545 100.469 78.3242 100.121 78.3764C99.7736 78.4286 99.443 78.5619 99.1562 78.7652C97.8002 79.731 96.4508 81.4579 97.7044 84.1762C97.8263 84.4645 98.0557 84.6939 98.344 84.8157V84.7774Z" fill="#0962FF"/>
<path d="M135.192 161.733L134.367 156.508C130.651 156.924 126.922 156.508 124.638 155.619L125.278 148.922C128.321 150.028 131.591 150.362 134.795 149.894C137.929 149.402 139.88 147.848 139.535 145.648C139.202 143.563 137.232 142.52 132.947 141.81C126.743 140.761 122.291 138.651 121.434 133.31C120.673 128.468 123.481 124.132 129.186 122.047L128.354 116.821L133.746 115.971L134.514 120.812C137.276 120.415 140.092 120.603 142.777 121.362L142.138 127.829C139.481 127.002 136.672 126.783 133.919 127.189C130.344 127.758 129.442 129.479 129.672 131.027C129.96 132.843 132.071 133.694 137.027 134.711C143.935 135.99 147.056 138.593 147.843 143.543C148.629 148.494 145.809 153.137 139.656 155.273L140.545 160.883L135.192 161.733Z" fill="#141414"/>
<path d="M134.922 162.078L134.097 156.84C130.636 157.179 126.914 156.84 124.503 155.9L124.272 155.81L124.97 148.462L125.36 148.602C128.354 149.68 131.566 150.01 134.717 149.562C137.774 149.076 139.495 147.592 139.194 145.679C138.893 143.767 137.128 142.808 132.869 142.085C127.912 141.247 122.085 139.488 121.113 133.316C120.32 128.314 123.268 123.92 128.82 121.803L127.982 116.52L134.007 115.567L134.775 120.422C137.485 120.08 140.235 120.285 142.865 121.023L143.115 121.1L142.443 128.199L142.085 128.11L141.65 128.001C139.16 127.271 136.539 127.101 133.975 127.502C131.167 127.943 129.715 129.203 129.997 130.962C130.24 132.497 131.967 133.329 137.096 134.384C144.042 135.663 147.33 138.388 148.161 143.486C148.993 148.717 145.801 153.399 140.019 155.471L140.921 161.138L134.922 162.078ZM134.634 156.13L135.459 161.343L140.217 160.595L139.335 155.03L139.591 154.941C145.309 152.99 148.359 148.634 147.56 143.569C146.792 138.727 143.722 136.245 137 135.005C132.21 134.013 129.722 133.131 129.395 131.052C129.268 130.252 129.223 127.592 133.905 126.85C136.55 126.438 139.254 126.615 141.823 127.368H141.887L142.437 121.541C139.867 120.865 137.189 120.704 134.557 121.068L134.25 121.106L133.489 116.277L128.73 117.032L129.549 122.2L129.3 122.289C123.895 124.266 120.985 128.449 121.759 133.201C122.482 137.768 125.839 140.236 132.99 141.439C136.828 142.078 139.443 143.044 139.846 145.571C140.205 147.867 138.286 149.638 134.832 150.182C131.714 150.631 128.534 150.337 125.552 149.325L124.982 155.369C127.362 156.22 130.995 156.527 134.327 156.156L134.634 156.13Z" fill="#0962FF"/>
<path d="M96.5861 196.551C96.5688 189.485 91.8924 182.424 82.5427 177.027C63.8431 166.23 33.5479 166.218 14.8656 177.004C5.52158 182.401 0.856773 189.473 0.874071 196.551V204.782C0.874071 211.849 5.56775 218.909 14.9089 224.306C33.6084 235.106 63.921 235.115 82.5888 224.329C91.9357 218.932 96.5977 211.86 96.5861 204.782V196.551Z" fill="white"/>
<path d="M48.7832 233.183C35.8526 233.183 23.7005 230.268 14.5179 224.975C5.23732 219.615 0.116998 212.445 0.102583 204.794V196.56C0.0852845 188.891 5.19123 181.709 14.4833 176.344C23.6227 171.065 35.7661 168.159 48.6678 168.159C61.5695 168.159 73.7505 171.073 82.9302 176.367C92.2165 181.726 97.3455 188.896 97.3599 196.548V204.782C97.3599 212.457 92.2655 219.636 82.9763 224.998C73.8312 230.277 61.6878 233.183 48.7832 233.183ZM48.6649 169.692C36.0284 169.692 24.1589 172.526 15.2502 177.67C6.45975 182.75 1.62775 189.453 1.64217 196.548V204.759C1.65946 211.869 6.50585 218.566 15.2906 223.637C24.2281 228.798 36.1207 231.641 48.7832 231.641C61.4456 231.641 73.2892 228.807 82.2008 223.663C90.9912 218.589 95.8261 211.883 95.8117 204.782V196.551C95.8117 189.464 90.948 182.767 82.1575 177.696C73.22 172.535 61.3245 169.692 48.6649 169.692Z" fill="#141414"/>
<path d="M96.5856 204.782V196.551C96.5683 189.485 91.8919 182.424 82.5421 177.027C78.7333 174.87 74.6835 173.17 70.4766 171.961V229.401C74.6991 228.195 78.7638 226.493 82.5854 224.329C91.9352 218.932 96.5972 211.872 96.5856 204.782Z" fill="#0962FF"/>
<path d="M70.4749 230.173C70.3089 230.172 70.1475 230.118 70.0136 230.02C69.9178 229.948 69.8402 229.854 69.7867 229.746C69.7331 229.639 69.7052 229.52 69.7051 229.4V171.961C69.7049 171.841 69.7329 171.722 69.7868 171.615C69.8407 171.507 69.919 171.414 70.0153 171.342C70.1117 171.271 70.2236 171.223 70.3419 171.202C70.4603 171.181 70.5819 171.188 70.6969 171.223C74.9609 172.449 79.0657 174.172 82.9268 176.358C92.2132 181.717 97.3422 188.887 97.3566 196.539V204.773C97.3566 212.448 92.2622 219.627 82.973 224.989C79.0974 227.182 74.9757 228.909 70.694 230.133C70.6233 230.156 70.5495 230.17 70.4749 230.173ZM71.2475 173.002V228.357C75.0619 227.201 78.7362 225.626 82.2032 223.66C90.9937 218.586 95.8286 211.88 95.8141 204.779V196.548C95.8141 189.461 90.9504 182.764 82.16 177.692C78.7051 175.734 75.0457 174.161 71.2475 173.002Z" fill="#141414"/>
<path d="M82.5861 216.098C101.265 205.315 101.245 187.821 82.5399 177.026C63.8346 166.232 33.5451 166.218 14.8629 177.003C-3.8194 187.789 -3.79629 205.28 14.9062 216.075C33.6086 226.869 63.901 226.883 82.5861 216.098Z" fill="#86B2FF"/>
<path d="M48.7831 224.952C35.8526 224.952 23.7004 222.037 14.5179 216.744C5.21998 211.375 0.102539 204.191 0.102539 196.519C0.102539 188.847 5.21137 181.688 14.4862 176.337C23.6255 171.058 35.7689 168.152 48.6706 168.152C61.5724 168.152 73.7533 171.067 82.933 176.36C92.2367 181.729 97.3484 188.913 97.3484 196.588C97.3484 204.263 92.2424 211.416 82.9676 216.769C73.8311 222.045 61.6877 224.952 48.7831 224.952ZM48.6649 169.692C36.0284 169.692 24.1588 172.526 15.2502 177.669C6.47412 182.738 1.63924 189.432 1.63924 196.519C1.63924 203.605 6.48851 210.326 15.2905 215.409C24.228 220.566 36.1207 223.409 48.7831 223.409C61.4455 223.409 73.2892 220.575 82.2007 215.432C90.9768 210.363 95.8117 203.672 95.8117 196.585C95.8117 189.499 90.9624 182.775 82.1575 177.695C73.22 172.535 61.3244 169.692 48.6649 169.692Z" fill="#141414"/>
<path d="M21.7576 210.741C21.5557 210.631 21.3337 210.536 21.1377 210.421C5.9093 201.627 5.89492 187.327 21.106 178.546C21.3164 178.425 21.5442 178.324 21.7576 178.208V210.741ZM53.8662 172.186C52.0412 172.047 50.2048 171.966 48.3683 171.972V217.009C50.2048 217.009 52.0412 216.942 53.8662 216.807V172.186ZM76.3167 178.566C73.037 176.718 69.5424 175.281 65.9117 174.287V214.719C69.555 213.73 73.0616 212.293 76.3512 210.441C91.5825 201.659 91.5508 187.365 76.3167 178.566Z" fill="white"/>
<path d="M45.1819 202.424C46.5158 201.655 47.2029 200.816 47.2432 199.907C47.2836 199.002 46.6954 197.768 45.4903 196.205C43.0455 193.368 41.7568 190.966 41.6242 188.997C41.4915 187.029 42.9158 185.181 45.8969 183.453C48.6416 181.868 51.7793 181.082 55.3101 181.098C58.8838 181.123 62.4075 181.94 65.6286 183.488L70.8556 180.475L74.742 182.718L69.4429 185.774C71.9684 187.696 73.1216 189.683 72.9025 191.736C72.6834 193.789 71.0449 195.667 67.9869 197.37L67.8139 197.41L60.8484 193.391C62.6244 192.362 63.5816 191.347 63.7315 190.329C63.8814 189.312 63.2269 188.389 61.7768 187.553C60.4192 186.715 58.8483 186.287 57.2532 186.322C55.7565 186.391 54.2994 186.825 53.0094 187.588C51.7524 188.317 51.1181 189.098 51.0922 189.952C51.0662 190.805 51.6514 192.068 52.8393 193.754C55.286 196.52 56.5556 198.911 56.6478 200.927C56.7401 202.944 55.3052 204.806 52.3434 206.515C49.4705 208.16 46.2022 208.987 42.8927 208.908C39.3345 208.85 35.8319 208.017 32.629 206.466L27.823 209.242L23.9365 206.996L28.7426 204.223C25.8942 202.257 24.3633 200.173 24.1499 197.972C23.9366 195.772 25.603 193.684 29.1491 191.71L29.3654 191.67L36.3107 195.677C34.2253 196.881 33.2488 198.034 33.3814 199.137C33.5141 200.24 34.3944 201.26 36.0224 202.196C37.4574 203.075 39.0999 203.557 40.7823 203.594C42.3275 203.608 43.8476 203.203 45.1819 202.424Z" fill="#141414"/>
<path d="M53.07 233.074C52.8656 233.073 52.6699 232.991 52.5256 232.847C52.3813 232.702 52.3003 232.506 52.3003 232.301V224.07C52.2938 223.965 52.309 223.859 52.3448 223.76C52.3807 223.661 52.4364 223.57 52.5087 223.494C52.5809 223.417 52.6681 223.356 52.7649 223.314C52.8617 223.272 52.9661 223.25 53.0715 223.25C53.1769 223.25 53.2813 223.272 53.378 223.314C53.4748 223.356 53.562 223.417 53.6343 223.494C53.7065 223.57 53.7623 223.661 53.7981 223.76C53.834 223.859 53.8492 223.965 53.8427 224.07V232.301C53.8427 232.506 53.7613 232.703 53.6164 232.848C53.4715 232.992 53.2749 233.074 53.07 233.074ZM61.774 232.16C61.5696 232.16 61.3735 232.079 61.2287 231.935C61.0839 231.79 61.0021 231.595 61.0013 231.39V223.159C60.9949 223.054 61.0101 222.948 61.046 222.849C61.0818 222.75 61.1375 222.659 61.2098 222.582C61.282 222.506 61.3692 222.444 61.466 222.403C61.5628 222.361 61.6671 222.339 61.7726 222.339C61.878 222.339 61.9823 222.361 62.0791 222.403C62.1759 222.444 62.2631 222.506 62.3354 222.582C62.4076 222.659 62.4633 222.75 62.4992 222.849C62.535 222.948 62.5502 223.054 62.5438 223.159V231.39C62.5408 231.593 62.4584 231.786 62.3145 231.928C62.1705 232.07 61.9764 232.151 61.774 232.151V232.16ZM66.1246 231.321C65.9196 231.321 65.7231 231.24 65.5782 231.095C65.4333 230.95 65.3519 230.753 65.3519 230.548V222.187C65.3519 221.983 65.4333 221.786 65.5782 221.641C65.7231 221.496 65.9196 221.415 66.1246 221.415C66.3295 221.415 66.526 221.496 66.6709 221.641C66.8158 221.786 66.8972 221.983 66.8972 222.187V230.548C66.8949 230.752 66.8125 230.946 66.6679 231.089C66.5232 231.232 66.328 231.312 66.1246 231.312V231.321Z" fill="#141414"/>
<path d="M96.5861 184.194C96.5688 177.13 91.8924 170.067 82.5427 164.67C63.8431 153.873 33.5479 153.861 14.8656 164.647C5.52158 170.044 0.856773 177.119 0.874071 184.194V192.428C0.874071 199.492 5.56775 206.555 14.9089 211.952C33.6084 222.749 63.921 222.758 82.5888 211.975C91.9357 206.578 96.5977 199.503 96.5861 192.428V184.194Z" fill="white"/>
<path d="M48.7832 220.838C35.8526 220.838 23.7005 217.92 14.5179 212.627C5.23732 207.27 0.116998 200.097 0.102583 192.445V184.194C0.0852845 176.525 5.19123 169.346 14.4833 163.978C23.6227 158.702 35.7661 155.793 48.6678 155.793C61.5695 155.793 73.7505 158.708 82.9302 164.004C92.2165 169.361 97.3455 176.531 97.3599 184.186V192.42C97.3599 200.091 92.2655 207.27 82.9763 212.636C73.8312 217.926 61.6878 220.838 48.7832 220.838ZM48.6649 157.347C36.0284 157.347 24.1589 160.178 15.2502 165.325C6.45975 170.402 1.62775 177.108 1.64217 184.203V192.411C1.65946 199.521 6.50585 206.218 15.2906 211.292C24.2281 216.453 36.1207 219.293 48.7832 219.293C61.4456 219.293 73.2892 216.461 82.2008 211.315C90.9912 206.241 95.8261 199.535 95.8117 192.437V184.194C95.8117 177.108 90.948 170.41 82.1575 165.339C73.22 160.187 61.3245 157.347 48.6649 157.347Z" fill="#141414"/>
<path d="M96.5856 192.437V184.194C96.5683 177.13 91.8919 170.067 82.5421 164.67C78.7332 162.514 74.6834 160.815 70.4766 159.607V217.061C74.6987 215.854 78.7632 214.151 82.5854 211.989C91.9352 206.587 96.5972 199.512 96.5856 192.437Z" fill="#0962FF"/>
<path d="M70.4749 217.825C70.2707 217.825 70.075 217.744 69.9306 217.599C69.7862 217.455 69.7051 217.259 69.7051 217.055V159.616C69.7051 159.496 69.7332 159.377 69.787 159.27C69.8409 159.162 69.9191 159.069 70.0153 158.997C70.1116 158.925 70.2233 158.876 70.3417 158.855C70.46 158.834 70.5816 158.841 70.6969 158.875C74.962 160.102 79.0678 161.826 82.9297 164.012C92.2161 169.369 97.3451 176.539 97.3595 184.194V192.428C97.3595 200.1 92.2651 207.279 82.9758 212.644C79.0991 214.835 74.9777 216.561 70.6969 217.787C70.6251 217.81 70.5503 217.823 70.4749 217.825ZM71.2475 160.657V216.011C75.062 214.855 78.7364 213.279 82.2032 211.312C90.9937 206.238 95.8286 199.532 95.8141 192.434V184.194C95.8141 177.107 90.9504 170.41 82.16 165.339C78.7047 163.384 75.0453 161.813 71.2475 160.657Z" fill="#141414"/>
<path d="M82.5861 203.753C101.265 192.97 101.245 175.476 82.5399 164.679C63.8346 153.882 33.5451 153.87 14.8629 164.656C-3.8194 175.441 -3.79629 192.933 14.9062 203.73C33.6086 214.527 63.901 214.536 82.5861 203.753Z" fill="#86B2FF"/>
<path d="M48.7831 212.606C35.8526 212.606 23.7004 209.689 14.5179 204.398C5.21998 199.027 0.102539 191.845 0.102539 184.173C0.102539 176.502 5.21137 169.34 14.4862 163.992C23.6255 158.716 35.7689 155.807 48.6706 155.807C61.5724 155.807 73.7533 158.722 82.933 164.018C92.2367 169.386 97.3484 176.568 97.3484 184.243C97.3484 191.917 92.2424 199.073 82.9676 204.424C73.8311 209.697 61.6877 212.606 48.7831 212.606ZM48.6649 157.347C36.0284 157.347 24.1588 160.178 15.2502 165.324C6.47412 170.392 1.63924 177.084 1.63924 184.173C1.63924 191.263 6.48851 197.98 15.2905 203.06C24.228 208.221 36.1207 211.061 48.7831 211.061C61.4455 211.061 73.2892 208.23 82.2007 203.083C90.9768 198.018 95.8117 191.323 95.8117 184.237C95.8117 177.15 90.9624 170.43 82.1575 165.347C73.22 160.186 61.3244 157.347 48.6649 157.347Z" fill="#141414"/>
<path d="M21.7576 198.396C21.5557 198.283 21.3337 198.188 21.1377 198.073C5.9093 189.28 5.89492 174.98 21.106 166.198C21.3164 166.079 21.5442 165.979 21.7576 165.86V198.396ZM53.8662 159.841C52.0412 159.699 50.2048 159.619 48.3683 159.627V204.664C50.2048 204.664 52.0412 204.597 53.8662 204.459V159.841ZM76.3167 166.218C73.0363 164.372 69.5418 162.936 65.9117 161.942V202.374C69.5555 201.385 73.0623 199.947 76.3512 198.093C91.5825 189.311 91.5508 175.011 76.3167 166.218Z" fill="white"/>
<path d="M45.1839 190.075C46.5178 189.307 47.2049 188.469 47.2452 187.561C47.2856 186.656 46.6974 185.422 45.4923 183.86C43.0475 181.023 41.7588 178.62 41.6262 176.652C41.4935 174.684 42.9178 172.835 45.8989 171.105C48.6436 169.521 51.7813 168.737 55.3121 168.752C58.8858 168.778 62.4095 169.594 65.6306 171.142L70.8576 168.127L74.744 170.37L69.4449 173.429C71.9704 175.351 73.1236 177.337 72.9045 179.388C72.6854 181.439 71.0469 183.318 67.9889 185.024L67.8159 185.065L60.8533 181.023C62.6293 179.993 63.5864 178.976 63.7364 177.958C63.8863 176.94 63.2318 176.018 61.7816 175.182C60.4244 174.343 58.8531 173.916 57.2581 173.953C55.7612 174.021 54.3038 174.456 53.0143 175.219C51.7572 175.946 51.123 176.73 51.0971 177.583C51.0711 178.437 51.6563 179.699 52.8441 181.383C55.2909 184.149 56.5605 186.54 56.6527 188.556C56.745 190.572 55.3101 192.435 52.3483 194.143C49.4757 195.79 46.2074 196.618 42.8976 196.539C39.3392 196.481 35.8366 195.646 32.6339 194.094L27.8278 196.874L23.9414 194.625L28.7475 191.854C25.8991 189.888 24.3681 187.805 24.1548 185.604C23.9414 183.403 25.6078 181.316 29.154 179.342L29.3702 179.301L36.3156 183.309C34.2302 184.512 33.2537 185.665 33.3863 186.769C33.5132 187.87 34.3954 188.885 36.0273 189.828C37.4632 190.704 39.1051 191.187 40.7872 191.226C42.3295 191.245 43.8484 190.847 45.1839 190.075Z" fill="#141414"/>
<path d="M57.4284 220.388C57.224 220.387 57.0282 220.305 56.8839 220.161C56.7396 220.016 56.6587 219.82 56.6587 219.615V211.381C56.6522 211.276 56.6674 211.171 56.7032 211.071C56.7391 210.972 56.7948 210.881 56.8671 210.805C56.9393 210.728 57.0265 210.667 57.1233 210.625C57.2201 210.583 57.3244 210.561 57.4298 210.561C57.5353 210.561 57.6397 210.583 57.7364 210.625C57.8332 210.667 57.9204 210.728 57.9927 210.805C58.0649 210.881 58.1207 210.972 58.1565 211.071C58.1924 211.171 58.2075 211.276 58.2011 211.381V219.612C58.2011 219.714 58.1811 219.814 58.1423 219.908C58.1035 220.002 58.0465 220.087 57.9748 220.159C57.903 220.23 57.8179 220.287 57.7241 220.326C57.6304 220.365 57.5299 220.385 57.4284 220.385V220.388ZM61.7789 219.811C61.574 219.811 61.3775 219.73 61.2326 219.585C61.0877 219.44 61.0063 219.244 61.0063 219.039V210.808C61.0183 210.611 61.1048 210.427 61.2481 210.292C61.3914 210.157 61.5808 210.082 61.7775 210.082C61.9743 210.082 62.1636 210.157 62.3069 210.292C62.4502 210.427 62.5367 210.611 62.5488 210.808V219.039C62.5472 219.242 62.4655 219.437 62.3214 219.58C62.1773 219.724 61.9824 219.805 61.7789 219.806V219.811ZM66.1295 218.969C65.9251 218.969 65.729 218.888 65.5841 218.744C65.4393 218.6 65.3576 218.404 65.3569 218.2V209.839C65.3569 209.634 65.4383 209.437 65.5832 209.292C65.7281 209.148 65.9246 209.066 66.1295 209.066C66.3344 209.066 66.5309 209.148 66.6758 209.292C66.8207 209.437 66.9021 209.634 66.9021 209.839V218.2C66.8999 218.403 66.8175 218.597 66.6728 218.74C66.5282 218.884 66.3329 218.964 66.1295 218.964V218.969Z" fill="#141414"/>
<path d="M104.815 171.858C104.815 164.791 100.121 157.731 90.7769 152.333C72.0716 141.536 41.7648 141.525 23.0941 152.31C13.75 157.707 9.08523 164.78 9.09964 171.858V180.089C9.11694 187.155 13.7962 194.216 23.1345 199.613C41.8369 210.413 72.1466 210.421 90.8202 199.636C100.164 194.242 104.826 187.167 104.815 180.089V171.858Z" fill="white"/>
<path d="M57.0147 208.49C44.087 208.49 31.9175 205.575 22.7523 200.282C13.4688 194.922 8.33696 187.752 8.33696 180.1V171.866C8.31966 164.197 13.4255 157.015 22.7177 151.65C31.857 146.371 44.0005 143.465 56.9022 143.465C69.8039 143.465 81.9993 146.38 91.1703 151.673C100.454 157.033 105.586 164.203 105.586 171.854V180.089C105.586 187.76 100.491 194.942 91.2049 200.305C82.0656 205.583 69.9193 208.49 57.0147 208.49ZM56.8964 144.999C44.2599 144.999 32.3904 147.833 23.4817 152.976C14.6912 158.056 9.85636 164.759 9.87365 171.854V180.065C9.89095 187.175 14.7373 193.872 23.522 198.947C32.4595 204.104 44.3522 206.947 57.0147 206.947C69.6771 206.947 81.5207 204.113 90.4351 198.97C99.2227 193.893 104.058 187.19 104.046 180.089V171.857C104.029 164.771 99.1794 158.073 90.3918 153.002C81.4515 147.841 69.5559 144.999 56.8964 144.999Z" fill="#141414"/>
<path d="M104.818 180.089V171.857C104.818 164.791 100.124 157.73 90.7804 152.333C86.9694 150.18 82.9189 148.48 78.7119 147.271V204.707C82.9343 203.501 86.9989 201.798 90.8208 199.636C100.168 194.242 104.844 187.166 104.818 180.089Z" fill="#0962FF"/>
<path d="M78.7083 205.48C78.5036 205.479 78.3074 205.397 78.1627 205.253C78.018 205.108 77.9363 204.912 77.9356 204.707V147.271C77.9351 147.151 77.9627 147.032 78.0162 146.925C78.0697 146.817 78.1477 146.724 78.2438 146.652C78.3399 146.58 78.4515 146.531 78.5697 146.51C78.6879 146.489 78.8094 146.495 78.9245 146.53C83.1908 147.757 87.2984 149.48 91.1631 151.664C100.447 157.024 105.578 164.194 105.578 171.846V180.08C105.578 187.752 100.484 194.933 91.1977 200.296C87.3206 202.488 83.1981 204.215 78.9158 205.439C78.8487 205.462 78.7789 205.475 78.7083 205.48ZM79.478 148.311V203.666C83.2917 202.509 86.9658 200.934 90.4337 198.97C99.2213 193.893 104.056 187.19 104.045 180.089V171.857C104.027 164.771 99.178 158.073 90.3904 153.002C86.9333 151.042 83.2709 149.469 79.4694 148.311H79.478Z" fill="#141414"/>
<path d="M90.8194 191.401C109.496 180.619 109.476 163.122 90.7761 152.327C72.0766 141.533 41.764 141.519 23.0933 152.304C4.42254 163.09 4.43412 180.581 23.1337 191.376C41.8332 202.17 72.14 202.19 90.8194 191.401Z" fill="#86B2FF"/>
<path d="M57.0146 200.259C44.087 200.259 31.9175 197.344 22.7522 192.051C13.4515 186.682 8.33691 179.501 8.33691 171.826C8.33691 164.151 13.4457 156.995 22.7205 151.644C31.8598 146.365 44.0033 143.459 56.905 143.459C69.8067 143.459 82.0021 146.374 91.1732 151.667C100.474 157.039 105.589 164.22 105.589 171.895C105.589 179.57 100.483 186.723 91.2077 192.076C82.0655 197.352 69.9192 200.259 57.0146 200.259ZM56.8964 144.999C44.2599 144.999 32.3903 147.833 23.4817 152.976C14.7056 158.045 9.87072 164.739 9.87072 171.826C9.87072 178.912 14.72 185.633 23.522 190.716C32.4595 195.873 44.3522 198.716 57.0146 198.716C69.677 198.716 81.5207 195.882 90.4351 190.739C99.2111 185.67 104.046 178.979 104.046 171.892C104.046 164.806 99.1938 158.082 90.3918 153.002C81.4514 147.842 69.5559 144.999 56.8964 144.999Z" fill="#141414"/>
<path d="M29.9842 186.048C29.7824 185.938 29.5604 185.843 29.3643 185.728C14.136 176.934 14.1187 162.634 29.3326 153.852C29.5402 153.731 29.7709 153.63 29.9842 153.515V186.048ZM62.0929 147.495C60.2679 147.354 58.4285 147.273 56.5949 147.282V192.315C58.4285 192.315 60.2679 192.249 62.0929 192.114V147.495ZM84.5434 153.873C81.2636 152.024 77.7678 150.588 74.1355 149.597V190.026C77.7803 189.039 81.288 187.602 84.5779 185.748C99.7947 176.966 99.7775 162.666 84.5434 153.873Z" fill="white"/>
<path d="M53.4116 177.73C54.7465 176.963 55.4297 176.121 55.4758 175.213C55.522 174.305 54.928 173.074 53.7229 171.511C51.2781 168.674 49.9894 166.272 49.8568 164.304C49.7241 162.336 51.1484 160.488 54.1295 158.76C56.8742 157.178 60.0109 156.393 63.5398 156.404C67.1141 156.432 70.6383 157.248 73.8612 158.794L79.0881 155.781L82.9745 158.024L77.6754 161.083C80.201 163.005 81.3542 164.992 81.1351 167.043C80.916 169.093 79.2823 170.971 76.2339 172.676L76.0609 172.716L69.0926 168.686C70.8685 167.657 71.8257 166.642 71.9756 165.624C72.1255 164.606 71.4711 163.684 70.018 162.848C68.6617 162.009 67.0915 161.582 65.4974 161.617C64.0007 161.686 62.5437 162.121 61.2535 162.882C59.9965 163.612 59.3593 164.393 59.3362 165.246C59.3132 166.1 59.8956 167.366 61.0863 169.049C63.533 171.813 64.8016 174.204 64.8919 176.222C64.9822 178.24 63.5475 180.103 60.5875 181.81C57.7152 183.456 54.4465 184.284 51.1368 184.203C47.5787 184.145 44.076 183.312 40.8731 181.761L36.067 184.537L32.1807 182.291L36.9867 179.518C34.1382 177.551 32.6074 175.468 32.394 173.267C32.1807 171.066 33.8471 168.98 37.3933 167.008L37.6095 166.965L44.5548 170.972C42.4674 172.174 41.491 173.327 41.6256 174.432C41.7601 175.537 42.6404 176.557 44.2665 177.491C45.7024 178.37 47.3459 178.853 49.0293 178.889C50.5677 178.904 52.0816 178.504 53.4116 177.73Z" fill="#141414"/>
<path d="M61.3073 208.38C61.2057 208.381 61.1051 208.361 61.0112 208.322C60.9173 208.284 60.8319 208.227 60.7601 208.155C60.6883 208.083 60.6313 207.998 60.5926 207.904C60.554 207.81 60.5343 207.709 60.5346 207.608V199.377C60.5282 199.271 60.5434 199.166 60.5792 199.067C60.615 198.968 60.6708 198.877 60.7431 198.8C60.8153 198.723 60.9025 198.662 60.9993 198.62C61.0961 198.578 61.2004 198.557 61.3059 198.557C61.4113 198.557 61.5156 198.578 61.6124 198.62C61.7092 198.662 61.7964 198.723 61.8686 198.8C61.9409 198.877 61.9966 198.968 62.0325 199.067C62.0683 199.166 62.0835 199.271 62.077 199.377V207.608C62.077 207.812 61.9961 208.008 61.8518 208.153C61.7075 208.298 61.5117 208.38 61.3073 208.38ZM70.0055 207.466C69.8011 207.466 69.6053 207.384 69.461 207.239C69.3167 207.094 69.2357 206.898 69.2357 206.694V198.463C69.2293 198.357 69.2444 198.252 69.2803 198.153C69.3161 198.054 69.3719 197.963 69.4441 197.886C69.5164 197.809 69.6036 197.748 69.7004 197.706C69.7972 197.664 69.9015 197.643 70.007 197.643C70.1124 197.643 70.2167 197.664 70.3135 197.706C70.4103 197.748 70.4975 197.809 70.5697 197.886C70.6419 197.963 70.6977 198.054 70.7336 198.153C70.7694 198.252 70.7846 198.357 70.7782 198.463V206.682C70.7789 206.784 70.7595 206.885 70.721 206.98C70.6825 207.074 70.6258 207.16 70.5539 207.232C70.4821 207.305 70.3966 207.362 70.3025 207.401C70.2084 207.441 70.1074 207.461 70.0055 207.461V207.466ZM74.3589 206.625C74.2576 206.625 74.1572 206.605 74.0637 206.566C73.9701 206.527 73.8851 206.47 73.8136 206.398C73.7421 206.326 73.6854 206.241 73.6469 206.147C73.6084 206.054 73.5888 205.953 73.5892 205.852V197.506C73.5827 197.4 73.5979 197.295 73.6337 197.196C73.6696 197.096 73.7253 197.006 73.7976 196.929C73.8698 196.852 73.957 196.791 74.0538 196.749C74.1506 196.707 74.2549 196.686 74.3603 196.686C74.4658 196.686 74.5702 196.707 74.6669 196.749C74.7637 196.791 74.8509 196.852 74.9232 196.929C74.9954 197.006 75.0512 197.096 75.087 197.196C75.1229 197.295 75.138 197.4 75.1316 197.506V205.852C75.1301 206.056 75.048 206.251 74.9032 206.395C74.7585 206.538 74.5629 206.619 74.3589 206.619V206.625Z" fill="#141414"/>
<path d="M96.5861 159.512C96.5688 152.445 91.8924 145.385 82.5427 139.988C63.8431 129.188 33.5479 129.176 14.8656 139.962C5.52158 145.359 0.856773 152.434 0.874071 159.512V167.743C0.874071 174.806 5.56775 181.87 14.9089 187.267C33.6084 198.064 63.921 198.073 82.5888 187.29C91.9357 181.893 96.5977 174.818 96.5861 167.743V159.512Z" fill="white"/>
<path d="M48.7832 196.144C35.8526 196.144 23.7005 193.229 14.5179 187.936C5.23732 182.576 0.116998 175.403 0.102583 167.755V159.524C0.0852845 151.852 5.19123 144.673 14.4833 139.305C23.6227 134.029 35.7661 131.122 48.6678 131.122C61.5695 131.122 73.7505 134.034 82.9302 139.331C92.2165 144.687 97.3455 151.857 97.3599 159.512V167.746C97.3599 175.418 92.2655 182.6 82.9763 187.962C73.8312 193.238 61.6878 196.144 48.7832 196.144ZM48.6649 132.653C36.0284 132.653 24.1589 135.487 15.2502 140.631C6.45975 145.708 1.62775 152.414 1.64217 159.509V167.717C1.65946 174.827 6.50585 181.524 15.2906 186.598C24.2281 191.759 36.1207 194.599 48.7832 194.599C61.4456 194.599 73.2892 191.768 82.2008 186.621C90.9912 181.547 95.8261 174.844 95.8117 167.743V159.512C95.8117 152.423 90.948 145.728 82.1575 140.654C73.22 135.493 61.3245 132.653 48.6649 132.653Z" fill="#141414"/>
<path d="M96.5856 167.743V159.512C96.5683 152.446 91.8919 145.385 82.5421 139.988C78.7339 137.83 74.6839 136.13 70.4766 134.922V192.362C74.6987 191.155 78.7632 189.452 82.5854 187.29C91.9352 181.888 96.5972 174.818 96.5856 167.743Z" fill="#0962FF"/>
<path d="M70.4749 193.131C70.2707 193.131 70.075 193.05 69.9306 192.906C69.7862 192.761 69.7051 192.566 69.7051 192.361V134.922C69.7052 134.802 69.7331 134.684 69.7867 134.577C69.8402 134.47 69.9179 134.377 70.0136 134.305C70.1103 134.233 70.2223 134.185 70.3407 134.163C70.4592 134.142 70.5811 134.148 70.6969 134.181C74.962 135.408 79.0678 137.132 82.9297 139.319C92.2161 144.675 97.3451 151.846 97.3595 159.5V167.734C97.3595 175.406 92.2651 182.588 82.9758 187.95C79.0997 190.142 74.9782 191.869 70.6969 193.094C70.6251 193.117 70.5503 193.129 70.4749 193.131ZM71.2475 135.963V191.318C75.062 190.161 78.7364 188.585 82.2032 186.618C90.9937 181.544 95.8286 174.841 95.8141 167.74V159.509C95.8141 152.419 90.9504 145.725 82.16 140.651C78.705 138.694 75.0456 137.122 71.2475 135.963Z" fill="#141414"/>
<path d="M82.5861 179.059C101.265 168.276 101.245 150.782 82.5399 139.988C63.8346 129.194 33.5451 129.176 14.8629 139.962C-3.8194 150.747 -3.79629 168.239 14.9062 179.036C33.6086 189.833 63.901 189.842 82.5861 179.059Z" fill="#86B2FF"/>
<path d="M48.7831 187.913C35.8526 187.913 23.7004 184.998 14.5179 179.705C5.21998 174.337 0.102539 167.152 0.102539 159.48C0.102539 151.809 5.21137 144.65 14.4862 139.299C23.6255 134.023 35.7689 131.117 48.6706 131.117C61.5724 131.117 73.7533 134.029 82.933 139.325C92.2367 144.693 97.3484 151.878 97.3484 159.552C97.3484 167.227 92.2424 174.38 82.9676 179.734C73.8311 185.007 61.6877 187.913 48.7831 187.913ZM48.6649 132.653C36.0284 132.653 24.1588 135.488 15.2502 140.631C6.47412 145.699 1.63924 152.391 1.63924 159.48C1.63924 166.57 6.48851 173.287 15.2905 178.367C24.228 183.528 36.1207 186.371 48.7831 186.371C61.4455 186.371 73.2892 183.537 82.2007 178.39C90.9768 173.325 95.8117 166.633 95.8117 159.547C95.8117 152.46 90.9624 145.737 82.1575 140.654C73.22 135.493 61.3244 132.653 48.6649 132.653Z" fill="#141414"/>
<path d="M21.7576 173.702C21.5557 173.593 21.3337 173.495 21.1377 173.379C5.9093 164.586 5.89492 150.286 21.106 141.504C21.3164 141.386 21.5442 141.285 21.7576 141.167V173.702ZM53.8662 135.147C52.0412 135.006 50.2048 134.925 48.3683 134.934V179.97C50.2048 179.97 52.0412 179.904 53.8662 179.768V135.147ZM76.3167 141.524C73.04 139.68 69.5494 138.244 65.9232 137.249V177.681C69.5665 176.692 73.0731 175.254 76.3628 173.402C91.5825 164.621 91.5508 150.318 76.3167 141.524Z" fill="white"/>
<path d="M45.1819 165.382C46.5158 164.613 47.2029 163.775 47.2432 162.868C47.2836 161.963 46.6954 160.729 45.4903 159.166C43.0455 156.329 41.7568 153.927 41.6242 151.959C41.4944 149.981 42.9187 148.139 45.8969 146.412C48.6416 144.828 51.7793 144.044 55.3101 144.059C58.883 144.077 62.4077 144.885 65.6314 146.426L70.8584 143.41L74.7449 145.653L69.4429 148.733C71.9684 150.655 73.1216 152.641 72.9025 154.692C72.6834 156.743 71.0449 158.621 67.9869 160.328L67.8139 160.369L60.8484 156.35C62.6244 155.32 63.5816 154.303 63.7315 153.285C63.8814 152.267 63.2269 151.345 61.7768 150.509C60.4195 149.67 58.8482 149.243 57.2532 149.28C55.7563 149.348 54.2989 149.783 53.0094 150.546C51.7524 151.273 51.1181 152.057 51.0922 152.91C51.0662 153.763 51.6514 155.026 52.8393 156.71C55.286 159.474 56.5556 161.866 56.6478 163.886C56.7401 165.906 55.3052 167.768 52.3434 169.47C49.4713 171.118 46.2027 171.946 42.8927 171.866C39.3343 171.808 35.8317 170.973 32.629 169.421L27.823 172.201L23.9365 169.955L28.7426 167.181C25.8942 165.215 24.3633 163.132 24.1499 160.931C23.9366 158.73 25.603 156.643 29.1491 154.669L29.3654 154.628L36.3107 158.636C34.2253 159.839 33.2488 160.992 33.3814 162.096C33.5141 163.199 34.3944 164.218 36.0224 165.154C37.4583 166.031 39.1003 166.514 40.7823 166.553C42.3277 166.567 43.8481 166.163 45.1819 165.382Z" fill="#141414"/>
<path d="M53.07 196.032C52.8656 196.031 52.6699 195.95 52.5256 195.805C52.3813 195.66 52.3003 195.464 52.3003 195.26V187.031C52.2938 186.926 52.309 186.821 52.3448 186.721C52.3807 186.622 52.4364 186.531 52.5087 186.455C52.5809 186.378 52.6681 186.317 52.7649 186.275C52.8617 186.233 52.9661 186.211 53.0715 186.211C53.1769 186.211 53.2813 186.233 53.378 186.275C53.4748 186.317 53.562 186.378 53.6343 186.455C53.7065 186.531 53.7623 186.622 53.7981 186.721C53.834 186.821 53.8492 186.926 53.8427 187.031V195.26C53.8427 195.464 53.7613 195.661 53.6164 195.806C53.4715 195.951 53.2749 196.032 53.07 196.032ZM61.774 195.104C61.5691 195.104 61.3725 195.022 61.2276 194.878C61.0827 194.733 61.0013 194.536 61.0013 194.331V186.1C61.0134 185.904 61.0999 185.719 61.2432 185.584C61.3865 185.45 61.5758 185.375 61.7726 185.375C61.9693 185.375 62.1586 185.45 62.302 185.584C62.4453 185.719 62.5318 185.904 62.5438 186.1V194.331C62.545 194.433 62.5259 194.534 62.4878 194.629C62.4496 194.723 62.3932 194.809 62.3216 194.882C62.25 194.955 62.1648 195.012 62.0708 195.052C61.9768 195.092 61.8759 195.112 61.774 195.112V195.104ZM66.1246 194.262C66.0232 194.262 65.9228 194.243 65.8291 194.204C65.7353 194.166 65.6501 194.109 65.5783 194.038C65.5066 193.966 65.4496 193.881 65.4108 193.787C65.3719 193.694 65.3519 193.594 65.3519 193.492V185.131C65.3519 184.926 65.4333 184.73 65.5782 184.585C65.7231 184.44 65.9196 184.359 66.1246 184.359C66.3295 184.359 66.526 184.44 66.6709 184.585C66.8158 184.73 66.8972 184.926 66.8972 185.131V193.492C66.9003 193.595 66.8826 193.698 66.8451 193.795C66.8076 193.891 66.7512 193.979 66.6791 194.053C66.607 194.127 66.5207 194.185 66.4255 194.225C66.3302 194.265 66.2279 194.285 66.1246 194.285V194.262Z" fill="#141414"/>
<path d="M104.815 147.164C104.815 140.1 100.121 133.037 90.7769 127.64C72.0716 116.843 41.7648 116.831 23.0941 127.617C13.75 133.014 9.08523 140.086 9.09964 147.164V155.395C9.11694 162.461 13.7962 169.522 23.1345 174.919C41.8369 185.719 72.1466 185.728 90.8202 174.945C100.164 169.548 104.826 162.473 104.815 155.395V147.164Z" fill="white"/>
<path d="M57.0147 183.799C44.087 183.799 31.9175 180.881 22.7523 175.588C13.4688 170.228 8.33696 163.058 8.33696 155.407V147.173C8.31966 139.504 13.4255 132.322 22.7177 126.956C31.857 121.678 44.0005 118.771 56.9022 118.771C69.8039 118.771 81.9993 121.686 91.1703 126.98C100.454 132.339 105.586 139.509 105.586 147.161V155.395C105.586 163.067 100.491 170.249 91.2049 175.611C82.0656 180.89 69.9193 183.799 57.0147 183.799ZM56.8964 120.305C44.2599 120.305 32.3904 123.139 23.4817 128.283C14.6912 133.363 9.85636 140.066 9.87365 147.161V155.363C9.89095 162.473 14.7373 169.17 23.522 174.245C32.4595 179.405 44.3522 182.245 57.0147 182.245C69.6771 182.245 81.5207 179.411 90.4351 174.268C99.2227 169.19 104.058 162.487 104.046 155.389V147.155C104.029 140.069 99.1794 133.371 90.3918 128.3C81.4515 123.148 69.5559 120.305 56.8964 120.305Z" fill="#141414"/>
<path d="M104.818 155.395V147.164C104.818 140.1 100.124 133.037 90.7804 127.64C86.9694 125.486 82.9189 123.787 78.7119 122.577V180.013C82.9337 178.807 86.9982 177.105 90.8208 174.945C100.168 169.548 104.844 162.473 104.818 155.395Z" fill="#0962FF"/>
<path d="M78.7083 180.787C78.5413 180.786 78.3788 180.732 78.2441 180.634C78.1483 180.561 78.0706 180.468 78.0171 180.36C77.9636 180.253 77.9357 180.134 77.9356 180.014V122.578C77.9351 122.458 77.9627 122.339 78.0162 122.232C78.0697 122.124 78.1477 122.031 78.2438 121.959C78.3399 121.887 78.4515 121.838 78.5697 121.817C78.6879 121.796 78.8094 121.802 78.9245 121.837C83.1908 123.064 87.2984 124.787 91.1631 126.971C100.447 132.331 105.578 139.501 105.578 147.153V155.387C105.578 163.059 100.484 170.24 91.1977 175.603C87.3218 177.798 83.199 179.524 78.9158 180.746C78.8487 180.769 78.7789 180.782 78.7083 180.787ZM79.4694 123.618V178.973C83.2831 177.815 86.9573 176.239 90.425 174.274C99.2126 169.197 104.047 162.494 104.036 155.396V147.162C104.019 140.075 99.1694 133.378 90.3818 128.306C86.9274 126.348 83.2678 124.776 79.4694 123.618Z" fill="#141414"/>
<path d="M90.8194 166.714C109.496 155.931 109.476 138.434 90.7761 127.64C72.0766 116.846 41.764 116.831 23.0933 127.617C4.42254 138.402 4.43411 155.894 23.1337 166.688C41.8332 177.482 72.14 177.497 90.8194 166.714Z" fill="#86B2FF"/>
<path d="M57.0146 175.565C44.087 175.565 31.9175 172.65 22.7522 167.357C13.4515 161.989 8.33691 154.807 8.33691 147.132C8.33691 139.458 13.4457 132.302 22.7205 126.951C31.8598 121.672 44.0033 118.766 56.905 118.766C69.8067 118.766 82.0021 121.681 91.1732 126.974C100.474 132.345 105.589 139.527 105.589 147.202C105.589 154.876 100.483 162.029 91.2077 167.383C82.0655 172.662 69.9192 175.565 57.0146 175.565ZM56.8964 120.305C44.2599 120.305 32.3903 123.139 23.4817 128.283C14.7056 133.351 9.87072 140.046 9.87072 147.132C9.87072 154.219 14.72 160.939 23.522 166.022C32.4595 171.183 44.3522 174.023 57.0146 174.023C69.677 174.023 81.5207 171.189 90.4351 166.045C99.2111 160.98 104.046 154.285 104.046 147.199C104.046 140.112 99.1938 133.392 90.3918 128.309C81.4514 123.148 69.5559 120.305 56.8964 120.305Z" fill="#141414"/>
<path d="M56.9558 182.899C56.8544 182.899 56.7541 182.879 56.6606 182.84C56.567 182.801 56.482 182.744 56.4105 182.672C56.339 182.6 56.2823 182.515 56.2438 182.421C56.2053 182.328 56.1856 182.227 56.186 182.126V175.599C56.1796 175.494 56.1947 175.389 56.2306 175.289C56.2664 175.19 56.3222 175.1 56.3944 175.023C56.4667 174.946 56.5539 174.885 56.6507 174.843C56.7475 174.801 56.8518 174.779 56.9572 174.779C57.0627 174.779 57.167 174.801 57.2638 174.843C57.3606 174.885 57.4477 174.946 57.52 175.023C57.5922 175.1 57.648 175.19 57.6839 175.289C57.7197 175.389 57.7349 175.494 57.7285 175.599V182.126C57.7285 182.227 57.7085 182.328 57.6696 182.422C57.6308 182.515 57.5739 182.601 57.5021 182.672C57.4304 182.744 57.3452 182.801 57.2515 182.84C57.1577 182.879 57.0572 182.899 56.9558 182.899ZM68.9102 182.458C68.7053 182.458 68.5087 182.376 68.3638 182.231C68.2189 182.086 68.1375 181.89 68.1375 181.685V175.083C68.1375 174.878 68.2189 174.682 68.3638 174.537C68.5087 174.392 68.7053 174.311 68.9102 174.311C69.1151 174.311 69.3116 174.392 69.4565 174.537C69.6014 174.682 69.6828 174.878 69.6828 175.083V181.685C69.6813 181.889 69.5992 182.084 69.4545 182.228C69.3097 182.371 69.1141 182.452 68.9102 182.452V182.458ZM74.358 181.039C74.2569 181.039 74.1568 181.019 74.0634 180.98C73.97 180.942 73.8852 180.885 73.8137 180.814C73.7422 180.742 73.6855 180.657 73.6468 180.564C73.6081 180.47 73.5882 180.37 73.5882 180.269V173.535C73.5818 173.43 73.5969 173.324 73.6328 173.225C73.6686 173.126 73.7244 173.035 73.7966 172.958C73.8689 172.882 73.9561 172.82 74.0529 172.779C74.1496 172.737 74.254 172.715 74.3594 172.715C74.4648 172.715 74.5692 172.737 74.666 172.779C74.7628 172.82 74.85 172.882 74.9222 172.958C74.9945 173.035 75.0502 173.126 75.0861 173.225C75.1219 173.324 75.1371 173.43 75.1306 173.535V180.269C75.1283 180.473 75.046 180.667 74.9013 180.81C74.7566 180.953 74.5614 181.033 74.358 181.033V181.039Z" fill="#141414"/>
<path d="M103.236 255.803C84.6926 255.803 69.6605 240.043 69.6605 220.603C69.6605 201.162 84.6926 185.402 103.236 185.402C121.778 185.402 136.811 201.162 136.811 220.603C136.811 240.043 121.778 255.803 103.236 255.803Z" fill="#0962FF" stroke="#141414" stroke-width="0.828724" stroke-miterlimit="10"/>
<path d="M108.89 253.118C90.3469 253.118 75.3148 237.358 75.3148 217.917C75.3148 198.476 90.3469 182.716 108.89 182.716C127.433 182.716 142.465 198.476 142.465 217.917C142.465 237.358 127.433 253.118 108.89 253.118Z" fill="white" stroke="#141414" stroke-width="0.828724" stroke-miterlimit="10"/>
<path d="M94.9473 226.24H100.439C100.439 229.206 104.2 231.732 108.676 231.732C113.151 231.732 116.913 229.206 116.913 226.24C116.913 223.22 114.057 222.122 108.017 220.666C102.196 219.211 94.9473 217.399 94.9473 209.766C94.9473 204.851 98.9834 200.677 104.557 199.277V193.291H112.794V199.277C118.368 200.677 122.404 204.851 122.404 209.766H116.913C116.913 206.8 113.151 204.274 108.676 204.274C104.2 204.274 100.439 206.8 100.439 209.766C100.439 212.786 103.294 213.884 109.335 215.34C115.156 216.795 122.404 218.607 122.404 226.24C122.404 231.155 118.368 235.329 112.794 236.729V242.715H104.557V236.729C98.9834 235.329 94.9473 231.155 94.9473 226.24Z" fill="#141414"/>
</svg>
