<svg width="306" height="300" viewBox="0 0 306 300" fill="none" xmlns="http://www.w3.org/2000/svg">
<path d="M22.8564 75.4235C19.2271 75.4235 16.285 72.339 16.285 68.534C16.285 64.7291 19.2271 61.6446 22.8564 61.6446C26.4856 61.6446 29.4277 64.7291 29.4277 68.534C29.4277 72.339 26.4856 75.4235 22.8564 75.4235Z" fill="#0962FF" stroke="black" stroke-width="0.0761428" stroke-miterlimit="10"/>
<path d="M22.1747 74.898C18.5455 74.898 15.6034 71.8134 15.6034 68.0085C15.6034 64.2036 18.5455 61.1191 22.1747 61.1191C25.804 61.1191 28.7461 64.2036 28.7461 68.0085C28.7461 71.8134 25.804 74.898 22.1747 74.898Z" fill="white" stroke="#050505" stroke-width="0.0878078" stroke-miterlimit="10"/>
<path d="M24.1168 71.2266C24.1168 71.2266 24.3948 70.6089 24.3621 69.4385C24.3357 68.4936 23.7568 68.1208 23.3053 67.9695C23.1147 67.9056 22.9123 67.8961 22.7113 67.9002C22.3394 67.9077 21.6439 67.9171 20.5601 67.8942C19.023 67.8617 18.8331 66.7157 18.8431 66.1467V64.3586H24.1168M24.1168 71.2266H19.1293L21.6231 67.7926L24.1168 64.3586M24.1168 71.2266L26.2834 67.8942L24.1168 64.3586" stroke="#141414" stroke-width="0.817613"/>
<path d="M30.7527 84.5262C26.1336 84.5262 22.3891 80.6005 22.3891 75.7578C22.3891 70.9152 26.1336 66.9894 30.7527 66.9894C35.3717 66.9894 39.1162 70.9152 39.1162 75.7578C39.1162 80.6005 35.3717 84.5262 30.7527 84.5262Z" fill="#0962FF" stroke="black" stroke-width="0.096909" stroke-miterlimit="10"/>
<path d="M29.8865 83.8572C25.2674 83.8572 21.5229 79.9315 21.5229 75.0889C21.5229 70.2462 25.2674 66.3205 29.8865 66.3205C34.5055 66.3205 38.25 70.2462 38.25 75.0889C38.25 79.9315 34.5055 83.8572 29.8865 83.8572Z" fill="white" stroke="#050505" stroke-width="0.111755" stroke-miterlimit="10"/>
<path d="M32.3579 79.1846C32.3579 79.1846 32.7117 78.3985 32.6701 76.9089C32.6364 75.7063 31.8997 75.2318 31.3251 75.0392C31.0825 74.9579 30.8249 74.9458 30.5691 74.951C30.0958 74.9606 29.2106 74.9726 27.8312 74.9434C25.8749 74.902 25.6332 73.4435 25.646 72.7194V70.4436H32.3579M32.3579 79.1846H26.0102L29.184 74.8141L32.3579 70.4436M32.3579 79.1846L35.1155 74.9434L32.3579 70.4436" stroke="#141414" stroke-width="1.0406"/>
<path d="M148.267 252.278C144.308 252.278 141.098 248.913 141.098 244.762C141.098 240.611 144.308 237.246 148.267 237.246C152.226 237.246 155.436 240.611 155.436 244.762C155.436 248.913 152.226 252.278 148.267 252.278Z" fill="#0962FF" stroke="black" stroke-width="0.0830649" stroke-miterlimit="10"/>
<path d="M147.523 251.704C143.563 251.704 140.354 248.339 140.354 244.189C140.354 240.038 143.563 236.673 147.523 236.673C151.482 236.673 154.691 240.038 154.691 244.189C154.691 248.339 151.482 251.704 147.523 251.704Z" fill="white" stroke="#050505" stroke-width="0.0957905" stroke-miterlimit="10"/>
<path d="M150.891 244.409C150.855 244.206 150.782 244.002 150.661 243.824C150.552 243.646 150.394 243.506 150.224 243.392C150.054 243.278 149.86 243.201 149.666 243.176C149.933 243.049 150.139 242.832 150.273 242.553C150.406 242.286 150.442 241.968 150.394 241.675C150.297 240.607 149.436 240.251 148.344 240.137V238.662L147.495 238.649V240.086C147.277 240.086 147.046 240.086 146.816 240.086V238.636L145.967 238.624V240.099C145.785 240.099 145.603 240.099 145.433 240.099L144.269 240.086V241.04C144.269 241.04 144.9 241.027 144.888 241.04C144.997 241.027 145.118 241.065 145.203 241.129C145.288 241.205 145.348 241.307 145.373 241.434L145.361 245.477C145.361 245.515 145.348 245.554 145.336 245.592C145.324 245.63 145.3 245.668 145.264 245.694C145.239 245.719 145.203 245.744 145.166 245.757C145.13 245.77 145.094 245.77 145.045 245.77C145.057 245.783 144.427 245.77 144.427 245.77L144.257 246.838L145.361 246.851C145.567 246.851 145.773 246.863 145.967 246.863V248.351L146.816 248.364V246.889C147.046 246.902 147.265 246.902 147.495 246.902V248.364L148.344 248.377V246.889C149.775 246.812 150.77 246.444 150.891 245.032C150.915 244.842 150.928 244.625 150.891 244.409ZM146.828 241.141C147.301 241.141 148.805 241.001 148.805 242.057C148.805 243.074 147.301 242.934 146.816 242.934L146.828 241.141ZM146.816 245.821L146.828 243.85C147.398 243.85 149.205 243.697 149.205 244.854C149.193 245.973 147.398 245.821 146.816 245.821Z" fill="#141414"/>
<path d="M141.889 282.187C136.61 282.187 132.331 277.7 132.331 272.166C132.331 266.632 136.61 262.145 141.889 262.145C147.168 262.145 151.447 266.632 151.447 272.166C151.447 277.7 147.168 282.187 141.889 282.187Z" fill="#0962FF" stroke="black" stroke-width="0.110753" stroke-miterlimit="10"/>
<path d="M140.899 281.423C135.62 281.423 131.34 276.936 131.34 271.402C131.34 265.867 135.62 261.381 140.899 261.381C146.178 261.381 150.457 265.867 150.457 271.402C150.457 276.936 146.178 281.423 140.899 281.423Z" fill="white" stroke="#050505" stroke-width="0.127721" stroke-miterlimit="10"/>
<path d="M145.387 271.696C145.338 271.424 145.241 271.153 145.08 270.916C144.934 270.678 144.724 270.492 144.497 270.339C144.271 270.187 144.012 270.085 143.754 270.051C144.109 269.882 144.384 269.593 144.562 269.22C144.74 268.864 144.789 268.44 144.724 268.05C144.594 266.626 143.446 266.152 141.991 265.999V264.032L140.859 264.015V265.931C140.568 265.931 140.26 265.931 139.953 265.931V263.998L138.821 263.981V265.948C138.579 265.948 138.336 265.948 138.11 265.948L136.557 265.931V267.203C136.557 267.203 137.398 267.186 137.382 267.203C137.527 267.186 137.689 267.237 137.802 267.321C137.916 267.423 137.996 267.559 138.029 267.728L138.013 273.12C138.013 273.171 137.996 273.222 137.98 273.272C137.964 273.323 137.932 273.374 137.883 273.408C137.851 273.442 137.802 273.476 137.754 273.493C137.705 273.51 137.657 273.51 137.592 273.51C137.608 273.527 136.767 273.51 136.767 273.51L136.541 274.934L138.013 274.951C138.288 274.951 138.562 274.968 138.821 274.968V276.952L139.953 276.968V275.002C140.26 275.019 140.552 275.019 140.859 275.019V276.968L141.991 276.985V275.002C143.899 274.9 145.225 274.408 145.387 272.526C145.419 272.272 145.435 271.984 145.387 271.696ZM139.969 267.338C140.6 267.338 142.605 267.152 142.605 268.559C142.605 269.915 140.6 269.729 139.953 269.729L139.969 267.338ZM139.953 273.578L139.969 270.95C140.729 270.95 143.139 270.746 143.139 272.289C143.123 273.781 140.729 273.578 139.953 273.578Z" fill="#141414"/>
<path d="M49.6664 75.5244C42.3822 75.5244 36.4773 69.3337 36.4773 61.6969C36.4773 54.0602 42.3822 47.8694 49.6664 47.8694C56.9505 47.8694 62.8555 54.0602 62.8555 61.6969C62.8555 69.3337 56.9505 75.5244 49.6664 75.5244Z" fill="#0962FF" stroke="black" stroke-width="0.152823" stroke-miterlimit="10"/>
<path d="M48.2992 74.4697C41.0151 74.4697 35.1101 68.2789 35.1101 60.6422C35.1101 53.0055 41.0151 46.8147 48.2992 46.8147C55.5833 46.8147 61.4883 53.0055 61.4883 60.6422C61.4883 68.2789 55.5833 74.4697 48.2992 74.4697Z" fill="white" stroke="#050505" stroke-width="0.176235" stroke-miterlimit="10"/>
<path d="M52.1975 67.1011C52.1975 67.1011 52.7555 65.8613 52.6898 63.5122C52.6368 61.6158 51.4751 60.8676 50.5688 60.5639C50.1863 60.4357 49.7801 60.4166 49.3767 60.4248C48.6302 60.4399 47.2344 60.4588 45.0591 60.4128C41.974 60.3476 41.5929 58.0474 41.613 56.9055V53.3167H52.1975M52.1975 67.1011H42.1874L47.1925 60.2089L52.1975 53.3167M52.1975 67.1011L56.5462 60.4128L52.1975 53.3167" stroke="#141414" stroke-width="1.641"/>
<path d="M132.894 156.048C123.656 156.048 116.167 148.197 116.167 138.512C116.167 128.826 123.656 120.975 132.894 120.975C142.132 120.975 149.621 128.826 149.621 138.512C149.621 148.197 142.132 156.048 132.894 156.048Z" fill="#0962FF" stroke="black" stroke-width="0.193818" stroke-miterlimit="10"/>
<path d="M131.161 154.711C121.922 154.711 114.433 146.859 114.433 137.174C114.433 127.488 121.922 119.637 131.161 119.637C140.399 119.637 147.888 127.488 147.888 137.174C147.888 146.859 140.399 154.711 131.161 154.711Z" fill="white" stroke="#050505" stroke-width="0.223511" stroke-miterlimit="10"/>
<path d="M124.221 141.322H126.957C126.957 142.799 128.831 144.058 131.06 144.058C133.29 144.058 135.164 142.799 135.164 141.322C135.164 139.817 133.741 139.27 130.732 138.545C127.832 137.82 124.221 136.917 124.221 133.114C124.221 130.666 126.232 128.587 129.008 127.889V124.907H133.112V127.889C135.889 128.587 137.9 130.666 137.9 133.114H135.164C135.164 131.637 133.29 130.379 131.06 130.379C128.831 130.379 126.957 131.637 126.957 133.114C126.957 134.619 128.379 135.166 131.389 135.891C134.289 136.616 137.9 137.519 137.9 141.322C137.9 143.77 135.889 145.85 133.112 146.547V149.529H129.008V146.547C126.232 145.85 124.221 143.77 124.221 141.322Z" fill="#141414"/>
<path d="M168.172 156.196C155.597 156.196 145.403 145.509 145.403 132.325C145.403 119.141 155.597 108.454 168.172 108.454C180.747 108.454 190.941 119.141 190.941 132.325C190.941 145.509 180.747 156.196 168.172 156.196Z" fill="#0962FF" stroke="black" stroke-width="0.263827" stroke-miterlimit="10"/>
<path d="M165.812 154.375C153.237 154.375 143.043 143.688 143.043 130.504C143.043 117.32 153.237 106.633 165.812 106.633C178.387 106.633 188.581 117.32 188.581 130.504C188.581 143.688 178.387 154.375 165.812 154.375Z" fill="white" stroke="#050505" stroke-width="0.304246" stroke-miterlimit="10"/>
<path d="M156.366 136.15H160.09C160.09 138.161 162.641 139.875 165.676 139.875C168.711 139.875 171.262 138.161 171.262 136.15C171.262 134.102 169.326 133.357 165.229 132.371C161.282 131.384 156.366 130.155 156.366 124.978C156.366 121.645 159.103 118.815 162.883 117.865V113.806H168.469V117.865C172.249 118.815 174.986 121.645 174.986 124.978H171.262C171.262 122.967 168.711 121.254 165.676 121.254C162.641 121.254 160.09 122.967 160.09 124.978C160.09 127.027 162.027 127.771 166.123 128.758C170.071 129.745 174.986 130.974 174.986 136.15C174.986 139.483 172.249 142.314 168.469 143.263V147.323H162.883V143.263C159.103 142.314 156.366 139.483 156.366 136.15Z" fill="#141414"/>
<path d="M148.533 73.8605C150.699 72.6096 153.369 72.6096 155.535 73.8605L199.893 99.4702C202.059 100.721 203.394 103.033 203.394 105.535V156.754C203.394 159.256 202.059 161.568 199.893 162.819L155.535 188.428C153.369 189.679 150.699 189.679 148.533 188.428L104.175 162.819C102.009 161.568 100.674 159.256 100.674 156.754V105.535C100.674 103.033 102.009 100.721 104.175 99.4702L148.533 73.8605Z" stroke="#0962FF" stroke-width="2.80104"/>
<path d="M105.816 105.795L148.532 130.444" stroke="#0962FF" stroke-width="2.80104" stroke-linecap="round"/>
<path d="M198.949 105.795L156.234 130.444" stroke="#0962FF" stroke-width="2.80104" stroke-linecap="round"/>
<path d="M152.034 134.646L152.034 183.664" stroke="#0962FF" stroke-width="2.80104" stroke-linecap="round"/>
<path d="M284.268 85.7795C278.671 85.7795 274.134 81.0227 274.134 75.1549C274.134 69.2871 278.671 64.5303 284.268 64.5303C289.865 64.5303 294.402 69.2871 294.402 75.1549C294.402 81.0227 289.865 85.7795 284.268 85.7795Z" fill="#0962FF" stroke="black" stroke-width="0.117424" stroke-miterlimit="10"/>
<path d="M283.217 84.969C277.621 84.969 273.083 80.2122 273.083 74.3444C273.083 68.4766 277.621 63.7198 283.217 63.7198C288.814 63.7198 293.352 68.4766 293.352 74.3444C293.352 80.2122 288.814 84.969 283.217 84.969Z" fill="white" stroke="#050505" stroke-width="0.135414" stroke-miterlimit="10"/>
<path d="M283.158 65.832C283.113 67.3572 283.067 69.7405 282.999 72.0522L278.384 73.0293L283.158 65.832Z" fill="#343434"/>
<path d="M283.158 65.832L287.5 75.77L282.999 72.0522C283.045 69.7405 283.113 67.3572 283.158 65.832Z" fill="#8C8C8C"/>
<path d="M278.363 74.0063L282.841 78.4152L282.727 82.6336L278.363 74.0063Z" fill="#3C3C3B"/>
<path d="M287.477 76.7471L282.726 82.6337L282.839 78.4154L287.477 76.7471Z" fill="#8C8C8C"/>
<path d="M282.999 72.0522L282.863 77.4383L278.384 73.0293L282.999 72.0522Z" fill="#141414"/>
<path d="M282.999 72.0522L287.5 75.77L282.863 77.4383L282.999 72.0522Z" fill="#393939"/>
<path d="M259.031 78.1251C251.747 78.1251 245.842 71.9344 245.842 64.2976C245.842 56.6609 251.747 50.4702 259.031 50.4702C266.315 50.4702 272.22 56.6609 272.22 64.2976C272.22 71.9344 266.315 78.1251 259.031 78.1251Z" fill="#0962FF" stroke="black" stroke-width="0.152823" stroke-miterlimit="10"/>
<path d="M257.663 77.0705C250.379 77.0705 244.474 70.8797 244.474 63.243C244.474 55.6062 250.379 49.4155 257.663 49.4155C264.948 49.4155 270.853 55.6062 270.853 63.243C270.853 70.8797 264.948 77.0705 257.663 77.0705Z" fill="white" stroke="#050505" stroke-width="0.176235" stroke-miterlimit="10"/>
<path d="M257.589 52.1645C257.53 54.1496 257.471 57.2512 257.382 60.2598L251.376 61.5315L257.589 52.1645Z" fill="#343434"/>
<path d="M257.589 52.1645L263.239 65.0984L257.381 60.2598C257.441 57.2512 257.529 54.1496 257.589 52.1645Z" fill="#8C8C8C"/>
<path d="M251.347 62.8031L257.175 68.5412L257.027 74.0311L251.347 62.8031Z" fill="#3C3C3B"/>
<path d="M263.21 66.3701L257.027 74.0312L257.175 68.5413L263.21 66.3701Z" fill="#8C8C8C"/>
<path d="M257.383 60.2599L257.205 67.2697L251.377 61.5316L257.383 60.2599Z" fill="#141414"/>
<path d="M257.381 60.2598L263.239 65.0984L257.204 67.2695L257.381 60.2598Z" fill="#393939"/>
<path d="M266.217 32.1112C267.528 31.3543 269.144 31.3543 270.455 32.1112L297.296 47.6081C298.607 48.365 299.415 49.7639 299.415 51.2778V82.2715C299.415 83.7854 298.607 85.1842 297.296 85.9412L270.455 101.438C269.144 102.195 267.528 102.195 266.217 101.438L239.376 85.9412C238.065 85.1842 237.257 83.7854 237.257 82.2715V51.2778C237.257 49.7639 238.065 48.365 239.376 47.6081L266.217 32.1112Z" stroke="#0962FF" stroke-width="1.69495"/>
<path d="M240.369 51.4352L266.217 66.3507" stroke="#0962FF" stroke-width="1.69495" stroke-linecap="round"/>
<path d="M296.726 51.4352L270.878 66.3507" stroke="#0962FF" stroke-width="1.69495" stroke-linecap="round"/>
<path d="M268.335 68.8932L268.335 98.5548" stroke="#0962FF" stroke-width="1.69495" stroke-linecap="round"/>
<path d="M161.5 278.387C154.216 278.387 148.311 272.196 148.311 264.559C148.311 256.923 154.216 250.732 161.5 250.732C168.784 250.732 174.689 256.923 174.689 264.559C174.689 272.196 168.784 278.387 161.5 278.387Z" fill="#0962FF" stroke="black" stroke-width="0.152823" stroke-miterlimit="10"/>
<path d="M160.132 277.332C152.848 277.332 146.943 271.141 146.943 263.505C146.943 255.868 152.848 249.677 160.132 249.677C167.416 249.677 173.321 255.868 173.321 263.505C173.321 271.141 167.416 277.332 160.132 277.332Z" fill="white" stroke="#050505" stroke-width="0.176235" stroke-miterlimit="10"/>
<path d="M165.801 264.907C165.738 264.555 165.612 264.202 165.402 263.893C165.213 263.585 164.939 263.342 164.645 263.144C164.351 262.946 164.014 262.813 163.678 262.769C164.141 262.549 164.498 262.174 164.729 261.689C164.96 261.226 165.024 260.675 164.939 260.168C164.771 258.317 163.279 257.7 161.387 257.502V254.945L159.915 254.923V257.413C159.536 257.413 159.137 257.413 158.738 257.413V254.901L157.266 254.879V257.435C156.951 257.435 156.635 257.435 156.341 257.435L154.323 257.413V259.066C154.323 259.066 155.416 259.044 155.395 259.066C155.584 259.044 155.794 259.11 155.942 259.221C156.089 259.353 156.194 259.529 156.236 259.75L156.215 266.759C156.215 266.825 156.194 266.891 156.173 266.957C156.152 267.023 156.11 267.089 156.047 267.133C156.005 267.177 155.942 267.221 155.878 267.243C155.815 267.266 155.752 267.266 155.668 267.266C155.689 267.288 154.596 267.266 154.596 267.266L154.302 269.117L156.215 269.139C156.572 269.139 156.93 269.161 157.266 269.161V271.74L158.738 271.762V269.205C159.137 269.227 159.515 269.227 159.915 269.227V271.762L161.387 271.784V269.205C163.867 269.073 165.591 268.434 165.801 265.987C165.843 265.657 165.864 265.282 165.801 264.907ZM158.759 259.243C159.579 259.243 162.185 259 162.185 260.83C162.185 262.593 159.579 262.35 158.738 262.35L158.759 259.243ZM158.738 267.354L158.759 263.937C159.747 263.937 162.879 263.673 162.879 265.679C162.858 267.618 159.747 267.354 158.738 267.354Z" fill="#141414"/>
<path d="M150.482 228.472C151.793 227.715 153.408 227.715 154.719 228.472L181.561 243.969C182.872 244.726 183.679 246.124 183.679 247.638V278.632C183.679 280.146 182.872 281.545 181.561 282.302L154.719 297.799C153.408 298.555 151.793 298.555 150.482 297.799L123.641 282.302C122.329 281.545 121.522 280.146 121.522 278.632V247.638C121.522 246.124 122.329 244.725 123.641 243.969L150.482 228.472Z" stroke="#0962FF" stroke-width="1.69495"/>
<path d="M124.633 247.796L150.481 262.711" stroke="#0962FF" stroke-width="1.69495" stroke-linecap="round"/>
<path d="M180.991 247.796L155.143 262.711" stroke="#0962FF" stroke-width="1.69495" stroke-linecap="round"/>
<path d="M152.6 265.254L152.6 294.915" stroke="#0962FF" stroke-width="1.69495" stroke-linecap="round"/>
<path d="M34.7465 26.9096C36.0575 26.1526 37.6728 26.1526 38.9839 26.9096L65.8252 42.4064C67.1363 43.1634 67.9439 44.5622 67.9439 46.0761V77.0698C67.9439 78.5837 67.1363 79.9826 65.8252 80.7395L38.9839 96.2364C37.6728 96.9933 36.0575 96.9933 34.7465 96.2364L7.90516 80.7395C6.59411 79.9826 5.78647 78.5837 5.78647 77.0698V46.0761C5.78647 44.5622 6.59411 43.1634 7.90516 42.4064L34.7465 26.9096Z" stroke="#0962FF" stroke-width="1.69495"/>
<path d="M8.89806 46.2335L34.7459 61.149" stroke="#0962FF" stroke-width="1.69495" stroke-linecap="round"/>
<path d="M65.2553 46.2335L39.4074 61.149" stroke="#0962FF" stroke-width="1.69495" stroke-linecap="round"/>
<path d="M36.8643 63.6915L36.8643 93.3532" stroke="#0962FF" stroke-width="1.69495" stroke-linecap="round"/>
<path d="M233.135 86.4222L208.063 100.949" stroke="#0962FF" stroke-width="2.80104" stroke-linecap="round"/>
<path d="M71.9361 82.3133L95.9305 98.5579" stroke="#0962FF" stroke-width="2.80104" stroke-linecap="round"/>
<path d="M152.146 196.361L152.146 222.369" stroke="#0962FF" stroke-width="2.80104" stroke-linecap="round"/>
<path fill-rule="evenodd" clip-rule="evenodd" d="M238.655 149.937C237.753 149.416 236.643 149.416 235.741 149.937L208.064 165.916C208.063 165.916 208.063 165.916 208.063 165.916V197.876C208.063 198.917 208.619 199.879 209.52 200.399L237.198 216.379C237.198 216.379 237.198 216.379 237.198 216.379H237.198C237.198 216.379 237.198 216.379 237.198 216.379C237.198 216.379 237.198 216.379 237.198 216.379L264.876 200.399C265.777 199.879 266.333 198.917 266.333 197.876V167.598C266.333 166.558 265.777 165.596 264.876 165.075L238.655 149.937Z" fill="white"/>
<path fill-rule="evenodd" clip-rule="evenodd" d="M208.829 166.845C208.822 166.849 208.814 166.849 208.807 166.845C208.793 166.837 208.774 166.847 208.774 166.864V166.876V198.08C208.774 198.592 209.049 199.063 209.493 199.316L236.958 214.93C236.966 214.935 236.971 214.943 236.971 214.953C236.971 214.972 236.993 214.985 237.01 214.975L264.468 199.365C264.912 199.113 265.187 198.641 265.187 198.13V166.891C265.187 166.888 265.188 166.885 265.191 166.884C265.197 166.88 265.197 166.871 265.191 166.868L237.692 151.235C237.256 150.987 236.723 150.987 236.287 151.235L208.829 166.845Z" fill="#86B2FF"/>
<rect width="32.0207" height="32.0207" rx="0.7106" transform="matrix(0.866025 -0.500001 0.866025 0.500001 209.2 166.704)" fill="#0962FF"/>
<rect width="32.0207" height="32.0207" rx="1.38654" transform="matrix(0.866025 0.5 -2.20305e-08 1 209.2 167.332)" fill="#86B2FF"/>
<rect width="32.0207" height="32.0207" rx="0.710601" transform="matrix(0.866025 -0.5 2.20305e-08 1 237.624 183.377)" fill="#141414"/>
<path fill-rule="evenodd" clip-rule="evenodd" d="M68.3023 148.636C67.4009 148.116 66.2902 148.116 65.3888 148.636L37.711 164.616C37.7109 164.616 37.7109 164.616 37.7109 164.616V196.576C37.7109 197.617 38.2662 198.578 39.1677 199.099L66.8454 215.079C66.8454 215.079 66.8454 215.079 66.8455 215.079H66.8455C66.8455 215.079 66.8456 215.079 66.8456 215.079C66.8456 215.079 66.8456 215.079 66.8456 215.079L94.5233 199.099C95.4248 198.578 95.9801 197.617 95.9801 196.576V166.298C95.9801 165.257 95.4248 164.295 94.5233 163.775L68.3023 148.636Z" fill="white"/>
<path fill-rule="evenodd" clip-rule="evenodd" d="M38.4772 165.545C38.4705 165.548 38.4623 165.548 38.4556 165.545C38.441 165.536 38.4229 165.547 38.4229 165.564V165.575V196.78C38.4229 197.291 38.6973 197.763 39.1417 198.016L66.6068 213.63C66.6149 213.634 66.6199 213.643 66.6199 213.652C66.6199 213.672 66.6414 213.685 66.6587 213.675L94.1163 198.065C94.5607 197.812 94.8351 197.341 94.8351 196.829V165.591C94.8351 165.588 94.8369 165.585 94.8396 165.583C94.8456 165.58 94.8456 165.571 94.8396 165.568L67.3404 149.934C66.9049 149.687 66.3712 149.687 65.9357 149.934L38.4772 165.545Z" fill="#86B2FF"/>
<rect width="32.0207" height="32.0207" rx="0.7106" transform="matrix(0.866025 -0.500001 0.866025 0.500001 38.8477 165.403)" fill="#0962FF"/>
<rect width="32.0207" height="32.0207" rx="1.38654" transform="matrix(0.866025 0.5 -2.20305e-08 1 38.8477 166.031)" fill="#86B2FF"/>
<rect width="32.0207" height="32.0207" rx="0.710601" transform="matrix(0.866025 -0.5 2.20305e-08 1 67.2715 182.076)" fill="#141414"/>
<path fill-rule="evenodd" clip-rule="evenodd" d="M154.13 0.390331C153.229 -0.130111 152.118 -0.13011 151.217 0.390331L123.539 16.3701C123.539 16.3701 123.539 16.3703 123.539 16.3703C123.539 16.3703 123.539 16.3704 123.539 16.3704V48.3299C123.539 49.3708 124.094 50.3326 124.996 50.853L152.674 66.8328C152.674 66.8328 152.674 66.8329 152.674 66.8329H152.674C152.674 66.8329 152.674 66.8328 152.674 66.8328C152.674 66.8328 152.674 66.8328 152.674 66.8328L180.352 50.853C181.253 50.3326 181.808 49.3707 181.808 48.3299V16.3703C181.808 16.3702 181.808 16.3702 181.808 16.3702C181.808 16.3702 181.808 16.3702 181.808 16.3702L154.13 0.390331Z" fill="white"/>
<path fill-rule="evenodd" clip-rule="evenodd" d="M124.304 17.299C124.298 17.3028 124.289 17.3028 124.283 17.299C124.268 17.2907 124.25 17.3012 124.25 17.318V17.3299V48.5345C124.25 49.0456 124.524 49.5174 124.969 49.77L152.434 65.3841C152.442 65.3887 152.447 65.3973 152.447 65.4066C152.447 65.4265 152.469 65.439 152.486 65.4292L179.943 49.8194C180.388 49.5668 180.662 49.095 180.662 48.5839V17.3454C180.662 17.3422 180.664 17.3392 180.667 17.3376C180.673 17.3342 180.673 17.3256 180.667 17.3221L153.168 1.68869C152.732 1.44109 152.198 1.44109 151.763 1.68869L124.304 17.299Z" fill="#86B2FF"/>
<rect width="32.0207" height="32.0207" rx="0.7106" transform="matrix(0.866025 -0.500001 0.866025 0.500001 124.675 17.1578)" fill="#0962FF"/>
<rect width="32.0207" height="32.0207" rx="1.38654" transform="matrix(0.866025 0.5 -2.20305e-08 1 124.675 17.7858)" fill="#86B2FF"/>
<rect width="32.0207" height="32.0207" rx="0.710601" transform="matrix(0.866025 -0.5 2.20305e-08 1 153.099 33.8308)" fill="#141414"/>
</svg>
