<svg width="272" height="290" viewBox="0 0 272 290" fill="none" xmlns="http://www.w3.org/2000/svg">
<rect x="1.21273" width="155.438" height="155.438" rx="16.1039" transform="matrix(0.866025 -0.5 0.866025 0.5 0.162475 212.187)" fill="#141414" stroke="#0962FF" stroke-width="1.40034"/>
<rect x="1.21273" width="155.438" height="155.438" rx="16.1039" transform="matrix(0.866025 -0.5 0.866025 0.5 0.162475 196.783)" fill="#86B2FF" stroke="#0962FF" stroke-width="1.40034"/>
<path d="M9.14062 210.856V196.121C9.14062 197.755 10.681 201.862 16.8425 205.223C23.004 208.584 25.0112 209.891 25.2446 210.124V225.248L12.6415 217.826C11.9847 217.334 10.7967 216.217 9.95488 214.819C9.24638 213.641 9.14062 212.23 9.14062 210.856Z" fill="#0962FF" stroke="#0962FF" stroke-width="1.40034"/>
<path d="M262.184 196.121V212.225" stroke="#0962FF" stroke-width="1.40034"/>
<path d="M120.469 265.438V280.141" stroke="#0962FF" stroke-width="1.40034"/>
<path d="M151.277 264.737V280.141" stroke="#0962FF" stroke-width="1.40034"/>
<path d="M252.802 212.293V206.623C252.802 206.623 256.494 204.857 258.403 203.123C259.996 201.676 261.684 198.604 262.331 197.36C262.399 197.229 262.605 197.279 262.605 197.427V209.788C262.605 211.861 262.384 214.021 261.204 215.726C259.699 217.9 257.254 219.19 254.964 220.513L177.184 265.438L247.505 221.812C250.799 219.769 252.802 216.169 252.802 212.293Z" fill="#0962FF" stroke="#0962FF" stroke-width="1.40034"/>
<path d="M35.75 231.409V216.706L46.9527 223.708V237.711L35.75 231.409Z" fill="#0962FF" stroke="#0962FF" stroke-width="1.40034"/>
<g clip-path="url(#clip0_1237_7646)">
<path opacity="0.5" d="M204.363 201.165L145.852 234.937C140.04 238.298 129.884 237.877 123.172 234.001L67.9465 202.102C61.2352 198.226 60.4583 192.367 66.3178 188.997L124.82 155.216C130.632 151.865 140.788 152.286 147.5 156.152L202.725 188.042C209.446 191.946 210.176 197.786 204.363 201.165Z" fill="white"/>
<path opacity="0.5" d="M191.257 223.406C191.408 223.354 191.539 223.256 191.632 223.126C191.724 222.996 191.774 222.84 191.774 222.68C191.774 222.521 191.724 222.365 191.632 222.235C191.539 222.105 191.408 222.007 191.257 221.955C190.927 221.788 190.566 221.688 190.197 221.66C189.827 221.633 189.456 221.679 189.105 221.796L183.488 218.567H197.388C197.486 218.763 197.644 218.923 197.838 219.025C198.228 219.221 198.659 219.323 199.097 219.323C199.534 219.323 199.965 219.221 200.356 219.025C200.506 218.973 200.637 218.875 200.73 218.745C200.823 218.615 200.872 218.459 200.872 218.3C200.872 218.14 200.823 217.984 200.73 217.854C200.637 217.724 200.506 217.626 200.356 217.574C199.965 217.378 199.534 217.276 199.097 217.276C198.659 217.276 198.228 217.378 197.838 217.574C197.629 217.681 197.464 217.856 197.37 218.07H181.42L188.487 222.151C188.066 222.545 188.15 223.088 188.749 223.406C189.138 223.6 189.568 223.701 190.003 223.701C190.438 223.701 190.868 223.6 191.257 223.406ZM201.076 215.843C201.467 216.039 201.898 216.141 202.335 216.141C202.772 216.141 203.204 216.039 203.594 215.843C203.745 215.791 203.876 215.693 203.969 215.563C204.061 215.433 204.111 215.277 204.111 215.117C204.111 214.958 204.061 214.802 203.969 214.672C203.876 214.542 203.745 214.444 203.594 214.392C203.204 214.196 202.772 214.094 202.335 214.094C201.898 214.094 201.467 214.196 201.076 214.392C200.884 214.497 200.728 214.656 200.627 214.85H179.847L161.875 204.47L161.267 204.826L179.491 215.347H200.599C200.699 215.56 200.867 215.735 201.076 215.843ZM211.185 216.339C210.783 216.732 210.867 217.275 211.448 217.584C211.838 217.78 212.269 217.882 212.707 217.882C213.144 217.882 213.575 217.78 213.965 217.584C214.116 217.532 214.247 217.434 214.34 217.304C214.432 217.174 214.482 217.018 214.482 216.858C214.482 216.699 214.432 216.543 214.34 216.413C214.247 216.283 214.116 216.185 213.965 216.133C213.63 215.963 213.265 215.863 212.89 215.837C212.516 215.811 212.14 215.861 211.785 215.983L204.006 211.49H184.284L166.995 201.531L166.387 201.886L183.928 212.005H203.641L211.185 216.339ZM175.139 230.913C174.843 230.949 174.558 231.041 174.297 231.184C174.146 231.236 174.015 231.334 173.922 231.464C173.83 231.594 173.78 231.75 173.78 231.91C173.78 232.069 173.83 232.225 173.922 232.355C174.015 232.485 174.146 232.583 174.297 232.635C174.686 232.83 175.115 232.931 175.551 232.931C175.986 232.931 176.416 232.83 176.805 232.635C176.956 232.583 177.087 232.485 177.179 232.355C177.272 232.225 177.322 232.069 177.322 231.91C177.322 231.75 177.272 231.594 177.179 231.464C177.087 231.334 176.956 231.236 176.805 231.184C176.555 231.048 176.282 230.96 176 230.922V222.9L181.616 226.13C181.214 226.523 181.298 227.066 181.888 227.375C182.278 227.571 182.71 227.673 183.147 227.673C183.584 227.673 184.015 227.571 184.406 227.375C184.557 227.322 184.687 227.224 184.78 227.094C184.873 226.964 184.922 226.809 184.922 226.649C184.922 226.489 184.873 226.334 184.78 226.204C184.687 226.074 184.557 225.976 184.406 225.924C183.724 225.588 182.937 225.534 182.215 225.774L175.148 221.702L175.139 230.913ZM174.306 240.479C174.457 240.427 174.588 240.329 174.68 240.199C174.773 240.069 174.823 239.913 174.823 239.754C174.823 239.594 174.773 239.438 174.68 239.308C174.588 239.178 174.457 239.08 174.306 239.028C173.975 238.862 173.614 238.764 173.244 238.738C172.875 238.712 172.504 238.76 172.153 238.878L164.571 234.526V223.144L147.067 213.016L146.459 213.372L163.747 223.35V234.732L171.526 239.225C171.105 239.618 171.189 240.161 171.779 240.479C172.169 240.675 172.6 240.777 173.038 240.777C173.475 240.777 173.906 240.675 174.297 240.479H174.306ZM168.774 233.047C168.623 233.099 168.492 233.197 168.4 233.327C168.307 233.457 168.257 233.613 168.257 233.772C168.257 233.932 168.307 234.088 168.4 234.218C168.492 234.348 168.623 234.446 168.774 234.498C169.165 234.694 169.596 234.796 170.033 234.796C170.47 234.796 170.901 234.694 171.292 234.498C171.443 234.446 171.574 234.348 171.666 234.218C171.759 234.088 171.809 233.932 171.809 233.772C171.809 233.613 171.759 233.457 171.666 233.327C171.574 233.197 171.443 233.099 171.292 233.047C171.025 232.899 170.733 232.804 170.431 232.766V220.598L152.197 210.077L151.588 210.432L169.57 220.804V232.804C169.289 232.835 169.016 232.918 168.765 233.047H168.774ZM185.622 223.846L156.989 207.315L156.381 207.662L191.716 228.095C191.314 228.488 191.407 229.031 191.987 229.34C192.378 229.536 192.809 229.638 193.246 229.638C193.684 229.638 194.115 229.536 194.505 229.34C194.655 229.286 194.785 229.186 194.876 229.056C194.968 228.925 195.017 228.77 195.017 228.61C195.017 228.451 194.968 228.295 194.876 228.164C194.785 228.034 194.655 227.935 194.505 227.88C194.168 227.711 193.801 227.611 193.425 227.587C193.048 227.563 192.671 227.615 192.315 227.74L185.576 223.846" fill="#141414"/>
<path opacity="0.5" d="M79.3917 166.767C79.2408 166.819 79.1099 166.917 79.0173 167.047C78.9247 167.177 78.8749 167.333 78.8749 167.493C78.8749 167.652 78.9247 167.808 79.0173 167.938C79.1099 168.068 79.2408 168.166 79.3917 168.218C79.7236 168.386 80.0856 168.487 80.4568 168.515C80.828 168.542 81.201 168.495 81.5539 168.377L87.1701 171.616H73.2701C73.1717 171.414 73.0108 171.25 72.8114 171.148C72.4219 170.953 71.9925 170.852 71.5571 170.852C71.1218 170.852 70.6924 170.953 70.3028 171.148C70.152 171.2 70.0211 171.298 69.9285 171.428C69.8358 171.558 69.7861 171.714 69.7861 171.873C69.7861 172.033 69.8358 172.188 69.9285 172.319C70.0211 172.449 70.152 172.546 70.3028 172.599C70.6924 172.793 71.1218 172.894 71.5571 172.894C71.9925 172.894 72.4219 172.793 72.8114 172.599C73.019 172.495 73.1845 172.323 73.2794 172.112H89.2481L82.1998 168.031C82.621 167.638 82.5368 167.095 81.9471 166.767C81.5515 166.565 81.1136 166.46 80.6694 166.46C80.2252 166.46 79.7873 166.565 79.3917 166.767ZM69.5821 174.33C69.1914 174.134 68.7603 174.032 68.3231 174.032C67.886 174.032 67.4549 174.134 67.0642 174.33C66.9143 174.385 66.7849 174.484 66.6934 174.615C66.6019 174.745 66.5528 174.901 66.5528 175.06C66.5528 175.22 66.6019 175.375 66.6934 175.506C66.7849 175.637 66.9143 175.736 67.0642 175.79C67.4549 175.986 67.886 176.088 68.3231 176.088C68.7603 176.088 69.1914 175.986 69.5821 175.79C69.7776 175.686 69.9349 175.522 70.0314 175.322H90.8113L108.783 185.694L109.391 185.347L91.167 174.826H70.0314C69.939 174.62 69.7855 174.447 69.5915 174.33H69.5821ZM59.4823 173.834C59.8848 173.441 59.8006 172.898 59.2109 172.589C58.8202 172.393 58.3891 172.291 57.9519 172.291C57.5148 172.291 57.0837 172.393 56.693 172.589C56.5431 172.644 56.4137 172.743 56.3222 172.874C56.2307 173.004 56.1816 173.16 56.1816 173.319C56.1816 173.479 56.2307 173.634 56.3222 173.765C56.4137 173.896 56.5431 173.995 56.693 174.049C57.0307 174.216 57.3982 174.314 57.7741 174.339C58.15 174.363 58.527 174.312 58.8833 174.19L66.6617 178.683H86.3838L103.672 188.661L104.281 188.315L86.7395 178.187H67.0267L59.4823 173.834ZM95.5195 159.27C95.8179 159.233 96.1069 159.141 96.3713 158.998C96.5211 158.944 96.6506 158.844 96.7421 158.714C96.8335 158.583 96.8826 158.427 96.8826 158.268C96.8826 158.109 96.8335 157.953 96.7421 157.822C96.6506 157.692 96.5211 157.592 96.3713 157.538C95.9805 157.342 95.5494 157.24 95.1123 157.24C94.6752 157.24 94.2441 157.342 93.8534 157.538C93.7035 157.592 93.5741 157.692 93.4826 157.822C93.3911 157.953 93.342 158.109 93.342 158.268C93.342 158.427 93.3911 158.583 93.4826 158.714C93.5741 158.844 93.7035 158.944 93.8534 158.998C94.1046 159.131 94.3769 159.22 94.6583 159.26V167.282L89.0422 164.043C89.4353 163.65 89.351 163.107 88.7707 162.798C88.38 162.602 87.9489 162.5 87.5118 162.5C87.0746 162.5 86.6435 162.602 86.2528 162.798C86.1019 162.851 85.971 162.948 85.8784 163.078C85.7858 163.208 85.736 163.364 85.736 163.524C85.736 163.683 85.7858 163.839 85.8784 163.969C85.971 164.099 86.1019 164.197 86.2528 164.249C86.5878 164.419 86.9535 164.519 87.3281 164.545C87.7027 164.571 88.0787 164.521 88.4337 164.399L95.5008 168.48L95.5195 159.27ZM96.3619 149.694C96.211 149.746 96.0802 149.844 95.9875 149.974C95.8949 150.104 95.8451 150.26 95.8451 150.419C95.8451 150.579 95.8949 150.735 95.9875 150.865C96.0802 150.995 96.211 151.093 96.3619 151.145C96.6925 151.312 97.053 151.412 97.4224 151.439C97.7919 151.467 98.1632 151.421 98.5148 151.304L106.003 155.656V167.039L123.6 177.194L124.209 176.848L106.92 166.87V155.451L99.1419 150.986C99.5538 150.593 99.4789 150.05 98.8798 149.722C98.4925 149.523 98.0642 149.417 97.6289 149.412C97.1935 149.407 96.763 149.504 96.3713 149.694H96.3619ZM101.894 157.135C102.045 157.083 102.176 156.985 102.268 156.855C102.361 156.725 102.411 156.57 102.411 156.41C102.411 156.25 102.361 156.095 102.268 155.965C102.176 155.835 102.045 155.737 101.894 155.685C101.503 155.489 101.072 155.387 100.635 155.387C100.198 155.387 99.7667 155.489 99.3759 155.685C99.225 155.737 99.0942 155.835 99.0016 155.965C98.9089 156.095 98.8592 156.25 98.8592 156.41C98.8592 156.57 98.9089 156.725 99.0016 156.855C99.0942 156.985 99.225 157.083 99.3759 157.135C99.642 157.283 99.9348 157.375 100.237 157.407V169.575L118.462 180.096L119.07 179.75L101.098 169.369V157.397C101.38 157.358 101.652 157.269 101.903 157.135H101.894ZM76.1437 160.88C75.9928 160.932 75.8619 161.03 75.7693 161.16C75.6767 161.29 75.6269 161.445 75.6269 161.605C75.6269 161.765 75.6767 161.92 75.7693 162.05C75.8619 162.18 75.9928 162.278 76.1437 162.33C76.4787 162.5 76.8444 162.6 77.219 162.626C77.5936 162.652 77.9695 162.602 78.3246 162.48L113.707 182.904L114.315 182.549L78.933 162.124C79.3262 161.731 79.2419 161.188 78.6616 160.88C78.275 160.679 77.8471 160.572 77.4117 160.565C76.9764 160.559 76.5454 160.653 76.153 160.842L76.1437 160.88Z" fill="#141414"/>
<path opacity="0.5" d="M184.387 162.798C183.996 162.602 183.565 162.5 183.128 162.5C182.691 162.5 182.26 162.602 181.869 162.798C181.279 163.135 181.195 163.65 181.598 164.043L175.981 167.281V159.26C176.263 159.222 176.536 159.133 176.786 158.997C176.941 158.947 177.075 158.85 177.17 158.719C177.266 158.587 177.317 158.429 177.317 158.267C177.317 158.105 177.266 157.947 177.17 157.816C177.075 157.685 176.941 157.587 176.786 157.537C176.397 157.343 175.967 157.242 175.532 157.242C175.097 157.242 174.667 157.343 174.278 157.537C174.124 157.587 173.989 157.685 173.894 157.816C173.798 157.947 173.747 158.105 173.747 158.267C173.747 158.429 173.798 158.587 173.894 158.719C173.989 158.85 174.124 158.947 174.278 158.997C174.539 159.14 174.825 159.233 175.12 159.269V168.479L182.197 164.398C182.552 164.52 182.928 164.57 183.302 164.544C183.677 164.519 184.043 164.418 184.378 164.249C184.529 164.197 184.66 164.1 184.754 163.971C184.847 163.841 184.898 163.686 184.899 163.526C184.9 163.367 184.851 163.211 184.76 163.08C184.668 162.95 184.537 162.851 184.387 162.798ZM171.282 157.135C171.433 157.083 171.564 156.985 171.657 156.855C171.75 156.725 171.799 156.569 171.799 156.409C171.799 156.25 171.75 156.094 171.657 155.964C171.564 155.834 171.433 155.736 171.282 155.684C170.892 155.488 170.461 155.386 170.024 155.386C169.586 155.386 169.155 155.488 168.765 155.684C168.614 155.736 168.483 155.834 168.39 155.964C168.298 156.094 168.248 156.25 168.248 156.409C168.248 156.569 168.298 156.725 168.39 156.855C168.483 156.985 168.614 157.083 168.765 157.135C169.012 157.269 169.281 157.358 169.56 157.397V169.387L151.579 179.768L152.187 180.114L170.421 169.593V157.425C170.725 157.386 171.017 157.287 171.282 157.135ZM172.144 151.303C172.495 151.42 172.866 151.466 173.236 151.439C173.605 151.412 173.966 151.311 174.297 151.144C174.447 151.092 174.578 150.994 174.671 150.864C174.764 150.734 174.813 150.578 174.813 150.419C174.813 150.259 174.764 150.103 174.671 149.973C174.578 149.843 174.447 149.745 174.297 149.693C173.906 149.497 173.475 149.395 173.038 149.395C172.6 149.395 172.169 149.497 171.779 149.693C171.189 150.04 171.105 150.564 171.526 150.957L163.747 155.45V166.832L146.459 176.81L147.067 177.156L164.571 167.038V155.665L172.144 151.303ZM197.416 172.111C197.514 172.321 197.679 172.492 197.884 172.598C198.275 172.794 198.706 172.896 199.143 172.896C199.581 172.896 200.012 172.794 200.402 172.598C200.553 172.546 200.684 172.448 200.777 172.318C200.869 172.188 200.919 172.032 200.919 171.873C200.919 171.713 200.869 171.557 200.777 171.427C200.684 171.297 200.553 171.199 200.402 171.147C200.012 170.951 199.581 170.849 199.143 170.849C198.706 170.849 198.275 170.951 197.884 171.147C197.69 171.253 197.533 171.416 197.435 171.615H183.498L189.114 168.376C189.465 168.493 189.837 168.539 190.206 168.512C190.576 168.485 190.936 168.385 191.267 168.217C191.969 167.824 191.969 167.169 191.267 166.766C190.877 166.572 190.448 166.471 190.012 166.471C189.577 166.471 189.148 166.572 188.758 166.766C188.159 167.113 188.084 167.637 188.496 168.03L181.42 172.111H197.416ZM213.994 172.589C213.603 172.393 213.172 172.291 212.735 172.291C212.297 172.291 211.866 172.393 211.476 172.589C210.895 172.926 210.811 173.44 211.214 173.833L203.725 178.186H183.928L166.387 188.314L166.995 188.66L184.284 178.682H203.997L211.775 174.189C212.13 174.313 212.505 174.364 212.88 174.34C213.254 174.316 213.62 174.217 213.956 174.049C214.11 173.999 214.245 173.901 214.34 173.77C214.435 173.639 214.487 173.481 214.487 173.319C214.487 173.157 214.435 172.999 214.34 172.867C214.245 172.736 214.11 172.639 213.956 172.589H213.994ZM201.076 175.79C201.466 175.984 201.895 176.085 202.331 176.085C202.766 176.085 203.195 175.984 203.585 175.79C203.739 175.74 203.874 175.642 203.969 175.511C204.064 175.38 204.116 175.222 204.116 175.06C204.116 174.898 204.064 174.74 203.969 174.608C203.874 174.477 203.739 174.38 203.585 174.33C203.195 174.135 202.766 174.034 202.331 174.034C201.895 174.034 201.466 174.135 201.076 174.33C200.865 174.439 200.697 174.618 200.599 174.835H179.491L161.267 185.356L161.875 185.702L179.847 175.322H200.618C200.718 175.522 200.879 175.685 201.076 175.79ZM194.655 160.916C194.264 160.72 193.833 160.618 193.396 160.618C192.959 160.618 192.528 160.72 192.137 160.916C191.538 161.263 191.463 161.787 191.885 162.18L156.503 182.604L157.111 182.96L192.493 162.526C192.845 162.646 193.218 162.694 193.589 162.668C193.96 162.643 194.323 162.543 194.655 162.377C194.805 162.322 194.934 162.223 195.026 162.092C195.117 161.961 195.166 161.806 195.166 161.646C195.166 161.487 195.117 161.331 195.026 161.201C194.934 161.07 194.805 160.971 194.655 160.916Z" fill="#141414"/>
<path opacity="0.5" d="M86.2809 227.375C86.6716 227.571 87.1027 227.673 87.5398 227.673C87.9769 227.673 88.408 227.571 88.7988 227.375C89.3791 227.038 89.4634 226.532 89.0702 226.13L94.6864 222.9V230.922C94.405 230.962 94.1327 231.051 93.8814 231.184C93.7305 231.236 93.5997 231.334 93.507 231.464C93.4144 231.594 93.3646 231.75 93.3646 231.91C93.3646 232.069 93.4144 232.225 93.507 232.355C93.5997 232.485 93.7305 232.583 93.8814 232.635C94.2722 232.831 94.7032 232.933 95.1404 232.933C95.5775 232.933 96.0086 232.831 96.3993 232.635C96.5502 232.583 96.6811 232.485 96.7737 232.355C96.8663 232.225 96.9161 232.069 96.9161 231.91C96.9161 231.75 96.8663 231.594 96.7737 231.464C96.6811 231.334 96.5502 231.236 96.3993 231.184C96.1349 231.041 95.846 230.949 95.5476 230.913V221.702L88.4805 225.783C88.1261 225.66 87.7504 225.608 87.3758 225.633C87.0012 225.657 86.6353 225.756 86.2996 225.924C86.148 225.974 86.0158 226.07 85.9215 226.199C85.8272 226.328 85.7754 226.483 85.7733 226.642C85.7712 226.802 85.819 226.958 85.91 227.09C86.001 227.221 86.1306 227.32 86.2809 227.375ZM99.3853 233.047C99.2344 233.099 99.1035 233.197 99.0109 233.327C98.9183 233.457 98.8685 233.613 98.8685 233.772C98.8685 233.932 98.9183 234.088 99.0109 234.218C99.1035 234.348 99.2344 234.446 99.3853 234.498C99.776 234.694 100.207 234.796 100.644 234.796C101.081 234.796 101.512 234.694 101.903 234.498C102.054 234.446 102.185 234.348 102.278 234.218C102.37 234.088 102.42 233.932 102.42 233.772C102.42 233.613 102.37 233.457 102.278 233.327C102.185 233.197 102.054 233.099 101.903 233.047C101.655 232.914 101.386 232.825 101.108 232.785V220.785L119.079 210.414L118.471 210.058L100.246 220.579V232.747C99.9421 232.788 99.6492 232.89 99.3853 233.047ZM98.5241 238.878C98.1718 238.759 97.7992 238.71 97.428 238.736C97.0568 238.762 96.6944 238.861 96.3619 239.028C96.211 239.08 96.0801 239.178 95.9875 239.308C95.8949 239.438 95.8451 239.594 95.8451 239.754C95.8451 239.913 95.8949 240.069 95.9875 240.199C96.0801 240.329 96.211 240.427 96.3619 240.479C96.7526 240.675 97.1837 240.777 97.6208 240.777C98.058 240.777 98.4891 240.675 98.8798 240.479C99.4789 240.142 99.5538 239.618 99.1419 239.225L106.92 234.732V223.35L124.209 213.372L123.6 213.016L106.059 223.144V234.526L98.5241 238.878ZM73.2513 218.07C73.1633 217.852 72.9962 217.675 72.7833 217.574C72.3938 217.38 71.9644 217.279 71.529 217.279C71.0937 217.279 70.6643 217.38 70.2748 217.574C69.5727 217.977 69.5727 218.632 70.2748 219.025C70.6643 219.22 71.0937 219.321 71.529 219.321C71.9644 219.321 72.3938 219.22 72.7833 219.025C72.9816 218.926 73.1425 218.765 73.242 218.567H87.1607L81.5445 221.796C80.8307 221.564 80.0546 221.622 79.3823 221.955C79.2314 222.007 79.1006 222.105 79.0079 222.235C78.9153 222.365 78.8655 222.521 78.8655 222.68C78.8655 222.84 78.9153 222.996 79.0079 223.126C79.1006 223.256 79.2314 223.354 79.3823 223.406C79.7731 223.602 80.2041 223.704 80.6413 223.704C81.0784 223.704 81.5095 223.602 81.9002 223.406C82.4899 223.069 82.5742 222.545 82.153 222.151L89.2294 218.07H73.2513ZM56.6742 217.584C57.065 217.78 57.4961 217.882 57.9332 217.882C58.3703 217.882 58.8014 217.78 59.1922 217.584C59.7819 217.247 59.8661 216.732 59.4636 216.339L66.9986 211.986H86.7395L104.281 201.858L103.672 201.503L86.3838 211.49H66.671L58.8926 215.983C58.5362 215.86 58.1586 215.809 57.7822 215.835C57.4059 215.861 57.0386 215.962 56.7023 216.133C56.5514 216.185 56.4206 216.283 56.3279 216.413C56.2353 216.543 56.1855 216.699 56.1855 216.858C56.1855 217.018 56.2353 217.174 56.3279 217.304C56.4206 217.434 56.5514 217.532 56.7023 217.584H56.6742ZM69.5634 214.392C69.1726 214.196 68.7415 214.094 68.3044 214.094C67.8673 214.094 67.4362 214.196 67.0454 214.392C66.8946 214.444 66.7637 214.542 66.6711 214.672C66.5784 214.802 66.5287 214.958 66.5287 215.117C66.5287 215.277 66.5784 215.433 66.6711 215.563C66.7637 215.693 66.8946 215.791 67.0454 215.843C67.4362 216.039 67.8673 216.141 68.3044 216.141C68.7415 216.141 69.1726 216.039 69.5634 215.843C69.7721 215.733 69.9396 215.559 70.0407 215.347H91.1482L109.373 204.826L108.764 204.47L90.7925 214.85H70.0314C69.9357 214.656 69.782 214.495 69.5914 214.392H69.5634ZM75.9845 229.256C76.3753 229.452 76.8064 229.554 77.2435 229.554C77.6806 229.554 78.1117 229.452 78.5025 229.256C79.0921 228.919 79.1764 228.395 78.7552 227.992L114.137 207.568L113.529 207.222L78.1655 227.646C77.8139 227.529 77.4426 227.483 77.0731 227.51C76.7037 227.538 76.3432 227.638 76.0126 227.805C75.8617 227.857 75.7309 227.955 75.6382 228.085C75.5456 228.215 75.4958 228.371 75.4958 228.531C75.4958 228.69 75.5456 228.846 75.6382 228.976C75.7309 229.106 75.8617 229.204 76.0126 229.256H75.9845Z" fill="#141414"/>
<path d="M185.615 199.519L143.044 224.118C138.813 226.561 131.419 226.252 126.532 223.434L86.2832 200.202C81.3877 197.394 80.8636 193.107 85.0944 190.664L127.702 166.065C131.943 163.613 139.337 163.921 144.223 166.748L184.473 189.981C189.312 192.798 189.845 197.066 185.615 199.519Z" fill="#86B2FF"/>
<path d="M181.102 194.604L142.313 217.004C138.456 219.222 131.726 218.951 127.271 216.376L90.6253 195.222C86.1698 192.657 85.6924 188.773 89.5395 186.545L128.338 164.146C132.194 161.918 138.924 162.199 143.371 164.773L180.007 185.918C184.472 188.492 184.958 192.377 181.102 194.604Z" fill="#86B2FF"/>
<path d="M181.101 194.605L142.312 217.004C138.455 219.222 131.725 218.951 127.27 216.377L90.624 195.222C88.1341 193.79 86.8799 191.937 86.9454 190.205V194.408C86.8611 196.158 88.1154 198.021 90.624 199.472L127.251 220.626C131.706 223.191 138.436 223.434 142.293 221.244L181.082 198.845C181.797 198.517 182.413 198.007 182.87 197.367C183.326 196.726 183.607 195.977 183.684 195.194V190.992C183.597 191.764 183.314 192.502 182.862 193.134C182.41 193.766 181.804 194.273 181.101 194.605Z" fill="white"/>
<path opacity="0.5" d="M135.706 214.186C133.163 214.208 130.657 213.584 128.423 212.37L98.0491 194.838C95.9618 193.631 94.7637 192.03 94.7637 190.355C94.8079 189.605 95.054 188.881 95.4758 188.26C95.8976 187.639 96.4795 187.143 97.1599 186.826L129.313 168.264C132.635 166.392 138.439 166.579 142.248 168.779L172.623 186.311C174.71 187.518 175.908 189.119 175.908 190.785C175.864 191.535 175.618 192.258 175.196 192.88C174.774 193.501 174.192 193.996 173.512 194.314L141.35 212.885C139.61 213.792 137.667 214.24 135.706 214.186ZM134.966 167.88C133.165 167.83 131.38 168.239 129.781 169.069L97.6279 187.64C97.0933 187.879 96.6324 188.257 96.2933 188.734C95.9541 189.211 95.7492 189.771 95.6997 190.355C95.6997 191.656 96.7293 192.994 98.5078 194.024L128.882 211.556C132.439 213.615 137.812 213.84 140.872 212.07L173.034 193.509C173.569 193.268 174.03 192.888 174.369 192.409C174.708 191.93 174.913 191.37 174.963 190.785C174.963 189.493 173.933 188.155 172.155 187.125L141.78 169.584C139.69 168.448 137.345 167.862 134.966 167.88Z" fill="#0962FF"/>
</g>
<path opacity="0.1" d="M133.549 30.7747C109.585 -51.833 84.9799 94.0458 133.55 184.564" stroke="#0962FF" stroke-width="1.64326"/>
<path opacity="0.1" d="M133.551 30.7742C160.556 -55.3482 186.041 98.4389 133.551 184.563" stroke="#0962FF" stroke-width="1.64326"/>
<line opacity="0.08" x1="135.009" y1="4.4093" x2="135.009" y2="32.5305" stroke="#0962FF" stroke-width="1.63455"/>
<path opacity="0.2" d="M133.549 30.7747C62.1301 -39.5299 59.4952 101.955 133.55 184.564" stroke="#0962FF" stroke-width="1.64326"/>
<path opacity="0.2" d="M133.553 30.7738C202.738 -37.7729 215.92 97.5609 133.553 184.563" stroke="#0962FF" stroke-width="1.64326"/>
<path opacity="0.3" d="M133.556 30.7755C34.8911 -10.531 27.8593 117.773 133.557 184.564" stroke="#0962FF" stroke-width="1.64326"/>
<path opacity="0.3" d="M133.554 30.775C233.496 -10.53 244.92 108.107 133.553 184.564" stroke="#0962FF" stroke-width="1.64326"/>
<path opacity="0.4" d="M133.552 30.7768C16.4341 9.68114 -2.02084 130.076 133.553 184.566" stroke="#0962FF" stroke-width="1.64326"/>
<path opacity="0.4" d="M133.555 30.7748C266.892 13.1972 260.741 132.712 133.555 184.564" stroke="#0962FF" stroke-width="1.64326"/>
<path opacity="0.5" d="M133.551 30.7767C11.162 35.1669 -14.3229 165.227 133.552 184.566" stroke="#0962FF" stroke-width="1.64326"/>
<path opacity="0.5" d="M133.554 30.776C262.496 38.682 280.95 160.834 133.553 184.565" stroke="#0962FF" stroke-width="1.64326"/>
<path opacity="0.6" d="M133.549 30.7768C27.8573 57.1362 -20.4741 184.566 133.55 184.566" stroke="#0962FF" stroke-width="1.64326"/>
<path opacity="0.6" d="M133.555 30.7759C236.131 52.7426 294.131 181.046 133.554 184.565" stroke="#0962FF" stroke-width="1.64326"/>
<path opacity="0.7" d="M133.543 30.7776C31.3734 94.9246 11.1614 221.471 133.543 184.567" stroke="#0962FF" stroke-width="1.64326"/>
<path opacity="0.7" d="M133.556 30.7785C190.434 54.5003 297.645 215.319 133.555 184.567" stroke="#0962FF" stroke-width="1.64326"/>
<path opacity="0.8" d="M133.529 30.7728C63.0084 105.47 43.6734 253.108 133.53 184.562" stroke="#0962FF" stroke-width="1.64326"/>
<path opacity="0.8" d="M133.553 30.7787C171.978 50.9851 253.707 257.5 133.552 184.568" stroke="#0962FF" stroke-width="1.64326"/>
<path d="M133.571 30.7731C108.747 80.8635 67.443 284.742 133.571 183.682" stroke="#0962FF" stroke-width="1.64326"/>
<path d="M133.558 30.7779C149.131 47.47 211.524 297.046 133.557 184.567" stroke="#0962FF" stroke-width="1.64326"/>
<line x1="135.009" y1="32.5305" x2="135.009" y2="220.591" stroke="#0962FF" stroke-width="1.63455"/>
<rect width="14.0606" height="14.0606" transform="translate(235.516 56.2424)" fill="#86B2FF"/>
<rect width="10.5455" height="10.5455" transform="translate(68.5469 17.5758)" fill="#86B2FF"/>
<rect width="10.5455" height="10.5455" transform="translate(182.787 119.515)" fill="#86B2FF"/>
<rect width="10.5455" height="10.5455" transform="translate(110.729 87.8789)" fill="#86B2FF"/>
<rect width="10.5455" height="10.5455" transform="translate(105.455 70.3031)" fill="#86B2FF"/>
<rect width="21.0909" height="21.0909" transform="translate(21.0918 93.1516)" fill="#86B2FF"/>
<defs>
<clipPath id="clip0_1237_7646">
<rect width="158.292" height="91.3939" fill="white" transform="translate(56.1875 149.394)"/>
</clipPath>
</defs>
</svg>
