<svg width="84" height="80" viewBox="0 0 84 80" fill="none" xmlns="http://www.w3.org/2000/svg">
<path d="M74.243 45.0909C74.243 64.0024 58.9122 79.3333 40.0007 79.3333C21.0892 79.3333 5.75846 64.0024 5.75846 45.0909C5.75846 26.1793 21.0892 10.8484 40.0007 10.8484C58.9122 10.8484 74.243 26.1793 74.243 45.0909Z" fill="#141414" stroke="#0962FF" stroke-width="1.33333"/>
<g clip-path="url(#clip0_1237_7028)">
<path d="M38.5671 69.9213C41.8274 71.8054 47.1204 71.8022 50.388 69.9167L80.7404 52.3912C84.0093 50.5058 84.0119 47.4491 80.7496 45.565L46.1714 25.6027L3.98828 49.9537L38.5671 69.9213Z" fill="#0962FF"/>
<path d="M44.4666 71.7576C42.2492 71.7576 40.0338 71.27 38.3481 70.2953L3.76935 50.3304C3.70346 50.2922 3.64877 50.2373 3.61076 50.1712C3.57274 50.1052 3.55273 50.0304 3.55273 49.9542C3.55273 49.878 3.57274 49.8031 3.61076 49.7371C3.64877 49.6711 3.70346 49.6162 3.76935 49.5779L45.9525 25.2262C46.0185 25.1887 46.0931 25.169 46.169 25.169C46.245 25.169 46.3196 25.1887 46.3856 25.2262L80.9664 45.1885C82.6823 46.1809 83.6273 47.5255 83.6273 48.9753C83.6273 50.4251 82.679 51.773 80.9572 52.7666L50.6041 70.2921C48.9105 71.2687 46.6872 71.7576 44.4666 71.7576ZM4.85306 49.9538L38.7819 69.5448C41.9167 71.3561 47.025 71.356 50.169 69.5396L80.5221 52.0142C81.9633 51.1828 82.7565 50.1024 82.7565 48.9733C82.7565 47.8442 81.9679 46.7697 80.5287 45.9397L46.1667 26.1016L4.85306 49.9538Z" fill="#141414"/>
<path d="M43.6538 17.1571L1.47459 41.5095C0.829882 41.8814 0.433594 42.676 0.433594 43.8096C0.433594 46.0737 2.02334 48.826 3.98243 49.957L46.1656 25.6067V17.4075C45.187 16.841 44.2979 16.7858 43.6538 17.1571Z" fill="#86B2FF"/>
<path d="M3.98587 50.3876C3.90985 50.3875 3.83514 50.3678 3.76899 50.3304C1.65612 49.1106 0 46.2459 0 43.8064C0 42.5505 0.446892 41.6015 1.25852 41.1336L43.4404 16.7812C44.25 16.3133 45.2982 16.4014 46.3879 17.0316C46.4538 17.0698 46.5086 17.1246 46.5466 17.1906C46.5847 17.2565 46.6047 17.3314 46.6047 17.4075V25.6034C46.6048 25.6796 46.5848 25.7545 46.5467 25.8204C46.5086 25.8864 46.4538 25.9412 46.3879 25.9793L4.20603 50.3304C4.13895 50.3685 4.06301 50.3882 3.98587 50.3876ZM43.8708 17.5331L1.69161 41.8861C1.15994 42.1917 0.867494 42.8719 0.867494 43.8064C0.867494 45.8477 2.24759 48.32 3.99178 49.4491L45.7353 25.353V17.6638C45.0091 17.2998 44.3552 17.2492 43.8708 17.5324V17.5331Z" fill="#141414"/>
<path d="M80.6642 48.8938L43.1116 27.2123L7.04297 48.0388L44.5929 69.7216L80.6642 48.8938Z" fill="white"/>
<path d="M44.5929 70.1554C44.5168 70.1556 44.442 70.1356 44.376 70.0976L6.82542 48.4154C6.75969 48.3771 6.70514 48.3222 6.66723 48.2563C6.62932 48.1903 6.60938 48.1156 6.60938 48.0395C6.60938 47.9634 6.62932 47.8887 6.66723 47.8227C6.70514 47.7567 6.75969 47.7019 6.82542 47.6636L42.8947 26.8364C42.9608 26.7986 43.0355 26.7787 43.1116 26.7787C43.1877 26.7787 43.2625 26.7986 43.3285 26.8364L80.8811 48.5179C80.9468 48.5562 81.0013 48.6111 81.0392 48.677C81.0772 48.743 81.0971 48.8178 81.0971 48.8938C81.0971 48.9699 81.0772 49.0447 81.0392 49.1106C81.0013 49.1766 80.9468 49.2315 80.8811 49.2697L44.8098 70.0976C44.7438 70.1355 44.669 70.1555 44.5929 70.1554ZM7.90979 48.0369L44.5929 69.2189L79.7967 48.8912L43.1109 27.7124L7.90979 48.0369Z" fill="#141414"/>
<path d="M80.6642 46.1612L43.1116 24.4803L7.04297 45.3082L44.5956 66.9897L80.6642 46.1612Z" fill="white"/>
<path d="M44.5949 67.4241C44.5189 67.4241 44.4442 67.4044 44.378 67.367L6.82542 45.6841C6.75969 45.6458 6.70514 45.591 6.66723 45.525C6.62932 45.459 6.60938 45.3843 6.60938 45.3082C6.60938 45.2321 6.62932 45.1574 6.66723 45.0914C6.70514 45.0254 6.75969 44.9706 6.82542 44.9323L42.8947 24.1045C42.9608 24.0666 43.0355 24.0468 43.1116 24.0468C43.1877 24.0468 43.2625 24.0666 43.3285 24.1045L80.8811 45.786C80.9468 45.8243 81.0013 45.8791 81.0392 45.9451C81.0772 46.0111 81.0971 46.0858 81.0971 46.1619C81.0971 46.238 81.0772 46.3127 81.0392 46.3787C81.0013 46.4446 80.9468 46.4995 80.8811 46.5378L44.8118 67.3656C44.7458 67.4037 44.671 67.4239 44.5949 67.4241ZM7.90979 45.3095L44.5949 66.4909L79.7967 46.1632L43.1109 24.9805L7.90979 45.3095Z" fill="#141414"/>
<path d="M79.4813 42.7483L43.1116 21.7496L7.04297 42.5755L43.412 63.5748L79.4813 42.7483Z" fill="white"/>
<path d="M43.4119 64.0066C43.3359 64.0067 43.2612 63.987 43.1951 63.9495L6.82542 42.9514C6.75969 42.9131 6.70514 42.8583 6.66723 42.7923C6.62932 42.7263 6.60938 42.6516 6.60938 42.5755C6.60938 42.4994 6.62932 42.4247 6.66723 42.3587C6.70514 42.2928 6.75969 42.2379 6.82542 42.1996L42.8947 21.3737C42.9609 21.3362 43.0356 21.3165 43.1116 21.3165C43.1876 21.3165 43.2623 21.3362 43.3285 21.3737L79.6975 42.3724C79.7634 42.4106 79.8181 42.4654 79.8561 42.5314C79.8941 42.5974 79.9142 42.6722 79.9142 42.7484C79.9142 42.8245 79.8941 42.8993 79.8561 42.9653C79.8181 43.0313 79.7634 43.0861 79.6975 43.1243L43.6288 63.9514C43.5625 63.9882 43.4878 64.0072 43.4119 64.0066ZM7.90979 42.5755L43.4119 63.0747L78.6138 42.7484L43.1109 22.2504L7.90979 42.5755Z" fill="#141414"/>
<path d="M76.0159 34.6392L46.1696 17.4076C45.1877 16.8411 44.2985 16.7858 43.6545 17.1572L1.47528 41.5095C1.37406 41.5753 1.2802 41.6518 1.19531 41.7376C1.8479 41.152 2.84815 41.1047 3.98641 41.7606L33.8341 58.9942C37.0964 60.8777 42.3901 60.8744 45.653 58.9896L76.0113 41.4648C79.2743 39.58 79.2789 36.5227 76.0159 34.6392Z" fill="#0962FF"/>
<path d="M39.7357 60.8317C37.5189 60.8317 35.3029 60.3447 33.6159 59.3714L3.76821 42.1378C2.84814 41.6068 2.02009 41.5799 1.48382 42.0609C1.39765 42.1331 1.28681 42.1691 1.17467 42.1611C1.06253 42.1532 0.957844 42.1021 0.882682 42.0185C0.807519 41.9349 0.767752 41.8253 0.771761 41.713C0.775769 41.6006 0.823244 41.4942 0.904174 41.4162C1.01117 41.3076 1.131 41.2125 1.26103 41.133L43.4396 16.7813C44.2492 16.3133 45.2975 16.4014 46.3871 17.0316L76.2334 34.2633C77.9494 35.255 78.8944 36.5983 78.8957 38.0481C78.897 39.4979 77.9487 40.8471 76.2288 41.8408L45.8712 59.3668C44.1776 60.3441 41.9556 60.8317 39.7357 60.8317ZM3.26612 40.9759C3.59302 41.075 3.90713 41.2122 4.20196 41.3847L34.0496 58.6176C37.1871 60.4308 42.2941 60.4276 45.4348 58.613L75.7931 41.087C77.233 40.2556 78.0276 39.1765 78.0276 38.0474C78.0276 36.9184 77.2389 35.8419 75.799 35.0132L45.9527 17.7815C45.1411 17.3129 44.4037 17.2216 43.8714 17.5311L3.26612 40.9759Z" fill="#141414"/>
<path d="M60.3184 64.1801C61.3087 64.7539 62.2025 64.8012 62.8466 64.42V64.424L73.3229 58.3778C73.9669 58.0084 74.3639 57.2139 74.3639 56.0835V56.075L60.3184 64.1801Z" fill="#141414"/>
<path d="M61.9029 65.1028C61.3404 65.1028 60.7272 64.9188 60.0996 64.5553C60.0337 64.5173 59.979 64.4625 59.9409 64.3966C59.9028 64.3306 59.8828 64.2559 59.8828 64.1797C59.8828 64.1036 59.9028 64.0288 59.9409 63.9629C59.979 63.897 60.0337 63.8422 60.0996 63.8042L74.1484 55.695C74.2145 55.6575 74.2892 55.6378 74.3653 55.6378C74.4413 55.6378 74.516 55.6575 74.5821 55.695C74.6481 55.7333 74.7029 55.7882 74.741 55.8543C74.779 55.9204 74.799 55.9953 74.799 56.0716C74.799 57.3367 74.3521 58.2857 73.5398 58.7503L63.0648 64.8005C63.0436 64.8119 63.0216 64.822 62.9991 64.8307C62.6626 65.0127 62.2855 65.1063 61.9029 65.1028ZM61.2674 64.1328C61.7879 64.2898 62.2532 64.2642 62.6232 64.0473C62.6442 64.0346 62.6662 64.0236 62.6889 64.0145L73.1054 57.9985C73.4728 57.7889 73.7265 57.3978 73.8474 56.8694L61.2674 64.1328Z" fill="#141414"/>
<path d="M70.8106 49.9302L59.685 43.5061C56.7934 41.8349 52.0951 41.8348 49.1969 43.5107C46.2987 45.1865 46.2967 47.8948 49.189 49.5654L60.3159 55.9889C62.277 57.1245 63.8647 59.8775 63.8693 62.1409C63.8693 63.262 63.475 64.0467 62.8441 64.422V64.4259L73.3204 58.3797C73.9645 58.0104 74.3614 57.2158 74.3614 56.0855C74.3647 53.8155 72.773 51.0638 70.8106 49.9302Z" fill="#86B2FF"/>
<path d="M62.8494 64.861C62.7821 64.8609 62.7157 64.8451 62.6555 64.815C62.5953 64.7849 62.5429 64.7413 62.5024 64.6875C62.4656 64.6385 62.4394 64.5824 62.4256 64.5227C62.4118 64.463 62.4107 64.4011 62.4223 64.3409C62.434 64.2808 62.4581 64.2237 62.4932 64.1735C62.5283 64.1233 62.5735 64.081 62.626 64.0493C63.1484 63.7411 63.4363 63.0635 63.4376 62.1435C63.4376 60.0234 61.9392 57.432 60.101 56.3661L48.9741 49.9426C47.4363 49.0534 46.5898 47.8468 46.5898 46.543C46.5898 45.2391 47.4403 44.0272 48.982 43.1361C51.9946 41.3952 56.8933 41.3919 59.9039 43.1308L71.0295 49.5549C73.1443 50.7766 74.8004 53.6433 74.8004 56.0808C74.8004 57.3374 74.3536 58.2864 73.5413 58.751L63.0663 64.8012C63.0004 64.8394 62.9257 64.8601 62.8494 64.861ZM54.4492 42.6852C52.6268 42.6852 50.8044 43.0868 49.4158 43.8886C48.1526 44.6194 47.4567 45.5618 47.4567 46.5456C47.4567 47.5294 48.15 48.4672 49.4079 49.1928L60.5348 55.6142C62.647 56.8379 64.3038 59.7059 64.3044 62.1421C64.3068 62.4814 64.2693 62.8198 64.1927 63.1503L73.1088 58.0018C73.6412 57.6969 73.9336 57.016 73.9336 56.0835C73.9336 53.962 72.4359 51.372 70.5957 50.3093L59.4701 43.8853C58.0861 43.0815 56.2683 42.6819 54.4492 42.6819V42.6852Z" fill="#141414"/>
<path d="M57.2484 44.9999C55.7368 44.1291 53.2908 44.1291 51.7799 44.9999C50.269 45.8707 50.2684 47.285 51.7799 48.1544C53.2914 49.0239 55.7342 49.0252 57.2438 48.1544C58.7534 47.2836 58.754 45.8713 57.2484 44.9999Z" fill="white"/>
<path d="M54.5044 49.2493C53.4443 49.2493 52.3856 49.0101 51.5601 48.5323C50.6907 48.0322 50.2109 47.3402 50.2109 46.5824C50.2109 45.8247 50.6894 45.1294 51.5608 44.626C53.2143 43.6717 55.8089 43.6698 57.4624 44.626C58.3319 45.1274 58.8109 45.8221 58.8096 46.5798C58.8083 47.3376 58.3286 48.0316 57.4571 48.533C56.6284 49.0101 55.5657 49.2493 54.5044 49.2493ZM54.5149 44.785C53.5948 44.785 52.6747 44.9822 51.9946 45.3765C51.4031 45.7182 51.0745 46.1461 51.0745 46.5811C51.0745 47.0162 51.4031 47.4414 51.99 47.7812C53.3517 48.5698 55.6564 48.5698 57.0201 47.7812C57.6116 47.4401 57.9402 47.0123 57.9402 46.5778C57.9402 46.1434 57.6162 45.7163 57.0267 45.3765C56.3471 44.9815 55.4317 44.785 54.5149 44.785Z" fill="#141414"/>
<path d="M63.1007 59.1788C63.5752 60.1469 63.869 61.1859 63.869 62.1362C63.869 63.2574 63.4747 64.0421 62.8438 64.4173V64.4213L73.32 58.3751C73.9641 58.0058 74.361 57.2112 74.361 56.0808C74.361 55.1279 74.0679 54.0915 73.5934 53.1195L63.1007 59.1788Z" fill="#86B2FF"/>
<path d="M62.8472 64.8609C62.7799 64.8608 62.7135 64.8451 62.6533 64.815C62.5931 64.7849 62.5407 64.7412 62.5002 64.6874C62.4633 64.6385 62.4372 64.5823 62.4234 64.5227C62.4096 64.463 62.4084 64.401 62.4201 64.3409C62.4317 64.2807 62.4559 64.2237 62.491 64.1735C62.526 64.1232 62.5713 64.0809 62.6237 64.0493C63.1462 63.7411 63.4341 63.0635 63.4354 62.1434C63.4354 61.2989 63.185 60.3401 62.7125 59.374C62.6639 59.2752 62.6548 59.1616 62.6868 59.0563C62.7189 58.9509 62.7899 58.8618 62.8853 58.8068L73.3807 52.7475C73.4322 52.7179 73.4894 52.6992 73.5485 52.6925C73.6076 52.6859 73.6674 52.6915 73.7243 52.7089C73.7812 52.7263 73.8339 52.7553 73.8791 52.7939C73.9243 52.8325 73.9611 52.88 73.9872 52.9335C74.5176 54.0225 74.7989 55.1114 74.7989 56.088C74.7989 57.3446 74.352 58.2936 73.5397 58.7582L63.0647 64.8083C62.9979 64.8442 62.923 64.8623 62.8472 64.8609ZM63.6614 59.3589C64.0814 60.321 64.3022 61.2759 64.3022 62.1421C64.3046 62.4814 64.2671 62.8197 64.1905 63.1502L73.1066 58.0018C73.6389 57.6968 73.9314 57.016 73.9314 56.0834C73.9314 55.3644 73.748 54.5607 73.4004 53.7366L63.6614 59.3589Z" fill="#141414"/>
</g>
<path d="M35.6401 25.5407C33.5324 29.2623 30.6548 32.069 27.7179 33.6045C24.7784 35.1414 21.8129 35.3913 19.4841 34.0724C17.1553 32.7535 15.8445 30.0817 15.6507 26.7703C15.4572 23.4619 16.3843 19.5505 18.4919 15.8289C20.5996 12.1074 23.4773 9.30064 26.4141 7.76514C29.3536 6.22823 32.3192 5.97834 34.6479 7.29723C36.9767 8.61611 38.2876 11.2879 38.4813 14.5993C38.6749 17.9077 37.7478 21.8191 35.6401 25.5407Z" fill="#0962FF" stroke="#141414" stroke-width="0.505316"/>
<mask id="path-23-inside-1_1237_7028" fill="white">
<path fill-rule="evenodd" clip-rule="evenodd" d="M22.1717 10.6986C20.7061 12.1236 19.3553 13.8615 18.2252 15.8569C13.9691 23.3721 14.456 31.6941 19.3127 34.4447C23.547 36.8428 29.7048 34.2143 34.0342 28.521L17.5602 17.7556L22.1717 10.6986Z"/>
</mask>
<path fill-rule="evenodd" clip-rule="evenodd" d="M22.1717 10.6986C20.7061 12.1236 19.3553 13.8615 18.2252 15.8569C13.9691 23.3721 14.456 31.6941 19.3127 34.4447C23.547 36.8428 29.7048 34.2143 34.0342 28.521L17.5602 17.7556L22.1717 10.6986Z" fill="#86B2FF"/>
<path d="M18.2252 15.8569L17.7855 15.6079L18.2252 15.8569ZM22.1717 10.6986L22.5947 10.9751L21.8194 10.3363L22.1717 10.6986ZM19.3127 34.4447L19.0637 34.8844H19.0637L19.3127 34.4447ZM34.0342 28.521L34.4364 28.8269L34.7649 28.3949L34.3106 28.098L34.0342 28.521ZM17.5602 17.7556L17.1372 17.4792L16.8607 17.9022L17.2837 18.1787L17.5602 17.7556ZM18.6649 16.1059C19.7722 14.1508 21.0939 12.4514 22.524 11.0609L21.8194 10.3363C20.3183 11.7958 18.9384 13.5722 17.7855 15.6079L18.6649 16.1059ZM19.5617 34.005C17.3326 32.7425 16.0468 30.1671 15.8561 26.908C15.6658 23.655 16.5776 19.7915 18.6649 16.1059L17.7855 15.6079C15.6167 19.4375 14.6439 23.4926 14.8472 26.967C15.0501 30.4354 16.4361 33.3963 19.0637 34.8844L19.5617 34.005ZM33.632 28.2151C31.5113 31.0039 28.9581 33.0207 26.4463 34.0495C23.9342 35.0784 21.5064 35.1064 19.5617 34.005L19.0637 34.8844C21.3533 36.1811 24.1216 36.0938 26.8293 34.9847C29.5374 33.8755 32.2277 31.7315 34.4364 28.8269L33.632 28.2151ZM34.3106 28.098L17.8366 17.3326L17.2837 18.1787L33.7578 28.944L34.3106 28.098ZM17.9832 18.0321L22.5947 10.9751L21.7487 10.4222L17.1372 17.4792L17.9832 18.0321Z" fill="#141414" mask="url(#path-23-inside-1_1237_7028)"/>
<path d="M32.4863 24.2079C30.3099 28.0508 27.3384 30.949 24.3059 32.5345C21.2705 34.1215 18.2083 34.3795 15.8037 33.0177C13.399 31.6558 12.0454 28.8969 11.8453 25.4776C11.6455 22.0613 12.6028 18.0224 14.7792 14.1796C16.9555 10.3367 19.927 7.43845 22.9595 5.85291C25.9949 4.26591 29.0571 4.00787 31.4618 5.36974C33.8664 6.73161 35.22 9.49051 35.4201 12.9099C35.6199 16.3261 34.6626 20.365 32.4863 24.2079Z" fill="white" stroke="#08153D" stroke-width="0.521787"/>
<path d="M30.4496 20.7531C30.6258 20.4399 30.727 20.1189 30.6968 19.8259C30.6917 19.5354 30.5396 19.2918 30.3311 19.0839C30.1226 18.8759 29.8171 18.7201 29.4488 18.6407C30.1553 18.5065 30.8467 18.2258 31.4667 17.8341C32.071 17.4616 32.5383 16.992 32.7993 16.5426C33.9176 14.9182 32.5834 14.2005 30.4765 13.7966L32.2968 11.5819L30.5639 11.3823L28.7907 13.5396C28.3411 13.4932 27.8665 13.4442 27.3919 13.3952L29.1808 11.2187L27.4479 11.0191L25.6276 13.2338C25.2529 13.1951 24.8782 13.1564 24.5285 13.1203L22.1462 12.8536L20.9693 14.2855C20.9693 14.2855 22.2839 14.4005 22.2432 14.417C22.4837 14.4211 22.6864 14.5042 22.7828 14.6177C22.8635 14.7503 22.8629 14.916 22.7559 15.112L17.7409 21.1807C17.6938 21.238 17.6217 21.2927 17.5497 21.3474C17.4776 21.4021 17.3806 21.4542 17.2743 21.4846C17.1929 21.5177 17.0866 21.5481 16.996 21.5595C16.9053 21.5708 16.8304 21.5631 16.7305 21.5528C16.7398 21.5744 15.4565 21.4212 15.4565 21.4212L13.7887 22.9888L16.0461 23.2426C16.4708 23.2865 16.8797 23.3494 17.2794 23.3907L15.4434 25.6245L17.1763 25.8241L18.9966 23.6094C19.4555 23.6775 19.9051 23.7239 20.3797 23.7729L18.5751 25.9685L20.308 26.1682L22.144 23.9344C25.1857 24.1242 27.6891 23.782 29.6807 21.6886C29.966 21.4074 30.2578 21.0854 30.4496 20.7531ZM26.1144 14.9824C27.0886 15.083 30.3586 15.1928 29.0562 16.7775C27.8008 18.3048 24.876 17.775 23.8768 17.6718L26.1144 14.9824ZM20.3147 22.0057L22.772 19.049C23.946 19.1702 27.8562 19.3254 26.4283 21.0628C25.0224 22.7403 21.5137 22.1295 20.3147 22.0057Z" fill="#141414"/>
<path d="M30.3381 27.7829L33.0431 29.7674" stroke="#08153D" stroke-width="0.365251"/>
<path d="M29.3689 28.8662L32.0054 30.8364" stroke="#08153D" stroke-width="0.365251"/>
<defs>
<clipPath id="clip0_1237_7028">
<rect width="83.625" height="55.2727" fill="white" transform="translate(0 16.4848)"/>
</clipPath>
</defs>
</svg>
