<svg width="81" height="80" viewBox="0 0 81 80" fill="none" xmlns="http://www.w3.org/2000/svg">
<g clip-path="url(#clip0_1237_7062)">
<path d="M75.4832 40.2424C75.4832 59.154 60.1524 74.4849 41.2409 74.4849C22.3295 74.4849 6.9987 59.154 6.9987 40.2424C6.9987 21.3309 22.3295 6.00001 41.2409 6.00001C60.1524 6.00001 75.4832 21.3309 75.4832 40.2424Z" fill="#141414" stroke="#0962FF" stroke-width="1.33333"/>
<mask id="path-2-outside-1_1237_7062" maskUnits="userSpaceOnUse" x="21.4543" y="-16.8338" width="59.7555" height="74.5004" fill="black">
<rect fill="white" x="21.4543" y="-16.8338" width="59.7555" height="74.5004"/>
<path fill-rule="evenodd" clip-rule="evenodd" d="M39.112 32.0626L39.112 32.0628L30.7162 27.2154C26.0518 24.5224 22.3203 18.0592 22.3203 12.6731C22.3203 8.01746 25.1084 5.77642 28.8771 6.99354C29.2501 1.03742 33.6694 -1.24153 39.1132 1.90148C40.3971 2.64277 41.6241 3.61986 42.7544 4.7641C45.14 1.12661 49.8461 0.558426 54.9705 3.51709C61.245 7.1397 66.8304 15.337 68.4995 23.1879C68.6538 23.2696 68.8089 23.3555 68.9647 23.4454C75.1217 27.0002 80.1592 35.7256 80.1592 42.8351C80.1592 49.9447 75.1217 52.8532 68.9647 49.2984L39.112 32.0626Z"/>
</mask>
<path fill-rule="evenodd" clip-rule="evenodd" d="M39.112 32.0626L39.112 32.0628L30.7162 27.2154C26.0518 24.5224 22.3203 18.0592 22.3203 12.6731C22.3203 8.01746 25.1084 5.77642 28.8771 6.99354C29.2501 1.03742 33.6694 -1.24153 39.1132 1.90148C40.3971 2.64277 41.6241 3.61986 42.7544 4.7641C45.14 1.12661 49.8461 0.558426 54.9705 3.51709C61.245 7.1397 66.8304 15.337 68.4995 23.1879C68.6538 23.2696 68.8089 23.3555 68.9647 23.4454C75.1217 27.0002 80.1592 35.7256 80.1592 42.8351C80.1592 49.9447 75.1217 52.8532 68.9647 49.2984L39.112 32.0626Z" fill="white"/>
<path d="M39.112 32.0626L39.112 31.1722L38.3408 30.7269L38.3408 31.6174L39.112 32.0626ZM39.112 32.0628L39.112 32.9533L39.8832 33.3986L39.8832 32.5081L39.112 32.0628ZM30.7162 27.2154L30.7162 26.3249L30.7162 27.2154ZM28.8771 6.99354L29.043 7.95897L29.6062 8.14087L29.6464 7.49972L28.8771 6.99354ZM42.7544 4.7641L42.4825 5.44047L43.1083 6.07399L43.4303 5.58307L42.7544 4.7641ZM68.4995 23.1879L67.7568 22.9991L67.9213 23.773L68.5314 24.096L68.4995 23.1879ZM38.3408 31.6174L38.3408 31.6176L39.8832 32.5081L39.8832 32.5079L38.3408 31.6174ZM39.112 31.1723L30.7162 26.3249L30.7162 28.1059L39.112 32.9533L39.112 31.1723ZM30.7162 26.3249C26.4777 23.8778 23.0915 18.0126 23.0915 13.1184L21.5491 12.2279C21.5491 18.1057 25.6259 25.167 30.7162 28.1059L30.7162 26.3249ZM23.0915 13.1184C23.0915 8.88683 25.6226 6.85433 29.043 7.95897L28.7111 6.02811C24.5942 4.69852 21.5491 7.14809 21.5491 12.2279L23.0915 13.1184ZM29.6464 7.49972C29.9914 1.99145 34.0767 -0.115901 39.1132 2.79197L39.1132 1.01099C33.2621 -2.36717 28.5089 0.0833833 28.1078 6.48737L29.6464 7.49972ZM39.1132 2.79197C40.3033 3.47908 41.4382 4.38327 42.4825 5.44047L43.0262 4.08772C41.8099 2.85646 40.491 1.80646 39.1132 1.01099L39.1132 2.79197ZM43.4303 5.58307C45.6809 2.15133 50.1286 1.61202 54.9705 4.40757L54.9705 2.6266C49.5635 -0.495171 44.599 0.101894 42.0785 3.94513L43.4303 5.58307ZM54.9705 4.40757C60.8958 7.82858 66.1801 15.5825 67.7568 22.9991L69.2421 23.3767C67.4807 15.0916 61.5941 6.45081 54.9705 2.6266L54.9705 4.40757ZM68.5314 24.096C68.6751 24.1721 68.8195 24.2521 68.9647 24.3359L68.9647 22.5549C68.7982 22.4588 68.6325 22.3671 68.4676 22.2798L68.5314 24.096ZM68.9647 24.3359C74.6958 27.6448 79.388 35.7721 79.388 42.3899L80.9304 43.2804C80.9304 35.679 75.5476 26.3556 68.9647 22.5549L68.9647 24.3359ZM79.388 42.3899C79.388 49.0077 74.6958 51.7168 68.9647 48.4079L68.9647 50.1889C75.5476 53.9896 80.9304 50.8818 80.9304 43.2804L79.388 42.3899ZM68.9647 48.4079L39.112 31.1722L39.112 32.9531L68.9647 50.1889L68.9647 48.4079Z" fill="#141414" mask="url(#path-2-outside-1_1237_7062)"/>
<path d="M62.3926 31.9733L69.0712 23.0684" stroke="#141414" stroke-width="1.11311"/>
<path d="M35.8438 12.4938L42.6336 4.14548" stroke="#141414" stroke-width="0.890484"/>
<rect width="3.40971" height="10.018" transform="matrix(0.795572 0.605859 -0.605846 0.795582 23.7598 8.06335)" fill="white"/>
<rect width="3.31987" height="10.018" transform="matrix(0.807305 0.590135 -0.590122 0.807314 29.3496 2.47583)" fill="white"/>
<rect width="3.31987" height="11.4429" transform="matrix(0.807305 0.590135 -0.590122 0.807314 76.9355 45.85)" fill="white"/>
<path d="M22.4145 9.15454L16.5371 16.9463" stroke="#141414" stroke-width="0.812567"/>
<mask id="path-10-outside-2_1237_7062" maskUnits="userSpaceOnUse" x="14.7766" y="-7.92905" width="59.7555" height="74.5004" fill="black">
<rect fill="white" x="14.7766" y="-7.92905" width="59.7555" height="74.5004"/>
<path fill-rule="evenodd" clip-rule="evenodd" d="M32.4343 40.9673L32.4343 40.9677L24.0384 36.1203C19.3741 33.4273 15.6426 26.964 15.6426 21.578C15.6426 16.9223 18.4307 14.6813 22.1993 15.8984C22.5724 9.94222 26.9917 7.66324 32.4355 10.8063C33.7194 11.5476 34.9463 12.5246 36.0766 13.6689C38.4622 10.0314 43.1683 9.46321 48.2928 12.4219C54.5672 16.0445 60.1526 24.2417 61.8217 32.0926C61.976 32.1743 62.1311 32.2601 62.287 32.3501C68.4439 35.9049 73.4815 44.6302 73.4815 51.7398C73.4815 58.8494 68.4439 61.7578 62.287 58.2031L32.4343 40.9673Z"/>
</mask>
<path fill-rule="evenodd" clip-rule="evenodd" d="M32.4343 40.9673L32.4343 40.9677L24.0384 36.1203C19.3741 33.4273 15.6426 26.964 15.6426 21.578C15.6426 16.9223 18.4307 14.6813 22.1993 15.8984C22.5724 9.94222 26.9917 7.66324 32.4355 10.8063C33.7194 11.5476 34.9463 12.5246 36.0766 13.6689C38.4622 10.0314 43.1683 9.46321 48.2928 12.4219C54.5672 16.0445 60.1526 24.2417 61.8217 32.0926C61.976 32.1743 62.1311 32.2601 62.287 32.3501C68.4439 35.9049 73.4815 44.6302 73.4815 51.7398C73.4815 58.8494 68.4439 61.7578 62.287 58.2031L32.4343 40.9673Z" fill="#0962FF"/>
<path d="M32.4343 40.9673L32.4343 40.0768L31.6631 39.6316L31.6631 40.5221L32.4343 40.9673ZM32.4343 40.9677L32.4343 41.8582L33.2054 42.3034L33.2054 41.4129L32.4343 40.9677ZM24.0384 36.1203L24.0384 37.0108L24.0384 36.1203ZM22.1993 15.8984L22.3653 16.8638L22.9285 17.0457L22.9686 16.4046L22.1993 15.8984ZM36.0766 13.6689L35.8048 14.3453L36.4306 14.9788L36.7526 14.4879L36.0766 13.6689ZM61.8217 32.0926L61.0791 31.9038L61.2436 32.6777L61.8536 33.0007L61.8217 32.0926ZM62.287 58.2031L62.287 57.3126L62.287 58.2031ZM31.6631 40.5221L31.6631 40.5224L33.2054 41.4129L33.2054 41.4126L31.6631 40.5221ZM32.4343 40.0772L24.0384 35.2298L24.0384 37.0108L32.4343 41.8582L32.4343 40.0772ZM24.0384 35.2298C19.8 32.7827 16.4138 26.9175 16.4138 22.0232L14.8714 21.1328C14.8714 27.0106 18.9482 34.0718 24.0384 37.0108L24.0384 35.2298ZM16.4138 22.0232C16.4138 17.7917 18.9449 15.7592 22.3653 16.8638L22.0334 14.933C17.9165 13.6034 14.8714 16.053 14.8714 21.1328L16.4138 22.0232ZM22.9686 16.4046C23.3136 10.8963 27.399 8.78887 32.4355 11.6968L32.4355 9.91578C26.5844 6.5376 21.8311 8.98819 21.43 15.3922L22.9686 16.4046ZM32.4355 11.6968C33.6256 12.3839 34.7605 13.2881 35.8048 14.3453L36.3485 12.9925C35.1322 11.7612 33.8132 10.7112 32.4355 9.91578L32.4355 11.6968ZM36.7526 14.4879C39.0032 11.0561 43.4508 10.5168 48.2928 13.3124L48.2928 11.5314C42.8858 8.40961 37.9212 9.00668 35.4007 12.8499L36.7526 14.4879ZM48.2928 13.3124C54.218 16.7333 59.5023 24.4872 61.0791 31.9038L62.5644 32.2814C60.8029 23.9963 54.9164 15.3556 48.2928 11.5314L48.2928 13.3124ZM61.8536 33.0007C61.9973 33.0768 62.1418 33.1567 62.287 33.2406L62.287 31.4596C62.1205 31.3635 61.9547 31.2718 61.7898 31.1844L61.8536 33.0007ZM62.287 33.2406C68.018 36.5494 72.7103 44.6768 72.7103 51.2946L74.2526 52.1851C74.2526 44.5837 68.8699 35.2603 62.287 31.4596L62.287 33.2406ZM72.7103 51.2946C72.7103 57.9123 68.018 60.6214 62.287 57.3126L62.287 59.0936C68.8699 62.8942 74.2526 59.7864 74.2526 52.1851L72.7103 51.2946ZM62.287 57.3126L32.4343 40.0768L32.4343 41.8578L62.287 59.0936L62.287 57.3126Z" fill="#141414" mask="url(#path-10-outside-2_1237_7062)"/>
<path d="M30.6708 1.36267L23.9922 10.2676" stroke="#141414" stroke-width="0.890484"/>
<path d="M72.9688 57.0185L79.6473 47.557" stroke="#141414" stroke-width="0.890484"/>
<path fill-rule="evenodd" clip-rule="evenodd" d="M31.0671 23.2268C30.7239 23.0287 30.3011 23.0287 29.958 23.2268L21.0854 28.3494C20.3461 28.7763 20.3461 29.8435 21.0854 30.2704L30.5118 35.7128C30.5119 35.7128 30.5119 35.713 30.5118 35.7131C30.5117 35.7131 30.5117 35.7131 30.5117 35.7132V46.5987C30.5117 47.4524 31.436 47.9861 32.1753 47.5592L41.0478 42.4365C41.391 42.2384 41.6024 41.8723 41.6024 41.4761V29.3106C41.6024 29.3104 41.6024 29.3103 41.6026 29.3102C41.6028 29.3101 41.6028 29.3097 41.6026 29.3096L31.0671 23.2268ZM19.4199 31.2308C19.4199 30.377 20.3441 29.8434 21.0835 30.2703L29.9561 35.3928C30.2992 35.591 30.5106 35.9571 30.5106 36.3533V46.5986C30.5106 47.4524 29.5864 47.986 28.847 47.5591L19.9745 42.4365C19.6313 42.2384 19.4199 41.8723 19.4199 41.476V31.2308Z" fill="white"/>
<path fill-rule="evenodd" clip-rule="evenodd" d="M19.7179 29.6633C19.7154 29.6647 19.7122 29.6647 19.7097 29.6633C19.7041 29.6601 19.6973 29.6642 19.6973 29.6705V29.675V41.5539C19.6973 41.7485 19.8017 41.928 19.9709 42.0242L30.4245 47.9672C30.4277 47.969 30.4297 47.9724 30.4297 47.9761C30.4297 47.9839 30.4381 47.9889 30.4449 47.985L40.8967 42.043C41.0659 41.9469 41.1703 41.7673 41.1703 41.5727V29.6821C41.1703 29.6806 41.1711 29.6793 41.1724 29.6785C41.1751 29.677 41.1751 29.6731 41.1724 29.6715L30.7053 23.7208C30.5395 23.6266 30.3363 23.6266 30.1705 23.7208L19.7179 29.6633Z" fill="#86B2FF"/>
<rect width="12.1893" height="12.1893" rx="0.270504" transform="matrix(0.866022 -0.500006 0.866022 0.500006 19.8613 29.6096)" fill="#0962FF"/>
<rect width="12.1893" height="12.1895" rx="0.527817" transform="matrix(0.866022 0.500006 -2.20302e-08 1 19.8613 29.8488)" fill="#86B2FF"/>
<rect width="12.1893" height="12.1895" rx="0.270506" transform="matrix(0.866022 -0.500006 2.20302e-08 1 30.6816 35.9567)" fill="#141414"/>
<path fill-rule="evenodd" clip-rule="evenodd" d="M29.473 42.9498C29.1288 42.7075 28.677 42.681 28.3068 42.8814L27.1387 43.5138C26.3759 43.9267 26.361 45.0159 27.1121 45.4496L31.7725 48.1403L27.0581 45.4185C26.3188 44.9916 25.3945 45.5252 25.3945 46.3789V56.6242C25.3945 57.0205 25.6059 57.3866 25.9491 57.5847L34.8216 62.7073C35.561 63.1342 36.4852 62.6005 36.4852 61.7468V51.5015C36.4852 51.1053 36.6966 50.7391 37.0397 50.541L45.9186 45.4147C46.6566 44.9886 46.6584 43.9241 45.9219 43.4956L39.7774 39.9205C39.4171 39.7109 38.9696 39.721 38.6191 39.9468L32.2441 44.0534C31.8645 44.2979 31.3745 44.2879 31.0052 44.028L29.473 42.9498ZM36.4863 51.5016C36.4863 51.1054 36.6977 50.7393 37.0409 50.5411L45.9134 45.4185C46.6527 44.9916 47.577 45.5252 47.577 46.379V56.6243C47.577 57.0205 47.3656 57.3866 47.0224 57.5847L38.1499 62.7074C37.4106 63.1342 36.4863 62.6006 36.4863 61.7469V51.5016Z" fill="white"/>
<path fill-rule="evenodd" clip-rule="evenodd" d="M25.6648 44.8115C25.6593 44.8084 25.6523 44.8124 25.6523 44.8188V44.8233V56.7021C25.6523 56.8967 25.7568 57.0763 25.926 57.1724L36.3796 63.1154C36.3828 63.1173 36.3848 63.1206 36.3848 63.1243C36.3848 63.1321 36.3932 63.1371 36.4 63.1332L46.8518 57.1912C47.0209 57.095 47.1254 56.9155 47.1254 56.7209V44.8304C47.1254 44.8289 47.1262 44.8276 47.1275 44.8268C47.1302 44.8253 47.1302 44.8213 47.1275 44.8198L38.9168 40.0134C38.7443 39.9125 38.5302 39.9148 38.3599 40.0196L31.873 44.0116C31.7065 44.1141 31.4976 44.1187 31.3267 44.0238L29.4346 42.9727C29.2696 42.881 29.0687 42.882 28.9046 42.9752L25.6731 44.8115C25.6705 44.813 25.6674 44.813 25.6648 44.8115Z" fill="#86B2FF"/>
<rect width="0.869514" height="0.541009" transform="matrix(0.866022 -0.500006 0.866022 0.500006 28.0898 43.0144)" fill="white"/>
<path d="M26.0504 44.8925C25.9215 44.8181 25.921 44.6975 26.0493 44.6227L29.2256 42.7711L30.5558 43.505C30.6878 43.5778 30.8969 43.5753 31.0234 43.4993L33.4996 42.0136L37.3222 39.4651C37.4488 39.3808 37.6731 39.3766 37.8088 39.4562L41.6516 41.7106L46.6955 44.6227C46.8249 44.6974 46.8249 44.8185 46.6955 44.8932L36.6078 50.7174C36.4784 50.7921 36.2686 50.7921 36.1393 50.7174L26.0504 44.8925Z" fill="#0962FF"/>
<rect width="12.1893" height="12.1895" rx="0.527817" transform="matrix(0.866022 0.500006 -2.20302e-08 1 25.8184 44.9969)" fill="white"/>
<rect width="12.1893" height="12.1895" rx="0.270506" transform="matrix(0.866022 -0.500006 2.20302e-08 1 36.6387 51.1049)" fill="#141414"/>
<path fill-rule="evenodd" clip-rule="evenodd" d="M36.1953 41.2123V41.2123C36.1953 41.2122 36.1953 41.2122 36.1954 41.2122C36.1954 41.2122 36.1954 41.2122 36.1954 41.2122L47.0154 34.9652C47.1828 34.8685 47.3891 34.8685 47.5565 34.9652L57.5651 40.7438C57.9258 40.952 57.9258 41.4726 57.5651 41.6808L47.5565 47.4594C47.3891 47.556 47.286 47.7346 47.286 47.9279L47.286 59.5011C47.286 59.9139 46.8422 60.1746 46.4816 59.9737L39.7705 56.2333C39.6005 56.1386 39.4945 55.9599 39.4928 55.7653L39.4439 49.8892C39.4423 49.7019 39.3439 49.5287 39.1838 49.4314L36.4554 47.7735C36.2939 47.6754 36.1953 47.5001 36.1953 47.3112V41.2123ZM47.2871 47.9279C47.2871 47.7346 47.3902 47.556 47.5576 47.4593L57.5662 41.6808C57.9269 41.4725 58.3777 41.7328 58.3777 42.1493V53.7064C58.3777 53.8997 58.2746 54.0783 58.1072 54.175L48.0986 59.9535C47.738 60.1618 47.2871 59.9015 47.2871 59.485V47.9279Z" fill="white"/>
<rect width="0.880881" height="0.583365" transform="matrix(0.866022 0.500006 -2.20301e-08 1 36.1973 47.0992)" fill="white"/>
<rect width="0.880881" height="0.541009" transform="matrix(0.866022 0.500006 -0.866022 0.500006 36.6582 47.337)" fill="white"/>
<path fill-rule="evenodd" clip-rule="evenodd" d="M36.4763 41.5619L36.4707 41.5587V41.5651V47.6944L41.841 50.67L41.841 56.8243L47.1836 59.8616V60.0367L57.9242 53.9304V41.4344L57.9521 41.4186L57.9242 41.4028V41.3984L57.9204 41.4006L47.3402 35.3856L36.4763 41.5619ZM47.1836 47.5406L47.0881 47.5949L47.1836 47.6492V47.5406Z" fill="#86B2FF"/>
<rect width="12.1893" height="12.1893" rx="0.541009" transform="matrix(0.866022 -0.500006 0.866022 0.500006 36.6328 41.5121)" fill="#0962FF"/>
<path d="M36.6328 41.7512L47.189 47.846L47.189 60.0354L39.446 55.8097L39.446 49.588L36.6328 47.846L36.6328 41.7512Z" fill="#86B2FF"/>
<rect width="12.1893" height="12.1895" rx="0.541012" transform="matrix(0.866022 -0.500006 2.20302e-08 1 47.4531 47.8591)" fill="#141414"/>
<rect width="3.43587" height="1.03287" transform="matrix(0.866022 0.500006 -2.20301e-08 1 36.4707 46.8069)" fill="#86B2FF"/>
<rect width="3.36322" height="1.32376" transform="matrix(0.887214 0.461358 0.0440648 0.999029 39.4453 54.5577)" fill="#86B2FF"/>
</g>
<defs>
<clipPath id="clip0_1237_7062">
<rect width="80" height="80" fill="white" transform="translate(0.625)"/>
</clipPath>
</defs>
</svg>
