<svg width="81" height="80" viewBox="0 0 81 80" fill="none" xmlns="http://www.w3.org/2000/svg">
<g clip-path="url(#clip0_1237_7138)">
<path d="M75.4851 40.2424C75.4851 59.154 60.1544 74.4849 41.2429 74.4849C22.3314 74.4849 7.00065 59.154 7.00065 40.2424C7.00065 21.3309 22.3314 6.00001 41.2429 6.00001C60.1544 6.00001 75.4851 21.3309 75.4851 40.2424Z" fill="#141414" stroke="#0962FF" stroke-width="1.33333"/>
<path d="M1.19747 40.4119H15.6309H15.6809L15.7242 40.3869L31.3843 31.3339C32.5618 30.6542 34.0508 30.2736 35.5052 30.213C36.9614 30.1525 38.3614 30.4136 39.3672 30.9945L39.4605 30.8331L39.3672 30.9945L55.6314 40.3869L55.6747 40.4119H55.7247H70.1461L70.1283 44.6702C70.0685 45.4692 69.4564 46.3382 68.2306 47.0438L68.2304 47.044L39.949 63.3752C38.7695 64.0549 37.2805 64.4356 35.8262 64.4961C34.3701 64.5566 32.97 64.2955 31.9622 63.7146L1.19747 40.4119ZM1.19747 40.4119V44.6774V44.691L1.19698 44.6909C1.1439 45.4208 1.54274 46.1516 2.50582 46.7044L2.50623 46.7047L31.9621 63.7145L1.19747 40.4119Z" fill="#0962FF" stroke="#141414" stroke-width="0.372861"/>
<path d="M4.71167 40.2252H1.00915V44.6771C0.991859 44.9818 1.0428 45.2866 1.15827 45.5691C1.27373 45.8517 1.45081 46.1049 1.67658 46.3103C1.37793 45.9275 1.22942 45.4488 1.25898 44.9642V40.5123H4.98759C4.90556 40.4116 4.80861 40.3146 4.71167 40.2252Z" fill="white"/>
<path d="M65.6541 40.2252C65.628 40.3072 65.5982 40.3892 65.5684 40.4712H70.0651V44.9232C69.9915 45.545 69.7026 46.1215 69.2485 46.5526C69.8372 46.0956 70.2239 45.4265 70.3261 44.6883V40.2252H65.6541Z" fill="#141414"/>
<g style="mix-blend-mode:lighten" opacity="0.5">
<path d="M11.3292 52.0151V41.0157H6.02344V48.9502L11.3292 52.0151Z" fill="white"/>
</g>
<g style="mix-blend-mode:lighten" opacity="0.3">
<path d="M14.5891 53.8943V44.2036H13.1387V53.0591L14.5891 53.8943Z" fill="white"/>
</g>
<g style="mix-blend-mode:lighten" opacity="0.15">
<path d="M17.1772 55.3934V44.7594H15.7305V54.5545L17.1772 55.3934Z" fill="white"/>
</g>
<path d="M39.46 21.0266L39.3668 21.188C38.3609 20.6071 36.9609 20.346 35.5047 20.4065C34.0503 20.467 32.5614 20.8477 31.3839 21.5273L3.09879 37.8548C1.91728 38.5386 1.30208 39.3735 1.20586 40.1466C1.11146 40.9051 1.50988 41.6722 2.51335 42.2525L31.9691 59.2586L39.46 21.0266ZM39.46 21.0266L39.3668 21.188L68.8226 38.1941L39.46 21.0266ZM39.9513 58.9198L39.9522 58.9193L68.2337 42.5918C69.417 41.908 70.0321 41.0731 70.1283 40.3C70.2227 39.5415 69.8243 38.7745 68.8228 38.1942L39.9513 58.9198ZM39.9513 58.9198C38.7742 59.6083 37.2867 59.9889 35.833 60.0471M39.9513 58.9198L35.833 60.0471M35.833 60.0471C34.3777 60.1054 32.9774 59.8398 31.9692 59.2586L35.833 60.0471Z" fill="white" stroke="#141414" stroke-width="0.372861"/>
<path d="M32.196 59.4201L2.73997 42.4139C0.64449 41.2021 0.909218 39.0917 3.32536 37.6935L31.6106 21.3659C32.8913 20.6669 34.3173 20.2762 35.7755 20.225C34.2125 20.2286 32.675 20.6207 31.3011 21.3659L2.98978 37.6935C0.573645 39.0917 0.308911 41.2021 2.40439 42.4139L31.8604 59.4201C33.0967 60.0528 34.4839 60.3315 35.8687 60.2255C34.5953 60.2797 33.3298 60.0022 32.196 59.4201Z" fill="#141414"/>
<path d="M68.9202 38.0329L39.4642 21.0267C38.2213 20.39 36.8255 20.1124 35.4336 20.225C36.6943 20.1738 37.9468 20.4499 39.069 21.0267L68.525 38.0329C70.6205 39.2446 70.3595 41.355 67.9396 42.7533L39.6581 59.0809C38.3788 59.7798 36.9539 60.1705 35.497 60.2218C37.0813 60.2278 38.6416 59.8355 40.0347 59.0809L68.3162 42.7533C70.751 41.355 71.012 39.2409 68.9202 38.0329Z" fill="#141414"/>
<path d="M35.484 55.3708C34.5212 55.3981 33.5676 55.1786 32.7136 54.7332L10.7857 42.056C10.0399 41.616 9.60742 40.997 9.60742 40.3147C9.60742 39.5056 10.1928 38.7002 11.2219 38.1074L32.2774 25.9521C34.1417 24.8745 36.9866 24.7589 38.616 25.6986L60.5477 38.3758C61.2934 38.8158 61.7259 39.4348 61.7259 40.1208C61.7259 40.9262 61.1368 41.7316 60.1114 42.3244L39.056 54.4797C37.9607 55.0762 36.7311 55.383 35.484 55.3708ZM32.9672 54.297C34.4586 55.1546 37.0686 55.0427 38.7987 54.0434L59.8542 41.8882C60.7229 41.3885 61.2188 40.7435 61.2188 40.1208C61.1957 39.8394 61.0973 39.5695 60.934 39.3392C60.7706 39.1089 60.5483 38.9269 60.2904 38.8121L38.3625 26.1348C36.871 25.2772 34.261 25.3891 32.5309 26.3883L11.4717 38.5436C10.6067 39.0433 10.1108 39.6883 10.1108 40.3147C10.1346 40.5949 10.2329 40.8637 10.3954 41.0931C10.558 41.3226 10.779 41.5044 11.0355 41.6197L32.9672 54.297Z" fill="#0962FF"/>
<path d="M40.8828 61.6612L65.8011 47.2464C65.9267 47.1567 66.0296 47.0388 66.1015 46.9022C66.1734 46.7655 66.2122 46.614 66.215 46.4596V46.0495C66.215 45.7474 66.0285 45.6058 65.8011 45.74L40.8828 60.1511C40.7573 60.2415 40.6549 60.3602 40.5836 60.4975C40.5124 60.6348 40.4744 60.7869 40.4727 60.9415V61.348C40.4727 61.6537 40.6479 61.7917 40.8828 61.6612Z" fill="#86B2FF"/>
<path d="M65.3501 47.0981L65.3581 47.0935L65.3656 47.0881C65.5149 46.9807 65.637 46.8399 65.7223 46.677C65.8077 46.514 65.8538 46.3335 65.857 46.1496L65.857 46.1496V46.1463V45.9227L65.8936 45.9018L65.8936 45.9018L65.8959 45.9004C65.932 45.8791 65.9559 45.8748 65.9672 45.8744C65.9766 45.8742 65.9799 45.8762 65.9825 45.8782C65.9906 45.8841 66.0286 45.9246 66.0286 46.0494V46.4577C66.0261 46.5824 65.9946 46.7049 65.9365 46.8153C65.8795 46.9236 65.7985 47.0174 65.6996 47.0896L40.79 61.4993C40.79 61.4994 40.7899 61.4994 40.7899 61.4994C40.7534 61.5204 40.7294 61.5246 40.7181 61.5248C40.7089 61.5251 40.7061 61.5231 40.7041 61.5216C40.6977 61.5167 40.6657 61.4831 40.66 61.3803L65.3501 47.0981Z" fill="white" stroke="#141414" stroke-width="0.372861"/>
<path d="M68.5612 34.9418C68.5649 34.8722 68.5649 34.8026 68.5612 34.733C68.5612 34.733 68.5612 34.7106 68.5612 34.6994C68.523 34.2288 68.318 33.7872 67.9833 33.4541C67.7645 33.2216 67.5134 33.022 67.2376 32.8612L39.273 16.7238H39.2432C38.9933 16.5749 38.7299 16.4501 38.4564 16.351C38.4127 16.3351 38.3678 16.3226 38.3222 16.3137C38.0622 16.2254 37.7969 16.1532 37.528 16.0974H37.4833C36.9213 15.9953 36.3504 15.9503 35.7793 15.9632H35.4661C34.8451 15.9951 34.2284 16.0849 33.6242 16.2316L33.5347 16.2503C33.233 16.3295 32.9356 16.4241 32.6435 16.5337C32.5876 16.556 32.5317 16.5672 32.4758 16.5896C32.1473 16.7186 31.8283 16.8706 31.5212 17.0445L4.67524 32.5406C3.48208 33.2304 2.84822 34.0991 2.78856 34.9418V35.0462C2.78483 35.0909 2.78483 35.1358 2.78856 35.1804V39.1663C2.7736 39.2902 2.7736 39.4153 2.78856 39.5392C2.78711 39.5665 2.78711 39.5939 2.78856 39.6212C2.80867 39.7399 2.84117 39.8561 2.88551 39.968C3.13153 40.5128 3.55468 40.9583 4.08612 41.232L32.0507 57.3694C34.038 58.5178 37.5094 58.3761 39.8062 57.0487L66.6522 41.5564C67.1337 41.2882 67.5651 40.9388 67.9274 40.5235L67.946 40.4974C68.061 40.363 68.1634 40.2182 68.2518 40.0649C68.3232 39.938 68.3819 39.8044 68.427 39.6659C68.4392 39.6356 68.4491 39.6045 68.4568 39.5727C68.4988 39.4394 68.5263 39.3018 68.5389 39.1626L68.5612 34.9418Z" fill="#86B2FF"/>
<path d="M1.19747 31.1573H15.6309H15.6809L15.7242 31.1323L31.3844 22.0829L31.3845 22.0829C32.5619 21.4015 34.0508 21.0208 35.5051 20.9608C36.9613 20.9007 38.3613 21.1627 39.3672 21.7437L39.3673 21.7437L55.6315 31.1323L55.6747 31.1573H55.7247H70.1461L70.1283 35.438C70.0685 36.232 69.4581 37.0829 68.2294 37.8123C68.2291 37.8125 68.2288 37.8127 68.2285 37.8129L39.9489 54.1393L39.9488 54.1393C38.7694 54.8208 37.2805 55.2024 35.8262 55.2629C34.3701 55.3235 32.9701 55.0615 31.9623 54.4787L31.9622 54.4786L2.50627 37.4725C2.50625 37.4724 2.50623 37.4724 2.50621 37.4724C1.54254 36.9156 1.14394 36.1846 1.19697 35.4588L1.19747 35.4588V35.4452V31.1573Z" fill="#0962FF" stroke="#141414" stroke-width="0.372861"/>
<path d="M4.71148 30.9709H1.00897V35.4453C0.992204 35.7499 1.04339 36.0545 1.15882 36.337C1.27425 36.6194 1.45104 36.8727 1.67639 37.0784C1.37775 36.6956 1.22924 36.217 1.25879 35.7324V31.258H4.9874C4.90537 31.1574 4.80842 31.0642 4.71148 30.9709Z" fill="white"/>
<path d="M65.6541 30.9709C65.628 31.053 65.5982 31.135 65.5684 31.217H70.0651V35.6914C69.9906 36.3129 69.7019 36.8891 69.2485 37.3208C69.8372 36.8637 70.2239 36.1947 70.3261 35.4565V30.9821L65.6541 30.9709Z" fill="#141414"/>
<g style="mix-blend-mode:lighten" opacity="0.5">
<path d="M11.3292 42.7607V31.7614H6.02344V39.6996L11.3292 42.7607Z" fill="white"/>
</g>
<g style="mix-blend-mode:lighten" opacity="0.3">
<path d="M14.5891 44.6399V34.9492H13.1387V43.8047L14.5891 44.6399Z" fill="white"/>
</g>
<g style="mix-blend-mode:lighten" opacity="0.15">
<path d="M17.1772 46.1389V35.5087H15.7305V45.3037L17.1772 46.1389Z" fill="white"/>
</g>
<path d="M32.0149 49.9256L32.0147 49.9255L2.55872 32.9193L2.55857 32.9192C1.57704 32.3533 1.20753 31.6174 1.29614 30.9054C1.38745 30.1717 1.97579 29.3574 3.14408 28.6831L3.14412 28.6831L31.4293 12.3518C31.4293 12.3518 31.4293 12.3518 31.4294 12.3518C32.592 11.6808 34.066 11.3031 35.5084 11.2436C36.9535 11.1839 38.3347 11.4446 39.321 12.016L39.3213 12.0162L68.7773 29.0224C69.757 29.5882 70.1267 30.3242 70.038 31.0363C69.9467 31.7699 69.3585 32.5842 68.1884 33.2585L68.1882 33.2586L39.9067 49.5899C39.9067 49.5899 39.9067 49.5899 39.9067 49.5899C38.744 50.261 37.2709 50.6386 35.829 50.6981C34.3845 50.7578 33.0032 50.4971 32.0149 49.9256ZM31.876 50.1657L2.42002 33.1595L31.876 50.1657Z" fill="#0962FF" stroke="#141414" stroke-width="0.554826"/>
<path d="M32.196 50.1659L2.73997 33.1597C0.64449 31.9516 0.909218 29.8375 3.32536 28.443L31.6106 12.1117C32.8913 11.4126 34.3173 11.022 35.7755 10.9707C34.2127 10.9762 32.6756 11.3682 31.3011 12.1117L2.98978 28.4281C0.573645 29.8226 0.308911 31.9367 2.40439 33.1447L31.8604 50.1509C33.0967 50.7836 34.4839 51.0624 35.8687 50.9563C34.5965 51.017 33.3305 50.7445 32.196 50.1659Z" fill="#141414"/>
<path d="M68.9202 28.8008L39.4642 11.7946C38.2229 11.1522 36.8275 10.8669 35.4336 10.9706C36.6946 10.9205 37.9471 11.198 39.069 11.776L68.525 28.7822C70.6205 29.9902 70.3595 32.1044 67.9396 33.4989L39.6581 49.8302C38.3788 50.5291 36.9539 50.9198 35.497 50.9711C37.0811 50.9754 38.641 50.5831 40.0347 49.8302L68.3162 33.4989C70.751 32.1044 71.012 29.9902 68.9202 28.8008Z" fill="#141414"/>
<path d="M40.8828 52.4066L65.8011 37.9955C65.927 37.9052 66.0301 37.7867 66.1019 37.6494C66.1738 37.5122 66.2125 37.36 66.215 37.205V36.7986C66.215 36.4929 66.0285 36.3549 65.8011 36.4854L40.8828 50.9002C40.7576 50.9901 40.6553 51.1081 40.5841 51.2448C40.5128 51.3814 40.4747 51.5329 40.4727 51.687V52.0971C40.4727 52.3991 40.6479 52.5408 40.8828 52.4066Z" fill="#86B2FF"/>
<path d="M65.3501 37.8439L65.3578 37.8395L65.365 37.8343C65.5144 37.7277 65.6367 37.5875 65.7221 37.4251L65.5571 37.3383L65.7221 37.4251C65.8076 37.2627 65.8538 37.0826 65.857 36.8991L65.857 36.8991V36.8958V36.6695L65.8953 36.6466C65.9308 36.6264 65.9546 36.6222 65.9663 36.6219C65.9763 36.6216 65.9799 36.6238 65.9825 36.6258C65.9904 36.6316 66.0286 36.6718 66.0286 36.7989V37.2037C66.0264 37.329 65.9949 37.4521 65.9368 37.5632C65.8798 37.6721 65.7986 37.7665 65.6995 37.8392L40.7895 52.2454L40.7895 52.2454L40.7881 52.2463C40.7516 52.2678 40.728 52.2719 40.7172 52.2723C40.7086 52.2725 40.7061 52.2707 40.7041 52.2692C40.6974 52.2642 40.665 52.2296 40.6598 52.1262L65.3501 37.8439Z" fill="white" stroke="#141414" stroke-width="0.372861"/>
<path d="M35.7116 18.991L34.332 18.1968L35.7116 17.3988L37.0949 18.1968L35.7116 18.991Z" fill="#86B2FF"/>
<path opacity="0.1" d="M38.4714 20.5867L37.0918 19.7888L38.4714 18.9909L39.851 19.7888L38.4714 20.5867Z" fill="#86B2FF"/>
<path opacity="0.4" d="M41.2311 22.1789L39.8516 21.381L41.2311 20.5868L42.6145 21.381L41.2311 22.1789Z" fill="#86B2FF"/>
<path d="M43.9929 23.7747L42.6133 22.9768L43.9929 22.1788L45.3725 22.9768L43.9929 23.7747Z" fill="white"/>
<path opacity="0.4" d="M46.7507 25.3667L45.3711 24.5687L46.7507 23.7745L48.134 24.5687L46.7507 25.3667Z" fill="#86B2FF"/>
<path d="M49.5183 26.9627L48.1387 26.1647L49.5183 25.3668L50.8978 26.1647L49.5183 26.9627Z" fill="white"/>
<path d="M52.278 28.555L50.8984 27.7571L52.278 26.9629L53.6576 27.7571L52.278 28.555Z" fill="white"/>
<path d="M55.0376 30.1507L53.6543 29.3527L55.0376 28.5548L56.4172 29.3527L55.0376 30.1507Z" fill="white"/>
<path opacity="0.1" d="M57.7917 31.7428L56.4121 30.9449L57.7917 30.1507L59.1713 30.9449L57.7917 31.7428Z" fill="#86B2FF"/>
<path d="M32.9382 20.5906L31.5586 19.7964L32.9382 18.9985L34.3178 19.7964L32.9382 20.5906Z" fill="white"/>
<path d="M35.7036 22.1863L34.3203 21.3884L35.7036 20.5905L37.0832 21.3884L35.7036 22.1863Z" fill="#86B2FF"/>
<path d="M38.4655 23.7785L37.0859 22.9843L38.4655 22.1864L39.8451 22.9843L38.4655 23.7785Z" fill="white"/>
<path d="M41.2214 25.3743L39.8418 24.5764L41.2214 23.7784L42.6047 24.5764L41.2214 25.3743Z" fill="#86B2FF"/>
<path d="M43.9851 26.9663L42.6055 26.1721L43.9851 25.3741L45.3646 26.1721L43.9851 26.9663Z" fill="#86B2FF"/>
<path d="M46.7429 28.5623L45.3633 27.7644L46.7429 26.9664L48.1262 27.7644L46.7429 28.5623Z" fill="white"/>
<path d="M49.5026 30.1544L48.123 29.3602L49.5026 28.5623L50.8822 29.3602L49.5026 30.1544Z" fill="white"/>
<path d="M52.2604 31.7502L50.8809 30.9523L52.2604 30.1544L53.64 30.9523L52.2604 31.7502Z" fill="white"/>
<path d="M55.022 33.3424L53.6387 32.5482L55.022 31.7503L56.4016 32.5482L55.022 33.3424Z" fill="white"/>
<path d="M30.1685 22.1939L28.7852 21.3959L30.1685 20.598L31.5481 21.3959L30.1685 22.1939Z" fill="#86B2FF"/>
<path d="M32.9265 23.7858L31.5469 22.9879L32.9265 22.1937L34.306 22.9879L32.9265 23.7858Z" fill="white"/>
<path d="M35.688 25.3817L34.3047 24.5838L35.688 23.7859L37.0676 24.5838L35.688 25.3817Z" fill="#86B2FF"/>
<path opacity="0.1" d="M38.4499 26.9737L37.0703 26.1758L38.4499 25.3816L39.8295 26.1758L38.4499 26.9737Z" fill="#86B2FF"/>
<path opacity="0.4" d="M41.2058 28.5696L39.8262 27.7717L41.2058 26.9738L42.5891 27.7717L41.2058 28.5696Z" fill="#86B2FF"/>
<path opacity="0.4" d="M43.9733 30.1617L42.5938 29.3638L43.9733 28.5696L45.3529 29.3638L43.9733 30.1617Z" fill="#86B2FF"/>
<path d="M46.7351 31.7577L45.3555 30.9598L46.7351 30.1619L48.1146 30.9598L46.7351 31.7577Z" fill="white"/>
<path d="M49.4966 33.3497L48.1133 32.5518L49.4966 31.7576L50.8762 32.5518L49.4966 33.3497Z" fill="white"/>
<path d="M52.2546 34.9456L50.875 34.1477L52.2546 33.3497L53.6342 34.1477L52.2546 34.9456Z" fill="#86B2FF"/>
<path opacity="0.4" d="M27.3913 23.7934L26.0117 22.9954L27.3913 22.1975L28.7709 22.9954L27.3913 23.7934Z" fill="#86B2FF"/>
<path opacity="0.4" d="M30.1568 25.3853L28.7734 24.5911L30.1568 23.7932L31.5363 24.5911L30.1568 25.3853Z" fill="#86B2FF"/>
<path opacity="0.1" d="M32.9186 26.9813L31.5391 26.1834L32.9186 25.3855L34.2982 26.1834L32.9186 26.9813Z" fill="#86B2FF"/>
<path d="M35.6802 28.5734L34.2969 27.7792L35.6802 26.9813L37.0598 27.7792L35.6802 28.5734Z" fill="#86B2FF"/>
<path d="M38.4343 30.1692L37.0547 29.3713L38.4343 28.5734L39.8139 29.3713L38.4343 30.1692Z" fill="#86B2FF"/>
<path d="M41.1979 31.7613L39.8184 30.9671L41.1979 30.1692L42.5813 30.9671L41.1979 31.7613Z" fill="#86B2FF"/>
<path opacity="0.4" d="M43.9616 33.3572L42.582 32.5593L43.9616 31.7614L45.3412 32.5593L43.9616 33.3572Z" fill="#86B2FF"/>
<path d="M46.7214 34.9492L45.3418 34.155L46.7214 33.3571L48.101 34.155L46.7214 34.9492Z" fill="#86B2FF"/>
<path d="M49.4771 36.5451L48.0938 35.7471L49.4771 34.9492L50.8567 35.7471L49.4771 36.5451Z" fill="#86B2FF"/>
<path d="M24.6276 25.3928L23.248 24.5949L24.6276 23.8007L26.0072 24.5949L24.6276 25.3928Z" fill="#86B2FF"/>
<path d="M27.3854 26.9887L26.0059 26.1908L27.3854 25.3929L28.765 26.1908L27.3854 26.9887Z" fill="#86B2FF"/>
<path d="M30.145 28.5809L28.7617 27.783L30.145 26.9888L31.5246 27.783L30.145 28.5809Z" fill="#86B2FF"/>
<path d="M32.903 30.1768L31.5234 29.3789L32.903 28.5809L34.2826 29.3789L32.903 30.1768Z" fill="#86B2FF"/>
<path d="M35.6646 31.7688L34.2812 30.9708L35.6646 30.1766L37.0441 30.9708L35.6646 31.7688Z" fill="white"/>
<path d="M38.4265 33.3646L37.0469 32.5667L38.4265 31.7688L39.806 32.5667L38.4265 33.3646Z" fill="white"/>
<path d="M41.1921 34.9567L39.8125 34.1588L41.1921 33.3646L42.5754 34.1588L41.1921 34.9567Z" fill="white"/>
<path d="M43.9538 36.5525L42.5742 35.7546L43.9538 34.9567L45.3334 35.7546L43.9538 36.5525Z" fill="white"/>
<path d="M46.7058 38.1447L45.3262 37.3468L46.7058 36.5526L48.0853 37.3468L46.7058 38.1447Z" fill="#86B2FF"/>
<path d="M21.8522 26.9925L20.4727 26.1983L21.8522 25.4004L23.2356 26.1983L21.8522 26.9925Z" fill="#86B2FF"/>
<path d="M24.6101 28.5883L23.2305 27.7904L24.6101 26.9924L25.9896 27.7904L24.6101 28.5883Z" fill="#86B2FF"/>
<path opacity="0.4" d="M27.3698 30.1805L25.9902 29.3863L27.3698 28.5884L28.7494 29.3863L27.3698 30.1805Z" fill="#86B2FF"/>
<path d="M30.1314 31.7761L28.748 30.9782L30.1314 30.1802L31.5109 30.9782L30.1314 31.7761Z" fill="#86B2FF"/>
<path opacity="0.1" d="M32.8991 33.3684L31.5195 32.5742L32.8991 31.7762L34.2787 32.5742L32.8991 33.3684Z" fill="#86B2FF"/>
<path d="M35.6548 34.9643L34.2715 34.1664L35.6548 33.3685L37.0344 34.1664L35.6548 34.9643Z" fill="#86B2FF"/>
<path d="M38.4167 36.5565L37.0371 35.7623L38.4167 34.9644L39.7963 35.7623L38.4167 36.5565Z" fill="#86B2FF"/>
<path d="M41.1745 38.1521L39.7949 37.3542L41.1745 36.5563L42.5578 37.3542L41.1745 38.1521Z" fill="#86B2FF"/>
<path d="M43.9343 39.7443L42.5547 38.9501L43.9343 38.1522L45.3139 38.9501L43.9343 39.7443Z" fill="white"/>
<path d="M19.0788 28.5957L17.6992 27.7978L19.0788 26.9999L20.4584 27.7978L19.0788 28.5957Z" fill="white"/>
<path d="M21.8366 30.1881L20.457 29.3901L21.8366 28.5959L23.2199 29.3901L21.8366 30.1881Z" fill="#86B2FF"/>
<path opacity="0.4" d="M24.6022 31.7837L23.2227 30.9858L24.6022 30.1879L25.9818 30.9858L24.6022 31.7837Z" fill="#86B2FF"/>
<path d="M27.364 33.3759L25.9844 32.578L27.364 31.7838L28.7435 32.578L27.364 33.3759Z" fill="white"/>
<path d="M30.1235 34.968L28.7402 34.1738L30.1235 33.3759L31.5031 34.1738L30.1235 34.968Z" fill="#86B2FF"/>
<path opacity="0.1" d="M32.8776 36.5639L31.498 35.7659L32.8776 34.9717L34.2572 35.7659L32.8776 36.5639Z" fill="#86B2FF"/>
<path opacity="0.4" d="M35.645 38.156L34.2617 37.3618L35.645 36.5638L37.0246 37.3618L35.645 38.156Z" fill="#86B2FF"/>
<path d="M38.4011 39.7517L37.0215 38.9537L38.4011 38.1558L39.7807 38.9537L38.4011 39.7517Z" fill="#86B2FF"/>
<path opacity="0.1" d="M41.1686 41.3476L39.7891 40.5496L41.1686 39.7517L42.552 40.5496L41.1686 41.3476Z" fill="#86B2FF"/>
<path d="M16.3054 30.1953L14.9258 29.3974L16.3054 28.5995L17.6887 29.3974L16.3054 30.1953Z" fill="#86B2FF"/>
<path opacity="0.4" d="M19.0671 31.7874L17.6875 30.9932L19.0671 30.1953L20.4467 30.9932L19.0671 31.7874Z" fill="#86B2FF"/>
<path d="M21.8229 33.3833L20.4434 32.5854L21.8229 31.7875L23.2025 32.5854L21.8229 33.3833Z" fill="#86B2FF"/>
<path d="M24.5923 34.9755L23.209 34.1776L24.5923 33.3834L25.9719 34.1776L24.5923 34.9755Z" fill="white"/>
<path d="M27.3464 36.5713L25.9668 35.7734L27.3464 34.9755L28.726 35.7734L27.3464 36.5713Z" fill="#86B2FF"/>
<path d="M30.1079 38.1633L28.7246 37.3691L30.1079 36.5712L31.4875 37.3691L30.1079 38.1633Z" fill="#86B2FF"/>
<path d="M32.8718 39.7592L31.4922 38.9613L32.8718 38.1633L34.2514 38.9613L32.8718 39.7592Z" fill="#86B2FF"/>
<path opacity="0.4" d="M35.6392 41.3515L34.2559 40.5573L35.6392 39.7593L37.0188 40.5573L35.6392 41.3515Z" fill="#86B2FF"/>
<path d="M38.3933 42.9472L37.0137 42.1492L38.3933 41.3513L39.7728 42.1492L38.3933 42.9472Z" fill="#86B2FF"/>
<path d="M13.5358 31.7949L12.1562 30.997L13.5358 30.1991L14.9154 30.997L13.5358 31.7949Z" fill="#86B2FF"/>
<path opacity="0.1" d="M16.2897 33.3908L14.9102 32.5928L16.2897 31.7949L17.6731 32.5928L16.2897 33.3908Z" fill="#86B2FF"/>
<path d="M19.0593 34.9829L17.6797 34.1849L19.0593 33.3907L20.4389 34.1849L19.0593 34.9829Z" fill="#86B2FF"/>
<path d="M21.8151 36.5749L20.4355 35.7807L21.8151 34.9828L23.1947 35.7807L21.8151 36.5749Z" fill="#86B2FF"/>
<path d="M24.5786 38.1709L23.1953 37.373L24.5786 36.5751L25.9582 37.373L24.5786 38.1709Z" fill="#86B2FF"/>
<path d="M27.3386 39.7628L25.959 38.9686L27.3386 38.1707L28.7182 38.9686L27.3386 39.7628Z" fill="#86B2FF"/>
<path opacity="0.4" d="M30.0982 41.3589L28.7148 40.561L30.0982 39.7631L31.4777 40.561L30.0982 41.3589Z" fill="#86B2FF"/>
<path d="M32.862 42.9546L31.4824 42.1567L32.862 41.3588L34.2416 42.1567L32.862 42.9546Z" fill="#86B2FF"/>
<path d="M35.6198 44.5468L34.2402 43.7488L35.6198 42.9547L37.0031 43.7488L35.6198 44.5468Z" fill="#86B2FF"/>
<path d="M35.4845 45.9711C34.5491 45.9975 33.6224 45.7844 32.7925 45.3521L10.8608 32.6749C10.1486 32.2647 9.74219 31.6905 9.74219 31.0604C9.74219 30.3146 10.3015 29.5689 11.2821 28.9873L32.3376 16.8283C34.1646 15.7731 36.9387 15.6612 38.5233 16.5747L60.455 29.252C61.1672 29.6659 61.5736 30.2363 61.5736 30.8665C61.5736 31.6122 61.0106 32.3766 60.0337 32.9396L38.9745 45.0986C37.904 45.6808 36.703 45.9811 35.4845 45.9711ZM32.8931 45.1732C34.4219 46.0568 37.1065 45.945 38.8589 44.9233L59.9144 32.7643C60.8316 32.2386 61.3536 31.5451 61.3536 30.8665C61.3536 30.3109 60.9994 29.8038 60.3543 29.431L38.4227 16.7537C36.8939 15.87 34.2093 15.9819 32.4382 17.0035L11.3977 29.1737C10.4842 29.6994 9.95845 30.3929 9.95845 31.0716C9.95845 31.6271 10.3313 32.1379 10.9614 32.5108L32.8931 45.1732Z" fill="#0962FF"/>
<path d="M23.3135 47.6343C23.3135 48.0742 23.0078 48.2495 22.6275 48.0332C22.4283 47.9022 22.2625 47.7264 22.1434 47.5199C22.0243 47.3133 21.9551 47.0818 21.9414 46.8438C21.9414 46.4075 22.2509 46.2286 22.6275 46.4486C22.8282 46.577 22.9953 46.7517 23.1147 46.958C23.2341 47.1643 23.3022 47.3962 23.3135 47.6343Z" fill="white"/>
<path d="M25.417 48.8533C25.417 49.2896 25.1113 49.4648 24.731 49.2485C24.5318 49.1175 24.366 48.9417 24.2469 48.7352C24.1278 48.5287 24.0586 48.2971 24.0449 48.0591C24.0449 47.6229 24.3544 47.4439 24.731 47.6639C24.931 47.794 25.0974 47.9696 25.2166 48.1763C25.3359 48.3831 25.4045 48.615 25.417 48.8533Z" fill="white"/>
<path d="M27.5264 50.0539C27.5264 50.4902 27.2207 50.6692 26.8404 50.4492C26.6408 50.3186 26.4747 50.1429 26.3555 49.9363C26.2363 49.7297 26.1674 49.4979 26.1543 49.2597C26.1543 48.8235 26.4638 48.6445 26.8404 48.8645C27.0404 48.9947 27.2068 49.1703 27.326 49.377C27.4452 49.5837 27.5139 49.8156 27.5264 50.0539Z" fill="white"/>
<path d="M23.3135 56.8661C23.3135 57.3023 23.0078 57.4813 22.6275 57.2613C22.4279 57.1307 22.2618 56.955 22.1426 56.7484C22.0234 56.5418 21.9545 56.3101 21.9414 56.0719C21.9414 55.6356 22.2509 55.4604 22.6275 55.6767C22.8273 55.807 22.9935 55.9827 23.1127 56.1893C23.2319 56.396 23.3007 56.6279 23.3135 56.8661Z" fill="white"/>
<path d="M25.417 58.0815C25.417 58.5178 25.1113 58.6967 24.731 58.4767C24.5317 58.3467 24.3657 58.1717 24.2466 57.9657C24.1274 57.7597 24.0583 57.5286 24.0449 57.291C24.0449 56.8511 24.3544 56.6758 24.731 56.8921C24.9308 57.0225 25.097 57.1981 25.2162 57.4048C25.3354 57.6114 25.4042 57.8433 25.417 58.0815Z" fill="white"/>
<path d="M27.5264 59.2972C27.5264 59.7372 27.2207 59.9124 26.8404 59.6925C26.641 59.5624 26.4751 59.3874 26.3559 59.1814C26.2368 58.9755 26.1677 58.7443 26.1543 58.5068C26.1543 58.0705 26.4638 57.8915 26.8404 58.1115C27.0411 58.24 27.2082 58.4146 27.3276 58.6209C27.4469 58.8272 27.5151 59.0591 27.5264 59.2972Z" fill="white"/>
<rect width="6.66667" height="4" transform="translate(59.668 18.6667)" fill="#86B2FF"/>
<rect width="4" height="4" transform="translate(10.334 12)" fill="#86B2FF"/>
<rect width="9.33333" height="6.66667" transform="translate(53 54.6667)" fill="#86B2FF"/>
<rect width="12" height="2.66667" transform="translate(62.334 62.6667)" fill="#86B2FF"/>
</g>
<defs>
<clipPath id="clip0_1237_7138">
<rect width="80" height="80" fill="white" transform="translate(0.625)"/>
</clipPath>
</defs>
</svg>
