<svg width="295" height="238" viewBox="0 0 295 238" fill="none" xmlns="http://www.w3.org/2000/svg">
<g clip-path="url(#clip0_1237_7273)">
<path d="M55.8588 169.095C53.1195 169.832 50.4434 170.28 47.8563 170.435C45.311 170.629 42.8539 170.55 40.5065 170.198L39.8417 170.107L39.1889 170.972C36.8415 174.035 34.3845 176.952 31.8392 179.696C29.2478 182.527 26.5676 185.167 23.8246 187.59L22.918 188.378L22.918 200.02C22.918 218.71 39.2735 216.26 39.4307 216.239L39.8417 216.17L40.2527 215.765C40.4219 215.667 56.7654 199.182 56.7654 180.478L56.7654 168.837L55.8588 169.095Z" fill="#0962FF"/>
</g>
<g clip-path="url(#clip1_1237_7273)">
<path d="M52.8838 173.771C50.6532 174.384 48.4741 174.764 46.3674 174.909C44.2949 175.086 42.2941 175.043 40.3827 174.78L39.8413 174.713L39.3097 175.411C37.3983 177.88 35.3975 180.234 33.325 182.45C31.2148 184.737 29.0324 186.871 26.7988 188.831L26.0605 189.47L26.0605 198.783C26.0605 213.735 39.3786 211.64 39.5066 211.622L39.8413 211.563L40.176 211.236C40.3138 211.156 53.622 197.834 53.622 182.87L53.622 173.557L52.8838 173.771Z" fill="#86B2FF"/>
<path d="M51.5863 175.506C49.5775 176.047 47.615 176.375 45.7178 176.489C43.8512 176.631 42.0494 176.573 40.328 176.315L39.8404 176.248L39.3617 176.883C37.6403 179.129 35.8384 181.268 33.9719 183.281C32.0716 185.357 30.1061 187.292 28.0945 189.069L27.4297 189.647L27.4297 198.184C27.4297 211.891 39.4238 210.094 39.539 210.079L39.8404 210.028L40.1418 209.731C40.2659 209.659 52.2511 197.57 52.2511 183.854L52.2511 175.317L51.5863 175.506Z" fill="#0962FF"/>
<path d="M36.4727 197.35L37.8952 196.529C37.8952 197.416 38.8697 197.609 40.029 196.939C41.1884 196.27 42.1629 194.952 42.1629 194.065C42.1629 193.161 41.4231 193.26 39.8583 193.728C38.3504 194.163 36.4727 194.705 36.4727 192.422C36.4727 190.952 37.5182 189.1 38.9621 187.847L38.9621 186.057L41.0959 184.825L41.0959 186.615C42.5398 186.201 43.5854 186.845 43.5854 188.316L42.1629 189.137C42.1629 188.25 41.1884 188.057 40.029 188.726C38.8697 189.396 37.8952 190.714 37.8952 191.601C37.8952 192.504 38.6349 192.406 40.1997 191.938C41.7076 191.502 43.5854 190.96 43.5854 193.243C43.5854 194.714 42.5398 196.566 41.0959 197.818L41.0959 199.609L38.9621 200.841L38.9621 199.05C37.5182 199.465 36.4727 198.82 36.4727 197.35Z" fill="white"/>
</g>
<rect x="0.49996" width="64.0807" height="64.0808" rx="6.639" transform="matrix(0.866025 -0.5 0.866025 0.5 76.0572 194.485)" fill="#141414" stroke="#0962FF" stroke-width="0.577304"/>
<rect x="0.49996" width="64.0807" height="64.0808" rx="6.639" transform="matrix(0.866025 -0.5 0.866025 0.5 76.0572 188.134)" fill="#86B2FF" stroke="#0962FF" stroke-width="0.577304"/>
<rect opacity="0.3" width="58.4905" height="4.14837" rx="2.07419" transform="matrix(0.866025 -0.5 0.866025 0.5 99.7148 199.148)" fill="#141414"/>
<path d="M79.7598 193.936V187.861C79.7598 188.535 80.3948 190.228 82.9349 191.614C85.4751 192.999 86.3025 193.538 86.3988 193.634V199.869L81.203 196.809C80.9323 196.606 80.4425 196.146 80.0954 195.57C79.8034 195.084 79.7598 194.502 79.7598 193.936Z" fill="#0962FF" stroke="#0962FF" stroke-width="0.577304"/>
<path d="M184.078 187.861V194.5" stroke="#0962FF" stroke-width="0.577304"/>
<path d="M125.656 216.438V222.499" stroke="#0962FF" stroke-width="0.577304"/>
<path d="M138.355 216.149V222.499" stroke="#0962FF" stroke-width="0.577304"/>
<path d="M180.21 194.528V192.191C180.21 192.191 181.732 191.463 182.519 190.748C183.175 190.151 183.871 188.885 184.138 188.372C184.166 188.318 184.251 188.339 184.251 188.4V193.496C184.251 194.35 184.16 195.241 183.673 195.944C183.053 196.84 182.045 197.372 181.101 197.917L149.035 216.438L178.026 198.453C179.384 197.611 180.21 196.126 180.21 194.528Z" fill="#0962FF" stroke="#0962FF" stroke-width="0.577304"/>
<path d="M90.7285 202.409V196.348L95.3469 199.234V205.007L90.7285 202.409Z" fill="#0962FF" stroke="#0962FF" stroke-width="0.577304"/>
<rect opacity="0.3" x="0.269716" y="0.15572" width="57.1917" height="56.5075" rx="4.67161" transform="matrix(0.866025 -0.5 2.20305e-08 1 178.685 29.2343)" fill="#0962FF" stroke="#86B2FF" stroke-width="0.622881"/>
<rect width="43.1545" height="11.6968" rx="2.49153" transform="matrix(0.866025 -0.5 2.20305e-08 1 175.652 39.5927)" fill="#86B2FF"/>
<rect width="43.1545" height="11.6968" rx="2.49153" transform="matrix(0.866025 -0.5 2.20305e-08 1 199.322 40.0987)" fill="#86B2FF"/>
<rect width="43.1545" height="11.6968" rx="2.49153" transform="matrix(0.866025 -0.5 2.20305e-08 1 188.109 62.5225)" fill="#86B2FF"/>
<rect opacity="0.5" x="0.269716" y="0.15572" width="44.1372" height="43.6074" rx="4.67161" transform="matrix(0.866025 -0.5 2.20305e-08 1 247.366 94.3519)" fill="#0962FF" fill-opacity="0.5" stroke="#86B2FF" stroke-width="0.622881"/>
<rect opacity="0.3" x="0.269716" y="0.15572" width="57.1917" height="56.5075" rx="4.67161" transform="matrix(0.866025 -0.5 2.20305e-08 1 29.9346 79.9535)" fill="#0962FF" stroke="#86B2FF" stroke-width="0.622881"/>
<rect opacity="0.3" x="0.269716" y="0.15572" width="57.1917" height="56.5075" rx="4.67161" transform="matrix(0.866025 -0.5 2.20305e-08 1 0.036135 170.894)" fill="#0962FF" stroke="#86B2FF" stroke-width="0.622881"/>
<rect opacity="0.3" x="0.269716" y="0.15572" width="72.7397" height="71.8715" rx="4.67161" transform="matrix(0.866025 -0.5 2.20305e-08 1 92.2217 123.487)" fill="#0962FF" stroke="#86B2FF" stroke-width="0.622881"/>
<mask id="mask0_1237_7273" style="mask-type:luminance" maskUnits="userSpaceOnUse" x="110" y="121" width="32" height="54">
<path d="M125.949 140.14C126.799 139.649 127.641 138.97 128.426 138.141C129.211 137.312 129.925 136.349 130.526 135.308C131.127 134.267 131.603 133.168 131.929 132.074C132.254 130.979 132.421 129.911 132.421 128.929C132.421 127.948 132.254 127.073 131.929 126.354C131.603 125.635 131.127 125.086 130.526 124.739C129.925 124.392 129.211 124.253 128.426 124.331C127.641 124.409 126.799 124.702 125.949 125.192C124.232 126.183 122.586 127.921 121.372 130.024C120.158 132.126 119.477 134.421 119.477 136.403C119.477 138.385 120.158 139.892 121.372 140.593C122.586 141.294 124.232 141.131 125.949 140.14Z" fill="white" stroke="white" stroke-width="4.27064" stroke-linecap="round" stroke-linejoin="round"/>
<path d="M112.08 170.354L112.08 171.636L139.819 155.621L139.819 154.34C139.819 149.556 139.819 147.165 139.012 145.802C138.303 144.605 137.172 143.952 135.78 143.936C134.197 143.919 132.126 145.115 127.984 147.506L123.915 149.855C119.773 152.247 117.702 153.443 116.119 155.288C114.727 156.91 113.596 158.87 112.886 160.886C112.08 163.18 112.08 165.571 112.08 170.354Z" fill="white" stroke="white" stroke-width="4.27064" stroke-linecap="round" stroke-linejoin="round"/>
</mask>
<g mask="url(#mask0_1237_7273)">
<path d="M108.383 128.929L152.765 103.305L152.765 154.553L108.383 180.177L108.383 128.929Z" fill="#86B2FF"/>
</g>
<rect x="1.61829" y="0.934322" width="82.6573" height="82.6573" rx="3.11441" transform="matrix(0.866025 -0.5 2.20305e-08 1 105.193 128.958)" stroke="white" stroke-width="3.73729" stroke-dasharray="49.83 49.83"/>
<path d="M195.073 224.568C195.791 224.593 196.665 224.519 197.576 224.442C199.317 224.294 201.191 224.135 202.361 224.643M195.073 224.568L205.637 226.162C205.128 225.939 204.631 225.7 204.135 225.461C203.551 225.18 202.967 224.898 202.361 224.643M195.073 224.568C187.997 224.568 177.744 222.898 171.902 218.339L195.073 224.568ZM202.361 224.643L202.46 224.414C202.459 224.414 202.459 224.414 202.459 224.413M202.361 224.643L202.458 224.413C202.458 224.413 202.458 224.413 202.459 224.413M202.459 224.413C201.505 224.001 200.148 224.008 198.817 224.095C198.385 224.123 197.954 224.16 197.535 224.195C196.634 224.272 195.785 224.344 195.082 224.319L195.082 224.319H195.073C191.553 224.319 187.24 223.903 183.082 222.921C178.921 221.938 174.937 220.391 172.055 218.143L172.049 218.138L172.043 218.134C170.878 217.331 169.631 216.655 168.323 216.116M202.459 224.413C203.025 224.653 203.572 224.913 204.112 225.173C204.155 225.194 204.199 225.215 204.242 225.236C204.739 225.476 205.232 225.713 205.737 225.934L205.738 225.935C211.767 228.608 217.441 232.016 222.633 236.082L222.636 236.084L223.561 236.826M168.323 216.116L223.427 237.038M168.323 216.116C167 215.553 165.68 215.154 164.38 214.761C164.226 214.715 164.073 214.668 163.92 214.622C162.467 214.18 161.036 213.721 159.617 213.02L159.61 213.017L159.603 213.014C157.885 212.296 156.291 211.312 154.881 210.097C154.392 209.599 154.042 208.98 153.868 208.304C153.693 207.625 153.701 206.911 153.891 206.235L153.891 206.235L153.893 206.229C154.083 205.473 154.525 204.805 155.147 204.336L155.147 204.336L155.155 204.33C155.609 203.958 156.109 203.647 156.644 203.405L156.644 203.405L156.649 203.403C159.332 202.119 162.178 202.603 164.476 203.478C165.622 203.914 166.623 204.445 167.386 204.891C167.767 205.114 168.089 205.315 168.34 205.474C168.362 205.487 168.383 205.501 168.404 205.514C168.617 205.648 168.789 205.757 168.889 205.806L168.89 205.806C170.532 206.611 172.316 207.085 174.141 207.201L174.149 207.202H174.157C174.545 207.202 174.889 207.11 175.083 206.828C175.27 206.555 175.256 206.191 175.158 205.808L175.154 205.79L175.147 205.774C174.389 203.945 173.352 202.244 172.073 200.732C170.283 198.252 168.631 195.675 167.124 193.013C167.065 192.836 166.933 192.65 166.774 192.467C166.6 192.266 166.371 192.042 166.102 191.8C165.564 191.316 164.849 190.744 164.061 190.123C163.91 190.003 163.755 189.882 163.598 189.759C162.124 188.599 160.469 187.297 159.208 186.058C156.176 183.076 153.565 180.737 151.616 179.012C151.369 178.793 151.132 178.584 150.906 178.385C150.243 177.8 149.678 177.3 149.22 176.884C148.601 176.32 148.2 175.927 148.021 175.685L148.021 175.685L148.019 175.683C147.732 175.305 147.123 174.661 146.495 173.996C146.406 173.902 146.317 173.808 146.229 173.715C145.497 172.939 144.8 172.186 144.529 171.773L144.529 171.772L144.521 171.761C143.87 170.883 143.516 169.82 143.511 168.727C143.576 168.328 143.69 167.939 143.849 167.567C144.187 166.89 144.76 166.359 145.461 166.075C146.165 165.791 146.948 165.774 147.663 166.028L147.665 166.028C148.311 166.251 148.923 166.559 149.487 166.945L149.487 166.945L149.497 166.952C151.787 168.363 155.227 170.995 157.221 172.578C159.144 174.119 161.277 175.526 163.036 176.637C163.593 176.989 164.114 177.313 164.579 177.602C164.848 177.768 165.097 177.923 165.324 178.065C165.951 178.458 166.392 178.745 166.598 178.915L166.61 178.926L166.624 178.934C168.563 180.159 170.595 181.231 172.7 182.142L172.7 182.142L172.71 182.146C173.816 182.568 174.868 182.945 175.719 183.094C176.144 183.169 176.54 183.191 176.876 183.122C177.22 183.052 177.512 182.884 177.696 182.577L177.71 182.554L177.719 182.529C178.072 181.489 178.705 180.566 179.549 179.862L179.549 179.862L179.559 179.853C180.221 179.235 181.053 178.829 181.947 178.688C182.838 178.548 183.751 178.676 184.568 179.057C185.075 179.348 185.654 179.489 186.238 179.465C186.821 179.442 187.386 179.254 187.867 178.923C190.379 177.532 192.493 177.77 194.082 178.355C194.882 178.649 195.552 179.033 196.077 179.35C196.148 179.393 196.217 179.435 196.283 179.476C196.46 179.584 196.621 179.682 196.758 179.758C196.854 179.811 196.945 179.857 197.029 179.892C197.11 179.925 197.202 179.954 197.295 179.957L197.295 179.957H197.303C197.608 179.957 197.957 179.903 198.32 179.837C198.446 179.814 198.574 179.789 198.703 179.764C198.955 179.716 199.215 179.666 199.487 179.622C200.3 179.492 201.146 179.435 201.928 179.681C202.88 180.066 203.763 180.606 204.54 181.279L204.546 181.284L204.552 181.289C205.936 182.336 207.082 183.625 208.202 184.969C208.413 185.222 208.623 185.477 208.834 185.733C209.736 186.829 210.647 187.936 211.667 188.93C213.952 191.16 216.121 194.16 217.879 196.747C218.319 197.393 218.732 198.012 219.114 198.587L219.192 198.703C219.544 199.232 219.871 199.722 220.167 200.157C220.484 200.622 220.767 201.027 221.012 201.349C221.253 201.667 221.468 201.921 221.646 202.072L221.65 202.075C223.185 203.329 224.919 204.531 227.151 206.062C227.301 206.165 227.455 206.27 227.61 206.377C229.757 207.85 232.362 209.636 235.675 212.05C237.911 213.702 239.075 214.541 240.064 215.192L240.915 215.825M168.323 216.116L240.915 215.825M223.561 236.826C223.553 236.822 223.545 236.818 223.537 236.814L223.427 237.038M223.561 236.826L223.583 236.844L223.427 237.038M223.561 236.826C224.487 237.278 225.499 237.527 226.529 237.556C227.525 237.584 228.515 237.406 229.438 237.033M223.427 237.038C224.391 237.513 225.447 237.775 226.522 237.805C227.597 237.835 228.666 237.633 229.655 237.212M229.438 237.033C229.429 237.076 229.42 237.12 229.411 237.164L229.655 237.212M229.438 237.033C229.537 236.565 229.669 236.106 229.832 235.657L229.835 235.65L229.835 235.65C230.952 232.852 232.409 230.202 234.175 227.761M229.438 237.033C229.478 237.017 229.518 237 229.558 236.983L229.655 237.212M229.655 237.212C229.754 236.712 229.892 236.221 230.066 235.742L234.175 227.761M234.175 227.761C234.175 227.761 234.174 227.761 234.174 227.761L234.377 227.906L234.175 227.76C234.175 227.761 234.175 227.761 234.175 227.761ZM234.175 227.761C236.435 224.607 239.188 221.837 242.328 219.558L242.333 219.554L242.333 219.554C242.388 219.516 242.446 219.483 242.506 219.454M234.175 227.761L242.512 219.626C242.511 219.569 242.509 219.511 242.506 219.454M242.506 219.454C242.443 218.091 241.877 216.798 240.915 215.825M242.506 219.454L240.915 215.825" fill="#86B2FF" stroke="#141414" stroke-width="0.498305"/>
<g style="mix-blend-mode:multiply" opacity="0.2">
<path d="M180.348 207.513C180.572 207.513 178.816 205.371 178.741 205.283C177.995 204.491 177.292 203.66 176.635 202.792C175.751 201.621 175.004 200.3 174.144 199.179C172.194 196.756 170.021 194.52 167.654 192.502C165.511 190.509 163.468 188.453 161.425 186.41C159.382 184.367 156.766 182.1 154.374 180.007L149.827 176.033C148.581 174.912 147.086 174.027 145.828 172.906C145.045 172.247 144.319 171.522 143.66 170.738C143.838 171.15 144.051 171.546 144.296 171.922C144.869 172.794 147.161 175.011 147.796 175.846C148.593 176.905 152.966 180.293 159.008 186.248C161.823 189.014 166.57 192.078 166.869 193.125C168.385 195.806 170.049 198.401 171.852 200.898C173.116 202.392 174.142 204.073 174.891 205.881C174.997 206.137 174.997 206.423 174.891 206.679C176.735 206.803 178.442 207.65 180.348 207.513Z" fill="#0962FF"/>
</g>
<g style="mix-blend-mode:multiply" opacity="0.2">
<path d="M209.574 225.253C207.556 223.11 207.008 220.581 206.933 217.43C206.933 217.093 205.189 217.43 204.118 217.579C201.178 218.401 198.649 220.681 195.833 220.831C182.317 220.631 170.856 215.262 158.186 210.715C156.131 210.067 153.876 208.722 153.502 206.816C153.425 207.436 153.49 208.066 153.693 208.658C153.896 209.249 154.231 209.787 154.673 210.229C156.106 211.464 157.724 212.465 159.469 213.194C162.335 214.614 165.25 215.038 168.19 216.296C169.482 216.828 170.714 217.497 171.865 218.289C177.707 222.899 187.96 224.518 195.036 224.518C197.129 224.518 200.542 223.82 202.324 224.593C203.445 225.066 204.491 225.627 205.6 226.113C211.61 228.777 217.267 232.175 222.443 236.228L223.39 236.988C224.354 237.464 225.41 237.725 226.485 237.755C227.56 237.786 228.629 237.583 229.618 237.163C229.717 236.663 229.855 236.171 230.029 235.693C230.266 235.095 230.515 234.447 230.789 233.936C223.028 233.55 215.529 231.644 209.574 225.253Z" fill="#0962FF"/>
</g>
<g style="mix-blend-mode:multiply" opacity="0.2">
<path d="M154.873 210.242C154.091 209.536 153.61 208.556 153.531 207.505C153.452 206.454 153.781 205.413 154.45 204.598C154.678 204.282 154.996 204.041 155.362 203.908C155.729 203.775 156.127 203.755 156.505 203.851C158.909 204.113 160.803 204.474 160.529 209.058C160.317 212.322 157.664 212.247 154.873 210.242Z" fill="#86B2FF"/>
</g>
<path d="M156.166 204.274L156.167 204.274C156.2 204.277 156.232 204.28 156.265 204.284C156.785 204.336 157.271 204.385 157.711 204.489C158.176 204.599 158.579 204.768 158.904 205.06C159.552 205.641 159.935 206.747 159.793 209C159.735 209.782 159.542 210.353 159.258 210.743C158.976 211.13 158.598 211.347 158.149 211.417C157.241 211.558 156.028 211.097 154.755 210.148C154.069 209.437 153.66 208.503 153.602 207.516C153.545 206.528 153.844 205.551 154.445 204.764C154.677 204.496 154.841 204.354 155.067 204.284C155.302 204.212 155.618 204.211 156.166 204.274Z" fill="white" stroke="#141414" stroke-width="0.249153"/>
<g style="mix-blend-mode:multiply" opacity="0.2">
<path d="M150.289 169.219C149.763 169.833 149.114 170.329 148.383 170.676C147.704 171.042 146.923 171.171 146.162 171.043C145.402 170.914 144.706 170.535 144.185 169.966C143.886 169.63 143.201 168.857 143.437 168.122C143.581 167.676 143.812 167.263 144.117 166.907C144.421 166.551 144.794 166.26 145.212 166.049C145.63 165.838 146.087 165.712 146.554 165.679C147.021 165.645 147.491 165.705 147.935 165.855C148.664 166.099 149.34 166.48 149.928 166.976C150.244 167.247 150.454 167.621 150.52 168.031C150.586 168.442 150.504 168.863 150.289 169.219Z" fill="#86B2FF"/>
</g>
<path d="M148.092 170.153L148.092 170.152L148.086 170.155C147.466 170.488 146.752 170.605 146.058 170.487C145.363 170.37 144.728 170.026 144.25 169.508L144.159 169.592L144.25 169.508C144.108 169.353 143.883 169.101 143.721 168.805C143.559 168.508 143.47 168.188 143.567 167.887C143.699 167.48 143.91 167.104 144.188 166.779C144.466 166.454 144.805 166.188 145.186 165.995C145.568 165.802 145.984 165.686 146.41 165.655C146.836 165.623 147.264 165.677 147.669 165.811C148.347 166.042 148.975 166.397 149.522 166.859C149.798 167.098 149.982 167.426 150.041 167.786C150.1 168.143 150.032 168.509 149.85 168.822C149.361 169.38 148.762 169.833 148.092 170.153Z" fill="white" stroke="#141414" stroke-width="0.249153"/>
<path d="M229.525 236.981L229.525 236.981L229.521 236.983C228.564 237.39 227.531 237.585 226.492 237.556C225.456 237.527 224.439 237.276 223.51 236.819C223.184 236.621 222.886 236.381 222.623 236.106L222.621 236.104C221.354 234.801 220.817 232.643 221.366 229.817C222.188 226.546 223.77 223.516 225.983 220.971C228.198 218.425 230.982 216.437 234.11 215.169L234.11 215.169L234.116 215.166C235.068 214.75 236.099 214.545 237.138 214.563C238.174 214.582 239.193 214.823 240.128 215.27C240.421 215.443 240.694 215.646 240.944 215.877C241.935 216.874 242.509 218.211 242.55 219.617L242.55 219.617L242.55 219.622C242.596 220.531 242.519 221.442 242.32 222.33C241.489 225.605 239.897 228.638 237.675 231.184C235.452 233.73 232.66 235.716 229.525 236.981Z" fill="#0962FF" stroke="#141414" stroke-width="0.498305"/>
<path opacity="0.3" d="M179.276 182.274C179.348 182.446 179.469 182.594 179.625 182.698C180.165 183.075 180.832 183.223 181.481 183.109C182.12 182.991 182.723 182.722 183.237 182.324C184.57 181.352 183.349 180.007 181.991 179.995C181.194 179.995 178.89 181.24 179.276 182.274Z" fill="white"/>
<path opacity="0.3" d="M169.696 189.525C169.815 189.723 169.994 189.88 170.206 189.973C170.562 190.143 170.948 190.24 171.342 190.257C171.736 190.274 172.13 190.211 172.499 190.073C173.249 189.782 173.916 189.312 174.442 188.702C175.825 187.183 174.081 185.787 172.511 186.061C171.502 186.248 169.01 188.316 169.696 189.525Z" fill="white"/>
<path opacity="0.3" d="M188.333 180.891C188.611 181.185 188.98 181.378 189.38 181.44C190.135 181.558 190.904 181.558 191.659 181.44C193.603 181.253 193.354 179.247 191.659 178.948C190.713 178.786 186.95 179.322 188.333 180.891Z" fill="white"/>
<path opacity="0.3" d="M198.848 180.692C198.64 180.818 198.489 181.018 198.424 181.253C198.419 181.373 198.444 181.493 198.496 181.601C198.548 181.71 198.626 181.804 198.723 181.876C198.928 182.01 199.156 182.103 199.396 182.15C199.972 182.292 200.56 182.38 201.153 182.411C201.5 182.456 201.854 182.405 202.174 182.262C202.328 182.182 202.449 182.052 202.517 181.893C202.585 181.734 202.596 181.556 202.548 181.39C202.479 181.282 202.416 181.169 202.361 181.053C202.137 180.306 201.838 180.318 200.991 180.206C200.241 180.1 199.479 180.273 198.848 180.692Z" fill="white"/>
<path d="M153.927 171.623C153.306 171.822 152.727 172.135 152.22 172.545C151.96 172.738 151.722 172.96 151.51 173.205C151.278 173.419 151.107 173.689 151.012 173.99C151.237 173.806 151.446 173.601 151.635 173.379C151.849 173.153 152.083 172.944 152.332 172.757C152.834 172.394 153.383 172.1 153.964 171.885C154.201 171.822 154.126 171.523 153.927 171.623Z" fill="#0962FF"/>
<path d="M162.26 178.649C161.372 178.901 160.589 179.435 160.03 180.169C159.751 180.548 159.533 180.969 159.382 181.415C159.295 181.627 159.232 181.848 159.195 182.075C159.151 182.305 159.151 182.542 159.195 182.772C159.204 182.791 159.219 182.806 159.236 182.817C159.254 182.827 159.274 182.833 159.295 182.833C159.315 182.833 159.335 182.827 159.353 182.817C159.371 182.806 159.385 182.791 159.394 182.772C159.435 182.567 159.464 182.359 159.481 182.15C159.516 181.937 159.571 181.729 159.643 181.527C159.785 181.113 159.986 180.723 160.241 180.368C160.758 179.625 161.494 179.063 162.347 178.761L162.26 178.649Z" fill="#0962FF"/>
<path d="M162.347 179.621L161.637 180.356L161.313 180.729C161.186 180.846 161.08 180.986 161.002 181.141C161.002 181.215 161.077 181.29 161.151 181.253C161.216 181.201 161.274 181.142 161.326 181.078L161.488 180.891C161.6 180.767 161.724 180.642 161.824 180.518L162.447 179.72C162.447 179.72 162.347 179.558 162.347 179.621Z" fill="#0962FF"/>
<path d="M163.507 178.873C163.439 179.079 163.397 179.293 163.382 179.509C163.382 179.745 163.295 179.982 163.22 180.219C163.081 180.665 162.87 181.085 162.597 181.464C162.32 181.866 161.98 182.219 161.588 182.511C161.401 182.639 161.205 182.755 161.003 182.86C160.828 182.947 160.505 183.009 160.455 183.221C160.444 183.238 160.438 183.257 160.438 183.277C160.438 183.297 160.444 183.317 160.455 183.333C160.642 183.495 160.916 183.333 161.103 183.233C161.33 183.124 161.546 182.995 161.75 182.847C162.174 182.53 162.544 182.147 162.847 181.714C163.148 181.283 163.372 180.802 163.507 180.293C163.574 180.049 163.615 179.799 163.631 179.546C163.654 179.315 163.61 179.082 163.507 178.873Z" fill="#0962FF"/>
<g clip-path="url(#clip2_1237_7273)">
<path d="M231.122 24.4803L233.193 24.4803C233.295 24.4804 233.394 24.5512 233.467 24.6772C233.54 24.8032 233.58 24.9741 233.581 25.1523L233.581 28.739C233.581 28.9174 233.54 29.0885 233.467 29.2147C233.394 29.3408 233.296 29.4117 233.193 29.4117C233.09 29.4117 232.991 29.3408 232.918 29.2147C232.845 29.0885 232.804 28.9174 232.804 28.739L232.804 26.7761L230.693 30.4328C230.62 30.5589 230.521 30.6298 230.418 30.6298C230.315 30.6298 230.217 30.5589 230.144 30.4328C230.071 30.3067 230.03 30.1356 230.03 29.9573C230.03 29.7789 230.071 29.6079 230.144 29.4818L232.255 25.825L231.122 25.8247C231.019 25.8247 230.92 25.7538 230.847 25.6276C230.775 25.5015 230.734 25.3304 230.734 25.152C230.734 24.9736 230.775 24.8026 230.848 24.6765C230.92 24.5504 231.019 24.4796 231.122 24.4796L231.122 24.4803Z" fill="white"/>
</g>
<g clip-path="url(#clip3_1237_7273)">
<path d="M183.214 39.4324L180.435 40.177C180.297 40.2141 180.15 40.3215 180.026 40.4755C179.902 40.6295 179.812 40.8176 179.775 40.9984L179.03 44.6374C178.993 44.8184 179.012 44.9773 179.084 45.0791C179.155 45.1809 179.273 45.2172 179.411 45.1802C179.55 45.1432 179.697 45.0357 179.821 44.8815C179.945 44.7274 180.035 44.5391 180.072 44.358L180.48 42.3666L182.554 45.3173C182.625 45.4191 182.743 45.4554 182.881 45.4184C183.02 45.3814 183.167 45.274 183.291 45.1199C183.415 44.9657 183.505 44.7775 183.542 44.5965C183.579 44.4156 183.56 44.2568 183.488 44.155L181.414 41.2043L182.935 40.7965C183.073 40.7594 183.22 40.652 183.344 40.4978C183.468 40.3436 183.558 40.1553 183.595 39.9744C183.632 39.7934 183.613 39.6346 183.541 39.5329C183.47 39.4311 183.352 39.3948 183.214 39.4319L183.214 39.4324Z" fill="white"/>
</g>
<g clip-path="url(#clip4_1237_7273)">
<path d="M195.673 61.8562L192.894 62.6008C192.756 62.6379 192.609 62.7453 192.485 62.8993C192.361 63.0533 192.271 63.2413 192.234 63.4222L191.489 67.0611C191.452 67.2421 191.471 67.401 191.543 67.5028C191.614 67.6046 191.732 67.641 191.87 67.604C192.009 67.5669 192.156 67.4595 192.28 67.3053C192.404 67.1511 192.494 66.9628 192.531 66.7818L192.939 64.7903L195.013 67.7411C195.084 67.8428 195.202 67.8792 195.34 67.8422C195.479 67.8051 195.626 67.6978 195.75 67.5436C195.874 67.3895 195.964 67.2012 196.001 67.0203C196.038 66.8393 196.019 66.6805 195.947 66.5788L193.873 63.628L195.394 63.2202C195.532 63.1832 195.679 63.0757 195.803 62.9216C195.927 62.7674 196.017 62.5791 196.054 62.3982C196.091 62.2172 196.072 62.0584 196 61.9566C195.929 61.8549 195.811 61.8186 195.673 61.8557L195.673 61.8562Z" fill="white"/>
</g>
<path d="M241.678 136.869L251.021 130.017L252.89 105.725L260.987 116.937L267.216 113.822L271.576 103.233L282.788 105.725L289.017 69.5977L294 72.7121" stroke="white" stroke-width="0.99661"/>
<rect width="7.19242" height="33.2113" transform="matrix(0.866025 -0.5 2.20305e-08 1 274.068 91.0454)" fill="#0962FF"/>
<rect width="7.19242" height="25.78" transform="matrix(0.866025 -0.5 2.20305e-08 1 266.594 105.541)" fill="#0962FF"/>
<rect width="7.19242" height="10.8832" transform="matrix(0.866025 -0.5 2.20305e-08 1 259.119 129.158)" fill="#0962FF"/>
<g clip-path="url(#clip5_1237_7273)">
<path d="M81.5388 79.7103C81.5145 78.8055 81.4421 77.9311 81.322 77.0916L77.1831 78.6893L75.7799 74.9777L78.5381 69.7344C77.7041 68.6157 76.7118 67.7057 75.5813 67.0228L71.8285 71.3626L68.3879 70.6471L68.7594 65.6034C67.3138 65.733 65.8034 66.092 64.2573 66.6735L62.3056 72.1007L58.1444 74.6159L56.0093 71.6665C54.4309 72.9913 52.8996 74.5002 51.4466 76.1624L52.0593 80.6081L48.7525 85.4381L44.8987 85.7427C43.834 87.7623 42.9151 89.8365 42.1607 91.9233L45.0931 93.6911L43.9082 98.9799L39.8159 102.409C39.7394 103.422 39.7131 104.411 39.7371 105.37C39.7661 106.244 39.8348 107.092 39.9428 107.913L44.0831 106.327L45.4737 110.052L42.6967 115.298C43.5318 116.42 44.5236 117.335 45.6528 118.026L49.4126 113.693L52.8469 114.424L52.4573 119.49C53.9461 119.362 55.5031 118.993 57.0974 118.391L59.0359 112.955L63.1964 110.42L65.3405 113.358C66.9177 112.024 68.4473 110.51 69.8991 108.843L69.2718 104.409L72.5673 99.5682L76.4254 99.2499C77.4873 97.2278 78.4034 95.1517 79.155 93.0637L76.2058 91.3176L77.3748 86.0284L81.4733 82.5893C81.5428 81.6043 81.5647 80.6431 81.5388 79.7103ZM66.8217 97.0993C65.8971 98.572 64.8213 99.9123 63.6559 101.044C62.4904 102.175 61.2581 103.075 60.0295 103.693C58.8008 104.31 57.5998 104.633 56.4953 104.643C55.3907 104.653 54.4041 104.349 53.592 103.749C50.1836 101.215 50.5627 94.168 54.4578 87.9843C55.382 86.5132 56.4571 85.1745 57.6216 84.0445C58.7862 82.9145 60.0174 82.0153 61.245 81.3983C62.4726 80.7814 63.6725 80.4587 64.7762 80.4487C65.8799 80.4387 66.8658 80.7416 67.6776 81.3401C68.4895 81.9386 69.1113 82.821 69.5077 83.9369C69.904 85.0528 70.0671 86.3803 69.9876 87.8437C69.9081 89.307 69.5876 90.8776 69.0444 92.4657C68.5012 94.0538 67.7459 95.6283 66.8217 97.0993Z" fill="#0962FF"/>
<path d="M70.9436 76.1392C65.9466 72.4541 57.2685 76.81 51.578 85.8655C50.2247 88.0209 49.1191 90.3276 48.3244 92.654C47.5296 94.9803 47.0613 97.2807 46.946 99.4238C46.8308 101.567 47.071 103.511 47.6529 105.144C48.2348 106.777 49.1469 108.068 50.3373 108.943C55.3336 112.627 64.0053 108.267 69.6924 99.2174C75.3795 90.1679 75.9427 79.8206 70.9436 76.1392ZM68.8044 98.5598C63.675 106.726 55.8529 110.659 51.3466 107.335C50.2727 106.547 49.4497 105.382 48.9245 103.91C48.3994 102.437 48.1824 100.684 48.2859 98.751C48.3895 96.8183 48.8116 94.7435 49.5281 92.6453C50.2446 90.5471 51.2415 88.4665 52.4618 86.5223C57.5961 78.353 65.4266 74.422 69.9315 77.7481C74.4364 81.0742 73.9387 90.3905 68.8044 98.5598Z" fill="white"/>
<path d="M52.7105 114.398L52.8499 114.426L52.5306 119.403L52.4609 119.484C53.9497 119.356 55.5068 118.987 57.1011 118.385L57.0634 118.326L59.0367 112.955L63.1973 110.42L65.3825 113.251L65.3414 113.356C66.9186 112.022 68.4482 110.507 69.9 108.841L69.8303 108.847L69.2726 104.406L72.5682 99.5658L76.4221 99.1686L76.4263 99.2467C77.4882 97.2245 78.4043 95.1485 79.1559 93.0605L79.0862 93.1225L76.2088 91.3131L77.3756 86.0284L81.4184 82.5619L81.4714 82.5908C81.5408 81.6068 81.5627 80.6463 81.5369 79.7143C81.5126 78.8095 81.4402 77.9351 81.3201 77.0956L81.2762 77.1902L80.115 77.6192C72.3438 95.0457 61.3934 106.979 52.7105 114.398Z" fill="#0962FF"/>
<path d="M69.6931 99.2145C71.5764 96.2229 72.9699 92.9528 73.7212 89.7618C72.96 91.0029 72.1873 92.2067 71.4029 93.3732C70.3285 96.1821 68.7722 98.9025 66.8916 101.259C65.0111 103.615 62.8731 105.523 60.6944 106.79C59.7562 107.785 58.8268 108.734 57.9063 109.637C59.9794 108.929 62.1225 107.62 64.1675 105.812C66.2126 104.003 68.1039 101.745 69.6931 99.2145Z" fill="white"/>
<path d="M52.2053 79.4767L51.8066 75.8186C51.8066 75.8186 53.7981 73.456 55.319 72.2849C55.3197 72.2821 52.8578 74.7498 52.2053 79.4767Z" fill="white"/>
</g>
<defs>
<clipPath id="clip0_1237_7273">
<rect width="50.2504" height="50.2504" fill="white" transform="matrix(0.866025 -0.5 2.20305e-08 1 18.082 180.575)"/>
</clipPath>
<clipPath id="clip1_1237_7273">
<rect width="36.8503" height="36.8503" fill="white" transform="matrix(0.866025 -0.5 2.20305e-08 1 23.8848 183.926)"/>
</clipPath>
<clipPath id="clip2_1237_7273">
<rect width="8.78532" height="8.78532" fill="white" transform="matrix(0.866025 -0.5 2.20305e-08 1 227.975 25.3731)"/>
</clipPath>
<clipPath id="clip3_1237_7273">
<rect width="9.96602" height="9.9661" fill="white" transform="matrix(0.866023 -0.500004 2.20303e-08 1 177.314 40.3223)"/>
</clipPath>
<clipPath id="clip4_1237_7273">
<rect width="9.96602" height="9.9661" fill="white" transform="matrix(0.866023 -0.500004 2.20303e-08 1 189.771 62.746)"/>
</clipPath>
<clipPath id="clip5_1237_7273">
<rect width="48.2918" height="47.5803" fill="white" transform="matrix(0.866025 -0.5 2.20305e-08 1 39.7285 80.8348)"/>
</clipPath>
</defs>
</svg>
