<svg width="165" height="151" viewBox="0 0 165 151" fill="none" xmlns="http://www.w3.org/2000/svg">
<rect x="0.652449" width="83.6256" height="83.6256" rx="8.66391" transform="matrix(0.866025 -0.5 0.866025 0.5 0.997568 109.137)" fill="#141414" stroke="#0962FF" stroke-width="0.753384"/>
<rect x="0.652449" width="83.6256" height="83.6256" rx="8.66391" transform="matrix(0.866025 -0.5 0.866025 0.5 0.997568 100.85)" fill="#86B2FF" stroke="#0962FF" stroke-width="0.753384"/>
<rect opacity="0.3" width="40.4996" height="36.2749" rx="7.5646" transform="matrix(-0.866025 -0.5 -0.866025 0.5 129.863 106.138)" fill="#141414"/>
<path opacity="0.3" d="M67.1207 81.8255C70.7388 79.7366 70.7388 76.3498 67.1207 74.2609L57.2355 68.5537L25.8206 86.6911L35.7058 92.3984C39.3239 94.4873 45.19 94.4873 48.8081 92.3984L67.1207 81.8255Z" fill="#141414"/>
<path d="M5.82812 108.421V100.493C5.82812 101.372 6.65685 103.582 9.97173 105.39C13.2866 107.198 14.3665 107.901 14.492 108.027V116.164L7.71158 112.171C7.35826 111.906 6.71909 111.305 6.26619 110.553C5.88502 109.919 5.82812 109.16 5.82812 108.421Z" fill="#0962FF" stroke="#0962FF" stroke-width="0.753384"/>
<path d="M141.963 100.493V109.157" stroke="#0962FF" stroke-width="0.753384"/>
<path d="M65.7227 137.786V145.696" stroke="#0962FF" stroke-width="0.753384"/>
<path d="M82.2969 137.409V145.696" stroke="#0962FF" stroke-width="0.753384"/>
<path d="M136.917 109.194V106.143C136.917 106.143 138.903 105.193 139.931 104.26C140.787 103.482 141.695 101.829 142.043 101.16C142.08 101.089 142.191 101.116 142.191 101.196V107.846C142.191 108.961 142.072 110.124 141.437 111.04C140.628 112.21 139.312 112.904 138.08 113.616L96.2344 137.786L134.067 114.315C135.839 113.216 136.917 111.279 136.917 109.194Z" fill="#0962FF" stroke="#0962FF" stroke-width="0.753384"/>
<path d="M20.1445 119.478V111.568L26.1716 115.335V122.869L20.1445 119.478Z" fill="#0962FF" stroke="#0962FF" stroke-width="0.753384"/>
<path d="M36.2527 68.6045C32.9114 68.6045 30.2027 65.7646 30.2027 62.2615C30.2027 58.7584 32.9114 55.9186 36.2527 55.9186C39.5941 55.9186 42.3027 58.7584 42.3027 62.2615C42.3027 65.7646 39.5941 68.6045 36.2527 68.6045Z" fill="#0962FF" stroke="#141414" stroke-width="0.149331" stroke-miterlimit="10"/>
<path d="M35.6258 68.1207C32.2845 68.1207 29.5758 65.2809 29.5758 61.7778C29.5758 58.2746 32.2845 55.4348 35.6258 55.4348C38.9671 55.4348 41.6758 58.2746 41.6758 61.7778C41.6758 65.2809 38.9671 68.1207 35.6258 68.1207Z" fill="#D0E1FF" stroke="#141414" stroke-width="0.149331" stroke-miterlimit="10"/>
<path d="M33.1152 63.2776H34.1048C34.1048 63.812 34.7826 64.2672 35.589 64.2672C36.3955 64.2672 37.0733 63.812 37.0733 63.2776C37.0733 62.7334 36.5587 62.5355 35.4703 62.2733C34.4214 62.011 33.1152 61.6845 33.1152 60.309C33.1152 59.4234 33.8425 58.6714 34.8469 58.419V57.3405H36.3312V58.419C37.3355 58.6714 38.0628 59.4234 38.0628 60.309H37.0733C37.0733 59.7747 36.3955 59.3195 35.589 59.3195C34.7826 59.3195 34.1048 59.7747 34.1048 60.309C34.1048 60.8533 34.6193 61.0512 35.7078 61.3134C36.7567 61.5756 38.0628 61.9022 38.0628 63.2776C38.0628 64.1633 37.3355 64.9153 36.3312 65.1676V66.2462H34.8469V65.1676C33.8425 64.9153 33.1152 64.1633 33.1152 63.2776Z" fill="#141414"/>
<path d="M47.0564 54.2375C41.7913 54.2375 37.5231 49.7626 37.5231 44.2425C37.5231 38.7225 41.7913 34.2476 47.0564 34.2476C52.3216 34.2476 56.5898 38.7225 56.5898 44.2425C56.5898 49.7626 52.3216 54.2375 47.0564 54.2375Z" fill="#0962FF" stroke="#141414" stroke-width="0.23531" stroke-miterlimit="10"/>
<path d="M46.0701 53.4752C40.805 53.4752 36.5367 49.0003 36.5367 43.4802C36.5367 37.9601 40.805 33.4852 46.0701 33.4852C51.3353 33.4852 55.6035 37.9601 55.6035 43.4802C55.6035 49.0003 51.3353 53.4752 46.0701 53.4752Z" fill="#D0E1FF" stroke="#141414" stroke-width="0.23531" stroke-miterlimit="10"/>
<path d="M42.1094 45.8435H43.6686C43.6686 46.6855 44.7367 47.4028 46.0075 47.4028C47.2783 47.4028 48.3464 46.6855 48.3464 45.8435C48.3464 44.9859 47.5356 44.6741 45.8204 44.2609C44.1676 43.8477 42.1094 43.3331 42.1094 41.1657C42.1094 39.7702 43.2554 38.5851 44.8381 38.1875V36.4879H47.1769V38.1875C48.7596 38.5851 49.9056 39.7702 49.9056 41.1657H48.3464C48.3464 40.3237 47.2783 39.6065 46.0075 39.6065C44.7367 39.6065 43.6686 40.3237 43.6686 41.1657C43.6686 42.0233 44.4794 42.3352 46.1946 42.7484C47.8474 43.1616 49.9056 43.6761 49.9056 45.8435C49.9056 47.2391 48.7596 48.4241 47.1769 48.8217V50.5213H44.8381V48.8217C43.2554 48.4241 42.1094 47.2391 42.1094 45.8435Z" fill="#141414"/>
<path d="M57.309 70.4885C51.2621 70.4885 46.3602 65.3492 46.3602 59.0096C46.3602 52.6699 51.2621 47.5306 57.309 47.5306C63.3559 47.5306 68.2578 52.6699 68.2578 59.0096C68.2578 65.3492 63.3559 70.4885 57.309 70.4885Z" fill="#0962FF" stroke="#141414" stroke-width="0.270247" stroke-miterlimit="10"/>
<path d="M56.1742 69.6128C50.1274 69.6128 45.2254 64.4735 45.2254 58.1338C45.2254 51.7942 50.1274 46.6549 56.1742 46.6549C62.2211 46.6549 67.123 51.7942 67.123 58.1338C67.123 64.4735 62.2211 69.6128 56.1742 69.6128Z" fill="#D0E1FF" stroke="#141414" stroke-width="0.270247" stroke-miterlimit="10"/>
<path d="M51.6328 60.8481H53.4236C53.4236 61.8152 54.6502 62.6389 56.1097 62.6389C57.5691 62.6389 58.7958 61.8152 58.7958 60.8481C58.7958 59.8632 57.8646 59.5051 55.8948 59.0305C53.9966 58.556 51.6328 57.965 51.6328 55.4758C51.6328 53.8731 52.949 52.5121 54.7666 52.0555V50.1035H57.4527V52.0555C59.2703 52.5121 60.5865 53.8731 60.5865 55.4758H58.7958C58.7958 54.5088 57.5691 53.6851 56.1097 53.6851C54.6502 53.6851 53.4236 54.5088 53.4236 55.4758C53.4236 56.4608 54.3547 56.8189 56.3246 57.2935C58.2228 57.768 60.5865 58.359 60.5865 60.8481C60.5865 62.4509 59.2703 63.8119 57.4527 64.2685V66.2205H54.7666V64.2685C52.949 63.8119 51.6328 62.4509 51.6328 60.8481Z" fill="#141414"/>
<path d="M43.6631 3.4568C45.1259 2.61225 46.9281 2.61225 48.391 3.4568L78.3393 20.7475C79.8021 21.592 80.7032 23.1528 80.7032 24.8419V59.4233C80.7032 61.1124 79.8021 62.6732 78.3393 63.5178L48.391 80.8085C46.9281 81.653 45.1259 81.653 43.6631 80.8085L13.7148 63.5178C12.2519 62.6732 11.3508 61.1124 11.3508 59.4233V24.8419C11.3508 23.1528 12.2519 21.592 13.7147 20.7475L43.6631 3.4568Z" stroke="#0962FF" stroke-width="1.89115"/>
<path d="M14.8229 25.0176L43.6628 41.6596" stroke="#0962FF" stroke-width="1.89115" stroke-linecap="round"/>
<path d="M77.7024 25.0176L48.8626 41.6596" stroke="#0962FF" stroke-width="1.89115" stroke-linecap="round"/>
<path d="M46.0273 44.4966L46.0273 77.5917" stroke="#0962FF" stroke-width="1.89115" stroke-linecap="round"/>
<rect x="-5.23316e-08" y="0.877978" width="29.5051" height="5.26787" rx="2.63394" transform="matrix(0.866025 0.5 -0.866025 0.5 36.6803 13.4649)" stroke="#0962FF" stroke-width="1.75596"/>
<circle cx="9.21877" cy="9.21877" r="8.34079" transform="matrix(0.866025 0.5 -2.20305e-08 1 19.7637 39.6312)" stroke="#86B2FF" stroke-width="1.75596"/>
<rect width="2.4802" height="2.4802" transform="matrix(-0.866025 0.5 2.20305e-08 1 77.0176 31.2585)" fill="white"/>
<rect width="2.4802" height="2.4802" transform="matrix(-0.866025 0.5 2.20305e-08 1 77.0176 34.6069)" fill="white"/>
<rect width="2.4802" height="2.4802" transform="matrix(-0.866025 0.5 2.20305e-08 1 77.0176 37.9551)" fill="white"/>
<path d="M66.244 16.4847C62.3154 16.4847 59.1306 13.1457 59.1306 9.02691C59.1306 4.90807 62.3154 1.56909 66.244 1.56909C70.1726 1.56909 73.3574 4.90807 73.3574 9.02691C73.3574 13.1457 70.1726 16.4847 66.244 16.4847Z" fill="#0962FF" stroke="#141414" stroke-width="0.175578" stroke-miterlimit="10"/>
<path d="M65.5057 15.9159C61.5771 15.9159 58.3923 12.5769 58.3923 8.45806C58.3923 4.33922 61.5771 1.00024 65.5057 1.00024C69.4344 1.00024 72.6191 4.33922 72.6191 8.45806C72.6191 12.5769 69.4344 15.9159 65.5057 15.9159Z" fill="#D0E1FF" stroke="#141414" stroke-width="0.175578" stroke-miterlimit="10"/>
<path d="M62.5566 10.2212H63.7201C63.7201 10.8495 64.517 11.3847 65.4652 11.3847C66.4134 11.3847 67.2104 10.8495 67.2104 10.2212C67.2104 9.58132 66.6054 9.34863 65.3256 9.04031C64.0924 8.732 62.5566 8.34806 62.5566 6.73085C62.5566 5.68956 63.4118 4.80533 64.5927 4.50865V3.24048H66.3378V4.50865C67.5187 4.80533 68.3738 5.68956 68.3738 6.73085H67.2104C67.2104 6.10258 66.4134 5.56739 65.4652 5.56739C64.517 5.56739 63.7201 6.10258 63.7201 6.73085C63.7201 7.37075 64.3251 7.60344 65.6049 7.91176C66.8381 8.22008 68.3738 8.60402 68.3738 10.2212C68.3738 11.2625 67.5187 12.1467 66.3378 12.4434V13.7116H64.5927V12.4434C63.4118 12.1467 62.5566 11.2625 62.5566 10.2212Z" fill="#141414"/>
<path d="M48.6874 26.1423C44.7588 26.1423 41.574 22.8033 41.574 18.6845C41.574 14.5657 44.7588 11.2267 48.6874 11.2267C52.616 11.2267 55.8008 14.5657 55.8008 18.6845C55.8008 22.8033 52.616 26.1423 48.6874 26.1423Z" fill="#0962FF" stroke="#141414" stroke-width="0.175578" stroke-miterlimit="10"/>
<path d="M47.9511 25.5734C44.0224 25.5734 40.8377 22.2344 40.8377 18.1155C40.8377 13.9967 44.0224 10.6577 47.9511 10.6577C51.8797 10.6577 55.0645 13.9967 55.0645 18.1155C55.0645 22.2344 51.8797 25.5734 47.9511 25.5734Z" fill="#D0E1FF" stroke="#141414" stroke-width="0.175578" stroke-miterlimit="10"/>
<path d="M44.998 19.8791H46.1615C46.1615 20.5073 46.9584 21.0425 47.9066 21.0425C48.8549 21.0425 49.6518 20.5073 49.6518 19.8791C49.6518 19.2392 49.0468 19.0065 47.767 18.6982C46.5338 18.3898 44.998 18.0059 44.998 16.3887C44.998 15.3474 45.8532 14.4632 47.0341 14.1665V12.8983H48.7792V14.1665C49.9601 14.4632 50.8152 15.3474 50.8152 16.3887H49.6518C49.6518 15.7604 48.8549 15.2252 47.9066 15.2252C46.9584 15.2252 46.1615 15.7604 46.1615 16.3887C46.1615 17.0286 46.7665 17.2613 48.0463 17.5696C49.2795 17.8779 50.8152 18.2619 50.8152 19.8791C50.8152 20.9204 49.9601 21.8046 48.7792 22.1013V23.3694H47.0341V22.1013C45.8532 21.8046 44.998 20.9204 44.998 19.8791Z" fill="#141414"/>
<line x1="38.4645" y1="20.5853" x2="53.6715" y2="29.3651" stroke="#0962FF" stroke-width="1.40477"/>
<path d="M71.9027 49.4511C71.9027 53.7883 68.8577 59.0623 65.1016 61.2309C61.3455 63.3995 58.3006 61.6415 58.3006 57.3043C58.3006 52.9671 61.3455 47.6931 65.1016 45.5245C68.8577 43.3559 71.9027 45.1139 71.9027 49.4511Z" stroke="white" stroke-width="1.45191"/>
<path d="M111.41 72.2785C111.41 76.6157 108.366 81.8897 104.609 84.0583C100.853 86.2269 97.8084 84.4689 97.8084 80.1317C97.8084 75.7945 100.853 70.5205 104.609 68.3519C108.366 66.1833 111.41 67.9413 111.41 72.2785Z" stroke="white" stroke-width="1.45191"/>
<line y1="-0.877978" x2="45.6549" y2="-0.877978" transform="matrix(0.866025 0.5 -2.20305e-08 1 69.8105 45.777)" stroke="white" stroke-width="1.75596"/>
<line y1="-0.877978" x2="45.6549" y2="-0.877978" transform="matrix(0.866025 0.5 -2.20305e-08 1 60.1504 62.5465)" stroke="white" stroke-width="1.75596"/>
<path d="M124.318 99.0145C119.053 99.0145 114.785 94.5396 114.785 89.0195C114.785 83.4994 119.053 79.0245 124.318 79.0245C129.583 79.0245 133.852 83.4994 133.852 89.0195C133.852 94.5396 129.583 99.0145 124.318 99.0145Z" fill="#0962FF" stroke="#141414" stroke-width="0.23531" stroke-miterlimit="10"/>
<path d="M123.242 98.2523C117.977 98.2523 113.709 93.7774 113.709 88.2573C113.709 82.7372 117.977 78.2623 123.242 78.2623C128.507 78.2623 132.775 82.7372 132.775 88.2573C132.775 93.7774 128.507 98.2523 123.242 98.2523Z" fill="#D0E1FF" stroke="#141414" stroke-width="0.23531" stroke-miterlimit="10"/>
<path d="M128.71 88.5088C128.613 88.2263 128.464 87.9519 128.252 87.7246C128.056 87.4946 127.8 87.3298 127.532 87.204C127.264 87.0783 126.97 87.0124 126.687 87.0191C127.04 86.7783 127.287 86.4239 127.415 85.9948C127.547 85.5839 127.528 85.1219 127.394 84.715C127.019 83.2112 125.71 82.8937 124.126 82.9723L123.799 80.8659L122.583 81.0361L122.902 83.088C122.59 83.1364 122.261 83.1875 121.932 83.2386L121.611 81.1685L120.395 81.3386L120.722 83.445C120.463 83.4854 120.203 83.5257 119.96 83.5634L118.295 83.8034L118.506 85.1653C118.506 85.1653 119.404 85.0073 119.39 85.0282C119.543 84.9858 119.724 85.0134 119.86 85.0853C119.998 85.1755 120.107 85.3073 120.17 85.4835L121.049 91.2606C121.058 91.3151 121.049 91.3723 121.04 91.4294C121.031 91.4866 121.005 91.5465 120.959 91.5908C120.93 91.6325 120.883 91.6769 120.834 91.7032C120.785 91.7294 120.733 91.7375 120.664 91.7482C120.684 91.7637 119.78 91.8854 119.78 91.8854L119.775 93.4484L121.354 93.2218C121.648 93.176 121.945 93.1485 122.223 93.1054L122.552 95.23L123.768 95.0599L123.441 92.9535C123.773 92.9205 124.084 92.8721 124.413 92.821L124.738 94.9092L125.953 94.7391L125.623 92.6146C127.65 92.1882 128.988 91.4411 128.849 89.3986C128.841 89.1208 128.81 88.8094 128.71 88.5088ZM122.183 84.7431C122.859 84.6382 124.976 84.1049 125.21 85.6121C125.435 87.0648 123.256 87.1986 122.564 87.3061L122.183 84.7431ZM123.204 91.4281L122.784 88.6109C123.598 88.4845 126.145 87.8658 126.402 89.5182C126.632 91.1189 124.035 91.299 123.204 91.4281Z" fill="#141414"/>
<path d="M134.569 115.265C128.522 115.265 123.62 110.126 123.62 103.786C123.62 97.4468 128.522 92.3075 134.569 92.3075C140.616 92.3075 145.518 97.4468 145.518 103.786C145.518 110.126 140.616 115.265 134.569 115.265Z" fill="#0962FF" stroke="#141414" stroke-width="0.270247" stroke-miterlimit="10"/>
<path d="M133.432 114.39C127.385 114.39 122.483 109.25 122.483 102.911C122.483 96.5712 127.385 91.4319 133.432 91.4319C139.479 91.4319 144.381 96.5712 144.381 102.911C144.381 109.25 139.479 114.39 133.432 114.39Z" fill="#D0E1FF" stroke="#141414" stroke-width="0.270247" stroke-miterlimit="10"/>
<path d="M137.409 104.263C137.398 103.983 137.338 103.696 137.208 103.435C137.094 103.176 136.909 102.959 136.702 102.774C136.495 102.588 136.249 102.45 135.993 102.38C136.375 102.259 136.692 102.007 136.922 101.656C137.151 101.322 137.259 100.902 137.248 100.501C137.315 99.0487 136.225 98.4113 134.781 98.0555L135.054 96.0754L133.917 95.9011L133.651 97.83C133.358 97.7896 133.048 97.7469 132.739 97.7043L133.007 95.7583L131.87 95.584L131.597 97.5641C131.353 97.5304 131.108 97.4967 130.88 97.4653L129.32 97.2326L129.143 98.5129C129.143 98.5129 129.992 98.6126 129.973 98.6274C130.122 98.6306 130.278 98.7042 130.38 98.8053C130.48 98.9234 130.543 99.0712 130.552 99.2464L129.787 104.672C129.78 104.724 129.756 104.773 129.733 104.822C129.71 104.871 129.67 104.917 129.616 104.945C129.579 104.974 129.526 105.002 129.474 105.012C129.423 105.022 129.374 105.016 129.309 105.007C129.323 105.026 128.479 104.892 128.479 104.892L128.053 106.295L129.532 106.516C129.809 106.554 130.084 106.609 130.344 106.645L130.069 108.643L131.206 108.817L131.479 106.837C131.786 106.896 132.079 106.937 132.389 106.98L132.118 108.943L133.255 109.117L133.531 107.12C135.466 107.282 136.869 106.971 137.294 105.099C137.362 104.848 137.418 104.56 137.409 104.263ZM132.56 99.1233C133.195 99.2109 135.24 99.3016 135.044 100.718C134.856 102.084 132.863 101.618 132.211 101.528L132.56 99.1233ZM131.677 105.403L132.058 102.759C132.823 102.865 135.278 102.995 135.063 104.548C134.84 106.048 132.458 105.511 131.677 105.403Z" fill="#141414"/>
<path d="M120.925 48.2337C122.388 47.3891 124.19 47.3891 125.653 48.2337L155.601 65.5243C157.064 66.3689 157.965 67.9297 157.965 69.6188V104.2C157.965 105.889 157.064 107.45 155.601 108.295L125.653 125.585C124.19 126.43 122.388 126.43 120.925 125.585L90.9765 108.295C89.5137 107.45 88.6125 105.889 88.6125 104.2V69.6188C88.6125 67.9297 89.5137 66.3689 90.9765 65.5243L120.925 48.2337Z" stroke="#0962FF" stroke-width="1.89115"/>
<path d="M92.0847 69.7945L120.925 86.4365" stroke="#0962FF" stroke-width="1.89115" stroke-linecap="round"/>
<path d="M154.964 69.7945L126.124 86.4365" stroke="#0962FF" stroke-width="1.89115" stroke-linecap="round"/>
<path d="M123.289 89.2734L123.289 122.369" stroke="#0962FF" stroke-width="1.89115" stroke-linecap="round"/>
<rect x="-5.23316e-08" y="0.877978" width="29.5051" height="5.26787" rx="2.63394" transform="matrix(0.866025 0.5 -0.866025 0.5 113.942 58.2417)" stroke="#0962FF" stroke-width="1.75596"/>
<circle cx="9.21877" cy="9.21877" r="8.34079" transform="matrix(0.866025 0.5 -2.20305e-08 1 97.0254 84.4081)" stroke="#141414" stroke-width="1.75596"/>
<rect width="2.4802" height="2.4802" transform="matrix(-0.866025 0.5 2.20305e-08 1 154.279 76.0354)" fill="white"/>
<rect width="2.4802" height="2.4802" transform="matrix(-0.866025 0.5 2.20305e-08 1 154.279 79.3837)" fill="white"/>
<rect width="2.4802" height="2.4802" transform="matrix(-0.866025 0.5 2.20305e-08 1 154.279 82.7319)" fill="white"/>
<path d="M143.508 61.2617C139.579 61.2617 136.394 57.9227 136.394 53.8039C136.394 49.685 139.579 46.3461 143.508 46.3461C147.436 46.3461 150.621 49.685 150.621 53.8039C150.621 57.9227 147.436 61.2617 143.508 61.2617Z" fill="#0962FF" stroke="#141414" stroke-width="0.175578" stroke-miterlimit="10"/>
<path d="M142.771 60.6929C138.843 60.6929 135.658 57.3539 135.658 53.235C135.658 49.1162 138.843 45.7772 142.771 45.7772C146.7 45.7772 149.885 49.1162 149.885 53.235C149.885 57.3539 146.7 60.6929 142.771 60.6929Z" fill="#D0E1FF" stroke="#141414" stroke-width="0.175578" stroke-miterlimit="10"/>
<path d="M145.234 54.4729C145.236 54.3055 145.21 54.1325 145.141 53.9721C145.082 53.8137 144.978 53.6781 144.86 53.5609C144.743 53.4437 144.6 53.3531 144.45 53.3029C144.682 53.243 144.879 53.1028 145.028 52.9009C145.176 52.7091 145.254 52.4619 145.26 52.2218C145.348 51.3572 144.718 50.9412 143.867 50.6818L144.095 49.5086L143.421 49.3675L143.2 50.5104C143.026 50.4767 142.843 50.4412 142.66 50.4056L142.883 49.2527L142.21 49.1116L141.982 50.2848C141.838 50.2567 141.693 50.2286 141.558 50.2025L140.634 50.0127L140.487 50.7713C140.487 50.7713 140.99 50.8584 140.979 50.8667C141.067 50.8734 141.158 50.9225 141.216 50.9861C141.271 51.0599 141.304 51.1502 141.304 51.255L140.67 54.4694C140.664 54.4997 140.649 54.5282 140.633 54.5566C140.618 54.5851 140.593 54.6117 140.56 54.6263C140.537 54.6428 140.504 54.6574 140.473 54.6619C140.442 54.6664 140.413 54.6608 140.374 54.6533C140.382 54.6653 139.882 54.5579 139.882 54.5579L139.583 55.3813L140.458 55.5616C140.622 55.5934 140.784 55.6354 140.939 55.6653L140.709 56.8486L141.383 56.9897L141.61 55.8165C141.791 55.8622 141.965 55.8958 142.148 55.9314L141.923 57.0945L142.596 57.2355L142.826 56.0522C143.976 56.2123 144.824 56.0724 145.138 54.9685C145.187 54.8205 145.23 54.6505 145.234 54.4729ZM142.506 51.2469C142.883 51.3199 144.1 51.4406 143.938 52.2801C143.781 53.0892 142.606 52.7459 142.22 52.6711L142.506 51.2469ZM141.775 54.9669L142.089 53.4012C142.542 53.4891 144.003 53.6465 143.824 54.5669C143.642 55.455 142.238 55.0567 141.775 54.9669Z" fill="#141414"/>
<path d="M125.949 70.9192C122.02 70.9192 118.836 67.5802 118.836 63.4614C118.836 59.3425 122.02 56.0035 125.949 56.0035C129.878 56.0035 133.062 59.3425 133.062 63.4614C133.062 67.5802 129.878 70.9192 125.949 70.9192Z" fill="#0962FF" stroke="#141414" stroke-width="0.175578" stroke-miterlimit="10"/>
<path d="M125.211 70.3503C121.282 70.3503 118.097 67.0113 118.097 62.8925C118.097 58.7737 121.282 55.4347 125.211 55.4347C129.139 55.4347 132.324 58.7737 132.324 62.8925C132.324 67.0113 129.139 70.3503 125.211 70.3503Z" fill="#D0E1FF" stroke="#141414" stroke-width="0.175578" stroke-miterlimit="10"/>
<path d="M127.501 64.4294C127.525 64.2635 127.52 64.0885 127.471 63.9209C127.432 63.7564 127.346 63.609 127.244 63.4781C127.142 63.3473 127.011 63.2397 126.868 63.1713C127.106 63.1405 127.319 63.0259 127.492 62.844C127.662 62.6719 127.77 62.4362 127.806 62.1988C128 61.3518 127.427 60.8609 126.615 60.4982L126.986 59.3622L126.335 59.1388L125.974 60.2454C125.806 60.1904 125.628 60.1325 125.451 60.0745L125.815 58.9581L125.165 58.7347L124.794 59.8707C124.653 59.8249 124.513 59.7791 124.383 59.7364L123.489 59.4337L123.249 60.1681C123.249 60.1681 123.738 60.317 123.726 60.3238C123.813 60.3414 123.897 60.4013 123.946 60.4717C123.992 60.5518 124.013 60.6454 124 60.7494L122.973 63.8605C122.964 63.8899 122.945 63.9162 122.926 63.9425C122.907 63.9689 122.879 63.9921 122.844 64.0026C122.819 64.0161 122.785 64.0265 122.753 64.0271C122.722 64.0278 122.694 64.0186 122.657 64.0064C122.663 64.0192 122.18 63.8508 122.18 63.8508L121.781 64.6307L122.628 64.9181C122.787 64.97 122.942 65.0317 123.092 65.0805L122.717 66.2263L123.368 66.4497L123.739 65.3137C123.913 65.3815 124.081 65.4364 124.259 65.4944L123.891 66.6206L124.542 66.844L124.916 65.6982C126.037 65.9995 126.896 65.9657 127.345 64.9092C127.411 64.7684 127.475 64.605 127.501 64.4294ZM125.194 60.8904C125.559 61.0094 126.752 61.28 126.487 62.0928C126.231 62.8763 125.108 62.3902 124.734 62.2681L125.194 60.8904ZM124.008 64.4911L124.513 62.9762C124.952 63.1197 126.382 63.4568 126.091 64.348C125.8 65.2067 124.456 64.6376 124.008 64.4911Z" fill="#141414"/>
<line x1="115.728" y1="65.3623" x2="130.935" y2="74.1421" stroke="#0962FF" stroke-width="1.40477"/>
</svg>
