<svg width="138" height="160" viewBox="0 0 138 160" fill="none" xmlns="http://www.w3.org/2000/svg">
<rect x="0.610261" width="78.2182" height="78.2182" rx="8.10369" transform="matrix(0.866025 -0.5 0.866025 0.5 0.73215 120.042)" fill="#141414" stroke="#0962FF" stroke-width="0.704669"/>
<rect x="0.610261" width="78.2182" height="78.2182" rx="8.10369" transform="matrix(0.866025 -0.5 0.866025 0.5 0.73215 112.29)" fill="#86B2FF" stroke="#0962FF" stroke-width="0.704669"/>
<path d="M5.25 119.372V111.957C5.25 112.779 6.02514 114.846 9.12568 116.537C12.2262 118.228 13.2362 118.886 13.3537 119.003V126.614L7.01167 122.879C6.68119 122.631 6.08336 122.069 5.65974 121.366C5.30322 120.773 5.25 120.063 5.25 119.372Z" fill="#0962FF" stroke="#0962FF" stroke-width="0.704669"/>
<path d="M132.584 111.957V120.06" stroke="#0962FF" stroke-width="0.704669"/>
<path d="M61.2715 146.838V154.237" stroke="#0962FF" stroke-width="0.704669"/>
<path d="M76.7754 146.485V154.237" stroke="#0962FF" stroke-width="0.704669"/>
<path d="M127.863 120.095V117.242C127.863 117.242 129.721 116.353 130.681 115.48C131.483 114.752 132.332 113.206 132.657 112.58C132.692 112.514 132.795 112.54 132.795 112.614V118.834C132.795 119.877 132.684 120.965 132.091 121.822C131.333 122.916 130.103 123.566 128.951 124.231L89.8105 146.838L125.197 124.885C126.854 123.857 127.863 122.045 127.863 120.095Z" fill="#0962FF" stroke="#0962FF" stroke-width="0.704669"/>
<path d="M18.6387 129.714V122.315L24.276 125.839V132.885L18.6387 129.714Z" fill="#0962FF" stroke="#0962FF" stroke-width="0.704669"/>
<circle opacity="0.3" cx="16.3067" cy="16.3067" r="16.3067" transform="matrix(0.866025 0.5 -0.866025 0.5 69.0234 93.9846)" fill="#141414"/>
<path d="M43.0045 76.9352C37.594 76.9352 32.1732 75.7398 28.0413 73.3542C23.9094 70.9686 21.7318 67.871 21.7266 64.5187C21.7214 61.1664 23.9302 58.074 27.9634 55.7456C36.1804 50.9692 49.5844 50.9692 57.8533 55.7456C61.9177 58.0948 64.1629 61.234 64.1681 64.5811C64.1733 67.9282 61.9644 71.0258 57.9313 73.3594C53.8202 75.7138 48.4149 76.9352 43.0045 76.9352ZM42.8694 52.6792C37.5525 52.6792 32.2408 53.8486 28.2076 56.1926C24.3616 58.4327 22.2463 61.3899 22.2463 64.5084C22.2463 67.6268 24.4032 70.6412 28.3012 72.8917C36.4246 77.5693 49.6103 77.5693 57.6662 72.8917C61.5122 70.6568 63.6275 67.6943 63.6223 64.5759C63.6171 61.4575 61.4707 58.443 57.5727 56.1874C53.5343 53.8226 48.1862 52.6532 42.8694 52.6532V52.6792Z" fill="white"/>
<path d="M28.0413 114.933C32.1732 117.319 37.594 118.514 43.0045 118.514C48.4149 118.514 53.8201 117.293 57.9313 114.938C61.9644 112.605 64.1733 109.507 64.1681 106.16L63.6223 106.155C63.6275 109.273 61.5122 112.236 57.6662 114.47C49.6103 119.148 36.4246 119.148 28.3012 114.47C24.4031 112.22 22.2463 109.206 22.2463 106.087L21.7266 106.098C21.7318 109.45 23.9094 112.547 28.0413 114.933Z" fill="white"/>
<path d="M43.0045 113.836C37.594 113.836 32.1732 112.641 28.0413 110.255C23.9094 107.87 21.7318 104.772 21.7266 101.42C21.7214 98.0676 23.9302 94.9751 27.9634 92.6467C36.1804 87.8704 49.5844 87.8704 57.8533 92.6467C61.9177 94.9959 64.1629 98.1351 64.1681 101.482C64.1733 104.829 61.9644 107.927 57.9313 110.261C53.8202 112.615 48.4149 113.836 43.0045 113.836ZM42.8694 89.5803C37.5525 89.5803 32.2408 90.7497 28.2076 93.0937C24.3616 95.3338 22.2463 98.2911 22.2463 101.409C22.2463 104.528 24.4032 107.542 28.3012 109.793C36.4246 114.47 49.6103 114.47 57.6662 109.793C61.5122 107.558 63.6275 104.595 63.6223 101.477C63.6171 98.3586 61.4707 95.3442 57.5727 93.0885C53.5343 90.7237 48.1862 89.5543 42.8694 89.5543V89.5803Z" fill="white"/>
<line x1="22.0177" y1="63.6455" x2="22.0177" y2="106.264" stroke="white" stroke-width="0.519735"/>
<line x1="63.881" y1="63.6455" x2="63.881" y2="106.264" stroke="white" stroke-width="0.519735"/>
<path d="M53.1764 99.7881C52.6965 99.0764 52.0789 98.4701 51.3617 98.004L52.6289 97.2684L53.0171 97.0431L52.6284 96.8186L50.7834 95.7531L50.6524 95.6775L50.5219 95.754L48.8573 96.7304C46.4365 95.8223 43.9504 95.9013 42.2442 96.8913C41.7689 97.1645 41.4211 97.4691 41.1996 97.8105C40.9751 98.1565 40.8887 98.5278 40.9183 98.9131C40.9758 99.6634 41.4713 100.444 42.1461 101.226L42.1462 101.226C42.6086 101.761 42.8336 102.135 42.8842 102.396C42.9072 102.515 42.8916 102.599 42.8543 102.668C42.8142 102.741 42.7345 102.823 42.5838 102.909C42.2942 103.073 41.8812 103.137 41.396 103.077C40.9143 103.018 40.3823 102.84 39.8742 102.546L39.8742 102.546L39.868 102.543C38.9432 102.042 38.1819 101.285 37.6746 100.364L37.5692 100.173L37.3624 100.244L34.613 101.19L34.3057 101.295L34.4765 101.572C35.0136 102.442 35.7334 103.182 36.5839 103.743L35.1846 104.564L34.7994 104.789L35.1861 105.013L37.0312 106.078L37.1616 106.154L37.2918 106.078L39.0853 105.034C41.639 106.04 44.2691 105.886 45.9869 104.888C46.8432 104.39 47.3848 103.811 47.459 103.067C47.5315 102.339 47.145 101.55 46.4121 100.659C45.9079 100.019 45.6219 99.5841 45.5241 99.2796C45.4775 99.1343 45.4837 99.048 45.5036 98.9934C45.5229 98.9406 45.5697 98.8768 45.6903 98.8069L45.6904 98.8069C46.1067 98.5654 46.9244 98.4592 48.0965 99.1347L48.0965 99.1348L48.104 99.1388C48.9133 99.5705 49.5962 100.206 50.0854 100.982L50.195 101.155L50.3894 101.089L53.0452 100.179L53.3661 100.069L53.1764 99.7881ZM43.2247 92.431C47.1205 92.4078 51.0211 93.2349 54.0316 94.8987C56.907 96.634 58.2764 98.8425 58.2494 100.994C58.2224 103.148 56.7956 105.347 53.8543 107.058C50.9143 108.768 47.0481 109.642 43.1501 109.666C39.2543 109.69 35.3537 108.864 32.3432 107.203C29.4652 105.465 28.0959 103.255 28.1236 101.103C28.1512 98.9487 29.5793 96.7497 32.5207 95.0386C35.4606 93.3283 39.3269 92.4542 43.2247 92.431Z" stroke="#0962FF" stroke-width="0.519735"/>
<line x1="57.9825" y1="109.902" x2="57.9825" y2="114.579" stroke="white" stroke-width="0.519735"/>
<line x1="49.6661" y1="113.021" x2="49.6661" y2="117.698" stroke="white" stroke-width="0.519735"/>
<line x1="44.9884" y1="113.54" x2="44.9884" y2="118.218" stroke="white" stroke-width="0.519735"/>
<path d="M81.4693 53.1455C76.0589 53.1455 70.638 51.9501 66.5061 49.5646C62.3743 47.179 60.1966 44.0813 60.1914 40.7291C60.1862 37.3768 62.3951 34.2843 66.4282 31.9559C74.6452 27.1796 88.0492 27.1796 96.3182 31.9559C100.383 34.3051 102.628 37.4443 102.633 40.7914C102.638 44.1385 100.429 47.2361 96.3961 49.5698C92.285 51.9242 86.8798 53.1455 81.4693 53.1455ZM81.3342 28.8895C76.0173 28.8895 70.7056 30.0589 66.6725 32.4029C62.8265 34.643 60.7112 37.6003 60.7112 40.7187C60.7112 43.8371 62.868 46.8515 66.766 49.102C74.8895 53.7796 88.0751 53.7796 96.131 49.102C99.9771 46.8671 102.092 43.9046 102.087 40.7862C102.082 37.6678 99.9355 34.6534 96.0375 32.3977C91.9992 30.0329 86.6511 28.8635 81.3342 28.8635V28.8895Z" fill="white"/>
<path d="M66.5061 106.098C70.638 108.483 76.0589 109.679 81.4693 109.679C86.8798 109.679 92.285 108.457 96.3961 106.103C100.429 103.769 102.638 100.672 102.633 97.3246L102.087 97.3194C102.092 100.438 99.9771 103.4 96.131 105.635C88.0751 110.313 74.8895 110.313 66.766 105.635C62.868 103.385 60.7111 100.37 60.7111 97.2518L60.1914 97.2622C60.1966 100.614 62.3742 103.712 66.5061 106.098Z" fill="white"/>
<path d="M81.4693 105.001C76.0589 105.001 70.638 103.806 66.5061 101.42C62.3743 99.0344 60.1966 95.9368 60.1914 92.5845C60.1862 89.2322 62.3951 86.1398 66.4282 83.8114C74.6452 79.035 88.0492 79.035 96.3182 83.8114C100.383 86.1606 102.628 89.2998 102.633 92.6469C102.638 95.994 100.429 99.0916 96.3961 101.425C92.285 103.78 86.8798 105.001 81.4693 105.001ZM81.3342 80.745C76.0173 80.745 70.7056 81.9144 66.6725 84.2584C62.8265 86.4985 60.7112 89.4557 60.7112 92.5742C60.7112 95.6926 62.868 98.707 66.766 100.957C74.8895 105.635 88.0751 105.635 96.131 100.957C99.9771 98.7226 102.092 95.7601 102.087 92.6417C102.082 89.5233 99.9355 86.5088 96.0375 84.2532C91.9992 81.8884 86.6511 80.719 81.3342 80.719V80.745Z" fill="white"/>
<path d="M60.4824 40.2418L60.4824 97.4286" stroke="white" stroke-width="0.519735"/>
<path d="M102.348 40.6841L102.348 97.4284" stroke="white" stroke-width="0.519735"/>
<path d="M91.6413 90.9529C91.1613 90.2412 90.5438 89.6349 89.8266 89.1687L91.0938 88.4332L91.482 88.2079L91.0933 87.9834L89.2482 86.9179L89.1172 86.8423L88.9868 86.9188L87.3222 87.8952C84.9013 86.9871 82.4152 87.0661 80.709 88.0561C80.2338 88.3293 79.886 88.6339 79.6644 88.9753C79.44 89.3213 79.3535 89.6926 79.3831 90.0779C79.4406 90.8282 79.9361 91.6085 80.6109 92.3905L80.6111 92.3907C81.0734 92.9257 81.2984 93.2994 81.349 93.561C81.372 93.6799 81.3565 93.7638 81.3191 93.8323C81.2791 93.9058 81.1993 93.9883 81.0487 94.0736C80.7591 94.2375 80.346 94.3013 79.8609 94.2419C79.3792 94.1829 78.8471 94.0044 78.339 93.7109L78.3391 93.7108L78.3328 93.7074C77.4081 93.2064 76.6468 92.4503 76.1395 91.5289L76.034 91.3374L75.8273 91.4086L73.0779 92.3545L72.7705 92.4602L72.9413 92.7368C73.4785 93.6065 74.1983 94.3469 75.0488 94.9076L73.6494 95.7283L73.2642 95.9542L73.6509 96.1775L75.496 97.243L75.6265 97.3183L75.7567 97.2425L77.5501 96.1988C80.1038 97.2044 82.734 97.0508 84.4517 96.0524C85.308 95.5547 85.8496 94.976 85.9238 94.2313C85.9963 93.5038 85.6098 92.715 84.8769 91.8239C84.3728 91.1838 84.0868 90.7489 83.989 90.4444C83.9423 90.2991 83.9486 90.2128 83.9685 90.1582C83.9877 90.1054 84.0345 90.0416 84.1552 89.9717L84.1552 89.9717C84.5715 89.7302 85.3893 89.624 86.5614 90.2995L86.5613 90.2996L86.5688 90.3036C87.3781 90.7353 88.061 91.3704 88.5502 92.1463L88.6598 92.3201L88.8543 92.2535L91.51 91.344L91.831 91.2341L91.6413 90.9529ZM81.6896 83.5958C85.5854 83.5726 89.4859 84.3996 92.4964 86.0635C95.3719 87.7988 96.7412 90.0073 96.7142 92.1591C96.6872 94.3126 95.2604 96.5116 92.3192 98.2226C89.3792 99.9329 85.5129 100.807 81.615 100.831C77.7192 100.855 73.8186 100.029 70.8081 98.3677C67.93 96.6298 66.5608 94.42 66.5884 92.2677C66.6161 90.1135 68.0442 87.9145 70.9855 86.2034C73.9255 84.4931 77.7917 83.619 81.6896 83.5958Z" stroke="#0962FF" stroke-width="0.519735"/>
<line x1="96.4474" y1="101.067" x2="96.4474" y2="105.744" stroke="white" stroke-width="0.519735"/>
<line x1="88.1329" y1="104.185" x2="88.1329" y2="108.863" stroke="white" stroke-width="0.519735"/>
<line x1="83.4552" y1="104.705" x2="83.4552" y2="109.382" stroke="white" stroke-width="0.519735"/>
<path d="M34.2952 25.8687C38.4271 28.2543 43.8479 29.4497 49.2584 29.4497C54.6688 29.4497 60.0741 28.2283 64.1852 25.8739C68.2183 23.5403 70.4272 20.4427 70.422 17.0956L69.8762 17.0904C69.8814 20.2088 67.7661 23.1713 63.9201 25.4061C55.8642 30.0837 42.6785 30.0837 34.5551 25.4061C30.6571 23.1557 28.5002 20.1412 28.5002 17.0228L27.9805 17.0332C27.9857 20.3855 30.1633 23.4831 34.2952 25.8687Z" fill="white"/>
<path d="M49.2584 24.772C43.848 24.772 38.4271 23.5766 34.2952 21.191C30.1633 18.8054 27.9857 15.7078 27.9805 12.3555C27.9753 9.00323 30.1842 5.91081 34.2173 3.58239C42.4343 -1.19397 55.8383 -1.19397 64.1073 3.58239C68.1716 5.9316 70.4168 9.0708 70.422 12.4179C70.4272 15.765 68.2183 18.8626 64.1852 21.1962C60.0741 23.5506 54.6688 24.772 49.2584 24.772ZM49.1233 0.515978C43.8064 0.515978 38.4947 1.68539 34.4616 4.02939C30.6155 6.26945 28.5002 9.22674 28.5002 12.3451C28.5002 15.4636 30.6571 18.478 34.5551 20.7284C42.6785 25.4061 55.8642 25.4061 63.9201 20.7284C67.7661 18.4936 69.8814 15.5311 69.8762 12.4127C69.871 9.29428 67.7246 6.27984 63.8266 4.02419C59.7882 1.65939 54.4401 0.489997 49.1233 0.489997V0.515978Z" fill="white"/>
<path d="M70.1836 12.7336V17.1514" stroke="white" stroke-width="0.519735"/>
<path d="M28.2402 12.7336V17.1514" stroke="white" stroke-width="0.519735"/>
<path d="M59.4304 10.7237C58.9504 10.0121 58.3328 9.40575 57.6157 8.93962L58.8829 8.20406L59.271 7.97873L58.8823 7.75427L57.0373 6.68882L56.9063 6.61319L56.7758 6.6897L55.1112 7.66605C52.6904 6.75794 50.2043 6.83695 48.4981 7.82701C48.0229 8.10018 47.675 8.40472 47.4535 8.74619C47.229 9.09216 47.1426 9.46342 47.1722 9.84878C47.2297 10.5991 47.7252 11.3794 48.4 12.1614L48.4001 12.1616C48.8625 12.6966 49.0875 13.0703 49.1381 13.3319C49.1611 13.4508 49.1455 13.5346 49.1082 13.6032C49.0681 13.6767 48.9884 13.7591 48.8377 13.8444C48.5482 14.0084 48.1351 14.0722 47.6499 14.0128C47.1682 13.9538 46.6362 13.7753 46.1281 13.4818L46.1281 13.4817L46.1219 13.4783C45.1971 12.9773 44.4358 12.2211 43.9285 11.2998L43.8231 11.1083L43.6164 11.1794L40.8669 12.1253L40.5596 12.2311L40.7304 12.5076C41.2675 13.3774 41.9873 14.1177 42.8378 14.6785L41.4385 15.4992L41.0533 15.7251L41.44 15.9484L43.2851 17.0139L43.4155 17.0892L43.5457 17.0134L45.3392 15.9697C47.8929 16.9753 50.523 16.8217 52.2408 15.8233C53.0971 15.3255 53.6387 14.7469 53.7129 14.0022C53.7854 13.2747 53.3989 12.4859 52.666 11.5948C52.1618 10.9546 51.8758 10.5197 51.778 10.2153C51.7314 10.07 51.7376 9.98365 51.7575 9.92903C51.7768 9.87631 51.8236 9.81249 51.9442 9.74255L51.9443 9.74253C52.3606 9.50106 53.1783 9.39489 54.3504 10.0703L54.3504 10.0705L54.3579 10.0745C55.1672 10.5062 55.8501 11.1413 56.3393 11.9172L56.4489 12.091L56.6433 12.0244L59.2991 11.1149L59.62 11.005L59.4304 10.7237ZM49.4786 3.36666C53.3744 3.34348 57.275 4.17052 60.2855 5.83437C63.161 7.56966 64.5303 9.77815 64.5033 11.9299C64.4763 14.0834 63.0495 16.2824 60.1082 17.9935C57.1683 19.7038 53.302 20.5779 49.404 20.6017C45.5082 20.6256 41.6076 19.7998 38.5971 18.1386C35.7191 16.4007 34.3498 14.1909 34.3775 12.0385C34.4051 9.88438 35.8332 7.68536 38.7746 5.97428C41.7145 4.26399 45.5808 3.38986 49.4786 3.36666Z" stroke="#0962FF" stroke-width="0.519735"/>
<line x1="64.2384" y1="20.8376" x2="64.2384" y2="25.5153" stroke="white" stroke-width="0.519735"/>
<line x1="55.922" y1="23.9561" x2="55.922" y2="28.6337" stroke="white" stroke-width="0.519735"/>
<line x1="51.2423" y1="24.4757" x2="51.2423" y2="29.1533" stroke="white" stroke-width="0.519735"/>
<path d="M90.2608 127.492C90.2533 124.427 88.2247 121.364 84.1689 119.023C76.0573 114.339 62.9156 114.334 54.8115 119.013C50.7582 121.354 48.7347 124.422 48.7422 127.492V131.062C48.7422 134.128 50.7783 137.191 54.8303 139.532C62.9419 144.217 76.0911 144.22 84.1889 139.542C88.2435 137.201 90.2658 134.133 90.2608 131.062V127.492Z" fill="white"/>
<path d="M69.5252 143.382C63.9161 143.382 58.6447 142.118 54.6614 139.822C50.6356 137.497 48.4145 134.387 48.4082 131.067V127.496C48.4007 124.169 50.6156 121.054 54.6464 118.726C58.6109 116.436 63.8786 115.176 69.4751 115.176C75.0717 115.176 80.3557 116.44 84.3377 118.736C88.366 121.061 90.5909 124.171 90.5971 127.491V131.062C90.5971 134.392 88.3872 137.506 84.3577 139.832C80.3907 142.122 75.123 143.382 69.5252 143.382ZM69.4739 115.841C63.9924 115.841 58.8435 117.07 54.9791 119.301C51.1659 121.505 49.0698 124.413 49.0761 127.491V131.052C49.0836 134.136 51.1859 137.042 54.9966 139.241C58.8735 141.48 64.0324 142.713 69.5252 142.713C75.018 142.713 80.1556 141.484 84.0213 139.253C87.8345 137.052 89.9318 134.143 89.9255 131.062V127.492C89.9255 124.418 87.8157 121.512 84.0025 119.313C80.1256 117.074 74.9654 115.841 69.4739 115.841Z" fill="#141414"/>
<path d="M90.2613 131.062V127.492C90.2538 124.427 88.2252 121.364 84.1694 119.023C82.5172 118.087 80.7605 117.349 78.9355 116.825V141.742C80.7672 141.218 82.5304 140.48 84.1882 139.542C88.244 137.201 90.2663 134.138 90.2613 131.062Z" fill="#0962FF"/>
<path d="M78.9355 142.077C78.8635 142.076 78.7935 142.053 78.7354 142.01C78.6939 141.979 78.6602 141.938 78.637 141.892C78.6137 141.845 78.6016 141.794 78.6016 141.742V116.825C78.6015 116.773 78.6136 116.722 78.637 116.675C78.6604 116.628 78.6943 116.588 78.7362 116.557C78.778 116.526 78.8265 116.505 78.8778 116.496C78.9292 116.487 78.9819 116.49 79.0318 116.505C80.8814 117.037 82.6621 117.784 84.337 118.732C88.3653 121.057 90.5902 124.168 90.5964 127.487V131.059C90.5964 134.388 88.3865 137.502 84.357 139.828C82.6758 140.78 80.8879 141.528 79.0306 142.059C78.9999 142.07 78.9679 142.075 78.9355 142.077ZM79.2707 117.277V141.289C80.9253 140.788 82.5192 140.104 84.0231 139.252C87.8363 137.05 89.9336 134.141 89.9273 131.061V127.491C89.9273 124.417 87.8175 121.511 84.0043 119.311C82.5056 118.462 80.9182 117.78 79.2707 117.277Z" fill="#141414"/>
<path d="M84.1896 135.971C92.2925 131.294 92.2837 123.705 84.1696 119.022C76.0555 114.34 62.9163 114.334 54.8122 119.012C46.7081 123.691 46.7181 131.279 54.831 135.961C62.9439 140.643 76.0843 140.65 84.1896 135.971Z" fill="#86B2FF"/>
<path d="M69.5252 139.812C63.9161 139.812 58.6446 138.547 54.6614 136.251C50.6281 133.922 48.4082 130.806 48.4082 127.478C48.4082 124.15 50.6243 121.045 54.6476 118.724C58.6121 116.434 63.8798 115.173 69.4764 115.173C75.073 115.173 80.3569 116.437 84.3389 118.734C88.3747 121.062 90.5921 124.179 90.5921 127.508C90.5921 130.837 88.3772 133.94 84.3539 136.262C80.3906 138.551 75.123 139.812 69.5252 139.812ZM69.4739 115.841C63.9923 115.841 58.8435 117.07 54.979 119.301C51.1721 121.5 49.0748 124.404 49.0748 127.478C49.0748 130.552 51.1783 133.467 54.9965 135.672C58.8735 137.909 64.0324 139.143 69.5252 139.143C75.0179 139.143 80.1555 137.913 84.0212 135.682C87.8282 133.483 89.9255 130.581 89.9255 127.507C89.9255 124.433 87.8219 121.516 84.0025 119.313C80.1255 117.074 74.9654 115.841 69.4739 115.841Z" fill="#141414"/>
<path d="M57.7996 133.647C57.7121 133.6 57.6158 133.559 57.5307 133.509C50.9249 129.694 50.9186 123.491 57.517 119.682C57.6083 119.629 57.7071 119.585 57.7996 119.535V133.647ZM71.7279 116.923C70.9363 116.863 70.1396 116.828 69.343 116.83V136.366C70.1396 136.366 70.9363 136.337 71.7279 136.279V116.923ZM81.4666 119.69C80.0439 118.889 78.528 118.265 76.9531 117.834V135.373C78.5335 134.944 80.0546 134.321 81.4816 133.517C88.0887 129.708 88.075 123.507 81.4666 119.69Z" fill="white"/>
<path d="M67.962 130.039C68.5407 129.706 68.8387 129.342 68.8562 128.948C68.8737 128.555 68.6186 128.02 68.0958 127.342C67.0353 126.111 66.4763 125.069 66.4187 124.215C66.3612 123.361 66.979 122.56 68.2722 121.81C69.4628 121.122 70.8239 120.782 72.3555 120.788C73.9057 120.8 75.4343 121.154 76.8315 121.825L79.0989 120.518L80.7848 121.491L78.4861 122.817C79.5817 123.651 80.0819 124.513 79.9869 125.403C79.8918 126.294 79.181 127.108 77.8545 127.847L77.7795 127.865L74.758 126.121C75.5283 125.675 75.9436 125.234 76.0086 124.793C76.0736 124.352 75.7897 123.951 75.1607 123.589C74.5718 123.225 73.8903 123.04 73.1984 123.055C72.5492 123.085 71.9171 123.273 71.3575 123.604C70.8122 123.92 70.5371 124.259 70.5258 124.629C70.5146 124.999 70.7684 125.547 71.2837 126.279C72.3451 127.479 72.8958 128.516 72.9358 129.39C72.9758 130.265 72.3534 131.073 71.0686 131.814C69.8224 132.528 68.4047 132.887 66.969 132.852C65.4255 132.827 63.9061 132.466 62.5168 131.793L60.432 132.997L58.7461 132.023L60.8309 130.82C59.5953 129.967 58.9312 129.063 58.8387 128.108C58.7461 127.154 59.469 126.248 61.0072 125.392L61.101 125.375L64.1138 127.113C63.2092 127.635 62.7856 128.135 62.8432 128.614C62.9007 129.092 63.2826 129.535 63.9888 129.941C64.6113 130.322 65.3238 130.531 66.0536 130.547C66.7239 130.553 67.3833 130.378 67.962 130.039Z" fill="#141414"/>
<path d="M71.3853 143.335C71.2966 143.335 71.2117 143.299 71.1491 143.236C71.0866 143.174 71.0514 143.089 71.0514 143V139.429C71.0486 139.384 71.0552 139.338 71.0707 139.295C71.0863 139.252 71.1105 139.212 71.1418 139.179C71.1732 139.146 71.211 139.119 71.253 139.101C71.2949 139.083 71.3402 139.074 71.386 139.074C71.4317 139.074 71.4769 139.083 71.5189 139.101C71.5609 139.119 71.5987 139.146 71.6301 139.179C71.6614 139.212 71.6856 139.252 71.7011 139.295C71.7167 139.338 71.7233 139.384 71.7205 139.429V143C71.7205 143.089 71.6852 143.174 71.6223 143.237C71.5595 143.3 71.4742 143.335 71.3853 143.335ZM75.161 142.939C75.0723 142.939 74.9873 142.903 74.9244 142.841C74.8616 142.778 74.8261 142.693 74.8258 142.605V139.034C74.823 138.988 74.8296 138.943 74.8452 138.9C74.8607 138.857 74.8849 138.817 74.9162 138.784C74.9476 138.751 74.9854 138.724 75.0274 138.706C75.0694 138.688 75.1146 138.678 75.1604 138.678C75.2061 138.678 75.2513 138.688 75.2933 138.706C75.3353 138.724 75.3732 138.751 75.4045 138.784C75.4358 138.817 75.46 138.857 75.4756 138.9C75.4911 138.943 75.4977 138.988 75.4949 139.034V142.605C75.4936 142.692 75.4579 142.776 75.3954 142.838C75.333 142.9 75.2488 142.935 75.161 142.935V142.939ZM77.0482 142.575C76.9593 142.575 76.874 142.539 76.8112 142.476C76.7483 142.414 76.713 142.328 76.713 142.239V138.613C76.713 138.524 76.7483 138.439 76.8112 138.376C76.874 138.313 76.9593 138.277 77.0482 138.277C77.1371 138.277 77.2223 138.313 77.2852 138.376C77.348 138.439 77.3833 138.524 77.3833 138.613V142.239C77.3824 142.328 77.3466 142.412 77.2839 142.474C77.2211 142.536 77.1364 142.571 77.0482 142.571V142.575Z" fill="#141414"/>
<path d="M90.2608 122.132C90.2533 119.068 88.2247 116.004 84.1689 113.662C76.0573 108.979 62.9156 108.974 54.8115 113.652C50.7582 115.994 48.7347 119.063 48.7422 122.132V125.703C48.7422 128.767 50.7783 131.832 54.8303 134.173C62.9419 138.856 76.0911 138.86 84.1889 134.183C88.2435 131.842 90.2658 128.772 90.2608 125.703V122.132Z" fill="white"/>
<path d="M69.5252 138.027C63.9161 138.027 58.6447 136.762 54.6614 134.466C50.6356 132.142 48.4145 129.03 48.4082 125.711V122.132C48.4007 118.805 50.6156 115.691 54.6464 113.362C58.6109 111.074 63.8786 109.812 69.4751 109.812C75.0717 109.812 80.3557 111.076 84.3377 113.374C88.366 115.697 90.5909 118.808 90.5971 122.128V125.7C90.5971 129.028 88.3872 132.142 84.3577 134.469C80.3907 136.764 75.123 138.027 69.5252 138.027ZM69.4739 110.486C63.9924 110.486 58.8435 111.714 54.9791 113.946C51.1659 116.149 49.0698 119.058 49.0761 122.136V125.696C49.0836 128.78 51.1859 131.685 54.9966 133.886C58.8735 136.125 64.0324 137.357 69.5252 137.357C75.018 137.357 80.1556 136.129 84.0213 133.896C87.8345 131.695 89.9318 128.786 89.9255 125.707V122.132C89.9255 119.058 87.8157 116.152 84.0025 113.953C80.1256 111.718 74.9654 110.486 69.4739 110.486Z" fill="#141414"/>
<path d="M90.2613 125.707V122.132C90.2538 119.068 88.2252 116.003 84.1694 113.662C82.5172 112.727 80.7604 111.99 78.9355 111.466V136.389C80.767 135.865 82.5302 135.127 84.1882 134.189C88.244 131.845 90.2663 128.776 90.2613 125.707Z" fill="#0962FF"/>
<path d="M78.9355 136.72C78.8469 136.72 78.762 136.685 78.6994 136.623C78.6368 136.56 78.6016 136.475 78.6016 136.386V111.47C78.6016 111.418 78.6137 111.366 78.6371 111.32C78.6605 111.273 78.6944 111.233 78.7362 111.202C78.7779 111.17 78.8264 111.149 78.8777 111.14C78.929 111.131 78.9818 111.134 79.0318 111.149C80.8819 111.681 82.663 112.429 84.3382 113.377C88.3665 115.701 90.5914 118.811 90.5977 122.132V125.704C90.5977 129.031 88.3878 132.146 84.3582 134.473C82.6766 135.423 80.8888 136.172 79.0318 136.704C79.0006 136.714 78.9682 136.72 78.9355 136.72ZM79.2707 111.922V135.934C80.9253 135.432 82.5192 134.748 84.0231 133.895C87.8363 131.694 89.9336 128.785 89.9273 125.706V122.132C89.9273 119.058 87.8175 116.152 84.0043 113.953C82.5055 113.104 80.9181 112.423 79.2707 111.922Z" fill="#141414"/>
<path d="M84.1896 130.616C92.2925 125.939 92.2837 118.35 84.1696 113.666C76.0555 108.982 62.9163 108.977 54.8122 113.656C46.7081 118.335 46.7181 125.922 54.831 130.606C62.9439 135.29 76.0843 135.293 84.1896 130.616Z" fill="#86B2FF"/>
<path d="M69.5252 134.456C63.9161 134.456 58.6446 133.191 54.6614 130.896C50.6281 128.566 48.4082 125.451 48.4082 122.123C48.4082 118.795 50.6243 115.688 54.6476 113.368C58.6121 111.08 63.8798 109.818 69.4764 109.818C75.073 109.818 80.3569 111.082 84.3389 113.38C88.3747 115.708 90.5921 118.824 90.5921 122.153C90.5921 125.482 88.3772 128.586 84.3539 130.907C80.3906 133.195 75.123 134.456 69.5252 134.456ZM69.4739 110.486C63.9923 110.486 58.8435 111.714 54.979 113.946C51.1721 116.145 49.0748 119.047 49.0748 122.123C49.0748 125.198 51.1783 128.112 54.9965 130.316C58.8735 132.554 64.0324 133.786 69.5252 133.786C75.0179 133.786 80.1555 132.558 84.0212 130.326C87.8282 128.128 89.9255 125.224 89.9255 122.15C89.9255 119.076 87.8219 116.161 84.0025 113.956C80.1255 111.717 74.9654 110.486 69.4739 110.486Z" fill="#141414"/>
<path d="M57.7996 128.292C57.7121 128.243 57.6158 128.202 57.5307 128.152C50.9249 124.338 50.9186 118.135 57.517 114.325C57.6083 114.274 57.7071 114.23 57.7996 114.179V128.292ZM71.7279 111.568C70.9363 111.506 70.1396 111.471 69.343 111.475V131.011C70.1396 131.011 70.9363 130.982 71.7279 130.922V111.568ZM81.4666 114.334C80.0436 113.533 78.5278 112.911 76.9531 112.479V130.018C78.5337 129.589 80.0549 128.965 81.4816 128.161C88.0887 124.352 88.075 118.148 81.4666 114.334Z" fill="white"/>
<path d="M67.9627 124.683C68.5414 124.349 68.8394 123.986 68.8569 123.592C68.8744 123.2 68.6193 122.664 68.0965 121.987C67.036 120.756 66.477 119.714 66.4194 118.86C66.3619 118.006 66.9797 117.204 68.2729 116.454C69.4635 115.767 70.8246 115.427 72.3562 115.433C73.9064 115.444 75.435 115.798 76.8322 116.47L79.0996 115.162L80.7855 116.135L78.4868 117.462C79.5824 118.296 80.0826 119.157 79.9876 120.047C79.8925 120.936 79.1817 121.751 77.8552 122.492L77.7802 122.509L74.7599 120.756C75.5303 120.309 75.9455 119.868 76.0105 119.427C76.0756 118.985 75.7917 118.585 75.1626 118.222C74.5739 117.858 73.8922 117.673 73.2004 117.689C72.551 117.719 71.9188 117.907 71.3594 118.238C70.8142 118.554 70.539 118.894 70.5278 119.264C70.5165 119.634 70.7704 120.182 71.2856 120.912C72.347 122.112 72.8977 123.149 72.9378 124.024C72.9778 124.898 72.3554 125.706 71.0705 126.448C69.8245 127.162 68.4067 127.521 66.971 127.487C65.4274 127.461 63.908 127.099 62.5187 126.426L60.4339 127.632L58.748 126.656L60.8329 125.455C59.5972 124.602 58.9331 123.698 58.8406 122.743C58.748 121.789 59.4709 120.883 61.0092 120.027L61.103 120.009L64.1158 121.748C63.2112 122.27 62.7876 122.77 62.8451 123.248C62.9002 123.726 63.2829 124.166 63.9907 124.575C64.6136 124.956 65.3259 125.165 66.0555 125.182C66.7246 125.19 67.3834 125.018 67.9627 124.683Z" fill="#141414"/>
<path d="M73.2759 137.832C73.1873 137.832 73.1023 137.796 73.0397 137.733C72.9772 137.671 72.942 137.586 72.942 137.497V133.925C72.9392 133.879 72.9458 133.834 72.9614 133.791C72.9769 133.748 73.0011 133.708 73.0324 133.675C73.0638 133.642 73.1016 133.615 73.1436 133.597C73.1856 133.579 73.2308 133.569 73.2766 133.569C73.3223 133.569 73.3676 133.579 73.4096 133.597C73.4515 133.615 73.4894 133.642 73.5207 133.675C73.552 133.708 73.5762 133.748 73.5918 133.791C73.6073 133.834 73.6139 133.879 73.6111 133.925V137.496C73.6111 137.54 73.6025 137.583 73.5856 137.624C73.5688 137.665 73.5441 137.701 73.5129 137.733C73.4818 137.764 73.4449 137.788 73.4042 137.805C73.3635 137.822 73.32 137.831 73.2759 137.831V137.832ZM75.1631 137.582C75.0742 137.582 74.989 137.547 74.9261 137.484C74.8633 137.421 74.828 137.336 74.828 137.247V133.676C74.8332 133.591 74.8707 133.511 74.9329 133.452C74.995 133.394 75.0772 133.361 75.1625 133.361C75.2479 133.361 75.33 133.394 75.3922 133.452C75.4543 133.511 75.4919 133.591 75.4971 133.676V137.247C75.4964 137.335 75.461 137.419 75.3984 137.482C75.3359 137.544 75.2514 137.579 75.1631 137.579V137.582ZM77.0503 137.217C76.9617 137.217 76.8766 137.182 76.8138 137.119C76.751 137.056 76.7155 136.971 76.7152 136.883V133.256C76.7152 133.167 76.7505 133.082 76.8133 133.019C76.8762 132.956 76.9615 132.921 77.0503 132.921C77.1392 132.921 77.2245 132.956 77.2873 133.019C77.3502 133.082 77.3855 133.167 77.3855 133.256V136.883C77.3845 136.971 77.3488 137.055 77.286 137.117C77.2233 137.179 77.1386 137.214 77.0503 137.214V137.217Z" fill="#141414"/>
<path d="M93.8304 116.78C93.8304 113.715 91.7943 110.652 87.741 108.311C79.6269 103.627 66.4802 103.622 58.3811 108.301C54.3278 110.642 52.3043 113.71 52.3106 116.78V120.351C52.3181 123.416 54.3479 126.479 58.3987 128.82C66.5115 133.505 79.6594 133.509 87.7598 128.83C91.8131 126.49 93.8354 123.421 93.8304 120.351V116.78Z" fill="white"/>
<path d="M73.0962 132.671C67.4884 132.671 62.2094 131.406 58.2337 129.11C54.2066 126.785 51.9805 123.675 51.9805 120.356V116.784C51.973 113.457 54.1878 110.342 58.2186 108.014C62.1831 105.725 67.4508 104.464 73.0474 104.464C78.644 104.464 83.9342 105.728 87.9125 108.024C91.9395 110.349 94.1656 113.46 94.1656 116.779V120.351C94.1656 123.679 91.9557 126.794 87.9274 129.12C83.9629 131.41 78.694 132.671 73.0962 132.671ZM73.0449 105.129C67.5634 105.129 62.4145 106.359 58.5501 108.59C54.7369 110.793 52.6396 113.701 52.6471 116.779V120.341C52.6546 123.425 54.7569 126.33 58.5676 128.531C62.4445 130.768 67.6034 132.002 73.0962 132.002C78.589 132.002 83.7266 130.772 87.5935 128.541C91.4055 126.339 93.5028 123.431 93.4978 120.351V116.78C93.4903 113.706 91.3867 110.801 87.5748 108.601C83.6965 106.362 78.5364 105.129 73.0449 105.129Z" fill="#141414"/>
<path d="M93.8323 120.351V116.78C93.8323 113.715 91.7963 110.652 87.7429 108.311C86.0898 107.377 84.3328 106.64 82.5078 106.115V131.03C84.3394 130.507 86.1026 129.768 87.7605 128.83C91.815 126.49 93.8435 123.421 93.8323 120.351Z" fill="#0962FF"/>
<path d="M82.5051 131.365C82.4163 131.365 82.3312 131.329 82.2685 131.267C82.2057 131.204 82.1703 131.119 82.1699 131.03V106.115C82.1697 106.063 82.1817 106.011 82.2049 105.965C82.2281 105.918 82.2619 105.877 82.3036 105.846C82.3453 105.815 82.3937 105.794 82.445 105.785C82.4963 105.776 82.549 105.779 82.5989 105.793C84.4496 106.326 86.2314 107.073 87.9078 108.021C91.9349 110.346 94.161 113.456 94.161 116.775V120.347C94.161 123.675 91.9511 126.79 87.9228 129.116C86.241 130.067 84.4527 130.816 82.5952 131.348C82.566 131.357 82.5358 131.363 82.5051 131.365ZM82.839 106.566V130.578C84.4933 130.076 86.0871 129.393 87.5914 128.541C91.4034 126.339 93.5007 123.431 93.4957 120.351V116.78C93.4882 113.706 91.3846 110.801 87.5727 108.601C86.073 107.751 84.4843 107.068 82.8353 106.566H82.839Z" fill="#141414"/>
<path d="M87.7614 125.258C95.863 120.581 95.8542 112.991 87.7426 108.308C79.631 103.626 66.4819 103.62 58.3828 108.298C50.2837 112.977 50.2887 120.565 58.4003 125.247C66.5119 129.929 79.6586 129.938 87.7614 125.258Z" fill="#86B2FF"/>
<path d="M73.0962 129.1C67.4883 129.1 62.2094 127.836 58.2336 125.54C54.1991 123.211 51.9805 120.096 51.9805 116.767C51.9805 113.437 54.1966 110.333 58.2199 108.012C62.1844 105.722 67.4521 104.462 73.0486 104.462C78.6452 104.462 83.9354 105.726 87.9137 108.022C91.9482 110.352 94.1669 113.467 94.1669 116.797C94.1669 120.126 91.952 123.229 87.9287 125.551C83.9629 127.84 78.694 129.1 73.0962 129.1ZM73.0449 105.129C67.5634 105.129 62.4145 106.359 58.5501 108.59C54.7431 110.788 52.6458 113.692 52.6458 116.767C52.6458 119.841 54.7494 122.756 58.5675 124.961C62.4445 127.198 67.6034 128.431 73.0962 128.431C78.589 128.431 83.7266 127.202 87.5935 124.971C91.4004 122.772 93.4978 119.869 93.4978 116.795C93.4978 113.721 91.3929 110.805 87.5747 108.601C83.6965 106.363 78.5364 105.129 73.0449 105.129Z" fill="#141414"/>
<path d="M61.3704 122.936C61.2829 122.888 61.1865 122.847 61.1015 122.797C54.4956 118.983 54.4882 112.779 61.0878 108.97C61.1778 108.917 61.2778 108.874 61.3704 108.824V122.936ZM75.2987 106.212C74.507 106.151 73.7091 106.116 72.9137 106.12V125.655C73.7091 125.655 74.507 125.626 75.2987 125.567V106.212ZM85.0374 108.979C83.6147 108.177 82.0982 107.554 80.5226 107.124V124.662C82.1037 124.233 83.6253 123.61 85.0524 122.806C91.6532 118.996 91.6457 112.793 85.0374 108.979Z" fill="white"/>
<path d="M71.5319 119.328C72.111 118.995 72.4074 118.63 72.4274 118.236C72.4474 117.842 72.1898 117.308 71.667 116.63C70.6065 115.399 70.0474 114.357 69.9899 113.504C69.9324 112.65 70.5502 111.848 71.8434 111.099C73.034 110.412 74.3946 110.072 75.9254 110.077C77.4759 110.089 79.0047 110.443 80.4027 111.114L82.6701 109.807L84.3559 110.78L82.0573 112.107C83.1528 112.94 83.6531 113.802 83.558 114.692C83.463 115.581 82.7543 116.396 81.432 117.135L81.3569 117.153L78.3341 115.404C79.1045 114.958 79.5197 114.518 79.5848 114.076C79.6498 113.635 79.3659 113.235 78.7356 112.872C78.1472 112.508 77.4661 112.323 76.7746 112.338C76.1254 112.368 75.4933 112.557 74.9337 112.887C74.3884 113.203 74.112 113.542 74.102 113.912C74.092 114.283 74.3446 114.832 74.8611 115.562C75.9225 116.761 76.4728 117.798 76.5119 118.674C76.5511 119.549 75.9287 120.357 74.6448 121.097C73.3988 121.812 71.9809 122.171 70.5452 122.135C69.0017 122.11 67.4823 121.749 66.0929 121.076L64.0081 122.28L62.3223 121.306L64.4071 120.103C63.1714 119.25 62.5074 118.346 62.4148 117.392C62.3223 116.437 63.0451 115.532 64.5834 114.677L64.6772 114.658L67.69 116.396C66.7845 116.917 66.361 117.418 66.4193 117.897C66.4777 118.376 66.8596 118.819 67.5649 119.224C68.1878 119.605 68.9007 119.815 69.631 119.83C70.2983 119.837 70.955 119.663 71.5319 119.328Z" fill="#141414"/>
<path d="M74.9569 132.623C74.9128 132.623 74.8692 132.615 74.8284 132.598C74.7877 132.581 74.7507 132.557 74.7195 132.526C74.6884 132.494 74.6637 132.457 74.6469 132.417C74.6301 132.376 74.6216 132.332 74.6217 132.288V128.718C74.6189 128.672 74.6255 128.626 74.641 128.583C74.6566 128.54 74.6808 128.501 74.7121 128.467C74.7435 128.434 74.7813 128.408 74.8233 128.389C74.8653 128.371 74.9105 128.362 74.9563 128.362C75.002 128.362 75.0473 128.371 75.0892 128.389C75.1312 128.408 75.169 128.434 75.2004 128.467C75.2317 128.501 75.2559 128.54 75.2715 128.583C75.287 128.626 75.2936 128.672 75.2908 128.718V132.288C75.2908 132.377 75.2557 132.462 75.1931 132.525C75.1305 132.588 75.0456 132.623 74.9569 132.623ZM78.73 132.227C78.6414 132.227 78.5564 132.191 78.4939 132.128C78.4313 132.065 78.3961 131.98 78.3961 131.892V128.321C78.3933 128.275 78.3999 128.23 78.4155 128.187C78.431 128.144 78.4552 128.104 78.4865 128.071C78.5179 128.038 78.5557 128.011 78.5977 127.993C78.6397 127.975 78.6849 127.965 78.7307 127.965C78.7764 127.965 78.8217 127.975 78.8636 127.993C78.9056 128.011 78.9434 128.038 78.9748 128.071C79.0061 128.104 79.0303 128.144 79.0459 128.187C79.0614 128.23 79.068 128.275 79.0652 128.321V131.887C79.0656 131.931 79.0571 131.975 79.0404 132.016C79.0237 132.057 78.9991 132.094 78.9679 132.125C78.9368 132.157 78.8997 132.182 78.8589 132.199C78.8181 132.216 78.7743 132.224 78.73 132.224V132.227ZM80.6185 131.862C80.5745 131.862 80.531 131.853 80.4904 131.836C80.4498 131.819 80.413 131.795 80.3819 131.763C80.3509 131.732 80.3263 131.695 80.3096 131.655C80.2929 131.614 80.2844 131.57 80.2846 131.527V127.906C80.2818 127.86 80.2884 127.815 80.3039 127.772C80.3195 127.728 80.3437 127.689 80.375 127.656C80.4063 127.622 80.4442 127.596 80.4861 127.578C80.5281 127.56 80.5734 127.55 80.6191 127.55C80.6649 127.55 80.7101 127.56 80.7521 127.578C80.7941 127.596 80.8319 127.622 80.8633 127.656C80.8946 127.689 80.9188 127.728 80.9343 127.772C80.9499 127.815 80.9565 127.86 80.9537 127.906V131.527C80.953 131.615 80.9174 131.7 80.8546 131.762C80.7918 131.824 80.707 131.859 80.6185 131.859V131.862Z" fill="#141414"/>
<path d="M90.2608 111.425C90.2533 108.36 88.2247 105.297 84.1689 102.956C76.0573 98.2707 62.9156 98.2657 54.8115 102.944C50.7582 105.285 48.7347 108.355 48.7422 111.425V114.995C48.7422 118.059 50.7783 121.123 54.8303 123.465C62.9419 128.148 76.0911 128.152 84.1889 123.475C88.2435 121.133 90.2658 118.064 90.2608 114.995V111.425Z" fill="white"/>
<path d="M69.5252 127.315C63.9161 127.315 58.6447 126.051 54.6614 123.755C50.6356 121.43 48.4145 118.318 48.4082 115V111.43C48.4007 108.102 50.6156 104.988 54.6464 102.659C58.6109 100.371 63.8786 99.1099 69.4751 99.1099C75.0717 99.1099 80.3557 100.373 84.3377 102.67C88.366 104.994 90.5909 108.104 90.5971 111.425V114.997C90.5971 118.325 88.3872 121.44 84.3577 123.766C80.3907 126.055 75.123 127.315 69.5252 127.315ZM69.4739 99.7739C63.9924 99.7739 58.8435 101.003 54.9791 103.234C51.1659 105.437 49.0698 108.346 49.0761 111.424V114.984C49.0836 118.068 51.1859 120.973 54.9966 123.175C58.8735 125.413 64.0324 126.645 69.5252 126.645C75.018 126.645 80.1556 125.417 84.0213 123.185C87.8345 120.983 89.9318 118.076 89.9255 114.995V111.425C89.9255 108.35 87.8157 105.446 84.0025 103.244C80.1256 101.006 74.9654 99.7739 69.4739 99.7739Z" fill="#141414"/>
<path d="M90.2613 114.996V111.425C90.2538 108.36 88.2252 105.297 84.1694 102.956C82.5175 102.02 80.7607 101.282 78.9355 100.758V125.675C80.767 125.151 82.5302 124.413 84.1882 123.475C88.244 121.131 90.2663 118.065 90.2613 114.996Z" fill="#0962FF"/>
<path d="M78.9355 126.008C78.8469 126.008 78.762 125.973 78.6994 125.911C78.6368 125.848 78.6016 125.763 78.6016 125.675V100.758C78.6016 100.706 78.6137 100.655 78.637 100.609C78.6602 100.562 78.6939 100.522 78.7354 100.491C78.7773 100.459 78.8259 100.438 78.8773 100.429C78.9287 100.42 78.9816 100.422 79.0318 100.437C80.8819 100.969 82.663 101.717 84.3382 102.665C88.3665 104.989 90.5914 108.099 90.5977 111.42V114.992C90.5977 118.32 88.3878 121.435 84.3582 123.761C82.6768 124.712 80.889 125.461 79.0318 125.992C79.0006 126.002 78.9682 126.008 78.9355 126.008ZM79.2707 101.21V125.222C80.9253 124.72 82.5192 124.036 84.0231 123.183C87.8363 120.982 89.9336 118.074 89.9273 114.994V111.424C89.9273 108.348 87.8175 105.444 84.0043 103.243C82.5056 102.394 80.9182 101.712 79.2707 101.21Z" fill="#141414"/>
<path d="M84.1896 119.904C92.2925 115.227 92.2837 107.638 84.1696 102.956C76.0555 98.2733 62.9163 98.2658 54.8122 102.944C46.7081 107.623 46.7181 115.211 54.831 119.894C62.9439 124.578 76.0843 124.582 84.1896 119.904Z" fill="#86B2FF"/>
<path d="M69.5252 123.745C63.9161 123.745 58.6446 122.481 54.6614 120.184C50.6281 117.856 48.4082 114.739 48.4082 111.411C48.4082 108.083 50.6243 104.978 54.6476 102.657C58.6121 100.368 63.8798 99.1074 69.4764 99.1074C75.073 99.1074 80.3569 100.371 84.3389 102.668C88.3747 104.997 90.5921 108.113 90.5921 111.442C90.5921 114.772 88.3772 117.874 84.3539 120.197C80.3906 122.484 75.123 123.745 69.5252 123.745ZM69.4739 99.774C63.9923 99.774 58.8435 101.003 54.979 103.235C51.1721 105.433 49.0748 108.336 49.0748 111.411C49.0748 114.486 51.1783 117.4 54.9965 119.604C58.8735 121.843 64.0324 123.076 69.5252 123.076C75.0179 123.076 80.1555 121.846 84.0212 119.614C87.8282 117.417 89.9255 114.514 89.9255 111.44C89.9255 108.366 87.8219 105.449 84.0025 103.245C80.1255 101.006 74.9654 99.774 69.4739 99.774Z" fill="#141414"/>
<path d="M57.7996 117.581C57.7121 117.533 57.6158 117.491 57.5307 117.441C50.9249 113.626 50.9186 107.423 57.517 103.614C57.6083 103.562 57.7071 103.518 57.7996 103.467V117.581ZM71.7279 100.856C70.9363 100.795 70.1396 100.76 69.343 100.763V120.299C70.1396 120.299 70.9363 120.271 71.7279 120.212V100.856ZM81.4666 103.622C80.0452 102.822 78.5311 102.199 76.9581 101.768V119.306C78.5385 118.877 80.0596 118.254 81.4866 117.451C88.0887 113.641 88.075 107.437 81.4666 103.622Z" fill="white"/>
<path d="M67.962 113.971C68.5407 113.638 68.8387 113.274 68.8562 112.881C68.8737 112.488 68.6186 111.953 68.0958 111.275C67.0353 110.044 66.4763 109.002 66.4187 108.148C66.3625 107.29 66.9803 106.491 68.2722 105.742C69.4628 105.055 70.8239 104.715 72.3555 104.722C73.9054 104.729 75.4344 105.08 76.8328 105.748L79.1002 104.44L80.786 105.413L78.4861 106.749C79.5817 107.583 80.0819 108.444 79.9869 109.334C79.8918 110.224 79.181 111.039 77.8545 111.779L77.7795 111.797L74.758 110.053C75.5284 109.607 75.9436 109.165 76.0086 108.724C76.0736 108.282 75.7897 107.882 75.1607 107.519C74.5719 107.156 73.8903 106.971 73.1984 106.987C72.5491 107.016 71.9169 107.205 71.3575 107.536C70.8122 107.851 70.5371 108.191 70.5258 108.561C70.5146 108.931 70.7684 109.479 71.2837 110.209C72.3451 111.408 72.8958 112.446 72.9358 113.322C72.9758 114.199 72.3534 115.006 71.0686 115.745C69.8227 116.459 68.4048 116.819 66.969 116.784C65.4255 116.759 63.906 116.397 62.5168 115.724L60.432 116.929L58.7461 115.955L60.8309 114.752C59.5953 113.899 58.9312 112.995 58.8387 112.04C58.7461 111.086 59.469 110.18 61.0072 109.324L61.101 109.307L64.1138 111.045C63.2092 111.567 62.7856 112.067 62.8432 112.546C62.9007 113.024 63.2826 113.467 63.9888 113.873C64.6116 114.253 65.3239 114.462 66.0536 114.479C66.7239 114.486 67.3835 114.31 67.962 113.971Z" fill="#141414"/>
<path d="M71.3853 127.267C71.2966 127.267 71.2117 127.231 71.1491 127.168C71.0866 127.105 71.0514 127.02 71.0514 126.932V123.362C71.0486 123.317 71.0552 123.271 71.0707 123.228C71.0863 123.185 71.1105 123.146 71.1418 123.112C71.1732 123.079 71.211 123.052 71.253 123.034C71.2949 123.016 71.3402 123.007 71.386 123.007C71.4317 123.007 71.4769 123.016 71.5189 123.034C71.5609 123.052 71.5987 123.079 71.6301 123.112C71.6614 123.146 71.6856 123.185 71.7011 123.228C71.7167 123.271 71.7233 123.317 71.7205 123.362V126.932C71.7205 127.021 71.6852 127.106 71.6223 127.169C71.5595 127.232 71.4742 127.267 71.3853 127.267ZM75.161 126.864C75.0721 126.864 74.9868 126.829 74.924 126.766C74.8611 126.703 74.8258 126.618 74.8258 126.529V122.958C74.831 122.873 74.8686 122.793 74.9307 122.735C74.9929 122.676 75.075 122.644 75.1604 122.644C75.2457 122.644 75.3278 122.676 75.39 122.735C75.4522 122.793 75.4897 122.873 75.4949 122.958V126.529C75.4954 126.573 75.4872 126.617 75.4706 126.658C75.4541 126.699 75.4296 126.736 75.3985 126.768C75.3675 126.799 75.3305 126.824 75.2897 126.842C75.249 126.859 75.2052 126.868 75.161 126.868V126.864ZM77.0482 126.499C77.0042 126.499 76.9607 126.491 76.92 126.474C76.8794 126.457 76.8424 126.433 76.8113 126.402C76.7801 126.371 76.7554 126.334 76.7386 126.293C76.7217 126.252 76.713 126.209 76.713 126.165V122.538C76.713 122.449 76.7483 122.364 76.8112 122.301C76.874 122.238 76.9593 122.203 77.0482 122.203C77.1371 122.203 77.2223 122.238 77.2852 122.301C77.348 122.364 77.3833 122.449 77.3833 122.538V126.165C77.3847 126.21 77.377 126.254 77.3608 126.296C77.3445 126.338 77.32 126.376 77.2887 126.408C77.2575 126.44 77.22 126.466 77.1787 126.483C77.1374 126.5 77.093 126.509 77.0482 126.509V126.499Z" fill="#141414"/>
<path d="M93.8304 106.069C93.8304 103.005 91.7943 99.9405 87.741 97.5993C79.6269 92.9157 66.4802 92.9107 58.3811 97.5893C54.3278 99.9305 52.3043 102.998 52.3106 106.069V109.639C52.3181 112.704 54.3479 115.767 58.3987 118.108C66.5115 122.793 79.6594 122.797 87.7598 118.12C91.8131 115.779 93.8354 112.709 93.8304 109.639V106.069Z" fill="white"/>
<path d="M73.0962 121.96C67.4884 121.96 62.2094 120.695 58.2337 118.398C54.2066 116.074 51.9805 112.963 51.9805 109.644V106.072C51.973 102.745 54.1878 99.6302 58.2186 97.3027C62.1831 95.0128 67.4508 93.7522 73.0474 93.7522C78.644 93.7522 83.9342 95.0166 87.9125 97.3127C91.9395 99.6377 94.1656 102.748 94.1656 106.067V109.639C94.1656 112.967 91.9557 116.082 87.9274 118.408C83.9629 120.698 78.694 121.96 73.0962 121.96ZM73.0449 94.4175C67.5634 94.4175 62.4145 95.6469 58.5501 97.878C54.7369 100.082 52.6396 102.989 52.6471 106.067V109.625C52.6546 112.709 54.7569 115.615 58.5676 117.816C62.4445 120.054 67.6034 121.286 73.0962 121.286C78.589 121.286 83.7266 120.057 87.5935 117.826C91.4055 115.623 93.5028 112.716 93.4978 109.636V106.065C93.4903 102.991 91.3867 100.085 87.5748 97.8855C83.6965 95.6507 78.5364 94.4175 73.0449 94.4175Z" fill="#141414"/>
<path d="M93.8323 109.639V106.068C93.8323 103.004 91.7963 99.9404 87.7429 97.5992C86.0898 96.6649 84.3328 95.9278 82.5078 95.4031V120.318C84.3392 119.795 86.1023 119.057 87.7605 118.12C91.815 115.778 93.8435 112.709 93.8323 109.639Z" fill="#0962FF"/>
<path d="M82.5051 120.653C82.4327 120.653 82.3622 120.63 82.3038 120.587C82.2622 120.556 82.2285 120.515 82.2053 120.468C82.1821 120.422 82.17 120.37 82.1699 120.318V95.4031C82.1697 95.351 82.1817 95.2996 82.2049 95.253C82.2281 95.2063 82.2619 95.1658 82.3036 95.1346C82.3453 95.1033 82.3937 95.0823 82.445 95.0731C82.4963 95.0639 82.549 95.0669 82.5989 95.0817C84.4496 95.614 86.2314 96.3615 87.9078 97.3091C91.9349 99.634 94.161 102.744 94.161 106.063V109.635C94.161 112.963 91.9511 116.079 87.9228 118.405C86.2415 119.357 84.4531 120.106 82.5952 120.636C82.566 120.646 82.5358 120.652 82.5051 120.653ZM82.8353 95.8546V119.867C84.4896 119.364 86.0834 118.681 87.5877 117.828C91.3996 115.626 93.4969 112.718 93.4919 109.639V106.067C93.4844 102.993 91.3809 100.088 87.5689 97.8881C86.0704 97.0386 84.483 96.3567 82.8353 95.8546Z" fill="#141414"/>
<path d="M87.7614 114.549C95.863 109.872 95.8542 102.282 87.7426 97.5992C79.631 92.9169 66.4819 92.9106 58.3828 97.5892C50.2837 102.268 50.2887 109.855 58.4003 114.538C66.5119 119.22 79.6586 119.226 87.7614 114.549Z" fill="#86B2FF"/>
<path d="M73.0962 118.389C67.4883 118.389 62.2094 117.124 58.2336 114.828C54.1991 112.499 51.9805 109.384 51.9805 106.055C51.9805 102.726 54.1966 99.6216 58.2199 97.3004C62.1844 95.0105 67.4521 93.7499 73.0486 93.7499C78.6452 93.7499 83.9354 95.0143 87.9137 97.3104C91.9482 99.6404 94.1669 102.756 94.1669 106.085C94.1669 109.414 91.952 112.517 87.9287 114.839C83.9629 117.129 78.694 118.389 73.0962 118.389ZM73.0449 94.4177C67.5634 94.4177 62.4145 95.6471 58.5501 97.8782C54.7431 100.077 52.6458 102.981 52.6458 106.055C52.6458 109.129 54.7494 112.044 58.5675 114.249C62.4445 116.488 67.6034 117.72 73.0962 117.72C78.589 117.72 83.7266 116.49 87.5935 114.259C91.4004 112.062 93.4978 109.158 93.4978 106.084C93.4978 103.01 91.3929 100.094 87.5747 97.8895C83.6965 95.6508 78.5364 94.4177 73.0449 94.4177Z" fill="#141414"/>
<path d="M73.0709 121.57C73.0269 121.57 72.9834 121.561 72.9428 121.544C72.9022 121.527 72.8653 121.503 72.8343 121.472C72.8033 121.44 72.7787 121.403 72.762 121.363C72.7453 121.322 72.7368 121.279 72.737 121.235V118.403C72.7342 118.358 72.7407 118.312 72.7563 118.269C72.7718 118.226 72.796 118.187 72.8274 118.153C72.8587 118.12 72.8965 118.093 72.9385 118.075C72.9805 118.057 73.0258 118.048 73.0715 118.048C73.1172 118.048 73.1625 118.057 73.2045 118.075C73.2465 118.093 73.2843 118.12 73.3156 118.153C73.347 118.187 73.3711 118.226 73.3867 118.269C73.4022 118.312 73.4088 118.358 73.4061 118.403V121.235C73.4061 121.279 73.3974 121.322 73.3805 121.363C73.3637 121.404 73.339 121.44 73.3079 121.472C73.2767 121.503 73.2398 121.527 73.1991 121.544C73.1585 121.561 73.1149 121.57 73.0709 121.57ZM78.2565 121.378C78.1676 121.378 78.0824 121.343 78.0195 121.28C77.9567 121.217 77.9213 121.132 77.9213 121.043V118.18C77.9213 118.091 77.9567 118.005 78.0195 117.943C78.0824 117.88 78.1676 117.844 78.2565 117.844C78.3454 117.844 78.4307 117.88 78.4935 117.943C78.5564 118.005 78.5917 118.091 78.5917 118.18V121.043C78.591 121.132 78.5554 121.216 78.4926 121.279C78.4298 121.341 78.345 121.376 78.2565 121.376V121.378ZM80.6197 120.763C80.5759 120.763 80.5324 120.754 80.4919 120.738C80.4514 120.721 80.4146 120.696 80.3836 120.665C80.3526 120.634 80.328 120.597 80.3112 120.557C80.2944 120.516 80.2858 120.473 80.2858 120.429V117.508C80.283 117.462 80.2896 117.417 80.3051 117.374C80.3207 117.331 80.3449 117.291 80.3762 117.258C80.4075 117.225 80.4454 117.198 80.4873 117.18C80.5293 117.162 80.5746 117.152 80.6203 117.152C80.6661 117.152 80.7113 117.162 80.7533 117.18C80.7953 117.198 80.8331 117.225 80.8645 117.258C80.8958 117.291 80.92 117.331 80.9355 117.374C80.9511 117.417 80.9577 117.462 80.9549 117.508V120.429C80.9539 120.517 80.9181 120.602 80.8554 120.664C80.7926 120.726 80.7079 120.761 80.6197 120.761V120.763Z" fill="#141414"/>
<path d="M48.8711 140.546C45.8851 145.819 41.8084 149.795 37.6478 151.97C33.4834 154.148 29.2821 154.502 25.983 152.633C22.6838 150.765 20.8267 146.98 20.5523 142.288C20.2781 137.601 21.5915 132.06 24.5774 126.788C27.5633 121.516 31.6401 117.539 35.8007 115.364C39.9651 113.187 44.1664 112.833 47.4655 114.701C50.7646 116.57 52.6217 120.355 52.8962 125.046C53.1704 129.733 51.857 135.274 48.8711 140.546Z" fill="#0962FF" stroke="#141414" stroke-width="0.715876"/>
<mask id="path-80-inside-1_1237_7408" fill="white">
<path fill-rule="evenodd" clip-rule="evenodd" d="M29.789 119.521C27.7131 121.539 25.7996 124.001 24.1989 126.827C18.1692 137.474 18.859 149.264 25.7395 153.161C31.7382 156.558 40.4619 152.834 46.5953 144.769L23.2565 129.517L29.789 119.521Z"/>
</mask>
<path fill-rule="evenodd" clip-rule="evenodd" d="M29.789 119.521C27.7131 121.539 25.7996 124.001 24.1989 126.827C18.1692 137.474 18.859 149.264 25.7395 153.161C31.7382 156.558 40.4619 152.834 46.5953 144.769L23.2565 129.517L29.789 119.521Z" fill="#86B2FF"/>
<path d="M24.1989 126.827L24.8218 127.18L24.1989 126.827ZM29.789 119.521L30.3883 119.912L29.29 119.007L29.789 119.521ZM25.7395 153.161L25.3867 153.784L25.7395 153.161ZM46.5953 144.769L47.1651 145.202L47.6305 144.59L46.9869 144.169L46.5953 144.769ZM23.2565 129.517L22.6572 129.126L22.2656 129.725L22.8648 130.117L23.2565 129.517ZM24.8218 127.18C26.3902 124.411 28.2624 122.004 30.2881 120.034L29.29 119.007C27.1637 121.075 25.2091 123.591 23.576 126.475L24.8218 127.18ZM26.0923 152.538C22.9343 150.749 21.1127 147.101 20.8425 142.483C20.5729 137.875 21.8647 132.402 24.8218 127.18L23.576 126.475C20.5034 131.9 19.1252 137.645 19.4132 142.567C19.7007 147.481 21.6642 151.675 25.3867 153.784L26.0923 152.538ZM46.0255 144.335C43.0212 148.286 39.404 151.143 35.8456 152.601C32.2867 154.058 28.8473 154.098 26.0923 152.538L25.3867 153.784C28.6304 155.621 32.5522 155.497 36.3882 153.926C40.2247 152.354 44.036 149.317 47.1651 145.202L46.0255 144.335ZM46.9869 144.169L23.6481 128.918L22.8648 130.117L46.2037 145.368L46.9869 144.169ZM23.8557 129.909L30.3883 119.912L29.1898 119.129L22.6572 129.126L23.8557 129.909Z" fill="#141414" mask="url(#path-80-inside-1_1237_7408)"/>
<path d="M44.4051 138.658C41.3218 144.102 37.1122 148.208 32.816 150.454C28.5159 152.703 24.1777 153.068 20.771 151.139C17.3643 149.209 15.4467 145.301 15.1633 140.457C14.8801 135.617 16.2363 129.895 19.3196 124.451C22.4029 119.007 26.6125 114.901 30.9087 112.655C35.2088 110.407 39.547 110.041 42.9537 111.97C46.3604 113.9 48.278 117.808 48.5614 122.652C48.8446 127.492 47.4884 133.214 44.4051 138.658Z" fill="white" stroke="#141414" stroke-width="0.73921"/>
<path d="M27.4252 142.454L27.9823 139.915C25.9436 140.439 24.0561 140.55 23.0207 140.3L24.6296 136.902C26.0247 137.194 27.6857 137.083 29.4642 136.576C31.2105 136.063 32.5344 135.121 32.77 134.052C32.9905 133.039 32.1496 132.686 30.0244 132.697C26.9517 132.702 25.0049 132.027 25.567 129.434C26.085 127.081 28.3893 124.676 31.794 123.149L32.3477 120.611L35.3527 119.726L34.8381 122.079C36.3704 121.645 37.8196 121.499 39.0917 121.649L37.5265 124.932C36.2824 124.746 34.8424 124.876 33.3135 125.313C31.3199 125.902 30.5176 126.838 30.3451 127.592C30.152 128.474 31.1036 128.719 33.5246 128.804C36.9246 128.854 38.0763 129.888 37.5512 132.293C37.0261 134.698 34.6568 137.257 31.0062 138.848L30.41 141.573L27.4252 142.454Z" fill="#141414"/>
<path d="M41.3621 143.723L45.1942 146.534" stroke="#141414" stroke-width="0.517447"/>
<path d="M39.9904 145.257L43.7255 148.048" stroke="#141414" stroke-width="0.517447"/>
</svg>
