<svg width="148" height="160" viewBox="0 0 148 160" fill="none" xmlns="http://www.w3.org/2000/svg">
<line y1="-0.0906577" x2="37.7839" y2="-0.0906577" transform="matrix(0.863783 -0.503864 0.503878 0.863774 100.375 94.2798)" stroke="white" stroke-width="0.181315"/>
<rect x="0.625547" width="80.1771" height="80.1771" rx="8.30663" transform="matrix(0.86603 -0.499993 0.86603 0.499993 7.44318 119.864)" fill="#141414" stroke="#0962FF" stroke-width="0.722316"/>
<rect x="0.625547" width="80.1771" height="80.1771" rx="8.30663" transform="matrix(0.86603 -0.499993 0.86603 0.499993 7.44318 111.919)" fill="#86B2FF" stroke="#0962FF" stroke-width="0.722316"/>
<rect opacity="0.3" width="48.4028" height="43.3537" rx="21.6768" transform="matrix(-0.86603 -0.499993 -0.86603 0.499993 115.379 110.136)" fill="#141414"/>
<path d="M12.0742 119.177V111.577C12.0742 112.419 12.8688 114.538 16.047 116.272C19.2252 118.005 20.2605 118.679 20.3809 118.8V126.601L13.88 122.772C13.5413 122.518 12.9285 121.943 12.4942 121.221C12.1288 120.614 12.0742 119.886 12.0742 119.177Z" fill="#0962FF" stroke="#0962FF" stroke-width="0.722312"/>
<path d="M142.6 111.577V119.883" stroke="#0962FF" stroke-width="0.722312"/>
<path d="M69.5 147.331V154.915" stroke="#0962FF" stroke-width="0.722312"/>
<path d="M85.3906 146.97V154.915" stroke="#0962FF" stroke-width="0.722312"/>
<path d="M137.757 119.918V116.994C137.757 116.994 139.662 116.083 140.646 115.188C141.468 114.442 142.338 112.857 142.672 112.216C142.707 112.148 142.813 112.174 142.813 112.251V118.626C142.813 119.696 142.7 120.81 142.091 121.689C141.315 122.81 140.054 123.476 138.873 124.158L98.752 147.331L135.025 124.829C136.724 123.775 137.757 121.917 137.757 119.918Z" fill="#0962FF" stroke="#0962FF" stroke-width="0.722312"/>
<path d="M25.7988 129.779V122.195L31.5774 125.806V133.029L25.7988 129.779Z" fill="#0962FF" stroke="#0962FF" stroke-width="0.722312"/>
<circle cx="76.2185" cy="67.6076" r="43.2311" stroke="#0962FF" stroke-width="0.73273"/>
<path d="M78.3457 31.5102C80.1999 31.2393 82.0931 31.0993 84.0169 31.0993C94.4892 31.0993 103.869 35.2464 111.168 42.0873" stroke="#0962FF" stroke-width="0.708901"/>
<path d="M77.5201 30.6626C78.5034 29.6273 79.5869 28.6813 80.7705 27.8358C82.1335 26.8622 83.5743 26.061 85.0792 25.4253" stroke="#0962FF" stroke-width="0.708901"/>
<path d="M73.6002 30.5222C72.5784 29.5248 71.4599 28.6206 70.2451 27.8204C68.8463 26.899 67.3762 26.153 65.8483 25.5746" stroke="#0962FF" stroke-width="0.708901"/>
<path d="M72.8867 32.2187C71.0325 31.9478 69.1393 31.8078 67.2155 31.8078C59.2049 31.8078 50.9079 32.4104 43.6091 39.2513" stroke="#0962FF" stroke-width="0.708901"/>
<path d="M33.1172 63.7086C38.2586 79.3044 58.3499 87.1023 75.5095 87.1023C93.6516 87.1023 117.367 78.2411 118.894 60.873" stroke="#0962FF" stroke-width="0.708901"/>
<path d="M35.2422 81.0766C45.7369 92.0646 60.4194 97.7358 76.2197 97.7358C91.915 97.7358 106.702 91.7102 117.336 80.3677" stroke="#0962FF" stroke-width="0.708901"/>
<path d="M41.8359 93.9518C50.9883 101.6 63.028 106.243 76.2176 106.243C89.269 106.243 101.194 101.696 110.311 94.1913" stroke="#0962FF" stroke-width="0.708901"/>
<path d="M36.2383 51.477C37.4887 65.0259 54.5928 75.7599 75.5091 75.7599C97.2382 75.7599 114.853 64.1753 114.853 49.885C114.853 49.2121 114.814 48.5452 114.737 47.8852" stroke="#0962FF" stroke-width="0.73273"/>
<path d="M44.7836 37.8338C43.7901 39.7342 43.2539 41.7587 43.2539 43.8594C43.2539 54.8219 57.8537 63.7087 75.8634 63.7087C93.8731 63.7087 108.473 54.8219 108.473 43.8594C108.473 41.1643 107.59 38.5946 105.992 36.2515" stroke="#0962FF" stroke-width="0.73273"/>
<path d="M88.2576 33.9344C88.2576 35.9119 86.9446 37.7614 84.6955 39.1358C82.4528 40.5064 79.3312 41.366 75.8637 41.366C72.3963 41.366 69.2747 40.5064 67.0319 39.1358C64.7829 37.7614 63.4699 35.9119 63.4699 33.9344C63.4699 31.957 64.7829 30.1075 67.0319 28.7331C69.2747 27.3625 72.3963 26.5029 75.8637 26.5029C79.3312 26.5029 82.4528 27.3625 84.6955 28.7331C86.9446 30.1075 88.2576 31.957 88.2576 33.9344Z" stroke="#0962FF" stroke-width="0.73273"/>
<path d="M56.2561 29.8633C56.4085 29.7302 56.4242 29.4988 56.2911 29.3464C56.158 29.194 55.9265 29.1784 55.7741 29.3115L56.2561 29.8633ZM99.6006 37.8336C99.6006 41.6683 97.021 45.2017 92.7183 47.7959C88.4227 50.3859 82.4648 51.9998 75.8644 51.9998V52.7325C82.5754 52.7325 88.6688 51.0931 93.0967 48.4234C97.5175 45.7579 100.333 42.025 100.333 37.8336H99.6006ZM75.8644 51.9998C69.2639 51.9998 63.306 50.3859 59.0104 47.7959C54.7078 45.2017 52.1281 41.6683 52.1281 37.8336H51.3954C51.3954 42.025 54.2112 45.7579 58.632 48.4234C63.0599 51.0931 69.1533 52.7325 75.8644 52.7325V51.9998ZM52.1281 37.8336C52.1281 34.9059 53.6287 32.1581 56.2561 29.8633L55.7741 29.3115C53.0366 31.7024 51.3954 34.6368 51.3954 37.8336H52.1281ZM93.7955 28.5653C97.4498 31.0812 99.6006 34.3308 99.6006 37.8336H100.333C100.333 34.0059 97.9832 30.5588 94.211 27.9617L93.7955 28.5653Z" fill="#0962FF"/>
<path d="M78.3457 32.9671C88.7575 34.7303 98.0252 41.4823 104.793 49.8848C111.918 58.7315 116.272 69.1433 116.272 82.1398C116.272 82.8523 116.259 83.5613 116.233 84.2665" stroke="#0962FF" stroke-width="0.73273"/>
<path d="M73.0287 32.5169C52.0879 38.1263 36.3381 57.0464 34.748 80.0133" stroke="#0962FF" stroke-width="0.863787"/>
<path d="M73.9171 33.6941C55.6999 46.4859 44.6727 81.4311 53.8003 104.72" stroke="#0962FF" stroke-width="0.863787"/>
<path d="M77.6692 33.6938C95.8864 46.4856 108.475 86.57 96.3682 105.959" stroke="#0962FF" stroke-width="0.708901"/>
<path d="M76.2848 33.9348C84.3695 56.9741 88.2686 108.369 81.0148 110.644" stroke="#0962FF" stroke-width="0.708901"/>
<path d="M75.0863 33.9347C67.0016 56.974 63.1025 108.369 70.3563 110.644" stroke="#0962FF" stroke-width="0.708901"/>
<path d="M78.346 32.1626C78.346 33.2594 77.1645 34.2893 75.5104 34.2893C73.8562 34.2893 72.6748 33.2594 72.6748 32.1626C72.6748 31.0658 73.8562 30.0359 75.5104 30.0359C77.1645 30.0359 78.346 31.0658 78.346 32.1626Z" stroke="#0962FF" stroke-width="0.708901"/>
<line x1="75.5108" y1="29.6815" x2="75.5108" y2="24.7191" stroke="#0962FF" stroke-width="0.708901"/>
<circle cx="115.629" cy="71.0703" r="3.43003" fill="white"/>
<circle cx="33.5824" cy="34.3004" r="3.43003" fill="white"/>
<circle cx="36.5995" cy="71.0703" r="2.19522" fill="#86B2FF"/>
<circle cx="58.5526" cy="108.389" r="2.19522" fill="#86B2FF"/>
<circle cx="100.262" cy="38.142" r="2.74402" fill="#86B2FF"/>
<circle cx="69.2537" cy="62.5638" r="4.21482" fill="white" stroke="#141414" stroke-width="0.351235"/>
<circle cx="102.045" cy="102.215" r="4.21482" fill="white" stroke="#141414" stroke-width="0.351235"/>
<rect x="0.11882" y="0.0686006" width="24.1474" height="18.6594" rx="2.05802" transform="matrix(0.866025 -0.5 2.20305e-08 1 103.158 12.2703)" fill="#0962FF" fill-opacity="0.3" stroke="#86B2FF" stroke-width="0.274402"/>
<rect x="0.11882" y="0.0686006" width="15.2514" height="12.1313" rx="2.05802" transform="matrix(0.866025 -0.5 2.20305e-08 1 119.897 57.9008)" fill="#0962FF" fill-opacity="0.3" stroke="#86B2FF" stroke-width="0.274402"/>
<rect x="0.11882" y="0.0686006" width="15.2514" height="12.1313" rx="2.05802" transform="matrix(0.866025 -0.5 2.20305e-08 1 52.1194 54.3336)" fill="#0962FF" fill-opacity="0.3" stroke="#86B2FF" stroke-width="0.274402"/>
<rect x="0.11882" y="0.0686006" width="33.9457" height="22.3813" rx="2.05802" transform="matrix(0.866025 -0.5 2.20305e-08 1 0.531544 24.0697)" fill="#0962FF" fill-opacity="0.3" stroke="#86B2FF" stroke-width="0.274402"/>
<rect x="0.11882" y="0.0686006" width="14.3008" height="9.18264" rx="2.05802" transform="matrix(0.866025 -0.5 2.20305e-08 1 21.9358 67.5783)" fill="#0962FF" fill-opacity="0.3" stroke="#86B2FF" stroke-width="0.274402"/>
</svg>
