<svg width="155" height="160" viewBox="0 0 155 160" fill="none" xmlns="http://www.w3.org/2000/svg">
<rect x="0.690062" width="88.4461" height="88.4461" rx="9.16333" transform="matrix(0.86603 -0.499993 0.86603 0.499993 0.426432 115.023)" fill="#141414" stroke="#0962FF" stroke-width="0.796811"/>
<rect x="0.690062" width="88.4461" height="88.4461" rx="9.16333" transform="matrix(0.86603 -0.499993 0.86603 0.499993 0.426432 106.259)" fill="#86B2FF" stroke="#0962FF" stroke-width="0.796811"/>
<rect opacity="0.3" width="4.60714" height="67.9805" rx="2" transform="matrix(-0.86603 -0.499993 -0.86603 0.499993 106.109 85.6967)" fill="#141414"/>
<path d="M5.53516 114.266V105.882C5.53516 106.811 6.41165 109.148 9.91764 111.061C13.4236 112.973 14.5657 113.717 14.6985 113.85V122.455L7.52719 118.232C7.1535 117.952 6.4775 117.317 5.99849 116.521C5.59534 115.851 5.53516 115.048 5.53516 114.266Z" fill="#0962FF" stroke="#0962FF" stroke-width="0.796807"/>
<path d="M149.521 105.882V115.045" stroke="#0962FF" stroke-width="0.796807"/>
<path d="M68.8828 145.323V153.69" stroke="#0962FF" stroke-width="0.796807"/>
<path d="M86.4121 144.925V153.689" stroke="#0962FF" stroke-width="0.796807"/>
<path d="M144.18 115.083V111.858C144.18 111.858 146.281 110.853 147.368 109.866C148.274 109.042 149.234 107.294 149.602 106.587C149.641 106.512 149.758 106.541 149.758 106.625V113.658C149.758 114.838 149.633 116.067 148.961 117.037C148.105 118.274 146.714 119.008 145.411 119.761L101.152 145.323L141.166 120.5C143.04 119.338 144.18 117.289 144.18 115.083Z" fill="#0962FF" stroke="#0962FF" stroke-width="0.796807"/>
<path d="M20.6758 125.961V117.595L27.0503 121.579V129.547L20.6758 125.961Z" fill="#0962FF" stroke="#0962FF" stroke-width="0.796807"/>
<rect opacity="0.3" x="0.269716" y="0.15572" width="72.7397" height="71.8715" rx="4.67161" transform="matrix(0.866025 -0.5 2.20305e-08 1 49.8525 39.2365)" fill="#0962FF" stroke="#86B2FF" stroke-width="0.622881"/>
<mask id="mask0_1237_7507" style="mask-type:luminance" maskUnits="userSpaceOnUse" x="67" y="37" width="33" height="53">
<path d="M83.5798 55.8894C84.4297 55.3987 85.2714 54.7194 86.0566 53.8905C86.8419 53.0615 87.5554 52.0991 88.1564 51.0581C88.7574 50.0171 89.2342 48.918 89.5594 47.8234C89.8847 46.7289 90.0521 45.6604 90.0521 44.679C90.0521 43.6975 89.8847 42.8223 89.5594 42.1034C89.2342 41.3844 88.7574 40.8358 88.1564 40.4888C87.5554 40.1418 86.8419 40.0032 86.0566 40.081C85.2714 40.1588 84.4297 40.4514 83.5798 40.9421C81.8632 41.9332 80.2169 43.6711 79.0031 45.7734C77.7893 47.8758 77.1074 50.1705 77.1074 52.1526C77.1074 54.1347 77.7893 55.642 79.0031 56.3427C80.2169 57.0435 81.8632 56.8805 83.5798 55.8894Z" fill="white" stroke="white" stroke-width="4.27064" stroke-linecap="round" stroke-linejoin="round"/>
<path d="M69.7109 86.1042L69.7109 87.3854L97.4496 71.3705L97.4496 70.0893C97.4496 65.3061 97.4496 62.9146 96.6433 61.5522C95.9341 60.3546 94.8026 59.7013 93.4108 59.686C91.8279 59.6689 89.7567 60.8647 85.6144 63.2562L81.5461 65.6051C77.4038 67.9966 75.3326 69.1924 73.7497 71.0373C72.3579 72.6597 71.2264 74.6196 70.5172 76.6362C69.7109 78.9295 69.7109 81.321 69.7109 86.1042Z" fill="white" stroke="white" stroke-width="4.27064" stroke-linecap="round" stroke-linejoin="round"/>
</mask>
<g mask="url(#mask0_1237_7507)">
<path d="M66.0137 44.679L110.395 19.0551L110.395 70.3028L66.0137 95.9267L66.0137 44.679Z" fill="#86B2FF"/>
</g>
<rect x="1.61829" y="0.934322" width="82.6573" height="82.6573" rx="3.11441" transform="matrix(0.866025 -0.5 2.20305e-08 1 62.8242 44.7075)" stroke="white" stroke-width="3.73729" stroke-dasharray="49.83 49.83"/>
</svg>
