<svg width="76" height="81" viewBox="0 0 76 81" fill="none" xmlns="http://www.w3.org/2000/svg">
<circle cx="38.0003" cy="43.2585" r="36.8603" fill="#060606" stroke="#0962FF" stroke-width="0.635522"/>
<path d="M41.5187 13.7151L41.5049 16.9247L42.2795 16.9273L42.2934 13.7178L41.5187 13.7151Z" fill="#141414"/>
<path d="M43.4904 15.7057L43.4766 18.9153L44.2512 18.9179L44.265 15.7084L43.4904 15.7057Z" fill="#141414"/>
<path d="M47.6909 15.7278L47.6777 18.9314L48.4524 18.9339L48.4656 15.7303L47.6909 15.7278Z" fill="#141414"/>
<path d="M50.6212 15.1916L50.6074 18.3952L51.3821 18.3979L51.3959 15.1942L50.6212 15.1916Z" fill="#141414"/>
<path d="M46.8108 10.0109H46.0361V12.5178H46.8108V10.0109Z" fill="#141414"/>
<path d="M15.6774 3.52623C15.6671 3.50384 15.6662 3.47892 15.6748 3.45599C15.6833 3.43305 15.7009 3.41361 15.7241 3.40118L20.3521 0.87637C20.5658 0.709638 20.9197 0.739413 21.2804 1.01333L23.0033 2.29955C23.0901 2.36505 31.4512 8.5282 40.6805 7.0157C40.8754 6.99141 41.0732 6.99141 41.2682 7.0157C42.3848 7.19588 43.3958 7.71822 44.1264 8.49247C44.3434 8.70198 44.5463 8.92269 44.7342 9.15345C53.6028 19.9017 62.0574 22.504 62.4113 22.6111L64.1209 23.0994C64.4461 23.2358 64.7225 23.45 64.9194 23.718C65.1163 23.9861 65.2259 24.2976 65.2362 24.6179L65.2028 26.4043C64.7954 49.5027 57.583 58.4943 51.5926 61.9779L45.983 65.0326L45.609 64.0441C44.9466 64.1369 44.2748 64.1648 43.6055 64.1275C42.9185 64.0203 42.2963 63.6996 41.8492 63.2224C41.0745 62.484 24.5193 46.4241 20.9064 13.8875L18.3486 8.98076L15.6774 3.52623Z" fill="#141414"/>
<path d="M45.3099 64.3953C44.712 64.463 44.1082 64.479 43.5068 64.443C42.7237 64.3249 42.0133 63.9618 41.5034 63.4188C40.7955 62.7459 24.1067 46.5966 20.4671 13.9469L17.9895 9.11758L15.3182 3.66304C15.2717 3.56617 15.2657 3.45763 15.3012 3.35712C15.3367 3.25661 15.4115 3.17079 15.5119 3.11521L20.1198 0.602312C20.335 0.475554 20.5939 0.421499 20.8498 0.449886C21.1057 0.478273 21.3418 0.587235 21.5156 0.757136L23.2385 2.04336C23.5725 2.29346 31.6664 8.14695 40.6018 6.68209C40.8346 6.65509 41.0703 6.65509 41.303 6.68209C42.5126 6.86893 43.6097 7.42973 44.4017 8.26605C44.6154 8.47447 44.8291 8.7067 45.0695 8.9568C53.858 19.6158 62.1991 22.1823 62.5463 22.2894L64.2626 22.7777C64.6652 22.939 65.0085 23.1985 65.2531 23.5261C65.4977 23.8537 65.6335 24.2362 65.645 24.6296L65.6116 26.4161C65.1976 49.6395 57.885 58.7443 51.8145 62.2755L45.7307 65.5148L45.3099 64.3953ZM40.7153 7.34902C31.4393 8.86748 23.0783 2.82343 22.7243 2.58524L21.0214 1.2752C20.8077 1.11442 20.6407 1.0906 20.6007 1.13228L16.0929 3.58563L18.684 8.84366L21.1817 13.7206L21.2151 13.8278C24.8213 46.287 41.3498 62.2933 42.071 62.9722C42.4603 63.3866 42.9982 63.6685 43.5936 63.7701C44.2385 63.8047 44.8856 63.7768 45.5237 63.6867L45.8375 63.645L46.1648 64.5025L51.3537 61.674C57.2572 58.2381 64.3829 49.3299 64.7902 26.3803V24.5939C64.7778 24.3459 64.6922 24.1052 64.5422 23.8961C64.3921 23.687 64.1828 23.5169 63.9354 23.403L62.2258 22.9087C61.8652 22.8015 53.2971 20.1636 44.3617 9.33195C44.168 9.10567 43.9743 8.8913 43.7806 8.7067C43.1138 7.99379 42.1915 7.50792 41.1695 7.33116H41.0559C40.9421 7.32985 40.8283 7.33582 40.7153 7.34902Z" fill="#141414"/>
<path d="M20.3521 0.87637C20.5658 0.709638 20.9197 0.739413 21.2804 1.01333L23.0033 2.29955C23.0901 2.36505 31.4512 8.5282 40.6805 7.0157C40.8754 6.99142 41.0732 6.99142 41.2682 7.0157C42.3848 7.19588 43.3958 7.71822 44.1264 8.49247C44.3434 8.70198 44.5463 8.92269 44.7342 9.15345C53.6028 19.9017 62.0574 22.504 62.4113 22.6111L64.1209 23.0994C64.4646 23.2254 64.7498 23.4523 64.929 23.7425L51.0116 30.781L21.6877 19.7469C21.3672 17.8493 21.0934 15.8843 20.8663 13.8517L18.3486 8.98076L15.6774 3.52623C15.6671 3.50384 15.6662 3.47892 15.6748 3.45599C15.6833 3.43305 15.7009 3.41361 15.7241 3.40118L20.3521 0.87637Z" fill="white"/>
<path d="M21.3074 19.9849L21.274 19.7944C20.9535 17.871 20.6797 15.9059 20.4593 13.9468L17.9817 9.11752L15.3104 3.65703C15.2639 3.56016 15.2578 3.45162 15.2934 3.35111C15.3289 3.2506 15.4036 3.16477 15.5041 3.1092L20.112 0.596304C20.3272 0.469546 20.586 0.415487 20.8419 0.443874C21.0979 0.472261 21.334 0.581223 21.5078 0.751124L23.2307 2.03735C23.5646 2.28745 31.6586 8.14095 40.594 6.67608C40.8268 6.64909 41.0625 6.64909 41.2952 6.67608C42.5048 6.86292 43.6019 7.42372 44.3939 8.26004C44.6076 8.46845 44.8213 8.70069 45.0617 8.95079C53.8502 19.6098 62.1913 22.1762 62.5385 22.2834L64.2548 22.7717C64.6818 22.9257 65.0391 23.2023 65.2699 23.5577L65.4769 23.8614L51.0521 31.1619L21.3074 19.9849ZM63.9677 23.4029L62.2581 22.9087C61.8974 22.8015 53.3293 20.1635 44.3939 9.33189C44.2002 9.10561 44.0066 8.89124 43.8129 8.70664C43.1461 7.99373 42.2238 7.50787 41.2017 7.3311C41.0398 7.31341 40.8761 7.31341 40.7142 7.3311C31.4382 8.84956 23.0771 2.80551 22.7232 2.56732L21.0202 1.27514C20.8065 1.11436 20.6396 1.09054 20.5995 1.13223L16.0917 3.58558L18.6829 8.8436L21.1805 13.7205L21.2139 13.8277C21.4276 15.7273 21.6881 17.6387 22.0019 19.5085L50.9519 30.3819L64.3083 23.6173C64.2151 23.5231 64.0984 23.4497 63.9677 23.4029Z" fill="#141414"/>
<path d="M37.0491 65.7769C36.1943 64.9671 16.1263 45.4832 15.4385 5.80089V3.96684C15.4385 3.37136 15.9794 3.1689 16.5604 3.60955L18.2834 4.89577C18.3702 4.96127 26.7246 11.1244 35.9539 9.61192C36.151 9.58777 36.351 9.58777 36.5482 9.61192C37.6635 9.79101 38.6727 10.3137 39.3998 11.0887C39.6186 11.2984 39.8237 11.5191 40.0142 11.7497C48.8828 22.4682 57.3307 25.1002 57.6847 25.2014L59.401 25.6956C59.7248 25.8337 59.9999 26.0482 60.1965 26.3159C60.3932 26.5836 60.5037 26.8943 60.5162 27.2141L60.4828 29.0005C59.815 67.9742 39.727 66.7952 38.8722 66.7237C38.1883 66.6137 37.5691 66.2935 37.1225 65.8186L37.0491 65.7769ZM54.8665 28.7504C51.1067 26.8925 45.0095 23.0696 38.6518 15.7929C38.4957 15.5714 38.2817 15.3869 38.0282 15.2552C37.7747 15.1235 37.4891 15.0485 37.196 15.0367C30.7315 15.6977 24.7145 13.2919 21.0081 11.3209C20.5206 11.0649 20.1332 11.2852 20.1599 11.7914C21.4956 38.5876 32.0137 54.2367 36.6618 59.9056C37.4298 60.8405 38.8322 62.0493 39.5935 61.8944C44.2148 60.9655 54.3723 55.3442 55.7213 30.1021C55.7111 29.8287 55.6246 29.5619 55.4695 29.3258C55.3144 29.0898 55.0956 28.892 54.8331 28.7504H54.8665Z" fill="#86B2FF"/>
<path d="M38.7521 67.0392C37.9694 66.9278 37.258 66.5684 36.7486 66.0269C35.8938 65.2111 15.7257 45.632 15.0312 5.81866L14.9978 3.9846C14.9789 3.80923 15.0182 3.63279 15.1108 3.47717C15.2034 3.32155 15.3452 3.19361 15.5187 3.10925C15.7294 3.03833 15.9589 3.02422 16.1786 3.06869C16.3982 3.11316 16.5984 3.21424 16.7541 3.35935L18.4704 4.64557C18.811 4.89567 26.905 10.7432 35.8337 9.28431C36.0553 9.25676 36.28 9.25676 36.5015 9.28431C37.7133 9.4657 38.8124 10.0275 39.6002 10.8683C39.8383 11.0862 40.0614 11.3169 40.268 11.559C49.0632 22.218 57.4043 24.7845 57.7515 24.8917L59.4611 25.3799C59.8637 25.5397 60.2072 25.7979 60.4519 26.1246C60.6966 26.4513 60.8324 26.8332 60.8435 27.2259V29.0123C60.4696 50.0266 54.3724 59.2624 49.317 63.3116C45.0496 66.7296 40.9158 67.0869 39.3732 67.0869C39.0526 67.0571 38.8389 67.0452 38.7521 67.0392ZM35.9606 9.94528C26.6846 11.4637 18.3235 5.41969 17.9696 5.1815L16.2466 3.89528C16.0396 3.74045 15.886 3.71664 15.8326 3.74046C15.7791 3.76427 15.7524 3.84168 15.7524 3.9846L15.7858 5.81866C16.4536 45.3759 36.4481 64.7705 37.2962 65.5684C37.6855 65.9829 38.2234 66.2647 38.8189 66.3663C39.0259 66.3663 43.8208 66.7177 48.7427 62.7935C53.6645 58.8693 59.6481 49.7586 60.0154 28.9945V27.208C60.0064 26.96 59.923 26.7187 59.7738 26.5093C59.6246 26.2998 59.4152 26.1299 59.1673 26.0171L57.451 25.5229C57.0904 25.4157 48.529 22.7777 39.5935 11.9461C39.4244 11.732 39.2439 11.5254 39.0526 11.3268C38.3858 10.6149 37.4632 10.131 36.4414 9.95719H36.2745C36.1705 9.94414 36.0654 9.94015 35.9606 9.94528ZM36.3212 60.1079C31.7867 54.5819 21.1016 38.8019 19.746 11.8091C19.7225 11.6476 19.7501 11.4834 19.8256 11.3351C19.9011 11.1867 20.0216 11.0601 20.1734 10.9695C20.3291 10.896 20.5046 10.8627 20.6804 10.8732C20.8561 10.8837 21.0251 10.9377 21.1684 11.029C24.9817 13.0537 30.8384 15.3403 37.1159 14.6972C37.4754 14.7003 37.8283 14.7831 38.143 14.9379C38.4577 15.0928 38.7244 15.3149 38.919 15.5844C45.1498 22.7301 51.1134 26.5173 55.0202 28.4526C55.3391 28.6289 55.6031 28.8741 55.7875 29.1656C55.972 29.457 56.0709 29.7853 56.0753 30.1199C54.6261 57.1306 43.133 61.5252 39.647 62.2278C39.5738 62.2366 39.4997 62.2366 39.4266 62.2278C38.3848 62.2516 36.9557 60.882 36.3212 60.1079ZM55.3073 30.0842C55.2956 29.8775 55.229 29.6763 55.1128 29.4972C54.9967 29.3181 54.8345 29.1662 54.6395 29.054C50.6727 27.083 44.6222 23.2243 38.3113 16.0072C37.8973 15.5368 37.4699 15.3462 37.1961 15.376C30.7182 16.037 24.6811 13.6968 20.7677 11.6126C20.6408 11.5471 20.5674 11.5531 20.5607 11.559C20.554 11.565 20.5006 11.6364 20.5073 11.7793C21.8429 38.5756 32.4412 54.2247 36.9289 59.709C37.7904 60.751 39.0192 61.6502 39.4667 61.5609C42.8057 60.882 53.8849 56.6125 55.3006 30.0842H55.3073Z" fill="#141414"/>
<path d="M20.9744 11.3269C24.6808 13.2979 30.6979 15.7036 37.1624 15.0427C37.4555 15.0545 37.741 15.1295 37.9946 15.2612C38.2481 15.3929 38.4621 15.5774 38.6182 15.7989C44.9758 23.0756 51.073 26.8985 54.8328 28.7564C55.0892 28.9015 55.3013 29.1008 55.4504 29.3366C55.5995 29.5725 55.681 29.8375 55.6876 30.1081C54.352 55.374 44.1811 60.9715 39.5598 61.9004C38.7985 62.0552 37.3961 60.8464 36.6281 59.9115C31.9534 54.2426 21.4686 38.5996 20.1263 11.7973C20.0996 11.2852 20.4869 11.0649 20.9744 11.3269Z" fill="#86B2FF"/>
<path d="M20.9744 11.3269C21.6422 11.6901 22.4102 12.0653 23.2383 12.4345C24.8144 38.5281 35.0854 53.8139 39.6667 59.4054C40.2359 60.1133 40.9495 60.7194 41.7703 61.1918C41.0653 61.499 40.3238 61.7347 39.5598 61.8944C38.7985 62.0493 37.3961 60.8405 36.6281 59.9056C31.9534 54.2367 21.4686 38.5936 20.1263 11.7913C20.0996 11.2852 20.4869 11.0649 20.9744 11.3269Z" fill="#141414"/>
<path d="M36.3197 60.1079C31.7852 54.582 21.1001 38.8079 19.7444 11.8091C19.721 11.6476 19.7486 11.4834 19.8241 11.3351C19.8996 11.1867 20.02 11.0601 20.1718 10.9695C20.3275 10.8961 20.5031 10.8627 20.6788 10.8732C20.8546 10.8838 21.0236 10.9377 21.1669 11.0291C21.8948 11.4102 22.6495 11.7794 23.4041 12.1188L23.6044 12.2081V12.4106C25.1872 38.5637 35.5717 53.8436 39.9593 59.1969C40.5045 59.8675 41.1837 60.4428 41.9628 60.894L42.6306 61.2155L41.9628 61.5014C41.2317 61.8182 40.4634 62.0618 39.6721 62.2278C39.599 62.2366 39.5249 62.2366 39.4518 62.2278C38.3833 62.2516 36.9541 60.8821 36.3197 60.1079ZM39.3516 59.6018C34.9373 54.2425 24.4993 38.8615 22.8632 12.6428C22.1553 12.3212 21.4541 11.9759 20.7729 11.6126C20.646 11.5471 20.5725 11.5531 20.5659 11.559C20.5592 11.565 20.5057 11.6364 20.5124 11.7794C21.8481 38.5756 32.4463 54.2247 36.9408 59.709C37.7956 60.7511 39.031 61.6502 39.4718 61.5609C39.9905 61.456 40.4977 61.3106 40.9877 61.1262C40.3722 60.6819 39.8224 60.1697 39.3516 59.6018Z" fill="#0962FF"/>
<path d="M64.7093 23.4046L59.8477 25.8642L60.2266 26.4598L65.0883 24.0002L64.7093 23.4046Z" fill="#141414"/>
<path d="M61.7532 22.1753L56.8916 24.6349L57.2706 25.2305L62.1322 22.7709L61.7532 22.1753Z" fill="#141414"/>
<path d="M41.7771 6.87854L36.915 9.33737L37.2939 9.93303L42.156 7.4742L41.7771 6.87854Z" fill="#141414"/>
<path d="M45.7537 10.4448L40.8916 12.9036L41.2705 13.4993L46.1326 11.0405L45.7537 10.4448Z" fill="#141414"/>
<path d="M22.7163 1.84868L17.5791 4.57281L17.9717 5.16139L23.1088 2.43726L22.7163 1.84868Z" fill="#141414"/>
<path d="M60.6816 33.6094L64.4815 31.567L64.5216 30.7512L60.6883 32.8115L60.6816 33.6094Z" fill="#0962FF"/>
<path d="M54.3301 57.1545L58.13 55.112L58.8111 53.939L54.9845 55.9993L54.3301 57.1545Z" fill="#0962FF"/>
<path d="M31.5451 9.9155L36.527 7.45619L36.1597 6.86072L30.0625 9.8619L31.5451 9.9155Z" fill="#141414"/>
<path d="M38.9381 58.1617L36.4746 59.5232L36.8792 60.1053L39.3427 58.7438L38.9381 58.1617Z" fill="#0962FF"/>
<path d="M23.7574 15.0668L20.7432 16.7426L21.1502 17.3247L24.1644 15.6489L23.7574 15.0668Z" fill="#0962FF"/>
<path d="M23.7403 18.6208L20.7344 20.2982L21.1418 20.8787L24.1478 19.2012L23.7403 18.6208Z" fill="#0962FF"/>
<path d="M36.3197 60.1079C31.7852 54.582 21.1001 38.8079 19.7444 11.8091C19.721 11.6476 19.7486 11.4834 19.8241 11.3351C19.8996 11.1867 20.02 11.0601 20.1718 10.9695C20.3275 10.8961 20.5031 10.8627 20.6788 10.8732C20.8546 10.8838 21.0236 10.9377 21.1669 11.0291C24.9801 13.0537 30.8369 15.3403 37.1144 14.6972C37.4739 14.7004 37.8268 14.7831 38.1415 14.938C38.4562 15.0928 38.7229 15.315 38.9175 15.5844C45.1483 22.7301 51.1119 26.5173 55.0186 28.4526C55.3376 28.6289 55.6015 28.8742 55.786 29.1656C55.9704 29.4571 56.0694 29.7853 56.0738 30.1199C54.6246 57.1306 43.1315 61.5252 39.6454 62.2278C39.5723 62.2366 39.4982 62.2366 39.4251 62.2278C38.3833 62.2516 36.9541 60.8821 36.3197 60.1079ZM37.2012 15.376C30.7234 16.037 24.6863 13.6968 20.7729 11.6126C20.646 11.5471 20.5725 11.5531 20.5659 11.559C20.5592 11.565 20.5057 11.6364 20.5124 11.7794C21.8481 38.5756 32.4463 54.2247 36.9408 59.709C37.7956 60.7511 39.031 61.6502 39.4718 61.5609C42.8109 60.8821 53.89 56.6125 55.3058 30.0842C55.2941 29.8776 55.2274 29.6764 55.1113 29.4972C54.9952 29.3181 54.8329 29.1662 54.638 29.054C50.6711 27.083 44.6207 23.2244 38.3098 16.0072C38.1916 15.8421 38.0362 15.7006 37.8534 15.592C37.6706 15.4833 37.4644 15.4098 37.248 15.376H37.2012Z" fill="#141414"/>
<path d="M47.068 35.503C47.0618 35.1951 46.9753 34.8928 46.8153 34.6199C46.6554 34.3471 46.4263 34.1112 46.1464 33.9309L35.5147 28.4585C35.4383 28.4124 35.3512 28.382 35.26 28.3697C35.1687 28.3573 35.0755 28.3633 34.9871 28.387C34.2075 28.4669 33.4563 28.6955 32.7845 29.0571C32.1127 29.4188 31.5361 29.9051 31.0938 30.4831L34.5931 36.1401V36.6582C34.5931 38.7364 36.0089 41.1421 37.7519 42.0174L38.4732 42.3866L41.6052 47.46C43.4484 47.2397 45.2849 45.9118 46.0729 45.2747C46.163 45.2195 46.2459 45.1556 46.32 45.0841L46.4803 44.9352C46.9005 44.3839 47.1069 43.7252 47.068 43.0595V35.503Z" fill="white"/>
<path d="M41.4088 47.8591L38.2032 42.6665L37.5755 42.339C35.6922 41.3744 34.2364 38.8793 34.2364 36.6582V36.2295L30.6836 30.4772L30.7904 30.3105C31.257 29.6896 31.8685 29.1659 32.5832 28.7754C33.2978 28.3848 34.0987 28.1366 34.9309 28.0477C35.0669 28.0144 35.2093 28.0073 35.3486 28.0268C35.4879 28.0463 35.621 28.092 35.739 28.1608L46.3706 33.6332C46.7103 33.843 46.9887 34.1222 47.1827 34.4475C47.3767 34.7727 47.4807 35.1346 47.4859 35.503V43.0834C47.5277 43.8267 47.293 44.5614 46.8181 45.1735L46.6311 45.3462C46.5418 45.4381 46.4384 45.5182 46.3239 45.5844C45.4357 46.3049 43.5859 47.5971 41.6893 47.8293L41.4088 47.8591ZM31.5651 30.4951L34.9977 36.0508V36.6463C34.9977 38.6054 36.3333 40.8861 37.9628 41.7316L38.7776 42.1485L41.8295 47.0909C43.5057 46.7872 45.1686 45.5665 45.8364 45.0306C45.9108 44.985 45.9801 44.9331 46.0434 44.8757L46.2237 44.709C46.5739 44.2221 46.7422 43.6489 46.7046 43.0715V35.503C46.6987 35.2563 46.6302 35.0139 46.5041 34.7942C46.378 34.5745 46.1976 34.3832 45.9766 34.2346L35.345 28.7622C35.3177 28.7415 35.2855 28.7264 35.2509 28.7182C35.2162 28.7099 35.1799 28.7087 35.1446 28.7146H35.0712C34.3837 28.7899 33.7199 28.986 33.1181 29.2916C32.5162 29.5972 31.9884 30.0063 31.5651 30.4951Z" fill="#141414"/>
<path d="M46.1326 45.3104C46.2225 45.2552 46.3035 45.189 46.373 45.1139L46.5333 44.965C46.9618 44.417 47.1711 43.7563 47.1276 43.0893V35.5149C47.0455 35.0545 46.8616 34.6132 46.5867 34.2167L42.139 36.682C42.139 36.682 40.5229 40.1357 38.8867 42.994L41.6648 47.4898C43.5013 47.2695 45.3379 45.9416 46.1326 45.3104Z" fill="#141414"/>
<path d="M34.1088 43.9825L40.2661 47.1504C42.0091 48.0496 43.4249 47.0969 43.4249 45.0246V37.4442C43.42 37.1355 43.3334 36.8322 43.1721 36.559C43.0108 36.2858 42.7793 36.0505 42.4966 35.8722L31.8716 30.3819C31.3574 30.1199 30.9434 30.3819 30.9434 31.0072V38.5995C30.9434 40.6717 32.3725 43.0834 34.1088 43.9825Z" fill="#0962FF"/>
<path d="M41.5238 47.8354C41.0095 47.8239 40.5075 47.6925 40.0679 47.4543L33.9106 44.2804C32.0341 43.3157 30.5715 40.8207 30.5715 38.5996V31.0252C30.554 30.8373 30.5923 30.6487 30.6826 30.4783C30.7728 30.3079 30.9119 30.1617 31.0858 30.0545C31.2415 29.9832 31.4157 29.95 31.5905 29.9584C31.7653 29.9667 31.9346 30.0164 32.0808 30.1022L42.7125 35.5746C43.0509 35.7854 43.3285 36.0648 43.5223 36.3899C43.7162 36.7149 43.8209 37.0763 43.8277 37.4444V45.0247C43.8277 46.2157 43.3603 47.1803 42.5389 47.6031C42.2296 47.7595 41.8793 47.8396 41.5238 47.8354ZM31.5065 30.65H31.4597C31.3996 30.65 31.3395 30.8108 31.3395 31.0192V38.5996C31.3395 40.5587 32.6752 42.8393 34.3047 43.6849L40.4619 46.8528C40.7002 47.0103 40.9819 47.1072 41.277 47.1334C41.5721 47.1596 41.8697 47.1141 42.1382 47.0017C42.7058 46.7099 43.033 45.9834 43.033 45.0247V37.4444C43.0272 37.1976 42.9586 36.9553 42.8326 36.7356C42.7065 36.5159 42.5261 36.3246 42.3051 36.176L31.7068 30.7036C31.6475 30.6685 31.5778 30.6498 31.5065 30.65Z" fill="#141414"/>
<path d="M38.2971 42.613V38.6888H37.5291V41.428L36.9147 41.1124L36.5273 41.7079L38.2971 42.613Z" fill="white"/>
<path d="M37.7162 39.8561C37.2625 39.598 36.8842 39.2475 36.6125 38.8333C36.3408 38.4191 36.1834 37.9533 36.1535 37.4742C36.1197 37.2605 36.1583 37.0427 36.2643 36.8487C36.3702 36.6547 36.5387 36.4933 36.7482 36.3852C36.9577 36.2771 37.1986 36.2272 37.44 36.2419C37.6815 36.2566 37.9125 36.3353 38.1035 36.4679C38.5552 36.7273 38.9316 37.0783 39.202 37.4923C39.4725 37.9063 39.6292 38.3714 39.6595 38.8497C39.6789 39.0622 39.6339 39.2754 39.5294 39.467C39.4248 39.6587 39.2645 39.8219 39.0651 39.9395C38.8984 40.024 38.7093 40.0671 38.5176 40.0645C38.2345 40.0594 37.958 39.9875 37.7162 39.8561ZM37.1285 36.9561C37.0511 37.017 36.9917 37.0939 36.9556 37.1802C36.9195 37.2664 36.9077 37.3592 36.9215 37.4504C36.9547 37.8083 37.0782 38.155 37.2829 38.4643C37.4876 38.7737 37.7681 39.0378 38.1035 39.2368C38.1839 39.2945 38.2797 39.3325 38.3816 39.3471C38.4835 39.3617 38.5879 39.3524 38.6845 39.3202C38.8181 39.2547 38.8915 39.076 38.8915 38.8259C38.862 38.4678 38.7407 38.1205 38.5369 37.8108C38.3331 37.5011 38.0523 37.2372 37.7162 37.0395C37.5892 36.9693 37.4446 36.9284 37.2954 36.9204C37.2395 36.9119 37.1821 36.916 37.1285 36.9323V36.9561Z" fill="white"/>
<path d="M35.8877 37.4861C35.9134 37.9096 36.0508 38.3217 36.2887 38.689C36.5266 39.0563 36.8582 39.3684 37.2567 39.6C38.018 39.987 38.6257 39.6714 38.6257 38.8973C38.601 38.4728 38.4641 38.0595 38.2262 37.6911C37.9883 37.3227 37.6561 37.0096 37.2567 36.7775C36.5021 36.3904 35.8877 36.706 35.8877 37.4861Z" fill="#0962FF"/>
<path d="M37.0476 39.9095C36.5943 39.6511 36.2163 39.3004 35.9446 38.8863C35.6729 38.4722 35.5154 38.0066 35.4849 37.5276C35.4506 37.3145 35.4887 37.0971 35.5943 36.9035C35.6998 36.7099 35.868 36.5489 36.0771 36.4413C36.2861 36.3336 36.5266 36.2843 36.7674 36.2996C37.0082 36.3149 37.2384 36.3942 37.4282 36.5272C37.8864 36.7882 38.2674 37.1434 38.5394 37.5631C38.8113 37.9828 38.9662 38.4547 38.9909 38.9389C39.0091 39.1503 38.9635 39.3623 38.859 39.5528C38.7545 39.7434 38.5949 39.9055 38.3966 40.0226C38.2309 40.11 38.0415 40.1553 37.849 40.1536C37.5621 40.1378 37.2853 40.0535 37.0476 39.9095ZM36.4599 37.0036C36.3815 37.0638 36.3214 37.1406 36.2853 37.227C36.2491 37.3134 36.2379 37.4066 36.2529 37.4978C36.2824 37.8559 36.4037 38.2032 36.6075 38.513C36.8113 38.8227 37.0921 39.0865 37.4282 39.2843C37.5117 39.3387 37.6083 39.3751 37.7103 39.3906C37.8123 39.4061 37.9169 39.4003 38.0159 39.3736C38.0907 39.3109 38.1483 39.2337 38.1842 39.148C38.2201 39.0623 38.2333 38.9704 38.2229 38.8793C38.1964 38.5157 38.0766 38.1623 37.8729 37.8464C37.6691 37.5305 37.3868 37.2605 37.0476 37.0572C36.9202 36.9877 36.7758 36.9468 36.6269 36.9381C36.5737 36.9449 36.5232 36.9633 36.4799 36.9917L36.4599 37.0036Z" fill="#141414"/>
<path d="M37.6439 42.6546V39.5879L36.8759 39.177V41.4696L36.2615 41.154L35.8809 41.7435L37.6439 42.6546Z" fill="#141414"/>
<path d="M46.7277 37.5592L43.6406 39.2328L43.9529 39.6907L47.0399 38.0171L46.7277 37.5592Z" fill="#86B2FF"/>
<path d="M45.7048 42.5707L42.6338 44.2459L42.9463 44.7015L46.0173 43.0263L45.7048 42.5707Z" fill="#86B2FF"/>
<path d="M42.6913 34.5502C42.4055 34.5502 42.1314 34.4494 41.9287 34.2698C41.726 34.0902 41.6112 33.8463 41.6094 33.5915V29.4232C41.5694 28.7844 41.3618 28.1628 41.0034 27.6085C40.645 27.0542 40.1458 26.5825 39.5459 26.2315L37.5758 25.2192C37.2018 25.0286 36.908 24.9989 36.8145 25.0584C36.721 25.1179 36.5874 25.3442 36.5874 25.7253V29.8936C36.5874 30.1485 36.4744 30.3929 36.2729 30.5737C36.0715 30.7544 35.798 30.8567 35.5123 30.8583C35.2259 30.8568 34.9517 30.7546 34.7492 30.574C34.5467 30.3935 34.4321 30.149 34.4304 29.8936V25.7253C34.3769 25.2675 34.4734 24.8057 34.7081 24.3957C34.9428 23.9857 35.3057 23.6452 35.7529 23.4153C36.2001 23.1853 36.7125 23.0759 37.228 23.1001C37.7435 23.1244 38.2401 23.2813 38.6577 23.5519L40.6211 24.5642C41.5351 25.0983 42.2958 25.8161 42.8421 26.66C43.3884 27.5039 43.705 28.4504 43.7665 29.4232V33.5915C43.7665 33.7174 43.7387 33.8421 43.6846 33.9584C43.6306 34.0747 43.5514 34.1804 43.4516 34.2694C43.3517 34.3585 43.2332 34.4291 43.1028 34.4773C42.9723 34.5254 42.8325 34.5502 42.6913 34.5502Z" fill="#141414"/>
<path d="M35.8469 26.7734H35.3994V25.4217C35.3991 25.1559 35.477 24.8946 35.6254 24.6641C35.7738 24.4335 35.9874 24.2417 36.245 24.1079C36.5026 23.9741 36.7951 23.9029 37.0932 23.9015C37.3913 23.9 37.6846 23.9684 37.9438 24.0997L40.0074 25.1418L39.787 25.4932L37.7167 24.4273C37.5252 24.3321 37.3091 24.283 37.0898 24.285C36.8705 24.2869 36.6555 24.3398 36.4661 24.4383C36.2767 24.5369 36.1194 24.6778 36.0096 24.8471C35.8998 25.0164 35.8414 25.2083 35.8402 25.4038L35.8469 26.7734Z" fill="#86B2FF"/>
<path d="M42.5915 29.8341C42.561 28.933 42.3031 28.0496 41.8369 27.2497L42.2242 27.0472C42.7357 27.9047 43.0147 28.8571 43.039 29.8281L42.5915 29.8341Z" fill="#86B2FF"/>
</svg>
