<svg width="80" height="81" viewBox="0 0 80 81" fill="none" xmlns="http://www.w3.org/2000/svg">
<path d="M79.6692 41.7588C79.6692 62.9322 62.2148 80.1059 40.6722 80.1059C19.1296 80.1059 1.6753 62.9322 1.6753 41.7588C1.6753 20.5855 19.1296 3.41172 40.6722 3.41172C62.2148 3.41172 79.6692 20.5855 79.6692 41.7588Z" fill="#060606" stroke="#0962FF" stroke-width="0.661152"/>
<path d="M46.3643 19.6076C45.9807 18.1078 45.1721 16.746 44.0325 15.6803C42.5109 14.2647 41.0592 13.9452 40.1051 14.4669L38.7686 15.2758L39.1099 15.8461C39.0174 16.1892 38.9717 16.5428 38.9742 16.8977C38.9742 19.288 40.6768 22.188 42.7782 23.369C43.1215 23.5686 43.4929 23.7172 43.8804 23.8098L44.1642 24.2871C44.1802 24.312 44.2056 24.3297 44.2348 24.3365C44.264 24.3433 44.2947 24.3386 44.3204 24.3235L45.6241 23.5146C46.4795 22.9322 46.8619 21.557 46.3643 19.6076Z" fill="white"/>
<path d="M44.2631 24.5298H44.1932C44.1555 24.5207 44.12 24.5042 44.0889 24.4812C44.0578 24.4583 44.0317 24.4294 44.0123 24.3963L43.7655 23.9918C43.3885 23.8952 43.0271 23.7468 42.6922 23.551C40.5454 22.3376 38.7976 19.3568 38.7976 16.9179C38.7959 16.5718 38.8373 16.2268 38.921 15.8906L38.5098 15.2354L40.0643 14.2971C41.1623 13.7389 42.6757 14.2121 44.1274 15.5671C45.2939 16.6545 46.1213 18.0462 46.5127 19.5792C46.9897 21.4559 46.6854 22.9969 45.6902 23.6966L44.3783 24.5055C44.3424 24.5223 44.3029 24.5306 44.2631 24.5298ZM39.0115 15.3365L39.2994 15.8259V15.8947C39.2106 16.2232 39.1663 16.5618 39.1678 16.9018C39.1678 19.2314 40.8374 22.0707 42.869 23.2355C43.1979 23.4204 43.5526 23.5567 43.9218 23.64H43.9958L44.2837 24.1253L45.5175 23.3609C46.3687 22.7542 46.6196 21.3386 46.1796 19.6197C45.8076 18.1508 45.0155 16.8174 43.8971 15.7774C42.5318 14.5033 41.1418 14.0584 40.1959 14.5923L39.0115 15.3365Z" fill="#141414"/>
<path d="M41.7249 18.277L40.853 18.827C40.853 18.827 40.7584 20.1455 40.668 21.4519C41.2328 22.2263 41.9503 22.881 42.7777 23.3771C43.1209 23.5768 43.4923 23.7254 43.8798 23.818L44.1266 24.2224C44.1389 24.2433 44.1553 24.2615 44.1748 24.276C44.1943 24.2906 44.2166 24.3012 44.2403 24.3072C44.264 24.3132 44.2887 24.3145 44.313 24.3111C44.3372 24.3077 44.3605 24.2995 44.3816 24.2872L45.6153 23.5268C46.2116 23.1223 46.5776 22.3134 46.5776 21.2093C46.5082 19.6011 45.9479 18.0507 44.9696 16.7603L43.1396 17.7512L41.7249 18.277Z" fill="#0962FF"/>
<path d="M44.2875 24.4893C44.2588 24.4932 44.2297 24.4932 44.2011 24.4893C44.154 24.4779 44.1098 24.4574 44.0709 24.4289C44.032 24.4004 43.9994 24.3646 43.9749 24.3234L43.7652 23.9716C43.3881 23.8749 43.0268 23.7265 42.6918 23.5307C41.8407 23.0243 41.1033 22.3527 40.5245 21.557L40.4834 21.5044V21.4437C40.5739 20.1373 40.6685 18.8188 40.6685 18.8188V18.7339L41.6555 18.107L43.0743 17.6135L45.0318 16.5539L45.1223 16.6792C46.1186 17.9967 46.6915 19.5771 46.7673 21.2172C46.7673 22.3295 46.3972 23.2031 45.7309 23.6763L44.4972 24.4407C44.4343 24.4785 44.3608 24.4955 44.2875 24.4893ZM40.8494 21.3952C41.3918 22.1309 42.0784 22.7524 42.8686 23.2233C43.1975 23.4082 43.5522 23.5445 43.9215 23.6278H43.9955L44.2833 24.1091L45.5171 23.3487C46.0805 22.9442 46.3931 22.1758 46.3931 21.1808C46.3249 19.6672 45.8105 18.2057 44.9126 16.9745L43.1935 17.9007L41.7953 18.4224L41.0098 18.924C41.0016 19.2314 40.9234 20.3234 40.8494 21.4073V21.3952Z" fill="#141414"/>
<path d="M46.1996 19.1303L44.826 19.8745L43.4031 20.3679L42.5313 20.9301C42.5313 20.9301 42.4531 21.9776 42.375 23.1263C42.5066 23.2193 42.6423 23.3083 42.7862 23.3851C43.1295 23.5848 43.5009 23.7334 43.8884 23.826L44.1639 24.283C44.1724 24.2981 44.1839 24.3113 44.1978 24.3218C44.2117 24.3322 44.2276 24.3398 44.2446 24.344C44.2615 24.3482 44.2792 24.3488 44.2965 24.346C44.3137 24.3432 44.3302 24.3369 44.3449 24.3275L45.6321 23.5429C46.2284 23.1384 46.5944 22.3295 46.5944 21.2254C46.5784 20.5106 46.4451 19.8032 46.1996 19.1303Z" fill="#141414"/>
<path d="M44.2641 24.5217C44.2382 24.5256 44.2119 24.5256 44.186 24.5217C44.1463 24.512 44.1091 24.4944 44.0765 24.4701C44.044 24.4458 44.0169 24.4151 43.9968 24.3801L43.7583 23.9757C43.3812 23.879 43.0199 23.7306 42.6849 23.5348C42.5434 23.4541 42.4061 23.3663 42.2737 23.2719L42.1914 23.2153V23.1182C42.2695 21.9655 42.3477 20.918 42.3477 20.918V20.8492L43.3347 20.2223L44.7412 19.737L46.3204 18.8755L46.3862 19.0737C46.642 19.764 46.7809 20.4908 46.7974 21.2254C46.7974 22.3376 46.4273 23.2112 45.7611 23.6845L44.4656 24.4934C44.4033 24.5238 44.3326 24.5337 44.2641 24.5217ZM42.5492 23.0414C42.6643 23.1182 42.7672 23.1789 42.8617 23.2355C43.1906 23.4204 43.5453 23.5567 43.9145 23.64H43.9886L44.2764 24.1253L45.5102 23.3609C46.0736 22.9564 46.3862 22.188 46.3862 21.193C46.3779 20.5678 46.2739 19.9475 46.0777 19.3527L44.8851 20.0403L43.4868 20.5257L42.7014 21.0272C42.6849 21.2901 42.6191 22.1233 42.5574 23.0414H42.5492Z" fill="#141414"/>
<path d="M45.3041 21.9978C45.3041 24.3841 43.6015 25.3508 41.5 24.1576C39.3985 22.9645 37.6836 20.0645 37.6836 17.6742C37.6836 15.2839 39.3862 14.3213 41.4877 15.5144C43.5891 16.7076 45.3041 19.6116 45.3041 21.9978Z" fill="#0962FF"/>
<path d="M43.1971 24.8453C42.5631 24.8238 41.946 24.6383 41.4082 24.3074C39.2615 23.094 37.5137 20.1132 37.5137 17.6743C37.5137 16.4609 37.9249 15.5428 38.7186 15.102C39.5123 14.6611 40.5117 14.7541 41.5974 15.3649C43.7441 16.5782 45.4919 19.5591 45.4919 21.9979C45.4919 23.2113 45.0807 24.1294 44.2911 24.5703C43.9578 24.7561 43.5802 24.851 43.1971 24.8453ZM39.8002 15.1869C39.4834 15.1811 39.1709 15.2594 38.8955 15.4134C38.2334 15.7895 37.8715 16.5944 37.8715 17.6824C37.8715 20.012 39.537 22.8513 41.5727 24.0161C42.535 24.5581 43.4274 24.6511 44.0896 24.279C44.7517 23.9069 45.1136 23.094 45.1136 22.006C45.1136 19.6764 43.448 16.8371 41.4123 15.6763C40.9282 15.3764 40.372 15.2076 39.8002 15.1869Z" fill="#141414"/>
<path d="M44.0238 21.2536C44.0238 22.8391 42.8928 23.4781 41.4987 22.6854C40.7683 22.2184 40.1594 21.5895 39.7208 20.8492C39.2823 20.1088 39.0264 19.2777 38.9736 18.4224C38.9736 16.841 40.1046 16.1979 41.4987 16.9907C42.2285 17.4584 42.8369 18.0874 43.2753 18.8276C43.7137 19.5678 43.9701 20.3986 44.0238 21.2536Z" fill="#141414"/>
<path d="M42.6176 23.2194C42.1809 23.2076 41.7551 23.082 41.3839 22.8554C40.6244 22.3671 39.9923 21.71 39.5387 20.9372C39.085 20.1643 38.8226 19.2974 38.7725 18.4064C38.7725 17.5975 39.0644 16.9503 39.595 16.647C40.1255 16.3437 40.8287 16.4084 41.5566 16.825C42.3185 17.3111 42.9526 17.9676 43.4072 18.7408C43.8617 19.514 44.1239 20.3821 44.1722 21.274C44.1722 22.0829 43.8761 22.73 43.3497 23.0333C43.1262 23.1568 42.8739 23.2209 42.6176 23.2194ZM40.3722 16.8047C40.1724 16.8025 39.9755 16.8513 39.8006 16.9463C39.3893 17.1849 39.1508 17.7026 39.1508 18.4023C39.1973 19.2333 39.4419 20.0419 39.8648 20.7628C40.2877 21.4836 40.8771 22.0966 41.5854 22.552C42.2023 22.9039 42.7739 22.9565 43.1934 22.7259C43.6129 22.4954 43.8514 21.9696 43.8514 21.2537C43.8044 20.4224 43.5592 19.6136 43.1356 18.8927C42.7119 18.1718 42.1217 17.559 41.4127 17.104C41.0981 16.9172 40.7396 16.814 40.3722 16.8047Z" fill="#141414"/>
<path d="M41.4995 16.9665C41.1509 16.7535 40.7501 16.6375 40.3398 16.6308C40.1659 16.8234 40.0327 17.0481 39.9479 17.2918C39.8632 17.5355 39.8287 17.7934 39.8463 18.0504C39.8933 18.9119 40.1466 19.7503 40.5853 20.4974C41.0241 21.2445 41.636 21.8792 42.3713 22.3498C42.7176 22.5645 43.1176 22.6806 43.5269 22.6855C43.7039 22.4922 43.8393 22.2657 43.9248 22.0197C44.0103 21.7736 44.0442 21.513 44.0246 21.2537C43.9746 20.3945 43.7201 19.5588 43.2815 18.8142C42.8429 18.0695 42.2325 17.4366 41.4995 16.9665Z" fill="#0962FF"/>
<path d="M43.4938 22.8715C43.0644 22.8574 42.6463 22.7334 42.2806 22.5115C41.5213 22.023 40.8894 21.3659 40.4358 20.5931C39.9822 19.8203 39.7196 18.9535 39.6692 18.0625C39.6515 17.7822 39.6907 17.5012 39.7846 17.2359C39.8785 16.9707 40.0252 16.7264 40.2161 16.5175L40.2655 16.469H40.3395C40.7763 16.4772 41.2026 16.6016 41.5733 16.829C42.3351 17.3151 42.9692 17.9716 43.4238 18.7448C43.8784 19.5181 44.1405 20.3861 44.1888 21.278C44.2069 21.5587 44.1674 21.8401 44.0728 22.1055C43.9781 22.3709 43.8302 22.6149 43.6377 22.823L43.5884 22.8715H43.4815H43.4938ZM40.4177 16.8047C40.1292 17.1559 39.9827 17.5995 40.0064 18.0504C40.0532 18.8813 40.2979 19.6898 40.7208 20.4106C41.1437 21.1314 41.733 21.7444 42.441 22.2001C42.742 22.382 43.0837 22.4889 43.4362 22.5115C43.7305 22.1585 43.8788 21.7094 43.8516 21.2537C43.8053 20.4227 43.5603 19.6142 43.1366 18.8939C42.7128 18.1736 42.1223 17.5617 41.4129 17.108C41.1109 16.9294 40.7694 16.8254 40.4177 16.8047Z" fill="#141414"/>
<path d="M40.7962 17.8256L39.0469 18.7679L39.1773 19.002L40.9266 18.0597L40.7962 17.8256Z" fill="#0962FF"/>
<path d="M43.0002 21.3624L41.251 22.305L41.3814 22.5391L43.1306 21.5965L43.0002 21.3624Z" fill="#0962FF"/>
<path d="M46.331 21.8082L45.3896 22.3153L45.52 22.5494L46.4614 22.0423L46.331 21.8082Z" fill="#0962FF"/>
<path d="M48.4289 65.4485L48.2274 65.1775C47.9107 64.4212 47.2363 64.7731 46.1958 64.1987C43.2142 62.5041 38.382 62.5041 35.4046 64.1987C34.3641 64.7892 33.6897 64.9712 33.3771 65.7276H33.1592V67.2847C33.1592 68.3848 33.9118 69.485 35.3923 70.3262C38.3738 72.0168 43.206 72.0168 46.1835 70.3262C47.6763 69.4769 48.4207 68.3606 48.4165 67.2483L48.4289 65.4485Z" fill="#141414"/>
<path d="M40.8016 71.762C38.8927 71.7994 37.0058 71.3567 35.3197 70.4759C33.8309 69.6306 33.0084 68.4981 32.9961 67.2847V65.5537H33.2593C33.5389 64.9834 34.0242 64.7447 34.6863 64.3888C34.8796 64.2877 35.0976 64.1785 35.3197 64.045C38.3423 62.3302 43.2609 62.3302 46.2877 64.045C46.6205 64.2309 46.9837 64.3582 47.361 64.4212C47.7929 64.5102 48.1836 64.587 48.381 65.0926L48.6113 65.3878V67.2483C48.6113 68.4617 47.7887 69.6225 46.2918 70.484C44.6021 71.3623 42.7124 71.8022 40.8016 71.762ZM33.3498 67.2807C33.3498 68.3687 34.1229 69.3919 35.4965 70.1725C38.4205 71.8348 43.1828 71.8348 46.1067 70.1725C47.4968 69.3838 48.2576 68.3484 48.2535 67.2524V65.5051L48.0643 65.2463C47.9162 64.8944 47.6942 64.8418 47.287 64.7609C46.8731 64.6929 46.474 64.5561 46.1067 64.3565C43.1828 62.6942 38.4205 62.6942 35.4965 64.3565C35.2621 64.4899 35.0482 64.6032 34.8508 64.7043C34.1723 65.0562 33.761 65.2705 33.5389 65.8004L33.4937 65.9096H33.3498V67.2605L33.1729 67.2928L33.3498 67.2807Z" fill="#141414"/>
<path d="M43.0292 67.6284C42.6019 66.7383 41.8877 66.0117 40.9976 65.5616C39.2281 64.6415 37.2393 64.207 35.2401 64.3038C34.882 64.5066 34.5046 64.6745 34.1133 64.8053C34.1578 65.0889 34.1743 65.376 34.1626 65.6628C34.1164 66.6274 34.1439 67.594 34.2449 68.5546C34.2838 68.917 34.4081 69.2655 34.608 69.5723C34.8079 69.8792 35.0778 70.1359 35.3964 70.3221C37.1677 71.2374 39.1551 71.6716 41.1539 71.5799C42.5357 70.7427 43.2101 69.6749 43.2101 68.6072V67.6203L43.0292 67.6284Z" fill="#0962FF"/>
<path d="M40.8036 71.766C38.8935 71.8024 37.0055 71.3598 35.3176 70.4798C34.9762 70.2776 34.6872 70.0004 34.4731 69.6699C34.2591 69.3394 34.1258 68.9645 34.0838 68.5749C33.9799 67.605 33.9524 66.6287 34.0015 65.6547C34.0138 65.3841 33.9973 65.113 33.9522 64.8458L33.9316 64.7083L34.0632 64.6557L34.2606 64.5788C34.5752 64.474 34.8783 64.3385 35.1654 64.1744L35.2065 64.1501H35.2517C37.2881 64.0529 39.3135 64.4957 41.1162 65.4322C41.9974 65.8814 42.7157 66.5878 43.1724 67.4545H43.4397V68.6153C43.4397 69.7842 42.683 70.8964 41.2889 71.7377L41.2519 71.762H40.8406L40.8036 71.766ZM34.3059 64.9348C34.3378 65.1829 34.3488 65.4331 34.3388 65.683C34.2916 66.6395 34.3191 67.5982 34.421 68.5506C34.4602 68.8821 34.5762 69.2004 34.7601 69.4809C34.9441 69.7614 35.1911 69.9966 35.482 70.1684C37.2178 71.066 39.1653 71.4932 41.1244 71.406C42.3828 70.6335 43.0696 69.6426 43.0655 68.6072V67.7983H42.9216L42.8763 67.6891C42.4628 66.835 41.7749 66.1386 40.9188 65.7073C39.1867 64.8175 37.2446 64.3986 35.2929 64.4939C34.998 64.657 34.6882 64.7924 34.3676 64.8984L34.3059 64.9348Z" fill="#141414"/>
<path d="M40.8006 69.7803C45.0138 69.7803 48.4292 67.8409 48.4292 65.4486C48.4292 63.0562 45.0138 61.1169 40.8006 61.1169C36.5874 61.1169 33.1719 63.0562 33.1719 65.4486C33.1719 67.8409 36.5874 69.7803 40.8006 69.7803Z" fill="#0962FF"/>
<path d="M40.8016 69.95C38.8922 69.9881 37.0047 69.5439 35.3197 68.6598C33.8186 67.8104 32.9961 66.6699 32.9961 65.4484C32.9961 64.227 33.8186 63.0824 35.3197 62.2128C38.3423 60.4939 43.2609 60.4939 46.2877 62.2128C47.7846 63.0621 48.6113 64.2067 48.6113 65.4484C48.6113 66.6901 47.7888 67.8104 46.2877 68.6598C44.601 69.5434 42.7123 69.9875 40.8016 69.95ZM40.8016 61.2906C38.9541 61.2537 37.1277 61.6826 35.4965 62.5363C34.1106 63.321 33.3498 64.3564 33.3498 65.4484C33.3498 66.5404 34.1106 67.5759 35.4965 68.3605C38.4205 70.0228 43.1828 70.0228 46.1067 68.3605C47.4927 67.5759 48.2535 66.5404 48.2535 65.4484C48.2535 64.3564 47.4927 63.321 46.1067 62.5363C44.4753 61.6834 42.6488 61.256 40.8016 61.2947V61.2906Z" fill="#141414"/>
<path d="M40.7997 68.1826C44.4655 68.1826 47.4373 66.4949 47.4373 64.4131C47.4373 62.3312 44.4655 60.6436 40.7997 60.6436C37.1339 60.6436 34.1621 62.3312 34.1621 64.4131C34.1621 66.4949 37.1339 68.1826 40.7997 68.1826Z" fill="white"/>
<path d="M40.7997 68.3525C39.1411 68.3805 37.5024 67.9936 36.0374 67.2281C34.7255 66.4839 34.0059 65.4849 34.0059 64.3969C34.0059 63.3089 34.7255 62.3261 36.0374 61.5657C38.6735 60.0692 42.967 60.0692 45.6031 61.5657C46.915 62.314 47.6594 63.313 47.6594 64.3969C47.6594 65.4808 46.9356 66.4677 45.6031 67.2281C44.1259 68.0003 42.4722 68.3874 40.7997 68.3525ZM40.7997 60.8175C39.1961 60.7876 37.6111 61.1592 36.1937 61.8974C34.997 62.5769 34.339 63.4707 34.339 64.4131C34.339 65.3555 34.997 66.2453 36.1937 66.9288C38.7352 68.3686 42.8683 68.3686 45.4057 66.9288C46.6024 66.2453 47.2604 65.3555 47.2604 64.4131C47.2604 63.4707 46.6024 62.5769 45.4057 61.8974C43.9887 61.158 42.4034 60.7863 40.7997 60.8175Z" fill="#141414"/>
<path d="M44.3936 71.0218L44.2373 70.8034C44.8804 70.3007 45.3676 69.631 45.6438 68.8701L45.8988 68.9591C45.6085 69.7744 45.086 70.4904 44.3936 71.0218Z" fill="#0962FF"/>
<path d="M44.8516 63.2482L44.8228 63.1997C44.8228 63.1997 42.9228 60.2593 42.8734 57.3836H38.7281C38.51 59.4374 37.8451 61.421 36.7787 63.1997L36.754 63.2482C36.2852 64.0571 36.6512 64.9712 37.811 65.6305C38.7374 66.093 39.7617 66.3341 40.8007 66.3341C41.8397 66.3341 42.8641 66.093 43.7905 65.6305C44.9503 64.9712 45.3163 64.0774 44.8516 63.2482Z" fill="#0962FF"/>
<path d="M40.7999 66.5041C39.7286 66.5243 38.6698 66.2751 37.7238 65.7801C36.4901 65.0925 36.0788 64.0895 36.597 63.1633L36.6175 63.1228C37.6721 61.362 38.3311 59.3996 38.5504 57.3675V57.2097H43.0371V57.3796C43.0865 60.1744 44.9412 63.0743 44.9618 63.1067L44.9947 63.1673C45.5129 64.0895 45.0811 65.0925 43.8679 65.7801C42.924 66.2728 41.8684 66.5219 40.7999 66.5041ZM38.8876 57.5575C38.6572 59.585 37.9883 61.5405 36.926 63.2927V63.3251C36.4901 64.0935 36.852 64.8782 37.913 65.4808C38.8119 65.9276 39.8051 66.1604 40.8123 66.1604C41.8195 66.1604 42.8127 65.9276 43.7116 65.4808C44.7726 64.8782 45.1345 64.0935 44.7068 63.3332L44.678 63.2725C44.6081 63.1714 42.8315 60.3928 42.7123 57.5575H38.8876Z" fill="#141414"/>
<path d="M44.8216 63.2563C44.8216 63.2563 42.9216 60.32 42.8722 57.4403H41.1162V58.7143C41.2567 61.2544 41.5866 63.781 42.1032 66.2736C42.6941 66.1724 43.2639 65.9756 43.7893 65.6911C44.9491 65.0319 45.3151 64.138 44.8504 63.3089L44.8216 63.2563Z" fill="#141414"/>
<path d="M42.2877 56.5991C43.1102 57.0642 43.1102 57.8124 42.2877 58.2857C41.8263 58.5159 41.3163 58.6359 40.799 58.6359C40.2816 58.6359 39.7716 58.5159 39.3102 58.2857C38.4877 57.8205 38.4877 57.0723 39.3102 56.5991C39.7716 56.3689 40.2816 56.2489 40.799 56.2489C41.3163 56.2489 41.8263 56.3689 42.2877 56.5991Z" fill="white"/>
<path d="M40.8001 58.8073C40.2518 58.8185 39.7096 58.6918 39.225 58.4392C39.0182 58.3636 38.8399 58.2275 38.7139 58.0493C38.588 57.8711 38.5205 57.6593 38.5205 57.4423C38.5205 57.2252 38.588 57.0134 38.7139 56.8352C38.8399 56.657 39.0182 56.5209 39.225 56.4453C39.7132 56.2019 40.2528 56.075 40.8001 56.075C41.3474 56.075 41.887 56.2019 42.3752 56.4453C42.582 56.5209 42.7604 56.657 42.8863 56.8352C43.0122 57.0134 43.0797 57.2252 43.0797 57.4423C43.0797 57.6593 43.0122 57.8711 42.8863 58.0493C42.7604 58.2275 42.582 58.3636 42.3752 58.4392C41.8908 58.6924 41.3485 58.8191 40.8001 58.8073ZM40.8001 56.421C40.3134 56.4122 39.8323 56.5249 39.4019 56.7486C39.2501 56.7932 39.117 56.8849 39.0223 57.0098C38.9277 57.1348 38.8766 57.2864 38.8766 57.4423C38.8766 57.5981 38.9277 57.7497 39.0223 57.8747C39.117 57.9997 39.2501 58.0913 39.4019 58.1359C39.8354 58.3513 40.3144 58.4635 40.8001 58.4635C41.2858 58.4635 41.7648 58.3513 42.1984 58.1359C42.3502 58.0913 42.4833 57.9997 42.5779 57.8747C42.6725 57.7497 42.7236 57.5981 42.7236 57.4423C42.7236 57.2864 42.6725 57.1348 42.5779 57.0098C42.4833 56.8849 42.3502 56.7932 42.1984 56.7486C41.7661 56.5319 41.2851 56.4262 40.8001 56.4412V56.421Z" fill="#141414"/>
<path d="M43.6795 63.3413C42.9132 61.8739 42.4135 60.2862 42.2031 58.6496L42.4746 58.6253C42.6808 60.2264 43.1693 61.7798 43.918 63.2159L43.6795 63.3413Z" fill="#0962FF"/>
<path d="M42.1293 57.133V20.3478H39.4727V57.1532C39.4825 57.2681 39.5236 57.3783 39.5916 57.4722C39.6596 57.5661 39.752 57.6403 39.8592 57.6871C40.1511 57.8327 40.4737 57.9086 40.801 57.9086C41.1283 57.9086 41.4509 57.8327 41.7428 57.6871C41.8532 57.6391 41.9478 57.5619 42.0161 57.464C42.0844 57.3661 42.1236 57.2515 42.1293 57.133Z" fill="#0962FF"/>
<path d="M40.8011 58.0591C40.443 58.0651 40.0892 57.9816 39.7729 57.8164C39.6375 57.7551 39.5216 57.6587 39.4376 57.5376C39.3536 57.4165 39.3046 57.2752 39.2959 57.1288V20.1698H42.3104V57.1288C42.302 57.2763 42.2528 57.4188 42.1679 57.5407C42.0831 57.6626 41.966 57.7594 41.8292 57.8204C41.5125 57.9843 41.1588 58.0664 40.8011 58.0591ZM39.6496 20.5095V57.1288C39.6618 57.2129 39.6958 57.2924 39.7484 57.3597C39.801 57.427 39.8704 57.4798 39.9498 57.5131C40.2142 57.6427 40.5056 57.7102 40.8011 57.7102C41.0965 57.7102 41.3879 57.6427 41.6524 57.5131C41.8456 57.4039 41.9567 57.2623 41.9526 57.1288V20.5216L39.6496 20.5095Z" fill="#141414"/>
<path d="M41.1006 57.8811C41.3249 57.8538 41.5423 57.7867 41.7421 57.6829C41.8496 57.6355 41.9422 57.5606 42.0102 57.4659C42.0782 57.3713 42.1191 57.2605 42.1287 57.145V20.3396H41.1006V57.8811Z" fill="#141414"/>
<path d="M40.9238 58.0793V20.1819H42.3097V57.145C42.3007 57.2918 42.2511 57.4334 42.1663 57.5545C42.0815 57.6757 41.9647 57.7718 41.8286 57.8326C41.6106 57.9498 41.3719 58.0252 41.1253 58.055L40.9238 58.0793ZM41.2775 20.5297V57.6546C41.409 57.6269 41.5352 57.5791 41.6517 57.513C41.845 57.4038 41.9561 57.2663 41.952 57.1288V20.5297H41.2775Z" fill="#141414"/>
<path d="M41.7419 19.8098C41.8561 19.8469 41.9555 19.9184 42.026 20.0143C42.0965 20.1101 42.1344 20.2254 42.1344 20.3437C42.1344 20.462 42.0965 20.5772 42.026 20.6731C41.9555 20.769 41.8561 20.8405 41.7419 20.8776C41.45 21.0232 41.1274 21.0991 40.8001 21.0991C40.4728 21.0991 40.1502 21.0232 39.8583 20.8776C39.7441 20.8405 39.6447 20.769 39.5742 20.6731C39.5038 20.5772 39.4658 20.462 39.4658 20.3437C39.4658 20.2254 39.5038 20.1101 39.5742 20.0143C39.6447 19.9184 39.7441 19.8469 39.8583 19.8098C40.1502 19.6641 40.4728 19.5882 40.8001 19.5882C41.1274 19.5882 41.45 19.6641 41.7419 19.8098Z" fill="white"/>
<path d="M40.7989 21.2738C40.4402 21.2812 40.0858 21.1962 39.7708 21.0271C39.6302 20.9741 39.5093 20.8804 39.424 20.7583C39.3386 20.6363 39.293 20.4917 39.293 20.3436C39.293 20.1955 39.3386 20.0509 39.424 19.9288C39.5093 19.8068 39.6302 19.7131 39.7708 19.6601C40.0887 19.4987 40.4412 19.4145 40.7989 19.4145C41.1567 19.4145 41.5092 19.4987 41.8271 19.6601C41.9677 19.7131 42.0886 19.8068 42.1739 19.9288C42.2592 20.0509 42.3049 20.1955 42.3049 20.3436C42.3049 20.4917 42.2592 20.6363 42.1739 20.7583C42.0886 20.8804 41.9677 20.9741 41.8271 21.0271C41.5121 21.1962 41.1577 21.2812 40.7989 21.2738ZM40.7989 19.7652C40.5031 19.7589 40.2104 19.8256 39.9477 19.9593C39.8654 19.9859 39.7937 20.0374 39.7429 20.1064C39.6922 20.1754 39.6648 20.2584 39.6648 20.3436C39.6648 20.4288 39.6922 20.5118 39.7429 20.5808C39.7937 20.6498 39.8654 20.7012 39.9477 20.7278C40.2121 20.8574 40.5035 20.9249 40.7989 20.9249C41.0944 20.9249 41.3858 20.8574 41.6502 20.7278C41.7325 20.7012 41.8041 20.6498 41.8549 20.5808C41.9057 20.5118 41.9331 20.4288 41.9331 20.3436C41.9331 20.2584 41.9057 20.1754 41.8549 20.1064C41.8041 20.0374 41.7325 19.9859 41.6502 19.9593C41.3876 19.8253 41.0948 19.7585 40.7989 19.7652Z" fill="#141414"/>
<path d="M41.749 54.5322H41.4775V56.9468H41.749V54.5322Z" fill="#0962FF"/>
<path d="M41.749 21.3144H41.4775V36.2023H41.749V21.3144Z" fill="#0962FF"/>
<path d="M41.749 37.0962H41.4775V38.7059H41.749V37.0962Z" fill="#0962FF"/>
<path d="M42.1293 19.4943V14.3254C42.1299 14.3145 42.1282 14.3035 42.1243 14.2932C42.1204 14.2829 42.1144 14.2735 42.1067 14.2656C42.099 14.2576 42.0898 14.2513 42.0795 14.247C42.0693 14.2427 42.0582 14.2405 42.0471 14.2405H39.5549C39.5327 14.2415 39.5118 14.2509 39.4965 14.2667C39.4812 14.2826 39.4726 14.3036 39.4727 14.3254V19.4943C39.4727 19.7775 39.7441 20.0565 40.2952 20.1981C40.6297 20.2823 40.9805 20.2823 41.315 20.1981C41.8579 20.0404 42.1334 19.7734 42.1293 19.4943Z" fill="#0962FF"/>
<path d="M40.8003 20.4447C40.6128 20.4447 40.4261 20.4202 40.2451 20.3719C39.6488 20.2223 39.291 19.8946 39.291 19.5023V14.3213C39.291 14.2526 39.3187 14.1868 39.3681 14.1382C39.4175 14.0897 39.4844 14.0624 39.5542 14.0624H42.0464C42.1162 14.0624 42.1831 14.0897 42.2325 14.1382C42.2819 14.1868 42.3096 14.2526 42.3096 14.3213V19.4902C42.3096 19.8946 41.9518 20.2101 41.3555 20.3638C41.1749 20.4148 40.9882 20.442 40.8003 20.4447ZM39.6488 14.4183V19.4942C39.6488 19.7126 39.9161 19.8987 40.3356 20.0281C40.6405 20.105 40.9601 20.105 41.265 20.0281C41.6763 19.9189 41.9559 19.7126 41.9518 19.4942V14.4143L39.6488 14.4183Z" fill="#141414"/>
<path d="M41.1006 20.2385C41.3249 20.2113 41.5423 20.1441 41.7421 20.0403C41.8496 19.9929 41.9422 19.918 42.0102 19.8234C42.0782 19.7287 42.1191 19.6179 42.1287 19.5024V14.2971C42.1279 14.2851 42.123 14.2738 42.1148 14.265C42.1066 14.2562 42.0955 14.2504 42.0835 14.2485H41.1006V20.2385Z" fill="#141414"/>
<path d="M40.9238 20.4447V14.0746H42.0836C42.1435 14.0746 42.2011 14.098 42.2435 14.1397C42.2859 14.1814 42.3097 14.238 42.3097 14.297V19.5023C42.3007 19.6491 42.2511 19.7907 42.1663 19.9119C42.0815 20.033 41.9647 20.1291 41.8286 20.1899C41.6106 20.3071 41.3719 20.3826 41.1253 20.4124L40.9238 20.4447ZM41.2775 14.4305V20.0403C41.409 20.0125 41.5352 19.9648 41.6517 19.8987C41.845 19.7895 41.9561 19.652 41.952 19.4942V14.4264L41.2775 14.4305Z" fill="#141414"/>
<path d="M41.7419 13.7026C41.8561 13.7397 41.9555 13.8112 42.026 13.9071C42.0965 14.003 42.1344 14.1182 42.1344 14.2365C42.1344 14.3548 42.0965 14.4701 42.026 14.5659C41.9555 14.6618 41.8561 14.7333 41.7419 14.7704C41.45 14.9161 41.1274 14.992 40.8001 14.992C40.4728 14.992 40.1502 14.9161 39.8583 14.7704C39.7441 14.7333 39.6447 14.6618 39.5742 14.5659C39.5038 14.4701 39.4658 14.3548 39.4658 14.2365C39.4658 14.1182 39.5038 14.003 39.5742 13.9071C39.6447 13.8112 39.7441 13.7397 39.8583 13.7026C40.1502 13.557 40.4728 13.481 40.8001 13.481C41.1274 13.481 41.45 13.557 41.7419 13.7026Z" fill="white"/>
<path d="M40.8011 15.1869C40.443 15.193 40.0892 15.1095 39.7729 14.9442C39.6375 14.8829 39.5216 14.7865 39.4376 14.6654C39.3536 14.5443 39.3046 14.403 39.2959 14.2567C39.3046 14.1103 39.3536 13.969 39.4376 13.8479C39.5216 13.7268 39.6375 13.6304 39.7729 13.5691C40.0908 13.4077 40.4433 13.3235 40.8011 13.3235C41.1588 13.3235 41.5113 13.4077 41.8292 13.5691C41.9648 13.6295 42.0811 13.725 42.1659 13.8454C42.2506 13.9658 42.3006 14.1065 42.3104 14.2526C42.3013 14.3994 42.2517 14.541 42.1669 14.6621C42.0821 14.7833 41.9654 14.8794 41.8292 14.9402C41.5133 15.1068 41.1595 15.1917 40.8011 15.1869ZM40.8011 13.6783C40.5047 13.6714 40.2116 13.7397 39.9498 13.8765C39.8704 13.9087 39.801 13.9607 39.7484 14.0274C39.6957 14.0941 39.6617 14.1731 39.6496 14.2567C39.6614 14.3408 39.6953 14.4205 39.7479 14.4879C39.8006 14.5552 39.8701 14.608 39.9498 14.6409C40.2142 14.7705 40.5056 14.838 40.8011 14.838C41.0965 14.838 41.3879 14.7705 41.6524 14.6409C41.732 14.608 41.8016 14.5552 41.8542 14.4879C41.9069 14.4205 41.9407 14.3408 41.9526 14.2567C41.9405 14.1731 41.9064 14.0941 41.8538 14.0274C41.8011 13.9607 41.7317 13.9087 41.6524 13.8765C41.3927 13.7321 41.0993 13.6568 40.8011 13.6581V13.6783Z" fill="#141414"/>
<path d="M41.749 15.2072H41.4775V16.6228H41.749V15.2072Z" fill="#0962FF"/>
<path d="M42.391 12.9462L41.0585 9.9613C41.0362 9.9121 40.9998 9.8703 40.9539 9.84098C40.9079 9.81166 40.8543 9.79605 40.7995 9.79605C40.7447 9.79605 40.691 9.81166 40.6451 9.84098C40.5991 9.8703 40.5627 9.9121 40.5404 9.9613L39.2079 12.9462C39.0516 13.3506 39.3642 13.7996 40.1661 14.0058C40.5812 14.1142 41.0178 14.1142 41.4328 14.0058C42.2347 13.7996 42.5473 13.3466 42.391 12.9462Z" fill="white"/>
<path d="M40.8001 14.2607C40.5712 14.2606 40.3432 14.2321 40.1216 14.1758C39.9091 14.1383 39.7068 14.0583 39.5271 13.9407C39.3474 13.8231 39.1942 13.6705 39.077 13.4923C39.0281 13.3985 38.9999 13.2956 38.9942 13.1903C38.9886 13.0851 39.0056 12.9799 39.0441 12.8815L40.3807 9.89261C40.418 9.81649 40.4763 9.75226 40.5491 9.70731C40.6218 9.66236 40.706 9.63852 40.7919 9.63852C40.8778 9.63852 40.962 9.66236 41.0348 9.70731C41.1075 9.75226 41.1659 9.81649 41.2032 9.89261L42.5397 12.8815C42.5802 12.9795 42.5982 13.0849 42.5925 13.1905C42.5868 13.2961 42.5576 13.3991 42.5068 13.4923C42.3896 13.6705 42.2364 13.8231 42.0567 13.9407C41.8771 14.0583 41.6747 14.1383 41.4623 14.1758C41.246 14.231 41.0236 14.2595 40.8001 14.2607ZM40.8001 9.9735C40.78 9.97288 40.7601 9.97837 40.7432 9.98922C40.7263 10.0001 40.7131 10.0158 40.7056 10.0342L39.3731 13.015C39.3542 13.0668 39.3463 13.1219 39.3499 13.1768C39.3534 13.2318 39.3683 13.2854 39.3937 13.3345C39.5894 13.603 39.885 13.7847 40.2162 13.8401C40.602 13.9372 41.0065 13.9372 41.3924 13.8401C41.7235 13.7847 42.0191 13.603 42.2148 13.3345C42.2408 13.2849 42.256 13.2305 42.2595 13.1749C42.2631 13.1192 42.2549 13.0634 42.2354 13.011L40.903 10.0342C40.895 10.0144 40.8806 9.99769 40.862 9.98672C40.8434 9.97576 40.8217 9.97111 40.8001 9.9735Z" fill="#141414"/>
<path d="M41.1956 14.0544C42.0757 13.8603 42.5568 13.3668 42.3923 12.9462L41.0599 9.96539C41.0376 9.91607 41.0013 9.87416 40.9553 9.84473C40.9093 9.8153 40.8556 9.79961 40.8008 9.79956L41.1956 14.0544Z" fill="#141414"/>
<path d="M41.6779 11.7365L41.418 11.8134L41.8728 13.3007L42.1327 13.2238L41.6779 11.7365Z" fill="#0962FF"/>
<path d="M66.1239 32.4611L66.9957 32.9546C67.1544 33.0559 67.2866 33.1925 67.3817 33.3534C67.4767 33.5143 67.5318 33.695 67.5427 33.8808C67.5759 34.5749 67.7699 35.2523 68.1099 35.8614C68.4499 36.4705 68.9268 36.9952 69.5043 37.3955C70.4708 37.986 70.2158 38.2287 70.4667 37.3712C70.553 37.076 71.8978 36.4491 72.2145 36.6149C72.456 36.7571 72.6517 36.9635 72.7791 37.2104C72.9064 37.4573 72.9602 37.7346 72.9342 38.0103C72.5229 39.535 70.6147 41.0518 68.9327 40.0002C67.4604 39.0821 66.897 38.7868 66.4652 36.9991C66.4076 36.7686 66.0868 33.9576 65.9018 33.8525L58.7255 29.7756C57.043 28.8109 55.2707 28.0064 53.4327 27.3731L49.3449 25.9939C47.5043 25.3536 45.7305 24.541 44.048 23.5672L41.2268 19.6804C41.2234 19.6777 41.2206 19.6743 41.2187 19.6705C41.2168 19.6666 41.2158 19.6624 41.2158 19.6581C41.2158 19.6538 41.2168 19.6496 41.2187 19.6458C41.2206 19.6419 41.2234 19.6385 41.2268 19.6359L42.366 18.9685C42.3705 18.9666 42.3754 18.9657 42.3804 18.9657C42.3853 18.9657 42.3902 18.9666 42.3947 18.9685L66.1239 32.4611Z" fill="#141414"/>
<path d="M70.1185 40.5219C69.664 40.5218 69.2195 40.3911 68.8396 40.1458L68.7121 40.0689C67.3097 39.1953 66.7298 38.8313 66.2898 37.0396C66.2898 36.9708 66.2404 36.7524 66.187 36.3439C66.0952 35.5509 65.9579 34.7637 65.7757 33.9859L58.6323 29.9414C56.9599 28.9799 55.1971 28.1794 53.3683 27.5511L49.2805 26.1678C47.4301 25.5291 45.6466 24.7165 43.9548 23.7411L43.9178 23.7209L41.0391 19.7411V19.6399C41.0435 19.6121 41.0544 19.5856 41.0707 19.5625C41.0871 19.5394 41.1086 19.5202 41.1337 19.5065L42.281 18.827C42.313 18.8093 42.3492 18.8 42.3859 18.8C42.4226 18.8 42.4588 18.8093 42.4908 18.827L67.0876 32.7928C67.2724 32.9099 67.4261 33.0685 67.5363 33.2556C67.6464 33.4426 67.7097 33.6528 67.721 33.8687C67.7544 34.533 67.941 35.1811 68.2666 35.764C68.5922 36.347 69.0483 36.8496 69.6004 37.2337C69.8111 37.3636 70.013 37.5068 70.2049 37.6624C70.2035 37.6517 70.2035 37.6408 70.2049 37.6301C70.2049 37.5451 70.2501 37.44 70.2871 37.3106C70.3817 36.991 71.1097 36.6675 71.27 36.6068C71.5799 36.4359 71.9417 36.38 72.2899 36.4491C72.5703 36.6056 72.7978 36.8397 72.944 37.1223C73.0902 37.4049 73.1488 37.7235 73.1124 38.0386C72.9677 38.5481 72.7075 39.0188 72.3514 39.4152C71.9953 39.8117 71.5525 40.1237 71.0562 40.3278C70.7588 40.4497 70.4407 40.5156 70.1185 40.5219ZM44.1687 23.458C45.8324 24.4087 47.5839 25.2023 49.3998 25.8281L53.4876 27.2073C55.3366 27.8494 57.1197 28.6619 58.8133 29.634L65.9896 33.7069C66.1376 33.7918 66.2281 34.0507 66.5366 36.3075C66.5777 36.6189 66.6188 36.9102 66.6311 36.9668C67.0424 38.621 67.5482 38.9365 68.9012 39.798L69.0287 39.8748C69.3068 40.0529 69.6251 40.1612 69.9556 40.1901C70.2862 40.219 70.6189 40.1677 70.9246 40.0406C71.3658 39.8534 71.7595 39.5724 72.0773 39.2179C72.3952 38.8634 72.6293 38.4441 72.7629 37.99C72.7817 37.75 72.7324 37.5095 72.6206 37.2953C72.5088 37.0811 72.3388 36.9016 72.1296 36.7767C71.9262 36.7669 71.7237 36.8087 71.5415 36.898C71.2014 37.0035 70.8914 37.1864 70.6367 37.4319C70.5997 37.5532 70.575 37.6543 70.5545 37.7352C70.5051 37.9415 70.4722 38.0588 70.3406 38.1033C70.209 38.1478 70.1185 38.0669 69.9787 37.9536C69.7997 37.8055 69.61 37.6703 69.4112 37.5492C68.8048 37.1353 68.3037 36.5892 67.9471 35.9536C67.5904 35.3181 67.3878 34.6101 67.3549 33.8848C67.3435 33.7304 67.2965 33.5806 67.2174 33.4468C67.1383 33.3129 67.0292 33.1985 66.8985 33.1123L42.388 19.1829L41.4585 19.7249L44.1687 23.458Z" fill="#141414"/>
<path d="M64.9437 33.1527L65.8156 33.6502C65.9737 33.7517 66.1053 33.8885 66.1997 34.0494C66.294 34.2103 66.3484 34.3909 66.3584 34.5764C66.3925 35.2702 66.5872 35.9471 66.9279 36.5556C67.2686 37.164 67.7462 37.6878 68.3242 38.087C69.2906 38.6775 70.1173 38.4227 70.3805 37.5653C70.3915 37.4954 70.421 37.4295 70.466 37.3743C70.511 37.319 70.57 37.2764 70.637 37.2506C70.704 37.2248 70.7767 37.2168 70.8479 37.2273C70.9191 37.2378 70.9862 37.2665 71.0426 37.3105C71.2851 37.4506 71.4818 37.656 71.6094 37.9026C71.7369 38.1492 71.79 38.4265 71.7622 38.7018C71.351 40.2266 69.924 40.6917 68.2378 39.6402C66.7697 38.722 65.5729 36.8858 65.137 35.1103C65.0788 34.8766 64.9316 34.674 64.7258 34.544L57.5495 30.4712C55.8669 29.4973 54.0931 28.6847 52.2526 28.0444L48.1647 26.6652C46.3267 26.0319 44.5544 25.2275 42.8719 24.2628L41.2269 23.3285C41.2248 23.3241 41.2236 23.3192 41.2236 23.3143C41.2236 23.3094 41.2248 23.3046 41.2269 23.3002V19.7288C41.2269 19.7231 41.2284 19.7175 41.2312 19.7126C41.2341 19.7076 41.2383 19.7035 41.2433 19.7006C41.2483 19.6977 41.254 19.6962 41.2598 19.6962C41.2656 19.6962 41.2713 19.6977 41.2763 19.7005L64.9437 33.1527Z" fill="#86B2FF"/>
<path d="M69.9464 40.3804C69.2968 40.3553 68.6678 40.1491 68.1328 39.7859C66.6688 38.8759 65.4186 37.0518 64.9539 35.1508C64.9078 34.9648 64.7916 34.803 64.629 34.6978L57.4527 30.6209C55.7794 29.6611 54.0167 28.8607 52.1887 28.2306L48.1008 26.8514C46.2511 26.211 44.4678 25.3984 42.7752 24.4247L41.1302 23.4904C41.099 23.4718 41.0732 23.4457 41.0553 23.4146C41.0373 23.3834 41.0277 23.3483 41.0273 23.3124V19.729C41.0277 19.6927 41.0377 19.6571 41.0565 19.6259C41.0753 19.5946 41.1021 19.5688 41.1343 19.551C41.1655 19.5333 41.201 19.5239 41.2371 19.5239C41.2732 19.5239 41.3086 19.5333 41.3399 19.551L65.908 33.4966C66.0927 33.6143 66.2462 33.7737 66.3556 33.9616C66.4651 34.1494 66.5273 34.3602 66.5372 34.5765C66.5716 35.2406 66.7585 35.8884 67.084 36.4712C67.4095 37.0541 67.8651 37.5568 68.4166 37.9416C68.5904 38.0707 68.7919 38.1589 69.0058 38.1996C69.2196 38.2403 69.4401 38.2322 69.6503 38.1762C69.7888 38.1172 69.911 38.0267 70.0069 37.912C70.1027 37.7974 70.1694 37.6619 70.2014 37.5169C70.2245 37.4283 70.2676 37.346 70.3274 37.276C70.3872 37.206 70.4622 37.1501 70.5469 37.1124C70.6399 37.0776 70.7398 37.0641 70.8389 37.0733C70.938 37.0824 71.0337 37.1138 71.1185 37.165C71.3989 37.3215 71.6263 37.5556 71.7726 37.8382C71.9188 38.1208 71.9774 38.4395 71.941 38.7545C71.8727 39.0836 71.7249 39.3917 71.5102 39.6528C71.2955 39.9139 71.0201 40.1205 70.7072 40.255C70.4639 40.3437 70.2058 40.3862 69.9464 40.3804ZM41.3851 23.2396L42.9561 24.1294C44.6285 25.0909 46.3913 25.8914 48.2201 26.5198L52.3079 27.903C54.158 28.5425 55.9414 29.3551 57.6336 30.3297L64.8264 34.3945C64.9492 34.4698 65.0556 34.5683 65.1396 34.6842C65.2236 34.8001 65.2835 34.9312 65.3158 35.0699C65.7599 36.8617 66.9608 38.6372 68.3467 39.4947C69.1692 40.0083 69.967 40.162 70.5839 39.9234C70.8457 39.8098 71.0754 39.6352 71.2531 39.4146C71.4309 39.194 71.5512 38.9341 71.6038 38.6575C71.6187 38.4207 71.5676 38.1845 71.456 37.9742C71.3444 37.7639 71.1765 37.5876 70.9704 37.4643C70.9314 37.4391 70.8874 37.4224 70.8413 37.4154C70.7951 37.4085 70.748 37.4113 70.7031 37.4239C70.6674 37.4434 70.6361 37.47 70.6113 37.5021C70.5866 37.5341 70.5688 37.5708 70.5592 37.6099C70.5122 37.8071 70.4184 37.9906 70.2854 38.1452C70.1525 38.2999 69.9842 38.4214 69.7943 38.4997C69.5341 38.5765 69.2593 38.5927 68.9917 38.5471C68.724 38.5014 68.4708 38.3952 68.2521 38.2368C67.646 37.8235 67.1451 37.2782 66.7884 36.6433C66.4318 36.0084 66.229 35.3011 66.1958 34.5765C66.1846 34.422 66.1381 34.2719 66.0597 34.1375C65.9814 34.003 65.8733 33.8877 65.7435 33.8L41.3851 19.9757V23.2396Z" fill="#141414"/>
<path d="M42.8692 22.1821L42.6924 22.4833L45.6698 24.1739L45.8467 23.8727L42.8692 22.1821Z" fill="#141414"/>
<path d="M44.6245 20.335L43.7617 20.87L43.9065 21.0958L44.7692 20.5608L44.6245 20.335Z" fill="#0962FF"/>
<path d="M63.4077 30.9698L62.5449 31.5047L62.6897 31.7305L63.5524 31.1956L63.4077 30.9698Z" fill="#0962FF"/>
<path d="M67.0834 33.1527L66.2207 33.6876L66.3655 33.9134L67.2282 33.3785L67.0834 33.1527Z" fill="#0962FF"/>
<path d="M72.556 37.0795L71.6934 37.6146L71.8382 37.8404L72.7008 37.3053L72.556 37.0795Z" fill="#0962FF"/>
<path d="M15.0644 3.40908L14.1925 2.9116C13.8923 2.74173 12.49 3.41312 12.49 3.75287L12.6874 3.95914C12.6874 5.22104 12.7943 5.08757 11.6839 4.50515C11.1667 4.19171 10.7184 3.77981 10.3653 3.29363C10.0122 2.80745 9.76141 2.25678 9.62767 1.67397C9.54282 1.26864 9.30659 0.909306 8.96556 0.666877C8.49674 0.379714 6.99978 1.05111 7.11904 1.62948C7.53029 3.60726 9.2781 6.17959 10.9601 7.04108C12.4324 7.79337 14.4352 6.45462 14.8711 5.17655C14.9287 5.00668 15.0932 4.96623 15.2824 5.07139L22.4669 9.11998C24.3274 10.194 26.0986 11.4112 27.7638 12.7601L31.8557 15.9957C33.5665 17.3628 35.7708 20.1333 37.531 21.1849C37.5599 21.2028 37.5934 21.2124 37.6276 21.2124C37.6618 21.2124 37.6953 21.2028 37.7243 21.1849L38.7195 20.6024C38.7467 20.5856 38.7693 20.5624 38.7851 20.5349C38.8009 20.5073 38.8094 20.4763 38.81 20.4447V16.9907C38.8098 16.9585 38.8009 16.927 38.7843 16.8992C38.7677 16.8715 38.7439 16.8487 38.7154 16.8329L15.0644 3.40908Z" fill="#141414"/>
<path d="M37.6247 21.3912C37.5591 21.392 37.4947 21.3737 37.4396 21.3386C36.391 20.7117 35.2024 19.5024 34.0551 18.3335C33.3265 17.56 32.5549 16.8268 31.7438 16.1373L27.6519 12.8734C25.9928 11.5424 24.2299 10.3415 22.3797 9.28184L15.2075 5.20494C15.1717 5.18009 15.1274 5.16993 15.0841 5.17663C15.0703 5.18487 15.06 5.19783 15.0553 5.21303C14.8672 5.66328 14.5879 6.07118 14.2344 6.41189C13.8809 6.7526 13.4606 7.019 12.9991 7.19486C12.6687 7.34633 12.3087 7.42482 11.9442 7.42482C11.5797 7.42482 11.2197 7.34633 10.8894 7.19486C9.21557 6.33741 7.37728 3.75295 6.9537 1.66192C6.90023 1.39093 7.07707 1.09568 7.45131 0.853007C7.94069 0.521355 8.68506 0.302948 9.07163 0.529443C9.45327 0.797657 9.71771 1.19786 9.81189 1.64978C10.0767 2.7701 10.782 3.74158 11.7735 4.35154L12.156 4.55781C12.2917 4.63061 12.4274 4.70746 12.5056 4.73981C12.5148 4.58221 12.5148 4.42421 12.5056 4.2666V4.02798L12.3082 3.8217V3.75295C12.3082 3.55476 12.5179 3.34849 12.9374 3.09368C12.9744 3.07346 13.9038 2.54767 14.2739 2.76203L38.805 16.6834C38.8596 16.7148 38.905 16.7597 38.9367 16.8136C38.9684 16.8674 38.9854 16.9285 38.9859 16.9907V20.4448C38.9854 20.5066 38.9689 20.5672 38.938 20.621C38.907 20.6748 38.8627 20.7199 38.8091 20.7522L37.8139 21.3346C37.7578 21.3712 37.692 21.3909 37.6247 21.3912ZM15.1006 4.80857C15.2009 4.80943 15.2991 4.83741 15.3843 4.88946L22.5606 8.96232C24.4269 10.0376 26.2048 11.2546 27.8781 12.6024L31.9659 15.8664C32.789 16.5642 33.5715 17.3069 34.31 18.0909C35.441 19.2436 36.613 20.4367 37.6247 21.0434L38.6281 20.4448V16.9907L14.1053 3.05324C13.814 3.06996 13.5314 3.15751 13.2828 3.30805C13.07 3.40741 12.8776 3.54452 12.7153 3.7125L12.8839 3.89046V4.2666C12.8839 4.76813 12.8839 4.9744 12.7194 5.07551C12.5549 5.17663 12.3781 5.07551 11.9997 4.86924L11.6214 4.66701C11.0814 4.33913 10.6142 3.90764 10.2474 3.39828C9.88074 2.88893 9.62212 2.31215 9.487 1.70236C9.41265 1.3378 9.20116 1.01425 8.8948 0.796383C8.71385 0.68718 8.12576 0.796384 7.66105 1.11186C7.41841 1.27768 7.2827 1.45564 7.30738 1.58103C7.71863 3.6033 9.46232 6.05429 11.058 6.87129C11.3421 7.00092 11.6516 7.06807 11.9648 7.06807C12.278 7.06807 12.5875 7.00092 12.8716 6.87129C13.2836 6.71263 13.6593 6.47453 13.9764 6.17099C14.2935 5.86746 14.5457 5.50462 14.7181 5.10382C14.7362 5.04663 14.767 4.99411 14.8082 4.95004C14.8495 4.90598 14.9002 4.87147 14.9566 4.84902C15.0027 4.83255 15.0515 4.82433 15.1006 4.82475V4.80857Z" fill="#141414"/>
<path d="M13.8876 4.1008L13.0075 3.60332C12.7114 3.43345 12.4647 3.57501 12.4647 3.91475C12.4647 5.1726 11.6134 5.77928 10.503 5.19687C9.98552 4.88378 9.53697 4.47198 9.18382 3.98575C8.83068 3.49951 8.58007 2.94867 8.44677 2.36569C8.3605 1.95989 8.12281 1.60059 7.78054 1.3586C7.31172 1.07143 6.95804 1.3586 7.06086 1.93292C7.47211 3.9107 8.90325 6.00982 10.5853 6.87536C12.0575 7.62764 13.2543 7.14634 13.6902 5.86827C13.7478 5.70244 13.9123 5.65795 14.1015 5.76311L21.2778 9.84001C23.1384 10.8977 24.9109 12.0987 26.5788 13.4316L30.6913 16.6955C32.3586 18.032 34.1297 19.2382 35.9882 20.3033L37.37 21.0879C37.398 21.1034 37.4298 21.1114 37.462 21.1111C37.4941 21.1109 37.5257 21.1024 37.5535 21.0864C37.5814 21.0705 37.6045 21.0477 37.6206 21.0203C37.6367 20.9929 37.6453 20.9618 37.6455 20.9302V17.6945C37.6466 17.6626 37.6387 17.631 37.6228 17.6032C37.6068 17.5753 37.5834 17.5524 37.555 17.5368L13.8876 4.1008Z" fill="#86B2FF"/>
<path d="M37.4447 21.286C37.3854 21.2886 37.3262 21.2775 37.272 21.2537L35.8861 20.4448C34.0189 19.3709 32.2409 18.1538 30.5686 16.8047L26.4726 13.569C24.8145 12.2354 23.0516 11.0331 21.2003 9.97344L14.024 5.8844C14.0077 5.87087 13.9886 5.86097 13.968 5.85539C13.9474 5.8498 13.9258 5.84866 13.9048 5.85205C13.9048 5.85205 13.8801 5.87632 13.876 5.89249C13.7896 6.18868 13.6379 6.46254 13.4318 6.6946C13.2257 6.92667 12.9702 7.11127 12.6833 7.23528C12.3269 7.35331 11.9486 7.3931 11.5749 7.35188C11.2011 7.31065 10.8411 7.1894 10.5202 6.99665C8.8464 6.13921 7.32477 4.00774 6.90529 1.93693C6.85856 1.79442 6.85588 1.64147 6.89761 1.49747C6.93934 1.35347 7.0236 1.22489 7.13971 1.12802C7.25522 1.06035 7.38875 1.02841 7.52296 1.03634C7.65717 1.04428 7.78585 1.09172 7.89229 1.17251C8.27548 1.44 8.54144 1.84029 8.63665 2.29285C8.7616 2.85268 8.99869 3.38243 9.33409 3.85117C9.66948 4.3199 10.0965 4.71824 10.5901 5.02292C10.7617 5.1365 10.9604 5.20408 11.1667 5.21898C11.373 5.23388 11.5797 5.19557 11.7663 5.10785C11.9513 4.96595 12.0966 4.78019 12.1887 4.56797C12.2807 4.35575 12.3165 4.12402 12.2927 3.89449C12.2765 3.7946 12.2917 3.69224 12.3362 3.60106C12.3807 3.50987 12.4524 3.43419 12.5417 3.3841C12.6311 3.33402 12.7338 3.31191 12.8363 3.32071C12.9387 3.32952 13.036 3.36883 13.1152 3.43341L37.6339 17.3547C37.6901 17.3857 37.737 17.4309 37.7695 17.4857C37.802 17.5404 37.8191 17.6027 37.8189 17.6662V20.9018C37.8191 20.9647 37.8025 21.0266 37.7707 21.0813C37.739 21.1359 37.6932 21.1814 37.638 21.2132C37.5809 21.2533 37.5144 21.2784 37.4447 21.286ZM13.9212 5.51231C14.02 5.51505 14.1163 5.54292 14.2009 5.5932L21.3772 9.66605C23.2446 10.7395 25.0226 11.9567 26.6946 13.3061L30.8071 16.5661C32.453 17.8943 34.202 19.0938 36.0382 20.1536L37.4241 20.9382V17.7026L12.926 3.75697C12.8396 3.70844 12.7656 3.69226 12.7204 3.71653C12.6931 3.74157 12.6723 3.77255 12.6594 3.80697C12.6465 3.84138 12.6421 3.87829 12.6463 3.91471C12.6721 4.20471 12.6213 4.49633 12.4988 4.76134C12.3763 5.02635 12.1863 5.25576 11.9472 5.42737C11.7092 5.54763 11.4431 5.60387 11.1759 5.59037C10.9087 5.57688 10.6498 5.49413 10.4256 5.35052C9.8844 5.02407 9.41619 4.59301 9.04932 4.08342C8.68245 3.57384 8.42454 2.99633 8.2912 2.38587C8.21535 2.02727 8.00735 1.70891 7.70722 1.49203C7.55917 1.399 7.41935 1.37878 7.34122 1.4354C7.26308 1.49203 7.20962 1.67403 7.25074 1.88435C7.66199 3.86213 9.09726 5.8844 10.6847 6.69331C10.9599 6.86179 11.2691 6.96931 11.5908 7.00843C11.9125 7.04754 12.239 7.0173 12.5476 6.91981C12.7879 6.8151 13.0014 6.65917 13.1728 6.4633C13.3442 6.26744 13.4692 6.03655 13.5388 5.78733C13.5568 5.73014 13.5876 5.67762 13.6289 5.63355C13.6701 5.58949 13.7208 5.55498 13.7773 5.53253C13.8239 5.5188 13.8726 5.51332 13.9212 5.51635V5.51231Z" fill="#141414"/>
<path d="M33.1612 16.6075L32.9844 16.9087L35.9618 18.5993L36.1386 18.2981L33.1612 16.6075Z" fill="#141414"/>
<path d="M9.45747 1.79743L8.59473 2.33237L8.73948 2.55818L9.60222 2.02323L9.45747 1.79743Z" fill="#0962FF"/>
<path d="M38.5072 16.8329L37.6445 17.368L37.7893 17.5938L38.652 17.0587L38.5072 16.8329Z" fill="#0962FF"/>
<path d="M16.4702 4.31579L15.6074 4.85074L15.7522 5.07655L16.6149 4.5416L16.4702 4.31579Z" fill="#0962FF"/>
<path d="M34.853 14.647L33.9902 15.182L34.135 15.4078L34.9977 14.8728L34.853 14.647Z" fill="#0962FF"/>
<path d="M49.934 23.3464L49.0713 23.8813L49.216 24.1072L50.0788 23.5722L49.934 23.3464Z" fill="#0962FF"/>
<path d="M29.7123 11.8274L28.8496 12.3625L28.9944 12.5882L29.8571 12.0531L29.7123 11.8274Z" fill="#0962FF"/>
<path d="M42.745 21.6581C42.3613 20.1583 41.5527 18.7965 40.4132 17.7308C38.8916 16.3152 37.4399 15.9957 36.4858 16.5175L35.1533 17.3264L35.4947 17.8967C35.4021 18.2397 35.3565 18.5933 35.3589 18.9482C35.3589 21.3386 37.0615 24.2385 39.163 25.4195C39.5062 25.6192 39.8777 25.7677 40.2652 25.8604L40.5489 26.3376C40.565 26.3625 40.5904 26.3802 40.6195 26.387C40.6487 26.3938 40.6795 26.3892 40.7052 26.374L42.0088 25.5651C42.8601 24.9706 43.2385 23.5954 42.745 21.6581Z" fill="white"/>
<path d="M40.644 26.5682H40.5741C40.5361 26.5598 40.5002 26.5435 40.4691 26.5205C40.4379 26.4975 40.412 26.4683 40.3931 26.4347L40.1464 26.0302C39.7696 25.9311 39.4084 25.7814 39.073 25.5853C36.9263 24.372 35.1785 21.3911 35.1785 18.9523C35.1767 18.6062 35.2182 18.2612 35.3019 17.925L34.8906 17.2698L36.4493 16.3193C37.5473 15.7611 39.0607 16.2344 40.5124 17.5893C41.6792 18.6758 42.5055 20.068 42.8936 21.6015C43.3747 23.4781 43.0704 25.0191 42.0711 25.7188L40.7592 26.5277C40.7242 26.5493 40.6849 26.5631 40.644 26.5682ZM35.3882 17.3749L35.6802 17.8643V17.9331C35.5914 18.2616 35.5472 18.6002 35.5486 18.9402C35.5486 21.2698 37.2142 24.1091 39.2499 25.2739C39.5784 25.4595 39.9332 25.5958 40.3027 25.6784H40.3767L40.6646 26.1637L41.8983 25.3993C42.7496 24.7926 43.0005 23.377 42.5604 21.6581C42.1885 20.1892 41.3964 18.8558 40.278 17.8158C38.9127 16.5417 37.5226 16.0968 36.5768 16.6307L35.3882 17.3749Z" fill="#141414"/>
<path d="M38.0932 20.3153L37.2214 20.8735C37.2214 20.8735 37.1227 22.192 37.0322 23.4984C37.5985 24.273 38.3174 24.9277 39.146 25.4236C39.4893 25.6233 39.8607 25.7718 40.2482 25.8645L40.4949 26.2689C40.5073 26.2897 40.5236 26.308 40.5432 26.3225C40.5627 26.3371 40.585 26.3476 40.6087 26.3537C40.6324 26.3597 40.6571 26.361 40.6813 26.3576C40.7056 26.3541 40.7289 26.346 40.7499 26.3336L41.9837 25.5733C42.58 25.1688 42.9419 24.3599 42.9419 23.2557C42.8739 21.6479 42.315 20.0976 41.338 18.8067L39.5079 19.7976L38.0932 20.3153Z" fill="#0962FF"/>
<path d="M40.6693 26.54C40.6406 26.544 40.6116 26.544 40.5829 26.54C40.5359 26.5287 40.4916 26.5081 40.4527 26.4797C40.4139 26.4512 40.3812 26.4153 40.3567 26.3742L40.147 26.0263C39.7702 25.9272 39.409 25.7775 39.0736 25.5814C38.2225 25.075 37.4851 24.4035 36.9063 23.6077L36.8652 23.5551V23.4945C36.9557 22.1881 37.0544 20.8695 37.0544 20.8695V20.7846L38.0414 20.1577L39.4479 19.6683L41.4054 18.6086L41.4959 18.734C42.4929 20.0511 43.0658 21.6317 43.1409 23.272C43.1409 24.3843 42.7708 25.2579 42.1046 25.7311L40.8708 26.4955C40.8098 26.5302 40.7395 26.5457 40.6693 26.54ZM37.2312 23.4459C37.7737 24.1816 38.4602 24.8032 39.2505 25.2741C39.579 25.4596 39.9338 25.5959 40.3033 25.6785H40.3773L40.6652 26.1598L41.8989 25.3994C42.4623 24.995 42.7749 24.2265 42.7749 23.2316C42.7067 21.7179 42.1923 20.2564 41.2944 19.0252L39.5754 19.9514L38.1771 20.4408L37.3916 20.9423C37.3834 21.2821 37.3053 22.362 37.2312 23.4459Z" fill="#141414"/>
<path d="M42.5803 21.1688L41.2067 21.913L39.7838 22.4064L38.916 22.9686C38.916 22.9686 38.8379 24.0162 38.7598 25.1688C38.8914 25.2578 39.0271 25.3468 39.171 25.4237C39.5143 25.6233 39.8857 25.7719 40.2732 25.8645L40.5487 26.3256C40.5575 26.3403 40.5693 26.3531 40.5833 26.3632C40.5974 26.3733 40.6134 26.3804 40.6303 26.3842C40.6473 26.388 40.6648 26.3884 40.6819 26.3852C40.699 26.3821 40.7152 26.3756 40.7297 26.366L42.0169 25.5814C42.6132 25.1769 42.9751 24.368 42.9751 23.2639C42.9592 22.5491 42.8259 21.8416 42.5803 21.1688Z" fill="#141414"/>
<path d="M40.6491 26.5602C40.6246 26.5642 40.5996 26.5642 40.575 26.5602C40.5354 26.5505 40.4981 26.533 40.4656 26.5086C40.4331 26.4843 40.406 26.4537 40.3859 26.4187L40.1473 26.0142C39.6127 25.8627 39.108 25.6234 38.6545 25.3064L38.5723 25.2498V25.1527C38.6504 24 38.7285 22.9525 38.7285 22.9525V22.8716L39.7155 22.2447L41.122 21.7593L42.6683 20.9221L42.7382 21.1163C42.992 21.8071 43.1309 22.5336 43.1495 23.268C43.1495 24.3802 42.7793 25.2538 42.1131 25.727L40.8177 26.5359C40.7652 26.5603 40.7065 26.5688 40.6491 26.5602ZM38.9383 25.0799C39.0534 25.1568 39.1521 25.2174 39.2508 25.2741C39.5793 25.4596 39.9342 25.5959 40.3036 25.6785H40.3776L40.6655 26.1639L41.8993 25.3994C42.4627 24.995 42.7752 24.2265 42.7752 23.2316C42.7667 22.6064 42.6627 21.9861 42.4668 21.3913L41.2331 22.0465L39.8348 22.5318L39.0493 23.0334C39.0658 23.3327 39.0041 24.1618 38.9383 25.0799Z" fill="#141414"/>
<path d="M41.6845 24.0363C41.6845 26.4226 39.9819 27.3892 37.8804 26.1961C35.779 25.0029 34.0723 22.103 34.0723 19.7248C34.0723 17.3466 35.779 16.3719 37.8804 17.565C39.9819 18.7582 41.6845 21.6581 41.6845 24.0363Z" fill="#0962FF"/>
<path d="M39.578 26.8837C38.944 26.8623 38.3269 26.6767 37.7891 26.3458C35.6423 25.1324 33.8945 22.1516 33.8945 19.7127C33.8945 18.4994 34.3058 17.5812 35.0995 17.1404C35.8932 16.6995 36.8925 16.7926 37.9782 17.4033C40.125 18.6166 41.8728 21.5975 41.8728 24.0363C41.8728 25.2497 41.4615 26.1678 40.6719 26.6087C40.3395 26.7964 39.9613 26.8915 39.578 26.8837ZM36.1811 17.2091C35.8643 17.2034 35.5518 17.2816 35.2763 17.4356C34.6142 17.8118 34.2523 18.6166 34.2523 19.7046C34.2523 22.0343 35.8973 24.8736 37.9536 26.0384C38.9118 26.5804 39.8083 26.6734 40.4663 26.3013C41.1243 25.9292 41.4944 25.1162 41.4944 24.0283C41.4944 21.6986 39.8289 18.8593 37.7932 17.6985C37.309 17.3986 36.7529 17.2298 36.1811 17.2091Z" fill="#141414"/>
<path d="M40.4066 23.3084C40.4066 24.8938 39.2757 25.5329 37.8815 24.7442C37.1469 24.2729 36.5355 23.6381 36.0968 22.8911C35.6581 22.1442 35.4045 21.3061 35.3564 20.4448C35.3564 18.8634 36.4874 18.2203 37.8815 19.013C38.6156 19.4839 39.2267 20.1181 39.6653 20.8643C40.104 21.6105 40.3579 22.4478 40.4066 23.3084Z" fill="#141414"/>
<path d="M39.0073 25.2578C38.5705 25.246 38.1448 25.1204 37.7735 24.8938C37.0141 24.4055 36.382 23.7484 35.9283 22.9756C35.4747 22.2027 35.2122 21.3358 35.1621 20.4448C35.1621 19.6359 35.4541 18.9887 35.9846 18.6894C36.5151 18.3901 37.2184 18.4468 37.9463 18.8634C38.7081 19.3495 39.3422 20.006 39.7968 20.7792C40.2514 21.5524 40.5135 22.4205 40.5618 23.3124C40.5618 24.1213 40.2657 24.7684 39.7393 25.0717C39.5159 25.1952 39.2636 25.2593 39.0073 25.2578ZM36.7536 18.827C36.5539 18.8247 36.3569 18.8735 36.182 18.9685C35.7708 19.2071 35.5322 19.7248 35.5322 20.4245C35.5787 21.2555 35.8233 22.0641 36.2462 22.785C36.6692 23.5059 37.2586 24.1188 37.9668 24.5743C38.5837 24.9261 39.1553 24.9787 39.5748 24.7482C39.9943 24.5176 40.2246 23.9918 40.2246 23.2921C40.1784 22.4611 39.934 21.6523 39.511 20.9314C39.0881 20.2105 38.4985 19.5977 37.79 19.1424C37.4783 18.9506 37.1211 18.8418 36.7536 18.827Z" fill="#141414"/>
<path d="M37.8794 19.005C37.5308 18.792 37.13 18.676 36.7197 18.6693C36.5457 18.8619 36.4126 19.0866 36.3278 19.3303C36.2431 19.574 36.2085 19.8319 36.2261 20.0889C36.2732 20.9504 36.5265 21.7889 36.9652 22.5359C37.404 23.283 38.0159 23.9177 38.7512 24.3883C39.0981 24.6021 39.4975 24.7195 39.9068 24.728C40.081 24.5346 40.2146 24.3093 40.3 24.065C40.3854 23.8207 40.4209 23.5622 40.4044 23.3043C40.3564 22.443 40.1028 21.605 39.6641 20.858C39.2254 20.1111 38.614 19.4763 37.8794 19.005Z" fill="#86B2FF"/>
<path d="M39.8747 24.8939C39.4453 24.8798 39.0271 24.7557 38.6615 24.5339C37.9022 24.0454 37.2703 23.3883 36.8167 22.6155C36.3631 21.8427 36.1005 20.9759 36.05 20.0849C36.0323 19.8046 36.0716 19.5236 36.1655 19.2583C36.2594 18.993 36.4061 18.7488 36.597 18.5399L36.6463 18.4914H36.7204C37.1571 18.4996 37.5835 18.6239 37.9541 18.8513C38.716 19.3375 39.3501 19.994 39.8047 20.7672C40.2592 21.5404 40.5214 22.4084 40.5697 23.3003C40.5877 23.581 40.5483 23.8624 40.4536 24.1279C40.3589 24.3933 40.211 24.6373 40.0186 24.8453L39.9692 24.8939H39.8623H39.8747ZM36.7985 18.8271C36.51 19.1783 36.3636 19.6219 36.3873 20.0728C36.4341 20.9037 36.6788 21.7122 37.1017 22.433C37.5246 23.1538 38.1138 23.7668 38.8219 24.2225C39.1229 24.4044 39.4645 24.5113 39.8171 24.5339C40.0978 24.1796 40.2368 23.7365 40.2078 23.2882C40.1623 22.4575 39.9181 21.6491 39.495 20.9288C39.072 20.2084 38.482 19.5964 37.7732 19.1425C37.4784 18.9627 37.1443 18.8546 36.7985 18.8271Z" fill="#141414"/>
<path d="M37.6624 20.0385L35.9072 20.9801L36.0375 21.215L37.7927 20.2734L37.6624 20.0385Z" fill="#0962FF"/>
<path d="M39.3822 23.4055L37.6328 24.3478L37.7632 24.5819L39.5125 23.6396L39.3822 23.4055Z" fill="#0962FF"/>
<path d="M42.7109 23.8497L41.7695 24.3568L41.8999 24.5909L42.8413 24.0838L42.7109 23.8497Z" fill="#0962FF"/>
<path d="M4.00121 26.6936C3.76042 26.8501 3.56047 27.0602 3.41758 27.3068C3.27469 27.5535 3.19286 27.8297 3.17871 28.1133V29.6947C3.17871 30.2164 3.55295 30.4308 4.00121 30.1679C4.24155 30.0109 4.44114 29.8007 4.58397 29.5542C4.72681 29.3077 4.80892 29.0316 4.82371 28.7483V27.1668C4.83605 26.641 4.46181 26.4307 4.00121 26.6936ZM4.00121 28.2872C3.67632 28.4732 3.41313 28.3236 3.41313 27.9555C3.4246 27.7548 3.48377 27.5594 3.58591 27.3852C3.68804 27.211 3.83028 27.0628 4.00121 26.9525C4.3261 26.7705 4.5893 26.9201 4.5893 27.2882C4.57848 27.4885 4.51955 27.6835 4.41733 27.8572C4.31511 28.0308 4.17251 28.1782 4.00121 28.2872Z" fill="#141414"/>
<path d="M3.62762 30.455C3.52097 30.457 3.41578 30.4304 3.3233 30.3781C3.21061 30.304 3.12023 30.2014 3.06163 30.0812C3.00303 29.9609 2.97836 29.8274 2.99019 29.6946V28.1293C3.00517 27.8139 3.09659 27.5065 3.25682 27.2328C3.41706 26.9592 3.64149 26.7271 3.91139 26.556C4.01874 26.4712 4.14967 26.4202 4.28699 26.4099C4.42432 26.3996 4.56159 26.4304 4.68081 26.4982C4.80003 26.566 4.89561 26.6677 4.95499 26.7899C5.01437 26.9121 5.03478 27.0491 5.01353 27.1829V28.7643C4.99777 29.0801 4.90558 29.3876 4.74464 29.6612C4.5837 29.9349 4.35865 30.1668 4.08822 30.3377C3.94757 30.4152 3.78888 30.4556 3.62762 30.455ZM3.34386 28.3397V29.6946C3.33309 29.7659 3.3419 29.8388 3.36938 29.9056C3.39685 29.9724 3.442 30.0309 3.50014 30.0748C3.56763 30.1021 3.64129 30.1112 3.71356 30.1013C3.78583 30.0913 3.85411 30.0626 3.91139 30.0181C4.12755 29.8778 4.30765 29.6901 4.43752 29.4697C4.5674 29.2494 4.64352 29.0024 4.65987 28.7482V27.7694C4.54577 28.0467 4.34576 28.2816 4.08822 28.4408C4.0017 28.4978 3.90151 28.5315 3.79761 28.5386C3.69371 28.5457 3.58973 28.5259 3.49602 28.4812C3.43589 28.4449 3.38408 28.3967 3.34386 28.3397ZM4.26506 27.0495C4.20227 27.0537 4.14153 27.0732 4.08822 27.1061C3.9446 27.2006 3.82502 27.3264 3.73873 27.4737C3.65245 27.621 3.60177 27.7858 3.59061 27.9554C3.58535 27.9963 3.59006 28.0378 3.60437 28.0764C3.61867 28.1151 3.64215 28.1499 3.67286 28.1779C3.71296 28.1907 3.75565 28.1938 3.79722 28.1867C3.83879 28.1797 3.87798 28.1628 3.91139 28.1374C4.05621 28.0438 4.17692 27.9183 4.26399 27.7709C4.35106 27.6235 4.40211 27.4582 4.41311 27.2881C4.41859 27.2469 4.41357 27.205 4.39849 27.1661C4.38342 27.1273 4.35877 27.0928 4.32675 27.0656C4.30858 27.0537 4.28687 27.048 4.26506 27.0495Z" fill="#0962FF"/>
<path d="M20.6554 36.3277H19.9974C19.9832 36.3277 19.9696 36.3222 19.9596 36.3123C19.9495 36.3024 19.9439 36.2891 19.9439 36.2751C19.9069 34.993 19.0268 33.7109 17.2996 32.7321C13.7752 30.73 8.05468 30.73 4.53027 32.7321C2.80302 33.7109 1.92294 34.993 1.88592 36.2751C1.88592 36.2891 1.8803 36.3024 1.87027 36.3123C1.86025 36.3222 1.84664 36.3277 1.83246 36.3277H1.20325C1.19219 36.3275 1.18131 36.3304 1.1719 36.3361C1.16248 36.3418 1.15494 36.3501 1.15017 36.3599C1.1454 36.3697 1.1436 36.3807 1.14499 36.3914C1.14638 36.4022 1.1509 36.4124 1.15802 36.4207L2.48224 38.168C3.01302 38.9238 3.71749 39.546 4.53849 39.984C8.0629 41.986 13.7834 41.986 17.3078 39.984C18.128 39.5449 18.8322 38.9229 19.364 38.168L20.6883 36.4207C20.695 36.4132 20.6995 36.4041 20.7015 36.3942C20.7034 36.3844 20.7027 36.3742 20.6994 36.3648C20.696 36.3553 20.6902 36.3469 20.6825 36.3404C20.6747 36.3339 20.6654 36.3295 20.6554 36.3277Z" fill="#141414"/>
<path d="M10.9506 41.6545C8.69656 41.6969 6.46874 41.1735 4.47754 40.1337C3.63987 39.6859 2.91914 39.0532 2.37194 38.2854L1.0436 36.5341C1.02147 36.4981 1.00977 36.4568 1.00977 36.4148C1.00977 36.3727 1.02147 36.3314 1.0436 36.2954C1.0624 36.2565 1.09213 36.2236 1.12928 36.2006C1.16644 36.1777 1.20948 36.1657 1.25334 36.166H1.78385C1.87021 34.8111 2.83253 33.5451 4.50632 32.5947C8.07597 30.5724 13.8869 30.5724 17.4566 32.5947C19.1304 33.5451 20.0927 34.8111 20.1791 36.166H20.7055C20.749 36.1658 20.7917 36.1776 20.8288 36.1999C20.866 36.2223 20.896 36.2543 20.9157 36.2925C20.9353 36.3308 20.9438 36.3736 20.94 36.4162C20.9363 36.4589 20.9206 36.4997 20.8946 36.5341L19.5581 38.3015C19.0127 39.0684 18.2932 39.6999 17.4566 40.1458C15.4544 41.1866 13.2146 41.7059 10.9506 41.6545ZM2.59401 37.9941L2.64747 38.075C3.16522 38.8071 3.85144 39.4085 4.65026 39.8304C8.12121 41.8041 13.7677 41.8041 17.2386 39.8304C18.0366 39.4073 18.7225 38.8061 19.2414 38.075L19.3031 37.9941L20.4299 36.5058H20.0187C19.9572 36.5058 19.8982 36.482 19.8544 36.4397C19.8105 36.3973 19.7853 36.3397 19.7843 36.2793C19.7514 35.0052 18.8425 33.8 17.2304 32.8818C13.7594 30.9121 8.11299 30.9121 4.64204 32.8818C3.02994 33.8 2.12108 35.0052 2.08818 36.2793C2.0871 36.3397 2.06192 36.3973 2.01807 36.4397C1.97423 36.482 1.91523 36.5058 1.85376 36.5058H1.44251L2.59401 37.9941Z" fill="#141414"/>
<path d="M5.76032 40.5543C8.50317 41.5675 11.4897 41.7589 14.3431 41.1044L16.4487 36.801L2.61426 35.7211L5.76032 40.5543Z" fill="#0962FF"/>
<path d="M10.9519 41.6584C9.16065 41.6726 7.38285 41.3528 5.71262 40.7161L5.65915 40.6958L2.29102 35.5229L16.7094 36.6472L14.4558 41.254L14.3735 41.2742C13.2516 41.5302 12.1036 41.6591 10.9519 41.6584ZM5.89767 40.4127C8.56535 41.392 11.4665 41.5805 14.2419 40.9547L16.1995 36.9546L2.9778 35.9233L5.89767 40.4127Z" fill="#141414"/>
<path d="M10.9371 39.9517C16.8901 39.9517 21.7159 37.2119 21.7159 33.8323C21.7159 30.4526 16.8901 27.7129 10.9371 27.7129C4.98406 27.7129 0.158203 30.4526 0.158203 33.8323C0.158203 37.2119 4.98406 39.9517 10.9371 39.9517Z" fill="white"/>
<path d="M10.9516 40.1175C8.1592 40.1175 5.37093 39.5149 3.24477 38.3096C1.11861 37.1044 0 35.531 0 33.8323C0 32.1336 1.15151 30.5401 3.24477 29.351C7.49298 26.9242 14.4102 26.9242 18.6625 29.351C20.7558 30.5401 21.9073 32.1296 21.9073 33.8323C21.9073 35.5351 20.7558 37.1205 18.6625 38.3096C16.5693 39.4987 13.7234 40.1175 10.9516 40.1175ZM10.9516 27.8868C8.225 27.8868 5.49841 28.4733 3.4216 29.6543C1.44349 30.7787 0.353681 32.259 0.353681 33.8323C0.353681 35.4056 1.44349 36.8819 3.4216 38.0063C7.57523 40.3643 14.3321 40.3643 18.4857 38.0063C20.4638 36.8819 21.5536 35.4016 21.5536 33.8323C21.5536 32.263 20.4638 30.7787 18.4857 29.6543C16.3883 28.4733 13.6617 27.8868 10.9516 27.8868Z" fill="#141414"/>
<path d="M10.9307 38.7788C16.0819 38.7788 20.2578 36.5642 20.2578 33.8323C20.2578 31.1004 16.0819 28.8858 10.9307 28.8858C5.77942 28.8858 1.60352 31.1004 1.60352 33.8323C1.60352 36.5642 5.77942 38.7788 10.9307 38.7788Z" fill="#86B2FF"/>
<path d="M10.951 38.9486C8.63727 38.9934 6.34652 38.4898 4.27235 37.4804C2.45052 36.5178 1.45117 35.2195 1.45117 33.8403C1.45117 32.4611 2.45052 31.1548 4.27235 30.2002C7.9736 28.2467 13.9491 28.2467 17.6297 30.2002C19.4516 31.1669 20.455 32.4611 20.455 33.8403C20.455 35.2195 19.4516 36.5259 17.6297 37.4804C15.8079 38.4349 13.3486 38.9486 10.951 38.9486ZM10.951 29.0556C8.69564 29.0122 6.46274 29.5033 4.44097 30.4874C2.7425 31.3893 1.80485 32.5744 1.80485 33.8322C1.80485 35.0901 2.7425 36.259 4.44097 37.1771C8.03118 39.078 13.875 39.078 17.4611 37.1771C19.1637 36.2711 20.1014 35.0861 20.1014 33.8322C20.1014 32.5784 19.1637 31.4055 17.4611 30.4874C15.4397 29.5024 13.2066 29.0113 10.951 29.0556Z" fill="#141414"/>
<path d="M4.33882 31.814C7.98249 29.8807 13.8839 29.8807 17.5276 31.814C18.9464 32.5663 19.8141 33.5046 20.1267 34.4794C20.1288 34.4846 20.1325 34.4891 20.1373 34.4923C20.142 34.4955 20.1477 34.4972 20.1534 34.4972C20.1592 34.4972 20.1648 34.4955 20.1696 34.4923C20.1743 34.4891 20.178 34.4846 20.1802 34.4794C20.5421 33.0072 19.6579 31.4662 17.5276 30.3378C13.8839 28.4045 7.98249 28.4045 4.33882 30.3378C2.20854 31.4662 1.32435 33.0072 1.68625 34.4794C1.68839 34.4846 1.69208 34.4891 1.69684 34.4923C1.70161 34.4955 1.70723 34.4972 1.71298 34.4972C1.71874 34.4972 1.72436 34.4955 1.72912 34.4923C1.73389 34.4891 1.73758 34.4846 1.73972 34.4794C2.05227 33.5046 2.92001 32.5784 4.33882 31.814Z" fill="#0962FF"/>
<path d="M1.71401 34.6736C1.66899 34.6707 1.62605 34.6539 1.59133 34.6255C1.55661 34.5972 1.5319 34.5588 1.52072 34.5158C1.10947 32.898 2.12115 31.3166 4.25965 30.1801C7.9609 28.2266 13.9363 28.2266 17.617 30.1801C19.7596 31.3166 20.759 32.898 20.356 34.5199C20.3452 34.5627 20.3205 34.6009 20.2856 34.6287C20.2507 34.6564 20.2075 34.6722 20.1627 34.6736C20.119 34.6726 20.0767 34.6585 20.0414 34.6332C20.0061 34.6079 19.9795 34.5726 19.9653 34.532C19.6568 33.5613 18.7891 32.6756 17.4567 31.9678C13.8664 30.0628 8.02258 30.0628 4.43236 31.9678C3.09992 32.6756 2.23218 33.5613 1.91963 34.532C1.90606 34.5746 1.87853 34.6116 1.84133 34.6372C1.80414 34.6628 1.75937 34.6756 1.71401 34.6736ZM10.9507 29.0557C8.69527 29.0123 6.46237 29.5034 4.4406 30.4875C2.69279 31.4137 1.75925 32.6392 1.80449 33.9132C2.37898 32.9361 3.23861 32.1513 4.27198 31.6604C7.97323 29.7069 13.9487 29.7069 17.6294 31.6604C18.6632 32.1507 19.523 32.9357 20.0969 33.9132C20.1421 32.6392 19.2086 31.4137 17.4608 30.4875C15.4389 29.5035 13.2061 29.0124 10.9507 29.0557Z" fill="#141414"/>
<path d="M17.1273 38.8285L16.3975 40.1921L16.6376 40.3165L17.3674 38.9529L17.1273 38.8285Z" fill="#0962FF"/>
<path d="M14.9859 30.8595L15.8084 29.6138C12.2181 28.4449 7.45587 28.6795 4.34271 30.3297C2.21244 31.4621 1.32826 33.0031 1.69016 34.4753C1.69229 34.4806 1.69597 34.4851 1.70074 34.4883C1.7055 34.4914 1.71114 34.4931 1.71689 34.4931C1.72265 34.4931 1.72827 34.4914 1.73303 34.4883C1.7378 34.4851 1.74147 34.4806 1.74361 34.4753C2.05616 33.4965 2.9239 32.5622 4.34271 31.81C7.22146 30.2852 11.5149 29.9697 14.9859 30.8595Z" fill="#141414"/>
<path d="M1.71401 34.6695C1.66915 34.6681 1.62598 34.6523 1.59108 34.6246C1.55618 34.5968 1.53147 34.5586 1.52072 34.5158C1.10947 32.898 2.12115 31.3125 4.25965 30.176C7.36047 28.5298 12.1351 28.2346 15.8692 29.448L16.0872 29.5208L15.0632 31.0617L14.9398 31.0294C11.4113 30.1234 7.18363 30.4995 4.42003 31.9677C3.08758 32.6755 2.21985 33.5613 1.9073 34.5279C1.8955 34.5692 1.87012 34.6055 1.83516 34.6311C1.80019 34.6567 1.7576 34.6702 1.71401 34.6695ZM10.9137 29.0516C8.66379 29.0108 6.43684 29.5018 4.42003 30.4834C2.67222 31.4136 1.73868 32.6391 1.78392 33.9131C2.35841 32.9361 3.21804 32.1512 4.25141 31.6603C7.05614 30.1719 11.3208 29.7756 14.9069 30.6613L15.532 29.7109C14.0343 29.2672 12.4778 29.045 10.9137 29.0516Z" fill="#141414"/>
<path d="M4.12921 31.9231L3.87012 31.8382C4.0654 31.2714 4.3262 30.7286 4.64739 30.2204L4.87357 30.3741C4.56576 30.8606 4.316 31.3804 4.12921 31.9231Z" fill="#0962FF"/>
<path d="M18.6301 34.9121C18.3892 35.0695 18.1893 35.2803 18.0465 35.5276C17.9036 35.7749 17.8218 36.0517 17.8076 36.3358V37.9172C17.8076 38.4389 18.1819 38.6493 18.6301 38.3904C18.871 38.233 19.0709 38.0222 19.2138 37.7749C19.3566 37.5276 19.4385 37.2508 19.4526 36.9667V35.3853C19.465 34.8636 19.0907 34.6532 18.6301 34.9121ZM18.6301 36.5097C18.3052 36.6917 18.042 36.5461 18.042 36.174C18.0528 35.9736 18.1118 35.7786 18.214 35.605C18.3162 35.4313 18.4588 35.284 18.6301 35.175C18.955 34.9889 19.2182 35.1386 19.2182 35.5066C19.2074 35.7076 19.1485 35.9031 19.0463 36.0774C18.9441 36.2517 18.8015 36.3998 18.6301 36.5097Z" fill="#141414"/>
<path d="M18.2554 38.6776C18.1485 38.6776 18.0435 38.6497 17.9511 38.5967C17.8387 38.5232 17.7485 38.4214 17.6899 38.3018C17.6313 38.1823 17.6065 38.0495 17.618 37.9172V36.3358C17.6333 36.0204 17.7249 35.7132 17.8851 35.4395C18.0453 35.1659 18.2695 34.9338 18.5392 34.7625C18.6506 34.6865 18.7807 34.6412 18.9159 34.6312C19.0511 34.6213 19.1865 34.647 19.3082 34.7059C19.4206 34.7793 19.5108 34.8812 19.5694 35.0007C19.628 35.1203 19.6528 35.2531 19.6413 35.3853V36.9668C19.6264 37.2822 19.5349 37.5896 19.3747 37.8633C19.2145 38.1369 18.99 38.369 18.7201 38.5401C18.5806 38.6261 18.4201 38.6736 18.2554 38.6776ZM17.9717 36.5583V37.9172C17.9609 37.9885 17.9697 38.0614 17.9972 38.1282C18.0247 38.1951 18.0698 38.2535 18.1279 38.2974C18.1962 38.3218 18.2696 38.329 18.3414 38.3184C18.4132 38.3078 18.4812 38.2797 18.5392 38.2367C18.7569 38.0981 18.9382 37.9108 19.0683 37.69C19.1984 37.4693 19.2735 37.2215 19.2877 36.9668V35.992C19.1737 36.2671 18.9753 36.5004 18.7201 36.6594C18.6337 36.7183 18.5326 36.7532 18.4276 36.7603C18.3227 36.7674 18.2177 36.7465 18.1238 36.6998C18.0627 36.6647 18.0107 36.6163 17.9717 36.5583ZM18.8929 35.2721C18.8316 35.2742 18.7719 35.2924 18.7201 35.3247C18.5753 35.4183 18.4546 35.5438 18.3675 35.6912C18.2805 35.8386 18.2294 36.0039 18.2184 36.174C18.2135 36.2155 18.2183 36.2575 18.2326 36.2967C18.2468 36.336 18.2701 36.3715 18.3007 36.4005C18.3409 36.4124 18.3834 36.4149 18.4248 36.4079C18.4661 36.4009 18.5053 36.3845 18.5392 36.3601C18.6841 36.2655 18.8048 36.1393 18.8918 35.9913C18.9789 35.8432 19.0299 35.6774 19.0409 35.5067C19.0455 35.4659 19.0405 35.4246 19.0262 35.386C19.012 35.3474 18.9888 35.3126 18.9587 35.2842C18.9378 35.2759 18.9154 35.2718 18.8929 35.2721Z" fill="#0962FF"/>
<path d="M18.2417 38.6735C18.1512 38.6741 18.0616 38.6562 17.9785 38.621L18.1019 38.3823C18.1019 38.3823 18.5748 38.5846 19.0971 37.7109L19.3315 37.8485C18.9203 38.5401 18.5049 38.6735 18.2417 38.6735Z" fill="#86B2FF"/>
<path d="M18.461 35.2276L10.9104 11.11L4.16591 26.7583L3.83691 26.6249L10.6266 10.8754C10.6476 10.8161 10.6872 10.765 10.7397 10.7293C10.7922 10.6937 10.8549 10.6754 10.9186 10.6772C10.987 10.6783 11.053 10.7021 11.106 10.7447C11.159 10.7872 11.1958 10.8461 11.2106 10.9118L18.79 35.1224L18.461 35.2276Z" fill="#0962FF"/>
<path d="M12.1851 11.0048L11.0336 8.42847C11.0146 8.38609 10.9835 8.35005 10.9441 8.32475C10.9047 8.29945 10.8586 8.28598 10.8115 8.28598C10.7644 8.28598 10.7184 8.29945 10.6789 8.32475C10.6395 8.35005 10.6084 8.38609 10.5895 8.42847L9.43796 11.0048C9.29813 11.3567 9.56956 11.745 10.2605 11.923C10.619 12.016 10.9959 12.016 11.3544 11.923C12.0329 11.745 12.3003 11.3567 12.1851 11.0048Z" fill="white"/>
<path d="M10.7913 12.1696C10.5914 12.1685 10.3925 12.1427 10.1991 12.0928C10.0123 12.0599 9.83438 11.9894 9.67657 11.8857C9.51875 11.782 9.38443 11.6473 9.28202 11.4902C9.23712 11.4068 9.21095 11.3149 9.20528 11.2207C9.1996 11.1265 9.21455 11.0322 9.24911 10.9441L10.4047 8.35968C10.4368 8.28529 10.4907 8.22203 10.5596 8.17806C10.6285 8.13409 10.7092 8.11141 10.7913 8.11296C10.8734 8.11141 10.9541 8.13409 11.023 8.17806C11.0919 8.22203 11.1459 8.28529 11.1779 8.35968L12.3335 10.9441C12.3681 11.0322 12.383 11.1265 12.3773 11.2207C12.3717 11.3149 12.3455 11.4068 12.3006 11.4902C12.1982 11.6473 12.0639 11.782 11.906 11.8857C11.7482 11.9894 11.5703 12.0599 11.3835 12.0928C11.1901 12.1424 10.9912 12.1682 10.7913 12.1696ZM10.7913 8.46079C10.778 8.46004 10.7647 8.46359 10.7536 8.47088C10.7425 8.47817 10.7341 8.48883 10.7296 8.50123L9.57812 11.0776C9.55906 11.1175 9.54917 11.161 9.54917 11.205C9.54917 11.2491 9.55906 11.2926 9.57812 11.3324C9.74673 11.5499 9.99428 11.6948 10.269 11.7369C10.5979 11.8219 10.9436 11.8219 11.2725 11.7369C11.5472 11.6948 11.7948 11.5499 11.9634 11.3324C11.9825 11.2919 11.9924 11.2477 11.9924 11.203C11.9924 11.1583 11.9825 11.1141 11.9634 11.0736L10.816 8.50123C10.8148 8.49321 10.812 8.4855 10.8078 8.47856C10.8036 8.47161 10.798 8.46557 10.7913 8.46079Z" fill="#141414"/>
<path d="M11.1333 11.9514C11.8941 11.7815 12.3095 11.3568 12.1656 10.9928L11.0141 8.41645C10.996 8.37317 10.9652 8.33618 10.9257 8.31024C10.8861 8.2843 10.8396 8.27058 10.792 8.27085L11.1333 11.9514Z" fill="#141414"/>
<path d="M11.5656 9.9511L11.3057 10.028L11.6989 11.3139L11.9588 11.237L11.5656 9.9511Z" fill="#0962FF"/>
<path d="M11.0624 8.28699H10.5401V8.14543C10.5401 7.83148 10.4658 7.52184 10.323 7.24104C10.1802 6.96024 9.97296 6.71598 9.71758 6.52761C9.4011 6.29679 9.17583 5.96517 9.08015 5.58928C8.99623 5.31142 8.97556 5.01879 9.01963 4.73219C9.0637 4.44558 9.17142 4.17205 9.33512 3.93101C9.45751 3.76061 9.61699 3.61919 9.80195 3.51705C9.98692 3.4149 10.1927 3.35459 10.4044 3.34051C10.7117 3.28825 11.0279 3.34334 11.2983 3.49624C11.5687 3.64914 11.7762 3.89022 11.8849 4.17773L11.3749 4.36782C11.2886 4.13728 11.0912 3.83394 10.4414 3.87843C10.3096 3.8851 10.1811 3.92182 10.0662 3.9857C9.95129 4.04957 9.85306 4.13885 9.77926 4.24649C9.66151 4.4238 9.58498 4.62447 9.55513 4.8342C9.52527 5.04393 9.54283 5.25756 9.60655 5.45985C9.67572 5.71884 9.83232 5.94703 10.0507 6.10698C10.3714 6.34249 10.6327 6.64734 10.8146 6.99798C10.9964 7.34862 11.0938 7.73568 11.0994 8.12925L11.0624 8.28699Z" fill="#141414"/>
<path d="M9.75078 4.26657L9.30664 3.92279C9.43604 3.758 9.59997 3.62252 9.78729 3.52552C9.97462 3.42852 10.181 3.37227 10.3923 3.3606L10.3594 3.89852C10.2377 3.91532 10.1208 3.95669 10.016 4.02003C9.91129 4.08336 9.82098 4.1673 9.75078 4.26657Z" fill="#0962FF"/>
<path d="M61.9827 59.4949C61.7418 59.6523 61.5419 59.8631 61.399 60.1104C61.2561 60.3577 61.1743 60.6345 61.1602 60.9186V62.5081C61.1602 63.0298 61.5344 63.2442 61.9827 62.9813C62.223 62.8243 62.4226 62.6141 62.5654 62.3676C62.7083 62.1211 62.7904 61.845 62.8052 61.5617V59.9762C62.8175 59.4464 62.4433 59.2361 61.9827 59.4949ZM61.9827 61.0925C61.6578 61.2786 61.3946 61.1289 61.3946 60.7568C61.4054 60.5564 61.4643 60.3614 61.5665 60.1878C61.6688 60.0141 61.8114 59.8668 61.9827 59.7578C62.3075 59.5718 62.5707 59.7214 62.5707 60.0895C62.5599 60.2904 62.501 60.4859 62.3988 60.6602C62.2966 60.8345 62.154 60.9826 61.9827 61.0925Z" fill="#141414"/>
<path d="M61.614 63.2603C61.5058 63.2604 61.3994 63.2325 61.3056 63.1794C61.1932 63.1059 61.103 63.0041 61.0444 62.8845C60.9858 62.765 60.961 62.6322 60.9725 62.4999V60.9185C60.9879 60.6027 61.08 60.2951 61.2409 60.0214C61.4019 59.7477 61.6271 59.5158 61.8978 59.3452C62.005 59.2622 62.135 59.2127 62.271 59.2031C62.4071 59.1934 62.543 59.2241 62.6611 59.2911C62.7793 59.3582 62.8744 59.4585 62.934 59.5791C62.9937 59.6998 63.0152 59.8352 62.9958 59.968V61.5535C62.9812 61.8685 62.8899 62.1754 62.7296 62.4485C62.5693 62.7216 62.3447 62.9528 62.0746 63.1228C61.9364 63.2083 61.7773 63.2558 61.614 63.2603ZM61.3261 61.145V62.508C61.3154 62.5793 61.3242 62.6522 61.3517 62.719C61.3791 62.7859 61.4243 62.8443 61.4824 62.8882C61.5505 62.9124 61.6235 62.9199 61.6952 62.9101C61.7669 62.9002 61.835 62.8733 61.8937 62.8316C62.1086 62.6904 62.2876 62.5024 62.4167 62.2821C62.5458 62.0619 62.6215 61.8153 62.638 61.5616V60.5828C62.5241 60.8579 62.3257 61.0912 62.0705 61.2502C61.9845 61.3084 61.8842 61.3428 61.78 61.3499C61.6759 61.357 61.5717 61.3365 61.4783 61.2906C61.4167 61.2544 61.3646 61.2045 61.3261 61.145ZM62.2473 59.8548C62.186 59.8569 62.1264 59.8751 62.0746 59.9074C61.9298 60.001 61.8091 60.1265 61.722 60.2739C61.6349 60.4213 61.5839 60.5866 61.5729 60.7567C61.5674 60.7985 61.5725 60.841 61.5875 60.8805C61.6026 60.92 61.6272 60.9552 61.6593 60.9832C61.6995 60.9951 61.742 60.9976 61.7834 60.9906C61.8248 60.9836 61.8639 60.9672 61.8978 60.9428C62.0415 60.8474 62.1611 60.7208 62.2473 60.5729C62.3336 60.425 62.3842 60.2596 62.3954 60.0894C62.4 60.0486 62.395 60.0073 62.3807 59.9687C62.3664 59.9301 62.3433 59.8953 62.3132 59.8669C62.2923 59.8586 62.2699 59.8545 62.2473 59.8548Z" fill="#0962FF"/>
<path d="M78.6436 69.1331H77.9857C77.9715 69.1331 77.9579 69.1275 77.9479 69.1177C77.9378 69.1078 77.9322 69.0944 77.9322 69.0805C77.8952 67.7943 77.0151 66.5162 75.2879 65.5375C71.7634 63.5152 66.0471 63.5152 62.5186 65.5375C60.7913 66.5162 59.9112 67.7943 59.8783 69.0805C59.8784 69.0877 59.8768 69.0949 59.8739 69.1016C59.871 69.1082 59.8667 69.1142 59.8612 69.1192C59.8558 69.1241 59.8494 69.1279 59.8425 69.1303C59.8355 69.1327 59.8281 69.1336 59.8207 69.1331H59.1915C59.1808 69.1327 59.1702 69.1352 59.1609 69.1404C59.1516 69.1456 59.144 69.1533 59.1389 69.1625C59.1337 69.1718 59.1313 69.1822 59.1319 69.1927C59.1325 69.2033 59.1361 69.2134 59.1422 69.222L60.4705 70.9733C61.0026 71.727 61.7068 72.3476 62.5268 72.7853C66.0553 74.8076 71.7717 74.8076 75.2961 72.7853C76.1157 72.3471 76.8198 71.7266 77.3523 70.9733L78.6766 69.222C78.6823 69.2145 78.686 69.2057 78.6874 69.1964C78.6888 69.1871 78.6878 69.1776 78.6845 69.1688C78.6813 69.16 78.6758 69.1521 78.6687 69.1459C78.6616 69.1396 78.6529 69.1352 78.6436 69.1331Z" fill="#141414"/>
<path d="M68.9367 74.4557C66.683 74.4993 64.4552 73.9773 62.4636 72.9389C61.625 72.489 60.9031 71.8552 60.3539 71.0865L59.0297 69.3353C59.0037 69.3009 58.988 69.2601 58.9843 69.2174C58.9805 69.1748 58.989 69.1319 59.0086 69.0937C59.0283 69.0555 59.0583 69.0235 59.0955 69.0011C59.1326 68.9788 59.1753 68.967 59.2188 68.9672H59.7452C59.8316 67.6082 60.7939 66.3423 62.4718 65.3918C66.0415 63.3696 71.8483 63.3696 75.418 65.3918C77.0918 66.3423 78.0541 67.6082 78.1446 68.9672H78.671C78.7142 68.9674 78.7566 68.9792 78.7935 69.0013C78.8304 69.0234 78.8606 69.055 78.8807 69.0926C78.9011 69.1308 78.91 69.1739 78.9064 69.2169C78.9028 69.2599 78.8867 69.3009 78.8601 69.3353L77.5195 71.1027C76.973 71.8686 76.2537 72.4999 75.418 72.947C73.4232 73.9839 71.1924 74.5032 68.9367 74.4557ZM60.576 70.8156L60.6294 70.8924C61.148 71.6248 61.8339 72.2274 62.6322 72.6518C66.1032 74.6215 71.7496 74.6215 75.2247 72.6518C76.0225 72.2283 76.7073 71.6254 77.2234 70.8924L77.285 70.8156L78.416 69.3231H78.0047C77.9444 69.3231 77.8864 69.2998 77.8433 69.2582C77.8002 69.2166 77.7755 69.16 77.7744 69.1007C77.7374 67.8266 76.8327 66.6173 75.2206 65.7033C71.7496 63.7336 66.0991 63.7336 62.6281 65.7033C61.016 66.6173 60.1072 67.8266 60.0743 69.1007C60.0721 69.1604 60.0465 69.217 60.0028 69.2585C59.959 69.3 59.9006 69.3232 59.8398 69.3231H59.4286L60.576 70.8156Z" fill="#141414"/>
<path d="M63.7478 73.3595C66.4906 74.3729 69.4773 74.5643 72.3306 73.9096L74.4321 69.6062L60.5977 68.5263L63.7478 73.3595Z" fill="#0962FF"/>
<path d="M68.9383 74.4637C67.1483 74.4779 65.3719 74.1581 63.703 73.5214H63.6496L63.6167 73.4728L60.2773 68.3443L74.6958 69.4525L72.4421 74.0593L72.3599 74.0795C71.238 74.3355 70.09 74.4644 68.9383 74.4637ZM63.8881 73.218C66.5548 74.1956 69.4545 74.3827 72.2283 73.7559L74.1817 69.7599L60.96 68.7286L63.8881 73.218Z" fill="#141414"/>
<path d="M76.5384 62.3058C80.7455 64.6961 80.7455 68.5708 76.5384 70.9611C72.3313 73.3514 65.5046 73.3514 61.2975 70.9611C57.0904 68.5708 57.0863 64.6961 61.2975 62.3058C65.5087 59.9154 72.3272 59.9154 76.5384 62.3058Z" fill="white"/>
<path d="M68.9381 72.9227C66.1457 72.9227 63.3534 72.3201 61.2272 71.1108C59.101 69.9014 57.9824 68.3322 57.9824 66.6334C57.9824 64.9347 59.1339 63.3452 61.2272 62.1561C65.4795 59.7294 72.3967 59.7294 76.6491 62.1561C78.7382 63.3452 79.8938 64.9347 79.8938 66.6334C79.8938 68.3322 78.7382 69.9257 76.6491 71.1108C74.5599 72.2958 71.7099 72.9227 68.9381 72.9227ZM68.9381 60.688C66.2115 60.688 63.4808 61.2785 61.404 62.4595C59.4259 63.5798 58.3361 65.0642 58.3361 66.6334C58.3361 68.2027 59.4259 69.6871 61.404 70.8115C65.5576 73.1694 72.3186 73.1694 76.4681 70.8115C78.4503 69.6871 79.536 68.2027 79.536 66.6334C79.536 65.0642 78.4503 63.5798 76.4681 62.4595C74.3707 61.2946 71.6441 60.688 68.9381 60.688Z" fill="#141414"/>
<path d="M68.917 71.5798C74.0682 71.5798 78.2441 69.3652 78.2441 66.6333C78.2441 63.9015 74.0682 61.6869 68.917 61.6869C63.7657 61.6869 59.5898 63.9015 59.5898 66.6333C59.5898 69.3652 63.7657 71.5798 68.917 71.5798Z" fill="#86B2FF"/>
<path d="M68.9385 71.7499C66.5163 71.7499 64.0981 71.2645 62.2599 70.2858C60.4216 69.307 59.4346 68.0249 59.4346 66.6457C59.4346 65.2665 60.438 63.9601 62.2599 63.0056C65.9611 61.0521 71.9324 61.0521 75.6172 63.0056C77.4391 63.9722 78.4425 65.2705 78.4384 66.6457C78.4343 68.0208 77.4391 69.3312 75.6172 70.2858C73.7954 71.2403 71.3361 71.7499 68.9385 71.7499ZM68.9385 61.861C66.6836 61.8173 64.4509 62.3069 62.4285 63.2887C60.7259 64.1906 59.7882 65.3797 59.7882 66.6335C59.7882 67.8873 60.7259 69.0603 62.4285 69.9784C66.0146 71.8834 71.8584 71.8834 75.4486 69.9784C77.1471 69.0764 78.0847 67.8873 78.0847 66.6335C78.0847 65.3797 77.1471 64.2068 75.4486 63.2887C73.4259 62.3078 71.1934 61.8182 68.9385 61.861Z" fill="#141414"/>
<path d="M62.3216 64.6194C65.9653 62.6861 71.8708 62.6861 75.5104 64.6194C76.9333 65.3717 77.7969 66.306 78.1095 67.2847C78.1116 67.29 78.1153 67.2945 78.1201 67.2977C78.1248 67.3008 78.1305 67.3025 78.1362 67.3025C78.142 67.3025 78.1476 67.3008 78.1524 67.2977C78.1571 67.2945 78.1608 67.29 78.1629 67.2847C78.5248 65.8125 77.6448 64.2715 75.5104 63.1391C71.8708 61.2098 65.9653 61.2098 62.3216 63.1391C60.1913 64.2715 59.3071 65.8125 59.6732 67.2847C59.6753 67.29 59.679 67.2945 59.6837 67.2977C59.6885 67.3008 59.6941 67.3025 59.6999 67.3025C59.7056 67.3025 59.7113 67.3008 59.716 67.2977C59.7208 67.2945 59.7245 67.29 59.7266 67.2847C60.0392 66.306 60.9028 65.3717 62.3216 64.6194Z" fill="#0962FF"/>
<path d="M78.1342 67.4748C78.0907 67.4749 78.0485 67.4611 78.0136 67.4356C77.9788 67.4101 77.9533 67.3742 77.9409 67.3333C77.6283 66.3666 76.7606 65.4809 75.4282 64.7731C71.8379 62.8681 65.9982 62.8681 62.408 64.7731C61.0755 65.4809 60.2037 66.3666 59.8953 67.3373C59.8806 67.3781 59.8532 67.4134 59.8171 67.4381C59.7809 67.4627 59.7377 67.4756 59.6937 67.4748C59.6485 67.4749 59.6046 67.4596 59.5694 67.4317C59.5342 67.4037 59.5099 67.3647 59.5004 67.3211C59.0892 65.7033 60.0968 64.1179 62.2394 62.9813C65.9406 61.0278 71.912 61.0278 75.5968 62.9813C77.7353 64.1179 78.7346 65.6993 78.3357 67.3211C78.3249 67.364 78.3002 67.4022 78.2653 67.43C78.2304 67.4577 78.1873 67.4735 78.1424 67.4748H78.1342ZM68.9386 61.861C66.6837 61.8173 64.451 62.3069 62.4286 63.2887C60.6766 64.219 59.7431 65.4445 59.7924 66.7185C60.3647 65.7397 61.225 64.9543 62.2599 64.4657C65.9612 62.5122 71.9325 62.5122 75.6173 64.4657C76.6516 64.9554 77.5115 65.7405 78.0848 66.7185C78.1301 65.4445 77.1965 64.219 75.4487 63.2887C73.4259 62.3078 71.1935 61.8182 68.9386 61.861Z" fill="#141414"/>
<path d="M75.1119 71.6364L74.3818 72.9999L74.622 73.1243L75.352 71.7608L75.1119 71.6364Z" fill="#0962FF"/>
<path d="M72.9689 63.6648L73.7914 62.4191C70.197 61.2461 65.4348 61.4848 62.3216 63.1349C60.1913 64.2634 59.3071 65.8084 59.6732 67.2806C59.6753 67.2859 59.679 67.2904 59.6837 67.2935C59.6885 67.2967 59.6941 67.2984 59.6999 67.2984C59.7056 67.2984 59.7113 67.2967 59.716 67.2935C59.7208 67.2904 59.7245 67.2859 59.7266 67.2806C60.0392 66.3059 60.9028 65.3716 62.3216 64.6152C65.2045 63.0864 69.4979 62.775 72.9689 63.6648Z" fill="#141414"/>
<path d="M59.6957 67.4749C59.6508 67.4735 59.6077 67.4578 59.5728 67.43C59.5379 67.4023 59.5131 67.364 59.5024 67.3212C59.0911 65.7034 60.0987 64.1179 62.2413 62.9814C65.3421 61.3353 70.1168 61.036 73.8468 62.2534L74.0648 62.3262L73.0531 63.8631L72.9297 63.8348C69.3971 62.9288 65.1694 63.305 62.4099 64.7691C61.0775 65.4769 60.2056 66.3626 59.8972 67.3333C59.8838 67.3752 59.8569 67.4117 59.8205 67.4373C59.7842 67.4628 59.7403 67.476 59.6957 67.4749ZM68.8995 61.857C66.6495 61.8153 64.4223 62.3063 62.4058 63.2888C60.6539 64.215 59.7204 65.4445 59.7697 66.7186C60.3415 65.7384 61.2018 64.9516 62.2372 64.4617C65.0378 62.9773 69.3025 62.5769 72.8886 63.4627L73.5137 62.5163C72.0179 62.0704 70.4624 61.8482 68.8995 61.857Z" fill="#141414"/>
<path d="M62.1165 64.7244L61.8574 64.6395C62.0495 64.0721 62.309 63.5291 62.6306 63.0216L62.8568 63.1713C62.5508 63.6596 62.3024 64.1807 62.1165 64.7244Z" fill="#0962FF"/>
<path d="M76.6125 67.7175C76.3722 67.8745 76.1726 68.0847 76.0298 68.3312C75.8869 68.5778 75.8048 68.8538 75.79 69.1372V70.7186C75.79 71.2444 76.1643 71.4547 76.6125 71.1918C76.8536 71.0355 77.0537 70.8255 77.1966 70.5788C77.3395 70.3321 77.4212 70.0557 77.435 69.7722V68.1907C77.4474 67.669 77.0731 67.4546 76.6125 67.7175ZM76.6125 69.3353C76.2877 69.5173 76.0245 69.3677 76.0245 68.9996C76.0353 68.7993 76.0942 68.6043 76.1964 68.4306C76.2986 68.257 76.4412 68.1096 76.6125 68.0006C76.9374 67.8146 77.2006 67.9642 77.2006 68.3323C77.186 68.5296 77.1254 68.7209 77.0234 68.8913C76.9214 69.0618 76.7808 69.2068 76.6125 69.3151V69.3353Z" fill="#141414"/>
<path d="M76.2413 71.4788C76.1324 71.4823 76.0245 71.4572 75.9288 71.406C75.8161 71.3319 75.7257 71.2293 75.6671 71.1091C75.6085 70.9888 75.5838 70.8553 75.5957 70.7225V69.1411C75.6111 68.8258 75.7031 68.5187 75.8641 68.2457C76.0251 67.9726 76.2504 67.7415 76.521 67.5718C76.6276 67.4866 76.758 67.4352 76.8949 67.4245C77.0319 67.4137 77.1689 67.4441 77.2879 67.5116C77.4069 67.5791 77.5023 67.6806 77.5614 67.8025C77.6205 67.9245 77.6406 68.0612 77.619 68.1946V69.7882C77.604 70.1037 77.5126 70.411 77.3524 70.6847C77.1921 70.9584 76.9677 71.1904 76.6978 71.3615C76.5582 71.4379 76.4011 71.4783 76.2413 71.4788ZM75.9576 69.3635V70.7184C75.9358 70.7899 75.9392 70.8664 75.9671 70.9357C75.995 71.0051 76.0459 71.0631 76.1115 71.1005C76.1771 71.1379 76.2536 71.1524 76.3286 71.1418C76.4036 71.1312 76.4729 71.0961 76.5251 71.042C76.7405 70.9013 76.9198 70.7133 77.0489 70.493C77.1781 70.2727 77.2536 70.0259 77.2695 69.772V68.7973C77.1543 69.0717 76.9562 69.3047 76.7019 69.4646C76.6154 69.5217 76.5152 69.5554 76.4113 69.5625C76.3074 69.5696 76.2034 69.5498 76.1097 69.5051C76.0498 69.4773 75.9976 69.4357 75.9576 69.3837V69.3635ZM76.8746 68.0733C76.8131 68.0772 76.7536 68.0967 76.7019 68.1299C76.5576 68.2238 76.4376 68.3494 76.3512 68.4969C76.2648 68.6443 76.2145 68.8094 76.2043 68.9793C76.2043 69.0885 76.2331 69.1734 76.2866 69.2017C76.34 69.2301 76.4264 69.2017 76.5251 69.1613C76.6694 69.0674 76.7895 68.9418 76.8758 68.7944C76.9622 68.647 77.0125 68.4818 77.0227 68.3119C77.028 68.2711 77.0232 68.2296 77.0089 68.1909C76.9946 68.1522 76.9712 68.1175 76.9404 68.0895C76.9206 68.0779 76.8977 68.0723 76.8746 68.0733Z" fill="#0962FF"/>
<path d="M76.2283 71.479C76.1364 71.4799 76.0454 71.462 75.9609 71.4264L76.0884 71.1878L76.0226 71.305L76.0843 71.1837C76.1049 71.1837 76.5614 71.39 77.0837 70.5164L77.3181 70.6539C76.9027 71.3455 76.4873 71.479 76.2283 71.479Z" fill="#86B2FF"/>
<path d="M76.4434 68.0289L68.8969 43.9032L62.1483 59.5556L61.8193 59.4181L68.6132 43.6726C68.6317 43.6108 68.6712 43.5571 68.7251 43.5203C68.7789 43.4835 68.8439 43.4659 68.9093 43.4704C68.978 43.4721 69.0442 43.4959 69.0978 43.5383C69.1513 43.5807 69.1891 43.6393 69.2054 43.705L76.7806 67.9197L76.4434 68.0289Z" fill="#0962FF"/>
<path d="M70.1709 43.8102L69.0194 41.2338C68.9997 41.1917 68.9681 41.156 68.9283 41.1309C68.8886 41.1059 68.8424 41.0926 68.7953 41.0926C68.7481 41.0926 68.7019 41.1059 68.6622 41.1309C68.6225 41.156 68.5909 41.1917 68.5711 41.2338L67.4196 43.8102C67.2839 44.158 67.5553 44.5463 68.2421 44.7283C68.6006 44.8214 68.9776 44.8214 69.3361 44.7283C70.0146 44.5463 70.286 44.158 70.1709 43.8102Z" fill="white"/>
<path d="M68.7736 44.9709C68.5739 44.9709 68.3749 44.9464 68.1814 44.8981C67.995 44.8641 67.8175 44.7931 67.6599 44.6895C67.5022 44.5859 67.3676 44.4518 67.2643 44.2955C67.2193 44.212 67.1934 44.1199 67.1884 44.0256C67.1834 43.9313 67.1995 43.837 67.2355 43.7495L68.3911 41.1609C68.4229 41.0872 68.4762 41.0244 68.5442 40.9805C68.6123 40.9366 68.6922 40.9135 68.7736 40.9142C68.8557 40.9127 68.9364 40.9354 69.0053 40.9793C69.0742 41.0233 69.1281 41.0866 69.1602 41.1609L70.3158 43.7495C70.3512 43.8373 70.3665 43.9317 70.3609 44.026C70.3552 44.1204 70.3285 44.2123 70.2829 44.2955C70.1805 44.4526 70.0461 44.5873 69.8883 44.691C69.7305 44.7947 69.5526 44.8652 69.3658 44.8981C69.1723 44.9467 68.9733 44.9711 68.7736 44.9709ZM68.7736 41.2661C68.7613 41.2653 68.7491 41.2684 68.7387 41.275C68.7283 41.2815 68.7204 41.2912 68.716 41.3025L67.5604 43.8789C67.5455 43.9211 67.5396 43.9659 67.5431 44.0104C67.5467 44.055 67.5595 44.0983 67.581 44.1377C67.749 44.3558 67.9968 44.5009 68.2719 44.5422C68.6008 44.6272 68.9464 44.6272 69.2753 44.5422C69.5518 44.5019 69.8013 44.3567 69.9703 44.1377C69.9885 44.0962 69.9979 44.0515 69.9979 44.0063C69.9979 43.9611 69.9885 43.9163 69.9703 43.8748L68.8188 41.3025C68.8146 41.2934 68.8084 41.2854 68.8005 41.2791C68.7927 41.2728 68.7835 41.2683 68.7736 41.2661Z" fill="#141414"/>
<path d="M69.1148 44.7727C69.8797 44.6028 70.291 44.1741 70.1511 43.8141L68.9996 41.2337C68.9794 41.1915 68.9474 41.1558 68.9074 41.1307C68.8673 41.1056 68.8209 41.0923 68.7734 41.0921L69.1148 44.7727Z" fill="#141414"/>
<path d="M69.549 42.7579L69.2891 42.8348L69.6823 44.1207L69.9422 44.0438L69.549 42.7579Z" fill="#0962FF"/>
<path d="M69.0477 41.0922H68.5007V40.9506C68.4976 40.6401 68.4217 40.3345 68.2791 40.0574C68.1364 39.7804 67.9308 39.5393 67.6782 39.353C67.3647 39.1195 67.1402 38.789 67.0408 38.4147C66.9575 38.1365 66.9375 37.8437 66.9823 37.5571C67.027 37.2705 67.1355 36.9971 67.2999 36.7564C67.4212 36.585 67.5804 36.4428 67.7656 36.3405C67.9508 36.2383 68.1571 36.1786 68.3691 36.1659C68.6759 36.1139 68.9915 36.1691 69.2612 36.3221C69.5309 36.475 69.7376 36.716 69.8455 37.0032L69.3356 37.1932C69.2492 36.9627 69.0559 36.6594 68.402 36.6998C68.2708 36.7088 68.1432 36.7466 68.0287 36.8102C67.9141 36.8739 67.8155 36.9619 67.7399 37.0679C67.6221 37.2451 67.5458 37.446 67.5166 37.6559C67.4874 37.8657 67.5061 38.0793 67.5713 38.2812C67.636 38.5422 67.7918 38.7726 68.0113 38.9324C68.3328 39.1675 68.5949 39.4721 68.7775 39.8228C68.96 40.1735 69.0581 40.5608 69.0641 40.9547L69.0477 41.0922Z" fill="#141414"/>
<path d="M67.7326 37.0598L67.3008 36.7281C67.4294 36.5625 67.5932 36.4265 67.7807 36.3294C67.9682 36.2323 68.1749 36.1765 68.3865 36.1659L68.3536 36.6998C68.2306 36.715 68.1121 36.7547 68.0053 36.8167C67.8985 36.8786 67.8057 36.9613 67.7326 37.0598Z" fill="#0962FF"/>
</svg>
