<svg width="80" height="81" viewBox="0 0 80 81" fill="none" xmlns="http://www.w3.org/2000/svg">
<circle cx="40" cy="40.4365" r="39.6581" fill="#060606" stroke="#0962FF" stroke-width="0.683761"/>
<path d="M66.1197 42.822C66.1133 40.1827 64.3667 37.5457 60.8746 35.5299C53.8905 31.4973 42.5755 31.493 35.5978 35.5213C32.1079 37.5371 30.3656 40.1784 30.3721 42.822V45.8963C30.3721 48.5355 32.1251 51.1726 35.614 53.1883C42.5981 57.222 53.9196 57.2253 60.8918 53.1969C64.3828 51.1812 66.124 48.5398 66.1197 45.8963V42.822Z" fill="white"/>
<path d="M48.2677 56.5036C43.4383 56.5036 38.8996 55.415 35.47 53.438C32.0037 51.4362 30.0913 48.7582 30.086 45.9004V42.8251C30.0795 39.9608 31.9865 37.2785 35.457 35.2745C38.8705 33.3029 43.406 32.2175 48.2246 32.2175C53.0433 32.2175 57.5928 33.3061 61.0213 35.2831C64.4897 37.2849 66.4053 39.9629 66.4107 42.8207V45.8961C66.4107 48.7625 64.508 51.4438 61.0386 53.4466C57.623 55.4182 53.0875 56.5036 48.2677 56.5036ZM48.2236 32.7904C43.504 32.7904 39.0708 33.8488 35.7435 35.7699C32.4603 37.6672 30.6556 40.1707 30.661 42.8207V45.8875C30.6674 48.5429 32.4775 51.0443 35.7585 52.9384C39.0966 54.8658 43.5384 55.9275 48.2677 55.9275C52.997 55.9275 57.4205 54.8691 60.7489 52.948C64.0321 51.0529 65.8379 48.5482 65.8325 45.8961V42.8218C65.8325 40.175 64.0159 37.6736 60.7328 35.7795C57.3947 33.8521 52.9518 32.7904 48.2236 32.7904Z" fill="#141414"/>
<path d="M66.1226 45.8961V42.8218C66.1161 40.1826 64.3695 37.5455 60.8775 35.5298C59.4549 34.7242 57.9424 34.0892 56.3711 33.6378V55.0909C57.9482 54.6405 59.4663 54.0047 60.8937 53.1968C64.3857 51.181 66.1269 48.544 66.1226 45.8961Z" fill="#0962FF"/>
<path d="M56.3686 55.3795C56.3066 55.379 56.2463 55.359 56.1963 55.3224C56.1605 55.2953 56.1315 55.2603 56.1115 55.2201C56.0915 55.18 56.0811 55.1357 56.0811 55.0909V33.6378C56.081 33.5929 56.0915 33.5487 56.1116 33.5085C56.1317 33.4684 56.1609 33.4336 56.1969 33.4068C56.2329 33.38 56.2747 33.362 56.3189 33.3542C56.3631 33.3465 56.4085 33.3492 56.4515 33.3621C58.044 33.82 59.5772 34.4637 61.0193 35.2799C64.4876 37.2817 66.4033 39.9597 66.4087 42.8175V45.8929C66.4087 48.7593 64.5059 51.4405 61.0365 53.4434C59.589 54.2625 58.0496 54.9074 56.4504 55.3644C56.424 55.3732 56.3964 55.3783 56.3686 55.3795ZM56.6572 34.0265V54.7011C58.0818 54.2695 59.4541 53.6812 60.749 52.947C64.0322 51.0518 65.8379 48.5472 65.8326 45.895V42.8207C65.8326 40.174 64.016 37.6726 60.7329 35.7785C59.4425 35.0471 58.0757 34.4596 56.6572 34.0265Z" fill="#141414"/>
<path d="M60.8931 50.1224C67.8697 46.0952 67.8622 39.5612 60.8759 35.5296C53.8896 31.4981 42.5768 31.4927 35.5991 35.521C28.6214 39.5493 28.6301 46.0823 35.6153 50.1138C42.6005 54.1454 53.9144 54.1507 60.8931 50.1224Z" fill="#86B2FF"/>
<path d="M48.2677 53.4291C43.4383 53.4291 38.8995 52.3405 35.4699 50.3635C31.9973 48.3585 30.0859 45.6751 30.0859 42.8098C30.0859 39.9444 31.994 37.2707 35.4581 35.2722C38.8716 33.3005 43.407 32.2151 48.2257 32.2151C53.0444 32.2151 57.5939 33.3038 61.0224 35.2808C64.4972 37.2858 66.4064 39.9692 66.4064 42.8356C66.4064 45.702 64.4994 48.3736 61.0353 50.3732C57.6229 52.3437 53.0875 53.4291 48.2677 53.4291ZM48.2235 32.7901C43.5039 32.7901 39.0708 33.8486 35.7434 35.7696C32.4657 37.6626 30.6599 40.163 30.6599 42.8098C30.6599 45.4565 32.471 47.9665 35.7585 49.8649C39.0966 51.7913 43.5384 52.8531 48.2677 52.8531C52.997 52.8531 57.4205 51.7946 60.7489 49.8736C64.0267 47.9805 65.8325 45.4813 65.8325 42.8345C65.8325 40.1877 64.0213 37.6766 60.7327 35.7793C57.3947 33.8519 52.9518 32.7901 48.2235 32.7901Z" fill="#141414"/>
<path d="M38.1756 48.1217C38.1002 48.0808 38.0173 48.0453 37.944 48.0022C32.2564 44.718 32.251 39.3771 37.9322 36.0971C38.0108 36.0519 38.0959 36.0142 38.1756 35.9711V48.1217ZM50.1679 33.7217C49.4863 33.67 48.8004 33.6399 48.1144 33.642V50.4627C48.8004 50.4627 49.4863 50.4379 50.1679 50.3873V33.7217ZM58.5529 36.1047C57.328 35.4146 56.0228 34.8779 54.6667 34.5067V49.6077C56.0275 49.2382 57.3372 48.7015 58.5658 48.0098C64.2546 44.7298 64.2427 39.391 58.5529 36.1047Z" fill="white"/>
<path d="M46.9223 45.0154C47.4205 44.7282 47.6771 44.4149 47.6922 44.0753C47.7072 43.7372 47.4876 43.2763 47.0375 42.6927C46.1243 41.6331 45.643 40.7358 45.5935 40.0007C45.544 39.2656 46.0759 38.5754 47.1893 37.93C48.2144 37.3378 49.3863 37.0445 50.705 37.0503C52.0398 37.0598 53.3559 37.3647 54.5589 37.943L56.5112 36.8177L57.9627 37.6554L55.9835 38.7968C56.9268 39.5147 57.3575 40.257 57.2757 41.0237C57.1938 41.7904 56.5819 42.4917 55.4397 43.1277L55.3751 43.1428L52.7736 41.6418C53.4369 41.2573 53.7944 40.8783 53.8504 40.4982C53.9064 40.1181 53.6619 39.7735 53.1203 39.4612C52.6133 39.1482 52.0265 38.9886 51.4308 39.0014C50.8718 39.0272 50.3276 39.1895 49.8458 39.4742C49.3763 39.7466 49.1394 40.0384 49.1297 40.3571C49.12 40.6759 49.3386 41.1475 49.7822 41.7774C50.6961 42.8104 51.1702 43.7035 51.2047 44.4565C51.2392 45.2096 50.7032 45.9052 49.597 46.5433C48.524 47.1578 47.3034 47.4668 46.0673 47.4371C44.7383 47.4155 43.4301 47.1043 42.2339 46.525L40.4389 47.562L38.9873 46.7232L40.7823 45.6873C39.7185 44.9529 39.1467 44.1747 39.067 43.3528C38.9873 42.5308 39.6097 41.7512 40.9342 41.014L41.0149 40.9989L43.6089 42.4956C42.8301 42.945 42.4654 43.3758 42.5149 43.7878C42.5644 44.1999 42.8932 44.5807 43.5013 44.9303C44.0373 45.2585 44.6507 45.4388 45.2791 45.4526C45.8562 45.4576 46.4239 45.3065 46.9223 45.0154Z" fill="#141414"/>
<path d="M49.8691 56.463C49.7927 56.4628 49.7196 56.4322 49.6657 56.3781C49.6119 56.324 49.5816 56.2508 49.5816 56.1745V53.1002C49.5792 53.0609 49.5848 53.0215 49.5982 52.9845C49.6116 52.9474 49.6325 52.9135 49.6594 52.8848C49.6864 52.8562 49.719 52.8333 49.7551 52.8177C49.7913 52.802 49.8303 52.794 49.8696 52.794C49.909 52.794 49.948 52.802 49.9841 52.8177C50.0203 52.8333 50.0528 52.8562 50.0798 52.8848C50.1068 52.9135 50.1276 52.9474 50.141 52.9845C50.1544 53.0215 50.1601 53.0609 50.1577 53.1002V56.1745C50.1577 56.251 50.1273 56.3244 50.0731 56.3785C50.019 56.4326 49.9456 56.463 49.8691 56.463ZM53.1199 56.1217C53.0436 56.1217 52.9704 56.0914 52.9163 56.0376C52.8622 55.9837 52.8317 55.9105 52.8314 55.8342V52.7599C52.829 52.7206 52.8346 52.6812 52.848 52.6442C52.8614 52.6072 52.8822 52.5733 52.9092 52.5446C52.9362 52.5159 52.9688 52.493 53.0049 52.4774C53.0411 52.4618 53.08 52.4537 53.1194 52.4537C53.1588 52.4537 53.1978 52.4618 53.2339 52.4774C53.2701 52.493 53.3026 52.5159 53.3296 52.5446C53.3566 52.5733 53.3774 52.6072 53.3908 52.6442C53.4042 52.6812 53.4099 52.7206 53.4075 52.7599V55.8342C53.4063 55.9098 53.3756 55.9819 53.3218 56.0351C53.2681 56.0883 53.1956 56.1182 53.1199 56.1185V56.1217ZM54.7448 55.8083C54.6683 55.8083 54.5949 55.7779 54.5408 55.7238C54.4867 55.6697 54.4563 55.5963 54.4563 55.5198V52.397C54.4563 52.3205 54.4867 52.2471 54.5408 52.193C54.5949 52.1389 54.6683 52.1085 54.7448 52.1085C54.8214 52.1085 54.8948 52.1389 54.9489 52.193C55.003 52.2471 55.0334 52.3205 55.0334 52.397V55.5198C55.0326 55.5957 55.0018 55.6683 54.9478 55.7217C54.8937 55.7752 54.8208 55.8051 54.7448 55.8051V55.8083Z" fill="#141414"/>
<path d="M66.1197 38.2066C66.1133 35.5685 64.3667 32.9303 60.8746 30.9145C53.8905 26.8819 42.5755 26.8776 35.5978 30.9059C32.1079 32.9217 30.3656 35.5642 30.3721 38.2066V41.282C30.3721 43.9201 32.1251 46.5583 35.614 48.5741C42.5981 52.6067 53.9196 52.6099 60.8918 48.5827C64.3828 46.5669 66.124 43.9244 66.1197 41.282V38.2066Z" fill="white"/>
<path d="M48.2677 51.8928C43.4383 51.8928 38.8996 50.8031 35.47 48.8261C32.0037 46.8254 30.0913 44.1463 30.086 41.2885V38.2067C30.0795 35.3424 31.9865 32.6612 35.457 30.6562C38.8705 28.6856 43.406 27.5992 48.2246 27.5992C53.0433 27.5992 57.5928 28.6878 61.0213 30.6659C64.4897 32.6666 66.4053 35.3446 66.4107 38.2035V41.2788C66.4107 44.1442 64.508 46.8254 61.0386 48.8293C57.623 50.8053 53.0875 51.8928 48.2677 51.8928ZM48.2236 28.1795C43.504 28.1795 39.0708 29.237 35.7435 31.1591C32.4603 33.0553 30.6556 35.5599 30.661 38.2099V41.2756C30.6674 43.931 32.4775 46.4324 35.7585 48.3275C39.0966 50.255 43.5384 51.3157 48.2677 51.3157C52.997 51.3157 57.4205 50.2582 60.7489 48.3362C64.0321 46.441 65.8379 43.9364 65.8325 41.2853V38.2067C65.8325 35.5599 64.0159 33.0585 60.7328 31.1644C57.3947 29.2402 52.9518 28.1795 48.2236 28.1795Z" fill="#141414"/>
<path d="M66.1226 41.2852V38.2066C66.1161 35.5684 64.3695 32.9303 60.8775 30.9145C59.4549 30.1093 57.9423 29.4747 56.3711 29.0237V50.4821C57.948 50.0313 59.4661 49.3955 60.8937 48.588C64.3857 46.5701 66.1269 43.9276 66.1226 41.2852Z" fill="#0962FF"/>
<path d="M56.3686 50.7676C56.2923 50.7676 56.2192 50.7373 56.1653 50.6834C56.1114 50.6295 56.0811 50.5564 56.0811 50.4801V29.027C56.0811 28.9822 56.0915 28.9379 56.1117 28.8977C56.1318 28.8576 56.161 28.8227 56.1969 28.7959C56.2329 28.769 56.2746 28.7509 56.3188 28.743C56.363 28.7351 56.4084 28.7376 56.4515 28.7503C58.0445 29.2085 59.5779 29.8525 61.0203 30.6692C64.4887 32.6699 66.4044 35.3479 66.4097 38.2068V41.2821C66.4097 44.1475 64.507 46.8287 61.0376 48.8326C59.5896 49.6509 58.0503 50.2957 56.4515 50.7536C56.4247 50.7622 56.3967 50.767 56.3686 50.7676ZM56.6572 29.4158V50.0903C58.0818 49.6584 59.4542 49.0697 60.749 48.3351C64.0322 46.44 65.8379 43.9353 65.8326 41.2842V38.2068C65.8326 35.56 64.016 33.0586 60.7329 31.1645C59.4423 30.4343 58.0756 29.8478 56.6572 29.4158Z" fill="#141414"/>
<path d="M60.8931 45.5117C67.8697 41.4844 67.8622 34.9504 60.8759 30.9178C53.8896 26.8852 42.5768 26.8809 35.5991 30.9092C28.6214 34.9375 28.6301 41.4704 35.6153 45.5031C42.6005 49.5357 53.9144 49.5389 60.8931 45.5117Z" fill="#86B2FF"/>
<path d="M48.2677 48.8184C43.4383 48.8184 38.8995 47.7287 35.4699 45.7527C31.9973 43.7467 30.0859 41.0644 30.0859 38.199C30.0859 35.3336 31.994 32.6589 35.4581 30.6614C38.8716 28.6909 43.407 27.6044 48.2257 27.6044C53.0444 27.6044 57.5939 28.693 61.0224 30.6711C64.4972 32.6761 66.4064 35.3584 66.4064 38.2248C66.4064 41.0913 64.4994 43.7639 61.0353 45.7624C57.6229 47.7319 53.0875 48.8184 48.2677 48.8184ZM48.2235 28.1794C43.5039 28.1794 39.0708 29.2368 35.7434 31.1589C32.4657 33.0519 30.6599 35.5512 30.6599 38.199C30.6599 40.8469 32.471 43.3558 35.7585 45.2531C39.0966 47.1806 43.5384 48.2412 48.2677 48.2412C52.997 48.2412 57.4205 47.1838 60.7489 45.2617C64.0267 43.3698 65.8325 40.8695 65.8325 38.2227C65.8325 35.5759 64.0213 33.0659 60.7327 31.1675C57.3947 29.24 52.9518 28.1794 48.2235 28.1794Z" fill="#141414"/>
<path d="M38.1756 43.5109C38.1002 43.4689 38.0173 43.4334 37.944 43.3903C32.2564 40.1061 32.251 34.7651 37.9322 31.4852C38.0108 31.441 38.0959 31.4034 38.1756 31.3592V43.5109ZM50.1679 29.1109C49.4863 29.0581 48.8004 29.028 48.1144 29.0312V45.8519C48.8004 45.8519 49.4863 45.8271 50.1679 45.7754V29.1109ZM58.5529 31.4927C57.3277 30.8035 56.0226 30.2672 54.6667 29.8958V44.9969C56.0277 44.6275 57.3374 44.0904 58.5658 43.3978C64.2546 40.1179 64.2427 34.777 58.5529 31.4927Z" fill="white"/>
<path d="M46.9231 40.4033C47.4213 40.1162 47.678 39.8032 47.693 39.4643C47.7081 39.1262 47.4884 38.6653 47.0383 38.0817C46.1252 37.0221 45.6439 36.1248 45.5944 35.3897C45.5448 34.6546 46.0768 33.964 47.1902 33.318C48.2153 32.7264 49.3872 32.4335 50.7059 32.4393C52.0407 32.4488 53.3568 32.7537 54.5598 33.332L56.512 32.2056L57.9636 33.0434L55.9844 34.1859C56.9277 34.9037 57.3584 35.6456 57.2766 36.4116C57.1947 37.1776 56.5827 37.8793 55.4406 38.5167L55.376 38.5318L52.7755 37.0222C53.4388 36.6377 53.7963 36.2576 53.8523 35.8775C53.9083 35.4974 53.6639 35.1528 53.1223 34.8406C52.6153 34.5274 52.0285 34.368 51.4328 34.3818C50.8737 34.4071 50.3293 34.5695 49.8477 34.8546C49.3782 35.1259 49.1413 35.4188 49.1317 35.7375C49.122 36.0563 49.3405 36.5279 49.7842 37.1568C50.698 38.1898 51.1722 39.0828 51.2067 39.8358C51.2411 40.5889 50.7052 41.2845 49.599 41.9227C48.5261 42.5375 47.3054 42.8469 46.0692 42.8175C44.7402 42.7956 43.432 42.4839 42.2358 41.9044L40.4408 42.9424L38.9893 42.1025L40.7843 41.0677C39.7204 40.3333 39.1486 39.5551 39.0689 38.7332C38.9893 37.9112 39.6117 37.1316 40.9361 36.3944L41.0169 36.3793L43.6109 37.8761C42.832 38.3254 42.4673 38.7562 42.5169 39.1682C42.5642 39.5796 42.8938 39.9586 43.5032 40.3107C44.0395 40.6382 44.6528 40.8184 45.281 40.8329C45.8571 40.84 46.4244 40.6916 46.9231 40.4033Z" fill="#141414"/>
<path d="M51.4951 51.7247C51.4187 51.7244 51.3456 51.6939 51.2917 51.6398C51.2378 51.5857 51.2076 51.5125 51.2076 51.4361V48.3608C51.2052 48.3215 51.2108 48.2821 51.2242 48.2451C51.2376 48.208 51.2584 48.1741 51.2854 48.1454C51.3124 48.1168 51.345 48.0939 51.3811 48.0783C51.4173 48.0626 51.4562 48.0546 51.4956 48.0546C51.535 48.0546 51.574 48.0626 51.6101 48.0783C51.6463 48.0939 51.6788 48.1168 51.7058 48.1454C51.7328 48.1741 51.7536 48.208 51.767 48.2451C51.7804 48.2821 51.786 48.3215 51.7836 48.3608V51.4351C51.7836 51.4729 51.7762 51.5105 51.7617 51.5455C51.7472 51.5805 51.7259 51.6123 51.6991 51.6391C51.6723 51.6659 51.6405 51.6872 51.6055 51.7017C51.5705 51.7162 51.533 51.7236 51.4951 51.7236V51.7247ZM53.1199 51.5094C53.0434 51.5094 52.97 51.4789 52.9159 51.4248C52.8618 51.3707 52.8314 51.2973 52.8314 51.2208V48.1465C52.8359 48.0732 52.8682 48.0043 52.9217 47.9539C52.9752 47.9036 53.0459 47.8755 53.1194 47.8755C53.1929 47.8755 53.2636 47.9036 53.3171 47.9539C53.3707 48.0043 53.403 48.0732 53.4075 48.1465V51.2208C53.4069 51.2967 53.3764 51.3694 53.3226 51.4231C53.2687 51.4767 53.1959 51.5069 53.1199 51.5072V51.5094ZM54.7448 51.1949C54.6685 51.1949 54.5952 51.1647 54.5412 51.1108C54.4871 51.0569 54.4566 50.9838 54.4563 50.9074V47.7847C54.4563 47.7082 54.4867 47.6348 54.5408 47.5806C54.5949 47.5265 54.6683 47.4961 54.7448 47.4961C54.8214 47.4961 54.8948 47.5265 54.9489 47.5806C55.003 47.6348 55.0334 47.7082 55.0334 47.7847V50.9074C55.0326 50.9834 55.0018 51.056 54.9478 51.1094C54.8937 51.1628 54.8208 51.1928 54.7448 51.1928V51.1949Z" fill="#141414"/>
<path d="M69.195 33.5992C69.195 30.96 67.442 28.3229 63.9521 26.3071C56.9658 22.2745 45.6465 22.2702 38.6731 26.2985C35.1832 28.3143 33.4409 30.9557 33.4463 33.5992V36.6735C33.4528 39.3127 35.2004 41.9498 38.6882 43.9656C45.6734 47.9992 56.9938 48.0025 63.9682 43.9742C67.4581 41.9595 69.1993 39.317 69.195 36.6735V33.5992Z" fill="white"/>
<path d="M51.3438 47.2809C46.5154 47.2809 41.9703 46.1923 38.5471 44.2153C35.0798 42.2135 33.1631 39.5355 33.1631 36.6777V33.6023C33.1566 30.738 35.0636 28.0557 38.5342 26.0518C41.9476 24.0802 46.4831 22.9948 51.3018 22.9948C56.1205 22.9948 60.6754 24.0834 64.1007 26.0604C67.568 28.0622 69.4847 30.7402 69.4847 33.598V36.6733C69.4847 39.5387 67.5819 42.221 64.1136 44.2239C60.7001 46.1955 56.1636 47.2809 51.3438 47.2809ZM51.2996 23.5676C46.58 23.5676 42.1468 24.6261 38.8195 26.5471C35.5364 28.4444 33.7306 30.948 33.737 33.598V36.6647C33.7435 39.3201 35.5536 41.8215 38.8346 43.7167C42.1727 45.6431 46.6145 46.7048 51.3438 46.7048C56.0731 46.7048 60.4966 45.6463 63.8261 43.7253C67.1082 41.8291 68.9139 39.3255 68.9096 36.6733V33.5991C68.9032 30.9523 67.092 28.4509 63.8099 26.5568C60.4707 24.6293 56.0279 23.5676 51.2996 23.5676Z" fill="#141414"/>
<path d="M69.1957 36.6733V33.5991C69.1957 30.9598 67.4427 28.3228 63.9528 26.307C62.5294 25.5026 61.0166 24.868 59.4453 24.4161V45.8681C61.0223 45.4176 62.5404 44.7818 63.9679 43.9741C67.4589 41.9594 69.2054 39.3169 69.1957 36.6733Z" fill="#0962FF"/>
<path d="M59.4458 46.1568C59.3694 46.1565 59.2961 46.126 59.2421 46.0719C59.188 46.0179 59.1575 45.9447 59.1572 45.8682V24.4162C59.1571 24.3714 59.1674 24.3271 59.1874 24.2869C59.2073 24.2468 59.2365 24.2119 59.2723 24.185C59.3082 24.1581 59.3499 24.14 59.3941 24.1321C59.4382 24.1242 59.4836 24.1267 59.5266 24.1395C61.12 24.5977 62.6542 25.2414 64.0976 26.0572C67.5649 28.059 69.4816 30.737 69.4816 33.5948V36.6702C69.4816 39.5355 67.5789 42.2178 64.1105 44.2207C62.6625 45.0395 61.1227 45.6843 59.5234 46.1417C59.4983 46.1501 59.4722 46.1552 59.4458 46.1568ZM59.7333 24.8049V45.4795C61.1577 45.0472 62.53 44.4589 63.8252 43.7254C67.1073 41.8291 68.913 39.3256 68.9087 36.6734V33.5991C68.9023 30.9524 67.0911 28.451 63.809 26.5569C62.5178 25.8249 61.1499 25.2374 59.7301 24.8049H59.7333Z" fill="#141414"/>
<path d="M63.9679 40.8986C70.9434 36.8714 70.9359 30.3363 63.9518 26.3048C56.9676 22.2732 45.6462 22.2678 38.6728 26.2962C31.6994 30.3245 31.7038 36.8574 38.6879 40.8889C45.672 44.9205 56.9913 44.928 63.9679 40.8986Z" fill="#86B2FF"/>
<path d="M51.3438 44.2068C46.5154 44.2068 41.9702 43.1181 38.5471 41.1411C35.0733 39.1361 33.1631 36.4538 33.1631 33.5874C33.1631 30.7209 35.0712 28.0483 38.5352 26.0498C41.9487 24.0781 46.4842 22.9927 51.3029 22.9927C56.1215 22.9927 60.6764 24.0814 64.1017 26.0584C67.5755 28.0645 69.4857 30.7468 69.4857 33.6132C69.4857 36.4796 67.5787 39.1512 64.1146 41.1508C60.7001 43.1213 56.1635 44.2068 51.3438 44.2068ZM51.2996 23.5677C46.58 23.5677 42.1468 24.6262 38.8195 26.5472C35.5417 28.4403 33.736 30.9406 33.736 33.5874C33.736 36.2341 35.5471 38.7442 38.8346 40.6426C42.1727 42.569 46.6145 43.6307 51.3438 43.6307C56.0731 43.6307 60.4966 42.5722 63.826 40.6512C67.1038 38.7582 68.9096 36.2589 68.9096 33.6121C68.9096 30.9654 67.0973 28.4543 63.8099 26.5569C60.4707 24.6295 56.0278 23.5677 51.2996 23.5677Z" fill="#141414"/>
<path d="M41.2482 38.899C41.1729 38.8581 41.0899 38.8225 41.0167 38.7795C35.3291 35.4952 35.3226 30.1543 41.0049 26.8744C41.0824 26.8291 41.1686 26.7915 41.2482 26.7484V38.899ZM53.2405 24.5C52.5589 24.4473 51.8719 24.4171 51.1871 24.4203V41.24C51.8719 41.24 52.5589 41.2152 53.2405 41.1646V24.5ZM61.6256 26.8819C60.4007 26.1914 59.095 25.655 57.7383 25.285V40.385C59.0996 40.0162 60.4098 39.4794 61.6385 38.787C67.3219 35.5071 67.3154 30.1661 61.6256 26.8819Z" fill="white"/>
<path d="M49.995 35.7923C50.4936 35.5059 50.7487 35.1915 50.766 34.8523C50.7832 34.5131 50.5614 34.0533 50.1113 33.4697C49.1981 32.4101 48.7168 31.5128 48.6673 30.7777C48.6178 30.0426 49.1497 29.3524 50.2631 28.707C51.2882 28.1162 52.4598 27.823 53.7778 27.8273C55.1128 27.8377 56.429 28.1425 57.6327 28.7199L59.585 27.5947L61.0365 28.4324L59.0573 29.5749C60.0006 30.2928 60.4313 31.0347 60.3495 31.8007C60.2677 32.5666 59.6575 33.268 58.5189 33.9047L58.4543 33.9198L55.8517 32.4144C56.515 32.03 56.8725 31.651 56.9285 31.2709C56.9845 30.8908 56.7401 30.5462 56.1974 30.2339C55.6908 29.9208 55.1043 29.7611 54.5089 29.7741C53.9499 29.8 53.4058 29.9623 52.9239 30.2468C52.4544 30.5193 52.2164 30.8111 52.2078 31.1298C52.1992 31.4485 52.4167 31.9212 52.8614 32.5501C53.7753 33.5824 54.2491 34.4754 54.2828 35.2292C54.3165 35.9829 53.7807 36.6785 52.6751 37.316C51.6024 37.9309 50.3815 38.2401 49.1454 38.2098C47.8165 38.1882 46.5082 37.877 45.312 37.2977L43.517 38.3347L42.0654 37.4958L43.8604 36.46C42.7966 35.7256 42.2248 34.9474 42.1451 34.1255C42.0654 33.3035 42.6878 32.5243 44.0123 31.7877L44.0931 31.7716L46.687 33.2683C45.9074 33.717 45.5428 34.1477 45.593 34.5605C45.6433 34.9733 45.9721 35.3541 46.5794 35.703C47.1157 36.0314 47.7295 36.2116 48.3582 36.2252C48.9328 36.2307 49.4983 36.0812 49.995 35.7923Z" fill="#141414"/>
<path d="M52.9463 47.2401C52.9084 47.2402 52.8708 47.2329 52.8357 47.2184C52.8007 47.204 52.7688 47.1827 52.742 47.1559C52.7151 47.1291 52.6939 47.0972 52.6794 47.0621C52.665 47.027 52.6576 46.9894 52.6578 46.9515V43.8772C52.6554 43.8379 52.661 43.7985 52.6744 43.7615C52.6878 43.7245 52.7086 43.6906 52.7356 43.6619C52.7626 43.6332 52.7952 43.6103 52.8313 43.5947C52.8674 43.5791 52.9064 43.571 52.9458 43.571C52.9852 43.571 53.0242 43.5791 53.0603 43.5947C53.0965 43.6103 53.129 43.6332 53.156 43.6619C53.183 43.6906 53.2038 43.7245 53.2172 43.7615C53.2306 43.7985 53.2362 43.8379 53.2338 43.8772V46.9515C53.2338 47.0278 53.2036 47.1011 53.1497 47.1552C53.0958 47.2093 53.0227 47.2398 52.9463 47.2401ZM56.195 46.8987C56.1187 46.8984 56.0456 46.8679 55.9917 46.8138C55.9378 46.7597 55.9075 46.6865 55.9075 46.6102V43.5359C55.9051 43.4966 55.9108 43.4572 55.9242 43.4202C55.9376 43.3831 55.9584 43.3492 55.9854 43.3205C56.0124 43.2919 56.045 43.269 56.0811 43.2534C56.1172 43.2377 56.1562 43.2297 56.1956 43.2297C56.235 43.2297 56.2739 43.2377 56.3101 43.2534C56.3462 43.269 56.3788 43.2919 56.4058 43.3205C56.4328 43.3492 56.4536 43.3831 56.467 43.4202C56.4804 43.4572 56.486 43.4966 56.4836 43.5359V46.6058C56.4839 46.6439 56.4767 46.6817 56.4623 46.7169C56.4479 46.7522 56.4267 46.7843 56.3999 46.8113C56.3731 46.8383 56.3411 46.8598 56.306 46.8744C56.2708 46.889 56.2331 46.8966 56.195 46.8966V46.8987ZM57.821 46.5843C57.7832 46.5843 57.7457 46.5768 57.7107 46.5623C57.6758 46.5478 57.644 46.5265 57.6173 46.4997C57.5906 46.4729 57.5695 46.4411 57.5551 46.4061C57.5407 46.3711 57.5334 46.3336 57.5335 46.2957V43.1784C57.5311 43.1391 57.5368 43.0997 57.5502 43.0627C57.5635 43.0256 57.5844 42.9917 57.6114 42.963C57.6383 42.9343 57.6709 42.9115 57.7071 42.8959C57.7432 42.8802 57.7822 42.8722 57.8215 42.8722C57.8609 42.8722 57.8999 42.8802 57.9361 42.8959C57.9722 42.9115 58.0048 42.9343 58.0317 42.963C58.0587 42.9917 58.0796 43.0256 58.093 43.0627C58.1063 43.0997 58.112 43.1391 58.1096 43.1784V46.2957C58.109 46.3719 58.0784 46.4447 58.0243 46.4984C57.9703 46.552 57.8972 46.5822 57.821 46.5822V46.5843Z" fill="#141414"/>
<path d="M66.1197 28.9881C66.1133 26.3489 64.3667 23.7118 60.8746 21.696C53.8905 17.6623 42.5755 17.658 35.5978 21.6863C32.1079 23.7021 30.3656 26.3446 30.3721 28.9881V32.0623C30.3721 34.7005 32.1251 37.3387 35.614 39.3544C42.5981 43.3871 53.9196 43.3903 60.8918 39.3631C64.3828 37.3473 66.124 34.7048 66.1197 32.0623V28.9881Z" fill="white"/>
<path d="M48.2677 42.6699C43.4383 42.6699 38.8996 41.5812 35.47 39.6042C32.0037 37.6024 30.0913 34.9234 30.086 32.0666V28.9924C30.0795 26.127 31.9865 23.4458 35.457 21.4408C38.8705 19.4702 43.406 18.3848 48.2246 18.3848C53.0433 18.3848 57.5928 19.4724 61.0213 21.4504C64.4897 23.4511 66.4053 26.1291 66.4107 28.988V32.0634C66.4107 34.9287 64.508 37.611 61.0386 39.6139C57.623 41.5844 53.0875 42.6699 48.2677 42.6699ZM48.2236 18.9566C43.504 18.9566 39.0708 20.0151 35.7435 21.9361C32.4603 23.8323 30.6556 26.337 30.661 28.987V32.0526C30.6674 34.708 32.4775 37.2094 35.7585 39.1046C39.0966 41.032 43.5384 42.0927 48.2677 42.0927C52.997 42.0927 57.4205 41.0353 60.7489 39.1132C64.0321 37.218 65.8379 34.7145 65.8325 32.0623V28.988C65.8325 26.3402 64.0159 23.8399 60.7328 21.9447C57.3947 20.0172 52.9518 18.9566 48.2236 18.9566Z" fill="#141414"/>
<path d="M66.1226 32.0625V28.9882C66.1161 26.349 64.3695 23.7119 60.8775 21.6961C59.4551 20.8901 57.9425 20.2551 56.3711 19.8042V41.2572C57.948 40.8064 59.4661 40.1706 60.8937 39.3632C64.3857 37.3452 66.1269 34.7049 66.1226 32.0625Z" fill="#0962FF"/>
<path d="M56.3686 41.5447C56.2923 41.5447 56.2192 41.5144 56.1653 41.4605C56.1114 41.4066 56.0811 41.3335 56.0811 41.2572V19.8041C56.0811 19.7594 56.0915 19.7153 56.1115 19.6753C56.1315 19.6354 56.1605 19.6006 56.1963 19.5737C56.2324 19.5469 56.2742 19.5288 56.3185 19.5208C56.3627 19.5127 56.4083 19.515 56.4515 19.5274C58.0445 19.9856 59.5779 20.6296 61.0203 21.4462C64.4887 23.4469 66.4044 26.1249 66.4097 28.9838V32.0592C66.4097 34.9246 64.507 37.6069 61.0376 39.6097C59.5899 40.4284 58.0505 41.0732 56.4515 41.5307C56.4247 41.5393 56.3967 41.544 56.3686 41.5447ZM56.6572 20.1929V40.8674C58.0818 40.4355 59.4542 39.8468 60.749 39.1122C64.0322 37.2171 65.8379 34.7135 65.8326 32.0613V28.9871C65.8326 26.3392 64.016 23.8389 60.7329 21.9437C59.4424 21.2127 58.0757 20.6256 56.6572 20.1929Z" fill="#141414"/>
<path d="M60.8931 36.289C67.8697 32.2618 67.8622 25.7277 60.8759 21.6962C53.8896 17.6647 42.5768 17.6582 35.5991 21.6865C28.6214 25.7148 28.6301 32.2478 35.6153 36.2804C42.6005 40.313 53.9144 40.3162 60.8931 36.289Z" fill="#86B2FF"/>
<path d="M48.2677 39.5956C43.4383 39.5956 38.8995 38.5069 35.4699 36.5299C31.9973 34.5249 30.0859 31.8415 30.0859 28.9762C30.0859 26.1108 31.994 23.4371 35.4581 21.4386C38.8716 19.468 43.407 18.3826 48.2257 18.3826C53.0444 18.3826 57.5939 19.4702 61.0224 21.4482C64.4972 23.4532 66.4064 26.1366 66.4064 29.0031C66.4064 31.8695 64.4994 34.5411 61.0353 36.5407C57.6229 38.5101 53.0875 39.5956 48.2677 39.5956ZM48.2235 18.9565C43.5039 18.9565 39.0708 20.015 35.7434 21.936C32.4657 23.8291 30.6599 26.3283 30.6599 28.9762C30.6599 31.624 32.471 34.1329 35.7585 36.0303C39.0966 37.9577 43.5384 39.0195 48.2677 39.0195C52.997 39.0195 57.4205 37.961 60.7489 36.0389C64.0267 34.1469 65.8325 31.6477 65.8325 29.0009C65.8325 26.3541 64.0213 23.843 60.7327 21.9446C57.3947 20.0172 52.9518 18.9565 48.2235 18.9565Z" fill="#141414"/>
<path d="M38.1756 34.2882C38.1002 34.2473 38.0173 34.2107 37.944 34.1676C32.2564 30.8833 32.251 25.5424 37.9322 22.2625C38.0108 22.2183 38.0959 22.1807 38.1756 22.1365V34.2882ZM50.1679 19.8881C49.4863 19.8354 48.8004 19.8052 48.1144 19.8085V36.6291C48.8004 36.6291 49.4863 36.6044 50.1679 36.5538V19.8881ZM58.5529 22.27C57.3291 21.5811 56.0254 21.0448 54.6711 20.6731V35.7742C56.0318 35.4047 57.3415 34.8679 58.5702 34.1762C64.2546 30.8963 64.2427 25.5543 58.5529 22.27Z" fill="white"/>
<path d="M46.9223 31.1806C47.4205 30.8935 47.6771 30.5805 47.6922 30.2416C47.7072 29.9035 47.4876 29.4426 47.0375 28.859C46.1243 27.7994 45.643 26.9021 45.5935 26.167C45.545 25.4283 46.077 24.7403 47.1893 24.0953C48.2144 23.5037 49.3863 23.2108 50.705 23.2166C52.0395 23.2233 53.356 23.5252 54.56 24.1006L56.5122 22.9743L57.9638 23.8121L55.9835 24.9621C56.9268 25.6799 57.3575 26.4219 57.2757 27.1878C57.1938 27.9538 56.5819 28.6555 55.4397 29.293L55.3751 29.308L52.7736 27.807C53.4369 27.4226 53.7944 27.0425 53.8504 26.6623C53.9064 26.2822 53.6619 25.9377 53.1203 25.6254C52.6134 25.3122 52.0265 25.1529 51.4308 25.1667C50.8717 25.192 50.3274 25.3543 49.8458 25.6394C49.3763 25.9107 49.1394 26.2036 49.1297 26.5224C49.12 26.8411 49.3386 27.3127 49.7822 27.9416C50.6961 28.9739 51.1702 29.8673 51.2047 30.6217C51.2392 31.3762 50.7032 32.0715 49.597 32.7075C48.5243 33.3228 47.3035 33.6322 46.0673 33.6023C44.7383 33.5804 43.43 33.2688 42.2339 32.6892L40.4389 33.7272L38.9873 32.8884L40.7823 31.8525C39.7185 31.1181 39.1467 30.34 39.067 29.518C38.9873 28.6961 39.6097 27.9165 40.9342 27.1792L41.0149 27.1641L43.6089 28.6609C42.8301 29.1103 42.4654 29.541 42.5149 29.953C42.5644 30.3651 42.8932 30.7459 43.5013 31.0955C44.0376 31.4231 44.6508 31.6032 45.2791 31.6178C45.8562 31.6233 46.4241 31.4722 46.9223 31.1806Z" fill="#141414"/>
<path d="M49.8691 42.6281C49.7927 42.6278 49.7196 42.5973 49.6657 42.5432C49.6119 42.4891 49.5816 42.4159 49.5816 42.3395V39.2663C49.5792 39.227 49.5848 39.1876 49.5982 39.1506C49.6116 39.1136 49.6325 39.0797 49.6594 39.051C49.6864 39.0223 49.719 38.9994 49.7551 38.9838C49.7913 38.9682 49.8303 38.9601 49.8696 38.9601C49.909 38.9601 49.948 38.9682 49.9841 38.9838C50.0203 38.9994 50.0528 39.0223 50.0798 39.051C50.1068 39.0797 50.1276 39.1136 50.141 39.1506C50.1544 39.1876 50.1601 39.227 50.1577 39.2663V42.3395C50.1577 42.4161 50.1273 42.4894 50.0731 42.5436C50.019 42.5977 49.9456 42.6281 49.8691 42.6281ZM53.1199 42.2814C53.0434 42.2814 52.97 42.251 52.9159 42.1968C52.8618 42.1427 52.8314 42.0693 52.8314 41.9928V38.9185C52.8359 38.8452 52.8682 38.7763 52.9217 38.7259C52.9752 38.6756 53.0459 38.6476 53.1194 38.6476C53.1929 38.6476 53.2636 38.6756 53.3171 38.7259C53.3707 38.7763 53.403 38.8452 53.4075 38.9185V41.9928C53.4079 42.0309 53.4008 42.0686 53.3865 42.104C53.3723 42.1393 53.3512 42.1714 53.3245 42.1986C53.2977 42.2257 53.2659 42.2472 53.2308 42.262C53.1957 42.2768 53.158 42.2845 53.1199 42.2846V42.2814ZM54.7448 41.9669C54.707 41.9671 54.6695 41.9597 54.6345 41.9454C54.5995 41.931 54.5677 41.9098 54.5408 41.8831C54.514 41.8564 54.4928 41.8247 54.4782 41.7897C54.4637 41.7548 54.4563 41.7173 54.4563 41.6794V38.5567C54.4563 38.4802 54.4867 38.4068 54.5408 38.3527C54.5949 38.2985 54.6683 38.2681 54.7448 38.2681C54.8214 38.2681 54.8948 38.2985 54.9489 38.3527C55.003 38.4068 55.0334 38.4802 55.0334 38.5567V41.6794C55.0346 41.718 55.028 41.7564 55.014 41.7924C55 41.8283 54.9789 41.8611 54.9519 41.8887C54.925 41.9163 54.8928 41.9383 54.8572 41.9532C54.8216 41.9681 54.7834 41.9757 54.7448 41.9756V41.9669Z" fill="#141414"/>
<path d="M69.195 24.3764C69.195 21.7383 67.442 19.1001 63.9521 17.0843C56.9658 13.0517 45.6465 13.0474 38.6731 17.0757C35.1832 19.0915 33.4409 21.7329 33.4463 24.3764V27.4507C33.4528 30.0899 35.2004 32.727 38.6882 34.7428C45.6734 38.7765 56.9938 38.7797 63.9682 34.7525C67.4581 32.7367 69.1993 30.0942 69.195 27.4507V24.3764Z" fill="white"/>
<path d="M51.3438 38.0592C46.5154 38.0592 41.9703 36.9695 38.5471 34.9925C35.0798 32.9908 33.1631 30.3128 33.1631 27.4549V24.3796C33.1566 21.5153 35.0636 18.833 38.5342 16.8291C41.9476 14.8574 46.4831 13.772 51.3018 13.772C56.1205 13.772 60.6754 14.8607 64.1007 16.8377C67.568 18.8394 69.4847 21.5175 69.4847 24.3753V27.4506C69.4847 30.316 67.5819 32.9983 64.1136 35.0011C60.7001 36.9728 56.1636 38.0592 51.3438 38.0592ZM51.2996 14.3449C46.58 14.3449 42.1468 15.4034 38.8195 17.3244C35.5364 19.2217 33.7306 21.7253 33.737 24.3753V27.4388C33.7435 30.0942 35.5536 32.5956 38.8346 34.4907C42.1727 36.4182 46.6145 37.4789 51.3438 37.4789C56.0731 37.4789 60.4966 36.4204 63.8261 34.4993C67.1082 32.6031 68.9139 30.0995 68.9096 27.4485V24.3731C68.9032 21.7264 67.092 19.2249 63.8099 17.3309C60.4707 15.4066 56.0279 14.3449 51.2996 14.3449Z" fill="#141414"/>
<path d="M69.1957 27.4506V24.3763C69.1957 21.7382 67.4427 19.1 63.9528 17.0843C62.5294 16.2798 61.0166 15.6452 59.4453 15.1934V36.6454C61.0221 36.1947 62.5402 35.5593 63.9679 34.7524C67.4589 32.7366 69.2054 30.0941 69.1957 27.4506Z" fill="#0962FF"/>
<path d="M59.4458 36.9341C59.3835 36.9338 59.3228 36.9138 59.2725 36.877C59.2367 36.8499 59.2077 36.8149 59.1877 36.7748C59.1677 36.7346 59.1573 36.6903 59.1572 36.6455V15.1935C59.1571 15.1486 59.1674 15.1044 59.1874 15.0642C59.2073 15.0241 59.2365 14.9892 59.2723 14.9623C59.3082 14.9354 59.3499 14.9173 59.3941 14.9093C59.4382 14.9014 59.4836 14.904 59.5266 14.9167C61.12 15.375 62.6542 16.0187 64.0976 16.8345C67.5649 18.8363 69.4816 21.5143 69.4816 24.3721V27.4475C69.4816 30.3128 67.5789 32.9951 64.1105 34.998C62.6629 35.8176 61.1231 36.4625 59.5234 36.919C59.4983 36.9274 59.4722 36.9325 59.4458 36.9341ZM59.7301 15.5822V36.2568C61.1545 35.8241 62.5268 35.2355 63.8219 34.5016C67.104 32.6053 68.9098 30.1018 68.9055 27.4507V24.3754C68.899 21.7286 67.0879 19.2272 63.8058 17.3331C62.5156 16.6017 61.1488 16.0145 59.7301 15.5822Z" fill="#141414"/>
<path d="M63.9679 31.6781C70.9434 27.6509 70.9359 21.1158 63.9518 17.0842C56.9676 13.0527 45.6462 13.0473 38.6728 17.0756C31.6994 21.1039 31.7038 27.6369 38.6879 31.6684C45.672 35.7 56.9913 35.7053 63.9679 31.6781Z" fill="#86B2FF"/>
<path d="M51.3438 34.9839C46.5154 34.9839 41.9702 33.8953 38.5471 31.9183C35.0733 29.9133 33.1631 27.231 33.1631 24.3645C33.1631 21.4981 35.0712 18.8255 38.5352 16.8269C41.9487 14.8553 46.4842 13.7699 51.3029 13.7699C56.1215 13.7699 60.6764 14.8585 64.1017 16.8355C67.5755 18.8416 69.4857 21.5239 69.4857 24.3904C69.4857 27.2568 67.5787 29.9283 64.1146 31.928C60.7001 33.8996 56.1635 34.9839 51.3438 34.9839ZM51.2996 14.3449C46.58 14.3449 42.1468 15.4034 38.8195 17.3244C35.5417 19.2174 33.736 21.7178 33.736 24.3645C33.736 27.0113 35.5471 29.5213 38.8346 31.4197C42.1727 33.3472 46.6145 34.4078 51.3438 34.4078C56.0731 34.4078 60.4966 33.3493 63.826 31.4283C67.1038 29.5364 68.9096 27.0361 68.9096 24.3893C68.9096 21.7425 67.0973 19.2325 63.8099 17.3341C60.4707 15.4066 56.0278 14.3449 51.2996 14.3449Z" fill="#141414"/>
<path d="M51.3193 37.7229C51.2814 37.7229 51.244 37.7154 51.209 37.7009C51.1741 37.6864 51.1423 37.6651 51.1156 37.6383C51.0889 37.6115 51.0678 37.5797 51.0534 37.5447C51.039 37.5097 51.0316 37.4722 51.0318 37.4343V34.9967C51.0294 34.9574 51.035 34.918 51.0484 34.8809C51.0618 34.8439 51.0826 34.81 51.1096 34.7813C51.1366 34.7526 51.1692 34.7298 51.2053 34.7141C51.2415 34.6985 51.2805 34.6905 51.3198 34.6905C51.3592 34.6905 51.3982 34.6985 51.4343 34.7141C51.4705 34.7298 51.503 34.7526 51.53 34.7813C51.557 34.81 51.5778 34.8439 51.5912 34.8809C51.6046 34.918 51.6103 34.9574 51.6079 34.9967V37.4343C51.6079 37.4722 51.6004 37.5097 51.5859 37.5447C51.5714 37.5798 51.5501 37.6116 51.5233 37.6384C51.4965 37.6652 51.4647 37.6864 51.4297 37.7009C51.3947 37.7154 51.3572 37.7229 51.3193 37.7229ZM55.7842 37.5581C55.7076 37.5581 55.6342 37.5277 55.5801 37.4736C55.526 37.4195 55.4956 37.3461 55.4956 37.2696V34.8039C55.4956 34.7274 55.526 34.654 55.5801 34.5999C55.6342 34.5457 55.7076 34.5153 55.7842 34.5153C55.8607 34.5153 55.9341 34.5457 55.9882 34.5999C56.0423 34.654 56.0727 34.7274 56.0727 34.8039V37.2696C56.0722 37.3457 56.0415 37.4186 55.9874 37.4722C55.9334 37.5259 55.8603 37.556 55.7842 37.556V37.5581ZM57.8189 37.0284C57.7811 37.0284 57.7437 37.0209 57.7088 37.0065C57.674 36.992 57.6423 36.9708 57.6156 36.9441C57.5889 36.9174 57.5677 36.8858 57.5532 36.8509C57.5388 36.816 57.5314 36.7786 57.5314 36.7409V34.2257C57.529 34.1864 57.5346 34.147 57.548 34.1099C57.5614 34.0729 57.5822 34.039 57.6092 34.0103C57.6362 33.9816 57.6687 33.9588 57.7049 33.9432C57.741 33.9275 57.78 33.9195 57.8194 33.9195C57.8588 33.9195 57.8978 33.9275 57.9339 33.9432C57.9701 33.9588 58.0026 33.9816 58.0296 34.0103C58.0566 34.039 58.0774 34.0729 58.0908 34.1099C58.1042 34.147 58.1098 34.1864 58.1074 34.2257V36.7409C58.1066 36.8168 58.0758 36.8894 58.0218 36.9428C57.9678 36.9963 57.8948 37.0262 57.8189 37.0262V37.0284Z" fill="#141414"/>
<ellipse cx="25.8764" cy="45.3437" rx="10.7495" ry="16.6333" transform="rotate(29.5247 25.8764 45.3437)" fill="#0962FF"/>
<path fill-rule="evenodd" clip-rule="evenodd" d="M20.672 34.7194C19.1119 36.2356 17.674 38.0851 16.4713 40.2089C11.9442 48.2023 12.4621 57.0539 17.628 59.9796C22.1319 62.5303 28.6819 59.7343 33.2868 53.6783L15.7651 42.2284L20.672 34.7194Z" fill="#86B2FF"/>
<path d="M31.6436 49.0909C29.3288 53.1784 26.1682 56.261 22.9426 57.9474C19.7141 59.6354 16.457 59.9099 13.8993 58.4614C11.3416 57.0128 9.90188 54.0784 9.6891 50.4414C9.47651 46.8078 10.4947 42.5119 12.8096 38.4244C15.1245 34.337 18.2851 31.2544 21.5106 29.5679C24.7392 27.8799 27.9962 27.6055 30.5539 29.054C33.1117 30.5026 34.5514 33.437 34.7642 37.074C34.9768 40.7076 33.9585 45.0035 31.6436 49.0909Z" fill="white" stroke="#141414" stroke-width="0.554993"/>
<path d="M29.4781 45.4164C29.6654 45.0832 29.7731 44.7419 29.741 44.4301C29.7356 44.1212 29.5738 43.8621 29.352 43.6409C29.1303 43.4198 28.8053 43.254 28.4136 43.1695C29.165 43.0268 29.9005 42.7282 30.5599 42.3117C31.2027 41.9154 31.6997 41.416 31.9773 40.9379C33.1668 39.2102 31.7477 38.4468 29.5067 38.0172L31.4428 35.6616L29.5996 35.4492L27.7136 37.7439C27.2353 37.6945 26.7305 37.6424 26.2257 37.5903L28.1285 35.2753L26.2853 35.063L24.3492 37.4186C23.9506 37.3774 23.5521 37.3363 23.1801 37.2979L20.6462 37.0142L19.3944 38.5372C19.3944 38.5372 20.7927 38.6596 20.7494 38.6771C21.0052 38.6815 21.2208 38.7699 21.3234 38.8906C21.4092 39.0316 21.4085 39.2078 21.2948 39.4164L15.9605 45.8712C15.9104 45.9321 15.8338 45.9903 15.7572 46.0485C15.6805 46.1067 15.5773 46.1621 15.4642 46.1945C15.3777 46.2296 15.2646 46.262 15.1682 46.2741C15.0718 46.2862 14.9921 46.2779 14.8858 46.267C14.8957 46.29 13.5308 46.127 13.5308 46.127L11.7568 47.7944L14.1579 48.0644C14.6096 48.111 15.0446 48.178 15.4697 48.2218L13.5169 50.5977L15.36 50.8101L17.2961 48.4545C17.7843 48.5269 18.2625 48.5763 18.7673 48.6284L16.8479 50.9637L18.691 51.1761L20.6439 48.8001C23.8792 49.002 26.5419 48.6381 28.6602 46.4114C28.9637 46.1123 29.2741 45.7698 29.4781 45.4164ZM24.8669 39.2785C25.9031 39.3855 29.3813 39.5023 27.996 41.1878C26.6607 42.8123 23.5497 42.2488 22.487 42.139L24.8669 39.2785ZM18.6982 46.7487L21.3118 43.6039C22.5606 43.7328 26.7197 43.8979 25.2008 45.7458C23.7054 47.5301 19.9735 46.8804 18.6982 46.7487Z" fill="#141414"/>
<path d="M29.359 52.8935L32.2361 55.0043" stroke="#141414" stroke-width="0.388495"/>
<path d="M28.3282 54.0458L31.1325 56.1413" stroke="#141414" stroke-width="0.388495"/>
</svg>
