<svg width="82" height="69" viewBox="0 0 82 69" fill="none" xmlns="http://www.w3.org/2000/svg">
<path d="M68.182 76.0296L89.3893 38.3799L83.5938 28.4797L63.3797 64.3883C62.7409 65.4767 61.5936 66.2093 60.2951 66.2219L40.8894 66.4098C39.9515 66.4189 39.0102 66.0673 38.3547 65.4243C37.6991 64.7813 37.2572 63.8477 37.2481 62.9099C37.2418 62.2606 37.3805 61.6821 37.7356 61.1015L62.7021 16.7778L51.2325 16.961L29.1041 56.3512C28.466 57.5117 27.3181 58.1722 26.0196 58.1848C24.721 58.1973 23.5605 57.5592 22.9001 56.4113L12.9248 39.5533C12.6306 38.979 12.4086 38.404 12.4023 37.7547C12.3961 37.1055 12.5347 36.5269 12.8899 35.9463L32.4631 0.909724L20.9935 1.09295L0.354221 37.7993L23.2386 76.4649L68.182 76.0296Z" fill="#86B2FF"/>
<path d="M85.7753 0.466102L40.8326 0.973508L19.6253 38.6232L25.4208 48.5234L45.5635 12.6877C46.2022 11.5993 47.3495 10.8667 48.648 10.8541L68.0538 10.6662C68.9916 10.6571 69.9329 11.0087 70.5884 11.6517C71.244 12.2947 71.6859 13.2283 71.695 14.1661C71.7013 14.8154 71.5626 15.3939 71.2075 15.9745L46.241 60.2982L57.7106 60.1149L79.839 20.7248C80.4771 19.5642 81.625 18.9038 82.9236 18.8912C84.2221 18.8786 85.3826 19.5167 86.0431 20.6647L96.0183 37.5226C96.3125 38.097 96.5345 38.672 96.5408 39.3213C96.547 39.9705 96.4084 40.549 96.0533 41.1297L76.4071 76.0948L87.8767 75.9116L108.732 39.131L85.7753 0.466102Z" fill="#86B2FF"/>
</svg>
