<svg width="36" height="36" viewBox="0 0 36 36" fill="none" xmlns="http://www.w3.org/2000/svg">
<path d="M7.81766 19.5678H24.026L16.9448 26.6489C16.3789 27.2148 16.3789 28.1435 16.9448 28.7094C17.079 28.844 17.2385 28.9507 17.414 29.0235C17.5896 29.0963 17.7778 29.1338 17.9678 29.1338C18.1578 29.1338 18.346 29.0963 18.5216 29.0235C18.6971 28.9507 18.8565 28.844 18.9908 28.7094L28.5532 19.147C28.6878 19.0127 28.7945 18.8533 28.8673 18.6777C28.9401 18.5022 28.9776 18.314 28.9776 18.124C28.9776 17.9339 28.9401 17.7458 28.8673 17.5702C28.7945 17.3947 28.6878 17.2352 28.5532 17.101L18.9908 7.53854C18.8564 7.4042 18.697 7.29763 18.5214 7.22493C18.3459 7.15222 18.1578 7.1148 17.9678 7.1148C17.7778 7.1148 17.5897 7.15222 17.4142 7.22493C17.2386 7.29763 17.0791 7.4042 16.9448 7.53854C16.8105 7.67288 16.7039 7.83237 16.6312 8.00789C16.5585 8.18342 16.5211 8.37155 16.5211 8.56153C16.5211 8.75152 16.5585 8.93965 16.6312 9.11517C16.7039 9.2907 16.8105 9.45019 16.9448 9.58453L24.026 16.6657H7.81766C7.01958 16.6657 6.36661 17.3187 6.36661 18.1167C6.36661 18.9148 7.01958 19.5678 7.81766 19.5678Z" fill="#141414"/>
</svg>
