<svg width="41" height="28" viewBox="0 0 41 28" fill="none" xmlns="http://www.w3.org/2000/svg">
<path d="M24.9807 27.9464L32.9692 14.0801L30.8586 10.3931L23.2441 23.6182C23.0036 24.0189 22.5762 24.2861 22.0953 24.2861H14.9083C14.561 24.2861 14.2136 24.1525 13.9732 23.912C13.7327 23.6716 13.5724 23.3243 13.5724 22.9769C13.5724 22.7365 13.6259 22.5227 13.7594 22.309L23.164 5.98469L18.9159 6.01141L10.5801 20.5189C10.3396 20.9464 9.91214 21.1869 9.43123 21.1869C8.95032 21.1869 8.52284 20.9464 8.28238 20.5189L4.64882 14.2404C4.54195 14.0266 4.4618 13.8129 4.4618 13.5724C4.4618 13.332 4.51523 13.1182 4.64882 12.9045L12.0228 0L7.77475 0.0267174L0 13.5457L8.33582 27.9464H24.9807Z" fill="#0962FF"/>
<path d="M31.7669 0.0269197L15.1219 0.0536371L7.13346 13.9199L9.24413 17.6069L16.8319 4.40857C17.0723 4.00781 17.4998 3.74063 17.9807 3.74063H25.1677C25.515 3.74063 25.8623 3.87422 26.1028 4.11468C26.3432 4.35513 26.5035 4.70246 26.5035 5.04978C26.5035 5.29024 26.4501 5.50398 26.3165 5.71772L16.912 22.042L21.1601 22.0153L29.4959 7.50778C29.7363 7.0803 30.1638 6.83985 30.6447 6.83985C31.1256 6.83985 31.5531 7.0803 31.7936 7.50778L35.4271 13.7864C35.534 14.0001 35.6142 14.2138 35.6142 14.4543C35.6142 14.6948 35.5607 14.9085 35.4271 15.1222L28.0264 28L32.2745 27.9733L40.1294 14.4276L31.7669 0.0269197Z" fill="#0962FF"/>
</svg>
