<svg width="120" height="84" viewBox="0 0 120 84" fill="none" xmlns="http://www.w3.org/2000/svg">
<path d="M74.4 83.1L98.1 41.9L91.8 31L69.2 70.3C68.5 71.5 67.2 72.3 65.8 72.3H44.4C43.3 72.3 42.4 71.9 41.6 71.2C40.9 70.5 40.4 69.4 40.4 68.4C40.4 67.7 40.6 67 40.9 66.4L68.8 17.8H56.2L31.4 61C30.7 62.2 29.4 63 28 63C26.6 63 25.3 62.3 24.6 61L13.8 42.3C13.5 41.7 13.3 41 13.3 40.3C13.3 39.6 13.5 38.9 13.8 38.3L35.8 0H23.2L0 40.3L24.8 83.2L74.4 83.1Z" fill="#0095D4"/>
<path d="M94.6 0.0999756L45.1 0.199976L21.4 41.4L27.7 52.3L50.2 13C50.9 11.8 52.2 11 53.6 11H75C76.1 11 77 11.4 77.8 12.1C78.5 12.8 79 13.9 79 14.9C79 15.6 78.8 16.3 78.5 16.9L50.6 65.5H63.2L88 22.3C88.7 21.1 90 20.3 91.4 20.3C92.8 20.3 94.1 21 94.8 22.3L105.6 41C105.9 41.6 106.1 42.3 106.1 43C106.1 43.7 105.9 44.4 105.6 45L83.5 83.3H96.1L119.4 42.9L94.6 0.0999756Z" fill="#0095D4"/>
</svg>
