<svg width="420" height="460" viewBox="0 0 420 460" fill="none" xmlns="http://www.w3.org/2000/svg">
<g clip-path="url(#clip0_1_6373)">
<rect width="420" height="460" rx="12" fill="#060606"/>
<g opacity="0.3">
<path d="M206.69 523.702L301.247 359.57L276.264 315.928L186.134 472.47C183.287 477.214 178.228 480.376 172.535 480.376H87.4651C83.3539 480.376 79.2427 478.795 76.3965 475.949C73.5502 473.103 71.6528 468.991 71.6528 464.88C71.6528 462.034 72.2852 459.504 73.8665 456.974L185.185 263.748L134.902 264.064L36.2333 435.786C33.3871 440.846 28.3271 443.692 22.6347 443.692C16.9423 443.692 11.8823 440.846 9.03613 435.786L-33.9733 361.468C-35.2383 358.938 -36.187 356.408 -36.187 353.562C-36.187 350.715 -35.5545 348.186 -33.9733 345.656L53.3105 192.909L3.02749 193.225L-89 353.245L9.66862 523.702H206.69Z" fill="#0962FF"/>
<path d="M287.015 193.228L89.9941 193.544L-4.56336 357.675L20.4201 401.317L110.234 245.092C113.08 240.348 118.14 237.186 123.832 237.186H208.902C213.014 237.186 217.125 238.767 219.971 241.613C222.817 244.459 224.715 248.571 224.715 252.682C224.715 255.528 224.082 258.058 222.501 260.588L111.183 453.814L161.466 453.498L260.134 281.776C262.98 276.716 268.04 273.87 273.733 273.87C279.425 273.87 284.485 276.716 287.331 281.776L330.341 356.094C331.606 358.624 332.554 361.154 332.554 364C332.554 366.846 331.922 369.376 330.341 371.906L242.741 524.337L293.024 524.02L386 363.684L287.015 193.228Z" fill="#0962FF"/>
</g>
</g>
<defs>
<clipPath id="clip0_1_6373">
<rect width="420" height="460" rx="12" fill="white"/>
</clipPath>
</defs>
</svg>
