<svg width="21" height="21" viewBox="0 0 21 21" fill="none" xmlns="http://www.w3.org/2000/svg">
<path d="M10.9941 0.290039C9.01633 0.290039 7.08293 0.876529 5.43844 1.97534C3.79395 3.07416 2.51223 4.63594 1.75535 6.4632C0.998473 8.29047 0.80044 10.3011 1.18629 12.2409C1.57214 14.1808 2.52455 15.9626 3.92308 17.3611C5.3216 18.7596 7.10343 19.712 9.04324 20.0979C10.9831 20.4837 12.9937 20.2857 14.821 19.5288C16.6482 18.772 18.21 17.4902 19.3088 15.8457C20.4077 14.2012 20.9941 12.2679 20.9941 10.29C20.9941 8.97682 20.7355 7.67646 20.2329 6.4632C19.7304 5.24995 18.9938 4.14756 18.0652 3.21897C17.1366 2.29039 16.0342 1.55379 14.821 1.05124C13.6077 0.548697 12.3074 0.290039 10.9941 0.290039ZM14.1741 15.442C14.1368 15.5355 14.0799 15.6198 14.0073 15.6894C13.9347 15.7591 13.848 15.8123 13.7531 15.8457C13.6582 15.879 13.5572 15.8917 13.457 15.8828C13.3568 15.8738 13.2597 15.8436 13.1721 15.794L10.4571 13.684L8.71515 15.292C8.67471 15.3219 8.62742 15.3411 8.57762 15.3479C8.52783 15.3547 8.47711 15.3489 8.43015 15.331L8.76414 12.342L8.77415 12.351L8.78115 12.292C8.78115 12.292 13.6661 7.84404 13.8651 7.65504C14.0671 7.46604 14.0001 7.42504 14.0001 7.42504C14.0121 7.19504 13.6391 7.42504 13.6391 7.42504L7.16615 11.589L4.47115 10.671C4.47115 10.671 4.05715 10.523 4.01815 10.196C3.97715 9.87204 4.48415 9.69604 4.48415 9.69604L15.2011 5.43804C15.2011 5.43804 16.0821 5.04604 16.0821 5.69604L14.1741 15.442Z" fill="#F6FAFD" fill-opacity="0.6"/>
</svg>
