<svg width="18" height="19" viewBox="0 0 18 19" fill="none" xmlns="http://www.w3.org/2000/svg">
<path d="M16 0.0429688C16.5304 0.0429688 17.0391 0.253682 17.4142 0.628755C17.7893 1.00383 18 1.51254 18 2.04297V16.043C18 16.5734 17.7893 17.0821 17.4142 17.4572C17.0391 17.8323 16.5304 18.043 16 18.043H2C1.46957 18.043 0.960859 17.8323 0.585786 17.4572C0.210714 17.0821 0 16.5734 0 16.043V2.04297C0 1.51254 0.210714 1.00383 0.585786 0.628755C0.960859 0.253682 1.46957 0.0429688 2 0.0429688H16ZM15.5 15.543V10.243C15.5 9.37836 15.1565 8.54917 14.5452 7.9378C13.9338 7.32643 13.1046 6.98297 12.24 6.98297C11.39 6.98297 10.4 7.50297 9.92 8.28297V7.17297H7.13V15.543H9.92V10.613C9.92 9.84297 10.54 9.21297 11.31 9.21297C11.6813 9.21297 12.0374 9.36047 12.2999 9.62302C12.5625 9.88557 12.71 10.2417 12.71 10.613V15.543H15.5ZM3.88 5.60297C4.32556 5.60297 4.75288 5.42597 5.06794 5.11091C5.383 4.79585 5.56 4.36853 5.56 3.92297C5.56 2.99297 4.81 2.23297 3.88 2.23297C3.43178 2.23297 3.00193 2.41102 2.68499 2.72796C2.36805 3.04489 2.19 3.47475 2.19 3.92297C2.19 4.85297 2.95 5.60297 3.88 5.60297ZM5.27 15.543V7.17297H2.5V15.543H5.27Z" fill="#F6FAFD" fill-opacity="0.6"/>
</svg>
