<svg width="22" height="18" viewBox="0 0 22 18" fill="none" xmlns="http://www.w3.org/2000/svg">
<path d="M21.46 2.04346C20.69 2.39346 19.86 2.62346 19 2.73346C19.88 2.20346 20.56 1.36346 20.88 0.353457C20.05 0.853457 19.13 1.20346 18.16 1.40346C17.37 0.543457 16.26 0.043457 15 0.043457C12.65 0.043457 10.73 1.96346 10.73 4.33346C10.73 4.67346 10.77 5.00346 10.84 5.31346C7.28004 5.13346 4.11004 3.42346 2.00004 0.833457C1.63004 1.46346 1.42004 2.20346 1.42004 2.98346C1.42004 4.47346 2.17004 5.79346 3.33004 6.54346C2.62004 6.54346 1.96004 6.34346 1.38004 6.04346V6.07346C1.38004 8.15346 2.86004 9.89346 4.82004 10.2835C4.19077 10.4557 3.53013 10.4796 2.89004 10.3535C3.16165 11.2059 3.69358 11.9519 4.41106 12.4864C5.12854 13.0209 5.99549 13.3171 6.89004 13.3335C5.37367 14.5339 3.49404 15.1828 1.56004 15.1735C1.22004 15.1735 0.880039 15.1535 0.540039 15.1135C2.44004 16.3335 4.70004 17.0435 7.12004 17.0435C15 17.0435 19.33 10.5035 19.33 4.83346C19.33 4.64346 19.33 4.46346 19.32 4.27346C20.16 3.67346 20.88 2.91346 21.46 2.04346Z" fill="#F6FAFD" fill-opacity="0.6"/>
</svg>
