<svg width="20" height="17" viewBox="0 0 20 17" fill="none" xmlns="http://www.w3.org/2000/svg">
<path d="M2 16.29C1.45 16.29 0.979333 16.0944 0.588 15.703C0.196 15.311 0 14.84 0 14.29V2.29004C0 1.74004 0.196 1.26937 0.588 0.878039C0.979333 0.486039 1.45 0.290039 2 0.290039H18C18.55 0.290039 19.021 0.486039 19.413 0.878039C19.8043 1.26937 20 1.74004 20 2.29004V14.29C20 14.84 19.8043 15.311 19.413 15.703C19.021 16.0944 18.55 16.29 18 16.29H2ZM10 9.11504C10.0833 9.11504 10.1707 9.10237 10.262 9.07704C10.354 9.05237 10.4417 9.01504 10.525 8.96504L17.6 4.54004C17.7333 4.45671 17.8333 4.35271 17.9 4.22804C17.9667 4.10271 18 3.96504 18 3.81504C18 3.48171 17.8583 3.23171 17.575 3.06504C17.2917 2.89837 17 2.90671 16.7 3.09004L10 7.29004L3.3 3.09004C3 2.90671 2.70833 2.90237 2.425 3.07704C2.14167 3.25237 2 3.49837 2 3.81504C2 3.98171 2.03333 4.12737 2.1 4.25204C2.16667 4.37737 2.26667 4.47337 2.4 4.54004L9.475 8.96504C9.55833 9.01504 9.646 9.05237 9.738 9.07704C9.82933 9.10237 9.91667 9.11504 10 9.11504Z" fill="#F6FAFD" fill-opacity="0.6"/>
</svg>
