<svg width="20" height="21" viewBox="0 0 20 21" fill="none" xmlns="http://www.w3.org/2000/svg">
<path d="M10 0.043457C12.717 0.043457 13.056 0.053457 14.122 0.103457C15.187 0.153457 15.912 0.320457 16.55 0.568457C17.21 0.822457 17.766 1.16646 18.322 1.72146C18.8305 2.22135 19.224 2.82605 19.475 3.49346C19.722 4.13046 19.89 4.85646 19.94 5.92146C19.987 6.98746 20 7.32646 20 10.0435C20 12.7605 19.99 13.0995 19.94 14.1655C19.89 15.2305 19.722 15.9555 19.475 16.5935C19.2247 17.2612 18.8311 17.8661 18.322 18.3655C17.822 18.8738 17.2173 19.2672 16.55 19.5185C15.913 19.7655 15.187 19.9335 14.122 19.9835C13.056 20.0305 12.717 20.0435 10 20.0435C7.283 20.0435 6.944 20.0335 5.878 19.9835C4.813 19.9335 4.088 19.7655 3.45 19.5185C2.78233 19.2679 2.17753 18.8744 1.678 18.3655C1.16941 17.8656 0.775931 17.2609 0.525 16.5935C0.277 15.9565 0.11 15.2305 0.0599999 14.1655C0.0129999 13.0995 0 12.7605 0 10.0435C0 7.32646 0.00999994 6.98746 0.0599999 5.92146C0.11 4.85546 0.277 4.13146 0.525 3.49346C0.775236 2.82564 1.1688 2.22078 1.678 1.72146C2.17767 1.21269 2.78243 0.819186 3.45 0.568457C4.088 0.320457 4.812 0.153457 5.878 0.103457C6.944 0.056457 7.283 0.043457 10 0.043457ZM10 5.04346C8.67392 5.04346 7.40215 5.57024 6.46447 6.50792C5.52678 7.44561 5 8.71737 5 10.0435C5 11.3695 5.52678 12.6413 6.46447 13.579C7.40215 14.5167 8.67392 15.0435 10 15.0435C11.3261 15.0435 12.5979 14.5167 13.5355 13.579C14.4732 12.6413 15 11.3695 15 10.0435C15 8.71737 14.4732 7.44561 13.5355 6.50792C12.5979 5.57024 11.3261 5.04346 10 5.04346ZM16.5 4.79346C16.5 4.46194 16.3683 4.14399 16.1339 3.90957C15.8995 3.67515 15.5815 3.54346 15.25 3.54346C14.9185 3.54346 14.6005 3.67515 14.3661 3.90957C14.1317 4.14399 14 4.46194 14 4.79346C14 5.12498 14.1317 5.44292 14.3661 5.67734C14.6005 5.91176 14.9185 6.04346 15.25 6.04346C15.5815 6.04346 15.8995 5.91176 16.1339 5.67734C16.3683 5.44292 16.5 5.12498 16.5 4.79346ZM10 7.04346C10.7956 7.04346 11.5587 7.35953 12.1213 7.92214C12.6839 8.48475 13 9.24781 13 10.0435C13 10.8391 12.6839 11.6022 12.1213 12.1648C11.5587 12.7274 10.7956 13.0435 10 13.0435C9.20435 13.0435 8.44129 12.7274 7.87868 12.1648C7.31607 11.6022 7 10.8391 7 10.0435C7 9.24781 7.31607 8.48475 7.87868 7.92214C8.44129 7.35953 9.20435 7.04346 10 7.04346Z" fill="#F6FAFD" fill-opacity="0.6"/>
</svg>
