<svg width="32" height="32" viewBox="0 0 32 32" fill="none" xmlns="http://www.w3.org/2000/svg">
<path d="M27.2578 4.33916C27.0893 4.1704 26.8893 4.03652 26.6691 3.94517C26.4489 3.85382 26.2128 3.8068 25.9744 3.8068C25.736 3.8068 25.4999 3.85382 25.2797 3.94517C25.0595 4.03652 24.8594 4.1704 24.691 4.33916L15.7894 13.2226L6.88769 4.32096C6.71916 4.15242 6.51908 4.01873 6.29888 3.92752C6.07868 3.83631 5.84267 3.78937 5.60433 3.78937C5.36598 3.78937 5.12997 3.83631 4.90977 3.92752C4.68957 4.01873 4.48949 4.15242 4.32096 4.32096C4.15242 4.48949 4.01873 4.68957 3.92752 4.90977C3.83631 5.12997 3.78937 5.36598 3.78937 5.60433C3.78937 5.84267 3.83631 6.07868 3.92752 6.29888C4.01873 6.51908 4.15242 6.71916 4.32096 6.8877L13.2226 15.7894L4.32096 24.691C4.15242 24.8596 4.01873 25.0597 3.92752 25.2799C3.83631 25.5001 3.78937 25.7361 3.78937 25.9744C3.78937 26.2128 3.83631 26.4488 3.92752 26.669C4.01873 26.8892 4.15242 27.0892 4.32096 27.2578C4.48949 27.4263 4.68957 27.56 4.90977 27.6512C5.12997 27.7424 5.36598 27.7894 5.60433 27.7894C5.84267 27.7894 6.07868 27.7424 6.29888 27.6512C6.51908 27.56 6.71916 27.4263 6.88769 27.2578L15.7894 18.3561L24.691 27.2578C24.8596 27.4263 25.0596 27.56 25.2798 27.6512C25.5 27.7424 25.736 27.7894 25.9744 27.7894C26.2127 27.7894 26.4487 27.7424 26.6689 27.6512C26.8891 27.56 27.0892 27.4263 27.2578 27.2578C27.4263 27.0892 27.56 26.8892 27.6512 26.669C27.7424 26.4488 27.7893 26.2128 27.7893 25.9744C27.7893 25.7361 27.7424 25.5001 27.6512 25.2799C27.56 25.0597 27.4263 24.8596 27.2578 24.691L18.3561 15.7894L27.2578 6.8877C27.9495 6.19595 27.9495 5.03091 27.2578 4.33916Z" fill="#0962FF"/>
</svg>
