<svg width="42" height="40" viewBox="0 0 42 40" fill="none" xmlns="http://www.w3.org/2000/svg">
<path d="M20.9284 0.492432C9.73966 0.492432 0.641113 9.254 0.641113 20.0284C0.641113 30.8027 9.73966 39.5643 20.9284 39.5643C32.1172 39.5643 41.2157 30.8027 41.2157 20.0284C41.2157 9.254 32.1172 0.492432 20.9284 0.492432ZM33.9614 26.5404C31.9942 27.9612 29.6581 29.0267 27.322 29.7371C26.8302 29.0267 26.3384 28.3163 25.8465 27.4875C26.5843 27.2507 27.322 26.8955 28.0597 26.4219C27.8138 26.3035 27.6909 26.1851 27.5679 26.0667C23.3875 27.9611 18.4693 27.9611 14.2889 26.0667C14.166 26.1851 13.9201 26.3035 13.7971 26.4219C14.5349 26.7771 15.2726 27.1323 16.0103 27.4875C15.6414 28.3163 15.1496 29.0267 14.5348 29.7371C12.1987 29.0267 9.86264 27.9612 7.89539 26.5404C7.40358 21.8044 8.38714 17.0684 11.8298 12.0956C13.5512 11.3852 15.3955 10.7932 17.2398 10.438C17.4857 10.9116 17.7316 11.3852 17.9775 11.8588C19.9448 11.622 22.035 11.622 24.0022 11.8588C24.2482 11.3852 24.494 10.9116 24.7399 10.438C26.5842 10.7932 28.4286 11.2668 30.1499 12.0956C33.1008 16.358 34.5762 21.094 33.9614 26.5404Z" fill="white"/>
<path d="M16.625 18.6078C15.2725 18.6078 14.2888 19.7918 14.2888 21.2126C14.2888 22.6334 15.3954 23.699 16.625 23.699C17.9774 23.699 18.9611 22.515 18.9611 21.0942C18.9611 19.6734 17.9774 18.6078 16.625 18.6078Z" fill="white"/>
<path d="M25.3546 18.6078C24.0021 18.6078 23.0186 19.7918 23.0186 21.2126C23.0186 22.6334 24.1251 23.699 25.3546 23.699C26.7071 23.699 27.6908 22.515 27.6908 21.0942C27.6908 19.6734 26.7071 18.6078 25.3546 18.6078Z" fill="white"/>
</svg>
