<svg width="42" height="40" viewBox="0 0 42 40" fill="none" xmlns="http://www.w3.org/2000/svg">
<path d="M25.7802 19.9099L19.3866 16.5948C19.1407 16.4764 18.28 16.5947 18.28 16.9499V23.4619C18.28 23.6987 19.1407 23.9355 19.3866 23.8171L26.149 20.6203C26.3949 20.5019 26.0261 20.1467 25.7802 19.9099Z" fill="white"/>
<path d="M21.2308 0.492432C9.91911 0.492432 0.820557 9.254 0.820557 20.1468C0.820557 31.0395 9.91911 39.8011 21.2308 39.8011C32.5425 39.8011 41.6411 31.0395 41.6411 20.1468C41.6411 9.254 32.4196 0.492432 21.2308 0.492432ZM34.8787 23.4619C34.8787 26.5403 32.2966 29.1451 28.9769 29.1451H13.9766C10.7798 29.1451 8.0748 26.6587 8.0748 23.4619V16.7132C8.0748 13.6348 10.6568 11.03 13.9766 11.03H28.9769C32.1737 11.03 34.8787 13.5164 34.8787 16.7132V23.4619Z" fill="white"/>
</svg>
