<svg width="60" height="61" viewBox="0 0 60 61" fill="none" xmlns="http://www.w3.org/2000/svg">
<path d="M19.4999 31.6814L36.2549 31.6814L28.9349 39.0014C28.3499 39.5864 28.3499 40.5464 28.9349 41.1314C29.0737 41.2705 29.2385 41.3808 29.42 41.4561C29.6015 41.5313 29.796 41.5701 29.9924 41.5701C30.1889 41.5701 30.3834 41.5313 30.5649 41.4561C30.7463 41.3808 30.9112 41.2705 31.0499 41.1314L40.9349 31.2464C41.074 31.1076 41.1843 30.9428 41.2596 30.7613C41.3349 30.5799 41.3736 30.3854 41.3736 30.1889C41.3736 29.9924 41.3349 29.7979 41.2596 29.6165C41.1843 29.435 41.074 29.2702 40.9349 29.1314L31.0499 19.2464C30.9111 19.1075 30.7462 18.9974 30.5647 18.9222C30.3833 18.8471 30.1888 18.8084 29.9924 18.8084C29.796 18.8084 29.6016 18.8471 29.4201 18.9222C29.2387 18.9974 29.0738 19.1075 28.9349 19.2464C28.7961 19.3853 28.6859 19.5501 28.6107 19.7316C28.5356 19.913 28.4969 20.1075 28.4969 20.3039C28.4969 20.5003 28.5356 20.6948 28.6107 20.8762C28.6859 21.0577 28.7961 21.2225 28.9349 21.3614L36.2549 28.6814L19.4999 28.6814C18.6749 28.6814 17.9999 29.3564 17.9999 30.1814C17.9999 31.0064 18.6749 31.6814 19.4999 31.6814Z" fill="#141414"/>
<rect x="0.642857" y="0.824254" width="58.7143" height="58.7143" rx="29.3571" stroke="#141414" stroke-width="1.28571"/>
</svg>
