<svg width="41" height="40" viewBox="0 0 41 40" fill="none" xmlns="http://www.w3.org/2000/svg">
<path d="M20.8205 0C9.73621 0 0.820557 8.91568 0.820557 20C0.820557 31.0844 9.73621 40 20.8205 40C31.9049 40 40.8206 31.0844 40.8206 20C40.8206 8.91568 31.7844 0 20.8205 0ZM33.9531 11.8073C33.9531 11.9277 33.9531 12.0482 33.8326 12.1687C33.2302 13.0121 32.5073 13.7349 31.7844 14.3373C31.6639 14.4578 31.423 14.5783 31.423 14.6988C31.423 19.0362 30.3386 23.3735 27.2061 26.5061C23.2302 30.482 17.2061 31.5663 11.9049 30.1205C10.8206 29.8796 9.8567 29.3976 8.89284 28.9157C8.5314 28.7952 8.29043 28.5543 7.92898 28.3133C7.8085 28.1928 7.80851 28.1928 7.80851 28.1928C7.929 28.1928 7.92898 28.1928 8.16994 28.1928C9.61573 28.3133 11.182 28.0723 12.6278 27.5904C13.3507 27.3494 15.0374 26.747 15.5194 26.0241C15.2784 26.0241 15.1579 26.0241 14.9169 25.9037C13.4712 25.5422 11.5434 24.8193 10.5796 22.2892C10.5796 22.1687 10.5796 22.0482 10.7001 22.0482C11.9049 22.1687 12.2663 22.0482 12.7483 21.9277C12.5073 21.9277 12.2663 21.8072 12.0254 21.6868C10.2182 20.9639 8.89285 19.1567 8.65188 17.2289C8.65188 16.988 8.65188 16.8675 8.65188 16.6265C8.65188 16.5061 8.77236 16.3856 8.89284 16.506C9.8567 16.988 10.941 17.1085 10.941 17.1085C10.7001 16.8675 10.4591 16.747 10.3386 16.506C8.77236 15.0603 8.16994 11.9277 9.37476 10C9.49525 9.87955 9.49526 9.87955 9.61574 10C12.5073 13.253 16.1218 14.8193 20.3386 15.4217C20.4591 15.4217 20.4591 15.4217 20.4591 15.3012C20.3386 14.5783 20.3386 13.8555 20.4591 13.0121C20.7001 12.2892 21.0615 11.4458 21.5434 10.8434C22.0254 10.241 22.6278 9.75906 23.3507 9.39762C24.0736 9.03617 24.7965 8.79521 25.5194 8.79521C26.3627 8.79521 27.0856 8.91568 27.8085 9.15664C28.4109 9.3976 28.8928 9.63855 29.3748 10.1205C29.4953 10.241 29.6158 10.241 29.6158 10.3615C29.6158 10.3615 29.7362 10.4819 29.8567 10.3615C30.941 10.1205 32.0254 9.63857 32.9892 9.15664H33.1097V9.27713C32.9892 9.87954 32.6278 10.3615 32.2663 10.8434C32.0254 11.2048 31.423 11.9277 30.941 12.0482C32.1458 12.4096 32.9892 12.1687 33.9531 11.8073C33.9531 11.6868 33.9531 11.6868 33.9531 11.8073Z" fill="white"/>
</svg>
