<svg width="41" height="40" viewBox="0 0 41 40" fill="none" xmlns="http://www.w3.org/2000/svg">
<path d="M20.4101 16.3582C18.3199 16.3582 16.4756 18.0158 16.4756 20.147C16.4756 22.1597 18.1969 23.9358 20.4101 23.9358C22.5003 23.9358 24.3446 22.2781 24.3446 20.147C24.3446 18.0158 22.6233 16.3582 20.4101 16.3582Z" fill="white"/>
<path d="M25.3283 10.4382H15.492C12.6641 10.4382 10.4509 12.6878 10.4509 15.2926V24.7646C10.4509 27.4877 12.787 29.6189 15.492 29.6189H25.3283C28.1562 29.6189 30.3694 27.3693 30.3694 24.7646V15.2926C30.3694 12.6878 28.1562 10.4382 25.3283 10.4382ZM20.4101 25.9486C17.0904 25.9486 14.2625 23.3437 14.2625 20.0285C14.2625 16.8318 16.9674 14.1086 20.4101 14.1086C23.7299 14.1086 26.5578 16.7134 26.5578 20.0285C26.5578 23.3437 23.8528 25.9486 20.4101 25.9486ZM26.9267 15.2926C26.066 15.2926 25.4512 14.7006 25.4512 13.8718C25.4512 13.043 26.066 12.451 26.9267 12.451C27.7873 12.451 28.4021 13.043 28.4021 13.8718C28.4021 14.5822 27.6644 15.2926 26.9267 15.2926Z" fill="white"/>
<path d="M20.4102 0.492432C9.09854 0.492432 0 9.254 0 20.1468C0 31.0395 9.09854 39.8011 20.4102 39.8011C31.722 39.8011 40.8205 31.0395 40.8205 20.1468C40.8205 9.254 31.599 0.492432 20.4102 0.492432ZM32.7056 24.8827C32.7056 28.7899 29.3858 31.9867 25.3284 31.9867H15.4921C11.4347 31.9867 8.11491 28.7899 8.11491 24.8827V15.4108C8.11491 11.5036 11.4347 8.30681 15.4921 8.30681H25.3284C29.3858 8.30681 32.7056 11.5036 32.7056 15.4108V24.8827Z" fill="white"/>
</svg>
