<svg width="41" height="40" viewBox="0 0 41 40" fill="none" xmlns="http://www.w3.org/2000/svg">
<path d="M20.2158 0C9.13147 0 0.21582 8.91568 0.21582 20C0.21582 31.0844 9.13147 40 20.2158 40C31.3002 40 40.2158 31.0844 40.2158 20C40.2158 8.91568 31.3002 0 20.2158 0ZM29.7339 13.0121C29.7339 13.8555 29.2519 16.6265 28.77 19.759C28.0471 24.0964 27.3243 28.7952 27.3243 28.7952C27.3243 28.7952 27.2038 30.1205 26.2399 30.3614C25.2761 30.6024 23.5893 29.5181 23.3483 29.2771C23.1074 29.1567 19.011 26.506 17.5652 25.1807C17.2038 24.8193 16.7218 24.0964 17.5652 23.3735C19.6134 21.4458 22.1435 19.1566 23.5893 17.5904C24.3122 16.8675 25.0351 15.3012 22.1435 17.2289C18.0471 20 13.9507 22.7711 13.9507 22.7711C13.9507 22.7711 12.9869 23.3735 11.3001 22.7711C9.61337 22.2892 7.5652 21.5663 7.5652 21.5663C7.5652 21.5663 6.1194 20.7229 8.52904 19.759C8.52904 19.759 18.5291 15.6627 22.0231 14.2169C23.3484 13.6145 27.8062 11.8073 27.8062 11.8073C27.8062 11.8073 29.9749 10.9639 29.7339 13.0121Z" fill="white"/>
</svg>
