<svg width="162" height="161" viewBox="0 0 162 161" fill="none" xmlns="http://www.w3.org/2000/svg">
<circle cx="1.96721" cy="1.96721" r="1.96721" transform="matrix(-0.866025 -0.5 2.20305e-08 -1 115.319 84.3723)" fill="#141414"/>
<circle cx="1.18612" cy="1.18612" r="1.18612" transform="matrix(-0.866025 -0.5 2.20305e-08 -1 114.643 83.2007)" fill="#0962FF"/>
<path d="M111.515 61.6539C121.543 57.4727 129.032 59.0328 128.243 65.1386C127.598 70.1242 121.634 76.5989 114.008 81.0832" stroke="#0962FF" stroke-width="0.655738" stroke-linecap="round"/>
<circle cx="110.51" cy="62.2176" r="1.31148" transform="rotate(180 110.51 62.2176)" fill="#141414"/>
<path d="M111.367 64.2259C119.63 64.2259 126.329 57.2029 126.329 48.5395C126.329 39.8761 119.63 32.853 111.367 32.853C103.103 32.853 96.4044 39.8761 96.4044 48.5395C96.4044 57.2029 103.103 64.2259 111.367 64.2259Z" fill="#0962FF" stroke="black" stroke-width="0.173368" stroke-miterlimit="10"/>
<path d="M112.917 63.0296C121.181 63.0296 127.88 56.0066 127.88 47.3432C127.88 38.6798 121.181 31.6567 112.917 31.6567C104.654 31.6567 97.9552 38.6798 97.9552 47.3432C97.9552 56.0066 104.654 63.0296 112.917 63.0296Z" fill="white" stroke="#050505" stroke-width="0.199928" stroke-miterlimit="10"/>
<path d="M106.89 51.0531H109.337C109.337 52.3746 111.013 53.5003 113.007 53.5003C115.002 53.5003 116.678 52.3746 116.678 51.0531C116.678 49.7072 115.406 49.2177 112.714 48.5692C110.12 47.9207 106.89 47.1132 106.89 43.7116C106.89 41.5214 108.688 39.6616 111.172 39.0375V36.3701H114.843V39.0375C117.327 39.6616 119.125 41.5214 119.125 43.7116H116.678C116.678 42.3901 115.002 41.2644 113.007 41.2644C111.013 41.2644 109.337 42.3901 109.337 43.7116C109.337 45.0576 110.609 45.547 113.301 46.1955C115.895 46.844 119.125 47.6515 119.125 51.0531C119.125 53.2433 117.327 55.1032 114.843 55.7272V58.3946H111.172V55.7272C108.688 55.1032 106.89 53.2433 106.89 51.0531Z" fill="#141414"/>
<rect x="0.58548" width="75.042" height="75.042" rx="7.77462" transform="matrix(0.866025 -0.5 0.866025 0.5 13.4226 110.446)" fill="#141414" stroke="#0962FF" stroke-width="0.676054"/>
<rect x="0.58548" width="75.042" height="75.042" rx="7.77462" transform="matrix(0.866025 -0.5 0.866025 0.5 13.4226 103.009)" fill="#86B2FF" stroke="#0962FF" stroke-width="0.676054"/>
<path opacity="0.5" d="M28.4282 94.0078L78.9182 64.8574L129.408 94.0078L83.4613 120.535C80.9522 121.984 76.8842 121.984 74.3751 120.535L28.4282 94.0078Z" fill="#141414"/>
<path opacity="0.5" d="M34.9014 90.6321L60.7891 75.6858L85.8257 90.1407L64.481 102.464C61.972 103.913 57.904 103.913 55.3949 102.464L34.9014 90.6321Z" fill="#141414"/>
<path opacity="0.5" d="M64.6609 95.344L97.5638 76.3475L137.176 99.2177L108.816 115.591C106.307 117.04 102.239 117.04 99.7301 115.591L64.6609 95.344Z" fill="#141414"/>
<path d="M17.758 109.803V102.689C17.758 103.478 18.5016 105.461 21.4763 107.084C24.4509 108.706 25.4199 109.337 25.5326 109.45V116.751L19.4481 113.168C19.131 112.93 18.5575 112.391 18.1511 111.716C17.809 111.148 17.758 110.466 17.758 109.803Z" fill="#0962FF" stroke="#0962FF" stroke-width="0.676054"/>
<path d="M139.921 102.689V110.464" stroke="#0962FF" stroke-width="0.676054"/>
<path d="M71.5043 136.154V143.252" stroke="#0962FF" stroke-width="0.676054"/>
<path d="M86.3774 135.816V143.252" stroke="#0962FF" stroke-width="0.676054"/>
<path d="M135.391 110.497V107.759C135.391 107.759 137.174 106.907 138.095 106.069C138.864 105.371 139.679 103.888 139.991 103.287C140.024 103.224 140.124 103.248 140.124 103.32V109.287C140.124 110.288 140.017 111.331 139.448 112.154C138.721 113.203 137.541 113.826 136.435 114.465L98.8843 136.154L132.834 115.092C134.424 114.106 135.391 112.368 135.391 110.497Z" fill="#0962FF" stroke="#0962FF" stroke-width="0.676054"/>
<path d="M30.6028 119.726V112.627L36.0112 116.007V122.768L30.6028 119.726Z" fill="#0962FF" stroke="#0962FF" stroke-width="0.676054"/>
<rect width="5.2459" height="9.18033" transform="translate(132.251 76.2375)" fill="#86B2FF"/>
<rect width="3.93443" height="3.93443" transform="translate(128.317 85.418)" fill="#86B2FF"/>
<path fill-rule="evenodd" clip-rule="evenodd" d="M64.847 28.3185C64.1538 27.9183 63.2997 27.9183 62.6065 28.3185L41.3224 40.6069C41.3224 40.6069 41.3224 40.6069 41.3224 40.6069V65.1837C41.3224 65.9842 41.7494 66.7238 42.4426 67.124L63.7266 79.4124C63.7267 79.4124 63.7267 79.4124 63.7267 79.4124C63.7268 79.4124 63.7268 79.4124 63.7268 79.4124L85.0108 67.124C85.704 66.7238 86.131 65.9842 86.131 65.1837V41.9004C86.131 41.1 85.704 40.3603 85.0108 39.9601L64.847 28.3185Z" fill="white"/>
<path fill-rule="evenodd" clip-rule="evenodd" d="M41.9108 41.3206C41.9056 41.3235 41.8993 41.3235 41.8942 41.3206C41.8829 41.3142 41.869 41.3223 41.869 41.3352V41.3444L41.869 65.3405C41.869 65.7336 42.0801 66.0964 42.4218 66.2906L63.5419 78.2975C63.5482 78.3011 63.552 78.3077 63.552 78.315C63.552 78.3303 63.5686 78.34 63.582 78.3324L84.6966 66.3286C85.0383 66.1344 85.2493 65.7716 85.2493 65.3785V41.3566C85.2493 41.354 85.2507 41.3517 85.2529 41.3505C85.2576 41.3478 85.2576 41.341 85.2529 41.3383L64.1064 29.3164C63.7715 29.126 63.3611 29.126 63.0262 29.3164L41.9108 41.3206Z" fill="#86B2FF"/>
<rect width="24.6237" height="24.6237" rx="0.546448" transform="matrix(0.866025 -0.500001 0.866025 0.500001 42.1967 41.2124)" fill="#0962FF"/>
<rect width="24.6237" height="24.6238" rx="1.06624" transform="matrix(0.866025 0.500001 -2.20305e-08 1 42.1967 41.6956)" fill="#86B2FF"/>
<rect width="24.6237" height="24.6238" rx="0.546448" transform="matrix(0.866025 -0.500001 2.20305e-08 1 64.0547 54.0339)" fill="#141414"/>
<path fill-rule="evenodd" clip-rule="evenodd" d="M61.5829 68.1608C60.8874 67.6714 59.9748 67.6179 59.227 68.0228L53.3439 71.2074C53.3439 71.2074 53.3439 71.2074 53.3439 71.2074V95.7842C53.3439 96.5847 53.7709 97.3243 54.4641 97.7245L75.7481 110.013C75.7481 110.013 75.7481 110.013 75.7482 110.013C75.7482 110.013 75.7482 110.013 75.7483 110.013L97.0323 97.7245C97.7255 97.3243 98.1525 96.5846 98.1525 95.7842V72.4959C98.1525 71.6981 97.7283 70.9606 97.0388 70.5594L82.3989 62.0415C81.671 61.6179 80.767 61.6384 80.0589 62.0945L67.1807 70.3902C66.4139 70.8842 65.4241 70.8639 64.6781 70.339L61.5829 68.1608Z" fill="white"/>
<path fill-rule="evenodd" clip-rule="evenodd" d="M53.916 71.9216C53.9047 71.9152 53.8907 71.9233 53.8907 71.9363V71.9454L53.8907 95.9415C53.8907 96.3345 54.1018 96.6973 54.4435 96.8915L75.5643 108.899C75.5705 108.902 75.5743 108.909 75.5743 108.916C75.5743 108.931 75.5908 108.941 75.6041 108.933L96.7189 96.9296C97.0606 96.7353 97.2717 96.3725 97.2717 95.9795V71.9572C97.2717 71.9548 97.273 71.9525 97.2751 71.9513C97.2797 71.9487 97.2797 71.9421 97.2752 71.9395L80.6864 62.2291C80.3379 62.0251 79.9054 62.0298 79.5615 62.2415L66.4572 70.3057C66.1208 70.5127 65.6989 70.5221 65.3536 70.3303L61.5314 68.2069C61.198 68.0217 60.7922 68.0237 60.4607 68.2121L53.9327 71.9216C53.9276 71.9245 53.9212 71.9245 53.916 71.9216Z" fill="#86B2FF"/>
<rect width="1.75651" height="1.0929" transform="matrix(0.866025 -0.500001 0.866025 0.500001 58.8089 68.2915)" fill="white"/>
<path d="M54.6896 72.0854C54.4292 71.935 54.4282 71.6913 54.6874 71.5402L61.1039 67.7998L63.7911 69.2824C64.0576 69.4294 64.48 69.4243 64.7357 69.2709L69.7377 66.2696L77.4599 61.1216C77.7157 60.9511 78.1689 60.9427 78.4428 61.1035L86.2058 65.6575L96.395 71.5402C96.6563 71.6911 96.6563 71.9358 96.395 72.0867L76.0167 83.8521C75.7553 84.003 75.3316 84.003 75.0702 83.8521L54.6896 72.0854Z" fill="#0962FF"/>
<rect width="24.6237" height="24.6238" rx="1.06624" transform="matrix(0.866025 0.500001 -2.20305e-08 1 54.2185 72.2964)" fill="#86B2FF"/>
<rect width="2.62295" height="2.62295" transform="matrix(0.866025 0.5 -2.20305e-08 1 71.4861 85.4272)" fill="#141414"/>
<rect width="2.62295" height="2.62295" transform="matrix(0.866025 0.5 -2.20305e-08 1 71.4861 88.9683)" fill="#141414"/>
<rect width="2.62295" height="2.62295" transform="matrix(0.866025 0.5 -2.20305e-08 1 71.4861 92.5093)" fill="#141414"/>
<rect width="24.6237" height="24.6238" rx="0.546448" transform="matrix(0.866025 -0.500001 2.20305e-08 1 76.0771 84.6348)" fill="#141414"/>
<path fill-rule="evenodd" clip-rule="evenodd" d="M98.1532 52.0307C97.815 51.8355 97.3984 51.8355 97.0603 52.0307L76.8417 63.7039C76.1131 64.1246 76.1131 65.1762 76.8417 65.5969L97.6066 77.5855C97.6067 77.5855 97.6068 77.5855 97.6068 77.5855C97.6069 77.5854 97.6071 77.5855 97.6071 77.5857V101.563C97.6071 102.404 98.5178 102.93 99.2464 102.509L119.465 90.8359C119.803 90.6407 120.011 90.2799 120.011 89.8895V64.6505C120.011 64.6503 120.011 64.6502 120.011 64.6503C120.011 64.6503 120.011 64.6503 120.011 64.6503L98.1532 52.0307ZM75.2024 66.5434C75.2024 65.7021 76.1131 65.1763 76.8417 65.5969L97.0603 77.2701C97.3984 77.4653 97.6067 77.8261 97.6067 78.2166V101.596C97.6067 102.43 96.7103 102.956 95.9818 102.55L82.4246 94.9944C82.0812 94.8031 81.867 94.442 81.8638 94.0489L81.7648 82.1788C81.7617 81.8004 81.5629 81.4505 81.2395 81.2539L75.7278 77.9049C75.4016 77.7066 75.2024 77.3526 75.2024 76.9709V66.5434Z" fill="white"/>
<rect width="1.77947" height="1.17845" transform="matrix(0.866025 0.500001 -2.20305e-08 1 75.2021 76.5427)" fill="white"/>
<rect width="1.77947" height="1.0929" transform="matrix(0.866025 0.500001 -0.866025 0.500001 76.1285 77.0229)" fill="white"/>
<path fill-rule="evenodd" clip-rule="evenodd" d="M75.7482 65.3632L75.749 65.3627V65.3504L75.7599 65.3565L97.7058 52.8801L119.078 65.0305L119.086 65.0265V65.0346L119.143 65.0672L119.086 65.0999V90.3423L97.3882 102.677V102.322L86.5977 96.188V83.7559L75.749 77.745V65.3637L75.7482 65.3632ZM97.3882 77.6524V77.4349L97.197 77.5436L97.3882 77.6524Z" fill="#86B2FF"/>
<rect width="24.6237" height="24.6237" rx="1.0929" transform="matrix(0.866025 -0.500001 0.866025 0.500001 76.0763 65.2563)" fill="#0962FF"/>
<path d="M76.0763 65.7393L97.4011 78.0511L97.4011 102.675L81.7593 94.1386L81.7593 81.5703L76.0763 78.0511L76.0763 65.7393Z" fill="#86B2FF"/>
<rect width="2.62295" height="2.62295" transform="matrix(0.866025 0.5 -2.20305e-08 1 78.0436 69.6892)" fill="#0962FF"/>
<rect width="2.62295" height="2.62295" transform="matrix(0.866025 0.5 -2.20305e-08 1 78.0437 73.2302)" fill="#0962FF"/>
<rect width="2.62295" height="2.62295" transform="matrix(0.866025 0.5 -2.20305e-08 1 78.0437 76.7712)" fill="#0962FF"/>
<rect width="24.6237" height="24.6238" rx="1.0929" transform="matrix(0.866025 -0.500001 2.20305e-08 1 97.9345 78.0776)" fill="#141414"/>
<rect width="6.94082" height="0.297453" transform="matrix(0.866025 0.500001 -2.20305e-08 1 75.7484 77.7415)" fill="#86B2FF"/>
<rect width="6.79406" height="2.67411" transform="matrix(0.887217 0.461353 0.0440654 0.999029 81.7599 91.6096)" fill="#86B2FF"/>
<path d="M28.9098 79.9638C23.3083 79.9638 18.7675 75.2031 18.7675 69.3305C18.7675 63.4579 23.3083 58.6973 28.9098 58.6973C34.5112 58.6973 39.0521 63.4579 39.0521 69.3305C39.0521 75.2031 34.5112 79.9638 28.9098 79.9638Z" fill="#0962FF" stroke="black" stroke-width="0.11752" stroke-miterlimit="10"/>
<path d="M27.8585 79.1528C22.257 79.1528 17.7161 74.3921 17.7161 68.5195C17.7161 62.6469 22.257 57.8862 27.8585 57.8862C33.4599 57.8862 38.0008 62.6469 38.0008 68.5195C38.0008 74.3921 33.4599 79.1528 27.8585 79.1528Z" fill="white" stroke="#050505" stroke-width="0.135524" stroke-miterlimit="10"/>
<path d="M23.6506 71.0346H25.3095C25.3095 71.9304 26.4458 72.6934 27.7977 72.6934C29.1497 72.6934 30.286 71.9304 30.286 71.0346C30.286 70.1222 29.4234 69.7905 27.5987 69.3509C25.8403 68.9113 23.6506 68.3639 23.6506 66.0581C23.6506 64.5734 24.8699 63.3127 26.5536 62.8897V61.0815H29.0419V62.8897C30.7256 63.3127 31.9448 64.5734 31.9448 66.0581H30.286C30.286 65.1623 29.1497 64.3992 27.7977 64.3992C26.4458 64.3992 25.3095 65.1623 25.3095 66.0581C25.3095 66.9704 26.1721 67.3022 27.9968 67.7418C29.7552 68.1814 31.9448 68.7288 31.9448 71.0346C31.9448 72.5193 30.7256 73.78 29.0419 74.203V76.0111H26.5536V74.203C24.8699 73.78 23.6506 72.5193 23.6506 71.0346Z" fill="#141414"/>
<rect width="2.62295" height="2.62295" transform="matrix(0.866025 0.5 -2.20305e-08 1 43.9452 46.0828)" fill="#0962FF"/>
<rect width="2.62295" height="2.62295" transform="matrix(0.866025 0.5 -2.20305e-08 1 43.9451 49.6238)" fill="#0962FF"/>
<rect width="2.62295" height="2.62295" transform="matrix(0.866025 0.5 -2.20305e-08 1 43.9451 53.1648)" fill="#0962FF"/>
<rect width="3.93443" height="3.93443" transform="translate(78.4806 23.7786)" fill="#86B2FF"/>
<rect width="3.93443" height="6.55738" transform="translate(31.2677 43.4507)" fill="#86B2FF"/>
<rect width="2.62295" height="2.62295" transform="translate(28.6447 47.3853)" fill="#86B2FF"/>
<rect width="23.6066" height="3.93443" transform="translate(10.2839 90.6638)" fill="#86B2FF"/>
<rect width="2.62295" height="2.62295" transform="translate(8.97253 88.0408)" fill="#86B2FF"/>
<circle cx="1.96721" cy="1.96721" r="1.96721" transform="matrix(0.866025 0.5 -2.20305e-08 1 50.9397 59.3289)" fill="#141414"/>
<circle cx="1.18612" cy="1.18612" r="1.18612" transform="matrix(0.866025 0.5 -2.20305e-08 1 51.6163 60.5007)" fill="#0962FF"/>
<path d="M54.744 82.0475C44.7162 86.2287 37.2269 84.6686 38.0161 78.5628C38.6606 73.5772 44.6252 67.1025 52.2513 62.6182" stroke="#0962FF" stroke-width="0.655738" stroke-linecap="round"/>
<circle cx="55.7487" cy="81.4836" r="1.31148" fill="#141414"/>
</svg>
