<svg width="420" height="493" viewBox="0 0 420 493" fill="none" xmlns="http://www.w3.org/2000/svg">
<g clip-path="url(#clip0_1094_3542)">
<rect width="420" height="492" transform="translate(0 0.181396)" fill="white"/>
<rect width="60" height="60" transform="matrix(0.866025 -0.5 0.866025 0.5 244 230)" fill="#0962FF"/>
<rect width="60" height="375.277" transform="matrix(0.866025 -0.5 2.20305e-08 1 296 262)" fill="#141414"/>
<rect width="60" height="377.714" transform="matrix(0.866025 0.5 -2.20305e-08 1 243 231)" fill="#86B2FF"/>
<rect width="60" height="60" transform="matrix(0.866025 -0.5 0.866025 0.5 159 328)" fill="#0962FF"/>
<rect width="60" height="296.774" transform="matrix(0.866025 -0.5 2.20305e-08 1 211 360)" fill="#141414"/>
<rect width="60" height="296.774" transform="matrix(0.866025 0.5 -2.20305e-08 1 158 329)" fill="#86B2FF"/>
<rect width="60" height="60" transform="matrix(0.866025 -0.5 0.866025 0.5 74 419)" fill="#0962FF"/>
<rect width="60" height="296.774" transform="matrix(0.866025 -0.5 2.20305e-08 1 126 451)" fill="#141414"/>
<rect width="60" height="296.774" transform="matrix(0.866025 0.5 -2.20305e-08 1 73 420)" fill="#86B2FF"/>
<mask id="mask0_1094_3542" style="mask-type:luminance" maskUnits="userSpaceOnUse" x="87" y="246" width="63" height="67">
<path d="M89.0029 312.574L87.6149 250.2L147.9 246.01L149.228 308.444L89.0029 312.574Z" fill="white"/>
</mask>
<g mask="url(#mask0_1094_3542)">
<mask id="mask1_1094_3542" style="mask-type:luminance" maskUnits="userSpaceOnUse" x="88" y="248" width="56" height="61">
<path d="M143.436 269.475C144.402 285.458 132.996 302.398 117.97 307.367C102.884 312.275 89.9097 303.296 88.9442 287.313C87.9787 271.331 99.384 254.391 114.41 249.422C129.496 244.514 142.471 253.493 143.436 269.475Z" fill="white"/>
</mask>
<g mask="url(#mask1_1094_3542)">
<mask id="mask2_1094_3542" style="mask-type:luminance" maskUnits="userSpaceOnUse" x="89" y="248" width="44" height="59">
<path d="M120.867 248.404C118.755 248.524 116.643 248.943 114.47 249.661C99.565 254.51 88.22 271.391 89.1855 287.253C89.6683 295.275 93.1683 301.68 98.9615 305.391C99.565 305.75 100.108 306.109 100.712 306.409C96.5477 302.877 93.5304 297.13 93.2287 288.331C93.108 266.302 110.186 251.517 126.057 250.38C128.048 250.26 130.16 250.32 132.152 250.739C128.772 248.883 124.91 248.105 120.867 248.404Z" fill="white"/>
</mask>
<g mask="url(#mask2_1094_3542)">
<mask id="mask3_1094_3542" style="mask-type:luminance" maskUnits="userSpaceOnUse" x="87" y="247" width="47" height="61">
<path d="M133.539 304.254L88.8836 307.366L87.6163 250.559L132.272 247.447L133.539 304.254Z" fill="white"/>
</mask>
<g mask="url(#mask3_1094_3542)">
<rect x="87.617" y="247.466" width="46.0557" height="59.9077" fill="#0962FF"/>
</g>
</g>
</g>
<mask id="path-15-inside-1_1094_3542" fill="white">
<path d="M120.866 247.866C118.754 247.985 116.521 248.464 114.349 249.183C99.2022 254.151 87.6762 271.211 88.6418 287.313C89.1245 295.454 92.6849 302.039 98.6591 305.81C99.866 306.588 101.194 307.247 102.521 307.725C101.918 307.306 101.314 306.887 100.711 306.408C100.107 306.109 99.504 305.75 98.9608 305.391C93.1677 301.68 89.6676 295.275 89.1849 287.253C88.2193 271.391 99.5643 254.51 114.47 249.661C116.642 248.943 118.754 248.524 120.866 248.404C124.909 248.105 128.772 248.883 132.151 250.679C132.694 250.799 133.297 250.918 133.841 251.038C133.78 251.038 133.78 250.978 133.72 250.978C129.978 248.584 125.573 247.566 120.866 247.866Z"/>
</mask>
<path d="M120.866 247.866L120.924 248.881L120.931 248.881L120.866 247.866ZM114.349 249.183L114.666 250.149L114.668 250.148L114.349 249.183ZM88.6418 287.313L89.657 287.253L89.6569 287.252L88.6418 287.313ZM98.6591 305.81L99.2102 304.955L99.202 304.95L98.6591 305.81ZM102.521 307.725L102.176 308.682L103.101 306.89L102.521 307.725ZM100.711 306.408L101.343 305.612L101.259 305.545L101.163 305.497L100.711 306.408ZM98.9608 305.391L99.5218 304.543L99.5157 304.539L99.5094 304.535L98.9608 305.391ZM89.1849 287.253L90.2 287.192L90.2 287.192L89.1849 287.253ZM114.47 249.661L114.784 250.629L114.789 250.627L114.47 249.661ZM120.866 248.404L120.924 249.42L120.933 249.419L120.941 249.419L120.866 248.404ZM132.151 250.679L131.674 251.577L131.796 251.642L131.932 251.672L132.151 250.679ZM133.841 251.038V252.055L134.059 250.045L133.841 251.038ZM133.72 250.978L133.172 251.835L133.422 251.995H133.72V250.978ZM120.809 246.85C118.589 246.976 116.267 247.477 114.03 248.217L114.668 250.148C116.776 249.451 118.919 248.995 120.924 248.881L120.809 246.85ZM114.032 248.216C98.4405 253.33 86.6338 270.817 87.6266 287.374L89.6569 287.252C88.7187 271.605 99.9639 254.971 114.666 250.149L114.032 248.216ZM87.6266 287.373C88.1252 295.783 91.8186 302.695 98.1163 306.67L99.202 304.95C93.5512 301.383 90.1238 295.126 89.657 287.253L87.6266 287.373ZM98.108 306.665C99.3784 307.484 100.775 308.177 102.176 308.682L102.866 306.769C101.612 306.316 100.354 305.692 99.2102 304.955L98.108 306.665ZM103.101 306.89C102.494 306.469 101.917 306.067 101.343 305.612L100.079 307.205C100.712 307.707 101.341 308.144 101.941 308.561L103.101 306.89ZM101.163 305.497C100.605 305.221 100.038 304.884 99.5218 304.543L98.3999 306.239C98.9697 306.616 99.6099 306.998 100.259 307.32L101.163 305.497ZM99.5094 304.535C94.0329 301.026 90.6665 294.944 90.2 287.192L88.1697 287.314C88.6687 295.606 92.3025 302.333 98.4123 306.247L99.5094 304.535ZM90.2 287.192C89.262 271.781 100.329 255.331 114.784 250.629L114.155 248.694C98.7997 253.689 87.1767 271 88.1698 287.315L90.2 287.192ZM114.789 250.627C116.885 249.934 118.909 249.534 120.924 249.42L120.809 247.389C118.599 247.514 116.399 247.952 114.15 248.696L114.789 250.627ZM120.941 249.419C124.805 249.133 128.474 249.877 131.674 251.577L132.628 249.781C129.069 247.89 125.014 247.078 120.791 247.39L120.941 249.419ZM131.932 251.672C132.21 251.733 132.502 251.794 132.788 251.854C133.076 251.914 133.357 251.973 133.622 252.031L134.059 250.045C133.781 249.984 133.489 249.923 133.204 249.863C132.916 249.803 132.635 249.744 132.37 249.686L131.932 251.672ZM133.841 250.021C133.919 250.021 134.004 250.031 134.093 250.056C134.182 250.08 134.259 250.116 134.325 250.155C134.388 250.193 134.434 250.23 134.462 250.254C134.485 250.275 134.504 250.294 134.496 250.286C134.496 250.286 134.47 250.26 134.438 250.232C134.403 250.201 134.349 250.157 134.276 250.114C134.201 250.069 134.113 250.029 134.012 250.001C133.912 249.973 133.813 249.961 133.72 249.961V251.995C133.642 251.995 133.556 251.985 133.468 251.961C133.379 251.936 133.301 251.901 133.236 251.862C133.172 251.824 133.126 251.786 133.099 251.763C133.075 251.742 133.057 251.723 133.064 251.73C133.064 251.73 133.09 251.757 133.122 251.785C133.157 251.815 133.212 251.859 133.285 251.903C133.36 251.947 133.448 251.988 133.548 252.016C133.649 252.043 133.747 252.055 133.841 252.055V250.021ZM134.268 250.122C130.323 247.597 125.698 246.539 120.802 246.851L120.931 248.881C125.448 248.593 129.633 249.571 133.172 251.835L134.268 250.122Z" fill="#141414" mask="url(#path-15-inside-1_1094_3542)"/>
<path d="M131.788 280.19L120.142 301.919L107.59 287.134L119.9 291.324L131.788 280.19ZM107.53 284.62L119.056 259.658L131.728 277.676L119.84 288.81L107.53 284.62ZM126.116 250.919C110.487 251.996 93.7105 266.542 93.8312 288.211C94.495 305.451 105.538 310.898 115.616 310.18C131.245 309.102 148.021 294.497 147.84 272.887C147.237 255.588 136.194 250.2 126.116 250.919Z" fill="white"/>
<path d="M115.616 310.18C105.539 310.898 94.4954 305.451 93.8316 288.211C93.7109 266.542 110.487 251.996 126.116 250.919C136.194 250.2 147.237 255.648 147.901 272.887C148.022 294.497 131.246 309.103 115.616 310.18ZM126.056 250.32C110.185 251.398 93.1075 266.243 93.2282 288.271C93.5902 297.071 96.5472 302.877 100.711 306.349C101.314 306.828 101.918 307.247 102.521 307.666C106.444 310.18 111.09 311.018 115.616 310.719C131.487 309.641 148.565 294.796 148.444 272.768C147.962 259.479 141.444 253.074 133.78 250.979C133.237 250.799 132.694 250.679 132.091 250.619C130.16 250.26 128.108 250.2 126.056 250.32Z" fill="#141414"/>
</g>
<ellipse cx="121.175" cy="297.12" rx="20.3396" ry="25.9331" fill="white"/>
<path d="M130.015 307.068C130.015 307.068 131.071 303.75 130.947 298.69C130.847 294.605 128.649 294.239 126.934 294.565C126.21 294.703 125.442 295.105 124.679 295.564C123.266 296.412 120.625 297.978 116.51 300.254C110.673 303.481 109.952 298.872 109.99 296.356L109.99 288.516L130.015 276.954M130.015 307.068L111.077 318.002L120.546 297.478L130.015 276.954M130.015 307.068L138.243 287.706L130.015 276.954" stroke="#141414" stroke-width="3.58498"/>
<rect width="5.37747" height="1.07549" transform="matrix(0.866025 -0.5 2.20305e-08 1 119.303 295.83)" fill="white"/>
<path d="M139.141 126.137L139.133 126.155L139.126 126.174C138.519 127.691 137.45 129.072 136.26 129.759L136.238 129.771L136.217 129.786L132.073 132.652L127.574 130.314C127.031 130.032 126.878 129.19 127.194 128.224L148.536 62.9944C148.747 62.4784 148.893 61.9976 148.986 61.5367C149.017 61.5502 149.048 61.5656 149.078 61.5831C149.128 61.6121 149.182 61.6377 149.237 61.6511C149.265 61.6578 149.303 61.6639 149.348 61.6609C149.389 61.6582 149.468 61.6464 149.569 61.5829C149.688 61.5076 149.815 61.3727 149.904 61.1916C149.979 61.0376 149.997 60.9121 150.002 60.8495C150.012 60.7284 149.989 60.6392 149.977 60.5975C149.926 60.4131 149.789 60.1916 149.654 60.0212C149.582 59.9309 149.502 59.8436 149.42 59.773C149.343 59.7063 149.246 59.6384 149.138 59.6117C149.085 59.5985 149.003 59.588 148.898 59.6217C148.781 59.6595 148.623 59.7592 148.482 59.9614C148.356 60.1421 148.303 60.3196 148.28 60.43C148.275 60.4495 148.272 60.4688 148.269 60.4878C147.877 60.6223 147.475 60.8371 147.083 61.0597C146.914 61.1557 146.747 61.2712 146.585 61.4007L134.429 71.1253C134.317 71.2156 134.217 71.2841 134.124 71.3317C133.807 71.4948 133.414 71.6585 132.967 71.8421L132.898 71.8704C132.478 72.0429 132.02 72.2307 131.577 72.4409C131.112 72.6616 130.639 72.9182 130.218 73.2286C129.804 73.5341 129.379 73.9373 129.079 74.4756C128.93 74.7445 128.855 75.007 128.811 75.1647L125.82 85.7983L106.467 129.81L95.4201 121.135C94.9448 120.761 94.8726 119.88 95.2396 118.933L116.359 64.4103C116.67 63.6082 117.244 62.8923 117.867 62.5319L162.557 36.6473C163.045 36.3645 163.511 36.3309 163.842 36.5547L174.582 43.8233C174.709 43.9095 174.813 44.0319 174.89 44.1856L191.299 77.0033C191.506 77.418 191.502 78.0327 191.287 78.6871L174.367 130.169C174.16 130.799 173.776 131.408 173.31 131.846L168.124 136.717C167.495 137.308 166.81 137.503 166.351 137.222L157.049 131.52C156.919 131.44 156.814 131.326 156.735 131.185L172.923 82.5689C172.974 82.4172 173.017 82.2676 173.052 82.1208L174.205 78.7793C174.62 77.7641 174.786 76.8855 174.786 76.0265C174.786 75.1294 174.526 74.5015 174.214 73.9603L174.208 73.9501L174.201 73.9407L163.965 59.4274C163.965 59.4267 163.964 59.4259 163.964 59.4252C163.207 58.3113 161.857 58.2165 160.35 59.0862C160.265 59.1357 160.153 59.216 160.043 59.3481C159.922 59.4934 159.834 59.6657 159.789 59.837C159.714 60.1235 159.78 60.3261 159.823 60.4312C159.923 60.675 160.138 60.9316 160.393 61.1867C160.857 61.6519 161.552 62.208 162.274 62.7857C162.363 62.8573 162.453 62.9293 162.543 63.0014C163.367 63.6623 164.198 64.3433 164.78 64.9669C165.073 65.28 165.29 65.5651 165.413 65.8122C165.475 65.9361 165.504 66.0342 165.514 66.1045C165.517 66.1213 165.518 66.1341 165.518 66.1432L159.382 80.8384L139.141 126.137ZM124.846 138.655L131.764 133.871L134.604 135.347C135.795 135.966 137.723 134.579 138.604 132.469L160.104 80.9759L160.943 79.0973C161.528 77.7875 162.71 76.9235 163.495 77.2315L171.688 80.4455C172.221 80.6544 172.43 81.3567 172.244 82.2163L155.964 129.403C155.666 130.268 155.616 131.075 155.795 131.682L153.293 139.195C153.029 139.987 152.494 140.728 151.884 141.148L110.143 169.824C109.633 170.174 109.127 170.26 108.76 170.058L98.0046 164.138C97.8911 164.076 97.7933 163.987 97.7139 163.874L75.0038 131.684C74.692 131.242 74.6911 130.476 75.0014 129.674L95.66 76.2678C95.969 75.4689 96.5402 74.7548 97.1601 74.3924L104.103 70.3333C105.447 69.548 106.294 70.7331 105.628 72.4646L86.7276 121.568C86.3075 122.59 86.1394 123.474 86.1394 124.337C86.1394 125.234 86.3997 125.862 86.7121 126.404L86.718 126.414L86.7246 126.423L96.9606 140.937C96.9611 140.937 96.9616 140.938 96.962 140.939C97.7186 142.053 99.0689 142.147 100.575 141.278C102.076 140.411 103.422 138.766 104.181 136.787L106.542 131.416L109.624 133.836C110.903 134.841 113.332 132.967 114.047 130.424L126.592 85.8209L129.701 78.7501C129.989 78.095 130.449 77.5117 130.958 77.1553L134.611 74.5978C135.383 74.0576 136.116 74.1402 136.409 74.8003L140.406 83.7922C140.613 84.2585 140.57 84.9479 140.288 85.6534L121.199 133.565C121.198 133.567 121.197 133.569 121.196 133.571C120.775 134.595 120.606 135.48 120.606 136.346C120.606 137.622 121.112 138.584 121.862 139.017C122.628 139.459 123.72 139.307 124.803 138.682L124.825 138.67L124.846 138.655ZM148.232 107.543L137.873 132.355C137.284 133.764 135.997 134.691 135.201 134.278L132.903 133.083L136.282 130.746C137.788 129.867 139.114 128.136 139.861 126.279L148.232 107.543ZM110.285 132.808L107.048 130.266L124.433 90.7303L113.24 130.529C112.762 132.228 111.139 133.48 110.285 132.808Z" fill="white" stroke="#141414"/>
<path d="M163.204 36.553L175.341 44.0913" stroke="#141414" stroke-width="1.2564"/>
<path fill-rule="evenodd" clip-rule="evenodd" d="M128.653 70.4756C128.639 70.8141 128.384 70.9348 128.084 70.7452L117.235 63.8934C116.935 63.7038 116.703 63.2758 116.717 62.9374C116.731 62.599 116.986 62.4783 117.286 62.6678L128.135 69.5197C128.435 69.7092 128.667 70.1372 128.653 70.4756Z" fill="#141414"/>
<path d="M74.6277 130.909L85.9354 138.322" stroke="#141414" stroke-width="1.2564"/>
<path d="M97.2433 163.324L109.179 170.611" stroke="#141414"/>
<path d="M155.037 130.029L166.973 137.316" stroke="#141414" stroke-width="1.2564"/>
<path d="M175.14 76.0042L187.076 83.2914" stroke="#141414" stroke-width="1.2564"/>
<path d="M123.628 128.773L135.564 136.06" stroke="#141414" stroke-width="1.2564"/>
<path d="M160.691 76.1298L173.255 80.7785" stroke="#141414" stroke-width="1.2564"/>
<path d="M135.563 74.0861L148.127 78.7348" stroke="#141414" stroke-width="1.2564"/>
<path d="M126.769 79.1117L139.333 83.7604" stroke="#141414" stroke-width="1.2564"/>
<rect width="14.476" height="6.68564" transform="translate(134.345 74.019) rotate(21.4812)" fill="white"/>
<rect width="9.93365" height="7.65565" transform="translate(130.024 123.245) rotate(29.1334)" fill="white"/>
<path d="M104.782 70.4758L116.09 76.7578L107.923 81.7834L96.6154 75.5014L104.782 70.4758Z" fill="white"/>
<path d="M96.6151 76.7578L108.551 83.0398L86.5638 138.322L75.2562 130.783L96.6151 76.7578Z" fill="white"/>
<path d="M95.9869 75.6273L108.249 82.4117" stroke="#141414" stroke-width="1.2564"/>
<path d="M104.781 69.8479L117.044 77.3861" stroke="#141414" stroke-width="1.2564"/>
<path d="M151.176 133.373L151.176 133.373L151.18 133.363L170.744 82.8301C171.416 81.0959 173.099 80.1264 173.768 81.0889L177.211 86.0463C177.519 86.4897 177.518 87.2535 177.209 88.0524L155.95 142.933C155.639 143.737 155.063 144.453 154.44 144.813L110.051 170.442C109.429 170.801 108.854 170.75 108.542 170.308L86.3112 138.797C85.9993 138.355 85.9984 137.589 86.3087 136.787L106.967 83.3808C107.276 82.5819 107.848 81.8679 108.467 81.5055L115.411 77.4463C116.754 76.661 117.602 77.8461 116.935 79.5776L98.0349 128.681C97.6148 129.703 97.4468 130.587 97.4468 131.45C97.4468 132.348 97.707 132.975 98.0195 133.517L98.0254 133.527L98.032 133.536L108.268 148.05C108.268 148.05 108.269 148.051 108.269 148.052C109.026 149.166 110.376 149.26 111.883 148.391C113.389 147.521 114.74 145.866 115.496 143.878C115.497 143.877 115.497 143.877 115.497 143.876L138.361 84.7286C138.67 83.9293 139.241 83.2148 139.861 82.8523L146.789 78.8025C148.135 78.0156 148.982 79.207 148.31 80.9417L123.707 144.458C123.287 145.48 123.119 146.364 123.119 147.228C123.119 148.505 123.625 149.466 124.375 149.899C125.14 150.341 126.232 150.19 127.316 149.564L147.567 137.872C149.088 136.994 150.427 135.246 151.176 133.373ZM132.365 81.2173L132.365 81.2172L132.361 81.2277L112.871 131.626C112.2 133.361 110.515 134.332 109.847 133.369L106.405 128.413C106.097 127.97 106.098 127.206 106.407 126.407L127.666 71.5233C127.977 70.7213 128.552 70.0053 129.174 69.6449L173.565 43.9333C174.187 43.5729 174.763 43.6225 175.075 44.0633L197.375 75.5294C197.689 75.9727 197.689 76.7436 197.375 77.5496L176.5 131.171C176.19 131.967 175.62 132.677 175.003 133.038L168.065 137.094C166.72 137.88 165.873 136.691 166.543 134.957L185.505 85.9094C185.925 84.887 186.094 84.0034 186.094 83.1395C186.094 82.2425 185.833 81.6145 185.521 81.0733L185.515 81.0631L185.508 81.0537L175.272 66.5404C175.272 66.5397 175.271 66.539 175.271 66.5382C174.514 65.4244 173.164 65.3296 171.658 66.1992C170.151 67.0689 168.801 68.723 168.044 70.7108C168.044 70.7119 168.044 70.7131 168.043 70.7142L145.179 129.861C144.87 130.661 144.299 131.375 143.679 131.738L136.752 135.787C135.406 136.574 134.558 135.383 135.23 133.648L159.833 70.1323C160.254 69.1097 160.422 68.226 160.422 67.362C160.422 66.0855 159.916 65.1241 159.166 64.6912C158.4 64.2492 157.308 64.4002 156.225 65.0258L135.973 76.7179C134.453 77.5957 133.113 79.3439 132.365 81.2173Z" fill="#0962FF" stroke="#141414"/>
<rect width="26" height="26" rx="13" transform="matrix(0.866025 -0.5 0.866025 0.5 274 230.286)" fill="white"/>
<rect width="7.14418" height="7.14418" rx="3.57209" transform="matrix(0.866025 -0.5 0.866025 0.5 290.33 229.286)" fill="#141414"/>
<rect width="7.14418" height="7.14418" rx="3.57209" transform="matrix(0.866025 -0.5 0.866025 0.5 290.33 226.286)" fill="#141414"/>
<rect x="292.15" y="226" width="8.7" height="4" rx="0.6" fill="#141414"/>
<rect x="295.5" y="159" width="2" height="67" fill="#86B2FF"/>
<circle cx="296.5" cy="155.181" r="4" fill="#0962FF"/>
<line x1="295" y1="163.6" x2="298" y2="163.6" stroke="#0962FF" stroke-width="0.8"/>
<line x1="295" y1="191.6" x2="298" y2="191.6" stroke="#0962FF" stroke-width="0.8"/>
<path d="M298 191.775V163.5C303.667 167.167 318 173.4 330 169C342 164.6 352.333 175.5 356 181.5C354.167 181 349.2 180 344 180C337.5 180 330.5 185 323.5 190C317.9 194 304.167 192.85 298 191.775Z" fill="#86B2FF"/>
<path d="M385.234 123.3C400.605 123.3 413.066 110.939 413.066 95.6917C413.066 80.444 400.605 68.0833 385.234 68.0833C369.862 68.0833 357.401 80.444 357.401 95.6917C357.401 110.939 369.862 123.3 385.234 123.3Z" fill="#0962FF" stroke="#0962FF" stroke-width="0.322497" stroke-miterlimit="10"/>
<path d="M380.416 122.404C395.788 122.404 408.249 110.043 408.249 94.7952C408.249 79.5475 395.788 67.1868 380.416 67.1868C365.045 67.1868 352.584 79.5475 352.584 94.7952C352.584 110.043 365.045 122.404 380.416 122.404Z" fill="white" stroke="#141414" stroke-width="0.8" stroke-miterlimit="10"/>
<path d="M390.889 97.662C390.77 97.0317 390.531 96.4014 390.134 95.8499C389.777 95.2983 389.26 94.865 388.704 94.5104C388.148 94.1558 387.513 93.9195 386.878 93.8407C387.751 93.4467 388.426 92.777 388.863 91.9103C389.3 91.083 389.419 90.0981 389.26 89.192C388.943 85.8828 386.123 84.7797 382.549 84.4251V79.8552L379.769 79.8159V84.2676C379.054 84.2676 378.299 84.2676 377.544 84.2676V79.7765L374.764 79.7371V84.3069C374.169 84.3069 373.573 84.3069 373.017 84.3069L369.204 84.2676V87.2222C369.204 87.2222 371.269 87.1828 371.23 87.2222C371.587 87.1828 371.984 87.301 372.262 87.498C372.54 87.7344 372.739 88.0495 372.818 88.4435L372.779 100.971C372.779 101.089 372.739 101.208 372.699 101.326C372.66 101.444 372.58 101.562 372.461 101.641C372.381 101.72 372.262 101.799 372.143 101.838C372.024 101.877 371.905 101.877 371.746 101.877C371.786 101.917 369.721 101.877 369.721 101.877L369.165 105.187L372.779 105.226C373.454 105.226 374.129 105.265 374.764 105.265V109.875L377.544 109.914V105.344C378.299 105.384 379.014 105.384 379.769 105.384V109.914L382.549 109.953V105.344C387.235 105.108 390.492 103.965 390.889 99.5924C390.968 99.0015 391.008 98.3318 390.889 97.662ZM377.584 87.5374C379.133 87.5374 384.058 87.104 384.058 90.3739C384.058 93.5255 379.133 93.0922 377.544 93.0922L377.584 87.5374ZM377.544 102.035L377.584 95.9286C379.451 95.9286 385.368 95.4559 385.368 99.0409C385.329 102.508 379.451 102.035 377.544 102.035Z" fill="#141414"/>
<mask id="mask4_1094_3542" style="mask-type:luminance" maskUnits="userSpaceOnUse" x="336" y="325" width="53" height="58">
<path d="M337.187 382.424L336 329.071L387.566 325.487L388.702 378.891L337.187 382.424Z" fill="white"/>
</mask>
<g mask="url(#mask4_1094_3542)">
<mask id="mask5_1094_3542" style="mask-type:luminance" maskUnits="userSpaceOnUse" x="337" y="327" width="47" height="53">
<path d="M383.748 345.558C384.574 359.23 374.818 373.72 361.965 377.97C349.061 382.168 337.963 374.488 337.137 360.817C336.311 347.146 346.067 332.655 358.92 328.406C371.824 324.207 382.922 331.887 383.748 345.558Z" fill="white"/>
</mask>
<g mask="url(#mask5_1094_3542)">
<mask id="mask6_1094_3542" style="mask-type:luminance" maskUnits="userSpaceOnUse" x="337" y="327" width="38" height="51">
<path d="M364.443 327.535C362.636 327.638 360.83 327.996 358.971 328.611C346.222 332.758 336.518 347.197 337.343 360.766C337.756 367.627 340.75 373.105 345.706 376.28C346.222 376.587 346.686 376.894 347.202 377.15C343.641 374.13 341.06 369.214 340.802 361.687C340.699 342.845 355.306 330.198 368.882 329.225C370.585 329.123 372.392 329.174 374.095 329.532C371.205 327.945 367.901 327.279 364.443 327.535Z" fill="white"/>
</mask>
<g mask="url(#mask6_1094_3542)">
<mask id="mask7_1094_3542" style="mask-type:luminance" maskUnits="userSpaceOnUse" x="336" y="326" width="40" height="52">
<path d="M375.283 375.307L337.085 377.97L336.001 329.379L374.199 326.716L375.283 375.307Z" fill="white"/>
</mask>
<g mask="url(#mask7_1094_3542)">
<rect x="336.002" y="326.732" width="39.3948" height="51.2434" fill="#0962FF"/>
</g>
</g>
</g>
<path d="M364.442 327.074C362.636 327.177 360.726 327.586 358.867 328.201C345.911 332.451 336.052 347.043 336.878 360.817C337.291 367.78 340.337 373.413 345.447 376.638C346.479 377.304 347.615 377.867 348.75 378.277C348.234 377.918 347.718 377.56 347.202 377.15C346.686 376.894 346.169 376.587 345.705 376.28C340.75 373.105 337.756 367.627 337.343 360.766C336.517 347.197 346.221 332.758 358.971 328.61C360.829 327.996 362.636 327.638 364.442 327.535C367.901 327.279 371.204 327.945 374.095 329.481C374.559 329.583 375.075 329.686 375.54 329.788C375.488 329.788 375.488 329.737 375.437 329.737C372.236 327.689 368.468 326.818 364.442 327.074Z" fill="black"/>
<path d="M373.785 354.724L363.822 373.31L353.086 360.663L363.616 364.247L373.785 354.724ZM353.034 358.513L362.893 337.161L373.733 352.573L363.564 362.097L353.034 358.513ZM368.933 329.686C355.564 330.607 341.214 343.05 341.317 361.585C341.885 376.331 351.331 380.991 359.951 380.376C373.32 379.455 387.67 366.961 387.515 348.477C386.999 333.68 377.553 329.071 368.933 329.686Z" fill="white"/>
<path d="M359.951 380.376C351.331 380.991 341.885 376.331 341.317 361.585C341.214 343.05 355.564 330.608 368.933 329.686C377.553 329.072 386.999 333.731 387.567 348.477C387.67 366.961 373.32 379.455 359.951 380.376ZM368.881 329.174C355.306 330.096 340.698 342.794 340.801 361.636C341.111 369.163 343.64 374.13 347.202 377.099C347.718 377.509 348.234 377.867 348.75 378.226C352.105 380.376 356.08 381.093 359.951 380.837C373.527 379.916 388.135 367.217 388.031 348.375C387.618 337.008 382.044 331.529 375.488 329.737C375.024 329.584 374.559 329.481 374.043 329.43C372.391 329.123 370.636 329.072 368.881 329.174Z" fill="#141414"/>
<path d="M362.893 337.161C362.996 340.438 363.1 345.559 363.254 350.525L373.733 352.625L362.893 337.161Z" fill="#343434"/>
<path d="M362.894 337.161L353.035 358.513L363.255 350.525C363.152 345.559 362.997 340.438 362.894 337.161Z" fill="#8C8C8C"/>
<path d="M373.785 354.724L363.616 364.196L363.874 373.259L373.785 354.724Z" fill="#3C3C3B"/>
<path d="M353.086 360.612L363.874 373.259L363.616 364.196L353.086 360.612Z" fill="#8C8C8C"/>
<path d="M363.255 350.525L363.565 362.097L373.733 352.624L363.255 350.525Z" fill="#141414"/>
<path d="M363.255 350.525L353.035 358.513L363.565 362.097L363.255 350.525Z" fill="#393939"/>
</g>
</g>
<defs>
<clipPath id="clip0_1094_3542">
<rect width="420" height="492" fill="white" transform="translate(0 0.181396)"/>
</clipPath>
</defs>
</svg>
