<svg width="170" height="161" viewBox="0 0 170 161" fill="none" xmlns="http://www.w3.org/2000/svg">
<rect width="6.84784" height="17.6088" transform="matrix(0 -1 1 0 34.9742 51.6379)" fill="#86B2FF"/>
<rect width="5.86958" height="6.84785" transform="matrix(0 -1 1 0 27.148 42.8335)" fill="#86B2FF"/>
<rect x="0.52407" width="67.171" height="67.171" rx="6.95916" transform="matrix(0.866026 -0.5 0.866025 0.5 25.9538 112.571)" fill="#141414" stroke="#0962FF" stroke-width="0.605144"/>
<rect x="0.52407" width="67.171" height="67.171" rx="6.95916" transform="matrix(0.866026 -0.5 0.866025 0.5 25.9538 105.914)" fill="#86B2FF" stroke="#0962FF" stroke-width="0.605144"/>
<rect opacity="0.5" width="57.1414" height="20.8441" rx="10.4221" transform="matrix(-0.866026 -0.5 -0.866025 0.5 127.053 109.074)" fill="#141414"/>
<path d="M29.8343 111.995V105.628C29.8343 106.334 30.5 108.109 33.1626 109.561C35.8252 111.013 36.6926 111.578 36.7935 111.679V118.215L31.3472 115.007C31.0634 114.795 30.55 114.312 30.1862 113.708C29.88 113.199 29.8343 112.589 29.8343 111.995Z" fill="#0962FF" stroke="#0962FF" stroke-width="0.605144"/>
<path d="M139.184 105.628V112.587" stroke="#0962FF" stroke-width="0.605144"/>
<path d="M77.9431 135.582V141.936" stroke="#0962FF" stroke-width="0.605144"/>
<path d="M91.2564 135.28V141.936" stroke="#0962FF" stroke-width="0.605144"/>
<path d="M135.129 112.616V110.166C135.129 110.166 136.725 109.403 137.55 108.654C138.238 108.028 138.967 106.701 139.247 106.163C139.276 106.107 139.365 106.128 139.365 106.192V111.534C139.365 112.43 139.27 113.363 138.76 114.1C138.11 115.039 137.053 115.597 136.064 116.169L102.451 135.582L132.84 116.73C134.263 115.847 135.129 114.291 135.129 112.616Z" fill="#0962FF" stroke="#0962FF" stroke-width="0.605144"/>
<path d="M41.3318 120.877V114.523L46.1729 117.549V123.601L41.3318 120.877Z" fill="#0962FF" stroke="#0962FF" stroke-width="0.605144"/>
<circle opacity="0.3" cx="11.3498" cy="11.3498" r="11.3498" transform="matrix(0.866026 0.5 -0.866026 0.5 82.3007 94.1746)" fill="#141414"/>
<mask id="path-11-outside-1_1094_3270" maskUnits="userSpaceOnUse" x="59.2855" y="-2.80347" width="84.8705" height="106" fill="black">
<rect fill="white" x="59.2855" y="-2.80347" width="84.8705" height="106"/>
<path fill-rule="evenodd" clip-rule="evenodd" d="M73.9393 60.5858L72.8045 59.9306C66.2562 56.1499 61.0175 47.0764 61.0175 39.515C61.0175 32.9796 64.931 29.8335 70.2211 31.5411C70.745 23.1797 76.9492 19.9805 84.5916 24.3928C86.3945 25.4337 88.1173 26.8058 89.7044 28.4125C93.0533 23.3051 99.6606 22.5071 106.855 26.6609C115.664 31.7467 123.506 43.2551 125.849 54.277C126.065 54.3915 126.282 54.5117 126.5 54.6377C135.144 59.6282 142.216 71.8775 142.216 81.8585C142.216 91.8394 135.144 95.9225 126.5 90.932L73.9393 60.586L73.9393 60.5858Z"/>
</mask>
<path fill-rule="evenodd" clip-rule="evenodd" d="M73.9393 60.5858L72.8045 59.9306C66.2562 56.1499 61.0175 47.0764 61.0175 39.515C61.0175 32.9796 64.931 29.8335 70.2211 31.5411C70.745 23.1797 76.9492 19.9805 84.5916 24.3928C86.3945 25.4337 88.1173 26.8058 89.7044 28.4125C93.0533 23.3051 99.6606 22.5071 106.855 26.6609C115.664 31.7467 123.506 43.2551 125.849 54.277C126.065 54.3915 126.282 54.5117 126.5 54.6377C135.144 59.6282 142.216 71.8775 142.216 81.8585C142.216 91.8394 135.144 95.9225 126.5 90.932L73.9393 60.586L73.9393 60.5858Z" fill="#86B2FF"/>
<path d="M73.9393 60.5858L75.022 61.2108L75.022 59.9607L73.9393 59.3356L73.9393 60.5858ZM70.2211 31.5411L70.4542 32.8965L71.2448 33.1517L71.3012 32.2518L70.2211 31.5411ZM89.7044 28.4125L89.3227 29.362L90.2013 30.2516L90.6533 29.5622L89.7044 28.4125ZM106.855 26.6609L106.855 25.4108L106.855 26.6609ZM125.849 54.277L124.806 54.0119L125.037 55.0983L125.893 55.5519L125.849 54.277ZM73.9393 60.586L72.8567 59.9609L72.8567 61.211L73.9393 61.8361L73.9393 60.586ZM73.9393 59.3356L72.8045 58.6804L72.8045 61.1807L73.9393 61.8359L73.9393 59.3356ZM72.8045 58.6804C66.8541 55.245 62.1002 47.011 62.1002 40.1401L59.9349 38.89C59.9349 47.1417 65.6583 57.0548 72.8045 61.1807L72.8045 58.6804ZM62.1002 40.1401C62.1002 34.2001 65.653 31.3467 70.4542 32.8965L69.9881 30.1858C64.2091 28.3203 59.9349 31.7592 59.9349 38.89L62.1002 40.1401ZM71.3012 32.2518C71.7856 24.5191 77.521 21.5607 84.5916 25.643L84.5916 23.1427C76.3774 18.4002 69.7044 21.8404 69.1411 30.8305L71.3012 32.2518ZM84.5916 25.643C86.2627 26.6078 87.8563 27.8775 89.3227 29.362L90.0861 27.463C88.3783 25.7341 86.5262 24.2596 84.5916 23.1427L84.5916 25.643ZM90.6533 29.5622C93.8128 24.7437 100.057 23.9862 106.855 27.9111L106.855 25.4108C99.2639 21.0279 92.2938 21.8665 88.7554 27.2628L90.6533 29.5622ZM106.855 27.9111C115.174 32.7138 122.593 43.5997 124.806 54.0119L126.891 54.5421C124.419 42.9106 116.154 30.7796 106.855 25.4108L106.855 27.9111ZM125.893 55.5519C126.095 55.6585 126.297 55.7704 126.5 55.8878L126.5 53.3876C126.267 53.2529 126.035 53.1245 125.804 53.0021L125.893 55.5519ZM126.5 55.8878C134.546 60.5331 141.134 71.9429 141.134 81.2334L143.299 82.4835C143.299 71.8122 135.742 58.7232 126.5 53.3876L126.5 55.8878ZM141.134 81.2334C141.134 90.5239 134.546 94.3272 126.5 89.6819L126.5 92.1822C135.742 97.5179 143.299 93.1549 143.299 82.4835L141.134 81.2334ZM126.5 89.6819L73.9393 59.3358L73.9393 61.8361L126.5 92.1822L126.5 89.6819ZM75.022 61.211L75.022 61.2108L72.8567 59.9607L72.8567 59.9609L75.022 61.211Z" fill="white" mask="url(#path-11-outside-1_1094_3270)"/>
<rect x="74.2333" y="23.4285" width="4.99868" height="13.2016" transform="rotate(54.7321 74.2333 23.4285)" fill="#86B2FF"/>
<rect x="64.7785" y="31.3628" width="4.99868" height="13.2016" transform="rotate(54.7321 64.7785 31.3628)" fill="#86B2FF"/>
<rect x="136" y="87.3628" width="4.77826" height="16.6946" transform="rotate(54.9232 136 87.3628)" fill="#86B2FF"/>
<path d="M113.67 62.9851L126.622 54.2428" stroke="white" stroke-width="1.56267"/>
<path d="M76.9999 36.6835L89.2408 27.8299" stroke="white" stroke-width="1.25014"/>
<path d="M64.4708 30.1058L54.3309 39.321" stroke="white" stroke-width="1.14075"/>
<path d="M73.6566 22.7895L61.3644 32.4382" stroke="white" stroke-width="1.25014"/>
<path d="M125 101.542L138.548 92.3079" stroke="white" stroke-width="1.4"/>
<mask id="path-21-outside-2_1094_3270" maskUnits="userSpaceOnUse" x="47.9094" y="5.69775" width="84.8705" height="106" fill="black">
<rect fill="white" x="47.9094" y="5.69775" width="84.8705" height="106"/>
<path fill-rule="evenodd" clip-rule="evenodd" d="M62.5631 69.0867L61.4284 68.4315C54.8801 64.6509 49.6415 55.5773 49.6415 48.016C49.6415 41.4807 53.5549 38.3345 58.845 40.0421C59.3688 31.6807 65.573 28.4815 73.2154 32.8938C75.0183 33.9347 76.7412 35.3068 78.3284 36.9137C81.6773 31.8063 88.2845 31.0083 95.4792 35.1621C104.288 40.2479 112.13 51.7563 114.473 62.7781C114.689 62.8926 114.906 63.0128 115.124 63.1388C123.768 68.1293 130.84 80.3786 130.84 90.3596C130.84 100.34 123.768 104.424 115.124 99.4331L62.5631 69.0871L62.5631 69.0867Z"/>
</mask>
<path fill-rule="evenodd" clip-rule="evenodd" d="M62.5631 69.0867L61.4284 68.4315C54.8801 64.6509 49.6415 55.5773 49.6415 48.016C49.6415 41.4807 53.5549 38.3345 58.845 40.0421C59.3688 31.6807 65.573 28.4815 73.2154 32.8938C75.0183 33.9347 76.7412 35.3068 78.3284 36.9137C81.6773 31.8063 88.2845 31.0083 95.4792 35.1621C104.288 40.2479 112.13 51.7563 114.473 62.7781C114.689 62.8926 114.906 63.0128 115.124 63.1388C123.768 68.1293 130.84 80.3786 130.84 90.3596C130.84 100.34 123.768 104.424 115.124 99.4331L62.5631 69.0871L62.5631 69.0867Z" fill="#0962FF"/>
<path d="M62.5631 69.0867L63.6458 69.7117L63.6458 68.4616L62.5631 67.8365L62.5631 69.0867ZM61.4284 68.4315L61.4284 67.1814L61.4284 68.4315ZM58.845 40.0421L59.078 41.3975L59.8686 41.6527L59.925 40.7527L58.845 40.0421ZM78.3284 36.9137L77.9466 37.8632L78.8253 38.7527L79.2773 38.0634L78.3284 36.9137ZM95.4792 35.1621L95.4792 33.912L95.4792 35.1621ZM114.473 62.7781L113.43 62.5131L113.661 63.5994L114.517 64.053L114.473 62.7781ZM115.124 99.4331L115.124 98.183L115.124 99.4331ZM62.5631 69.0871L61.4805 68.462L61.4805 69.7121L62.5631 70.3372L62.5631 69.0871ZM62.5631 67.8365L61.4284 67.1814L61.4284 69.6817L62.5631 70.3368L62.5631 67.8365ZM61.4284 67.1814C55.478 63.746 50.7241 55.512 50.7241 48.6411L48.5588 47.3909C48.5588 55.6427 54.2822 65.5558 61.4284 69.6817L61.4284 67.1814ZM50.7241 48.6411C50.7241 42.7011 54.2768 39.8477 59.078 41.3975L58.6119 38.6867C52.833 36.8213 48.5588 40.2602 48.5588 47.3909L50.7241 48.6411ZM59.925 40.7527C60.4095 33.0201 66.1448 30.0617 73.2154 34.144L73.2154 31.6437C65.0013 26.9012 58.3282 30.3413 57.7649 39.3315L59.925 40.7527ZM73.2154 34.144C74.8866 35.1088 76.4802 36.3785 77.9466 37.8632L78.7101 35.9642C77.0022 34.2352 75.1501 32.7607 73.2154 31.6437L73.2154 34.144ZM79.2773 38.0634C82.4368 33.2449 88.6812 32.4874 95.4792 36.4123L95.4792 33.912C87.8879 29.5292 80.9178 30.3677 77.3794 35.764L79.2773 38.0634ZM95.4792 36.4123C103.798 41.2151 111.217 52.1009 113.43 62.5131L115.515 63.0432C113.043 51.4118 104.778 39.2808 95.4792 33.912L95.4792 36.4123ZM114.517 64.053C114.719 64.1596 114.921 64.2716 115.124 64.3889L115.124 61.8887C114.891 61.7541 114.659 61.6256 114.428 61.5033L114.517 64.053ZM115.124 64.3889C123.17 69.0342 129.757 80.444 129.757 89.7345L131.923 90.9846C131.923 80.3133 124.366 67.2243 115.124 61.8887L115.124 64.3889ZM129.757 89.7345C129.757 99.025 123.17 102.828 115.124 98.183L115.124 100.683C124.366 106.019 131.923 101.656 131.923 90.9846L129.757 89.7345ZM115.124 98.183L62.5631 67.8369L62.5631 70.3372L115.124 100.683L115.124 98.183ZM63.6458 69.7121L63.6458 69.7117L61.4805 68.4616L61.4805 68.462L63.6458 69.7121Z" fill="#141414" mask="url(#path-21-outside-2_1094_3270)"/>
<path opacity="0.1" d="M81.0659 60.9021C74.4465 38.0836 67.6498 78.3794 81.0661 103.383" stroke="white" stroke-width="0.782611"/>
<path opacity="0.1" d="M81.0664 60.902C88.5258 37.1126 95.5655 79.5928 81.0662 103.383" stroke="white" stroke-width="0.782611"/>
<line opacity="0.08" x1="81.6346" y1="53.6194" x2="81.6346" y2="61.3872" stroke="white" stroke-width="0.782611"/>
<path opacity="0.2" d="M81.0654 60.9021C61.3376 41.482 60.6098 80.5641 81.0657 103.383" stroke="white" stroke-width="0.782611"/>
<path opacity="0.2" d="M81.0668 60.9019C100.177 41.9674 103.819 79.3503 81.0666 103.383" stroke="white" stroke-width="0.782611"/>
<path opacity="0.3" d="M81.0674 60.9023C53.8135 49.4923 51.8711 84.9334 81.0677 103.383" stroke="white" stroke-width="0.782611"/>
<path opacity="0.3" d="M81.0669 60.9022C108.674 49.4926 111.829 82.2633 81.0667 103.383" stroke="white" stroke-width="0.782611"/>
<path opacity="0.4" d="M81.0667 60.9027C48.7155 55.0754 43.6178 88.3319 81.0669 103.383" stroke="white" stroke-width="0.782611"/>
<path d="M81.6254 95.4294C76.527 95.4294 72.394 91.0963 72.394 85.7511C72.394 80.4059 76.527 76.0728 81.6254 76.0728C86.7237 76.0728 90.8568 80.4059 90.8568 85.7511C90.8568 91.0963 86.7237 95.4294 81.6254 95.4294Z" fill="#0962FF" stroke="#141414" stroke-width="0.227856" stroke-miterlimit="10"/>
<path d="M80.6686 94.6914C75.5703 94.6914 71.4373 90.3582 71.4373 85.013C71.4373 79.6678 75.5703 75.3347 80.6686 75.3347C85.767 75.3347 89.9 79.6678 89.9 85.013C89.9 90.3582 85.767 94.6914 80.6686 94.6914Z" fill="#E1E7F2" stroke="#141414" stroke-width="0.227856" stroke-miterlimit="10"/>
<path d="M76.8387 87.3019H78.3486C78.3486 88.1172 79.3828 88.8117 80.6133 88.8117C81.8439 88.8117 82.8781 88.1172 82.8781 87.3019C82.8781 86.4715 82.093 86.1695 80.4322 85.7694C78.8317 85.3693 76.8387 84.871 76.8387 82.7723C76.8387 81.4209 77.9485 80.2734 79.4809 79.8884V78.2427H81.7457V79.8884C83.2782 80.2734 84.388 81.4209 84.388 82.7723H82.8781C82.8781 81.957 81.8439 81.2624 80.6133 81.2624C79.3828 81.2624 78.3486 81.957 78.3486 82.7723C78.3486 83.6027 79.1337 83.9047 80.7945 84.3048C82.395 84.7049 84.388 85.2032 84.388 87.3019C84.388 88.6532 83.2782 89.8007 81.7457 90.1857V91.8315H79.4809V90.1857C77.9485 89.8007 76.8387 88.6532 76.8387 87.3019Z" fill="#141414"/>
<path opacity="0.4" d="M81.0664 60.9021C117.898 56.0467 116.199 89.0601 81.0662 103.383" stroke="white" stroke-width="0.782611"/>
<path opacity="0.5" d="M81.0661 60.9027C47.2589 62.1154 40.2192 98.0418 81.0663 103.384" stroke="white" stroke-width="0.782611"/>
<path opacity="0.5" d="M81.0667 60.9025C116.684 63.0863 121.782 96.828 81.0665 103.383" stroke="white" stroke-width="0.782611"/>
<path opacity="0.6" d="M81.0655 60.9028C51.8704 68.184 38.5199 103.384 81.0657 103.384" stroke="white" stroke-width="0.782611"/>
<path opacity="0.6" d="M81.0673 60.9025C109.402 66.9703 125.423 102.411 81.067 103.383" stroke="white" stroke-width="0.782611"/>
<path opacity="0.7" d="M81.0639 60.9029C52.8419 78.622 47.2588 113.578 81.0641 103.384" stroke="white" stroke-width="0.782611"/>
<path opacity="0.7" d="M81.0675 60.9031C96.779 67.4557 126.393 111.878 81.0673 103.384" stroke="white" stroke-width="0.782611"/>
<path opacity="0.8" d="M81.0608 60.9017C61.581 81.5351 56.2401 122.317 81.061 103.382" stroke="white" stroke-width="0.782611"/>
<path opacity="0.8" d="M81.0673 60.9032C91.6814 66.4847 114.257 123.53 81.0671 103.384" stroke="white" stroke-width="0.782611"/>
<path d="M81.0718 60.9016C74.2147 74.7379 62.8055 131.055 81.0719 103.139" stroke="white" stroke-width="0.782611"/>
<path d="M81.0683 60.9029C85.37 65.5137 102.605 134.454 81.0681 103.384" stroke="white" stroke-width="0.782611"/>
<line x1="81.6346" y1="61.3872" x2="81.6346" y2="113.335" stroke="white" stroke-width="0.782611"/>
<rect width="3.91305" height="11.7392" transform="matrix(0 1 -1 0 62.3656 113.269)" fill="#0962FF"/>
<rect width="2.93479" height="2.93479" transform="matrix(0 1 -1 0 50.6264 110.334)" fill="#0962FF"/>
<rect width="3.91306" height="6.84784" transform="translate(119.105 83.9207)" fill="#86B2FF"/>
<rect width="2.93479" height="2.93479" transform="translate(116.17 90.7686)" fill="#86B2FF"/>
<ellipse cx="107.319" cy="79.1512" rx="2.44566" ry="2.44566" fill="#141414"/>
<ellipse cx="85.8439" cy="45.7685" rx="4.89132" ry="4.89132" fill="#141414"/>
<ellipse cx="55.9421" cy="103.945" rx="2.93479" ry="2.93479" fill="#141414"/>
<ellipse cx="46.7134" cy="65.3337" rx="3.91306" ry="3.91305" fill="#86B2FF"/>
<path d="M101.209 90.4924C101.209 92.5995 99.5008 94.3076 97.3937 94.3076C95.2866 94.3076 93.5785 92.5995 93.5785 90.4924C93.5785 88.3853 95.2866 86.6772 97.3937 86.6772C99.5008 86.6772 101.209 88.3853 101.209 90.4924Z" fill="#86B2FF" stroke="#141414" stroke-width="0.195653"/>
<line x1="49.558" y1="66.6244" x2="55.6342" y2="70.422" stroke="#86B2FF" stroke-width="0.489132"/>
<path d="M57.7411 102.466L59.6821 101.109" stroke="#141414" stroke-width="0.489132"/>
<path d="M85.5055 49.7426L85.5056 53.5403" stroke="#141414" stroke-width="0.489132"/>
</svg>
