<svg width="340" height="258" viewBox="0 0 340 258" fill="none" xmlns="http://www.w3.org/2000/svg">
<path d="M85 126.682L74 130.681" stroke="#0962FF" stroke-width="0.4" stroke-linecap="square" stroke-dasharray="4 1"/>
<path d="M181.195 51.0774C188.819 51.0774 195 44.5975 195 36.6041C195 28.6107 188.819 22.1307 181.195 22.1307C173.57 22.1307 167.39 28.6107 167.39 36.6041C167.39 44.5975 173.57 51.0774 181.195 51.0774Z" fill="#0962FF" stroke="#141414" stroke-width="0.159961" stroke-miterlimit="10"/>
<path d="M178.805 50.6075C186.429 50.6075 192.61 44.1275 192.61 36.1341C192.61 28.1407 186.429 21.6608 178.805 21.6608C171.181 21.6608 165 28.1407 165 36.1341C165 44.1275 171.181 50.6075 178.805 50.6075Z" fill="white" stroke="#141414" stroke-width="0.184467" stroke-miterlimit="10"/>
<path d="M184 37.637C183.94 37.3066 183.822 36.9762 183.625 36.687C183.448 36.3979 183.192 36.1707 182.916 35.9848C182.64 35.799 182.325 35.675 182.01 35.6337C182.443 35.4272 182.778 35.0761 182.995 34.6218C183.212 34.1881 183.271 33.6717 183.192 33.1967C183.034 31.4619 181.636 30.8836 179.863 30.6978V28.3021L178.484 28.2814V30.6152C178.129 30.6152 177.755 30.6152 177.381 30.6152V28.2608L176.002 28.2401V30.6358C175.706 30.6358 175.411 30.6358 175.135 30.6358L173.244 30.6152V32.1641C173.244 32.1641 174.268 32.1435 174.249 32.1641C174.426 32.1435 174.623 32.2054 174.761 32.3087C174.899 32.4326 174.997 32.5978 175.036 32.8043L175.017 39.3719C175.017 39.4338 174.997 39.4958 174.977 39.5577C174.958 39.6197 174.918 39.6817 174.859 39.723C174.82 39.7643 174.761 39.8056 174.702 39.8262C174.642 39.8469 174.583 39.8469 174.505 39.8469C174.524 39.8675 173.5 39.8469 173.5 39.8469L173.224 41.5817L175.017 41.6023C175.352 41.6023 175.687 41.623 176.002 41.623V44.0394L177.381 44.06V41.6643C177.755 41.685 178.11 41.685 178.484 41.685V44.06L179.863 44.0807V41.6643C182.187 41.5404 183.803 40.9415 184 38.649C184.039 38.3392 184.059 37.9881 184 37.637ZM177.4 32.3293C178.169 32.3293 180.611 32.1021 180.611 33.8163C180.611 35.4685 178.169 35.2413 177.381 35.2413L177.4 32.3293ZM177.381 39.9295L177.4 36.7283C178.326 36.7283 181.261 36.4805 181.261 38.3599C181.242 40.1773 178.326 39.9295 177.381 39.9295Z" fill="#343434"/>
<rect x="0.690003" width="88.4389" height="88.4389" rx="9.16259" transform="matrix(0.866025 -0.5 0.866025 0.5 99.8121 212.895)" fill="#141414" stroke="#0962FF" stroke-width="0.796747"/>
<rect x="0.690003" width="88.4389" height="88.4389" rx="9.16259" transform="matrix(0.866025 -0.5 0.866025 0.5 99.8121 204.131)" fill="#86B2FF" stroke="#0962FF" stroke-width="0.796747"/>
<rect opacity="0.5" width="75.2337" height="27.4439" rx="13.7219" transform="matrix(0.866025 -0.5 0.866025 0.5 131 213.064)" fill="white"/>
<path d="M104.921 212.138V203.754C104.921 204.683 105.798 207.02 109.304 208.933C112.809 210.845 113.951 211.588 114.084 211.721V220.326L106.913 216.103C106.54 215.823 105.864 215.188 105.385 214.392C104.982 213.722 104.921 212.919 104.921 212.138Z" fill="#0962FF" stroke="#0962FF" stroke-width="0.796747"/>
<path d="M248.893 203.754V212.916" stroke="#0962FF" stroke-width="0.796747"/>
<path d="M168.263 243.193V251.558" stroke="#0962FF" stroke-width="0.796747"/>
<path d="M185.791 242.794V251.558" stroke="#0962FF" stroke-width="0.796747"/>
<path d="M243.555 212.955V209.729C243.555 209.729 245.656 208.724 246.742 207.737C247.648 206.914 248.608 205.166 248.976 204.459C249.015 204.384 249.132 204.413 249.132 204.497V211.53C249.132 212.709 249.007 213.939 248.336 214.908C247.479 216.145 246.088 216.879 244.785 217.632L200.531 243.193L240.541 218.371C242.415 217.209 243.555 215.16 243.555 212.955Z" fill="#0962FF" stroke="#0962FF" stroke-width="0.796747"/>
<path d="M120.059 223.832V215.466L126.433 219.45V227.417L120.059 223.832Z" fill="#0962FF" stroke="#0962FF" stroke-width="0.796747"/>
<path d="M218.986 174.629L206.35 170.378L192.085 164.901L204.722 169.153L218.986 174.629Z" fill="#0962FF"/>
<path d="M234.671 102.566L226.624 100.69L220.663 98.6871L228.706 100.559L234.671 102.566Z" fill="#0962FF" stroke="#141414" stroke-width="0.671328"/>
<path d="M170.365 181.877L175.255 198.674L163.393 194.683L158.504 177.887L170.365 181.877Z" fill="#0962FF" stroke="#141414" stroke-width="0.671328"/>
<path d="M219.555 60.2902L205.729 71.3705L193.849 67.3788L207.675 56.2986L219.555 60.2902Z" fill="#86B2FF" stroke="#141414" stroke-width="0.671328"/>
<path d="M196.605 85.3114L183.969 81.0657C195.33 84.8863 203.161 97.4445 202.988 114.03C202.988 114.388 202.988 114.741 202.988 115.099C202.988 115.216 202.988 115.334 202.988 115.451C202.988 115.686 202.988 115.927 202.954 116.167C202.954 116.212 202.954 116.257 202.954 116.307C202.954 116.755 202.898 117.202 202.859 117.65C202.859 117.756 202.859 117.857 202.859 117.963C202.82 118.433 202.77 118.908 202.719 119.378L202.686 119.635C202.636 120.055 202.585 120.48 202.524 120.9L202.49 121.157C202.417 121.627 202.345 122.091 202.261 122.555C202.261 122.673 202.222 122.79 202.199 122.908C202.149 123.204 202.093 123.501 202.031 123.792C202.031 123.915 201.987 124.038 201.959 124.161C201.88 124.541 201.802 124.922 201.718 125.28V125.336C201.629 125.738 201.533 126.135 201.433 126.527C201.433 126.644 201.377 126.762 201.343 126.879C201.271 127.17 201.192 127.439 201.114 127.746L201.013 128.121C200.935 128.395 200.851 128.681 200.773 128.944C200.745 129.044 200.711 129.139 200.683 129.24C200.571 129.609 200.454 129.978 200.336 130.359L200.264 130.566C200.167 130.86 200.066 131.157 199.962 131.455L199.833 131.824L199.564 132.557L199.419 132.943C199.324 133.195 199.223 133.441 199.128 133.693L198.994 134.023C198.848 134.381 198.703 134.733 198.552 135.086C198.553 135.101 198.553 135.115 198.552 135.13C198.412 135.466 198.261 135.802 198.11 136.132L197.959 136.462L197.623 137.178L197.45 137.53C197.321 137.793 197.193 138.056 197.058 138.319C197.014 138.414 196.963 138.509 196.913 138.604C196.734 138.951 196.555 139.298 196.354 139.645L196.264 139.812C196.102 140.098 195.945 140.372 195.783 140.668L195.598 140.993C195.458 141.239 195.313 141.479 195.168 141.72L194.994 142.011C194.771 142.38 194.541 142.749 194.306 143.13C194.267 143.197 194.222 143.264 194.177 143.325C193.976 143.639 193.775 143.946 193.568 144.254L193.394 144.506C193.148 144.858 192.908 145.205 192.656 145.552L192.527 145.725C192.309 146.027 192.085 146.318 191.862 146.615L191.694 146.833C191.336 147.303 190.961 147.761 190.575 148.214L190.446 148.365C190.066 148.819 189.68 149.266 189.283 149.702L189.165 149.837C188.763 150.279 188.354 150.709 187.935 151.134L187.834 151.235C187.409 151.666 186.978 152.085 186.536 152.494L186.452 152.572L185.708 153.249L185.569 153.366L184.953 153.898L184.685 154.122L184.181 154.53L183.879 154.77L183.398 155.145L183.079 155.38C182.923 155.503 182.76 155.621 182.598 155.738L182.285 155.962L181.765 156.32L181.479 156.521L180.831 156.941L180.663 157.053L179.84 157.556L179.617 157.685C179.415 157.808 179.214 157.92 179.013 158.037L178.699 158.205C178.52 158.306 178.347 158.401 178.168 158.49L177.832 158.669L177.312 158.927L176.971 159.095L176.411 159.341L176.081 159.486C175.886 159.576 175.69 159.654 175.494 159.738L175.214 159.855L174.358 160.191C174.068 160.303 173.771 160.403 173.48 160.504L173.189 160.594L172.591 160.784L172.294 160.873L171.539 161.08L171.243 161.159C170.907 161.243 170.571 161.321 170.23 161.394L169.262 161.578L168.955 161.629L168.289 161.735L167.942 161.78C167.73 161.78 167.523 161.83 167.31 161.847L166.98 161.88L166.264 161.936H166.035L165.017 161.97H164.754C164.491 161.97 164.234 161.97 163.971 161.97H163.601C163.271 161.97 162.936 161.931 162.606 161.903H162.555C162.242 161.875 161.929 161.841 161.621 161.802L161.314 161.763L160.721 161.668L160.407 161.612C160.195 161.573 159.977 161.533 159.758 161.483L159.529 161.438C159.238 161.371 158.97 161.304 158.668 161.226L158.489 161.181L157.812 160.985L157.208 160.789L169.844 165.041L170.353 165.203L170.454 165.237L171.131 165.427L171.31 165.477C171.595 165.555 171.869 165.623 172.171 165.69L172.401 165.734L173.049 165.863L173.363 165.919L173.956 166.009L174.14 166.036H174.263C174.571 166.076 174.884 166.109 175.198 166.137H175.248C175.578 166.137 175.914 166.188 176.244 166.199H176.529C176.786 166.199 177.049 166.199 177.312 166.199H177.575C177.911 166.199 178.252 166.199 178.593 166.171H178.632H178.822L179.538 166.12L179.868 166.087L180.5 166.014L180.847 165.969C181.071 165.969 181.289 165.908 181.513 165.869L181.821 165.818L182.788 165.634C183.124 165.561 183.465 165.483 183.801 165.399L184.097 165.32L184.853 165.108L185.037 165.058L185.143 165.024L185.748 164.834L186.039 164.739C186.329 164.644 186.598 164.537 186.917 164.431C187.208 164.325 187.476 164.213 187.778 164.095L188.069 163.978L188.628 163.726L188.958 163.581L189.518 163.329L189.865 163.167L190.385 162.904L190.721 162.731C190.9 162.641 191.073 162.54 191.28 162.445L191.593 162.277L192.197 161.925L192.421 161.796C192.701 161.629 192.98 161.461 193.243 161.287L193.411 161.181L194.06 160.756L194.345 160.566L194.866 160.202L195.173 159.978L195.66 159.62L195.979 159.38C196.141 159.262 196.298 159.134 196.46 159.011L196.762 158.77L197.26 158.362L197.534 158.138C197.741 157.965 197.942 157.786 198.144 157.607C198.195 157.569 198.243 157.527 198.289 157.483C198.541 157.265 198.787 157.042 199.033 156.812L199.067 156.779L199.117 156.734C199.559 156.32 199.99 155.906 200.415 155.475L200.515 155.369C200.929 154.949 201.343 154.513 201.746 154.071L201.863 153.943C202.261 153.506 202.647 153.059 203.027 152.606C203.073 152.556 203.116 152.504 203.156 152.449C203.53 152.001 203.9 151.537 204.274 151.073L204.336 151L204.442 150.849C204.666 150.558 204.89 150.262 205.108 149.965L205.237 149.792C205.488 149.445 205.729 149.098 205.975 148.746L206.148 148.489C206.355 148.186 206.557 147.879 206.758 147.566C206.803 147.498 206.848 147.437 206.887 147.37C207.122 147.012 207.346 146.643 207.575 146.251C207.593 146.218 207.614 146.186 207.636 146.156L207.748 145.954C207.894 145.714 208.039 145.473 208.179 145.233L208.364 144.908L208.845 144.053L208.934 143.885C209.124 143.538 209.303 143.191 209.494 142.844L209.639 142.553C209.773 142.296 209.902 142.033 210.031 141.77L210.12 141.597L210.204 141.418L210.54 140.702L210.691 140.372C210.842 140.036 210.987 139.706 211.133 139.371C211.134 139.356 211.134 139.341 211.133 139.326C211.284 138.973 211.429 138.621 211.574 138.263C211.619 138.151 211.664 138.045 211.703 137.933C211.804 137.681 211.905 137.435 212 137.183L212.067 137.004C212.095 136.937 212.117 136.864 212.145 136.797L212.414 136.065C212.453 135.941 212.497 135.818 212.542 135.695L212.844 134.812C212.844 134.739 212.889 134.666 212.917 134.599C213.034 134.23 213.152 133.861 213.264 133.48C213.292 133.38 213.325 133.279 213.353 133.178C213.437 132.904 213.516 132.619 213.588 132.361L213.639 132.199C213.639 132.126 213.678 132.054 213.695 131.981C213.773 131.696 213.851 131.422 213.924 131.12C213.957 131.002 213.985 130.885 214.013 130.767C214.114 130.37 214.209 129.978 214.299 129.576V129.514C214.383 129.134 214.467 128.753 214.539 128.395C214.567 128.278 214.59 128.155 214.612 128.032C214.673 127.735 214.729 127.444 214.78 127.148C214.78 127.07 214.78 126.997 214.825 126.919V126.796C214.908 126.331 214.981 125.867 215.048 125.397C215.048 125.313 215.076 125.224 215.087 125.14C215.149 124.72 215.199 124.295 215.25 123.876L215.283 123.618C215.333 123.148 215.384 122.673 215.423 122.203C215.423 122.097 215.423 121.996 215.423 121.89C215.462 121.442 215.49 120.995 215.518 120.547C215.518 120.514 215.518 120.48 215.518 120.441V120.402C215.518 120.167 215.518 119.932 215.552 119.697C215.552 119.574 215.552 119.456 215.552 119.339C215.552 118.981 215.552 118.623 215.552 118.27C215.776 101.668 207.944 89.1097 196.605 85.3114Z" fill="#86B2FF"/>
<path d="M164.72 180.235L152.083 175.989C150.681 175.514 149.313 174.944 147.989 174.283L160.625 178.534C161.949 179.196 163.317 179.765 164.72 180.235Z" fill="#0962FF"/>
<path d="M189.065 65.7952L201.701 70.0466C199.768 69.3971 197.777 68.9345 195.755 68.6649L183.118 64.4136C185.14 64.6831 187.131 65.1458 189.065 65.7952Z" fill="#0962FF"/>
<path d="M143.478 161.194L136.681 179.951L124.687 175.914L131.478 157.157L143.478 161.194Z" fill="#0962FF" stroke="#141414" stroke-width="0.671328"/>
<path d="M136.681 180.658C138.957 183.813 141.596 186.686 144.542 189.219L133.675 185.563C130.476 183.004 127.613 180.053 125.153 176.78L136.681 180.658Z" fill="#86B2FF" stroke="#141414" stroke-width="0.671328"/>
<path d="M176.948 54.1242L171.596 73.3182L159.597 69.2865L164.949 50.0872L176.948 54.1242Z" fill="#86B2FF" stroke="#141414" stroke-width="0.671328"/>
<path d="M180.26 52.6278L180.26 52.6277L180.253 52.6299L179.268 52.9263L179.268 52.9263L179.266 52.9272L178.779 53.0782L178.779 53.0782L178.777 53.079C178.302 53.2301 177.826 53.3866 177.354 53.5527L165.766 49.6542C165.958 49.5911 166.15 49.529 166.343 49.4676L166.828 49.317L166.828 49.317L167.561 49.0893L167.801 49.0238L167.801 49.0238L167.806 49.0225C168.211 48.9058 168.617 48.7948 169.027 48.6894L169.027 48.6895L169.032 48.6881L169.621 48.5269C170.228 48.3766 170.832 48.2326 171.435 48.1054L171.436 48.1053C173.586 47.6486 175.765 47.3384 177.957 47.1769L189.008 50.8946C187.303 51.0729 185.609 51.3417 183.933 51.6999C183.318 51.8297 182.704 51.9762 182.092 52.1276L182.092 52.1276L182.087 52.1289L181.494 52.2855L181.494 52.2855L181.49 52.2866L180.26 52.6278Z" fill="#0962FF" stroke="#141414" stroke-width="0.671328"/>
<path d="M143.911 160.986L131.274 156.735C129.463 153.003 128.103 149.069 127.224 145.016L139.861 149.267C140.74 153.32 142.1 157.255 143.911 160.986Z" fill="#0962FF"/>
<mask id="mask0_1094_3085" style="mask-type:luminance" maskUnits="userSpaceOnUse" x="127" y="145" width="17" height="16">
<path d="M143.911 160.986L131.274 156.735C129.463 153.003 128.103 149.069 127.224 145.016L139.861 149.267C140.74 153.32 142.1 157.255 143.911 160.986Z" fill="white"/>
</mask>
<g mask="url(#mask0_1094_3085)">
<path d="M139.574 149.524C140.402 153.28 141.641 156.932 143.268 160.415L131.515 156.461C129.832 152.97 128.546 149.301 127.682 145.523L139.574 149.524Z" fill="#0962FF" stroke="#141414" stroke-width="0.671328"/>
</g>
<path d="M161.671 81.1268L149.035 76.8754C152.122 74.0331 155.529 71.559 159.188 69.5027L171.824 73.7484C168.166 75.8069 164.759 78.2829 161.671 81.1268Z" fill="#0962FF"/>
<mask id="mask1_1094_3085" style="mask-type:luminance" maskUnits="userSpaceOnUse" x="149" y="69" width="23" height="13">
<path d="M161.671 81.1283L149.035 76.877C152.122 74.0347 155.529 71.5606 159.188 69.5043L171.824 73.75C168.166 75.8085 164.759 78.2845 161.671 81.1283Z" fill="white"/>
</mask>
<g mask="url(#mask1_1094_3085)">
<path d="M171.008 73.83C167.631 75.7918 164.474 78.1107 161.59 80.747L149.683 76.7408C152.602 74.1097 155.801 71.8057 159.222 69.87L171.008 73.83Z" fill="#0962FF" stroke="#141414" stroke-width="0.671328"/>
</g>
<path d="M140.807 115.512C140.729 115.794 140.654 116.078 140.58 116.359C140.544 116.499 140.508 116.637 140.471 116.774L140.471 116.774L141.131 115.602M140.807 115.512C140.808 115.512 140.808 115.512 140.808 115.511L141.131 115.602M140.807 115.512C140.807 115.513 140.807 115.513 140.807 115.513L141.131 115.602M140.807 115.512C140.843 115.382 140.878 115.262 140.912 115.143C140.957 114.986 141.002 114.832 141.047 114.66L141.049 114.652L141.049 114.652L141.284 113.847L141.285 113.844C141.325 113.713 141.362 113.598 141.398 113.486C141.452 113.32 141.504 113.161 141.557 112.967L141.56 112.956L141.56 112.956L141.812 112.156L141.813 112.153L141.813 112.153C141.861 112.006 141.909 111.866 141.956 111.726L141.958 111.722C142.006 111.579 142.054 111.437 142.104 111.285L142.105 111.282L142.105 111.282L142.374 110.488L142.374 110.486C142.424 110.343 142.469 110.219 142.514 110.098C142.569 109.947 142.623 109.801 142.681 109.628C142.775 109.344 142.861 109.127 142.951 108.897C142.959 108.876 142.968 108.854 142.977 108.831M141.131 115.602C141.164 115.481 141.198 115.363 141.232 115.243C141.279 115.081 141.326 114.917 141.372 114.746L141.606 113.941C141.642 113.824 141.678 113.713 141.714 113.602C141.77 113.428 141.826 113.254 141.881 113.057L142.132 112.257C142.179 112.112 142.227 111.974 142.275 111.833C142.323 111.69 142.372 111.545 142.423 111.39L142.692 110.595C142.735 110.469 142.78 110.346 142.825 110.224C142.884 110.064 142.942 109.905 142.999 109.734C143.091 109.459 143.173 109.249 143.263 109.019C143.272 108.997 143.281 108.974 143.29 108.951C143.419 108.604 143.553 108.257 143.687 107.916M142.977 108.831C142.976 108.832 142.976 108.833 142.975 108.834L143.29 108.951L142.978 108.829C142.977 108.829 142.977 108.83 142.977 108.831ZM142.977 108.831C143.106 108.483 143.24 108.135 143.375 107.794M143.375 107.794C143.375 107.794 143.374 107.795 143.374 107.795L143.687 107.916M143.375 107.794C143.375 107.794 143.375 107.793 143.375 107.793L143.687 107.916M143.375 107.794L132.068 102.035L144.067 106.072C143.9 106.471 143.734 106.873 143.572 107.282C143.571 107.282 143.571 107.283 143.571 107.283L143.883 107.407M143.687 107.916C143.713 107.85 143.738 107.784 143.763 107.719C143.802 107.614 143.842 107.51 143.883 107.407M143.883 107.407C144.048 106.992 144.217 106.585 144.386 106.179L143.883 107.407ZM139.871 119.259L140.191 119.367C140.216 119.257 140.24 119.147 140.265 119.037L139.945 118.93C139.92 119.039 139.896 119.149 139.871 119.259ZM127.882 115.188C127.904 115.09 127.926 114.992 127.948 114.894L127.662 114.797L127.555 115.115L127.882 115.188ZM128.483 112.701C128.483 112.7 128.484 112.699 128.484 112.698C128.484 112.697 128.485 112.695 128.485 112.694L128.159 112.615L128.483 112.701ZM128.885 111.194C128.885 111.194 128.885 111.194 128.885 111.194L128.885 111.193L128.562 111.104L128.885 111.194ZM129.565 108.91C129.565 108.91 129.565 108.91 129.565 108.91L129.244 108.811L129.564 108.911L129.565 108.91ZM129.496 108.005L129.816 108.106C129.816 108.106 129.816 108.106 129.816 108.106L129.816 108.106L129.496 108.005ZM130.678 105.597C130.678 105.597 130.679 105.596 130.679 105.596L130.679 105.596L130.363 105.483L130.678 105.597ZM130.373 106.451L130.055 106.344L130.371 106.457L130.372 106.454L130.373 106.451ZM131.558 103.28L131.247 103.156L131.558 103.281C131.558 103.281 131.558 103.281 131.558 103.281C131.558 103.28 131.558 103.28 131.558 103.28ZM131.035 104.623C131.035 104.621 131.036 104.62 131.036 104.618L131.038 104.613L130.721 104.504L131.035 104.623ZM129.057 110.594L129.058 110.592C129.058 110.591 129.058 110.591 129.058 110.59L128.735 110.5L129.057 110.594ZM140.309 117.417C140.308 117.424 140.307 117.43 140.306 117.437L140.639 117.482L140.313 117.4C140.312 117.406 140.31 117.411 140.309 117.417Z" fill="#0962FF" stroke="#141414" stroke-width="0.671328"/>
<path d="M139.429 119.465L125.096 128.837L113.27 124.858L127.602 115.486L139.429 119.465Z" fill="#0962FF" stroke="#141414" stroke-width="0.671328"/>
<path d="M124.383 135.518L124.383 135.518L124.383 135.523C124.361 136.206 124.344 136.893 124.349 137.581C124.318 140.216 124.409 142.797 124.596 145.314L112.651 141.3C112.453 138.708 112.384 136.045 112.384 133.331C112.386 133.021 112.396 132.71 112.406 132.395C112.407 132.369 112.407 132.343 112.408 132.317C112.419 131.978 112.429 131.635 112.429 131.291L112.462 130.617L112.462 130.617L112.462 130.614C112.467 130.486 112.474 130.354 112.482 130.219C112.497 129.937 112.513 129.642 112.513 129.353V129.353V129.352V129.352V129.352V129.352V129.352V129.351V129.351V129.351V129.351V129.351V129.35V129.35V129.35V129.35V129.35V129.349V129.349V129.349V129.349V129.349V129.348V129.348V129.348V129.348V129.348V129.347V129.347V129.347V129.347V129.347V129.346V129.346V129.346V129.346V129.346V129.345V129.345V129.345V129.345V129.345V129.344V129.344V129.344V129.344V129.344V129.343V129.343V129.343V129.343V129.343V129.342V129.342V129.342V129.342V129.342V129.341V129.341V129.341V129.341V129.341V129.34V129.34V129.34V129.34V129.34V129.339V129.339V129.339V129.339V129.339V129.338V129.338V129.338V129.338V129.338V129.337V129.337V129.337V129.337V129.337V129.336V129.336V129.336V129.336V129.335V129.335V129.335V129.335V129.335V129.334V129.334V129.334V129.334V129.334V129.333V129.333V129.333V129.333V129.333V129.332V129.332V129.332V129.332V129.332V129.331V129.331V129.331V129.331V129.331V129.33V129.33V129.33V129.33V129.329V129.329V129.329V129.329V129.329V129.328V129.328V129.328V129.328V129.328V129.327V129.327V129.327V129.327V129.327V129.326V129.326V129.326V129.326V129.326V129.325V129.325V129.325V129.325V129.324V129.324V129.324V129.324V129.324V129.323V129.323V129.323V129.323V129.323V129.322V129.322V129.322V129.322V129.322V129.321V129.321V129.321V129.321V129.32V129.32V129.32V129.32V129.32V129.319V129.319V129.319V129.319V129.319V129.318V129.318V129.318V129.318V129.318V129.317V129.317V129.317V129.317V129.316V129.316V129.316V129.316V129.316V129.315V129.315V129.315V129.315V129.315V129.314V129.314V129.314V129.314V129.314V129.313V129.313V129.313V129.313V129.312V129.312V129.312V129.312V129.312V129.311V129.311V129.311V129.311V129.311V129.31V129.31V129.31V129.31V129.309V129.309V129.309V129.309V129.309V129.308V129.308V129.308V129.308V129.308V129.307V129.307V129.307V129.307V129.306V129.306V129.306V129.306V129.306V129.305V129.305V129.305V129.305V129.305V129.304V129.304V129.304V129.304V129.304V129.303V129.303V129.303V129.303V129.302V129.302V129.302V129.302V129.302V129.301V129.301V129.301V129.301V129.301V129.3V129.3V129.3V129.3V129.299V129.299V129.299V129.299V129.299V129.298V129.298V129.298V129.298V129.298V129.297V129.297V129.297V129.297V129.296V129.296V129.296V129.296V129.296V129.295V129.295V129.295V129.295V129.295V129.294V129.294V129.294V129.294V129.294V129.293V129.293V129.293V129.293V129.292V129.292V129.292V129.292V129.292V129.291V129.291V129.291V129.291V129.291V129.29V129.29V129.29V129.29V129.289V129.289V129.289V129.289V129.289V129.288V129.288V129.288V129.288V129.288V129.287V129.287V129.287V129.287V129.286V129.286V129.286V129.286V129.286V129.285V129.285V129.285V129.285V129.285V129.284V129.284V129.284V129.284V129.284V129.283V129.283V129.283V129.283V129.282V129.282V129.282V129.282V129.282V129.281V129.281V129.281V129.281V129.281V129.28V129.28V129.28V129.28V129.28V129.279V129.279V129.279V129.279V129.278V129.278V129.278V129.278V129.278V129.277V129.277V129.277V129.277V129.277V129.276V129.276V129.276V129.276V129.276V129.275V129.275V129.275V129.275V129.274V129.274V129.274V129.274V129.274V129.273V129.273V129.273V129.273V129.273V129.272V129.272V129.272V129.272V129.272V129.271V129.271V129.271V129.271V129.271V129.27V129.27V129.27V129.27V129.269V129.269V129.269V129.269V129.269V129.268V129.268V129.268V129.268V129.268V129.267V129.267V129.267V129.267V129.267V129.266V129.266V129.266V129.266V129.266V129.265V129.265V129.265V129.265V129.264V129.264V129.264V129.264V129.264V129.263V129.263V129.263V129.263V129.263V129.262V129.262V129.262V129.262V129.262V129.261V129.261V129.261V129.261V129.261V129.26V129.26V129.26V129.26V129.26V129.259V129.259V129.259V129.259V129.259V129.258V129.258V129.258V129.258V129.258V129.257V129.257V129.257V129.257V129.257V129.256V129.256V129.256V129.256V129.256V129.255V129.255V129.255V129.255V129.255V129.254C112.535 128.781 112.568 128.312 112.601 127.839L112.601 127.838L112.601 127.838L112.651 127.123C112.696 126.55 112.745 125.978 112.799 125.409L124.783 129.44C124.721 130.066 124.668 130.695 124.619 131.324L124.619 131.326L124.568 132.031L124.568 132.031C124.546 132.348 124.526 132.68 124.507 132.997C124.498 133.163 124.488 133.324 124.478 133.477C124.475 133.54 124.471 133.603 124.466 133.666C124.442 134.047 124.417 134.44 124.416 134.832L124.383 135.518Z" fill="#86B2FF" stroke="#141414" stroke-width="0.671328"/>
<path d="M143.298 80.3766C143.263 80.4245 143.239 80.46 143.217 80.4912C143.189 80.5314 143.166 80.5644 143.132 80.6077L143.132 80.6076L143.124 80.6185C142.885 80.9495 142.643 81.2958 142.406 81.6364C142.239 81.8756 142.075 82.1119 141.914 82.3381L141.914 82.3381L141.909 82.3451L141.474 82.992C141.474 82.9924 141.474 82.9927 141.474 82.9931C141.16 83.4529 140.85 83.914 140.546 84.3871L140.093 85.0917C140.093 85.0918 140.093 85.0918 140.093 85.0919C139.865 85.4466 139.642 85.8053 139.42 86.1623C139.336 86.2974 139.252 86.4324 139.168 86.5667L139.166 86.5696L138.797 87.1737L138.797 87.1737L138.795 87.1761C138.439 87.7697 138.082 88.3691 137.733 88.9735L125.749 84.94C126.069 84.3826 126.4 83.8282 126.731 83.2758C126.757 83.2359 126.791 83.1763 126.812 83.1388C126.819 83.1263 126.825 83.1162 126.828 83.1102L127.1 82.6774L127.1 82.6774L127.103 82.6725C127.404 82.1756 127.709 81.6862 128.021 81.2043L128.021 81.2036L128.473 80.5011C128.473 80.5007 128.473 80.5003 128.474 80.4999C128.781 80.0307 129.081 79.5747 129.392 79.1193L129.393 79.1184L129.829 78.4751L129.829 78.4751L129.832 78.4711C130.224 77.8744 130.623 77.3208 131.03 76.7624C131.03 76.7622 131.031 76.7619 131.031 76.7617L131.203 76.5281L131.203 76.5282L131.205 76.5253C131.667 75.8855 132.14 75.2561 132.62 74.6313L132.62 74.6314L132.624 74.6267L132.735 74.4757L132.736 74.4748C132.878 74.2825 133.02 74.1044 133.168 73.9203C133.244 73.8252 133.322 73.7286 133.401 73.6277C133.401 73.6275 133.401 73.6273 133.401 73.6272L133.796 73.1266C133.796 73.1263 133.797 73.1259 133.797 73.1256C134.156 72.6783 134.519 72.2313 134.882 71.7922L146.837 75.8142C146.526 76.1901 146.216 76.5695 145.909 76.9523L145.909 76.9523L145.906 76.9558L145.509 77.4644C145.509 77.4645 145.509 77.4646 145.509 77.4646C145.448 77.5422 145.387 77.6199 145.326 77.6977C145.125 77.9535 144.922 78.2114 144.723 78.4751C144.241 79.1028 143.764 79.7366 143.298 80.3766ZM143.298 80.3766C143.298 80.3767 143.298 80.3769 143.298 80.377L143.57 80.5746L143.299 80.3761C143.299 80.3762 143.299 80.3764 143.298 80.3766Z" fill="#0962FF" stroke="#141414" stroke-width="0.671328"/>
<path d="M137.638 89.6468L143.932 105.319L132.132 101.349L125.838 85.6769L137.638 89.6468Z" fill="#86B2FF" stroke="#141414" stroke-width="0.671328"/>
<path d="M140.281 149.127L140.213 148.815L139.903 148.742L125.337 145.341C125.145 142.797 125.05 140.189 125.082 137.536C125.115 134.835 125.268 132.132 125.526 129.429L140.371 119.727L140.543 119.615L140.588 119.415C141.61 114.821 143.05 110.33 144.889 105.999L144.97 105.807L144.893 105.614L138.355 89.3546C141.008 84.7129 144.055 80.3081 147.463 76.1888L161.39 81.5358L161.682 81.6478L161.912 81.4361C164.971 78.6186 168.346 76.1656 171.971 74.1262L172.153 74.0238L172.209 73.8227L177.671 54.2337C179.743 53.5083 181.859 52.9137 184.006 52.4534C186.039 52.0218 188.096 51.7215 190.167 51.5543L195.177 68.7435L195.268 69.0587L195.594 69.1018C199.032 69.5566 202.369 70.5818 205.47 72.135L205.758 72.2796L206.01 72.0778L220.144 60.7508C223.435 63.4103 226.36 66.4925 228.844 69.9176L221.914 89.0558L221.842 89.2555L221.934 89.4467C223.729 93.1508 225.074 97.0565 225.94 101.08L226.007 101.392L226.318 101.465L240.866 104.849C241.058 107.393 241.153 109.996 241.121 112.648C241.089 115.35 240.936 118.052 240.677 120.756L225.826 130.458L225.655 130.57L225.61 130.77C224.59 135.364 223.152 139.854 221.314 144.186L221.233 144.378L221.311 144.571L227.86 160.852C225.209 165.496 222.162 169.901 218.752 174.018L204.824 168.677L204.532 168.565L204.302 168.777C201.246 171.595 197.87 174.046 194.244 176.08L194.062 176.183L194.006 176.384L188.544 195.978C186.473 196.7 184.359 197.293 182.214 197.754C180.182 198.185 178.124 198.485 176.053 198.653L171.044 181.469L170.952 181.154L170.627 181.111C167.188 180.654 163.851 179.627 160.751 178.072L160.462 177.927L160.21 178.129L146.071 189.456C142.787 186.791 139.864 183.709 137.377 180.289L144.306 161.151L144.379 160.951L144.286 160.76C142.492 157.056 141.148 153.15 140.281 149.127ZM183.472 84.1421C174.371 86.0775 166.122 92.4198 160.127 101.062C154.128 109.708 150.356 120.694 150.232 131.987C150.102 143.268 153.651 152.744 159.542 158.928C165.443 165.122 173.672 167.985 182.792 166.048C191.895 164.115 200.143 157.762 206.139 149.113C212.137 140.461 215.909 129.474 216.033 118.203C216.157 106.934 212.609 97.4563 206.719 91.2686C200.819 85.071 192.594 82.2027 183.472 84.1421Z" fill="#0962FF" stroke="#141414" stroke-width="1.00699"/>
<g clip-path="url(#clip0_1094_3085)">
<path d="M121.744 38.1373L121.863 38.7834L122.373 38.4306C134.979 29.7082 147.016 35.0001 150.037 51.3441L150.28 52.6587C146.369 50.0399 142.419 49.8157 138.544 50.9677C134.227 52.2507 130.036 55.2319 126.152 58.4033L125.577 58.8732L125.713 59.6129L127.373 68.5935L127.373 68.5937C127.444 68.9726 127.455 69.3971 127.408 69.8429C127.36 70.2888 127.254 70.7472 127.097 71.192L127.095 71.1949C126.938 71.6401 126.732 72.0632 126.488 72.4397C126.244 72.8163 125.968 73.1389 125.675 73.3891C125.381 73.6393 125.077 73.8121 124.78 73.8975L124.688 74.7468L124.78 73.8975C124.482 73.983 124.197 73.9794 123.94 73.8871L123.94 73.887L123.936 73.8854L102.728 66.6475L115.845 30.1179L115.846 30.1143C116.085 29.4449 116.432 28.8315 116.845 28.3515C117.258 27.8716 117.717 27.5464 118.165 27.4171C118.613 27.2878 119.03 27.3602 119.363 27.625C119.696 27.8896 119.931 28.3347 120.037 28.9042C120.037 28.9045 120.037 28.9049 120.037 28.9052L121.744 38.1373Z" fill="#86B2FF" stroke="#141414" stroke-width="1.4677"/>
</g>
<g clip-path="url(#clip1_1094_3085)">
<path d="M236.872 191.949L237.021 192.491L239.156 200.231L239.157 200.232M236.872 191.949L243.066 199.005C242.874 199.74 242.561 200.425 242.166 200.974C241.771 201.523 241.312 201.911 240.846 202.09C240.381 202.269 239.931 202.231 239.552 201.98C239.172 201.728 238.882 201.276 238.716 200.679L239.157 200.232M236.872 191.949L236.463 192.288C226.367 200.649 215.721 197.029 211.941 183.327L211.637 182.225M236.872 191.949L211.637 182.225M239.157 200.232C239.289 200.709 239.522 201.071 239.825 201.272C240.128 201.473 240.489 201.504 240.861 201.36C241.233 201.217 241.601 200.906 241.917 200.467C242.233 200.027 242.484 199.479 242.637 198.891L242.638 198.888L251.118 166.798L232.515 162.196L232.511 162.195L232.511 162.195C232.286 162.135 232.043 162.153 231.795 162.248C231.548 162.343 231.302 162.512 231.07 162.747C230.839 162.982 230.627 163.277 230.447 163.616C230.267 163.955 230.123 164.331 230.022 164.721L230.021 164.724C229.919 165.115 229.863 165.513 229.856 165.896C229.848 166.28 229.889 166.641 229.977 166.958L229.977 166.958L232.054 174.487L232.225 175.107L231.77 175.55C228.694 178.539 225.344 181.388 221.761 182.8C218.544 184.067 215.162 184.168 211.637 182.225M239.157 200.232L211.637 182.225" fill="#86B2FF" stroke="#141414" stroke-width="1.25514"/>
</g>
<path d="M178.409 135.495C184.71 135.495 189.817 130.14 189.817 123.534C189.817 116.928 184.71 111.573 178.409 111.573C172.108 111.573 167 116.928 167 123.534C167 130.14 172.108 135.495 178.409 135.495Z" fill="#0962FF" stroke="#141414" stroke-width="0.132193" stroke-miterlimit="10"/>
<path d="M179.591 134.583C185.892 134.583 191 129.228 191 122.622C191 116.016 185.892 110.661 179.591 110.661C173.29 110.661 168.183 116.016 168.183 122.622C168.183 129.228 173.29 134.583 179.591 134.583Z" fill="white" stroke="#141414" stroke-width="0.152445" stroke-miterlimit="10"/>
<path d="M174.995 125.451H176.861C176.861 126.458 178.139 127.317 179.66 127.317C181.181 127.317 182.459 126.458 182.459 125.451C182.459 124.425 181.489 124.051 179.436 123.557C177.458 123.062 174.995 122.447 174.995 119.853C174.995 118.183 176.366 116.765 178.26 116.289V114.255H181.059V116.289C182.953 116.765 184.325 118.183 184.325 119.853H182.459C182.459 118.845 181.181 117.987 179.66 117.987C178.139 117.987 176.861 118.845 176.861 119.853C176.861 120.879 177.831 121.252 179.884 121.747C181.862 122.241 184.325 122.857 184.325 125.451C184.325 127.121 182.953 128.539 181.059 129.015V131.049H178.26V129.015C176.366 128.539 174.995 127.121 174.995 125.451Z" fill="#141414"/>
<mask id="mask2_1094_3085" style="mask-type:luminance" maskUnits="userSpaceOnUse" x="233" y="103" width="33" height="39">
<path d="M265.257 141.342L266 106.033L233.711 103.661L233 139.003L265.257 141.342Z" fill="white"/>
</mask>
<g mask="url(#mask2_1094_3085)">
<mask id="mask3_1094_3085" style="mask-type:luminance" maskUnits="userSpaceOnUse" x="236" y="104" width="30" height="36">
<path d="M236.102 116.944C235.585 125.992 241.694 135.581 249.742 138.394C257.822 141.172 264.771 136.089 265.288 127.042C265.805 117.995 259.697 108.405 251.649 105.592C243.568 102.814 236.619 107.897 236.102 116.944Z" fill="white"/>
</mask>
<g mask="url(#mask3_1094_3085)">
<mask id="mask4_1094_3085" style="mask-type:luminance" maskUnits="userSpaceOnUse" x="242" y="104" width="24" height="34">
<path d="M248.19 105.016C249.321 105.084 250.453 105.321 251.616 105.728C259.6 108.472 265.676 118.028 265.159 127.008C264.9 131.549 263.026 135.174 259.923 137.275C259.6 137.479 259.309 137.682 258.985 137.851C261.216 135.852 262.832 132.599 262.993 127.618C263.058 115.148 253.911 106.778 245.411 106.134C244.344 106.067 243.213 106.1 242.146 106.338C243.956 105.287 246.025 104.847 248.19 105.016Z" fill="white"/>
</mask>
<g mask="url(#mask4_1094_3085)">
<mask id="mask5_1094_3085" style="mask-type:luminance" maskUnits="userSpaceOnUse" x="241" y="104" width="25" height="35">
<path d="M241.403 136.632L265.32 138.394L265.999 106.236L242.081 104.474L241.403 136.632Z" fill="white"/>
</mask>
<g mask="url(#mask5_1094_3085)">
<rect width="24.6675" height="33.9127" transform="matrix(-1 0 0 1 265.999 104.485)" fill="#0962FF"/>
</g>
</g>
</g>
<path d="M248.19 104.711C249.322 104.779 250.518 105.05 251.681 105.457C259.794 108.269 265.967 117.927 265.45 127.042C265.191 131.65 263.284 135.378 260.085 137.513C259.438 137.953 258.727 138.326 258.016 138.597C258.339 138.36 258.663 138.123 258.986 137.851C259.309 137.682 259.632 137.479 259.923 137.275C263.026 135.175 264.901 131.549 265.159 127.008C265.676 118.028 259.6 108.473 251.617 105.728C250.453 105.321 249.322 105.084 248.19 105.016C246.025 104.847 243.956 105.287 242.146 106.304C241.856 106.372 241.532 106.439 241.241 106.507C241.274 106.507 241.274 106.473 241.306 106.473C243.31 105.118 245.669 104.542 248.19 104.711Z" fill="#141414"/>
<path d="M242.341 123.01L248.579 135.31L255.302 126.94L248.708 129.312L242.341 123.01ZM255.334 125.517L249.16 111.387L242.373 121.587L248.74 127.889L255.334 125.517ZM245.379 106.44C253.75 107.05 262.735 115.284 262.671 127.55C262.315 137.309 256.4 140.393 251.003 139.986C242.632 139.376 233.646 131.108 233.743 118.876C234.066 109.083 239.981 106.033 245.379 106.44Z" fill="white"/>
<path d="M251.003 139.986C256.4 140.393 262.315 137.309 262.671 127.55C262.735 115.284 253.75 107.049 245.379 106.44C239.981 106.033 234.066 109.117 233.711 118.876C233.646 131.108 242.631 139.376 251.003 139.986ZM245.411 106.101C253.912 106.711 263.058 115.114 262.994 127.584C262.8 132.565 261.216 135.852 258.986 137.818C258.663 138.089 258.34 138.326 258.016 138.563C255.915 139.986 253.427 140.461 251.003 140.291C242.502 139.681 233.355 131.278 233.42 118.808C233.678 111.285 237.169 107.659 241.274 106.473C241.565 106.372 241.856 106.304 242.179 106.27C243.213 106.067 244.312 106.033 245.411 106.101Z" fill="#141414"/>
<path d="M249.16 111.387C249.096 113.556 249.031 116.944 248.934 120.231L242.373 121.62L249.16 111.387Z" fill="#343434"/>
<path d="M249.16 111.387L255.333 125.517L248.934 120.231C248.999 116.944 249.096 113.556 249.16 111.387Z" fill="#8C8C8C"/>
<path d="M242.341 123.01L248.708 129.278L248.546 135.276L242.341 123.01Z" fill="#3C3C3B"/>
<path d="M255.301 126.906L248.546 135.276L248.708 129.278L255.301 126.906Z" fill="#8C8C8C"/>
<path d="M248.934 120.231L248.74 127.889L242.373 121.62L248.934 120.231Z" fill="#141414"/>
<path d="M248.934 120.231L255.333 125.517L248.74 127.889L248.934 120.231Z" fill="#393939"/>
</g>
<mask id="mask6_1094_3085" style="mask-type:luminance" maskUnits="userSpaceOnUse" x="85" y="86" width="25" height="30">
<path d="M85.5631 115.207L85 88.4577L109.461 86.6608L110 113.436L85.5631 115.207Z" fill="white"/>
</mask>
<g mask="url(#mask6_1094_3085)">
<mask id="mask7_1094_3085" style="mask-type:luminance" maskUnits="userSpaceOnUse" x="85" y="87" width="23" height="27">
<path d="M107.65 96.724C108.042 103.578 103.414 110.843 97.3168 112.974C91.1954 115.079 85.9309 111.228 85.5391 104.374C85.1474 97.5198 89.7752 90.2549 95.8721 88.1242C101.994 86.0192 107.258 89.8698 107.65 96.724Z" fill="white"/>
</mask>
<g mask="url(#mask7_1094_3085)">
<mask id="mask8_1094_3085" style="mask-type:luminance" maskUnits="userSpaceOnUse" x="85" y="87" width="19" height="26">
<path d="M98.4921 87.6876C97.6351 87.739 96.7781 87.9187 95.8966 88.2267C89.8486 90.3061 85.2453 97.5453 85.6371 104.348C85.833 107.788 87.2531 110.535 89.6038 112.126C89.8486 112.28 90.069 112.434 90.3139 112.563C88.6243 111.048 87.4001 108.584 87.2776 104.81C87.2287 95.3633 94.1581 89.0225 100.598 88.5348C101.406 88.4834 102.263 88.5091 103.071 88.6888C101.7 87.893 100.133 87.5593 98.4921 87.6876Z" fill="white"/>
</mask>
<g mask="url(#mask8_1094_3085)">
<mask id="mask9_1094_3085" style="mask-type:luminance" maskUnits="userSpaceOnUse" x="85" y="87" width="19" height="26">
<path d="M103.634 111.639L85.5145 112.974L85.0003 88.6119L103.12 87.277L103.634 111.639Z" fill="white"/>
</mask>
<g mask="url(#mask9_1094_3085)">
<rect x="85.0005" y="87.285" width="18.6876" height="25.6915" fill="#0962FF"/>
</g>
</g>
</g>
<mask id="path-61-inside-1_1094_3085" fill="white">
<path d="M98.492 87.4567C97.635 87.508 96.729 87.7134 95.8475 88.0214C89.7016 90.1521 85.0248 97.4683 85.4166 104.374C85.6125 107.865 87.0571 110.689 89.4812 112.306C89.971 112.64 90.5096 112.922 91.0483 113.128C90.8035 112.948 90.5586 112.768 90.3138 112.563C90.0689 112.435 89.824 112.281 89.6037 112.126C87.253 110.535 85.8329 107.788 85.637 104.348C85.2452 97.5454 89.8485 90.3061 95.8965 88.2268C96.778 87.9187 97.635 87.739 98.492 87.6877C100.133 87.5593 101.7 87.8931 103.071 88.6632C103.291 88.7145 103.536 88.7659 103.756 88.8172C103.732 88.8172 103.732 88.7915 103.707 88.7915C102.189 87.7647 100.402 87.3283 98.492 87.4567Z"/>
</mask>
<path d="M98.492 87.4567L98.5167 87.8686L98.5197 87.8684L98.492 87.4567ZM95.8475 88.0214L95.9827 88.4113L95.9837 88.411L95.8475 88.0214ZM85.4166 104.374L85.8286 104.351L85.8286 104.35L85.4166 104.374ZM89.4812 112.306L89.7136 111.965L89.7103 111.963L89.4812 112.306ZM91.0483 113.128L90.9013 113.513L91.2925 112.795L91.0483 113.128ZM90.3138 112.563L90.5789 112.247L90.5448 112.218L90.5053 112.197L90.3138 112.563ZM89.6037 112.126L89.8401 111.788L89.835 111.785L89.6037 112.126ZM85.637 104.348L86.049 104.325L86.0489 104.324L85.637 104.348ZM95.8965 88.2268L96.0307 88.617L96.0327 88.6163L95.8965 88.2268ZM98.492 87.6877L98.5167 88.0997L98.5242 88.0991L98.492 87.6877ZM103.071 88.6632L102.869 89.023L102.92 89.0517L102.977 89.0651L103.071 88.6632ZM103.756 88.8172V89.2299L103.85 88.4153L103.756 88.8172ZM103.707 88.7915L103.476 89.1334L103.581 89.2042H103.707V88.7915ZM98.4673 87.0447C97.5642 87.0989 96.6202 87.3143 95.7114 87.6319L95.9837 88.411C96.8379 88.1125 97.7058 87.9171 98.5167 87.8686L98.4673 87.0447ZM95.7124 87.6315C92.5347 88.7332 89.7604 91.1648 87.8326 94.1851C85.9041 97.2063 84.8032 100.846 85.0046 104.397L85.8286 104.35C85.6383 100.996 86.6798 97.525 88.5283 94.6291C90.3774 91.7322 93.0145 89.4403 95.9827 88.4113L95.7124 87.6315ZM85.0046 104.397C85.2061 107.988 86.6978 110.945 89.2522 112.649L89.7103 111.963C87.4165 110.433 86.0189 107.742 85.8286 104.351L85.0046 104.397ZM89.2489 112.647C89.7645 112.999 90.3317 113.296 90.9013 113.513L91.1953 112.742C90.6876 112.548 90.1775 112.281 89.7136 111.965L89.2489 112.647ZM91.2925 112.795C91.0462 112.614 90.812 112.442 90.5789 112.247L90.0486 112.879C90.3053 113.094 90.5607 113.282 90.8042 113.46L91.2925 112.795ZM90.5053 112.197C90.2794 112.079 90.0496 111.935 89.8401 111.788L89.3673 112.465C89.5985 112.626 89.8584 112.79 90.1222 112.928L90.5053 112.197ZM89.835 111.785C87.6119 110.28 86.2391 107.664 86.049 104.325L85.225 104.372C85.4266 107.912 86.8942 110.79 89.3723 112.468L89.835 111.785ZM86.0489 104.324C85.8587 101.021 86.882 97.5951 88.7 94.7377C90.5187 91.8792 93.1127 89.6203 96.0307 88.617L95.7624 87.8366C92.6324 88.9127 89.9007 91.313 88.0037 94.2947C86.106 97.2774 85.0235 100.873 85.225 104.372L86.0489 104.324ZM96.0327 88.6163C96.8821 88.3195 97.7016 88.1484 98.5167 88.0996L98.4673 87.2758C97.5684 87.3296 96.6739 87.518 95.7604 87.8372L96.0327 88.6163ZM98.5242 88.0991C100.087 87.9768 101.572 88.2948 102.869 89.023L103.273 88.3034C101.827 87.4913 100.178 87.1419 98.4598 87.2763L98.5242 88.0991ZM102.977 89.0651C103.09 89.0914 103.209 89.1176 103.325 89.1432C103.442 89.1689 103.555 89.1941 103.663 89.2191L103.85 88.4153C103.737 88.389 103.618 88.3628 103.503 88.3372C103.386 88.3115 103.272 88.2863 103.164 88.2613L102.977 89.0651ZM103.756 88.4046C103.79 88.4046 103.827 88.4091 103.865 88.4202C103.902 88.4313 103.935 88.447 103.962 88.4639C103.988 88.4802 104.006 88.4963 104.017 88.5062C104.026 88.5149 104.034 88.5227 104.031 88.5196C104.031 88.5195 104.02 88.5085 104.007 88.4967C103.994 88.4838 103.971 88.465 103.942 88.4463C103.911 88.427 103.874 88.4092 103.832 88.3967C103.789 88.3842 103.747 88.3789 103.707 88.3789V89.2042C103.674 89.2042 103.637 89.1997 103.599 89.1886C103.562 89.1775 103.529 89.1617 103.502 89.1449C103.476 89.1286 103.458 89.1125 103.447 89.1026C103.438 89.0939 103.43 89.086 103.433 89.0892C103.433 89.0892 103.444 89.1003 103.456 89.112C103.47 89.1249 103.492 89.1438 103.522 89.1625C103.553 89.1818 103.59 89.1996 103.632 89.2121C103.675 89.2245 103.717 89.2299 103.756 89.2299V88.4046ZM103.939 88.4497C102.337 87.3663 100.456 86.9111 98.4643 87.0449L98.5197 87.8684C100.347 87.7455 102.042 88.1631 103.476 89.1334L103.939 88.4497Z" fill="#141414" mask="url(#path-61-inside-1_1094_3085)"/>
<path d="M102.924 101.319L98.1979 110.638L93.1048 104.297L98.0999 106.094L102.924 101.319ZM93.0804 103.219L97.7571 92.514L102.899 100.241L98.0755 105.016L93.0804 103.219ZM100.622 88.7661C94.2802 89.2282 87.4731 95.4662 87.5221 104.759C87.7914 112.152 92.2723 114.488 96.3615 114.18C102.703 113.718 109.51 107.455 109.437 98.1873C109.192 90.7684 104.711 88.458 100.622 88.7661Z" fill="white"/>
<path d="M96.3616 114.18C92.2725 114.488 87.7916 112.152 87.5222 104.759C87.4733 95.4661 94.2803 89.228 100.622 88.766C104.711 88.4579 109.192 90.794 109.462 98.1872C109.51 107.454 102.703 113.718 96.3616 114.18ZM100.598 88.5093C94.1579 88.9713 87.2284 95.3377 87.2774 104.785C87.4243 108.558 88.6241 111.048 90.3136 112.537C90.5585 112.743 90.8033 112.922 91.0482 113.102C92.6398 114.18 94.5252 114.54 96.3616 114.411C102.801 113.949 109.731 107.583 109.682 98.1359C109.486 92.4369 106.842 89.6901 103.732 88.7916C103.511 88.7146 103.291 88.6633 103.046 88.6376C102.263 88.4836 101.43 88.4579 100.598 88.5093Z" fill="#141414"/>
</g>
<ellipse cx="98.6174" cy="101.723" rx="8.25302" ry="10.5226" fill="white"/>
<path d="M102.204 105.759C102.204 105.759 102.633 104.413 102.582 102.359C102.542 100.702 101.65 100.554 100.954 100.686C100.66 100.742 100.349 100.905 100.039 101.091C99.4658 101.435 98.3942 102.071 96.7243 102.994C94.356 104.304 94.0634 102.434 94.0788 101.412L94.0788 98.2311L102.204 93.5399M102.204 105.759L94.5198 110.196L98.3621 101.868L102.204 93.5399M102.204 105.759L105.543 97.9027L102.204 93.5399" stroke="#141414" stroke-width="1.45464"/>
<rect width="2.18196" height="0.436393" transform="matrix(0.866025 -0.5 2.20305e-08 1 97.8576 101.199)" fill="white"/>
<rect width="7" height="7" transform="translate(209 36.6608)" fill="#86B2FF"/>
<rect width="7" height="7" transform="translate(150 112.661)" fill="#86B2FF"/>
<rect width="10" height="10" transform="translate(223 144.661)" fill="#86B2FF"/>
<rect width="10" height="10" transform="translate(242 71.6608)" fill="#0962FF"/>
<rect width="14" height="14" transform="translate(157 201.661)" fill="#0962FF"/>
<path d="M242.275 80.9515L221 92.6608" stroke="#0962FF" stroke-width="0.4" stroke-linecap="round" stroke-dasharray="4 1"/>
<rect width="10" height="10" transform="translate(93 136.661)" fill="#0962FF"/>
<defs>
<clipPath id="clip0_1094_3085">
<rect width="60" height="60" fill="white" transform="matrix(0.760712 -0.649089 0.181772 0.983341 95.7063 39.1403)"/>
</clipPath>
<clipPath id="clip1_1094_3085">
<rect width="51.3104" height="51.3104" fill="white" transform="matrix(-0.70186 0.712315 -0.265952 -0.963986 259.13 189.715)"/>
</clipPath>
</defs>
</svg>
