<svg width="138" height="161" viewBox="0 0 138 161" fill="none" xmlns="http://www.w3.org/2000/svg">
<rect x="0.4995" width="64.0219" height="64.0219" rx="6.6329" transform="matrix(0.866025 -0.5 0.866025 0.5 11.2556 117.742)" fill="#141414" stroke="#0962FF" stroke-width="0.576774"/>
<rect x="0.4995" width="64.0219" height="64.0219" rx="6.6329" transform="matrix(0.866025 -0.5 0.866025 0.5 11.2556 111.397)" fill="#86B2FF" stroke="#0962FF" stroke-width="0.576774"/>
<rect opacity="0.5" width="46.6402" height="46.6402" rx="23.3201" transform="matrix(0.866025 -0.5 0.866025 0.5 26.7414 108.881)" fill="white"/>
<path d="M14.9543 117.194V111.124C14.9543 111.797 15.5887 113.489 18.1265 114.873C20.6643 116.258 21.4911 116.796 21.5872 116.892V123.121L16.3962 120.064C16.1257 119.861 15.6364 119.402 15.2897 118.826C14.9978 118.341 14.9543 117.759 14.9543 117.194Z" fill="#0962FF" stroke="#0962FF" stroke-width="0.576774"/>
<path d="M119.177 111.124V117.757" stroke="#0962FF" stroke-width="0.576774"/>
<path d="M60.8078 139.675V145.731" stroke="#0962FF" stroke-width="0.576774"/>
<path d="M73.4967 139.386V145.731" stroke="#0962FF" stroke-width="0.576774"/>
<path d="M115.313 117.785V115.45C115.313 115.45 116.834 114.723 117.62 114.008C118.276 113.412 118.971 112.147 119.238 111.635C119.266 111.58 119.35 111.601 119.35 111.662V116.754C119.35 117.607 119.26 118.497 118.774 119.199C118.154 120.094 117.147 120.626 116.204 121.171L84.1672 139.674L113.131 121.706C114.488 120.864 115.313 119.381 115.313 117.785Z" fill="#0962FF" stroke="#0962FF" stroke-width="0.576774"/>
<path d="M25.913 125.659V119.603L30.5272 122.487V128.254L25.913 125.659Z" fill="#0962FF" stroke="#0962FF" stroke-width="0.576774"/>
<circle cx="68.8111" cy="68.9924" r="44.3792" stroke="#0962FF" stroke-width="0.752189"/>
<path d="M70.9942 31.9362C72.8976 31.6581 74.8411 31.5144 76.816 31.5144C87.5664 31.5144 97.1953 35.7716 104.688 42.7942" stroke="#0962FF" stroke-width="0.727728"/>
<path d="M70.1478 31.0663C71.1573 30.0035 72.2695 29.0324 73.4846 28.1644C74.8838 27.1649 76.3628 26.3425 77.9077 25.6899" stroke="#0962FF" stroke-width="0.727728"/>
<path d="M66.1246 30.9222C65.0757 29.8983 63.9275 28.97 62.6805 28.1486C61.2445 27.2027 59.7353 26.4369 58.1669 25.8432" stroke="#0962FF" stroke-width="0.727728"/>
<path d="M65.3909 32.6636C63.4875 32.3855 61.544 32.2418 59.5691 32.2418C51.3458 32.2418 42.8284 32.8604 35.3358 39.883" stroke="#0962FF" stroke-width="0.727728"/>
<path d="M24.5653 64.9898C29.8433 80.9998 50.4682 89.0048 68.0835 89.0048C86.7074 89.0048 111.053 79.9082 112.62 62.0789" stroke="#0962FF" stroke-width="0.727728"/>
<path d="M26.7456 82.8192C37.519 94.0989 52.5914 99.9208 68.8113 99.9208C84.9234 99.9208 100.104 93.7351 111.019 82.0914" stroke="#0962FF" stroke-width="0.727728"/>
<path d="M33.5165 96.0361C42.9119 103.887 55.2714 108.653 68.8113 108.653C82.2093 108.653 94.4514 103.986 103.81 96.282" stroke="#0962FF" stroke-width="0.727728"/>
<path d="M27.7696 52.4335C29.0532 66.3422 46.6116 77.3613 68.0832 77.3613C90.3894 77.3613 108.472 65.4691 108.472 50.7993C108.472 50.1085 108.432 49.4238 108.353 48.7463" stroke="#0962FF" stroke-width="0.752189"/>
<path d="M36.5422 38.4277C35.5222 40.3786 34.9719 42.4569 34.9719 44.6134C34.9719 55.867 49.9593 64.9898 68.4473 64.9898C86.9353 64.9898 101.923 55.867 101.923 44.6134C101.923 41.8467 101.017 39.2087 99.3757 36.8035" stroke="#0962FF" stroke-width="0.752189"/>
<path d="M81.1704 34.4252C81.1704 36.4551 79.8225 38.3537 77.5137 39.7646C75.2114 41.1716 72.0069 42.0541 68.4474 42.0541C64.8878 42.0541 61.6833 41.1716 59.381 39.7646C57.0723 38.3537 55.7244 36.4551 55.7244 34.4252C55.7244 32.3952 57.0723 30.4966 59.381 29.0857C61.6833 27.6787 64.8878 26.7963 68.4474 26.7963C72.0069 26.7963 75.2114 27.6787 77.5137 29.0857C79.8225 30.4966 81.1704 32.3952 81.1704 34.4252Z" stroke="#0962FF" stroke-width="0.752189"/>
<path d="M48.3183 30.2457C48.4748 30.1091 48.4908 29.8715 48.3542 29.7151C48.2176 29.5586 47.98 29.5426 47.8235 29.6792L48.3183 30.2457ZM92.8139 38.4277C92.8139 42.3642 90.1658 45.9914 85.7489 48.6545C81.3392 51.3133 75.223 52.97 68.4473 52.97V53.7222C75.3366 53.7222 81.5918 52.0393 86.1372 49.2987C90.6755 46.5624 93.5661 42.7304 93.5661 38.4277H92.8139ZM68.4473 52.97C61.6715 52.97 55.5554 51.3133 51.1457 48.6545C46.7288 45.9914 44.0807 42.3642 44.0807 38.4277H43.3285C43.3285 42.7304 46.2191 46.5624 50.7573 49.2987C55.3028 52.0393 61.558 53.7222 68.4473 53.7222V52.97ZM44.0807 38.4277C44.0807 35.4222 45.6212 32.6014 48.3183 30.2457L47.8235 29.6792C45.0133 32.1337 43.3285 35.146 43.3285 38.4277H44.0807ZM86.8546 28.9132C90.606 31.4959 92.8139 34.8318 92.8139 38.4277H93.5661C93.5661 34.4983 91.1535 30.9597 87.2811 28.2936L86.8546 28.9132Z" fill="#0962FF"/>
<path d="M70.9942 33.4321C81.6825 35.2421 91.1963 42.1735 98.1435 50.7991C105.458 59.8807 109.928 70.569 109.928 83.9107C109.928 84.6421 109.914 85.37 109.888 86.0939" stroke="#0962FF" stroke-width="0.752189"/>
<path d="M65.5365 32.9697C44.0395 38.7281 27.8715 58.1507 26.2392 81.7275" stroke="#0962FF" stroke-width="0.886727"/>
<path d="M66.4485 34.178C47.7475 47.3095 36.4275 83.1828 45.7975 107.09" stroke="#0962FF" stroke-width="0.886727"/>
<path d="M70.299 34.178C89.0001 47.3095 101.923 88.4585 89.4946 108.362" stroke="#0962FF" stroke-width="0.727728"/>
<path d="M68.8807 34.4253C77.1802 58.0764 81.1827 110.836 73.7364 113.171" stroke="#0962FF" stroke-width="0.727728"/>
<path d="M67.6478 34.4253C59.3484 58.0764 55.3458 110.836 62.7922 113.171" stroke="#0962FF" stroke-width="0.727728"/>
<path d="M70.9943 32.6061C70.9943 33.7321 69.7814 34.7893 68.0834 34.7893C66.3853 34.7893 65.1725 33.7321 65.1725 32.6061C65.1725 31.4802 66.3853 30.4229 68.0834 30.4229C69.7814 30.4229 70.9943 31.4802 70.9943 32.6061Z" stroke="#0962FF" stroke-width="0.727728"/>
<line x1="68.0834" y1="30.0591" x2="68.0834" y2="24.965" stroke="#0962FF" stroke-width="0.727728"/>
<path d="M87.3211 87.3837C94.371 87.3837 100.086 81.392 100.086 74.0009C100.086 66.6097 94.371 60.618 87.3211 60.618C80.2712 60.618 74.5562 66.6097 74.5562 74.0009C74.5562 81.392 80.2712 87.3837 87.3211 87.3837Z" fill="#0962FF" stroke="black" stroke-width="0.147909" stroke-miterlimit="10"/>
<path d="M88.6442 86.3629C95.6941 86.3629 101.409 80.3711 101.409 72.98C101.409 65.5889 95.6941 59.5972 88.6442 59.5972C81.5943 59.5972 75.8792 65.5889 75.8792 72.98C75.8792 80.3711 81.5943 86.3629 88.6442 86.3629Z" fill="white" stroke="#050505" stroke-width="0.170568" stroke-miterlimit="10"/>
<path d="M83.5017 76.1455H85.5895C85.5895 77.2729 87.0196 78.2333 88.7211 78.2333C90.4227 78.2333 91.8528 77.2729 91.8528 76.1455C91.8528 74.9972 90.7672 74.5797 88.4706 74.0264C86.2576 73.4731 83.5017 72.7842 83.5017 69.8821C83.5017 68.0136 85.0362 66.4269 87.1553 65.8945V63.6188H90.287V65.8945C92.4061 66.4269 93.9406 68.0136 93.9406 69.8821H91.8528C91.8528 68.7547 90.4227 67.7944 88.7211 67.7944C87.0196 67.7944 85.5895 68.7547 85.5895 69.8821C85.5895 71.0304 86.6751 71.448 88.9717 72.0013C91.1847 72.5545 93.9406 73.2435 93.9406 76.1455C93.9406 78.0141 92.4061 79.6008 90.287 80.1332V82.4089H87.1553V80.1332C85.0362 79.6008 83.5017 78.0141 83.5017 76.1455Z" fill="#141414"/>
<path d="M115.755 80.7886C116.434 79.0338 116.434 79.0338 116.781 77.299" stroke="#0962FF" stroke-width="2.23776" stroke-linecap="round"/>
<path d="M92.0137 27.9102C108.893 34.2867 120.209 53.8063 117.638 72.9007" stroke="#0962FF" stroke-width="2.23776" stroke-linecap="round"/>
<circle cx="89.5105" cy="27.0267" r="5.59441" fill="#86B2FF"/>
</svg>
