<svg width="385" height="579" viewBox="0 0 385 579" fill="none" xmlns="http://www.w3.org/2000/svg">
<rect x="0.5" y="102.682" width="12" height="35" rx="6" stroke="white"/>
<rect y="171.182" width="13" height="58" rx="6.5" fill="white"/>
<rect x="372.5" y="177.682" width="12" height="83" rx="6" stroke="white"/>
<rect y="245.182" width="13" height="58" rx="6.5" fill="white"/>
<rect x="4.5" y="0.681641" width="374" height="811" rx="39.5" fill="#141414"/>
<rect x="4.5" y="0.681641" width="374" height="811" rx="39.5" stroke="white"/>
<path opacity="0.35" d="M336.5 32.1813C336.5 30.9847 337.47 30.0146 338.667 30.0146H355.333C356.53 30.0146 357.5 30.9847 357.5 32.1813V38.1813C357.5 39.3779 356.53 40.348 355.333 40.348H338.667C337.47 40.348 336.5 39.3779 336.5 38.1813V32.1813Z" stroke="#F7F7F7"/>
<path opacity="0.4" d="M359 33.1812V37.1812C359.805 36.8424 360.328 36.0543 360.328 35.1812C360.328 34.308 359.805 33.5199 359 33.1812Z" fill="#F7F7F7"/>
<path d="M338 32.848C338 32.1116 338.597 31.5146 339.333 31.5146H354.667C355.403 31.5146 356 32.1116 356 32.848V37.5146C356 38.251 355.403 38.848 354.667 38.848H339.333C338.597 38.848 338 38.251 338 37.5146V32.848Z" fill="#F7F7F7"/>
<path fill-rule="evenodd" clip-rule="evenodd" d="M323.33 31.7895C325.546 31.7896 327.677 32.6411 329.283 34.1679C329.404 34.2857 329.598 34.2843 329.717 34.1645L330.873 32.9979C330.933 32.9371 330.967 32.8549 330.966 32.7693C330.966 32.6837 330.931 32.6019 330.87 32.5419C326.655 28.5023 320.005 28.5023 315.79 32.5419C315.729 32.6018 315.694 32.6837 315.694 32.7692C315.693 32.8548 315.727 32.9371 315.787 32.9979L316.943 34.1645C317.062 34.2844 317.256 34.2859 317.377 34.1679C318.983 32.641 321.114 31.7895 323.33 31.7895ZM323.33 35.5852C324.548 35.5851 325.722 36.0377 326.624 36.8549C326.746 36.9708 326.939 36.9683 327.058 36.8492L328.212 35.6825C328.273 35.6213 328.307 35.5383 328.306 35.4521C328.305 35.3658 328.27 35.2835 328.208 35.2235C325.459 32.6672 321.204 32.6672 318.455 35.2235C318.393 35.2835 318.358 35.3658 318.357 35.4521C318.356 35.5384 318.39 35.6214 318.451 35.6825L319.605 36.8492C319.724 36.9683 319.917 36.9708 320.039 36.8549C320.941 36.0382 322.114 35.5857 323.33 35.5852ZM325.643 38.139C325.645 38.2255 325.611 38.3089 325.549 38.3695L323.552 40.3852C323.493 40.4444 323.414 40.4778 323.33 40.4778C323.247 40.4778 323.167 40.4444 323.109 40.3852L321.111 38.3695C321.049 38.3089 321.015 38.2255 321.017 38.1389C321.019 38.0524 321.056 37.9705 321.121 37.9125C322.396 36.8337 324.264 36.8337 325.54 37.9125C325.604 37.9706 325.642 38.0525 325.643 38.139Z" fill="#F7F7F7"/>
<path fill-rule="evenodd" clip-rule="evenodd" d="M309.667 29.8481H308.667C308.114 29.8481 307.667 30.2959 307.667 30.8481V39.5148C307.667 40.0671 308.114 40.5148 308.667 40.5148H309.667C310.219 40.5148 310.667 40.0671 310.667 39.5148V30.8481C310.667 30.2959 310.219 29.8481 309.667 29.8481ZM304 32.1815H305C305.552 32.1815 306 32.6292 306 33.1815V39.5148C306 40.0671 305.552 40.5148 305 40.5148H304C303.448 40.5148 303 40.0671 303 39.5148V33.1815C303 32.6292 303.448 32.1815 304 32.1815ZM300.333 34.5148H299.333C298.781 34.5148 298.333 34.9625 298.333 35.5148V39.5148C298.333 40.0671 298.781 40.5148 299.333 40.5148H300.333C300.886 40.5148 301.333 40.0671 301.333 39.5148V35.5148C301.333 34.9625 300.886 34.5148 300.333 34.5148ZM295.667 36.5148H294.667C294.114 36.5148 293.667 36.9625 293.667 37.5148V39.5148C293.667 40.0671 294.114 40.5148 294.667 40.5148H295.667C296.219 40.5148 296.667 40.0671 296.667 39.5148V37.5148C296.667 36.9625 296.219 36.5148 295.667 36.5148Z" fill="#F7F7F7"/>
<path d="M37.3207 40.438C40.0087 40.438 41.6054 38.3359 41.6054 34.7764C41.6054 33.436 41.349 32.3081 40.8583 31.4365C40.1479 30.0815 38.9247 29.3491 37.3793 29.3491C35.0795 29.3491 33.4535 30.8945 33.4535 33.0625C33.4535 35.0986 34.9184 36.5781 36.9325 36.5781C38.1703 36.5781 39.1737 35.9995 39.6718 34.9961H39.6938C39.6938 34.9961 39.7231 34.9961 39.7304 34.9961C39.745 34.9961 39.7963 34.9961 39.7963 34.9961C39.7963 37.4131 38.8808 38.856 37.3354 38.856C36.4272 38.856 35.724 38.3579 35.4823 37.5596H33.6C33.9149 39.2954 35.3871 40.438 37.3207 40.438ZM37.3866 35.0767C36.1708 35.0767 35.3065 34.2124 35.3065 33.0039C35.3065 31.8247 36.2148 30.9238 37.394 30.9238C38.5732 30.9238 39.4814 31.8394 39.4814 33.0332C39.4814 34.2124 38.5951 35.0767 37.3866 35.0767Z" fill="#F7F7F7"/>
<path d="M44.6965 40.3354C45.3923 40.3354 45.8684 39.8374 45.8684 39.1782C45.8684 38.5117 45.3923 38.021 44.6965 38.021C44.008 38.021 43.5246 38.5117 43.5246 39.1782C43.5246 39.8374 44.008 40.3354 44.6965 40.3354ZM44.6965 34.8423C45.3923 34.8423 45.8684 34.3516 45.8684 33.6924C45.8684 33.0259 45.3923 32.5352 44.6965 32.5352C44.008 32.5352 43.5246 33.0259 43.5246 33.6924C43.5246 34.3516 44.008 34.8423 44.6965 34.8423Z" fill="#F7F7F7"/>
<path d="M52.7241 40.1816H54.5332V38.2114H55.9614V36.6147H54.5332V29.6128H51.8672C49.9995 32.4253 48.5127 34.7764 47.5606 36.5269V38.2114H52.7241V40.1816ZM49.311 36.5488C50.5415 34.3809 51.6401 32.645 52.6509 31.1509H52.7534V36.6587H49.311V36.5488Z" fill="#F7F7F7"/>
<path d="M59.99 40.1816H61.8797V29.6128H59.9974L57.2361 31.5464V33.3628L59.8655 31.5171H59.99V40.1816Z" fill="#F7F7F7"/>
<rect x="216.5" y="27.6816" width="11" height="11" rx="5.5" stroke="#9BA3B9"/>
<rect x="143.5" y="18.6816" width="98" height="28" rx="14" stroke="#9BA3B9"/>
<path d="M42 102.182L37.657 97.8388M37.657 97.8388C38.3999 97.096 38.9892 96.214 39.3912 95.2434C39.7933 94.2728 40.0002 93.2324 40.0002 92.1818C40.0002 91.1312 39.7933 90.0909 39.3912 89.1203C38.9892 88.1497 38.3999 87.2677 37.657 86.5248C36.9141 85.782 36.0322 85.1927 35.0615 84.7906C34.0909 84.3886 33.0506 84.1816 32 84.1816C30.9494 84.1816 29.9091 84.3886 28.9384 84.7906C27.9678 85.1927 27.0859 85.782 26.343 86.5248C24.8427 88.0252 23.9998 90.0601 23.9998 92.1818C23.9998 94.3036 24.8427 96.3385 26.343 97.8388C27.8433 99.3392 29.8782 100.182 32 100.182C34.1218 100.182 36.1567 99.3392 37.657 97.8388Z" stroke="white" stroke-width="2" stroke-linecap="round" stroke-linejoin="round"/>
<path d="M169.658 83.7393C169.658 84.7295 169.535 85.6318 169.289 86.4463C169.043 87.2549 168.668 87.9521 168.164 88.5381C167.666 89.124 167.033 89.5752 166.266 89.8916C165.498 90.2021 164.59 90.3574 163.541 90.3574C162.492 90.3574 161.584 90.2021 160.817 89.8916C160.049 89.5752 159.413 89.124 158.909 88.5381C158.411 87.9521 158.039 87.252 157.793 86.4375C157.547 85.623 157.424 84.7178 157.424 83.7217C157.424 82.3916 157.641 81.2344 158.074 80.25C158.514 79.2598 159.188 78.4922 160.096 77.9473C161.004 77.4023 162.158 77.1299 163.559 77.1299C164.953 77.1299 166.099 77.4023 166.995 77.9473C167.898 78.4922 168.566 79.2598 168.999 80.25C169.439 81.2402 169.658 82.4033 169.658 83.7393ZM160.28 83.7393C160.28 84.6357 160.392 85.4092 160.614 86.0596C160.843 86.7041 161.197 87.2021 161.678 87.5537C162.158 87.8994 162.779 88.0723 163.541 88.0723C164.315 88.0723 164.942 87.8994 165.422 87.5537C165.903 87.2021 166.251 86.7041 166.468 86.0596C166.691 85.4092 166.802 84.6357 166.802 83.7393C166.802 82.3916 166.55 81.3311 166.046 80.5576C165.542 79.7842 164.713 79.3975 163.559 79.3975C162.791 79.3975 162.164 79.5732 161.678 79.9248C161.197 80.2705 160.843 80.7686 160.614 81.4189C160.392 82.0635 160.28 82.8369 160.28 83.7393ZM180.888 80.3555V90.1816H178.831L178.471 88.9248H178.33C178.12 89.2588 177.856 89.5312 177.539 89.7422C177.223 89.9531 176.874 90.1084 176.494 90.208C176.113 90.3076 175.717 90.3574 175.307 90.3574C174.604 90.3574 173.992 90.2344 173.47 89.9883C172.949 89.7363 172.541 89.3467 172.248 88.8193C171.961 88.292 171.818 87.6064 171.818 86.7627V80.3555H174.498V86.0947C174.498 86.7979 174.624 87.3281 174.876 87.6855C175.128 88.043 175.53 88.2217 176.08 88.2217C176.625 88.2217 177.053 88.0986 177.364 87.8525C177.674 87.6006 177.891 87.2344 178.014 86.7539C178.143 86.2676 178.207 85.6758 178.207 84.9785V80.3555H180.888ZM188.945 80.1709C189.08 80.1709 189.235 80.1797 189.411 80.1973C189.592 80.209 189.739 80.2266 189.85 80.25L189.648 82.7637C189.56 82.7344 189.434 82.7139 189.27 82.7021C189.112 82.6846 188.974 82.6758 188.857 82.6758C188.511 82.6758 188.174 82.7197 187.846 82.8076C187.524 82.8955 187.234 83.0391 186.976 83.2383C186.718 83.4316 186.513 83.6895 186.361 84.0117C186.214 84.3281 186.141 84.7178 186.141 85.1807V90.1816H183.461V80.3555H185.491L185.886 82.0078H186.018C186.212 81.6738 186.452 81.3691 186.739 81.0938C187.032 80.8125 187.363 80.5898 187.732 80.4258C188.107 80.2559 188.511 80.1709 188.945 80.1709ZM196.041 77.332H200.04C201.751 77.332 203.046 77.5723 203.925 78.0527C204.804 78.5332 205.243 79.377 205.243 80.584C205.243 81.0703 205.164 81.5098 205.006 81.9023C204.854 82.2949 204.631 82.6172 204.338 82.8691C204.045 83.1211 203.688 83.2852 203.266 83.3613V83.4492C203.693 83.5371 204.08 83.6895 204.426 83.9062C204.772 84.1172 205.047 84.4277 205.252 84.8379C205.463 85.2422 205.568 85.7812 205.568 86.4551C205.568 87.2344 205.378 87.9023 204.997 88.459C204.616 89.0156 204.071 89.4434 203.362 89.7422C202.659 90.0352 201.821 90.1816 200.849 90.1816H196.041V77.332ZM198.766 82.4209H200.348C201.139 82.4209 201.687 82.2979 201.991 82.0518C202.296 81.7998 202.448 81.4307 202.448 80.9443C202.448 80.4521 202.267 80.1006 201.903 79.8896C201.546 79.6729 200.978 79.5645 200.198 79.5645H198.766V82.4209ZM198.766 84.583V87.9316H200.541C201.361 87.9316 201.933 87.7734 202.255 87.457C202.577 87.1406 202.738 86.7158 202.738 86.1826C202.738 85.8662 202.668 85.5879 202.527 85.3477C202.387 85.1074 202.15 84.9199 201.816 84.7852C201.487 84.6504 201.033 84.583 200.453 84.583H198.766ZM210.365 90.1816H207.684V76.5059H210.365V90.1816ZM221.876 85.251C221.876 86.0713 221.764 86.7979 221.542 87.4307C221.325 88.0635 221.005 88.5996 220.584 89.0391C220.168 89.4727 219.664 89.8008 219.072 90.0234C218.486 90.2461 217.824 90.3574 217.086 90.3574C216.394 90.3574 215.758 90.2461 215.178 90.0234C214.604 89.8008 214.103 89.4727 213.675 89.0391C213.254 88.5996 212.925 88.0635 212.691 87.4307C212.463 86.7979 212.348 86.0713 212.348 85.251C212.348 84.1611 212.542 83.2383 212.928 82.4824C213.315 81.7266 213.866 81.1523 214.581 80.7598C215.296 80.3672 216.148 80.1709 217.138 80.1709C218.058 80.1709 218.873 80.3672 219.582 80.7598C220.296 81.1523 220.856 81.7266 221.26 82.4824C221.671 83.2383 221.876 84.1611 221.876 85.251ZM215.082 85.251C215.082 85.8955 215.152 86.4375 215.293 86.877C215.433 87.3164 215.653 87.6475 215.952 87.8701C216.251 88.0928 216.64 88.2041 217.121 88.2041C217.595 88.2041 217.979 88.0928 218.272 87.8701C218.571 87.6475 218.788 87.3164 218.922 86.877C219.063 86.4375 219.133 85.8955 219.133 85.251C219.133 84.6006 219.063 84.0615 218.922 83.6338C218.788 83.2002 218.571 82.875 218.272 82.6582C217.973 82.4414 217.584 82.333 217.103 82.333C216.394 82.333 215.879 82.5762 215.556 83.0625C215.24 83.5488 215.082 84.2783 215.082 85.251ZM226.724 94.5059C225.353 94.5059 224.305 94.2656 223.578 93.7852C222.857 93.3105 222.497 92.6426 222.497 91.7812C222.497 91.1895 222.681 90.6943 223.051 90.2959C223.42 89.8975 223.962 89.6133 224.677 89.4434C224.401 89.3262 224.161 89.1357 223.956 88.8721C223.751 88.6025 223.648 88.3184 223.648 88.0195C223.648 87.6445 223.757 87.334 223.973 87.0879C224.19 86.8359 224.504 86.5898 224.914 86.3496C224.398 86.127 223.988 85.7695 223.683 85.2773C223.385 84.7852 223.235 84.2051 223.235 83.5371C223.235 82.8223 223.39 82.2158 223.701 81.7178C224.017 81.2139 224.474 80.8301 225.072 80.5664C225.676 80.3027 226.408 80.1709 227.269 80.1709C227.451 80.1709 227.662 80.1826 227.902 80.2061C228.142 80.2295 228.362 80.2559 228.561 80.2852C228.766 80.3145 228.904 80.3379 228.974 80.3555H232.402V81.7178L230.864 82.1133C231.005 82.3301 231.11 82.5615 231.181 82.8076C231.251 83.0537 231.286 83.3145 231.286 83.5898C231.286 84.6445 230.917 85.4678 230.179 86.0596C229.446 86.6455 228.427 86.9385 227.12 86.9385C226.809 86.9209 226.516 86.8975 226.241 86.8682C226.106 86.9736 226.004 87.085 225.933 87.2021C225.863 87.3193 225.828 87.4424 225.828 87.5713C225.828 87.7002 225.881 87.8086 225.986 87.8965C226.098 87.9785 226.262 88.043 226.478 88.0898C226.701 88.1309 226.976 88.1514 227.305 88.1514H228.974C230.053 88.1514 230.873 88.3828 231.435 88.8457C232.004 89.3086 232.288 89.9883 232.288 90.8848C232.288 92.0332 231.807 92.9238 230.847 93.5566C229.891 94.1895 228.517 94.5059 226.724 94.5059ZM226.839 92.7568C227.477 92.7568 228.025 92.6953 228.482 92.5723C228.945 92.4551 229.3 92.2852 229.546 92.0625C229.792 91.8457 229.915 91.585 229.915 91.2803C229.915 91.0342 229.842 90.8379 229.695 90.6914C229.555 90.5508 229.338 90.4512 229.045 90.3926C228.758 90.334 228.389 90.3047 227.937 90.3047H226.549C226.221 90.3047 225.925 90.3574 225.661 90.4629C225.403 90.5684 225.198 90.7148 225.046 90.9023C224.893 91.0957 224.817 91.3184 224.817 91.5703C224.817 91.9395 224.993 92.2295 225.345 92.4404C225.702 92.6514 226.2 92.7568 226.839 92.7568ZM227.269 85.3037C227.773 85.3037 228.142 85.1484 228.377 84.8379C228.611 84.5273 228.728 84.1055 228.728 83.5723C228.728 82.9805 228.605 82.5381 228.359 82.2451C228.119 81.9463 227.756 81.7969 227.269 81.7969C226.777 81.7969 226.408 81.9463 226.162 82.2451C225.916 82.5381 225.793 82.9805 225.793 83.5723C225.793 84.1055 225.913 84.5273 226.153 84.8379C226.399 85.1484 226.771 85.3037 227.269 85.3037Z" fill="#F7F7F7"/>
<rect x="155" y="103.682" width="6" height="6" rx="3" fill="url(#paint0_linear_1094_3770)"/>
<path d="M170.806 111.182L167.45 102.336H167.395C167.413 102.523 167.429 102.751 167.443 103.02C167.456 103.288 167.468 103.582 167.477 103.901C167.486 104.216 167.491 104.537 167.491 104.865V111.182H166.411V101.188H168.133L171.298 109.5H171.346L174.559 101.188H176.268V111.182H175.12V104.783C175.12 104.487 175.124 104.191 175.133 103.895C175.142 103.594 175.154 103.311 175.167 103.047C175.181 102.778 175.195 102.546 175.208 102.35H175.154L171.756 111.182H170.806ZM181.476 103.553C182.114 103.553 182.661 103.694 183.117 103.977C183.573 104.259 183.921 104.656 184.163 105.166C184.404 105.672 184.525 106.264 184.525 106.943V107.647H179.35C179.364 108.527 179.583 109.197 180.006 109.657C180.43 110.118 181.027 110.348 181.798 110.348C182.271 110.348 182.691 110.304 183.055 110.218C183.42 110.131 183.798 110.004 184.19 109.835V110.833C183.812 111.002 183.436 111.125 183.062 111.202C182.693 111.28 182.256 111.318 181.75 111.318C181.03 111.318 180.401 111.173 179.863 110.881C179.33 110.585 178.915 110.152 178.619 109.582C178.323 109.012 178.174 108.315 178.174 107.49C178.174 106.684 178.309 105.986 178.578 105.398C178.851 104.806 179.234 104.35 179.726 104.031C180.223 103.712 180.806 103.553 181.476 103.553ZM181.463 104.482C180.856 104.482 180.373 104.681 180.013 105.077C179.653 105.474 179.439 106.027 179.371 106.738H183.336C183.331 106.292 183.26 105.9 183.124 105.562C182.992 105.221 182.789 104.956 182.515 104.77C182.242 104.578 181.891 104.482 181.463 104.482ZM188.879 111.318C187.931 111.318 187.179 110.995 186.623 110.348C186.071 109.701 185.796 108.739 185.796 107.463C185.796 106.173 186.078 105.2 186.643 104.544C187.209 103.883 187.96 103.553 188.899 103.553C189.296 103.553 189.642 103.605 189.938 103.71C190.235 103.815 190.49 103.956 190.704 104.134C190.918 104.307 191.098 104.505 191.244 104.729H191.326C191.308 104.587 191.29 104.394 191.271 104.147C191.253 103.901 191.244 103.701 191.244 103.546V100.545H192.379V111.182H191.463L191.292 110.115H191.244C191.103 110.339 190.923 110.541 190.704 110.724C190.49 110.906 190.232 111.052 189.932 111.161C189.635 111.266 189.284 111.318 188.879 111.318ZM189.057 110.375C189.859 110.375 190.426 110.147 190.759 109.691C191.091 109.236 191.258 108.559 191.258 107.661V107.456C191.258 106.504 191.098 105.772 190.779 105.262C190.465 104.751 189.891 104.496 189.057 104.496C188.359 104.496 187.837 104.765 187.491 105.303C187.145 105.836 186.972 106.565 186.972 107.49C186.972 108.411 187.142 109.122 187.484 109.623C187.831 110.124 188.355 110.375 189.057 110.375ZM195.68 103.689V111.182H194.545V103.689H195.68ZM195.126 100.887C195.313 100.887 195.472 100.948 195.605 101.071C195.741 101.19 195.81 101.377 195.81 101.632C195.81 101.882 195.741 102.069 195.605 102.192C195.472 102.315 195.313 102.377 195.126 102.377C194.93 102.377 194.766 102.315 194.634 102.192C194.506 102.069 194.443 101.882 194.443 101.632C194.443 101.377 194.506 101.19 194.634 101.071C194.766 100.948 194.93 100.887 195.126 100.887ZM204.033 103.689V111.182H203.103L202.939 110.129H202.877C202.722 110.389 202.522 110.607 202.276 110.785C202.03 110.963 201.752 111.095 201.442 111.182C201.136 111.273 200.811 111.318 200.464 111.318C199.872 111.318 199.375 111.223 198.974 111.031C198.573 110.84 198.27 110.544 198.065 110.143C197.864 109.742 197.764 109.227 197.764 108.598V103.689H198.912V108.516C198.912 109.14 199.054 109.607 199.336 109.917C199.619 110.222 200.05 110.375 200.628 110.375C201.184 110.375 201.626 110.27 201.954 110.061C202.287 109.851 202.526 109.543 202.672 109.138C202.818 108.728 202.891 108.226 202.891 107.634V103.689H204.033ZM214.327 103.553C215.152 103.553 215.774 103.769 216.193 104.202C216.612 104.631 216.822 105.321 216.822 106.273V111.182H215.701V106.328C215.701 105.722 215.569 105.269 215.304 104.968C215.045 104.662 214.657 104.51 214.142 104.51C213.418 104.51 212.891 104.719 212.563 105.139C212.235 105.558 212.071 106.175 212.071 106.991V111.182H210.943V106.328C210.943 105.923 210.884 105.585 210.765 105.316C210.651 105.048 210.478 104.847 210.246 104.715C210.018 104.578 209.728 104.51 209.378 104.51C208.881 104.51 208.482 104.612 208.181 104.817C207.88 105.022 207.662 105.328 207.525 105.733C207.393 106.134 207.327 106.629 207.327 107.217V111.182H206.192V103.689H207.108L207.279 104.749H207.34C207.491 104.489 207.68 104.271 207.908 104.093C208.136 103.915 208.391 103.781 208.673 103.689C208.956 103.598 209.257 103.553 209.576 103.553C210.145 103.553 210.622 103.66 211.004 103.874C211.392 104.084 211.672 104.405 211.845 104.838H211.907C212.153 104.405 212.49 104.084 212.919 103.874C213.347 103.66 213.816 103.553 214.327 103.553Z" fill="#5F6F8D"/>
<path d="M231.034 105.432C231.391 105.432 231.569 105.862 231.317 106.114L228.283 109.149C228.127 109.305 227.873 109.305 227.717 109.149L224.683 106.114C224.431 105.862 224.609 105.432 224.966 105.432H231.034Z" fill="#5F6F8D"/>
<path fill-rule="evenodd" clip-rule="evenodd" d="M345 87.1814C345 86.8632 345.126 86.558 345.351 86.3329C345.576 86.1079 345.882 85.9814 346.2 85.9814H362.6C362.918 85.9814 363.223 86.1079 363.448 86.3329C363.673 86.558 363.8 86.8632 363.8 87.1814C363.8 87.4997 363.673 87.8049 363.448 88.03C363.223 88.255 362.918 88.3814 362.6 88.3814H346.2C345.882 88.3814 345.576 88.255 345.351 88.03C345.126 87.8049 345 87.4997 345 87.1814ZM345 93.1814C345 92.8632 345.126 92.558 345.351 92.3329C345.576 92.1079 345.882 91.9814 346.2 91.9814H362.6C362.918 91.9814 363.223 92.1079 363.448 92.3329C363.673 92.558 363.8 92.8632 363.8 93.1814C363.8 93.4997 363.673 93.8049 363.448 94.03C363.223 94.255 362.918 94.3814 362.6 94.3814H346.2C345.882 94.3814 345.576 94.255 345.351 94.03C345.126 93.8049 345 93.4997 345 93.1814ZM351 99.1814C351 98.8632 351.126 98.558 351.351 98.3329C351.576 98.1079 351.882 97.9814 352.2 97.9814H362.6C362.918 97.9814 363.223 98.1079 363.448 98.3329C363.673 98.558 363.8 98.8632 363.8 99.1814C363.8 99.4997 363.673 99.8049 363.448 100.03C363.223 100.255 362.918 100.381 362.6 100.381H352.2C351.882 100.381 351.576 100.255 351.351 100.03C351.126 99.8049 351 99.4997 351 99.1814Z" fill="white"/>
<defs>
<linearGradient id="paint0_linear_1094_3770" x1="155.779" y1="109.158" x2="161" y2="104.03" gradientUnits="userSpaceOnUse">
<stop stop-color="#2854FD"/>
<stop offset="0.723958" stop-color="#3682FF"/>
<stop offset="1" stop-color="#5F9CFF"/>
</linearGradient>
</defs>
</svg>
