<svg width="752" height="357" viewBox="0 0 752 357" fill="none" xmlns="http://www.w3.org/2000/svg">
<line x1="307.463" y1="127.169" x2="370.112" y2="90.6231" stroke="white" stroke-width="0.348051"/>
<rect x="1.20078" width="153.906" height="153.906" rx="15.9453" transform="matrix(0.866025 -0.5 0.866025 0.5 129.161 176.43)" fill="#141414" stroke="#0962FF" stroke-width="1.38654"/>
<rect x="1.20078" width="153.906" height="153.906" rx="15.9453" transform="matrix(0.866025 -0.5 0.866025 0.5 129.161 161.178)" fill="white" stroke="#0962FF" stroke-width="1.38654"/>
<path d="M138.052 175.112V160.522C138.052 162.139 139.578 166.207 145.678 169.534C151.779 172.862 153.767 174.156 153.998 174.387V189.362L141.519 182.013C140.869 181.526 139.692 180.42 138.859 179.035C138.157 177.87 138.052 176.473 138.052 175.112Z" fill="#0962FF" stroke="#0962FF" stroke-width="1.38655"/>
<path d="M388.601 160.522V176.467" stroke="#0962FF" stroke-width="1.38655"/>
<path d="M248.282 229.156V243.714" stroke="#0962FF" stroke-width="1.38655"/>
<path d="M278.786 228.462V243.714" stroke="#0962FF" stroke-width="1.38655"/>
<path d="M379.311 176.534V170.921C379.311 170.921 382.966 169.172 384.857 167.454C386.434 166.022 388.105 162.98 388.745 161.749C388.813 161.618 389.016 161.668 389.016 161.815V174.054C389.016 176.107 388.798 178.246 387.63 179.933C386.14 182.086 383.719 183.364 381.451 184.673L304.437 229.156L374.066 185.96C377.327 183.937 379.311 180.372 379.311 176.534Z" fill="#0962FF" stroke="#0962FF" stroke-width="1.38655"/>
<path d="M164.396 195.463V180.904L175.489 187.837V201.702L164.396 195.463Z" fill="#0962FF" stroke="#0962FF" stroke-width="1.38655"/>
<path d="M254.286 39.4257H253.082V44.7613H254.286V39.4257Z" fill="#0962FF"/>
<path d="M262.487 7.62818C261.626 7.19393 260.643 6.99284 259.658 7.04903C258.673 7.10523 257.727 7.41633 256.933 7.94499L151.818 62.5857C147.32 64.9201 143.654 71.2228 143.654 76.6419V109.823C143.654 112.925 144.858 115.075 146.727 115.892L268.818 179.37L366.435 91.6318L384.948 71.4729L262.487 7.62818Z" fill="#0962FF"/>
<path d="M262.764 20.7008C261.913 20.2838 260.949 20.0922 259.982 20.1482C259.016 20.2043 258.087 20.5057 257.302 21.0176L161.314 70.9063L275.723 130.499L303.492 161.513L366.564 104.821L385.077 84.5789L262.764 20.7008Z" fill="white"/>
<path d="M269.021 180.138L268.54 179.887L146.468 116.493C144.283 115.542 143.024 113.158 143.024 109.823V76.642C143.024 71.0228 146.838 64.4533 151.559 62.0022L256.655 7.36148C257.556 6.7976 258.613 6.47083 259.708 6.41782C260.804 6.36481 261.894 6.58765 262.857 7.06135L386.003 71.2062L366.935 92.0487L269.021 180.138ZM260.246 7.7283C259.231 7.76357 258.243 8.03345 257.377 8.51198L152.281 63.136C147.986 65.3703 144.487 71.473 144.487 76.6253V109.823C144.487 112.558 145.449 114.559 147.153 115.292L268.781 178.537L365.861 91.215L383.781 71.6231L262.098 8.26187C261.552 7.92407 260.908 7.73849 260.246 7.7283Z" fill="#141414"/>
<path d="M380.005 124.73L274.908 179.371C270.391 181.705 266.744 179.221 266.744 173.801V140.67C266.744 135.251 270.447 128.998 274.908 126.614L380.005 71.9733C384.522 69.6223 388.187 72.1067 388.187 77.5258V110.657C388.187 116.076 384.522 122.379 380.005 124.73Z" fill="#141414"/>
<path d="M271.65 180.905C270.788 180.905 269.939 180.704 269.188 180.321C267.17 179.27 266.004 176.886 266.004 173.801V140.67C266.004 135.051 269.836 128.481 274.538 126.03L379.653 71.473C380.535 70.9269 381.564 70.6034 382.631 70.5359C383.699 70.4685 384.767 70.6597 385.725 71.0895C387.743 72.14 388.91 74.5243 388.91 77.609V110.657C388.91 116.276 385.078 122.846 380.375 125.297L275.279 179.937C274.185 180.542 272.933 180.876 271.65 180.905ZM383.263 71.7398C382.239 71.7734 381.243 72.0495 380.375 72.5401L275.279 127.181C270.966 129.415 267.467 135.518 267.467 140.67V173.801C267.467 176.403 268.355 178.37 269.929 179.187C270.665 179.5 271.481 179.63 272.292 179.562C273.102 179.495 273.878 179.233 274.538 178.804L379.653 124.163C383.948 121.912 387.447 115.826 387.447 110.657V77.5257C387.447 74.9245 386.559 72.957 384.985 72.14C384.46 71.8716 383.866 71.7336 383.263 71.7398Z" fill="#141414"/>
<path d="M274.316 174.635C273.875 174.637 273.441 174.533 273.058 174.335C272.503 173.971 272.064 173.482 271.785 172.918C271.505 172.353 271.395 171.732 271.466 171.117V137.869C271.479 136.489 271.859 135.131 272.574 133.91C273.289 132.689 274.318 131.639 275.575 130.849L378.802 77.1759C379.246 76.901 379.764 76.7389 380.301 76.7067C380.839 76.6744 381.376 76.7731 381.856 76.9924C382.411 77.3566 382.85 77.8454 383.129 78.4101C383.409 78.9748 383.519 79.5956 383.449 80.2105V113.475C383.434 114.851 383.055 116.205 382.344 117.423C381.632 118.641 380.608 119.688 379.357 120.478L276.112 174.152C275.57 174.449 274.951 174.616 274.316 174.635ZM380.598 77.6761C380.158 77.6981 379.732 77.8185 379.357 78.0262L276.112 131.7C275.025 132.406 274.138 133.332 273.521 134.404C272.903 135.475 272.573 136.662 272.558 137.869V171.117C272.498 171.56 272.564 172.009 272.748 172.423C272.933 172.837 273.23 173.202 273.613 173.485C273.931 173.607 274.277 173.654 274.62 173.622C274.964 173.589 275.292 173.479 275.575 173.302L378.802 119.628C379.886 118.923 380.772 118 381.389 116.931C382.007 115.863 382.338 114.679 382.356 113.475V80.2105C382.416 79.7678 382.35 79.3187 382.166 78.9048C381.981 78.491 381.684 78.1257 381.301 77.8428C381.087 77.7319 380.844 77.6744 380.598 77.6761Z" fill="#0962FF"/>
<path d="M274.316 174.635C273.875 174.636 273.441 174.533 273.058 174.335C272.503 173.971 272.064 173.482 271.785 172.917C271.505 172.353 271.395 171.732 271.466 171.117V170.3L271.743 170.15L373.563 117.243C374.647 116.535 375.533 115.608 376.15 114.537C376.768 113.466 377.099 112.28 377.117 111.074V78.1427L378.839 77.2423C379.283 76.9674 379.801 76.8053 380.338 76.7731C380.876 76.7408 381.413 76.8395 381.893 77.0589C382.448 77.423 382.887 77.9118 383.166 78.4765C383.446 79.0412 383.556 79.662 383.486 80.2769V113.542C383.471 114.918 383.092 116.271 382.381 117.489C381.669 118.707 380.645 119.754 379.394 120.545L276.149 174.218C275.589 174.498 274.957 174.641 274.316 174.635ZM272.558 170.867V171.117C272.498 171.56 272.564 172.009 272.748 172.423C272.933 172.836 273.23 173.202 273.613 173.485C273.931 173.606 274.277 173.653 274.62 173.621C274.964 173.589 275.292 173.479 275.575 173.301L378.802 119.628C379.886 118.923 380.772 117.999 381.389 116.931C382.007 115.863 382.338 114.679 382.356 113.475V80.2103C382.416 79.7675 382.35 79.3184 382.166 78.9045C381.981 78.4907 381.684 78.1254 381.301 77.8425C380.999 77.7355 380.673 77.6963 380.35 77.7282C380.028 77.7602 379.719 77.8624 379.45 78.0259L378.265 78.6429V111.074C378.249 112.452 377.87 113.807 377.158 115.028C376.447 116.248 375.424 117.299 374.174 118.094L272.558 170.867Z" fill="#0962FF"/>
<path d="M282.202 139.837C281.993 139.836 281.788 139.784 281.61 139.687C281.378 139.547 281.193 139.355 281.072 139.129C280.952 138.903 280.901 138.652 280.925 138.403V138.169C280.932 137.683 281.069 137.205 281.324 136.775C281.578 136.346 281.943 135.978 282.387 135.701L316.451 117.927C316.653 117.822 316.883 117.766 317.117 117.766C317.351 117.766 317.581 117.822 317.783 117.927C318.011 118.07 318.193 118.263 318.313 118.488C318.433 118.713 318.486 118.962 318.468 119.211V119.578C318.456 120.063 318.318 120.54 318.064 120.969C317.81 121.397 317.447 121.766 317.006 122.045L282.943 139.753C282.708 139.84 282.453 139.869 282.202 139.837ZM317.191 118.661H317.006L282.943 136.502C282.659 136.698 282.429 136.95 282.272 137.239C282.114 137.529 282.033 137.847 282.036 138.169V138.519C282.036 138.786 282.036 138.92 282.165 138.953C282.295 138.986 282.276 138.953 282.387 138.953L316.451 121.128C316.736 120.933 316.966 120.681 317.124 120.392C317.281 120.102 317.361 119.783 317.358 119.461V119.094C317.378 118.94 317.332 118.785 317.228 118.661H317.191Z" fill="#0962FF"/>
<path d="M282.203 146.089C281.995 146.095 281.79 146.049 281.61 145.956C281.383 145.813 281.201 145.62 281.081 145.395C280.961 145.17 280.907 144.921 280.925 144.672V144.305C280.937 143.819 281.076 143.343 281.33 142.914C281.584 142.486 281.946 142.117 282.388 141.838L316.451 124.13C316.654 124.024 316.883 123.969 317.117 123.969C317.351 123.969 317.581 124.024 317.784 124.13C318.015 124.269 318.201 124.462 318.321 124.687C318.442 124.913 318.493 125.164 318.469 125.414V125.764C318.461 126.25 318.324 126.728 318.07 127.157C317.816 127.587 317.451 127.955 317.006 128.232L282.943 145.956C282.712 146.053 282.458 146.099 282.203 146.089ZM317.191 124.93H317.006L282.943 142.655C282.658 142.85 282.428 143.102 282.27 143.391C282.113 143.681 282.032 144 282.036 144.322V144.689C282.036 144.956 282.036 145.089 282.166 145.122C282.295 145.156 282.277 145.122 282.388 145.122L316.451 127.331C316.735 127.135 316.965 126.883 317.122 126.593C317.279 126.304 317.36 125.986 317.358 125.664V125.314C317.358 125.047 317.358 124.913 317.229 124.88L317.191 124.93Z" fill="#0962FF"/>
<path d="M282.203 152.292C281.997 152.29 281.794 152.244 281.61 152.159C281.381 152.014 281.196 151.818 281.076 151.59C280.956 151.362 280.904 151.11 280.926 150.858V150.508C280.938 150.022 281.076 149.546 281.33 149.117C281.584 148.689 281.947 148.32 282.388 148.04L316.451 130.332C316.653 130.224 316.883 130.166 317.118 130.166C317.352 130.166 317.583 130.224 317.784 130.332C318.014 130.477 318.198 130.673 318.318 130.901C318.439 131.129 318.491 131.381 318.469 131.633V131.983C318.462 132.47 318.325 132.948 318.07 133.377C317.816 133.806 317.451 134.174 317.007 134.451L282.943 152.159C282.714 152.262 282.459 152.308 282.203 152.292ZM317.192 131.116H317.007L282.943 148.824C282.66 149.021 282.432 149.273 282.274 149.562C282.117 149.852 282.036 150.169 282.036 150.491V150.841C282.036 151.108 282.036 151.258 282.166 151.275C282.295 151.292 282.277 151.275 282.388 151.275L316.451 133.534C316.734 133.337 316.963 133.084 317.12 132.795C317.278 132.506 317.359 132.188 317.358 131.866V131.5C317.358 131.233 317.358 131.083 317.229 131.066L317.192 131.116Z" fill="#0962FF"/>
<path d="M282.202 158.495C281.993 158.494 281.788 158.442 281.61 158.345C281.378 158.205 281.193 158.013 281.072 157.787C280.952 157.561 280.901 157.31 280.925 157.061V156.711C280.932 156.224 281.069 155.746 281.324 155.317C281.578 154.888 281.943 154.519 282.387 154.243L316.451 136.502C316.653 136.396 316.883 136.341 317.117 136.341C317.351 136.341 317.581 136.396 317.783 136.502C318.011 136.645 318.193 136.838 318.313 137.063C318.433 137.288 318.486 137.537 318.468 137.786V138.169C318.456 138.655 318.318 139.131 318.064 139.56C317.81 139.989 317.447 140.357 317.006 140.637L282.943 158.345C282.715 158.454 282.459 158.506 282.202 158.495ZM317.191 137.319H317.006L282.943 155.026C282.659 155.222 282.429 155.475 282.272 155.764C282.114 156.053 282.033 156.372 282.036 156.694V157.044C282.036 157.311 282.036 157.444 282.165 157.478C282.295 157.511 282.276 157.478 282.387 157.478L316.451 139.72C316.736 139.525 316.966 139.272 317.124 138.983C317.281 138.693 317.361 138.375 317.358 138.052V137.686C317.378 137.531 317.332 137.376 317.228 137.252L317.191 137.319Z" fill="#0962FF"/>
<path d="M369.064 100.086C369.135 99.9761 369.158 99.8463 369.127 99.7225C369.096 99.5986 369.014 99.49 368.897 99.4186L361.844 95.2501C358.012 93.1992 352.143 94.3164 345.96 99.5687C341.017 103.771 337.619 109.234 336.222 115.226C334.741 121.662 336.222 126.247 339.295 128.431C339.295 128.431 339.999 128.882 340.203 128.982L346.775 132.867C346.836 132.904 346.906 132.929 346.978 132.942C347.051 132.954 347.126 132.953 347.198 132.939C347.271 132.925 347.339 132.898 347.4 132.86C347.461 132.822 347.513 132.773 347.552 132.717L350.57 128.148L350.921 127.981C359.271 123.629 366.046 113.141 366.213 104.421L369.064 100.086Z" fill="#0962FF"/>
<path d="M347.089 133.451C346.871 133.454 346.657 133.396 346.478 133.284L339.906 129.399L338.98 128.832C335.426 126.347 334.241 121.362 335.685 115.126C337.121 109.037 340.575 103.485 345.589 99.2021C351.569 94.1999 357.752 92.5325 362.121 94.8335L369.193 99.002C369.433 99.1395 369.604 99.3557 369.669 99.6047C369.735 99.8538 369.69 100.116 369.545 100.336L366.749 104.554C366.527 113.525 359.715 123.98 351.199 128.398L350.958 128.515L348.015 132.967C347.942 133.081 347.844 133.18 347.726 133.258C347.607 133.336 347.473 133.39 347.33 133.417L347.089 133.451ZM339.684 128.048C339.684 128.048 340.332 128.448 340.536 128.548L347.144 132.467L350.218 127.781L350.699 127.548C358.826 123.329 365.509 112.942 365.713 104.421V104.288L368.656 99.8357L361.584 95.6672C357.697 93.5663 352.013 95.1504 346.386 99.9191C341.54 104.065 338.202 109.437 336.814 115.326C335.463 121.178 336.5 125.814 339.684 128.048Z" fill="#0962FF"/>
<path d="M369.184 122.085C375.155 112.77 375.15 102.7 369.174 99.5918C363.197 96.4838 353.511 101.515 347.54 110.83C341.569 120.145 341.574 130.216 347.551 133.324C353.528 136.432 363.213 131.4 369.184 122.085Z" fill="#141414"/>
<path d="M351.625 134.834C350.132 134.847 348.663 134.502 347.367 133.834C344.313 132.25 342.628 128.932 342.628 124.496C342.628 115.559 349.607 104.671 358.197 100.202C362.455 97.9847 366.491 97.6512 369.545 99.2352C372.6 100.819 374.303 104.237 374.303 108.589C374.303 117.51 367.324 128.415 358.734 132.867C356.596 134.071 354.145 134.749 351.625 134.834ZM365.288 99.2352C362.963 99.3202 360.703 99.9526 358.734 101.069C350.459 105.371 343.72 115.876 343.72 124.496C343.72 128.565 345.201 131.566 347.923 132.983C350.644 134.401 354.273 134.051 358.197 132.016C366.472 127.714 373.211 117.193 373.211 108.673C373.211 104.604 371.711 101.586 369.009 100.186C367.87 99.5267 366.548 99.1685 365.195 99.1519L365.288 99.2352Z" fill="#0962FF"/>
<path d="M365.929 120.393C370.106 113.878 370.103 106.834 365.924 104.661C361.745 102.487 354.971 106.007 350.794 112.523C346.618 119.039 346.62 126.082 350.799 128.256C354.979 130.429 361.752 126.909 365.929 120.393Z" fill="#0962FF"/>
<path d="M353.587 129.399C352.516 129.413 351.46 129.165 350.532 128.682C348.329 127.548 347.126 125.18 347.126 122.012C347.335 118.582 348.437 115.244 350.344 112.269C352.252 109.294 354.91 106.765 358.104 104.888C359.213 104.036 360.587 103.514 362.038 103.394C363.49 103.274 364.947 103.562 366.209 104.218C367.471 104.874 368.477 105.866 369.087 107.058C369.698 108.25 369.884 109.583 369.619 110.874C369.41 114.304 368.308 117.642 366.401 120.617C364.493 123.592 361.835 126.12 358.641 127.998C357.12 128.853 355.378 129.336 353.587 129.399ZM363.14 104.504C361.545 104.565 359.996 104.996 358.641 105.755C355.609 107.541 353.085 109.945 351.274 112.772C349.464 115.599 348.417 118.77 348.218 122.029C347.946 123.147 348.077 124.314 348.592 125.361C349.106 126.408 349.977 127.279 351.079 127.85C352.181 128.42 353.456 128.66 354.719 128.534C355.982 128.407 357.168 127.922 358.104 127.148C361.136 125.365 363.66 122.964 365.47 120.14C367.281 117.316 368.328 114.147 368.527 110.89C368.527 108.106 367.508 106.038 365.657 105.088C364.89 104.697 364.021 104.495 363.14 104.504Z" fill="#0962FF"/>
<path d="M366.435 109.824C366.518 108.784 366.357 107.74 365.961 106.76C365.565 105.78 364.945 104.886 364.139 104.138C362.13 103.961 360.114 104.402 358.419 105.388C355.306 107.215 352.715 109.676 350.856 112.573C348.997 115.47 347.922 118.721 347.718 122.062C347.634 123.104 347.796 124.149 348.195 125.13C348.594 126.11 349.221 127.003 350.032 127.748C352.035 127.925 354.046 127.484 355.734 126.498C358.847 124.671 361.438 122.209 363.297 119.312C365.156 116.415 366.231 113.165 366.435 109.824Z" fill="#141414"/>
<path d="M350.922 128.248C350.577 128.274 350.23 128.274 349.885 128.248H349.774L349.644 128.148C348.777 127.356 348.107 126.407 347.679 125.363C347.251 124.319 347.075 123.205 347.164 122.095C347.342 118.642 348.427 115.276 350.329 112.274C352.231 109.271 354.895 106.717 358.105 104.821C359.903 103.786 362.035 103.328 364.158 103.521H364.325L364.436 103.604C365.304 104.396 365.974 105.345 366.402 106.389C366.83 107.433 367.005 108.547 366.917 109.657C366.712 113.086 365.613 116.423 363.709 119.398C361.804 122.373 359.149 124.902 355.957 126.781C354.45 127.658 352.714 128.163 350.922 128.248ZM350.218 127.231C352.044 127.338 353.86 126.918 355.402 126.031C358.435 124.245 360.96 121.842 362.77 119.014C364.581 116.187 365.627 113.016 365.825 109.757C365.905 108.812 365.769 107.863 365.425 106.968C365.082 106.073 364.537 105.252 363.825 104.554C361.998 104.433 360.177 104.854 358.642 105.755C355.61 107.538 353.086 109.938 351.275 112.763C349.465 115.587 348.418 118.756 348.219 122.012C348.14 122.959 348.277 123.91 348.62 124.807C348.964 125.705 349.508 126.53 350.218 127.231Z" fill="#0962FF"/>
<path d="M342.035 122.929L334.019 118.66L334.574 117.81L342.59 122.079L342.035 122.929Z" fill="#141414"/>
<path d="M344.46 113.508L336.444 109.24L337 108.39L345.016 112.658L344.46 113.508Z" fill="#141414"/>
<path d="M350.81 105.338L342.795 101.069L343.35 100.219L351.384 104.488L350.81 105.338Z" fill="#141414"/>
<path d="M357.087 100.569L349.071 96.2841L349.626 95.4337L357.642 99.7189L357.087 100.569Z" fill="#141414"/>
<path d="M363.344 98.1351L355.328 93.8499L355.902 92.9995L363.918 97.2847L363.344 98.1351Z" fill="#141414"/>
<path d="M342.794 129.682L334.778 125.413L335.334 124.563L343.35 128.832L342.794 129.682Z" fill="#141414"/>
<path d="M146.295 68.1683L145.567 69.3107L268.741 133.001L269.469 131.859L146.295 68.1683Z" fill="#141414"/>
<path d="M172.276 123.367L171.548 124.51L266.449 173.581L267.177 172.439L172.276 123.367Z" fill="#141414"/>
<path d="M144.022 108.765L143.294 109.907L165.947 121.621L166.675 120.479L144.022 108.765Z" fill="#141414"/>
<path d="M191.462 74.1611L190.734 75.3035L283.066 123.047L283.795 121.904L191.462 74.1611Z" fill="#141414"/>
<path d="M160.612 58.2139L159.884 59.3563L183.613 71.6262L184.341 70.4838L160.612 58.2139Z" fill="#141414"/>
<path d="M252.693 130.481L251.973 131.628L266.479 139.01L267.198 137.864L252.693 130.481Z" fill="#141414"/>
<path d="M144.081 74.2021L143.352 75.3438L248.513 129.852L249.242 128.711L144.081 74.2021Z" fill="#141414"/>
<path d="M349.66 56.178L348.932 57.3204L379.083 72.911L379.812 71.7686L349.66 56.178Z" fill="#141414"/>
<path d="M256.65 8.09077L255.922 9.23315L341.912 53.697L342.64 52.5546L256.65 8.09077Z" fill="#141414"/>
<path d="M224.091 87.2636L306.676 44.1613L373.118 74.7914L291.588 117.177L224.091 87.2636Z" fill="#0962FF"/>
<path d="M222.369 80.1772L259.395 58.1342L315.877 83.2619C315.877 83.2619 315.877 83.2619 315.877 83.3619L279.518 105.655L222.443 80.2772L222.369 80.1772Z" fill="#141414"/>
<path d="M214.632 53.8987L215.039 59.6179L309.139 101.486C309.155 101.495 309.174 101.5 309.193 101.5C309.213 101.5 309.232 101.496 309.248 101.487C309.265 101.479 309.279 101.467 309.289 101.452C309.299 101.437 309.305 101.42 309.305 101.403L308.88 95.6837L214.909 53.882C214.907 53.8488 214.89 53.8179 214.862 53.796C214.834 53.7741 214.798 53.7631 214.761 53.7653C214.725 53.7675 214.69 53.7828 214.666 53.8078C214.642 53.8328 214.629 53.8655 214.632 53.8987Z" fill="#0962FF"/>
<path d="M309.194 102.154C309.072 102.179 308.945 102.179 308.824 102.154L214.409 60.1851L214.316 59.7349L213.872 53.6322L214.631 53.132L215.113 53.2987L309.527 95.2672L309.62 95.7174L310.045 101.82L309.657 102.12C309.509 102.171 309.348 102.182 309.194 102.154ZM215.835 59.2513L308.49 100.469L308.176 96.0509L215.501 54.7994L215.835 59.2513Z" fill="#141414"/>
<path d="M308.935 95.6004L368.879 58.9176C368.895 58.909 368.914 58.9043 368.933 58.9042C368.952 58.904 368.971 58.9084 368.988 58.9168C369.005 58.9252 369.019 58.9373 369.029 58.9521C369.039 58.9668 369.045 58.9837 369.045 59.001L369.453 64.7035C369.461 64.7162 369.465 64.7305 369.465 64.7452C369.465 64.7598 369.461 64.7742 369.453 64.7869L309.509 101.47H309.36L308.935 95.7505C308.919 95.7437 308.906 95.733 308.897 95.7197C308.887 95.7065 308.882 95.6911 308.882 95.6755C308.882 95.6598 308.887 95.6445 308.897 95.6312C308.906 95.6179 308.919 95.6073 308.935 95.6004Z" fill="#141414"/>
<path d="M309.527 102.237L309.027 102.07C308.897 102.008 308.786 101.918 308.705 101.807C308.624 101.696 308.576 101.569 308.565 101.437L308.12 95.3505L308.528 95.0671L368.805 58.1342L369.286 58.2842C369.421 58.3424 369.537 58.4317 369.621 58.5429C369.706 58.6541 369.756 58.7834 369.767 58.9178L370.212 64.9872L369.823 65.2873L309.527 102.237ZM309.638 95.9675L309.953 100.369L368.694 64.3869L368.379 59.985L309.638 95.9675Z" fill="#141414"/>
<path d="M214.853 53.6487L275.723 17.3493C275.74 17.3406 275.759 17.3359 275.778 17.3359C275.798 17.3359 275.817 17.3406 275.834 17.3493L368.823 58.7176C368.838 58.7267 368.851 58.7391 368.859 58.7536C368.868 58.7682 368.872 58.7844 368.872 58.8009C368.872 58.8174 368.868 58.8337 368.859 58.8482C368.851 58.8628 368.838 58.8752 368.823 58.8843L308.879 95.5671C308.862 95.5745 308.843 95.5784 308.823 95.5784C308.804 95.5784 308.785 95.5745 308.768 95.5671L214.798 53.7654C214.79 53.7431 214.792 53.7193 214.802 53.6981C214.812 53.6768 214.83 53.6593 214.853 53.6487Z" fill="white"/>
<path d="M368.582 59.1008C368.597 59.0917 368.61 59.0793 368.619 59.0648C368.627 59.0502 368.632 59.034 368.632 59.0174C368.632 59.0009 368.627 58.9847 368.619 58.9701C368.61 58.9556 368.597 58.9432 368.582 58.9341L287.127 22.7181L230.774 56.2829C230.759 56.292 230.746 56.3044 230.738 56.319C230.729 56.3335 230.724 56.3498 230.724 56.3663C230.724 56.3828 230.729 56.399 230.738 56.4136C230.746 56.4281 230.759 56.4405 230.774 56.4497L313.081 93.1325L368.582 59.1008Z" fill="#0962FF"/>
<path d="M309.046 96.3673L308.546 96.2006L214.224 54.2321L214.132 53.7819C214.122 53.6488 214.151 53.5157 214.216 53.3958C214.281 53.276 214.379 53.1734 214.502 53.0983L275.723 16.5989L276.205 16.7656L369.582 58.3006L369.675 58.7508C369.683 58.8837 369.653 59.0162 369.588 59.1358C369.523 59.2554 369.426 59.3581 369.305 59.4344L309.046 96.3673ZM216.224 53.6485L308.824 94.8166L367.583 58.8341L275.871 18.1162L216.224 53.6485Z" fill="#141414"/>
<path d="M218.334 37.5417V43.2776L309.046 90.6984C309.056 90.7091 309.069 90.7176 309.083 90.7234C309.098 90.7293 309.113 90.7323 309.129 90.7323C309.145 90.7323 309.16 90.7293 309.175 90.7234C309.189 90.7176 309.202 90.7091 309.212 90.6984V84.9793C309.22 84.9666 309.225 84.9522 309.225 84.9376C309.225 84.9229 309.22 84.9086 309.212 84.8959L218.519 37.4584C218.502 37.4448 218.481 37.4361 218.459 37.4334C218.437 37.4307 218.415 37.4341 218.395 37.4431C218.375 37.4521 218.358 37.4663 218.347 37.4839C218.336 37.5015 218.332 37.5216 218.334 37.5417Z" fill="#0962FF"/>
<path d="M309.046 91.4818C308.903 91.4821 308.762 91.4476 308.639 91.3818L217.631 43.7609V43.2773V37.1913L218.408 36.7411L218.89 36.9245L309.879 84.5455V85.029V91.0984L309.472 91.3818C309.342 91.4482 309.195 91.4827 309.046 91.4818ZM219.075 42.9438L308.435 89.7144V85.2958L219.075 38.6086V42.9438Z" fill="#141414"/>
<path d="M309.25 84.8126L371.804 51.8315C371.819 51.8207 371.837 51.8144 371.856 51.8134C371.875 51.8124 371.894 51.8167 371.911 51.8259C371.927 51.835 371.94 51.8485 371.947 51.8644C371.954 51.8804 371.956 51.898 371.952 51.9148V57.634L309.379 90.6152H309.231V84.896C309.226 84.8819 309.224 84.8667 309.228 84.852C309.231 84.8374 309.238 84.8238 309.25 84.8126Z" fill="#141414"/>
<path d="M309.342 91.4817L308.861 91.2983C308.733 91.2282 308.627 91.1305 308.553 91.0139C308.479 90.8973 308.438 90.7657 308.435 90.6313V84.5453L308.861 84.2618L371.804 51.0806L372.266 51.2806C372.396 51.3482 372.504 51.4455 372.579 51.5626C372.654 51.6797 372.693 51.8125 372.692 51.9476V58.1337L372.285 58.4171L309.342 91.4817ZM309.916 85.2456V89.6475L371.23 57.3333V52.9647L309.916 85.2456Z" fill="#141414"/>
<path d="M218.519 37.2917L282.018 4.77734H282.11L371.804 51.7147C371.819 51.7238 371.832 51.7362 371.84 51.7507C371.849 51.7653 371.854 51.7815 371.854 51.798C371.854 51.8145 371.849 51.8308 371.84 51.8454C371.832 51.8599 371.819 51.8723 371.804 51.8814L309.25 84.8126C309.233 84.8214 309.214 84.826 309.194 84.826C309.175 84.826 309.156 84.8214 309.139 84.8126L218.519 37.4584C218.504 37.4493 218.491 37.4369 218.483 37.4223C218.474 37.4078 218.47 37.3915 218.47 37.375C218.47 37.3585 218.474 37.3423 218.483 37.3277C218.491 37.3132 218.504 37.3008 218.519 37.2917Z" fill="#0962FF"/>
<path d="M242.4 37.2248C242.385 37.2157 242.373 37.2033 242.364 37.1887C242.355 37.1742 242.351 37.158 242.351 37.1415C242.351 37.1249 242.355 37.1087 242.364 37.0941C242.373 37.0796 242.385 37.0672 242.4 37.0581L293.569 10.8632L281.832 4.7772C281.815 4.76842 281.796 4.76379 281.777 4.76379C281.757 4.76379 281.738 4.76842 281.721 4.7772L218.334 37.2415C218.319 37.2506 218.306 37.263 218.297 37.2775C218.289 37.2921 218.284 37.3084 218.284 37.3249C218.284 37.3414 218.289 37.3576 218.297 37.3722C218.306 37.3867 218.319 37.3991 218.334 37.4082L308.842 84.8124H309.046L321.209 78.4096L242.4 37.2248Z" fill="white"/>
<path d="M309.25 85.6459L308.768 85.4458L217.797 37.8415V37.3747C217.794 37.2434 217.83 37.1138 217.902 36.9994C217.974 36.885 218.078 36.79 218.204 36.7244L282.055 4.04333L282.517 4.22675L372.563 51.3475V51.8144C372.566 51.9457 372.53 52.0753 372.458 52.1896C372.386 52.304 372.282 52.399 372.156 52.4647L309.25 85.6459ZM219.834 37.3913L309.194 84.0786L370.508 51.7477L282.055 5.46064L219.834 37.3913Z" fill="#141414"/>
<path d="M330.189 48.1072C330.222 37.6092 313.887 29.0578 293.704 29.007C273.521 28.9562 257.134 37.4254 257.101 47.9234C257.069 58.4213 273.404 66.9728 293.586 67.0236C313.769 67.0743 330.156 58.6052 330.189 48.1072Z" fill="white"/>
<path d="M258.173 45.1116C256.507 50.8641 259.913 56.9501 268.429 61.4021C276.945 65.854 288.589 67.6382 299.641 66.8211L258.173 45.1116Z" fill="#0962FF"/>
<path d="M293.698 63.4196C284.514 63.5814 275.437 61.6179 267.336 57.7171C260.209 53.9821 256.229 48.9966 256.229 43.6775C256.229 38.3585 260.191 33.3897 267.336 29.7047C281.813 22.2181 305.324 22.2681 319.764 29.8214C326.892 33.5564 330.872 38.542 330.779 43.861C330.687 49.18 326.818 54.1488 319.672 57.8505C311.677 61.6567 302.74 63.5729 293.698 63.4196ZM293.458 25.4195C284.648 25.2591 275.938 27.1242 268.151 30.8386C261.468 34.2901 257.784 38.8588 257.765 43.6775C257.747 48.4963 261.468 53.0984 268.058 56.5832C282.091 63.9198 304.954 63.9698 319.024 56.6999C325.707 53.2484 329.391 48.6964 329.391 43.861C329.391 39.0255 325.688 34.4568 319.098 30.9719C311.222 27.1705 302.392 25.2583 293.458 25.4195Z" fill="#141414"/>
<path d="M300.919 39.9761C298.648 38.9443 296.14 38.4067 293.597 38.4067C291.054 38.4067 288.546 38.9443 286.275 39.9761C282.221 42.0771 282.203 45.4785 286.275 47.5961C288.543 48.6357 291.052 49.1777 293.597 49.1777C296.142 49.1777 298.651 48.6357 300.919 47.5961C304.936 45.5119 304.955 42.0937 300.919 39.9761Z" fill="#141414"/>
<path d="M293.624 49.7971C290.929 49.8498 288.263 49.2755 285.886 48.1297C284.894 47.7981 284.039 47.201 283.434 46.4185C282.83 45.6361 282.506 44.7059 282.506 43.7528C282.506 42.7998 282.83 41.8695 283.434 41.0871C284.039 40.3047 284.894 39.7075 285.886 39.3759C288.27 38.2862 290.905 37.7183 293.578 37.7183C296.251 37.7183 298.887 38.2862 301.27 39.3759C302.27 39.7003 303.135 40.2946 303.746 41.078C304.357 41.8613 304.685 42.7954 304.685 43.7528C304.685 44.7102 304.357 45.6443 303.746 46.4277C303.135 47.211 302.27 47.8054 301.27 48.1297C298.923 49.2673 296.29 49.8415 293.624 49.7971ZM293.624 39.0424C291.222 38.9974 288.846 39.5022 286.719 40.5097C285.91 40.6842 285.19 41.0992 284.675 41.6875C284.159 42.2759 283.879 43.0034 283.879 43.7528C283.879 44.5022 284.159 45.2297 284.675 45.8181C285.19 46.4065 285.91 46.8214 286.719 46.9959C288.878 47.9778 291.262 48.4893 293.68 48.4893C296.098 48.4893 298.482 47.9778 300.641 46.9959C301.45 46.8214 302.17 46.4065 302.685 45.8181C303.201 45.2297 303.481 44.5022 303.481 43.7528C303.481 43.0034 303.201 42.2759 302.685 41.6875C302.17 41.0992 301.45 40.6842 300.641 40.5097C298.457 39.4794 296.015 38.974 293.55 39.0424H293.624Z" fill="#141414"/>
<path d="M296.865 42.077C295.849 41.6127 294.727 41.3707 293.588 41.3707C292.449 41.3707 291.327 41.6127 290.311 42.077C289.944 42.2121 289.629 42.4429 289.407 42.7399C289.185 43.0369 289.067 43.3866 289.067 43.7444C289.067 44.1022 289.185 44.4519 289.407 44.7489C289.629 45.0459 289.944 45.2766 290.311 45.4118C291.323 45.8759 292.443 46.1179 293.579 46.1179C294.715 46.1179 295.834 45.8759 296.846 45.4118C297.215 45.2783 297.531 45.049 297.754 44.753C297.978 44.457 298.098 44.1078 298.1 43.75C298.102 43.3922 297.985 43.0419 297.765 42.744C297.545 42.446 297.232 42.2138 296.865 42.077Z" fill="#141414"/>
<path d="M293.606 46.6792C292.36 46.6971 291.13 46.4273 290.033 45.8955C289.553 45.7306 289.14 45.4382 288.849 45.057C288.557 44.6759 288.401 44.2241 288.401 43.7613C288.401 43.2985 288.557 42.8466 288.849 42.4655C289.14 42.0844 289.553 41.792 290.033 41.627C291.13 41.1181 292.345 40.8525 293.578 40.8525C294.812 40.8525 296.027 41.1181 297.124 41.627C297.598 41.7949 298.005 42.0875 298.291 42.4667C298.578 42.8459 298.732 43.2941 298.732 43.7529C298.732 44.2118 298.578 44.66 298.291 45.0392C298.005 45.4184 297.598 45.711 297.124 45.8789C296.043 46.4042 294.834 46.6793 293.606 46.6792ZM293.606 41.8604C292.569 41.8425 291.544 42.0604 290.626 42.494C290.311 42.5669 290.033 42.7318 289.835 42.9627C289.636 43.1936 289.528 43.4775 289.528 43.7696C289.528 44.0617 289.636 44.3456 289.835 44.5765C290.033 44.8074 290.311 44.9723 290.626 45.0452C291.555 45.4609 292.578 45.6772 293.615 45.6772C294.653 45.6772 295.676 45.4609 296.605 45.0452C296.891 44.9337 297.141 44.7592 297.332 44.5377C297.522 44.3162 297.648 44.0549 297.697 43.7779C297.65 43.5028 297.527 43.2426 297.34 43.0213C297.152 42.7999 296.906 42.6244 296.624 42.5107C295.686 42.0581 294.633 41.8339 293.569 41.8604H293.606Z" fill="#0962FF"/>
<path d="M367.678 59.4917L351.189 68.1837L351.741 69.0327L368.229 60.3407L367.678 59.4917Z" fill="#0962FF"/>
<path d="M349.066 69.2545L343.282 72.3035L343.834 73.1525L349.617 70.1036L349.066 69.2545Z" fill="#0962FF"/>
<path d="M279.148 102.437L245.214 87.3799L245.696 86.4962L279.056 101.303L289.312 95.0166L289.941 95.8337L279.148 102.437Z" fill="#0962FF"/>
<path d="M232.444 80.5885L231.961 81.4708L241.292 85.6154L241.775 84.7331L232.444 80.5885Z" fill="#0962FF"/>
<path d="M358.504 138.138C367.866 134.008 375.194 122.416 374.863 112.257C374.533 102.099 366.665 97.1851 357.291 101.315C347.917 105.444 340.601 117.037 340.932 127.207C341.263 137.378 349.093 142.268 358.504 138.138Z" fill="#141414"/>
<path d="M358.369 135.038C366.151 131.606 372.241 121.963 371.959 113.507C371.677 105.052 365.146 100.984 357.352 104.427C349.559 107.87 343.481 117.49 343.799 125.945C344.118 134.4 350.576 138.469 358.369 135.038Z" fill="#0962FF"/>
<path d="M344.008 124.904C343.763 117.661 348.603 109.463 355.036 105.836C355.509 105.553 356 105.303 356.507 105.089C363.675 101.927 369.692 105.677 369.986 113.458C370.231 120.811 365.219 129.156 358.615 132.709C358.235 132.918 357.855 133.101 357.475 133.273C350.294 136.435 344.265 132.697 344.008 124.904Z" fill="url(#paint0_linear_1094_2885)"/>
<g style="mix-blend-mode:multiply">
<path d="M344.008 124.904C343.763 117.661 348.603 109.463 355.036 105.836C353.419 107.883 351.997 110.088 351.997 110.088C351.997 110.088 351.997 115.345 352.389 119.745C352.782 124.144 358.578 132.709 358.578 132.709C358.198 132.918 357.818 133.101 357.438 133.273C350.294 136.435 344.265 132.697 344.008 124.904Z" fill="#C0AEA6"/>
</g>
<path d="M350.895 120.088C352.154 119.459 353.218 118.497 353.969 117.307C354.721 116.117 355.133 114.743 355.159 113.336C355.073 110.689 353.027 109.415 350.576 110.493C349.319 111.12 348.257 112.08 347.508 113.268C346.758 114.457 346.349 115.828 346.324 117.233C346.276 117.788 346.383 118.346 346.632 118.844C346.881 119.343 347.263 119.763 347.736 120.058C348.209 120.353 348.754 120.512 349.311 120.518C349.868 120.523 350.416 120.374 350.895 120.088Z" fill="#0962FF"/>
<path d="M351.887 119.353C352.831 118.881 353.628 118.16 354.192 117.268C354.756 116.376 355.065 115.347 355.085 114.292C355.121 113.875 355.04 113.457 354.853 113.083C354.665 112.71 354.378 112.395 354.023 112.174C353.668 111.954 353.259 111.836 352.841 111.833C352.423 111.83 352.012 111.943 351.654 112.16C350.711 112.629 349.915 113.348 349.351 114.238C348.787 115.128 348.478 116.155 348.456 117.208C348.423 117.624 348.504 118.042 348.692 118.415C348.879 118.787 349.166 119.102 349.52 119.323C349.874 119.544 350.282 119.664 350.699 119.669C351.117 119.674 351.528 119.565 351.887 119.353Z" fill="white"/>
<circle cx="99.5522" cy="99.5522" r="98.6389" transform="matrix(0.866025 -0.5 2.20305e-08 1 394.57 148.757)" stroke="white" stroke-width="1.82665"/>
<path d="M374.327 110.41L500 90.9309" stroke="white" stroke-width="1.82665" stroke-linecap="round"/>
<path d="M346.5 135.931L397 268.931" stroke="white" stroke-width="1.82665" stroke-linecap="round"/>
<path d="M499.841 234.498L519.633 187.326L514.404 179.658L495.538 224.643C494.942 226.018 493.883 227.242 492.691 227.795L474.884 236.069C474.024 236.469 473.163 236.503 472.567 236.121C471.971 235.74 471.574 234.973 471.574 234.022C471.574 233.363 471.707 232.716 472.038 231.977L495.339 176.443L484.814 181.407L464.16 230.735C463.564 232.182 462.505 233.333 461.314 233.887C460.122 234.44 459.063 234.274 458.467 233.38L449.464 220.368C449.2 219.906 449.001 219.412 449.001 218.754C449.001 218.095 449.133 217.449 449.464 216.709L467.735 172.879L457.21 177.843L437.946 223.817L458.6 253.66L499.841 234.498Z" fill="#0962FF"/>
<path d="M516.654 149.237L475.413 168.472L455.62 215.644L460.85 223.311L479.65 178.43C480.246 177.056 481.305 175.832 482.496 175.278L500.303 167.005C501.164 166.605 502.024 166.571 502.62 166.952C503.216 167.334 503.613 168.101 503.613 169.052C503.613 169.711 503.481 170.357 503.15 171.097L479.848 226.63L490.374 221.667L511.027 172.339C511.623 170.891 512.682 169.741 513.874 169.187C515.065 168.633 516.124 168.8 516.72 169.694L525.723 182.706C525.988 183.168 526.186 183.661 526.186 184.32C526.186 184.978 526.054 185.625 525.723 186.364L507.386 230.152L517.912 225.188L537.374 179.049L516.654 149.237Z" fill="#0962FF"/>
<g clip-path="url(#clip0_1094_2885)">
<path fill-rule="evenodd" clip-rule="evenodd" d="M31.7994 86.9705L31.8049 86.9671C31.9651 87.0504 32.1194 87.1447 32.2665 87.2493L32.254 87.2529C32.254 87.2529 32.6774 87.4948 33.3762 88.0492C32.6708 87.4932 32.2425 87.253 32.2425 87.253C32.1013 87.149 31.9533 87.0546 31.7994 86.9705ZM41.5673 99.4353C40.4463 96.8051 38.9984 94.3265 37.2577 92.0583L18.2347 103.541C18.2347 102.948 18.2125 102.348 18.19 101.74L18.19 101.739L18.19 101.739C18.1761 101.361 18.162 100.98 18.153 100.596C18.0868 98.8159 18.1629 97.0336 18.3805 95.2657L18.3931 95.2579C19.1698 89.519 21.6182 86.9492 24.2937 86.0515H24.3346C26.6501 85.2812 29.1409 85.7539 30.877 86.502C29.1406 85.7533 26.6482 85.2774 24.3229 86.0282L24.3828 85.997C26.793 84.7456 74.1788 60.1405 94.0992 45.8827C94.0992 45.8827 102.255 39.2474 110.66 43.3219L110.673 43.311C110.673 43.311 116.166 46.291 120.214 55.8317C101.517 77.0887 43.255 98.8062 41.5927 99.4259L41.5926 99.4259L41.5926 99.4259L41.5673 99.4353ZM44.6115 109.384L44.6073 109.363L13.8399 127.975C13.742 128.046 13.6421 128.114 13.5402 128.18C12.0281 129.096 10.2793 129.544 8.51323 129.469C7.34911 129.496 6.19482 129.25 5.1425 128.751L5.14251 128.751C4.28664 128.311 3.52842 127.702 2.9132 126.961C2.29797 126.221 1.83836 125.364 1.56184 124.442L18.2808 113.956C18.281 113.95 18.2811 113.945 18.2812 113.939C18.2814 113.937 18.2815 113.934 18.2816 113.932L1.56189 124.418C1.18356 123.319 0.971288 122.169 0.932068 121.007L18.357 110.551C18.357 108.381 18.3162 106.031 18.2346 103.553L37.2576 92.07C38.9935 94.3446 40.4356 96.8291 41.5497 99.4646C42.21 100.984 42.7838 102.54 43.2683 104.124L43.2816 104.116C42.798 102.536 42.2257 100.986 41.5673 99.4705L41.5926 99.4611L41.5927 99.4611C43.2538 98.8419 101.517 77.1241 120.214 55.8668C122.286 60.9335 123.574 66.2866 124.033 71.7415L124.045 71.7288C124.323 74.4296 124.459 77.1431 124.453 79.8582L124.442 161.426C124.442 162.752 124.483 164.039 124.564 165.287L124.564 165.287C124.795 170.114 125.867 174.865 127.731 179.324C112.877 180.28 48.4195 223.703 48.4195 223.703C46.7593 218.571 45.9593 213.199 46.0518 207.806C46.0518 207.806 79.1979 193.565 107.251 176.664C79.1964 193.565 46.0461 207.806 46.0461 207.806V124.547C46.0546 121.174 45.8609 117.804 45.466 114.454L45.4512 114.458C45.2296 112.65 44.9439 110.959 44.6115 109.384ZM17.8486 119.487C17.8232 119.644 17.7978 119.798 17.7717 119.95C17.7978 119.798 17.8232 119.644 17.8486 119.487L17.8486 119.487ZM17.5816 120.925C17.5816 120.925 17.5815 120.925 17.5815 120.925L17.5815 120.925C17.215 122.803 16.676 124.386 15.9159 125.659C16.676 124.391 17.215 122.809 17.5816 120.925ZM166.039 173.521C167.899 172.314 170.967 172.355 176.052 174.927C178.272 176.041 180.284 177.528 182.001 179.324L103.926 226.427L103.933 226.434L182.001 179.324C186.55 184.06 188.126 190.158 188.636 195.054L188.649 195.052C188.869 197.512 188.919 199.985 188.8 202.452C188.719 206.019 189.167 209.578 190.13 213.014L190.13 213.014C190.793 215.39 191.761 217.669 193.011 219.796C182.858 223.452 114.143 266.566 114.143 266.566C112.684 263.779 111.65 260.789 111.075 257.696L111.077 257.695C110.577 255.057 110.356 252.374 110.416 249.689C110.585 246.332 110.407 242.966 109.887 239.644L109.874 239.653C109.355 236.31 108.241 233.086 106.585 230.136L106.585 230.135L78.5143 246.888L78.5111 246.89L78.4062 246.954C76.1609 248.36 73.2801 248.605 69.7053 247.053C68.7626 246.642 67.8539 246.156 66.9877 245.601C65.2875 244.54 63.6427 243.392 62.0597 242.162L62.0425 242.172C55.2602 236.883 50.8456 230.894 48.4138 223.727C48.4138 223.727 112.877 180.304 127.725 179.347C129.665 183.863 132.507 187.935 136.076 191.314L166.01 173.498L166.039 173.521ZM88.3445 219.732L88.3306 219.74C89.6266 219.222 91.4076 219.193 93.8368 219.959L85.0389 225.203L85.0363 225.222L93.8369 219.977C95.1432 220.423 96.4126 220.971 97.6333 221.615L97.6693 221.634L97.6713 221.635C97.9166 221.763 98.1548 221.886 98.3881 222.015C98.1309 221.869 97.8694 221.727 97.6041 221.586C96.3834 220.942 95.114 220.394 93.8076 219.948C91.4052 219.19 89.6367 219.209 88.3445 219.732ZM84.8426 228.519C84.8427 228.599 84.8432 228.679 84.8441 228.759L84.8444 228.759C84.8434 228.679 84.8428 228.599 84.8426 228.519ZM84.8445 228.82L84.8444 230.276L84.8451 230.285C84.8594 230.011 84.8549 229.693 84.8499 229.346L84.8499 229.345C84.8475 229.176 84.8449 229.001 84.8445 228.82ZM83.5015 239.54L83.4973 239.554L104.439 227.051L104.433 227.043L83.5015 239.54ZM99.2603 222.543L99.2747 222.552L99.2672 222.556C99.1843 222.498 99.101 222.442 99.0173 222.389C99.0988 222.439 99.1798 222.491 99.2603 222.543ZM216.915 215.469L199.303 226.129C196.912 224.945 194.749 222.718 192.993 219.819C182.84 223.476 114.125 266.59 114.125 266.59C115.904 269.879 118.19 272.433 120.744 273.798C120.84 273.861 120.942 273.916 121.048 273.961L138.111 263.749L121.048 273.961C122.268 274.619 123.627 274.975 125.013 275.001C126.399 275.026 127.771 274.719 129.014 274.107L129.078 274.066L131.206 272.759L207.194 226.479L207.252 226.438C210.564 225.009 213.894 221.557 216.915 215.469ZM138.111 263.749C138.165 263.639 138.222 263.527 138.28 263.412L138.281 263.411C138.223 263.526 138.165 263.639 138.111 263.749Z" fill="#060606"/>
<path d="M198.371 227.061L215.983 216.401C212.962 222.489 209.632 225.941 206.32 227.37L206.262 227.411L130.274 273.691C132.642 271.913 134.992 268.991 137.179 264.681C137.302 264.431 137.442 264.168 137.57 263.9L198.371 227.061Z" fill="white"/>
<path fill-rule="evenodd" clip-rule="evenodd" d="M175.12 175.859C170.035 173.287 166.967 173.246 165.107 174.453L165.078 174.43L135.144 192.246L87.2364 220.74C88.5427 220.145 90.3622 220.087 92.8756 220.88C94.182 221.326 95.4514 221.874 96.6721 222.518C97.2436 222.822 97.7976 223.131 98.3283 223.475C100.061 224.539 101.633 225.847 102.994 227.359L181.069 180.256L102.994 227.37C103.18 227.574 103.344 227.778 103.507 227.983L103.507 227.983C104.317 228.942 105.035 229.975 105.653 231.068C107.309 234.018 108.423 237.242 108.942 240.585L108.955 240.576C109.475 243.898 109.653 247.264 109.484 250.621C109.424 253.306 109.645 255.989 110.145 258.627L110.143 258.628C110.718 261.721 111.752 264.711 113.211 267.498C113.211 267.498 181.926 224.384 192.079 220.728C190.829 218.601 189.861 216.321 189.198 213.946L189.198 213.946C188.235 210.51 187.787 206.951 187.868 203.384C187.988 200.917 187.937 198.444 187.717 195.984L187.704 195.986C187.194 191.09 185.618 184.992 181.069 180.256L181.069 180.256C179.352 178.46 177.34 176.973 175.12 175.859Z" fill="white"/>
<path fill-rule="evenodd" clip-rule="evenodd" d="M137.57 263.9L198.371 227.061C195.98 225.877 193.817 223.65 192.061 220.751C181.908 224.408 113.193 267.522 113.193 267.522C114.972 270.811 117.258 273.365 119.812 274.73C119.908 274.793 120.01 274.848 120.116 274.893L137.179 264.682C137.233 264.571 137.291 264.458 137.349 264.343C137.423 264.198 137.498 264.05 137.57 263.9ZM137.179 264.682L120.116 274.893C121.336 275.551 122.695 275.907 124.081 275.933C125.467 275.958 126.839 275.652 128.082 275.039L128.146 274.998L130.274 273.692C132.642 271.913 134.992 268.991 137.179 264.682Z" fill="#86B2FF"/>
<path fill-rule="evenodd" clip-rule="evenodd" d="M23.3908 86.9602C26.1726 86.0621 29.1934 86.9194 30.8729 87.8991C31.0332 87.9824 31.1874 88.0768 31.3346 88.1814C31.3262 88.1838 31.322 88.185 31.322 88.185C31.322 88.185 33.6081 89.4913 36.3256 92.9904C38.0664 95.2586 39.5143 97.7372 40.6353 100.367L40.6606 100.358L40.6606 100.358C42.3222 99.7386 100.585 78.021 119.282 56.7638C115.234 47.2231 109.741 44.2431 109.741 44.2431C109.737 44.2467 109.732 44.2504 109.728 44.254C101.323 40.1794 93.1672 46.8147 93.1672 46.8147C73.2468 61.0725 25.861 85.6776 23.4508 86.929L23.3908 86.9602ZM42.3557 105.068C42.8873 106.793 43.3292 108.545 43.6795 110.317C44.0119 111.891 44.2976 113.582 44.5192 115.39L44.5339 115.386C44.9289 118.736 45.1226 122.106 45.1141 125.479V208.738C45.1141 208.738 80.9144 193.359 109.593 175.597C80.9157 193.359 45.1198 208.738 45.1198 208.738C45.0273 214.131 45.8273 219.503 47.4875 224.635C47.4875 224.635 111.945 181.212 126.799 180.256C124.935 175.797 123.863 171.047 123.632 166.219L123.632 166.219C123.551 164.971 123.51 163.684 123.51 162.358L123.521 80.7903C123.527 78.0753 123.391 75.3618 123.113 72.6609L123.101 72.6736C122.642 67.2187 121.354 61.8656 119.282 56.799C100.585 78.0562 42.3218 99.774 40.6607 100.393L40.6606 100.393L40.6353 100.403C41.2964 101.924 41.8708 103.482 42.3557 105.068Z" fill="white"/>
<path fill-rule="evenodd" clip-rule="evenodd" d="M84.099 226.14L92.9048 220.891C90.3914 220.098 88.5719 220.156 87.2656 220.728C85.2186 221.644 84.4022 223.871 84.099 226.14ZM83.9124 229.691C83.8984 228.51 83.9607 227.33 84.099 226.157L92.9049 220.909C94.2112 221.355 95.4806 221.903 96.7013 222.547L96.7373 222.566L96.7374 222.566C97.2987 222.858 97.8226 223.13 98.3352 223.488L98.3575 223.475C100.08 224.541 101.642 225.849 102.994 227.359C103.18 227.563 103.344 227.767 103.507 227.971L82.5652 240.474L82.628 240.266L82.628 240.266C82.748 239.867 82.8692 239.465 82.9734 239.063C83.5471 236.79 83.8621 234.46 83.9123 232.117L83.9124 232.117V231.231C83.9276 230.953 83.9229 230.631 83.9179 230.278V230.278C83.9152 230.09 83.9124 229.894 83.9124 229.691ZM77.5792 247.822L105.653 231.067C105.035 229.975 104.317 228.942 103.507 227.982L82.5653 240.486C81.5214 243.676 79.9118 246.352 77.5792 247.822Z" fill="#0962FF"/>
<path fill-rule="evenodd" clip-rule="evenodd" d="M84.0991 226.192C83.9622 227.354 83.8997 228.522 83.9121 229.692L83.9124 229.691V229.721L83.9125 229.726L83.9124 229.727V231.208C83.9357 231.517 83.9357 231.826 83.9124 232.129C83.8621 234.472 83.5472 236.802 82.9735 239.075L82.9735 239.075C82.8692 239.477 82.748 239.879 82.6279 240.278C82.607 240.347 82.586 240.417 82.5652 240.486C81.5214 243.676 79.8885 246.353 77.5791 247.822L77.4742 247.886C75.229 249.292 72.3481 249.537 68.7733 247.986C67.8306 247.574 66.9219 247.088 66.0557 246.533C64.3555 245.472 62.7106 244.324 61.1276 243.094L61.1105 243.104C54.3282 237.815 49.9136 231.826 47.4818 224.659C47.4818 224.659 111.945 181.236 126.793 180.279C128.733 184.795 131.575 188.867 135.144 192.246L87.2657 220.751C85.2188 221.667 84.4082 223.895 84.0991 226.192Z" fill="#86B2FF"/>
<path fill-rule="evenodd" clip-rule="evenodd" d="M30.8674 87.9025L30.873 87.8991C29.1934 86.9193 26.1726 86.0621 23.4025 86.9835H23.3617C20.6862 87.8812 18.2378 90.4511 17.4611 96.1899L17.4485 96.1977C17.2309 97.9656 17.1548 99.748 17.221 101.528C17.23 101.912 17.2441 102.294 17.258 102.672C17.2805 103.28 17.3027 103.88 17.3027 104.473L36.3257 92.9903C33.6081 89.4738 31.3104 88.185 31.3104 88.185C31.1692 88.081 31.0212 87.9866 30.8674 87.9025ZM17.3026 104.485C17.3842 106.963 17.425 109.313 17.425 111.483C17.425 112.667 17.4075 113.792 17.3492 114.871C17.3052 116.73 17.1552 118.586 16.9002 120.429L16.9166 120.419C16.8354 120.923 16.754 121.393 16.6496 121.857C15.9789 125.304 14.731 127.741 12.6082 129.088L43.6795 110.293C43.3292 108.522 42.8874 106.77 42.3557 105.044L42.3363 105.056C41.8518 103.472 41.278 101.916 40.6177 100.397C39.5035 97.7611 38.0615 95.2766 36.3256 93.002L17.3026 104.485Z" fill="#0962FF"/>
<path fill-rule="evenodd" clip-rule="evenodd" d="M6.10352e-05 121.939L17.4252 111.483C17.4252 112.649 17.4252 113.815 17.3669 114.853L0.629882 125.35C0.251553 124.251 0.0392809 123.101 6.10352e-05 121.939ZM16.9178 120.411C16.8361 120.918 16.7545 121.391 16.6495 121.857L4.21051 129.684C3.35464 129.243 2.59642 128.634 1.9812 127.893C1.36597 127.153 0.906357 126.296 0.629835 125.374L17.3668 114.877C17.3219 116.729 17.172 118.576 16.9178 120.411ZM16.6495 121.858L4.2105 129.684C5.26282 130.182 6.41711 130.428 7.58123 130.401C9.34726 130.476 11.0961 130.028 12.6082 129.112C14.7309 127.742 15.9789 125.292 16.6495 121.858Z" fill="#86B2FF"/>
<line x1="56.1946" y1="94.7057" x2="104.576" y2="66.7729" stroke="#0962FF" stroke-width="0.932"/>
<line x1="58.9906" y1="108.686" x2="107.372" y2="80.7529" stroke="#0962FF" stroke-width="0.932"/>
<line x1="59.7633" y1="121.446" x2="92.6188" y2="102.477" stroke="#0962FF" stroke-width="0.932"/>
<line x1="62.5185" y1="141.868" x2="104.776" y2="117.471" stroke="#0962FF" stroke-width="0.932"/>
<line x1="62.5185" y1="156.78" x2="104.776" y2="132.383" stroke="#0962FF" stroke-width="0.932"/>
<line x1="62.5185" y1="167.964" x2="104.776" y2="143.567" stroke="#0962FF" stroke-width="0.932"/>
<line x1="62.6386" y1="183.095" x2="112.111" y2="154.532" stroke="#0962FF" stroke-width="0.932"/>
</g>
<rect width="13.6609" height="13.6609" transform="translate(149 36.9309)" fill="#86B2FF"/>
<rect width="13.6609" height="13.6609" transform="translate(203 258)" fill="#86B2FF"/>
<rect width="13.6609" height="13.6609" transform="translate(75 280)" fill="#86B2FF"/>
<rect width="27" height="14" transform="translate(213 275)" fill="#86B2FF"/>
<rect width="14" height="14" transform="translate(279 50.1814)" fill="#86B2FF"/>
<rect width="20" height="7" transform="translate(293 43.1814)" fill="#86B2FF"/>
<defs>
<linearGradient id="paint0_linear_1094_2885" x1="366.946" y1="107.479" x2="349.323" y2="135.619" gradientUnits="userSpaceOnUse">
<stop offset="0.01" stop-color="white"/>
<stop offset="0.16" stop-color="#86B2FF"/>
<stop offset="0.37" stop-color="#86B2FF"/>
<stop offset="0.8" stop-color="#0862FF"/>
<stop offset="0.84" stop-color="#0862FF"/>
</linearGradient>
<clipPath id="clip0_1094_2885">
<rect width="215.983" height="233" fill="white" transform="translate(0 42.9309)"/>
</clipPath>
</defs>
</svg>
