<svg width="179" height="161" viewBox="0 0 179 161" fill="none" xmlns="http://www.w3.org/2000/svg">
<line x1="10.3565" y1="36.9149" x2="59.3937" y2="66.3523" stroke="white" stroke-width="0.235592"/>
<line x1="115.849" y1="69.4445" x2="161.001" y2="40.1246" stroke="white" stroke-width="0.187021"/>
<rect x="0.645226" width="82.6998" height="82.6998" rx="8.568" transform="matrix(0.866025 -0.5 0.866025 0.5 22.0445 94.9125)" fill="#141414" stroke="#0962FF" stroke-width="0.745043"/>
<rect x="0.645226" width="82.6998" height="82.6998" rx="8.568" transform="matrix(0.866025 -0.5 0.866025 0.5 22.0445 86.7171)" fill="#86B2FF" stroke="#0962FF" stroke-width="0.745043"/>
<rect opacity="0.3" width="49.9258" height="44.7178" rx="7.48085" transform="matrix(-0.866025 -0.5 -0.866025 0.5 119.353 83.9438)" fill="#141414"/>
<path d="M26.8223 94.2044V86.3645C26.8223 87.2337 27.6418 89.4192 30.92 91.2073C34.1982 92.9954 35.2661 93.6908 35.3903 93.8149V101.861L28.6849 97.9127C28.3355 97.6506 27.7034 97.0567 27.2555 96.3126C26.8786 95.6862 26.8223 94.9354 26.8223 94.2044Z" fill="#0962FF" stroke="#0962FF" stroke-width="0.745044"/>
<path d="M161.451 86.3645V94.9325" stroke="#0962FF" stroke-width="0.745044"/>
<path d="M86.053 123.244V131.067" stroke="#0962FF" stroke-width="0.745044"/>
<path d="M102.444 122.871V131.067" stroke="#0962FF" stroke-width="0.745044"/>
<path d="M156.46 94.9687V91.9523C156.46 91.9523 158.424 91.0126 159.44 90.0897C160.287 89.3199 161.185 87.6855 161.529 87.024C161.566 86.9539 161.675 86.9807 161.675 87.0597V93.6362C161.675 94.739 161.558 95.8884 160.93 96.7952C160.129 97.9518 158.828 98.6385 157.61 99.3421L116.227 123.244L153.641 100.034C155.394 98.9465 156.46 97.0308 156.46 94.9687Z" fill="#0962FF" stroke="#0962FF" stroke-width="0.745044"/>
<path d="M40.9778 105.14V97.3167L46.9381 101.042V108.492L40.9778 105.14Z" fill="#0962FF" stroke="#0962FF" stroke-width="0.745044"/>
<path opacity="0.1" d="M94.0656 41.1363C87.7113 19.2318 81.1869 57.9135 94.0658 81.9155" stroke="white" stroke-width="0.65625"/>
<path opacity="0.1" d="M94.066 41.1363C101.227 18.2998 107.984 59.0785 94.0658 81.9155" stroke="white" stroke-width="0.65625"/>
<line opacity="0.08" x1="94.5643" y1="34.1455" x2="94.5643" y2="41.6022" stroke="white" stroke-width="0.65625"/>
<path opacity="0.2" d="M94.0652 41.1364C75.1277 22.4942 74.429 60.0108 94.0655 81.9156" stroke="white" stroke-width="0.65625"/>
<path opacity="0.2" d="M94.0666 41.1361C112.412 22.96 115.907 58.8455 94.0664 81.9152" stroke="white" stroke-width="0.65625"/>
<path opacity="0.3" d="M94.0671 41.1367C67.9048 30.1838 66.0403 64.2053 94.0673 81.9159" stroke="white" stroke-width="0.65625"/>
<path opacity="0.3" d="M94.0668 41.1364C120.568 30.1838 123.597 61.6419 94.0666 81.9155" stroke="white" stroke-width="0.65625"/>
<path opacity="0.4" d="M94.0666 41.137C63.0114 35.5432 58.1178 67.4675 94.0668 81.9162" stroke="white" stroke-width="0.65625"/>
<path d="M94.6028 74.281C89.7087 74.281 85.7412 70.1214 85.7412 64.9904C85.7412 59.8593 89.7087 55.6997 94.6028 55.6997C99.4969 55.6997 103.464 59.8593 103.464 64.9904C103.464 70.1214 99.4969 74.281 94.6028 74.281Z" fill="#0962FF" stroke="#141414" stroke-width="0.218728" stroke-miterlimit="10"/>
<path d="M93.6842 73.5723C88.7901 73.5723 84.8226 69.4127 84.8226 64.2816C84.8226 59.1505 88.7901 54.991 93.6842 54.991C98.5783 54.991 102.546 59.1505 102.546 64.2816C102.546 69.4127 98.5783 73.5723 93.6842 73.5723Z" fill="#D0E1FF" stroke="#141414" stroke-width="0.218728" stroke-miterlimit="10"/>
<path d="M90.007 66.4786H91.4563C91.4563 67.2612 92.4491 67.9279 93.6304 67.9279C94.8116 67.9279 95.8044 67.2612 95.8044 66.4786C95.8044 65.6814 95.0508 65.3915 93.4564 65.0074C91.9201 64.6233 90.007 64.145 90.007 62.1304C90.007 60.8332 91.0722 59.7317 92.5433 59.3621V57.7822H94.7174V59.3621C96.1885 59.7317 97.2538 60.8332 97.2538 62.1304H95.8044C95.8044 61.3477 94.8116 60.681 93.6304 60.681C92.4491 60.681 91.4563 61.3477 91.4563 62.1304C91.4563 62.9276 92.21 63.2174 93.8043 63.6015C95.3406 63.9856 97.2538 64.4639 97.2538 66.4786C97.2538 67.7758 96.1885 68.8773 94.7174 69.2469V70.8267H92.5433V69.2469C91.0722 68.8773 90.007 67.7758 90.007 66.4786Z" fill="#141414"/>
<path opacity="0.4" d="M94.066 41.1365C129.422 36.4756 127.791 68.1666 94.0658 81.9156" stroke="white" stroke-width="0.65625"/>
<path opacity="0.5" d="M94.0659 41.1368C61.6128 42.301 54.8552 76.7882 94.0661 81.916" stroke="white" stroke-width="0.65625"/>
<path opacity="0.5" d="M94.0664 41.1367C128.257 43.2331 133.151 75.6232 94.0662 81.9158" stroke="white" stroke-width="0.65625"/>
<path opacity="0.6" d="M94.0656 41.1369C66.04 48.1264 53.2243 81.9162 94.0658 81.9161" stroke="white" stroke-width="0.65625"/>
<path opacity="0.6" d="M94.0667 41.1367C121.266 46.9615 136.646 80.9829 94.0665 81.9159" stroke="white" stroke-width="0.65625"/>
<path opacity="0.7" d="M94.0639 41.1372C66.9724 58.1467 61.6129 91.702 94.0641 81.9164" stroke="white" stroke-width="0.65625"/>
<path opacity="0.7" d="M94.067 41.1376C109.149 47.4278 137.577 90.0711 94.0668 81.9168" stroke="white" stroke-width="0.65625"/>
<path opacity="0.8" d="M94.0606 41.1359C75.361 60.9428 70.2341 100.091 94.0607 81.9151" stroke="white" stroke-width="0.65625"/>
<path opacity="0.8" d="M94.0669 41.1375C104.256 46.4954 125.927 101.256 94.0667 81.9166" stroke="white" stroke-width="0.65625"/>
<path d="M94.0715 41.136C87.4891 54.4181 76.5369 108.479 94.0716 81.6817" stroke="white" stroke-width="0.65625"/>
<path d="M94.0678 41.1375C98.1971 45.5636 114.742 111.742 94.0676 81.9167" stroke="white" stroke-width="0.65625"/>
<line x1="94.5643" y1="41.6021" x2="94.5643" y2="91.4688" stroke="white" stroke-width="0.65625"/>
<ellipse cx="119.107" cy="58.4944" rx="2.18728" ry="2.18728" fill="#141414"/>
<ellipse cx="98.6921" cy="28.6016" rx="2.18728" ry="2.18728" fill="#0962FF"/>
<ellipse cx="70.2575" cy="81.8255" rx="2.18728" ry="2.18728" fill="#141414"/>
<ellipse cx="61.5084" cy="45.3707" rx="2.91638" ry="2.91638" fill="#86B2FF"/>
<ellipse cx="108.9" cy="68.7018" rx="2.91638" ry="2.91638" fill="#0962FF"/>
<line x1="63.773" y1="46.7052" x2="69.6058" y2="50.3507" stroke="#86B2FF" stroke-width="0.291638"/>
<path d="M71.6753 81.0356L73.5385 79.7329" stroke="#141414" stroke-width="0.291638"/>
<path d="M98.3276 30.4242L98.3277 34.0698" stroke="#0962FF" stroke-width="0.291638"/>
<path d="M92.7527 8.27137C94.575 7.21926 96.8202 7.21926 98.6425 8.27137L135.951 29.8114C137.773 30.8635 138.896 32.8079 138.896 34.9121V77.9922C138.896 80.0964 137.773 82.0408 135.951 83.0929L98.6425 104.633C96.8202 105.685 94.575 105.685 92.7527 104.633L55.4442 83.0929C53.6219 82.0408 52.4994 80.0964 52.4994 77.9922V34.9121C52.4994 32.8079 53.6219 30.8635 55.4442 29.8114L92.7527 8.27137Z" stroke="#0962FF" stroke-width="2.35592"/>
<path d="M56.8246 35.131L92.7521 55.863" stroke="#0962FF" stroke-width="2.35592" stroke-linecap="round"/>
<path d="M135.158 35.131L99.2308 55.863" stroke="#0962FF" stroke-width="2.35592" stroke-linecap="round"/>
<path d="M95.6976 59.3972L95.6976 100.626" stroke="#0962FF" stroke-width="2.35592" stroke-linecap="round"/>
<rect width="3.08973" height="3.08973" transform="matrix(-0.866025 0.5 2.20305e-08 1 134.301 42.9058)" fill="white"/>
<rect width="3.08973" height="3.08973" transform="matrix(-0.866025 0.5 2.20305e-08 1 134.301 47.0769)" fill="white"/>
<rect width="3.08973" height="3.08973" transform="matrix(-0.866025 0.5 2.20305e-08 1 134.301 51.248)" fill="white"/>
<path d="M75.2459 67.9189C75.9031 70.6562 74.8074 73.4235 72.7985 74.0998C70.7896 74.7761 68.6282 73.1054 67.9709 70.3681C67.3136 67.6308 68.4094 64.8636 70.4183 64.1873C72.4272 63.5109 74.5886 65.1817 75.2459 67.9189Z" stroke="#0962FF" stroke-width="0.942367"/>
<path d="M72.9376 68.696C73.1777 69.6962 72.7774 70.7074 72.0433 70.9545C71.3093 71.2016 70.5195 70.5911 70.2794 69.591C70.0392 68.5908 70.4396 67.5796 71.1736 67.3325C71.9077 67.0854 72.6974 67.6959 72.9376 68.696Z" stroke="#0962FF" stroke-width="0.706775"/>
<path d="M71.5486 68.8206L60.3671 75.21C59.633 75.6295 59.18 76.4101 59.18 77.2555L59.18 101.095C59.18 101.903 58.766 102.654 58.0832 103.086L19.1294 127.719" stroke="white" stroke-width="0.235592"/>
<ellipse cx="17.9526" cy="129.486" rx="4.12285" ry="4.12286" fill="#0962FF"/>
<path d="M124.965 66.5398C124.965 69.3549 122.989 72.778 120.551 74.1855C118.113 75.593 116.136 74.452 116.136 71.6369C116.136 68.8219 118.113 65.3988 120.551 63.9912C122.989 62.5837 124.965 63.7247 124.965 66.5398Z" stroke="#0962FF" stroke-width="0.942367"/>
<path d="M122.164 68.1572C122.164 69.1858 121.442 70.4366 120.551 70.9509C119.66 71.4652 118.938 71.0483 118.938 70.0196C118.938 68.991 119.66 67.7402 120.551 67.2259C121.442 66.7116 122.164 67.1285 122.164 68.1572Z" stroke="#0962FF" stroke-width="0.706775"/>
<path d="M120.435 68.8208L131.617 75.2102C132.351 75.6297 132.804 76.4103 132.804 77.2557V101.095C132.804 101.903 133.218 102.654 133.9 103.086L172.854 127.719" stroke="white" stroke-width="0.235592"/>
<ellipse cx="174.621" cy="129.486" rx="4.12285" ry="4.12286" fill="#0962FF"/>
<rect x="7.70413" y="32.304" width="7.06775" height="7.06776" fill="#86B2FF"/>
<rect x="162.842" y="32.1357" width="7.06775" height="7.06776" fill="#86B2FF"/>
<rect x="161.193" y="30.0154" width="10.1304" height="10.1305" stroke="#86B2FF" stroke-width="0.471184"/>
</svg>
