<svg width="182" height="48" viewBox="0 0 182 48" fill="none" xmlns="http://www.w3.org/2000/svg">
<rect width="182" height="48" rx="10" fill="#171717"/>
<path d="M158 0H24C10.7452 0 0 10.7452 0 24C0 37.2548 10.7452 48 24 48H158C171.255 48 182 37.2548 182 24C182 10.7452 171.255 0 158 0Z" fill="#171717"/>
<path d="M73.1848 15.0566C73.1848 15.7928 72.9715 16.3791 72.5445 16.8165C72.0594 17.3366 71.4271 17.5968 70.6499 17.5968C69.9055 17.5968 69.2727 17.3331 68.7522 16.8052C68.2309 16.2776 67.9707 15.6233 67.9707 14.8427C67.9707 14.0617 68.2309 13.4078 68.7522 12.8799C69.2727 12.3522 69.9055 12.0883 70.6499 12.0883C71.0192 12.0883 71.3728 12.1621 71.7085 12.3094C72.0442 12.457 72.3135 12.653 72.515 12.8984L72.0617 13.3621C71.7203 12.9451 71.2502 12.7367 70.6499 12.7367C70.107 12.7367 69.6376 12.9317 69.2415 13.322C68.8452 13.7127 68.6472 14.2193 68.6472 14.8427C68.6472 15.4661 68.8452 15.9727 69.2415 16.3634C69.6376 16.7537 70.107 16.9487 70.6499 16.9487C71.2257 16.9487 71.7058 16.7526 72.0902 16.36C72.3397 16.1042 72.484 15.7486 72.5226 15.292H70.6499V14.6587H73.1489C73.173 14.7964 73.1848 14.9285 73.1848 15.0566Z" fill="white"/>
<path d="M73.1848 15.056H73.0988C73.0982 15.7755 72.8927 16.3343 72.4837 16.7538L72.4828 16.7545L72.4824 16.7552C72.0127 17.2573 71.409 17.5073 70.6499 17.5083C69.9254 17.5073 69.319 17.2546 68.8127 16.7425C68.3075 16.2293 68.0576 15.6028 68.0567 14.8421C68.0576 14.0811 68.3075 13.455 68.8127 12.9421C69.319 12.4296 69.9254 12.1766 70.6499 12.1755C71.0081 12.1755 71.3492 12.247 71.6746 12.3894C72.0002 12.5329 72.2575 12.721 72.4492 12.9545L72.515 12.8978L72.4542 12.8357L72.0009 13.2998L72.0617 13.3615L72.1279 13.3053C71.7706 12.8676 71.2691 12.6469 70.6499 12.6482C70.0869 12.6475 69.5916 12.8532 69.182 13.2583C68.7684 13.6647 68.5606 14.1998 68.5613 14.8421C68.5606 15.4844 68.7684 16.0195 69.182 16.4259C69.5916 16.8311 70.0869 17.0367 70.6499 17.036C71.2448 17.037 71.7518 16.8307 72.151 16.4215C72.4176 16.1482 72.5687 15.7697 72.6083 15.299L72.6163 15.2036H70.7358V14.746H73.1489V14.6581L73.0642 14.6736C73.0878 14.8068 73.0988 14.9334 73.0988 15.056H73.1848H73.2707C73.2707 14.9224 73.2586 14.7852 73.2334 14.6424L73.2207 14.5702H70.5639V15.2914V15.3793H72.5226V15.2914L72.437 15.2839C72.3991 15.7261 72.2614 16.059 72.0295 16.2973C71.6601 16.6735 71.2069 16.8592 70.6499 16.8602C70.1271 16.8595 69.6836 16.6755 69.3012 16.2997C68.9225 15.9251 68.7341 15.447 68.7332 14.8421C68.7341 14.2372 68.9225 13.7591 69.3012 13.3846C69.6836 13.0087 70.1271 12.8247 70.6499 12.824C71.2311 12.8254 71.6699 13.0217 71.9959 13.4182L72.0564 13.4917L72.5758 12.9599L72.6314 12.903L72.5807 12.8415C72.3696 12.5841 72.0882 12.3798 71.7424 12.2281C71.3959 12.076 71.0303 11.9998 70.6499 11.9998C69.8858 11.9991 69.2264 12.2737 68.6915 12.8171C68.1546 13.3595 67.8841 14.0413 67.8848 14.8421C67.8841 15.6426 68.1546 16.3247 68.6918 16.8674C69.2264 17.4105 69.8858 17.6848 70.6499 17.6841C71.4456 17.6848 72.1057 17.4146 72.6066 16.8767L72.5445 16.8159L72.6052 16.8781C73.0505 16.4232 73.2714 15.8088 73.2707 15.056H73.1848Z" fill="white"/>
<path d="M77.1472 12.8541H74.7987V14.5259H76.9166V15.1595H74.7987V16.8313H77.1472V17.479H74.1367V12.2063H77.1472V12.8541Z" fill="white"/>
<path d="M77.1468 12.8536V12.7657H74.7124V14.6133H76.8303V15.0708L74.7124 15.0711V16.9187H77.0609V17.3907H74.2222V12.2937H77.0609V12.8536H77.1468V12.7657V12.8536H77.2328V12.2059V12.118H74.0503V17.5664H77.2328V16.8308V16.7429H74.8843V15.2469H77.0022V14.5254V14.4375H74.8843V12.9415H77.2328V12.8536H77.1468Z" fill="white"/>
<path d="M79.9413 17.479H79.2782V12.8541H77.8379V12.2063H81.3817V12.8541H79.9413V17.479Z" fill="white"/>
<path d="M79.9409 17.4785V17.3907H79.3638V12.7657H77.9234V12.2937H81.2953V12.7657H79.855V17.4785H79.9409V17.3907V17.4785H80.0269V12.9415H81.4672V12.2059V12.118H77.7515V12.8536V12.9415H79.1919V17.5664H79.9409H80.0269V17.4785H79.9409Z" fill="white"/>
<path d="M83.9458 17.479V12.2063H84.6082V17.479H83.9458Z" fill="white"/>
<path d="M83.9459 17.4785H84.0318V12.2937H84.5223V17.3907H83.9459V17.4785H84.0318H83.9459V17.5664H84.6083H84.6942V12.118H83.9459H83.8599V17.5664H83.9459V17.4785Z" fill="white"/>
<path d="M87.5481 17.479H86.885V12.8541H85.4448V12.2063H88.9885V12.8541H87.5481V17.479Z" fill="white"/>
<path d="M87.5472 17.4785V17.3907H86.97V12.7657H85.5298V12.2937H88.9016V12.7657H87.4612V17.4785H87.5472V17.3907V17.4785H87.6331V12.9415H89.0735V12.2059V12.118H85.3579V12.8536V12.9415H86.7981V17.5664H87.5472H87.6331V17.4785H87.5472Z" fill="white"/>
<path d="M92.4047 16.3562C92.7864 16.7513 93.2535 16.9487 93.8058 16.9487C94.3581 16.9487 94.8254 16.7513 95.2065 16.3562C95.5886 15.9611 95.78 15.4561 95.78 14.8427C95.78 14.2293 95.5886 13.7243 95.2065 13.3292C94.8254 12.9341 94.3581 12.7367 93.8058 12.7367C93.2535 12.7367 92.7864 12.9341 92.4047 13.3292C92.0236 13.7243 91.8323 14.2293 91.8323 14.8427C91.8323 15.4561 92.0236 15.9611 92.4047 16.3562ZM95.6967 16.7976C95.1897 17.3307 94.5591 17.5968 93.8058 17.5968C93.0516 17.5968 92.4215 17.3307 91.9156 16.7976C91.4082 16.2652 91.1558 15.6134 91.1558 14.8427C91.1558 14.072 91.4082 13.4201 91.9156 12.8878C92.4215 12.3546 93.0516 12.0883 93.8058 12.0883C94.5552 12.0883 95.184 12.356 95.6933 12.8912C96.202 13.4264 96.4565 14.0768 96.4565 14.8427C96.4565 15.6134 96.2026 16.2652 95.6967 16.7976Z" fill="white"/>
<path d="M92.4047 16.3556L92.3436 16.4174C92.7394 16.8283 93.2333 17.037 93.8057 17.036C94.3778 17.037 94.8724 16.8283 95.2676 16.4174C95.6661 16.0061 95.8665 15.474 95.8659 14.8421C95.8665 14.2102 95.6661 13.6781 95.2676 13.2668C94.8724 12.8559 94.3778 12.6472 93.8057 12.6482C93.2333 12.6472 92.7394 12.8559 92.3436 13.2668C91.946 13.6781 91.7453 14.2102 91.7463 14.8421C91.7453 15.474 91.946 16.0061 92.3436 16.4174L92.4047 16.3556L92.4658 16.2939C92.1012 15.9145 91.9189 15.4373 91.9182 14.8421C91.9189 14.2469 92.1012 13.7697 92.4658 13.3904C92.8337 13.0111 93.2732 12.8251 93.8057 12.824C94.3379 12.8251 94.7784 13.0111 95.1454 13.3904C95.5107 13.7697 95.693 14.2469 95.6936 14.8421C95.693 15.4373 95.5107 15.9145 95.1454 16.2939C94.7784 16.6731 94.3379 16.8592 93.8057 16.8602C93.2732 16.8592 92.8337 16.6731 92.4658 16.2939L92.4047 16.3556ZM95.6967 16.797L95.6352 16.736C95.1424 17.2522 94.5397 17.5073 93.8057 17.5083C93.0715 17.5073 92.4688 17.2522 91.9769 16.736L91.9746 16.7332L91.9769 16.736C91.4851 16.2179 91.2424 15.5932 91.2417 14.8421C91.2424 14.091 91.4851 13.4663 91.9769 12.9483C92.4688 12.432 93.0715 12.1766 93.8057 12.1755C94.535 12.1766 95.1363 12.433 95.6319 12.952C96.1254 13.4724 96.3695 14.0962 96.3705 14.8421C96.3695 15.5932 96.1261 16.2179 95.6352 16.736L95.6967 16.797L95.7585 16.8581C96.2795 16.311 96.543 15.6323 96.5424 14.8421C96.543 14.0564 96.2785 13.3791 95.755 12.8295C95.2313 12.2778 94.5753 11.9988 93.8057 11.9998C93.0322 11.9988 92.3742 12.2765 91.8537 12.8261V12.8258C91.3317 13.3732 91.0691 14.0519 91.0698 14.8421C91.0691 15.6323 91.3317 16.311 91.8537 16.8585L91.8561 16.8609L91.8537 16.8581C92.3742 17.4077 93.0322 17.6848 93.8057 17.6841C94.579 17.6848 95.237 17.4077 95.7585 16.8581L95.6967 16.797Z" fill="white"/>
<path d="M97.3867 17.479V12.2063H98.1931L100.699 16.3081H100.728L100.699 15.292V12.2063H101.362V17.479H100.671L98.0487 13.1784H98.0202L98.0487 14.1949V17.479H97.3867Z" fill="white"/>
<path d="M97.3858 17.4785H97.4717V12.2937H98.1445L100.651 16.3955H100.727H100.815L100.784 15.2902V12.2937H101.276V17.3907H100.718L98.0955 13.0901H98.0193H97.931L97.9619 14.1958V17.3907H97.3858V17.4785H97.4717H97.3858V17.5664H98.0478H98.1338V14.193L98.1052 13.1756L98.0193 13.178V13.2658H98.0478V13.178L97.9749 13.2247L100.622 17.5664H101.362H101.448V12.118H100.699H100.613V15.2926L100.641 16.31L100.727 16.3076V16.2198H100.699V16.3076L100.771 16.261L98.2398 12.118H97.3858H97.2998V17.5664H97.3858V17.4785Z" fill="white"/>
<path d="M124.341 32.4179H125.945V21.4321H124.341V32.4179ZM138.787 25.3895L136.948 30.1523H136.893L134.985 25.3895H133.258L136.119 32.0465L134.487 35.7494H136.161L140.57 25.3895H138.787ZM129.691 31.1701C129.165 31.1701 128.433 30.9017 128.433 30.2371C128.433 29.3892 129.346 29.0642 130.133 29.0642C130.839 29.0642 131.17 29.2196 131.599 29.4318C131.474 30.4493 130.617 31.1701 129.691 31.1701ZM129.885 25.1491C128.724 25.1491 127.521 25.6722 127.024 26.8312L128.447 27.4388C128.751 26.8312 129.318 26.6331 129.912 26.6331C130.742 26.6331 131.585 27.1422 131.599 28.0467V28.1596C131.308 27.99 130.687 27.7357 129.926 27.7357C128.392 27.7357 126.829 28.5976 126.829 30.2089C126.829 31.6789 128.088 32.6259 129.497 32.6259C130.576 32.6259 131.17 32.1313 131.544 31.5519H131.599V32.3997H133.147V28.1878C133.147 26.2377 131.723 25.1491 129.885 25.1491ZM119.973 26.7268H117.692V22.9611H119.973C121.172 22.9611 121.853 23.9761 121.853 24.8439C121.853 25.6953 121.172 26.7268 119.973 26.7268ZM119.932 21.4321H116.089V32.4179H117.692V28.2558H119.932C121.709 28.2558 123.457 26.94 123.457 24.8439C123.457 22.7479 121.709 21.4321 119.932 21.4321ZM98.9761 31.1722C97.8681 31.1722 96.9404 30.2237 96.9404 28.921C96.9404 27.6046 97.8681 26.6417 98.9761 26.6417C100.07 26.6417 100.929 27.6046 100.929 28.921C100.929 30.2237 100.07 31.1722 98.9761 31.1722ZM100.818 26.0046H100.762C100.403 25.5658 99.7097 25.1694 98.8374 25.1694C97.0096 25.1694 95.3343 26.8116 95.3343 28.921C95.3343 31.0164 97.0096 32.6445 98.8374 32.6445C99.7097 32.6445 100.403 32.248 100.762 31.7952H100.818V32.3331C100.818 33.7632 100.07 34.5277 98.8653 34.5277C97.8822 34.5277 97.2729 33.8054 97.0234 33.1968L95.6251 33.7914C96.0266 34.7824 97.0929 36 98.8653 36C100.749 36 102.341 34.8672 102.341 32.1066V25.396H100.818V26.0046ZM103.449 32.4179H105.055V21.4318H103.449V32.4179ZM107.423 28.7937C107.381 27.3495 108.517 26.6135 109.334 26.6135C109.971 26.6135 110.511 26.9389 110.69 27.4065L107.423 28.7937ZM112.408 27.5479C112.103 26.7124 111.175 25.1694 109.278 25.1694C107.395 25.1694 105.83 26.6842 105.83 28.9069C105.83 31.0023 107.381 32.6445 109.458 32.6445C111.134 32.6445 112.103 31.5968 112.505 30.9882L111.259 30.1385C110.843 30.7616 110.275 31.1722 109.458 31.1722C108.641 31.1722 108.06 30.7898 107.686 30.0397L112.574 27.9725L112.408 27.5479ZM73.465 26.3162V27.9018H77.1759C77.0651 28.7937 76.7744 29.4448 76.3312 29.8979C75.7913 30.4503 74.9466 31.0589 73.465 31.0589C71.1802 31.0589 69.3941 29.176 69.3941 26.8401C69.3941 24.5041 71.1802 22.621 73.465 22.621C74.6975 22.621 75.5973 23.1166 76.262 23.7537L77.3559 22.6354C76.4282 21.7291 75.1957 21.0354 73.465 21.0354C70.3355 21.0354 67.7046 23.6404 67.7046 26.8401C67.7046 30.0397 70.3355 32.6445 73.465 32.6445C75.1545 32.6445 76.4282 32.0785 77.4251 31.0164C78.4498 29.9687 78.7684 28.4964 78.7684 27.3073C78.7684 26.9389 78.7408 26.5994 78.6851 26.3162H73.465ZM82.9874 31.1722C81.8794 31.1722 80.9239 30.2378 80.9239 28.9069C80.9239 27.562 81.8794 26.6417 82.9874 26.6417C84.0949 26.6417 85.0504 27.562 85.0504 28.9069C85.0504 30.2378 84.0949 31.1722 82.9874 31.1722ZM82.9874 25.1694C80.9655 25.1694 79.3176 26.7408 79.3176 28.9069C79.3176 31.0589 80.9655 32.6445 82.9874 32.6445C85.0088 32.6445 86.6567 31.0589 86.6567 28.9069C86.6567 26.7408 85.0088 25.1694 82.9874 25.1694ZM90.9921 31.1722C89.8845 31.1722 88.9289 30.2378 88.9289 28.9069C88.9289 27.562 89.8845 26.6417 90.9921 26.6417C92.0997 26.6417 93.0552 27.562 93.0552 28.9069C93.0552 30.2378 92.0997 31.1722 90.9921 31.1722ZM90.9921 25.1694C88.9703 25.1694 87.3228 26.7408 87.3228 28.9069C87.3228 31.0589 88.9703 32.6445 90.9921 32.6445C93.0136 32.6445 94.6615 31.0589 94.6615 28.9069C94.6615 26.7408 93.0136 25.1694 90.9921 25.1694Z" fill="white"/>
<path d="M41.4616 34.5181L41.3978 34.4556C41.1477 34.185 41 33.7649 41 33.2208V33.3489V13.9138C41 13.912 41 13.9107 41 13.9093C41 13.911 41 13.9124 41 13.9141V14.0425C41 13.4534 41.1722 13.0096 41.4606 12.7435L52.1097 23.6311L41.4616 34.5181ZM41 13.9083C41 13.8598 41.0013 13.8128 41.0037 13.7665C41.0013 13.8125 41 13.8598 41 13.9083ZM41.0037 13.7644C41.0037 13.7638 41.0037 13.7631 41.004 13.7624C41.0037 13.7631 41.0037 13.7638 41.0037 13.7644ZM41.004 13.7582C41.004 13.7579 41.004 13.7575 41.004 13.7572C41.004 13.7575 41.004 13.7579 41.004 13.7582Z" fill="url(#paint0_linear_287_5349)"/>
<path d="M55.6591 27.3901L55.74 27.3431L59.9455 24.9C60.3464 24.667 60.6137 24.3845 60.747 24.0855C60.614 24.3845 60.3467 24.6673 59.9455 24.9004L55.74 27.3435L55.6591 27.3901ZM55.6601 27.2614L52.1099 23.631L55.6597 20.0012L59.9455 22.4906C60.4897 22.8068 60.7953 23.2143 60.8463 23.6306C60.8463 23.631 60.8463 23.6317 60.8463 23.6323C60.7953 24.0477 60.4897 24.4555 59.9455 24.7716L55.6601 27.2614Z" fill="url(#paint1_linear_287_5349)"/>
<path d="M42.2219 34.9321C41.9244 34.9321 41.6648 34.8333 41.4624 34.6465L41.4627 34.6462C41.6652 34.8329 41.9251 34.9321 42.2225 34.9321C42.2483 34.9321 42.2745 34.9314 42.3011 34.9301C42.2742 34.9314 42.2476 34.9321 42.2219 34.9321ZM42.2222 34.8034C41.9247 34.8037 41.6652 34.7045 41.4627 34.5178V34.5175L52.1108 23.6306L55.6609 27.261L43.1851 34.5086C42.8399 34.7087 42.5129 34.8034 42.2222 34.8034ZM41.4597 34.6442C41.4409 34.6267 41.4224 34.6081 41.4043 34.5889L41.4597 34.6442Z" fill="url(#paint2_linear_287_5349)"/>
<path d="M52.1096 23.6309L41.4604 12.7432C41.6629 12.5569 41.9221 12.458 42.2192 12.458C42.5107 12.458 42.838 12.5531 43.1838 12.7535L55.6594 20.0011L52.1096 23.6309ZM55.7397 19.9191L43.1838 12.6252C42.838 12.4247 42.5107 12.3296 42.2192 12.3296C42.2178 12.3296 42.2169 12.3296 42.2155 12.3296C42.2172 12.3296 42.2185 12.3296 42.2206 12.3296C42.5114 12.3296 42.8383 12.4243 43.1838 12.6249L55.7397 19.9191Z" fill="url(#paint3_linear_287_5349)"/>
<path d="M42.3006 34.9302C42.5708 34.9144 42.87 34.8193 43.1846 34.637L55.6594 27.3898L43.1846 34.637C42.8703 34.8196 42.5708 34.9144 42.3006 34.9302ZM41.4619 34.6466L41.4592 34.6442C41.4602 34.6449 41.4612 34.6459 41.4619 34.6466ZM41.4038 34.5889L41.3984 34.5835V34.5831C41.4005 34.5852 41.4021 34.5872 41.4038 34.5889Z" fill="white"/>
<path d="M55.6592 27.3901L55.7402 27.3431L55.6592 27.3901Z" fill="url(#paint4_linear_287_5349)"/>
<path d="M42.2216 34.9321C41.9241 34.9321 41.6642 34.8329 41.4618 34.6462L41.4615 34.6465C41.4608 34.6458 41.4598 34.6449 41.4589 34.6442L41.4035 34.5889C41.4017 34.5871 41.4 34.5851 41.3979 34.5831L41.4618 34.5178C41.6642 34.7045 41.9238 34.8037 42.2213 34.8034C42.512 34.8034 42.839 34.7087 43.1842 34.5086L55.66 27.261L55.7399 27.3427L55.659 27.3897L43.1842 34.6369C42.8696 34.8192 42.5705 34.9143 42.3003 34.9301C42.2737 34.9314 42.2474 34.9321 42.2216 34.9321Z" fill="url(#paint5_linear_287_5349)"/>
<path d="M41.3983 34.5835C41.1482 34.3129 41.0005 33.8928 41.0005 33.3487V33.3484C41.0005 33.8928 41.1482 34.3126 41.3983 34.5831V34.5835Z" fill="white"/>
<path d="M41.3978 34.5835C41.1477 34.3129 41 33.8931 41 33.3487V33.2207C41 33.7647 41.1477 34.1849 41.3978 34.4555L41.4616 34.5179L41.3978 34.5835Z" fill="url(#paint6_linear_287_5349)"/>
<path d="M41.3979 34.5835L41.4613 34.5171V34.5174L41.3979 34.5835Z" fill="url(#paint7_linear_287_5349)"/>
<path d="M60.7471 24.0854C60.8132 23.9371 60.8464 23.7847 60.8464 23.6323C60.8464 23.632 60.8464 23.6316 60.8464 23.6316C60.8464 23.7844 60.8132 23.9368 60.7471 24.0854Z" fill="white"/>
<path d="M55.7401 27.3433L55.6602 27.2615L59.9456 24.7718C60.4898 24.4557 60.7954 24.0478 60.8464 23.6324C60.8464 23.7849 60.8132 23.9373 60.7471 24.0856C60.6138 24.3846 60.3466 24.6671 59.9456 24.9002L55.7401 27.3433Z" fill="url(#paint8_linear_287_5349)"/>
<path d="M60.846 23.6309V23.6305C60.8456 23.1708 60.5451 22.7112 59.9451 22.3624L55.7396 19.9193H55.7393L55.7396 19.9191L59.9451 22.3621C60.5458 22.7109 60.8466 23.1712 60.846 23.6309Z" fill="white"/>
<path d="M60.8458 23.6309C60.7947 23.2145 60.4892 22.807 59.945 22.4908L55.6592 20.0014L55.7392 19.9197H55.7395L59.945 22.3628C60.545 22.7116 60.8455 23.1712 60.8458 23.6309Z" fill="url(#paint9_linear_287_5349)"/>
<path d="M41.0005 13.9092C41.0005 13.9088 41.0005 13.9085 41.0005 13.9081C41.0005 13.9085 41.0005 13.9088 41.0005 13.9092ZM41.0042 13.7664C41.0042 13.7657 41.0042 13.765 41.0042 13.7643C41.0042 13.765 41.0042 13.7657 41.0042 13.7664ZM41.0044 13.7622C41.0044 13.7608 41.0044 13.7595 41.0044 13.7581C41.0044 13.7595 41.0044 13.7608 41.0044 13.7622ZM41.0044 13.7571C41.0542 12.8543 41.5343 12.3328 42.2135 12.3297C41.919 12.3315 41.6626 12.4304 41.4618 12.6154V12.615L41.4594 12.6175C41.4382 12.637 41.4181 12.6576 41.3983 12.6789C41.1726 12.9229 41.0303 13.2885 41.0044 13.7571Z" fill="white"/>
<path d="M41 14.042V13.9136C41 13.9118 41 13.9104 41 13.9088C41 13.9084 41 13.9081 41 13.9077C41 13.8593 41.0013 13.8119 41.0037 13.766C41.0037 13.7653 41.0037 13.7646 41.0037 13.7639C41.0037 13.7632 41.0037 13.7625 41.004 13.7618C41.004 13.7604 41.004 13.7591 41.004 13.7577C41.004 13.7574 41.004 13.757 41.004 13.7567C41.0298 13.2881 41.1722 12.9225 41.3978 12.6785L41.4606 12.743C41.1722 13.0091 41 13.4529 41 14.042ZM41.4589 12.6171L41.4613 12.6146C41.4606 12.6156 41.4596 12.6163 41.4589 12.6171Z" fill="url(#paint10_linear_287_5349)"/>
<path d="M55.6597 20.001L43.1842 12.7534C42.8383 12.553 42.5111 12.4579 42.2196 12.4579C41.9225 12.4579 41.6632 12.5568 41.4608 12.7431L41.3979 12.6786C41.4178 12.6574 41.4379 12.6367 41.4591 12.6172C41.4597 12.6165 41.4608 12.6158 41.4615 12.6151C41.6622 12.4301 41.9187 12.3313 42.2132 12.3295C42.2139 12.3295 42.2149 12.3295 42.216 12.3295C42.2172 12.3295 42.2183 12.3295 42.2196 12.3295C42.5111 12.3295 42.8383 12.4246 43.1842 12.6251L55.7399 19.919L55.7397 19.9193L55.6597 20.001Z" fill="url(#paint11_linear_287_5349)"/>
<defs>
<linearGradient id="paint0_linear_287_5349" x1="51.1654" y1="13.7088" x2="36.421" y2="28.1298" gradientUnits="userSpaceOnUse">
<stop stop-color="#00A0FF"/>
<stop offset="0.00657445" stop-color="#00A1FF"/>
<stop offset="0.2601" stop-color="#00BEFF"/>
<stop offset="0.5122" stop-color="#00D2FF"/>
<stop offset="0.7604" stop-color="#00DFFF"/>
<stop offset="1" stop-color="#00E3FF"/>
</linearGradient>
<linearGradient id="paint1_linear_287_5349" x1="61.5094" y1="23.6315" x2="40.712" y2="23.6315" gradientUnits="userSpaceOnUse">
<stop stop-color="#FFE000"/>
<stop offset="0.4087" stop-color="#FFBD00"/>
<stop offset="0.7754" stop-color="#FFA500"/>
<stop offset="1" stop-color="#FF9C00"/>
</linearGradient>
<linearGradient id="paint2_linear_287_5349" x1="53.7684" y1="25.6477" x2="33.7738" y2="45.2037" gradientUnits="userSpaceOnUse">
<stop stop-color="#FF3A44"/>
<stop offset="1" stop-color="#C31162"/>
</linearGradient>
<linearGradient id="paint3_linear_287_5349" x1="38.7003" y1="6.20943" x2="47.6287" y2="14.942" gradientUnits="userSpaceOnUse">
<stop stop-color="#32A071"/>
<stop offset="0.0685" stop-color="#2DA771"/>
<stop offset="0.4762" stop-color="#15CF74"/>
<stop offset="0.8009" stop-color="#06E775"/>
<stop offset="1" stop-color="#00F076"/>
</linearGradient>
<linearGradient id="paint4_linear_287_5349" x1="61.5094" y1="23.6314" x2="40.7126" y2="23.6314" gradientUnits="userSpaceOnUse">
<stop stop-color="#CCB300"/>
<stop offset="0.4087" stop-color="#CC9700"/>
<stop offset="0.7754" stop-color="#CC8400"/>
<stop offset="1" stop-color="#CC7D00"/>
</linearGradient>
<linearGradient id="paint5_linear_287_5349" x1="53.7675" y1="25.6477" x2="33.773" y2="45.2037" gradientUnits="userSpaceOnUse">
<stop stop-color="#CC2E36"/>
<stop offset="1" stop-color="#9C0E4E"/>
</linearGradient>
<linearGradient id="paint6_linear_287_5349" x1="51.1654" y1="13.7086" x2="36.4209" y2="28.1297" gradientUnits="userSpaceOnUse">
<stop stop-color="#008DE0"/>
<stop offset="0.00657445" stop-color="#008DE0"/>
<stop offset="0.2601" stop-color="#00A7E0"/>
<stop offset="0.5122" stop-color="#00B8E0"/>
<stop offset="0.7604" stop-color="#00C4E0"/>
<stop offset="1" stop-color="#00C7E0"/>
</linearGradient>
<linearGradient id="paint7_linear_287_5349" x1="53.6654" y1="25.5404" x2="33.443" y2="44.9222" gradientUnits="userSpaceOnUse">
<stop stop-color="#E0333C"/>
<stop offset="1" stop-color="#AB0F56"/>
</linearGradient>
<linearGradient id="paint8_linear_287_5349" x1="61.5095" y1="23.6317" x2="40.7122" y2="23.6317" gradientUnits="userSpaceOnUse">
<stop stop-color="#E0C500"/>
<stop offset="0.4087" stop-color="#E0A600"/>
<stop offset="0.7754" stop-color="#E09100"/>
<stop offset="1" stop-color="#E08900"/>
</linearGradient>
<linearGradient id="paint9_linear_287_5349" x1="61.5089" y1="23.6317" x2="40.7115" y2="23.6317" gradientUnits="userSpaceOnUse">
<stop stop-color="#FFE840"/>
<stop offset="0.4087" stop-color="#FFCE40"/>
<stop offset="0.7754" stop-color="#FFBC40"/>
<stop offset="1" stop-color="#FFB540"/>
</linearGradient>
<linearGradient id="paint10_linear_287_5349" x1="51.1654" y1="13.7082" x2="36.4209" y2="28.1293" gradientUnits="userSpaceOnUse">
<stop stop-color="#40B8FF"/>
<stop offset="0.00657445" stop-color="#40B9FF"/>
<stop offset="0.2601" stop-color="#40CEFF"/>
<stop offset="0.5122" stop-color="#40DDFF"/>
<stop offset="0.7604" stop-color="#40E7FF"/>
<stop offset="1" stop-color="#40EAFF"/>
</linearGradient>
<linearGradient id="paint11_linear_287_5349" x1="38.7007" y1="6.20931" x2="47.629" y2="14.9419" gradientUnits="userSpaceOnUse">
<stop stop-color="#65B895"/>
<stop offset="0.0685" stop-color="#62BD95"/>
<stop offset="0.4762" stop-color="#50DB97"/>
<stop offset="0.8009" stop-color="#44ED98"/>
<stop offset="1" stop-color="#40F498"/>
</linearGradient>
</defs>
</svg>
