<svg width="271" height="36" viewBox="0 0 271 36" fill="none" xmlns="http://www.w3.org/2000/svg">
<path d="M24.9807 27.9464L32.9692 14.0801L30.8586 10.3931L23.2441 23.6182C23.0036 24.0189 22.5762 24.2861 22.0953 24.2861H14.9083C14.561 24.2861 14.2136 24.1525 13.9732 23.912C13.7327 23.6716 13.5724 23.3243 13.5724 22.9769C13.5724 22.7365 13.6259 22.5227 13.7594 22.309L23.164 5.98469L18.9159 6.01141L10.5801 20.5189C10.3396 20.9464 9.91214 21.1869 9.43123 21.1869C8.95032 21.1869 8.52284 20.9464 8.28238 20.5189L4.64882 14.2404C4.54195 14.0266 4.4618 13.8129 4.4618 13.5724C4.4618 13.332 4.51523 13.1182 4.64882 12.9045L12.0228 0L7.77475 0.0267174L0 13.5457L8.33582 27.9464H24.9807Z" fill="#0962FF"/>
<path d="M31.7669 0.0269197L15.1219 0.0536371L7.13346 13.9199L9.24413 17.6069L16.8319 4.40857C17.0723 4.00781 17.4998 3.74063 17.9807 3.74063H25.1677C25.515 3.74063 25.8623 3.87422 26.1028 4.11468C26.3432 4.35513 26.5035 4.70246 26.5035 5.04978C26.5035 5.29024 26.4501 5.50398 26.3165 5.71772L16.912 22.042L21.1601 22.0153L29.4959 7.50778C29.7363 7.0803 30.1638 6.83985 30.6447 6.83985C31.1257 6.83985 31.5531 7.0803 31.7936 7.50778L35.4271 13.7864C35.534 14.0001 35.6142 14.2138 35.6142 14.4543C35.6142 14.6948 35.5607 14.9085 35.4271 15.1222L28.0264 28L32.2745 27.9733L40.1294 14.4276L31.7669 0.0269197Z" fill="#0962FF"/>
<path d="M56.2202 2.52L60.7922 14.94L65.4722 2.52H71.0522V27H67.0922V7.524L62.0882 22.464H59.7842L54.5642 7.56V27H50.6042V2.52H56.2202ZM78.9809 27.36L73.9409 9.36H78.4769L81.1409 22.752L83.6969 9.36H88.2329L82.5089 29.808C82.0289 31.536 81.1169 32.844 79.7729 33.732C78.4529 34.62 76.8329 35.088 74.9129 35.136L74.4449 31.788C74.8289 31.764 75.2249 31.68 75.6329 31.536C76.0649 31.416 76.4609 31.248 76.8209 31.032C77.2049 30.84 77.5289 30.6 77.7929 30.312C78.0809 30.048 78.2849 29.748 78.4049 29.412L78.9809 27.36ZM107.196 9C108.204 9 109.044 9.084 109.716 9.252C110.388 9.42 110.928 9.708 111.336 10.116C111.744 10.524 112.032 11.064 112.2 11.736C112.392 12.408 112.488 13.236 112.488 14.22V27H108.024V15.048C108.024 14.64 108.012 14.304 107.988 14.04C107.964 13.752 107.892 13.536 107.772 13.392C107.652 13.224 107.472 13.116 107.232 13.068C106.992 12.996 106.668 12.96 106.26 12.96C105.3 12.96 104.676 13.284 104.388 13.932C104.1 14.58 103.956 15.384 103.956 16.344V27H99.4922V15.048C99.4922 14.616 99.4802 14.268 99.4562 14.004C99.4322 13.716 99.3602 13.488 99.2402 13.32C99.1202 13.128 98.9402 12.996 98.7002 12.924C98.4842 12.852 98.1602 12.816 97.7282 12.816C97.2962 12.816 96.9242 12.948 96.6122 13.212C96.3242 13.452 96.0722 13.776 95.8562 14.184C95.6642 14.568 95.5202 15 95.4242 15.48C95.3522 15.936 95.3162 16.368 95.3162 16.776V27H90.8522V9.36H94.6682L94.9562 11.268C95.4362 10.572 96.0122 10.02 96.6842 9.612C97.3802 9.204 98.1482 9 98.9882 9C100.068 9 100.932 9.156 101.58 9.468C102.252 9.78 102.804 10.428 103.236 11.412C103.668 10.716 104.208 10.14 104.856 9.684C105.528 9.228 106.308 9 107.196 9ZM122.639 9C123.575 9 124.463 9.132 125.303 9.396C126.143 9.66 126.875 10.056 127.499 10.584C128.147 11.112 128.651 11.76 129.011 12.528C129.371 13.272 129.551 14.148 129.551 15.156V21.168C129.551 22.176 129.371 23.064 129.011 23.832C128.675 24.6 128.195 25.248 127.571 25.776C126.971 26.28 126.251 26.676 125.411 26.964C124.595 27.228 123.695 27.36 122.711 27.36C121.703 27.36 120.767 27.228 119.903 26.964C119.039 26.7 118.283 26.304 117.635 25.776C117.011 25.248 116.519 24.6 116.159 23.832C115.823 23.064 115.655 22.176 115.655 21.168V15.156C115.655 14.148 115.835 13.272 116.195 12.528C116.555 11.76 117.047 11.112 117.671 10.584C118.295 10.056 119.027 9.66 119.867 9.396C120.731 9.132 121.655 9 122.639 9ZM125.087 15.12C125.087 14.208 124.895 13.62 124.511 13.356C124.151 13.092 123.527 12.96 122.639 12.96C121.823 12.96 121.199 13.14 120.767 13.5C120.335 13.836 120.119 14.388 120.119 15.156V21.132C120.119 22.092 120.299 22.716 120.659 23.004C121.043 23.268 121.727 23.4 122.711 23.4C123.479 23.4 124.067 23.232 124.475 22.896C124.883 22.56 125.087 21.984 125.087 21.168V15.12ZM141.394 8.964C143.41 8.964 144.814 9.48 145.606 10.512C146.398 11.52 146.794 13.044 146.794 15.084V27H142.33V15.84C142.33 15.024 142.186 14.328 141.898 13.752C141.634 13.176 141.094 12.888 140.278 12.888C139.846 12.888 139.45 12.996 139.09 13.212C138.754 13.404 138.454 13.668 138.19 14.004C137.95 14.34 137.758 14.724 137.614 15.156C137.47 15.564 137.398 15.984 137.398 16.416V27H132.934V9.36H136.93L137.29 11.196C137.794 10.428 138.358 9.864 138.982 9.504C139.63 9.144 140.434 8.964 141.394 8.964ZM157.526 23.4C158.294 23.4 158.954 23.232 159.506 22.896C160.082 22.56 160.682 22.08 161.306 21.456L163.61 24.3C162.674 25.308 161.714 26.076 160.73 26.604C159.77 27.108 158.618 27.36 157.274 27.36C154.946 27.36 153.146 26.868 151.874 25.884C150.626 24.9 150.002 23.244 150.002 20.916V15.12C150.002 13.08 150.614 11.556 151.838 10.548C153.086 9.516 154.754 9 156.842 9C157.778 9 158.642 9.144 159.434 9.432C160.226 9.72 160.898 10.128 161.45 10.656C162.026 11.184 162.47 11.832 162.782 12.6C163.094 13.368 163.25 14.22 163.25 15.156V18.396L154.358 19.98V20.916C154.358 21.804 154.658 22.44 155.258 22.824C155.882 23.208 156.638 23.4 157.526 23.4ZM156.878 12.996C156.11 12.996 155.498 13.176 155.042 13.536C154.586 13.872 154.358 14.4 154.358 15.12V17.064L158.858 16.272V15.228C158.858 14.532 158.702 13.992 158.39 13.608C158.078 13.2 157.574 12.996 156.878 12.996ZM170.282 27.36L165.242 9.36H169.778L172.442 22.752L174.998 9.36H179.534L173.81 29.808C173.33 31.536 172.418 32.844 171.074 33.732C169.754 34.62 168.134 35.088 166.214 35.136L165.746 31.788C166.13 31.764 166.526 31.68 166.934 31.536C167.366 31.416 167.762 31.248 168.122 31.032C168.506 30.84 168.83 30.6 169.094 30.312C169.382 30.048 169.586 29.748 169.706 29.412L170.282 27.36ZM181.901 22.14H186.509V27H181.901V22.14ZM196.246 12.96C194.782 12.96 194.05 13.692 194.05 15.156V21.204C194.05 21.996 194.254 22.56 194.662 22.896C195.094 23.232 195.706 23.4 196.498 23.4C197.146 23.4 197.734 23.292 198.262 23.076C198.79 22.836 199.27 22.44 199.702 21.888L202.33 24.66C201.442 25.596 200.53 26.28 199.594 26.712C198.682 27.144 197.578 27.36 196.282 27.36C194.266 27.36 192.658 26.844 191.458 25.812C190.282 24.756 189.694 23.22 189.694 21.204V15.156C189.694 14.22 189.85 13.38 190.162 12.636C190.498 11.868 190.954 11.22 191.53 10.692C192.106 10.14 192.79 9.72 193.582 9.432C194.398 9.144 195.286 9 196.246 9C197.59 9 198.742 9.216 199.702 9.648C200.662 10.056 201.562 10.848 202.402 12.024L199.594 14.796C199.138 14.244 198.634 13.8 198.082 13.464C197.53 13.128 196.918 12.96 196.246 12.96ZM212.593 9.108C213.145 9.108 213.541 9.156 213.781 9.252C214.021 9.324 214.273 9.432 214.537 9.576L213.781 13.572C213.109 13.236 212.497 13.068 211.945 13.068C211.297 13.068 210.769 13.296 210.361 13.752C209.977 14.208 209.785 14.904 209.785 15.84V27H205.429V9.36H208.669L209.173 11.232C209.653 10.416 210.169 9.864 210.721 9.576C211.297 9.264 211.921 9.108 212.593 9.108ZM223.48 23.4C224.248 23.4 224.908 23.232 225.46 22.896C226.036 22.56 226.636 22.08 227.26 21.456L229.564 24.3C228.628 25.308 227.668 26.076 226.684 26.604C225.724 27.108 224.572 27.36 223.228 27.36C220.9 27.36 219.1 26.868 217.828 25.884C216.58 24.9 215.956 23.244 215.956 20.916V15.12C215.956 13.08 216.568 11.556 217.792 10.548C219.04 9.516 220.708 9 222.796 9C223.732 9 224.596 9.144 225.388 9.432C226.18 9.72 226.852 10.128 227.404 10.656C227.98 11.184 228.424 11.832 228.736 12.6C229.048 13.368 229.204 14.22 229.204 15.156V18.396L220.312 19.98V20.916C220.312 21.804 220.612 22.44 221.212 22.824C221.836 23.208 222.592 23.4 223.48 23.4ZM222.832 12.996C222.064 12.996 221.452 13.176 220.996 13.536C220.54 13.872 220.312 14.4 220.312 15.12V17.064L224.812 16.272V15.228C224.812 14.532 224.656 13.992 224.344 13.608C224.032 13.2 223.528 12.996 222.832 12.996ZM241.347 1.08H245.883V27H242.319L241.707 25.524C241.179 26.028 240.615 26.448 240.015 26.784C239.439 27.12 238.815 27.288 238.143 27.288C234.063 27.288 232.023 25.248 232.023 21.168V15.12C232.023 13.08 232.515 11.544 233.499 10.512C234.507 9.48 236.055 8.964 238.143 8.964C238.527 8.964 238.851 8.988 239.115 9.036C239.403 9.06 239.667 9.132 239.907 9.252C240.147 9.348 240.375 9.492 240.591 9.684C240.807 9.876 241.059 10.116 241.347 10.404V1.08ZM241.419 15.732C241.419 14.892 241.203 14.22 240.771 13.716C240.363 13.188 239.739 12.924 238.899 12.924C238.107 12.924 237.507 13.104 237.099 13.464C236.691 13.8 236.487 14.352 236.487 15.12V21.132C236.487 22.02 236.655 22.608 236.991 22.896C237.327 23.184 237.939 23.328 238.827 23.328C239.619 23.328 240.243 23.076 240.699 22.572C241.179 22.068 241.419 21.408 241.419 20.592V15.732ZM250.332 9.36H254.796V27H250.332V9.36ZM250.332 2.52H254.796V7.056H250.332V2.52ZM265.695 23.292C266.415 23.292 266.991 23.22 267.423 23.076C267.879 22.908 268.335 22.728 268.791 22.536L269.655 25.704C268.911 26.088 268.131 26.448 267.315 26.784C266.523 27.096 265.767 27.252 265.047 27.252C263.319 27.252 262.095 26.94 261.375 26.316C260.655 25.668 260.295 24.48 260.295 22.752V12.42H257.559V9.36H260.331V4.176H264.759V9.36H268.179V12.42H264.759V22.176C264.759 22.44 264.843 22.692 265.011 22.932C265.203 23.172 265.431 23.292 265.695 23.292Z" fill="white"/>
</svg>
