<svg width="358" height="34" viewBox="0 0 358 34" fill="none" xmlns="http://www.w3.org/2000/svg">
<path d="M28.478 32.8025L37.5849 16.9949L35.1787 12.7917L26.4983 27.8683C26.2241 28.3252 25.7368 28.6298 25.1886 28.6298H16.9954C16.5995 28.6298 16.2035 28.4775 15.9294 28.2034C15.6553 27.9293 15.4726 27.5333 15.4726 27.1374C15.4726 26.8632 15.5335 26.6196 15.6858 26.3759L26.4069 7.76621L21.5641 7.79667L12.0613 24.3352C11.7872 24.8226 11.2998 25.0967 10.7516 25.0967C10.2034 25.0967 9.71603 24.8226 9.44191 24.3352L5.29965 17.1777C5.17782 16.934 5.08645 16.6903 5.08645 16.4162C5.08645 16.1421 5.14736 15.8984 5.29965 15.6548L13.706 0.943665L8.86321 0.974122L0 16.3858L9.50283 32.8025H28.478Z" fill="#0061FF"/>
<path d="M36.2139 0.974182L17.2387 1.00464L8.13184 16.8122L10.538 21.0154L19.188 5.96926C19.4621 5.51239 19.9495 5.20781 20.4977 5.20781H28.6908C29.0868 5.20781 29.4827 5.3601 29.7569 5.63422C30.031 5.90834 30.2137 6.30429 30.2137 6.70024C30.2137 6.97436 30.1528 7.21803 30.0005 7.46169L19.2794 26.0714L24.1222 26.0409L33.625 9.50236C33.8991 9.01504 34.3864 8.74092 34.9347 8.74092C35.4829 8.74092 35.9702 9.01504 36.2444 9.50236L40.3866 16.6599C40.5085 16.9036 40.5998 17.1473 40.5998 17.4214C40.5998 17.6955 40.5389 17.9392 40.3866 18.1828L31.9498 32.8635L36.7926 32.833L45.7472 17.3909L36.2139 0.974182Z" fill="#0061FF"/>
<path d="M73.1452 8.43026C74.0869 8.43026 74.8874 8.52444 75.4995 8.66569C76.1116 8.80695 76.6295 9.08947 77.0062 9.46616C77.3829 9.84285 77.6654 10.3608 77.8538 10.9729C78.0421 11.585 78.0892 12.3855 78.0892 13.3272V25.3812H73.8985V14.1277C73.8985 13.751 73.8985 13.4214 73.8515 13.1389C73.8515 12.8563 73.7573 12.668 73.6631 12.5267C73.5689 12.3855 73.3806 12.2913 73.1452 12.2442C72.9097 12.1971 72.6272 12.1501 72.2505 12.1501C71.3559 12.1501 70.7438 12.4326 70.5084 13.0447C70.2258 13.6568 70.0846 14.4102 70.0846 15.3048V25.3341H65.8939V14.0806C65.8939 13.6568 65.8939 13.3272 65.8468 13.0918C65.8468 12.8093 65.7527 12.6209 65.6585 12.4326C65.5643 12.2442 65.376 12.1501 65.1876 12.0559C64.9522 12.0088 64.6697 11.9617 64.2459 11.9617C63.8221 11.9617 63.4925 12.103 63.21 12.3384C62.9275 12.5738 62.6921 12.9034 62.5037 13.233C62.3154 13.6097 62.1741 14.0335 62.08 14.4573C61.9858 14.881 61.9387 15.3048 61.9387 15.6815V25.3341H57.748V8.71278H61.3266L61.6091 10.5021C62.08 9.84285 62.5979 9.3249 63.2571 8.94821C63.9163 8.57152 64.6226 8.38318 65.4231 8.38318C66.459 8.38318 67.2594 8.52444 67.8715 8.80695C68.4837 9.08947 69.0016 9.70158 69.4254 10.6433C69.8491 9.9841 70.3671 9.46616 70.9792 8.9953C71.5913 8.61861 72.2976 8.43026 73.1452 8.43026Z" fill="white"/>
<path d="M85.1053 25.7109L80.3496 8.75995H84.6344L87.13 21.379L89.5314 8.75995H93.8162L88.4013 28.0181C87.9305 29.6661 87.0829 30.8904 85.8587 31.7379C84.5873 32.5855 83.0806 33.0092 81.2442 33.0563L80.8205 29.9016C81.1972 29.9016 81.5738 29.8074 81.9505 29.6661C82.3272 29.5249 82.7039 29.3836 83.0806 29.1953C83.4102 29.0069 83.7398 28.7715 83.9752 28.5361C84.2577 28.2535 84.399 27.971 84.5403 27.6885L85.1053 25.7109Z" fill="white"/>
<path d="M111.709 8.43026C112.65 8.43026 113.451 8.52444 114.063 8.66569C114.675 8.80695 115.193 9.08947 115.57 9.46616C115.946 9.84285 116.229 10.3608 116.417 10.9729C116.606 11.585 116.653 12.3855 116.653 13.3272V25.3812H112.462V14.1277C112.462 13.751 112.462 13.4214 112.415 13.1389C112.415 12.8563 112.321 12.668 112.227 12.5267C112.132 12.3855 111.944 12.2913 111.709 12.2442C111.473 12.1971 111.191 12.1501 110.814 12.1501C109.919 12.1501 109.307 12.4326 109.072 13.0447C108.789 13.6568 108.648 14.4102 108.648 15.3048V25.3341H104.457V14.0806C104.457 13.6568 104.457 13.3272 104.41 13.0918C104.41 12.8093 104.316 12.6209 104.222 12.4326C104.128 12.2442 103.939 12.1501 103.751 12.0559C103.516 12.0088 103.233 11.9617 102.809 11.9617C102.386 11.9617 102.056 12.103 101.773 12.3384C101.491 12.5738 101.256 12.9034 101.067 13.233C100.879 13.6097 100.738 14.0335 100.643 14.4573C100.549 14.881 100.502 15.3048 100.502 15.6815V25.3341H96.3115V8.71278H99.8901L100.173 10.5021C100.643 9.84285 101.161 9.3249 101.821 8.94821C102.48 8.57152 103.186 8.38318 103.987 8.38318C105.022 8.38318 105.823 8.52444 106.435 8.80695C107.047 9.08947 107.565 9.70158 107.989 10.6433C108.413 9.9841 108.931 9.46616 109.543 8.9953C110.155 8.61861 110.861 8.43026 111.709 8.43026Z" fill="white"/>
<path d="M126.258 8.43042C127.152 8.43042 127.953 8.57168 128.753 8.80711C129.554 9.04254 130.26 9.41922 130.825 9.93717C131.437 10.4551 131.908 11.0202 132.238 11.7735C132.567 12.4798 132.756 13.3274 132.756 14.2691V19.9194C132.756 20.8611 132.614 21.7087 132.285 22.415C131.955 23.1213 131.484 23.7334 130.919 24.2513C130.354 24.7222 129.648 25.0989 128.895 25.3814C128.094 25.6639 127.247 25.7581 126.352 25.7581C125.41 25.7581 124.516 25.6168 123.715 25.3814C122.915 25.1459 122.208 24.7693 121.596 24.2513C120.984 23.7334 120.513 23.1213 120.184 22.415C119.854 21.7087 119.713 20.8611 119.713 19.9194V14.2691C119.713 13.3274 119.901 12.4798 120.231 11.7735C120.56 11.0672 121.031 10.4551 121.643 9.93717C122.208 9.41922 122.915 9.08963 123.715 8.80711C124.469 8.52459 125.316 8.43042 126.258 8.43042ZM128.565 14.1749C128.565 13.3274 128.377 12.7623 128.047 12.5269C127.718 12.2915 127.105 12.1502 126.258 12.1502C125.504 12.1502 124.892 12.2915 124.516 12.6211C124.092 12.9507 123.904 13.4686 123.904 14.1749V19.8252C123.904 20.7199 124.092 21.332 124.421 21.5674C124.751 21.8499 125.41 21.9441 126.352 21.9441C127.058 21.9441 127.623 21.8028 128 21.4732C128.377 21.1436 128.565 20.6257 128.565 19.8252V14.1749Z" fill="white"/>
<path d="M143.915 8.38318C145.799 8.38318 147.117 8.85404 147.871 9.84284C148.624 10.7846 149.001 12.2442 149.001 14.1748V25.3812H144.81V14.881C144.81 14.1277 144.669 13.4685 144.433 12.9034C144.151 12.3855 143.68 12.103 142.879 12.103C142.456 12.103 142.126 12.1971 141.796 12.3855C141.467 12.5738 141.184 12.8093 140.949 13.1389C140.713 13.4685 140.525 13.7981 140.384 14.2218C140.243 14.5985 140.196 15.0223 140.196 15.4461V25.3812H136.005V8.75987H139.772L140.101 10.5021C140.572 9.74868 141.09 9.23073 141.702 8.90112C142.267 8.57152 143.021 8.38318 143.915 8.38318Z" fill="white"/>
<path d="M159.124 21.991C159.831 21.991 160.49 21.8498 161.008 21.5202C161.526 21.1906 162.091 20.7668 162.703 20.1547L164.869 22.8386C163.974 23.7803 163.08 24.4866 162.185 25.0045C161.29 25.4754 160.16 25.7108 158.889 25.7108C156.676 25.7108 155.028 25.24 153.851 24.2982C152.674 23.3565 152.062 21.8027 152.062 19.6367V14.1748C152.062 12.2442 152.627 10.8316 153.804 9.84284C154.981 8.90112 156.535 8.38318 158.465 8.38318C159.36 8.38318 160.16 8.52444 160.914 8.80695C161.667 9.08947 162.279 9.46615 162.844 9.93701C163.362 10.455 163.786 11.0671 164.068 11.7734C164.351 12.4797 164.492 13.2801 164.492 14.1748V17.2353L156.111 18.7421V19.6367C156.111 20.4843 156.393 21.0493 156.958 21.426C157.571 21.8027 158.277 21.991 159.124 21.991ZM158.512 12.1501C157.806 12.1501 157.194 12.2913 156.77 12.6209C156.346 12.9505 156.111 13.4685 156.111 14.1277V15.964L160.349 15.2107V14.2218C160.349 13.5626 160.207 13.0447 159.925 12.668C159.642 12.3384 159.124 12.1501 158.512 12.1501Z" fill="white"/>
<path d="M171.132 25.7109L166.376 8.75995H170.661L173.156 21.379L175.558 8.75995H179.843L174.428 28.0181C173.957 29.6661 173.109 30.8904 171.885 31.7379C170.614 32.5855 169.107 33.0092 167.271 33.0563L166.847 29.9016C167.224 29.9016 167.6 29.8074 167.977 29.6661C168.354 29.5249 168.73 29.3836 169.107 29.1953C169.437 29.0069 169.766 28.7715 170.002 28.5361C170.284 28.2535 170.425 27.971 170.567 27.6885L171.132 25.7109Z" fill="white"/>
<path d="M180.925 20.8136H185.257V25.3809H180.925V20.8136Z" fill="white"/>
<path d="M195.568 12.1501C194.203 12.1501 193.497 12.8563 193.497 14.2218V19.9193C193.497 20.6726 193.685 21.1906 194.109 21.5202C194.485 21.8498 195.098 21.991 195.804 21.991C196.416 21.991 196.981 21.8969 197.452 21.6614C197.97 21.426 198.394 21.0964 198.817 20.5785L201.313 23.1682C200.465 24.0628 199.618 24.6749 198.77 25.0987C197.923 25.5225 196.84 25.7108 195.616 25.7108C193.732 25.7108 192.225 25.24 191.095 24.2512C189.965 23.2624 189.447 21.8027 189.447 19.9193V14.2218C189.447 13.3272 189.589 12.5267 189.918 11.8205C190.201 11.1142 190.624 10.502 191.189 9.9841C191.707 9.46616 192.367 9.08947 193.12 8.80695C193.873 8.52444 194.721 8.38318 195.616 8.38318C196.887 8.38318 197.97 8.57152 198.864 8.9953C199.759 9.37199 200.607 10.1254 201.407 11.2554L198.77 13.8452C198.347 13.3272 197.876 12.9034 197.358 12.5738C196.793 12.2913 196.181 12.1501 195.568 12.1501Z" fill="white"/>
<path d="M211.014 8.52454C211.532 8.52454 211.908 8.57162 212.144 8.66579C212.379 8.75996 212.614 8.85414 212.85 8.9954L212.144 12.7623C211.532 12.4327 210.919 12.2914 210.401 12.2914C209.789 12.2914 209.318 12.5268 208.942 12.9506C208.565 13.3744 208.377 14.0336 208.377 14.9282V25.4284H204.28V8.80705H207.341L207.812 10.5492C208.283 9.79586 208.753 9.27791 209.271 8.9954C209.789 8.66579 210.354 8.52454 211.014 8.52454Z" fill="white"/>
<path d="M221.231 21.991C221.937 21.991 222.596 21.8498 223.114 21.5202C223.632 21.1906 224.197 20.7668 224.809 20.1547L226.975 22.8386C226.081 23.7803 225.186 24.4866 224.291 25.0045C223.397 25.4754 222.267 25.7108 220.995 25.7108C218.782 25.7108 217.134 25.24 215.957 24.2982C214.78 23.3565 214.168 21.8027 214.168 19.6367V14.1748C214.168 12.2442 214.733 10.8316 215.91 9.84284C217.087 8.90112 218.641 8.38318 220.572 8.38318C221.466 8.38318 222.267 8.52444 223.02 8.80695C223.774 9.08947 224.386 9.46615 224.951 9.93701C225.469 10.455 225.892 11.0671 226.175 11.7734C226.457 12.4797 226.599 13.2801 226.599 14.1748V17.2353L218.217 18.7421V19.6367C218.217 20.4843 218.5 21.0493 219.065 21.426C219.677 21.8027 220.383 21.991 221.231 21.991ZM220.619 12.1501C219.912 12.1501 219.3 12.2913 218.877 12.6209C218.453 12.9505 218.217 13.4685 218.217 14.1277V15.964L222.455 15.2107V14.2218C222.455 13.5626 222.314 13.0447 222.031 12.668C221.749 12.3384 221.231 12.1501 220.619 12.1501Z" fill="white"/>
<path d="M238.087 0.943665H242.372V25.3813H239.029L238.464 23.9687C237.946 24.4396 237.428 24.8163 236.91 25.1459C236.345 25.4755 235.78 25.6167 235.12 25.6167C231.259 25.6167 229.376 23.6862 229.376 19.8722V14.1748C229.376 12.2443 229.847 10.7846 230.789 9.84292C231.73 8.85411 233.19 8.38325 235.168 8.38325C235.544 8.38325 235.827 8.38325 236.109 8.43034C236.392 8.47742 236.627 8.52451 236.816 8.61868C237.051 8.71285 237.239 8.85411 237.475 9.04245C237.663 9.2308 237.899 9.46623 238.181 9.70166V0.943665H238.087ZM238.134 14.7399C238.134 13.9394 237.946 13.3273 237.522 12.8093C237.145 12.3385 236.533 12.103 235.733 12.103C234.979 12.103 234.414 12.2443 234.037 12.5739C233.661 12.9035 233.472 13.4215 233.472 14.1277V19.7781C233.472 20.6256 233.614 21.1906 233.943 21.4261C234.273 21.7086 234.838 21.8498 235.685 21.8498C236.439 21.8498 237.004 21.6144 237.475 21.1436C237.899 20.6727 238.134 20.0606 238.134 19.2601V14.7399Z" fill="white"/>
<path d="M246.562 2.30908H250.753V6.59391H246.562V2.30908ZM246.562 8.75987H250.753V25.3812H246.562V8.75987Z" fill="white"/>
<path d="M261.018 21.897C261.677 21.897 262.242 21.8029 262.666 21.6616C263.09 21.5203 263.513 21.332 263.937 21.1907L264.738 24.1572C264.031 24.5339 263.325 24.8635 262.572 25.146C261.818 25.4285 261.112 25.6168 260.406 25.6168C258.758 25.6168 257.628 25.3343 256.968 24.7222C256.309 24.1101 255.933 23.0271 255.933 21.3791V11.6323H253.343V8.76004H255.933V3.8631H260.123V8.76004H263.325V11.6323H260.123V20.8141C260.123 21.0495 260.217 21.2849 260.359 21.5203C260.594 21.7558 260.782 21.897 261.018 21.897Z" fill="white"/>
</svg>
