<svg width="272" height="36" viewBox="0 0 272 36" fill="none" xmlns="http://www.w3.org/2000/svg">
<path d="M24.9807 27.9464L32.9692 14.0801L30.8586 10.3931L23.2441 23.6182C23.0036 24.0189 22.5762 24.2861 22.0953 24.2861H14.9083C14.561 24.2861 14.2136 24.1525 13.9732 23.912C13.7327 23.6716 13.5724 23.3243 13.5724 22.9769C13.5724 22.7365 13.6259 22.5227 13.7594 22.309L23.164 5.98469L18.9159 6.01141L10.5801 20.5189C10.3396 20.9464 9.91214 21.1869 9.43123 21.1869C8.95032 21.1869 8.52284 20.9464 8.28238 20.5189L4.64882 14.2404C4.54195 14.0266 4.4618 13.8129 4.4618 13.5724C4.4618 13.332 4.51523 13.1182 4.64882 12.9045L12.0228 0L7.77475 0.0267174L0 13.5457L8.33582 27.9464H24.9807Z" fill="#0962FF"/>
<path d="M31.7669 0.0269197L15.1219 0.0536371L7.13346 13.9199L9.24413 17.6069L16.8319 4.40857C17.0723 4.00781 17.4998 3.74063 17.9807 3.74063H25.1677C25.515 3.74063 25.8623 3.87422 26.1028 4.11468C26.3432 4.35513 26.5035 4.70246 26.5035 5.04978C26.5035 5.29024 26.4501 5.50398 26.3165 5.71772L16.912 22.042L21.1601 22.0153L29.4959 7.50778C29.7363 7.0803 30.1638 6.83985 30.6447 6.83985C31.1257 6.83985 31.5531 7.0803 31.7936 7.50778L35.4271 13.7864C35.534 14.0001 35.6142 14.2138 35.6142 14.4543C35.6142 14.6948 35.5607 14.9085 35.4271 15.1222L28.0264 28L32.2745 27.9733L40.1294 14.4276L31.7669 0.0269197Z" fill="#0962FF"/>
<path d="M66.9852 9C67.9932 9 68.8332 9.084 69.5052 9.252C70.1772 9.42 70.7172 9.708 71.1252 10.116C71.5332 10.524 71.8212 11.064 71.9892 11.736C72.1812 12.408 72.2772 13.236 72.2772 14.22V27H67.8132V15.048C67.8132 14.64 67.8012 14.304 67.7772 14.04C67.7532 13.752 67.6812 13.536 67.5612 13.392C67.4412 13.224 67.2612 13.116 67.0212 13.068C66.7812 12.996 66.4572 12.96 66.0492 12.96C65.0892 12.96 64.4652 13.284 64.1772 13.932C63.8892 14.58 63.7452 15.384 63.7452 16.344V27H59.2812V15.048C59.2812 14.616 59.2692 14.268 59.2452 14.004C59.2212 13.716 59.1492 13.488 59.0292 13.32C58.9092 13.128 58.7292 12.996 58.4892 12.924C58.2732 12.852 57.9492 12.816 57.5172 12.816C57.0852 12.816 56.7132 12.948 56.4012 13.212C56.1132 13.452 55.8612 13.776 55.6452 14.184C55.4532 14.568 55.3092 15 55.2132 15.48C55.1412 15.936 55.1052 16.368 55.1052 16.776V27H50.6412V9.36H54.4572L54.7452 11.268C55.2252 10.572 55.8012 10.02 56.4732 9.612C57.1692 9.204 57.9372 9 58.7772 9C59.8572 9 60.7212 9.156 61.3692 9.468C62.0412 9.78 62.5932 10.428 63.0252 11.412C63.4572 10.716 63.9972 10.14 64.6452 9.684C65.3172 9.228 66.0972 9 66.9852 9ZM79.6918 27.36L74.6518 9.36H79.1878L81.8518 22.752L84.4078 9.36H88.9438L83.2198 29.808C82.7398 31.536 81.8278 32.844 80.4838 33.732C79.1638 34.62 77.5438 35.088 75.6238 35.136L75.1558 31.788C75.5398 31.764 75.9358 31.68 76.3438 31.536C76.7758 31.416 77.1718 31.248 77.5318 31.032C77.9158 30.84 78.2398 30.6 78.5038 30.312C78.7918 30.048 78.9958 29.748 79.1158 29.412L79.6918 27.36ZM107.907 9C108.915 9 109.755 9.084 110.427 9.252C111.099 9.42 111.639 9.708 112.047 10.116C112.455 10.524 112.743 11.064 112.911 11.736C113.103 12.408 113.199 13.236 113.199 14.22V27H108.735V15.048C108.735 14.64 108.723 14.304 108.699 14.04C108.675 13.752 108.603 13.536 108.483 13.392C108.363 13.224 108.183 13.116 107.943 13.068C107.703 12.996 107.379 12.96 106.971 12.96C106.011 12.96 105.387 13.284 105.099 13.932C104.811 14.58 104.667 15.384 104.667 16.344V27H100.203V15.048C100.203 14.616 100.191 14.268 100.167 14.004C100.143 13.716 100.071 13.488 99.9511 13.32C99.8311 13.128 99.6511 12.996 99.4111 12.924C99.1951 12.852 98.8711 12.816 98.4391 12.816C98.0071 12.816 97.6351 12.948 97.3231 13.212C97.0351 13.452 96.7831 13.776 96.5671 14.184C96.3751 14.568 96.2311 15 96.1351 15.48C96.0631 15.936 96.0271 16.368 96.0271 16.776V27H91.5631V9.36H95.3791L95.6671 11.268C96.1471 10.572 96.7231 10.02 97.3951 9.612C98.0911 9.204 98.8591 9 99.6991 9C100.779 9 101.643 9.156 102.291 9.468C102.963 9.78 103.515 10.428 103.947 11.412C104.379 10.716 104.919 10.14 105.567 9.684C106.239 9.228 107.019 9 107.907 9ZM123.35 9C124.286 9 125.174 9.132 126.014 9.396C126.854 9.66 127.586 10.056 128.21 10.584C128.858 11.112 129.362 11.76 129.722 12.528C130.082 13.272 130.262 14.148 130.262 15.156V21.168C130.262 22.176 130.082 23.064 129.722 23.832C129.386 24.6 128.906 25.248 128.282 25.776C127.682 26.28 126.962 26.676 126.122 26.964C125.306 27.228 124.406 27.36 123.422 27.36C122.414 27.36 121.478 27.228 120.614 26.964C119.75 26.7 118.994 26.304 118.346 25.776C117.722 25.248 117.23 24.6 116.87 23.832C116.534 23.064 116.366 22.176 116.366 21.168V15.156C116.366 14.148 116.546 13.272 116.906 12.528C117.266 11.76 117.758 11.112 118.382 10.584C119.006 10.056 119.738 9.66 120.578 9.396C121.442 9.132 122.366 9 123.35 9ZM125.798 15.12C125.798 14.208 125.606 13.62 125.222 13.356C124.862 13.092 124.238 12.96 123.35 12.96C122.534 12.96 121.91 13.14 121.478 13.5C121.046 13.836 120.83 14.388 120.83 15.156V21.132C120.83 22.092 121.01 22.716 121.37 23.004C121.754 23.268 122.438 23.4 123.422 23.4C124.19 23.4 124.778 23.232 125.186 22.896C125.594 22.56 125.798 21.984 125.798 21.168V15.12ZM142.105 8.964C144.121 8.964 145.525 9.48 146.317 10.512C147.109 11.52 147.505 13.044 147.505 15.084V27H143.041V15.84C143.041 15.024 142.897 14.328 142.609 13.752C142.345 13.176 141.805 12.888 140.989 12.888C140.557 12.888 140.161 12.996 139.801 13.212C139.465 13.404 139.165 13.668 138.901 14.004C138.661 14.34 138.469 14.724 138.325 15.156C138.181 15.564 138.109 15.984 138.109 16.416V27H133.645V9.36H137.641L138.001 11.196C138.505 10.428 139.069 9.864 139.693 9.504C140.341 9.144 141.145 8.964 142.105 8.964ZM158.237 23.4C159.005 23.4 159.665 23.232 160.217 22.896C160.793 22.56 161.393 22.08 162.017 21.456L164.321 24.3C163.385 25.308 162.425 26.076 161.441 26.604C160.481 27.108 159.329 27.36 157.985 27.36C155.657 27.36 153.857 26.868 152.585 25.884C151.337 24.9 150.713 23.244 150.713 20.916V15.12C150.713 13.08 151.325 11.556 152.549 10.548C153.797 9.516 155.465 9 157.553 9C158.489 9 159.353 9.144 160.145 9.432C160.937 9.72 161.609 10.128 162.161 10.656C162.737 11.184 163.181 11.832 163.493 12.6C163.805 13.368 163.961 14.22 163.961 15.156V18.396L155.069 19.98V20.916C155.069 21.804 155.369 22.44 155.969 22.824C156.593 23.208 157.349 23.4 158.237 23.4ZM157.589 12.996C156.821 12.996 156.209 13.176 155.753 13.536C155.297 13.872 155.069 14.4 155.069 15.12V17.064L159.569 16.272V15.228C159.569 14.532 159.413 13.992 159.101 13.608C158.789 13.2 158.285 12.996 157.589 12.996ZM170.993 27.36L165.953 9.36H170.489L173.153 22.752L175.709 9.36H180.245L174.521 29.808C174.041 31.536 173.129 32.844 171.785 33.732C170.465 34.62 168.845 35.088 166.925 35.136L166.457 31.788C166.841 31.764 167.237 31.68 167.645 31.536C168.077 31.416 168.473 31.248 168.833 31.032C169.217 30.84 169.541 30.6 169.805 30.312C170.093 30.048 170.297 29.748 170.417 29.412L170.993 27.36ZM182.612 22.14H187.22V27H182.612V22.14ZM196.957 12.96C195.493 12.96 194.761 13.692 194.761 15.156V21.204C194.761 21.996 194.965 22.56 195.373 22.896C195.805 23.232 196.417 23.4 197.209 23.4C197.857 23.4 198.445 23.292 198.973 23.076C199.501 22.836 199.981 22.44 200.413 21.888L203.041 24.66C202.153 25.596 201.241 26.28 200.305 26.712C199.393 27.144 198.289 27.36 196.993 27.36C194.977 27.36 193.369 26.844 192.169 25.812C190.993 24.756 190.405 23.22 190.405 21.204V15.156C190.405 14.22 190.561 13.38 190.873 12.636C191.209 11.868 191.665 11.22 192.241 10.692C192.817 10.14 193.501 9.72 194.293 9.432C195.109 9.144 195.997 9 196.957 9C198.301 9 199.453 9.216 200.413 9.648C201.373 10.056 202.273 10.848 203.113 12.024L200.305 14.796C199.849 14.244 199.345 13.8 198.793 13.464C198.241 13.128 197.629 12.96 196.957 12.96ZM213.304 9.108C213.856 9.108 214.252 9.156 214.492 9.252C214.732 9.324 214.984 9.432 215.248 9.576L214.492 13.572C213.82 13.236 213.208 13.068 212.656 13.068C212.008 13.068 211.48 13.296 211.072 13.752C210.688 14.208 210.496 14.904 210.496 15.84V27H206.14V9.36H209.38L209.884 11.232C210.364 10.416 210.88 9.864 211.432 9.576C212.008 9.264 212.632 9.108 213.304 9.108ZM224.19 23.4C224.958 23.4 225.618 23.232 226.17 22.896C226.746 22.56 227.346 22.08 227.97 21.456L230.274 24.3C229.338 25.308 228.378 26.076 227.394 26.604C226.434 27.108 225.282 27.36 223.938 27.36C221.61 27.36 219.81 26.868 218.538 25.884C217.29 24.9 216.666 23.244 216.666 20.916V15.12C216.666 13.08 217.278 11.556 218.502 10.548C219.75 9.516 221.418 9 223.506 9C224.442 9 225.306 9.144 226.098 9.432C226.89 9.72 227.562 10.128 228.114 10.656C228.69 11.184 229.134 11.832 229.446 12.6C229.758 13.368 229.914 14.22 229.914 15.156V18.396L221.022 19.98V20.916C221.022 21.804 221.322 22.44 221.922 22.824C222.546 23.208 223.302 23.4 224.19 23.4ZM223.542 12.996C222.774 12.996 222.162 13.176 221.706 13.536C221.25 13.872 221.022 14.4 221.022 15.12V17.064L225.522 16.272V15.228C225.522 14.532 225.366 13.992 225.054 13.608C224.742 13.2 224.238 12.996 223.542 12.996ZM242.058 1.08H246.594V27H243.03L242.418 25.524C241.89 26.028 241.326 26.448 240.726 26.784C240.15 27.12 239.526 27.288 238.854 27.288C234.774 27.288 232.734 25.248 232.734 21.168V15.12C232.734 13.08 233.226 11.544 234.21 10.512C235.218 9.48 236.766 8.964 238.854 8.964C239.238 8.964 239.562 8.988 239.826 9.036C240.114 9.06 240.378 9.132 240.618 9.252C240.858 9.348 241.086 9.492 241.302 9.684C241.518 9.876 241.77 10.116 242.058 10.404V1.08ZM242.13 15.732C242.13 14.892 241.914 14.22 241.482 13.716C241.074 13.188 240.45 12.924 239.61 12.924C238.818 12.924 238.218 13.104 237.81 13.464C237.402 13.8 237.198 14.352 237.198 15.12V21.132C237.198 22.02 237.366 22.608 237.702 22.896C238.038 23.184 238.65 23.328 239.538 23.328C240.33 23.328 240.954 23.076 241.41 22.572C241.89 22.068 242.13 21.408 242.13 20.592V15.732ZM251.043 9.36H255.507V27H251.043V9.36ZM251.043 2.52H255.507V7.056H251.043V2.52ZM266.406 23.292C267.126 23.292 267.702 23.22 268.134 23.076C268.59 22.908 269.046 22.728 269.502 22.536L270.366 25.704C269.622 26.088 268.842 26.448 268.026 26.784C267.234 27.096 266.478 27.252 265.758 27.252C264.03 27.252 262.806 26.94 262.086 26.316C261.366 25.668 261.006 24.48 261.006 22.752V12.42H258.27V9.36H261.042V4.176H265.47V9.36H268.89V12.42H265.47V22.176C265.47 22.44 265.554 22.692 265.722 22.932C265.914 23.172 266.142 23.292 266.406 23.292Z" fill="white"/>
</svg>
