<svg width="60" height="60" viewBox="0 0 60 60" fill="none" xmlns="http://www.w3.org/2000/svg">
<rect x="0.642857" y="0.642857" width="58.7143" height="58.7143" rx="29.3571" fill="#86B2FF"/>
<path d="M19.5004 31.5L36.2554 31.5L28.9354 38.82C28.3504 39.405 28.3504 40.365 28.9354 40.95C29.0741 41.0891 29.239 41.1994 29.4204 41.2747C29.6019 41.35 29.7964 41.3887 29.9929 41.3887C30.1893 41.3887 30.3838 41.35 30.5653 41.2747C30.7468 41.1994 30.9116 41.0891 31.0504 40.95L40.9354 31.065C41.0744 30.9263 41.1847 30.7614 41.26 30.58C41.3353 30.3985 41.374 30.204 41.374 30.0075C41.374 29.8111 41.3353 29.6166 41.26 29.4351C41.1847 29.2536 41.0744 29.0888 40.9354 28.95L31.0504 19.065C30.9115 18.9262 30.7466 18.816 30.5652 18.7408C30.3837 18.6657 30.1893 18.627 29.9929 18.627C29.7965 18.627 29.602 18.6657 29.4205 18.7408C29.2391 18.816 29.0742 18.9262 28.9354 19.065C28.7965 19.2039 28.6863 19.3688 28.6112 19.5502C28.536 19.7317 28.4973 19.9261 28.4973 20.1225C28.4973 20.3189 28.536 20.5134 28.6112 20.6949C28.6863 20.8763 28.7965 21.0412 28.9354 21.18L36.2554 28.5L19.5004 28.5C18.6754 28.5 18.0004 29.175 18.0004 30C18.0004 30.825 18.6754 31.5 19.5004 31.5Z" fill="#6A6A6A"/>
<rect x="0.642857" y="0.642857" width="58.7143" height="58.7143" rx="29.3571" stroke="#6A6A6A" stroke-width="1.28571"/>
</svg>
