<svg width="60" height="60" viewBox="0 0 60 60" fill="none" xmlns="http://www.w3.org/2000/svg">
<rect x="0.642857" y="0.642857" width="58.7143" height="58.7143" rx="29.3571" fill="#86B2FF"/>
<path d="M40.4996 28.5H23.7446L31.0646 21.18C31.6496 20.595 31.6496 19.635 31.0646 19.05C30.9259 18.9109 30.761 18.8006 30.5796 18.7253C30.3981 18.65 30.2036 18.6113 30.0071 18.6113C29.8107 18.6113 29.6162 18.65 29.4347 18.7253C29.2532 18.8006 29.0884 18.9109 28.9496 19.05L19.0646 28.935C18.9256 29.0737 18.8153 29.2386 18.74 29.42C18.6647 29.6015 18.626 29.796 18.626 29.9925C18.626 30.1889 18.6647 30.3834 18.74 30.5649C18.8153 30.7464 18.9256 30.9112 19.0646 31.05L28.9496 40.935C29.0885 41.0738 29.2534 41.184 29.4348 41.2592C29.6163 41.3343 29.8107 41.373 30.0071 41.373C30.2035 41.373 30.398 41.3343 30.5795 41.2592C30.7609 41.184 30.9258 41.0738 31.0646 40.935C31.2035 40.7961 31.3137 40.6312 31.3888 40.4498C31.464 40.2683 31.5027 40.0739 31.5027 39.8775C31.5027 39.6811 31.464 39.4866 31.3888 39.3051C31.3137 39.1237 31.2035 38.9588 31.0646 38.82L23.7446 31.5H40.4996C41.3246 31.5 41.9996 30.825 41.9996 30C41.9996 29.175 41.3246 28.5 40.4996 28.5Z" fill="#6A6A6A"/>
<rect x="0.642857" y="0.642857" width="58.7143" height="58.7143" rx="29.3571" stroke="#6A6A6A" stroke-width="1.28571"/>
</svg>
