<svg width="80" height="87" viewBox="0 0 80 87" fill="none" xmlns="http://www.w3.org/2000/svg">
<g clip-path="url(#clip0_62_2780)">
<path d="M22.8097 51.5687H18.9898C16.5705 51.5687 14.5332 49.5314 14.5332 47.1121H17.0798C17.0798 48.1308 17.9711 49.0221 18.9898 49.0221H22.8097C23.8283 49.0221 24.7196 48.1308 24.7196 47.1121C24.7196 46.0935 23.8283 45.2022 22.8097 45.2022H18.9898C16.5705 45.2022 14.5332 43.1649 14.5332 40.7456C14.5332 38.3263 16.5705 36.2891 18.9898 36.2891H22.8097C25.2289 36.2891 27.2662 38.3263 27.2662 40.7456H24.7196C24.7196 39.727 23.8283 38.8357 22.8097 38.8357H18.9898C17.9711 38.8357 17.0798 39.727 17.0798 40.7456C17.0798 41.7643 17.9711 42.6556 18.9898 42.6556H22.8097C25.2289 42.6556 27.2662 44.6929 27.2662 47.1121C27.2662 49.5314 25.2289 51.5687 22.8097 51.5687Z" fill="#0765FF"/>
<path d="M22.1736 33.7425H19.627V37.5624H22.1736V33.7425Z" fill="#0765FF"/>
<path d="M22.1736 50.2954H19.627V54.1153H22.1736V50.2954Z" fill="#0765FF"/>
<path d="M69.2859 28.6493H66.7393V31.1959H69.2859V28.6493Z" fill="#0765FF"/>
<path d="M69.2859 33.7425H66.7393V36.2891H69.2859V33.7425Z" fill="#0765FF"/>
<path d="M71.8318 31.1959H69.2852V33.7425H71.8318V31.1959Z" fill="#0765FF"/>
<path d="M66.739 31.1959H64.1924V33.7425H66.739V31.1959Z" fill="#0765FF"/>
<path d="M51.4597 26.1027H48.9131V28.6493H51.4597V26.1027Z" fill="#0765FF"/>
<path d="M51.4597 31.1959H48.9131V33.7425H51.4597V31.1959Z" fill="#0765FF"/>
<path d="M54.0056 28.6493H51.459V31.1959H54.0056V28.6493Z" fill="#0765FF"/>
<path d="M48.9128 28.6493H46.3662V31.1959H48.9128V28.6493Z" fill="#0765FF"/>
<path d="M54.0056 54.1153H51.459V56.6619H54.0056V54.1153Z" fill="#0765FF"/>
<path d="M54.0056 59.2085H51.459V61.7551H54.0056V59.2085Z" fill="#0765FF"/>
<path d="M56.5525 56.6619H54.0059V59.2085H56.5525V56.6619Z" fill="#0765FF"/>
<path d="M51.4597 56.6619H48.9131V59.2085H51.4597V56.6619Z" fill="#0765FF"/>
<path d="M74.3786 56.6619H71.832V59.2085H74.3786V56.6619Z" fill="#0765FF"/>
<path d="M74.3786 61.7551H71.832V64.3017H74.3786V61.7551Z" fill="#0765FF"/>
<path d="M76.9255 59.2085H74.3789V61.7551H76.9255V59.2085Z" fill="#0765FF"/>
<path d="M71.8318 59.2085H69.2852V61.7551H71.8318V59.2085Z" fill="#0765FF"/>
<path d="M61.6462 15.9163H59.0996V18.4629H61.6462V15.9163Z" fill="#0765FF"/>
<path d="M61.6462 21.0095H59.0996V23.5561H61.6462V21.0095Z" fill="#0765FF"/>
<path d="M64.1921 18.4629H61.6455V21.0095H64.1921V18.4629Z" fill="#0765FF"/>
<path d="M59.0993 18.4629H56.5527V21.0095H59.0993V18.4629Z" fill="#0765FF"/>
<path d="M38.7263 63.0284H36.1797V65.575H38.7263V63.0284Z" fill="#0765FF"/>
<path d="M38.7263 68.1216H36.1797V70.6682H38.7263V68.1216Z" fill="#0765FF"/>
<path d="M41.2732 65.575H38.7266V68.1216H41.2732V65.575Z" fill="#0765FF"/>
<path d="M36.1794 65.575H33.6328V68.1216H36.1794V65.575Z" fill="#0765FF"/>
<path d="M41.2732 18.4629H38.7266V21.0095H41.2732V18.4629Z" fill="#0765FF"/>
<path d="M41.2732 23.5561H38.7266V26.1027H41.2732V23.5561Z" fill="#0765FF"/>
<path d="M43.82 21.0095H41.2734V23.5561H43.82V21.0095Z" fill="#0765FF"/>
<path d="M38.7263 21.0095H36.1797V23.5561H38.7263V21.0095Z" fill="#0765FF"/>
<path d="M9.18536 53.7333C6.89342 50.9321 5.62012 47.4942 5.62012 43.9289C5.62012 35.5251 12.4959 28.6493 20.8997 28.6493C24.465 28.6493 27.9029 29.9226 30.7042 32.2145L29.0489 34.1245C26.7569 32.2145 23.8283 31.1959 20.8997 31.1959C13.8966 31.1959 8.16672 36.9258 8.16672 43.9289C8.16672 46.8575 9.18536 49.7861 11.0953 52.078L9.18536 53.7333Z" fill="#0765FF"/>
<path d="M20.9001 59.2085C17.3348 59.2085 13.8969 57.9352 11.0957 55.6433L12.751 53.7333C15.0429 55.6433 17.9715 56.6619 20.9001 56.6619C27.9032 56.6619 33.6331 50.932 33.6331 43.9289C33.6331 41.0003 32.6144 38.0717 30.7045 35.7797L32.6144 34.1245C34.9064 36.9257 36.1797 40.3636 36.1797 43.9289C36.1797 52.3327 29.3039 59.2085 20.9001 59.2085Z" fill="#0765FF"/>
<path d="M20.9002 64.3017C9.69512 64.3017 0.527344 55.134 0.527344 43.9289C0.527344 32.7239 9.69512 23.5561 20.9002 23.5561C30.1953 23.5561 38.3444 29.9226 40.6363 38.8357H79.4721V54.1153H69.2856V49.0221H66.739V54.1153H56.5526V49.0221H40.6363C38.3444 57.9352 30.1953 64.3017 20.9002 64.3017ZM20.9002 26.1027C11.0957 26.1027 3.07395 34.1245 3.07395 43.9289C3.07395 53.7333 11.0957 61.7551 20.9002 61.7551C29.304 61.7551 36.6891 55.7706 38.3444 47.4942L38.5991 46.4755H59.0992V51.5687H64.1924V46.4755H71.8322V51.5687H76.9254V41.3823H38.5991L38.3444 40.3637C36.6891 32.0872 29.304 26.1027 20.9002 26.1027Z" fill="#0765FF"/>
</g>
<defs>
<clipPath id="clip0_62_2780">
<rect width="78.9447" height="54.752" fill="white" transform="translate(0.527344 15.9163)"/>
</clipPath>
</defs>
</svg>
