<svg width="79" height="88" viewBox="0 0 79 88" fill="none" xmlns="http://www.w3.org/2000/svg">
<g clip-path="url(#clip0_62_2845)">
<path d="M50.9591 64.2496H43.3193V61.703H50.9591C54.5244 61.703 57.3257 58.9017 57.3257 55.3364V32.417C57.3257 28.8518 54.5244 26.0505 50.9591 26.0505H43.3193V23.5039H50.9591C55.925 23.5039 59.8723 27.4511 59.8723 32.417V55.3364C59.8723 60.3023 55.925 64.2496 50.9591 64.2496Z" fill="#0765FF"/>
<path d="M35.6799 64.2496H28.0401C23.0742 64.2496 19.127 60.3023 19.127 55.3364V32.417C19.127 27.4511 23.0742 23.5039 28.0401 23.5039H35.6799V26.0505H28.0401C24.4748 26.0505 21.6736 28.8518 21.6736 32.417V55.3364C21.6736 58.9017 24.4748 61.703 28.0401 61.703H35.6799V64.2496Z" fill="#0765FF"/>
<path d="M31.8595 45.1501H24.2197V42.6035H31.8595C35.4248 42.6035 38.226 39.8022 38.226 36.237V19.6841H40.7726V36.237C40.7726 41.2029 36.8254 45.1501 31.8595 45.1501Z" fill="#0765FF"/>
<path d="M16.5803 45.1501H8.94046C3.97458 45.1501 0.0273438 41.2028 0.0273438 36.237V13.3175C0.0273438 8.35165 3.97458 4.40442 8.94046 4.40442H31.8599C36.8258 4.40442 40.773 8.35165 40.773 13.3175V14.5908H38.2264V13.3175C38.2264 9.75229 35.4251 6.95102 31.8599 6.95102H8.94046C5.37521 6.95102 2.57395 9.75229 2.57395 13.3175V36.237C2.57395 39.8022 5.37521 42.6035 8.94046 42.6035H16.5803V45.1501Z" fill="#0765FF"/>
<path d="M40.7732 68.0695H38.2266V51.5166C38.2266 46.5508 42.1738 42.6035 47.1397 42.6035H54.7795V45.1501H47.1397C43.5744 45.1501 40.7732 47.9514 40.7732 51.5166V68.0695Z" fill="#0765FF"/>
<path d="M70.0591 83.3492H47.1397C42.1738 83.3492 38.2266 79.4019 38.2266 74.4361V73.1628H40.7732V74.4361C40.7732 78.0013 43.5744 80.8026 47.1397 80.8026H70.0591C73.6244 80.8026 76.4256 78.0013 76.4256 74.4361V51.5166C76.4256 47.9514 73.6244 45.1501 70.0591 45.1501H62.4193V42.6035H70.0591C75.025 42.6035 78.9722 46.5508 78.9722 51.5166V74.4361C78.9722 79.4019 75.025 83.3492 70.0591 83.3492Z" fill="#0765FF"/>
<path d="M64.9655 47.6967H62.4189V50.2433H64.9655V47.6967Z" fill="#0765FF"/>
<path d="M64.9655 52.7899H62.4189V55.3365H64.9655V52.7899Z" fill="#0765FF"/>
<path d="M64.9655 57.8831H62.4189V60.4297H64.9655V57.8831Z" fill="#0765FF"/>
<path d="M45.8659 28.5972H43.3193V31.1438H45.8659V28.5972Z" fill="#0765FF"/>
<path d="M45.8659 33.6904H43.3193V36.237H45.8659V33.6904Z" fill="#0765FF"/>
<path d="M45.8659 38.7836H43.3193V41.3302H45.8659V38.7836Z" fill="#0765FF"/>
<path d="M7.66672 9.49768H5.12012V12.0443H7.66672V9.49768Z" fill="#0765FF"/>
<path d="M7.66672 14.5908H5.12012V17.1374H7.66672V14.5908Z" fill="#0765FF"/>
<path d="M7.66672 19.6841H5.12012V22.2307H7.66672V19.6841Z" fill="#0765FF"/>
<path d="M39.4996 74.4361C37.335 74.4361 35.6797 72.7808 35.6797 70.6162C35.6797 68.4516 37.335 66.7963 39.4996 66.7963C41.6642 66.7963 43.3195 68.4516 43.3195 70.6162C43.3195 72.7808 41.6642 74.4361 39.4996 74.4361ZM39.4996 69.3429C38.7356 69.3429 38.2263 69.8522 38.2263 70.6162C38.2263 71.3802 38.7356 71.8895 39.4996 71.8895C40.2636 71.8895 40.7729 71.3802 40.7729 70.6162C40.7729 69.8522 40.2636 69.3429 39.4996 69.3429Z" fill="#0765FF"/>
<path d="M39.4996 20.9573C37.335 20.9573 35.6797 19.302 35.6797 17.1374C35.6797 14.9728 37.335 13.3175 39.4996 13.3175C41.6642 13.3175 43.3195 14.9728 43.3195 17.1374C43.3195 19.302 41.6642 20.9573 39.4996 20.9573ZM39.4996 15.8641C38.7356 15.8641 38.2263 16.3734 38.2263 17.1374C38.2263 17.9014 38.7356 18.4107 39.4996 18.4107C40.2636 18.4107 40.7729 17.9014 40.7729 17.1374C40.7729 16.3734 40.2636 15.8641 39.4996 15.8641Z" fill="#0765FF"/>
<path d="M73.8788 24.7773H68.7856C65.9843 24.7773 63.6924 22.4853 63.6924 19.6841H66.239C66.239 21.0847 67.385 22.2307 68.7856 22.2307H73.8788C75.2794 22.2307 76.4254 21.0847 76.4254 19.6841C76.4254 18.2834 75.2794 17.1375 73.8788 17.1375H68.7856C65.9843 17.1375 63.6924 14.8455 63.6924 12.0443C63.6924 9.24299 65.9843 6.95105 68.7856 6.95105H73.8788C76.6801 6.95105 78.972 9.24299 78.972 12.0443H76.4254C76.4254 10.6436 75.2794 9.49765 73.8788 9.49765H68.7856C67.385 9.49765 66.239 10.6436 66.239 12.0443C66.239 13.4449 67.385 14.5909 68.7856 14.5909H73.8788C76.6801 14.5909 78.972 16.8828 78.972 19.6841C78.972 22.4853 76.6801 24.7773 73.8788 24.7773Z" fill="#0765FF"/>
<path d="M72.6052 4.40442H70.0586V8.22432H72.6052V4.40442Z" fill="#0765FF"/>
<path d="M72.6052 23.5039H70.0586V27.3238H72.6052V23.5039Z" fill="#0765FF"/>
<path d="M10.2138 80.8025H5.12055C2.31929 80.8025 0.0273438 78.5106 0.0273438 75.7093H2.57395C2.57395 77.11 3.71992 78.2559 5.12055 78.2559H10.2138C11.6144 78.2559 12.7604 77.11 12.7604 75.7093C12.7604 74.3087 11.6144 73.1627 10.2138 73.1627H5.12055C2.31929 73.1627 0.0273438 70.8708 0.0273438 68.0695C0.0273438 65.2683 2.31929 62.9763 5.12055 62.9763H10.2138C13.015 62.9763 15.307 65.2683 15.307 68.0695H12.7604C12.7604 66.6689 11.6144 65.5229 10.2138 65.5229H5.12055C3.71992 65.5229 2.57395 66.6689 2.57395 68.0695C2.57395 69.4702 3.71992 70.6161 5.12055 70.6161H10.2138C13.015 70.6161 15.307 72.9081 15.307 75.7093C15.307 78.5106 13.015 80.8025 10.2138 80.8025Z" fill="#0765FF"/>
<path d="M8.94016 60.4297H6.39355V64.2496H8.94016V60.4297Z" fill="#0765FF"/>
<path d="M8.94016 79.5293H6.39355V83.3492H8.94016V79.5293Z" fill="#0765FF"/>
</g>
<defs>
<clipPath id="clip0_62_2845">
<rect width="78.9447" height="78.9447" fill="white" transform="translate(0.0273438 4.40442)"/>
</clipPath>
</defs>
</svg>
