<svg width="82" height="87" viewBox="0 0 82 87" fill="none" xmlns="http://www.w3.org/2000/svg">
<g clip-path="url(#clip0_62_2749)">
<path d="M40.9999 73.5229C31.5365 73.5229 23.9131 65.8995 23.9131 56.4361C23.9131 46.9725 31.5365 39.3491 40.9999 39.3491C50.4635 39.3491 58.0868 46.9725 58.0868 56.4361C58.0868 65.8995 50.4635 73.5229 40.9999 73.5229ZM40.9999 41.9779C32.9822 41.9779 26.5418 48.4183 26.5418 56.4361C26.5418 64.4538 32.9822 70.8941 40.9999 70.8941C49.0176 70.8941 55.4581 64.4538 55.4581 56.4361C55.4581 48.4183 49.0176 41.9779 40.9999 41.9779Z" fill="#0765FF"/>
<path d="M42.8403 65.6367H39.0286C36.3999 65.6367 34.2969 63.5337 34.2969 60.905V59.722H36.9256V60.905C36.9256 62.0879 37.8457 63.008 39.0286 63.008H42.8403C44.0232 63.008 44.9433 62.0879 44.9433 60.905V59.722C44.9433 58.5391 44.0232 57.619 42.8403 57.619H39.0286C36.3999 57.619 34.2969 55.516 34.2969 52.8873V51.7044C34.2969 49.0755 36.3999 46.9725 39.0286 46.9725H42.8403C45.4691 46.9725 47.5721 49.0755 47.5721 51.7044H44.9433C44.9433 50.5214 44.0232 49.6013 42.8403 49.6013H39.0286C37.8457 49.6013 36.9256 50.5214 36.9256 51.7044V52.8873C36.9256 54.0702 37.8457 54.9903 39.0286 54.9903H42.8403C45.4691 54.9903 47.5721 57.0932 47.5721 59.722V60.905C47.5721 63.5337 45.4691 65.6367 42.8403 65.6367Z" fill="#0765FF"/>
<path d="M42.3143 44.6067H39.6855V48.5497H42.3143V44.6067Z" fill="#0765FF"/>
<path d="M42.3143 64.3223H39.6855V68.2654H42.3143V64.3223Z" fill="#0765FF"/>
<path d="M62.0299 55.1216H56.7725V57.7504H62.0299V55.1216Z" fill="#0765FF"/>
<path d="M64.658 60.3791C62.4235 60.3791 60.7148 58.6705 60.7148 56.4361C60.7148 54.2016 62.4235 52.4929 64.658 52.4929C66.8924 52.4929 68.601 54.2016 68.601 56.4361C68.601 58.6705 66.8924 60.3791 64.658 60.3791ZM64.658 55.1216C63.8693 55.1216 63.3436 55.6474 63.3436 56.4361C63.3436 57.2246 63.8693 57.7504 64.658 57.7504C65.4466 57.7504 65.9723 57.2246 65.9723 56.4361C65.9723 55.6474 65.4466 55.1216 64.658 55.1216Z" fill="#0765FF"/>
<path d="M54.9402 40.6353L51.2227 44.3528L53.0814 46.2117L56.799 42.494L54.9402 40.6353Z" fill="#0765FF"/>
<path d="M57.6921 43.6866C56.6406 43.6866 55.7205 43.2923 54.932 42.5036C53.3547 40.9264 53.3547 38.429 54.932 36.9833C56.5092 35.406 59.0065 35.406 60.4524 36.9833C62.0296 38.5606 62.0296 41.0579 60.4524 42.5036C59.7951 43.2923 58.7436 43.6866 57.6921 43.6866ZM57.6921 38.429C57.2977 38.429 57.0349 38.5606 56.772 38.8234C56.2463 39.3491 56.2463 40.1378 56.772 40.6635C57.2977 41.1893 58.0864 41.1893 58.6122 40.6635C59.1379 40.1378 59.1379 39.3491 58.6122 38.8234C58.3492 38.5606 58.0864 38.429 57.6921 38.429Z" fill="#0765FF"/>
<path d="M42.3143 35.4061H39.6855V40.6635H42.3143V35.4061Z" fill="#0765FF"/>
<path d="M40.9998 36.7204C38.7654 36.7204 37.0566 35.0118 37.0566 32.7773C37.0566 30.5429 38.7654 28.8342 40.9998 28.8342C43.2342 28.8342 44.943 30.5429 44.943 32.7773C44.943 35.0118 43.2342 36.7204 40.9998 36.7204ZM40.9998 31.463C40.2111 31.463 39.6854 31.9887 39.6854 32.7773C39.6854 33.5659 40.2111 34.0917 40.9998 34.0917C41.7884 34.0917 42.3142 33.5659 42.3142 32.7773C42.3142 31.9887 41.7884 31.463 40.9998 31.463Z" fill="#0765FF"/>
<path d="M27.0571 40.6362L25.1982 42.4949L28.9159 46.2125L30.7747 44.3537L27.0571 40.6362Z" fill="#0765FF"/>
<path d="M24.3063 43.6866C23.2549 43.6866 22.3348 43.2923 21.5462 42.5036C19.969 40.9264 19.969 38.429 21.5462 36.9833C23.1234 35.406 25.6208 35.406 27.0666 36.9833C28.6439 38.5606 28.6439 41.0579 27.0666 42.5036C26.2779 43.2923 25.2264 43.6866 24.3063 43.6866ZM23.3864 38.8234C22.8605 39.3491 22.8605 40.1378 23.3864 40.6635C23.9121 41.1893 24.7007 41.1893 25.2264 40.6635C25.7522 40.1378 25.7522 39.3491 25.2264 38.8234C24.7007 38.2976 23.9121 38.2976 23.3864 38.8234Z" fill="#0765FF"/>
<path d="M25.2272 55.1216H19.9697V57.7504H25.2272V55.1216Z" fill="#0765FF"/>
<path d="M17.3406 60.3791C15.1061 60.3791 13.3975 58.6705 13.3975 56.4361C13.3975 54.2016 15.1061 52.4929 17.3406 52.4929C19.575 52.4929 21.2838 54.2016 21.2838 56.4361C21.2838 58.6705 19.575 60.3791 17.3406 60.3791ZM17.3406 55.1216C16.5519 55.1216 16.0262 55.6474 16.0262 56.4361C16.0262 57.2246 16.5519 57.7504 17.3406 57.7504C18.1292 57.7504 18.6549 57.2246 18.6549 56.4361C18.6549 55.6474 18.1292 55.1216 17.3406 55.1216Z" fill="#0765FF"/>
<path d="M28.9167 66.6603L25.1992 70.3778L27.058 72.2367L30.7755 68.519L28.9167 66.6603Z" fill="#0765FF"/>
<path d="M24.3063 77.0717C23.2549 77.0717 22.3348 76.6775 21.5462 75.8888C19.969 74.3116 19.969 71.8142 21.5462 70.3684C23.1234 68.7912 25.6208 68.7912 27.0666 70.3684C28.6439 71.9457 28.6439 74.443 27.0666 75.8888C26.2779 76.6775 25.2264 77.0717 24.3063 77.0717ZM23.3864 74.0486C23.9121 74.5744 24.7007 74.5744 25.2264 74.0486C25.7522 73.5229 25.7522 72.7343 25.2264 72.2086C24.7007 71.6828 23.9121 71.6828 23.3864 72.2086C22.8605 72.7343 22.8605 73.5229 23.3864 74.0486Z" fill="#0765FF"/>
<path d="M42.3143 72.2086H39.6855V77.4661H42.3143V72.2086Z" fill="#0765FF"/>
<path d="M40.9998 84.0379C38.7654 84.0379 37.0566 82.3293 37.0566 80.0948C37.0566 77.8604 38.7654 76.1517 40.9998 76.1517C43.2342 76.1517 44.943 77.8604 44.943 80.0948C44.943 82.3293 43.2342 84.0379 40.9998 84.0379ZM40.9998 78.7805C40.2111 78.7805 39.6854 79.3062 39.6854 80.0948C39.6854 80.8834 40.2111 81.4092 40.9998 81.4092C41.7884 81.4092 42.3142 80.8834 42.3142 80.0948C42.3142 79.3062 41.7884 78.7805 40.9998 78.7805Z" fill="#0765FF"/>
<path d="M53.0824 66.6593L51.2236 68.5181L54.9412 72.2356L56.8001 70.3768L53.0824 66.6593Z" fill="#0765FF"/>
<path d="M57.6921 77.0717C56.6406 77.0717 55.7205 76.6775 54.932 75.8888C53.3547 74.3116 53.3547 71.8142 54.932 70.3684C56.5092 68.7912 59.0065 68.7912 60.4524 70.3684C62.0296 71.9457 62.0296 74.443 60.4524 75.8888C59.7951 76.6775 58.7436 77.0717 57.6921 77.0717ZM57.6921 71.8143C57.2977 71.8143 57.0349 71.9457 56.772 72.2086C56.2463 72.7343 56.2463 73.5229 56.772 74.0486C57.2977 74.5744 58.0864 74.5744 58.6122 74.0486C59.1379 73.5229 59.1379 72.7343 58.6122 72.2086C58.3492 71.9457 58.0864 71.8143 57.6921 71.8143Z" fill="#0765FF"/>
<path d="M62.9494 18.582C61.2406 10.8272 54.2745 5.17539 46.2568 5.17539C39.6849 5.17539 33.6388 8.98707 30.8786 14.9018L28.5127 13.7188C31.6672 7.01551 38.6334 2.54663 46.2568 2.54663C55.4574 2.54663 63.6065 9.11851 65.5781 18.0562L62.9494 18.582Z" fill="#0765FF"/>
<path d="M38.3704 26.2053H35.7416C35.7416 19.6334 30.4842 14.376 23.9123 14.376C17.3404 14.376 12.0829 19.6334 12.0829 26.2053H9.4541C9.4541 18.1877 15.8946 11.7473 23.9123 11.7473C31.9299 11.7473 38.3704 18.1877 38.3704 26.2053Z" fill="#0765FF"/>
<path d="M23.9126 48.5498H12.0833C5.51141 48.5498 0.253906 43.2923 0.253906 36.7204C0.253906 30.1485 5.51141 24.8911 12.0833 24.8911C16.9465 24.8911 21.2839 27.7827 22.9927 32.2515L20.4953 33.3031C19.1809 29.7543 15.895 27.5198 12.0833 27.5198C6.95723 27.5198 2.88266 31.5943 2.88266 36.7204C2.88266 41.8465 6.95723 45.921 12.0833 45.921H23.9126V48.5498Z" fill="#0765FF"/>
<path d="M65.9727 48.5497H59.4008V45.921H65.9727C73.2018 45.921 79.1165 40.0063 79.1165 32.7772C79.1165 25.5482 73.2018 19.6334 65.9727 19.6334C58.7437 19.6334 52.8289 25.5482 52.8289 32.7772H50.2002C50.2002 24.1023 57.2978 17.0047 65.9727 17.0047C74.6476 17.0047 81.7452 24.1023 81.7452 32.7772C81.7452 41.4521 74.6476 48.5497 65.9727 48.5497Z" fill="#0765FF"/>
</g>
<defs>
<clipPath id="clip0_62_2749">
<rect width="81.4913" height="81.4913" fill="white" transform="translate(0.253906 2.54663)"/>
</clipPath>
</defs>
</svg>
