<svg width="87" height="88" viewBox="0 0 87 88" fill="none" xmlns="http://www.w3.org/2000/svg">
<g clip-path="url(#clip0_62_2822)">
<path d="M67.5535 78.1326L65.8447 76.161C66.3705 75.7668 67.0278 75.2411 67.5535 74.7153L69.2621 76.6868C68.7364 77.2127 68.0792 77.7384 67.5535 78.1326Z" fill="#0765FF"/>
<path d="M70.9711 75.1096L69.131 73.2696C77.1486 65.5148 81.6175 55.1311 81.6175 43.9589C81.6175 30.8151 75.3086 18.46 64.6621 10.8367L66.2393 8.73364C77.543 16.8828 84.2463 30.0266 84.2463 43.9589C84.2463 55.7883 79.5145 66.8291 70.9711 75.1096Z" fill="#0765FF"/>
<path d="M42.1863 7.15637H39.5576V80.7614H42.1863V7.15637Z" fill="#0765FF"/>
<path d="M44.815 42.6445H4.06934V45.2733H44.815V42.6445Z" fill="#0765FF"/>
<path d="M40.8718 29.5007C17.7389 29.5007 13.5329 18.5915 13.4014 18.0657L15.8987 17.1456C15.8987 17.277 19.8419 26.7406 41.0032 26.7406C62.1647 26.7406 65.9764 17.1456 66.1079 17.1456L68.6052 18.0657C68.2109 18.5915 64.0049 29.5007 40.8718 29.5007Z" fill="#0765FF"/>
<path d="M65.9759 70.6408C65.9759 70.5093 62.0328 61.0458 40.8714 61.0458C19.7099 61.0458 15.8983 70.6408 15.7667 70.6408L13.2695 69.7207C13.5323 69.3264 17.7383 58.4171 40.8714 58.4171C64.0044 58.4171 68.2105 69.3264 68.3419 69.8521L65.9759 70.6408Z" fill="#0765FF"/>
<path d="M40.0832 81.8129C39.2947 81.2871 19.8418 67.7491 19.8418 43.9589C19.8418 20.1686 39.2947 6.6306 40.0832 6.10486L41.5291 8.3393C41.3976 8.3393 22.4705 21.6145 22.4705 43.9589C22.4705 66.3033 41.3977 79.5785 41.6605 79.7099L40.0832 81.8129Z" fill="#0765FF"/>
<path d="M59.2727 55.7882C52.7008 55.7882 47.4434 50.5308 47.4434 43.9589C47.4434 37.387 52.7008 32.1295 59.2727 32.1295C65.8446 32.1295 71.1021 37.387 71.1021 43.9589C71.1021 50.5308 65.8446 55.7882 59.2727 55.7882ZM59.2727 34.7582C54.1467 34.7582 50.0721 38.8328 50.0721 43.9589C50.0721 49.0849 54.1467 53.1595 59.2727 53.1595C64.3988 53.1595 68.4733 49.0849 68.4733 43.9589C68.4733 38.8328 64.3988 34.7582 59.2727 34.7582Z" fill="#0765FF"/>
<path d="M41.6607 81.8129L40.2148 79.7099C40.3464 79.5785 51.65 71.6922 56.776 57.8912L59.2734 58.8113C53.753 73.4009 42.055 81.5501 41.6607 81.8129Z" fill="#0765FF"/>
<path d="M56.7755 30.0265C51.6494 16.2256 40.2144 8.3393 40.083 8.20786L41.5287 6.10486C42.0545 6.49917 53.621 14.5168 59.1414 29.1064L56.7755 30.0265Z" fill="#0765FF"/>
<path d="M77.6736 42.6445H73.7305V45.2733H77.6736V42.6445Z" fill="#0765FF"/>
<path d="M60.5874 13.7283C56.9072 13.7283 54.0156 10.8366 54.0156 7.15635C54.0156 3.4761 56.9072 0.584473 60.5874 0.584473C64.2677 0.584473 67.1593 3.4761 67.1593 7.15635C67.1593 10.8366 64.2677 13.7283 60.5874 13.7283ZM60.5874 3.21323C58.353 3.21323 56.6444 4.92191 56.6444 7.15635C56.6444 9.39079 58.353 11.0995 60.5874 11.0995C62.8219 11.0995 64.5306 9.39079 64.5306 7.15635C64.5306 4.92191 62.8219 3.21323 60.5874 3.21323Z" fill="#0765FF"/>
<path d="M40.8718 82.0757C19.8418 82.0757 2.75488 64.9888 2.75488 43.9588C2.75488 22.9288 19.8418 5.84192 40.8718 5.84192C44.552 5.84192 48.3637 6.36767 51.9125 7.41917L51.1239 9.91648C47.8379 8.99642 44.4206 8.47066 40.8718 8.47066C21.2875 8.47066 5.38364 24.3747 5.38364 43.9588C5.38364 63.5429 21.2875 79.447 40.8718 79.447C60.456 79.447 76.3599 63.5429 76.3599 43.9588C76.3599 33.3123 71.6282 23.3232 63.479 16.6197L65.1877 14.6483C73.9941 21.8773 78.9887 32.5238 78.9887 43.9588C78.9887 64.9888 61.9018 82.0757 40.8718 82.0757Z" fill="#0765FF"/>
<path d="M60.5874 50.5307H57.9587C55.7243 50.5307 54.0156 48.8221 54.0156 46.5876V45.2733H56.6444V46.5876C56.6444 47.3763 57.1701 47.902 57.9587 47.902H60.5874C61.3761 47.902 61.9018 47.3763 61.9018 46.5876C61.9018 45.799 61.3761 45.2733 60.5874 45.2733H57.9587C55.7243 45.2733 54.0156 43.5645 54.0156 41.3301C54.0156 39.0957 55.7243 37.387 57.9587 37.387H60.5874C62.8219 37.387 64.5306 39.0957 64.5306 41.3301V42.6446H61.9018V41.3301C61.9018 40.5414 61.3761 40.0157 60.5874 40.0157H57.9587C57.1701 40.0157 56.6444 40.5414 56.6444 41.3301C56.6444 42.1188 57.1701 42.6446 57.9587 42.6446H60.5874C62.8219 42.6446 64.5306 44.3532 64.5306 46.5876C64.5306 48.8221 62.8219 50.5307 60.5874 50.5307Z" fill="#0765FF"/>
<path d="M60.5869 36.0726H57.958V38.7014H60.5869V36.0726Z" fill="#0765FF"/>
<path d="M60.5869 49.2163H57.958V51.8452H60.5869V49.2163Z" fill="#0765FF"/>
</g>
<defs>
<clipPath id="clip0_62_2822">
<rect width="86.5845" height="86.5845" fill="white" transform="translate(0.208008 0.584473)"/>
</clipPath>
</defs>
</svg>
