<svg width="82" height="87" viewBox="0 0 82 87" fill="none" xmlns="http://www.w3.org/2000/svg">
<g clip-path="url(#clip0_62_2691)">
<path d="M81.7452 15.6904H0.253906V2.54663H81.7452V15.6904ZM2.88266 13.0616H79.1165V5.17539H2.88266V13.0616Z" fill="#0765FF"/>
<path d="M8.14046 7.80414H5.51172V10.4329H8.14046V7.80414Z" fill="#0765FF"/>
<path d="M13.3973 7.80414H10.7686V10.4329H13.3973V7.80414Z" fill="#0765FF"/>
<path d="M18.6551 7.80414H16.0264V10.4329H18.6551V7.80414Z" fill="#0765FF"/>
<path d="M81.7452 84.0379H0.253906V18.3192H2.88266V81.4092H79.1165V18.3192H81.7452V84.0379Z" fill="#0765FF"/>
<path d="M25.227 38.0347H17.3408V28.834H19.9696V35.4059H25.227V38.0347Z" fill="#0765FF"/>
<path d="M18.6551 30.1485C16.4207 30.1485 14.7119 28.4399 14.7119 26.2054C14.7119 23.971 16.4207 22.2623 18.6551 22.2623C20.8895 22.2623 22.5982 23.971 22.5982 26.2054C22.5982 28.4399 20.8895 30.1485 18.6551 30.1485ZM18.6551 24.8911C17.8665 24.8911 17.3408 25.4168 17.3408 26.2054C17.3408 26.994 17.8665 27.5198 18.6551 27.5198C19.4438 27.5198 19.9695 26.994 19.9695 26.2054C19.9695 25.4168 19.4438 24.8911 18.6551 24.8911Z" fill="#0765FF"/>
<path d="M64.6577 38.0347H56.7715V35.4059H62.0289V28.834H64.6577V38.0347Z" fill="#0765FF"/>
<path d="M63.3444 30.1485C61.11 30.1485 59.4014 28.4399 59.4014 26.2054C59.4014 23.971 61.11 22.2623 63.3444 22.2623C65.5789 22.2623 67.2876 23.971 67.2876 26.2054C67.2876 28.4399 65.5789 30.1485 63.3444 30.1485ZM63.3444 24.8911C62.5558 24.8911 62.0301 25.4168 62.0301 26.2054C62.0301 26.994 62.5558 27.5198 63.3444 27.5198C64.1331 27.5198 64.6588 26.994 64.6588 26.2054C64.6588 25.4168 64.1331 24.8911 63.3444 24.8911Z" fill="#0765FF"/>
<path d="M72.5447 52.4929C70.3103 52.4929 68.6016 50.7842 68.6016 48.5497C68.6016 46.3153 70.3103 44.6067 72.5447 44.6067C74.7792 44.6067 76.4879 46.3153 76.4879 48.5497C76.4879 50.7842 74.7792 52.4929 72.5447 52.4929ZM72.5447 47.2354C71.7562 47.2354 71.2304 47.7612 71.2304 48.5497C71.2304 49.3384 71.7562 49.8642 72.5447 49.8642C73.3334 49.8642 73.8592 49.3384 73.8592 48.5497C73.8592 47.7612 73.3334 47.2354 72.5447 47.2354Z" fill="#0765FF"/>
<path d="M40.9998 26.2055C38.7653 26.2055 37.0566 24.4967 37.0566 22.2623C37.0566 20.0279 38.7653 18.3192 40.9998 18.3192C43.2342 18.3192 44.9428 20.0279 44.9428 22.2623C44.9428 24.4967 43.2342 26.2055 40.9998 26.2055ZM40.9998 20.9479C40.2111 20.9479 39.6854 21.4736 39.6854 22.2623C39.6854 23.0509 40.2111 23.5766 40.9998 23.5766C41.7884 23.5766 42.3141 23.0509 42.3141 22.2623C42.3141 21.4736 41.7884 20.9479 40.9998 20.9479Z" fill="#0765FF"/>
<path d="M42.3143 24.8911H39.6855V28.8341H42.3143V24.8911Z" fill="#0765FF"/>
<path d="M19.9696 68.2654H17.3408V59.0648H25.227V61.6935H19.9696V68.2654Z" fill="#0765FF"/>
<path d="M18.6551 74.8373C16.4207 74.8373 14.7119 73.1287 14.7119 70.8943C14.7119 68.6598 16.4207 66.9511 18.6551 66.9511C20.8895 66.9511 22.5982 68.6598 22.5982 70.8943C22.5982 73.1287 20.8895 74.8373 18.6551 74.8373ZM18.6551 69.5798C17.8665 69.5798 17.3408 70.1056 17.3408 70.8943C17.3408 71.6828 17.8665 72.2086 18.6551 72.2086C19.4438 72.2086 19.9695 71.6828 19.9695 70.8943C19.9695 70.1056 19.4438 69.5798 18.6551 69.5798Z" fill="#0765FF"/>
<path d="M64.6577 68.2654H62.0289V61.6935H56.7715V59.0648H64.6577V68.2654Z" fill="#0765FF"/>
<path d="M63.3444 74.8373C61.11 74.8373 59.4014 73.1287 59.4014 70.8943C59.4014 68.6598 61.11 66.9511 63.3444 66.9511C65.5789 66.9511 67.2876 68.6598 67.2876 70.8943C67.2876 73.1287 65.5789 74.8373 63.3444 74.8373ZM63.3444 69.5798C62.5558 69.5798 62.0301 70.1056 62.0301 70.8943C62.0301 71.6828 62.5558 72.2086 63.3444 72.2086C64.1331 72.2086 64.6588 71.6828 64.6588 70.8943C64.6588 70.1056 64.1331 69.5798 63.3444 69.5798Z" fill="#0765FF"/>
<path d="M40.9998 78.7804C38.7653 78.7804 37.0566 77.0717 37.0566 74.8373C37.0566 72.6028 38.7653 70.8942 40.9998 70.8942C43.2342 70.8942 44.9428 72.6028 44.9428 74.8373C44.9428 77.0717 43.2342 78.7804 40.9998 78.7804ZM40.9998 73.5229C40.2111 73.5229 39.6854 74.0486 39.6854 74.8373C39.6854 75.6259 40.2111 76.1516 40.9998 76.1516C41.7884 76.1516 42.3141 75.6259 42.3141 74.8373C42.3141 74.0486 41.7884 73.5229 40.9998 73.5229Z" fill="#0765FF"/>
<path d="M42.3143 68.2654H39.6855V72.2086H42.3143V68.2654Z" fill="#0765FF"/>
<path d="M69.9155 47.2355H60.7148V49.8642H69.9155V47.2355Z" fill="#0765FF"/>
<path d="M9.45484 52.4929C7.2204 52.4929 5.51172 50.7842 5.51172 48.5497C5.51172 46.3153 7.2204 44.6067 9.45484 44.6067C11.6893 44.6067 13.398 46.3153 13.398 48.5497C13.398 50.7842 11.6893 52.4929 9.45484 52.4929ZM9.45484 47.2354C8.66622 47.2354 8.14046 47.7612 8.14046 48.5497C8.14046 49.3384 8.66622 49.8642 9.45484 49.8642C10.2435 49.8642 10.7692 49.3384 10.7692 48.5497C10.7692 47.7612 10.2435 47.2354 9.45484 47.2354Z" fill="#0765FF"/>
<path d="M21.2837 47.2355H12.083V49.8642H21.2837V47.2355Z" fill="#0765FF"/>
<path d="M41 65.6367C31.5365 65.6367 23.9131 58.0133 23.9131 48.5498C23.9131 39.0863 31.5365 31.463 41 31.463C50.4635 31.463 58.0868 39.0863 58.0868 48.5498C58.0868 58.0133 50.4635 65.6367 41 65.6367ZM41 34.0917C32.9823 34.0917 26.5418 40.532 26.5418 48.5498C26.5418 56.5675 32.9823 63.0079 41 63.0079C49.0176 63.0079 55.4581 56.5675 55.4581 48.5498C55.4581 40.532 49.0176 34.0917 41 34.0917Z" fill="#0765FF"/>
<path d="M42.3139 57.7504H39.6852C36.7935 57.7504 34.4277 55.3846 34.4277 52.4929V51.9672H37.0565V52.4929C37.0565 53.9387 38.2394 55.1216 39.6852 55.1216H42.3139C43.7598 55.1216 44.9427 53.9387 44.9427 52.4929C44.9427 51.0471 43.7598 49.8642 42.3139 49.8642H39.6852C36.7935 49.8642 34.4277 47.4983 34.4277 44.6067C34.4277 41.715 36.7935 39.3491 39.6852 39.3491H42.3139C45.2056 39.3491 47.5714 41.715 47.5714 44.6067V45.1325H44.9427V44.6067C44.9427 43.1609 43.7598 41.9779 42.3139 41.9779H39.6852C38.2394 41.9779 37.0565 43.1609 37.0565 44.6067C37.0565 46.0524 38.2394 47.2354 39.6852 47.2354H42.3139C45.2056 47.2354 47.5714 49.6012 47.5714 52.4929C47.5714 55.3846 45.2056 57.7504 42.3139 57.7504Z" fill="#0765FF"/>
<path d="M42.3143 36.7204H39.6855V40.6636H42.3143V36.7204Z" fill="#0765FF"/>
<path d="M42.3143 56.4361H39.6855V60.3793H42.3143V56.4361Z" fill="#0765FF"/>
</g>
<defs>
<clipPath id="clip0_62_2691">
<rect width="81.4913" height="81.4913" fill="white" transform="translate(0.253906 2.54663)"/>
</clipPath>
</defs>
</svg>
