<svg width="80" height="98" viewBox="0 0 80 98" fill="none" xmlns="http://www.w3.org/2000/svg">
<circle cx="40" cy="57.6769" r="39.6581" fill="#060606" stroke="#0962FF" stroke-width="0.683761"/>
<rect width="8.24028" height="8.24028" transform="matrix(0.866025 -0.5 0.866025 0.5 51.3633 4.44312)" fill="#86B2FF"/>
<rect width="8.24028" height="51.5398" transform="matrix(0.866025 -0.5 2.20305e-08 1 58.5078 8.83789)" fill="#0962FF"/>
<rect width="8.24028" height="51.8744" transform="matrix(0.866025 0.5 -2.20305e-08 1 51.2266 4.58044)" fill="white"/>
<rect width="8.24028" height="8.24028" transform="matrix(0.866025 -0.5 0.866025 0.5 39.6914 17.9021)" fill="#86B2FF"/>
<rect width="8.24028" height="43.1677" transform="matrix(0.866025 -0.5 2.20305e-08 1 46.834 22.2969)" fill="#0962FF"/>
<rect width="8.24028" height="42.7892" transform="matrix(0.866025 0.5 -2.20305e-08 1 39.5547 18.0395)" fill="white"/>
<rect width="8.24028" height="8.24028" transform="matrix(0.866025 -0.5 0.866025 0.5 28.0176 30.4)" fill="#86B2FF"/>
<rect width="8.24028" height="40.7583" transform="matrix(0.866025 -0.5 2.20305e-08 1 35.1621 34.7948)" fill="#0962FF"/>
<rect width="8.24028" height="40.7583" transform="matrix(0.866025 0.5 -2.20305e-08 1 27.8809 30.5374)" fill="white"/>
<path d="M67.1187 69.0623C67.1123 66.423 65.3657 63.786 61.8736 61.7702C54.8895 57.7376 43.5745 57.7333 36.5968 61.7616C33.1069 63.7774 31.3647 66.4187 31.3711 69.0623V72.1365C31.3711 74.7758 33.1242 77.4129 36.613 79.4286C43.5971 83.4623 54.9186 83.4656 61.8909 79.4372C65.3819 77.4215 67.123 74.7801 67.1187 72.1365V69.0623Z" fill="white"/>
<path d="M49.2658 82.744C44.4363 82.744 39.8976 81.6554 36.468 79.6784C33.0018 77.6766 31.0894 74.9986 31.084 72.1408V69.0654C31.0775 66.2012 32.9846 63.5188 36.4551 61.5149C39.8685 59.5433 44.404 58.4579 49.2227 58.4579C54.0414 58.4579 58.5909 59.5465 62.0194 61.5235C65.4878 63.5253 67.4034 66.2033 67.4088 69.0611V72.1365C67.4088 75.0029 65.5061 77.6841 62.0366 79.687C58.621 81.6586 54.0855 82.744 49.2658 82.744ZM49.2216 59.0307C44.502 59.0307 40.0688 60.0892 36.7415 62.0102C33.4583 63.9076 31.6536 66.4111 31.659 69.0611V72.1279C31.6655 74.7832 33.4756 77.2847 36.7566 79.1787C40.0947 81.1062 44.5365 82.1679 49.2658 82.1679C53.9951 82.1679 58.4186 81.1094 61.747 79.1884C65.0301 77.2933 66.8359 74.7886 66.8305 72.1365V69.0622C66.8305 66.4154 65.014 63.914 61.7308 62.0199C58.3927 60.0925 53.9498 59.0307 49.2216 59.0307Z" fill="#141414"/>
<path d="M67.1187 72.1364V69.0621C67.1122 66.4229 65.3656 63.7858 61.8736 61.7701C60.451 60.9645 58.9384 60.3295 57.3672 59.8781V81.3312C58.9443 80.8808 60.4624 80.245 61.8897 79.4371C65.3818 77.4213 67.123 74.7843 67.1187 72.1364Z" fill="#0962FF"/>
<path d="M57.3656 81.6198C57.3036 81.6193 57.2434 81.5993 57.1934 81.5627C57.1576 81.5356 57.1286 81.5006 57.1086 81.4604C57.0886 81.4203 57.0782 81.376 57.0781 81.3312V59.8781C57.0781 59.8332 57.0885 59.7889 57.1086 59.7488C57.1288 59.7087 57.158 59.6739 57.194 59.6471C57.23 59.6203 57.2718 59.6023 57.316 59.5945C57.3602 59.5868 57.4056 59.5895 57.4486 59.6024C59.0411 60.0603 60.5742 60.704 62.0163 61.5202C65.4847 63.522 67.4003 66.2 67.4057 69.0578V72.1331C67.4057 74.9996 65.503 77.6808 62.0336 79.6837C60.5861 80.5028 59.0467 81.1477 57.4475 81.6047C57.4211 81.6135 57.3935 81.6186 57.3656 81.6198ZM57.6542 60.2668V80.9414C59.0788 80.5098 60.4512 79.9215 61.7461 79.1873C65.0292 77.2921 66.835 74.7875 66.8296 72.1353V69.061C66.8296 66.4143 65.0131 63.9129 61.7299 62.0188C60.4396 61.2874 59.0728 60.6999 57.6542 60.2668Z" fill="#141414"/>
<path d="M61.8892 76.3627C68.8658 72.3355 68.8583 65.8015 61.872 61.7699C54.8857 57.7384 43.5728 57.733 36.5952 61.7613C29.6175 65.7896 29.6261 72.3225 36.6114 76.3541C43.5966 80.3856 54.9105 80.391 61.8892 76.3627Z" fill="#86B2FF"/>
<path d="M49.2658 79.6695C44.4363 79.6695 39.8976 78.5809 36.468 76.6039C32.9953 74.5989 31.084 71.9155 31.084 69.0501C31.084 66.1848 32.9921 63.5111 36.4562 61.5125C39.8696 59.5409 44.4051 58.4555 49.2238 58.4555C54.0424 58.4555 58.5919 59.5441 62.0204 61.5212C65.4953 63.5262 67.4044 66.2095 67.4044 69.076C67.4044 71.9424 65.4974 74.614 62.0334 76.6136C58.621 78.5841 54.0855 79.6695 49.2658 79.6695ZM49.2216 59.0305C44.502 59.0305 40.0688 60.089 36.7415 62.01C33.4637 63.903 31.6579 66.4034 31.6579 69.0501C31.6579 71.6969 33.4691 74.2069 36.7566 76.1053C40.0946 78.0317 44.5365 79.0934 49.2658 79.0934C53.9951 79.0934 58.4186 78.035 61.7469 76.1139C65.0247 74.2209 66.8305 71.7217 66.8305 69.0749C66.8305 66.4281 65.0193 63.917 61.7308 62.0197C58.3927 60.0922 53.9498 59.0305 49.2216 59.0305Z" fill="#141414"/>
<path d="M39.1726 74.3621C39.0973 74.3212 39.0143 74.2856 38.9411 74.2426C33.2535 70.9583 33.2481 65.6174 38.9293 62.3375C39.0079 62.2923 39.093 62.2546 39.1726 62.2115V74.3621ZM51.1649 59.9621C50.4833 59.9104 49.7974 59.8802 49.1115 59.8824V76.7031C49.7974 76.7031 50.4833 76.6783 51.1649 76.6277V59.9621ZM59.55 62.345C58.3251 61.6549 57.0199 61.1183 55.6638 60.747V75.8481C57.0246 75.4786 58.3342 74.9419 59.5629 74.2501C65.2516 70.9702 65.2398 65.6314 59.55 62.345Z" fill="white"/>
<path d="M47.9193 71.2557C48.4175 70.9686 48.6742 70.6552 48.6892 70.3157C48.7043 69.9776 48.4846 69.5167 48.0345 68.9331C47.1214 67.8735 46.6401 66.9762 46.5906 66.2411C46.541 65.506 47.073 64.8157 48.1864 64.1704C49.2115 63.5781 50.3834 63.2849 51.7021 63.2906C53.0369 63.3002 54.353 63.605 55.556 64.1833L57.5082 63.058L58.9598 63.8958L56.9806 65.0372C57.9239 65.7551 58.3546 66.4973 58.2728 67.264C58.1909 68.0307 57.5789 68.7321 56.4368 69.3681L56.3722 69.3832L53.7706 67.8821C54.434 67.4977 54.7915 67.1187 54.8474 66.7386C54.9034 66.3584 54.659 66.0139 54.1174 65.7016C53.6103 65.3886 53.0236 65.2289 52.4279 65.2418C51.8689 65.2676 51.3247 65.4299 50.8428 65.7145C50.3734 65.9869 50.1365 66.2788 50.1268 66.5975C50.1171 66.9162 50.3357 67.3879 50.7793 68.0178C51.6931 69.0508 52.1673 69.9438 52.2018 70.6969C52.2362 71.4499 51.7003 72.1455 50.5941 72.7837C49.5211 73.3981 48.3004 73.7072 47.0643 73.6774C45.7354 73.6559 44.4272 73.3446 43.2309 72.7654L41.4359 73.8024L39.9844 72.9635L41.7794 71.9276C40.7155 71.1933 40.1438 70.4151 40.0641 69.5931C39.9844 68.7712 40.6068 67.9916 41.9312 67.2543L42.012 67.2393L44.606 68.736C43.8271 69.1854 43.4624 69.6161 43.512 70.0282C43.5615 70.4402 43.8903 70.821 44.4983 71.1706C45.0343 71.4989 45.6478 71.6791 46.2761 71.6929C46.8533 71.6979 47.421 71.5469 47.9193 71.2557Z" fill="#141414"/>
<path d="M50.8662 82.7033C50.7898 82.7031 50.7167 82.6725 50.6628 82.6184C50.6089 82.5643 50.5787 82.4911 50.5787 82.4148V79.3405C50.5763 79.3012 50.5819 79.2618 50.5953 79.2248C50.6087 79.1877 50.6295 79.1538 50.6565 79.1251C50.6835 79.0965 50.716 79.0736 50.7522 79.058C50.7883 79.0423 50.8273 79.0343 50.8667 79.0343C50.9061 79.0343 50.9451 79.0423 50.9812 79.058C51.0174 79.0736 51.0499 79.0965 51.0769 79.1251C51.1039 79.1538 51.1247 79.1877 51.1381 79.2248C51.1515 79.2618 51.1572 79.3012 51.1548 79.3405V82.4148C51.1548 82.4913 51.1243 82.5647 51.0702 82.6188C51.0161 82.6729 50.9427 82.7033 50.8662 82.7033ZM54.117 82.362C54.0407 82.362 53.9674 82.3317 53.9134 82.2779C53.8593 82.224 53.8287 82.1508 53.8284 82.0745V79.0002C53.826 78.9609 53.8317 78.9215 53.8451 78.8845C53.8585 78.8475 53.8793 78.8136 53.9063 78.7849C53.9333 78.7562 53.9658 78.7333 54.002 78.7177C54.0381 78.7021 54.0771 78.694 54.1165 78.694C54.1559 78.694 54.1948 78.7021 54.231 78.7177C54.2671 78.7333 54.2997 78.7562 54.3267 78.7849C54.3537 78.8136 54.3745 78.8475 54.3879 78.8845C54.4013 78.9215 54.4069 78.9609 54.4045 79.0002V82.0745C54.4034 82.1501 54.3727 82.2222 54.3189 82.2754C54.2651 82.3286 54.1926 82.3585 54.117 82.3588V82.362ZM55.7419 82.0486C55.6654 82.0486 55.592 82.0182 55.5379 81.9641C55.4837 81.91 55.4533 81.8366 55.4533 81.7601V78.6373C55.4533 78.5608 55.4837 78.4874 55.5379 78.4333C55.592 78.3792 55.6654 78.3488 55.7419 78.3488C55.8185 78.3488 55.8919 78.3792 55.946 78.4333C56.0001 78.4874 56.0305 78.5608 56.0305 78.6373V81.7601C56.0296 81.836 55.9989 81.9086 55.9448 81.962C55.8908 82.0155 55.8179 82.0454 55.7419 82.0454V82.0486Z" fill="#141414"/>
<path d="M67.1187 64.4469C67.1123 61.8088 65.3657 59.1706 61.8736 57.1548C54.8895 53.1222 43.5745 53.1179 36.5968 57.1462C33.1069 59.162 31.3647 61.8045 31.3711 64.4469V67.5223C31.3711 70.1604 33.1242 72.7986 36.613 74.8144C43.5971 78.847 54.9186 78.8502 61.8909 74.823C65.3819 72.8072 67.123 70.1647 67.1187 67.5223V64.4469Z" fill="white"/>
<path d="M49.2658 78.1332C44.4363 78.1332 39.8976 77.0435 36.468 75.0665C33.0018 73.0658 31.0894 70.3867 31.084 67.5289V64.4471C31.0775 61.5828 32.9846 58.9016 36.4551 56.8966C39.8685 54.926 44.404 53.8395 49.2227 53.8395C54.0414 53.8395 58.5909 54.9282 62.0194 56.9063C65.4878 58.907 67.4034 61.585 67.4088 64.4439V67.5192C67.4088 70.3846 65.5061 73.0658 62.0366 75.0697C58.621 77.0457 54.0855 78.1332 49.2658 78.1332ZM49.2216 54.4199C44.502 54.4199 40.0688 55.4774 36.7415 57.3994C33.4583 59.2957 31.6536 61.8003 31.659 64.4503V67.516C31.6655 70.1714 33.4756 72.6728 36.7566 74.5679C40.0947 76.4954 44.5365 77.5561 49.2658 77.5561C53.9951 77.5561 58.4186 76.4986 61.747 74.5765C65.0301 72.6814 66.8359 70.1767 66.8305 67.5257V64.4471C66.8305 61.8003 65.014 59.2989 61.7308 57.4048C58.3927 55.4806 53.9498 54.4199 49.2216 54.4199Z" fill="#141414"/>
<path d="M67.1187 67.5254V64.4469C67.1122 61.8087 65.3656 59.1706 61.8736 57.1548C60.451 56.3496 58.9384 55.7149 57.3672 55.2639V76.7224C58.9441 76.2715 60.4622 75.6358 61.8897 74.8283C65.3818 72.8104 67.123 70.1679 67.1187 67.5254Z" fill="#0962FF"/>
<path d="M57.3656 77.0079C57.2894 77.0079 57.2163 76.9776 57.1624 76.9237C57.1084 76.8698 57.0781 76.7967 57.0781 76.7204V55.2673C57.0781 55.2224 57.0886 55.1782 57.1087 55.138C57.1288 55.0979 57.158 55.063 57.194 55.0362C57.23 55.0093 57.2717 54.9912 57.3159 54.9833C57.3601 54.9754 57.4055 54.9779 57.4486 54.9906C59.0415 55.4488 60.575 56.0928 62.0174 56.9095C65.4858 58.9102 67.4014 61.5882 67.4068 64.4471V67.5224C67.4068 70.3878 65.5041 73.069 62.0346 75.0729C60.5867 75.8912 59.0474 76.536 57.4486 76.9939C57.4217 77.0025 57.3938 77.0073 57.3656 77.0079ZM57.6542 55.6561V76.3306C59.0789 75.8987 60.4512 75.31 61.7461 74.5754C65.0292 72.6803 66.835 70.1756 66.8296 67.5245V64.4471C66.8296 61.8003 65.0131 59.2989 61.7299 57.4048C60.4394 56.6745 59.0727 56.0881 57.6542 55.6561Z" fill="#141414"/>
<path d="M61.8892 71.752C68.8658 67.7248 68.8583 61.1908 61.872 57.1581C54.8857 53.1255 43.5728 53.1212 36.5952 57.1495C29.6175 61.1778 29.6261 67.7108 36.6114 71.7434C43.5966 75.776 54.9105 75.7792 61.8892 71.752Z" fill="#86B2FF"/>
<path d="M49.2658 75.0588C44.4363 75.0588 39.8976 73.969 36.468 71.9931C32.9953 69.987 31.084 67.3047 31.084 64.4394C31.084 61.574 32.9921 58.8992 36.4562 56.9018C39.8696 54.9312 44.4051 53.8447 49.2238 53.8447C54.0424 53.8447 58.5919 54.9334 62.0204 56.9114C65.4953 58.9165 67.4044 61.5988 67.4044 64.4652C67.4044 67.3316 65.4974 70.0043 62.0334 72.0028C58.621 73.9723 54.0855 75.0588 49.2658 75.0588ZM49.2216 54.4197C44.502 54.4197 40.0688 55.4772 36.7415 57.3992C33.4637 59.2923 31.6579 61.7915 31.6579 64.4394C31.6579 67.0872 33.4691 69.5961 36.7566 71.4935C40.0946 73.4209 44.5365 74.4816 49.2658 74.4816C53.9951 74.4816 58.4186 73.4242 61.7469 71.5021C65.0247 69.6101 66.8305 67.1098 66.8305 64.463C66.8305 61.8163 65.0193 59.3062 61.7308 57.4079C58.3927 55.4804 53.9498 54.4197 49.2216 54.4197Z" fill="#141414"/>
<path d="M39.1726 69.7513C39.0973 69.7093 39.0143 69.6738 38.9411 69.6307C33.2535 66.3465 33.2481 61.0055 38.9293 57.7256C39.0079 57.6815 39.093 57.6438 39.1726 57.5996V69.7513ZM51.1649 55.3513C50.4833 55.2985 49.7974 55.2684 49.1115 55.2716V72.0923C49.7974 72.0923 50.4833 72.0675 51.1649 72.0158V55.3513ZM59.55 57.7332C58.3248 57.0439 57.0197 56.5076 55.6638 56.1363V71.2373C57.0248 70.8679 58.3345 70.3308 59.5629 69.6383C65.2516 66.3583 65.2398 61.0174 59.55 57.7332Z" fill="white"/>
<path d="M47.9222 66.6437C48.4204 66.3565 48.677 66.0435 48.6921 65.7047C48.7071 65.3666 48.4875 64.9057 48.0374 64.3221C47.1242 63.2625 46.6429 62.3652 46.5934 61.6301C46.5438 60.895 47.0758 60.2044 48.1892 59.5583C49.2143 58.9668 50.3862 58.6739 51.7049 58.6796C53.0397 58.6892 54.3558 58.994 55.5588 59.5723L57.5111 58.446L58.9626 59.2837L56.9834 60.4262C57.9267 61.1441 58.3574 61.886 58.2756 62.652C58.1937 63.4179 57.5818 64.1196 56.4396 64.7571L56.375 64.7722L53.7746 63.2625C54.4379 62.8781 54.7954 62.498 54.8514 62.1179C54.9073 61.7378 54.6629 61.3932 54.1213 61.0809C53.6144 60.7677 53.0275 60.6084 52.4318 60.6222C51.8727 60.6475 51.3284 60.8098 50.8467 61.0949C50.3773 61.3663 50.1404 61.6591 50.1307 61.9779C50.121 62.2966 50.3396 62.7683 50.7832 63.3971C51.697 64.4301 52.1712 65.3231 52.2057 66.0762C52.2401 66.8292 51.7042 67.5248 50.598 68.163C49.5251 68.7778 48.3044 69.0873 47.0682 69.0578C45.7392 69.0359 44.431 68.7243 43.2348 68.1447L41.4398 69.1827L39.9883 68.3429L41.7833 67.308C40.7194 66.5737 40.1476 65.7955 40.068 64.9735C39.9883 64.1516 40.6107 63.372 41.9351 62.6347L42.0159 62.6197L44.6099 64.1164C43.831 64.5658 43.4663 64.9965 43.5159 65.4086C43.5633 65.8199 43.8928 66.1989 44.5022 66.5511C45.0385 66.8786 45.6518 67.0587 46.28 67.0733C46.8561 67.0803 47.4234 66.9319 47.9222 66.6437Z" fill="#141414"/>
<path d="M52.4951 77.965C52.4187 77.9648 52.3456 77.9342 52.2917 77.8801C52.2378 77.826 52.2076 77.7528 52.2076 77.6765V74.6011C52.2052 74.5618 52.2108 74.5224 52.2242 74.4854C52.2376 74.4484 52.2584 74.4144 52.2854 74.3858C52.3124 74.3571 52.345 74.3342 52.3811 74.3186C52.4173 74.303 52.4562 74.2949 52.4956 74.2949C52.535 74.2949 52.574 74.303 52.6101 74.3186C52.6463 74.3342 52.6788 74.3571 52.7058 74.3858C52.7328 74.4144 52.7536 74.4484 52.767 74.4854C52.7804 74.5224 52.786 74.5618 52.7836 74.6011V77.6754C52.7836 77.7133 52.7762 77.7508 52.7617 77.7858C52.7472 77.8208 52.7259 77.8526 52.6991 77.8794C52.6723 77.9062 52.6405 77.9275 52.6055 77.942C52.5705 77.9565 52.533 77.964 52.4951 77.964V77.965ZM54.1199 77.7497C54.0434 77.7497 53.97 77.7193 53.9159 77.6652C53.8618 77.611 53.8314 77.5376 53.8314 77.4611V74.3868C53.8359 74.3135 53.8682 74.2446 53.9217 74.1943C53.9752 74.1439 54.0459 74.1159 54.1194 74.1159C54.1929 74.1159 54.2636 74.1439 54.3171 74.1943C54.3707 74.2446 54.403 74.3135 54.4075 74.3868V77.4611C54.4069 77.5371 54.3764 77.6098 54.3226 77.6634C54.2687 77.717 54.1959 77.7472 54.1199 77.7475V77.7497ZM55.7448 77.4353C55.6685 77.4353 55.5952 77.405 55.5412 77.3511C55.4871 77.2972 55.4566 77.2241 55.4563 77.1477V74.025C55.4563 73.9485 55.4867 73.8751 55.5408 73.821C55.5949 73.7668 55.6683 73.7365 55.7448 73.7365C55.8214 73.7365 55.8948 73.7668 55.9489 73.821C56.003 73.8751 56.0334 73.9485 56.0334 74.025V77.1477C56.0326 77.2237 56.0018 77.2963 55.9478 77.3497C55.8937 77.4031 55.8208 77.4331 55.7448 77.4331V77.4353Z" fill="#141414"/>
<path d="M70.194 59.8395C70.194 57.2003 68.441 54.5632 64.9511 52.5474C57.9648 48.5148 46.6455 48.5105 39.6721 52.5388C36.1822 54.5546 34.4399 57.196 34.4453 59.8395V62.9138C34.4518 65.553 36.1995 68.1901 39.6872 70.2059C46.6724 74.2395 57.9928 74.2428 64.9672 70.2145C68.4572 68.1998 70.1983 65.5573 70.194 62.9138V59.8395Z" fill="white"/>
<path d="M52.3409 73.5212C47.5125 73.5212 42.9673 72.4326 39.5442 70.4555C36.0769 68.4538 34.1602 65.7758 34.1602 62.9179V59.8426C34.1537 56.9783 36.0607 54.296 39.5312 52.2921C42.9447 50.3205 47.4802 49.235 52.2989 49.235C57.1175 49.235 61.6724 50.3237 65.0977 52.3007C68.565 54.3025 70.4817 56.9805 70.4817 59.8383V62.9136C70.4817 65.779 68.579 68.4613 65.1106 70.4642C61.6972 72.4358 57.1606 73.5212 52.3409 73.5212ZM52.2967 49.8079C47.5771 49.8079 43.1439 50.8664 39.8166 52.7874C36.5334 54.6847 34.7277 57.1883 34.7341 59.8383V62.905C34.7406 65.5604 36.5507 68.0618 39.8317 69.957C43.1698 71.8834 47.6116 72.9451 52.3409 72.9451C57.0702 72.9451 61.4937 71.8866 64.8231 69.9656C68.1052 68.0694 69.911 65.5658 69.9067 62.9136V59.8394C69.9002 57.1926 68.0891 54.6912 64.807 52.7971C61.4678 50.8696 57.0249 49.8079 52.2967 49.8079Z" fill="#141414"/>
<path d="M70.1938 62.9136V59.8394C70.1938 57.2001 68.4407 54.5631 64.9508 52.5473C63.5275 51.7429 62.0146 51.1083 60.4434 50.6564V72.1084C62.0204 71.6579 63.5385 71.0221 64.9659 70.2143C68.4569 68.1997 70.2035 65.5572 70.1938 62.9136Z" fill="#0962FF"/>
<path d="M60.4449 72.3971C60.3684 72.3968 60.2951 72.3663 60.2411 72.3122C60.187 72.2582 60.1565 72.1849 60.1563 72.1085V50.6565C60.1561 50.6116 60.1664 50.5674 60.1864 50.5272C60.2064 50.4871 60.2355 50.4522 60.2714 50.4253C60.3073 50.3984 60.3489 50.3803 60.3931 50.3724C60.4372 50.3645 60.4826 50.367 60.5256 50.3797C62.119 50.838 63.6532 51.4817 65.0966 52.2975C68.5639 54.2993 70.4806 56.9773 70.4806 59.8351V62.9105C70.4806 65.7758 68.5779 68.4581 65.1095 70.461C63.6615 71.2798 62.1218 71.9246 60.5224 72.382C60.4973 72.3904 60.4712 72.3955 60.4449 72.3971ZM60.7324 51.0452V71.7198C62.1567 71.2875 63.529 70.6992 64.8242 69.9657C68.1063 68.0694 69.9121 65.5659 69.9078 62.9137V59.8394C69.9013 57.1927 68.0901 54.6913 64.808 52.7972C63.5168 52.0652 62.149 51.4776 60.7291 51.0452H60.7324Z" fill="#141414"/>
<path d="M64.967 67.1389C71.9425 63.1117 71.9349 56.5766 64.9508 52.5451C57.9667 48.5135 46.6452 48.5081 39.6718 52.5364C32.6985 56.5648 32.7028 63.0977 39.6869 67.1292C46.671 71.1608 57.9904 71.1683 64.967 67.1389Z" fill="#86B2FF"/>
<path d="M52.3409 70.4471C47.5125 70.4471 42.9673 69.3584 39.5442 67.3814C36.0704 65.3764 34.1602 62.6941 34.1602 59.8277C34.1602 56.9612 36.0682 54.2886 39.5323 52.2901C42.9458 50.3184 47.4812 49.233 52.2999 49.233C57.1186 49.233 61.6735 50.3217 65.0988 52.2987C68.5725 54.3048 70.4828 56.9871 70.4828 59.8535C70.4828 62.7199 68.5758 65.3915 65.1117 67.3911C61.6972 69.3616 57.1606 70.4471 52.3409 70.4471ZM52.2967 49.808C47.5771 49.808 43.1439 50.8665 39.8166 52.7875C36.5388 54.6806 34.733 57.1809 34.733 59.8277C34.733 62.4744 36.5442 64.9845 39.8317 66.8829C43.1697 68.8092 47.6116 69.871 52.3409 69.871C57.0702 69.871 61.4936 68.8125 64.8231 66.8915C68.1009 64.9984 69.9067 62.4992 69.9067 59.8524C69.9067 57.2056 68.0944 54.6946 64.8069 52.7972C61.4678 50.8698 57.0249 49.808 52.2967 49.808Z" fill="#141414"/>
<path d="M42.2473 65.1394C42.1719 65.0985 42.089 65.063 42.0157 65.0199C36.3281 61.7356 36.3216 56.3947 42.0039 53.1148C42.0814 53.0696 42.1676 53.0319 42.2473 52.9888V65.1394ZM54.2396 50.7404C53.558 50.6877 52.8709 50.6575 52.1861 50.6608V67.4804C52.8709 67.4804 53.558 67.4556 54.2396 67.405V50.7404ZM62.6246 53.1223C61.3997 52.4318 60.094 51.8954 58.7374 51.5254V66.6254C60.0987 66.2566 61.4088 65.7198 62.6375 65.0274C68.3209 61.7475 68.3144 56.4066 62.6246 53.1223Z" fill="white"/>
<path d="M50.9921 62.0328C51.4906 61.7463 51.7458 61.4319 51.763 61.0927C51.7803 60.7535 51.5584 60.2937 51.1083 59.7101C50.1952 58.6505 49.7139 57.7532 49.6644 57.0181C49.6148 56.283 50.1468 55.5928 51.2602 54.9474C52.2853 54.3566 53.4569 54.0634 54.7749 54.0677C56.1098 54.0781 57.4261 54.3829 58.6298 54.9603L60.582 53.8351L62.0336 54.6728L60.0544 55.8153C60.9977 56.5332 61.4284 57.2751 61.3466 58.0411C61.2647 58.807 60.6545 59.5084 59.516 60.1451L59.4514 60.1602L56.8488 58.6548C57.5121 58.2704 57.8696 57.8914 57.9256 57.5113C57.9816 57.1312 57.7371 56.7866 57.1944 56.4743C56.6878 56.1612 56.1014 56.0015 55.506 56.0145C54.947 56.0405 54.4028 56.2028 53.921 56.4872C53.4515 56.7597 53.2135 57.0515 53.2049 57.3702C53.1963 57.689 53.4138 58.1617 53.8585 58.7905C54.7723 59.8228 55.2461 60.7158 55.2799 61.4696C55.3136 62.2234 54.7777 62.919 53.6722 63.5564C52.5994 64.1714 51.3786 64.4805 50.1425 64.4502C48.8135 64.4286 47.5053 64.1174 46.3091 63.5381L44.514 64.5751L43.0625 63.7363L44.8575 62.7004C43.7936 61.966 43.2219 61.1878 43.1422 60.3659C43.0625 59.5439 43.6849 58.7647 45.0094 58.0281L45.0901 58.012L47.6841 59.5087C46.9045 59.9574 46.5398 60.3881 46.5901 60.8009C46.6403 61.2137 46.9691 61.5945 47.5764 61.9434C48.1127 62.2718 48.7266 62.452 49.3553 62.4656C49.9299 62.4712 50.4953 62.3216 50.9921 62.0328Z" fill="#141414"/>
<path d="M53.9434 73.4804C53.9055 73.4805 53.8679 73.4732 53.8328 73.4587C53.7977 73.4442 53.7659 73.423 53.739 73.3962C53.7122 73.3693 53.691 73.3375 53.6765 73.3024C53.662 73.2673 53.6547 73.2297 53.6548 73.1918V70.1175C53.6524 70.0782 53.6581 70.0388 53.6715 70.0018C53.6849 69.9648 53.7057 69.9309 53.7327 69.9022C53.7597 69.8735 53.7922 69.8506 53.8284 69.835C53.8645 69.8194 53.9035 69.8113 53.9429 69.8113C53.9823 69.8113 54.0212 69.8194 54.0574 69.835C54.0935 69.8506 54.1261 69.8735 54.1531 69.9022C54.18 69.9309 54.2009 69.9648 54.2143 70.0018C54.2277 70.0388 54.2333 70.0782 54.2309 70.1175V73.1918C54.2309 73.2681 54.2007 73.3414 54.1468 73.3955C54.0929 73.4496 54.0198 73.4801 53.9434 73.4804ZM57.1921 73.139C57.1158 73.1387 57.0426 73.1082 56.9888 73.0541C56.9349 73 56.9046 72.9268 56.9046 72.8505V69.7762C56.9022 69.7369 56.9079 69.6975 56.9213 69.6605C56.9346 69.6234 56.9555 69.5895 56.9825 69.5608C57.0094 69.5322 57.042 69.5093 57.0782 69.4937C57.1143 69.478 57.1533 69.47 57.1927 69.47C57.232 69.47 57.271 69.478 57.3072 69.4937C57.3433 69.5093 57.3759 69.5322 57.4028 69.5608C57.4298 69.5895 57.4507 69.6234 57.464 69.6605C57.4774 69.6975 57.4831 69.7369 57.4807 69.7762V72.8461C57.481 72.8842 57.4737 72.922 57.4594 72.9572C57.445 72.9925 57.4238 73.0246 57.397 73.0516C57.3701 73.0786 57.3382 73.1001 57.303 73.1147C57.2679 73.1293 57.2302 73.1369 57.1921 73.1369V73.139ZM58.8181 72.8246C58.7802 72.8246 58.7428 72.8171 58.7078 72.8026C58.6729 72.7881 58.6411 72.7668 58.6144 72.74C58.5877 72.7132 58.5665 72.6814 58.5521 72.6464C58.5378 72.6114 58.5304 72.5739 58.5306 72.536V69.4187C58.5282 69.3794 58.5338 69.34 58.5472 69.303C58.5606 69.2659 58.5814 69.232 58.6084 69.2033C58.6354 69.1746 58.668 69.1518 58.7041 69.1362C58.7403 69.1205 58.7792 69.1125 58.8186 69.1125C58.858 69.1125 58.897 69.1205 58.9331 69.1362C58.9693 69.1518 59.0018 69.1746 59.0288 69.2033C59.0558 69.232 59.0766 69.2659 59.09 69.303C59.1034 69.34 59.1091 69.3794 59.1067 69.4187V72.536C59.1061 72.6122 59.0754 72.685 59.0214 72.7387C58.9673 72.7923 58.8943 72.8225 58.8181 72.8225V72.8246Z" fill="#141414"/>
<path d="M67.1187 55.2284C67.1123 52.5892 65.3657 49.9521 61.8736 47.9363C54.8895 43.9026 43.5745 43.8983 36.5968 47.9266C33.1069 49.9424 31.3647 52.5848 31.3711 55.2284V58.3026C31.3711 60.9408 33.1242 63.579 36.613 65.5947C43.5971 69.6274 54.9186 69.6306 61.8909 65.6033C65.3819 63.5876 67.123 60.9451 67.1187 58.3026V55.2284Z" fill="white"/>
<path d="M49.2658 68.9102C44.4363 68.9102 39.8976 67.8216 36.468 65.8446C33.0018 63.8428 31.0894 61.1637 31.084 58.307V55.2327C31.0775 52.3674 32.9846 49.6861 36.4551 47.6811C39.8685 45.7106 44.404 44.6252 49.2227 44.6252C54.0414 44.6252 58.5909 45.7128 62.0194 47.6908C65.4878 49.6915 67.4034 52.3695 67.4088 55.2284V58.3038C67.4088 61.1691 65.5061 63.8514 62.0366 65.8543C58.621 67.8248 54.0855 68.9102 49.2658 68.9102ZM49.2216 45.197C44.502 45.197 40.0688 46.2555 36.7415 48.1765C33.4583 50.0727 31.6536 52.5774 31.659 55.2274V58.293C31.6655 60.9484 33.4756 63.4498 36.7566 65.345C40.0947 67.2724 44.5365 68.3331 49.2658 68.3331C53.9951 68.3331 58.4186 67.2757 61.747 65.3536C65.0301 63.4584 66.8359 60.9548 66.8305 58.3027V55.2284C66.8305 52.5806 65.014 50.0802 61.7308 48.1851C58.3927 46.2576 53.9498 45.197 49.2216 45.197Z" fill="#141414"/>
<path d="M67.1187 58.3027V55.2285C67.1122 52.5892 65.3656 49.9521 61.8736 47.9364C60.4512 47.1304 58.9386 46.4954 57.3672 46.0444V67.4975C58.9441 67.0467 60.4622 66.4109 61.8897 65.6034C65.3818 63.5855 67.123 60.9452 67.1187 58.3027Z" fill="#0962FF"/>
<path d="M57.3656 67.785C57.2894 67.785 57.2163 67.7547 57.1624 67.7008C57.1084 67.6469 57.0781 67.5738 57.0781 67.4975V46.0444C57.0782 45.9997 57.0886 45.9556 57.1086 45.9156C57.1286 45.8756 57.1576 45.8409 57.1933 45.814C57.2295 45.7872 57.2713 45.7691 57.3155 45.7611C57.3598 45.753 57.4053 45.7553 57.4486 45.7677C59.0415 46.2259 60.575 46.8699 62.0174 47.6865C65.4858 49.6872 67.4014 52.3652 67.4068 55.2241V58.2995C67.4068 61.1649 65.5041 63.8472 62.0346 65.85C60.5869 66.6687 59.0476 67.3135 57.4486 67.771C57.4217 67.7796 57.3938 67.7843 57.3656 67.785ZM57.6542 46.4332V67.1077C59.0789 66.6758 60.4512 66.0871 61.7461 65.3525C65.0292 63.4574 66.835 60.9538 66.8296 58.3016V55.2274C66.8296 52.5795 65.0131 50.0792 61.7299 48.184C60.4395 47.453 59.0728 46.8659 57.6542 46.4332Z" fill="#141414"/>
<path d="M61.8892 62.5293C68.8658 58.502 68.8583 51.968 61.872 47.9365C54.8857 43.9049 43.5728 43.8985 36.5952 47.9268C29.6175 51.9551 29.6261 58.488 36.6114 62.5206C43.5966 66.5533 54.9105 66.5565 61.8892 62.5293Z" fill="#86B2FF"/>
<path d="M49.2658 65.8359C44.4363 65.8359 39.8976 64.7473 36.468 62.7703C32.9953 60.7653 31.084 58.0819 31.084 55.2165C31.084 52.3512 32.9921 49.6775 36.4562 47.6789C39.8696 45.7084 44.4051 44.623 49.2238 44.623C54.0424 44.623 58.5919 45.7106 62.0204 47.6886C65.4953 49.6936 67.4044 52.377 67.4044 55.2435C67.4044 58.1099 65.4974 60.7814 62.0334 62.7811C58.621 64.7505 54.0855 65.8359 49.2658 65.8359ZM49.2216 45.1969C44.502 45.1969 40.0688 46.2554 36.7415 48.1764C33.4637 50.0694 31.6579 52.5687 31.6579 55.2165C31.6579 57.8644 33.4691 60.3733 36.7566 62.2707C40.0946 64.1981 44.5365 65.2599 49.2658 65.2599C53.9951 65.2599 58.4186 64.2014 61.7469 62.2793C65.0247 60.3873 66.8305 57.8881 66.8305 55.2413C66.8305 52.5945 65.0193 50.0834 61.7308 48.185C58.3927 46.2576 53.9498 45.1969 49.2216 45.1969Z" fill="#141414"/>
<path d="M39.1726 60.5285C39.0973 60.4876 39.0143 60.451 38.9411 60.4079C33.2535 57.1237 33.2481 51.7828 38.9293 48.5028C39.0079 48.4587 39.093 48.421 39.1726 48.3769V60.5285ZM51.1649 46.1285C50.4833 46.0757 49.7974 46.0456 49.1115 46.0488V62.8695C49.7974 62.8695 50.4833 62.8447 51.1649 62.7941V46.1285ZM59.55 48.5104C58.3262 47.8214 57.0225 47.2851 55.6681 46.9135V62.0145C57.0289 61.6451 58.3386 61.1083 59.5672 60.4165C65.2516 57.1366 65.2398 51.7946 59.55 48.5104Z" fill="white"/>
<path d="M47.9193 57.421C48.4175 57.1339 48.6742 56.8209 48.6892 56.482C48.7043 56.1439 48.4846 55.6831 48.0345 55.0994C47.1214 54.0399 46.6401 53.1425 46.5906 52.4074C46.5421 51.6687 47.074 50.9807 48.1864 50.3357C49.2115 49.7442 50.3834 49.4513 51.7021 49.457C53.0366 49.4637 54.353 49.7656 55.5571 50.3411L57.5093 49.2147L58.9608 50.0525L56.9806 51.2025C57.9239 51.9204 58.3546 52.6623 58.2728 53.4282C58.1909 54.1942 57.5789 54.8959 56.4368 55.5334L56.3722 55.5485L53.7706 54.0474C54.434 53.663 54.7915 53.2829 54.8474 52.9028C54.9034 52.5227 54.659 52.1781 54.1174 51.8658C53.6105 51.5526 53.0236 51.3933 52.4279 51.4071C51.8688 51.4324 51.3245 51.5947 50.8428 51.8798C50.3734 52.1512 50.1365 52.444 50.1268 52.7628C50.1171 53.0815 50.3357 53.5532 50.7793 54.182C51.6931 55.2143 52.1673 56.1077 52.2018 56.8622C52.2362 57.6166 51.7003 58.3119 50.5941 58.9479C49.5214 59.5632 48.3006 59.8727 47.0643 59.8427C45.7353 59.8208 44.4271 59.5092 43.2309 58.9296L41.4359 59.9676L39.9844 59.1288L41.7794 58.0929C40.7155 57.3586 40.1438 56.5804 40.0641 55.7584C39.9844 54.9365 40.6068 54.1569 41.9312 53.4196L42.012 53.4045L44.606 54.9013C43.8271 55.3507 43.4624 55.7814 43.512 56.1935C43.5615 56.6055 43.8903 56.9863 44.4983 57.3359C45.0346 57.6635 45.6479 57.8436 46.2761 57.8582C46.8533 57.8637 47.4212 57.7126 47.9193 57.421Z" fill="#141414"/>
<path d="M50.8662 68.8684C50.7898 68.8681 50.7167 68.8376 50.6628 68.7835C50.6089 68.7294 50.5787 68.6562 50.5787 68.5798V65.5066C50.5763 65.4673 50.5819 65.4279 50.5953 65.3909C50.6087 65.3539 50.6295 65.32 50.6565 65.2913C50.6835 65.2626 50.716 65.2397 50.7522 65.2241C50.7883 65.2085 50.8273 65.2004 50.8667 65.2004C50.9061 65.2004 50.9451 65.2085 50.9812 65.2241C51.0174 65.2397 51.0499 65.2626 51.0769 65.2913C51.1039 65.32 51.1247 65.3539 51.1381 65.3909C51.1515 65.4279 51.1572 65.4673 51.1548 65.5066V68.5798C51.1548 68.6563 51.1243 68.7297 51.0702 68.7839C51.0161 68.838 50.9427 68.8684 50.8662 68.8684ZM54.117 68.5217C54.0405 68.5217 53.9671 68.4913 53.913 68.4371C53.8588 68.383 53.8284 68.3096 53.8284 68.2331V65.1588C53.8329 65.0855 53.8652 65.0166 53.9188 64.9662C53.9723 64.9159 54.043 64.8879 54.1165 64.8879C54.19 64.8879 54.2607 64.9159 54.3142 64.9662C54.3677 65.0166 54.4 65.0855 54.4045 65.1588V68.2331C54.405 68.2712 54.3979 68.3089 54.3836 68.3443C54.3694 68.3796 54.3483 68.4117 54.3215 68.4388C54.2948 68.466 54.263 68.4875 54.2279 68.5023C54.1928 68.5171 54.1551 68.5248 54.117 68.5249V68.5217ZM55.7419 68.2072C55.7041 68.2074 55.6666 68.2 55.6316 68.1857C55.5965 68.1713 55.5647 68.1501 55.5379 68.1234C55.5111 68.0967 55.4898 68.065 55.4753 68.03C55.4608 67.995 55.4533 67.9576 55.4533 67.9197V64.797C55.4533 64.7205 55.4837 64.6471 55.5379 64.593C55.592 64.5388 55.6654 64.5084 55.7419 64.5084C55.8184 64.5084 55.8918 64.5388 55.946 64.593C56.0001 64.6471 56.0305 64.7205 56.0305 64.797V67.9197C56.0316 67.9583 56.025 67.9967 56.011 68.0327C55.997 68.0686 55.9759 68.1014 55.949 68.129C55.9221 68.1566 55.8899 68.1786 55.8543 68.1935C55.8187 68.2084 55.7805 68.216 55.7419 68.2159V68.2072Z" fill="#141414"/>
<path d="M70.194 50.6167C70.194 47.9786 68.441 45.3404 64.9511 43.3246C57.9648 39.292 46.6455 39.2877 39.6721 43.316C36.1822 45.3318 34.4399 47.9732 34.4453 50.6167V53.691C34.4518 56.3302 36.1995 58.9673 39.6872 60.9831C46.6724 65.0168 57.9928 65.02 64.9672 60.9928C68.4572 58.977 70.1983 56.3345 70.194 53.691V50.6167Z" fill="white"/>
<path d="M52.3409 64.2995C47.5125 64.2995 42.9673 63.2098 39.5442 61.2328C36.0769 59.2311 34.1602 56.553 34.1602 53.6952V50.6199C34.1537 47.7556 36.0607 45.0733 39.5312 43.0694C42.9447 41.0977 47.4802 40.0123 52.2989 40.0123C57.1175 40.0123 61.6724 41.101 65.0977 43.078C68.565 45.0797 70.4817 47.7578 70.4817 50.6156V53.6909C70.4817 56.5563 68.579 59.2386 65.1106 61.2414C61.6972 63.2131 57.1606 64.2995 52.3409 64.2995ZM52.2967 40.5852C47.5771 40.5852 43.1439 41.6437 39.8166 43.5647C36.5334 45.462 34.7277 47.9656 34.7341 50.6156V53.6791C34.7406 56.3345 36.5507 58.8359 39.8317 60.731C43.1698 62.6585 47.6116 63.7191 52.3409 63.7191C57.0702 63.7191 61.4937 62.6606 64.8231 60.7396C68.1052 58.8434 69.911 56.3398 69.9067 53.6888V50.6134C69.9002 47.9666 68.0891 45.4652 64.807 43.5712C61.4678 41.6469 57.0249 40.5852 52.2967 40.5852Z" fill="#141414"/>
<path d="M70.1938 53.6909V50.6167C70.1938 47.9785 68.4407 45.3403 64.9508 43.3246C63.5275 42.5202 62.0146 41.8855 60.4434 41.4337V62.8857C62.0202 62.435 63.5382 61.7996 64.9659 60.9927C68.4569 58.9769 70.2035 56.3345 70.1938 53.6909Z" fill="#0962FF"/>
<path d="M60.4449 63.1744C60.3825 63.1741 60.3218 63.1541 60.2715 63.1173C60.2357 63.0902 60.2067 63.0552 60.1867 63.0151C60.1667 62.9749 60.1563 62.9306 60.1563 62.8858V41.4338C60.1561 41.3889 60.1664 41.3447 60.1864 41.3045C60.2064 41.2644 60.2355 41.2295 60.2714 41.2026C60.3073 41.1757 60.3489 41.1575 60.3931 41.1496C60.4372 41.1417 60.4826 41.1443 60.5256 41.157C62.119 41.6153 63.6532 42.259 65.0966 43.0748C68.5639 45.0766 70.4806 47.7546 70.4806 50.6124V53.6877C70.4806 56.5531 68.5779 59.2354 65.1095 61.2383C63.6619 62.0579 62.1221 62.7028 60.5224 63.1593C60.4973 63.1677 60.4712 63.1728 60.4449 63.1744ZM60.7291 41.8225V62.4971C62.1535 62.0644 63.5258 61.4758 64.821 60.7419C68.103 58.8456 69.9088 56.3421 69.9045 53.691V50.6156C69.8981 47.9689 68.0869 45.4675 64.8048 43.5734C63.5146 42.842 62.1478 42.2548 60.7291 41.8225Z" fill="#141414"/>
<path d="M64.967 57.9184C71.9425 53.8912 71.9349 47.3561 64.9508 43.3245C57.9667 39.293 46.6452 39.2876 39.6718 43.3159C32.6985 47.3442 32.7028 53.8772 39.6869 57.9087C46.671 61.9403 57.9904 61.9456 64.967 57.9184Z" fill="#86B2FF"/>
<path d="M52.3409 61.2242C47.5125 61.2242 42.9673 60.1356 39.5442 58.1586C36.0704 56.1536 34.1602 53.4713 34.1602 50.6048C34.1602 47.7384 36.0682 45.0658 39.5323 43.0672C42.9458 41.0956 47.4812 40.0102 52.2999 40.0102C57.1186 40.0102 61.6735 41.0988 65.0988 43.0758C68.5725 45.0819 70.4828 47.7642 70.4828 50.6307C70.4828 53.4971 68.5758 56.1686 65.1117 58.1683C61.6972 60.1399 57.1606 61.2242 52.3409 61.2242ZM52.2967 40.5852C47.5771 40.5852 43.1439 41.6437 39.8166 43.5647C36.5388 45.4577 34.733 47.958 34.733 50.6048C34.733 53.2516 36.5442 55.7616 39.8317 57.66C43.1697 59.5875 47.6116 60.6481 52.3409 60.6481C57.0702 60.6481 61.4936 59.5896 64.8231 57.6686C68.1009 55.7767 69.9067 53.2764 69.9067 50.6296C69.9067 47.9828 68.0944 45.4728 64.8069 43.5744C61.4678 41.6469 57.0249 40.5852 52.2967 40.5852Z" fill="#141414"/>
<path d="M52.3173 63.9632C52.2795 63.9632 52.242 63.9557 52.2071 63.9412C52.1721 63.9267 52.1404 63.9054 52.1137 63.8786C52.087 63.8518 52.0658 63.82 52.0514 63.785C52.037 63.75 52.0297 63.7125 52.0298 63.6746V61.237C52.0274 61.1977 52.0331 61.1583 52.0465 61.1213C52.0599 61.0842 52.0807 61.0503 52.1077 61.0216C52.1347 60.993 52.1672 60.9701 52.2034 60.9545C52.2395 60.9388 52.2785 60.9308 52.3179 60.9308C52.3573 60.9308 52.3962 60.9388 52.4324 60.9545C52.4685 60.9701 52.5011 60.993 52.5281 61.0216C52.555 61.0503 52.5759 61.0842 52.5893 61.1213C52.6027 61.1583 52.6083 61.1977 52.6059 61.237V63.6746C52.6059 63.7125 52.5985 63.7501 52.584 63.7851C52.5695 63.8201 52.5482 63.8519 52.5214 63.8787C52.4946 63.9055 52.4628 63.9268 52.4278 63.9413C52.3928 63.9558 52.3552 63.9632 52.3173 63.9632ZM56.7822 63.7985C56.7057 63.7985 56.6323 63.7681 56.5781 63.7139C56.524 63.6598 56.4936 63.5864 56.4936 63.5099V61.0442C56.4936 60.9677 56.524 60.8943 56.5781 60.8402C56.6323 60.7861 56.7057 60.7557 56.7822 60.7557C56.8587 60.7557 56.9321 60.7861 56.9863 60.8402C57.0404 60.8943 57.0708 60.9677 57.0708 61.0442V63.5099C57.0702 63.5861 57.0396 63.6589 56.9855 63.7126C56.9314 63.7662 56.8584 63.7963 56.7822 63.7963V63.7985ZM58.8169 63.2687C58.7792 63.2687 58.7418 63.2613 58.7069 63.2468C58.672 63.2324 58.6403 63.2112 58.6136 63.1845C58.5869 63.1578 58.5657 63.1261 58.5513 63.0912C58.5368 63.0563 58.5294 63.0189 58.5294 62.9812V60.466C58.527 60.4267 58.5327 60.3873 58.5461 60.3503C58.5594 60.3132 58.5803 60.2793 58.6073 60.2506C58.6342 60.222 58.6668 60.1991 58.7029 60.1835C58.7391 60.1679 58.7781 60.1598 58.8174 60.1598C58.8568 60.1598 58.8958 60.1679 58.932 60.1835C58.9681 60.1991 59.0007 60.222 59.0276 60.2506C59.0546 60.2793 59.0755 60.3132 59.0888 60.3503C59.1022 60.3873 59.1079 60.4267 59.1055 60.466V62.9812C59.1046 63.0572 59.0739 63.1297 59.0198 63.1832C58.9658 63.2366 58.8929 63.2665 58.8169 63.2665V63.2687Z" fill="#141414"/>
<ellipse cx="26.8755" cy="71.5841" rx="10.7495" ry="16.6333" transform="rotate(29.5247 26.8755 71.5841)" fill="#0962FF"/>
<path fill-rule="evenodd" clip-rule="evenodd" d="M21.6711 60.9654C20.1132 62.4805 18.6774 64.3281 17.4761 66.4492C12.9491 74.4427 13.467 83.2943 18.6328 86.2199C23.1365 88.7706 29.6861 85.975 34.291 79.9196L16.7678 68.4687L21.6711 60.9654Z" fill="#86B2FF"/>
<path d="M32.6446 75.3313C30.3297 79.4187 27.1692 82.5013 23.9436 84.1878C20.7151 85.8758 17.458 86.1502 14.9003 84.7017C12.3426 83.2531 10.9029 80.3187 10.6901 76.6817C10.4775 73.0481 11.4957 68.7522 13.8106 64.6648C16.1255 60.5773 19.2861 57.4947 22.5116 55.8083C25.7401 54.1203 28.9972 53.8458 31.5549 55.2943C34.1126 56.7429 35.5524 59.6773 35.7652 63.3143C35.9777 66.9479 34.9595 71.2438 32.6446 75.3313Z" fill="white" stroke="#141414" stroke-width="0.554993"/>
<path d="M30.4781 71.6567C30.6654 71.3235 30.7731 70.9822 30.741 70.6704C30.7356 70.3615 30.5738 70.1024 30.352 69.8812C30.1303 69.6601 29.8053 69.4943 29.4136 69.4098C30.165 69.2671 30.9005 68.9685 31.5599 68.552C32.2027 68.1557 32.6997 67.6562 32.9773 67.1782C34.1668 65.4505 32.7477 64.6871 30.5067 64.2575L32.4428 61.9019L30.5996 61.6895L28.7136 63.9842C28.2353 63.9348 27.7305 63.8827 27.2257 63.8306L29.1285 61.5156L27.2853 61.3032L25.3492 63.6589C24.9506 63.6177 24.5521 63.5766 24.1801 63.5381L21.6462 63.2545L20.3944 64.7775C20.3944 64.7775 21.7927 64.8998 21.7494 64.9174C22.0052 64.9218 22.2208 65.0101 22.3234 65.1309C22.4092 65.2719 22.4085 65.4481 22.2948 65.6567L16.9605 72.1115C16.9104 72.1724 16.8338 72.2306 16.7572 72.2888C16.6805 72.347 16.5773 72.4024 16.4642 72.4348C16.3777 72.4699 16.2646 72.5023 16.1682 72.5144C16.0718 72.5265 15.9921 72.5182 15.8858 72.5073C15.8957 72.5303 14.5308 72.3673 14.5308 72.3673L12.7568 74.0347L15.1579 74.3047C15.6096 74.3513 16.0446 74.4182 16.4697 74.4621L14.5169 76.838L16.36 77.0504L18.2961 74.6948C18.7843 74.7672 19.2625 74.8166 19.7673 74.8687L17.8479 77.204L19.691 77.4163L21.6439 75.0404C24.8792 75.2423 27.5419 74.8784 29.6602 72.6517C29.9637 72.3526 30.2741 72.0101 30.4781 71.6567ZM25.8669 65.5188C26.9031 65.6258 30.3813 65.7426 28.996 67.428C27.6607 69.0526 24.5497 68.4891 23.487 68.3793L25.8669 65.5188ZM19.6982 72.989L22.3118 69.8442C23.5606 69.9731 27.7197 70.1382 26.2008 71.9861C24.7054 73.7704 20.9735 73.1207 19.6982 72.989Z" fill="#141414"/>
<path d="M30.357 79.1338L33.2341 81.2446" stroke="#141414" stroke-width="0.388495"/>
<path d="M29.3291 80.2861L32.1334 82.3816" stroke="#141414" stroke-width="0.388495"/>
</svg>
