<svg width="81" height="80" viewBox="0 0 81 80" fill="none" xmlns="http://www.w3.org/2000/svg">
<circle cx="39.3223" cy="39.3223" r="38.9862" fill="#060606" stroke="#0962FF" stroke-width="0.672177"/>
<path d="M55.5903 65.1801L43.1432 72.3678C41.9057 73.0797 39.7461 72.9926 38.3164 72.1666L26.5571 65.3784C25.1274 64.5554 24.9742 63.3089 26.2087 62.594L38.6588 55.4063C39.8963 54.6914 42.0559 54.7816 43.4826 55.6076L55.2389 62.3928C56.6716 63.2188 56.8278 64.4653 55.5903 65.1801Z" fill="#86B2FF"/>
<path d="M55.5899 65.1803L43.1428 72.368C41.9053 73.0798 39.7457 72.9927 38.3159 72.1667L26.5567 65.3785C25.7577 64.919 25.3553 64.3242 25.3763 63.7686V65.1172C25.3492 65.6789 25.7517 66.2766 26.5567 66.7422L38.3099 73.5304C39.7397 74.3534 41.8993 74.4315 43.1368 73.7286L55.5839 66.5409C55.8132 66.4356 56.011 66.272 56.1575 66.0665C56.304 65.861 56.3941 65.6207 56.4189 65.3695V64.0209C56.391 64.2688 56.3002 64.5054 56.1551 64.7084C56.01 64.9113 55.8154 65.0737 55.5899 65.1803Z" fill="white"/>
<path opacity="0.5" d="M41.0246 71.4637C40.2089 71.471 39.4047 71.2705 38.6878 70.881L28.941 65.2552C28.2712 64.8678 27.8867 64.3541 27.8867 63.8165C27.9009 63.576 27.9799 63.3437 28.1152 63.1444C28.2506 62.9451 28.4373 62.786 28.6557 62.6841L38.9731 56.7279C40.0394 56.1272 41.9017 56.1873 43.1242 56.8931L52.871 62.5189C53.5408 62.9064 53.9253 63.42 53.9253 63.9547C53.911 64.1952 53.8321 64.4274 53.6967 64.6267C53.5614 64.8261 53.3747 64.9851 53.1563 65.087L42.8358 71.0462C42.2775 71.3375 41.6541 71.4812 41.0246 71.4637ZM40.7873 56.6048C40.2093 56.5886 39.6366 56.7199 39.1233 56.9862L28.8058 62.9454C28.6343 63.0221 28.4864 63.1433 28.3775 63.2965C28.2687 63.4497 28.203 63.6292 28.1871 63.8165C28.1871 64.234 28.5175 64.6635 29.0882 64.9939L38.835 70.6197C39.9764 71.2805 41.7004 71.3526 42.6826 70.7849L53.0031 64.8287C53.1747 64.7513 53.3226 64.6295 53.4314 64.4758C53.5401 64.3222 53.6059 64.1422 53.6219 63.9547C53.6219 63.5401 53.2915 63.1106 52.7208 62.7802L42.974 57.1514C42.3032 56.7869 41.5508 56.5988 40.7873 56.6048Z" fill="#0962FF"/>
<path opacity="0.1" d="M40.3277 12.6086C32.638 -13.8994 24.7424 32.9118 40.328 61.9581" stroke="#0962FF" stroke-width="0.527308"/>
<path opacity="0.1" d="M40.327 12.6086C48.9925 -15.0273 57.1704 34.3216 40.3267 61.9581" stroke="#0962FF" stroke-width="0.527308"/>
<line opacity="0.08" x1="40.7955" y1="4.14832" x2="40.7955" y2="13.1722" stroke="#0962FF" stroke-width="0.524511"/>
<path opacity="0.2" d="M40.3277 12.6087C17.4101 -9.95142 16.5646 35.4498 40.3279 61.9582" stroke="#0962FF" stroke-width="0.527308"/>
<path opacity="0.2" d="M40.3301 12.6084C62.5308 -9.38763 66.7607 34.0398 40.3298 61.9579" stroke="#0962FF" stroke-width="0.527308"/>
<path opacity="0.3" d="M40.3296 12.6089C8.66889 -0.646001 6.41245 40.5256 40.3298 61.9584" stroke="#0962FF" stroke-width="0.527308"/>
<path opacity="0.3" d="M40.3294 12.6088C72.3997 -0.645605 76.0659 37.4238 40.3291 61.9583" stroke="#0962FF" stroke-width="0.527308"/>
<path opacity="0.4" d="M40.3299 12.6094C2.74785 5.83995 -3.17417 44.4736 40.3301 61.9589" stroke="#0962FF" stroke-width="0.527308"/>
<path opacity="0.4" d="M40.3292 12.6087C83.116 6.96824 81.1421 45.3196 40.329 61.9582" stroke="#0962FF" stroke-width="0.527308"/>
<path opacity="0.5" d="M40.328 12.6093C1.05441 14.0181 -7.12345 55.7534 40.3282 61.9589" stroke="#0962FF" stroke-width="0.527308"/>
<path opacity="0.5" d="M40.33 12.6091C81.7065 15.1461 87.6283 54.3435 40.3298 61.9586" stroke="#0962FF" stroke-width="0.527308"/>
<path opacity="0.6" d="M40.3303 12.6094C6.4147 21.0679 -9.09445 61.9591 40.3305 61.959" stroke="#0962FF" stroke-width="0.527308"/>
<path opacity="0.6" d="M40.33 12.6091C73.2459 19.658 91.8575 60.8295 40.3298 61.9585" stroke="#0962FF" stroke-width="0.527308"/>
<path opacity="0.7" d="M40.3272 12.6097C7.54198 33.1939 1.0561 73.8014 40.3274 61.9592" stroke="#0962FF" stroke-width="0.527308"/>
<path opacity="0.7" d="M40.3304 12.6099C58.5823 20.222 92.9852 71.8275 40.3302 61.9594" stroke="#0962FF" stroke-width="0.527308"/>
<path opacity="0.8" d="M40.3219 12.6081C17.6924 36.5778 11.4879 83.9535 40.3221 61.9576" stroke="#0962FF" stroke-width="0.527308"/>
<path opacity="0.8" d="M40.3293 12.6099C52.6595 19.094 78.8858 85.3628 40.3291 61.9594" stroke="#0962FF" stroke-width="0.527308"/>
<path d="M40.3341 12.6082C32.3683 28.6817 19.1144 94.1047 40.3342 61.6752" stroke="#0962FF" stroke-width="0.527308"/>
<path d="M40.3311 12.6097C45.3284 17.966 65.3498 98.0528 40.3309 61.9592" stroke="#0962FF" stroke-width="0.527308"/>
<line x1="40.7955" y1="13.1721" x2="40.7955" y2="73.5191" stroke="#0962FF" stroke-width="0.524511"/>
<g clip-path="url(#clip0_1237_10049)">
<mask id="mask0_1237_10049" style="mask-type:luminance" maskUnits="userSpaceOnUse" x="67" y="28" width="7" height="10">
<path d="M70.5297 31.7422C70.6824 31.6541 70.8335 31.5321 70.9746 31.3832C71.1156 31.2343 71.2438 31.0614 71.3517 30.8745C71.4597 30.6875 71.5453 30.4901 71.6037 30.2935C71.6622 30.0969 71.6922 29.905 71.6922 29.7287C71.6922 29.5524 71.6622 29.3952 71.6037 29.2661C71.5453 29.137 71.4597 29.0384 71.3517 28.9761C71.2438 28.9138 71.1156 28.8889 70.9746 28.9029C70.8335 28.9168 70.6824 28.9694 70.5297 29.0575C70.2214 29.2355 69.9257 29.5477 69.7077 29.9253C69.4897 30.3029 69.3672 30.715 69.3672 31.0711C69.3672 31.4271 69.4897 31.6978 69.7077 31.8237C69.9257 31.9495 70.2214 31.9202 70.5297 31.7422Z" fill="white" stroke="white" stroke-width="0.767062" stroke-linecap="round" stroke-linejoin="round"/>
<path d="M68.0391 37.1693L68.0391 37.3994L73.0213 34.5229L73.0213 34.2928C73.0213 33.4337 73.0213 33.0041 72.8765 32.7594C72.7491 32.5443 72.5458 32.427 72.2959 32.4242C72.0115 32.4211 71.6395 32.6359 70.8955 33.0655L70.1648 33.4874C69.4208 33.9169 69.0488 34.1317 68.7645 34.4631C68.5145 34.7545 68.3113 35.1065 68.1839 35.4687C68.0391 35.8806 68.0391 36.3101 68.0391 37.1693Z" fill="white" stroke="white" stroke-width="0.767062" stroke-linecap="round" stroke-linejoin="round"/>
</mask>
<g mask="url(#mask0_1237_10049)">
<path d="M67.3711 29.7288L75.3426 25.1265L75.3426 34.3312L67.3711 38.9336L67.3711 29.7288Z" fill="#86B2FF"/>
</g>
</g>
<g clip-path="url(#clip1_1237_10049)">
<mask id="mask1_1237_10049" style="mask-type:luminance" maskUnits="userSpaceOnUse" x="46" y="8" width="7" height="10">
<path d="M49.6567 11.4386C49.8093 11.3505 49.9605 11.2285 50.1015 11.0796C50.2426 10.9307 50.3707 10.7579 50.4787 10.5709C50.5866 10.3839 50.6723 10.1865 50.7307 9.9899C50.7891 9.79331 50.8192 9.60139 50.8192 9.42511C50.8192 9.24883 50.7891 9.09163 50.7307 8.9625C50.6723 8.83337 50.5866 8.73483 50.4787 8.6725C50.3707 8.61018 50.2426 8.58529 50.1015 8.59926C49.9605 8.61323 49.8093 8.66579 49.6567 8.75393C49.3483 8.93194 49.0526 9.24408 48.8346 9.62169C48.6166 9.99931 48.4941 10.4115 48.4941 10.7675C48.4941 11.1235 48.6166 11.3942 48.8346 11.5201C49.0526 11.6459 49.3483 11.6167 49.6567 11.4386Z" fill="white" stroke="white" stroke-width="0.767062" stroke-linecap="round" stroke-linejoin="round"/>
<path d="M47.166 16.8655L47.166 17.0956L52.1482 14.2192L52.1482 13.989C52.1482 13.1299 52.1482 12.7004 52.0034 12.4557C51.876 12.2406 51.6728 12.1232 51.4228 12.1205C51.1385 12.1174 50.7665 12.3322 50.0225 12.7617L49.2918 13.1836C48.5477 13.6132 48.1757 13.828 47.8914 14.1593C47.6414 14.4507 47.4382 14.8028 47.3108 15.1649C47.166 15.5769 47.166 16.0064 47.166 16.8655Z" fill="white" stroke="white" stroke-width="0.767062" stroke-linecap="round" stroke-linejoin="round"/>
</mask>
<g mask="url(#mask1_1237_10049)">
<path d="M46.498 9.42508L54.4696 4.82271L54.4696 14.0274L46.498 18.6298L46.498 9.42508Z" fill="#86B2FF"/>
</g>
</g>
<g clip-path="url(#clip2_1237_10049)">
<mask id="mask2_1237_10049" style="mask-type:luminance" maskUnits="userSpaceOnUse" x="16" y="25" width="6" height="10">
<path d="M19.0922 28.3793C19.2449 28.4675 19.396 28.52 19.5371 28.534C19.6781 28.548 19.8063 28.5231 19.9142 28.4608C20.0222 28.3984 20.1078 28.2999 20.1662 28.1708C20.2247 28.0416 20.2547 27.8844 20.2547 27.7082C20.2547 27.5319 20.2247 27.34 20.1662 27.1434C20.1078 26.9468 20.0222 26.7494 19.9142 26.5624C19.8063 26.3754 19.6781 26.2025 19.5371 26.0536C19.396 25.9048 19.2449 25.7828 19.0922 25.6946C18.7839 25.5166 18.4882 25.4873 18.2702 25.6132C18.0522 25.7391 17.9297 26.0098 17.9297 26.3658C17.9297 26.7218 18.0522 27.134 18.2702 27.5116C18.4882 27.8892 18.7839 28.2013 19.0922 28.3793Z" fill="white" stroke="white" stroke-width="0.767062" stroke-linecap="round" stroke-linejoin="round"/>
<path d="M16.6016 30.9299L16.6016 31.16L21.5838 34.0365L21.5838 33.8064C21.5838 32.9473 21.5838 32.5177 21.439 32.1058C21.3116 31.7436 21.1083 31.3916 20.8584 31.1002C20.574 30.7688 20.202 30.554 19.458 30.1245L18.7273 29.7026C17.9833 29.273 17.6113 29.0582 17.327 29.0613C17.077 29.0641 16.8738 29.1814 16.7464 29.3965C16.6016 29.6412 16.6016 30.0708 16.6016 30.9299Z" fill="white" stroke="white" stroke-width="0.767062" stroke-linecap="round" stroke-linejoin="round"/>
</mask>
<g mask="url(#mask2_1237_10049)">
<path d="M15.9336 22.722L23.9051 27.3244L23.9051 36.5292L15.9336 31.9268L15.9336 22.722Z" fill="#86B2FF"/>
</g>
</g>
<g clip-path="url(#clip3_1237_10049)">
<mask id="mask3_1237_10049" style="mask-type:luminance" maskUnits="userSpaceOnUse" x="26" y="47" width="7" height="11">
<path d="M29.807 50.939C29.9597 51.0271 30.1109 51.0797 30.2519 51.0936C30.393 51.1076 30.5211 51.0827 30.6291 51.0204C30.737 50.9581 30.8227 50.8595 30.8811 50.7304C30.9395 50.6013 30.9696 50.4441 30.9696 50.2678C30.9696 50.0915 30.9395 49.8996 30.8811 49.703C30.8227 49.5064 30.737 49.309 30.6291 49.122C30.5211 48.935 30.393 48.7622 30.2519 48.6133C30.1109 48.4644 29.9597 48.3424 29.807 48.2542C29.4987 48.0762 29.203 48.0469 28.985 48.1728C28.767 48.2987 28.6445 48.5694 28.6445 48.9254C28.6445 49.2814 28.767 49.6936 28.985 50.0712C29.203 50.4488 29.4987 50.761 29.807 50.939Z" fill="white" stroke="white" stroke-width="0.767062" stroke-linecap="round" stroke-linejoin="round"/>
<path d="M27.3164 53.4895L27.3164 53.7196L32.2986 56.5961L32.2986 56.366C32.2986 55.5069 32.2986 55.0773 32.1538 54.6654C32.0264 54.3032 31.8232 53.9512 31.5732 53.6598C31.2889 53.3284 30.9169 53.1136 30.1729 52.6841L29.4421 52.2622C28.6981 51.8327 28.3261 51.6179 28.0418 51.6209C27.7918 51.6237 27.5886 51.741 27.4612 51.9562C27.3164 52.2008 27.3164 52.6304 27.3164 53.4895Z" fill="white" stroke="white" stroke-width="0.767062" stroke-linecap="round" stroke-linejoin="round"/>
</mask>
<g mask="url(#mask3_1237_10049)">
<path d="M26.6484 45.2819L34.62 49.8843L34.62 59.089L26.6484 54.4867L26.6484 45.2819Z" fill="white"/>
</g>
</g>
<circle cx="54.8502" cy="34.794" r="1.69197" fill="white"/>
<circle cx="14.8072" cy="58.4817" r="1.69197" fill="white"/>
<circle cx="14.8072" cy="17.3103" r="1.69197" fill="#86B2FF"/>
<circle cx="59.9244" cy="21.8223" r="1.69197" fill="#86B2FF"/>
<circle cx="59.9244" cy="62.4296" r="1.69197" fill="white"/>
<defs>
<clipPath id="clip0_1237_10049">
<rect width="7.28709" height="9.35815" fill="white" transform="matrix(0.866025 -0.5 2.20305e-08 1 67.375 29.6517)"/>
</clipPath>
<clipPath id="clip1_1237_10049">
<rect width="7.28709" height="9.35815" fill="white" transform="matrix(0.866025 -0.5 2.20305e-08 1 46.502 9.34811)"/>
</clipPath>
<clipPath id="clip2_1237_10049">
<rect width="7.28709" height="9.35815" fill="white" transform="matrix(0.866025 0.5 -2.20305e-08 1 15.9375 22.6458)"/>
</clipPath>
<clipPath id="clip3_1237_10049">
<rect width="7.28709" height="9.35815" fill="white" transform="matrix(0.866025 0.5 -2.20305e-08 1 26.6523 45.2054)"/>
</clipPath>
</defs>
</svg>
