<svg width="144" height="150" viewBox="0 0 144 150" fill="none" xmlns="http://www.w3.org/2000/svg">
<rect x="0.64286" width="82.3965" height="82.3965" rx="8.53658" transform="matrix(0.866025 -0.5 0.866025 0.5 0.0858828 108.752)" fill="#141414" stroke="#0962FF" stroke-width="0.742311"/>
<rect x="0.64286" width="82.3965" height="82.3965" rx="8.53658" transform="matrix(0.866025 -0.5 0.866025 0.5 0.0858828 100.587)" fill="#86B2FF" stroke="#0962FF" stroke-width="0.742311"/>
<path d="M4.84668 108.046V100.235C4.84668 101.101 5.66322 103.279 8.92939 105.06C12.1956 106.842 13.2595 107.535 13.3833 107.658V115.675L6.70246 111.741C6.35432 111.48 5.72455 110.888 5.27831 110.147C4.90274 109.523 4.84668 108.775 4.84668 108.046Z" fill="#0962FF" stroke="#0962FF" stroke-width="0.742311"/>
<path d="M138.981 100.235V108.772" stroke="#0962FF" stroke-width="0.742311"/>
<path d="M63.8591 136.98V144.774" stroke="#0962FF" stroke-width="0.742311"/>
<path d="M80.1902 136.608V144.774" stroke="#0962FF" stroke-width="0.742311"/>
<path d="M134.009 108.808V105.803C134.009 105.803 135.966 104.866 136.978 103.947C137.822 103.18 138.717 101.551 139.06 100.892C139.096 100.823 139.205 100.849 139.205 100.928V107.48C139.205 108.579 139.088 109.724 138.462 110.628C137.665 111.78 136.368 112.464 135.155 113.165L93.9238 136.98L131.201 113.854C132.947 112.771 134.009 110.863 134.009 108.808Z" fill="#0962FF" stroke="#0962FF" stroke-width="0.742311"/>
<path d="M18.949 118.942V111.147L24.8875 114.859V122.282L18.949 118.942Z" fill="#0962FF" stroke="#0962FF" stroke-width="0.742311"/>
<g clip-path="url(#clip0_1240_4873)">
<path d="M42.7696 98.3295C42.4709 98.33 42.1775 98.251 41.9195 98.1006L35.0998 94.1629C35.0169 94.1161 34.9477 94.0483 34.8994 93.9663C34.851 93.8843 34.8251 93.791 34.8242 93.6958C34.8255 93.6007 34.8516 93.5076 34.9 93.4257C34.9483 93.3437 35.0172 93.2759 35.0998 93.2287L41.9242 89.3051C42.1826 89.1558 42.4758 89.0773 42.7743 89.0773C43.0727 89.0773 43.3659 89.1558 43.6244 89.3051L50.4161 93.2287C50.5005 93.2769 50.5708 93.3466 50.6196 93.4306C50.6684 93.5147 50.6942 93.6103 50.6942 93.7075C50.6942 93.8047 50.6684 93.9002 50.6196 93.9843C50.5708 94.0684 50.5005 94.1381 50.4161 94.1863L43.6431 98.1006C43.3783 98.2553 43.0762 98.3345 42.7696 98.3295ZM35.3988 93.6911L42.2044 97.6101C42.3773 97.7088 42.5729 97.7608 42.7719 97.7608C42.971 97.7608 43.1666 97.7088 43.3395 97.6101L50.1358 93.6725L43.3395 89.7722C43.1675 89.6734 42.9726 89.6214 42.7743 89.6214C42.576 89.6214 42.3811 89.6734 42.2091 89.7722L35.3988 93.6911Z" fill="#0962FF"/>
<path opacity="0.3" d="M120.579 71.7467L45.8433 114.902V51.1709C45.851 50.6335 45.9848 50.1055 46.2339 49.6292C46.4829 49.153 46.8403 48.7419 47.2773 48.429L119.146 6.93172C119.935 6.46462 120.579 6.95975 120.579 8.0154V71.7467Z" fill="#86B2FF"/>
<path d="M119.313 75.2827L47.0949 116.981C46.3989 117.383 45.8337 116.981 45.8337 116.047V114.902L120.57 71.7468V72.8725C120.563 73.3444 120.446 73.8083 120.228 74.2268C120.01 74.6454 119.697 75.007 119.313 75.2827Z" fill="#141414"/>
<path d="M46.3633 117.093L49.292 118.789L49.5489 117.037L49.1566 116.206L45.8308 114.902L46.3633 117.093Z" fill="#141414"/>
<path d="M48.853 116.645L45.8308 114.902L120.581 71.7468L123.599 73.4891L48.853 116.645Z" fill="#86B2FF"/>
<path opacity="0.3" d="M45.8337 51.171V114.902L48.8512 116.64V52.9087C48.8658 52.3508 49.0098 51.804 49.2716 51.3112C48.1654 50.9675 47.1062 50.4873 46.1187 49.8818C45.9406 50.2889 45.8438 50.7268 45.8337 51.171Z" fill="#86B2FF"/>
<path opacity="0.6" d="M120.09 6.86173C119.943 6.78551 119.779 6.75127 119.614 6.76281C119.449 6.77435 119.29 6.83122 119.156 6.92713L47.2689 48.4291C46.7433 48.7811 46.3414 49.2892 46.1199 49.8818C47.107 50.4905 48.1661 50.9738 49.2728 51.3204C49.5014 50.8559 49.8517 50.462 50.2864 50.1807L122.164 8.66941C122.3 8.57726 122.458 8.52269 122.622 8.5112C122.786 8.49972 122.95 8.53174 123.098 8.60402L120.09 6.86173Z" fill="#86B2FF"/>
<path d="M122.336 77.0251L50.1125 118.723C49.4165 119.125 48.8513 118.695 48.8513 117.766V116.64L123.588 73.4844V74.6102C123.581 75.0823 123.465 75.5464 123.247 75.9656C123.03 76.3849 122.718 76.7476 122.336 77.0251Z" fill="#141414"/>
<path opacity="0.3" d="M48.8528 52.9087C48.8605 52.372 48.9943 51.8446 49.2434 51.3691C49.4925 50.8937 49.8499 50.4834 50.2868 50.1715L122.164 8.66954C122.385 8.526 122.653 8.47407 122.912 8.52474C122.76 8.40502 122.572 8.3399 122.379 8.3399C122.186 8.3399 121.998 8.40502 121.847 8.52474L49.9692 49.9987C49.5322 50.3116 49.1748 50.7227 48.9257 51.1989C48.6767 51.6751 48.5429 52.2032 48.5352 52.7406V116.467L48.8528 116.64V52.9087Z" fill="#86B2FF"/>
<path d="M49.4412 50.4377L46.7414 48.8823C46.4793 49.1779 46.2692 49.5159 46.1201 49.8819C46.0022 50.1586 45.919 50.4488 45.8726 50.746L48.5724 52.3014C48.682 51.6112 48.983 50.9655 49.4412 50.4377Z" fill="#86B2FF"/>
<path opacity="0.3" d="M123.597 73.4843L48.8608 116.64V52.9085C48.8686 52.3718 49.0024 51.8444 49.2515 51.3689C49.5006 50.8934 49.858 50.4832 50.2948 50.1713L122.163 8.66932C122.957 8.20221 123.597 8.69734 123.597 9.75766V73.4843Z" fill="#86B2FF"/>
<path opacity="0.3" d="M121.99 74.2458L50.4114 115.57C50.2532 115.661 50.0739 115.709 49.8914 115.708C49.709 115.708 49.5298 115.66 49.3718 115.569C49.2138 115.477 49.0826 115.346 48.9913 115.188C48.8999 115.03 48.8517 114.851 48.8513 114.669V52.7405C48.859 52.2038 48.9929 51.6764 49.242 51.2009C49.4911 50.7254 49.8485 50.3152 50.2853 50.0033L122.163 8.5013C122.957 8.0342 123.597 8.52933 123.597 9.58498V71.4619C123.597 72.0262 123.449 72.5805 123.167 73.0692C122.884 73.5579 122.479 73.9637 121.99 74.2458Z" fill="#0962FF"/>
<mask id="mask0_1240_4873" style="mask-type:luminance" maskUnits="userSpaceOnUse" x="48" y="8" width="76" height="108">
<path d="M121.992 74.2457L50.4134 115.57C50.2551 115.661 50.0758 115.709 49.8934 115.708C49.7109 115.708 49.5317 115.66 49.3738 115.569C49.2158 115.477 49.0846 115.346 48.9932 115.188C48.9019 115.03 48.8536 114.851 48.8533 114.669V52.7404C48.861 52.2036 48.9948 51.6763 49.2439 51.2008C49.493 50.7253 49.8504 50.315 50.2873 50.0031L122.165 8.50118C122.959 8.03408 123.599 8.52921 123.599 9.58486V71.4618C123.599 72.026 123.451 72.5804 123.168 73.0691C122.886 73.5578 122.481 73.9636 121.992 74.2457Z" fill="white"/>
</mask>
<g mask="url(#mask0_1240_4873)">
<path d="M55.4065 44.1738C55.3997 44.284 55.3675 44.3911 55.3124 44.4867C55.2573 44.5823 55.1808 44.6639 55.0889 44.725C54.9114 44.8278 54.7666 44.725 54.7666 44.5429C54.7728 44.4314 54.8053 44.323 54.8613 44.2264C54.9173 44.1298 54.9953 44.0478 55.0889 43.987C55.2617 43.8889 55.4065 43.9683 55.4065 44.1738Z" fill="#86B2FF"/>
<path d="M62.3284 40.1802C62.3223 40.2905 62.2904 40.3979 62.2352 40.4936C62.1801 40.5893 62.1032 40.6708 62.0107 40.7313C61.8332 40.8341 61.6931 40.7313 61.6931 40.5445C61.6992 40.4342 61.7311 40.3268 61.7863 40.2311C61.8414 40.1353 61.9183 40.0539 62.0107 39.9933C62.1836 39.8906 62.3284 39.9746 62.3284 40.1802Z" fill="#86B2FF"/>
<path d="M69.2461 36.1818C69.2404 36.2922 69.2087 36.3997 69.1535 36.4955C69.0983 36.5913 69.0212 36.6727 68.9285 36.733C68.751 36.8357 68.6062 36.7563 68.6062 36.5508C68.6124 36.4399 68.6449 36.3322 68.7009 36.2363C68.757 36.1405 68.835 36.0594 68.9285 35.9996C69.1013 35.8968 69.2461 35.9809 69.2461 36.1818Z" fill="#86B2FF"/>
<path d="M76.1653 32.1881C76.1592 32.2985 76.1273 32.4058 76.0721 32.5016C76.017 32.5973 75.9401 32.6787 75.8477 32.7393C75.6702 32.8421 75.53 32.7393 75.53 32.5571C75.5354 32.446 75.5669 32.3377 75.6222 32.2411C75.6774 32.1445 75.7546 32.0623 75.8477 32.0013C76.0252 31.9032 76.1653 31.9826 76.1653 32.1881Z" fill="#86B2FF"/>
<path d="M83.0869 28.1943C83.08 28.305 83.0472 28.4125 82.9912 28.5082C82.9353 28.6039 82.8577 28.6852 82.7646 28.7455C82.5918 28.8482 82.447 28.7455 82.447 28.5586C82.4538 28.4485 82.486 28.3414 82.5411 28.2458C82.5962 28.1501 82.6727 28.0686 82.7646 28.0075C82.9421 27.9281 83.0869 27.9888 83.0869 28.1943Z" fill="#86B2FF"/>
<path d="M90.0042 24.1913C89.9988 24.3024 89.9672 24.4107 89.912 24.5073C89.8568 24.6039 89.7796 24.6861 89.6865 24.7471C89.509 24.8452 89.3689 24.7471 89.3689 24.5603C89.375 24.45 89.4069 24.3426 89.462 24.2469C89.5172 24.1511 89.5941 24.0697 89.6865 24.0091C89.8874 23.911 90.0042 23.9951 90.0042 24.1913Z" fill="#86B2FF"/>
<path d="M96.9278 20.2023C96.9208 20.3129 96.888 20.4204 96.8321 20.5161C96.7761 20.6119 96.6985 20.6931 96.6055 20.7535C96.4326 20.8562 96.2878 20.7535 96.2878 20.5713C96.2935 20.4609 96.3253 20.3534 96.3805 20.2576C96.4357 20.1618 96.5128 20.0804 96.6055 20.0201C96.783 19.9173 96.9278 19.9874 96.9278 20.2023Z" fill="#86B2FF"/>
<path d="M103.845 16.2085C103.838 16.3186 103.806 16.4257 103.751 16.5214C103.696 16.617 103.619 16.6986 103.527 16.7597C103.35 16.8624 103.205 16.7597 103.205 16.5728C103.212 16.4622 103.245 16.3547 103.301 16.259C103.357 16.1632 103.434 16.082 103.527 16.0216C103.7 15.9189 103.845 16.003 103.845 16.2085Z" fill="#86B2FF"/>
<path d="M110.763 12.2101C110.757 12.3213 110.726 12.4296 110.671 12.5262C110.615 12.6228 110.538 12.705 110.445 12.766C110.268 12.8641 110.127 12.766 110.127 12.5792C110.136 12.4725 110.168 12.3691 110.223 12.2768C110.277 12.1846 110.351 12.1059 110.44 12.0467C110.623 11.9252 110.763 12.0093 110.763 12.2101Z" fill="#86B2FF"/>
<path d="M117.686 8.21637C117.679 8.32662 117.647 8.43384 117.592 8.52953C117.537 8.62521 117.46 8.70671 117.368 8.76755C117.19 8.87032 117.046 8.76755 117.046 8.58538C117.051 8.47445 117.084 8.36654 117.14 8.27065C117.196 8.17476 117.274 8.09369 117.368 8.0342C117.541 7.93144 117.686 8.01085 117.686 8.21637Z" fill="#86B2FF"/>
<path d="M55.4065 50.6526C55.4008 50.763 55.3691 50.8705 55.3139 50.9663C55.2587 51.0621 55.1816 51.1435 55.0889 51.2037C54.9114 51.3065 54.7666 51.2037 54.7666 51.0216C54.7728 50.9107 54.8053 50.803 54.8613 50.7071C54.9174 50.6113 54.9954 50.5302 55.0889 50.4704C55.2617 50.3489 55.4065 50.4517 55.4065 50.6526Z" fill="#86B2FF"/>
<path d="M62.3284 46.6588C62.3223 46.7692 62.2904 46.8765 62.2352 46.9723C62.1801 47.068 62.1032 47.1494 62.0107 47.21C61.8332 47.3128 61.6931 47.21 61.6931 47.0278C61.6985 46.9167 61.73 46.8084 61.7852 46.7118C61.8404 46.6152 61.9177 46.533 62.0107 46.472C62.1836 46.3739 62.3284 46.4533 62.3284 46.6588Z" fill="#86B2FF"/>
<path d="M69.2461 42.665C69.2393 42.7752 69.2071 42.8823 69.152 42.9779C69.0969 43.0735 69.0204 43.1551 68.9285 43.2162C68.751 43.319 68.6062 43.2162 68.6062 43.0294C68.6132 42.9187 68.6459 42.8112 68.7019 42.7155C68.7579 42.6198 68.8355 42.5385 68.9285 42.4782C69.1013 42.3754 69.2461 42.4595 69.2461 42.665Z" fill="#86B2FF"/>
<path d="M76.1653 38.6714C76.1599 38.7825 76.1284 38.8908 76.0732 38.9874C76.018 39.084 75.9407 39.1662 75.8477 39.2272C75.6702 39.3253 75.53 39.2272 75.53 39.0404C75.5361 38.93 75.568 38.8227 75.6232 38.727C75.6783 38.6312 75.7552 38.5498 75.8477 38.4892C76.0252 38.3818 76.1653 38.4658 76.1653 38.6714Z" fill="#86B2FF"/>
<path d="M83.0869 34.6732C83.08 34.7838 83.0472 34.8913 82.9912 34.987C82.9353 35.0827 82.8577 35.164 82.7646 35.2243C82.5918 35.3271 82.447 35.2243 82.447 35.0422C82.4527 34.9317 82.4845 34.8243 82.5397 34.7285C82.5949 34.6327 82.672 34.5513 82.7646 34.491C82.9421 34.3882 83.0869 34.4676 83.0869 34.6732Z" fill="#86B2FF"/>
<path d="M90.0042 30.6793C89.9981 30.7896 89.9662 30.897 89.911 30.9927C89.8558 31.0885 89.7789 31.1699 89.6865 31.2305C89.509 31.3332 89.3689 31.2305 89.3689 31.0436C89.375 30.9333 89.4069 30.826 89.462 30.7302C89.5172 30.6345 89.5941 30.553 89.6865 30.4925C89.8874 30.3897 90.0042 30.4738 90.0042 30.6793Z" fill="#86B2FF"/>
<path d="M96.9278 26.6809C96.9215 26.7923 96.8891 26.9007 96.8331 26.9973C96.7771 27.0939 96.6991 27.1759 96.6055 27.2367C96.4326 27.3348 96.2878 27.2367 96.2878 27.0499C96.2946 26.9397 96.3268 26.8326 96.3819 26.737C96.4371 26.6414 96.5136 26.5598 96.6055 26.4987C96.783 26.3959 96.9278 26.48 96.9278 26.6809Z" fill="#86B2FF"/>
<path d="M103.845 22.6872C103.838 22.7974 103.806 22.9047 103.751 23.0004C103.696 23.096 103.619 23.1775 103.527 23.2384C103.35 23.3411 103.205 23.2384 103.205 23.0562C103.211 22.9453 103.243 22.8374 103.299 22.7415C103.355 22.6456 103.433 22.5645 103.527 22.505C103.7 22.4023 103.845 22.4817 103.845 22.6872Z" fill="#86B2FF"/>
<path d="M110.763 18.6935C110.757 18.8038 110.725 18.9112 110.67 19.0069C110.614 19.1027 110.537 19.1841 110.445 19.2447C110.268 19.3474 110.127 19.2447 110.127 19.0625C110.133 18.9514 110.164 18.8431 110.22 18.7465C110.275 18.6499 110.352 18.5677 110.445 18.5067C110.623 18.4086 110.763 18.488 110.763 18.6935Z" fill="#86B2FF"/>
<path d="M117.686 14.6951C117.679 14.806 117.647 14.9138 117.592 15.0103C117.537 15.1067 117.46 15.1891 117.368 15.2509C117.19 15.349 117.046 15.2509 117.046 15.0641C117.053 14.9534 117.085 14.8459 117.141 14.7502C117.197 14.6545 117.275 14.5732 117.368 14.5129C117.541 14.4101 117.686 14.4942 117.686 14.6951Z" fill="#86B2FF"/>
<path d="M55.4065 57.136C55.3997 57.2461 55.3675 57.3532 55.3124 57.4488C55.2573 57.5445 55.1808 57.626 55.0889 57.6872C54.9114 57.7899 54.7666 57.6871 54.7666 57.5003C54.7736 57.3897 54.8063 57.2822 54.8623 57.1864C54.9183 57.0907 54.9959 57.0095 55.0889 56.9491C55.2617 56.8464 55.4065 56.9304 55.4065 57.136Z" fill="#86B2FF"/>
<path d="M62.3284 53.1516C62.323 53.2628 62.2915 53.3711 62.2363 53.4677C62.1811 53.5643 62.1038 53.6465 62.0107 53.7075C61.8332 53.8056 61.6931 53.7075 61.6931 53.5206C61.6992 53.4103 61.7311 53.303 61.7863 53.2072C61.8414 53.1115 61.9183 53.03 62.0107 52.9695C62.1836 52.8527 62.3284 52.9368 62.3284 53.1516Z" fill="#86B2FF"/>
<path d="M69.2461 49.1438C69.2393 49.2539 69.2071 49.361 69.152 49.4566C69.0969 49.5523 69.0204 49.6338 68.9285 49.695C68.751 49.7977 68.6062 49.695 68.6062 49.5128C68.612 49.4019 68.6443 49.2939 68.7004 49.1981C68.7565 49.1022 68.8347 49.0211 68.9285 48.9616C69.1013 48.8588 69.2461 48.9476 69.2461 49.1438Z" fill="#86B2FF"/>
<path d="M76.1653 45.1501C76.1592 45.2605 76.1273 45.3678 76.0721 45.4636C76.017 45.5593 75.9401 45.6407 75.8477 45.7013C75.6702 45.8041 75.53 45.7013 75.53 45.5145C75.5361 45.4041 75.568 45.2968 75.6232 45.201C75.6783 45.1053 75.7552 45.0239 75.8477 44.9633C76.0252 44.8605 76.1653 44.9446 76.1653 45.1501Z" fill="#86B2FF"/>
<path d="M83.0869 41.1518C83.0807 41.2633 83.0483 41.3717 82.9923 41.4683C82.9363 41.5649 82.8583 41.6469 82.7646 41.7077C82.5918 41.8057 82.447 41.7077 82.447 41.5208C82.4538 41.4107 82.486 41.3036 82.5411 41.2079C82.5962 41.1123 82.6727 41.0307 82.7646 40.9696C82.9421 40.8669 83.0869 40.9509 83.0869 41.1518Z" fill="#86B2FF"/>
<path d="M90.0042 37.158C89.9988 37.2685 89.9672 37.3762 89.912 37.472C89.8568 37.5679 89.7795 37.6492 89.6865 37.7092C89.509 37.812 89.3689 37.7092 89.3689 37.527C89.3738 37.4164 89.4053 37.3087 89.4605 37.2127C89.5158 37.1168 89.5933 37.0356 89.6865 36.9759C89.8874 36.8731 90.0042 36.9525 90.0042 37.158Z" fill="#86B2FF"/>
<path d="M96.9278 33.1643C96.9208 33.275 96.888 33.3825 96.8321 33.4782C96.7761 33.5739 96.6985 33.6552 96.6055 33.7155C96.4326 33.8183 96.2878 33.7155 96.2878 33.5333C96.2943 33.4224 96.3263 33.3146 96.3814 33.2181C96.4365 33.1217 96.5132 33.0393 96.6055 32.9775C96.783 32.8794 96.9278 32.9588 96.9278 33.1643Z" fill="#86B2FF"/>
<path d="M103.845 29.1659C103.838 29.2768 103.806 29.3847 103.751 29.4811C103.696 29.5776 103.619 29.6599 103.527 29.7218C103.35 29.8199 103.205 29.7218 103.205 29.5349C103.212 29.4243 103.245 29.3168 103.301 29.2211C103.357 29.1254 103.434 29.0441 103.527 28.9838C103.7 28.8623 103.845 28.9651 103.845 29.1659Z" fill="#86B2FF"/>
<path d="M110.763 25.1722C110.758 25.2828 110.726 25.3906 110.671 25.4865C110.616 25.5824 110.538 25.6636 110.445 25.7234C110.268 25.8261 110.127 25.7234 110.127 25.5412C110.132 25.4306 110.164 25.3228 110.219 25.2269C110.274 25.131 110.352 25.0497 110.445 24.99C110.623 24.8873 110.763 24.9713 110.763 25.1722Z" fill="#86B2FF"/>
<path d="M117.686 21.1785C117.679 21.2887 117.647 21.3958 117.591 21.4914C117.536 21.587 117.46 21.6686 117.368 21.7297C117.19 21.8325 117.046 21.7297 117.046 21.5475C117.052 21.4361 117.084 21.3277 117.14 21.2311C117.196 21.1345 117.274 21.0525 117.368 20.9917C117.541 20.8936 117.686 20.973 117.686 21.1785Z" fill="#86B2FF"/>
<path d="M55.4065 63.6146C55.3997 63.7247 55.3675 63.8318 55.3124 63.9275C55.2573 64.0231 55.1808 64.1047 55.0889 64.1658C54.9114 64.2685 54.7666 64.1658 54.7666 63.9836C54.7724 63.8727 54.8047 63.7648 54.8608 63.6689C54.9169 63.573 54.9951 63.4919 55.0889 63.4324C55.2617 63.3297 55.4065 63.4277 55.4065 63.6146Z" fill="#86B2FF"/>
<path d="M62.3284 59.6208C62.3223 59.7312 62.2904 59.8385 62.2352 59.9343C62.1801 60.03 62.1032 60.1114 62.0107 60.172C61.8332 60.2748 61.6931 60.172 61.6931 59.9852C61.6992 59.8748 61.7311 59.7675 61.7863 59.6717C61.8414 59.576 61.9183 59.4946 62.0107 59.434C62.1836 59.3312 62.3284 59.4153 62.3284 59.6208Z" fill="#86B2FF"/>
<path d="M69.2461 55.6226C69.2397 55.7335 69.2077 55.8414 69.1526 55.9378C69.0975 56.0343 69.0208 56.1166 68.9285 56.1785C68.751 56.2766 68.6062 56.1785 68.6062 55.9916C68.6132 55.881 68.6459 55.7735 68.7019 55.6778C68.7579 55.5821 68.8355 55.5008 68.9285 55.4405C69.1013 55.3377 69.2461 55.4218 69.2461 55.6226Z" fill="#86B2FF"/>
<path d="M76.1653 51.6288C76.16 51.7394 76.1284 51.847 76.0731 51.9428C76.0179 52.0387 75.9406 52.12 75.8477 52.18C75.6702 52.2828 75.53 52.18 75.53 51.9979C75.535 51.8873 75.5664 51.7795 75.6217 51.6836C75.677 51.5876 75.7545 51.5064 75.8477 51.4467C76.0252 51.3439 76.1653 51.4233 76.1653 51.6288Z" fill="#86B2FF"/>
<path d="M83.0869 47.6351C83.08 47.7458 83.0472 47.8533 82.9912 47.949C82.9353 48.0447 82.8577 48.126 82.7646 48.1863C82.5918 48.2891 82.447 48.1863 82.447 48.0042C82.4535 47.8933 82.4855 47.7854 82.5406 47.6889C82.5957 47.5925 82.6724 47.5101 82.7646 47.4483C82.9421 47.3502 83.0869 47.4296 83.0869 47.6351Z" fill="#86B2FF"/>
<path d="M90.0042 43.6367C89.9988 43.7479 89.9672 43.8562 89.912 43.9528C89.8568 44.0494 89.7796 44.1316 89.6865 44.1926C89.509 44.2907 89.3689 44.1926 89.3689 44.0057C89.375 43.8954 89.4069 43.788 89.462 43.6923C89.5172 43.5966 89.5941 43.5151 89.6865 43.4546C89.8874 43.3425 90.0042 43.4359 90.0042 43.6367Z" fill="#86B2FF"/>
<path d="M96.9278 39.643C96.9219 39.7539 96.8896 39.8619 96.8336 39.9577C96.7775 40.0536 96.6993 40.1347 96.6055 40.1942C96.4326 40.297 96.2878 40.1942 96.2878 40.012C96.2935 39.9016 96.3253 39.7941 96.3805 39.6983C96.4357 39.6025 96.5128 39.5211 96.6055 39.4608C96.783 39.3581 96.9278 39.4422 96.9278 39.643Z" fill="#86B2FF"/>
<path d="M103.845 35.6492C103.838 35.7594 103.806 35.8665 103.751 35.9621C103.696 36.0577 103.619 36.1393 103.527 36.2004C103.35 36.3032 103.205 36.2004 103.205 36.0183C103.211 35.9068 103.244 35.7984 103.3 35.7018C103.356 35.6052 103.433 35.5232 103.527 35.4624C103.7 35.3643 103.845 35.4437 103.845 35.6492Z" fill="#86B2FF"/>
<path d="M110.763 31.6649C110.757 31.776 110.726 31.8843 110.671 31.9809C110.615 32.0775 110.538 32.1597 110.445 32.2207C110.268 32.3188 110.127 32.2207 110.127 32.0339C110.134 31.9236 110.165 31.8162 110.221 31.7205C110.276 31.6247 110.353 31.5433 110.445 31.4827C110.623 31.3659 110.763 31.45 110.763 31.6649Z" fill="#86B2FF"/>
<path d="M117.686 27.6573C117.68 27.7677 117.648 27.8752 117.593 27.971C117.538 28.0668 117.461 28.1481 117.368 28.2084C117.19 28.3112 117.046 28.2318 117.046 28.0263C117.052 27.9154 117.084 27.8077 117.14 27.7118C117.196 27.616 117.274 27.5349 117.368 27.4751C117.541 27.3723 117.686 27.4611 117.686 27.6573Z" fill="#86B2FF"/>
<path d="M55.4065 70.0933C55.4001 70.2042 55.3681 70.3121 55.313 70.4085C55.2579 70.505 55.1812 70.5873 55.0889 70.6492C54.9114 70.7473 54.7666 70.6492 54.7666 70.4623C54.7736 70.3517 54.8063 70.2442 54.8623 70.1485C54.9183 70.0528 54.9959 69.9715 55.0889 69.9112C55.2617 69.8084 55.4065 69.8925 55.4065 70.0933Z" fill="#86B2FF"/>
<path d="M62.3284 66.0996C62.3234 66.2101 62.292 66.3179 62.2367 66.4138C62.1814 66.5098 62.104 66.591 62.0107 66.6507C61.8332 66.7535 61.6931 66.6507 61.6931 66.4686C61.6981 66.358 61.7295 66.2502 61.7848 66.1543C61.84 66.0584 61.9175 65.9771 62.0107 65.9174C62.1836 65.8146 62.3284 65.894 62.3284 66.0996Z" fill="#86B2FF"/>
<path d="M69.2461 62.106C69.2393 62.2161 69.2071 62.3232 69.152 62.4188C69.0969 62.5145 69.0204 62.596 68.9285 62.6572C68.751 62.7599 68.6062 62.6572 68.6062 62.475C68.6124 62.3635 68.6449 62.2551 68.7009 62.1585C68.7569 62.0619 68.8349 61.9799 68.9285 61.9191C69.1013 61.821 69.2461 61.9004 69.2461 62.106Z" fill="#86B2FF"/>
<path d="M76.1653 58.1075C76.1599 58.2186 76.1284 58.3269 76.0732 58.4235C76.018 58.5201 75.9407 58.6023 75.8477 58.6633C75.6702 58.7614 75.53 58.6633 75.53 58.4765C75.5361 58.3662 75.568 58.2588 75.6232 58.1631C75.6783 58.0673 75.7552 57.9859 75.8477 57.9253C76.0252 57.8226 76.1653 57.9066 76.1653 58.1075Z" fill="#86B2FF"/>
<path d="M83.0869 54.1138C83.0811 54.2248 83.0488 54.3327 82.9927 54.4286C82.9367 54.5245 82.8585 54.6055 82.7646 54.665C82.5918 54.7678 82.447 54.665 82.447 54.4829C82.4527 54.3724 82.4845 54.2649 82.5397 54.1691C82.5949 54.0733 82.672 53.992 82.7646 53.9317C82.9421 53.8289 83.0869 53.913 83.0869 54.1138Z" fill="#86B2FF"/>
<path d="M90.0042 50.1201C89.9981 50.2304 89.9662 50.3378 89.911 50.4335C89.8558 50.5292 89.7789 50.6107 89.6865 50.6713C89.509 50.774 89.3689 50.6713 89.3689 50.4891C89.3742 50.3779 89.4058 50.2696 89.461 50.173C89.5162 50.0764 89.5935 49.9943 89.6865 49.9332C89.8874 49.8351 90.0042 49.9145 90.0042 50.1201Z" fill="#86B2FF"/>
<path d="M96.9278 46.145C96.9215 46.2565 96.8891 46.3649 96.8331 46.4615C96.7771 46.5581 96.6991 46.6401 96.6055 46.7009C96.4326 46.799 96.2878 46.7009 96.2878 46.514C96.2946 46.4039 96.3268 46.2968 96.3819 46.2012C96.4371 46.1055 96.5136 46.024 96.6055 45.9629C96.783 45.8367 96.9278 45.9208 96.9278 46.145Z" fill="#86B2FF"/>
<path d="M103.845 42.1279C103.839 42.2384 103.807 42.3459 103.752 42.4417C103.697 42.5375 103.62 42.6188 103.527 42.6791C103.35 42.7819 103.205 42.6791 103.205 42.497C103.211 42.3861 103.244 42.2784 103.3 42.1825C103.356 42.0867 103.434 42.0056 103.527 41.9458C103.7 41.843 103.845 41.9411 103.845 42.1279Z" fill="#86B2FF"/>
<path d="M110.763 38.1343C110.754 38.2426 110.721 38.3474 110.665 38.4406C110.609 38.5338 110.532 38.6128 110.441 38.6714C110.263 38.7742 110.123 38.6714 110.123 38.4893C110.128 38.3781 110.16 38.2698 110.215 38.1732C110.27 38.0766 110.348 37.9945 110.441 37.9334C110.623 37.8493 110.763 37.9288 110.763 38.1343Z" fill="#86B2FF"/>
<path d="M117.686 34.1406C117.679 34.2507 117.647 34.3578 117.591 34.4534C117.536 34.5491 117.46 34.6306 117.368 34.6917C117.19 34.7945 117.046 34.6917 117.046 34.5049C117.053 34.3942 117.085 34.2867 117.141 34.191C117.197 34.0953 117.275 34.014 117.368 33.9537C117.541 33.8509 117.686 33.935 117.686 34.1406Z" fill="#86B2FF"/>
<path d="M55.4065 76.5767C55.3997 76.6868 55.3675 76.7939 55.3124 76.8896C55.2573 76.9852 55.1808 77.0667 55.0889 77.1279C54.9114 77.2306 54.7666 77.1279 54.7666 76.9457C54.7728 76.8342 54.8053 76.7258 54.8613 76.6292C54.9173 76.5326 54.9953 76.4506 55.0889 76.3898C55.2617 76.2917 55.4065 76.3711 55.4065 76.5767Z" fill="#86B2FF"/>
<path d="M62.3284 72.5784C62.323 72.6895 62.2915 72.7978 62.2363 72.8944C62.1811 72.991 62.1038 73.0732 62.0107 73.1342C61.8332 73.2323 61.6931 73.1342 61.6931 72.9474C61.6992 72.8371 61.7311 72.7297 61.7863 72.6339C61.8414 72.5382 61.9183 72.4568 62.0107 72.3962C62.1836 72.3028 62.3284 72.3775 62.3284 72.5784Z" fill="#86B2FF"/>
<path d="M69.2461 68.5658C69.2404 68.6763 69.2087 68.7838 69.1535 68.8796C69.0983 68.9754 69.0212 69.0567 68.9285 69.117C68.751 69.2198 68.6062 69.117 68.6062 68.9348C68.612 68.8239 68.6443 68.716 68.7004 68.6201C68.7565 68.5242 68.8347 68.4432 68.9285 68.3837C69.1013 68.2996 69.2461 68.3837 69.2461 68.5658Z" fill="#86B2FF"/>
<path d="M76.1653 64.5909C76.1592 64.7012 76.1273 64.8086 76.0721 64.9043C76.017 65.0001 75.9401 65.0815 75.8477 65.1421C75.6702 65.2448 75.53 65.1421 75.53 64.9599C75.5354 64.8488 75.5669 64.7405 75.6222 64.6439C75.6774 64.5473 75.7546 64.4651 75.8477 64.4041C76.0252 64.306 76.1653 64.3854 76.1653 64.5909Z" fill="#86B2FF"/>
<path d="M83.0869 60.5925C83.0807 60.7039 83.0483 60.8124 82.9923 60.9089C82.9363 61.0055 82.8583 61.0875 82.7646 61.1483C82.5918 61.2464 82.447 61.1483 82.447 60.9615C82.4538 60.8513 82.486 60.7442 82.5411 60.6486C82.5962 60.553 82.6727 60.4714 82.7646 60.4103C82.9421 60.3075 83.0869 60.3916 83.0869 60.5925Z" fill="#86B2FF"/>
<path d="M90.0042 56.5988C89.9992 56.7094 89.9678 56.8172 89.9125 56.9131C89.8572 57.009 89.7797 57.0902 89.6865 57.15C89.509 57.2527 89.3689 57.1733 89.3689 56.9678C89.3742 56.8573 89.4058 56.7496 89.4611 56.6538C89.5163 56.5579 89.5936 56.4766 89.6865 56.4166C89.8874 56.3139 90.0042 56.4213 90.0042 56.5988Z" fill="#86B2FF"/>
<path d="M96.9278 52.6051C96.9208 52.7157 96.888 52.8232 96.8321 52.9189C96.7761 53.0146 96.6985 53.0959 96.6055 53.1562C96.4326 53.259 96.2878 53.1562 96.2878 52.9741C96.2943 52.8632 96.3263 52.7553 96.3814 52.6589C96.4365 52.5624 96.5132 52.4801 96.6055 52.4182C96.783 52.3201 96.9278 52.3995 96.9278 52.6051Z" fill="#86B2FF"/>
<path d="M103.845 48.6114C103.838 48.7215 103.806 48.8286 103.751 48.9243C103.696 49.0199 103.619 49.1014 103.527 49.1626C103.35 49.2653 103.205 49.1626 103.205 48.9757C103.212 48.8651 103.245 48.7576 103.301 48.6618C103.357 48.5661 103.434 48.4849 103.527 48.4245C103.7 48.3218 103.845 48.4058 103.845 48.6114Z" fill="#86B2FF"/>
<path d="M110.763 44.613C110.758 44.7236 110.726 44.8314 110.671 44.9273C110.616 45.0232 110.538 45.1044 110.445 45.1642C110.268 45.2669 110.127 45.1642 110.127 44.982C110.134 44.8717 110.165 44.7643 110.221 44.6686C110.276 44.5728 110.353 44.4914 110.445 44.4308C110.623 44.3281 110.763 44.4121 110.763 44.613Z" fill="#86B2FF"/>
<path d="M117.686 40.6192C117.679 40.7294 117.647 40.8365 117.591 40.9321C117.536 41.0277 117.46 41.1093 117.368 41.1704C117.19 41.2732 117.046 41.1704 117.046 40.9882C117.052 40.8768 117.084 40.7683 117.14 40.6718C117.196 40.5752 117.274 40.4932 117.368 40.4324C117.541 40.3343 117.686 40.4137 117.686 40.6192Z" fill="#86B2FF"/>
<path d="M55.4065 83.0461C55.4008 83.1565 55.3691 83.264 55.3139 83.3598C55.2587 83.4556 55.1816 83.537 55.0889 83.5973C54.9114 83.7001 54.7666 83.5973 54.7666 83.4151C54.7724 83.3042 54.8047 83.1963 54.8608 83.1004C54.9169 83.0045 54.9951 82.9234 55.0889 82.8639C55.2617 82.7705 55.4065 82.8546 55.4065 83.0461Z" fill="#86B2FF"/>
<path d="M62.3284 79.0617C62.3223 79.172 62.2904 79.2794 62.2352 79.3751C62.1801 79.4709 62.1032 79.5523 62.0107 79.6129C61.8332 79.7156 61.6931 79.6129 61.6931 79.4307C61.6985 79.3195 61.73 79.2113 61.7852 79.1147C61.8404 79.018 61.9177 78.9359 62.0107 78.8748C62.1836 78.7768 62.3284 78.8421 62.3284 79.0617Z" fill="#86B2FF"/>
<path d="M69.2461 75.0633C69.2397 75.1742 69.2077 75.2821 69.1526 75.3785C69.0975 75.4749 69.0208 75.5573 68.9285 75.6192C68.751 75.7172 68.6062 75.6191 68.6062 75.4323C68.6132 75.3216 68.6459 75.2142 68.7019 75.1184C68.7579 75.0227 68.8355 74.9415 68.9285 74.8811C69.1013 74.7784 69.2461 74.8624 69.2461 75.0633Z" fill="#86B2FF"/>
<path d="M76.1653 71.0695C76.1603 71.1801 76.1289 71.2879 76.0736 71.3838C76.0184 71.4797 75.9409 71.561 75.8477 71.6207C75.6702 71.7235 75.53 71.6441 75.53 71.4385C75.5354 71.328 75.5669 71.2204 75.6222 71.1245C75.6774 71.0287 75.7547 70.9474 75.8477 70.8874C76.0252 70.7846 76.1653 70.8687 76.1653 71.0695Z" fill="#86B2FF"/>
<path d="M83.0869 67.0759C83.08 67.1865 83.0472 67.294 82.9912 67.3897C82.9353 67.4855 82.8577 67.5667 82.7646 67.6271C82.5918 67.7298 82.447 67.6271 82.447 67.4449C82.4535 67.334 82.4855 67.2261 82.5406 67.1297C82.5957 67.0332 82.6724 66.9509 82.7646 66.889C82.9421 66.7909 83.0869 66.8704 83.0869 67.0759Z" fill="#86B2FF"/>
<path d="M90.0042 63.0821C89.9981 63.1925 89.9662 63.2998 89.911 63.3956C89.8558 63.4913 89.7789 63.5727 89.6865 63.6333C89.509 63.7361 89.3689 63.6333 89.3689 63.4465C89.375 63.3361 89.4069 63.2288 89.462 63.133C89.5172 63.0373 89.5941 62.9559 89.6865 62.8953C89.8874 62.7925 90.0042 62.8766 90.0042 63.0821Z" fill="#86B2FF"/>
<path d="M96.9278 59.0838C96.9219 59.1947 96.8896 59.3027 96.8336 59.3985C96.7775 59.4944 96.6993 59.5755 96.6055 59.635C96.4326 59.7378 96.2878 59.6583 96.2878 59.4528C96.2946 59.3427 96.3268 59.2356 96.3819 59.1399C96.4371 59.0443 96.5136 58.9627 96.6055 58.9016C96.783 58.7989 96.9278 58.883 96.9278 59.0838Z" fill="#86B2FF"/>
<path d="M103.845 55.09C103.838 55.2002 103.806 55.3073 103.751 55.4029C103.696 55.4986 103.619 55.5801 103.527 55.6412C103.35 55.744 103.205 55.6412 103.205 55.4591C103.211 55.3476 103.244 55.2392 103.3 55.1426C103.356 55.046 103.433 54.964 103.527 54.9032C103.7 54.8051 103.845 54.8845 103.845 55.09Z" fill="#86B2FF"/>
<path d="M110.763 51.0964C110.757 51.2068 110.725 51.3141 110.67 51.4098C110.614 51.5056 110.537 51.587 110.445 51.6476C110.268 51.7504 110.127 51.6476 110.127 51.4608C110.134 51.3504 110.165 51.2431 110.221 51.1473C110.276 51.0516 110.353 50.9701 110.445 50.9096C110.623 50.8162 110.763 50.8909 110.763 51.0964Z" fill="#86B2FF"/>
<path d="M117.686 47.0793C117.679 47.1902 117.647 47.2981 117.592 47.3945C117.537 47.491 117.46 47.5733 117.368 47.6352C117.19 47.7333 117.046 47.6352 117.046 47.4483C117.053 47.3377 117.085 47.2302 117.141 47.1345C117.197 47.0388 117.275 46.9575 117.368 46.8972C117.541 46.8131 117.686 46.8972 117.686 47.0793Z" fill="#86B2FF"/>
<path d="M55.4065 89.534C55.4001 89.6449 55.3681 89.7528 55.313 89.8492C55.2579 89.9456 55.1812 90.028 55.0889 90.0899C54.9114 90.1879 54.7666 90.0899 54.7666 89.903C54.7736 89.7924 54.8063 89.6849 54.8623 89.5891C54.9183 89.4934 54.9959 89.4122 55.0889 89.3518C55.2617 89.2491 55.4065 89.3331 55.4065 89.534Z" fill="#86B2FF"/>
<path d="M62.3284 85.5405C62.3234 85.6511 62.292 85.7589 62.2367 85.8548C62.1814 85.9507 62.104 86.0319 62.0107 86.0917C61.8332 86.1944 61.6931 86.0917 61.6931 85.9095C61.6984 85.799 61.73 85.6913 61.7853 85.5955C61.8405 85.4996 61.9178 85.4183 62.0107 85.3583C62.1836 85.2555 62.3284 85.3396 62.3284 85.5405Z" fill="#86B2FF"/>
<path d="M69.2461 81.5467C69.2393 81.6569 69.2071 81.764 69.152 81.8596C69.0969 81.9552 69.0204 82.0368 68.9285 82.0979C68.751 82.2006 68.6062 82.0979 68.6062 81.9157C68.6124 81.8043 68.6449 81.6958 68.7009 81.5992C68.7569 81.5027 68.8349 81.4207 68.9285 81.3599C69.1013 81.2618 69.2461 81.3412 69.2461 81.5467Z" fill="#86B2FF"/>
<path d="M76.1653 77.553C76.1592 77.6633 76.1273 77.7707 76.0721 77.8664C76.017 77.9621 75.9401 78.0436 75.8477 78.1041C75.6702 78.2069 75.53 78.1041 75.53 77.9173C75.5361 77.807 75.568 77.6996 75.6232 77.6039C75.6783 77.5081 75.7552 77.4267 75.8477 77.3661C76.0252 77.2634 76.1653 77.3474 76.1653 77.553Z" fill="#86B2FF"/>
<path d="M83.0869 73.5545C83.0811 73.6654 83.0488 73.7734 82.9927 73.8692C82.9367 73.9651 82.8585 74.0462 82.7646 74.1057C82.5918 74.2085 82.447 74.1057 82.447 73.9235C82.4538 73.8134 82.486 73.7063 82.5411 73.6106C82.5962 73.515 82.6727 73.4334 82.7646 73.3723C82.9421 73.2696 83.0869 73.3537 83.0869 73.5545Z" fill="#86B2FF"/>
<path d="M90.0042 69.5609C89.9981 69.6713 89.9662 69.7786 89.911 69.8744C89.8558 69.9701 89.7789 70.0515 89.6865 70.1121C89.509 70.2149 89.3689 70.1121 89.3689 69.9299C89.3742 69.8188 89.4058 69.7105 89.461 69.6139C89.5162 69.5173 89.5935 69.4351 89.6865 69.3741C89.8874 69.276 90.0042 69.3554 90.0042 69.5609Z" fill="#86B2FF"/>
<path d="M96.9278 65.5671C96.9208 65.6778 96.888 65.7853 96.8321 65.881C96.7761 65.9767 96.6985 66.058 96.6055 66.1183C96.4326 66.2211 96.2878 66.1183 96.2878 65.9315C96.2946 65.8213 96.3268 65.7142 96.3819 65.6186C96.4371 65.523 96.5136 65.4414 96.6055 65.3803C96.783 65.2962 96.9278 65.3616 96.9278 65.5671Z" fill="#86B2FF"/>
<path d="M103.845 61.5594C103.838 61.6703 103.806 61.7782 103.751 61.8746C103.696 61.9711 103.619 62.0534 103.527 62.1153C103.35 62.2134 103.205 62.1153 103.205 61.9284C103.212 61.8178 103.245 61.7103 103.301 61.6146C103.357 61.5189 103.434 61.4376 103.527 61.3773C103.7 61.2838 103.845 61.3679 103.845 61.5594Z" fill="#86B2FF"/>
<path d="M110.763 57.575C110.757 57.6855 110.726 57.7932 110.671 57.889C110.615 57.9849 110.538 58.0662 110.445 58.1262C110.268 58.229 110.127 58.1262 110.127 57.944C110.132 57.8334 110.164 57.7256 110.219 57.6297C110.274 57.5338 110.352 57.4526 110.445 57.3928C110.623 57.2901 110.763 57.3555 110.763 57.575Z" fill="#86B2FF"/>
<path d="M117.686 53.5812C117.679 53.6914 117.647 53.7985 117.591 53.8941C117.536 53.9897 117.46 54.0713 117.368 54.1324C117.19 54.2352 117.046 54.1324 117.046 53.9456C117.053 53.8349 117.085 53.7274 117.141 53.6317C117.197 53.536 117.275 53.4547 117.368 53.3944C117.541 53.2916 117.686 53.3757 117.686 53.5812Z" fill="#86B2FF"/>
<path d="M55.4065 96.0175C55.3997 96.1277 55.3675 96.2348 55.3124 96.3304C55.2573 96.426 55.1808 96.5076 55.0889 96.5687C54.9114 96.6715 54.7666 96.5687 54.7666 96.3865C54.7728 96.2751 54.8053 96.1667 54.8613 96.0701C54.9173 95.9735 54.9953 95.8915 55.0889 95.8307C55.2617 95.7326 55.4065 95.812 55.4065 96.0175Z" fill="#86B2FF"/>
<path d="M62.3284 92.0238C62.3223 92.1341 62.2904 92.2415 62.2352 92.3372C62.1801 92.433 62.1032 92.5144 62.0107 92.575C61.8332 92.6777 61.6931 92.575 61.6931 92.3881C61.6992 92.2778 61.7311 92.1704 61.7863 92.0747C61.8414 91.979 61.9183 91.8975 62.0107 91.8369C62.1836 91.7342 62.3284 91.8183 62.3284 92.0238Z" fill="#86B2FF"/>
<path d="M69.2461 88.0253C69.2404 88.1358 69.2087 88.2433 69.1535 88.339C69.0983 88.4348 69.0212 88.5162 68.9285 88.5765C68.751 88.6793 68.6062 88.5765 68.6062 88.3943C68.6132 88.2837 68.6459 88.1762 68.7019 88.0805C68.7579 87.9848 68.8355 87.9035 68.9285 87.8432C69.1013 87.7404 69.2461 87.8245 69.2461 88.0253Z" fill="#86B2FF"/>
<path d="M76.1653 84.0316C76.1592 84.142 76.1273 84.2493 76.0721 84.3451C76.017 84.4408 75.9401 84.5222 75.8477 84.5828C75.6702 84.6856 75.53 84.5828 75.53 84.4006C75.535 84.29 75.5664 84.1823 75.6217 84.0863C75.677 83.9904 75.7545 83.9092 75.8477 83.8495C76.0252 83.7467 76.1653 83.8261 76.1653 84.0316Z" fill="#86B2FF"/>
<path d="M83.0869 80.0379C83.08 80.1485 83.0472 80.256 82.9912 80.3517C82.9353 80.4475 82.8577 80.5287 82.7646 80.5891C82.5918 80.6918 82.447 80.5891 82.447 80.4022C82.4538 80.2921 82.486 80.185 82.5411 80.0893C82.5962 79.9937 82.6727 79.9122 82.7646 79.851C82.9421 79.7483 83.0869 79.8324 83.0869 80.0379Z" fill="#86B2FF"/>
<path d="M90.0042 76.0395C89.9988 76.1506 89.9672 76.2589 89.912 76.3555C89.8568 76.4521 89.7796 76.5343 89.6865 76.5953C89.509 76.6934 89.3689 76.5953 89.3689 76.4085C89.375 76.2982 89.4069 76.1908 89.462 76.0951C89.5172 75.9993 89.5941 75.9179 89.6865 75.8573C89.8874 75.7546 90.0042 75.8386 90.0042 76.0395Z" fill="#86B2FF"/>
<path d="M96.9278 72.0459C96.9216 72.1567 96.8891 72.2645 96.8331 72.3603C96.777 72.4561 96.699 72.5373 96.6055 72.597C96.4326 72.6998 96.2878 72.597 96.2878 72.4149C96.2935 72.3045 96.3253 72.197 96.3805 72.1012C96.4357 72.0054 96.5128 71.924 96.6055 71.8637C96.783 71.7609 96.9278 71.8357 96.9278 72.0459Z" fill="#86B2FF"/>
<path d="M103.845 68.0522C103.838 68.1623 103.806 68.2694 103.751 68.3651C103.696 68.4607 103.619 68.5422 103.527 68.6034C103.35 68.7061 103.205 68.6033 103.205 68.4165C103.212 68.3058 103.245 68.1984 103.301 68.1026C103.357 68.0069 103.434 67.9257 103.527 67.8653C103.7 67.7626 103.845 67.8466 103.845 68.0522Z" fill="#86B2FF"/>
<path d="M110.763 64.0538C110.757 64.1649 110.726 64.2732 110.671 64.3698C110.615 64.4664 110.538 64.5486 110.445 64.6096C110.268 64.7077 110.127 64.6096 110.127 64.4228C110.136 64.3169 110.169 64.2145 110.224 64.1231C110.278 64.0317 110.352 63.9537 110.44 63.895C110.623 63.7688 110.763 63.8529 110.763 64.0538Z" fill="#86B2FF"/>
<path d="M117.686 60.06C117.68 60.1704 117.648 60.2779 117.593 60.3737C117.538 60.4695 117.461 60.5509 117.368 60.6112C117.19 60.7139 117.046 60.6112 117.046 60.429C117.051 60.3181 117.084 60.2102 117.14 60.1143C117.196 60.0184 117.274 59.9373 117.368 59.8778C117.541 59.7751 117.686 59.8592 117.686 60.06Z" fill="#86B2FF"/>
<path d="M55.4065 102.496C55.4008 102.607 55.3691 102.714 55.3139 102.81C55.2587 102.906 55.1816 102.987 55.0889 103.047C54.9114 103.15 54.7666 103.071 54.7666 102.865C54.7736 102.755 54.8063 102.647 54.8623 102.551C54.9183 102.456 54.9959 102.374 55.0889 102.314C55.2617 102.197 55.4065 102.295 55.4065 102.496Z" fill="#86B2FF"/>
<path d="M62.3284 98.5024C62.3223 98.6128 62.2904 98.7201 62.2352 98.8159C62.1801 98.9116 62.1032 98.993 62.0107 99.0536C61.8332 99.1564 61.6931 99.0536 61.6931 98.8715C61.6981 98.7609 61.7295 98.6531 61.7848 98.5571C61.84 98.4612 61.9175 98.38 62.0107 98.3203C62.1836 98.2175 62.3284 98.2969 62.3284 98.5024Z" fill="#86B2FF"/>
<path d="M69.2461 94.5087C69.2393 94.6189 69.2071 94.726 69.152 94.8216C69.0969 94.9172 69.0204 94.9988 68.9285 95.0599C68.751 95.1627 68.6062 95.0599 68.6062 94.8731C68.6132 94.7624 68.6459 94.6549 68.7019 94.5592C68.7579 94.4635 68.8355 94.3822 68.9285 94.3219C69.1013 94.2191 69.2461 94.3032 69.2461 94.5087Z" fill="#86B2FF"/>
<path d="M76.1653 90.5197C76.1599 90.6308 76.1284 90.7391 76.0732 90.8357C76.018 90.9323 75.9407 91.0145 75.8477 91.0756C75.6702 91.1737 75.53 91.0756 75.53 90.8887C75.5361 90.7784 75.568 90.671 75.6232 90.5753C75.6783 90.4795 75.7552 90.3981 75.8477 90.3375C76.0252 90.2254 76.1653 90.3095 76.1653 90.5197Z" fill="#86B2FF"/>
<path d="M83.0869 86.5165C83.0807 86.6274 83.0483 86.7352 82.9922 86.831C82.9362 86.9268 82.8582 87.008 82.7646 87.0677C82.5918 87.1705 82.447 87.0677 82.447 86.8856C82.4527 86.7751 82.4845 86.6676 82.5397 86.5718C82.5949 86.476 82.672 86.3947 82.7646 86.3344C82.9421 86.2316 83.0869 86.3157 83.0869 86.5165Z" fill="#86B2FF"/>
<path d="M90.0042 82.5229C89.9981 82.6333 89.9662 82.7406 89.911 82.8364C89.8558 82.9321 89.7789 83.0135 89.6865 83.0741C89.509 83.1769 89.3689 83.0741 89.3689 82.8873C89.375 82.7769 89.4069 82.6696 89.462 82.5738C89.5172 82.4781 89.5941 82.3967 89.6865 82.3361C89.8874 82.2333 90.0042 82.3174 90.0042 82.5229Z" fill="#86B2FF"/>
<path d="M96.9278 78.5245C96.9215 78.636 96.8891 78.7444 96.8331 78.841C96.7771 78.9376 96.6991 79.0196 96.6055 79.0804C96.4326 79.1785 96.2878 79.0804 96.2878 78.8936C96.2946 78.7834 96.3268 78.6763 96.3819 78.5807C96.4371 78.485 96.5136 78.4035 96.6055 78.3424C96.783 78.2396 96.9278 78.3237 96.9278 78.5245Z" fill="#86B2FF"/>
<path d="M103.845 74.5308C103.839 74.6412 103.807 74.7487 103.752 74.8445C103.697 74.9403 103.62 75.0217 103.527 75.082C103.35 75.1848 103.205 75.082 103.205 74.8998C103.211 74.7889 103.243 74.681 103.299 74.5851C103.355 74.4892 103.433 74.4081 103.527 74.3487C103.7 74.2459 103.845 74.33 103.845 74.5308Z" fill="#86B2FF"/>
<path d="M110.763 70.537C110.757 70.6473 110.725 70.7547 110.67 70.8504C110.614 70.9462 110.537 71.0276 110.445 71.0882C110.268 71.1909 110.127 71.0882 110.127 70.906C110.133 70.7949 110.164 70.6866 110.22 70.59C110.275 70.4934 110.352 70.4112 110.445 70.3502C110.623 70.2521 110.763 70.3315 110.763 70.537Z" fill="#86B2FF"/>
<path d="M117.686 66.5388C117.679 66.6496 117.647 66.7575 117.592 66.854C117.537 66.9504 117.46 67.0328 117.368 67.0946C117.19 67.1927 117.046 67.0946 117.046 66.9078C117.053 66.7971 117.085 66.6896 117.141 66.5939C117.197 66.4982 117.275 66.4169 117.368 66.3566C117.541 66.2538 117.686 66.3379 117.686 66.5388Z" fill="#86B2FF"/>
<path d="M55.4065 108.98C55.3997 109.09 55.3675 109.197 55.3124 109.292C55.2573 109.388 55.1808 109.47 55.0889 109.531C54.9114 109.633 54.7666 109.531 54.7666 109.344C54.7736 109.233 54.8063 109.126 54.8623 109.03C54.9183 108.934 54.9959 108.853 55.0889 108.793C55.2617 108.69 55.4065 108.774 55.4065 108.98Z" fill="#86B2FF"/>
<path d="M62.3284 105C62.323 105.111 62.2915 105.219 62.2363 105.316C62.1811 105.413 62.1038 105.495 62.0107 105.556C61.8332 105.654 61.6931 105.556 61.6931 105.369C61.6992 105.259 61.7311 105.151 61.7863 105.055C61.8414 104.96 61.9183 104.878 62.0107 104.818C62.1836 104.696 62.3284 104.78 62.3284 105Z" fill="#86B2FF"/>
<path d="M69.2461 100.987C69.2397 101.098 69.2076 101.205 69.1525 101.301C69.0974 101.396 69.0207 101.478 68.9285 101.539C68.751 101.641 68.6062 101.539 68.6062 101.356C68.612 101.246 68.6443 101.138 68.7004 101.042C68.7565 100.946 68.8347 100.865 68.9285 100.805C69.1013 100.703 69.2461 100.796 69.2461 100.987Z" fill="#86B2FF"/>
<path d="M76.1653 96.9937C76.1592 97.104 76.1273 97.2114 76.0721 97.3071C76.017 97.4029 75.9401 97.4843 75.8477 97.5449C75.6702 97.6476 75.53 97.5449 75.53 97.3627C75.5354 97.2516 75.5669 97.1433 75.6222 97.0467C75.6774 96.9501 75.7546 96.8679 75.8477 96.8069C76.0252 96.7041 76.1653 96.7882 76.1653 96.9937Z" fill="#86B2FF"/>
<path d="M83.0869 92.9954C83.0807 93.1068 83.0483 93.2153 82.9923 93.3118C82.9363 93.4084 82.8583 93.4904 82.7646 93.5512C82.5918 93.6493 82.447 93.5512 82.447 93.3644C82.4538 93.2542 82.486 93.1471 82.5411 93.0515C82.5962 92.9559 82.6727 92.8743 82.7646 92.8132C82.9421 92.7104 83.0869 92.7945 83.0869 92.9954Z" fill="#86B2FF"/>
<path d="M90.0042 89.0015C89.9992 89.1121 89.9678 89.2199 89.9125 89.3158C89.8572 89.4117 89.7797 89.493 89.6865 89.5527C89.509 89.6555 89.3689 89.5527 89.3689 89.3705C89.3738 89.2599 89.4053 89.1522 89.4605 89.0562C89.5158 88.9603 89.5933 88.8791 89.6865 88.8194C89.8874 88.7166 90.0042 88.8007 90.0042 89.0015Z" fill="#86B2FF"/>
<path d="M96.9278 85.0079C96.9208 85.1186 96.888 85.2261 96.8321 85.3218C96.7761 85.4175 96.6985 85.4988 96.6055 85.5591C96.4326 85.6619 96.2878 85.5591 96.2878 85.377C96.2943 85.2661 96.3263 85.1582 96.3814 85.0618C96.4365 84.9653 96.5132 84.8829 96.6055 84.8211C96.783 84.723 96.9278 84.8024 96.9278 85.0079Z" fill="#86B2FF"/>
<path d="M103.845 81.0095C103.838 81.1204 103.806 81.2283 103.751 81.3247C103.696 81.4212 103.619 81.5035 103.527 81.5654C103.35 81.6635 103.205 81.5654 103.205 81.3785C103.212 81.2679 103.245 81.1604 103.301 81.0647C103.357 80.9689 103.434 80.8877 103.527 80.8273C103.7 80.7106 103.845 80.8087 103.845 81.0095Z" fill="#86B2FF"/>
<path d="M110.763 77.0158C110.758 77.1263 110.726 77.2341 110.671 77.3301C110.616 77.426 110.538 77.5072 110.445 77.5669C110.268 77.6697 110.127 77.5669 110.127 77.3848C110.132 77.2742 110.164 77.1664 110.219 77.0705C110.274 76.9746 110.352 76.8933 110.445 76.8336C110.623 76.7308 110.763 76.8149 110.763 77.0158Z" fill="#86B2FF"/>
<path d="M117.686 73.022C117.679 73.1322 117.647 73.2393 117.591 73.3349C117.536 73.4306 117.46 73.5121 117.368 73.5732C117.19 73.676 117.046 73.5732 117.046 73.3911C117.052 73.2796 117.084 73.1712 117.14 73.0746C117.196 72.978 117.274 72.896 117.368 72.8352C117.541 72.7371 117.686 72.8165 117.686 73.022Z" fill="#86B2FF"/>
<path d="M55.4065 115.458C55.4001 115.569 55.368 115.676 55.3129 115.771C55.2578 115.867 55.1811 115.949 55.0889 116.009C54.9114 116.112 54.7666 116.009 54.7666 115.827C54.7724 115.716 54.8047 115.608 54.8608 115.513C54.9169 115.417 54.9951 115.336 55.0889 115.276C55.2617 115.173 55.4065 115.276 55.4065 115.458Z" fill="#86B2FF"/>
<path d="M62.3284 111.465C62.3223 111.575 62.2904 111.682 62.2352 111.778C62.1801 111.874 62.1032 111.955 62.0107 112.016C61.8332 112.118 61.6931 112.016 61.6931 111.829C61.6992 111.719 61.7311 111.611 61.7863 111.515C61.8414 111.42 61.9183 111.338 62.0107 111.278C62.1836 111.175 62.3284 111.259 62.3284 111.465Z" fill="#86B2FF"/>
<path d="M69.2461 107.466C69.2397 107.577 69.2077 107.685 69.1526 107.781C69.0975 107.878 69.0208 107.96 68.9285 108.022C68.751 108.12 68.6062 108.022 68.6062 107.835C68.6132 107.724 68.6459 107.617 68.7019 107.521C68.7579 107.426 68.8355 107.344 68.9285 107.284C69.1013 107.181 69.2461 107.265 69.2461 107.466Z" fill="#86B2FF"/>
<path d="M76.1653 103.472C76.1603 103.583 76.1289 103.691 76.0736 103.787C76.0184 103.883 75.9409 103.964 75.8477 104.024C75.6702 104.126 75.53 104.024 75.53 103.841C75.535 103.731 75.5664 103.623 75.6217 103.527C75.677 103.431 75.7545 103.35 75.8477 103.29C76.0252 103.187 76.1653 103.272 76.1653 103.472Z" fill="#86B2FF"/>
<path d="M83.0869 99.4786C83.08 99.5893 83.0472 99.6968 82.9912 99.7925C82.9353 99.8882 82.8577 99.9695 82.7646 100.03C82.5918 100.133 82.447 100.03 82.447 99.8477C82.4535 99.7368 82.4855 99.6289 82.5406 99.5325C82.5957 99.436 82.6724 99.3537 82.7646 99.2918C82.9421 99.1937 83.0869 99.2731 83.0869 99.4786Z" fill="#86B2FF"/>
<path d="M90.0042 95.4803C89.9988 95.5915 89.9672 95.6998 89.912 95.7964C89.8568 95.893 89.7796 95.9751 89.6865 96.0362C89.509 96.1343 89.3689 96.0362 89.3689 95.8493C89.375 95.739 89.4069 95.6316 89.462 95.5359C89.5172 95.4402 89.5941 95.3587 89.6865 95.2982C89.8874 95.1907 90.0042 95.2795 90.0042 95.4803Z" fill="#86B2FF"/>
<path d="M96.9278 91.4866C96.9219 91.5975 96.8896 91.7054 96.8336 91.8013C96.7775 91.8972 96.6993 91.9783 96.6055 92.0378C96.4326 92.1405 96.2878 92.0378 96.2878 91.8556C96.2935 91.7452 96.3253 91.6377 96.3805 91.5419C96.4357 91.4461 96.5128 91.3647 96.6055 91.3044C96.783 91.2016 96.9278 91.2857 96.9278 91.4866Z" fill="#86B2FF"/>
<path d="M103.845 87.4928C103.838 87.603 103.806 87.7101 103.751 87.8057C103.696 87.9013 103.619 87.9829 103.527 88.044C103.35 88.1468 103.205 88.044 103.205 87.8618C103.211 87.7504 103.244 87.6419 103.3 87.5454C103.356 87.4488 103.433 87.3668 103.527 87.306C103.7 87.2079 103.845 87.2873 103.845 87.4928Z" fill="#86B2FF"/>
<path d="M110.763 83.5132C110.757 83.6243 110.726 83.7326 110.671 83.8292C110.615 83.9258 110.538 84.008 110.445 84.069C110.268 84.1671 110.127 84.069 110.127 83.8822C110.134 83.7718 110.165 83.6645 110.221 83.5687C110.276 83.473 110.353 83.3916 110.445 83.331C110.623 83.2095 110.763 83.2936 110.763 83.5132Z" fill="#86B2FF"/>
<path d="M117.686 79.5007C117.68 79.6112 117.648 79.7187 117.593 79.8145C117.538 79.9103 117.461 79.9916 117.368 80.0519C117.19 80.1547 117.046 80.0519 117.046 79.8698C117.052 79.7589 117.084 79.6512 117.14 79.5553C117.196 79.4595 117.274 79.3783 117.368 79.3186C117.541 79.2158 117.686 79.3092 117.686 79.5007Z" fill="#86B2FF"/>
</g>
<path d="M49.8944 116.178C49.4955 116.175 49.1136 116.015 48.832 115.733C48.5503 115.45 48.3916 115.068 48.3904 114.669V52.7405C48.3981 52.1228 48.553 51.5158 48.8422 50.9699C49.1314 50.424 49.5466 49.9549 50.0533 49.6016L121.935 8.0996C122.14 7.96086 122.379 7.88058 122.626 7.86741C122.873 7.85424 123.119 7.90868 123.337 8.02486C123.585 8.19752 123.783 8.43279 123.911 8.70679C124.039 8.98079 124.092 9.28377 124.065 9.58498V71.4619C124.065 72.1076 123.894 72.7417 123.571 73.3008C123.248 73.8599 122.784 74.3243 122.225 74.6475L50.6511 115.972C50.4213 116.106 50.1603 116.176 49.8944 116.178ZM122.734 8.77689C122.615 8.78401 122.499 8.82095 122.398 8.88433L50.5204 50.405C50.1535 50.6755 49.854 51.0269 49.645 51.432C49.436 51.837 49.3232 52.2848 49.3152 52.7405V114.669C49.3136 114.771 49.3397 114.871 49.3907 114.959C49.4417 115.047 49.5157 115.119 49.6048 115.169C49.6926 115.22 49.7926 115.248 49.8944 115.248C49.9963 115.248 50.0963 115.22 50.184 115.169L121.763 73.8441C122.18 73.6017 122.526 73.2541 122.767 72.8362C123.008 72.4182 123.135 71.9444 123.136 71.4619V9.58498C123.136 9.11788 123 8.90301 122.87 8.82827C122.83 8.79937 122.783 8.78163 122.734 8.77689Z" fill="white"/>
<path opacity="0.5" d="M108.795 30.2263V62.3442L116.194 66.6135V34.5002L108.795 30.2263Z" fill="#86B2FF"/>
<path opacity="0.5" d="M108.796 30.2262V62.3441L101.397 66.6134V34.5002L108.796 30.2262Z" fill="#86B2FF"/>
<path d="M108.796 38.6707L101.568 34.5001L108.796 30.325L116.024 34.5001L108.796 38.6707Z" fill="white" stroke="#141414" stroke-width="0.171124"/>
<path opacity="0.5" d="M108.796 38.5686L101.57 34.3973L101.397 34.5001L108.796 38.7694L116.195 34.5001L116.017 34.3973L108.796 38.5686Z" fill="#86B2FF"/>
<path opacity="0.6" d="M108.796 70.8873L101.397 66.6134L108.796 62.3441L116.195 66.6134L108.796 70.8873Z" fill="#86B2FF"/>
<path d="M108.711 70.7392L101.483 66.564V34.6483L108.711 38.8189V70.7392Z" fill="#86B2FF" stroke="#141414" stroke-width="0.171124"/>
<path d="M108.88 38.8189L116.108 34.6483V66.564L108.88 70.7392V38.8189Z" fill="#0962FF" stroke="#141414" stroke-width="0.171124"/>
<path opacity="0.5" d="M93.9871 48.4197V70.8546L101.386 75.1239V52.6937L93.9871 48.4197Z" fill="#86B2FF"/>
<path opacity="0.5" d="M93.9885 48.4197V70.8546L86.5896 75.1239V52.6937L93.9885 48.4197Z" fill="#86B2FF"/>
<path opacity="0.5" d="M93.9885 56.963L86.5896 52.6937L93.9885 48.4197L101.387 52.6937L93.9885 56.963Z" fill="white"/>
<path opacity="0.5" d="M93.9885 56.7669L86.7624 52.591L86.5896 52.6938L93.9885 56.9631L101.387 52.6938L101.215 52.591L93.9885 56.7669Z" fill="#86B2FF"/>
<path opacity="0.6" d="M93.9885 79.3933L86.5896 75.124L93.9885 70.8547L101.387 75.124L93.9885 79.3933Z" fill="#86B2FF"/>
<path d="M93.9029 79.2451L86.6752 75.0746V52.8419L93.9029 57.0125V79.2451Z" fill="#86B2FF" stroke="#141414" stroke-width="0.171124"/>
<path d="M94.0726 57.0126L101.3 52.842V75.0746L94.0726 79.2452V57.0126Z" fill="#0962FF" stroke="#141414" stroke-width="0.171124"/>
<path opacity="0.5" d="M79.1797 66.4966V79.3606L86.5786 83.6345V70.7659L79.1797 66.4966Z" fill="#86B2FF"/>
<path opacity="0.5" d="M79.1811 66.4966V79.3606L71.7822 83.6345V70.7659L79.1811 66.4966Z" fill="#86B2FF"/>
<path d="M79.1811 74.9411L71.9534 70.7659L79.1811 66.5954L86.4089 70.7659L79.1811 74.9411Z" fill="white" stroke="#141414" stroke-width="0.171124"/>
<path opacity="0.5" d="M79.1811 74.8391L71.9551 70.6678L71.7822 70.7659L79.1811 75.0399L86.58 70.7659L86.4025 70.6678L79.1811 74.8391Z" fill="#86B2FF"/>
<path opacity="0.6" d="M79.1811 87.9038L71.7822 83.6345L79.1811 79.3605L86.58 83.6345L79.1811 87.9038Z" fill="#86B2FF"/>
<path d="M79.0955 87.7557L71.8678 83.5852V70.9142L79.0955 75.0893V87.7557Z" fill="#86B2FF" stroke="#141414" stroke-width="0.171124"/>
<path d="M79.2652 75.0893L86.493 70.9142V83.5852L79.2652 87.7557V75.0893Z" fill="#0962FF" stroke="#141414" stroke-width="0.171124"/>
<path opacity="0.5" d="M121.953 73.9375V98.5724L129.352 102.846V78.2068L121.953 73.9375Z" fill="#86B2FF"/>
<path opacity="0.5" d="M121.955 73.9375V98.5724L114.556 102.846V78.2068L121.955 73.9375Z" fill="#86B2FF"/>
<path opacity="0.5" d="M121.955 82.4808L114.556 78.2068L121.955 73.9375L129.353 78.2068L121.955 82.4808Z" fill="#0962FF"/>
<path opacity="0.5" d="M121.955 82.2799L114.728 78.1086L114.556 78.2067L121.955 82.4807L129.353 78.2067L129.181 78.1086L121.955 82.2799Z" fill="#86B2FF"/>
<path opacity="0.6" d="M121.955 107.116L114.556 102.846L121.955 98.5724L129.353 102.846L121.955 107.116Z" fill="#86B2FF"/>
<path d="M121.869 106.967L114.641 102.797V78.355L121.869 82.5301V106.967Z" fill="#86B2FF" stroke="#141414" stroke-width="0.171124"/>
<path d="M122.039 82.5301L129.266 78.355V102.797L122.039 106.967V82.5301Z" fill="#0962FF" stroke="#141414" stroke-width="0.171124"/>
<path opacity="0.5" d="M106.109 83.6346V89.3893L113.508 93.6586V87.9039L106.109 83.6346Z" fill="#86B2FF"/>
<path opacity="0.5" d="M106.109 83.6346V89.3893L98.7146 93.6586V87.9039L106.109 83.6346Z" fill="#86B2FF"/>
<path d="M106.109 92.1779L98.7146 87.9039L106.109 83.6346L113.508 87.9039L106.109 92.1779Z" fill="white"/>
<path opacity="0.5" d="M106.109 91.9771L98.8874 87.8058L98.7146 87.9039L106.109 92.1779L113.508 87.9039L113.335 87.8058L106.109 91.9771Z" fill="#86B2FF"/>
<path opacity="0.6" d="M106.109 97.9325L98.7146 93.6585L106.109 89.3892L113.508 93.6585L106.109 97.9325Z" fill="#86B2FF"/>
<path d="M106.023 97.7843L98.8002 93.6092V88.0522L106.023 92.2273V97.7843Z" fill="#86B2FF" stroke="#141414" stroke-width="0.171124"/>
<path d="M106.195 92.2273L113.422 88.0522V93.6092L106.195 97.7844V92.2273Z" fill="#0962FF" stroke="#141414" stroke-width="0.171124"/>
<path opacity="0.5" d="M64.3735 76.2123V87.8898L71.7724 92.1638V80.4863L64.3735 76.2123Z" fill="#86B2FF"/>
<path opacity="0.5" d="M64.3733 76.2123V87.8898L56.9744 92.1638V80.4863L64.3733 76.2123Z" fill="#86B2FF"/>
<path d="M64.3733 84.6568L57.1455 80.4816L64.3732 76.3111L71.601 80.4862L64.3733 84.6568Z" fill="white" stroke="#141414" stroke-width="0.171124"/>
<path opacity="0.5" d="M64.3733 84.5548L57.1472 80.3835L56.9744 80.4816L64.3733 84.7556L71.7721 80.4863L71.5993 80.3835L64.3733 84.5548Z" fill="#86B2FF"/>
<path opacity="0.6" d="M64.3733 96.4331L56.9744 92.1638L64.3733 87.8898L71.7721 92.1638L64.3733 96.4331Z" fill="#86B2FF"/>
<path d="M64.2877 96.285L57.0599 92.1145V80.6345L64.2877 84.805V96.285Z" fill="#86B2FF" stroke="#141414" stroke-width="0.171124"/>
<path d="M64.4591 84.805L71.6869 80.6345V92.1145L64.4591 96.285V84.805Z" fill="#0962FF" stroke="#141414" stroke-width="0.171124"/>
<g opacity="0.8">
<path d="M116.044 78.1508C116.055 78.1994 116.051 78.2501 116.033 78.2964C116.015 78.3428 115.984 78.3828 115.943 78.4114C115.902 78.4399 115.854 78.4559 115.804 78.4571C115.754 78.4583 115.705 78.4448 115.663 78.4183C115.621 78.3917 115.588 78.3533 115.568 78.3079C115.547 78.2625 115.541 78.2121 115.549 78.163C115.557 78.114 115.58 78.0685 115.614 78.0322C115.648 77.9959 115.692 77.9706 115.741 77.9593C115.773 77.9517 115.807 77.9507 115.84 77.9562C115.873 77.9617 115.904 77.9738 115.932 77.9916C115.961 78.0094 115.985 78.0327 116.004 78.06C116.024 78.0873 116.037 78.1182 116.044 78.1508Z" fill="#86B2FF"/>
<path d="M117.086 77.5575C117.1 77.6237 117.087 77.6927 117.051 77.7496C117.014 77.8065 116.956 77.8465 116.89 77.8611C116.824 77.8751 116.756 77.8629 116.699 77.8271C116.642 77.7914 116.602 77.7348 116.586 77.6696C116.579 77.637 116.578 77.6033 116.583 77.5704C116.589 77.5375 116.601 77.506 116.619 77.4777C116.637 77.4495 116.66 77.4251 116.687 77.4059C116.714 77.3867 116.745 77.3731 116.778 77.3659C116.811 77.3577 116.845 77.3561 116.878 77.3613C116.912 77.3665 116.944 77.3784 116.973 77.3963C117.001 77.4141 117.026 77.4376 117.046 77.4653C117.065 77.493 117.079 77.5243 117.086 77.5575Z" fill="#86B2FF"/>
<path d="M118.114 76.9737C118.122 77.0062 118.123 77.0399 118.117 77.0729C118.112 77.1058 118.1 77.1374 118.083 77.1658C118.065 77.1942 118.042 77.2189 118.015 77.2384C117.988 77.258 117.957 77.272 117.925 77.2796C117.892 77.2873 117.859 77.2885 117.826 77.2831C117.793 77.2778 117.761 77.266 117.733 77.2484C117.704 77.2308 117.68 77.2079 117.66 77.1808C117.641 77.1536 117.627 77.123 117.619 77.0905C117.611 77.0579 117.61 77.0242 117.615 76.9913C117.621 76.9583 117.633 76.9267 117.65 76.8983C117.668 76.8699 117.691 76.8452 117.718 76.8257C117.745 76.8062 117.776 76.7922 117.808 76.7845C117.841 76.7768 117.874 76.7756 117.907 76.781C117.94 76.7864 117.972 76.7982 118 76.8157C118.029 76.8333 118.053 76.8563 118.073 76.8834C118.092 76.9105 118.106 76.9412 118.114 76.9737Z" fill="#86B2FF"/>
<path d="M119.146 76.3664C119.158 76.4159 119.154 76.4677 119.137 76.5153C119.119 76.5629 119.087 76.6041 119.046 76.6338C119.005 76.6635 118.955 76.6802 118.905 76.6819C118.854 76.6836 118.804 76.6702 118.76 76.6434C118.717 76.6165 118.683 76.5775 118.662 76.5312C118.641 76.4849 118.634 76.4334 118.643 76.3833C118.651 76.3331 118.674 76.2865 118.709 76.2494C118.743 76.2123 118.788 76.1864 118.838 76.1749C118.904 76.1595 118.974 76.171 119.032 76.2069C119.089 76.2428 119.131 76.3002 119.146 76.3664Z" fill="#86B2FF"/>
<path d="M120.174 75.7732C120.189 75.8389 120.177 75.9078 120.141 75.9647C120.105 76.0216 120.048 76.062 119.982 76.0768C119.917 76.0917 119.848 76.0799 119.791 76.044C119.734 76.008 119.694 75.951 119.679 75.8853C119.664 75.8197 119.676 75.7508 119.712 75.6938C119.748 75.6369 119.805 75.5966 119.87 75.5817C119.936 75.5668 120.005 75.5787 120.062 75.6146C120.119 75.6505 120.159 75.7076 120.174 75.7732Z" fill="#86B2FF"/>
<path d="M121.205 75.1801C121.216 75.2296 121.212 75.2812 121.193 75.3284C121.174 75.3756 121.142 75.4162 121.101 75.4452C121.059 75.4742 121.01 75.4902 120.959 75.4912C120.909 75.4923 120.859 75.4783 120.816 75.4511C120.773 75.4239 120.739 75.3847 120.719 75.3383C120.698 75.292 120.692 75.2406 120.701 75.1906C120.709 75.1407 120.733 75.0944 120.767 75.0576C120.802 75.0208 120.847 74.9952 120.897 74.9839C120.93 74.9764 120.964 74.9754 120.998 74.9812C121.031 74.987 121.063 74.9994 121.092 75.0176C121.121 75.0359 121.145 75.0596 121.165 75.0875C121.184 75.1154 121.198 75.1469 121.205 75.1801Z" fill="#86B2FF"/>
<path d="M122.234 74.5821C122.249 74.6484 122.238 74.7181 122.202 74.7759C122.166 74.8337 122.108 74.8749 122.042 74.8904C121.993 74.902 121.941 74.8987 121.893 74.8809C121.846 74.863 121.804 74.8315 121.775 74.7902C121.745 74.7489 121.728 74.6997 121.727 74.6489C121.725 74.5981 121.738 74.5479 121.765 74.5048C121.792 74.4616 121.831 74.4273 121.877 74.4063C121.924 74.3854 121.975 74.3786 122.025 74.3869C122.075 74.3951 122.122 74.4181 122.159 74.4529C122.196 74.4876 122.222 74.5326 122.234 74.5821Z" fill="#86B2FF"/>
<path d="M117.072 78.7441C117.083 78.7926 117.079 78.8433 117.061 78.8897C117.043 78.936 117.012 78.976 116.971 79.0046C116.93 79.0332 116.882 79.0491 116.832 79.0504C116.782 79.0516 116.733 79.0381 116.691 79.0115C116.649 78.985 116.616 78.9466 116.596 78.9012C116.575 78.8558 116.569 78.8054 116.577 78.7563C116.585 78.7072 116.608 78.6617 116.642 78.6255C116.676 78.5892 116.72 78.5638 116.769 78.5525C116.801 78.545 116.835 78.5439 116.868 78.5495C116.901 78.555 116.932 78.567 116.961 78.5849C116.989 78.6027 117.013 78.6259 117.032 78.6532C117.052 78.6806 117.065 78.7114 117.072 78.7441Z" fill="#86B2FF"/>
<path d="M118.104 78.1508C118.112 78.1833 118.113 78.217 118.107 78.2499C118.102 78.2829 118.09 78.3144 118.072 78.3426C118.054 78.3709 118.031 78.3953 118.003 78.4145C117.976 78.4337 117.945 78.4472 117.913 78.4544C117.864 78.4651 117.813 78.4611 117.767 78.4431C117.721 78.4251 117.681 78.3937 117.652 78.353C117.623 78.3123 117.608 78.264 117.606 78.2143C117.605 78.1645 117.619 78.1156 117.645 78.0735C117.672 78.0314 117.71 77.9981 117.755 77.9778C117.801 77.9575 117.851 77.9511 117.9 77.9593C117.949 77.9676 117.995 77.9902 118.031 78.0242C118.067 78.0583 118.093 78.1023 118.104 78.1508Z" fill="#86B2FF"/>
<path d="M119.132 77.5575C119.143 77.6061 119.139 77.6568 119.121 77.7031C119.103 77.7495 119.071 77.7895 119.031 77.8181C118.99 77.8467 118.942 77.8626 118.892 77.8638C118.842 77.865 118.793 77.8515 118.751 77.825C118.709 77.7984 118.676 77.76 118.656 77.7146C118.635 77.6692 118.629 77.6188 118.637 77.5697C118.645 77.5207 118.668 77.4752 118.702 77.4389C118.736 77.4027 118.78 77.3773 118.829 77.366C118.861 77.3577 118.895 77.3562 118.928 77.3615C118.961 77.3667 118.993 77.3787 119.021 77.3966C119.05 77.4145 119.074 77.438 119.093 77.4657C119.112 77.4933 119.126 77.5246 119.132 77.5575Z" fill="#86B2FF"/>
<path d="M120.164 76.9736C120.18 77.0398 120.168 77.1095 120.132 77.1673C120.096 77.2251 120.039 77.2663 119.973 77.2819C119.923 77.2935 119.871 77.2902 119.824 77.2723C119.776 77.2545 119.735 77.2229 119.705 77.1816C119.676 77.1403 119.659 77.0911 119.657 77.0403C119.655 76.9895 119.669 76.9394 119.696 76.8962C119.722 76.853 119.762 76.8188 119.808 76.7978C119.854 76.7768 119.906 76.77 119.956 76.7783C120.006 76.7866 120.052 76.8095 120.09 76.8443C120.127 76.8791 120.153 76.9241 120.164 76.9736Z" fill="#86B2FF"/>
<path d="M121.183 76.3664C121.198 76.432 121.186 76.5009 121.15 76.5578C121.114 76.6148 121.057 76.6551 120.991 76.67C120.926 76.6848 120.857 76.673 120.8 76.6371C120.743 76.6012 120.703 76.5441 120.688 76.4785C120.673 76.4128 120.685 76.3439 120.721 76.287C120.756 76.2301 120.814 76.1897 120.879 76.1748C120.945 76.16 121.014 76.1718 121.071 76.2077C121.128 76.2436 121.168 76.3007 121.183 76.3664Z" fill="#86B2FF"/>
<path d="M122.224 75.7733C122.236 75.823 122.233 75.8751 122.215 75.9229C122.197 75.9707 122.166 76.0122 122.124 76.0419C122.082 76.0716 122.033 76.0883 121.982 76.0898C121.931 76.0913 121.881 76.0775 121.837 76.0503C121.794 76.023 121.76 75.9835 121.739 75.9368C121.719 75.8901 121.713 75.8383 121.721 75.788C121.73 75.7377 121.754 75.6913 121.79 75.6545C121.825 75.6178 121.871 75.5925 121.921 75.5818C121.953 75.5742 121.987 75.5732 122.02 75.5787C122.053 75.5842 122.084 75.5963 122.113 75.6141C122.141 75.6319 122.165 75.6552 122.184 75.6825C122.204 75.7098 122.217 75.7407 122.224 75.7733Z" fill="#86B2FF"/>
<path d="M123.252 75.1753C123.259 75.2078 123.261 75.2415 123.255 75.2745C123.25 75.3074 123.238 75.339 123.22 75.3674C123.203 75.3958 123.18 75.4205 123.153 75.44C123.126 75.4596 123.095 75.4736 123.062 75.4812C123.03 75.4889 122.996 75.4901 122.963 75.4847C122.93 75.4794 122.899 75.4676 122.87 75.45C122.842 75.4324 122.817 75.4095 122.798 75.3823C122.778 75.3552 122.764 75.3246 122.757 75.2921C122.749 75.2595 122.748 75.2258 122.753 75.1929C122.758 75.1599 122.77 75.1283 122.788 75.0999C122.805 75.0715 122.828 75.0468 122.855 75.0273C122.883 75.0078 122.913 74.9938 122.946 74.9861C122.978 74.9784 123.012 74.9772 123.045 74.9826C123.078 74.988 123.109 74.9998 123.138 75.0173C123.166 75.0349 123.191 75.0579 123.21 75.085C123.23 75.1121 123.244 75.1428 123.252 75.1753Z" fill="#86B2FF"/>
<path d="M118.095 79.3419C118.109 79.4081 118.096 79.4772 118.059 79.534C118.022 79.5909 117.965 79.6309 117.898 79.6455C117.834 79.6546 117.769 79.6393 117.716 79.6026C117.663 79.5659 117.626 79.5105 117.611 79.4474C117.597 79.3843 117.607 79.3182 117.64 79.2623C117.672 79.2064 117.725 79.1648 117.786 79.1457C117.853 79.1317 117.923 79.1444 117.98 79.181C118.038 79.2177 118.079 79.2754 118.095 79.3419Z" fill="#86B2FF"/>
<path d="M119.122 78.744C119.138 78.8103 119.126 78.88 119.09 78.9378C119.054 78.9956 118.997 79.0367 118.931 79.0523C118.881 79.0639 118.829 79.0606 118.782 79.0427C118.734 79.0249 118.693 78.9933 118.663 78.952C118.634 78.9108 118.617 78.8616 118.615 78.8108C118.613 78.76 118.627 78.7098 118.654 78.6666C118.68 78.6234 118.72 78.5892 118.766 78.5682C118.812 78.5472 118.864 78.5404 118.914 78.5487C118.964 78.557 119.01 78.58 119.048 78.6147C119.085 78.6495 119.111 78.6945 119.122 78.744Z" fill="#86B2FF"/>
<path d="M120.155 78.1508C120.169 78.217 120.156 78.2861 120.12 78.3429C120.083 78.3998 120.025 78.4398 119.959 78.4544C119.893 78.4692 119.825 78.4574 119.768 78.4215C119.711 78.3856 119.67 78.3285 119.655 78.2629C119.641 78.1972 119.652 78.1283 119.688 78.0714C119.724 78.0145 119.781 77.9741 119.847 77.9593C119.913 77.9438 119.983 77.9554 120.041 77.9913C120.098 78.0272 120.14 78.0845 120.155 78.1508Z" fill="#86B2FF"/>
<path d="M121.183 77.5577C121.197 77.6233 121.185 77.6917 121.149 77.7485C121.113 77.8052 121.057 77.8457 120.992 77.8613C120.959 77.8689 120.925 77.8699 120.893 77.8644C120.86 77.8588 120.828 77.8468 120.8 77.829C120.772 77.8112 120.747 77.7879 120.728 77.7606C120.709 77.7333 120.695 77.7024 120.688 77.6698C120.68 77.6369 120.678 77.6028 120.683 77.5693C120.689 77.5358 120.701 77.5037 120.718 77.475C120.736 77.4462 120.76 77.4213 120.787 77.4018C120.815 77.3823 120.846 77.3686 120.88 77.3615C120.946 77.3476 121.015 77.3604 121.072 77.3971C121.129 77.4339 121.169 77.4916 121.183 77.5577Z" fill="#86B2FF"/>
<path d="M122.215 76.9737C122.226 77.0075 122.229 77.0432 122.225 77.0784C122.221 77.1136 122.21 77.1476 122.192 77.1783C122.174 77.209 122.15 77.2356 122.122 77.2566C122.093 77.2776 122.061 77.2924 122.026 77.3001C121.991 77.3079 121.956 77.3084 121.921 77.3017C121.886 77.2949 121.853 77.281 121.824 77.2609C121.795 77.2408 121.77 77.2148 121.751 77.1847C121.733 77.1545 121.72 77.1209 121.715 77.0858C121.701 77.0202 121.714 76.9517 121.749 76.895C121.785 76.8382 121.842 76.7977 121.907 76.7822C121.973 76.768 122.042 76.78 122.1 76.8157C122.157 76.8515 122.199 76.9081 122.215 76.9737Z" fill="#86B2FF"/>
<path d="M123.242 76.3663C123.25 76.3988 123.251 76.4326 123.245 76.4655C123.24 76.4984 123.228 76.5299 123.21 76.5582C123.192 76.5864 123.169 76.6108 123.141 76.63C123.114 76.6492 123.083 76.6628 123.051 76.6699C122.985 76.6848 122.916 76.673 122.859 76.6371C122.802 76.6012 122.762 76.5441 122.747 76.4784C122.732 76.4128 122.744 76.3439 122.78 76.287C122.816 76.23 122.873 76.1897 122.939 76.1748C123.004 76.1608 123.073 76.173 123.129 76.2087C123.186 76.2445 123.227 76.3011 123.242 76.3663Z" fill="#86B2FF"/>
<path d="M124.275 75.7732C124.289 75.8394 124.276 75.9085 124.239 75.9653C124.203 76.0222 124.145 76.0622 124.079 76.0768C124.013 76.0908 123.945 76.0786 123.888 76.0428C123.831 76.0071 123.791 75.9505 123.775 75.8853C123.766 75.8508 123.765 75.8148 123.771 75.7797C123.777 75.7446 123.79 75.7112 123.81 75.6816C123.83 75.652 123.856 75.627 123.886 75.6082C123.916 75.5893 123.95 75.5771 123.985 75.5723C124.05 75.5613 124.117 75.5762 124.171 75.6138C124.225 75.6513 124.262 75.7085 124.275 75.7732Z" fill="#86B2FF"/>
<path d="M119.113 79.9351C119.125 79.9846 119.122 80.0364 119.104 80.084C119.086 80.1316 119.054 80.1729 119.013 80.2025C118.972 80.2322 118.923 80.2489 118.872 80.2506C118.821 80.2523 118.771 80.2389 118.728 80.2121C118.685 80.1853 118.65 80.1462 118.629 80.0999C118.608 80.0536 118.602 80.0021 118.61 79.952C118.618 79.9018 118.641 79.8553 118.676 79.8182C118.711 79.7811 118.756 79.7551 118.805 79.7436C118.871 79.7282 118.941 79.7397 118.999 79.7756C119.057 79.8115 119.098 79.8689 119.113 79.9351Z" fill="#86B2FF"/>
<path d="M120.141 79.3419C120.151 79.3905 120.146 79.441 120.127 79.4869C120.108 79.5328 120.077 79.5722 120.036 79.6001C119.995 79.628 119.946 79.6432 119.897 79.6438C119.847 79.6444 119.798 79.6304 119.757 79.6034C119.715 79.5765 119.682 79.5379 119.662 79.4925C119.643 79.447 119.637 79.3967 119.645 79.3479C119.654 79.299 119.677 79.2538 119.711 79.2178C119.745 79.1819 119.789 79.1568 119.837 79.1457C119.904 79.1318 119.973 79.1447 120.029 79.1814C120.086 79.2181 120.126 79.2758 120.141 79.3419Z" fill="#86B2FF"/>
<path d="M121.183 78.744C121.195 78.7935 121.192 78.8453 121.174 78.8929C121.156 78.9405 121.124 78.9818 121.083 79.0114C121.042 79.0411 120.993 79.0578 120.942 79.0595C120.891 79.0612 120.841 79.0478 120.798 79.021C120.754 78.9941 120.72 78.9551 120.699 78.9088C120.678 78.8625 120.671 78.811 120.68 78.7609C120.688 78.7107 120.711 78.6641 120.746 78.6271C120.78 78.59 120.825 78.564 120.875 78.5525C120.941 78.5371 121.011 78.5486 121.069 78.5845C121.127 78.6204 121.168 78.6778 121.183 78.744Z" fill="#86B2FF"/>
<path d="M122.201 78.1508C122.209 78.1833 122.21 78.217 122.204 78.2499C122.199 78.2829 122.187 78.3144 122.169 78.3426C122.151 78.3709 122.128 78.3953 122.101 78.4145C122.073 78.4337 122.042 78.4472 122.01 78.4544C121.977 78.4626 121.943 78.4642 121.91 78.4589C121.877 78.4537 121.845 78.4417 121.817 78.4238C121.789 78.4059 121.764 78.3824 121.745 78.3547C121.726 78.3271 121.713 78.2958 121.706 78.2629C121.691 78.1972 121.703 78.1284 121.739 78.0714C121.775 78.0145 121.832 77.9741 121.898 77.9593C121.963 77.9444 122.032 77.9562 122.089 77.9921C122.146 78.0281 122.186 78.0851 122.201 78.1508Z" fill="#86B2FF"/>
<path d="M123.233 77.5576C123.244 77.6071 123.24 77.6587 123.221 77.7059C123.203 77.7531 123.171 77.7937 123.129 77.8227C123.088 77.8517 123.038 77.8677 122.988 77.8687C122.937 77.8698 122.887 77.8558 122.844 77.8286C122.802 77.8014 122.768 77.7622 122.747 77.7158C122.727 77.6695 122.72 77.6181 122.729 77.5681C122.738 77.5182 122.761 77.4719 122.796 77.4351C122.831 77.3983 122.876 77.3727 122.925 77.3614C122.958 77.3539 122.993 77.3529 123.026 77.3587C123.059 77.3645 123.092 77.3769 123.12 77.3951C123.149 77.4134 123.174 77.4372 123.193 77.465C123.212 77.4929 123.226 77.5244 123.233 77.5576Z" fill="#86B2FF"/>
<path d="M124.261 76.9737C124.272 77.0223 124.268 77.0729 124.25 77.1193C124.232 77.1657 124.201 77.2056 124.16 77.2342C124.119 77.2628 124.071 77.2787 124.021 77.28C123.971 77.2812 123.922 77.2677 123.88 77.2411C123.838 77.2146 123.805 77.1762 123.785 77.1308C123.764 77.0854 123.758 77.035 123.766 76.9859C123.774 76.9369 123.797 76.8913 123.831 76.8551C123.865 76.8188 123.909 76.7935 123.958 76.7822C123.99 76.7746 124.024 76.7735 124.057 76.7791C124.09 76.7846 124.121 76.7967 124.149 76.8145C124.178 76.8323 124.202 76.8555 124.221 76.8829C124.241 76.9102 124.254 76.9411 124.261 76.9737Z" fill="#86B2FF"/>
<path d="M125.293 76.3664C125.305 76.4159 125.301 76.4677 125.283 76.5153C125.265 76.5629 125.234 76.6041 125.193 76.6338C125.151 76.6635 125.102 76.6802 125.051 76.6819C125.001 76.6836 124.95 76.6702 124.907 76.6434C124.864 76.6165 124.83 76.5775 124.809 76.5312C124.788 76.4849 124.781 76.4334 124.789 76.3833C124.798 76.3331 124.821 76.2865 124.855 76.2494C124.89 76.2123 124.935 76.1864 124.985 76.1749C125.051 76.1595 125.121 76.171 125.178 76.2069C125.236 76.2428 125.277 76.3002 125.293 76.3664Z" fill="#86B2FF"/>
<path d="M120.131 80.5283C120.147 80.5946 120.135 80.6643 120.099 80.7221C120.063 80.7799 120.006 80.8211 119.94 80.8366C119.906 80.8471 119.87 80.8504 119.835 80.8464C119.8 80.8424 119.766 80.8312 119.735 80.8134C119.704 80.7956 119.678 80.7717 119.657 80.7431C119.636 80.7145 119.621 80.6819 119.613 80.6474C119.605 80.6128 119.605 80.577 119.612 80.5422C119.618 80.5074 119.632 80.4744 119.652 80.4452C119.673 80.416 119.698 80.3913 119.729 80.3727C119.759 80.354 119.792 80.3418 119.828 80.3368C119.893 80.3228 119.962 80.3349 120.018 80.3707C120.075 80.4065 120.116 80.4631 120.131 80.5283Z" fill="#86B2FF"/>
<path d="M121.183 79.9351C121.192 79.9991 121.176 80.0642 121.14 80.1174C121.103 80.1706 121.048 80.208 120.985 80.2221C120.921 80.2363 120.855 80.2261 120.799 80.1937C120.744 80.1613 120.702 80.109 120.683 80.0472C120.675 80.0147 120.674 79.981 120.68 79.9481C120.685 79.9151 120.697 79.8837 120.715 79.8554C120.733 79.8272 120.756 79.8027 120.784 79.7835C120.811 79.7644 120.842 79.7508 120.874 79.7436C120.941 79.7282 121.01 79.7397 121.068 79.7756C121.126 79.8115 121.167 79.8689 121.183 79.9351Z" fill="#86B2FF"/>
<path d="M122.191 79.3418C122.2 79.4058 122.184 79.4709 122.148 79.5241C122.111 79.5773 122.056 79.6147 121.993 79.6288C121.93 79.6429 121.863 79.6328 121.808 79.6004C121.752 79.568 121.71 79.5157 121.691 79.4539C121.68 79.42 121.677 79.3844 121.681 79.3492C121.685 79.3139 121.696 79.2799 121.714 79.2493C121.732 79.2186 121.756 79.192 121.784 79.171C121.813 79.15 121.846 79.1352 121.88 79.1274C121.915 79.1197 121.951 79.1192 121.985 79.1259C122.02 79.1327 122.053 79.1466 122.082 79.1667C122.111 79.1868 122.136 79.2128 122.155 79.2429C122.173 79.2731 122.186 79.3067 122.191 79.3418Z" fill="#86B2FF"/>
<path d="M123.224 78.744C123.235 78.7778 123.238 78.8135 123.234 78.8487C123.23 78.8839 123.219 78.918 123.201 78.9486C123.183 78.9793 123.159 79.0059 123.131 79.0269C123.102 79.0479 123.069 79.0627 123.035 79.0705C123 79.0782 122.964 79.0787 122.93 79.072C122.895 79.0652 122.862 79.0513 122.833 79.0312C122.803 79.0111 122.779 78.9851 122.76 78.955C122.741 78.9248 122.729 78.8912 122.724 78.8561C122.715 78.7921 122.73 78.727 122.767 78.6738C122.804 78.6206 122.859 78.5832 122.922 78.5691C122.985 78.5549 123.052 78.5651 123.107 78.5975C123.163 78.6299 123.205 78.6822 123.224 78.744Z" fill="#86B2FF"/>
<path d="M124.252 78.1508C124.259 78.1833 124.26 78.217 124.255 78.2499C124.249 78.2829 124.237 78.3144 124.219 78.3426C124.201 78.3709 124.178 78.3953 124.151 78.4145C124.124 78.4337 124.093 78.4472 124.06 78.4544C124.011 78.4651 123.961 78.4611 123.914 78.4431C123.868 78.4251 123.828 78.3937 123.799 78.353C123.771 78.3123 123.755 78.264 123.754 78.2143C123.753 78.1645 123.766 78.1156 123.793 78.0735C123.819 78.0314 123.857 77.9981 123.903 77.9778C123.948 77.9575 123.999 77.9511 124.048 77.9593C124.097 77.9676 124.142 77.9902 124.179 78.0242C124.215 78.0583 124.24 78.1023 124.252 78.1508Z" fill="#86B2FF"/>
<path d="M125.284 77.5576C125.298 77.6239 125.285 77.6929 125.248 77.7498C125.212 77.8066 125.154 77.8467 125.088 77.8613C125.024 77.8704 124.959 77.8551 124.906 77.8184C124.852 77.7816 124.815 77.7262 124.801 77.6632C124.787 77.6001 124.797 77.534 124.829 77.4781C124.862 77.4222 124.914 77.3805 124.976 77.3615C125.043 77.3475 125.112 77.3601 125.17 77.3968C125.227 77.4334 125.268 77.4912 125.284 77.5576Z" fill="#86B2FF"/>
<path d="M126.321 76.9737C126.336 77.04 126.325 77.1096 126.289 77.1674C126.253 77.2252 126.196 77.2664 126.129 77.282C126.095 77.2924 126.06 77.2958 126.025 77.2918C125.989 77.2878 125.955 77.2765 125.925 77.2588C125.894 77.241 125.867 77.2171 125.846 77.1885C125.825 77.1599 125.811 77.1273 125.803 77.0927C125.795 77.0581 125.795 77.0223 125.801 76.9875C125.808 76.9528 125.822 76.9197 125.842 76.8906C125.862 76.8614 125.888 76.8367 125.918 76.8181C125.948 76.7994 125.982 76.7872 126.017 76.7822C126.083 76.7681 126.151 76.7803 126.208 76.8161C126.265 76.8519 126.305 76.9084 126.321 76.9737Z" fill="#86B2FF"/>
<path d="M121.151 81.1263C121.16 81.1749 121.156 81.2253 121.137 81.2713C121.118 81.3172 121.086 81.3566 121.045 81.3845C121.004 81.4124 120.956 81.4276 120.906 81.4282C120.857 81.4288 120.808 81.4147 120.766 81.3878C120.725 81.3609 120.692 81.3223 120.672 81.2768C120.652 81.2314 120.646 81.1811 120.655 81.1322C120.664 81.0834 120.686 81.0382 120.721 81.0022C120.755 80.9662 120.799 80.9412 120.847 80.9301C120.913 80.9162 120.982 80.929 121.039 80.9657C121.096 81.0025 121.136 81.0602 121.151 81.1263Z" fill="#86B2FF"/>
<path d="M122.183 80.5283C122.194 80.5778 122.191 80.6296 122.173 80.6772C122.155 80.7248 122.124 80.766 122.082 80.7957C122.041 80.8253 121.992 80.842 121.941 80.8437C121.89 80.8454 121.84 80.832 121.797 80.8052C121.754 80.7784 121.719 80.7394 121.698 80.6931C121.677 80.6468 121.671 80.5953 121.679 80.5451C121.687 80.495 121.71 80.4484 121.745 80.4113C121.78 80.3742 121.825 80.3483 121.874 80.3368C121.941 80.3213 122.01 80.3329 122.068 80.3688C122.126 80.4047 122.167 80.462 122.183 80.5283Z" fill="#86B2FF"/>
<path d="M123.209 79.9352C123.217 79.9677 123.218 80.0014 123.212 80.0342C123.206 80.0671 123.194 80.0985 123.177 80.1267C123.159 80.1549 123.136 80.1793 123.108 80.1985C123.081 80.2178 123.05 80.2315 123.018 80.2388C122.985 80.2462 122.952 80.2471 122.919 80.2414C122.886 80.2358 122.855 80.2237 122.826 80.2059C122.798 80.1882 122.774 80.165 122.755 80.1378C122.735 80.1106 122.722 80.0798 122.714 80.0473C122.699 79.9817 122.711 79.9128 122.747 79.8558C122.783 79.7989 122.84 79.7586 122.906 79.7437C122.971 79.7288 123.04 79.7407 123.097 79.7766C123.154 79.8125 123.195 79.8695 123.209 79.9352Z" fill="#86B2FF"/>
<path d="M124.241 79.3418C124.255 79.4081 124.243 79.4771 124.206 79.534C124.169 79.5908 124.111 79.6309 124.045 79.6454C123.98 79.6595 123.911 79.6473 123.854 79.6115C123.798 79.5757 123.757 79.5191 123.742 79.4539C123.731 79.42 123.728 79.3844 123.732 79.3492C123.736 79.3139 123.747 79.2799 123.765 79.2493C123.783 79.2186 123.807 79.192 123.835 79.171C123.864 79.15 123.896 79.1352 123.931 79.1274C123.965 79.1197 124.001 79.1192 124.036 79.1259C124.071 79.1327 124.104 79.1466 124.133 79.1667C124.162 79.1868 124.187 79.2128 124.206 79.2429C124.224 79.2731 124.236 79.3067 124.241 79.3418Z" fill="#86B2FF"/>
<path d="M125.27 78.744C125.277 78.7765 125.278 78.8102 125.272 78.843C125.267 78.8759 125.255 78.9073 125.237 78.9355C125.219 78.9637 125.196 78.9881 125.169 79.0074C125.141 79.0266 125.111 79.0403 125.078 79.0477C125.046 79.055 125.012 79.0559 124.979 79.0503C124.946 79.0446 124.915 79.0326 124.887 79.0148C124.859 78.997 124.834 78.9738 124.815 78.9466C124.796 78.9194 124.782 78.8887 124.775 78.8561C124.76 78.7905 124.772 78.7216 124.807 78.6647C124.843 78.6077 124.9 78.5674 124.966 78.5525C125.032 78.5377 125.101 78.5495 125.158 78.5854C125.215 78.6213 125.255 78.6784 125.27 78.744Z" fill="#86B2FF"/>
<path d="M126.321 78.1508C126.33 78.2148 126.314 78.2798 126.278 78.333C126.241 78.3862 126.186 78.4236 126.122 78.4378C126.059 78.4519 125.993 78.4418 125.937 78.4093C125.882 78.3769 125.84 78.3246 125.821 78.2629C125.813 78.2303 125.812 78.1966 125.818 78.1637C125.823 78.1308 125.835 78.0993 125.853 78.071C125.871 78.0428 125.894 78.0184 125.922 77.9992C125.949 77.98 125.98 77.9664 126.012 77.9593C126.079 77.9438 126.148 77.9554 126.206 77.9913C126.264 78.0272 126.305 78.0845 126.321 78.1508Z" fill="#86B2FF"/>
<path d="M127.311 77.7258C127.296 77.7565 127.275 77.7839 127.25 77.8066C127.225 77.8293 127.195 77.8468 127.163 77.8581C127.131 77.8694 127.097 77.8742 127.063 77.8723C127.029 77.8705 126.996 77.8619 126.965 77.8472C126.934 77.8325 126.907 77.8119 126.884 77.7865C126.862 77.7612 126.844 77.7316 126.833 77.6996C126.821 77.6675 126.817 77.6335 126.819 77.5995C126.82 77.5655 126.829 77.5322 126.844 77.5016C126.858 77.4713 126.878 77.4442 126.903 77.4218C126.929 77.3995 126.958 77.3824 126.99 77.3715C127.021 77.3606 127.055 77.3562 127.088 77.3585C127.122 77.3608 127.155 77.3697 127.185 77.3848C127.216 77.3984 127.244 77.4181 127.267 77.4428C127.29 77.4675 127.308 77.4966 127.32 77.5285C127.332 77.5603 127.337 77.5942 127.336 77.6281C127.334 77.662 127.326 77.6952 127.311 77.7258Z" fill="#86B2FF"/>
<path d="M122.169 81.7194C122.177 81.7519 122.179 81.7858 122.173 81.819C122.168 81.8521 122.156 81.8839 122.138 81.9123C122.12 81.9407 122.097 81.9651 122.069 81.9842C122.041 82.0032 122.01 82.0164 121.977 82.023C121.912 82.037 121.843 82.0248 121.786 81.9891C121.73 81.9533 121.689 81.8967 121.674 81.8315C121.666 81.7989 121.665 81.7653 121.67 81.7323C121.676 81.6994 121.688 81.6679 121.706 81.6396C121.724 81.6114 121.747 81.587 121.774 81.5678C121.802 81.5486 121.832 81.535 121.865 81.5279C121.898 81.5196 121.932 81.5181 121.965 81.5233C121.998 81.5286 122.03 81.5405 122.058 81.5584C122.086 81.5764 122.111 81.5999 122.13 81.6275C122.149 81.6552 122.162 81.6864 122.169 81.7194Z" fill="#86B2FF"/>
<path d="M123.199 81.1262C123.209 81.1902 123.193 81.2553 123.157 81.3085C123.12 81.3617 123.064 81.3991 123.001 81.4132C122.938 81.4274 122.872 81.4172 122.816 81.3848C122.76 81.3524 122.719 81.3001 122.7 81.2383C122.689 81.2045 122.686 81.1688 122.69 81.1336C122.694 81.0984 122.705 81.0644 122.723 81.0337C122.741 81.003 122.765 80.9764 122.793 80.9554C122.822 80.9345 122.854 80.9196 122.889 80.9119C122.923 80.9041 122.959 80.9036 122.994 80.9103C123.029 80.9171 123.062 80.931 123.091 80.9511C123.12 80.9713 123.145 80.9972 123.164 81.0273C123.182 81.0575 123.194 81.0911 123.199 81.1262Z" fill="#86B2FF"/>
<path d="M124.228 80.5283C124.236 80.5611 124.238 80.5953 124.233 80.6288C124.228 80.6622 124.216 80.6943 124.198 80.7231C124.18 80.7519 124.156 80.7767 124.129 80.7962C124.101 80.8157 124.07 80.8295 124.037 80.8366C123.97 80.8505 123.901 80.8377 123.844 80.8009C123.788 80.7642 123.748 80.7065 123.733 80.6404C123.719 80.5748 123.731 80.5063 123.767 80.4496C123.803 80.3929 123.859 80.3524 123.924 80.3368C123.957 80.3292 123.991 80.3282 124.024 80.3337C124.057 80.3393 124.088 80.3513 124.116 80.3691C124.145 80.3869 124.169 80.4102 124.188 80.4375C124.207 80.4648 124.221 80.4957 124.228 80.5283Z" fill="#86B2FF"/>
<path d="M125.261 79.9352C125.268 79.9677 125.27 80.0014 125.264 80.0343C125.258 80.0672 125.246 80.0987 125.229 80.127C125.211 80.1552 125.188 80.1797 125.16 80.1988C125.133 80.218 125.102 80.2316 125.069 80.2388C125.037 80.2461 125.003 80.247 124.97 80.2414C124.938 80.2357 124.906 80.2237 124.878 80.2059C124.85 80.1881 124.825 80.165 124.806 80.1377C124.787 80.1105 124.773 80.0798 124.766 80.0473C124.758 80.0148 124.758 79.9811 124.763 79.9483C124.769 79.9154 124.781 79.884 124.799 79.8558C124.816 79.8276 124.84 79.8032 124.867 79.7839C124.894 79.7647 124.925 79.751 124.957 79.7436C124.99 79.7361 125.024 79.735 125.056 79.7406C125.089 79.7461 125.121 79.7581 125.149 79.776C125.177 79.7938 125.202 79.817 125.221 79.8443C125.24 79.8717 125.254 79.9025 125.261 79.9352Z" fill="#86B2FF"/>
<path d="M126.287 79.3418C126.295 79.3744 126.296 79.4081 126.29 79.441C126.285 79.4739 126.273 79.5054 126.255 79.5337C126.237 79.5619 126.214 79.5863 126.186 79.6055C126.159 79.6247 126.128 79.6383 126.096 79.6454C126.046 79.6573 125.994 79.6541 125.946 79.6362C125.898 79.6184 125.857 79.5867 125.827 79.5451C125.797 79.5036 125.781 79.4542 125.779 79.4031C125.778 79.3521 125.791 79.3017 125.819 79.2585C125.846 79.2153 125.885 79.1812 125.932 79.1606C125.979 79.1399 126.031 79.1337 126.081 79.1426C126.131 79.1516 126.178 79.1753 126.214 79.2108C126.251 79.2463 126.276 79.2919 126.287 79.3418Z" fill="#86B2FF"/>
<path d="M127.32 78.7441C127.335 78.8103 127.324 78.88 127.288 78.9378C127.252 78.9956 127.195 79.0368 127.128 79.0524C127.094 79.0628 127.059 79.0662 127.024 79.0622C126.988 79.0582 126.954 79.0469 126.924 79.0291C126.893 79.0114 126.866 78.9874 126.845 78.9589C126.824 78.9303 126.81 78.8977 126.802 78.8631C126.794 78.8285 126.794 78.7927 126.8 78.7579C126.807 78.7231 126.821 78.6901 126.841 78.6609C126.861 78.6318 126.887 78.6071 126.917 78.5884C126.947 78.5698 126.981 78.5576 127.016 78.5526C127.082 78.5385 127.15 78.5507 127.207 78.5865C127.264 78.6223 127.304 78.6788 127.32 78.7441Z" fill="#86B2FF"/>
<path d="M128.347 78.1508C128.356 78.1833 128.357 78.2172 128.352 78.2504C128.347 78.2835 128.335 78.3153 128.317 78.3437C128.299 78.3721 128.275 78.3966 128.248 78.4156C128.22 78.4346 128.189 78.4478 128.156 78.4544C128.107 78.4651 128.057 78.4611 128.01 78.4431C127.964 78.4251 127.924 78.3937 127.895 78.353C127.867 78.3123 127.851 78.264 127.85 78.2143C127.848 78.1645 127.862 78.1156 127.889 78.0735C127.915 78.0314 127.953 77.9981 127.999 77.9778C128.044 77.9575 128.095 77.9511 128.144 77.9593C128.193 77.9676 128.238 77.9902 128.275 78.0242C128.311 78.0583 128.336 78.1023 128.347 78.1508Z" fill="#86B2FF"/>
</g>
<path d="M90.2885 125.772C89.9845 125.777 89.6847 125.701 89.4197 125.552L82.5953 121.615C82.511 121.566 82.4409 121.496 82.3922 121.411C82.3435 121.327 82.3179 121.231 82.3179 121.133C82.3179 121.036 82.3435 120.94 82.3922 120.856C82.4409 120.771 82.511 120.701 82.5953 120.652L89.4197 116.724C89.6789 116.577 89.9718 116.5 90.2698 116.5C90.5678 116.5 90.8607 116.577 91.1199 116.724L97.9163 120.648C98.0006 120.697 98.0707 120.767 98.1194 120.851C98.1681 120.936 98.1937 121.031 98.1937 121.129C98.1937 121.226 98.1681 121.322 98.1194 121.407C98.0707 121.491 98.0006 121.561 97.9163 121.61L91.1386 125.552C90.8799 125.7 90.5864 125.776 90.2885 125.772ZM82.913 121.133L89.7186 125.052C89.8915 125.151 90.0871 125.203 90.2862 125.203C90.4852 125.203 90.6808 125.151 90.8537 125.052L97.65 121.115L90.8537 117.219C90.6817 117.12 90.4868 117.068 90.2885 117.068C90.0902 117.068 89.8953 117.12 89.7233 117.219L82.913 121.133Z" fill="#86B2FF"/>
<path d="M26.9264 89.1931C26.6279 89.1919 26.335 89.113 26.0763 88.9642L19.2519 85.0265C19.169 84.9797 19.0998 84.9119 19.0515 84.8299C19.0031 84.7479 18.9772 84.6546 18.9763 84.5594C18.9776 84.4643 19.0038 84.3712 19.0521 84.2893C19.1004 84.2074 19.1693 84.1395 19.2519 84.0923L26.0716 80.164C26.3305 80.0161 26.6235 79.9384 26.9217 79.9384C27.2199 79.9384 27.5129 80.0161 27.7718 80.164L34.5682 84.0876C34.6515 84.1368 34.7205 84.2068 34.7684 84.2907C34.8164 84.3747 34.8416 84.4697 34.8416 84.5664C34.8416 84.6631 34.8164 84.7582 34.7684 84.8421C34.7205 84.9261 34.6515 84.9961 34.5682 85.0452L27.7625 88.9642C27.5079 89.1107 27.2201 89.1895 26.9264 89.1931ZM19.5509 84.5501L26.3612 88.4737C26.5329 88.5734 26.7279 88.6259 26.9264 88.6259C27.1249 88.6259 27.3199 88.5734 27.4916 88.4737L34.3019 84.5361L27.5056 80.6358C27.3336 80.537 27.1387 80.485 26.9404 80.485C26.7421 80.485 26.5472 80.537 26.3752 80.6358L19.5509 84.5501Z" fill="#86B2FF"/>
<path d="M64.3736 80.6684C64.298 80.6684 64.2255 80.6383 64.1721 80.5849C64.1186 80.5315 64.0886 80.459 64.0886 80.3834V33.1828C64.0886 33.1073 64.1186 33.0348 64.1721 32.9813C64.2255 32.9279 64.298 32.8979 64.3736 32.8979C64.4491 32.8979 64.5216 32.9279 64.575 32.9813C64.6285 33.0348 64.6585 33.1073 64.6585 33.1828V80.3834C64.6573 80.4586 64.6269 80.5304 64.5737 80.5836C64.5205 80.6367 64.4487 80.6672 64.3736 80.6684Z" fill="#86B2FF"/>
<path d="M79.1812 70.9481C79.1056 70.9481 79.0331 70.9181 78.9797 70.8647C78.9263 70.8112 78.8962 70.7387 78.8962 70.6632V23.4859C78.8962 23.4104 78.9263 23.3379 78.9797 23.2844C79.0331 23.231 79.1056 23.201 79.1812 23.201C79.2567 23.201 79.3292 23.231 79.3826 23.2844C79.4361 23.3379 79.4661 23.4104 79.4661 23.4859V70.6632C79.4661 70.7387 79.4361 70.8112 79.3826 70.8647C79.3292 70.9181 79.2567 70.9481 79.1812 70.9481Z" fill="#86B2FF"/>
<path d="M93.9115 52.8219C93.9357 52.832 93.9616 52.8371 93.9878 52.8371C94.0407 52.8371 94.0914 52.8161 94.1288 52.7787C94.1662 52.7413 94.1872 52.6906 94.1872 52.6378V16.3673C94.1872 16.3145 94.1662 16.2637 94.1288 16.2264C94.0914 16.189 94.0407 16.168 93.9878 16.168C93.9616 16.168 93.9357 16.1731 93.9115 16.1831C93.8873 16.1932 93.8653 16.2078 93.8468 16.2264C93.8283 16.2449 93.8136 16.2668 93.8036 16.291C93.7936 16.3152 93.7884 16.3411 93.7884 16.3673V52.6378C93.7884 52.6639 93.7936 52.6899 93.8036 52.7141C93.8136 52.7382 93.8283 52.7602 93.8468 52.7787C93.8653 52.7972 93.8873 52.8119 93.9115 52.8219ZM93.9115 52.8219C93.9115 52.8219 93.9115 52.8219 93.9115 52.8219L93.8788 52.901L93.9115 52.8219Z" fill="#86B2FF" stroke="#141414" stroke-width="0.171124"/>
<path d="M108.795 34.7804C108.758 34.7804 108.721 34.773 108.686 34.7587C108.652 34.7444 108.62 34.7234 108.594 34.6969C108.567 34.6704 108.546 34.639 108.532 34.6045C108.518 34.5699 108.51 34.5328 108.51 34.4954V3.60134C108.51 3.52577 108.54 3.4533 108.594 3.39986C108.647 3.34643 108.72 3.31641 108.795 3.31641C108.871 3.31641 108.943 3.34643 108.997 3.39986C109.05 3.4533 109.08 3.52577 109.08 3.60134V34.4954C109.08 34.571 109.05 34.6435 108.997 34.6969C108.943 34.7503 108.871 34.7804 108.795 34.7804Z" fill="#86B2FF"/>
<path d="M34.5637 84.5455V58.243H19.2615V84.5455C19.2609 84.5936 19.2731 84.6411 19.2969 84.683C19.3207 84.7248 19.3552 84.7596 19.397 84.7837L26.2166 88.7167C26.4297 88.8397 26.6713 88.9044 26.9173 88.9044C27.1633 88.9044 27.4049 88.8397 27.6179 88.7167L34.4096 84.7837C34.4513 84.7596 34.4859 84.7248 34.5097 84.683C34.5335 84.6411 34.5457 84.5936 34.5451 84.5455H34.5637Z" fill="#0962FF"/>
<path d="M97.7045 121.129V121.149L90.8774 125.097C90.877 125.097 90.8767 125.097 90.8763 125.097C90.6979 125.198 90.4965 125.251 90.2916 125.251C90.0867 125.251 89.8852 125.198 89.7068 125.097C89.7064 125.097 89.7061 125.097 89.7058 125.097L82.888 121.16L82.888 121.16L82.8838 121.158C82.8793 121.155 82.8756 121.152 82.8731 121.147C82.8705 121.143 82.8692 121.138 82.8693 121.133L82.8693 121.133V121.129V95.0598H97.7045V121.129ZM82.6358 95.0598V121.129C82.635 121.176 82.6472 121.223 82.6711 121.264C82.6949 121.306 82.7296 121.339 82.7712 121.362L82.6358 95.0598Z" fill="#0962FF" stroke="#141414" stroke-width="0.467101"/>
</g>
<defs>
<clipPath id="clip0_1240_4873">
<rect width="112.548" height="125.776" fill="white" transform="translate(18.9763)"/>
</clipPath>
</defs>
</svg>
