<svg width="167" height="140" viewBox="0 0 167 140" fill="none" xmlns="http://www.w3.org/2000/svg">
<g clip-path="url(#clip0_1240_5184)">
<path opacity="0.75" d="M78.665 138.51L140.917 102.571C144.738 100.365 144.259 96.5119 139.847 93.965L79.7376 59.2608C75.323 56.7115 68.6525 56.4366 64.8316 58.6427L2.57917 94.5818C-1.24169 96.7873 -0.762295 100.641 3.64926 103.187L63.759 137.892C68.1706 140.438 74.8442 140.717 78.665 138.51Z" fill="#141414"/>
<path d="M143.296 79.8315L143.296 79.8318C143.201 81.3637 142.042 83.0027 139.773 84.3172L139.773 84.3174L139.754 84.3283L139.754 84.3286L79.6453 119.033L79.6451 119.033L79.6373 119.038C79.623 119.047 79.608 119.056 79.5927 119.063L79.5924 119.062L79.5806 119.069C78.8734 119.47 78.1321 119.808 77.3655 120.078L77.3653 120.078C75.5973 120.705 73.7426 121.052 71.8677 121.108L71.8675 121.108C69.7322 121.174 67.6601 120.861 65.9727 120.165L65.9722 120.165C65.6098 120.017 65.2575 119.845 64.9176 119.651C64.9174 119.65 64.9173 119.65 64.9171 119.65L2.66537 83.7115L2.66518 83.7114C0.870851 82.6784 0.0928056 81.2928 0.195215 79.8884L0.195693 79.8884V79.8753V61.0093L48.2221 61.0347L48.2705 61.0347L48.3124 61.0105L63.844 52.0444L63.7538 51.8881L63.844 52.0444C66.0218 50.7867 68.7641 50.0865 71.4376 49.9759C74.1129 49.8652 76.6987 50.3456 78.5695 51.4269L78.5696 51.427L79.4836 51.9542L79.4837 51.9542L95.2147 61.0385L95.2566 61.0626L95.3049 61.0626L143.289 61.088V79.3411V79.3413V79.3414V79.3415V79.3416V79.3418V79.3419V79.342V79.3421V79.3423V79.3424V79.3425V79.3426V79.3428V79.3429V79.343V79.3431V79.3433V79.3434V79.3435V79.3437V79.3438V79.3439V79.344V79.3442V79.3443V79.3444V79.3446V79.3447V79.3448V79.3449V79.3451V79.3452V79.3453V79.3455V79.3456V79.3457V79.3459V79.346V79.3461V79.3463V79.3464V79.3465V79.3466V79.3468V79.3469V79.347V79.3472V79.3473V79.3474V79.3476V79.3477V79.3478V79.348V79.3481V79.3482V79.3484V79.3485V79.3486V79.3488V79.3489V79.349V79.3492V79.3493V79.3495V79.3496V79.3497V79.3499V79.35V79.3501V79.3503V79.3504V79.3505V79.3507V79.3508V79.3509V79.3511V79.3512V79.3513V79.3515V79.3516V79.3518V79.3519V79.352V79.3522V79.3523V79.3524V79.3526V79.3527V79.3529V79.353V79.3531V79.3533V79.3534V79.3535V79.3537V79.3538V79.354V79.3541V79.3542V79.3544V79.3545V79.3546V79.3548V79.3549V79.3551V79.3552V79.3553V79.3555V79.3556V79.3557V79.3559V79.356V79.3562V79.3563V79.3564V79.3566V79.3567V79.3568V79.357V79.3571V79.3573V79.3574V79.3575V79.3577V79.3578V79.358V79.3581V79.3582V79.3584V79.3585V79.3587V79.3588V79.3589V79.3591V79.3592V79.3593V79.3595V79.3596V79.3598V79.3599V79.36V79.3602V79.3603V79.3604V79.3606V79.3607V79.3609V79.361V79.3611V79.3613V79.3614V79.3616V79.3617V79.3618V79.362V79.3621V79.3622V79.3624V79.3625V79.3627V79.3628V79.3629V79.3631V79.3632V79.3633V79.3635V79.3636V79.3638V79.3639V79.364V79.3642V79.3643V79.3644V79.3646V79.3647V79.3648V79.365V79.3651V79.3653V79.3654V79.3655V79.3657V79.3658V79.3659V79.3661V79.3662V79.3663V79.3665V79.3666V79.3667V79.3669V79.367V79.3672V79.3673V79.3674V79.3676V79.3677V79.3678V79.368V79.3681V79.3682V79.3684V79.3685V79.3686V79.3688V79.3689V79.369V79.3692V79.3693V79.3694V79.3696V79.3697V79.3698V79.37V79.3701V79.3702V79.3703V79.3705V79.3706V79.3707V79.3709V79.371V79.3711V79.3713V79.3714V79.3715V79.3717V79.3718V79.3719V79.372V79.3722V79.3723V79.3724V79.3726V79.3727V79.3728V79.3729V79.3731V79.3732V79.3733V79.3735V79.3736V79.3737V79.3738V79.374V79.3741V79.3742V79.3743V79.3745V79.3746V79.3747V79.3748V79.375V79.3751V79.3752V79.3753V79.3837L143.289 79.392C143.303 79.5381 143.305 79.6851 143.296 79.8315Z" fill="#0962FF" stroke="#141414" stroke-width="0.360825"/>
<path opacity="0.5" d="M1.6941 60.8301H0.0152813V79.876C-0.0742557 81.1034 0.473536 82.2959 1.6941 83.2697V60.8301Z" fill="#141414"/>
<path d="M140.917 83.8653L139.864 84.4734L139.845 84.4846L79.6696 119.226L78.6648 119.807C78.2676 120.035 77.8535 120.231 77.4262 120.396C75.8095 121.032 73.8714 121.323 71.8736 121.289C71.8326 121.289 71.7903 121.289 71.7493 121.289V49.7915C74.4795 49.8574 77.3105 50.5321 79.5781 51.798C79.6316 51.826 79.687 51.8558 79.7404 51.8882L95.272 60.8543L143.478 60.8288V79.8759C143.585 81.3682 142.753 82.8064 140.917 83.8653Z" fill="#0962FF"/>
<path d="M143.476 79.8759V60.8288H141.903V83.1807C143.049 82.2238 143.563 81.0648 143.476 79.8759Z" fill="#0962FF"/>
<g style="mix-blend-mode:lighten" opacity="0.35">
<path d="M77.0831 97.6994H78.8739V92.7935H64.2961V94.9076H66.2293V120.463C67.8807 121.085 69.8518 121.353 71.872 121.292C73.644 121.238 75.3988 120.928 77.0819 120.371L77.0831 97.6994Z" fill="#0962FF"/>
</g>
<path d="M78.665 101.372L140.917 65.433C144.738 63.2276 144.259 59.3744 139.847 56.8269L79.7376 22.1227C75.323 19.5733 68.6525 19.2991 64.8316 21.5052L2.57917 57.4444C-1.24169 59.6505 -0.762295 63.5036 3.64926 66.0505L63.759 100.755C68.1706 103.302 74.8442 103.578 78.665 101.372Z" fill="white"/>
<path d="M78.6653 100.843L140.918 64.904C144.739 62.6979 144.259 58.8448 139.848 56.2979L79.7379 21.5937C75.3232 19.0443 68.6527 18.7695 64.8318 20.9756L2.57942 56.9147C-1.24145 59.1202 -0.762051 62.9734 3.64951 65.5208L63.7593 100.225C68.1708 102.773 74.8444 103.049 78.6653 100.843Z" fill="#0962FF"/>
<path d="M136.001 64.6179L78.1746 98.0078C74.6255 100.057 68.4263 99.7997 64.3281 97.4338L8.4919 65.1956C5.8089 63.6467 4.69155 61.5774 5.23686 59.7581C5.5235 58.7986 6.27275 57.9089 7.49829 57.2013L65.3242 23.8146C68.8734 21.7627 75.0726 22.022 79.1707 24.3885L135.007 56.6261C136.592 57.5414 137.631 58.6382 138.103 59.7581C138.853 61.5333 138.177 63.3619 136.001 64.6179Z" fill="#86B2FF"/>
<path d="M138.337 61.7622C138.074 60.3862 136.952 58.9903 135.007 57.8673L79.171 25.6297C75.0728 23.2632 68.8736 23.0064 65.3245 25.0558L7.49854 58.4456C6.14678 59.2259 5.3739 60.2289 5.16249 61.3014C4.8715 59.7781 5.63318 58.279 7.49854 57.202L65.3245 23.8153C68.8736 21.7634 75.0728 22.0227 79.171 24.3892L135.007 56.6269C137.544 58.0887 138.681 60.0181 138.337 61.7622Z" fill="#141414"/>
<path d="M123.555 89.0616L97.0654 104.356V96.5877L123.533 81.3067L123.555 89.0616Z" fill="#86B2FF"/>
<path d="M123.555 89.0504L116.838 85.1717L123.533 81.3067L123.555 89.0504Z" fill="#0962FF"/>
<path d="M123.555 89.0504L116.838 85.1717L123.533 81.3067L123.555 89.0504Z" fill="#141414"/>
<path d="M94.6449 101.588C94.6449 102.423 94.0592 103.438 93.3391 103.855C92.6191 104.272 92.0303 103.934 92.0303 103.1C92.0303 102.265 92.6166 101.25 93.3391 100.833C94.0616 100.415 94.6449 100.754 94.6449 101.588Z" fill="#0962FF"/>
<path d="M127.859 82.7734C127.859 83.6078 127.274 84.6232 126.554 85.0404C125.834 85.4576 125.248 85.1194 125.248 84.285C125.248 83.4505 125.834 82.4351 126.554 82.0179C127.274 81.6007 127.859 81.939 127.859 82.7734Z" fill="#0962FF"/>
<path d="M28.0787 85.8767L27.9345 94.1048C27.9346 94.2 27.9282 94.2952 27.9152 94.3896C27.8924 94.5388 27.8336 94.6804 27.744 94.8019C27.6544 94.9235 27.5367 95.0215 27.4008 95.0875C27.265 95.1535 27.1151 95.1855 26.9642 95.1808C26.8132 95.1761 26.6657 95.1348 26.5342 95.0605L9.89528 85.6672C9.41091 85.3874 8.97255 84.9111 8.65171 84.3614C8.32341 83.8018 8.12071 83.1664 8.12257 82.5956V82.2436L8.26683 74.3687C8.26683 73.2421 9.06955 72.7857 10.0513 73.3521L26.3085 82.8032C26.8849 83.1359 27.3966 83.7483 27.72 84.4261C27.9457 84.9049 28.0806 85.4129 28.0787 85.8767Z" fill="#141414"/>
<path d="M12.7365 78.508L13.4683 78.9308L13.4665 79.5737L12.7346 79.1509L12.7365 78.508Z" fill="white"/>
<path d="M16.0176 79.7112L11.6521 77.1905L11.654 76.5482L16.0195 79.0689L16.0176 79.7112Z" fill="white"/>
<path d="M17.048 82.3326L19.154 83.5482L19.1521 84.1912L17.0461 82.9749L17.048 82.3326Z" fill="white"/>
<path d="M14.349 80.7738L16.4544 81.9894L16.4525 82.6323L14.3472 81.4167L14.349 80.7738Z" fill="white"/>
<path d="M14.3529 79.4413L16.4583 80.6569L16.4564 81.2992L14.3511 80.0836L14.3529 79.4413Z" fill="white"/>
<path d="M16.0029 85.0423L11.6367 82.5222L11.6386 81.8793L16.0048 84.4L16.0029 85.0423Z" fill="white"/>
<path d="M17.3217 81.0872L21.6872 83.6079L21.6854 84.2502L17.3198 81.7295L17.3217 81.0872Z" fill="white"/>
<path d="M19.1506 84.8813L19.1487 85.5236L17.0427 84.308L17.0446 83.6651L19.1506 84.8813Z" fill="white"/>
<path d="M16.4431 85.988L16.4412 86.6309L14.3352 85.4147L14.3371 84.7724L16.4431 85.988Z" fill="white"/>
<path d="M11.6376 83.2137L13.743 84.4293L13.7411 85.0722L11.6357 83.8566L11.6376 83.2137Z" fill="white"/>
<path d="M30.9011 91.5543C30.9011 92.1468 31.3171 92.8669 31.8301 93.1628C32.343 93.4588 32.7584 93.2188 32.7584 92.6269C32.7584 92.0349 32.3418 91.3167 31.8301 91.0183C31.3183 90.7198 30.9011 90.9623 30.9011 91.5543Z" fill="#86B2FF"/>
<path d="M33.7856 93.2325C33.7856 93.8244 34.201 94.5445 34.714 94.8404C35.2269 95.1364 35.6423 94.8964 35.6423 94.3045C35.6423 93.7125 35.2269 92.9925 34.714 92.6965C34.201 92.4005 33.7856 92.6406 33.7856 93.2325Z" fill="#141414"/>
<path d="M36.6699 94.9101C36.6699 95.502 37.0859 96.222 37.5982 96.5186C38.1106 96.8152 38.5272 96.5746 38.5272 95.9826C38.5272 95.3907 38.1112 94.67 37.5982 94.3741C37.0853 94.0781 36.6699 94.3181 36.6699 94.9101Z" fill="#0962FF"/>
<path d="M146.44 104.787L146.429 108.829L120.339 123.99L120.351 119.949L146.44 104.787Z" fill="#0962FF"/>
<path d="M120.35 119.949L120.339 123.99L104.674 114.946L104.686 110.906L120.35 119.949Z" fill="#0962FF"/>
<path d="M146.44 104.787L120.35 119.949L104.686 110.905L130.776 95.7432L146.44 104.787Z" fill="#0962FF"/>
<path d="M120.35 119.949L104.686 110.905L130.776 95.7432L120.35 119.949Z" fill="#86B2FF"/>
<path d="M122.582 108.278L121.232 109.058L114.505 105.174L115.855 104.395L122.582 108.278Z" fill="#0962FF"/>
<path d="M117.664 111.173L116.314 111.952L109.588 108.068L110.937 107.289L117.664 111.173Z" fill="#0962FF"/>
<path d="M127.565 105.402L126.215 106.181L119.489 102.298L120.838 101.518L127.565 105.402Z" fill="#0962FF"/>
<path d="M132.548 102.526L131.198 103.305L124.472 99.4211L125.821 98.642L132.548 102.526Z" fill="#0962FF"/>
<path d="M127.41 131.484L166.313 108.875L166.297 114.54L132.623 134.109L129.57 135.883L129.66 136.039L129.57 135.883L127.394 137.148L127.41 131.484Z" fill="#86B2FF" stroke="#141414" stroke-width="0.360825"/>
<path d="M165.716 110.866L165.709 113.293L128.939 134.675L128.946 132.248L165.716 110.866Z" fill="#0962FF"/>
<path d="M103.836 118.081L127.05 131.484L127.033 137.15L103.819 123.747L103.836 118.081Z" fill="#0962FF" stroke="#141414" stroke-width="0.360825"/>
<path d="M105.994 120.265L104.903 119.635V123.485L105.994 124.115V120.265Z" fill="white"/>
<path d="M108.215 121.545L107.124 120.916V124.766L108.215 125.396V121.545Z" fill="white"/>
<path d="M110.436 122.826L109.345 122.196V126.047L110.436 126.676V122.826Z" fill="white"/>
<path opacity="0.5" d="M112.657 124.107L111.566 123.477V127.327L112.657 127.957V124.107Z" fill="white"/>
<path d="M114.877 125.387L113.787 124.758V128.608L114.877 129.238V125.387Z" fill="#86B2FF"/>
<path d="M117.098 126.668L116.008 126.038V129.889L117.098 130.518V126.668Z" fill="#0962FF"/>
<path d="M142.92 95.1589L166.135 108.562L127.23 131.171L104.016 117.768L142.92 95.1589Z" fill="white" stroke="#141414" stroke-width="0.360825"/>
<path d="M128.192 126.199C127.308 125.688 125.879 125.688 125.001 126.199C124.123 126.709 124.127 127.536 125.011 128.047C125.895 128.557 127.324 128.557 128.203 128.047C129.081 127.536 129.076 126.707 128.192 126.199Z" fill="#0962FF"/>
<path d="M126.609 128.117C126.06 128.117 125.547 127.996 125.167 127.776C124.842 127.589 124.656 127.349 124.656 127.117C124.655 126.886 124.838 126.651 125.157 126.466C125.535 126.246 126.045 126.125 126.594 126.125C127.144 126.125 127.655 126.249 128.036 126.466C128.361 126.653 128.547 126.893 128.547 127.125C128.547 127.356 128.365 127.591 128.049 127.776C127.668 127.996 127.158 128.117 126.609 128.117Z" fill="white"/>
<path d="M113.982 114.337C113.171 114.805 113.167 115.565 113.974 116.033L129.848 125.258C130.656 125.727 131.962 125.727 132.776 125.258L155.891 111.915C156.699 111.446 156.706 110.687 155.9 110.218L140.026 100.993C139.218 100.525 137.908 100.525 137.097 100.993L113.982 114.337Z" fill="#86B2FF"/>
<path d="M113.375 115.27C113.468 115.079 113.646 114.897 113.907 114.747L137.019 101.403C137.83 100.935 139.141 100.935 139.948 101.403L155.822 110.628C156.188 110.841 156.387 111.113 156.419 111.392C156.617 110.988 156.444 110.536 155.897 110.218L140.022 100.993C139.214 100.525 137.905 100.525 137.093 100.993L113.982 114.337C113.538 114.593 113.335 114.936 113.375 115.27Z" fill="#0962FF"/>
<path d="M26.0708 89.6224C26.0506 89.5045 26.023 89.388 25.9881 89.2736C25.9519 89.1603 25.9052 89.0506 25.8488 88.9459C25.7891 88.8332 25.7327 88.7347 25.6797 88.6506C25.6162 88.5527 25.5462 88.4593 25.4701 88.3708C25.3835 88.268 25.3097 88.1838 25.2488 88.1183C25.1878 88.0528 25.1064 87.9726 25.0044 87.8777C24.9024 87.7826 24.8229 87.7111 24.7663 87.6613L24.525 87.4512L24.4852 87.417L24.257 87.218C24.2098 87.1763 24.1451 87.1173 24.0643 87.0414C24.0004 86.9838 23.941 86.9214 23.8864 86.8549C23.8485 86.8064 23.8075 86.7504 23.7621 86.6864C23.7214 86.6295 23.6899 86.5665 23.6688 86.4998C23.6517 86.4425 23.6429 86.3831 23.6427 86.3232C23.6427 86.1703 23.707 86.0899 23.8355 86.082C23.9635 86.0739 24.1159 86.1212 24.2937 86.2238C24.4914 86.3371 24.6613 86.493 24.7911 86.6801C24.9184 86.8544 24.9874 87.0644 24.9882 87.2802L25.9707 87.8479C25.972 87.3926 25.861 86.9441 25.6473 86.5421C25.423 86.1176 25.1059 85.7492 24.7196 85.4639V84.9547L23.9269 84.4971V85.0063C23.5289 84.8434 23.218 84.8285 22.9942 84.9615C22.7703 85.0946 22.6572 85.3744 22.6547 85.801C22.6547 85.8594 22.6547 85.9185 22.6609 85.9769C22.6995 86.4922 22.926 86.9859 23.3405 87.458C23.6043 87.7415 23.8866 88.0072 24.1855 88.2533C24.4757 88.4987 24.6711 88.6765 24.7719 88.7868C24.9866 89.0181 25.0937 89.2322 25.0933 89.4291C25.0933 89.6073 25.0191 89.7074 24.8707 89.7294C24.7227 89.7518 24.5499 89.7051 24.3522 89.5913C24.1352 89.4653 23.9488 89.2929 23.8062 89.0864C23.6643 88.893 23.5869 88.6598 23.5849 88.4199L22.5801 87.8441C22.5819 88.336 22.7104 88.8191 22.9531 89.2469C23.2046 89.7026 23.5513 90.0988 23.9698 90.4084V90.9562L24.7563 91.4101V90.8585C25.1605 91.0206 25.4857 91.0335 25.7319 90.8971C25.9781 90.7607 26.1025 90.4627 26.105 90.003C26.1048 89.8754 26.0933 89.748 26.0708 89.6224Z" fill="white"/>
</g>
<path d="M51.3099 52.5431C51.4719 52.5042 51.6359 52.4714 51.8 52.4385C51.9107 52.416 52.0235 52.3914 52.1363 52.3709C52.4685 52.3114 52.8048 52.2663 53.1453 52.2294L53.4631 52.2027C53.6682 52.1863 53.8609 52.172 54.0619 52.1638C54.1911 52.1638 54.3182 52.1638 54.4474 52.1638C54.6094 52.1638 54.7715 52.1638 54.9335 52.1638C55.0955 52.1638 55.2062 52.1638 55.3436 52.1638L55.7927 52.1884C55.9301 52.1884 56.0675 52.2089 56.2028 52.2212C56.3382 52.2335 56.4981 52.2519 56.6458 52.2724C56.7934 52.2929 56.9103 52.3073 57.0436 52.3278C57.1769 52.3483 57.3574 52.3791 57.5132 52.4098C57.6363 52.4317 57.7593 52.4563 57.8823 52.4837C58.069 52.5247 58.2515 52.5718 58.434 52.619L58.7375 52.701C59.0635 52.7954 59.3834 52.9061 59.691 53.023C59.8448 53.0825 59.9925 53.1481 60.1401 53.2137C60.216 53.2465 60.294 53.2773 60.3678 53.3142C60.5934 53.4181 60.8107 53.5309 61.0199 53.6525L72.1715 60.0917C72.514 60.0651 72.8565 60.0466 73.1969 60.0322H73.445C73.888 60.0172 74.3309 60.0172 74.7739 60.0322H74.9461C75.3747 60.0446 75.8013 60.065 76.2257 60.0999H76.2934C76.7241 60.1368 77.1527 60.186 77.5792 60.2435L77.7843 60.2722C78.2108 60.3337 78.6312 60.4075 79.0496 60.4916L79.3633 60.5572C79.4904 60.5832 79.6176 60.6119 79.7447 60.6433L80.1405 60.7397L80.5178 60.8402L80.8665 60.9407C81.0469 60.992 81.2253 61.0494 81.4037 61.1068L81.7072 61.2073C81.9 61.2729 82.0907 61.3447 82.2814 61.4124L82.5091 61.4985C82.8372 61.6277 83.1591 61.7692 83.4729 61.9086L83.678 62.0091C83.9958 62.165 84.3075 62.3249 84.6049 62.4972C85.5939 63.0499 86.4912 63.7527 87.2646 64.5807C87.7968 65.1529 88.2275 65.8117 88.5381 66.5288C88.5955 66.6642 88.6447 66.7995 88.6898 66.939C88.7498 67.1198 88.7991 67.304 88.8375 67.4906V69.7074L97.92 74.9531C97.6876 75.0228 97.4517 75.0864 97.2125 75.1438L96.9541 75.1991C96.7921 75.236 96.6281 75.2689 96.464 75.2996C96.3676 75.3181 96.2692 75.3324 96.1708 75.3488C96.0108 75.3755 95.8468 75.3981 95.6847 75.4186L95.3976 75.4534C95.2069 75.4719 95.0162 75.4883 94.8234 75.5006C94.7558 75.5006 94.6902 75.5129 94.6184 75.5149C94.3641 75.5293 94.1078 75.5354 93.8494 75.5375H93.6197C93.4351 75.5375 93.2506 75.5375 93.066 75.5211L92.7789 75.5047C92.6108 75.4924 92.4406 75.4801 92.2724 75.4616L91.9894 75.4329C91.8069 75.4104 91.6264 75.3837 91.446 75.355C91.3721 75.3427 91.2963 75.3345 91.2225 75.3201C90.9723 75.2771 90.7241 75.2278 90.4801 75.1704C90.4309 75.1704 90.3858 75.1458 90.3365 75.1335C90.1315 75.0863 89.9449 75.033 89.7542 74.9777L89.5204 74.8956C89.3625 74.8444 89.2066 74.7911 89.0508 74.7336C88.9687 74.7049 88.8888 74.6742 88.8067 74.6413C88.6509 74.5798 88.4991 74.5142 88.3494 74.4363C88.2797 74.4055 88.21 74.3768 88.1444 74.344C87.9393 74.2415 87.7219 74.1389 87.5292 74.02L76.3796 67.5829C71.9726 67.9336 67.334 67.1297 63.9339 65.1651C61.5326 63.7809 60.132 62.0358 59.7218 60.2312V57.9754L50.6414 52.7318L50.9777 52.6354C51.0761 52.6026 51.1909 52.5677 51.3099 52.5431Z" fill="#141414"/>
<path d="M61.0159 53.6463C60.8067 53.5247 60.5894 53.4119 60.3638 53.308C60.29 53.2711 60.212 53.2403 60.1362 53.2075C59.9885 53.1419 59.8409 53.0762 59.6871 53.0168C59.3794 52.8958 59.0595 52.7891 58.7335 52.6948L58.43 52.6128C58.2475 52.5656 58.065 52.5185 57.8783 52.4774C57.7553 52.4501 57.6323 52.4255 57.5092 52.4036C57.3534 52.3729 57.1975 52.3462 57.0396 52.3216C56.8817 52.297 56.7751 52.2826 56.6418 52.2662C56.5085 52.2498 56.3465 52.2293 56.1988 52.215C56.0512 52.2006 55.924 52.1903 55.7887 52.1821L55.3396 52.1575C55.2042 52.1575 55.0689 52.1575 54.9295 52.1575C54.79 52.1575 54.6054 52.1575 54.4434 52.1575C54.3142 52.1575 54.1871 52.1575 54.0579 52.1575C53.8528 52.1575 53.6478 52.1801 53.4591 52.1965L53.1412 52.2232C52.8008 52.2601 52.4645 52.3052 52.1323 52.3647C52.0195 52.3852 51.9067 52.4098 51.796 52.4323C51.6319 52.4651 51.4679 52.4979 51.3059 52.5369C51.187 52.5656 51.0721 52.6005 50.9552 52.6312L50.6189 52.7276L48.5477 51.5321C46.6836 50.4555 45.8223 49.02 45.9474 47.6112C45.9474 47.5209 45.9638 47.4328 45.9782 47.3425C45.9925 47.2523 46.0151 47.1867 46.0356 47.1087C46.0582 47.0226 46.0787 46.9365 46.1074 46.8524C46.1361 46.7683 46.1689 46.7027 46.2017 46.6289C46.2407 46.5386 46.2817 46.4484 46.3289 46.3582C46.3912 46.2372 46.4596 46.1195 46.5339 46.0055L46.5524 45.9768C46.5621 45.9609 46.5731 45.9458 46.5852 45.9316C46.6762 45.8041 46.7741 45.6815 46.8784 45.5646V45.5523L46.9338 45.4887C47.0487 45.3629 47.1737 45.2399 47.3091 45.1196C47.3932 45.0457 47.4854 44.9719 47.5777 44.9001L47.7028 44.7997C47.7438 44.7669 47.7849 44.732 47.832 44.6992C47.9284 44.6274 48.0371 44.5597 48.1437 44.4941C48.2504 44.4285 48.3652 44.3444 48.4882 44.2726C48.6543 44.1763 48.8287 44.0881 49.005 44.0019C49.1116 43.9507 49.2101 43.8994 49.3249 43.8502L49.5792 43.7415C49.8048 43.6472 50.0365 43.559 50.2744 43.477L50.5307 43.3888C50.6804 43.3437 50.8342 43.3006 50.988 43.2596C51.1029 43.2288 51.2198 43.194 51.3387 43.1653C51.4986 43.1263 51.6627 43.0935 51.8268 43.0607C51.9395 43.0381 52.0503 43.0135 52.1631 42.993C52.4973 42.9335 52.8337 42.8884 53.1741 42.8515L53.4899 42.8248C53.6949 42.8084 53.9 42.7941 54.0887 42.7859C54.2179 42.7859 54.3471 42.7859 54.4742 42.7756C54.6382 42.7756 54.8003 42.7756 54.9623 42.7756C55.099 42.7756 55.2357 42.7797 55.3724 42.7879C55.5241 42.7879 55.6739 42.8023 55.8236 42.8125C55.9609 42.8125 56.0983 42.8331 56.2337 42.8454C56.369 42.8577 56.529 42.8761 56.6766 42.8966C56.8243 42.9171 56.9432 42.9315 57.0745 42.952C57.2057 42.9725 57.3903 43.0033 57.5461 43.034C57.6692 43.0566 57.7922 43.0812 57.9132 43.1078C58.0998 43.1489 58.2823 43.196 58.4648 43.2432L58.7704 43.3252C59.0971 43.4195 59.4143 43.5269 59.7219 43.6472C59.8757 43.7066 60.0254 43.7723 60.1731 43.8379C60.2489 43.8707 60.3269 43.9015 60.4007 43.9363C60.6242 44.043 60.8416 44.1557 61.0528 44.2767L72.2209 50.6974L72.1716 60.0855L61.0159 53.6463Z" fill="#0962FF"/>
<path d="M88.8413 67.4865L88.8803 60.3091L89.0054 60.3809L100.03 66.738C100.247 66.8631 100.452 66.9943 100.645 67.1297C100.709 67.1748 100.762 67.222 100.821 67.2691C100.944 67.3614 101.068 67.4516 101.176 67.548C101.244 67.6054 101.297 67.6669 101.359 67.7264C101.451 67.8125 101.545 67.8987 101.627 67.9869C101.709 68.075 101.736 68.1222 101.789 68.1919C101.843 68.2617 101.935 68.3601 101.994 68.4483C102.054 68.5364 102.081 68.5918 102.126 68.6533C102.171 68.7149 102.236 68.8235 102.279 68.9097C102.323 68.9958 102.343 69.0573 102.376 69.1311C102.409 69.205 102.456 69.3054 102.485 69.3936C102.513 69.4818 102.523 69.5454 102.544 69.6213C102.565 69.6971 102.593 69.7976 102.61 69.8858C102.626 69.974 102.622 70.0396 102.628 70.1155C102.634 70.1913 102.651 70.2918 102.651 70.38C102.651 71.6924 101.793 73.0028 100.069 74.0056C99.3882 74.3944 98.665 74.7033 97.9136 74.9264L88.8311 69.6807L88.8413 67.4865Z" fill="#0962FF"/>
<path d="M80.5385 63.2429C73.2814 63.2429 67.3983 57.075 67.3983 49.4664C67.3983 41.8579 73.2814 35.69 80.5385 35.69C87.7956 35.69 93.6787 41.8579 93.6787 49.4664C93.6787 57.075 87.7956 63.2429 80.5385 63.2429Z" fill="#0962FF" stroke="#141414" stroke-width="0.324336" stroke-miterlimit="10"/>
<path d="M79.1764 62.192C71.9193 62.192 66.0362 56.0241 66.0362 48.4156C66.0362 40.8071 71.9193 34.6392 79.1764 34.6392C86.4336 34.6392 92.3167 40.8071 92.3167 48.4156C92.3167 56.0241 86.4336 62.192 79.1764 62.192Z" fill="white" stroke="#141414" stroke-width="0.324336" stroke-miterlimit="10"/>
<path d="M73.7244 51.6732H75.8735C75.8735 52.8337 77.3457 53.8224 79.0973 53.8224C80.8488 53.8224 82.321 52.8337 82.321 51.6732C82.321 50.4911 81.2034 50.0613 78.8394 49.4917C76.5613 48.9222 73.7244 48.213 73.7244 45.2256C73.7244 43.3021 75.304 41.6687 77.4854 41.1206V38.778H80.7091V41.1206C82.8905 41.6687 84.4702 43.3021 84.4702 45.2256H82.321C82.321 44.065 80.8488 43.0764 79.0973 43.0764C77.3457 43.0764 75.8735 44.065 75.8735 45.2256C75.8735 46.4077 76.9911 46.8375 79.3552 47.407C81.6333 47.9766 84.4702 48.6858 84.4702 51.6732C84.4702 53.5967 82.8905 55.2301 80.7091 55.7781V58.1208H77.4854V55.7781C75.304 55.2301 73.7244 53.5967 73.7244 51.6732Z" fill="#141414"/>
<ellipse cx="11.1424" cy="17.2414" rx="11.1424" ry="17.2414" transform="matrix(0.870143 0.4928 -0.492797 0.870144 110.499 2.31201)" fill="#0962FF"/>
<path fill-rule="evenodd" clip-rule="evenodd" d="M106.301 11.7922C104.684 13.3639 103.193 15.2811 101.947 17.4825C97.254 25.7682 97.7908 34.9434 103.146 37.976C107.814 40.62 114.603 37.7218 119.377 31.4446L101.214 19.5761L106.301 11.7922Z" fill="#86B2FF"/>
<path d="M117.675 26.6897C115.276 30.9265 112 34.1219 108.656 35.87C105.31 37.6197 101.934 37.9042 99.2824 36.4027C96.6312 34.9012 95.1388 31.8594 94.9183 28.0895C94.6979 24.3231 95.7534 19.8701 98.1529 15.6332C100.552 11.3964 103.828 8.20105 107.172 6.45295C110.518 4.70325 113.895 4.41876 116.546 5.92025C119.197 7.42174 120.689 10.4635 120.91 14.2334C121.13 17.9998 120.075 22.4528 117.675 26.6897Z" fill="white" stroke="#08153D" stroke-width="0.575281"/>
<path d="M115.429 22.8807C115.623 22.5354 115.735 22.1815 115.702 21.8584C115.696 21.5381 115.528 21.2696 115.299 21.0403C115.069 20.8111 114.732 20.6393 114.326 20.5517C115.105 20.4038 115.867 20.0943 116.551 19.6625C117.217 19.2517 117.732 18.734 118.02 18.2385C119.253 16.4476 117.782 15.6563 115.459 15.211L117.466 12.7692L115.555 12.5491L113.6 14.9277C113.105 14.8765 112.581 14.8225 112.058 14.7685L114.03 12.3689L112.12 12.1487L110.113 14.5905C109.7 14.5478 109.287 14.5052 108.901 14.4653L106.275 14.1713L104.977 15.75C104.977 15.75 106.426 15.8768 106.381 15.895C106.647 15.8996 106.87 15.9912 106.976 16.1163C107.065 16.2625 107.065 16.4451 106.947 16.6613L101.418 23.3521C101.366 23.4153 101.286 23.4756 101.207 23.5359C101.127 23.5962 101.02 23.6537 100.903 23.6872C100.813 23.7236 100.696 23.7572 100.596 23.7697C100.496 23.7822 100.414 23.7737 100.304 23.7623C100.314 23.7862 98.899 23.6173 98.899 23.6173L97.0602 25.3456L99.5491 25.6255C100.017 25.6738 100.468 25.7432 100.909 25.7887L98.8846 28.2515L100.795 28.4716L102.802 26.0298C103.308 26.1049 103.804 26.1561 104.327 26.2101L102.337 28.6308L104.248 28.8509L106.272 26.3881C109.626 26.5974 112.386 26.2201 114.582 23.9121C114.896 23.602 115.218 23.247 115.429 22.8807ZM110.65 16.5184C111.724 16.6293 115.329 16.7504 113.893 18.4975C112.509 20.1814 109.284 19.5973 108.183 19.4835L110.65 16.5184ZM104.255 24.2617L106.964 21.0019C108.259 21.1356 112.57 21.3067 110.996 23.2221C109.446 25.0716 105.577 24.3982 104.255 24.2617Z" fill="#141414"/>
<path d="M115.307 30.6312L118.289 32.8192" stroke="#08153D" stroke-width="0.402697"/>
<path d="M114.239 31.8256L117.146 33.9977" stroke="#08153D" stroke-width="0.402697"/>
<defs>
<clipPath id="clip0_1240_5184">
<rect width="166.495" height="120.515" fill="white" transform="translate(-0.000244141 19.4846)"/>
</clipPath>
</defs>
</svg>
