<svg width="174" height="201" viewBox="0 0 174 201" fill="none" xmlns="http://www.w3.org/2000/svg">
<rect x="0.690003" width="88.4389" height="88.4389" rx="9.16259" transform="matrix(0.866025 -0.5 0.866025 0.5 7.31217 156.051)" fill="#141414" stroke="#0962FF" stroke-width="0.796747"/>
<rect x="0.690003" width="88.4389" height="88.4389" rx="9.16259" transform="matrix(0.866025 -0.5 0.866025 0.5 7.31217 147.287)" fill="#86B2FF" stroke="#0962FF" stroke-width="0.796747"/>
<rect opacity="0.5" width="24.953" height="37.0824" rx="12.4765" transform="matrix(0.866025 -0.5 0.866025 0.5 67 132.477)" fill="white"/>
<path d="M12.4214 155.294V146.91C12.4214 147.84 13.2978 150.177 16.8035 152.089C20.3092 154.001 21.4512 154.745 21.584 154.878V163.482L14.4133 159.26C14.0396 158.979 13.3636 158.344 12.8847 157.549C12.4816 156.879 12.4214 156.076 12.4214 155.294Z" fill="#0962FF" stroke="#0962FF" stroke-width="0.796747"/>
<path d="M156.393 146.91V156.073" stroke="#0962FF" stroke-width="0.796747"/>
<path d="M75.7627 186.349V194.715" stroke="#0962FF" stroke-width="0.796747"/>
<path d="M93.291 185.951V194.715" stroke="#0962FF" stroke-width="0.796747"/>
<path d="M151.055 156.111V152.886C151.055 152.886 153.156 151.881 154.242 150.894C155.148 150.071 156.108 148.323 156.476 147.615C156.515 147.54 156.632 147.569 156.632 147.654V154.686C156.632 155.866 156.507 157.095 155.836 158.065C154.979 159.302 153.588 160.036 152.285 160.788L108.031 186.349L148.041 161.528C149.915 160.365 151.055 158.317 151.055 156.111Z" fill="#0962FF" stroke="#0962FF" stroke-width="0.796747"/>
<path d="M27.5593 166.988V158.622L33.9333 162.606V170.573L27.5593 166.988Z" fill="#0962FF" stroke="#0962FF" stroke-width="0.796747"/>
<rect x="0.546905" width="70.0977" height="70.0978" rx="7.26238" transform="matrix(0.866025 -0.5 0.866025 0.5 24.0735 147.585)" fill="#141414" stroke="#0962FF" stroke-width="0.631511"/>
<rect x="0.546905" width="70.0977" height="70.0978" rx="7.26238" transform="matrix(0.866025 -0.5 0.866025 0.5 24.0735 140.638)" fill="#86B2FF" stroke="#0962FF" stroke-width="0.631511"/>
<rect opacity="0.5" width="19.778" height="29.3919" rx="9.88901" transform="matrix(0.866025 -0.5 0.866025 0.5 71.3828 128.899)" fill="white"/>
<path d="M28.123 146.985V140.339C28.123 141.076 28.8177 142.929 31.5964 144.444C34.375 145.96 35.2802 146.549 35.3854 146.655V153.475L29.7018 150.128C29.4057 149.906 28.8699 149.402 28.4902 148.772C28.1707 148.241 28.123 147.604 28.123 146.985Z" fill="#0962FF" stroke="#0962FF" stroke-width="0.631511"/>
<path d="M142.237 140.339V147.602" stroke="#0962FF" stroke-width="0.631511"/>
<path d="M78.3281 171.599V178.23" stroke="#0962FF" stroke-width="0.631511"/>
<path d="M92.2212 171.283V178.23" stroke="#0962FF" stroke-width="0.631511"/>
<path d="M138.006 147.633V145.076C138.006 145.076 139.671 144.279 140.532 143.497C141.25 142.845 142.011 141.459 142.303 140.898C142.334 140.839 142.426 140.862 142.426 140.929V146.503C142.426 147.438 142.327 148.412 141.795 149.181C141.116 150.161 140.014 150.743 138.981 151.339L103.904 171.599L135.617 151.926C137.102 151.004 138.006 149.38 138.006 147.633Z" fill="#0962FF" stroke="#0962FF" stroke-width="0.631511"/>
<path d="M40.1218 156.254V149.623L45.1739 152.78V159.095L40.1218 156.254Z" fill="#0962FF" stroke="#0962FF" stroke-width="0.631511"/>
<rect x="0.436533" width="55.9512" height="55.9512" rx="5.79674" transform="matrix(0.866025 -0.5 0.866025 0.5 36.4201 140.991)" fill="#141414" stroke="#0962FF" stroke-width="0.504065"/>
<rect x="0.436533" width="55.9512" height="55.9512" rx="5.79674" transform="matrix(0.866025 -0.5 0.866025 0.5 36.4201 135.446)" fill="#86B2FF" stroke="#0962FF" stroke-width="0.504065"/>
<rect opacity="0.5" width="15.7866" height="23.4603" rx="7.89329" transform="matrix(0.866025 -0.5 0.866025 0.5 74.1821 126.076)" fill="white"/>
<path d="M39.6526 140.512V135.208C39.6526 135.796 40.2071 137.274 42.4249 138.484C44.6428 139.694 45.3653 140.164 45.4493 140.248V145.692L40.9127 143.021C40.6764 142.843 40.2487 142.441 39.9457 141.938C39.6907 141.514 39.6526 141.006 39.6526 140.512Z" fill="#0962FF" stroke="#0962FF" stroke-width="0.504065"/>
<path d="M130.737 135.208V141.004" stroke="#0962FF" stroke-width="0.504065"/>
<path d="M79.7258 160.159V165.451" stroke="#0962FF" stroke-width="0.504065"/>
<path d="M90.8149 159.907V165.451" stroke="#0962FF" stroke-width="0.504065"/>
<path d="M127.36 141.029V138.988C127.36 138.988 128.689 138.352 129.376 137.728C129.949 137.207 130.557 136.101 130.79 135.654C130.814 135.606 130.888 135.624 130.888 135.678V140.127C130.888 140.873 130.809 141.651 130.384 142.265C129.842 143.047 128.962 143.512 128.138 143.988L100.14 160.159L125.453 144.456C126.639 143.72 127.36 142.424 127.36 141.029Z" fill="#0962FF" stroke="#0962FF" stroke-width="0.504065"/>
<path d="M49.2297 147.91V142.617L53.2623 145.138V150.178L49.2297 147.91Z" fill="#0962FF" stroke="#0962FF" stroke-width="0.504065"/>
<path d="M32.9057 83.8856C41.4138 83.8856 48.3111 76.6545 48.3111 67.7345C48.3111 58.8145 41.4138 51.5834 32.9057 51.5834C24.3975 51.5834 17.5002 58.8145 17.5002 67.7345C17.5002 76.6545 24.3975 83.8856 32.9057 83.8856Z" fill="#0962FF" stroke="#141414" stroke-width="0.178504" stroke-miterlimit="10"/>
<path d="M34.5026 82.6536C43.0108 82.6536 49.908 75.4225 49.908 66.5025C49.908 57.5825 43.0108 50.3514 34.5026 50.3514C25.9944 50.3514 19.0972 57.5825 19.0972 66.5025C19.0972 75.4225 25.9944 82.6536 34.5026 82.6536Z" fill="white" stroke="#141414" stroke-width="0.20585" stroke-miterlimit="10"/>
<path d="M28.2954 70.3227H30.8151C30.8151 71.6833 32.541 72.8424 34.5945 72.8424C36.6481 72.8424 38.374 71.6833 38.374 70.3227C38.374 68.9369 37.0638 68.433 34.2922 67.7652C31.6213 67.0975 28.2954 66.2661 28.2954 62.7637C28.2954 60.5086 30.1474 58.5937 32.7048 57.9512V55.2048H36.4843V57.9512C39.0417 58.5937 40.8937 60.5086 40.8937 62.7637H38.374C38.374 61.4031 36.6481 60.2441 34.5945 60.2441C32.541 60.2441 30.8151 61.4031 30.8151 62.7637C30.8151 64.1495 32.1253 64.6535 34.8969 65.3212C37.5677 65.9889 40.8937 66.8204 40.8937 70.3227C40.8937 72.5778 39.0417 74.4927 36.4843 75.1352V77.8817H32.7048V75.1352C30.1474 74.4927 28.2954 72.5778 28.2954 70.3227Z" fill="#141414"/>
<mask id="mask0_1240_4758" style="mask-type:luminance" maskUnits="userSpaceOnUse" x="140" y="46" width="34" height="39">
<path d="M172.757 84.498L173.5 49.1892L141.211 46.8172L140.5 82.1599L172.757 84.498Z" fill="white"/>
</mask>
<g mask="url(#mask0_1240_4758)">
<mask id="mask1_1240_4758" style="mask-type:luminance" maskUnits="userSpaceOnUse" x="143" y="47" width="30" height="36">
<path d="M143.602 60.1005C143.085 69.148 149.194 78.7376 157.242 81.5501C165.322 84.3287 172.271 79.2459 172.788 70.1984C173.305 61.151 167.197 51.5613 159.149 48.7488C151.068 45.9702 144.119 51.0531 143.602 60.1005Z" fill="white"/>
</mask>
<g mask="url(#mask1_1240_4758)">
<mask id="mask2_1240_4758" style="mask-type:luminance" maskUnits="userSpaceOnUse" x="149" y="48" width="24" height="34">
<path d="M155.69 48.1725C156.822 48.2403 157.953 48.4775 159.116 48.8841C167.1 51.6288 173.176 61.1846 172.659 70.1643C172.4 74.705 170.526 78.3307 167.423 80.4316C167.1 80.6349 166.809 80.8383 166.486 81.0077C168.716 79.0084 170.332 75.7554 170.493 70.7742C170.558 58.3043 161.411 49.9346 152.911 49.2907C151.844 49.223 150.713 49.2568 149.646 49.494C151.456 48.4436 153.525 48.0031 155.69 48.1725Z" fill="white"/>
</mask>
<g mask="url(#mask2_1240_4758)">
<mask id="mask3_1240_4758" style="mask-type:luminance" maskUnits="userSpaceOnUse" x="148" y="47" width="26" height="35">
<path d="M148.903 79.788L172.821 81.55L173.499 49.3926L149.582 47.6305L148.903 79.788Z" fill="white"/>
</mask>
<g mask="url(#mask3_1240_4758)">
<rect width="24.6675" height="33.9127" transform="matrix(-1 0 0 1 173.499 47.6412)" fill="#0962FF"/>
</g>
</g>
</g>
<path d="M155.69 47.8678C156.822 47.9355 158.018 48.2066 159.181 48.6132C167.294 51.4257 173.467 61.0832 172.95 70.1984C172.691 74.8068 170.784 78.5342 167.585 80.669C166.938 81.1096 166.227 81.4823 165.516 81.7534C165.839 81.5162 166.163 81.279 166.486 81.0079C166.809 80.8385 167.132 80.6352 167.423 80.4319C170.526 78.3309 172.401 74.7052 172.659 70.1645C173.176 61.1848 167.1 51.6291 159.116 48.8843C157.953 48.4777 156.822 48.2405 155.69 48.1727C153.525 48.0033 151.456 48.4438 149.646 49.4604C149.355 49.5282 149.032 49.5959 148.741 49.6637C148.774 49.6637 148.774 49.6298 148.806 49.6298C150.81 48.2744 153.169 47.6983 155.69 47.8678Z" fill="#141414"/>
<path d="M149.841 66.1661L156.079 78.4666L162.802 70.0968L156.208 72.4688L149.841 66.1661ZM162.834 68.6736L156.661 54.5433L149.873 64.7429L156.24 71.0456L162.834 68.6736ZM152.879 49.596C161.25 50.206 170.235 58.4402 170.171 70.7068C169.815 80.4658 163.9 83.5494 158.503 83.1428C150.132 82.5329 141.146 74.2648 141.243 62.0321C141.567 52.2391 147.481 49.1894 152.879 49.596Z" fill="white"/>
<path d="M158.503 83.1428C163.9 83.5494 169.815 80.4658 170.171 70.7067C170.235 58.4401 161.25 50.2059 152.879 49.596C147.481 49.1894 141.566 52.2729 141.211 62.032C141.146 74.2647 150.131 82.5328 158.503 83.1428ZM152.911 49.2571C161.412 49.8671 170.558 58.2707 170.494 70.7406C170.3 75.7218 168.716 79.0087 166.486 80.9741C166.163 81.2452 165.84 81.4824 165.516 81.7196C163.415 83.1428 160.927 83.6172 158.503 83.4477C150.002 82.8378 140.855 74.4341 140.92 61.9642C141.178 54.4416 144.669 50.8159 148.774 49.6299C149.065 49.5282 149.356 49.4604 149.679 49.4266C150.713 49.2232 151.812 49.1894 152.911 49.2571Z" fill="#141414"/>
<path d="M156.66 54.5433C156.596 56.712 156.531 60.1005 156.434 63.3874L149.873 64.7767L156.66 54.5433Z" fill="#343434"/>
<path d="M156.66 54.5433L162.833 68.6736L156.434 63.3874C156.499 60.1005 156.596 56.712 156.66 54.5433Z" fill="#8C8C8C"/>
<path d="M149.84 66.1661L156.208 72.435L156.046 78.4327L149.84 66.1661Z" fill="#3C3C3B"/>
<path d="M162.801 70.063L156.046 78.4327L156.208 72.435L162.801 70.063Z" fill="#8C8C8C"/>
<path d="M156.434 63.3875L156.24 71.0457L149.873 64.7768L156.434 63.3875Z" fill="#141414"/>
<path d="M156.434 63.3875L162.833 68.6737L156.24 71.0457L156.434 63.3875Z" fill="#393939"/>
</g>
<mask id="mask4_1240_4758" style="mask-type:luminance" maskUnits="userSpaceOnUse" x="59" y="0" width="33" height="38">
<path d="M60.3109 37.0002L59.5942 2.96239L90.7208 0.675781L91.4062 34.7462L60.3109 37.0002Z" fill="white"/>
</mask>
<g mask="url(#mask4_1240_4758)">
<mask id="mask5_1240_4758" style="mask-type:luminance" maskUnits="userSpaceOnUse" x="60" y="1" width="29" height="34">
<path d="M88.4156 13.481C88.9141 22.2028 83.0253 31.4472 75.267 34.1585C67.4776 36.8371 60.7787 31.9372 60.2802 23.2154C59.7817 14.4936 65.6705 5.24922 73.4287 2.53795C81.2182 -0.140645 87.9171 4.75923 88.4156 13.481Z" fill="white"/>
</mask>
<g mask="url(#mask5_1240_4758)">
<mask id="mask6_1240_4758" style="mask-type:luminance" maskUnits="userSpaceOnUse" x="60" y="1" width="23" height="33">
<path d="M76.7621 1.98239C75.6716 2.04772 74.5811 2.27639 73.4594 2.66838C65.7635 5.31431 59.9058 14.5261 60.4044 23.1825C60.6536 27.5597 62.4608 31.055 65.4519 33.0803C65.7635 33.2763 66.0439 33.4722 66.3555 33.6356C64.2056 31.7083 62.6477 28.5724 62.4919 23.7705C62.4296 11.7495 71.2472 3.68102 79.4417 3.06036C80.4699 2.99503 81.5604 3.0277 82.5886 3.25636C80.8438 2.24372 78.8497 1.81906 76.7621 1.98239Z" fill="white"/>
</mask>
<g mask="url(#mask6_1240_4758)">
<mask id="mask7_1240_4758" style="mask-type:luminance" maskUnits="userSpaceOnUse" x="59" y="1" width="25" height="34">
<path d="M83.3055 32.4598L60.2488 34.1584L59.5945 3.15853L82.6512 1.4599L83.3055 32.4598Z" fill="white"/>
</mask>
<g mask="url(#mask7_1240_4758)">
<rect x="59.5945" y="1.47021" width="23.7796" height="32.692" fill="#0962FF"/>
</g>
</g>
</g>
<mask id="path-50-inside-1_1240_4758" fill="white">
<path d="M76.7621 1.68844C75.6716 1.75377 74.5188 2.01509 73.3971 2.40708C65.5765 5.11835 59.6254 14.4281 60.1239 23.2152C60.3732 27.6578 62.2115 31.251 65.2961 33.309C65.9192 33.7336 66.6047 34.0929 67.2902 34.3543C66.9786 34.1256 66.667 33.8969 66.3554 33.6356C66.0439 33.4723 65.7323 33.2763 65.4519 33.0803C62.4607 31.055 60.6536 27.5598 60.4043 23.1825C59.9058 14.5261 65.7634 5.31434 73.4594 2.66841C74.5811 2.27642 75.6716 2.04776 76.7621 1.98243C78.8497 1.8191 80.8438 2.24375 82.5886 3.22373C82.869 3.28906 83.1806 3.35439 83.461 3.41972C83.4299 3.41972 83.4299 3.38706 83.3987 3.38706C81.4669 2.08043 79.1924 1.52511 76.7621 1.68844Z"/>
</mask>
<path d="M76.7621 1.68844L76.7935 2.2126L76.7973 2.21235L76.7621 1.68844ZM73.3971 2.40708L73.5691 2.90321L73.5703 2.90278L73.3971 2.40708ZM60.1239 23.2152L60.6482 23.1858L60.6481 23.1855L60.1239 23.2152ZM65.2961 33.309L65.5918 32.875L65.5875 32.8722L65.2961 33.309ZM67.2902 34.3543L67.1031 34.8449L67.6008 33.9309L67.2902 34.3543ZM66.3554 33.6356L66.6929 33.2333L66.6494 33.1969L66.5992 33.1705L66.3554 33.6356ZM65.4519 33.0803L65.7527 32.6499L65.7463 32.6455L65.4519 33.0803ZM60.4043 23.1825L60.9286 23.1527L60.9285 23.1524L60.4043 23.1825ZM73.4594 2.66841L73.6301 3.16498L73.6326 3.1641L73.4594 2.66841ZM76.7621 1.98243L76.7935 2.50666L76.8031 2.50592L76.7621 1.98243ZM82.5886 3.22373L82.3315 3.68155L82.3966 3.71816L82.4695 3.73512L82.5886 3.22373ZM83.461 3.41972V3.94481L83.5802 2.90833L83.461 3.41972ZM83.3987 3.38706L83.1045 3.822L83.2378 3.91215H83.3987V3.38706ZM76.7307 1.16429C75.5814 1.23314 74.3803 1.50726 73.2238 1.91139L73.5703 2.90278C74.6572 2.52293 75.7617 2.2744 76.7935 2.21259L76.7307 1.16429ZM73.2251 1.91096C69.1815 3.31281 65.6513 6.407 63.1982 10.2502C60.7443 14.0947 59.3433 18.7267 59.5996 23.245L60.6481 23.1855C60.406 18.9167 61.7313 14.5002 64.0834 10.8152C66.4364 7.12894 69.7921 4.21263 73.5691 2.90321L73.2251 1.91096ZM59.5996 23.2446C59.856 27.8145 61.7542 31.5772 65.0047 33.7458L65.5875 32.8722C62.6687 30.9248 60.8903 27.501 60.6482 23.1858L59.5996 23.2446ZM65.0004 33.7429C65.6565 34.19 66.3783 34.5686 67.1031 34.8449L67.4772 33.8636C66.8311 33.6173 66.182 33.2773 65.5918 32.875L65.0004 33.7429ZM67.6008 33.9309C67.2875 33.701 66.9894 33.482 66.6929 33.2333L66.018 34.0379C66.3446 34.3119 66.6697 34.5502 66.9795 34.7776L67.6008 33.9309ZM66.5992 33.1705C66.3117 33.0198 66.0193 32.8363 65.7527 32.6499L65.1511 33.5107C65.4453 33.7163 65.7761 33.9248 66.1116 34.1007L66.5992 33.1705ZM65.7463 32.6455C62.9174 30.7301 61.1705 27.4016 60.9286 23.1527L59.8801 23.2124C60.1366 27.7179 62.0041 31.38 65.1575 33.5151L65.7463 32.6455ZM60.9285 23.1524C60.6865 18.9488 61.9886 14.5894 64.3019 10.9534C66.6162 7.31599 69.917 4.44157 73.6301 3.16497L73.2887 2.17185C69.3058 3.54119 65.8298 6.59561 63.4159 10.3897C61.0011 14.1851 59.6237 18.7599 59.8801 23.2127L60.9285 23.1524ZM73.6326 3.1641C74.7135 2.78637 75.7563 2.56871 76.7935 2.50658L76.7307 1.45828C75.5868 1.5268 74.4486 1.76648 73.2862 2.17272L73.6326 3.1641ZM76.8031 2.50592C78.7921 2.3503 80.6817 2.75496 82.3315 3.68155L82.8457 2.76591C81.0059 1.73255 78.9073 1.2879 76.7212 1.45894L76.8031 2.50592ZM82.4695 3.73512C82.6132 3.76861 82.7642 3.80195 82.9116 3.83448C83.0602 3.86728 83.2052 3.89927 83.3419 3.93112L83.5802 2.90833C83.4364 2.87484 83.2854 2.84151 83.138 2.80898C82.9894 2.77618 82.8444 2.74418 82.7077 2.71234L82.4695 3.73512ZM83.461 2.89463C83.504 2.89463 83.5506 2.9004 83.5986 2.91448C83.6467 2.9286 83.688 2.94867 83.7221 2.97014C83.7551 2.99088 83.7788 3.01132 83.7924 3.02392C83.8044 3.03502 83.8137 3.045 83.8098 3.04096C83.8098 3.04091 83.7966 3.02685 83.7805 3.01193C83.7627 2.9955 83.7346 2.97149 83.6968 2.94769C83.6578 2.92315 83.6111 2.90053 83.5569 2.88463C83.5029 2.86876 83.4494 2.86197 83.3987 2.86197V3.91215C83.3558 3.91215 83.3091 3.90638 83.2612 3.8923C83.2131 3.87818 83.1718 3.85811 83.1376 3.83664C83.1047 3.8159 83.081 3.79546 83.0673 3.78286C83.0553 3.77176 83.0461 3.76179 83.0499 3.76582C83.0499 3.76587 83.0631 3.77993 83.0793 3.79485C83.097 3.81128 83.1251 3.83529 83.1629 3.85909C83.2019 3.88363 83.2486 3.90625 83.3028 3.92215C83.3568 3.93802 83.4103 3.94481 83.461 3.94481V2.89463ZM83.6929 2.95212C81.6547 1.57348 79.2617 0.994177 76.7269 1.16453L76.7973 2.21235C79.1231 2.05604 81.2792 2.58737 83.1045 3.822L83.6929 2.95212Z" fill="#141414" mask="url(#path-50-inside-1_1240_4758)"/>
<path d="M82.401 19.3282L76.3876 31.1859L69.9068 23.1174L76.2629 25.404L82.401 19.3282ZM69.8756 21.7454L75.8267 8.1238L82.3699 17.9562L76.2318 24.0321L69.8756 21.7454ZM79.4722 3.35459C71.4023 3.94257 62.7405 11.8804 62.8028 23.7054C63.1456 33.1132 68.8474 36.0858 74.0508 35.6938C82.1206 35.1058 90.7824 27.1353 90.689 15.3429C90.3774 5.90252 84.6755 2.9626 79.4722 3.35459Z" fill="white"/>
<path d="M74.051 35.6938C68.8477 36.0858 63.1459 33.1132 62.8031 23.7054C62.7408 11.8804 71.4026 3.9426 79.4725 3.35461C84.6758 2.96262 90.3777 5.93521 90.7204 15.343C90.7827 27.1353 82.1209 35.1058 74.051 35.6938ZM79.4413 3.02795C71.2469 3.61594 62.4292 11.7171 62.4915 23.7381C62.6785 28.54 64.2052 31.7085 66.3551 33.6032C66.6667 33.8645 66.9782 34.0931 67.2898 34.3218C69.3151 35.6938 71.7142 36.1511 74.051 35.9878C82.2455 35.3998 91.0631 27.2987 91.0008 15.2776C90.7516 8.02582 87.3865 4.53058 83.4295 3.38728C83.1491 3.28928 82.8687 3.22395 82.5571 3.19128C81.56 2.99529 80.5007 2.96262 79.4413 3.02795Z" fill="#141414"/>
</g>
<ellipse cx="76.922" cy="19.8415" rx="10.5018" ry="13.3898" fill="white"/>
<path d="M81.4862 24.9778C81.4862 24.9778 82.0312 23.2647 81.9671 20.652C81.9154 18.5428 80.7805 18.3541 79.8952 18.5226C79.5215 18.5937 79.1248 18.8013 78.7307 19.038C78.0015 19.4761 76.6379 20.2846 74.513 21.4596C71.4994 23.1259 71.127 20.7464 71.1467 19.447L71.1467 15.3989L81.4862 9.42936M81.4862 24.9778L71.7078 30.6233L76.597 20.0264L81.4862 9.42936M81.4862 24.9778L85.7342 14.981L81.4862 9.42936" stroke="#141414" stroke-width="1.851"/>
<rect width="2.7765" height="0.555301" transform="matrix(0.866025 -0.5 2.20305e-08 1 75.9551 19.1754)" fill="white"/>
<rect width="7" height="7" transform="translate(13 85.8378)" fill="#86B2FF"/>
<rect width="7" height="7" transform="translate(141 92.1049)" fill="#86B2FF"/>
<rect width="10" height="10" transform="translate(130.5 100.351)" fill="#86B2FF"/>
<rect width="33" height="10" transform="translate(127 27.1049)" fill="#0962FF"/>
<rect width="14" height="14" transform="translate(64.5 157.351)" fill="#0962FF"/>
<rect width="10" height="10" transform="translate(0.5 92.3514)" fill="#0962FF"/>
<path d="M92.2755 128.885C107.706 128.885 120.215 115.771 120.215 99.5939C120.215 83.4167 107.706 70.3025 92.2755 70.3025C76.8452 70.3025 64.3364 83.4167 64.3364 99.5939C64.3364 115.771 76.8452 128.885 92.2755 128.885Z" fill="#0962FF" stroke="#141414" stroke-width="0.323732" stroke-miterlimit="10"/>
<path d="M87.4391 127.934C102.869 127.934 115.378 114.82 115.378 98.6428C115.378 82.4656 102.869 69.3514 87.4391 69.3514C72.0088 69.3514 59.5 82.4656 59.5 98.6428C59.5 114.82 72.0088 127.934 87.4391 127.934Z" fill="white" stroke="#141414" stroke-width="0.373328" stroke-miterlimit="10"/>
<path d="M97.9518 101.684C97.8322 101.016 97.593 100.347 97.1943 99.7617C96.8355 99.1766 96.3172 98.7168 95.7591 98.3406C95.2009 97.9644 94.563 97.7137 93.9252 97.6301C94.8022 97.2121 95.48 96.5015 95.9185 95.582C96.3571 94.7043 96.4767 93.6593 96.3172 92.698C95.9983 89.187 93.1677 88.0167 89.5796 87.6406V82.7921L86.7889 82.7503V87.4734C86.0713 87.4734 85.3138 87.4734 84.5563 87.4734V82.7085L81.7656 82.6667V87.5152C81.1676 87.5152 80.5696 87.5152 80.0114 87.5152L76.1842 87.4734V90.6081C76.1842 90.6081 78.2573 90.5663 78.2174 90.6081C78.5762 90.5663 78.9749 90.6917 79.2539 90.9007C79.533 91.1515 79.7323 91.4859 79.8121 91.9039L79.7722 105.195C79.7722 105.321 79.7324 105.446 79.6925 105.572C79.6526 105.697 79.5729 105.822 79.4533 105.906C79.3735 105.989 79.2539 106.073 79.1343 106.115C79.0147 106.157 78.8951 106.157 78.7357 106.157C78.7755 106.198 76.7024 106.157 76.7024 106.157L76.1443 109.668L79.7722 109.709C80.45 109.709 81.1277 109.751 81.7656 109.751V114.642L84.5563 114.683V109.835C85.3138 109.877 86.0314 109.877 86.7889 109.877V114.683L89.5796 114.725V109.835C94.284 109.584 97.5531 108.372 97.9518 103.732C98.0315 103.105 98.0714 102.395 97.9518 101.684ZM84.5962 90.9425C86.151 90.9425 91.0946 90.4828 91.0946 93.9519C91.0946 97.2957 86.151 96.8359 84.5563 96.8359L84.5962 90.9425ZM84.5563 106.324L84.5962 99.8453C86.4699 99.8453 92.4102 99.3437 92.4102 103.147C92.3703 106.825 86.47 106.324 84.5563 106.324Z" fill="#343434"/>
</svg>
