<svg width="131" height="160" viewBox="0 0 131 160" fill="none" xmlns="http://www.w3.org/2000/svg">
<rect x="0.581055" width="74.4749" height="74.4749" rx="7.71587" transform="matrix(0.866025 -0.5 0.866025 0.5 0.332485 122.718)" fill="#141414" stroke="#0962FF" stroke-width="0.670945"/>
<rect x="0.581055" width="74.4749" height="74.4749" rx="7.71587" transform="matrix(0.866025 -0.5 0.866025 0.5 0.332485 115.337)" fill="#86B2FF" stroke="#0962FF" stroke-width="0.670945"/>
<rect opacity="0.3" width="33.9298" height="75.1458" rx="8.05134" transform="matrix(0.866025 -0.5 0.866025 0.5 22.1499 102.405)" fill="#060606"/>
<rect opacity="0.3" width="12.0614" height="35.557" rx="3.36842" transform="matrix(0.866025 -0.5 0.866025 0.5 32.8586 114.793)" fill="#060606"/>
<path d="M4.63501 122.08V115.02C4.63501 115.802 5.37305 117.771 8.32521 119.381C11.2774 120.991 12.2391 121.617 12.3509 121.729V128.975L6.31237 125.419C5.99771 125.183 5.42848 124.649 5.02514 123.978C4.68568 123.414 4.63501 122.738 4.63501 122.08Z" fill="#0962FF" stroke="#0962FF" stroke-width="0.670945"/>
<path d="M125.875 115.02V122.736" stroke="#0962FF" stroke-width="0.670945"/>
<path d="M57.9751 148.232V155.276" stroke="#0962FF" stroke-width="0.670945"/>
<path d="M72.7358 147.896V155.276" stroke="#0962FF" stroke-width="0.670945"/>
<path d="M121.379 122.768V120.052C121.379 120.052 123.148 119.206 124.063 118.374C124.826 117.681 125.635 116.209 125.945 115.614C125.977 115.55 126.076 115.575 126.076 115.646V121.568C126.076 122.561 125.97 123.596 125.405 124.413C124.684 125.455 123.512 126.073 122.415 126.707L85.1482 148.232L118.841 127.329C120.419 126.35 121.379 124.625 121.379 122.768Z" fill="#0962FF" stroke="#0962FF" stroke-width="0.670945"/>
<path d="M17.3831 131.928V124.883L22.7506 128.237V134.947L17.3831 131.928Z" fill="#0962FF" stroke="#0962FF" stroke-width="0.670945"/>
<mask id="path-11-outside-1_1240_5267" maskUnits="userSpaceOnUse" x="23.2345" y="-2.99988" width="93.5307" height="117" fill="black">
<rect fill="white" x="23.2345" y="-2.99988" width="93.5307" height="117"/>
<path fill-rule="evenodd" clip-rule="evenodd" d="M39.2932 66.9558L38.0351 66.2295C30.7748 62.0377 24.9666 51.9775 24.9666 43.594C24.9666 36.3479 29.3057 32.8596 35.1712 34.7532C35.752 25.4826 42.6308 21.9355 51.1042 26.8276C53.1031 27.9817 55.0133 29.5029 56.773 31.2844C60.486 25.6216 67.8117 24.7368 75.7887 29.3423C85.5555 34.9812 94.2497 47.7411 96.8475 59.9615C97.087 60.0883 97.3277 60.2215 97.5695 60.3612C107.153 65.8943 114.994 79.4756 114.994 90.5418C114.994 101.608 107.153 106.135 97.5695 100.602L39.2932 66.9562L39.2932 66.9558Z"/>
</mask>
<path fill-rule="evenodd" clip-rule="evenodd" d="M39.2932 66.9558L38.0351 66.2295C30.7748 62.0377 24.9666 51.9775 24.9666 43.594C24.9666 36.3479 29.3057 32.8596 35.1712 34.7532C35.752 25.4826 42.6308 21.9355 51.1042 26.8276C53.1031 27.9817 55.0133 29.5029 56.773 31.2844C60.486 25.6216 67.8117 24.7368 75.7887 29.3423C85.5555 34.9812 94.2497 47.7411 96.8475 59.9615C97.087 60.0883 97.3277 60.2215 97.5695 60.3612C107.153 65.8943 114.994 79.4756 114.994 90.5418C114.994 101.608 107.153 106.135 97.5695 100.602L39.2932 66.9562L39.2932 66.9558Z" fill="#86B2FF"/>
<path d="M39.2932 66.9558L40.4936 67.6488L40.4936 66.2628L39.2932 65.5697L39.2932 66.9558ZM38.0351 66.2295L38.0351 67.6155L38.0351 66.2295ZM35.1712 34.7532L35.4296 36.2559L36.3061 36.5389L36.3686 35.5411L35.1712 34.7532ZM56.773 31.2844L56.3497 32.3371L57.3239 33.3234L57.8251 32.5591L56.773 31.2844ZM96.8475 59.9615L95.6915 59.6675L95.9475 60.872L96.897 61.375L96.8475 59.9615ZM97.5695 100.602L97.5695 101.988L97.5695 100.602ZM39.2932 66.9562L38.0928 66.2632L38.0928 67.6492L39.2932 68.3423L39.2932 66.9562ZM39.2932 65.5697L38.0351 64.8434L38.0351 67.6155L39.2932 68.3419L39.2932 65.5697ZM38.0351 64.8434C31.4378 61.0344 26.1669 51.9051 26.1669 44.2871L23.7662 42.901C23.7662 52.05 30.1119 63.041 38.0351 67.6155L38.0351 64.8434ZM26.1669 44.2871C26.1669 37.701 30.1061 34.5374 35.4296 36.2559L34.9128 33.2504C28.5053 31.1819 23.7662 34.9947 23.7662 42.901L26.1669 44.2871ZM36.3686 35.5411C36.9058 26.9676 43.2647 23.6875 51.1042 28.2137L51.1042 25.4415C41.9969 20.1834 34.5982 23.9976 33.9737 33.9653L36.3686 35.5411ZM51.1042 28.2137C52.957 29.2834 54.7239 30.6911 56.3497 32.3371L57.1962 30.2317C55.3026 28.3147 53.2492 26.6799 51.1042 25.4415L51.1042 28.2137ZM57.8251 32.5591C61.3281 27.2166 68.2515 26.3768 75.7887 30.7284L75.7887 27.9563C67.372 23.0968 59.6439 24.0266 55.7208 30.0097L57.8251 32.5591ZM75.7887 30.7284C85.012 36.0534 93.2374 48.1231 95.6915 59.6675L98.0034 60.2554C95.262 47.3591 86.099 33.9089 75.7887 27.9563L75.7887 30.7284ZM96.897 61.375C97.12 61.4931 97.3442 61.6172 97.5695 61.7472L97.5695 58.9751C97.3111 58.8259 97.0539 58.6836 96.798 58.548L96.897 61.375ZM97.5695 61.7472C106.49 66.8976 113.794 79.548 113.794 89.8488L116.195 91.2348C116.195 79.4031 107.816 64.8909 97.5695 58.9751L97.5695 61.7472ZM113.794 89.8488C113.794 100.149 106.49 104.366 97.5695 99.2159L97.5695 101.988C107.816 107.904 116.195 103.067 116.195 91.2348L113.794 89.8488ZM97.5695 99.2159L39.2932 65.5701L39.2932 68.3423L97.5695 101.988L97.5695 99.2159ZM40.4936 67.6492L40.4936 67.6488L38.0928 66.2628L38.0928 66.2632L40.4936 67.6492Z" fill="#141414" mask="url(#path-11-outside-1_1240_5267)"/>
<path d="M87.3398 73.6353L97.7354 59.7746" stroke="#141414" stroke-width="1.73259"/>
<path d="M46.0176 43.315L56.5864 30.3206" stroke="#141414" stroke-width="1.38607"/>
<rect x="27.2051" y="36.4188" width="5.30736" height="15.5933" transform="rotate(37.2902 27.2051 36.4188)" fill="#86B2FF"/>
<rect x="35.9011" y="27.7216" width="5.16753" height="15.5933" transform="rotate(36.1661 35.9011 27.7216)" fill="#86B2FF"/>
<rect x="109.979" y="95.2348" width="5.16753" height="17.8113" transform="rotate(36.1661 109.979 95.2348)" fill="#86B2FF"/>
<path d="M25.1052 38.1172L15.9568 50.2453" stroke="#141414" stroke-width="1.26479"/>
<mask id="path-19-outside-2_1240_5267" maskUnits="userSpaceOnUse" x="12.839" y="10.8608" width="93.5307" height="117" fill="black">
<rect fill="white" x="12.839" y="10.8608" width="93.5307" height="117"/>
<path fill-rule="evenodd" clip-rule="evenodd" d="M28.8979 80.8167L27.6396 80.0902C20.3793 75.8984 14.571 65.8383 14.571 57.4547C14.571 50.2086 18.9102 46.7203 24.7757 48.6139C25.3565 39.3433 32.2353 35.7962 40.7087 40.6883C42.7076 41.8424 44.6178 43.3636 46.3774 45.1451C50.0905 39.4823 57.4162 38.5975 65.3932 43.203C75.16 48.8419 83.8542 61.6018 86.4519 73.8221C86.6915 73.949 86.9323 74.0823 87.1742 74.2219C96.7578 79.755 104.599 93.3363 104.599 104.403C104.599 115.469 96.7578 119.996 87.1742 114.463L28.8979 80.817L28.8979 80.8167Z"/>
</mask>
<path fill-rule="evenodd" clip-rule="evenodd" d="M28.8979 80.8167L27.6396 80.0902C20.3793 75.8984 14.571 65.8383 14.571 57.4547C14.571 50.2086 18.9102 46.7203 24.7757 48.6139C25.3565 39.3433 32.2353 35.7962 40.7087 40.6883C42.7076 41.8424 44.6178 43.3636 46.3774 45.1451C50.0905 39.4823 57.4162 38.5975 65.3932 43.203C75.16 48.8419 83.8542 61.6018 86.4519 73.8221C86.6915 73.949 86.9323 74.0823 87.1742 74.2219C96.7578 79.755 104.599 93.3363 104.599 104.403C104.599 115.469 96.7578 119.996 87.1742 114.463L28.8979 80.817L28.8979 80.8167Z" fill="#0962FF"/>
<path d="M28.8979 80.8167L30.0983 81.5097L30.0983 80.1236L28.8979 79.4306L28.8979 80.8167ZM24.7757 48.6139L25.034 50.1166L25.9106 50.3996L25.9731 49.4018L24.7757 48.6139ZM46.3774 45.1451L45.9542 46.1978L46.9284 47.1841L47.4296 46.4198L46.3774 45.1451ZM86.4519 73.8221L85.296 73.5282L85.552 74.7327L86.5015 75.2356L86.4519 73.8221ZM87.1742 114.463L87.1742 115.849L87.1742 114.463ZM28.8979 80.817L27.6976 80.1239L27.6976 81.51L28.8979 82.203L28.8979 80.817ZM28.8979 79.4306L27.6396 78.7041L27.6396 81.4763L28.8979 82.2027L28.8979 79.4306ZM27.6396 78.7041C21.0423 74.8951 15.7714 65.7658 15.7714 58.1478L13.3707 56.7617C13.3707 65.9107 19.7164 76.9017 27.6396 81.4763L27.6396 78.7041ZM15.7714 58.1478C15.7714 51.5618 19.7106 48.3981 25.034 50.1166L24.5173 47.1111C18.1098 45.0426 13.3707 48.8554 13.3707 56.7617L15.7714 58.1478ZM25.9731 49.4018C26.5103 40.8283 32.8692 37.5483 40.7087 42.0744L40.7087 39.3022C31.6014 34.0441 24.2027 37.8583 23.5782 47.826L25.9731 49.4018ZM40.7087 42.0744C42.5615 43.1441 44.3284 44.5519 45.9542 46.1978L46.8007 44.0924C44.9071 42.1754 42.8537 40.5406 40.7087 39.3022L40.7087 42.0744ZM47.4296 46.4198C50.9326 41.0773 57.856 40.2375 65.3932 44.5891L65.3932 41.817C56.9765 36.9575 49.2484 37.8873 45.3253 43.8704L47.4296 46.4198ZM65.3932 44.5891C74.6165 49.9142 82.8419 61.9837 85.296 73.5282L87.6079 74.116C84.8665 61.2198 75.7035 47.7696 65.3932 41.817L65.3932 44.5891ZM86.5015 75.2356C86.7246 75.3538 86.9488 75.4779 87.1742 75.608L87.1742 72.8359C86.9158 72.6866 86.6585 72.5443 86.4024 72.4086L86.5015 75.2356ZM87.1742 75.608C96.0949 80.7584 103.399 93.4088 103.399 103.71L105.799 105.096C105.799 93.2639 97.4208 78.7517 87.1742 72.8359L87.1742 75.608ZM103.399 103.71C103.399 114.01 96.0949 118.227 87.1742 113.077L87.1742 115.849C97.4208 121.765 105.799 116.927 105.799 105.096L103.399 103.71ZM87.1742 113.077L28.8979 79.4309L28.8979 82.203L87.1742 115.849L87.1742 113.077ZM30.0983 81.51L30.0983 81.5097L27.6976 80.1236L27.6976 80.1239L30.0983 81.51Z" fill="#141414" mask="url(#path-19-outside-2_1240_5267)"/>
<path d="M37.9612 25.989L27.5657 39.8498" stroke="#141414" stroke-width="1.38607"/>
<path d="M103.8 112.619L114.195 97.8917" stroke="#141414" stroke-width="1.38607"/>
<path d="M51.6859 65.1135L51.6731 68.4359L52.3881 68.4386L52.4009 65.1162L51.6859 65.1135Z" fill="#141414"/>
<path d="M53.5049 67.174L53.4922 70.4964L54.2072 70.4991L54.22 67.1768L53.5049 67.174Z" fill="#141414"/>
<path d="M57.3823 67.197L57.3701 70.5132L58.0851 70.5159L58.0973 67.1997L57.3823 67.197Z" fill="#141414"/>
<path d="M60.0889 66.6419L60.0762 69.9581L60.7912 69.9609L60.8039 66.6447L60.0889 66.6419Z" fill="#141414"/>
<path d="M56.5715 61.2791H55.8564V63.8741H56.5715V61.2791Z" fill="#141414"/>
<path d="M27.8352 54.5665C27.8257 54.5433 27.8249 54.5176 27.8328 54.4938C27.8407 54.4701 27.8568 54.4499 27.8783 54.4371L32.1499 51.8236C32.3472 51.651 32.6739 51.6818 33.0067 51.9653L34.597 53.2967C34.6772 53.3645 42.3945 59.7443 50.9131 58.1786C51.093 58.1535 51.2756 58.1535 51.4555 58.1786C52.4862 58.3651 53.4193 58.9058 54.0937 59.7073C54.2939 59.9241 54.4812 60.1526 54.6546 60.3915C62.8403 71.5174 70.6439 74.2111 70.9706 74.322L72.5486 74.8275C72.8487 74.9687 73.1038 75.1904 73.2856 75.4678C73.4673 75.7453 73.5685 76.0678 73.578 76.3993L73.5472 78.2485C73.1712 102.159 66.5141 111.466 60.985 115.072L55.8073 118.234L55.4621 117.211C54.8507 117.307 54.2306 117.336 53.6129 117.297C52.9788 117.186 52.4045 116.854 51.9918 116.36C51.2767 115.596 35.9962 98.9718 32.6615 65.2918L30.3007 60.2127L27.8352 54.5665Z" fill="#141414"/>
<path d="M55.185 117.575C54.6332 117.645 54.0758 117.661 53.5208 117.624C52.7979 117.502 52.1423 117.126 51.6716 116.564C51.0182 115.867 35.6144 99.1505 32.2551 65.3535L29.9682 60.3545L27.5026 54.7083C27.4597 54.608 27.4541 54.4956 27.4869 54.3916C27.5197 54.2876 27.5887 54.1987 27.6814 54.1412L31.9345 51.54C32.1331 51.4088 32.3721 51.3528 32.6083 51.3822C32.8445 51.4116 33.0624 51.5244 33.2228 51.7003L34.8131 53.0317C35.1213 53.2906 42.592 59.3497 50.8394 57.8334C51.0543 57.8055 51.2718 57.8055 51.4866 57.8334C52.6031 58.0268 53.6157 58.6073 54.3467 59.473C54.544 59.6888 54.7412 59.9292 54.9631 60.188C63.0749 71.2216 70.7737 73.8782 71.0942 73.9892L72.6784 74.4946C73.05 74.6616 73.3668 74.9301 73.5926 75.2693C73.8183 75.6084 73.9437 76.0044 73.9543 76.4116L73.9235 78.2608C73.5413 102.3 66.7918 111.725 61.1887 115.38L55.5734 118.733L55.185 117.575ZM50.9442 58.5238C42.3825 60.0956 34.6652 53.8392 34.3385 53.5926L32.7667 52.2365C32.5694 52.0701 32.4153 52.0454 32.3783 52.0886L28.2177 54.6281L30.6093 60.0709L32.9146 65.1192L32.9454 65.2302C36.274 98.83 51.5298 115.399 52.1955 116.101C52.5548 116.53 53.0512 116.822 53.6009 116.927C54.196 116.963 54.7934 116.934 55.3823 116.841L55.672 116.798L55.974 117.686L60.7634 114.758C66.2124 111.201 72.7893 101.98 73.1653 78.2238V76.3746C73.1539 76.1179 73.0749 75.8687 72.9364 75.6523C72.7978 75.4359 72.6047 75.2598 72.3763 75.1418L70.7984 74.6302C70.4655 74.5193 62.5571 71.7886 54.3097 60.5764C54.131 60.3421 53.9522 60.1202 53.7735 59.9292C53.158 59.1912 52.3067 58.6883 51.3634 58.5053H51.2586C51.1535 58.5039 51.0484 58.5101 50.9442 58.5238Z" fill="#141414"/>
<path d="M32.1499 51.8236C32.3472 51.651 32.6739 51.6818 33.0067 51.9653L34.597 53.2967C34.6772 53.3645 42.3945 59.7443 50.9131 58.1786C51.093 58.1535 51.2756 58.1535 51.4555 58.1786C52.4862 58.3651 53.4193 58.9058 54.0937 59.7073C54.2939 59.9241 54.4812 60.1526 54.6546 60.3915C62.8403 71.5174 70.6439 74.2111 70.9706 74.322L72.5486 74.8275C72.8658 74.9579 73.129 75.1927 73.2944 75.4932L60.4487 82.779L33.3827 71.3572C33.0869 69.3929 32.8341 67.3588 32.6246 65.2548L30.3007 60.2127L27.8352 54.5665C27.8257 54.5433 27.8249 54.5176 27.8328 54.4938C27.8407 54.4701 27.8568 54.4499 27.8783 54.4371L32.1499 51.8236Z" fill="white"/>
<path d="M33.0313 71.6037L33.0005 71.4065C32.7046 69.4155 32.4519 67.3814 32.2485 65.3535L29.9616 60.3545L27.4961 54.7021C27.4531 54.6018 27.4475 54.4895 27.4803 54.3854C27.5131 54.2814 27.5821 54.1926 27.6748 54.135L31.9279 51.5338C32.1265 51.4026 32.3655 51.3467 32.6017 51.376C32.8379 51.4054 33.0558 51.5182 33.2162 51.6941L34.8065 53.0255C35.1147 53.2844 42.5854 59.3436 50.8328 57.8272C51.0477 57.7993 51.2652 57.7993 51.48 57.8272C52.5965 58.0206 53.6091 58.6012 54.3401 59.4669C54.5374 59.6826 54.7346 59.923 54.9565 60.1819C63.0683 71.2154 70.7671 73.8721 71.0877 73.983L72.6718 74.4885C73.0659 74.6479 73.3956 74.9342 73.6087 75.3021L73.7998 75.6165L60.4856 83.1735L33.0313 71.6037ZM72.4067 75.1418L70.8288 74.6302C70.4959 74.5193 62.5875 71.7886 54.3401 60.5764C54.1614 60.3421 53.9826 60.1202 53.8039 59.9292C53.1884 59.1912 52.3371 58.6883 51.3938 58.5053C51.2443 58.487 51.0932 58.487 50.9438 58.5053C42.382 60.0771 34.6647 53.8207 34.338 53.5741L32.7662 52.2365C32.569 52.0701 32.4149 52.0454 32.3779 52.0886L28.2172 54.6281L30.6089 60.0709L32.9142 65.1192L32.945 65.2302C33.1422 67.1965 33.3826 69.1751 33.6723 71.1106L60.3932 82.366L72.7211 75.3637C72.6351 75.2662 72.5274 75.1902 72.4067 75.1418Z" fill="#141414"/>
<path d="M47.5601 119.005C46.7711 118.166 28.2484 97.9979 27.6135 56.9212V55.0227C27.6135 54.4063 28.1128 54.1967 28.6491 54.6529L30.2394 55.9843C30.3195 56.0521 38.0306 62.4318 46.5492 60.8662C46.7312 60.8412 46.9158 60.8412 47.0978 60.8662C48.1272 61.0515 49.0587 61.5926 49.7298 62.3948C49.9318 62.6119 50.1211 62.8403 50.2969 63.079C58.4827 74.1742 66.2801 76.8986 66.6068 77.0034L68.1909 77.515C68.4898 77.6579 68.7438 77.88 68.9252 78.1571C69.1067 78.4342 69.2088 78.7558 69.2203 79.0868L69.1895 80.936C68.5731 121.279 50.0319 120.059 49.2429 119.985C48.6116 119.871 48.0401 119.539 47.6279 119.048L47.5601 119.005ZM64.0056 80.6772C60.5353 78.754 54.9076 74.7967 49.0395 67.2644C48.8954 67.035 48.6979 66.8441 48.4639 66.7077C48.2298 66.5714 47.9663 66.4938 47.6957 66.4815C41.729 67.1657 36.1753 64.6755 32.7543 62.6352C32.3043 62.3702 31.9468 62.5982 31.9714 63.1222C33.2042 90.86 42.9125 107.059 47.2026 112.927C47.9115 113.895 49.2059 115.146 49.9086 114.986C54.1741 114.024 63.5495 108.205 64.7946 82.0764C64.7852 81.7933 64.7053 81.5171 64.5621 81.2728C64.419 81.0285 64.2171 80.8237 63.9748 80.6772H64.0056Z" fill="#86B2FF"/>
<path d="M49.1319 120.311C48.4094 120.196 47.7529 119.824 47.2827 119.264C46.4937 118.419 27.8785 98.1519 27.2375 56.9396L27.2067 55.0411C27.1892 54.8596 27.2255 54.6769 27.311 54.5159C27.3964 54.3548 27.5274 54.2223 27.6874 54.135C27.882 54.0616 28.0938 54.047 28.2965 54.093C28.4993 54.1391 28.684 54.2437 28.8278 54.3939L30.4119 55.7253C30.7263 55.9842 38.197 62.0372 46.4382 60.527C46.6427 60.4985 46.8502 60.4985 47.0546 60.527C48.1731 60.7148 49.1875 61.2964 49.9147 62.1667C50.1345 62.3923 50.3404 62.6311 50.5311 62.8817C58.6491 73.9152 66.3479 76.5719 66.6684 76.6828L68.2464 77.1883C68.6179 77.3536 68.935 77.6209 69.1608 77.9591C69.3867 78.2973 69.512 78.6925 69.5223 79.0991V80.9483C69.1771 102.701 63.5494 112.261 58.8833 116.453C54.9445 119.991 51.129 120.361 49.7051 120.361C49.4093 120.33 49.212 120.318 49.1319 120.311ZM46.5554 61.2112C37.9936 62.7831 30.2763 56.5266 29.9496 56.2801L28.3593 54.9487C28.1682 54.7884 28.0265 54.7637 27.9772 54.7884C27.9278 54.813 27.9032 54.8932 27.9032 55.0411L27.934 56.9396C28.5504 97.8869 47.0053 117.963 47.7881 118.789C48.1475 119.218 48.6439 119.51 49.1935 119.615C49.3846 119.615 53.8104 119.979 58.3532 115.916C62.896 111.854 68.419 102.424 68.758 80.9298V79.0806C68.7497 78.8239 68.6726 78.5741 68.5349 78.3573C68.3973 78.1404 68.2039 77.9645 67.9751 77.8478L66.391 77.3362C66.0581 77.2252 58.1559 74.4946 49.9086 63.2823C49.7525 63.0608 49.5859 62.8469 49.4093 62.6413C48.7938 61.9044 47.9422 61.4035 46.9992 61.2236H46.8451C46.7491 61.2101 46.6521 61.2059 46.5554 61.2112ZM46.8882 113.137C42.7029 107.416 32.8405 91.0818 31.5892 63.1406C31.5676 62.9733 31.5931 62.8034 31.6628 62.6499C31.7325 62.4963 31.8436 62.3653 31.9837 62.2715C32.1274 62.1954 32.2895 62.1609 32.4517 62.1718C32.6139 62.1827 32.7699 62.2385 32.9022 62.3331C36.4218 64.4288 41.8276 66.7958 47.6217 66.1301C47.9535 66.1334 48.2792 66.219 48.5697 66.3793C48.8602 66.5397 49.1063 66.7696 49.286 67.0485C55.037 74.4453 60.5414 78.3656 64.1473 80.3689C64.4418 80.5514 64.6854 80.8052 64.8556 81.1069C65.0258 81.4086 65.1172 81.7484 65.1212 82.0948C63.7836 110.055 53.1755 114.604 49.9579 115.331C49.8904 115.34 49.822 115.34 49.7545 115.331C48.7929 115.356 47.4738 113.938 46.8882 113.137ZM64.4124 82.0578C64.4016 81.8439 64.3401 81.6356 64.2329 81.4502C64.1257 81.2648 63.9759 81.1075 63.796 80.9914C60.1346 78.9512 54.55 74.9569 48.7251 67.4862C48.3429 66.9992 47.9484 66.802 47.6957 66.8328C41.7166 67.517 36.1444 65.0945 32.5323 62.9372C32.4152 62.8694 32.3474 62.8755 32.3412 62.8817C32.3351 62.8878 32.2858 62.9618 32.2919 63.1097C33.5247 90.8476 43.3069 107.047 47.4491 112.724C48.2443 113.802 49.3784 114.733 49.7914 114.641C52.8734 113.938 63.0994 109.518 64.4062 82.0578H64.4124Z" fill="#141414"/>
<path d="M32.7232 62.6413C36.1442 64.6816 41.698 67.1718 47.6647 66.4876C47.9353 66.4999 48.1988 66.5775 48.4328 66.7138C48.6668 66.8501 48.8643 67.0411 49.0084 67.2704C54.8765 74.8028 60.5043 78.7601 63.9746 80.6832C64.2111 80.8334 64.407 81.0398 64.5446 81.2839C64.6822 81.528 64.7575 81.8023 64.7636 82.0825C63.5308 108.236 54.143 114.03 49.8776 114.992C49.1749 115.152 47.8804 113.901 47.1716 112.933C42.8568 107.065 33.1794 90.8723 31.9404 63.1282C31.9158 62.5981 32.2733 62.3701 32.7232 62.6413Z" fill="#0962FF"/>
<path d="M32.7232 62.6414C33.3396 63.0174 34.0485 63.4057 34.8128 63.7879C36.2675 90.7984 45.7477 106.621 49.9762 112.409C50.5016 113.142 51.1603 113.769 51.9178 114.258C51.2671 114.576 50.5827 114.82 49.8776 114.986C49.1749 115.146 47.8804 113.895 47.1716 112.927C42.8568 107.059 33.1794 90.8662 31.9404 63.1222C31.9158 62.5982 32.2733 62.3702 32.7232 62.6414Z" fill="#141414"/>
<path d="M46.888 113.137C42.7027 107.416 32.8403 91.0881 31.589 63.1407C31.5674 62.9734 31.5929 62.8035 31.6626 62.65C31.7323 62.4964 31.8434 62.3654 31.9835 62.2716C32.1272 62.1955 32.2893 62.161 32.4515 62.1719C32.6137 62.1828 32.7697 62.2386 32.902 62.3332C33.5738 62.7277 34.2704 63.1099 34.9669 63.4612L35.1518 63.5537V63.7632C36.6127 90.8354 46.1976 106.652 50.2474 112.194C50.7506 112.888 51.3775 113.483 52.0965 113.95L52.7129 114.283L52.0965 114.579C51.4217 114.907 50.7127 115.159 49.9823 115.331C49.9148 115.34 49.8464 115.34 49.7789 115.331C48.7927 115.356 47.4736 113.938 46.888 113.137ZM49.6865 112.613C45.6121 107.065 35.9778 91.1436 34.4676 64.0036C33.8142 63.6708 33.167 63.3133 32.5383 62.9373C32.4212 62.8695 32.3534 62.8756 32.3472 62.8818C32.341 62.8879 32.2917 62.9619 32.2979 63.1099C33.5307 90.8477 43.3129 107.047 47.4612 112.724C48.2502 113.802 49.3906 114.733 49.7974 114.641C50.2761 114.532 50.7443 114.381 51.1966 114.191C50.6284 113.731 50.121 113.201 49.6865 112.613Z" fill="#0962FF"/>
<path d="M73.09 75.1434L68.6028 77.6895L68.9526 78.306L73.4399 75.76L73.09 75.1434Z" fill="#141414"/>
<path d="M70.3628 73.871L65.8755 76.4171L66.2253 77.0336L70.7126 74.4876L70.3628 73.871Z" fill="#141414"/>
<path d="M51.9245 58.0368L47.4368 60.582L47.7865 61.1986L52.2742 58.6534L51.9245 58.0368Z" fill="#141414"/>
<path d="M55.5951 61.7282L51.1074 64.2734L51.4571 64.89L55.9448 62.3448L55.5951 61.7282Z" fill="#141414"/>
<path d="M34.3305 52.8301L29.5889 55.65L29.9512 56.2592L34.6928 53.4394L34.3305 52.8301Z" fill="#141414"/>
<path d="M69.3743 85.7069L72.8816 83.5927L72.9186 82.7482L69.3804 84.881L69.3743 85.7069Z" fill="#0962FF"/>
<path d="M63.5125 110.079L67.0198 107.965L67.6485 106.751L64.1165 108.883L63.5125 110.079Z" fill="#0962FF"/>
<path d="M42.4812 61.1804L47.0795 58.6347L46.7405 58.0183L41.1128 61.125L42.4812 61.1804Z" fill="#141414"/>
<path d="M49.3046 111.122L47.0308 112.531L47.4042 113.134L49.678 111.724L49.3046 111.122Z" fill="#0962FF"/>
<path d="M35.2919 66.5127L32.5098 68.2474L32.8855 68.85L35.6676 67.1152L35.2919 66.5127Z" fill="#0962FF"/>
<path d="M35.2762 70.1915L32.5017 71.9279L32.8778 72.5287L35.6523 70.7923L35.2762 70.1915Z" fill="#0962FF"/>
<path d="M46.888 113.137C42.7027 107.416 32.8403 91.0881 31.589 63.1407C31.5674 62.9734 31.5929 62.8035 31.6626 62.65C31.7323 62.4964 31.8434 62.3654 31.9835 62.2716C32.1272 62.1955 32.2893 62.161 32.4515 62.1719C32.6137 62.1828 32.7697 62.2386 32.902 62.3332C36.4216 64.4289 41.8274 66.7959 47.6215 66.1302C47.9533 66.1335 48.279 66.2191 48.5695 66.3794C48.86 66.5398 49.1061 66.7697 49.2858 67.0486C55.0368 74.4454 60.5412 78.3657 64.1471 80.369C64.4416 80.5515 64.6852 80.8053 64.8554 81.107C65.0256 81.4087 65.117 81.7485 65.121 82.0949C63.7834 110.055 53.1753 114.604 49.9577 115.331C49.8902 115.34 49.8217 115.34 49.7542 115.331C48.7927 115.356 47.4736 113.938 46.888 113.137ZM47.7017 66.8329C41.7226 67.5171 36.1504 65.0947 32.5383 62.9373C32.4212 62.8695 32.3534 62.8756 32.3472 62.8818C32.341 62.8879 32.2917 62.9619 32.2979 63.1099C33.5307 90.8477 43.3129 107.047 47.4612 112.724C48.2502 113.802 49.3906 114.733 49.7974 114.641C52.8794 113.938 63.1054 109.518 64.4122 82.0579C64.4014 81.844 64.3399 81.6357 64.2327 81.4503C64.1255 81.2649 63.9757 81.1076 63.7958 80.9915C60.1344 78.9513 54.5498 74.957 48.7249 67.4863C48.6158 67.3153 48.4723 67.1689 48.3036 67.0564C48.1349 66.9439 47.9446 66.8678 47.7448 66.8329H47.7017Z" fill="#141414"/>
<path d="M56.806 87.667C56.8003 87.3484 56.7204 87.0354 56.5728 86.753C56.4251 86.4705 56.2138 86.2263 55.9554 86.0398L46.1423 80.3751C46.0718 80.3273 45.9914 80.2959 45.9072 80.2831C45.823 80.2703 45.7369 80.2765 45.6554 80.3011C44.9358 80.3838 44.2424 80.6203 43.6224 80.9947C43.0023 81.3691 42.47 81.8725 42.0618 82.4708L45.2917 88.3266V88.8628C45.2917 91.0141 46.5985 93.5043 48.2072 94.4104L48.873 94.7926L51.7639 100.044C53.4651 99.8162 55.1602 98.4417 55.8876 97.7821C55.9707 97.725 56.0472 97.6589 56.1156 97.5849L56.2636 97.4308C56.6514 96.8601 56.8419 96.1782 56.806 95.4891V87.667Z" fill="white"/>
<path d="M51.5849 100.457L48.6262 95.0823L48.0468 94.7433C46.3085 93.7448 44.9648 91.162 44.9648 88.8629V88.4191L41.6855 82.4647L41.7842 82.2921C42.2148 81.6494 42.7792 81.1073 43.4389 80.703C44.0985 80.2988 44.8377 80.0418 45.6058 79.9498C45.7313 79.9154 45.8628 79.908 45.9913 79.9282C46.1199 79.9484 46.2428 79.9957 46.3517 80.0669L56.1647 85.7316C56.4782 85.9488 56.7352 86.2378 56.9142 86.5745C57.0933 86.9111 57.1893 87.2858 57.1941 87.6671V95.5138C57.2327 96.2832 57.016 97.0438 56.5777 97.6774L56.4051 97.8561C56.3227 97.9512 56.2272 98.0342 56.1216 98.1027C55.3018 98.8485 53.5943 100.186 51.8438 100.427L51.5849 100.457ZM42.4992 82.4832L45.6675 88.2342V88.8506C45.6675 90.8785 46.9003 93.2393 48.4043 94.1146L49.1563 94.5461L51.9732 99.6622C53.5204 99.3478 55.0552 98.0842 55.6716 97.5294C55.7403 97.4823 55.8043 97.4286 55.8627 97.3692L56.0291 97.1966C56.3523 96.6926 56.5076 96.0992 56.4729 95.5015V87.6671C56.4675 87.4117 56.4042 87.1608 56.2879 86.9334C56.1715 86.706 56.005 86.5079 55.801 86.3542L45.988 80.6895C45.9628 80.668 45.9331 80.6524 45.9011 80.6439C45.8691 80.6353 45.8356 80.6341 45.8031 80.6402H45.7353C45.1008 80.7181 44.4881 80.9211 43.9326 81.2374C43.3771 81.5538 42.8899 81.9772 42.4992 82.4832Z" fill="#141414"/>
<path d="M55.9428 97.8191C56.0259 97.7619 56.1005 97.6935 56.1647 97.6157L56.3126 97.4616C56.7082 96.8943 56.9014 96.2104 56.8612 95.5199V87.6794C56.7854 87.2028 56.6157 86.7461 56.3619 86.3356L52.2567 88.8875C52.2567 88.8875 50.7651 92.4626 49.2549 95.4213L51.8191 100.075C53.5142 99.847 55.2093 98.4725 55.9428 97.8191Z" fill="#141414"/>
<path d="M44.8478 96.4445L50.5309 99.7237C52.1397 100.655 53.4465 99.6683 53.4465 97.5232V89.6765C53.442 89.3569 53.3621 89.0429 53.2132 88.7601C53.0643 88.4773 52.8506 88.2337 52.5897 88.0492L42.7828 82.366C42.3082 82.0948 41.926 82.366 41.926 83.0132V90.8723C41.926 93.0173 43.2451 95.5138 44.8478 96.4445Z" fill="#86B2FF"/>
<path d="M51.6897 100.433C51.215 100.421 50.7517 100.285 50.3459 100.038L44.6627 96.7527C42.9306 95.7541 41.5807 93.1714 41.5807 90.8723V83.0317C41.5645 82.8373 41.5999 82.642 41.6832 82.4656C41.7665 82.2892 41.8949 82.1379 42.0554 82.027C42.1991 81.9531 42.3599 81.9187 42.5212 81.9274C42.6826 81.9361 42.8388 81.9874 42.9738 82.0763L52.7868 87.741C53.0992 87.9592 53.3554 88.2484 53.5343 88.5849C53.7133 88.9213 53.8099 89.2954 53.8162 89.6764V97.5232C53.8162 98.756 53.3847 99.7545 52.6266 100.192C52.3411 100.354 52.0178 100.437 51.6897 100.433ZM42.4437 82.6434H42.4006C42.3451 82.6434 42.2896 82.8098 42.2896 83.0255V90.8723C42.2896 92.9002 43.5224 95.261 45.0264 96.1363L50.7096 99.4155C50.9295 99.5785 51.1895 99.6788 51.4619 99.706C51.7343 99.7331 52.009 99.686 52.2567 99.5696C52.7807 99.2676 53.0827 98.5156 53.0827 97.5232V89.6764C53.0773 89.421 53.014 89.1702 52.8977 88.9428C52.7813 88.7154 52.6148 88.5173 52.4108 88.3635L42.6286 82.6988C42.5738 82.6625 42.5095 82.6432 42.4437 82.6434Z" fill="#141414"/>
<path d="M48.7123 95.0268V90.9647H48.0035V93.8001L47.4364 93.4735L47.0789 94.0899L48.7123 95.0268Z" fill="white"/>
<path d="M48.1762 92.173C47.7575 91.9059 47.4083 91.543 47.1575 91.1143C46.9067 90.6855 46.7615 90.2033 46.7339 89.7074C46.7027 89.4862 46.7383 89.2607 46.8361 89.0599C46.9339 88.8591 47.0895 88.692 47.2828 88.5801C47.4761 88.4682 47.6985 88.4166 47.9213 88.4318C48.1442 88.4471 48.3574 88.5285 48.5337 88.6657C48.9506 88.9343 49.2981 89.2976 49.5477 89.7262C49.7973 90.1547 49.942 90.6362 49.9699 91.1313C49.9878 91.3512 49.9463 91.5719 49.8498 91.7703C49.7533 91.9687 49.6053 92.1376 49.4213 92.2593C49.2674 92.3468 49.0929 92.3914 48.9159 92.3887C48.6546 92.3834 48.3994 92.309 48.1762 92.173ZM47.6338 89.1711C47.5623 89.2341 47.5075 89.3138 47.4742 89.403C47.4409 89.4923 47.43 89.5883 47.4427 89.6828C47.4734 90.0533 47.5874 90.4121 47.7764 90.7323C47.9653 91.0526 48.2242 91.3259 48.5337 91.5319C48.6079 91.5916 48.6964 91.631 48.7904 91.6461C48.8845 91.6612 48.9808 91.6516 49.07 91.6182C49.1933 91.5504 49.2611 91.3655 49.2611 91.1066C49.2338 90.7359 49.1218 90.3764 48.9338 90.0559C48.7457 89.7353 48.4865 89.4621 48.1762 89.2574C48.059 89.1848 47.9255 89.1424 47.7879 89.1342C47.7363 89.1254 47.6833 89.1296 47.6338 89.1465V89.1711Z" fill="white"/>
<path d="M46.4873 89.7196C46.5111 90.158 46.6379 90.5847 46.8574 90.9649C47.077 91.3451 47.3831 91.6681 47.7509 91.9079C48.4536 92.3085 49.0145 91.9818 49.0145 91.1805C48.9917 90.7411 48.8654 90.3132 48.6458 89.9319C48.4262 89.5505 48.1195 89.2265 47.7509 88.9861C47.0544 88.5855 46.4873 88.9122 46.4873 89.7196Z" fill="#0962FF"/>
<path d="M47.5599 92.2283C47.1415 91.9608 46.7926 91.5978 46.5418 91.1692C46.2911 90.7406 46.1456 90.2585 46.1175 89.7627C46.0859 89.5422 46.121 89.3172 46.2184 89.1167C46.3159 88.9163 46.4711 88.7497 46.6641 88.6382C46.8571 88.5268 47.079 88.4757 47.3013 88.4916C47.5235 88.5075 47.736 88.5895 47.9112 88.7272C48.334 88.9973 48.6858 89.3651 48.9368 89.7995C49.1878 90.234 49.3308 90.7224 49.3536 91.2236C49.3703 91.4425 49.3283 91.6619 49.2318 91.8591C49.1354 92.0564 48.988 92.2242 48.805 92.3455C48.652 92.4359 48.4772 92.4828 48.2995 92.4811C48.0348 92.4647 47.7793 92.3774 47.5599 92.2283ZM47.0174 89.2203C46.9451 89.2826 46.8896 89.3622 46.8562 89.4516C46.8228 89.541 46.8126 89.6375 46.8263 89.7319C46.8536 90.1026 46.9656 90.4621 47.1537 90.7827C47.3418 91.1033 47.6009 91.3765 47.9112 91.5811C47.9883 91.6375 48.0774 91.6752 48.1715 91.6912C48.2657 91.7073 48.3622 91.7012 48.4536 91.6736C48.5227 91.6087 48.5758 91.5288 48.6089 91.4401C48.6421 91.3514 48.6543 91.2562 48.6447 91.162C48.6202 90.7855 48.5097 90.4197 48.3216 90.0927C48.1335 89.7657 47.8729 89.4863 47.5599 89.2758C47.4423 89.2039 47.309 89.1615 47.1715 89.1525C47.1225 89.1596 47.0759 89.1787 47.0359 89.208L47.0174 89.2203Z" fill="#141414"/>
<path d="M48.1085 95.07V91.8955L47.3996 91.4702V93.8433L46.8325 93.5167L46.4812 94.1269L48.1085 95.07Z" fill="#141414"/>
<path d="M56.4941 89.7953L53.6448 91.5278L53.933 92.0018L56.7824 90.2693L56.4941 89.7953Z" fill="#86B2FF"/>
<path d="M55.5503 94.9832L52.7158 96.7172L53.0043 97.1888L55.8388 95.4547L55.5503 94.9832Z" fill="#86B2FF"/>
<path d="M52.7685 86.6808C52.5047 86.6809 52.2516 86.5765 52.0645 86.3906C51.8775 86.2046 51.7715 85.9522 51.7699 85.6884V81.3737C51.7329 80.7124 51.5413 80.069 51.2105 79.4952C50.8797 78.9214 50.419 78.4332 49.8652 78.0698L48.0469 77.0219C47.7017 76.8247 47.4305 76.7938 47.3442 76.8555C47.2579 76.9171 47.1346 77.1513 47.1346 77.5458V81.8606C47.1346 82.1244 47.0302 82.3775 46.8443 82.5645C46.6584 82.7516 46.406 82.8576 46.1422 82.8592C45.8779 82.8576 45.6248 82.7518 45.4379 82.5649C45.251 82.378 45.1452 82.125 45.1436 81.8606V77.5458C45.0943 77.0719 45.1833 76.5939 45.4 76.1695C45.6166 75.7451 45.9516 75.3926 46.3643 75.1546C46.7771 74.9166 47.25 74.8033 47.7258 74.8284C48.2016 74.8535 48.66 75.0159 49.0454 75.296L50.8576 76.3439C51.7013 76.8967 52.4034 77.6398 52.9076 78.5134C53.4119 79.3869 53.7041 80.3666 53.7609 81.3737V85.6884C53.7609 85.8188 53.7352 85.9478 53.6853 86.0682C53.6354 86.1886 53.5623 86.298 53.4702 86.3902C53.378 86.4823 53.2686 86.5554 53.1482 86.6053C53.0278 86.6552 52.8988 86.6808 52.7685 86.6808Z" fill="#141414"/>
<path d="M46.4503 78.6307H46.0374V77.2315C46.037 76.9563 46.1089 76.6859 46.2459 76.4472C46.3829 76.2086 46.5801 76.01 46.8178 75.8715C47.0556 75.733 47.3256 75.6593 47.6007 75.6578C47.8759 75.6563 48.1466 75.7271 48.3858 75.8631L50.2905 76.9418L50.0871 77.3054L48.1763 76.2021C47.9994 76.1035 47.8 76.0528 47.5976 76.0548C47.3952 76.0568 47.1967 76.1115 47.0219 76.2136C46.8471 76.3156 46.7019 76.4614 46.6006 76.6367C46.4992 76.8119 46.4454 77.0106 46.4442 77.213L46.4503 78.6307Z" fill="#86B2FF"/>
<path d="M52.676 81.7989C52.6479 80.8662 52.4098 79.9518 51.9795 79.1238L52.337 78.9142C52.8091 79.8018 53.0666 80.7877 53.089 81.7928L52.676 81.7989Z" fill="#86B2FF"/>
<rect x="-1.41927" y="0.819418" width="72.4921" height="72.4921" rx="2.7314" transform="matrix(-0.866025 -0.5 -2.20305e-08 1 77.7664 66.3953)" stroke="white" stroke-width="3.27767" stroke-dasharray="43.7 43.7"/>
</svg>
