<svg width="1440" height="473" viewBox="0 0 1440 473" fill="none" xmlns="http://www.w3.org/2000/svg">
<g opacity="0.4" clip-path="url(#clip0_1_439)">
<g style="mix-blend-mode:screen">
<path d="M22.6791 63.6604L-11.7197 80.736H-8.86176L25.4648 63.6604H22.6791Z" fill="#A6A6A6"/>
<path d="M56.3765 46.9358L25.4238 62.2987H28.2096L59.0901 46.9358H56.3765Z" fill="#A6A6A6"/>
<path d="M130.766 46.9651L103.27 62.3279H105.973L133.407 46.9651H130.766Z" fill="#A6A6A6"/>
<path d="M100.835 63.6897L70.2739 80.7653H73.0494L103.548 63.6897H100.835Z" fill="#A6A6A6"/>
<path d="M67.7053 82.2004L33.5645 101.288H36.4224L70.491 82.2004H67.7053Z" fill="#A6A6A6"/>
<path d="M30.8506 102.803L-7.53076 124.253H-4.59025L33.7086 102.803H30.8506Z" fill="#A6A6A6"/>
<path d="M178.99 63.7102L152.268 80.7961H154.981L181.631 63.7205L178.99 63.7102Z" fill="#A6A6A6"/>
<path d="M205.156 46.9866L181.116 62.3598H183.757L207.735 46.9866H205.156Z" fill="#A6A6A6"/>
<path d="M41.0751 151.896L-2.19678 179.557H0.87786L44.0466 151.896H41.0751Z" fill="#A6A6A6"/>
<path d="M81.7269 125.895L43.7686 150.172H46.7297L84.6055 125.895H81.7269Z" fill="#A6A6A6"/>
<path d="M150.029 82.2307L120.17 101.318H122.956L152.743 82.2307H150.029Z" fill="#A6A6A6"/>
<path d="M117.808 102.834L84.2445 124.285H87.1128L120.593 102.834H117.808Z" fill="#A6A6A6"/>
<path d="M257.146 63.7424L234.272 80.8283H236.913L259.725 63.7424H257.146Z" fill="#A6A6A6"/>
<path d="M279.545 47.0063L258.962 62.3796H261.541L282.063 47.0167L279.545 47.0063Z" fill="#A6A6A6"/>
<path d="M232.342 82.261L206.786 101.348H209.509L235.004 82.261H232.342Z" fill="#A6A6A6"/>
<path d="M99.5344 181.455L56.9331 213.264H60.0696L102.547 181.455H99.5344Z" fill="#A6A6A6"/>
<path d="M139.061 151.936L102.011 179.597H105.023L141.971 151.936H139.061Z" fill="#A6A6A6"/>
<path d="M54.251 215.276L4.79883 252.202H8.0695L57.3875 215.276H54.251Z" fill="#A6A6A6"/>
<path d="M204.753 102.866L176.029 124.327H178.836L207.488 102.866H204.753Z" fill="#A6A6A6"/>
<path d="M1.86843 254.401L-14 266.245V268.732L5.1391 254.401H1.86843Z" fill="#A6A6A6"/>
<path d="M173.872 125.936L141.372 150.213H144.271L176.679 125.936H173.872Z" fill="#A6A6A6"/>
<path d="M314.676 82.2924L293.401 101.39H296.074L317.266 82.2924H314.676Z" fill="#A6A6A6"/>
<path d="M353.935 47.0374L336.818 62.4106H339.346L356.411 47.0374H353.935Z" fill="#A6A6A6"/>
<path d="M335.301 63.7715L316.265 80.8574H318.865L337.829 63.7715H335.301Z" fill="#A6A6A6"/>
<path d="M237.057 151.978L206.239 179.65H209.179L239.905 151.978H237.057Z" fill="#A6A6A6"/>
<path d="M166.496 215.317L125.359 252.264H128.558L169.57 215.327L166.496 215.317Z" fill="#A6A6A6"/>
<path d="M266.019 125.977L238.976 150.244L241.824 150.254L268.773 125.977H266.019Z" fill="#A6A6A6"/>
<path d="M11.3812 354.584L-14 377.376V380.667L14.9614 354.584H11.3812Z" fill="#A6A6A6"/>
<path d="M122.904 254.451L74.5972 297.826H77.971L126.123 254.462L122.904 254.451Z" fill="#A6A6A6"/>
<path d="M291.72 102.896L267.814 124.357H270.569L294.392 102.907L291.72 102.896Z" fill="#A6A6A6"/>
<path d="M204.175 181.506L168.734 213.315H171.798L207.126 181.506H204.175Z" fill="#A6A6A6"/>
<path d="M71.8938 300.262L14.4043 351.87H17.9742L75.278 300.262H71.8938Z" fill="#A6A6A6"/>
<path d="M203.257 300.324L157.375 351.943H160.883L206.58 300.324H203.257Z" fill="#A6A6A6"/>
<path d="M96.769 420.143L28.415 497.05H32.4286L100.504 420.143H96.769Z" fill="#A6A6A6"/>
<path d="M154.96 354.656L99.5034 417.067H103.228L158.479 354.656H154.96Z" fill="#A6A6A6"/>
<path d="M243.971 254.513L205.414 297.888H208.726L247.128 254.513H243.971Z" fill="#A6A6A6"/>
<path d="M278.751 215.379L245.92 252.316H249.067L281.774 215.379H278.751Z" fill="#A6A6A6"/>
<path d="M413.457 63.804L398.27 80.8899H400.818L415.944 63.804H413.457Z" fill="#A6A6A6"/>
<path d="M335.064 152.02L310.467 179.692H313.356L337.86 152.02H335.064Z" fill="#A6A6A6"/>
<path d="M428.335 47.0684L414.674 62.4416H417.151L430.759 47.0684H428.335Z" fill="#A6A6A6"/>
<path d="M358.175 126.008L336.591 150.285L339.387 150.295L360.878 126.008H358.175Z" fill="#A6A6A6"/>
<path d="M378.676 102.938L359.609 124.398H362.313L381.307 102.938H378.676Z" fill="#A6A6A6"/>
<path d="M397 82.3234L380.028 101.421H382.649L399.549 82.3234H397Z" fill="#A6A6A6"/>
<path d="M308.817 181.548L280.536 213.367H283.549L311.716 181.548H308.817Z" fill="#A6A6A6"/>
<path d="M491.623 63.8225L480.274 80.9187H482.791L494.079 63.8328L491.623 63.8225Z" fill="#A6A6A6"/>
<path d="M413.467 181.589L392.337 213.419H395.319L416.325 181.589H413.467Z" fill="#A6A6A6"/>
<path d="M433.071 152.049L414.695 179.731L417.553 179.741L435.826 152.059L433.071 152.049Z" fill="#A6A6A6"/>
<path d="M465.643 102.969L451.395 124.43L454.056 124.44L468.233 102.969H465.643Z" fill="#A6A6A6"/>
<path d="M365.026 254.564L336.23 297.959H339.501L368.142 254.564H365.026Z" fill="#A6A6A6"/>
<path d="M502.725 47.0891L492.531 62.4726H494.976L505.118 47.0994L502.725 47.0891Z" fill="#A6A6A6"/>
<path d="M255.082 420.224L204.031 497.152H207.983L258.776 420.234L255.082 420.224Z" fill="#A6A6A6"/>
<path d="M450.332 126.05L434.216 150.327L436.96 150.338L452.994 126.05H450.332Z" fill="#A6A6A6"/>
<path d="M334.621 300.386L300.356 352.015H303.802L337.891 300.386H334.621Z" fill="#A6A6A6"/>
<path d="M298.55 354.728L257.125 417.149H260.808L302.017 354.728H298.55Z" fill="#A6A6A6"/>
<path d="M479.324 82.3557L466.654 101.454H469.234L481.842 82.3557H479.324Z" fill="#A6A6A6"/>
<path d="M391.006 215.421L366.481 252.379H369.597L393.988 215.421H391.006Z" fill="#A6A6A6"/>
<path d="M442.161 354.811L414.778 417.232H418.42L445.586 354.811H442.161Z" fill="#A6A6A6"/>
<path d="M503.282 215.472L487.063 252.429H490.148L506.233 215.472H503.282Z" fill="#A6A6A6"/>
<path d="M531.077 152.091L518.934 179.783H521.761L533.812 152.101L531.077 152.091Z" fill="#A6A6A6"/>
<path d="M577.125 47.1194L570.388 62.4926H572.812L579.498 47.1194H577.125Z" fill="#A6A6A6"/>
<path d="M542.489 126.081L531.841 150.369L534.565 150.379L545.13 126.081H542.489Z" fill="#A6A6A6"/>
<path d="M466.005 300.448L443.347 352.097H446.773L469.244 300.448H466.005Z" fill="#A6A6A6"/>
<path d="M552.61 103L543.201 124.471H545.831L555.179 103H552.61Z" fill="#A6A6A6"/>
<path d="M518.118 181.63L504.158 213.47H507.099L520.955 181.64L518.118 181.63Z" fill="#A6A6A6"/>
<path d="M569.789 63.855L562.288 80.9512H564.774L572.213 63.855H569.789Z" fill="#A6A6A6"/>
<path d="M413.426 420.317L379.677 497.255H383.598L417.078 420.317H413.426Z" fill="#A6A6A6"/>
<path d="M486.103 254.627L467.067 298.023H470.296L489.188 254.627H486.103Z" fill="#A6A6A6"/>
<path d="M561.659 82.384L553.281 101.482H555.839L564.155 82.384H561.659Z" fill="#A6A6A6"/>
<path d="M571.78 420.4L555.334 497.358H559.234L575.412 420.41L571.78 420.4Z" fill="#A6A6A6"/>
<path d="M607.191 254.679L597.915 298.085H601.124L610.255 254.679H607.191Z" fill="#A6A6A6"/>
<path d="M622.78 181.682L615.981 213.512H618.911L625.596 181.682H622.78Z" fill="#A6A6A6"/>
<path d="M597.399 300.51L586.359 352.17H589.753L600.618 300.52L597.399 300.51Z" fill="#A6A6A6"/>
<path d="M643.993 82.4165L639.907 101.514L642.456 101.525L646.469 82.4165H643.993Z" fill="#A6A6A6"/>
<path d="M647.955 63.886L644.292 80.9822H646.768L650.359 63.886H647.955Z" fill="#A6A6A6"/>
<path d="M639.587 103.041L634.996 124.512H637.617L642.136 103.041H639.587Z" fill="#A6A6A6"/>
<path d="M651.525 47.1399L648.244 62.5234H650.648L653.887 47.1502L651.525 47.1399Z" fill="#A6A6A6"/>
<path d="M585.782 354.883L572.441 417.325H576.062L589.186 354.883H585.782Z" fill="#A6A6A6"/>
<path d="M629.094 152.133L623.182 179.825H625.988L631.807 152.133H629.094Z" fill="#A6A6A6"/>
<path d="M615.548 215.524L607.655 252.481L610.719 252.491L618.488 215.524H615.548Z" fill="#A6A6A6"/>
<path d="M634.656 126.121L629.466 150.409H632.169L637.276 126.121H634.656Z" fill="#A6A6A6"/>
<path d="M725.924 47.1711L726.1 62.5547H728.504L728.277 47.1711H725.924Z" fill="#A6A6A6"/>
<path d="M728.803 300.582L729.381 352.242H732.775L732.022 300.582H728.803Z" fill="#A6A6A6"/>
<path d="M730.155 420.492L731.032 497.461H734.922L733.787 420.492H730.155Z" fill="#A6A6A6"/>
<path d="M726.822 126.152L727.101 150.45H729.804L729.443 126.152H726.822Z" fill="#A6A6A6"/>
<path d="M727.452 181.724L727.813 213.564H730.733L730.268 181.724H727.452Z" fill="#A6A6A6"/>
<path d="M727.111 152.174L727.431 179.866H730.237L729.824 152.174H727.111Z" fill="#A6A6A6"/>
<path d="M727.833 215.575L728.256 252.543H731.31L730.763 215.575H727.833Z" fill="#A6A6A6"/>
<path d="M728.277 254.74L728.773 298.146H731.981L731.342 254.74H728.277Z" fill="#A6A6A6"/>
<path d="M726.327 82.4475L726.544 101.556H729.082L728.804 82.4475H726.327Z" fill="#A6A6A6"/>
<path d="M729.413 354.954L730.124 417.407H733.746L732.817 354.954H729.413Z" fill="#A6A6A6"/>
<path d="M726.12 63.917L726.306 81.0132H728.782L728.524 63.917H726.12Z" fill="#A6A6A6"/>
<path d="M726.564 103.073L726.802 124.543H729.422L729.103 103.073H726.564Z" fill="#A6A6A6"/>
<path d="M873.074 355.026L887.828 417.499H891.45L876.479 355.026H873.074Z" fill="#A6A6A6"/>
<path d="M832.124 181.775L839.655 213.615H842.575L834.94 181.775H832.124Z" fill="#A6A6A6"/>
<path d="M825.148 152.215L831.69 179.918H834.496L827.862 152.215H825.148Z" fill="#A6A6A6"/>
<path d="M888.561 420.575L906.751 497.565L910.651 497.575L892.193 420.575H888.561Z" fill="#A6A6A6"/>
<path d="M804.287 63.9485L808.321 81.0447H810.797L806.701 63.9485H804.287Z" fill="#A6A6A6"/>
<path d="M808.661 82.4775L813.18 101.586H815.718L811.148 82.4775H808.661Z" fill="#A6A6A6"/>
<path d="M813.542 103.103L818.618 124.584H821.238L816.09 103.103H813.542Z" fill="#A6A6A6"/>
<path d="M800.325 47.2023L803.967 62.5857H806.371L802.687 47.2023H800.325Z" fill="#A6A6A6"/>
<path d="M819 126.194L824.736 150.491H827.45L821.62 126.194H819Z" fill="#A6A6A6"/>
<path d="M849.385 254.792L859.64 298.219H862.86L852.449 254.792H849.385Z" fill="#A6A6A6"/>
<path d="M860.219 300.644L872.424 352.314H875.829L863.438 300.644H860.219Z" fill="#A6A6A6"/>
<path d="M840.129 215.626L848.868 252.594H851.922L843.06 215.626H840.129Z" fill="#A6A6A6"/>
<path d="M900.519 103.134L910.424 124.615H913.065L903.077 103.134H900.519Z" fill="#A6A6A6"/>
<path d="M1046.97 420.667L1082.48 497.667H1086.41L1050.63 420.667H1046.97Z" fill="#A6A6A6"/>
<path d="M952.416 215.678L969.481 252.656H972.556L955.377 215.678H952.416Z" fill="#A6A6A6"/>
<path d="M970.492 254.853L990.519 298.279H993.758L973.577 254.853H970.492Z" fill="#A6A6A6"/>
<path d="M936.806 181.816L951.488 213.666H954.438L939.643 181.816H936.806Z" fill="#A6A6A6"/>
<path d="M923.166 152.257L935.949 179.96H938.776L925.9 152.257H923.166Z" fill="#A6A6A6"/>
<path d="M890.996 82.51L899.817 101.618L902.376 101.629L893.492 82.51H890.996Z" fill="#A6A6A6"/>
<path d="M911.167 126.235L922.371 150.532H925.106L913.808 126.235H911.167Z" fill="#A6A6A6"/>
<path d="M991.644 300.705L1015.48 352.386H1018.9L994.883 300.705H991.644Z" fill="#A6A6A6"/>
<path d="M882.452 63.9788L890.335 81.075H892.832L884.877 63.9788H882.452Z" fill="#A6A6A6"/>
<path d="M1016.73 355.1L1045.54 417.583H1049.19L1020.16 355.11L1016.73 355.1Z" fill="#A6A6A6"/>
<path d="M874.725 47.2239L881.823 62.6073H884.248L877.098 47.2239H874.725Z" fill="#A6A6A6"/>
<path d="M1021.2 152.297L1040.22 180H1043.08L1023.97 152.297H1021.2Z" fill="#A6A6A6"/>
<path d="M949.135 47.2542L959.69 62.6377H962.135L951.528 47.2542H949.135Z" fill="#A6A6A6"/>
<path d="M1064.72 215.72L1090.1 252.708H1093.21L1067.7 215.73L1064.72 215.72Z" fill="#A6A6A6"/>
<path d="M987.496 103.175L1002.24 124.656H1004.9L990.086 103.175H987.496Z" fill="#A6A6A6"/>
<path d="M960.629 63.9995L972.36 81.1061H974.867L963.074 63.9995H960.629Z" fill="#A6A6A6"/>
<path d="M1091.61 254.905L1121.41 298.342H1124.68L1094.73 254.905H1091.61Z" fill="#A6A6A6"/>
<path d="M1041.49 181.858L1063.34 213.718H1066.32L1044.36 181.868L1041.49 181.858Z" fill="#A6A6A6"/>
<path d="M1205.4 420.759L1258.25 497.769H1262.21L1209.1 420.759H1205.4Z" fill="#A6A6A6"/>
<path d="M1160.41 355.183L1203.29 417.666H1206.97L1163.87 355.183H1160.41Z" fill="#A6A6A6"/>
<path d="M1123.08 300.776L1158.54 352.457H1162L1126.36 300.776H1123.08Z" fill="#A6A6A6"/>
<path d="M973.34 82.5403L986.454 101.648L989.044 101.659L975.858 82.5403H973.34Z" fill="#A6A6A6"/>
<path d="M1003.34 126.266L1020.03 150.574H1022.78L1006.02 126.266H1003.34Z" fill="#A6A6A6"/>
<path d="M1363.86 420.843L1434.04 497.884H1438.06L1367.61 420.843H1363.86Z" fill="#A6A6A6"/>
<path d="M1038.8 64.0305L1054.38 81.1371H1056.93L1041.28 64.0305H1038.8Z" fill="#A6A6A6"/>
<path d="M1055.68 82.5717L1073.1 101.69H1075.72L1058.24 82.5717H1055.68Z" fill="#A6A6A6"/>
<path d="M1023.54 47.2854L1037.56 62.6689H1040.04L1025.97 47.2854H1023.54Z" fill="#A6A6A6"/>
<path d="M1304.1 355.254L1361.04 417.758H1364.79L1307.62 355.254H1304.1Z" fill="#A6A6A6"/>
<path d="M1254.54 300.84L1301.63 352.531L1305.13 352.541L1257.86 300.84H1254.54Z" fill="#A6A6A6"/>
<path d="M1177.04 215.771L1210.74 252.759L1213.89 252.77L1180.06 215.781L1177.04 215.771Z" fill="#A6A6A6"/>
<path d="M1212.74 254.968L1252.32 298.405H1255.64L1215.91 254.968H1212.74Z" fill="#A6A6A6"/>
<path d="M1074.48 103.207L1094.06 124.688H1096.76L1077.11 103.207H1074.48Z" fill="#A6A6A6"/>
<path d="M1146.18 181.908L1175.2 213.759H1178.23L1149.09 181.908H1146.18Z" fill="#A6A6A6"/>
<path d="M1119.24 152.337L1144.49 180.05H1147.39L1122.05 152.337H1119.24Z" fill="#A6A6A6"/>
<path d="M1095.53 126.307L1117.67 150.615H1120.47L1098.23 126.307H1095.53Z" fill="#A6A6A6"/>
<path d="M1116.97 64.0615L1136.4 81.1681H1139L1119.5 64.0615H1116.97Z" fill="#A6A6A6"/>
<path d="M1138.03 82.6017L1159.75 101.72H1162.42L1140.63 82.6017H1138.03Z" fill="#A6A6A6"/>
<path d="M1161.47 103.238L1185.88 124.729H1188.63L1164.14 103.238H1161.47Z" fill="#A6A6A6"/>
<path d="M1097.94 47.3051L1115.42 62.6989H1117.95L1100.41 47.3051H1097.94Z" fill="#A6A6A6"/>
<path d="M1289.35 215.822L1331.37 252.821H1334.59L1292.43 215.822H1289.35Z" fill="#A6A6A6"/>
<path d="M1333.88 255.019L1383.23 298.476H1386.6L1337.1 255.019H1333.88Z" fill="#A6A6A6"/>
<path d="M1217.29 152.379L1248.77 180.092H1251.72L1220.14 152.379H1217.29Z" fill="#A6A6A6"/>
<path d="M1250.87 181.95L1287.07 213.811H1290.14L1253.83 181.95H1250.87Z" fill="#A6A6A6"/>
<path d="M1385.99 300.902L1444.72 352.613H1448.29L1389.38 300.902H1385.99Z" fill="#A6A6A6"/>
<path d="M1187.71 126.339L1215.33 150.658H1218.18L1190.46 126.339H1187.71Z" fill="#A6A6A6"/>
<path d="M1195.15 64.093L1218.42 81.1996H1221.08L1197.73 64.093H1195.15Z" fill="#A6A6A6"/>
<path d="M1355.58 181.991L1398.94 213.862H1402.08L1358.6 181.991H1355.58Z" fill="#A6A6A6"/>
<path d="M1401.68 215.873L1448.33 250.159V247.765L1404.82 215.873H1401.68Z" fill="#A6A6A6"/>
<path d="M1248.47 103.278L1277.71 124.759L1280.51 124.769L1251.19 103.278H1248.47Z" fill="#A6A6A6"/>
<path d="M1220.38 82.634L1246.4 101.753H1249.12L1223.04 82.634H1220.38Z" fill="#A6A6A6"/>
<path d="M1315.34 152.421L1353.05 180.134H1356.06L1318.25 152.421H1315.34Z" fill="#A6A6A6"/>
<path d="M1279.91 126.38L1312.98 150.699H1315.89L1282.71 126.38H1279.91Z" fill="#A6A6A6"/>
<path d="M1172.35 47.337L1193.29 62.7308H1195.87L1174.87 47.337H1172.35Z" fill="#A6A6A6"/>
<path d="M1413.38 152.462L1448.33 174.5V172.581L1416.37 152.462H1413.38Z" fill="#A6A6A6"/>
<path d="M1335.46 103.31L1369.53 124.801H1372.4L1338.24 103.31H1335.46Z" fill="#A6A6A6"/>
<path d="M1273.32 64.1233L1300.45 81.2298H1303.16L1275.97 64.1233H1273.32Z" fill="#A6A6A6"/>
<path d="M1246.76 47.3564L1271.16 62.7503H1273.8L1249.34 47.3564H1246.76Z" fill="#A6A6A6"/>
<path d="M1302.73 82.6633L1333.04 101.792H1335.84L1305.44 82.6633H1302.73Z" fill="#A6A6A6"/>
<path d="M1372.09 126.41L1410.65 150.728H1413.62L1374.97 126.42L1372.09 126.41Z" fill="#A6A6A6"/>
<path d="M1422.45 103.341L1448.33 117.641V116.032L1425.32 103.341H1422.45Z" fill="#A6A6A6"/>
<path d="M1385.08 82.6946L1419.71 101.823H1422.57L1387.87 82.6946H1385.08Z" fill="#A6A6A6"/>
<path d="M1321.17 47.3889L1349.03 62.7827H1351.75L1323.81 47.3889H1321.17Z" fill="#A6A6A6"/>
<path d="M1351.5 64.144L1382.48 81.2609H1385.26L1354.21 64.144H1351.5Z" fill="#A6A6A6"/>
<path d="M1395.58 47.4094L1426.91 62.8136H1429.7L1398.3 47.4094H1395.58Z" fill="#A6A6A6"/>
<path d="M1429.69 64.176L1448.33 73.338V71.9555L1432.47 64.176H1429.69Z" fill="#A6A6A6"/>
<path d="M59.0897 46.9351L130.766 46.9661H133.407L205.156 46.9867H207.735L279.545 47.0073L282.063 47.0177L353.935 47.0383H356.411L428.335 47.0693H430.76L502.725 47.0899L505.118 47.1002L577.125 47.1208H579.498L651.525 47.1415L653.887 47.1518L725.925 47.1724H728.277L800.325 47.2034H802.687L874.725 47.224H877.098L949.135 47.255H951.529L1023.54 47.2859H1025.97L1097.94 47.3065H1100.41L1172.35 47.3375H1174.87L1246.76 47.3581H1249.34L1321.17 47.3891H1323.81L1395.58 47.4097H1398.3L1448.33 47.4303V46.1304L1395.65 46.1097H1392.92L1321.45 46.0891H1318.81L1247.27 46.0582H1244.69L1173.1 46.0375H1170.58L1098.94 46.0065H1096.46L1024.77 45.9859L1022.35 45.9756L950.631 45.9549H948.237L876.499 45.9343L874.126 45.924L802.378 45.9034H800.025L728.256 45.8724H725.914L654.156 45.8518H651.803L580.065 45.8208H577.702L505.985 45.8002H503.591L431.915 45.7692H429.491L357.845 45.7383H355.379L283.796 45.7177H281.279L209.757 45.6867H207.178L135.729 45.6661H133.087L61.7 45.6351H58.9865L-12.3079 45.6145H-14V46.9042L56.3762 46.9351H59.0897Z" fill="#A6A6A6"/>
<path d="M25.4647 63.6589L100.835 63.6898H103.548L178.99 63.7105L181.631 63.7208L257.146 63.7414H259.725L335.301 63.7724H337.829L413.457 63.8033H415.944L491.623 63.8239L494.079 63.8343L569.789 63.8549H572.213L647.955 63.8858H650.359L726.121 63.9168H728.525L804.287 63.9477H806.701L882.453 63.9787H884.877L960.629 63.9993H963.074L1038.79 64.0303H1041.28L1116.97 64.0612H1119.5L1195.15 64.0922H1197.73L1273.32 64.1231H1275.96L1351.5 64.1438H1354.21L1429.69 64.1748H1432.47L1448.33 64.1851V62.8232L1429.7 62.8128H1426.91L1351.75 62.7818H1349.03L1273.8 62.7509H1271.16L1195.87 62.7303H1193.29L1117.95 62.6993H1115.42L1040.04 62.6684H1037.56L962.135 62.6374H959.69L884.248 62.6065H881.823L806.371 62.5858H803.967L728.504 62.5549H726.1L650.648 62.5239H648.244L572.812 62.493H570.387L494.976 62.4723H492.531L417.151 62.4414H414.675L339.346 62.4104H336.818L261.541 62.3795H258.962L183.757 62.3589H181.116L105.973 62.3279H103.27L28.2092 62.2969H25.4234L-14 62.2866V63.6485L22.679 63.6589H25.4647Z" fill="#A6A6A6"/>
<path d="M67.7049 82.1997H70.4906L150.029 82.2307H152.742L232.342 82.2616H235.004L314.677 82.2926H317.266L397.001 82.3235H399.549L479.324 82.3545H481.842L561.659 82.3854H564.155L643.993 82.4164H646.469L726.327 82.4473H728.803L808.661 82.4783H811.148L890.996 82.5092H893.492L973.34 82.5402H975.858L1055.68 82.5711H1058.24L1138.03 82.6021H1140.63L1220.38 82.633H1223.04L1302.73 82.664H1305.44L1385.08 82.6949H1387.87L1448.33 82.7259V81.2814L1385.26 81.2608H1382.48L1303.16 81.2298H1300.45L1221.08 81.1989H1218.42L1139 81.1679H1136.4L1056.93 81.137H1054.38L974.867 81.106H972.36L892.832 81.0751H890.335L810.797 81.0441H808.321L728.783 81.0132H726.306L646.768 80.9822H644.292L564.775 80.9513H562.288L482.791 80.9203H480.274L400.818 80.8893H398.27L318.866 80.8584H316.265L236.913 80.8274H234.272L154.981 80.7965H152.268L73.0494 80.7655H70.2739L-8.86185 80.7346H-11.7198H-14V82.1688H-11.7508L67.7049 82.1997Z" fill="#A6A6A6"/>
<path d="M33.7085 102.803L117.807 102.834H120.593L204.753 102.865H207.487L291.72 102.896L294.392 102.907L378.676 102.938H381.307L465.643 102.969H468.233L552.61 103H555.179L639.587 103.041H642.136L726.564 103.072H729.102L813.542 103.103H816.09L900.519 103.134H903.077L987.496 103.175H990.085L1074.48 103.206H1077.11L1161.47 103.237H1164.14L1248.47 103.278H1251.19L1335.46 103.309H1338.24L1422.45 103.34H1425.32L1448.33 103.35V101.834L1422.57 101.823H1419.71L1335.84 101.792H1333.04L1249.12 101.751H1246.39L1162.42 101.72H1159.75L1075.72 101.689H1073.1L989.043 101.658L986.454 101.648L902.376 101.627L899.817 101.617L815.719 101.586H813.18L729.082 101.555H726.544L642.456 101.524L639.907 101.514L555.84 101.483H553.281L469.234 101.452H466.654L382.649 101.421H380.028L296.074 101.39H293.402L209.51 101.349H206.786L122.955 101.318H120.17L36.422 101.287H33.564L-14 101.266V102.783L30.8505 102.803H33.7085Z" fill="#A6A6A6"/>
<path d="M-7.45866 125.863L81.7264 125.894H84.605L173.873 125.936H176.679L266.019 125.977H268.774L358.175 126.008H360.879L450.332 126.049H452.994L542.489 126.08H545.13L634.655 126.121H637.276L726.822 126.152H729.443L819 126.193H821.62L911.166 126.235H913.808L1003.34 126.266H1006.02L1095.53 126.307H1098.23L1187.71 126.338H1190.46L1279.91 126.379H1282.71L1372.09 126.41L1374.97 126.42L1448.33 126.451V124.832L1372.4 124.801H1369.53L1280.51 124.77L1277.71 124.759L1188.63 124.728H1185.88L1096.76 124.687H1094.06L1004.9 124.656H1002.24L913.065 124.615H910.424L821.238 124.584H818.618L729.422 124.543H726.802L637.617 124.512H634.996L545.831 124.47H543.2L454.057 124.439L451.395 124.429L362.313 124.398H359.61L270.569 124.357H267.814L178.835 124.326H176.029L87.1122 124.285H84.2439L-4.59037 124.254H-7.53088L-14 124.243V125.863H-10.4095H-7.45866Z" fill="#A6A6A6"/>
<path d="M44.0467 151.895L139.061 151.936H141.971L237.057 151.977H239.905L335.064 152.018H337.86L433.071 152.049L435.826 152.06L531.077 152.091L533.812 152.101L629.094 152.132H631.808L727.111 152.173H729.825L825.149 152.215H827.862L923.166 152.256H925.9L1021.2 152.297H1023.97L1119.24 152.338H1122.05L1217.29 152.38H1220.14L1315.34 152.421H1318.25L1413.38 152.462H1416.37L1448.33 152.472V150.749L1413.62 150.729H1410.65L1315.89 150.698H1312.98L1218.18 150.657H1215.33L1120.47 150.615H1117.67L1022.78 150.574H1020.03L925.105 150.533H922.371L827.45 150.492H824.736L729.804 150.45H727.101L632.169 150.409H629.466L534.565 150.378L531.841 150.368L436.96 150.337L434.216 150.326L339.387 150.295L336.591 150.285L241.824 150.254L238.977 150.244L144.272 150.213H141.372L46.7292 150.172H43.7681L-14 150.141V151.864L41.0752 151.895H44.0467Z" fill="#A6A6A6"/>
<path d="M-2.01098 181.414L99.5346 181.455H102.547L204.175 181.507H207.126L308.816 181.548H311.715L413.467 181.589H416.325L518.118 181.631L520.956 181.641L622.78 181.682H625.597L727.452 181.723H730.268L832.123 181.775H834.94L936.806 181.816H939.643L1041.49 181.858L1044.36 181.868L1146.18 181.909H1149.09L1250.87 181.95H1253.83L1355.58 181.992H1358.6L1448.33 182.033V180.176L1356.06 180.135H1353.05L1251.72 180.093H1248.77L1147.39 180.052H1144.49L1043.08 180H1040.22L938.776 179.959H935.949L834.497 179.918H831.69L730.237 179.866H727.431L625.989 179.825H623.182L521.761 179.784H518.934L417.553 179.743L414.695 179.732L313.356 179.691H310.467L209.179 179.65H206.239L105.024 179.598H102.011L0.877939 179.557H-2.1967H-14V181.404L-5.09593 181.414H-2.01098Z" fill="#A6A6A6"/>
<path d="M57.3873 215.277L166.496 215.318L169.57 215.328L278.751 215.38H281.774L391.006 215.421H393.988L503.282 215.473H506.233L615.547 215.524H618.488L727.833 215.576H730.764L840.13 215.627H843.06L952.416 215.679H955.377L1064.72 215.72L1067.7 215.73L1177.04 215.772L1180.06 215.782L1289.35 215.823H1292.43L1401.68 215.875H1404.82L1448.33 215.896V213.884L1402.08 213.863H1398.94L1290.14 213.811H1287.07L1178.23 213.76H1175.2L1066.32 213.719H1063.34L954.438 213.667H951.487L842.575 213.615H839.655L730.733 213.564H727.813L618.911 213.512H615.981L507.099 213.471H504.159L395.319 213.419H392.337L283.548 213.368H280.536L171.799 213.316H168.735L60.0699 213.265H56.9333L-14 213.234V215.246L54.2507 215.277H57.3873Z" fill="#A6A6A6"/>
<path d="M5.1391 254.4L122.904 254.451L126.123 254.462L243.97 254.513H247.127L365.026 254.565H368.142L486.103 254.627H489.188L607.19 254.678H610.254L728.277 254.74H731.341L849.385 254.792H852.449L970.492 254.854H973.577L1091.61 254.905H1094.73L1212.74 254.967H1215.91L1333.88 255.019H1337.1L1448.33 255.07V252.873L1334.59 252.821H1331.37L1213.89 252.77L1210.74 252.759L1093.21 252.708H1090.1L972.556 252.656H969.481L851.923 252.594H848.869L731.31 252.543H728.256L610.719 252.491L607.654 252.481L490.148 252.429H487.063L369.597 252.377H366.481L249.067 252.316H245.92L128.558 252.264H125.359L8.06929 252.202H4.79862L-14 252.192V254.389L1.86843 254.4H5.1391Z" fill="#A6A6A6"/>
<path d="M75.278 300.262L203.257 300.324H206.579L334.62 300.385H337.891L466.004 300.447H469.244L597.399 300.509L600.618 300.52L728.803 300.581H732.022L860.218 300.643H863.437L991.643 300.705H994.883L1123.08 300.778H1126.36L1254.54 300.839H1257.86L1385.99 300.901H1389.38L1448.33 300.932V298.508L1386.6 298.477H1383.23L1255.64 298.404H1252.32L1124.68 298.343H1121.41L993.759 298.281H990.519L862.86 298.219H859.64L731.981 298.146H728.772L601.123 298.085H597.915L470.297 298.023H467.067L339.501 297.961H336.23L208.725 297.889H205.413L77.9708 297.827H74.597L-14 297.785V300.21L71.8938 300.262H75.278Z" fill="#A6A6A6"/>
<path d="M14.9614 354.584L154.961 354.656H158.479L298.55 354.728H302.017L442.161 354.811H445.586L585.781 354.883H589.186L729.412 354.955H732.817L873.074 355.028H876.479L1016.73 355.1L1020.16 355.11L1160.41 355.182H1163.87L1304.1 355.255H1307.62L1447.81 355.327H1448.33V352.613H1448.29H1444.72L1305.13 352.541L1301.62 352.531L1162 352.459H1158.54L1018.9 352.386H1015.48L875.829 352.314H872.424L732.776 352.242H729.381L589.753 352.17H586.359L446.772 352.097H443.347L303.802 352.015H300.356L160.883 351.943H157.375L17.9742 351.87H14.4043L-14 351.85V354.574L11.3812 354.584H14.9614Z" fill="#A6A6A6"/>
<path d="M100.504 420.143L255.082 420.225L258.776 420.236L413.426 420.318H417.078L571.78 420.401L575.412 420.411L730.155 420.493H733.787L888.561 420.576H892.192L1046.97 420.669H1050.63L1205.4 420.762H1209.1L1363.86 420.844H1367.61L1448.33 420.886V417.811L1364.79 417.759H1361.04L1206.97 417.666H1203.29L1049.19 417.584H1045.54L891.45 417.501H887.828L733.745 417.409H730.124L576.062 417.326H572.441L418.42 417.233H414.778L260.809 417.151H257.125L103.228 417.068H99.5036L-14 417.006V420.081L96.7695 420.143H100.504Z" fill="#A6A6A6"/>
</g>
</g>
<rect width="1438" height="473" transform="translate(2)" fill="url(#paint0_linear_1_439)"/>
<defs>
<linearGradient id="paint0_linear_1_439" x1="719" y1="0" x2="719" y2="473" gradientUnits="userSpaceOnUse">
<stop stop-opacity="0.9"/>
<stop offset="1" stop-opacity="0"/>
</linearGradient>
<clipPath id="clip0_1_439">
<rect width="1462" height="643" fill="white" transform="translate(-14 47)"/>
</clipPath>
</defs>
</svg>
