<svg width="134" height="140" viewBox="0 0 134 140" fill="none" xmlns="http://www.w3.org/2000/svg">
<g clip-path="url(#clip0_1240_5668)">
<path opacity="0.3" d="M1.04671 81.4992L61.6521 46.5091C61.8087 46.4004 61.9373 46.2562 62.0275 46.0883C62.1178 45.9204 62.1671 45.7336 62.1715 45.5431V1.28223C62.1715 0.91348 61.943 0.762864 61.6521 0.903095L1.04671 35.8932C0.891069 36.0028 0.7631 36.1472 0.672949 36.3148C0.582799 36.4825 0.532946 36.6689 0.527344 36.8592V81.12C0.542925 81.4888 0.771448 81.6602 1.04671 81.4992Z" fill="#0962FF"/>
<path d="M7.51798 44.3642C7.78584 44.4875 8.08147 44.538 8.37507 44.5107C8.66868 44.4833 8.94988 44.379 9.19036 44.2084L44.6582 23.7348C46.0917 22.9038 47.2551 20.6549 47.2551 18.7384C47.2551 17.6581 46.8811 16.905 46.2942 16.5986C46.0274 16.4761 45.7331 16.4255 45.4406 16.4519C45.1481 16.4783 44.8676 16.5808 44.6271 16.7492L9.16958 37.254C7.73093 38.085 6.57273 40.3287 6.57273 42.2452C6.55715 43.3099 6.93629 44.063 7.51798 44.3642Z" fill="#0962FF"/>
<path d="M57.2737 25.7655C57.0068 25.6429 56.7125 25.5923 56.42 25.6188C56.1276 25.6452 55.8471 25.7477 55.6065 25.9161L11.5119 51.3653C10.0732 52.1963 8.91504 54.44 8.91504 56.3564C8.91504 57.4419 9.28899 58.195 9.87588 58.4963C10.1437 58.6196 10.4394 58.6701 10.733 58.6427C11.0266 58.6154 11.3078 58.5111 11.5483 58.3405L55.6377 32.8912C57.0763 32.0603 58.2345 29.8166 58.2345 27.8949C58.2345 26.8198 57.8346 26.0667 57.2737 25.7655Z" fill="#0962FF"/>
<path d="M11.3977 45.2871L11.3976 45.2871C10.7403 45.6668 10.2096 45.6252 9.847 45.3489C9.4676 45.0598 9.19035 44.4542 9.19035 43.5384C9.19035 42.6295 9.46989 41.6317 9.92572 40.7571C10.3824 39.8808 11.0019 39.1549 11.6585 38.7663C11.6589 38.766 11.6593 38.7658 11.6597 38.7656L47.1252 18.2933L47.1256 18.2931C47.7799 17.9138 48.3107 17.955 48.6741 18.2315C49.0542 18.5208 49.3326 19.1265 49.3325 20.042L49.3326 20.0441C49.3399 20.9521 49.0632 21.9517 48.6069 22.8272C48.1495 23.705 47.5262 24.4304 46.8653 24.8136C46.8652 24.8137 46.8652 24.8137 46.8651 24.8137L11.3977 45.2871Z" fill="#0962FF" stroke="#141414" stroke-width="0.519371"/>
<path d="M11.3976 70.9648L11.3977 70.9648L39.729 54.61L11.3976 70.9648ZM11.3976 70.9648C10.7403 71.3445 10.2096 71.3029 9.847 71.0266C9.4676 70.7375 9.19035 70.1319 9.19035 69.2161C9.19035 68.3072 9.46989 67.3094 9.92572 66.4347C10.3824 65.5585 11.0019 64.8326 11.6585 64.444C11.6589 64.4437 11.6593 64.4435 11.6597 64.4432L39.989 48.0896L39.9895 48.0894M11.3976 70.9648L39.9895 48.0894M39.9895 48.0894C40.6437 47.7101 41.1744 47.7513 41.5377 48.0284C41.9179 48.3182 42.1964 48.9252 42.1964 49.8435L42.1964 49.8456M39.9895 48.0894L42.1964 49.8456M42.1964 49.8456C42.2038 50.7535 41.9271 51.7518 41.4708 52.626M42.1964 49.8456L41.4708 52.626M41.4708 52.626C41.0135 53.5022 40.3904 54.2264 39.7294 54.6098L41.4708 52.626Z" fill="white" stroke="#141414" stroke-width="0.519371"/>
<path d="M11.3977 58.1208L11.3976 58.1209C10.7403 58.5005 10.2096 58.459 9.847 58.1827C9.4676 57.8935 9.19035 57.288 9.19035 56.3721C9.19035 55.4632 9.46989 54.4654 9.92572 53.5908C10.3824 52.7145 11.002 51.9886 11.6586 51.6C11.6589 51.5997 11.6593 51.5995 11.6597 51.5993L55.7468 26.1515L55.7468 26.1514C56.4042 25.7717 56.9349 25.8133 57.2975 26.0896C57.6769 26.3787 57.9541 26.9843 57.9541 27.9002L57.9541 27.903C57.964 28.8133 57.6886 29.8113 57.2324 30.6852C56.7753 31.5612 56.1508 32.2857 55.4868 32.6718C55.4867 32.6719 55.4865 32.6719 55.4864 32.672L11.3977 58.1208Z" fill="#86B2FF" stroke="#141414" stroke-width="0.519371"/>
</g>
<rect x="0.576579" width="73.9012" height="73.9012" rx="7.65643" transform="matrix(0.866025 -0.500001 0.866025 0.500001 4.38096 103.005)" fill="#141414" stroke="#0962FF" stroke-width="0.665776"/>
<rect x="0.576579" width="73.9012" height="73.9012" rx="7.65643" transform="matrix(0.866025 -0.500001 0.866025 0.500001 4.38096 95.6814)" fill="#86B2FF" stroke="#0962FF" stroke-width="0.665776"/>
<path d="M8.65039 102.372V95.3662C8.65039 96.143 9.38274 98.0959 12.3122 99.6938C15.2416 101.292 16.1959 101.913 16.3068 102.024V109.214L10.3148 105.686C10.0026 105.452 9.43775 104.921 9.03752 104.256C8.70067 103.696 8.65039 103.025 8.65039 102.372Z" fill="#0962FF" stroke="#0962FF" stroke-width="0.665777"/>
<path d="M128.956 95.3662V103.023" stroke="#0962FF" stroke-width="0.665777"/>
<path d="M61.5791 128.322V135.313" stroke="#0962FF" stroke-width="0.665777"/>
<path d="M76.2266 127.989V135.313" stroke="#0962FF" stroke-width="0.665777"/>
<path d="M124.495 103.055V100.36C124.495 100.36 126.25 99.5199 127.158 98.6952C127.915 98.0073 128.717 96.5468 129.025 95.9556C129.058 95.893 129.155 95.9169 129.155 95.9875V101.864C129.155 102.85 129.05 103.877 128.49 104.687C127.774 105.721 126.611 106.334 125.523 106.963L88.543 128.322L121.976 107.581C123.542 106.61 124.495 104.898 124.495 103.055Z" fill="#0962FF" stroke="#0962FF" stroke-width="0.665777"/>
<path d="M21.2998 112.144V105.153L26.626 108.482V115.14L21.2998 112.144Z" fill="#0962FF" stroke="#0962FF" stroke-width="0.665777"/>
<g clip-path="url(#clip1_1240_5668)">
<path opacity="0.3" d="M126.416 81.5119L76.6369 52.7701C76.5089 52.6801 76.4041 52.5608 76.3314 52.4222C76.2586 52.2836 76.22 52.1296 76.2188 51.9731V0.363646C76.2188 0.0586138 76.4057 -0.0840621 76.6369 0.0487743L126.416 28.7956C126.544 28.8851 126.648 29.0036 126.721 29.1413C126.793 29.279 126.832 29.432 126.834 29.5877V81.1971C126.834 81.5021 126.647 81.6399 126.416 81.5119Z" fill="#0962FF"/>
<path d="M100.566 52.9967C94.574 49.1199 89.8263 40.6331 89.8263 33.6125C89.8263 30.8623 90.5594 28.732 91.7943 27.3347C92.389 27.1119 93.0147 26.9825 93.6491 26.951L93.3391 26.1097C94.1007 25.7118 94.9406 25.4867 95.799 25.4504L92.9947 17.8689C91.6877 17.916 90.4074 18.2521 89.2458 18.8529C89.2458 18.8529 86.4021 20.3288 85.1721 21.7704C83.0369 23.8613 81.7676 27.2363 81.7676 31.6937C81.7676 42.3256 88.9506 55.1615 98.0031 61.0358L98.1655 58.0839C98.8198 58.5759 99.484 59.0679 100.163 59.5156L100.566 52.9967Z" fill="#0962FF"/>
<path d="M98.407 54.5024L100.562 52.9969C100.766 53.141 101.006 53.2806 101.231 53.4118C101.244 53.4195 101.257 53.4271 101.27 53.4347C104.055 55.0435 106.628 55.3683 108.596 54.6008L115.361 36.717C117.393 41.1695 118.593 45.8778 118.593 50.2172C118.593 56.0472 116.433 60.0421 112.985 61.7247C109.821 64.7554 104.788 65.0014 99.1106 61.7247M98.407 54.5024L98.043 61.0655M98.407 54.5024L98.6526 54.516L98.646 54.6355M98.407 54.5024L98.5479 54.704L98.646 54.6355M98.043 61.0655C98.3972 61.2918 98.7514 61.5132 99.1106 61.7247M98.043 61.0655L98.1754 60.8582C98.2158 60.884 98.2562 60.9097 98.2966 60.9354M98.043 61.0655L98.2886 61.0791L98.2966 60.9354M99.1106 61.7247L99.2335 61.5117C99.2338 61.5118 99.2342 61.512 99.2345 61.5122M99.1106 61.7247L99.2354 61.5128C99.2351 61.5126 99.2348 61.5124 99.2345 61.5122M98.646 54.6355L100.564 53.2954C100.741 53.4107 100.93 53.5213 101.105 53.6228C101.119 53.631 101.133 53.6392 101.146 53.6472L101.147 53.6478C103.972 55.2795 106.625 55.6335 108.685 54.8299L108.741 54.8084L108.78 54.764C110.071 53.309 110.81 51.1138 110.81 48.3328H110.81L110.81 48.3266C110.733 45.3018 110.04 42.3254 108.774 39.5796L111.017 39.0221L111.295 38.9531L111.185 38.6888C111.099 38.483 111.013 38.2793 110.925 38.076L115.221 37.0053C117.191 41.3784 118.347 45.981 118.347 50.2172C118.347 55.9921 116.211 59.877 112.877 61.5036L112.842 61.5205L112.814 61.5471C109.76 64.4737 104.858 64.7571 99.2345 61.5122M98.646 54.6355L98.2966 60.9354M98.2966 60.9354C98.6086 61.1336 98.9199 61.3269 99.2345 61.5122" fill="white" stroke="#141414" stroke-width="0.491987"/>
<path d="M101.152 20.4337L101.152 20.4337C106.85 23.7224 111.916 29.8627 115.051 36.6328L113.097 37.9947L108.561 39.1251C106.463 34.619 103.08 30.5155 99.242 28.295C97.6187 27.2748 95.7453 26.7251 93.8303 26.7054L91.1559 19.4673L93.0962 18.1118C95.4776 18.0232 98.2203 18.7413 101.152 20.4337Z" fill="#86B2FF" stroke="#141414" stroke-width="0.491987"/>
<path d="M97.8115 60.6239C93.4686 57.7016 89.571 53.165 86.736 48.059C83.8236 42.8136 82.0438 36.9876 82.0438 31.7233C82.0438 27.9645 82.9478 25.002 84.4959 22.9518C86.0048 20.9535 88.1375 19.805 90.6927 19.6307L93.3158 26.7302C91.6062 26.901 90.1619 27.7088 89.132 29.0726C88.0401 30.5185 87.4262 32.5717 87.4262 35.118C87.4262 38.6799 88.6291 42.5977 90.5781 46.1084C92.5017 49.5732 95.1629 52.6614 98.144 54.6303L97.8115 60.6239Z" fill="#0962FF" stroke="#141414" stroke-width="0.491987"/>
<path d="M98.9919 21.9392L98.992 21.9392C104.672 25.2146 109.715 31.3089 112.853 38.0556L108.561 39.1251C106.463 34.619 103.08 30.5155 99.242 28.295C97.6187 27.2748 95.7453 26.7251 93.8303 26.7054L91.2089 19.6107C93.5269 19.5835 96.1696 20.3098 98.9919 21.9392Z" fill="#86B2FF" stroke="#141414" stroke-width="0.491987"/>
<path d="M110.809 48.3266C110.732 45.3017 110.039 42.3253 108.773 39.5795L113.061 38.5108C115.03 42.884 116.191 47.4867 116.191 51.7227C116.191 57.1934 114.272 60.9721 111.239 62.7226C108.207 64.473 103.975 64.2459 99.2382 61.5121C98.9238 61.3269 98.6125 61.1336 98.3005 60.9354L98.633 54.9415C98.7406 55.007 98.849 55.0702 98.9515 55.13C98.9646 55.1376 98.9776 55.1452 98.9905 55.1527L98.9915 55.1533C102.197 57.0044 105.158 57.2102 107.332 55.9546C109.507 54.6991 110.809 52.0328 110.809 48.3329H110.809L110.809 48.3266Z" fill="white" stroke="#141414" stroke-width="0.491987"/>
<path d="M107.489 44.4166C107.489 40.215 104.537 35.0983 100.896 32.9975C98.997 31.9004 97.2898 31.8512 96.0893 32.6384L94.082 33.9176L94.574 34.7687C94.3757 35.4325 94.2795 36.1226 94.2887 36.8154C94.2887 41.0169 97.2406 46.1336 100.881 48.2344C101.577 48.6506 102.345 48.9342 103.144 49.0708L103.636 49.8776L105.398 48.7707C105.59 48.6729 105.773 48.5576 105.944 48.4263C106.918 47.6342 107.489 46.2664 107.489 44.4166Z" fill="#0962FF"/>
<path d="M103.564 39.1551C104.834 41.3541 105.462 43.6319 105.462 45.5295C105.462 47.4347 104.833 48.9037 103.654 49.5843C102.476 50.2649 100.889 50.075 99.239 49.1224C97.5956 48.1735 95.9372 46.4904 94.6676 44.2914C93.398 42.0924 92.7696 39.8146 92.7695 37.9169C92.7695 36.0117 93.3984 34.5428 94.5772 33.8622C95.756 33.1816 97.3426 33.3714 98.9925 34.3241C100.636 35.273 102.294 36.956 103.564 39.1551Z" fill="#86B2FF" stroke="#141414" stroke-width="0.491987"/>
</g>
<g clip-path="url(#clip2_1240_5668)">
<path d="M97.4413 85.335V85.5846H97.4457C97.3693 85.9824 97.0397 86.4239 96.3716 86.822C96.3712 86.8222 96.3707 86.8225 96.3702 86.8228L71.031 101.451C71.0307 101.452 71.0303 101.452 71.03 101.452C70.3212 101.853 69.4317 102.081 68.5633 102.117C67.6919 102.154 66.8696 101.998 66.2868 101.662L40.2242 86.6164L40.2135 86.6102L40.2022 86.6051C39.99 86.5093 39.8105 86.3535 39.6858 86.1569C39.5611 85.9603 39.4967 85.7315 39.5004 85.4988H39.5004V85.4948V80.3132V80.3028L39.4995 80.2924C39.496 80.2502 39.4957 80.2078 39.4987 80.1655C39.5529 79.8732 39.6767 79.5981 39.8598 79.3636C40.0453 79.1259 40.286 78.9372 40.5611 78.8137L40.5727 78.8085L40.5837 78.8021L65.9058 64.1719C65.9061 64.1717 65.9064 64.1715 65.9067 64.1714C66.6156 63.7699 67.505 63.5426 68.3733 63.5065C69.2445 63.4703 70.0666 63.6277 70.6494 63.9659L70.6499 63.9662L96.7125 79.0118L96.723 79.0179L96.7341 79.0229C96.9383 79.1157 97.1127 79.2636 97.2376 79.4499C97.3618 79.635 97.4323 79.8508 97.4413 80.0735V85.335Z" fill="#86B2FF" stroke="#141414" stroke-width="0.49919"/>
<path d="M66.2703 96.3025L66.2672 96.3007L40.2051 81.2554C40.2049 81.2554 40.2048 81.2553 40.2046 81.2552C39.6286 80.9207 39.4284 80.4969 39.4776 80.1006C39.5291 79.6854 39.864 79.2055 40.5638 78.8023L40.564 78.8022L65.9061 64.1719C65.9064 64.1717 65.9067 64.1716 65.907 64.1714C66.6158 63.7699 67.5053 63.5426 68.3736 63.5065C69.2448 63.4703 70.0669 63.6277 70.6496 63.9659L70.6501 63.9662L96.7128 79.0218L96.713 79.0219C97.2889 79.3539 97.4889 79.7764 97.4398 80.172C97.3883 80.5866 97.0534 81.0664 96.3536 81.4697L96.3534 81.4698L71.0108 96.1003C71.0105 96.1005 71.0103 96.1007 71.01 96.1008C70.3136 96.4972 69.4241 96.7283 68.5525 96.7667C67.6778 96.8053 66.8513 96.6488 66.2703 96.3025Z" fill="white" stroke="#141414" stroke-width="0.49919"/>
<path d="M68.4584 75.9608L60.2502 71.2208V52.0214L68.4584 47.2814L76.6667 52.0214V71.2208L68.4584 75.9608Z" fill="#86B2FF" stroke="#141414" stroke-width="0.336336"/>
<path d="M76.6672 71.2208L68.6272 75.8637V47.3785L76.6672 52.0214V71.2208Z" fill="#0962FF" stroke="#141414" stroke-width="0.336336"/>
<path d="M68.4584 56.5623L60.4184 51.9242L68.4584 47.2814L76.4984 51.9242L68.4584 56.5623Z" fill="white" stroke="#141414" stroke-width="0.336336"/>
<path d="M52.4448 84.2624L44.2365 79.5223V64.2416L52.4448 59.5016L60.653 64.2416V79.5223L52.4448 84.2624Z" fill="#86B2FF" stroke="#141414" stroke-width="0.336336"/>
<path d="M60.6535 79.5223L52.6135 84.1653V59.5987L60.6535 64.2416V79.5223Z" fill="#0962FF" stroke="#141414" stroke-width="0.336336"/>
<path d="M52.4448 68.7875L44.4046 64.1445L52.4448 59.5016L60.4849 64.1445L52.4448 68.7875Z" fill="white" stroke="#141414" stroke-width="0.336336"/>
<path d="M82.2768 85.4054L74.0686 80.6654V65.1551L82.2768 60.42L90.48 65.1551V80.6655L82.2768 85.4054Z" fill="#86B2FF" stroke="#141414" stroke-width="0.336336"/>
<path d="M90.4806 80.6655L82.4455 85.3083V60.5171L90.4806 65.1551V80.6655Z" fill="#0962FF" stroke="#141414" stroke-width="0.336336"/>
<path d="M82.2768 69.7009L74.2368 65.0581L82.2768 60.42L90.3119 65.0581L82.2768 69.7009Z" fill="white" stroke="#141414" stroke-width="0.336336"/>
<path d="M68.4584 92.7486L60.2502 88.0085V75.3935L68.4584 70.6584L76.6667 75.3935V88.0085L68.4584 92.7486Z" fill="#86B2FF" stroke="#141414" stroke-width="0.336336"/>
<path d="M76.6672 88.0085L68.6272 92.6514V70.7554L76.6672 75.3935V88.0085Z" fill="#0962FF" stroke="#141414" stroke-width="0.336336"/>
<path d="M68.4584 79.9393L60.4184 75.2965L68.4584 70.6584L76.4984 75.2965L68.4584 79.9393Z" fill="white" stroke="#141414" stroke-width="0.336336"/>
</g>
<g clip-path="url(#clip3_1240_5668)">
<path d="M81.1962 92.8862H81.0308L80.9503 93.0306L69.182 114.153L69.1464 114.217V114.29V123.564C62.183 124.248 54.7851 123.039 49.4425 119.95L49.4423 119.95C45.0638 117.424 42.9363 114.176 42.9363 110.936V101.632H42.9365L42.9361 101.623C42.8228 98.3306 44.9417 94.9569 49.4311 92.3645L49.4312 92.3645C53.8076 89.837 59.5615 88.5652 65.3305 88.5652C71.0995 88.5652 76.8532 89.837 81.2296 92.3643C81.5234 92.5354 81.8067 92.7094 82.0805 92.8862H81.1962Z" fill="white" stroke="#141414" stroke-width="0.562811"/>
<path d="M87.7301 110.716H87.73L87.7302 110.724C87.822 114.005 85.7086 117.368 81.2373 119.988C77.67 121.939 73.7471 123.149 69.7033 123.549V114.363L81.3612 93.4379H82.9114C86.2382 95.856 87.8106 98.7492 87.7302 101.591L87.7301 101.591V101.599V110.716Z" fill="#0962FF" stroke="#141414" stroke-width="0.562811"/>
<path d="M42.9337 101.382C42.9337 98.1666 45.0588 94.8934 49.4365 92.365C49.8181 92.147 50.2135 91.9375 50.6188 91.7366L65.0977 101.557L69.0494 114.017C62.1128 114.681 54.7562 113.469 49.437 110.399C45.0589 107.871 42.9337 104.598 42.9337 101.382Z" fill="white" stroke="#141414" stroke-width="0.562811"/>
<path d="M65.3277 101.033L51.2045 91.4537C59.1117 87.7526 70.3566 87.6128 78.5415 91.0404L65.3277 101.033Z" fill="#86B2FF" stroke="#141414" stroke-width="0.562811"/>
<path d="M65.6923 101.507L79.1629 91.3195C79.8707 91.6339 80.5628 91.9829 81.2364 92.3652C85.6138 94.8935 87.7388 98.1667 87.7388 101.386C87.7388 104.604 85.6143 107.884 81.2381 110.426C77.6454 112.385 73.6941 113.597 69.6223 113.989L65.6923 101.507Z" fill="#0962FF" stroke="#141414" stroke-width="0.562811"/>
</g>
<path opacity="0.8" d="M124.853 92.2109C124.853 92.2109 123.668 74.8003 121.132 76.282C118.595 77.7637 119.821 87.9462 117.189 89.4639C114.556 90.9817 116.011 64.1941 112.1 66.4512C109.293 68.0741 110.189 77.0304 107.685 78.473C104.872 80.0989 105.359 75.6448 103.177 76.9011C100.995 78.1574 100.995 83.8137 98.9696 84.7333C96.944 85.653 97.9057 65.3602 94.6989 67.2146C91.4921 69.0689 90.5123 112.065 90.5123 112.065L124.853 92.2109Z" fill="#0962FF"/>
<path d="M120.619 76.1948C120.618 76.3383 120.66 76.4788 120.74 76.5984C120.819 76.7179 120.932 76.8112 121.064 76.8664C121.197 76.9216 121.343 76.9362 121.484 76.9084C121.624 76.8805 121.754 76.8115 121.855 76.71C121.957 76.6085 122.026 76.4792 122.054 76.3384C122.081 76.1976 122.067 76.0517 122.012 75.9193C121.956 75.7868 121.863 75.6737 121.744 75.5943C121.624 75.515 121.484 75.4729 121.34 75.4735C121.149 75.4735 120.965 75.5495 120.83 75.6848C120.695 75.8201 120.619 76.0035 120.619 76.1948Z" fill="white"/>
<path d="M111.803 66.3069C111.803 66.4495 111.846 66.589 111.925 66.7076C112.004 66.8262 112.117 66.9187 112.249 66.9733C112.381 67.0279 112.526 67.0422 112.666 67.0143C112.805 66.9865 112.934 66.9178 113.035 66.8169C113.136 66.716 113.204 66.5875 113.232 66.4476C113.26 66.3077 113.246 66.1626 113.191 66.0308C113.137 65.899 113.044 65.7864 112.926 65.7071C112.807 65.6279 112.667 65.5856 112.525 65.5856C112.333 65.5856 112.15 65.6616 112.015 65.7968C111.879 65.9321 111.803 66.1156 111.803 66.3069Z" fill="white"/>
<path d="M103.154 76.7118C103.153 76.8553 103.195 76.9958 103.275 77.1153C103.354 77.2349 103.467 77.3282 103.6 77.3834C103.732 77.4386 103.878 77.4532 104.019 77.4253C104.16 77.3975 104.289 77.3284 104.39 77.227C104.492 77.1255 104.561 76.9961 104.589 76.8554C104.617 76.7146 104.602 76.5687 104.547 76.4362C104.492 76.3038 104.398 76.1907 104.279 76.1113C104.159 76.0319 104.019 75.9899 103.875 75.9905C103.684 75.9905 103.5 76.0665 103.365 76.2018C103.23 76.337 103.154 76.5205 103.154 76.7118Z" fill="white"/>
<path d="M94.4138 67.1453C94.4144 67.2879 94.4572 67.427 94.5369 67.5452C94.6165 67.6635 94.7293 67.7555 94.8612 67.8096C94.993 67.8637 95.138 67.8776 95.2777 67.8494C95.4174 67.8212 95.5457 67.7523 95.6462 67.6513C95.7468 67.5503 95.8152 67.4218 95.8428 67.2819C95.8704 67.1421 95.8559 66.9972 95.8013 66.8656C95.7466 66.734 95.6541 66.6215 95.5356 66.5424C95.417 66.4633 95.2777 66.421 95.1351 66.421C95.0402 66.421 94.9461 66.4398 94.8584 66.4762C94.7707 66.5126 94.6911 66.566 94.624 66.6333C94.557 66.7006 94.504 66.7805 94.4679 66.8684C94.4318 66.9562 94.4134 67.0504 94.4138 67.1453Z" fill="white"/>
<path opacity="0.4" d="M121.339 94.3928C121.379 94.3928 121.417 94.377 121.445 94.3488C121.473 94.3206 121.489 94.2824 121.489 94.2426V76.2098C121.489 76.17 121.473 76.1318 121.445 76.1036C121.417 76.0754 121.379 76.0596 121.339 76.0596C121.299 76.0596 121.261 76.0754 121.233 76.1036C121.205 76.1318 121.189 76.17 121.189 76.2098V94.2426C121.189 94.2822 121.206 94.3199 121.234 94.348C121.262 94.376 121.299 94.3921 121.339 94.3928Z" fill="white"/>
<path opacity="0.4" d="M112.526 99.4811C112.565 99.4811 112.604 99.4652 112.632 99.4371C112.66 99.4089 112.676 99.3707 112.676 99.3308V66.3069C112.676 66.267 112.66 66.2288 112.632 66.2006C112.604 66.1724 112.565 66.1566 112.526 66.1566C112.486 66.1566 112.447 66.1724 112.419 66.2006C112.391 66.2288 112.375 66.267 112.375 66.3069V99.3368C112.377 99.3756 112.393 99.4123 112.421 99.4392C112.449 99.4661 112.487 99.4811 112.526 99.4811Z" fill="white"/>
<path opacity="0.4" d="M103.875 104.488C103.915 104.488 103.953 104.472 103.981 104.444C104.01 104.416 104.025 104.378 104.025 104.338V76.7118C104.025 76.6719 104.01 76.6337 103.981 76.6055C103.953 76.5774 103.915 76.5615 103.875 76.5615C103.835 76.5615 103.797 76.5774 103.769 76.6055C103.741 76.6337 103.725 76.6719 103.725 76.7118V104.338C103.726 104.378 103.742 104.415 103.77 104.443C103.798 104.471 103.836 104.487 103.875 104.488Z" fill="white"/>
<path opacity="0.4" d="M95.1349 109.501C95.1747 109.501 95.213 109.486 95.2411 109.457C95.2693 109.429 95.2852 109.391 95.2852 109.351V67.2086C95.2852 67.1688 95.2693 67.1305 95.2411 67.1024C95.213 67.0742 95.1747 67.0583 95.1349 67.0583C95.095 67.0583 95.0568 67.0742 95.0286 67.1024C95.0004 67.1305 94.9846 67.1688 94.9846 67.2086V109.351C94.9846 109.391 95.0004 109.429 95.0286 109.457C95.0568 109.486 95.095 109.501 95.1349 109.501Z" fill="white"/>
<path d="M33.553 100.06C27.3664 100.06 22.3511 94.802 22.3511 88.3158C22.3511 81.8296 27.3664 76.5715 33.553 76.5715C39.7396 76.5715 44.7549 81.8296 44.7549 88.3158C44.7549 94.802 39.7396 100.06 33.553 100.06Z" fill="#0962FF" stroke="#141414" stroke-width="0.276493" stroke-miterlimit="10"/>
<path d="M32.3919 99.1642C26.2052 99.1642 21.19 93.9061 21.19 87.4199C21.19 80.9337 26.2052 75.6757 32.3919 75.6757C38.5785 75.6757 43.5938 80.9337 43.5938 87.4199C43.5938 93.9061 38.5785 99.1642 32.3919 99.1642Z" fill="white" stroke="#141414" stroke-width="0.276493" stroke-miterlimit="10"/>
<path d="M27.7441 90.197H29.5763C29.5763 91.1863 30.8313 92.0291 32.3245 92.0291C33.8177 92.0291 35.0727 91.1863 35.0727 90.197C35.0727 89.1893 34.12 88.8228 32.1046 88.3373C30.1626 87.8518 27.7441 87.2472 27.7441 84.7005C27.7441 83.0607 29.0908 81.6682 30.9504 81.201V79.204H33.6986V81.201C35.5582 81.6682 36.9048 83.0607 36.9048 84.7005H35.0727C35.0727 83.7111 33.8177 82.8683 32.3245 82.8683C30.8313 82.8683 29.5763 83.7111 29.5763 84.7005C29.5763 85.7082 30.529 86.0746 32.5443 86.5601C34.4864 87.0456 36.9048 87.6503 36.9048 90.197C36.9048 91.8368 35.5582 93.2292 33.6986 93.6964V95.6935H30.9504V93.6964C29.0908 93.2292 27.7441 91.8368 27.7441 90.197Z" fill="#141414"/>
<defs>
<clipPath id="clip0_1240_5668">
<rect width="61.6182" height="80.7207" fill="white" transform="translate(0.542969 0.84082)"/>
</clipPath>
<clipPath id="clip1_1240_5668">
<rect width="50.6106" height="81.5616" fill="white" transform="translate(76.2188)"/>
</clipPath>
<clipPath id="clip2_1240_5668">
<rect width="58.4751" height="55.2853" fill="white" transform="translate(39.2217 47.0872)"/>
</clipPath>
<clipPath id="clip3_1240_5668">
<rect width="45.3682" height="35.7441" fill="white" transform="translate(42.6494 88.2883)"/>
</clipPath>
</defs>
</svg>
