<svg width="137" height="146" viewBox="0 0 137 146" fill="none" xmlns="http://www.w3.org/2000/svg">
<rect x="0.610064" width="78.193" height="78.193" rx="8.10108" transform="matrix(0.866026 -0.5 0.866026 0.5 0.421333 106.356)" fill="#141414" stroke="#0962FF" stroke-width="0.704442"/>
<rect x="0.610064" width="78.193" height="78.193" rx="8.10108" transform="matrix(0.866026 -0.5 0.866026 0.5 0.421333 98.6076)" fill="#86B2FF" stroke="#0962FF" stroke-width="0.704442"/>
<rect opacity="0.3" width="46.371" height="53.3811" rx="8.4533" transform="matrix(0.866026 -0.5 0.866026 0.5 36.2048 86.4478)" fill="#060606"/>
<rect opacity="0.3" width="30.6918" height="9.49087" rx="1.76829" transform="matrix(0.866026 -0.5 0.866026 0.5 21.1482 106.945)" fill="#060606"/>
<path d="M4.93921 105.687V98.2742C4.93921 99.096 5.71409 101.162 8.81364 102.853C11.9132 104.544 12.9229 105.201 13.0403 105.319V112.927L6.70031 109.193C6.36994 108.945 5.7723 108.384 5.34882 107.68C4.99241 107.088 4.93921 106.378 4.93921 105.687Z" fill="#0962FF" stroke="#0962FF" stroke-width="0.704442"/>
<path d="M132.231 98.2743V106.375" stroke="#0962FF" stroke-width="0.704442"/>
<path d="M60.9424 133.144V140.541" stroke="#0962FF" stroke-width="0.704442"/>
<path d="M76.4392 132.792V140.54" stroke="#0962FF" stroke-width="0.704442"/>
<path d="M127.512 106.41V103.558C127.512 103.558 129.369 102.669 130.33 101.797C131.131 101.069 131.98 99.5234 132.305 98.8979C132.34 98.8316 132.443 98.8569 132.443 98.9316V105.15C132.443 106.192 132.332 107.279 131.739 108.137C130.982 109.23 129.751 109.879 128.6 110.545L89.4722 133.144L124.847 111.198C126.504 110.171 127.512 108.359 127.512 106.41Z" fill="#0962FF" stroke="#0962FF" stroke-width="0.704442"/>
<path d="M18.323 116.026V108.63L23.9585 112.152V119.196L18.323 116.026Z" fill="#0962FF" stroke="#0962FF" stroke-width="0.704442"/>
<g clip-path="url(#clip0_1240_6057)">
<path d="M108.793 79.831L116.381 75.238C115.079 77.8611 113.645 79.3486 112.217 79.9641L112.192 79.9817L79.4539 99.9212C80.4739 99.1549 81.4865 97.8961 82.4287 96.0394C82.4815 95.9313 82.5418 95.8182 82.597 95.7027L108.793 79.831Z" fill="white"/>
<path d="M108.793 79.831L82.5969 95.7027C82.5416 95.8183 82.4813 95.9313 82.4286 96.0394L75.0769 100.439C75.0313 100.419 74.9876 100.396 74.9462 100.368C73.8457 99.7806 72.8608 98.6801 72.0945 97.263C72.0945 97.263 101.7 78.6878 106.074 77.1124C106.83 78.3612 107.763 79.3209 108.793 79.831Z" fill="#86B2FF"/>
<path d="M104.84 74.1804C105.126 75.204 105.543 76.1863 106.081 77.1025C101.707 78.6779 72.1016 97.2531 72.1016 97.2531C71.473 96.0522 71.0276 94.7641 70.78 93.4315C70.78 93.4315 95.0688 77.4467 104.84 74.1804Z" fill="white"/>
<path d="M104.268 69.6301C104.233 71.1668 104.426 72.7002 104.841 74.1803C95.0696 77.4466 70.7834 93.4414 70.7834 93.4414C70.5668 92.3014 70.4708 91.1417 70.497 89.9816C70.5695 88.5337 70.4929 87.0822 70.2683 85.65C70.2683 85.65 98.1826 67.2256 104.203 66.4417C104.297 67.5017 104.319 68.567 104.268 69.6301Z" fill="white"/>
<path d="M68.8466 81.5572C68.5804 81.0864 68.2708 80.6414 67.922 80.228C67.8517 80.1401 67.7813 80.0521 67.7009 79.9642L101.339 59.6654C103.301 61.7081 103.98 64.3387 104.198 66.4493C98.168 67.2332 70.2637 85.6576 70.2637 85.6576C70.04 84.2171 69.5601 82.8284 68.8466 81.5572Z" fill="white"/>
<path d="M94.4616 57.1652C95.2631 56.6452 96.5847 56.6627 98.7756 57.7708C99.7321 58.2508 100.599 58.8916 101.338 59.6652L67.7005 79.959C67.1141 79.3078 66.4372 78.7443 65.6905 78.2856C65.4618 78.1374 65.2231 78.0042 64.9769 77.8736C64.451 77.5959 63.9041 77.3598 63.3412 77.1676C62.2583 76.8259 61.4744 76.851 60.9116 77.1073L81.5521 64.831L94.449 57.1552L94.4616 57.1652Z" fill="white"/>
<path d="M75.0769 100.439L82.4286 96.0396C81.4864 97.8963 80.4738 99.1551 79.4537 99.9214L78.5367 100.484L78.509 100.502C77.9734 100.766 77.3824 100.898 76.7853 100.887C76.1883 100.876 75.6025 100.722 75.0769 100.439Z" fill="#758D9E"/>
<path d="M59.5592 79.4568C59.4996 79.962 59.4728 80.4706 59.4788 80.9794L49.6548 86.7431C46.7327 84.4643 44.8307 81.8839 43.783 78.796C43.783 78.796 71.5566 60.0876 77.9535 59.6755C78.7894 61.6211 80.0137 63.3755 81.5515 64.8313L60.9235 77.1126C60.0416 77.507 59.6924 78.4668 59.5592 79.4568Z" fill="#86B2FF"/>
<path d="M76.5919 53.6179C76.6915 55.6978 77.1532 57.7444 77.9562 59.6656C71.5568 60.0777 43.7856 78.786 43.7856 78.786C43.0704 76.5748 42.7257 74.2605 42.7655 71.9368C42.7655 71.9368 63.994 62.8163 76.5919 53.6179Z" fill="white"/>
<path d="M76.5378 51.9544C76.5378 52.5256 76.5554 53.0801 76.5906 53.6177C63.9927 62.8161 42.7618 71.9367 42.7618 71.9367V36.0651C42.7655 34.6083 42.6815 33.1526 42.5105 31.7059C42.5105 31.7059 63.8319 26.4949 76.367 13.3091C76.4867 14.4727 76.5454 15.6418 76.5429 16.8116L76.5378 51.9544Z" fill="white"/>
<path d="M74.9456 100.369L52.9558 88.846C54.496 89.5143 55.7372 89.4088 56.7045 88.8033L56.7497 88.7757L68.8451 81.5571C69.5577 82.826 70.0376 84.2122 70.2622 85.6501C70.4868 87.0823 70.5634 88.5338 70.4908 89.9817C70.4631 91.1416 70.5574 92.3012 70.7722 93.4414C71.0198 94.7741 71.4652 96.0622 72.0938 97.263C72.8602 98.6801 73.8451 99.7806 74.9456 100.369Z" fill="#070F33"/>
<path d="M42.1463 29.5324C41.9953 28.7693 41.805 28.0145 41.5759 27.2711C41.367 26.5877 41.1195 25.9166 40.8347 25.2611C41.2317 25.1129 66.6109 15.6934 74.7188 6.47485C75.6122 8.65844 76.1671 10.9655 76.3646 13.3165C63.8295 26.4948 42.5081 31.7183 42.5081 31.7183C42.4126 30.9394 42.2895 30.2108 42.1463 29.5324Z" fill="white"/>
<path d="M38.9758 22.0677C37.805 20.5602 36.8201 19.9974 36.8201 19.9974C36.8201 19.9974 52.9983 15.3869 70.6062 1.06543C70.6062 1.06543 72.973 2.34934 74.7167 6.45985C66.6088 15.6784 41.2296 25.0979 40.8326 25.2461C40.3496 24.1129 39.7258 23.045 38.9758 22.0677Z" fill="white"/>
<path d="M68.8451 81.5572L56.7498 88.7757C57.7548 88.1425 58.4482 86.9893 58.898 85.6149L67.9205 80.228C68.2693 80.6414 68.5789 81.0864 68.8451 81.5572Z" fill="#506A77"/>
<path d="M36.6286 19.8743C35.905 19.4521 34.6035 19.0828 33.405 19.4697C34.0482 19.1356 54.7968 8.37938 63.4676 2.17341C63.4676 2.17341 66.9851 -0.68837 70.6082 1.07292C53.0003 15.3869 36.8296 19.9974 36.8296 19.9974C36.7656 19.9517 36.6984 19.9105 36.6286 19.8743Z" fill="white"/>
<path d="M67.7004 79.9591C67.7808 80.0471 67.8511 80.135 67.9215 80.2229L58.8989 85.6098C58.9592 85.4088 59.022 85.2053 59.0748 85.0018C59.322 84.0227 59.4577 83.0189 59.4793 82.0094L65.7029 78.2858C66.4452 78.7454 67.1178 79.3089 67.7004 79.9591Z" fill="#5F7A84"/>
<path d="M59.4791 80.9643C59.4731 80.4556 59.4999 79.947 59.5595 79.4417L63.3534 77.1804C63.9163 77.3727 64.4632 77.6087 64.9891 77.8864C65.2404 78.0171 65.474 78.1377 65.7027 78.2985L59.4791 82.0221C59.4791 81.8914 59.4791 81.7583 59.4791 81.6276C59.4892 81.4442 59.4791 81.2156 59.4791 80.9643Z" fill="#506A77"/>
<path d="M63.3542 77.1727L59.5603 79.434C59.691 78.4566 60.0427 77.4968 60.9246 77.1024C61.4874 76.8561 62.2713 76.831 63.3542 77.1727Z" fill="#405B66"/>
<path d="M59.4793 82.0145C59.4577 83.024 59.322 84.0279 59.0748 85.0069L52.9568 88.8461C52.5506 88.6687 52.1591 88.4595 51.7859 88.2204C51.0507 87.7614 50.3396 87.2649 49.6553 86.733L59.4793 80.9642C59.4793 81.2155 59.4793 81.4416 59.4793 81.6175C59.4894 81.7507 59.4894 81.8838 59.4793 82.0145Z" fill="#86B2FF"/>
<path d="M58.898 85.6149C58.4482 86.9892 57.7447 88.1425 56.7497 88.7756L56.7045 88.8033C55.7372 89.4088 54.496 89.5143 52.9558 88.846L59.0738 85.0068C59.0211 85.2104 58.9583 85.4139 58.898 85.6149Z" fill="#0962FF"/>
<path d="M30.4997 34.5048C30.545 34.3038 30.5801 34.1002 30.6153 33.8817L41.575 27.2611C41.8041 28.0045 41.9944 28.7593 42.1454 29.5224L28.7585 37.6203C29.6731 37.0399 30.2108 35.9897 30.4997 34.5048Z" fill="#0962FF"/>
<path d="M30.8331 30.035C30.8331 29.1003 30.8155 28.0878 30.7803 27.0199L38.9762 22.0728C39.7241 23.0528 40.3454 24.1232 40.8254 25.2587C41.1103 25.9141 41.3577 26.5852 41.5666 27.2687L30.6069 33.8892C30.7168 33.0954 30.7814 32.296 30.8004 31.4948C30.8255 31.03 30.8331 30.545 30.8331 30.035Z" fill="#0962FF"/>
<path d="M38.9762 22.0677L30.7802 27.0149C30.7802 26.6003 30.7551 26.1782 30.7451 25.7461C30.7165 24.9792 30.7493 24.2113 30.8431 23.4496L36.6219 19.8743C36.6891 19.9109 36.7537 19.952 36.8154 19.9974C36.8154 19.9974 37.8053 20.5527 38.9762 22.0677Z" fill="#0962FF"/>
<path d="M36.6272 19.8742L30.8484 23.4495C31.1826 20.9747 32.2378 19.8666 33.3911 19.4797C33.3911 19.4797 33.3911 19.4797 33.4087 19.4797C34.6021 19.0827 35.9036 19.4521 36.6272 19.8742Z" fill="#0962FF"/>
<path d="M23.3267 34.54L30.8341 30.035C30.8341 30.5375 30.8341 31.04 30.809 31.4873L23.598 36.0099C23.435 35.5361 23.3436 35.0407 23.3267 34.54Z" fill="#86B2FF"/>
<path d="M30.614 33.8817C30.5788 34.1003 30.5436 34.3038 30.4984 34.5048L25.1391 37.8767C24.7704 37.6867 24.4437 37.4244 24.1787 37.1054C23.9136 36.7864 23.7156 36.4172 23.5964 36.0199L30.8074 31.4973C30.7881 32.2951 30.7235 33.0912 30.614 33.8817Z" fill="#86B2FF"/>
<path d="M25.1411 37.8766L30.5004 34.5048C30.2114 35.9846 29.6737 37.0399 28.7592 37.6304C28.1077 38.0248 27.3542 38.218 26.5934 38.1856C26.0918 38.1972 25.5945 38.0914 25.1411 37.8766Z" fill="#86B2FF"/>
<path d="M50.5125 37.2524L71.732 24.8744" stroke="#141414" stroke-width="0.884147" stroke-linecap="round"/>
<path d="M50.5125 42.5574L71.732 30.1793" stroke="#141414" stroke-width="0.884147" stroke-linecap="round"/>
<path d="M50.5125 50.5146L61.9681 43.8322" stroke="#141414" stroke-width="0.884147" stroke-linecap="round"/>
<path d="M50.5125 54.0511L71.732 41.6731" stroke="#141414" stroke-width="0.884147" stroke-linecap="round"/>
</g>
<rect width="6.29488" height="6.29488" transform="matrix(0.866026 -0.5 0.866026 0.5 40.3828 56.696)" fill="#86B2FF"/>
<rect width="6.29488" height="39.3721" transform="matrix(0.866026 -0.5 2.20305e-08 1 45.8386 60.0532)" fill="#0962FF"/>
<rect width="6.29488" height="39.6277" transform="matrix(0.866026 0.5 -2.20305e-08 1 40.2778 56.801)" fill="white"/>
<rect width="6.29488" height="6.29488" transform="matrix(0.866026 -0.5 0.866026 0.5 31.4646 66.9777)" fill="#86B2FF"/>
<rect width="6.29488" height="32.9765" transform="matrix(0.866026 -0.5 2.20305e-08 1 36.9187 70.3354)" fill="#0962FF"/>
<rect width="6.29488" height="32.6874" transform="matrix(0.866026 0.5 -2.20305e-08 1 31.3589 67.0828)" fill="white"/>
<rect width="6.29488" height="6.29488" transform="matrix(0.866026 -0.5 0.866026 0.5 22.5469 76.5247)" fill="#86B2FF"/>
<rect width="6.29488" height="31.1359" transform="matrix(0.866026 -0.5 2.20305e-08 1 28.0027 79.8821)" fill="#0962FF"/>
<rect width="6.29488" height="31.1359" transform="matrix(0.866026 0.5 -2.20305e-08 1 22.4426 76.6298)" fill="white"/>
<path d="M58.6711 123.397C66.6429 123.397 73.1052 121.263 73.1052 118.632C73.1052 116 66.6429 113.867 58.6711 113.867C50.6994 113.867 44.2371 116 44.2371 118.632C44.2371 121.263 50.6994 123.397 58.6711 123.397Z" fill="#0962FF"/>
<path d="M60.0459 93.3285L49.5407 85.8634C49.588 85.826 49.6449 85.7826 49.7108 85.735C49.934 85.5735 50.2592 85.3636 50.6658 85.1711C51.4795 84.7856 52.6104 84.4735 53.9 84.748C55.2783 85.0415 56.1112 84.8356 56.8355 84.5469C56.9856 84.4871 57.1285 84.4252 57.2687 84.3645C57.8025 84.1333 58.2978 83.9188 59.0097 83.8977C59.8882 83.8716 60.4455 84.2288 60.9385 84.6123C61.0008 84.6608 61.0633 84.7108 61.126 84.7608C61.3067 84.9053 61.4886 85.0507 61.6723 85.1657C61.9262 85.3247 62.2043 85.4406 62.5335 85.439C63.1411 85.436 63.5125 85.0339 63.8101 84.7118C63.8355 84.6844 63.8603 84.6575 63.8846 84.6315C64.0492 84.4561 64.193 84.3175 64.3539 84.2402C64.5035 84.1682 64.679 84.1444 64.9215 84.2294C65.4569 84.4172 65.7759 84.7009 65.9605 84.9318C66.0533 85.0478 66.1128 85.1515 66.1487 85.2245C66.1537 85.2347 66.1583 85.2444 66.1624 85.2533L60.0459 93.3285Z" fill="#0962FF" stroke="#141414" stroke-width="0.353659"/>
<path d="M60.099 93.6945L49.0984 85.8786L49.182 85.8006C49.2024 85.7821 51.2562 83.9047 53.9488 84.4766C55.5309 84.8146 56.3498 84.4581 57.1427 84.1053C57.7217 83.8162 58.3536 83.6481 58.9997 83.6113C60.0953 83.5779 60.7359 84.0885 61.3004 84.5398C61.7127 84.8685 62.0692 85.1544 62.5279 85.1544C63.0162 85.1544 63.3208 84.8239 63.6142 84.5082C63.9726 84.1238 64.3403 83.7246 65.0088 83.9511C66.1787 84.3615 66.4386 85.1953 66.4498 85.2306L66.4627 85.277L66.4349 85.3141L60.099 93.6945ZM49.3974 85.8619L60.06 93.4383L66.2548 85.2584C66.1861 85.0913 65.8834 84.4692 64.9549 84.1442C64.3978 83.9585 64.1044 84.2724 63.7591 84.6438C63.4527 84.9743 63.1054 85.3476 62.5372 85.3494C62.0116 85.3494 61.6087 85.0319 61.1927 84.6939C60.6542 84.265 60.0433 83.7766 59.0145 83.8081C58.2829 83.8304 57.7722 84.0514 57.23 84.2872C56.4111 84.6419 55.5587 85.0096 53.9227 84.6586C51.622 84.1795 49.8096 85.524 49.3974 85.8675V85.8619Z" fill="#0962FF"/>
<path d="M71.7586 112.297L71.7586 112.296C71.7586 108.062 70.143 102.805 67.5278 98.6097C64.9076 94.4062 61.3218 91.3248 57.4069 91.3311L57.4066 91.3311C55.1194 91.3311 52.9458 92.3777 51.0067 94.0904C49.0677 95.803 47.3737 98.1729 46.0514 100.794M71.7586 112.297L50.08 121.278L49.9394 121.245L49.8914 121.233L49.8904 121.233L49.7459 121.196L49.7437 121.195L49.6903 121.181L49.6891 121.181L49.5552 121.146L49.4846 121.126L49.4827 121.126L49.3687 121.095L49.3657 121.094L49.2861 121.071L49.2851 121.071L49.1734 121.038C49.1734 121.038 49.1733 121.038 49.1733 121.038C48.8986 120.956 48.6286 120.859 48.3623 120.765L48.3467 120.759L48.2387 120.718L48.0845 120.655L48.0843 120.655L47.9672 120.608L47.8793 120.57L47.8233 120.545L47.8233 120.545L47.821 120.544L47.6952 120.489L47.638 120.462L47.6374 120.462L47.5116 120.403L47.4768 120.386L47.4756 120.386L47.3709 120.334L47.3698 120.334L47.2758 120.287L47.118 120.204C47.1179 120.204 47.1179 120.204 47.1178 120.204C47.0504 120.168 46.9842 120.131 46.9153 120.092C46.9152 120.092 46.915 120.092 46.9149 120.091L46.7956 120.023L46.6635 119.941L46.6623 119.941L46.5704 119.883L46.5688 119.882L46.4949 119.834L46.4923 119.833L46.4225 119.786L46.4225 119.786L46.42 119.785C46.3929 119.767 46.3733 119.754 46.3561 119.741L46.3562 119.741L46.3486 119.736L46.2663 119.679L46.265 119.678L46.1991 119.632L46.1977 119.631L46.1281 119.581L46.0421 119.516L46.0405 119.515L45.988 119.475C45.9877 119.475 45.9875 119.474 45.9872 119.474C45.976 119.465 45.967 119.459 45.9594 119.453C45.9439 119.441 45.934 119.433 45.9225 119.423L45.9228 119.422L45.913 119.415L45.8295 119.348L45.719 119.486L45.8295 119.348C45.7368 119.274 45.6481 119.194 45.5557 119.111C45.542 119.099 45.5283 119.087 45.5145 119.074C45.5143 119.074 45.514 119.074 45.5138 119.074L45.4383 119.005L45.4296 118.995L45.4232 118.988L45.4161 118.981C45.3792 118.948 45.3455 118.916 45.3123 118.881L45.3123 118.881L45.3102 118.879L45.1951 118.762L45.1247 118.686L45.1244 118.686L45.0579 118.614L45.0579 118.614L45.0554 118.611C45.0442 118.6 45.0337 118.587 45.024 118.575L45.0188 118.568L45.013 118.561C44.9882 118.535 44.9685 118.513 44.9509 118.491C44.9387 118.476 44.9259 118.462 44.9163 118.451L44.9118 118.445C44.9007 118.433 44.8939 118.425 44.8886 118.417C44.8757 118.4 44.8653 118.387 44.854 118.375L44.8479 118.369L44.847 118.368L44.769 118.27L44.7677 118.269L44.7654 118.266C44.7478 118.245 44.7364 118.231 44.7278 118.218C44.7135 118.196 44.6873 118.164 44.6727 118.146C44.6687 118.141 44.6655 118.137 44.6637 118.134C44.5925 118.04 44.5242 117.941 44.4542 117.838C43.5504 116.491 43.0399 114.697 43.0399 112.309C43.0399 108.782 44.1616 104.542 46.0514 100.794M71.7586 112.297C71.768 113.254 71.6692 114.208 71.4639 115.143M71.7586 112.297L45.8935 100.714M46.0514 100.794L45.8935 100.714M46.0514 100.794L45.8935 100.714M45.8935 100.714C48.5527 95.4439 52.7197 91.1543 57.4066 91.1543C65.425 91.1413 71.9354 103.752 71.9354 112.296C71.945 113.266 71.8447 114.234 71.6365 115.181M71.6365 115.181L71.4641 115.142C71.4641 115.142 71.464 115.142 71.4639 115.143M71.6365 115.181L71.4638 115.143C71.4638 115.143 71.4639 115.143 71.4639 115.143M71.6365 115.181L71.4639 115.143M71.4639 115.143C70.7981 118.048 69.0399 119.731 66.5741 120.695C64.0949 121.665 60.9038 121.905 57.3955 121.905H56.8644H56.1333L55.7181 121.894L55.7178 121.894L71.4639 115.143Z" fill="white" stroke="#141414" stroke-width="0.353659"/>
<path d="M57.397 122.175H56.8659H56.1231L55.7053 122.164C55.2801 122.152 54.8975 122.138 54.5373 122.119L54.307 122.108L54.0786 122.093L53.6645 122.065L53.4008 122.045L53.2486 122.032H53.1798L52.7528 121.991H52.7416L52.3034 121.941H52.2384L52.0861 121.922L51.8781 121.894L51.6609 121.863L51.451 121.831L51.243 121.798L50.9979 121.755L50.8308 121.725L50.6265 121.686C50.4018 121.642 50.2013 121.599 50.0119 121.554L49.8262 121.508L49.6777 121.471L49.6219 121.456L49.4864 121.421L49.4288 121.404H49.4121L49.2951 121.371L49.2116 121.346L49.0964 121.313C48.8086 121.226 48.5245 121.127 48.2534 121.029L48.142 120.986L47.9841 120.923L47.8634 120.873L47.7724 120.834L47.713 120.808L47.5849 120.75L47.5236 120.723L47.3992 120.665L47.3731 120.654H47.3602L47.2506 120.6L47.154 120.552L46.9925 120.466C46.9219 120.429 46.8532 120.39 46.7826 120.349L46.6675 120.284L46.532 120.203L46.4336 120.141L46.3537 120.089L46.2794 120.039L46.2033 119.987C46.1755 119.97 46.1476 119.95 46.1197 119.93C46.0953 119.914 46.0718 119.897 46.0492 119.879L45.9768 119.827L45.8858 119.759L45.843 119.725H45.8319L45.7502 119.662L45.6685 119.595C45.5571 119.504 45.4456 119.41 45.3417 119.311L45.2562 119.233L45.2377 119.213L45.1263 119.105L45.0074 118.984L44.935 118.906C44.9127 118.884 44.8885 118.858 44.8663 118.832C44.844 118.806 44.8366 118.797 44.8198 118.78L44.7493 118.698L44.6824 118.619L44.6472 118.576C44.6212 118.546 44.5933 118.511 44.5655 118.476C44.5376 118.44 44.5302 118.431 44.5135 118.407L44.4596 118.336C44.3798 118.231 44.3073 118.128 44.2405 118.026C43.2563 116.557 42.7791 114.699 42.7791 112.346C42.7791 108.782 43.8932 104.547 45.8189 100.71C47.219 97.9248 48.9553 95.5869 50.8327 93.9249C52.9552 92.0494 55.1686 91.0986 57.4081 91.0986C59.3375 91.0986 61.2613 91.8117 63.1238 93.2211C64.7951 94.4801 66.3939 96.3092 67.7662 98.5153C70.4012 102.744 72.0372 108.043 72.0372 112.346C72.0462 113.323 71.9453 114.298 71.7364 115.252C71.0994 118.037 69.4449 119.92 66.6818 121.009C63.9186 122.097 60.2549 122.175 57.397 122.175ZM56.8715 121.989H57.397C64.9529 121.989 70.2508 120.827 71.547 115.161C71.7528 114.22 71.8524 113.259 71.8441 112.296C71.8441 108.025 70.2174 102.764 67.5991 98.5543C64.6521 93.8284 61.0292 91.2249 57.397 91.2249C53.2467 91.2249 48.9757 94.7791 45.9712 100.734C44.0511 104.541 42.9499 108.751 42.9499 112.286C42.9499 114.602 43.4179 116.426 44.3798 117.857C44.4448 117.956 44.5172 118.058 44.5914 118.158L44.6472 118.229L44.6973 118.296C44.7252 118.329 44.7511 118.362 44.779 118.394C44.7881 118.407 44.7981 118.421 44.8087 118.433L44.8774 118.513C44.8988 118.54 44.9218 118.566 44.9461 118.591C44.9601 118.609 44.9749 118.626 44.9907 118.643C45.013 118.667 45.0334 118.691 45.0557 118.713C45.078 118.736 45.104 118.765 45.1281 118.789C45.1523 118.814 45.2061 118.871 45.2432 118.908L45.3547 119.018L45.3695 119.031C45.3968 119.059 45.4246 119.085 45.4531 119.109C45.5552 119.204 45.6629 119.295 45.7725 119.386C45.7985 119.41 45.8263 119.43 45.8523 119.451L45.9285 119.512L45.9414 119.521L45.9823 119.551C46.0157 119.577 46.0436 119.599 46.0733 119.62C46.0953 119.637 46.1182 119.654 46.142 119.67L46.2126 119.72C46.2404 119.74 46.2664 119.759 46.2943 119.775L46.3686 119.827L46.441 119.876L46.519 119.926L46.6137 119.985L46.7474 120.065C46.7845 120.087 46.8217 120.11 46.8607 120.13C46.9294 120.169 46.9962 120.208 47.0668 120.245C47.1373 120.282 47.1708 120.301 47.2246 120.327L47.3193 120.375L47.4233 120.427L47.4586 120.444L47.5867 120.503L47.6462 120.531L47.7743 120.587L47.8319 120.613L47.921 120.65L48.0398 120.7L48.194 120.762L48.3035 120.804C48.5709 120.905 48.8606 120.999 49.1354 121.085L49.2468 121.116L49.3304 121.14L49.4474 121.174H49.4641L49.5198 121.19L49.6535 121.226L49.7092 121.241L49.8559 121.276L50.0416 121.322C50.2273 121.367 50.4279 121.41 50.6507 121.454L50.8513 121.491L51.0165 121.521C51.0982 121.538 51.1781 121.551 51.2598 121.564L51.4659 121.597L51.6757 121.629L51.8855 121.658L52.0973 121.686L52.2476 121.705H52.3127L52.7435 121.755H52.7583L53.1817 121.796H53.2523L53.4027 121.807L53.6645 121.829L54.0786 121.857L54.3052 121.87L54.5336 121.883C54.892 121.902 55.2763 121.917 55.696 121.928H56.112C56.3552 121.928 56.6003 121.928 56.8455 121.928L56.8715 121.989Z" fill="#0962FF"/>
<path d="M52.4252 91.6702L52.4203 91.6485L52.41 91.6287L49.5105 86.005C49.5774 85.9938 49.6573 85.9812 49.748 85.9687C50.0374 85.9288 50.4347 85.889 50.8674 85.8895C51.7475 85.8904 52.7132 86.0577 53.2567 86.6552C53.9025 87.3652 54.9631 87.6387 55.9691 87.6614C56.9763 87.6842 57.9845 87.457 58.5603 87.1049C58.7998 86.9585 58.9805 86.9317 59.1447 86.961C59.3202 86.9923 59.4989 87.0907 59.7298 87.2435C59.7885 87.2824 59.8497 87.3242 59.9137 87.3679C60.3443 87.6619 60.9063 88.0456 61.7675 88.262C62.0304 88.328 62.2606 88.3271 62.4656 88.2641C62.6703 88.2011 62.835 88.0809 62.9746 87.9329C63.1128 87.7863 63.2302 87.6083 63.34 87.4235C63.3952 87.3307 63.4497 87.2338 63.5043 87.1368L63.5059 87.1339C63.5603 87.0373 63.6149 86.9402 63.6723 86.8431C63.9043 86.4496 64.1703 86.073 64.5723 85.809C64.9243 85.5778 65.3951 85.4239 66.0667 85.4413L62.7377 91.594L62.7374 91.5938L62.7328 91.6038L62.0561 93.0648H52.7448L52.4252 91.6702Z" fill="white" stroke="#141414" stroke-width="0.353659"/>
<path d="M62.1751 93.3363H52.61C52.5888 93.3364 52.5683 93.3292 52.5517 93.3161C52.5352 93.3029 52.5236 93.2845 52.519 93.2639L52.1661 91.7412L49.1635 85.9178C49.1566 85.9049 49.1531 85.8906 49.1531 85.876C49.1531 85.8614 49.1566 85.8471 49.1635 85.8342C49.1692 85.8214 49.1779 85.8101 49.1889 85.8014C49.1999 85.7927 49.2128 85.7867 49.2266 85.7841C49.3492 85.7562 52.2404 85.1323 53.4586 86.473C54.6377 87.7729 57.3842 87.5092 58.4222 86.8741C59.0814 86.4711 59.4955 86.7534 60.0693 87.1452C60.6001 87.54 61.2014 87.83 61.8409 87.9994C62.6115 88.1851 62.8919 87.6911 63.2819 86.9985C63.7795 86.1146 64.396 85.0134 66.3699 85.188C66.3854 85.189 66.4004 85.194 66.4134 85.2025C66.4264 85.2109 66.437 85.2226 66.4443 85.2363C66.4516 85.25 66.4554 85.2653 66.4554 85.2808C66.4554 85.2964 66.4516 85.3117 66.4443 85.3254L62.9829 91.7226L62.2624 93.2806C62.2546 93.2972 62.2423 93.3112 62.2269 93.3211C62.2114 93.331 62.1935 93.3362 62.1751 93.3363ZM52.6842 93.1506H62.1157L62.8139 91.6409L66.2103 85.3644C64.4666 85.266 63.9243 86.2334 63.4434 87.0914C63.0609 87.7691 62.7006 88.4098 61.7944 88.1832C61.1337 88.0081 60.5123 87.7087 59.9635 87.3012C59.4064 86.9298 59.074 86.6958 58.5169 87.0357C57.4324 87.6986 54.5579 87.9641 53.3174 86.6011C52.3054 85.487 49.9415 85.8416 49.3826 85.9438L52.3351 91.6687C52.3362 91.6755 52.3362 91.6824 52.3351 91.6892L52.6842 93.1506Z" fill="#0962FF"/>
<path d="M55.7067 122.059L56.1245 122.071C55.5879 122.059 55.0605 122.043 54.5405 122.015C54.9249 122.035 55.313 122.048 55.7067 122.059Z" fill="white"/>
<path d="M56.1231 122.164C55.553 122.152 55.0349 122.134 54.5373 122.108C54.5251 122.107 54.5131 122.104 54.5021 122.099C54.4911 122.094 54.4812 122.086 54.473 122.077C54.4648 122.068 54.4585 122.058 54.4544 122.046C54.4502 122.035 54.4485 122.023 54.4491 122.01C54.4497 121.998 54.4527 121.986 54.4579 121.975C54.4632 121.964 54.4705 121.954 54.4796 121.946C54.4886 121.938 54.4992 121.931 54.5107 121.927C54.5222 121.923 54.5344 121.922 54.5466 121.922C54.905 121.941 55.2893 121.956 55.709 121.967H56.125C56.1496 121.968 56.1727 121.979 56.1897 121.997C56.2066 122.015 56.216 122.039 56.216 122.063C56.2167 122.076 56.2149 122.089 56.2106 122.101C56.2063 122.113 56.1996 122.124 56.1909 122.133C56.1822 122.143 56.1718 122.15 56.1601 122.155C56.1485 122.16 56.1359 122.163 56.1231 122.164Z" fill="#0962FF"/>
<path d="M53.5485 93.5723C53.5485 93.5723 51.1643 96.5211 50.9841 99.1784C50.9841 99.1784 52.6554 94.3782 54.4046 93.9065L53.5485 93.5723Z" fill="#D4E4F5"/>
<path d="M50.8445 99.8672L50.8909 99.1708C51.0766 96.5154 53.4516 93.5443 53.4758 93.5146L53.5185 93.4607L54.7032 93.9212L54.4284 93.9955C52.7385 94.4486 51.0859 99.1615 51.0729 99.2079L50.8445 99.8672ZM53.5779 93.6947C53.2975 94.0549 51.6894 96.1904 51.2047 98.337C51.7358 97.0149 52.8853 94.5024 54.1424 93.9101L53.5779 93.6947Z" fill="#0962FF"/>
<path d="M57.1064 94.1995C57.1064 94.1995 58.579 98.3999 58.4063 100.998C58.4063 100.998 59.2884 100.35 57.7638 94.1995H57.1064Z" fill="#D4E4F5"/>
<path d="M58.299 101.193L58.3121 100.992C58.4829 98.4428 57.0326 94.2721 57.0122 94.2294L56.9695 94.105H57.8311L57.8478 94.1774C59.3334 100.212 58.5516 101.004 58.455 101.074L58.299 101.193ZM57.2369 94.2925C57.4578 94.9536 58.4773 98.1178 58.5126 100.439C58.6259 99.7334 58.6203 98.0714 57.69 94.2925H57.2369Z" fill="#0962FF"/>
<path d="M60.5798 93.8898C60.5798 93.8898 62.6336 95.2175 63.3188 97.3122C63.3188 97.3122 63.5603 95.9547 61.1035 93.5723L60.5798 93.8898Z" fill="#D4E4F5"/>
<path d="M63.3442 97.6945L63.2291 97.3417C62.5625 95.299 60.5495 93.9806 60.5291 93.9676L60.4028 93.8859L61.1159 93.4551L61.1679 93.5052C63.632 95.8951 63.4204 97.2711 63.4092 97.3287L63.3442 97.6945ZM60.7445 93.8952C61.1382 94.1756 62.3953 95.1542 63.1102 96.5803C62.9245 95.9694 62.4065 94.9852 61.0843 93.6891L60.7445 93.8952Z" fill="#0962FF"/>
<path d="M55.1355 94.0398C54.9342 95.291 54.841 96.5571 54.857 97.8243C54.857 97.8243 55.2748 94.4985 55.6146 94.1995L55.1355 94.0398Z" fill="#D4E4F5"/>
<path d="M54.9488 97.8373H54.7631C54.7475 96.5633 54.8414 95.2903 55.0435 94.0324L55.0621 93.9247L55.7956 94.1716L55.6749 94.2775C55.4465 94.4706 55.1085 96.5634 54.9488 97.8373ZM55.2088 94.1624C55.1643 94.4576 55.038 95.3267 54.9767 96.3294C55.1104 95.5049 55.2887 94.5969 55.4669 94.2478L55.2088 94.1624Z" fill="#0962FF"/>
<path d="M53.5065 92.3299C53.5065 92.3299 53.3765 89.8973 52.3552 88.876C52.3552 88.876 53.5065 89.5482 53.8984 92.6344L53.5065 92.3299Z" fill="#D4E4F5"/>
<path d="M54.019 92.8459L53.4155 92.378V92.3353C53.4155 92.3111 53.2762 89.9212 52.3013 88.9407L51.7888 88.4282L52.4128 88.7996C52.4629 88.8293 53.6087 89.5424 54.0023 92.6286L54.019 92.8459ZM53.5975 92.2888L53.7832 92.4262C53.6906 91.7215 53.5148 91.0302 53.2596 90.3669C53.4397 90.9919 53.5529 91.6343 53.5975 92.2833V92.2888Z" fill="#0962FF"/>
<path d="M60.5798 92.6993C60.5798 92.6993 61.1258 90.7569 62.2511 89.7078C62.2511 89.7078 61.0125 91.4607 61.2038 92.5285L60.5798 92.6993Z" fill="#D4E4F5"/>
<path d="M60.4451 92.833L60.4896 92.6733C60.5119 92.5935 61.0467 90.6938 62.185 89.6409L62.8461 89.0244L62.3243 89.7672C62.3131 89.7858 61.1117 91.5016 61.2918 92.5173L61.3067 92.6009L60.4451 92.833ZM61.4942 90.8294C61.1757 91.3788 60.9155 91.9601 60.718 92.5638L61.0894 92.4598C61.0411 91.9621 61.2473 91.353 61.4942 90.8294Z" fill="#0962FF"/>
<path d="M57.1064 92.6994C57.1064 92.6994 58.4954 90.4098 58.6588 88.876C58.6588 88.876 58.8631 90.6586 57.4091 92.9613L57.1064 92.6994Z" fill="#D4E4F5"/>
<path d="M57.423 93.0966L56.9792 92.7252L57.0201 92.6565C57.0331 92.6342 58.3998 90.3669 58.5595 88.8702L58.6486 88.0327L58.7452 88.8702C58.7452 88.9445 58.9309 90.7123 57.4806 93.0112L57.423 93.0966ZM57.2206 92.6788L57.3803 92.8162C57.9303 91.9513 58.3085 90.9886 58.4945 89.9807C58.1617 90.9178 57.7408 91.8212 57.2373 92.6788H57.2206Z" fill="#0962FF"/>
<path d="M51.3719 93.7205C52.319 94.0919 57.4999 95.9674 63.3772 93.7335C63.4444 93.7075 63.5055 93.6678 63.5566 93.617C63.6078 93.5662 63.6478 93.5053 63.6742 93.4383C63.8135 93.091 63.9992 92.4039 63.548 91.9248C63.4457 91.8175 63.316 91.7404 63.1729 91.7017C63.0298 91.6631 62.8789 91.6645 62.7365 91.7057C61.4831 92.066 56.85 93.1913 52.2521 91.7057C52.1415 91.6693 52.0239 91.6594 51.9087 91.6768C51.7936 91.6942 51.6841 91.7385 51.5892 91.806C51.2179 92.0734 50.7332 92.6156 51.1361 93.4921C51.1825 93.5957 51.2669 93.6775 51.3719 93.7205Z" fill="#86B2FF"/>
<path d="M57.4474 94.9053C55.3611 94.9143 53.2907 94.5424 51.338 93.8078C51.2121 93.7561 51.1106 93.6586 51.0539 93.5348C50.6138 92.5822 51.1672 91.9973 51.5349 91.7336C51.6417 91.6589 51.7642 91.6099 51.893 91.5903C52.0218 91.5706 52.1534 91.5809 52.2776 91.6203C56.829 93.0854 61.4101 91.9917 62.7063 91.6203C62.8652 91.5732 63.0341 91.5712 63.1941 91.6145C63.3541 91.6578 63.4989 91.7447 63.6125 91.8654C64.0953 92.378 63.9096 93.0947 63.7573 93.4754C63.7256 93.5547 63.6779 93.6266 63.6172 93.6867C63.5565 93.7467 63.4841 93.7936 63.4045 93.8245C61.5012 94.5447 59.4823 94.9109 57.4474 94.9053ZM51.4086 93.6351C52.3798 94.0251 57.5235 95.8634 63.345 93.6462C63.4001 93.6241 63.4501 93.5912 63.4922 93.5494C63.5343 93.5076 63.5676 93.4579 63.5902 93.403C63.7257 93.0632 63.8928 92.4262 63.4824 91.988C63.3915 91.8937 63.2762 91.8264 63.1494 91.7936C63.0225 91.7609 62.8891 91.7639 62.7638 91.8023C61.4547 92.1737 56.8216 93.2879 52.2256 91.8023C52.1287 91.7703 52.0256 91.7615 51.9246 91.7767C51.8237 91.7918 51.7277 91.8305 51.6444 91.8896C51.2507 92.17 50.8589 92.6713 51.2229 93.4605C51.2583 93.5443 51.3249 93.6109 51.4086 93.6462V93.6351Z" fill="#0962FF"/>
<path d="M62.1058 115.978L61.8663 114.461C60.7874 114.582 59.7048 114.461 59.0418 114.203L59.2275 112.259C60.1111 112.579 61.0605 112.676 61.9907 112.541C62.9006 112.398 63.467 111.947 63.3667 111.308C63.2701 110.702 62.6982 110.4 61.454 110.194C59.6528 109.889 58.3603 109.276 58.1115 107.726C57.8905 106.32 58.7058 105.061 60.3622 104.456L60.1207 102.939L61.6861 102.692L61.909 104.097C62.7111 103.982 63.5284 104.036 64.3082 104.257L64.1225 106.134C63.3511 105.894 62.5355 105.831 61.7363 105.949C60.6982 106.114 60.4364 106.613 60.5033 107.063C60.5869 107.59 61.1996 107.837 62.6388 108.132C64.6443 108.504 65.5505 109.26 65.7789 110.697C66.0073 112.134 65.1883 113.482 63.402 114.102L63.6601 115.731L62.1058 115.978Z" fill="#141414"/>
<path d="M62.0274 116.078L61.7878 114.557C60.7832 114.656 59.7025 114.557 59.0024 114.284L58.9355 114.258L59.138 112.125L59.2513 112.166C60.1206 112.479 61.0532 112.574 61.9679 112.444C62.8556 112.303 63.3551 111.872 63.2678 111.317C63.1805 110.762 62.668 110.483 61.4313 110.273C59.9922 110.03 58.3005 109.519 58.0182 107.727C57.7879 106.275 58.644 105 60.2558 104.385L60.0126 102.851L61.7619 102.574L61.9847 103.984C62.7715 103.885 63.5702 103.944 64.3337 104.158L64.4061 104.181L64.2112 106.242L64.1072 106.216L63.9809 106.184C63.2579 105.973 62.4969 105.923 61.7526 106.04C60.9374 106.168 60.5158 106.533 60.5975 107.044C60.6681 107.49 61.1695 107.731 62.6587 108.038C64.6754 108.409 65.6299 109.2 65.8713 110.68C66.1127 112.199 65.1861 113.558 63.5074 114.16L63.7692 115.805L62.0274 116.078ZM61.9438 114.351L62.1833 115.865L63.5649 115.647L63.3087 114.032L63.383 114.006C65.0431 113.439 65.9288 112.175 65.6967 110.704C65.4739 109.298 64.5825 108.578 62.6309 108.218C61.24 107.93 60.5177 107.674 60.423 107.07C60.3858 106.838 60.3728 106.066 61.7321 105.85C62.5001 105.73 63.2851 105.782 64.031 106.001H64.0496L64.2093 104.309C63.4633 104.112 62.6857 104.066 61.9215 104.171L61.8324 104.183L61.6114 102.781L60.2299 103L60.4675 104.5L60.3951 104.526C58.826 105.1 57.9811 106.314 58.2058 107.694C58.4156 109.02 59.3905 109.737 61.4666 110.086C62.5808 110.272 63.3402 110.552 63.4572 111.285C63.5612 111.952 63.0041 112.466 62.0014 112.624C61.0961 112.755 60.173 112.669 59.3069 112.375L59.1417 114.13C59.8325 114.377 60.8872 114.466 61.8547 114.359L61.9438 114.351Z" fill="#0962FF"/>
<defs>
<clipPath id="clip0_1240_6057">
<rect width="93.0545" height="100.386" fill="white" transform="translate(23.3259 0.5)"/>
</clipPath>
</defs>
</svg>
