<svg width="234" height="241" viewBox="0 0 234 241" fill="none" xmlns="http://www.w3.org/2000/svg">
<rect x="1.02858" width="131.834" height="131.834" rx="13.6585" transform="matrix(0.866025 -0.5 0.866025 0.5 3.66441 174.504)" fill="#141414" stroke="#0962FF" stroke-width="1.1877"/>
<rect x="1.02858" width="131.834" height="131.834" rx="13.6585" transform="matrix(0.866025 -0.5 0.866025 0.5 3.66441 161.439)" fill="#86B2FF" stroke="#0962FF" stroke-width="1.1877"/>
<rect opacity="0.3" width="113.232" height="5.41371" rx="2.70685" transform="matrix(0.866025 -0.5 0.866025 0.5 99.4727 196.067)" fill="#141414"/>
<rect opacity="0.3" width="40.2427" height="2.25137" rx="1.12568" transform="matrix(0.866025 -0.5 0.866025 0.5 107.415 221.486)" fill="#141414"/>
<rect opacity="0.3" width="102.696" height="2.25137" rx="1.12568" transform="matrix(0.866025 -0.5 0.866025 0.5 31.3904 176.766)" fill="#141414"/>
<path d="M11.2803 173.375V160.877C11.2803 162.262 12.5867 165.746 17.8126 168.597C23.0385 171.447 24.7408 172.556 24.9388 172.754V185.581L14.2495 179.286C13.6925 178.868 12.6849 177.922 11.9709 176.735C11.37 175.737 11.2803 174.54 11.2803 173.375Z" fill="#0962FF" stroke="#0962FF" stroke-width="1.1877"/>
<path d="M225.897 160.877V174.535" stroke="#0962FF" stroke-width="1.1877"/>
<path d="M105.702 219.668V232.139" stroke="#0962FF" stroke-width="1.1877"/>
<path d="M131.831 219.074V232.139" stroke="#0962FF" stroke-width="1.1877"/>
<path d="M217.939 174.593V169.785C217.939 169.785 221.071 168.287 222.69 166.815C224.041 165.588 225.472 162.983 226.021 161.928C226.079 161.816 226.253 161.859 226.253 161.985V172.469C226.253 174.227 226.066 176.059 225.065 177.505C223.789 179.348 221.715 180.443 219.773 181.565L153.804 219.668L213.447 182.667C216.24 180.934 217.939 177.88 217.939 174.593Z" fill="#0962FF" stroke="#0962FF" stroke-width="1.1877"/>
<path d="M33.8472 190.807V178.336L43.3487 184.274V196.151L33.8472 190.807Z" fill="#0962FF" stroke="#0962FF" stroke-width="1.1877"/>
<path opacity="0.8" d="M119.402 120.771C119.402 120.771 115.286 75.3169 106.469 80.4228C97.6529 85.5287 101.917 111.892 92.7653 117.17C83.7696 122.369 88.6728 41.8987 75.078 49.7407C65.3261 55.3767 68.4442 116.491 59.7369 121.519C49.9617 127.163 52.7602 104.144 44.0997 105.149C39.1264 105.749 36.515 120.74 29.4681 124.076C22.4212 127.412 25.7731 62.6808 14.6182 69.1197C3.3307 75.6365 0.0723114 189.696 0.0723114 189.696L119.402 120.771Z" fill="white"/>
<path d="M106.064 79.994C106.062 80.3663 106.171 80.7306 106.377 81.0407C106.583 81.3508 106.876 81.5928 107.22 81.736C107.563 81.8791 107.942 81.917 108.307 81.8447C108.672 81.7725 109.008 81.5934 109.271 81.3302C109.534 81.067 109.713 80.7316 109.785 80.3664C109.858 80.0013 109.82 79.6229 109.677 79.2793C109.533 78.9357 109.291 78.6424 108.981 78.4365C108.671 78.2307 108.307 78.1216 107.935 78.1232C107.439 78.1252 106.964 78.323 106.614 78.6734C106.264 79.0238 106.066 79.4985 106.064 79.994Z" fill="white"/>
<path d="M74.969 49.2029C74.9675 49.5748 75.0763 49.9388 75.2818 50.2487C75.4873 50.5587 75.7802 50.8007 76.1233 50.9441C76.4665 51.0875 76.8444 51.1258 77.2094 51.0542C77.5743 50.9826 77.9098 50.8043 78.1733 50.5418C78.4368 50.2794 78.6165 49.9447 78.6897 49.5801C78.7628 49.2154 78.726 48.8373 78.5841 48.4936C78.4421 48.1498 78.2013 47.856 77.8922 47.6492C77.5831 47.4424 77.2196 47.332 76.8477 47.332C76.3508 47.332 75.8741 47.5289 75.522 47.8795C75.1699 48.2302 74.9711 48.706 74.969 49.2029Z" fill="white"/>
<path d="M42.4636 105.04C42.4637 105.412 42.574 105.776 42.7808 106.085C42.9876 106.394 43.2815 106.635 43.6252 106.777C43.9689 106.919 44.3471 106.955 44.7117 106.882C45.0763 106.809 45.411 106.629 45.6735 106.366C45.9359 106.102 46.1142 105.767 46.1858 105.402C46.2574 105.037 46.2191 104.659 46.0757 104.316C45.9323 103.973 45.6903 103.68 45.3803 103.474C45.0704 103.269 44.7064 103.16 44.3345 103.162C44.0882 103.162 43.8442 103.21 43.6168 103.305C43.3893 103.399 43.1827 103.538 43.0088 103.712C42.835 103.887 42.6974 104.094 42.6038 104.322C42.5103 104.55 42.4626 104.794 42.4636 105.04Z" fill="white"/>
<path d="M14.1667 68.5116C14.1667 68.8816 14.2765 69.2434 14.482 69.551C14.6876 69.8587 14.9798 70.0985 15.3217 70.2401C15.6635 70.3817 16.0397 70.4187 16.4026 70.3465C16.7655 70.2743 17.0988 70.0962 17.3605 69.8345C17.6221 69.5729 17.8003 69.2395 17.8725 68.8766C17.9447 68.5137 17.9076 68.1375 17.766 67.7957C17.6244 67.4538 17.3846 67.1616 17.077 66.9561C16.7693 66.7505 16.4076 66.6408 16.0376 66.6408C15.7916 66.6397 15.5479 66.6874 15.3204 66.7811C15.093 66.8747 14.8863 67.0125 14.7124 67.1864C14.5385 67.3604 14.4007 67.567 14.3071 67.7945C14.2134 68.0219 14.1657 68.2656 14.1667 68.5116Z" fill="white"/>
<path opacity="0.3" d="M208.381 115.295L88.803 184.344V82.3737C88.8154 81.5139 89.0294 80.669 89.4279 79.9071C89.8264 79.1451 90.3983 78.4873 91.0974 77.9867L206.086 11.591C207.35 10.8437 208.381 11.6359 208.381 13.3249V115.295Z" fill="#86B2FF"/>
<path d="M206.355 120.953L90.805 187.67C89.6914 188.312 88.7871 187.67 88.7871 186.175V184.344L208.365 115.295V117.096C208.354 117.851 208.167 118.593 207.818 119.263C207.469 119.933 206.968 120.511 206.355 120.953Z" fill="#141414"/>
<path d="M89.6323 187.849L94.3182 190.562L94.7293 187.759L94.1015 186.429L88.7803 184.344L89.6323 187.849Z" fill="#141414"/>
<path d="M93.6157 187.132L88.7803 184.344L208.381 115.295L213.208 118.083L93.6157 187.132Z" fill="#86B2FF"/>
<path opacity="0.3" d="M93.2415 85.1441L93.2414 85.1441V85.1539V186.478L89.1608 184.128V82.3781C89.173 81.8602 89.2642 81.3481 89.4307 80.8593C90.8022 81.6635 92.2545 82.3214 93.7636 82.8221C93.4405 83.5534 93.2626 84.3421 93.2415 85.1441Z" fill="#86B2FF" stroke="#141414" stroke-width="0.747362"/>
<path opacity="0.6" d="M207.595 11.479C207.361 11.3571 207.097 11.3023 206.833 11.3208C206.57 11.3392 206.316 11.4302 206.101 11.5837L91.0817 77.9868C90.2407 78.5501 89.5976 79.363 89.2432 80.3111C90.8225 81.2851 92.5172 82.0583 94.2879 82.613C94.6536 81.8697 95.2141 81.2395 95.9096 80.7894L210.914 14.3713C211.132 14.2239 211.384 14.1366 211.647 14.1182C211.909 14.0998 212.172 14.1511 212.408 14.2667L207.595 11.479Z" fill="#86B2FF"/>
<path d="M211.19 123.74L95.6331 190.457C94.5195 191.1 93.6152 190.413 93.6152 188.925V187.124L213.193 118.075V119.876C213.183 120.632 212.996 121.375 212.649 122.045C212.301 122.716 211.801 123.296 211.19 123.74Z" fill="#141414"/>
<path opacity="0.3" d="M93.6173 85.1539C93.6297 84.2951 93.8438 83.4513 94.2424 82.6905C94.6409 81.9298 95.2128 81.2734 95.9117 80.7743L210.916 14.3712C211.269 14.1415 211.698 14.0584 212.112 14.1395C211.869 13.9479 211.569 13.8437 211.26 13.8438C210.95 13.8437 210.65 13.9479 210.408 14.1395L95.4035 80.4978C94.7044 80.9984 94.1326 81.6562 93.7341 82.4182C93.3356 83.1801 93.1215 84.025 93.1091 84.8848V186.847L93.6173 187.124V85.1539Z" fill="#86B2FF"/>
<path d="M94.5568 81.2003L90.237 78.7115C89.8176 79.1846 89.4815 79.7254 89.243 80.3109C89.0543 80.7536 88.9212 81.218 88.8469 81.6935L93.1667 84.1822C93.3421 83.0778 93.8237 82.0447 94.5568 81.2003Z" fill="#86B2FF"/>
<path opacity="0.3" d="M213.209 118.075L93.6311 187.124V85.1541C93.6435 84.2954 93.8576 83.4515 94.2561 82.6908C94.6547 81.93 95.2265 81.2736 95.9255 80.7746L210.915 14.3714C212.185 13.6241 213.209 14.4163 213.209 16.1128V118.075Z" fill="#86B2FF"/>
<path opacity="0.3" d="M210.637 119.294L96.1114 185.413C95.8582 185.558 95.5713 185.634 95.2794 185.634C94.9875 185.633 94.7008 185.556 94.448 185.41C94.1952 185.264 93.9853 185.054 93.8391 184.802C93.693 184.549 93.6158 184.262 93.6152 183.97V84.8849C93.6276 84.0262 93.8417 83.1824 94.2403 82.4216C94.6388 81.6609 95.2107 81.0044 95.9096 80.5054L210.914 14.1023C212.184 13.3549 213.208 14.1471 213.208 15.8361V114.839C213.208 115.742 212.971 116.629 212.52 117.411C212.068 118.193 211.419 118.842 210.637 119.294Z" fill="#0962FF"/>
<mask id="mask0_1240_5407" style="mask-type:luminance" maskUnits="userSpaceOnUse" x="93" y="13" width="121" height="173">
<path d="M210.636 119.294L96.1107 185.413C95.8575 185.558 95.5706 185.634 95.2787 185.634C94.9867 185.633 94.7 185.556 94.4473 185.41C94.1945 185.264 93.9845 185.054 93.8384 184.802C93.6922 184.549 93.615 184.262 93.6145 183.97V84.8849C93.6269 84.0262 93.841 83.1824 94.2395 82.4216C94.6381 81.6609 95.2099 81.0044 95.9089 80.5054L210.913 14.1023C212.183 13.3549 213.207 14.1471 213.207 15.8361V114.839C213.208 115.742 212.97 116.629 212.519 117.411C212.067 118.193 211.418 118.842 210.636 119.294Z" fill="white"/>
</mask>
<g mask="url(#mask0_1240_5407)">
<path d="M104.101 71.1782C104.09 71.3545 104.038 71.5258 103.95 71.6788C103.862 71.8318 103.74 71.9623 103.593 72.0601C103.309 72.2245 103.077 72.0601 103.077 71.7686C103.087 71.5903 103.139 71.4168 103.228 71.2623C103.318 71.1078 103.443 70.9765 103.593 70.8793C103.869 70.7223 104.101 70.8494 104.101 71.1782Z" fill="#86B2FF"/>
<path d="M115.178 64.7882C115.168 64.9647 115.117 65.1365 115.029 65.2897C114.94 65.4429 114.817 65.5732 114.669 65.6701C114.385 65.8345 114.161 65.6701 114.161 65.3711C114.171 65.1946 114.222 65.0228 114.31 64.8696C114.398 64.7165 114.521 64.5862 114.669 64.4892C114.946 64.3248 115.178 64.4593 115.178 64.7882Z" fill="#86B2FF"/>
<path d="M126.246 58.391C126.237 58.5677 126.186 58.7397 126.098 58.893C126.01 59.0462 125.886 59.1764 125.738 59.2729C125.454 59.4373 125.222 59.3103 125.222 58.9814C125.232 58.8041 125.284 58.6316 125.374 58.4783C125.464 58.325 125.588 58.1952 125.738 58.0995C126.015 57.9351 126.246 58.0696 126.246 58.391Z" fill="#86B2FF"/>
<path d="M137.315 52.001C137.305 52.1775 137.254 52.3493 137.166 52.5025C137.077 52.6556 136.954 52.786 136.807 52.8829C136.523 53.0473 136.298 52.8829 136.298 52.5914C136.307 52.4136 136.357 52.2403 136.446 52.0857C136.534 51.9312 136.658 51.7997 136.807 51.702C137.091 51.5451 137.315 51.6721 137.315 52.001Z" fill="#86B2FF"/>
<path d="M148.391 45.6112C148.379 45.7883 148.327 45.9602 148.237 46.1134C148.148 46.2665 148.024 46.3966 147.875 46.4931C147.598 46.6575 147.367 46.4931 147.367 46.1941C147.378 46.0179 147.429 45.8465 147.517 45.6935C147.605 45.5405 147.728 45.41 147.875 45.3123C148.159 45.1852 148.391 45.2824 148.391 45.6112Z" fill="#86B2FF"/>
<path d="M159.459 39.206C159.45 39.3838 159.399 39.5571 159.311 39.7116C159.223 39.8662 159.099 39.9977 158.95 40.0953C158.666 40.2523 158.442 40.0953 158.442 39.7964C158.452 39.6199 158.503 39.4481 158.591 39.2949C158.679 39.1417 158.802 39.0114 158.95 38.9145C159.272 38.7576 159.459 38.8921 159.459 39.206Z" fill="#86B2FF"/>
<path d="M170.534 32.8234C170.523 33.0005 170.471 33.1725 170.381 33.3256C170.292 33.4787 170.168 33.6088 170.019 33.7053C169.742 33.8697 169.51 33.7053 169.51 33.4138C169.52 33.2372 169.57 33.0652 169.659 32.9119C169.747 32.7586 169.87 32.6284 170.019 32.5319C170.303 32.3675 170.534 32.4796 170.534 32.8234Z" fill="#86B2FF"/>
<path d="M181.603 26.4337C181.592 26.61 181.54 26.7813 181.452 26.9343C181.364 27.0873 181.242 27.2178 181.095 27.3156C180.811 27.48 180.579 27.3156 180.579 27.0166C180.59 26.8396 180.642 26.6676 180.732 26.5145C180.822 26.3613 180.946 26.2313 181.095 26.1347C181.371 25.9703 181.603 26.1049 181.603 26.4337Z" fill="#86B2FF"/>
<path d="M192.671 20.0365C192.662 20.2143 192.612 20.3875 192.523 20.5421C192.435 20.6967 192.311 20.8282 192.162 20.9258C191.878 21.0828 191.654 20.9258 191.654 20.6269C191.668 20.4562 191.72 20.2908 191.806 20.1431C191.893 19.9955 192.012 19.8696 192.155 19.7749C192.446 19.5806 192.671 19.7151 192.671 20.0365Z" fill="#86B2FF"/>
<path d="M203.748 13.6465C203.737 13.8229 203.686 13.9945 203.598 14.1476C203.51 14.3007 203.387 14.4311 203.24 14.5284C202.956 14.6928 202.724 14.5284 202.724 14.2369C202.733 14.0594 202.785 13.8868 202.875 13.7334C202.964 13.5799 203.089 13.4502 203.24 13.355C203.516 13.1906 203.748 13.3177 203.748 13.6465Z" fill="#86B2FF"/>
<path d="M104.101 81.5442C104.092 81.7208 104.041 81.8928 103.953 82.0461C103.864 82.1994 103.741 82.3296 103.593 82.426C103.309 82.5905 103.077 82.426 103.077 82.1346C103.087 81.9572 103.139 81.7848 103.228 81.6315C103.318 81.4781 103.443 81.3483 103.593 81.2527C103.869 81.0584 104.101 81.2228 104.101 81.5442Z" fill="#86B2FF"/>
<path d="M115.178 75.1543C115.168 75.3308 115.117 75.5026 115.029 75.6558C114.94 75.809 114.817 75.9393 114.669 76.0362C114.385 76.2006 114.161 76.0362 114.161 75.7447C114.17 75.5669 114.22 75.3936 114.309 75.2391C114.397 75.0845 114.52 74.953 114.669 74.8553C114.946 74.6984 115.178 74.8255 115.178 75.1543Z" fill="#86B2FF"/>
<path d="M126.246 68.7643C126.235 68.9405 126.184 69.1119 126.096 69.2649C126.008 69.4179 125.885 69.5484 125.738 69.6461C125.454 69.8106 125.222 69.6462 125.222 69.3472C125.234 69.1702 125.286 68.9982 125.376 68.845C125.465 68.6919 125.589 68.5618 125.738 68.4653C126.015 68.3009 126.246 68.4354 126.246 68.7643Z" fill="#86B2FF"/>
<path d="M137.315 62.3743C137.306 62.5521 137.256 62.7254 137.167 62.8799C137.079 63.0345 136.955 63.166 136.807 63.2637C136.523 63.4206 136.298 63.2636 136.298 62.9647C136.308 62.7882 136.359 62.6164 136.447 62.4632C136.536 62.31 136.659 62.1797 136.807 62.0828C137.091 61.9109 137.315 62.0455 137.315 62.3743Z" fill="#86B2FF"/>
<path d="M148.391 55.977C148.379 56.154 148.327 56.326 148.237 56.4791C148.148 56.6323 148.024 56.7623 147.875 56.8588C147.598 57.0233 147.367 56.8588 147.367 56.5674C147.376 56.3907 147.427 56.2187 147.515 56.0654C147.603 55.9122 147.727 55.782 147.875 55.6855C148.159 55.5211 148.391 55.6481 148.391 55.977Z" fill="#86B2FF"/>
<path d="M159.459 49.5871C159.449 49.7637 159.398 49.9354 159.31 50.0886C159.221 50.2418 159.098 50.3721 158.95 50.469C158.666 50.6334 158.442 50.469 158.442 50.1701C158.452 49.9935 158.503 49.8218 158.591 49.6686C158.679 49.5154 158.802 49.3851 158.95 49.2882C159.272 49.1238 159.459 49.2583 159.459 49.5871Z" fill="#86B2FF"/>
<path d="M170.534 43.1895C170.524 43.3678 170.473 43.5413 170.383 43.6958C170.293 43.8503 170.169 43.9816 170.019 44.0788C169.742 44.2358 169.51 44.0788 169.51 43.7799C169.521 43.6036 169.573 43.4323 169.661 43.2793C169.749 43.1263 169.872 42.9958 170.019 42.898C170.303 42.7336 170.534 42.8681 170.534 43.1895Z" fill="#86B2FF"/>
<path d="M181.603 36.7993C181.592 36.9757 181.541 37.1473 181.453 37.3004C181.365 37.4535 181.242 37.5839 181.095 37.6812C180.811 37.8457 180.579 37.6812 180.579 37.3898C180.588 37.2123 180.64 37.0396 180.73 36.8862C180.819 36.7328 180.944 36.6031 181.095 36.5079C181.371 36.3435 181.603 36.4705 181.603 36.7993Z" fill="#86B2FF"/>
<path d="M192.671 30.4098C192.661 30.5863 192.61 30.7581 192.522 30.9113C192.433 31.0645 192.31 31.1948 192.162 31.2917C191.878 31.4561 191.654 31.2917 191.654 31.0002C191.663 30.8224 191.713 30.6491 191.802 30.4945C191.89 30.34 192.014 30.2085 192.162 30.1108C192.446 29.9539 192.671 30.0809 192.671 30.4098Z" fill="#86B2FF"/>
<path d="M203.748 24.0123C203.737 24.1898 203.686 24.3624 203.598 24.5167C203.51 24.671 203.387 24.8028 203.24 24.9017C202.956 25.0586 202.724 24.9017 202.724 24.6028C202.735 24.4257 202.787 24.2537 202.877 24.1006C202.967 23.9474 203.091 23.8174 203.24 23.7209C203.516 23.5564 203.748 23.691 203.748 24.0123Z" fill="#86B2FF"/>
<path d="M104.101 91.9175C104.09 92.0937 104.038 92.2651 103.95 92.4181C103.862 92.5711 103.74 92.7016 103.593 92.7993C103.309 92.9638 103.077 92.7993 103.077 92.5004C103.088 92.3233 103.14 92.1514 103.23 91.9982C103.32 91.8451 103.444 91.715 103.593 91.6185C103.869 91.4541 104.101 91.5886 104.101 91.9175Z" fill="#86B2FF"/>
<path d="M115.178 85.5427C115.169 85.7205 115.118 85.8938 115.03 86.0483C114.942 86.2029 114.818 86.3344 114.669 86.432C114.385 86.589 114.161 86.432 114.161 86.1331C114.171 85.9566 114.222 85.7848 114.31 85.6316C114.398 85.4784 114.521 85.3481 114.669 85.2512C114.946 85.0644 115.178 85.1989 115.178 85.5427Z" fill="#86B2FF"/>
<path d="M126.246 79.1303C126.235 79.3065 126.184 79.4779 126.096 79.6309C126.008 79.7839 125.885 79.9144 125.738 80.0122C125.454 80.1766 125.222 80.0122 125.222 79.7207C125.232 79.5432 125.283 79.3705 125.373 79.2171C125.463 79.0637 125.588 78.934 125.738 78.8388C126.015 78.6744 126.246 78.8164 126.246 79.1303Z" fill="#86B2FF"/>
<path d="M137.315 72.7405C137.305 72.917 137.254 73.0888 137.166 73.2419C137.077 73.3951 136.954 73.5254 136.807 73.6223C136.523 73.7868 136.298 73.6223 136.298 73.3234C136.308 73.1469 136.359 72.9751 136.447 72.8219C136.536 72.6687 136.659 72.5384 136.807 72.4415C137.091 72.2771 137.315 72.4116 137.315 72.7405Z" fill="#86B2FF"/>
<path d="M148.391 66.3429C148.381 66.5213 148.329 66.6947 148.239 66.8493C148.15 67.0038 148.025 67.135 147.875 67.2323C147.598 67.3892 147.367 67.2323 147.367 66.9333C147.378 66.7571 147.429 66.5857 147.517 66.4327C147.605 66.2797 147.728 66.1492 147.875 66.0514C148.159 65.887 148.391 66.0215 148.391 66.3429Z" fill="#86B2FF"/>
<path d="M159.459 59.953C159.45 60.1298 159.399 60.3021 159.311 60.4554C159.223 60.6088 159.099 60.7389 158.95 60.8349C158.666 60.9993 158.442 60.8349 158.442 60.5435C158.45 60.3665 158.5 60.194 158.589 60.0406C158.677 59.8871 158.801 59.7571 158.95 59.6616C159.272 59.4971 159.459 59.6242 159.459 59.953Z" fill="#86B2FF"/>
<path d="M170.534 53.5627C170.523 53.7398 170.471 53.9118 170.381 54.0649C170.292 54.2181 170.168 54.3481 170.019 54.4446C169.742 54.6091 169.51 54.4446 169.51 54.1532C169.521 53.9757 169.572 53.8031 169.66 53.6488C169.748 53.4945 169.871 53.3627 170.019 53.2638C170.303 53.1069 170.534 53.2339 170.534 53.5627Z" fill="#86B2FF"/>
<path d="M181.603 47.1654C181.592 47.3428 181.541 47.5154 181.453 47.6697C181.365 47.824 181.242 47.9558 181.095 48.0547C180.811 48.2117 180.579 48.0547 180.579 47.7558C180.59 47.5787 180.642 47.4067 180.732 47.2536C180.822 47.1005 180.946 46.9704 181.095 46.8739C181.371 46.6796 181.603 46.844 181.603 47.1654Z" fill="#86B2FF"/>
<path d="M192.671 40.7756C192.663 40.9526 192.613 41.1251 192.524 41.2785C192.436 41.432 192.312 41.562 192.162 41.6575C191.878 41.822 191.654 41.6575 191.654 41.3661C191.662 41.1891 191.712 41.0167 191.801 40.8632C191.889 40.7097 192.013 40.5797 192.162 40.4842C192.446 40.3198 192.671 40.4543 192.671 40.7756Z" fill="#86B2FF"/>
<path d="M203.748 34.3857C203.737 34.562 203.685 34.7333 203.597 34.8863C203.509 35.0394 203.387 35.1699 203.24 35.2676C202.956 35.432 202.724 35.2676 202.724 34.9762C202.734 34.7978 202.786 34.6243 202.875 34.4698C202.965 34.3153 203.09 34.1841 203.24 34.0868C203.516 33.9298 203.748 34.0569 203.748 34.3857Z" fill="#86B2FF"/>
<path d="M104.101 102.283C104.09 102.46 104.038 102.631 103.95 102.784C103.862 102.937 103.74 103.067 103.593 103.165C103.309 103.33 103.077 103.165 103.077 102.874C103.086 102.696 103.138 102.524 103.228 102.37C103.317 102.217 103.442 102.087 103.593 101.992C103.869 101.827 104.101 101.984 104.101 102.283Z" fill="#86B2FF"/>
<path d="M115.178 95.8937C115.168 96.0702 115.117 96.242 115.029 96.3951C114.94 96.5483 114.817 96.6786 114.669 96.7755C114.385 96.94 114.161 96.7755 114.161 96.4766C114.171 96.3001 114.222 96.1283 114.31 95.9751C114.398 95.8219 114.521 95.6916 114.669 95.5947C114.946 95.4303 115.178 95.5648 115.178 95.8937Z" fill="#86B2FF"/>
<path d="M126.246 89.4962C126.236 89.6736 126.185 89.8463 126.097 90.0006C126.008 90.1549 125.886 90.2866 125.738 90.3856C125.454 90.5425 125.222 90.3856 125.222 90.0866C125.234 89.9096 125.286 89.7376 125.376 89.5845C125.465 89.4313 125.589 89.3013 125.738 89.2048C126.015 89.0403 126.246 89.1749 126.246 89.4962Z" fill="#86B2FF"/>
<path d="M137.315 83.1064C137.306 83.2832 137.256 83.4554 137.167 83.6087C137.079 83.7621 136.955 83.8922 136.807 83.9882C136.523 84.1527 136.298 83.9882 136.298 83.6968C136.306 83.5198 136.357 83.3474 136.445 83.1939C136.533 83.0404 136.657 82.9104 136.807 82.8149C137.091 82.6505 137.315 82.7775 137.315 83.1064Z" fill="#86B2FF"/>
<path d="M148.391 76.7164C148.379 76.8935 148.327 77.0655 148.237 77.2186C148.148 77.3718 148.024 77.5018 147.875 77.5983C147.598 77.7627 147.367 77.5983 147.367 77.3068C147.377 77.1294 147.428 76.9568 147.516 76.8025C147.605 76.6482 147.727 76.5164 147.875 76.4175C148.159 76.2605 148.391 76.3876 148.391 76.7164Z" fill="#86B2FF"/>
<path d="M159.459 70.3187C159.45 70.4965 159.399 70.6698 159.311 70.8244C159.223 70.9789 159.099 71.1104 158.95 71.2081C158.666 71.365 158.442 71.2081 158.442 70.9091C158.452 70.7326 158.503 70.5608 158.591 70.4076C158.679 70.2544 158.802 70.1242 158.95 70.0272C159.272 69.8479 159.459 69.9973 159.459 70.3187Z" fill="#86B2FF"/>
<path d="M170.534 63.9287C170.525 64.1062 170.473 64.2789 170.384 64.4323C170.294 64.5857 170.169 64.7154 170.019 64.8106C169.742 64.975 169.51 64.8106 169.51 64.5191C169.52 64.3425 169.57 64.1705 169.659 64.0172C169.747 63.8639 169.87 63.7337 170.019 63.6373C170.303 63.4728 170.534 63.6074 170.534 63.9287Z" fill="#86B2FF"/>
<path d="M181.603 57.5388C181.592 57.7151 181.54 57.8864 181.452 58.0394C181.364 58.1924 181.242 58.3229 181.095 58.4207C180.811 58.5851 180.579 58.4207 180.579 58.1292C180.589 57.9509 180.641 57.7774 180.73 57.6229C180.82 57.4684 180.945 57.3371 181.095 57.2399C181.371 57.0829 181.603 57.21 181.603 57.5388Z" fill="#86B2FF"/>
<path d="M192.671 51.1641C192.662 51.342 192.612 51.5152 192.523 51.6698C192.435 51.8244 192.311 51.9559 192.162 52.0535C191.878 52.2104 191.654 52.0535 191.654 51.7546C191.664 51.578 191.715 51.4062 191.803 51.2531C191.892 51.0999 192.015 50.9696 192.162 50.8727C192.446 50.6858 192.671 50.8204 192.671 51.1641Z" fill="#86B2FF"/>
<path d="M203.748 44.7517C203.739 44.9284 203.688 45.1004 203.6 45.2537C203.511 45.407 203.388 45.5371 203.24 45.6336C202.956 45.798 202.724 45.671 202.724 45.3422C202.734 45.1648 202.786 44.9924 202.875 44.8391C202.965 44.6857 203.09 44.5559 203.24 44.4603C203.516 44.2958 203.748 44.4378 203.748 44.7517Z" fill="#86B2FF"/>
<path d="M104.101 112.649C104.09 112.827 104.039 112.999 103.951 113.154C103.863 113.308 103.74 113.44 103.593 113.539C103.309 113.696 103.077 113.539 103.077 113.24C103.088 113.063 103.14 112.891 103.23 112.738C103.32 112.585 103.444 112.454 103.593 112.358C103.869 112.194 104.101 112.328 104.101 112.649Z" fill="#86B2FF"/>
<path d="M115.178 106.26C115.17 106.437 115.119 106.609 115.031 106.763C114.942 106.916 114.818 107.046 114.669 107.142C114.385 107.306 114.161 107.142 114.161 106.85C114.169 106.673 114.219 106.501 114.308 106.347C114.396 106.194 114.52 106.064 114.669 105.968C114.946 105.804 115.178 105.931 115.178 106.26Z" fill="#86B2FF"/>
<path d="M126.246 99.8694C126.235 100.046 126.184 100.217 126.096 100.37C126.008 100.523 125.885 100.654 125.738 100.751C125.454 100.916 125.222 100.751 125.222 100.46C125.232 100.281 125.284 100.108 125.374 99.9534C125.463 99.7989 125.588 99.6677 125.738 99.5704C126.015 99.4135 126.246 99.5405 126.246 99.8694Z" fill="#86B2FF"/>
<path d="M137.315 93.4723C137.306 93.6501 137.256 93.8234 137.167 93.978C137.079 94.1325 136.955 94.264 136.807 94.3617C136.523 94.5186 136.298 94.3617 136.298 94.0627C136.308 93.8862 136.359 93.7144 136.447 93.5612C136.536 93.408 136.659 93.2777 136.807 93.1808C137.091 93.0164 137.315 93.1509 137.315 93.4723Z" fill="#86B2FF"/>
<path d="M148.391 87.0822C148.381 87.2596 148.33 87.4323 148.24 87.5857C148.15 87.7392 148.025 87.8689 147.875 87.9641C147.598 88.1285 147.367 87.9641 147.367 87.6726C147.376 87.4959 147.427 87.3239 147.515 87.1706C147.603 87.0174 147.727 86.8872 147.875 86.7907C148.159 86.6263 148.391 86.7608 148.391 87.0822Z" fill="#86B2FF"/>
<path d="M159.459 80.6923C159.449 80.8688 159.398 81.0406 159.31 81.1938C159.221 81.3469 159.098 81.4772 158.95 81.5741C158.666 81.7386 158.442 81.5741 158.442 81.2827C158.451 81.1049 158.501 80.9316 158.59 80.777C158.678 80.6224 158.801 80.491 158.95 80.3933C159.272 80.2364 159.459 80.3634 159.459 80.6923Z" fill="#86B2FF"/>
<path d="M170.534 74.332C170.524 74.5103 170.473 74.6838 170.383 74.8383C170.293 74.9928 170.169 75.1241 170.019 75.2213C169.742 75.3783 169.51 75.2213 169.51 74.9224C169.521 74.7461 169.573 74.5748 169.661 74.4218C169.749 74.2688 169.872 74.1383 170.019 74.0405C170.303 73.8387 170.534 73.9732 170.534 74.332Z" fill="#86B2FF"/>
<path d="M181.603 67.9045C181.594 68.0811 181.543 68.2531 181.455 68.4064C181.366 68.5597 181.243 68.6899 181.095 68.7863C180.811 68.9508 180.579 68.7863 180.579 68.4949C180.589 68.3175 180.641 68.1451 180.73 67.9918C180.82 67.8384 180.945 67.7086 181.095 67.613C181.371 67.4486 181.603 67.6055 181.603 67.9045Z" fill="#86B2FF"/>
<path d="M192.671 61.5149C192.657 61.6883 192.603 61.856 192.514 62.0051C192.424 62.1542 192.302 62.2806 192.155 62.3744C191.871 62.5388 191.647 62.3744 191.647 62.0829C191.656 61.9051 191.706 61.7319 191.795 61.5773C191.883 61.4227 192.007 61.2912 192.155 61.1936C192.447 61.0591 192.671 61.1861 192.671 61.5149Z" fill="#86B2FF"/>
<path d="M203.748 55.125C203.737 55.3012 203.685 55.4726 203.597 55.6256C203.509 55.7786 203.387 55.9091 203.24 56.0069C202.956 56.1713 202.724 56.0069 202.724 55.7079C202.735 55.5309 202.787 55.3589 202.877 55.2057C202.967 55.0526 203.091 54.9226 203.24 54.826C203.516 54.6616 203.748 54.7961 203.748 55.125Z" fill="#86B2FF"/>
<path d="M104.101 123.023C104.09 123.199 104.038 123.37 103.95 123.523C103.862 123.676 103.74 123.807 103.593 123.904C103.309 124.069 103.077 123.904 103.077 123.613C103.087 123.435 103.139 123.261 103.228 123.107C103.318 122.952 103.443 122.821 103.593 122.724C103.869 122.567 104.101 122.694 104.101 123.023Z" fill="#86B2FF"/>
<path d="M115.178 116.625C115.169 116.803 115.118 116.977 115.03 117.131C114.942 117.286 114.818 117.417 114.669 117.515C114.385 117.672 114.161 117.515 114.161 117.216C114.171 117.039 114.222 116.868 114.31 116.714C114.398 116.561 114.521 116.431 114.669 116.334C114.946 116.184 115.178 116.304 115.178 116.625Z" fill="#86B2FF"/>
<path d="M126.246 110.206C126.237 110.382 126.186 110.554 126.098 110.708C126.01 110.861 125.886 110.991 125.738 111.088C125.454 111.252 125.222 111.088 125.222 110.796C125.232 110.619 125.283 110.446 125.373 110.292C125.463 110.139 125.588 110.009 125.738 109.914C126.015 109.78 126.246 109.914 126.246 110.206Z" fill="#86B2FF"/>
<path d="M137.315 103.846C137.305 104.022 137.254 104.194 137.166 104.347C137.077 104.5 136.954 104.631 136.807 104.727C136.523 104.892 136.298 104.727 136.298 104.436C136.307 104.258 136.357 104.085 136.446 103.93C136.534 103.776 136.658 103.644 136.807 103.547C137.091 103.39 137.315 103.517 137.315 103.846Z" fill="#86B2FF"/>
<path d="M148.391 97.4481C148.381 97.6265 148.329 97.8 148.239 97.9545C148.15 98.109 148.025 98.2402 147.875 98.3375C147.598 98.4944 147.367 98.3375 147.367 98.0386C147.378 97.8623 147.429 97.691 147.517 97.5379C147.605 97.3849 147.728 97.2544 147.875 97.1567C148.159 96.9922 148.391 97.1268 148.391 97.4481Z" fill="#86B2FF"/>
<path d="M159.459 91.0582C159.451 91.2351 159.4 91.4075 159.312 91.561C159.223 91.7145 159.099 91.8445 158.95 91.94C158.666 92.1045 158.442 91.9774 158.442 91.6486C158.451 91.4718 158.501 91.2995 158.59 91.1462C158.678 90.9928 158.802 90.8627 158.95 90.7667C159.272 90.6023 159.459 90.7742 159.459 91.0582Z" fill="#86B2FF"/>
<path d="M170.534 84.6682C170.523 84.8453 170.471 85.0173 170.381 85.1704C170.292 85.3235 170.168 85.4536 170.019 85.5501C169.742 85.7145 169.51 85.5501 169.51 85.2586C169.521 85.0812 169.572 84.9086 169.66 84.7543C169.748 84.6 169.871 84.4682 170.019 84.3693C170.303 84.2123 170.534 84.3394 170.534 84.6682Z" fill="#86B2FF"/>
<path d="M181.603 78.2779C181.592 78.4542 181.54 78.6255 181.452 78.7785C181.364 78.9315 181.242 79.062 181.095 79.1598C180.811 79.3242 180.579 79.1598 180.579 78.8609C180.59 78.6838 180.642 78.5118 180.732 78.3587C180.822 78.2055 180.946 78.0755 181.095 77.979C181.371 77.8146 181.603 77.9491 181.603 78.2779Z" fill="#86B2FF"/>
<path d="M192.671 71.8807C192.663 72.0577 192.613 72.2302 192.524 72.3836C192.436 72.5371 192.312 72.6671 192.162 72.7626C191.878 72.927 191.654 72.7626 191.654 72.4712C191.664 72.2946 191.715 72.1229 191.803 71.9697C191.892 71.8165 192.015 71.6862 192.162 71.5893C192.446 71.4249 192.671 71.5594 192.671 71.8807Z" fill="#86B2FF"/>
<path d="M203.748 65.4908C203.737 65.6671 203.685 65.8384 203.597 65.9914C203.509 66.1444 203.387 66.275 203.24 66.3727C202.956 66.5372 202.724 66.3727 202.724 66.0813C202.734 65.9029 202.786 65.7294 202.875 65.5749C202.965 65.4204 203.09 65.2892 203.24 65.1919C203.516 65.035 203.748 65.162 203.748 65.4908Z" fill="#86B2FF"/>
<path d="M104.101 133.374C104.092 133.55 104.041 133.722 103.953 133.876C103.864 134.029 103.741 134.159 103.593 134.256C103.309 134.42 103.077 134.256 103.077 133.964C103.086 133.787 103.138 133.614 103.228 133.461C103.317 133.307 103.442 133.177 103.593 133.082C103.869 132.933 104.101 133.067 104.101 133.374Z" fill="#86B2FF"/>
<path d="M115.178 126.999C115.168 127.175 115.117 127.347 115.029 127.5C114.94 127.653 114.817 127.784 114.669 127.881C114.385 128.045 114.161 127.881 114.161 127.589C114.17 127.411 114.22 127.238 114.309 127.084C114.397 126.929 114.52 126.797 114.669 126.7C114.946 126.543 115.178 126.647 115.178 126.999Z" fill="#86B2FF"/>
<path d="M126.246 120.601C126.236 120.779 126.185 120.951 126.097 121.106C126.008 121.26 125.886 121.392 125.738 121.491C125.454 121.648 125.222 121.491 125.222 121.192C125.234 121.015 125.286 120.843 125.376 120.69C125.465 120.537 125.589 120.407 125.738 120.31C126.015 120.146 126.246 120.28 126.246 120.601Z" fill="#86B2FF"/>
<path d="M137.315 114.211C137.307 114.388 137.257 114.561 137.168 114.714C137.08 114.868 136.956 114.998 136.807 115.093C136.523 115.258 136.298 115.131 136.298 114.802C136.307 114.625 136.357 114.453 136.446 114.299C136.534 114.146 136.658 114.016 136.807 113.92C137.091 113.755 137.315 113.89 137.315 114.211Z" fill="#86B2FF"/>
<path d="M148.391 107.822C148.379 107.999 148.327 108.171 148.237 108.324C148.148 108.477 148.024 108.607 147.875 108.704C147.598 108.868 147.367 108.704 147.367 108.412C147.377 108.235 147.428 108.062 147.516 107.908C147.605 107.753 147.727 107.622 147.875 107.523C148.159 107.366 148.391 107.493 148.391 107.822Z" fill="#86B2FF"/>
<path d="M159.459 101.432C159.449 101.608 159.398 101.78 159.31 101.933C159.221 102.086 159.098 102.217 158.95 102.314C158.666 102.478 158.442 102.314 158.442 102.015C158.452 101.838 158.503 101.666 158.591 101.513C158.679 101.36 158.802 101.23 158.95 101.133C159.272 100.968 159.459 101.103 159.459 101.432Z" fill="#86B2FF"/>
<path d="M170.534 95.0339C170.525 95.2114 170.473 95.3841 170.384 95.5375C170.294 95.6909 170.169 95.8207 170.019 95.9158C169.742 96.0803 169.51 95.9532 169.51 95.6244C169.521 95.4481 169.573 95.2768 169.661 95.1238C169.749 94.9707 169.872 94.8402 170.019 94.7425C170.303 94.5781 170.534 94.7126 170.534 95.0339Z" fill="#86B2FF"/>
<path d="M181.603 88.644C181.592 88.8203 181.54 88.9917 181.452 89.1447C181.364 89.2977 181.242 89.4282 181.095 89.5259C180.811 89.6904 180.579 89.5259 180.579 89.2345C180.589 89.0561 180.641 88.8826 180.73 88.7281C180.82 88.5736 180.945 88.4424 181.095 88.3451C181.371 88.1882 181.603 88.3152 181.603 88.644Z" fill="#86B2FF"/>
<path d="M192.671 82.2542C192.661 82.4307 192.61 82.6025 192.522 82.7557C192.433 82.9088 192.31 83.0391 192.162 83.1361C191.878 83.3005 191.654 83.1361 191.654 82.8371C191.664 82.6606 191.715 82.4888 191.803 82.3356C191.892 82.1824 192.015 82.0521 192.162 81.9552C192.446 81.8058 192.671 81.9253 192.671 82.2542Z" fill="#86B2FF"/>
<path d="M203.748 75.8269C203.737 76.0043 203.686 76.1769 203.598 76.3312C203.51 76.4855 203.387 76.6173 203.24 76.7162C202.956 76.8732 202.724 76.7162 202.724 76.4173C202.735 76.2402 202.787 76.0682 202.877 75.9151C202.967 75.7619 203.091 75.6319 203.24 75.5354C203.516 75.4009 203.748 75.5354 203.748 75.8269Z" fill="#86B2FF"/>
<path d="M104.101 143.755C104.09 143.932 104.039 144.105 103.951 144.259C103.863 144.413 103.74 144.545 103.593 144.644C103.309 144.801 103.077 144.644 103.077 144.345C103.088 144.168 103.14 143.996 103.23 143.843C103.32 143.69 103.444 143.56 103.593 143.463C103.869 143.299 104.101 143.433 104.101 143.755Z" fill="#86B2FF"/>
<path d="M115.178 137.365C115.17 137.542 115.119 137.714 115.031 137.868C114.942 138.021 114.818 138.151 114.669 138.247C114.385 138.411 114.161 138.247 114.161 137.955C114.17 137.778 114.22 137.606 114.309 137.453C114.397 137.299 114.521 137.169 114.669 137.073C114.946 136.909 115.178 137.043 115.178 137.365Z" fill="#86B2FF"/>
<path d="M126.246 130.975C126.235 131.151 126.184 131.322 126.096 131.475C126.008 131.628 125.885 131.759 125.738 131.857C125.454 132.021 125.222 131.857 125.222 131.565C125.232 131.387 125.284 131.213 125.374 131.059C125.463 130.904 125.588 130.773 125.738 130.676C126.015 130.519 126.246 130.646 126.246 130.975Z" fill="#86B2FF"/>
<path d="M137.315 124.585C137.305 124.761 137.254 124.933 137.166 125.086C137.077 125.24 136.954 125.37 136.807 125.467C136.523 125.631 136.298 125.467 136.298 125.168C136.308 124.991 136.359 124.82 136.447 124.666C136.536 124.513 136.659 124.383 136.807 124.286C137.091 124.122 137.315 124.256 137.315 124.585Z" fill="#86B2FF"/>
<path d="M148.391 118.187C148.381 118.365 148.33 118.538 148.24 118.691C148.15 118.844 148.025 118.974 147.875 119.069C147.598 119.234 147.367 119.069 147.367 118.778C147.378 118.602 147.429 118.43 147.517 118.277C147.605 118.124 147.728 117.994 147.875 117.896C148.159 117.731 148.391 117.866 148.391 118.187Z" fill="#86B2FF"/>
<path d="M159.459 111.797C159.449 111.974 159.398 112.146 159.31 112.299C159.221 112.452 159.098 112.582 158.95 112.679C158.666 112.844 158.442 112.679 158.442 112.388C158.451 112.21 158.501 112.037 158.59 111.882C158.678 111.728 158.801 111.596 158.95 111.499C159.272 111.342 159.459 111.469 159.459 111.797Z" fill="#86B2FF"/>
<path d="M170.534 105.407C170.523 105.584 170.471 105.756 170.381 105.91C170.292 106.063 170.168 106.193 170.019 106.289C169.742 106.454 169.51 106.289 169.51 105.99C169.521 105.814 169.573 105.643 169.661 105.49C169.749 105.337 169.872 105.206 170.019 105.108C170.303 104.974 170.534 105.079 170.534 105.407Z" fill="#86B2FF"/>
<path d="M181.603 98.9949C181.592 99.1723 181.541 99.3449 181.453 99.4992C181.365 99.6535 181.242 99.7853 181.095 99.8843C180.811 100.041 180.579 99.8843 180.579 99.5853C180.59 99.4083 180.642 99.2363 180.732 99.0831C180.822 98.93 180.946 98.8 181.095 98.7034C181.371 98.554 181.603 98.6885 181.603 98.9949Z" fill="#86B2FF"/>
<path d="M192.671 92.62C192.662 92.7969 192.612 92.9691 192.523 93.1225C192.435 93.2758 192.311 93.4059 192.162 93.5019C191.878 93.6663 191.654 93.5019 191.654 93.2105C191.662 93.0335 191.712 92.8611 191.801 92.7076C191.889 92.5541 192.013 92.4241 192.162 92.3286C192.446 92.1642 192.671 92.2688 192.671 92.62Z" fill="#86B2FF"/>
<path d="M203.748 86.2302C203.737 86.4065 203.685 86.5778 203.597 86.7308C203.509 86.8838 203.387 87.0143 203.24 87.1121C202.956 87.2765 202.724 87.1121 202.724 86.8131C202.735 86.6361 202.787 86.4641 202.877 86.311C202.967 86.1578 203.091 86.0278 203.24 85.9313C203.516 85.7668 203.748 85.9014 203.748 86.2302Z" fill="#86B2FF"/>
<path d="M104.101 154.128C104.09 154.304 104.038 154.475 103.95 154.628C103.862 154.781 103.74 154.912 103.593 155.01C103.309 155.174 103.077 155.01 103.077 154.718C103.087 154.54 103.139 154.366 103.228 154.212C103.318 154.057 103.443 153.926 103.593 153.829C103.869 153.672 104.101 153.799 104.101 154.128Z" fill="#86B2FF"/>
<path d="M115.178 147.738C115.168 147.915 115.117 148.087 115.029 148.24C114.94 148.393 114.817 148.523 114.669 148.62C114.385 148.785 114.161 148.62 114.161 148.321C114.171 148.145 114.222 147.973 114.31 147.82C114.398 147.667 114.521 147.536 114.669 147.439C114.946 147.275 115.178 147.409 115.178 147.738Z" fill="#86B2FF"/>
<path d="M126.246 141.341C126.237 141.517 126.186 141.689 126.098 141.843C126.01 141.996 125.886 142.126 125.738 142.223C125.454 142.387 125.222 142.223 125.222 141.931C125.234 141.754 125.286 141.582 125.376 141.429C125.465 141.276 125.589 141.146 125.738 141.049C126.015 140.885 126.246 141.019 126.246 141.341Z" fill="#86B2FF"/>
<path d="M137.315 134.951C137.305 135.127 137.254 135.299 137.166 135.452C137.077 135.605 136.954 135.736 136.807 135.833C136.523 135.997 136.298 135.833 136.298 135.541C136.306 135.364 136.357 135.192 136.445 135.038C136.533 134.885 136.657 134.755 136.807 134.659C137.091 134.495 137.315 134.622 137.315 134.951Z" fill="#86B2FF"/>
<path d="M148.391 128.561C148.379 128.738 148.327 128.91 148.237 129.063C148.148 129.216 148.024 129.346 147.875 129.443C147.598 129.607 147.367 129.443 147.367 129.144C147.378 128.967 147.429 128.796 147.517 128.643C147.605 128.49 147.728 128.36 147.875 128.262C148.159 128.097 148.391 128.232 148.391 128.561Z" fill="#86B2FF"/>
<path d="M159.459 122.163C159.45 122.341 159.399 122.514 159.311 122.669C159.223 122.823 159.099 122.955 158.95 123.053C158.666 123.21 158.442 123.053 158.442 122.754C158.452 122.577 158.503 122.405 158.591 122.252C158.679 122.099 158.802 121.969 158.95 121.872C159.272 121.707 159.459 121.842 159.459 122.163Z" fill="#86B2FF"/>
<path d="M170.534 115.773C170.524 115.951 170.473 116.123 170.383 116.276C170.293 116.43 170.168 116.56 170.019 116.655C169.742 116.82 169.51 116.655 169.51 116.364C169.52 116.187 169.57 116.015 169.659 115.862C169.747 115.708 169.87 115.578 170.019 115.482C170.303 115.317 170.534 115.437 170.534 115.773Z" fill="#86B2FF"/>
<path d="M181.603 109.383C181.592 109.56 181.54 109.731 181.452 109.884C181.364 110.037 181.242 110.168 181.095 110.265C180.811 110.43 180.579 110.265 180.579 109.966C180.59 109.789 180.642 109.617 180.732 109.464C180.822 109.311 180.946 109.181 181.095 109.084C181.371 108.92 181.603 109.055 181.603 109.383Z" fill="#86B2FF"/>
<path d="M192.671 102.986C192.662 103.164 192.612 103.337 192.523 103.492C192.435 103.646 192.311 103.778 192.162 103.875C191.878 104.032 191.654 103.875 191.654 103.576C191.669 103.407 191.721 103.243 191.808 103.097C191.895 102.951 192.013 102.826 192.155 102.732C192.446 102.53 192.671 102.665 192.671 102.986Z" fill="#86B2FF"/>
<path d="M203.748 96.5962C203.739 96.7729 203.688 96.9449 203.6 97.0982C203.511 97.2514 203.388 97.3816 203.24 97.4781C202.956 97.6425 202.724 97.4781 202.724 97.1866C202.733 97.0091 202.785 96.8365 202.875 96.6831C202.964 96.5296 203.089 96.3999 203.24 96.3047C203.516 96.1403 203.748 96.2748 203.748 96.5962Z" fill="#86B2FF"/>
<path d="M104.101 164.494C104.092 164.67 104.041 164.842 103.953 164.996C103.864 165.149 103.741 165.279 103.593 165.376C103.309 165.54 103.077 165.413 103.077 165.084C103.088 164.907 103.14 164.735 103.23 164.582C103.32 164.429 103.444 164.299 103.593 164.202C103.869 164.015 104.101 164.172 104.101 164.494Z" fill="#86B2FF"/>
<path d="M115.178 158.104C115.168 158.281 115.117 158.452 115.029 158.606C114.94 158.759 114.817 158.889 114.669 158.986C114.385 159.15 114.161 158.986 114.161 158.694C114.169 158.518 114.219 158.345 114.308 158.192C114.396 158.038 114.52 157.908 114.669 157.813C114.946 157.648 115.178 157.775 115.178 158.104Z" fill="#86B2FF"/>
<path d="M126.246 151.714C126.235 151.89 126.184 152.062 126.096 152.215C126.008 152.368 125.885 152.498 125.738 152.596C125.454 152.76 125.222 152.596 125.222 152.297C125.234 152.12 125.286 151.948 125.376 151.795C125.465 151.642 125.589 151.512 125.738 151.415C126.015 151.251 126.246 151.385 126.246 151.714Z" fill="#86B2FF"/>
<path d="M137.315 145.332C137.306 145.509 137.256 145.683 137.167 145.837C137.079 145.992 136.955 146.123 136.807 146.221C136.523 146.378 136.298 146.221 136.298 145.922C136.308 145.746 136.359 145.574 136.447 145.421C136.536 145.267 136.659 145.137 136.807 145.04C137.091 144.861 137.315 144.995 137.315 145.332Z" fill="#86B2FF"/>
<path d="M148.391 138.927C148.381 139.104 148.329 139.277 148.239 139.43C148.149 139.583 148.025 139.713 147.875 139.809C147.598 139.973 147.367 139.809 147.367 139.517C147.376 139.341 147.427 139.169 147.515 139.015C147.603 138.862 147.727 138.732 147.875 138.635C148.159 138.471 148.391 138.605 148.391 138.927Z" fill="#86B2FF"/>
<path d="M159.459 132.537C159.449 132.713 159.398 132.885 159.31 133.038C159.221 133.191 159.098 133.322 158.95 133.419C158.666 133.583 158.442 133.419 158.442 133.12C158.452 132.943 158.503 132.771 158.591 132.618C158.679 132.465 158.802 132.335 158.95 132.238C159.272 132.073 159.459 132.208 159.459 132.537Z" fill="#86B2FF"/>
<path d="M170.534 126.139C170.524 126.318 170.473 126.491 170.383 126.646C170.293 126.8 170.169 126.931 170.019 127.029C169.742 127.185 169.51 127.029 169.51 126.73C169.521 126.553 169.573 126.382 169.661 126.229C169.749 126.076 169.872 125.945 170.019 125.848C170.303 125.683 170.534 125.818 170.534 126.139Z" fill="#86B2FF"/>
<path d="M181.603 119.749C181.594 119.926 181.543 120.098 181.455 120.251C181.366 120.404 181.243 120.535 181.095 120.631C180.811 120.795 180.579 120.631 180.579 120.34C180.588 120.162 180.64 119.989 180.73 119.836C180.819 119.683 180.944 119.553 181.095 119.458C181.371 119.293 181.603 119.428 181.603 119.749Z" fill="#86B2FF"/>
<path d="M192.671 113.359C192.661 113.536 192.61 113.708 192.522 113.861C192.433 114.014 192.31 114.144 192.162 114.241C191.878 114.406 191.654 114.241 191.654 113.95C191.663 113.772 191.713 113.599 191.802 113.444C191.89 113.29 192.014 113.158 192.162 113.061C192.446 112.904 192.671 113.031 192.671 113.359Z" fill="#86B2FF"/>
<path d="M203.748 106.962C203.737 107.14 203.686 107.312 203.598 107.467C203.51 107.621 203.387 107.753 203.24 107.852C202.956 108.008 202.724 107.852 202.724 107.553C202.735 107.376 202.787 107.204 202.877 107.05C202.967 106.897 203.091 106.767 203.24 106.671C203.516 106.506 203.748 106.641 203.748 106.962Z" fill="#86B2FF"/>
<path d="M104.101 174.867C104.09 175.044 104.038 175.215 103.95 175.368C103.862 175.521 103.74 175.651 103.593 175.749C103.309 175.914 103.077 175.749 103.077 175.45C103.088 175.273 103.14 175.101 103.23 174.948C103.32 174.795 103.444 174.665 103.593 174.568C103.869 174.404 104.101 174.538 104.101 174.867Z" fill="#86B2FF"/>
<path d="M115.178 168.5C115.169 168.678 115.118 168.851 115.03 169.005C114.942 169.16 114.818 169.291 114.669 169.389C114.385 169.546 114.161 169.389 114.161 169.09C114.171 168.914 114.222 168.742 114.31 168.589C114.398 168.435 114.521 168.305 114.669 168.208C114.946 168.014 115.178 168.148 115.178 168.5Z" fill="#86B2FF"/>
<path d="M126.246 162.08C126.236 162.256 126.185 162.428 126.096 162.581C126.008 162.734 125.886 162.865 125.738 162.962C125.454 163.126 125.222 162.962 125.222 162.67C125.232 162.493 125.283 162.32 125.373 162.167C125.463 162.013 125.588 161.884 125.738 161.789C126.015 161.624 126.246 161.774 126.246 162.08Z" fill="#86B2FF"/>
<path d="M137.315 155.69C137.305 155.867 137.254 156.038 137.166 156.192C137.077 156.345 136.954 156.475 136.807 156.572C136.523 156.736 136.298 156.572 136.298 156.28C136.307 156.103 136.357 155.929 136.446 155.775C136.534 155.62 136.658 155.489 136.807 155.391C137.091 155.227 137.315 155.361 137.315 155.69Z" fill="#86B2FF"/>
<path d="M148.391 149.293C148.381 149.471 148.329 149.644 148.239 149.799C148.15 149.953 148.025 150.085 147.875 150.182C147.598 150.339 147.367 150.182 147.367 149.883C147.378 149.707 147.429 149.535 147.517 149.382C147.605 149.229 147.728 149.099 147.875 149.001C148.159 148.837 148.391 148.971 148.391 149.293Z" fill="#86B2FF"/>
<path d="M159.459 142.903C159.451 143.08 159.4 143.252 159.312 143.406C159.223 143.559 159.099 143.689 158.95 143.785C158.666 143.949 158.442 143.785 158.442 143.493C158.45 143.316 158.5 143.144 158.589 142.99C158.677 142.837 158.801 142.707 158.95 142.611C159.272 142.447 159.459 142.581 159.459 142.903Z" fill="#86B2FF"/>
<path d="M170.534 136.512C170.523 136.689 170.471 136.861 170.381 137.015C170.292 137.168 170.168 137.298 170.019 137.394C169.742 137.559 169.51 137.394 169.51 137.103C169.521 136.925 169.572 136.753 169.66 136.599C169.748 136.444 169.871 136.312 170.019 136.214C170.303 136.057 170.534 136.184 170.534 136.512Z" fill="#86B2FF"/>
<path d="M181.603 130.115C181.592 130.293 181.541 130.465 181.453 130.62C181.365 130.774 181.242 130.906 181.095 131.005C180.811 131.162 180.579 131.005 180.579 130.706C180.59 130.529 180.642 130.357 180.732 130.203C180.822 130.05 180.946 129.92 181.095 129.824C181.371 129.637 181.603 129.794 181.603 130.115Z" fill="#86B2FF"/>
<path d="M192.671 123.725C192.663 123.902 192.613 124.075 192.524 124.228C192.436 124.382 192.312 124.512 192.162 124.607C191.878 124.772 191.654 124.607 191.654 124.316C191.662 124.139 191.712 123.966 191.801 123.813C191.889 123.659 192.013 123.529 192.162 123.434C192.446 123.269 192.671 123.404 192.671 123.725Z" fill="#86B2FF"/>
<path d="M203.748 117.335C203.737 117.512 203.685 117.683 203.597 117.836C203.509 117.989 203.387 118.119 203.24 118.217C202.956 118.382 202.724 118.217 202.724 117.926C202.734 117.747 202.786 117.574 202.875 117.419C202.965 117.265 203.09 117.134 203.24 117.036C203.516 116.879 203.748 117.006 203.748 117.335Z" fill="#86B2FF"/>
<path d="M104.101 185.233C104.09 185.41 104.039 185.581 103.951 185.734C103.863 185.887 103.74 186.018 103.593 186.115C103.309 186.279 103.077 186.115 103.077 185.824C103.086 185.646 103.138 185.473 103.228 185.32C103.317 185.167 103.442 185.037 103.593 184.942C103.869 184.777 104.101 184.942 104.101 185.233Z" fill="#86B2FF"/>
<path d="M115.178 178.843C115.168 179.02 115.117 179.192 115.029 179.345C114.94 179.498 114.817 179.628 114.669 179.725C114.385 179.89 114.161 179.725 114.161 179.426C114.171 179.25 114.222 179.078 114.31 178.925C114.398 178.772 114.521 178.641 114.669 178.544C114.946 178.38 115.178 178.515 115.178 178.843Z" fill="#86B2FF"/>
<path d="M126.246 172.446C126.236 172.623 126.185 172.796 126.097 172.95C126.008 173.105 125.886 173.236 125.738 173.335C125.454 173.492 125.222 173.335 125.222 173.036C125.234 172.859 125.286 172.687 125.376 172.534C125.465 172.381 125.589 172.251 125.738 172.154C126.015 171.99 126.246 172.125 126.246 172.446Z" fill="#86B2FF"/>
<path d="M137.315 166.056C137.307 166.233 137.257 166.406 137.168 166.559C137.08 166.713 136.956 166.842 136.807 166.938C136.523 167.102 136.298 166.938 136.298 166.647C136.306 166.47 136.357 166.297 136.445 166.144C136.533 165.99 136.657 165.86 136.807 165.765C137.091 165.6 137.315 165.735 137.315 166.056Z" fill="#86B2FF"/>
<path d="M148.391 159.666C148.379 159.843 148.327 160.015 148.237 160.168C148.148 160.321 148.024 160.451 147.875 160.548C147.598 160.712 147.367 160.548 147.367 160.257C147.377 160.079 147.428 159.907 147.516 159.752C147.605 159.598 147.727 159.466 147.875 159.367C148.159 159.21 148.391 159.337 148.391 159.666Z" fill="#86B2FF"/>
<path d="M159.459 153.269C159.45 153.446 159.399 153.62 159.311 153.774C159.223 153.929 159.099 154.06 158.95 154.158C158.666 154.315 158.442 154.158 158.442 153.859C158.452 153.683 158.503 153.511 158.591 153.358C158.679 153.204 158.802 153.074 158.95 152.977C159.272 152.805 159.459 152.947 159.459 153.269Z" fill="#86B2FF"/>
<path d="M170.534 146.879C170.525 147.056 170.473 147.229 170.384 147.382C170.294 147.536 170.169 147.665 170.019 147.76C169.742 147.925 169.51 147.76 169.51 147.469C169.52 147.292 169.57 147.12 169.659 146.967C169.747 146.814 169.87 146.684 170.019 146.587C170.303 146.423 170.534 146.557 170.534 146.879Z" fill="#86B2FF"/>
<path d="M181.603 140.489C181.592 140.665 181.54 140.836 181.452 140.989C181.364 141.142 181.242 141.273 181.095 141.37C180.811 141.535 180.579 141.37 180.579 141.079C180.589 140.901 180.641 140.727 180.73 140.573C180.82 140.418 180.945 140.287 181.095 140.19C181.371 140.033 181.603 140.16 181.603 140.489Z" fill="#86B2FF"/>
<path d="M192.671 134.121C192.662 134.299 192.612 134.472 192.523 134.627C192.435 134.781 192.311 134.913 192.162 135.011C191.878 135.168 191.654 135.011 191.654 134.712C191.664 134.535 191.715 134.363 191.803 134.21C191.892 134.057 192.015 133.927 192.162 133.83C192.446 133.635 192.671 133.77 192.671 134.121Z" fill="#86B2FF"/>
<path d="M203.748 127.701C203.739 127.878 203.688 128.05 203.6 128.203C203.511 128.356 203.388 128.487 203.24 128.583C202.956 128.748 202.724 128.583 202.724 128.292C202.734 128.114 202.786 127.942 202.875 127.789C202.965 127.635 203.09 127.505 203.24 127.41C203.516 127.245 203.748 127.395 203.748 127.701Z" fill="#86B2FF"/>
</g>
<path d="M95.2825 186.384C94.6442 186.38 94.0332 186.124 93.5825 185.672C93.1319 185.22 92.8779 184.609 92.876 183.97V84.8849C92.8884 83.8965 93.1362 82.9254 93.5989 82.052C94.0616 81.1785 94.7259 80.428 95.5366 79.8626L210.548 13.4594C210.876 13.2374 211.257 13.109 211.652 13.0879C212.048 13.0669 212.441 13.154 212.79 13.3398C213.187 13.6161 213.504 13.9925 213.709 14.4309C213.914 14.8693 213.999 15.3541 213.956 15.836V114.839C213.955 115.872 213.682 116.887 213.165 117.781C212.648 118.676 211.906 119.419 211.011 119.936L96.4932 186.055C96.1254 186.269 95.7079 186.382 95.2825 186.384ZM211.826 14.5431C211.635 14.5545 211.45 14.6136 211.288 14.715L96.2839 81.148C95.697 81.5809 95.2178 82.1432 94.8834 82.7912C94.549 83.4393 94.3684 84.1557 94.3557 84.8849V183.97C94.3531 184.133 94.3949 184.293 94.4765 184.434C94.5581 184.575 94.6766 184.691 94.8191 184.77C94.9595 184.853 95.1195 184.896 95.2825 184.896C95.4455 184.896 95.6055 184.853 95.7458 184.77L210.272 118.651C210.939 118.263 211.493 117.707 211.878 117.038C212.264 116.369 212.468 115.611 212.469 114.839V15.836C212.469 15.0887 212.252 14.7449 212.043 14.6253C211.979 14.5791 211.904 14.5507 211.826 14.5431Z" fill="white"/>
<path opacity="0.5" d="M189.526 48.8621V100.251L201.364 107.082V55.7004L189.526 48.8621Z" fill="#86B2FF"/>
<path opacity="0.5" d="M189.525 48.8621V100.251L177.687 107.082V55.7004L189.525 48.8621Z" fill="#86B2FF"/>
<path d="M189.525 62.3733L177.961 55.7004L189.525 49.0202L201.089 55.7004L189.525 62.3733Z" fill="white" stroke="#141414" stroke-width="0.273799"/>
<path opacity="0.5" d="M189.525 62.21L177.963 55.536L177.687 55.7004L189.525 62.5313L201.363 55.7004L201.079 55.536L189.525 62.21Z" fill="#86B2FF"/>
<path opacity="0.6" d="M189.525 113.92L177.687 107.082L189.525 100.251L201.363 107.082L189.525 113.92Z" fill="#86B2FF"/>
<path d="M189.388 113.683L177.824 107.002V55.9374L189.388 62.6103V113.683Z" fill="#86B2FF" stroke="#141414" stroke-width="0.273799"/>
<path d="M189.663 62.6103L201.227 55.9374V107.002L189.663 113.683V62.6103Z" fill="#0962FF" stroke="#141414" stroke-width="0.273799"/>
<path opacity="0.5" d="M165.833 77.9717V113.867L177.671 120.698V84.81L165.833 77.9717Z" fill="#86B2FF"/>
<path opacity="0.5" d="M165.833 77.9717V113.867L153.995 120.698V84.81L165.833 77.9717Z" fill="#86B2FF"/>
<path opacity="0.5" d="M165.833 91.6409L153.995 84.81L165.833 77.9717L177.672 84.81L165.833 91.6409Z" fill="white"/>
<path opacity="0.5" d="M165.833 91.3271L154.272 84.6456L153.995 84.8101L165.833 91.6409L177.672 84.8101L177.395 84.6456L165.833 91.3271Z" fill="#86B2FF"/>
<path opacity="0.6" d="M165.833 127.529L153.995 120.699L165.833 113.868L177.672 120.699L165.833 127.529Z" fill="#86B2FF"/>
<path d="M165.696 127.292L154.132 120.619V85.0472L165.696 91.7201V127.292Z" fill="#86B2FF" stroke="#141414" stroke-width="0.273799"/>
<path d="M165.97 91.7199L177.535 85.047V120.619L165.97 127.292V91.7199Z" fill="#0962FF" stroke="#141414" stroke-width="0.273799"/>
<path opacity="0.5" d="M142.143 106.895V127.477L153.981 134.316V113.726L142.143 106.895Z" fill="#86B2FF"/>
<path opacity="0.5" d="M142.143 106.895V127.477L130.304 134.316V113.726L142.143 106.895Z" fill="#86B2FF"/>
<path d="M142.143 120.406L130.578 113.726L142.143 107.053L153.707 113.726L142.143 120.406Z" fill="white" stroke="#141414" stroke-width="0.273799"/>
<path opacity="0.5" d="M142.143 120.243L130.581 113.569L130.304 113.726L142.143 120.564L153.981 113.726L153.697 113.569L142.143 120.243Z" fill="#86B2FF"/>
<path opacity="0.6" d="M142.143 141.147L130.304 134.316L142.143 127.477L153.981 134.316L142.143 141.147Z" fill="#86B2FF"/>
<path d="M142.006 140.909L130.441 134.236V113.963L142.006 120.643V140.909Z" fill="#86B2FF" stroke="#141414" stroke-width="0.273799"/>
<path d="M142.279 120.643L153.844 113.963V134.236L142.279 140.909V120.643Z" fill="#0962FF" stroke="#141414" stroke-width="0.273799"/>
<path opacity="0.5" d="M118.451 122.44V141.124L130.29 147.962V129.278L118.451 122.44Z" fill="#86B2FF"/>
<path opacity="0.5" d="M118.45 122.44V141.124L106.611 147.962V129.278L118.45 122.44Z" fill="#86B2FF"/>
<path d="M118.45 135.951L106.885 129.271L118.45 122.598L130.014 129.278L118.45 135.951Z" fill="white" stroke="#141414" stroke-width="0.273799"/>
<path opacity="0.5" d="M118.45 135.788L106.888 129.114L106.611 129.271L118.45 136.109L130.288 129.278L130.011 129.114L118.45 135.788Z" fill="#86B2FF"/>
<path opacity="0.6" d="M118.45 154.793L106.611 147.962L118.45 141.124L130.288 147.962L118.45 154.793Z" fill="#86B2FF"/>
<path d="M118.313 154.556L106.748 147.883V129.515L118.313 136.188V154.556Z" fill="#86B2FF" stroke="#141414" stroke-width="0.273799"/>
<path d="M118.588 136.188L130.153 129.515V147.883L118.588 154.556V136.188Z" fill="#0962FF" stroke="#141414" stroke-width="0.273799"/>
<line x1="93.7643" y1="155.259" x2="110.162" y2="113.52" stroke="#141414" stroke-width="1.49068"/>
<line x1="133.023" y1="120.475" x2="110.663" y2="114.512" stroke="#141414" stroke-width="1.49068"/>
<line x1="132.484" y1="119.609" x2="135.465" y2="104.702" stroke="#141414" stroke-width="1.49068"/>
<line x1="146.632" y1="105.593" x2="136.197" y2="105.593" stroke="#141414" stroke-width="1.49068"/>
<line x1="145.901" y1="104.702" x2="156.335" y2="52.5279" stroke="#141414" stroke-width="1.49068"/>
<line x1="196.901" y1="80.1268" x2="156.653" y2="53.2944" stroke="#141414" stroke-width="1.49068"/>
<line x1="196.601" y1="79.2924" x2="210.017" y2="34.5719" stroke="#141414" stroke-width="1.49068"/>
<path d="M113.464 114.537C113.464 116.39 111.962 117.891 110.11 117.891C108.257 117.891 106.755 116.39 106.755 114.537C106.755 112.685 108.257 111.183 110.11 111.183C111.962 111.183 113.464 112.685 113.464 114.537Z" fill="#0962FF" stroke="#141414" stroke-width="0.745341"/>
<path d="M159.675 53.4195C159.675 55.2718 158.173 56.7735 156.321 56.7735C154.468 56.7735 152.967 55.2718 152.967 53.4195C152.967 51.5671 154.468 50.0654 156.321 50.0654C158.173 50.0654 159.675 51.5671 159.675 53.4195Z" fill="#0962FF" stroke="#141414" stroke-width="0.745341"/>
<path d="M135.824 119.01C135.824 120.862 134.322 122.364 132.47 122.364C130.617 122.364 129.116 120.862 129.116 119.01C129.116 117.157 130.617 115.656 132.47 115.656C134.322 115.656 135.824 117.157 135.824 119.01Z" fill="white" stroke="#141414" stroke-width="0.745341"/>
<path d="M199.923 78.7611C199.923 80.6135 198.421 82.1152 196.569 82.1152C194.716 82.1152 193.215 80.6135 193.215 78.7611C193.215 76.9087 194.716 75.4071 196.569 75.4071C198.421 75.4071 199.923 76.9087 199.923 78.7611Z" fill="white" stroke="#141414" stroke-width="0.745341"/>
<path opacity="0.8" d="M139.182 196.568C139.182 196.568 137.07 165.509 132.545 168.152C128.019 170.795 130.207 188.96 125.51 191.668C120.814 194.375 123.409 146.588 116.433 150.615C111.426 153.51 113.023 169.487 108.557 172.061C103.539 174.961 104.407 167.015 100.515 169.257C96.6225 171.498 96.6225 181.588 93.0089 183.229C89.3952 184.869 91.1109 148.668 85.3902 151.976C79.6694 155.284 77.9216 231.986 77.9216 231.986L139.182 196.568Z" fill="#0962FF"/>
<path d="M131.629 167.997C131.628 168.253 131.703 168.503 131.844 168.717C131.986 168.93 132.187 169.096 132.424 169.195C132.66 169.293 132.92 169.319 133.172 169.27C133.423 169.22 133.653 169.097 133.834 168.916C134.015 168.735 134.139 168.504 134.188 168.253C134.238 168.002 134.212 167.741 134.114 167.505C134.015 167.269 133.849 167.067 133.635 166.926C133.422 166.784 133.171 166.709 132.915 166.71C132.574 166.71 132.247 166.846 132.006 167.087C131.764 167.328 131.629 167.655 131.629 167.997Z" fill="white"/>
<path d="M115.903 150.357C115.903 150.612 115.978 150.861 116.12 151.072C116.261 151.284 116.462 151.449 116.697 151.546C116.932 151.644 117.191 151.669 117.441 151.619C117.69 151.57 117.919 151.447 118.099 151.267C118.279 151.087 118.402 150.858 118.452 150.608C118.501 150.359 118.476 150.1 118.378 149.865C118.281 149.63 118.116 149.429 117.904 149.287C117.693 149.146 117.444 149.071 117.19 149.071C116.848 149.071 116.521 149.206 116.28 149.447C116.038 149.689 115.903 150.016 115.903 150.357Z" fill="white"/>
<path d="M100.474 168.919C100.473 169.175 100.548 169.426 100.689 169.639C100.831 169.852 101.032 170.019 101.269 170.117C101.505 170.216 101.765 170.242 102.017 170.192C102.268 170.142 102.498 170.019 102.679 169.838C102.86 169.657 102.984 169.426 103.033 169.175C103.083 168.924 103.057 168.664 102.958 168.427C102.86 168.191 102.694 167.989 102.48 167.848C102.267 167.706 102.016 167.631 101.76 167.632C101.419 167.632 101.092 167.768 100.851 168.009C100.609 168.25 100.474 168.578 100.474 168.919Z" fill="white"/>
<path d="M84.8816 151.853C84.8826 152.107 84.959 152.356 85.101 152.567C85.2431 152.777 85.4444 152.942 85.6796 153.038C85.9148 153.135 86.1734 153.159 86.4226 153.109C86.6719 153.059 86.9007 152.936 87.0801 152.756C87.2595 152.576 87.3815 152.346 87.4307 152.097C87.48 151.847 87.4542 151.589 87.3566 151.354C87.2591 151.119 87.0942 150.919 86.8827 150.778C86.6712 150.636 86.4226 150.561 86.1683 150.561C85.9989 150.561 85.8311 150.594 85.6747 150.659C85.5182 150.724 85.3761 150.82 85.2566 150.94C85.137 151.06 85.0423 151.202 84.978 151.359C84.9136 151.516 84.8809 151.684 84.8816 151.853Z" fill="white"/>
<path opacity="0.4" d="M132.915 200.461C132.986 200.461 133.054 200.432 133.104 200.382C133.155 200.332 133.183 200.264 133.183 200.192V168.023C133.183 167.952 133.155 167.884 133.104 167.834C133.054 167.784 132.986 167.755 132.915 167.755C132.844 167.755 132.776 167.784 132.725 167.834C132.675 167.884 132.647 167.952 132.647 168.023V200.192C132.648 200.263 132.677 200.331 132.727 200.381C132.777 200.431 132.844 200.459 132.915 200.461Z" fill="white"/>
<path opacity="0.4" d="M117.19 209.538C117.261 209.538 117.329 209.509 117.379 209.459C117.43 209.409 117.458 209.341 117.458 209.27V150.357C117.458 150.286 117.43 150.218 117.379 150.168C117.329 150.117 117.261 150.089 117.19 150.089C117.119 150.089 117.051 150.117 117 150.168C116.95 150.218 116.922 150.286 116.922 150.357V209.28C116.925 209.35 116.954 209.415 117.004 209.463C117.054 209.511 117.121 209.538 117.19 209.538Z" fill="white"/>
<path opacity="0.4" d="M101.759 218.47C101.83 218.47 101.899 218.442 101.949 218.391C101.999 218.341 102.027 218.273 102.027 218.202V168.919C102.027 168.848 101.999 168.78 101.949 168.729C101.899 168.679 101.83 168.651 101.759 168.651C101.688 168.651 101.62 168.679 101.57 168.729C101.519 168.78 101.491 168.848 101.491 168.919V218.202C101.493 218.273 101.521 218.34 101.571 218.39C101.621 218.44 101.689 218.469 101.759 218.47Z" fill="white"/>
<path opacity="0.4" d="M86.168 227.413C86.2391 227.413 86.3073 227.385 86.3575 227.334C86.4078 227.284 86.436 227.216 86.436 227.145V151.966C86.436 151.895 86.4078 151.827 86.3575 151.776C86.3073 151.726 86.2391 151.698 86.168 151.698C86.0969 151.698 86.0287 151.726 85.9784 151.776C85.9281 151.827 85.8999 151.895 85.8999 151.966V227.145C85.8999 227.216 85.9281 227.284 85.9784 227.334C86.0287 227.385 86.0969 227.413 86.168 227.413Z" fill="white"/>
</svg>
