<svg width="168" height="160" viewBox="0 0 168 160" fill="none" xmlns="http://www.w3.org/2000/svg">
<rect x="0.665063" width="85.2423" height="85.2423" rx="8.83141" transform="matrix(0.866025 -0.5 0.866025 0.5 11.6553 105.761)" fill="#141414" stroke="#0962FF" stroke-width="0.767949"/>
<rect x="0.665063" width="85.2423" height="85.2423" rx="8.83141" transform="matrix(0.866025 -0.5 0.866025 0.5 11.6553 97.3137)" fill="#86B2FF" stroke="#0962FF" stroke-width="0.767949"/>
<rect opacity="0.3" width="26.1545" height="4.46529" rx="1.92771" transform="matrix(0.866025 -0.5 0.866025 0.5 74.8154 133.928)" fill="#060606"/>
<rect opacity="0.3" width="40.2163" height="1.49535" rx="0.747676" transform="matrix(0.866025 -0.5 0.866025 0.5 119.808 114.502)" fill="#060606"/>
<path d="M16.5798 105.031V96.9503C16.5798 97.8463 17.4246 100.099 20.8036 101.942C24.1825 103.785 25.2833 104.502 25.4112 104.63V112.924L18.4997 108.854C18.1395 108.583 17.488 107.971 17.0264 107.204C16.6378 106.559 16.5798 105.785 16.5798 105.031Z" fill="#0962FF" stroke="#0962FF" stroke-width="0.767949"/>
<path d="M155.348 96.9503V105.782" stroke="#0962FF" stroke-width="0.767949"/>
<path d="M77.6316 134.964V143.027" stroke="#0962FF" stroke-width="0.767949"/>
<path d="M94.5264 134.58V143.027" stroke="#0962FF" stroke-width="0.767949"/>
<path d="M150.203 105.819V102.71C150.203 102.71 152.227 101.741 153.274 100.79C154.148 99.9966 155.073 98.312 155.428 97.6301C155.466 97.5578 155.578 97.5855 155.578 97.6669V104.446C155.578 105.582 155.457 106.767 154.81 107.702C153.985 108.894 152.644 109.602 151.388 110.327L108.733 134.964L147.298 111.04C149.104 109.919 150.203 107.945 150.203 105.819Z" fill="#0962FF" stroke="#0962FF" stroke-width="0.767949"/>
<path d="M31.1707 116.303V108.239L37.3142 112.079V119.758L31.1707 116.303Z" fill="#0962FF" stroke="#0962FF" stroke-width="0.767949"/>
<g clip-path="url(#clip0_1240_5740)">
<path d="M118.407 75.0574L125.586 70.7119C124.355 73.1937 122.997 74.601 121.647 75.1834L121.623 75.2001L90.6484 94.0655C91.6136 93.3404 92.5716 92.1494 93.463 90.3927C93.513 90.2905 93.57 90.1835 93.6223 90.0741L118.407 75.0574Z" fill="white"/>
<path d="M118.407 75.0575L93.6222 90.0742C93.5699 90.1835 93.5129 90.2905 93.4629 90.3927L86.5073 94.5552C86.4642 94.5367 86.4228 94.5145 86.3837 94.4886C85.3425 93.9324 84.4106 92.8912 83.6855 91.5504C83.6855 91.5504 111.696 73.9759 115.835 72.4854C116.55 73.6668 117.432 74.5749 118.407 75.0575Z" fill="#86B2FF"/>
<path d="M114.667 69.7112C114.938 70.6797 115.332 71.609 115.842 72.4759C111.703 73.9664 83.6925 91.5409 83.6925 91.5409C83.0978 90.4048 82.6763 89.1861 82.4421 87.9252C82.4421 87.9252 105.422 72.8015 114.667 69.7112Z" fill="white"/>
<path d="M114.125 65.4061C114.092 66.86 114.275 68.3108 114.667 69.7112C105.423 72.8015 82.4446 87.9347 82.4446 87.9347C82.2397 86.8561 82.1489 85.7589 82.1736 84.6613C82.2423 83.2914 82.1698 81.9181 81.9573 80.563C81.9573 80.563 108.368 63.1311 114.064 62.3894C114.153 63.3924 114.174 64.4003 114.125 65.4061Z" fill="white"/>
<path d="M80.6118 76.6906C80.3599 76.2452 80.067 75.8242 79.737 75.4331C79.6705 75.3499 79.6039 75.2667 79.5278 75.1835L111.354 55.9781C113.21 57.9108 113.852 60.3997 114.059 62.3966C108.354 63.1383 81.9526 80.5702 81.9526 80.5702C81.7409 79.2073 81.2868 77.8934 80.6118 76.6906Z" fill="white"/>
<path d="M104.847 53.6128C105.605 53.1207 106.856 53.1373 108.929 54.1857C109.834 54.6398 110.654 55.2461 111.354 55.9781L79.5277 75.1787C78.9729 74.5625 78.3324 74.0293 77.6259 73.5954C77.4096 73.4552 77.1838 73.3292 76.9508 73.2056C76.4532 72.9428 75.9358 72.7195 75.4032 72.5376C74.3787 72.2143 73.637 72.2381 73.1045 72.4805L92.6331 60.8656L104.835 53.6033L104.847 53.6128Z" fill="white"/>
<path d="M86.5071 94.5552L93.4627 90.3927C92.5713 92.1494 91.6133 93.3404 90.6481 94.0655L89.7805 94.598L89.7543 94.6146C89.2476 94.8644 88.6884 94.9893 88.1235 94.979C87.5586 94.9687 87.0044 94.8233 86.5071 94.5552Z" fill="#758D9E"/>
<path d="M71.8258 74.7033C71.7694 75.1814 71.744 75.6626 71.7497 76.1439L62.4549 81.5972C59.6902 79.441 57.8907 76.9997 56.8994 74.0781C56.8994 74.0781 83.1769 56.3775 89.2292 55.9877C90.0201 57.8284 91.1784 59.4883 92.6334 60.8657L73.1166 72.4854C72.2822 72.8586 71.9518 73.7667 71.8258 74.7033Z" fill="#86B2FF"/>
<path d="M87.9409 50.2562C88.0351 52.2241 88.4719 54.1604 89.2317 55.9781C83.177 56.368 56.9019 74.0686 56.9019 74.0686C56.2252 71.9764 55.8991 69.7868 55.9368 67.5883C55.9368 67.5883 76.0217 58.9591 87.9409 50.2562Z" fill="white"/>
<path d="M87.8908 48.6825C87.8908 49.2229 87.9075 49.7475 87.9408 50.2562C76.0215 58.9591 55.9343 67.5883 55.9343 67.5883V33.6491C55.9378 32.2708 55.8584 30.8935 55.6965 29.5247C55.6965 29.5247 75.8694 24.5944 87.7292 12.1189C87.8425 13.2198 87.898 14.326 87.8956 15.4327L87.8908 48.6825Z" fill="white"/>
<path d="M86.3838 94.4886L65.5786 83.5868C67.0358 84.2191 68.2102 84.1193 69.1254 83.5464L69.1682 83.5202L80.612 76.6906C81.2862 77.8911 81.7402 79.2026 81.9527 80.563C82.1652 81.9181 82.2377 83.2914 82.169 84.6613C82.1428 85.7587 82.232 86.8559 82.4353 87.9347C82.6695 89.1955 83.0909 90.4142 83.6857 91.5504C84.4107 92.8911 85.3426 93.9323 86.3838 94.4886Z" fill="#070F33"/>
<path d="M55.3493 27.4684C55.2065 26.7464 55.0264 26.0323 54.8097 25.329C54.612 24.6823 54.3779 24.0474 54.1084 23.4272C54.484 23.287 78.496 14.3749 86.1672 5.65295C87.0124 7.71891 87.5375 9.90172 87.7243 12.126C75.8645 24.5944 55.6916 29.5366 55.6916 29.5366C55.6013 28.7997 55.4848 28.1103 55.3493 27.4684Z" fill="white"/>
<path d="M52.3519 20.4059C51.2441 18.9795 50.3123 18.4471 50.3123 18.4471C50.3123 18.4471 65.619 14.0849 82.2784 0.534912C82.2784 0.534912 84.5177 1.74966 86.1674 5.63874C78.4962 14.3607 54.4842 23.2728 54.1086 23.413C53.6517 22.3408 53.0615 21.3305 52.3519 20.4059Z" fill="white"/>
<path d="M80.612 76.6906L69.1682 83.5203C70.1191 82.9213 70.7752 81.8301 71.2007 80.5298L79.7372 75.4331C80.0672 75.8242 80.3601 76.2452 80.612 76.6906Z" fill="#506A77"/>
<path d="M50.1293 18.3306C49.4446 17.9312 48.2133 17.5818 47.0793 17.9479C47.6879 17.6317 67.3188 7.45493 75.5224 1.58327C75.5224 1.58327 78.8505 -1.12435 82.2784 0.542058C65.6191 14.0849 50.3195 18.4471 50.3195 18.4471C50.2589 18.4039 50.1953 18.3649 50.1293 18.3306Z" fill="white"/>
<path d="M79.528 75.1787C79.6041 75.2619 79.6706 75.3451 79.7372 75.4283L71.2007 80.525C71.2577 80.3348 71.3172 80.1422 71.3671 79.9497C71.6009 79.0234 71.7293 78.0736 71.7498 77.1185L77.6381 73.5955C78.3404 74.0303 78.9768 74.5634 79.528 75.1787Z" fill="#5F7A84"/>
<path d="M71.7496 76.1296C71.7439 75.6483 71.7693 75.1671 71.8256 74.689L75.4152 72.5496C75.9477 72.7314 76.4651 72.9548 76.9627 73.2176C77.2005 73.3412 77.4215 73.4553 77.6379 73.6074L71.7496 77.1304C71.7496 77.0068 71.7496 76.8808 71.7496 76.7572C71.7591 76.5837 71.7496 76.3673 71.7496 76.1296Z" fill="#506A77"/>
<path d="M75.4152 72.5424L71.8257 74.6818C71.9493 73.7571 72.2821 72.849 73.1165 72.4758C73.649 72.2428 74.3907 72.2191 75.4152 72.5424Z" fill="#405B66"/>
<path d="M71.7497 77.1232C71.7292 78.0783 71.6008 79.0281 71.3669 79.9544L65.5785 83.5868C65.1942 83.419 64.8238 83.221 64.4707 82.9948C63.7751 82.5605 63.1023 82.0908 62.4548 81.5875L71.7497 76.1295C71.7497 76.3672 71.7497 76.5812 71.7497 76.7476C71.7592 76.8736 71.7592 76.9996 71.7497 77.1232Z" fill="#86B2FF"/>
<path d="M71.2007 80.5298C70.7752 81.8301 70.1095 82.9212 69.1682 83.5203L69.1254 83.5464C68.2102 84.1193 67.0358 84.2191 65.5786 83.5868L71.3671 79.9545C71.3172 80.147 71.2577 80.3396 71.2007 80.5298Z" fill="#0962FF"/>
<path d="M44.3312 32.1729C44.374 31.9827 44.4073 31.7902 44.4406 31.5834L54.8099 25.3195C55.0266 26.0228 55.2067 26.7369 55.3495 27.4589L42.6838 35.1206C43.5491 34.5715 44.0579 33.5778 44.3312 32.1729Z" fill="#0962FF"/>
<path d="M44.6473 27.944C44.6473 27.0597 44.6307 26.1016 44.5974 25.0913L52.3518 20.4106C53.0594 21.3379 53.6472 22.3506 54.1014 23.4249C54.3709 24.0451 54.605 24.68 54.8027 25.3267L44.4333 31.5906C44.5373 30.8395 44.5984 30.0831 44.6164 29.3251C44.6402 28.8853 44.6473 28.4265 44.6473 27.944Z" fill="#0962FF"/>
<path d="M52.3518 20.4059L44.5974 25.0865C44.5974 24.6943 44.5736 24.2949 44.5641 23.8861C44.5371 23.1605 44.5681 22.4339 44.6568 21.7133L50.1244 18.3306C50.188 18.3652 50.2491 18.4041 50.3074 18.447C50.3074 18.447 51.244 18.9724 52.3518 20.4059Z" fill="#0962FF"/>
<path d="M50.1292 18.3305L44.6616 21.7132C44.9778 19.3717 45.9762 18.3233 47.0673 17.9573C47.0673 17.9573 47.0673 17.9573 47.084 17.9573C48.2131 17.5817 49.4445 17.9311 50.1292 18.3305Z" fill="#0962FF"/>
<path d="M37.5442 32.2062L44.6472 27.9438C44.6472 28.4193 44.6472 28.8947 44.6235 29.3179L37.8009 33.5968C37.6467 33.1486 37.5602 32.6799 37.5442 32.2062Z" fill="#86B2FF"/>
<path d="M44.4408 31.5833C44.4075 31.7902 44.3742 31.9827 44.3314 32.1729L39.2609 35.3631C38.912 35.1834 38.6029 34.9352 38.3521 34.6334C38.1013 34.3315 37.914 33.9822 37.8013 33.6063L44.6238 29.3274C44.6055 30.0822 44.5444 30.8354 44.4408 31.5833Z" fill="#86B2FF"/>
<path d="M39.2605 35.3632L44.331 32.173C44.0577 33.5731 43.549 34.5716 42.6837 35.1302C42.0673 35.5034 41.3544 35.6862 40.6345 35.6556C40.16 35.6665 39.6895 35.5664 39.2605 35.3632Z" fill="#86B2FF"/>
<path d="M63.2656 34.7725L83.3421 23.0612" stroke="#141414" stroke-width="0.836518" stroke-linecap="round"/>
<path d="M63.2656 39.7916L83.3421 28.0804" stroke="#141414" stroke-width="0.836518" stroke-linecap="round"/>
<path d="M63.2656 47.3203L74.1041 40.9979" stroke="#141414" stroke-width="0.836518" stroke-linecap="round"/>
<path d="M63.2656 50.6664L83.3421 38.9551" stroke="#141414" stroke-width="0.836518" stroke-linecap="round"/>
</g>
<path opacity="0.3" d="M93.4338 110.315L24.7073 150V91.3937C24.7144 90.8995 24.8374 90.4139 25.0665 89.976C25.2955 89.5381 25.6242 89.16 26.026 88.8723L92.1152 50.7118C92.8411 50.2823 93.4338 50.7376 93.4338 51.7083V110.315Z" fill="#86B2FF"/>
<path d="M92.2698 113.567L25.8585 151.912C25.2185 152.281 24.6987 151.912 24.6987 151.053V150L93.4253 110.315V111.35C93.4192 111.784 93.3115 112.211 93.1108 112.596C92.9102 112.98 92.6221 113.313 92.2698 113.567Z" fill="#141414"/>
<path d="M25.1843 152.015L27.8775 153.574L28.1137 151.963L27.7529 151.199L24.6946 150L25.1843 152.015Z" fill="#141414"/>
<path d="M27.4737 151.602L24.6946 150L93.434 110.315L96.2089 111.917L27.4737 151.602Z" fill="#86B2FF"/>
<path opacity="0.3" d="M27.2589 92.9859L27.2588 92.9859V92.9916V151.227L24.9135 149.876V91.3961C24.9205 91.0985 24.9729 90.8042 25.0686 90.5232C25.8569 90.9854 26.6916 91.3636 27.5589 91.6513C27.3732 92.0716 27.271 92.5249 27.2589 92.9859Z" fill="#86B2FF" stroke="#141414" stroke-width="0.429541"/>
<path opacity="0.6" d="M92.9823 50.6474C92.8475 50.5773 92.6959 50.5458 92.5443 50.5565C92.3927 50.5671 92.247 50.6194 92.1232 50.7076L26.0169 88.8723C25.5335 89.1961 25.1639 89.6633 24.9602 90.2082C25.8679 90.768 26.8419 91.2124 27.8596 91.5312C28.0698 91.104 28.392 90.7418 28.7917 90.4831L94.8895 52.3098C95.0147 52.225 95.1601 52.1748 95.3109 52.1643C95.4618 52.1537 95.6128 52.1831 95.7486 52.2496L92.9823 50.6474Z" fill="#86B2FF"/>
<path d="M95.0488 115.169L28.6331 153.514C27.9931 153.883 27.4734 153.488 27.4734 152.633V151.598L96.2 111.913V112.948C96.194 113.382 96.0868 113.809 95.887 114.195C95.6871 114.58 95.4001 114.914 95.0488 115.169Z" fill="#141414"/>
<path opacity="0.3" d="M27.4737 92.9916C27.4808 92.498 27.6039 92.0131 27.833 91.5758C28.062 91.1386 28.3907 90.7613 28.7924 90.4745L94.8902 52.3097C95.0933 52.1777 95.3398 52.13 95.5775 52.1766C95.438 52.0665 95.2655 52.0066 95.0878 52.0066C94.9101 52.0066 94.7376 52.0665 94.5981 52.1766L28.5003 90.3156C28.0985 90.6033 27.7699 90.9813 27.5408 91.4193C27.3118 91.8572 27.1888 92.3428 27.1816 92.837V151.439L27.4737 151.598V92.9916Z" fill="#86B2FF"/>
<path d="M28.0146 90.7193L25.5319 89.2889C25.2908 89.5608 25.0977 89.8717 24.9606 90.2082C24.8521 90.4626 24.7756 90.7295 24.7329 91.0028L27.2157 92.4332C27.3165 91.7984 27.5933 91.2046 28.0146 90.7193Z" fill="#86B2FF"/>
<path opacity="0.3" d="M96.2083 111.913L27.4817 151.598V92.9916C27.4888 92.4981 27.6119 92.0131 27.8409 91.5758C28.07 91.1386 28.3987 90.7613 28.8004 90.4745L94.8896 52.3097C95.6198 51.8802 96.2083 52.3355 96.2083 53.3106V111.913Z" fill="#86B2FF"/>
<path opacity="0.3" d="M94.7309 112.613L28.9081 150.615C28.7625 150.698 28.5976 150.742 28.4298 150.742C28.2621 150.741 28.0973 150.697 27.952 150.613C27.8067 150.529 27.6861 150.409 27.6021 150.263C27.5181 150.118 27.4737 149.953 27.4734 149.786V92.8369C27.4805 92.3433 27.6036 91.8584 27.8326 91.4211C28.0617 90.9839 28.3904 90.6066 28.7921 90.3198L94.8899 52.155C95.6201 51.7255 96.2085 52.1808 96.2085 53.1516V110.053C96.2087 110.572 96.0722 111.082 95.8128 111.531C95.5534 111.98 95.1803 112.354 94.7309 112.613Z" fill="#0962FF"/>
<mask id="mask0_1240_5740" style="mask-type:luminance" maskUnits="userSpaceOnUse" x="27" y="51" width="70" height="100">
<path d="M94.7309 112.613L28.9081 150.615C28.7625 150.698 28.5976 150.742 28.4298 150.742C28.2621 150.741 28.0973 150.697 27.952 150.613C27.8067 150.529 27.6861 150.409 27.6021 150.263C27.5181 150.118 27.4737 149.953 27.4734 149.786V92.8369C27.4805 92.3433 27.6036 91.8584 27.8326 91.4211C28.0617 90.9839 28.3904 90.6066 28.7921 90.3198L94.8899 52.155C95.6201 51.7255 96.2085 52.1808 96.2085 53.1516V110.053C96.2087 110.572 96.0722 111.082 95.8128 111.531C95.5534 111.98 95.1803 112.354 94.7309 112.613Z" fill="white"/>
</mask>
<g mask="url(#mask0_1240_5740)">
<path d="M33.5001 84.9592C33.4938 85.0605 33.4642 85.1589 33.4136 85.2469C33.3629 85.3348 33.2925 85.4098 33.208 85.466C33.0448 85.5605 32.9116 85.466 32.9116 85.2985C32.9174 85.196 32.9472 85.0963 32.9987 85.0075C33.0502 84.9187 33.1219 84.8433 33.208 84.7874C33.3669 84.6971 33.5001 84.7702 33.5001 84.9592Z" fill="#86B2FF"/>
<path d="M39.8657 81.2865C39.8601 81.3879 39.8307 81.4867 39.78 81.5747C39.7293 81.6628 39.6586 81.7376 39.5736 81.7933C39.4104 81.8878 39.2815 81.7933 39.2815 81.6215C39.2871 81.5201 39.3164 81.4213 39.3672 81.3333C39.4179 81.2453 39.4886 81.1704 39.5736 81.1147C39.7325 81.0202 39.8657 81.0975 39.8657 81.2865Z" fill="#86B2FF"/>
<path d="M46.2271 77.6097C46.2219 77.7112 46.1927 77.8101 46.1419 77.8982C46.0912 77.9863 46.0203 78.0611 45.9351 78.1166C45.7718 78.2111 45.6387 78.138 45.6387 77.949C45.6444 77.8471 45.6742 77.748 45.7258 77.6599C45.7773 77.5718 45.849 77.4971 45.9351 77.4422C46.094 77.3477 46.2271 77.425 46.2271 77.6097Z" fill="#86B2FF"/>
<path d="M52.5893 73.9371C52.5837 74.0385 52.5544 74.1373 52.5037 74.2253C52.4529 74.3133 52.3822 74.3882 52.2972 74.4439C52.134 74.5384 52.0051 74.4439 52.0051 74.2764C52.01 74.1742 52.0391 74.0746 52.0898 73.9858C52.1406 73.8969 52.2117 73.8214 52.2972 73.7653C52.4604 73.6751 52.5893 73.7481 52.5893 73.9371Z" fill="#86B2FF"/>
<path d="M58.9552 70.2645C58.9488 70.3663 58.9186 70.4651 58.8672 70.5531C58.8157 70.6412 58.7443 70.7159 58.6588 70.7714C58.4999 70.8659 58.3667 70.7714 58.3667 70.5996C58.3729 70.4983 58.4026 70.3998 58.4532 70.3118C58.5039 70.2239 58.5743 70.1489 58.6588 70.0927C58.822 70.0197 58.9552 70.0755 58.9552 70.2645Z" fill="#86B2FF"/>
<path d="M65.3161 66.5834C65.3112 66.6856 65.2822 66.7852 65.2314 66.874C65.1806 66.9628 65.1096 67.0384 65.024 67.0945C64.8608 67.1847 64.7319 67.0945 64.7319 66.9227C64.7375 66.8212 64.7669 66.7225 64.8176 66.6345C64.8683 66.5464 64.939 66.4715 65.024 66.4158C65.2087 66.3256 65.3161 66.403 65.3161 66.5834Z" fill="#86B2FF"/>
<path d="M71.682 62.9151C71.6756 63.0168 71.6454 63.1157 71.594 63.2037C71.5425 63.2917 71.4711 63.3665 71.3856 63.4219C71.2267 63.5164 71.0935 63.4219 71.0935 63.2544C71.0987 63.1529 71.1279 63.054 71.1787 62.9659C71.2295 62.8778 71.3004 62.803 71.3856 62.7476C71.5488 62.6531 71.682 62.7175 71.682 62.9151Z" fill="#86B2FF"/>
<path d="M78.0433 59.2424C78.0371 59.3437 78.0074 59.4422 77.9568 59.5301C77.9061 59.6181 77.8357 59.6931 77.7512 59.7493C77.588 59.8438 77.4548 59.7493 77.4548 59.5775C77.4612 59.4757 77.4914 59.3769 77.5428 59.2888C77.5943 59.2008 77.6657 59.1261 77.7512 59.0706C77.9101 58.9761 78.0433 59.0534 78.0433 59.2424Z" fill="#86B2FF"/>
<path d="M84.405 55.5656C84.4001 55.6678 84.371 55.7674 84.3203 55.8562C84.2695 55.945 84.1984 56.0206 84.1129 56.0767C83.9497 56.1669 83.8208 56.0767 83.8208 55.9049C83.8285 55.8068 83.8584 55.7117 83.9082 55.6269C83.9581 55.5421 84.0266 55.4697 84.1086 55.4152C84.2761 55.3036 84.405 55.3809 84.405 55.5656Z" fill="#86B2FF"/>
<path d="M90.7711 51.8929C90.7652 51.9943 90.7357 52.0929 90.685 52.1809C90.6343 52.2689 90.5637 52.3439 90.479 52.3998C90.3158 52.4943 90.1826 52.3998 90.1826 52.2323C90.188 52.1303 90.2177 52.031 90.2693 51.9429C90.3208 51.8547 90.3927 51.7801 90.479 51.7254C90.6379 51.6309 90.7711 51.7039 90.7711 51.8929Z" fill="#86B2FF"/>
<path d="M33.5001 90.9168C33.4948 91.0183 33.4657 91.1172 33.4149 91.2053C33.3641 91.2934 33.2932 91.3682 33.208 91.4237C33.0448 91.5182 32.9116 91.4237 32.9116 91.2561C32.9173 91.1542 32.9472 91.0551 32.9987 90.967C33.0503 90.8789 33.122 90.8042 33.208 90.7493C33.3669 90.6376 33.5001 90.7321 33.5001 90.9168Z" fill="#86B2FF"/>
<path d="M39.8657 87.2443C39.8601 87.3458 39.8307 87.4445 39.78 87.5326C39.7293 87.6206 39.6586 87.6955 39.5736 87.7512C39.4104 87.8457 39.2815 87.7512 39.2815 87.5837C39.2864 87.4815 39.3154 87.3819 39.3662 87.293C39.417 87.2042 39.488 87.1286 39.5736 87.0725C39.7325 86.9823 39.8657 87.0553 39.8657 87.2443Z" fill="#86B2FF"/>
<path d="M46.2271 83.5716C46.2209 83.673 46.1913 83.7714 46.1406 83.8594C46.0899 83.9473 46.0196 84.0223 45.9351 84.0785C45.7718 84.173 45.6387 84.0785 45.6387 83.9067C45.6451 83.8049 45.6752 83.7061 45.7267 83.6181C45.7781 83.53 45.8495 83.4553 45.9351 83.3998C46.094 83.3053 46.2271 83.3827 46.2271 83.5716Z" fill="#86B2FF"/>
<path d="M52.5893 79.8991C52.5844 80.0013 52.5554 80.1009 52.5046 80.1897C52.4538 80.2786 52.3828 80.3541 52.2972 80.4103C52.134 80.5005 52.0051 80.4103 52.0051 80.2384C52.0107 80.137 52.04 80.0383 52.0908 79.9502C52.1415 79.8622 52.2122 79.7873 52.2972 79.7316C52.4604 79.6328 52.5893 79.7101 52.5893 79.8991Z" fill="#86B2FF"/>
<path d="M58.9552 76.2223C58.9488 76.3241 58.9186 76.4229 58.8672 76.5109C58.8157 76.5989 58.7443 76.6737 58.6588 76.7291C58.4999 76.8236 58.3667 76.7291 58.3667 76.5616C58.3719 76.4601 58.4011 76.3612 58.4519 76.2731C58.5027 76.185 58.5736 76.1102 58.6588 76.0548C58.822 75.9603 58.9552 76.0333 58.9552 76.2223Z" fill="#86B2FF"/>
<path d="M65.3161 72.5497C65.3105 72.6511 65.2812 72.7499 65.2305 72.8379C65.1797 72.9259 65.109 73.0008 65.024 73.0565C64.8608 73.151 64.7319 73.0565 64.7319 72.8847C64.7375 72.7833 64.7669 72.6845 64.8176 72.5965C64.8683 72.5084 64.939 72.4336 65.024 72.3779C65.2087 72.2834 65.3161 72.3607 65.3161 72.5497Z" fill="#86B2FF"/>
<path d="M71.682 68.8728C71.6762 68.9753 71.6464 69.075 71.5949 69.1638C71.5434 69.2526 71.4717 69.328 71.3856 69.3839C71.2267 69.4741 71.0935 69.3839 71.0935 69.2121C71.0997 69.1108 71.1294 69.0123 71.18 68.9244C71.2307 68.8364 71.3011 68.7614 71.3856 68.7052C71.5488 68.6107 71.682 68.688 71.682 68.8728Z" fill="#86B2FF"/>
<path d="M78.0433 65.2002C78.0374 65.3016 78.0079 65.4002 77.9572 65.4882C77.9065 65.5762 77.836 65.6511 77.7512 65.7071C77.588 65.8016 77.4548 65.7071 77.4548 65.5395C77.4602 65.4375 77.4899 65.3383 77.5415 65.2501C77.593 65.1619 77.665 65.0874 77.7512 65.0327C77.9101 64.9382 78.0433 65.0112 78.0433 65.2002Z" fill="#86B2FF"/>
<path d="M84.405 61.5276C84.3994 61.6291 84.3701 61.7278 84.3193 61.8159C84.2686 61.9039 84.1979 61.9788 84.1129 62.0345C83.9497 62.129 83.8208 62.0345 83.8208 61.867C83.8257 61.7648 83.8547 61.6652 83.9055 61.5764C83.9563 61.4875 84.0273 61.412 84.1129 61.3558C84.2761 61.2656 84.405 61.3387 84.405 61.5276Z" fill="#86B2FF"/>
<path d="M90.7711 57.8508C90.7652 57.9527 90.7357 58.052 90.685 58.1406C90.6344 58.2293 90.5638 58.3051 90.479 58.3619C90.3158 58.4521 90.1826 58.3619 90.1826 58.1901C90.189 58.0884 90.2191 57.9895 90.2706 57.9015C90.3221 57.8135 90.3934 57.7387 90.479 57.6833C90.6379 57.5888 90.7711 57.6661 90.7711 57.8508Z" fill="#86B2FF"/>
<path d="M33.5001 96.8789C33.4938 96.9802 33.4642 97.0787 33.4136 97.1666C33.3629 97.2546 33.2925 97.3296 33.208 97.3858C33.0448 97.4803 32.9116 97.3858 32.9116 97.2139C32.918 97.1122 32.9482 97.0133 32.9996 96.9253C33.0511 96.8373 33.1225 96.7626 33.208 96.7071C33.3669 96.6126 33.5001 96.6899 33.5001 96.8789Z" fill="#86B2FF"/>
<path d="M39.8657 93.2148C39.8608 93.317 39.8317 93.4166 39.781 93.5055C39.7302 93.5943 39.6591 93.6699 39.5736 93.726C39.4104 93.8162 39.2815 93.726 39.2815 93.5542C39.2871 93.4527 39.3164 93.354 39.3672 93.266C39.4179 93.1779 39.4886 93.103 39.5736 93.0473C39.7325 92.9399 39.8657 93.0173 39.8657 93.2148Z" fill="#86B2FF"/>
<path d="M46.2271 89.5295C46.2209 89.6308 46.1913 89.7292 46.1406 89.8172C46.0899 89.9051 46.0196 89.9801 45.9351 90.0363C45.7718 90.1308 45.6387 90.0363 45.6387 89.8688C45.644 89.7668 45.6737 89.6676 45.7253 89.5794C45.7769 89.4912 45.8488 89.4166 45.9351 89.3619C46.094 89.2674 46.2271 89.3491 46.2271 89.5295Z" fill="#86B2FF"/>
<path d="M52.5893 85.8568C52.5837 85.9583 52.5544 86.057 52.5037 86.145C52.4529 86.2331 52.3822 86.308 52.2972 86.3637C52.134 86.4582 52.0051 86.3637 52.0051 86.1918C52.0107 86.0904 52.04 85.9917 52.0908 85.9036C52.1415 85.8156 52.2122 85.7407 52.2972 85.685C52.4604 85.5905 52.5893 85.6678 52.5893 85.8568Z" fill="#86B2FF"/>
<path d="M58.9552 82.18C58.9494 82.2825 58.9196 82.3822 58.8681 82.471C58.8166 82.5598 58.7449 82.6353 58.6588 82.6912C58.4999 82.7814 58.3667 82.6912 58.3667 82.5193C58.3729 82.418 58.4026 82.3196 58.4532 82.2316C58.5039 82.1437 58.5743 82.0687 58.6588 82.0125C58.822 81.918 58.9552 81.9953 58.9552 82.18Z" fill="#86B2FF"/>
<path d="M65.3161 78.5074C65.3112 78.6091 65.2822 78.7081 65.2314 78.7962C65.1806 78.8843 65.1095 78.9591 65.024 79.0143C64.8608 79.1088 64.7319 79.0143 64.7319 78.8468C64.7365 78.7451 64.7654 78.646 64.8162 78.5578C64.867 78.4696 64.9383 78.3949 65.024 78.3399C65.2087 78.2454 65.3161 78.3184 65.3161 78.5074Z" fill="#86B2FF"/>
<path d="M71.682 74.8348C71.6756 74.9365 71.6454 75.0354 71.594 75.1234C71.5425 75.2114 71.4711 75.2862 71.3856 75.3416C71.2267 75.4361 71.0935 75.3416 71.0935 75.1741C71.0994 75.0721 71.1289 74.9729 71.1796 74.8843C71.2302 74.7956 71.3008 74.7198 71.3856 74.663C71.5488 74.5728 71.682 74.6458 71.682 74.8348Z" fill="#86B2FF"/>
<path d="M78.0433 71.1579C78.0374 71.2599 78.0079 71.3591 77.9573 71.4478C77.9066 71.5364 77.8361 71.6122 77.7512 71.669C77.588 71.7592 77.4548 71.669 77.4548 71.4972C77.4612 71.3955 77.4914 71.2966 77.5428 71.2086C77.5943 71.1206 77.6657 71.0458 77.7512 70.9904C77.9101 70.8787 78.0433 70.9732 78.0433 71.1579Z" fill="#86B2FF"/>
<path d="M84.405 67.4853C84.4004 67.587 84.3715 67.6861 84.3207 67.7743C84.2699 67.8625 84.1986 67.9372 84.1129 67.9922C83.9497 68.0867 83.8208 67.9922 83.8208 67.8246C83.8253 67.7229 83.8542 67.6238 83.9051 67.5356C83.9559 67.4474 84.0272 67.3727 84.1129 67.3178C84.2761 67.2233 84.405 67.3006 84.405 67.4853Z" fill="#86B2FF"/>
<path d="M90.7711 63.8128C90.7648 63.9141 90.7352 64.0126 90.6845 64.1005C90.6339 64.1885 90.5635 64.2635 90.479 64.3197C90.3158 64.4142 90.1826 64.3197 90.1826 64.1521C90.1884 64.0496 90.2182 63.9499 90.2697 63.8611C90.3212 63.7723 90.3929 63.6969 90.479 63.641C90.6379 63.5508 90.7711 63.6238 90.7711 63.8128Z" fill="#86B2FF"/>
<path d="M33.5001 102.837C33.4938 102.938 33.4642 103.036 33.4136 103.124C33.3629 103.212 33.2925 103.287 33.208 103.343C33.0448 103.438 32.9116 103.343 32.9116 103.176C32.917 103.074 32.9467 102.975 32.9983 102.887C33.0498 102.798 33.1217 102.724 33.208 102.669C33.3669 102.575 33.5001 102.665 33.5001 102.837Z" fill="#86B2FF"/>
<path d="M39.8657 99.1641C39.8601 99.2655 39.8307 99.3642 39.78 99.4523C39.7293 99.5403 39.6586 99.6152 39.5736 99.6709C39.4104 99.7654 39.2815 99.6709 39.2815 99.4991C39.2871 99.3976 39.3164 99.2989 39.3672 99.2109C39.4179 99.1228 39.4886 99.0479 39.5736 98.9922C39.7325 98.8977 39.8657 98.9751 39.8657 99.1641Z" fill="#86B2FF"/>
<path d="M46.2271 95.4871C46.2212 95.5891 46.1918 95.6883 46.1411 95.777C46.0904 95.8657 46.0199 95.9414 45.9351 95.9983C45.7718 96.0885 45.6387 95.9983 45.6387 95.8265C45.6451 95.7247 45.6752 95.6259 45.7267 95.5378C45.7781 95.4498 45.8495 95.3751 45.9351 95.3196C46.094 95.2251 46.2271 95.3024 46.2271 95.4871Z" fill="#86B2FF"/>
<path d="M52.5893 91.8146C52.5844 91.9162 52.5554 92.0152 52.5046 92.1033C52.4538 92.1915 52.3827 92.2662 52.2972 92.3214C52.134 92.4159 52.0051 92.3214 52.0051 92.1539C52.0097 92.0522 52.0386 91.9531 52.0894 91.8649C52.1402 91.7767 52.2115 91.702 52.2972 91.6471C52.4604 91.5526 52.5893 91.6256 52.5893 91.8146Z" fill="#86B2FF"/>
<path d="M58.9552 88.142C58.9488 88.2438 58.9186 88.3426 58.8672 88.4307C58.8157 88.5187 58.7443 88.5934 58.6588 88.6489C58.4999 88.7434 58.3667 88.6489 58.3667 88.4814C58.3726 88.3794 58.4021 88.2802 58.4527 88.1915C58.5034 88.1028 58.5739 88.0271 58.6588 87.9702C58.822 87.88 58.9552 87.953 58.9552 88.142Z" fill="#86B2FF"/>
<path d="M65.3161 84.4651C65.3112 84.5673 65.2822 84.6669 65.2314 84.7558C65.1806 84.8446 65.1096 84.9202 65.024 84.9763C64.8608 85.0665 64.7319 84.9763 64.7319 84.8045C64.7375 84.703 64.7669 84.6043 64.8176 84.5163C64.8683 84.4282 64.939 84.3533 65.024 84.2976C65.2087 84.1945 65.3161 84.2804 65.3161 84.4651Z" fill="#86B2FF"/>
<path d="M71.682 80.7926C71.6766 80.8946 71.6469 80.9938 71.5953 81.082C71.5438 81.1702 71.4719 81.2447 71.3856 81.2994C71.2267 81.3939 71.0935 81.2994 71.0935 81.1319C71.0987 81.0303 71.1279 80.9315 71.1787 80.8434C71.2295 80.7553 71.3004 80.6805 71.3856 80.625C71.5488 80.5305 71.682 80.6078 71.682 80.7926Z" fill="#86B2FF"/>
<path d="M78.0433 77.1199C78.0371 77.2212 78.0074 77.3197 77.9568 77.4077C77.9061 77.4956 77.8357 77.5706 77.7512 77.6268C77.588 77.7213 77.4548 77.6268 77.4548 77.4593C77.4606 77.3568 77.4904 77.2571 77.5419 77.1682C77.5934 77.0794 77.6651 77.004 77.7512 76.9481C77.9101 76.8579 78.0433 76.9309 78.0433 77.1199Z" fill="#86B2FF"/>
<path d="M84.405 73.4559C84.4001 73.5581 84.371 73.6577 84.3203 73.7466C84.2695 73.8354 84.1984 73.911 84.1129 73.9671C83.9497 74.0573 83.8208 73.9671 83.8208 73.7953C83.8264 73.6938 83.8557 73.5951 83.9065 73.507C83.9572 73.419 84.0279 73.3441 84.1129 73.2884C84.2761 73.181 84.405 73.2583 84.405 73.4559Z" fill="#86B2FF"/>
<path d="M90.7711 69.7705C90.7658 69.8721 90.7366 69.9709 90.6859 70.059C90.6351 70.1471 90.5642 70.222 90.479 70.2774C90.3158 70.3719 90.1826 70.2989 90.1826 70.1099C90.1883 70.008 90.2182 69.9089 90.2697 69.8207C90.3212 69.7326 90.393 69.658 90.479 69.603C90.6379 69.5085 90.7711 69.5901 90.7711 69.7705Z" fill="#86B2FF"/>
<path d="M33.5001 108.794C33.4942 108.896 33.4647 108.996 33.414 109.084C33.3634 109.173 33.2928 109.249 33.208 109.306C33.0448 109.396 32.9116 109.306 32.9116 109.134C32.918 109.032 32.9482 108.933 32.9996 108.845C33.0511 108.757 33.1225 108.682 33.208 108.627C33.3669 108.532 33.5001 108.61 33.5001 108.794Z" fill="#86B2FF"/>
<path d="M39.8657 105.122C39.8611 105.224 39.8322 105.323 39.7814 105.411C39.7306 105.499 39.6593 105.574 39.5736 105.629C39.4104 105.723 39.2815 105.629 39.2815 105.461C39.286 105.359 39.3149 105.26 39.3658 105.172C39.4166 105.084 39.4879 105.009 39.5736 104.954C39.7325 104.86 39.8657 104.933 39.8657 105.122Z" fill="#86B2FF"/>
<path d="M46.2271 101.449C46.2209 101.55 46.1913 101.649 46.1406 101.737C46.0899 101.825 46.0196 101.9 45.9351 101.956C45.7718 102.051 45.6387 101.956 45.6387 101.788C45.6444 101.686 45.6742 101.586 45.7257 101.497C45.7772 101.409 45.8489 101.333 45.9351 101.277C46.094 101.187 46.2271 101.26 46.2271 101.449Z" fill="#86B2FF"/>
<path d="M52.5893 97.7723C52.5844 97.8745 52.5554 97.9741 52.5046 98.0629C52.4538 98.1517 52.3828 98.2273 52.2972 98.2834C52.134 98.3736 52.0051 98.2834 52.0051 98.1116C52.0107 98.0102 52.04 97.9114 52.0908 97.8234C52.1415 97.7354 52.2122 97.6605 52.2972 97.6048C52.4604 97.5103 52.5893 97.5876 52.5893 97.7723Z" fill="#86B2FF"/>
<path d="M58.9552 94.0998C58.9498 94.2018 58.9201 94.301 58.8685 94.3892C58.817 94.4774 58.745 94.552 58.6588 94.6067C58.4999 94.7012 58.3667 94.6067 58.3667 94.4391C58.3719 94.3376 58.4011 94.2387 58.4519 94.1507C58.5027 94.0626 58.5736 93.9877 58.6588 93.9323C58.822 93.8378 58.9552 93.9151 58.9552 94.0998Z" fill="#86B2FF"/>
<path d="M65.3161 90.4272C65.3105 90.5286 65.2812 90.6274 65.2305 90.7154C65.1797 90.8035 65.109 90.8783 65.024 90.934C64.8608 91.0285 64.7319 90.934 64.7319 90.7665C64.7369 90.6643 64.7659 90.5647 64.8166 90.4759C64.8674 90.3871 64.9385 90.3115 65.024 90.2554C65.2087 90.1652 65.3161 90.2382 65.3161 90.4272Z" fill="#86B2FF"/>
<path d="M71.682 86.7718C71.6762 86.8743 71.6464 86.974 71.5949 87.0628C71.5434 87.1516 71.4717 87.227 71.3856 87.2829C71.2267 87.3731 71.0935 87.2829 71.0935 87.1111C71.0997 87.0098 71.1294 86.9113 71.18 86.8234C71.2307 86.7354 71.3011 86.6604 71.3856 86.6042C71.5488 86.4883 71.682 86.5656 71.682 86.7718Z" fill="#86B2FF"/>
<path d="M78.0433 83.0777C78.0381 83.1792 78.0089 83.2781 77.9581 83.3662C77.9073 83.4543 77.8364 83.5291 77.7512 83.5845C77.588 83.679 77.4548 83.5845 77.4548 83.417C77.4606 83.3151 77.4904 83.216 77.5419 83.1279C77.5935 83.0397 77.6652 82.9651 77.7512 82.9102C77.9101 82.8157 78.0433 82.9059 78.0433 83.0777Z" fill="#86B2FF"/>
<path d="M84.4051 79.4052C84.3971 79.5048 84.3662 79.6012 84.3148 79.6869C84.2634 79.7726 84.1929 79.8452 84.1087 79.8992C83.9455 79.9937 83.8167 79.8992 83.8167 79.7317C83.8216 79.6295 83.8506 79.5299 83.9014 79.441C83.9521 79.3522 84.0232 79.2766 84.1087 79.2205C84.2763 79.1432 84.4051 79.2162 84.4051 79.4052Z" fill="#86B2FF"/>
<path d="M90.7711 75.7325C90.7648 75.8338 90.7352 75.9323 90.6845 76.0203C90.6339 76.1082 90.5635 76.1832 90.479 76.2394C90.3158 76.3339 90.1826 76.2394 90.1826 76.0676C90.189 75.9658 90.2191 75.867 90.2706 75.779C90.3221 75.6909 90.3934 75.6162 90.479 75.5607C90.6379 75.4662 90.7711 75.5435 90.7711 75.7325Z" fill="#86B2FF"/>
<path d="M33.5001 114.756C33.4938 114.858 33.4642 114.956 33.4136 115.044C33.3629 115.132 33.2925 115.207 33.208 115.263C33.0448 115.358 32.9116 115.263 32.9116 115.096C32.9174 114.993 32.9472 114.894 32.9987 114.805C33.0502 114.716 33.1219 114.64 33.208 114.585C33.3669 114.494 33.5001 114.567 33.5001 114.756Z" fill="#86B2FF"/>
<path d="M39.8657 111.08C39.8608 111.182 39.8317 111.281 39.781 111.37C39.7302 111.459 39.6591 111.535 39.5736 111.591C39.4104 111.681 39.2815 111.591 39.2815 111.419C39.2871 111.317 39.3164 111.219 39.3672 111.131C39.4179 111.043 39.4886 110.968 39.5736 110.912C39.7325 110.826 39.8657 110.895 39.8657 111.08Z" fill="#86B2FF"/>
<path d="M46.2271 107.39C46.2219 107.491 46.1927 107.59 46.1419 107.678C46.0912 107.766 46.0203 107.841 45.9351 107.897C45.7718 107.991 45.6387 107.897 45.6387 107.729C45.644 107.627 45.6737 107.528 45.7253 107.44C45.7769 107.351 45.8488 107.277 45.9351 107.222C46.094 107.145 46.2271 107.222 46.2271 107.39Z" fill="#86B2FF"/>
<path d="M52.5893 103.734C52.5837 103.836 52.5544 103.935 52.5037 104.023C52.4529 104.111 52.3822 104.185 52.2972 104.241C52.134 104.336 52.0051 104.241 52.0051 104.074C52.01 103.971 52.0391 103.872 52.0898 103.783C52.1406 103.694 52.2117 103.619 52.2972 103.562C52.4604 103.472 52.5893 103.545 52.5893 103.734Z" fill="#86B2FF"/>
<path d="M58.9552 100.057C58.9494 100.16 58.9196 100.26 58.8681 100.348C58.8166 100.437 58.7449 100.513 58.6588 100.569C58.4999 100.659 58.3667 100.569 58.3667 100.397C58.3729 100.295 58.4026 100.197 58.4532 100.109C58.5039 100.021 58.5743 99.9461 58.6588 99.8899C58.822 99.7954 58.9552 99.8727 58.9552 100.057Z" fill="#86B2FF"/>
<path d="M65.3161 96.3849C65.3116 96.4866 65.2827 96.5857 65.2318 96.6739C65.181 96.7621 65.1097 96.8368 65.024 96.8917C64.8608 96.9862 64.7319 96.9132 64.7319 96.7242C64.7368 96.6226 64.7659 96.5236 64.8167 96.4355C64.8675 96.3473 64.9386 96.2725 65.024 96.2174C65.2087 96.1229 65.3161 96.2216 65.3161 96.3849Z" fill="#86B2FF"/>
<path d="M71.682 92.7123C71.6756 92.8141 71.6454 92.913 71.594 93.001C71.5425 93.089 71.4711 93.1637 71.3856 93.2192C71.2267 93.3137 71.0935 93.2192 71.0935 93.0517C71.0994 92.9497 71.1289 92.8505 71.1796 92.7618C71.2302 92.6731 71.3008 92.5974 71.3856 92.5405C71.5488 92.4503 71.682 92.5233 71.682 92.7123Z" fill="#86B2FF"/>
<path d="M78.0433 89.0398C78.0371 89.1411 78.0074 89.2396 77.9568 89.3275C77.9061 89.4154 77.8357 89.4905 77.7512 89.5466C77.588 89.6411 77.4548 89.5466 77.4548 89.3748C77.4612 89.2731 77.4914 89.1742 77.5428 89.0862C77.5943 88.9982 77.6657 88.9234 77.7512 88.868C77.9101 88.7735 78.0433 88.8508 78.0433 89.0398Z" fill="#86B2FF"/>
<path d="M84.405 85.3629C84.4004 85.4646 84.3715 85.5637 84.3207 85.6519C84.2699 85.7401 84.1986 85.8148 84.1129 85.8697C83.9497 85.9642 83.8208 85.8697 83.8208 85.7022C83.8264 85.6007 83.8557 85.502 83.9065 85.414C83.9572 85.3259 84.0279 85.251 84.1129 85.1953C84.2761 85.1008 84.405 85.1782 84.405 85.3629Z" fill="#86B2FF"/>
<path d="M90.7711 81.6902C90.7648 81.7915 90.7352 81.89 90.6845 81.978C90.6339 82.0659 90.5635 82.1409 90.479 82.1971C90.3158 82.2916 90.1826 82.1971 90.1826 82.0296C90.1884 81.9271 90.2182 81.8274 90.2697 81.7386C90.3212 81.6497 90.3929 81.5743 90.479 81.5184C90.6379 81.4282 90.7711 81.5012 90.7711 81.6902Z" fill="#86B2FF"/>
<path d="M33.5001 120.706C33.4948 120.807 33.4657 120.906 33.4149 120.994C33.3641 121.082 33.2932 121.157 33.208 121.212C33.0448 121.307 32.9116 121.212 32.9116 121.045C32.917 120.943 32.9467 120.844 32.9983 120.755C33.0498 120.667 33.1217 120.593 33.208 120.538C33.3669 120.452 33.5001 120.529 33.5001 120.706Z" fill="#86B2FF"/>
<path d="M39.8657 117.041C39.8601 117.143 39.8307 117.242 39.78 117.33C39.7293 117.418 39.6586 117.493 39.5736 117.548C39.4104 117.643 39.2815 117.548 39.2815 117.381C39.2864 117.279 39.3154 117.179 39.3662 117.09C39.417 117.001 39.488 116.926 39.5736 116.87C39.7325 116.779 39.8657 116.84 39.8657 117.041Z" fill="#86B2FF"/>
<path d="M46.2271 113.365C46.2212 113.467 46.1918 113.566 46.1411 113.655C46.0904 113.743 46.0199 113.819 45.9351 113.876C45.7718 113.966 45.6387 113.876 45.6387 113.704C45.6451 113.602 45.6752 113.503 45.7267 113.415C45.7781 113.327 45.8495 113.253 45.9351 113.197C46.094 113.103 46.2271 113.18 46.2271 113.365Z" fill="#86B2FF"/>
<path d="M52.5893 109.692C52.5848 109.794 52.5559 109.893 52.505 109.981C52.4542 110.069 52.3829 110.144 52.2972 110.199C52.134 110.293 52.0051 110.22 52.0051 110.031C52.01 109.93 52.0391 109.831 52.0899 109.743C52.1407 109.655 52.2118 109.58 52.2972 109.525C52.4604 109.43 52.5893 109.507 52.5893 109.692Z" fill="#86B2FF"/>
<path d="M58.9552 106.02C58.9488 106.121 58.9186 106.22 58.8672 106.308C58.8157 106.396 58.7443 106.471 58.6588 106.526C58.4999 106.621 58.3667 106.526 58.3667 106.359C58.3726 106.257 58.4021 106.158 58.4527 106.069C58.5034 105.98 58.5739 105.905 58.6588 105.848C58.822 105.758 58.9552 105.831 58.9552 106.02Z" fill="#86B2FF"/>
<path d="M65.3161 102.347C65.3105 102.448 65.2812 102.547 65.2305 102.635C65.1797 102.723 65.109 102.798 65.024 102.854C64.8608 102.948 64.7319 102.854 64.7319 102.682C64.7375 102.58 64.7669 102.482 64.8176 102.394C64.8683 102.306 64.939 102.231 65.024 102.175C65.2087 102.081 65.3161 102.158 65.3161 102.347Z" fill="#86B2FF"/>
<path d="M71.682 98.6701C71.6766 98.7721 71.6469 98.8714 71.5953 98.9595C71.5438 99.0477 71.4719 99.1223 71.3856 99.177C71.2267 99.2715 71.0935 99.1985 71.0935 99.0095C71.0997 98.9082 71.1294 98.8097 71.18 98.7217C71.2307 98.6338 71.3011 98.5588 71.3856 98.5026C71.5488 98.4081 71.682 98.4854 71.682 98.6701Z" fill="#86B2FF"/>
<path d="M78.0433 94.9975C78.0371 95.0988 78.0074 95.1973 77.9568 95.2852C77.9061 95.3732 77.8357 95.4482 77.7512 95.5044C77.588 95.5989 77.4548 95.5044 77.4548 95.3368C77.4606 95.2343 77.4904 95.1346 77.5419 95.0458C77.5934 94.957 77.6651 94.8816 77.7512 94.8257C77.9101 94.7355 78.0433 94.8085 78.0433 94.9975Z" fill="#86B2FF"/>
<path d="M84.405 91.325C84.3994 91.4264 84.3701 91.5251 84.3193 91.6132C84.2686 91.7012 84.1979 91.7761 84.1129 91.8318C83.9497 91.9263 83.8208 91.8318 83.8208 91.66C83.8264 91.5585 83.8557 91.4598 83.9065 91.3718C83.9572 91.2837 84.0279 91.2088 84.1129 91.1531C84.2761 91.0672 84.405 91.136 84.405 91.325Z" fill="#86B2FF"/>
<path d="M90.7711 87.6308C90.7652 87.7328 90.7357 87.832 90.685 87.9207C90.6344 88.0094 90.5638 88.0851 90.479 88.142C90.3158 88.2322 90.1826 88.142 90.1826 87.9702C90.189 87.8684 90.2191 87.7696 90.2706 87.6815C90.3221 87.5935 90.3934 87.5188 90.479 87.4633C90.6379 87.386 90.7711 87.4633 90.7711 87.6308Z" fill="#86B2FF"/>
<path d="M33.5001 126.672C33.4942 126.774 33.4647 126.873 33.414 126.962C33.3634 127.05 33.2928 127.126 33.208 127.183C33.0448 127.273 32.9116 127.183 32.9116 127.011C32.918 126.909 32.9482 126.811 32.9996 126.723C33.0511 126.635 33.1225 126.56 33.208 126.504C33.3669 126.41 33.5001 126.487 33.5001 126.672Z" fill="#86B2FF"/>
<path d="M39.8657 122.999C39.8611 123.101 39.8322 123.2 39.7814 123.288C39.7306 123.377 39.6593 123.451 39.5736 123.506C39.4104 123.601 39.2815 123.506 39.2815 123.339C39.2864 123.237 39.3154 123.138 39.3662 123.05C39.417 122.962 39.4881 122.887 39.5736 122.832C39.7325 122.737 39.8657 122.815 39.8657 122.999Z" fill="#86B2FF"/>
<path d="M46.2271 119.327C46.2209 119.428 46.1913 119.527 46.1406 119.614C46.0899 119.702 46.0196 119.777 45.9351 119.834C45.7718 119.928 45.6387 119.834 45.6387 119.666C45.6444 119.564 45.6742 119.464 45.7257 119.375C45.7772 119.286 45.8489 119.211 45.9351 119.155C46.094 119.065 46.2271 119.138 46.2271 119.327Z" fill="#86B2FF"/>
<path d="M52.5893 115.654C52.5837 115.756 52.5544 115.854 52.5037 115.942C52.4529 116.03 52.3822 116.105 52.2972 116.161C52.134 116.256 52.0051 116.161 52.0051 115.989C52.0107 115.888 52.04 115.789 52.0908 115.701C52.1415 115.613 52.2122 115.538 52.2972 115.482C52.4604 115.388 52.5893 115.465 52.5893 115.654Z" fill="#86B2FF"/>
<path d="M58.9552 111.977C58.9498 112.079 58.9201 112.178 58.8685 112.267C58.817 112.355 58.745 112.429 58.6588 112.484C58.4999 112.579 58.3667 112.484 58.3667 112.317C58.3729 112.215 58.4026 112.117 58.4532 112.029C58.5039 111.941 58.5743 111.866 58.6588 111.81C58.822 111.715 58.9552 111.793 58.9552 111.977Z" fill="#86B2FF"/>
<path d="M65.3161 108.305C65.3105 108.406 65.2812 108.505 65.2305 108.593C65.1797 108.681 65.109 108.756 65.024 108.812C64.8608 108.906 64.7319 108.812 64.7319 108.644C64.7369 108.542 64.7659 108.442 64.8166 108.353C64.8674 108.265 64.9385 108.189 65.024 108.133C65.2087 108.043 65.3161 108.116 65.3161 108.305Z" fill="#86B2FF"/>
<path d="M71.682 104.632C71.6756 104.734 71.6454 104.833 71.594 104.921C71.5425 105.009 71.4711 105.084 71.3856 105.139C71.2267 105.233 71.0935 105.139 71.0935 104.967C71.0997 104.866 71.1294 104.767 71.18 104.679C71.2307 104.592 71.3011 104.516 71.3856 104.46C71.5488 104.383 71.682 104.443 71.682 104.632Z" fill="#86B2FF"/>
<path d="M78.0433 100.947C78.0374 101.049 78.0079 101.148 77.9573 101.236C77.9066 101.325 77.8361 101.401 77.7512 101.458C77.588 101.548 77.4548 101.458 77.4548 101.286C77.4612 101.184 77.4914 101.085 77.5428 100.997C77.5943 100.909 77.6657 100.835 77.7512 100.779C77.9101 100.693 78.0433 100.77 78.0433 100.947Z" fill="#86B2FF"/>
<path d="M84.405 97.2826C84.4001 97.3842 84.371 97.4832 84.3202 97.5714C84.2694 97.6595 84.1984 97.7343 84.1129 97.7895C83.9497 97.884 83.8208 97.7895 83.8208 97.622C83.8253 97.5203 83.8542 97.4211 83.9051 97.3329C83.9559 97.2447 84.0272 97.17 84.1129 97.1151C84.2761 97.0206 84.405 97.0807 84.405 97.2826Z" fill="#86B2FF"/>
<path d="M90.7711 93.6101C90.7648 93.7114 90.7352 93.8099 90.6845 93.8978C90.6339 93.9858 90.5635 94.0608 90.479 94.117C90.3158 94.2115 90.1826 94.117 90.1826 93.9451C90.189 93.8434 90.2191 93.7445 90.2706 93.6565C90.3221 93.5685 90.3934 93.4938 90.479 93.4383C90.6379 93.3438 90.7711 93.4211 90.7711 93.6101Z" fill="#86B2FF"/>
<path d="M33.5001 132.634C33.4938 132.735 33.4642 132.834 33.4136 132.922C33.3629 133.01 33.2925 133.085 33.208 133.141C33.0448 133.235 32.9116 133.141 32.9116 132.973C32.9174 132.871 32.9472 132.771 32.9987 132.682C33.0502 132.593 33.1219 132.518 33.208 132.462C33.3669 132.372 33.5001 132.445 33.5001 132.634Z" fill="#86B2FF"/>
<path d="M39.8657 128.961C39.8601 129.063 39.8307 129.161 39.78 129.25C39.7293 129.338 39.6586 129.412 39.5736 129.468C39.4104 129.563 39.2815 129.468 39.2815 129.296C39.2871 129.195 39.3164 129.096 39.3672 129.008C39.4179 128.92 39.4886 128.845 39.5736 128.789C39.7325 128.695 39.8657 128.772 39.8657 128.961Z" fill="#86B2FF"/>
<path d="M46.2271 125.284C46.2219 125.386 46.1927 125.485 46.1419 125.573C46.0912 125.661 46.0203 125.736 45.9351 125.791C45.7718 125.886 45.6387 125.791 45.6387 125.624C45.6451 125.522 45.6752 125.423 45.7267 125.335C45.7781 125.247 45.8495 125.172 45.9351 125.117C46.094 125.022 46.2271 125.1 46.2271 125.284Z" fill="#86B2FF"/>
<path d="M52.5893 121.612C52.5837 121.713 52.5544 121.812 52.5037 121.9C52.4529 121.988 52.3822 122.063 52.2972 122.119C52.134 122.213 52.0051 122.119 52.0051 121.951C52.0097 121.85 52.0386 121.75 52.0894 121.662C52.1402 121.574 52.2115 121.499 52.2972 121.444C52.4604 121.35 52.5893 121.423 52.5893 121.612Z" fill="#86B2FF"/>
<path d="M58.9552 117.939C58.9488 118.041 58.9186 118.14 58.8672 118.228C58.8157 118.316 58.7443 118.391 58.6588 118.446C58.4999 118.541 58.3667 118.446 58.3667 118.274C58.3729 118.173 58.4026 118.075 58.4532 117.987C58.5039 117.899 58.5743 117.824 58.6588 117.768C58.822 117.673 58.9552 117.75 58.9552 117.939Z" fill="#86B2FF"/>
<path d="M65.3161 114.262C65.3112 114.365 65.2822 114.464 65.2314 114.553C65.1806 114.642 65.1096 114.717 65.024 114.774C64.8608 114.864 64.7319 114.774 64.7319 114.602C64.7375 114.5 64.7669 114.402 64.8176 114.314C64.8683 114.225 64.939 114.151 65.024 114.095C65.2087 114 65.3161 114.078 65.3161 114.262Z" fill="#86B2FF"/>
<path d="M71.682 110.59C71.6763 110.692 71.6464 110.791 71.5949 110.879C71.5434 110.967 71.4716 111.042 71.3856 111.097C71.2267 111.191 71.0935 111.097 71.0935 110.929C71.0987 110.828 71.1279 110.729 71.1787 110.641C71.2295 110.553 71.3004 110.478 71.3856 110.422C71.5488 110.328 71.682 110.397 71.682 110.59Z" fill="#86B2FF"/>
<path d="M78.0433 106.917C78.0371 107.019 78.0074 107.117 77.9568 107.205C77.9061 107.293 77.8357 107.368 77.7512 107.424C77.588 107.519 77.4548 107.424 77.4548 107.252C77.4612 107.151 77.4914 107.052 77.5428 106.964C77.5943 106.876 77.6657 106.801 77.7512 106.745C77.9101 106.651 78.0433 106.728 78.0433 106.917Z" fill="#86B2FF"/>
<path d="M84.405 103.24C84.4001 103.343 84.371 103.442 84.3203 103.531C84.2695 103.62 84.1984 103.695 84.1129 103.752C83.9497 103.842 83.8208 103.752 83.8208 103.58C83.8291 103.482 83.8593 103.388 83.9091 103.304C83.959 103.22 84.0272 103.148 84.1086 103.094C84.2761 102.978 84.405 103.056 84.405 103.24Z" fill="#86B2FF"/>
<path d="M90.7711 99.5678C90.7658 99.6694 90.7366 99.7682 90.6859 99.8563C90.6351 99.9444 90.5642 100.019 90.479 100.075C90.3158 100.169 90.1826 100.075 90.1826 99.9072C90.188 99.8052 90.2177 99.7059 90.2693 99.6177C90.3208 99.5296 90.3927 99.455 90.479 99.4003C90.6379 99.3058 90.7711 99.3831 90.7711 99.5678Z" fill="#86B2FF"/>
<path d="M33.5001 138.592C33.4948 138.693 33.4657 138.792 33.4149 138.88C33.3641 138.968 33.2932 139.043 33.208 139.099C33.0448 139.193 32.9116 139.12 32.9116 138.931C32.918 138.829 32.9482 138.73 32.9996 138.642C33.0511 138.554 33.1225 138.48 33.208 138.424C33.3669 138.317 33.5001 138.407 33.5001 138.592Z" fill="#86B2FF"/>
<path d="M39.8657 134.919C39.8601 135.021 39.8307 135.119 39.78 135.207C39.7293 135.295 39.6586 135.37 39.5736 135.426C39.4104 135.52 39.2815 135.426 39.2815 135.258C39.286 135.157 39.3149 135.058 39.3658 134.969C39.4166 134.881 39.4879 134.806 39.5736 134.752C39.7325 134.657 39.8657 134.73 39.8657 134.919Z" fill="#86B2FF"/>
<path d="M46.2271 131.246C46.2209 131.348 46.1913 131.446 46.1406 131.534C46.0899 131.622 46.0196 131.697 45.9351 131.753C45.7718 131.848 45.6387 131.753 45.6387 131.581C45.6451 131.48 45.6752 131.381 45.7267 131.293C45.7781 131.205 45.8495 131.13 45.9351 131.075C46.094 130.98 46.2271 131.057 46.2271 131.246Z" fill="#86B2FF"/>
<path d="M52.5893 127.578C52.5844 127.68 52.5554 127.78 52.5046 127.869C52.4538 127.958 52.3828 128.033 52.2972 128.089C52.134 128.18 52.0051 128.089 52.0051 127.918C52.0107 127.816 52.04 127.717 52.0908 127.629C52.1415 127.541 52.2122 127.466 52.2972 127.411C52.4604 127.308 52.5893 127.385 52.5893 127.578Z" fill="#86B2FF"/>
<path d="M58.9552 123.897C58.9495 123.999 58.9196 124.098 58.8681 124.186C58.8165 124.274 58.7448 124.349 58.6588 124.404C58.4999 124.498 58.3667 124.404 58.3667 124.236C58.3719 124.135 58.4011 124.036 58.4519 123.948C58.5027 123.86 58.5736 123.785 58.6588 123.73C58.822 123.635 58.9552 123.712 58.9552 123.897Z" fill="#86B2FF"/>
<path d="M65.3161 120.224C65.3105 120.326 65.2812 120.425 65.2305 120.513C65.1797 120.601 65.109 120.676 65.024 120.731C64.8608 120.826 64.7319 120.731 64.7319 120.56C64.7375 120.458 64.7669 120.359 64.8176 120.271C64.8683 120.183 64.939 120.108 65.024 120.053C65.2087 119.958 65.3161 120.035 65.3161 120.224Z" fill="#86B2FF"/>
<path d="M71.682 116.548C71.6762 116.65 71.6464 116.75 71.5949 116.839C71.5434 116.927 71.4717 117.003 71.3856 117.059C71.2267 117.149 71.0935 117.059 71.0935 116.887C71.0997 116.786 71.1294 116.687 71.18 116.599C71.2307 116.511 71.3011 116.436 71.3856 116.38C71.5488 116.286 71.682 116.363 71.682 116.548Z" fill="#86B2FF"/>
<path d="M78.0433 112.875C78.0381 112.976 78.0089 113.075 77.9581 113.163C77.9073 113.252 77.8364 113.326 77.7512 113.382C77.588 113.476 77.4548 113.382 77.4548 113.214C77.4602 113.112 77.4899 113.013 77.5415 112.925C77.593 112.837 77.665 112.762 77.7512 112.707C77.9101 112.613 78.0433 112.69 78.0433 112.875Z" fill="#86B2FF"/>
<path d="M84.405 109.202C84.3994 109.304 84.3701 109.403 84.3193 109.491C84.2686 109.579 84.1979 109.654 84.1129 109.709C83.9497 109.804 83.8208 109.709 83.8208 109.542C83.8257 109.44 83.8547 109.34 83.9055 109.251C83.9563 109.162 84.0273 109.087 84.1129 109.031C84.2761 108.94 84.405 109.013 84.405 109.202Z" fill="#86B2FF"/>
<path d="M90.7711 105.526C90.7652 105.628 90.7357 105.727 90.685 105.815C90.6344 105.904 90.5638 105.98 90.479 106.037C90.3158 106.127 90.1826 106.037 90.1826 105.865C90.189 105.763 90.2191 105.664 90.2706 105.576C90.3221 105.488 90.3934 105.414 90.479 105.358C90.6379 105.264 90.7711 105.341 90.7711 105.526Z" fill="#86B2FF"/>
<path d="M33.5001 144.554C33.4938 144.655 33.4642 144.753 33.4136 144.841C33.3629 144.929 33.2925 145.004 33.208 145.061C33.0448 145.155 32.9116 145.061 32.9116 144.889C32.918 144.787 32.9482 144.688 32.9996 144.6C33.0511 144.512 33.1225 144.437 33.208 144.382C33.3669 144.287 33.5001 144.365 33.5001 144.554Z" fill="#86B2FF"/>
<path d="M39.8657 140.894C39.8608 140.996 39.8317 141.096 39.781 141.185C39.7302 141.273 39.6591 141.349 39.5736 141.405C39.4104 141.495 39.2815 141.405 39.2815 141.233C39.2871 141.132 39.3164 141.033 39.3672 140.945C39.4179 140.857 39.4886 140.782 39.5736 140.726C39.7325 140.615 39.8657 140.692 39.8657 140.894Z" fill="#86B2FF"/>
<path d="M46.2271 137.204C46.2212 137.306 46.1917 137.404 46.141 137.492C46.0903 137.58 46.0198 137.655 45.9351 137.711C45.7718 137.806 45.6387 137.711 45.6387 137.544C45.644 137.442 45.6737 137.342 45.7253 137.254C45.7769 137.166 45.8488 137.091 45.9351 137.037C46.094 136.942 46.2271 137.028 46.2271 137.204Z" fill="#86B2FF"/>
<path d="M52.5893 133.532C52.5837 133.633 52.5544 133.732 52.5037 133.82C52.4529 133.908 52.3822 133.983 52.2972 134.039C52.134 134.133 52.0051 134.039 52.0051 133.871C52.01 133.769 52.0391 133.669 52.0898 133.58C52.1406 133.492 52.2117 133.416 52.2972 133.36C52.4604 133.265 52.5893 133.343 52.5893 133.532Z" fill="#86B2FF"/>
<path d="M58.9552 129.855C58.9494 129.957 58.9196 130.057 58.8681 130.146C58.8166 130.235 58.7449 130.31 58.6588 130.366C58.4999 130.456 58.3667 130.366 58.3667 130.194C58.3729 130.093 58.4026 129.994 58.4532 129.906C58.5039 129.818 58.5743 129.743 58.6588 129.687C58.822 129.593 58.9552 129.67 58.9552 129.855Z" fill="#86B2FF"/>
<path d="M65.3161 126.182C65.3116 126.284 65.2827 126.383 65.2318 126.471C65.181 126.559 65.1097 126.634 65.024 126.689C64.8608 126.784 64.7319 126.689 64.7319 126.522C64.7365 126.42 64.7654 126.321 64.8162 126.233C64.867 126.144 64.9383 126.07 65.024 126.015C65.2087 125.92 65.3161 125.997 65.3161 126.182Z" fill="#86B2FF"/>
<path d="M71.682 122.51C71.6756 122.611 71.6454 122.71 71.594 122.798C71.5425 122.886 71.4711 122.961 71.3856 123.016C71.2267 123.111 71.0935 123.016 71.0935 122.849C71.0994 122.747 71.1289 122.648 71.1796 122.559C71.2302 122.47 71.3008 122.395 71.3856 122.338C71.5488 122.248 71.682 122.321 71.682 122.51Z" fill="#86B2FF"/>
<path d="M78.0433 118.833C78.0374 118.935 78.0079 119.034 77.9573 119.123C77.9066 119.211 77.8361 119.287 77.7512 119.344C77.588 119.434 77.4548 119.344 77.4548 119.172C77.4612 119.07 77.4914 118.971 77.5428 118.883C77.5943 118.795 77.6657 118.721 77.7512 118.665C77.9101 118.558 78.0433 118.648 78.0433 118.833Z" fill="#86B2FF"/>
<path d="M84.405 115.16C84.4004 115.262 84.3715 115.361 84.3207 115.449C84.2699 115.537 84.1986 115.612 84.1129 115.667C83.9497 115.761 83.8208 115.667 83.8208 115.499C83.8253 115.398 83.8542 115.299 83.9051 115.21C83.9559 115.122 84.0272 115.048 84.1129 114.993C84.2761 114.898 84.405 114.975 84.405 115.16Z" fill="#86B2FF"/>
<path d="M90.7711 111.488C90.7648 111.589 90.7352 111.687 90.6845 111.775C90.6339 111.863 90.5635 111.938 90.479 111.994C90.3158 112.089 90.1826 111.994 90.1826 111.827C90.1884 111.724 90.2182 111.625 90.2697 111.536C90.3212 111.447 90.3929 111.372 90.479 111.316C90.6379 111.226 90.7711 111.299 90.7711 111.488Z" fill="#86B2FF"/>
<path d="M33.5001 150.511C33.4942 150.613 33.4647 150.711 33.414 150.799C33.3633 150.887 33.2928 150.962 33.208 151.018C33.0448 151.113 32.9116 151.018 32.9116 150.851C32.917 150.749 32.9467 150.65 32.9983 150.561C33.0498 150.473 33.1217 150.399 33.208 150.344C33.3669 150.249 33.5001 150.344 33.5001 150.511Z" fill="#86B2FF"/>
<path d="M39.8657 146.839C39.8601 146.94 39.8307 147.039 39.78 147.127C39.7293 147.215 39.6586 147.29 39.5736 147.346C39.4104 147.44 39.2815 147.346 39.2815 147.174C39.2871 147.072 39.3164 146.974 39.3672 146.886C39.4179 146.798 39.4886 146.723 39.5736 146.667C39.7325 146.573 39.8657 146.65 39.8657 146.839Z" fill="#86B2FF"/>
<path d="M46.2271 143.162C46.2212 143.264 46.1918 143.363 46.1411 143.452C46.0904 143.54 46.0199 143.616 45.9351 143.673C45.7718 143.763 45.6387 143.673 45.6387 143.501C45.6451 143.4 45.6752 143.301 45.7267 143.213C45.7781 143.125 45.8495 143.05 45.9351 142.994C46.094 142.9 46.2271 142.977 46.2271 143.162Z" fill="#86B2FF"/>
<path d="M52.5893 139.489C52.5848 139.591 52.5559 139.69 52.505 139.778C52.4542 139.867 52.3829 139.941 52.2972 139.996C52.134 140.091 52.0051 139.996 52.0051 139.829C52.0097 139.727 52.0386 139.628 52.0894 139.54C52.1402 139.452 52.2115 139.377 52.2972 139.322C52.4604 139.227 52.5893 139.305 52.5893 139.489Z" fill="#86B2FF"/>
<path d="M58.9552 135.817C58.9488 135.919 58.9186 136.017 58.8672 136.105C58.8157 136.193 58.7443 136.268 58.6588 136.324C58.4999 136.418 58.3667 136.324 58.3667 136.156C58.3726 136.054 58.4021 135.955 58.4527 135.866C58.5034 135.778 58.5739 135.702 58.6588 135.645C58.822 135.555 58.9552 135.628 58.9552 135.817Z" fill="#86B2FF"/>
<path d="M65.3161 132.14C65.3112 132.242 65.2822 132.342 65.2314 132.431C65.1806 132.519 65.1096 132.595 65.024 132.651C64.8608 132.741 64.7319 132.651 64.7319 132.479C64.7375 132.378 64.7669 132.279 64.8176 132.191C64.8683 132.103 64.939 132.028 65.024 131.972C65.2087 131.874 65.3161 131.955 65.3161 132.14Z" fill="#86B2FF"/>
<path d="M71.682 128.467C71.6766 128.569 71.6469 128.669 71.5953 128.757C71.5438 128.845 71.4719 128.92 71.3856 128.974C71.2267 129.069 71.0935 128.974 71.0935 128.807C71.0987 128.705 71.1279 128.606 71.1787 128.518C71.2295 128.43 71.3004 128.355 71.3856 128.3C71.5488 128.205 71.682 128.283 71.682 128.467Z" fill="#86B2FF"/>
<path d="M78.0433 124.795C78.0371 124.896 78.0074 124.995 77.9568 125.082C77.9061 125.17 77.8357 125.245 77.7512 125.302C77.588 125.396 77.4548 125.302 77.4548 125.134C77.4606 125.032 77.4904 124.932 77.5419 124.843C77.5934 124.754 77.6651 124.679 77.7512 124.623C77.9101 124.533 78.0433 124.606 78.0433 124.795Z" fill="#86B2FF"/>
<path d="M84.405 121.135C84.4001 121.237 84.371 121.337 84.3203 121.426C84.2695 121.515 84.1984 121.59 84.1129 121.646C83.9497 121.736 83.8208 121.646 83.8208 121.474C83.8264 121.373 83.8557 121.274 83.9065 121.186C83.9572 121.098 84.0279 121.023 84.1129 120.968C84.2761 120.856 84.405 120.933 84.405 121.135Z" fill="#86B2FF"/>
<path d="M90.7711 117.445C90.7658 117.547 90.7366 117.646 90.6859 117.734C90.6351 117.822 90.5642 117.897 90.479 117.952C90.3158 118.047 90.1826 117.952 90.1826 117.785C90.1883 117.683 90.2182 117.584 90.2697 117.496C90.3212 117.407 90.393 117.333 90.479 117.278C90.6379 117.183 90.7711 117.269 90.7711 117.445Z" fill="#86B2FF"/>
</g>
<path d="M28.4317 151.173C28.0648 151.171 27.7137 151.024 27.4547 150.764C27.1957 150.504 27.0497 150.152 27.0486 149.786V92.8369C27.0557 92.2688 27.1981 91.7107 27.4641 91.2087C27.73 90.7067 28.1118 90.2753 28.5777 89.9504L94.6798 51.7856C94.868 51.658 95.0875 51.5842 95.3146 51.5721C95.5416 51.56 95.7677 51.61 95.9684 51.7169C96.1967 51.8757 96.379 52.092 96.4967 52.344C96.6144 52.5959 96.6633 52.8746 96.6385 53.1515V110.053C96.6378 110.647 96.481 111.23 96.184 111.744C95.887 112.258 95.4601 112.685 94.9461 112.982L29.1276 150.984C28.9162 151.107 28.6762 151.172 28.4317 151.173ZM95.4143 52.4084C95.3046 52.415 95.1983 52.449 95.1051 52.5072L29.0073 90.6892C28.67 90.938 28.3945 91.2611 28.2023 91.6336C28.0101 92.0061 27.9064 92.4178 27.8991 92.8369V149.786C27.8976 149.879 27.9215 149.971 27.9685 150.052C28.0154 150.133 28.0835 150.2 28.1654 150.245C28.2461 150.293 28.338 150.318 28.4317 150.318C28.5254 150.318 28.6173 150.293 28.698 150.245L94.5209 112.244C94.9045 112.021 95.2229 111.701 95.4445 111.317C95.6661 110.932 95.783 110.497 95.7837 110.053V53.1515C95.7837 52.722 95.6592 52.5244 95.5389 52.4557C95.5023 52.4291 95.4593 52.4128 95.4143 52.4084Z" fill="white"/>
<path opacity="0.5" d="M82.5964 72.1331V101.668L89.4004 105.594V76.0634L82.5964 72.1331Z" fill="#86B2FF"/>
<path opacity="0.5" d="M82.5969 72.1331V101.668L75.793 105.594V76.0634L82.5969 72.1331Z" fill="#86B2FF"/>
<path d="M82.5969 79.8985L75.9503 76.0633L82.5969 72.2239L89.2435 76.0633L82.5969 79.8985Z" fill="white" stroke="#141414" stroke-width="0.157364"/>
<path opacity="0.5" d="M82.5969 79.8047L75.9519 75.9689L75.793 76.0634L82.5969 79.9894L89.4008 76.0634L89.2376 75.9689L82.5969 79.8047Z" fill="#86B2FF"/>
<path opacity="0.6" d="M82.5969 109.525L75.793 105.594L82.5969 101.668L89.4008 105.594L82.5969 109.525Z" fill="#86B2FF"/>
<path d="M82.5182 109.388L75.8717 105.549V76.1996L82.5182 80.0348V109.388Z" fill="#86B2FF" stroke="#141414" stroke-width="0.157364"/>
<path d="M82.6751 80.0348L89.3217 76.1996V105.549L82.6751 109.388V80.0348Z" fill="#0962FF" stroke="#141414" stroke-width="0.157364"/>
<path opacity="0.5" d="M68.9802 88.8636V109.495L75.7842 113.421V92.7939L68.9802 88.8636Z" fill="#86B2FF"/>
<path opacity="0.5" d="M68.9802 88.8636V109.495L62.1763 113.421V92.7939L68.9802 88.8636Z" fill="#86B2FF"/>
<path opacity="0.5" d="M68.9802 96.72L62.1763 92.7939L68.9802 88.8636L75.7841 92.7939L68.9802 96.72Z" fill="white"/>
<path opacity="0.5" d="M68.9802 96.5396L62.3352 92.6995L62.1763 92.794L68.9802 96.72L75.7841 92.794L75.6252 92.6995L68.9802 96.5396Z" fill="#86B2FF"/>
<path opacity="0.6" d="M68.9802 117.347L62.1763 113.421L68.9802 109.495L75.7841 113.421L68.9802 117.347Z" fill="#86B2FF"/>
<path d="M68.9015 117.21L62.255 113.375V92.9302L68.9015 96.7654V117.21Z" fill="#86B2FF" stroke="#141414" stroke-width="0.157364"/>
<path d="M69.0589 96.7654L75.7055 92.9302V113.375L69.0589 117.21V96.7654Z" fill="#0962FF" stroke="#141414" stroke-width="0.157364"/>
<path opacity="0.5" d="M55.3635 105.487V117.317L62.1675 121.247V109.413L55.3635 105.487Z" fill="#86B2FF"/>
<path opacity="0.5" d="M55.3637 105.487V117.317L48.5598 121.247V109.413L55.3637 105.487Z" fill="#86B2FF"/>
<path d="M55.3637 113.252L48.7172 109.413L55.3637 105.578L62.0103 109.413L55.3637 113.252Z" fill="white" stroke="#141414" stroke-width="0.157364"/>
<path opacity="0.5" d="M55.3637 113.159L48.7187 109.323L48.5598 109.413L55.3637 113.343L62.1677 109.413L62.0045 109.323L55.3637 113.159Z" fill="#86B2FF"/>
<path opacity="0.6" d="M55.3637 125.173L48.5598 121.247L55.3637 117.317L62.1677 121.247L55.3637 125.173Z" fill="#86B2FF"/>
<path d="M55.2851 125.037L48.6385 121.201V109.549L55.2851 113.389V125.037Z" fill="#86B2FF" stroke="#141414" stroke-width="0.157364"/>
<path d="M55.4422 113.389L62.0888 109.549V121.201L55.4422 125.037V113.389Z" fill="#0962FF" stroke="#141414" stroke-width="0.157364"/>
<path opacity="0.5" d="M41.7471 114.421V125.16L48.551 129.09V118.352L41.7471 114.421Z" fill="#86B2FF"/>
<path opacity="0.5" d="M41.747 114.421V125.16L34.9431 129.09V118.352L41.747 114.421Z" fill="#86B2FF"/>
<path d="M41.7471 122.187L35.1005 118.347L41.747 114.512L48.3936 118.352L41.7471 122.187Z" fill="white" stroke="#141414" stroke-width="0.157364"/>
<path opacity="0.5" d="M41.747 122.093L35.102 118.257L34.9431 118.347L41.747 122.278L48.551 118.352L48.392 118.257L41.747 122.093Z" fill="#86B2FF"/>
<path opacity="0.6" d="M41.747 133.016L34.9431 129.09L41.747 125.16L48.551 129.09L41.747 133.016Z" fill="#86B2FF"/>
<path d="M41.6684 132.88L35.0218 129.045V118.488L41.6684 122.323V132.88Z" fill="#86B2FF" stroke="#141414" stroke-width="0.157364"/>
<path d="M41.8258 122.323L48.4723 118.488V129.045L41.8258 132.88V122.323Z" fill="#0962FF" stroke="#141414" stroke-width="0.157364"/>
<line x1="27.5583" y1="133.284" x2="36.9827" y2="109.295" stroke="#141414" stroke-width="0.85676"/>
<line x1="50.1223" y1="113.292" x2="37.2709" y2="109.865" stroke="#141414" stroke-width="0.85676"/>
<line x1="49.8126" y1="112.794" x2="51.5261" y2="104.227" stroke="#141414" stroke-width="0.85676"/>
<line x1="57.9436" y1="104.739" x2="51.9463" y2="104.739" stroke="#141414" stroke-width="0.85676"/>
<line x1="57.5235" y1="104.227" x2="63.5209" y2="74.24" stroke="#141414" stroke-width="0.85676"/>
<line y1="-0.42838" x2="27.8018" y2="-0.42838" transform="matrix(-0.83205 -0.554701 0.5547 -0.832051 87.0732 89.7457)" stroke="#141414" stroke-width="0.85676"/>
<line x1="86.6629" y1="89.6226" x2="94.3738" y2="63.9198" stroke="#141414" stroke-width="0.85676"/>
<path d="M38.8806 109.88C38.8806 110.944 38.0176 111.807 36.9529 111.807C35.8883 111.807 35.0252 110.944 35.0252 109.88C35.0252 108.815 35.8883 107.952 36.9529 107.952C38.0176 107.952 38.8806 108.815 38.8806 109.88Z" fill="#0962FF" stroke="#141414" stroke-width="0.42838"/>
<path d="M65.4402 74.7524C65.4402 75.817 64.5771 76.6801 63.5125 76.6801C62.4479 76.6801 61.5848 75.817 61.5848 74.7524C61.5848 73.6877 62.4479 72.8247 63.5125 72.8247C64.5771 72.8247 65.4402 73.6877 65.4402 74.7524Z" fill="#0962FF" stroke="#141414" stroke-width="0.42838"/>
<path d="M51.732 112.45C51.732 113.515 50.8689 114.378 49.8043 114.378C48.7396 114.378 47.8765 113.515 47.8765 112.45C47.8765 111.385 48.7396 110.522 49.8043 110.522C50.8689 110.522 51.732 111.385 51.732 112.45Z" fill="white" stroke="#141414" stroke-width="0.42838"/>
<path d="M88.5725 89.3173C88.5725 90.382 87.7095 91.245 86.6448 91.245C85.5802 91.245 84.7171 90.382 84.7171 89.3173C84.7171 88.2527 85.5802 87.3896 86.6448 87.3896C87.7095 87.3896 88.5725 88.2527 88.5725 89.3173Z" fill="white" stroke="#141414" stroke-width="0.42838"/>
<rect width="61.4533" height="1.87294" rx="0.936469" transform="matrix(0.866025 -0.5 2.20305e-08 1 114.595 106.492)" fill="#0962FF"/>
<ellipse cx="120.765" cy="104.178" rx="3.85653" ry="3.85653" fill="white"/>
<rect width="61.4533" height="1.87294" rx="0.936469" transform="matrix(0.866025 -0.5 2.20305e-08 1 114.595 97.236)" fill="#0962FF"/>
<ellipse cx="157.017" cy="74.0967" rx="3.08522" ry="3.08522" fill="white"/>
<rect width="61.4533" height="1.87294" rx="0.936469" transform="matrix(0.866025 -0.5 2.20305e-08 1 114.595 85.6664)" fill="#0962FF"/>
<ellipse cx="128.478" cy="78.7246" rx="2.31392" ry="2.31392" fill="white"/>
<defs>
<clipPath id="clip0_1240_5740">
<rect width="88.0417" height="94.9783" fill="white" transform="translate(37.5442)"/>
</clipPath>
</defs>
</svg>
