<svg width="146" height="160" viewBox="0 0 146 160" fill="none" xmlns="http://www.w3.org/2000/svg">
<line x1="81.943" y1="75.5779" x2="81.943" y2="9.64823" stroke="#86B2FF" stroke-width="0.8"/>
<line x1="115.983" y1="17.263" x2="85.4298" y2="6.81073" stroke="#86B2FF" stroke-width="0.8"/>
<line x1="72.6046" y1="85.6158" x2="30.7956" y2="75.9676" stroke="#86B2FF" stroke-width="0.8"/>
<line x1="14.3152" y1="53.6215" x2="26.3755" y2="68.8979" stroke="#86B2FF" stroke-width="0.8"/>
<line x1="13.6777" y1="93.0311" x2="26.542" y2="75.3426" stroke="#86B2FF" stroke-width="0.8"/>
<rect x="0.554776" width="71.1066" height="71.1066" rx="7.3669" transform="matrix(0.866025 -0.5 0.866025 0.5 21.3119 124.404)" fill="#141414" stroke="#0962FF" stroke-width="0.6406"/>
<rect x="0.554776" width="71.1066" height="71.1066" rx="7.3669" transform="matrix(0.866025 -0.5 0.866025 0.5 21.3119 117.357)" fill="#86B2FF" stroke="#0962FF" stroke-width="0.6406"/>
<circle opacity="0.3" cx="6.69092" cy="6.69092" r="6.69092" transform="matrix(0.866025 0.5 -0.866025 0.5 82.5891 102.324)" fill="#141414"/>
<path d="M25.4199 123.795V117.054C25.4199 117.801 26.1246 119.68 28.9432 121.218C31.7619 122.755 32.6801 123.353 32.7868 123.46V130.378L27.0214 126.983C26.721 126.758 26.1775 126.247 25.7924 125.607C25.4683 125.069 25.4199 124.423 25.4199 123.795Z" fill="#0962FF" stroke="#0962FF" stroke-width="0.640601"/>
<path d="M141.176 117.054V124.421" stroke="#0962FF" stroke-width="0.640601"/>
<path d="M76.3474 148.764V155.49" stroke="#0962FF" stroke-width="0.640601"/>
<path d="M90.4407 148.443V155.49" stroke="#0962FF" stroke-width="0.640601"/>
<path d="M136.884 124.452V121.859C136.884 121.859 138.573 121.051 139.447 120.257C140.175 119.595 140.947 118.19 141.243 117.621C141.274 117.561 141.368 117.584 141.368 117.652V123.306C141.368 124.255 141.267 125.243 140.728 126.023C140.039 127.017 138.921 127.607 137.873 128.212L102.292 148.764L134.461 128.807C135.968 127.872 136.884 126.225 136.884 124.452Z" fill="#0962FF" stroke="#0962FF" stroke-width="0.640601"/>
<path d="M37.5911 133.197V126.471L42.7159 129.674V136.08L37.5911 133.197Z" fill="#0962FF" stroke="#0962FF" stroke-width="0.640601"/>
<ellipse cx="81.5388" cy="6.43216" rx="6.43216" ry="6.43216" fill="white"/>
<ellipse cx="118.524" cy="22.5125" rx="9.64823" ry="9.64824" fill="#86B2FF"/>
<ellipse cx="9.98149" cy="49.0452" rx="9.64823" ry="9.64824" fill="#86B2FF"/>
<ellipse cx="28.4739" cy="72.3618" rx="6.43216" ry="6.43216" fill="white"/>
<ellipse cx="14.0016" cy="93.2663" rx="4.82412" ry="4.82412" fill="white"/>
<line x1="81.8461" y1="88.6982" x2="57.7255" y2="117.643" stroke="white" stroke-width="0.8"/>
<ellipse cx="57.4186" cy="117.387" rx="4.82412" ry="4.82412" fill="#141414"/>
<ellipse cx="82.3431" cy="87.6382" rx="12.8643" ry="12.8643" fill="#0962FF"/>
<rect x="1.04445" y="0.603015" width="53.3473" height="53.3473" rx="2.01005" transform="matrix(0.866025 -0.5 2.20305e-08 1 76.855 65.3867)" stroke="white" stroke-width="2.41206" stroke-dasharray="32.16 32.16"/>
</svg>
