<svg width="126" height="150" viewBox="0 0 126 150" fill="none" xmlns="http://www.w3.org/2000/svg">
<rect x="0.559462" width="71.7072" height="71.7072" rx="7.42913" transform="matrix(0.866025 -0.5 0.866025 0.5 0.414797 114.103)" fill="#141414" stroke="#0962FF" stroke-width="0.646011"/>
<rect x="0.559462" width="71.7072" height="71.7072" rx="7.42913" transform="matrix(0.866025 -0.5 0.866025 0.5 0.414797 106.997)" fill="#86B2FF" stroke="#0962FF" stroke-width="0.646011"/>
<path d="M4.55664 113.489V106.691C4.55664 107.445 5.26725 109.34 8.1097 110.89C10.9522 112.44 11.8781 113.043 11.9858 113.151V120.128L6.17167 116.704C5.8687 116.477 5.32063 115.962 4.93227 115.317C4.60543 114.774 4.55664 114.123 4.55664 113.489Z" fill="#0962FF" stroke="#0962FF" stroke-width="0.646011"/>
<path d="M121.291 106.691V114.12" stroke="#0962FF" stroke-width="0.646011"/>
<path d="M55.916 138.669V145.452" stroke="#0962FF" stroke-width="0.646011"/>
<path d="M70.1289 138.345V145.452" stroke="#0962FF" stroke-width="0.646011"/>
<path d="M116.963 114.152V111.536C116.963 111.536 118.666 110.721 119.547 109.921C120.281 109.254 121.06 107.836 121.358 107.263C121.39 107.202 121.485 107.225 121.485 107.294V112.996C121.485 113.952 121.383 114.949 120.839 115.735C120.144 116.738 119.016 117.333 117.96 117.944L82.0781 138.669L114.519 118.543C116.038 117.601 116.963 115.94 116.963 114.152Z" fill="#0962FF" stroke="#0962FF" stroke-width="0.646011"/>
<path d="M16.832 122.97V116.187L22.0001 119.417V125.878L16.832 122.97Z" fill="#0962FF" stroke="#0962FF" stroke-width="0.646011"/>
<rect x="0.559462" width="71.7072" height="71.7072" rx="7.42913" transform="matrix(0.866025 -0.5 0.866025 0.5 0.414797 114.103)" fill="#141414" stroke="#0962FF" stroke-width="0.646011"/>
<rect x="0.559462" width="71.7072" height="71.7072" rx="7.42913" transform="matrix(0.866025 -0.5 0.866025 0.5 0.414797 106.997)" fill="#86B2FF" stroke="#0962FF" stroke-width="0.646011"/>
<rect opacity="0.3" width="32.6689" height="72.3533" rx="7.75213" transform="matrix(0.866025 -0.5 0.866025 0.5 21.4219 94.5455)" fill="#060606"/>
<rect opacity="0.3" width="11.6132" height="34.2356" rx="3.24324" transform="matrix(0.866025 -0.5 0.866025 0.5 31.7324 106.473)" fill="#060606"/>
<path d="M4.55664 113.489V106.691C4.55664 107.445 5.26725 109.34 8.1097 110.89C10.9522 112.44 11.8781 113.043 11.9858 113.151V120.128L6.17167 116.704C5.8687 116.477 5.32063 115.962 4.93227 115.317C4.60543 114.774 4.55664 114.123 4.55664 113.489Z" fill="#0962FF" stroke="#0962FF" stroke-width="0.646011"/>
<path d="M121.291 106.691V114.12" stroke="#0962FF" stroke-width="0.646011"/>
<path d="M55.916 138.669V145.452" stroke="#0962FF" stroke-width="0.646011"/>
<path d="M70.1289 138.345V145.452" stroke="#0962FF" stroke-width="0.646011"/>
<path d="M116.963 114.152V111.536C116.963 111.536 118.666 110.721 119.547 109.921C120.281 109.254 121.06 107.836 121.358 107.263C121.39 107.202 121.485 107.225 121.485 107.294V112.996C121.485 113.952 121.383 114.949 120.839 115.735C120.144 116.738 119.016 117.333 117.96 117.944L82.0781 138.669L114.519 118.543C116.038 117.601 116.963 115.94 116.963 114.152Z" fill="#0962FF" stroke="#0962FF" stroke-width="0.646011"/>
<path d="M16.832 122.97V116.187L22.0001 119.417V125.878L16.832 122.97Z" fill="#0962FF" stroke="#0962FF" stroke-width="0.646011"/>
<mask id="path-19-outside-1_1237_8877" maskUnits="userSpaceOnUse" x="28.0765" y="-3" width="90.0666" height="112" fill="black">
<rect fill="white" x="28.0765" y="-3" width="90.0666" height="112"/>
<path fill-rule="evenodd" clip-rule="evenodd" d="M54.9744 71.0327L54.9744 71.0328L42.3915 63.7681C35.401 59.7321 29.8086 50.0458 29.8086 41.9738C29.8086 34.997 33.9865 31.6384 39.634 33.4615C40.1932 24.5354 46.8164 21.1201 54.9749 25.8305C56.8995 26.9417 58.7387 28.4064 60.433 30.1217C64.0081 24.6693 71.0616 23.8174 78.7421 28.2518C88.1458 33.681 96.5168 45.9664 99.0181 57.7325C99.249 57.8548 99.481 57.9832 99.7141 58.1177C108.942 63.4452 116.491 76.5218 116.491 87.1768C116.491 97.8318 108.942 102.191 99.7141 96.8632L54.9744 71.0327Z"/>
</mask>
<path fill-rule="evenodd" clip-rule="evenodd" d="M54.9744 71.0327L54.9744 71.0328L42.3915 63.7681C35.401 59.7321 29.8086 50.0458 29.8086 41.9738C29.8086 34.997 33.9865 31.6384 39.634 33.4615C40.1932 24.5354 46.8164 21.1201 54.9749 25.8305C56.8995 26.9417 58.7387 28.4064 60.433 30.1217C64.0081 24.6693 71.0616 23.8174 78.7421 28.2518C88.1458 33.681 96.5168 45.9664 99.0181 57.7325C99.249 57.8548 99.481 57.9832 99.7141 58.1177C108.942 63.4452 116.491 76.5218 116.491 87.1768C116.491 97.8318 108.942 102.191 99.7141 96.8632L54.9744 71.0327Z" fill="#86B2FF"/>
<path d="M54.9744 71.0327L54.9744 69.6981L53.8187 69.0309L53.8187 70.3654L54.9744 71.0327ZM54.9744 71.0328L54.9744 72.3674L56.1302 73.0347L56.1302 71.7001L54.9744 71.0328ZM39.634 33.4615L39.8827 34.9084L40.7267 35.1809L40.7869 34.2201L39.634 33.4615ZM60.433 30.1217L60.0255 31.1353L60.9635 32.0849L61.4461 31.349L60.433 30.1217ZM99.0181 57.7325L97.9051 57.4495L98.1517 58.6093L99.0659 59.0935L99.0181 57.7325ZM99.7141 96.8632L99.7141 98.1977L99.7141 96.8632ZM53.8187 70.3654L53.8187 70.3655L56.1302 71.7001L56.1302 71.7L53.8187 70.3654ZM54.9744 69.6983L42.3915 62.4335L42.3915 65.1026L54.9744 72.3674L54.9744 69.6983ZM42.3915 62.4335C36.0393 58.7661 30.9644 49.976 30.9644 42.6411L28.6528 41.3065C28.6528 50.1156 34.7627 60.6981 42.3915 65.1026L42.3915 62.4335ZM30.9644 42.6411C30.9644 36.2999 34.7572 33.2538 39.8827 34.9084L39.3852 32.0146C33.2158 30.023 28.6528 33.6941 28.6528 41.3065L30.9644 42.6411ZM40.7869 34.2201C41.3041 25.9652 47.4268 22.8071 54.9749 27.165L54.9749 24.4959C46.206 19.4332 39.0823 23.1056 38.481 32.7029L40.7869 34.2201ZM54.9749 27.165C56.7589 28.195 58.4601 29.5505 60.0255 31.1353L60.8405 29.1081C59.0173 27.2623 57.0402 25.6883 54.9749 24.4959L54.9749 27.165ZM61.4461 31.349C64.8189 26.2051 71.485 25.3964 78.7421 29.5864L78.7421 26.9172C70.6382 22.2384 63.1973 23.1336 59.42 28.8944L61.4461 31.349ZM78.7421 29.5864C87.6225 34.7134 95.5422 46.3343 97.9051 57.4495L100.131 58.0155C97.4915 45.5986 88.6691 32.6486 78.7421 26.9172L78.7421 29.5864ZM99.0659 59.0935C99.2808 59.2074 99.497 59.3269 99.7141 59.4523L99.7141 56.7832C99.4651 56.6394 99.2172 56.5022 98.9704 56.3715L99.0659 59.0935ZM99.7141 59.4523C108.303 64.4113 115.336 76.5916 115.336 86.5095L117.647 87.8441C117.647 76.4521 109.58 62.4792 99.7141 56.7832L99.7141 59.4523ZM115.336 86.5095C115.336 96.4275 108.303 100.488 99.7141 95.5286L99.7141 98.1977C109.58 103.894 117.647 99.2361 117.647 87.8441L115.336 86.5095ZM99.7141 95.5286L54.9744 69.6981L54.9744 72.3673L99.7141 98.1977L99.7141 95.5286Z" fill="#141414" mask="url(#path-19-outside-1_1237_8877)"/>
<path d="M89.8672 70.8985L99.8764 57.5529" stroke="#141414" stroke-width="1.66821"/>
<path d="M50.0781 41.7049L60.2542 29.1934" stroke="#141414" stroke-width="1.33456"/>
<rect x="31.9668" y="35.0651" width="5.11012" height="15.0139" transform="rotate(37.2902 31.9668 35.0651)" fill="#86B2FF"/>
<rect x="40.3398" y="26.691" width="4.97549" height="15.0139" transform="rotate(36.1661 40.3398 26.691)" fill="#86B2FF"/>
<rect x="111.664" y="91.6953" width="4.97549" height="17.1494" transform="rotate(36.1661 111.664 91.6953)" fill="#86B2FF"/>
<path d="M29.9452 36.7003L21.1367 48.3778" stroke="#141414" stroke-width="1.21779"/>
<mask id="path-27-outside-2_1237_8877" maskUnits="userSpaceOnUse" x="18.0687" y="10.3453" width="90.0666" height="112" fill="black">
<rect fill="white" x="18.0687" y="10.3453" width="90.0666" height="112"/>
<path fill-rule="evenodd" clip-rule="evenodd" d="M33.5957 77.8132L32.3837 77.1134C25.3932 73.0774 19.8008 63.3911 19.8008 55.3192C19.8008 48.3423 23.9787 44.9837 29.6261 46.8068C30.1854 37.8808 36.8086 34.4655 44.9671 39.1758C46.8917 40.287 48.7309 41.7517 50.4252 43.467C54.0003 38.0147 61.0538 37.1628 68.7343 41.5971C78.138 47.0264 86.5091 59.3119 89.0104 71.078C89.2412 71.2003 89.4732 71.3286 89.7063 71.4632C98.9338 76.7907 106.484 89.8673 106.484 100.522C106.484 111.177 98.9338 115.536 89.7063 110.209L33.5957 77.8132Z"/>
</mask>
<path fill-rule="evenodd" clip-rule="evenodd" d="M33.5957 77.8132L32.3837 77.1134C25.3932 73.0774 19.8008 63.3911 19.8008 55.3192C19.8008 48.3423 23.9787 44.9837 29.6261 46.8068C30.1854 37.8808 36.8086 34.4655 44.9671 39.1758C46.8917 40.287 48.7309 41.7517 50.4252 43.467C54.0003 38.0147 61.0538 37.1628 68.7343 41.5971C78.138 47.0264 86.5091 59.3119 89.0104 71.078C89.2412 71.2003 89.4732 71.3286 89.7063 71.4632C98.9338 76.7907 106.484 89.8673 106.484 100.522C106.484 111.177 98.9338 115.536 89.7063 110.209L33.5957 77.8132Z" fill="#0962FF"/>
<path d="M33.5957 77.8132L33.5957 79.1477L33.5957 79.1477L33.5957 77.8132ZM32.3837 77.1134L32.3837 75.7789L32.3837 75.7789L32.3837 77.1134ZM29.6261 46.8068L29.8749 48.2538L30.7189 48.5262L30.7791 47.5655L29.6261 46.8068ZM50.4252 43.467L50.0177 44.4806L50.9557 45.4303L51.4382 44.6944L50.4252 43.467ZM89.0104 71.078L87.8974 70.795L88.1439 71.9548L89.0581 72.439L89.0104 71.078ZM33.5957 76.4786L32.3837 75.7789L32.3837 78.448L33.5957 79.1477L33.5957 76.4786ZM32.3837 75.7789C26.0315 72.1114 20.9565 63.3214 20.9565 55.9864L18.645 54.6519C18.645 63.4609 24.7549 74.0435 32.3837 78.448L32.3837 75.7789ZM20.9565 55.9864C20.9565 49.6452 24.7493 46.5991 29.8749 48.2538L29.3774 45.3599C23.208 43.3683 18.645 47.0394 18.645 54.6519L20.9565 55.9864ZM30.7791 47.5655C31.2963 39.3106 37.4189 36.1524 44.9671 40.5104L44.9671 37.8412C36.1982 32.7785 29.0745 36.4509 28.4732 46.0482L30.7791 47.5655ZM44.9671 40.5104C46.7511 41.5403 48.4523 42.8958 50.0177 44.4806L50.8327 42.4534C49.0095 40.6077 47.0324 39.0336 44.9671 37.8412L44.9671 40.5104ZM51.4382 44.6944C54.8111 39.5504 61.4772 38.7418 68.7343 42.9317L68.7343 40.2626C60.6303 35.5837 53.1895 36.4789 49.4122 42.2397L51.4382 44.6944ZM68.7343 42.9317C77.6147 48.0588 85.5344 59.6797 87.8974 70.795L90.1234 71.361C87.4837 58.9441 78.6613 45.9939 68.7343 40.2626L68.7343 42.9317ZM89.0581 72.439C89.2731 72.5528 89.4891 72.6724 89.7063 72.7978L89.7063 70.1286C89.4573 69.9849 89.2094 69.8477 88.9627 69.717L89.0581 72.439ZM89.7063 72.7978C98.2955 77.7567 105.328 89.9371 105.328 99.855L107.639 101.19C107.639 89.7975 99.5721 75.8247 89.7063 70.1286L89.7063 72.7978ZM105.328 99.855C105.328 109.773 98.2955 113.833 89.7063 108.874L89.7063 111.543C99.5721 117.239 107.639 112.582 107.639 101.19L105.328 99.855ZM89.7063 108.874L33.5957 76.4786L33.5957 79.1477L89.7063 111.543L89.7063 108.874Z" fill="#141414" mask="url(#path-27-outside-2_1237_8877)"/>
<path d="M42.3198 25.0228L32.3105 38.3685" stroke="#141414" stroke-width="1.33456"/>
<path d="M105.711 108.433L115.72 94.2534" stroke="#141414" stroke-width="1.33456"/>
<path d="M55.5338 62.6936L55.5215 65.8925L56.2099 65.8951L56.2222 62.6962L55.5338 62.6936Z" fill="#141414"/>
<path d="M57.2857 64.6774L57.2734 67.8763L57.9619 67.879L57.9742 64.6801L57.2857 64.6774Z" fill="#141414"/>
<path d="M61.0195 64.6996L61.0078 67.8926L61.6963 67.8951L61.708 64.7021L61.0195 64.6996Z" fill="#141414"/>
<path d="M63.6255 64.1652L63.6133 67.3582L64.3017 67.3608L64.314 64.1678L63.6255 64.1652Z" fill="#141414"/>
<path d="M60.2392 59.0016H59.5508V61.5002H60.2392V59.0016Z" fill="#141414"/>
<path d="M32.57 52.5385C32.5609 52.5161 32.5601 52.4913 32.5677 52.4684C32.5753 52.4456 32.5909 52.4262 32.6115 52.4138L36.7244 49.8974C36.9143 49.7312 37.2289 49.7609 37.5494 50.0339L39.0806 51.3159C39.1577 51.3811 46.5882 57.5238 54.7903 56.0163C54.9635 55.9921 55.1393 55.9921 55.3125 56.0163C56.3049 56.1959 57.2034 56.7165 57.8527 57.4882C58.0455 57.697 58.2258 57.9169 58.3927 58.1469C66.2743 68.8594 73.7879 71.453 74.1024 71.5598L75.6218 72.0465C75.9108 72.1824 76.1564 72.3959 76.3313 72.663C76.5063 72.9302 76.6038 73.2407 76.6129 73.5599L76.5832 75.3404C76.2212 98.3618 69.8115 107.324 64.4879 110.795L59.5026 113.84L59.1702 112.855C58.5815 112.947 57.9845 112.975 57.3897 112.938C56.7792 112.831 56.2262 112.512 55.8289 112.036C55.1404 111.3 40.4278 95.2935 37.217 62.8652L34.9439 57.9748L32.57 52.5385Z" fill="#141414"/>
<path d="M58.9039 113.205C58.3726 113.273 57.836 113.288 57.3015 113.253C56.6055 113.135 55.9742 112.773 55.5211 112.232C54.892 111.561 40.0606 95.4657 36.8261 62.9246L34.6243 58.1114L32.2503 52.675C32.2089 52.5785 32.2036 52.4703 32.2352 52.3701C32.2667 52.27 32.3332 52.1844 32.4224 52.129L36.5175 49.6245C36.7087 49.4981 36.9388 49.4443 37.1662 49.4726C37.3936 49.5009 37.6034 49.6095 37.7579 49.7788L39.2891 51.0607C39.5858 51.31 46.7789 57.144 54.7198 55.684C54.9267 55.6571 55.1362 55.6571 55.343 55.684C56.4179 55.8702 57.393 56.4292 58.0968 57.2627C58.2867 57.4704 58.4766 57.7019 58.6903 57.9512C66.5006 68.5746 73.9133 71.1326 74.2219 71.2394L75.7472 71.7261C76.105 71.8869 76.4101 72.1454 76.6274 72.4719C76.8448 72.7985 76.9655 73.1797 76.9757 73.5718L76.946 75.3523C76.5781 98.4984 70.0794 107.573 64.6845 111.092L59.2778 114.321L58.9039 113.205ZM54.8207 56.3487C46.5771 57.8621 39.1466 51.8382 38.8321 51.6008L37.3187 50.2951C37.1288 50.1349 36.9804 50.1111 36.9448 50.1527L32.9387 52.5979L35.2415 57.8384L37.4611 62.6991L37.4908 62.8059C40.6957 95.1571 55.3845 111.11 56.0255 111.787C56.3715 112.2 56.8495 112.481 57.3787 112.582C57.9517 112.616 58.5268 112.589 59.0939 112.499L59.3728 112.457L59.6636 113.312L64.275 110.493C69.5215 107.068 75.854 98.1898 76.2161 75.3167V73.5362C76.205 73.289 76.129 73.0491 75.9956 72.8407C75.8622 72.6323 75.6762 72.4628 75.4564 72.3492L73.9371 71.8566C73.6166 71.7498 66.0021 69.1206 58.0612 58.3251C57.8891 58.0995 57.717 57.8859 57.5448 57.7019C56.9522 56.9914 56.1326 56.5071 55.2243 56.3309H55.1234C55.0222 56.3296 54.9211 56.3356 54.8207 56.3487Z" fill="#141414"/>
<path d="M36.7244 49.8974C36.9143 49.7312 37.2289 49.7609 37.5494 50.0339L39.0806 51.3159C39.1577 51.3811 46.5882 57.5238 54.7903 56.0163C54.9635 55.9921 55.1393 55.9921 55.3125 56.0163C56.3049 56.1959 57.2034 56.7165 57.8527 57.4882C58.0455 57.697 58.2258 57.9169 58.3927 58.1469C66.2743 68.8594 73.7879 71.453 74.1024 71.5598L75.6218 72.0465C75.9272 72.172 76.1806 72.3982 76.3399 72.6875L63.9715 79.7025L37.9114 68.7051C37.6265 66.8139 37.3832 64.8554 37.1814 62.8296L34.9439 57.9748L32.57 52.5385C32.5609 52.5161 32.5601 52.4913 32.5677 52.4684C32.5753 52.4456 32.5909 52.4262 32.6115 52.4138L36.7244 49.8974Z" fill="white"/>
<path d="M37.572 68.9425L37.5424 68.7526C37.2575 66.8357 37.0141 64.8771 36.8183 62.9246L34.6164 58.1114L32.2425 52.669C32.2011 52.5725 32.1958 52.4643 32.2273 52.3641C32.2589 52.264 32.3253 52.1784 32.4146 52.123L36.5097 49.6185C36.7009 49.4922 36.9309 49.4383 37.1584 49.4666C37.3858 49.4949 37.5956 49.6035 37.7501 49.7728L39.2813 51.0548C39.578 51.304 46.7711 57.138 54.712 55.678C54.9189 55.6511 55.1283 55.6511 55.3352 55.678C56.4101 55.8643 57.3851 56.4232 58.089 57.2567C58.2789 57.4644 58.4688 57.6959 58.6825 57.9452C66.4928 68.5687 73.9055 71.1266 74.2141 71.2334L75.7394 71.7201C76.1189 71.8736 76.4363 72.1493 76.6415 72.5035L76.8255 72.8062L64.0061 80.0824L37.572 68.9425ZM75.4842 72.3492L73.9649 71.8566C73.6444 71.7498 66.0299 69.1206 58.089 58.325C57.9169 58.0995 57.7448 57.8858 57.5727 57.7018C56.9801 56.9913 56.1604 56.5071 55.2521 56.3309C55.1082 56.3132 54.9627 56.3132 54.8188 56.3309C46.5753 57.8443 39.1448 51.8204 38.8302 51.583L37.3168 50.2951C37.1269 50.1348 36.9785 50.1111 36.9429 50.1526L32.9369 52.5978L35.2396 57.8383L37.4593 62.699L37.4889 62.8059C37.6789 64.6991 37.9103 66.6042 38.1893 68.4678L63.9171 79.3049L75.7869 72.5628C75.7041 72.469 75.6004 72.3958 75.4842 72.3492Z" fill="#141414"/>
<path d="M51.5628 114.582C50.8031 113.775 32.9687 94.3559 32.3574 54.8057V52.9777C32.3574 52.3842 32.8381 52.1825 33.3545 52.6216L34.8857 53.9036C34.9628 53.9689 42.3874 60.1115 50.5894 58.604C50.7647 58.58 50.9424 58.58 51.1176 58.604C52.1088 58.7825 53.0057 59.3034 53.6518 60.0759C53.8463 60.2849 54.0286 60.5048 54.1979 60.7347C62.0794 71.4175 69.5871 74.0407 69.9016 74.1416L71.4269 74.6342C71.7146 74.7718 71.9592 74.9856 72.1339 75.2524C72.3086 75.5192 72.4069 75.8288 72.418 76.1476L72.3883 77.9281C71.7948 116.772 53.9427 115.597 53.183 115.526C52.5751 115.416 52.0249 115.097 51.628 114.624L51.5628 114.582ZM67.3971 77.6788C64.0557 75.8271 58.6372 72.0169 52.9871 64.7645C52.8484 64.5437 52.6582 64.3598 52.4329 64.2285C52.2076 64.0972 51.9538 64.0225 51.6933 64.0107C45.9483 64.6695 40.601 62.2718 37.3071 60.3073C36.8739 60.0521 36.5296 60.2717 36.5534 60.7762C37.7404 87.4833 47.0879 103.08 51.2185 108.73C51.9011 109.662 53.1474 110.867 53.824 110.712C57.9309 109.787 66.9579 104.184 68.1567 79.026C68.1477 78.7535 68.0708 78.4876 67.9329 78.2523C67.7951 78.0171 67.6007 77.8199 67.3674 77.6788H67.3971Z" fill="#86B2FF"/>
<path d="M53.0755 115.84C52.3799 115.729 51.7477 115.371 51.295 114.831C50.5353 114.018 32.6119 94.5042 31.9947 54.8234L31.965 52.9954C31.9483 52.8207 31.9832 52.6448 32.0655 52.4897C32.1478 52.3346 32.2738 52.2071 32.428 52.123C32.6153 52.0523 32.8192 52.0383 33.0144 52.0826C33.2096 52.1269 33.3875 52.2276 33.5259 52.3723L35.0512 53.6542C35.3539 53.9035 42.547 59.7316 50.4819 58.2775C50.6788 58.25 50.8785 58.25 51.0754 58.2775C52.1523 58.4583 53.1291 59.0182 53.8292 59.8562C54.0408 60.0734 54.239 60.3033 54.4227 60.5446C62.239 71.1681 69.6517 73.7261 69.9603 73.8329L71.4796 74.3196C71.8374 74.4787 72.1427 74.7361 72.3601 75.0617C72.5775 75.3873 72.6982 75.7679 72.7082 76.1594V77.9398C72.3758 98.8841 66.9572 108.089 62.4645 112.125C58.6721 115.532 54.9984 115.888 53.6274 115.888C53.3426 115.858 53.1526 115.846 53.0755 115.84ZM50.5947 58.9363C42.3511 60.4497 34.9206 54.4258 34.6061 54.1884L33.0749 52.9064C32.8909 52.7521 32.7544 52.7284 32.7069 52.7521C32.6594 52.7759 32.6357 52.853 32.6357 52.9954L32.6654 54.8234C33.2588 94.249 51.0279 113.579 51.7817 114.374C52.1276 114.787 52.6056 115.068 53.1348 115.169C53.3188 115.169 57.5801 115.52 61.9541 111.609C66.3281 107.697 71.6458 98.617 71.9722 77.922V76.1416C71.9642 75.8944 71.89 75.6539 71.7575 75.4451C71.6249 75.2364 71.4388 75.067 71.2185 74.9546L69.6932 74.462C69.3727 74.3552 61.7642 71.726 53.8233 60.9304C53.673 60.7171 53.5126 60.5111 53.3426 60.3132C52.75 59.6037 51.93 59.1214 51.022 58.9481H50.8736C50.7813 58.9351 50.6878 58.9312 50.5947 58.9363ZM50.9152 108.932C46.8854 103.424 37.3895 87.6968 36.1848 60.7939C36.1639 60.6329 36.1884 60.4693 36.2556 60.3214C36.3227 60.1736 36.4297 60.0474 36.5646 59.9571C36.703 59.8839 36.859 59.8506 37.0152 59.8611C37.1714 59.8716 37.3215 59.9254 37.4489 60.0164C40.8377 62.0343 46.0426 64.3133 51.6214 63.6723C51.9409 63.6755 52.2545 63.758 52.5342 63.9123C52.8139 64.0667 53.0509 64.2881 53.2239 64.5566C58.7611 71.6785 64.061 75.4531 67.5329 77.382C67.8164 77.5577 68.051 77.8021 68.2149 78.0926C68.3788 78.3831 68.4668 78.7102 68.4706 79.0437C67.1828 105.964 56.9688 110.344 53.8708 111.045C53.8058 111.053 53.7399 111.053 53.6749 111.045C52.7491 111.068 51.479 109.703 50.9152 108.932ZM67.7881 79.0081C67.7777 78.8022 67.7185 78.6016 67.6153 78.4231C67.5121 78.2446 67.3679 78.0932 67.1946 77.9814C63.6693 76.0169 58.2923 72.1711 52.6838 64.978C52.3158 64.5092 51.936 64.3192 51.6927 64.3489C45.9358 65.0077 40.5706 62.6753 37.0928 60.5981C36.98 60.5328 36.9147 60.5387 36.9088 60.5446C36.9029 60.5506 36.8554 60.6218 36.8613 60.7642C38.0483 87.4713 47.467 103.068 51.4553 108.534C52.2209 109.573 53.3129 110.469 53.7105 110.38C56.678 109.703 66.524 105.448 67.7822 79.0081H67.7881Z" fill="#141414"/>
<path d="M37.2764 60.3132C40.5702 62.2776 45.9176 64.6753 51.6626 64.0166C51.9231 64.0283 52.1768 64.1031 52.4022 64.2343C52.6275 64.3656 52.8176 64.5495 52.9564 64.7703C58.6064 72.0227 64.025 75.833 67.3663 77.6846C67.5941 77.8293 67.7827 78.0279 67.9152 78.2629C68.0477 78.498 68.1201 78.7621 68.126 79.0319C66.939 104.214 57.9002 109.792 53.7932 110.718C53.1166 110.873 51.8703 109.668 51.1878 108.736C47.0334 103.086 37.7156 87.495 36.5226 60.782C36.4989 60.2716 36.8431 60.052 37.2764 60.3132Z" fill="#0962FF"/>
<path d="M37.2764 60.3132C37.8699 60.6752 38.5524 61.0491 39.2883 61.4171C40.6889 87.4238 49.8168 102.659 53.8882 108.232C54.394 108.937 55.0282 109.541 55.7577 110.012C55.1311 110.318 54.4722 110.553 53.7932 110.712C53.1166 110.867 51.8703 109.662 51.1878 108.73C47.0334 103.08 37.7156 87.4891 36.5226 60.7761C36.4989 60.2716 36.8431 60.0521 37.2764 60.3132Z" fill="#141414"/>
<path d="M50.9154 108.932C46.8856 103.424 37.3897 87.7029 36.1849 60.794C36.1641 60.633 36.1886 60.4694 36.2557 60.3216C36.3228 60.1737 36.4299 60.0476 36.5648 59.9572C36.7031 59.884 36.8592 59.8508 37.0154 59.8613C37.1715 59.8717 37.3217 59.9255 37.4491 60.0166C38.096 60.3964 38.7666 60.7644 39.4373 61.1027L39.6153 61.1917V61.3935C41.0219 87.4596 50.2507 102.689 54.1499 108.024C54.6344 108.692 55.238 109.266 55.9304 109.715L56.5238 110.036L55.9304 110.321C55.2806 110.637 54.5979 110.879 53.8947 111.045C53.8297 111.054 53.7638 111.054 53.6988 111.045C52.7493 111.069 51.4792 109.704 50.9154 108.932ZM53.6098 108.428C49.6869 103.086 40.4106 87.7563 38.9565 61.6249C38.3274 61.3044 37.7043 60.9602 37.0989 60.5982C36.9862 60.5329 36.9209 60.5388 36.9149 60.5448C36.909 60.5507 36.8615 60.6219 36.8674 60.7644C38.0544 87.4714 47.4731 103.068 51.4673 108.534C52.227 109.573 53.3249 110.469 53.7166 110.38C54.1776 110.276 54.6284 110.131 55.0639 109.947C54.5168 109.504 54.0282 108.994 53.6098 108.428Z" fill="#0962FF"/>
<path d="M76.1428 72.3507L71.8223 74.8021L72.1591 75.3957L76.4796 72.9443L76.1428 72.3507Z" fill="#141414"/>
<path d="M73.5178 71.1256L69.1973 73.577L69.5341 74.1706L73.8546 71.7193L73.5178 71.1256Z" fill="#141414"/>
<path d="M55.7643 55.8798L51.4434 58.3304L51.7801 58.9241L56.101 56.4735L55.7643 55.8798Z" fill="#141414"/>
<path d="M59.2975 59.434L54.9766 61.8846L55.3133 62.4783L59.6342 60.0277L59.2975 59.434Z" fill="#141414"/>
<path d="M38.8232 50.8666L34.2578 53.5817L34.6067 54.1683L39.1721 51.4532L38.8232 50.8666Z" fill="#141414"/>
<path d="M72.5664 82.5217L75.9434 80.4861L75.979 79.673L72.5723 81.7264L72.5664 82.5217Z" fill="#0962FF"/>
<path d="M66.9199 105.988L70.2969 103.953L70.9022 102.783L67.5015 104.837L66.9199 105.988Z" fill="#0962FF"/>
<path d="M46.6711 58.9065L51.0985 56.4554L50.7721 55.8619L45.3535 58.8531L46.6711 58.9065Z" fill="#141414"/>
<path d="M53.2421 106.992L51.0527 108.349L51.4123 108.929L53.6016 107.572L53.2421 106.992Z" fill="#0962FF"/>
<path d="M39.749 64.0407L37.0703 65.7109L37.432 66.2911L40.1108 64.6208L39.749 64.0407Z" fill="#0962FF"/>
<path d="M39.7339 67.5828L37.0625 69.2546L37.4246 69.8332L40.096 68.1613L39.7339 67.5828Z" fill="#0962FF"/>
<path d="M50.9154 108.932C46.8856 103.424 37.3897 87.7029 36.1849 60.794C36.1641 60.633 36.1886 60.4694 36.2557 60.3216C36.3228 60.1737 36.4299 60.0476 36.5648 59.9572C36.7031 59.884 36.8592 59.8508 37.0154 59.8613C37.1715 59.8717 37.3217 59.9255 37.4491 60.0166C40.8379 62.0344 46.0428 64.3134 51.6216 63.6725C51.9411 63.6757 52.2547 63.7581 52.5344 63.9125C52.8141 64.0668 53.0511 64.2882 53.224 64.5568C58.7613 71.6787 64.0612 75.4533 67.5331 77.3821C67.8166 77.5578 68.0511 77.8023 68.215 78.0927C68.379 78.3832 68.4669 78.7104 68.4708 79.0439C67.1829 105.965 56.969 110.345 53.871 111.045C53.806 111.054 53.7401 111.054 53.6751 111.045C52.7493 111.069 51.4792 109.704 50.9154 108.932ZM51.6988 64.3491C45.9419 65.0078 40.5768 62.6754 37.0989 60.5982C36.9862 60.5329 36.9209 60.5388 36.9149 60.5448C36.909 60.5507 36.8615 60.6219 36.8674 60.7644C38.0544 87.4714 47.4731 103.068 51.4673 108.534C52.227 109.573 53.3249 110.469 53.7166 110.38C56.6841 109.704 66.5301 105.448 67.7883 79.0083C67.7779 78.8023 67.7187 78.6018 67.6155 78.4233C67.5123 78.2447 67.3681 78.0933 67.1948 77.9815C63.6695 76.0171 58.2925 72.1713 52.684 64.9782C52.579 64.8135 52.4408 64.6726 52.2784 64.5643C52.1159 64.456 51.9327 64.3827 51.7403 64.3491H51.6988Z" fill="#141414"/>
<path d="M60.4658 84.4089C60.4603 84.1021 60.3835 83.8007 60.2413 83.5288C60.0991 83.2568 59.8956 83.0217 59.6468 82.8421L50.1985 77.3879C50.1305 77.3419 50.0532 77.3117 49.9721 77.2994C49.8909 77.287 49.8081 77.2929 49.7296 77.3167C49.0367 77.3963 48.3692 77.6241 47.7721 77.9845C47.1751 78.345 46.6626 78.8297 46.2695 79.4057L49.3794 85.0439V85.5602C49.3794 87.6315 50.6376 90.0292 52.1866 90.9017L52.8276 91.2696L55.6111 96.3262C57.2491 96.1066 58.8812 94.7831 59.5815 94.148C59.6616 94.0931 59.7352 94.0294 59.8011 93.9581L59.9436 93.8098C60.317 93.2603 60.5004 92.6037 60.4658 91.9403V84.4089Z" fill="white"/>
<path d="M55.4377 96.7238L52.589 91.5486L52.0311 91.2222C50.3574 90.2607 49.0636 87.774 49.0636 85.5603V85.133L45.9062 79.3999L46.0012 79.2337C46.4158 78.6149 46.9593 78.0929 47.5944 77.7037C48.2295 77.3144 48.9412 77.067 49.6808 76.9784C49.8017 76.9453 49.9282 76.9382 50.052 76.9576C50.1758 76.977 50.2941 77.0226 50.399 77.0912L59.8473 82.5454C60.1491 82.7545 60.3966 83.0327 60.569 83.3569C60.7414 83.6811 60.8338 84.0418 60.8385 84.4089V91.9641C60.8756 92.7049 60.667 93.4372 60.245 94.0472L60.0788 94.2193C59.9994 94.3109 59.9075 94.3908 59.8058 94.4567C59.0165 95.1748 57.3725 96.4627 55.687 96.6942L55.4377 96.7238ZM46.6897 79.4177L49.7402 84.9549V85.5484C49.7402 87.501 50.9272 89.7741 52.3753 90.6168L53.0993 91.0323L55.8116 95.9582C57.3013 95.6556 58.7791 94.4389 59.3725 93.9048C59.4387 93.8593 59.5003 93.8077 59.5565 93.7505L59.7168 93.5843C60.0279 93.099 60.1775 92.5277 60.1441 91.9522V84.4089C60.1389 84.163 60.078 83.9215 59.9659 83.7025C59.8539 83.4835 59.6936 83.2929 59.4972 83.1448L50.0488 77.6906C50.0246 77.6699 49.996 77.6549 49.9652 77.6467C49.9344 77.6385 49.9021 77.6373 49.8708 77.6431H49.8055C49.1946 77.7181 48.6046 77.9136 48.0698 78.2182C47.5349 78.5228 47.0658 78.9305 46.6897 79.4177Z" fill="#141414"/>
<path d="M59.6327 94.1837C59.7127 94.1286 59.7846 94.0627 59.8464 93.9878L59.9888 93.8395C60.3697 93.2932 60.5557 92.6347 60.517 91.97V84.4208C60.4441 83.9619 60.2807 83.5221 60.0363 83.127L56.0837 85.584C56.0837 85.584 54.6474 89.0262 53.1934 91.875L55.6623 96.3558C57.2944 96.1363 58.9265 94.8128 59.6327 94.1837Z" fill="#141414"/>
<path d="M48.9499 92.8601L54.4219 96.0175C55.9709 96.9137 57.2291 95.9641 57.2291 93.8987V86.3436C57.2247 86.0359 57.1478 85.7336 57.0044 85.4613C56.861 85.189 56.6554 84.9545 56.4041 84.7768L46.9617 79.3048C46.5047 79.0437 46.1367 79.3048 46.1367 79.928V87.495C46.1367 89.5603 47.4068 91.964 48.9499 92.8601Z" fill="#86B2FF"/>
<path d="M55.5377 96.7001C55.0807 96.6887 54.6346 96.5577 54.2439 96.3203L48.7719 93.157C47.1042 92.1955 45.8045 89.7088 45.8045 87.4951V79.9459C45.7889 79.7587 45.8229 79.5707 45.9031 79.4008C45.9834 79.231 46.107 79.0853 46.2615 78.9785C46.3999 78.9073 46.5547 78.8743 46.71 78.8826C46.8654 78.891 47.0158 78.9404 47.1458 79.0259L56.5941 84.4801C56.8949 84.6903 57.1415 84.9688 57.3138 85.2927C57.4861 85.6166 57.5791 85.9768 57.5853 86.3437V93.8988C57.5853 95.0858 57.1698 96.0473 56.4398 96.4686C56.165 96.6245 55.8536 96.7043 55.5377 96.7001ZM46.6354 79.572H46.5938C46.5404 79.572 46.487 79.7322 46.487 79.9399V87.4951C46.487 89.4476 47.674 91.7207 49.1221 92.5635L54.5941 95.7208C54.8059 95.8777 55.0562 95.9744 55.3184 96.0005C55.5807 96.0266 55.8452 95.9812 56.0837 95.8692C56.5882 95.5784 56.879 94.8543 56.879 93.8988V86.3437C56.8738 86.0978 56.8129 85.8562 56.7008 85.6373C56.5888 85.4183 56.4285 85.2276 56.2321 85.0795L46.8134 79.6254C46.7606 79.5904 46.6987 79.5718 46.6354 79.572Z" fill="#141414"/>
<path d="M52.6724 91.4952V87.5841H51.9898V90.3142L51.4438 89.9996L51.0996 90.5931L52.6724 91.4952Z" fill="white"/>
<path d="M52.1571 88.7474C51.754 88.4902 51.4177 88.1408 51.1763 87.728C50.9348 87.3152 50.795 86.8509 50.7684 86.3734C50.7384 86.1604 50.7727 85.9433 50.8668 85.75C50.961 85.5566 51.1107 85.3957 51.2969 85.288C51.4831 85.1802 51.6971 85.1305 51.9117 85.1452C52.1263 85.1599 52.3316 85.2383 52.5013 85.3704C52.9027 85.629 53.2373 85.9789 53.4776 86.3915C53.718 86.8041 53.8573 87.2677 53.8842 87.7444C53.9014 87.9561 53.8614 88.1686 53.7685 88.3596C53.6756 88.5507 53.5331 88.7133 53.356 88.8305C53.2078 88.9147 53.0398 88.9577 52.8693 88.9551C52.6177 88.95 52.372 88.8783 52.1571 88.7474ZM51.6348 85.8571C51.5661 85.9177 51.5133 85.9944 51.4812 86.0803C51.4491 86.1663 51.4387 86.2588 51.4509 86.3497C51.4804 86.7064 51.5902 87.0519 51.7721 87.3603C51.954 87.6686 52.2033 87.9318 52.5013 88.1301C52.5728 88.1876 52.658 88.2255 52.7485 88.2401C52.839 88.2546 52.9318 88.2454 53.0177 88.2132C53.1364 88.1479 53.2017 87.9699 53.2017 87.7206C53.1754 87.3637 53.0676 87.0176 52.8865 86.7089C52.7054 86.4002 52.4559 86.1372 52.1571 85.9402C52.0443 85.8702 51.9158 85.8294 51.7832 85.8215C51.7335 85.813 51.6825 85.8171 51.6348 85.8333V85.8571Z" fill="white"/>
<path d="M50.5293 86.3852C50.5522 86.8074 50.6743 87.2181 50.8857 87.5842C51.0971 87.9503 51.3918 88.2613 51.7459 88.4921C52.4225 88.8779 52.9626 88.5634 52.9626 87.7918C52.9406 87.3687 52.819 86.9567 52.6075 86.5896C52.3961 86.2224 52.1009 85.9104 51.7459 85.679C51.0753 85.2932 50.5293 85.6078 50.5293 86.3852Z" fill="#0962FF"/>
<path d="M51.5617 88.8007C51.1589 88.5431 50.823 88.1936 50.5815 87.7809C50.3401 87.3682 50.2001 86.9041 50.173 86.4267C50.1425 86.2143 50.1764 85.9977 50.2702 85.8047C50.364 85.6117 50.5134 85.4513 50.6992 85.344C50.8851 85.2367 51.0987 85.1875 51.3128 85.2028C51.5268 85.2181 51.7313 85.2971 51.9 85.4296C52.3072 85.6897 52.6458 86.0438 52.8875 86.4621C53.1292 86.8804 53.2668 87.3507 53.2888 87.8333C53.3049 88.044 53.2644 88.2553 53.1716 88.4452C53.0787 88.6351 52.9368 88.7967 52.7606 88.9134C52.6133 89.0005 52.445 89.0457 52.2739 89.044C52.019 89.0282 51.773 88.9442 51.5617 88.8007ZM51.0395 85.9044C50.9698 85.9644 50.9164 86.041 50.8843 86.1271C50.8521 86.2132 50.8422 86.3061 50.8555 86.397C50.8817 86.754 50.9896 87.1001 51.1707 87.4088C51.3517 87.7175 51.6013 87.9804 51.9 88.1775C51.9742 88.2318 52.0601 88.2681 52.1507 88.2835C52.2413 88.299 52.3343 88.2932 52.4223 88.2665C52.4888 88.2041 52.5399 88.1271 52.5718 88.0417C52.6037 87.9563 52.6155 87.8647 52.6063 87.7739C52.5827 87.4115 52.4763 87.0593 52.2952 86.7444C52.1141 86.4296 51.8632 86.1605 51.5617 85.9579C51.4486 85.8886 51.3202 85.8478 51.1878 85.8391C51.1406 85.846 51.0958 85.8643 51.0573 85.8926L51.0395 85.9044Z" fill="#141414"/>
<path d="M52.0903 91.5367V88.4802L51.4077 88.0707V90.3556L50.8617 90.0411L50.5234 90.6286L52.0903 91.5367Z" fill="#141414"/>
<path d="M60.1634 86.458L57.4199 88.1261L57.6974 88.5825L60.4409 86.9144L60.1634 86.458Z" fill="#86B2FF"/>
<path d="M59.2546 91.4532L56.5254 93.1228L56.8031 93.5768L59.5323 91.9072L59.2546 91.4532Z" fill="#86B2FF"/>
<path d="M56.5769 83.4594C56.3229 83.4594 56.0793 83.3589 55.8991 83.1799C55.719 83.0008 55.617 82.7578 55.6154 82.5039V78.3494C55.5798 77.7127 55.3954 77.0932 55.0769 76.5407C54.7584 75.9883 54.3147 75.5182 53.7816 75.1683L52.0308 74.1594C51.6984 73.9695 51.4373 73.9398 51.3542 73.9991C51.2711 74.0585 51.1524 74.284 51.1524 74.6638V78.8183C51.1524 79.0722 51.0519 79.3159 50.8729 79.496C50.6939 79.6762 50.4509 79.7782 50.1969 79.7797C49.9424 79.7782 49.6987 79.6764 49.5187 79.4964C49.3388 79.3164 49.237 79.0728 49.2354 78.8183V74.6638C49.1879 74.2075 49.2737 73.7473 49.4822 73.3386C49.6908 72.93 50.0133 72.5906 50.4108 72.3615C50.8082 72.1323 51.2635 72.0232 51.7217 72.0474C52.1798 72.0715 52.6211 72.2279 52.9922 72.4976L54.7371 73.5065C55.5494 74.0389 56.2254 74.7543 56.7109 75.5954C57.1964 76.4365 57.4778 77.3798 57.5324 78.3494V82.5039C57.5324 82.6293 57.5077 82.7536 57.4597 82.8695C57.4117 82.9854 57.3413 83.0908 57.2526 83.1795C57.1638 83.2682 57.0585 83.3386 56.9426 83.3866C56.8266 83.4347 56.7024 83.4594 56.5769 83.4594Z" fill="#141414"/>
<path d="M50.4934 75.7084H50.0957V74.3612C50.0954 74.0962 50.1646 73.8358 50.2965 73.606C50.4284 73.3763 50.6183 73.1851 50.8472 73.0517C51.0761 72.9183 51.336 72.8474 51.601 72.846C51.8659 72.8445 52.1266 72.9127 52.3569 73.0436L54.1908 74.0822L53.9949 74.4324L52.1551 73.37C51.9849 73.2752 51.7928 73.2263 51.5979 73.2282C51.403 73.2301 51.212 73.2828 51.0437 73.3811C50.8753 73.4793 50.7355 73.6197 50.638 73.7885C50.5404 73.9572 50.4885 74.1485 50.4874 74.3434L50.4934 75.7084Z" fill="#86B2FF"/>
<path d="M56.489 78.7589C56.4619 77.8608 56.2327 76.9804 55.8184 76.1831L56.1626 75.9813C56.6171 76.8359 56.8651 77.7852 56.8866 78.7529L56.489 78.7589Z" fill="#86B2FF"/>
</svg>
