<svg width="176" height="134" viewBox="0 0 176 134" fill="none" xmlns="http://www.w3.org/2000/svg">
<rect x="0.401328" width="51.439" height="51.439" rx="5.32926" transform="matrix(0.866025 -0.5 0.866025 0.5 42.0538 98.7364)" fill="#141414" stroke="#0962FF" stroke-width="0.463414"/>
<rect x="0.401328" width="51.439" height="51.439" rx="5.32926" transform="matrix(0.866025 -0.5 0.866025 0.5 42.0538 93.6389)" fill="#86B2FF" stroke="#0962FF" stroke-width="0.463414"/>
<rect opacity="0.3" width="22.1567" height="22.1567" rx="2.32653" transform="matrix(0.866025 -0.5 0.866025 0.5 67.7598 93.4382)" fill="#141414"/>
<path d="M45.0254 98.296V93.4196C45.0254 93.9603 45.5351 95.3196 47.5742 96.4318C49.6132 97.544 50.2774 97.9765 50.3547 98.0538V103.059L46.1839 100.603C45.9666 100.44 45.5734 100.07 45.2949 99.6073C45.0604 99.2177 45.0254 98.7507 45.0254 98.296Z" fill="#0962FF" stroke="#0962FF" stroke-width="0.463414"/>
<path d="M128.764 93.4196V98.7489" stroke="#0962FF" stroke-width="0.463414"/>
<path d="M81.8672 116.359V121.224" stroke="#0962FF" stroke-width="0.463414"/>
<path d="M92.0625 116.127V121.224" stroke="#0962FF" stroke-width="0.463414"/>
<path d="M125.659 98.7714V96.8953C125.659 96.8953 126.881 96.3108 127.513 95.7367C128.04 95.2579 128.598 94.2413 128.812 93.8298C128.835 93.7862 128.903 93.8029 128.903 93.852V97.9426C128.903 98.6285 128.83 99.3435 128.44 99.9075C127.942 100.627 127.132 101.054 126.375 101.492L100.635 116.359L123.906 101.922C124.996 101.246 125.659 100.054 125.659 98.7714Z" fill="#0962FF" stroke="#0962FF" stroke-width="0.463414"/>
<path d="M53.8301 105.098V100.232L57.5374 102.549V107.183L53.8301 105.098Z" fill="#0962FF" stroke="#0962FF" stroke-width="0.463414"/>
<path d="M163.807 29.9118C160.86 29.9118 158.47 27.4065 158.47 24.3161C158.47 21.2258 160.86 18.7205 163.807 18.7205C166.755 18.7205 169.145 21.2258 169.145 24.3161C169.145 27.4065 166.755 29.9118 163.807 29.9118Z" fill="#0962FF" stroke="black" stroke-width="0.0618434" stroke-miterlimit="10"/>
<path d="M163.255 29.4849C160.307 29.4849 157.917 26.9796 157.917 23.8893C157.917 20.7989 160.307 18.2936 163.255 18.2936C166.202 18.2936 168.592 20.7989 168.592 23.8893C168.592 26.9796 166.202 29.4849 163.255 29.4849Z" fill="white" stroke="#050505" stroke-width="0.0713178" stroke-miterlimit="10"/>
<path d="M163.223 19.4061C163.199 20.2094 163.175 21.4646 163.139 22.6821L160.709 23.1967L163.223 19.4061Z" fill="#343434"/>
<path d="M163.223 19.4061L165.51 24.6402L163.139 22.6821C163.163 21.4646 163.199 20.2094 163.223 19.4061Z" fill="#8C8C8C"/>
<path d="M160.696 23.7114L163.055 26.0334L162.995 28.2551L160.696 23.7114Z" fill="#3C3C3B"/>
<path d="M165.498 25.1548L162.996 28.2551L163.056 26.0335L165.498 25.1548Z" fill="#8C8C8C"/>
<path d="M163.139 22.6823L163.067 25.5189L160.708 23.1969L163.139 22.6823Z" fill="#141414"/>
<path d="M163.139 22.6823L165.51 24.6403L163.067 25.5189L163.139 22.6823Z" fill="#393939"/>
<path d="M150.515 25.8805C146.678 25.8805 143.568 22.62 143.568 18.598C143.568 14.576 146.678 11.3156 150.515 11.3156C154.351 11.3156 157.461 14.576 157.461 18.598C157.461 22.62 154.351 25.8805 150.515 25.8805Z" fill="#0962FF" stroke="black" stroke-width="0.0804867" stroke-miterlimit="10"/>
<path d="M149.794 25.325C145.958 25.325 142.848 22.0646 142.848 18.0426C142.848 14.0205 145.958 10.7601 149.794 10.7601C153.63 10.7601 156.74 14.0205 156.74 18.0426C156.74 22.0646 153.63 25.325 149.794 25.325Z" fill="white" stroke="#050505" stroke-width="0.0928173" stroke-miterlimit="10"/>
<path d="M149.754 12.2079C149.723 13.2534 149.692 14.887 149.645 16.4715L146.482 17.1413L149.754 12.2079Z" fill="#343434"/>
<path d="M149.754 12.2079L152.73 19.0198L149.645 16.4714C149.677 14.8869 149.723 13.2534 149.754 12.2079Z" fill="#8C8C8C"/>
<path d="M146.468 17.811L149.537 20.833L149.459 23.7244L146.468 17.811Z" fill="#3C3C3B"/>
<path d="M152.715 19.6896L149.458 23.7244L149.536 20.8331L152.715 19.6896Z" fill="#8C8C8C"/>
<path d="M149.645 16.4715L149.551 20.1633L146.482 17.1413L149.645 16.4715Z" fill="#141414"/>
<path d="M149.645 16.4715L152.73 19.0198L149.552 20.1633L149.645 16.4715Z" fill="#393939"/>
<path d="M154.3 1.64662C154.99 1.24797 155.841 1.24797 156.531 1.64662L170.668 9.8083C171.358 10.2069 171.784 10.9437 171.784 11.741V28.0644C171.784 28.8617 171.358 29.5984 170.668 29.9971L156.531 38.1587C155.841 38.5574 154.99 38.5574 154.3 38.1587L140.163 29.9971C139.473 29.5984 139.048 28.8617 139.048 28.0644V11.741C139.048 10.9437 139.473 10.2069 140.163 9.8083L154.3 1.64662Z" stroke="#0962FF" stroke-width="0.892674"/>
<path d="M140.686 11.824L154.299 19.6795" stroke="#0962FF" stroke-width="0.892674" stroke-linecap="round"/>
<path d="M170.367 11.824L156.754 19.6795" stroke="#0962FF" stroke-width="0.892674" stroke-linecap="round"/>
<path d="M155.416 21.0184L155.416 36.6402" stroke="#0962FF" stroke-width="0.892674" stroke-linecap="round"/>
<path d="M71.9931 75.6723C67.1277 75.6723 63.1835 71.5372 63.1835 66.4363C63.1835 61.3354 67.1277 57.2003 71.9931 57.2003C76.8585 57.2003 80.8027 61.3354 80.8027 66.4363C80.8027 71.5372 76.8585 75.6723 71.9931 75.6723Z" fill="#0962FF" stroke="black" stroke-width="0.102078" stroke-miterlimit="10"/>
<path d="M71.0791 74.9677C66.2137 74.9677 62.2695 70.8326 62.2695 65.7317C62.2695 60.6308 66.2137 56.4957 71.0791 56.4957C75.9445 56.4957 79.8887 60.6308 79.8887 65.7317C79.8887 70.8326 75.9445 74.9677 71.0791 74.9677Z" fill="white" stroke="#050505" stroke-width="0.117716" stroke-miterlimit="10"/>
<path d="M67.4238 67.9161H68.8647C68.8647 68.6942 69.8517 69.357 71.026 69.357C72.2003 69.357 73.1873 68.6942 73.1873 67.9161C73.1873 67.1237 72.438 66.8355 70.8531 66.4537C69.3258 66.0718 67.4238 65.5963 67.4238 63.5935C67.4238 62.304 68.4829 61.2089 69.9453 60.8415V59.2709H72.1066V60.8415C73.5691 61.2089 74.6282 62.304 74.6282 63.5935H73.1873C73.1873 62.8155 72.2003 62.1527 71.026 62.1527C69.8517 62.1527 68.8647 62.8155 68.8647 63.5935C68.8647 64.386 69.6139 64.6742 71.1989 65.056C72.7262 65.4378 74.6282 65.9133 74.6282 67.9161C74.6282 69.2057 73.5691 70.3008 72.1066 70.6682V72.2387H69.9453V70.6682C68.4829 70.3008 67.4238 69.2057 67.4238 67.9161Z" fill="#141414"/>
<path d="M90.5708 75.7504C83.9479 75.7504 78.579 70.1216 78.579 63.1782C78.579 56.2348 83.9479 50.606 90.5708 50.606C97.1936 50.606 102.562 56.2348 102.562 63.1782C102.562 70.1216 97.1936 75.7504 90.5708 75.7504Z" fill="#0962FF" stroke="black" stroke-width="0.138949" stroke-miterlimit="10"/>
<path d="M89.3266 74.7913C82.7038 74.7913 77.3349 69.1625 77.3349 62.2191C77.3349 55.2757 82.7038 49.6469 89.3266 49.6469C95.9495 49.6469 101.318 55.2757 101.318 62.2191C101.318 69.1625 95.9495 74.7913 89.3266 74.7913Z" fill="white" stroke="#050505" stroke-width="0.160236" stroke-miterlimit="10"/>
<path d="M84.3535 65.1928H86.3148C86.3148 66.2519 87.6583 67.1541 89.2568 67.1541C90.8553 67.1541 92.1988 66.2519 92.1988 65.1928C92.1988 64.1141 91.1789 63.7218 89.0215 63.2021C86.9425 62.6823 84.3535 62.0351 84.3535 59.3088C84.3535 57.5535 85.7951 56.0628 87.7858 55.5627V53.4249H90.7278V55.5627C92.7186 56.0628 94.1601 57.5535 94.1601 59.3088H92.1988C92.1988 58.2497 90.8553 57.3475 89.2568 57.3475C87.6583 57.3475 86.3148 58.2497 86.3148 59.3088C86.3148 60.3876 87.3347 60.7798 89.4922 61.2996C91.5712 61.8193 94.1601 62.4666 94.1601 65.1928C94.1601 66.9482 92.7186 68.4388 90.7278 68.9389V71.0768H87.7858V68.9389C85.7951 68.4388 84.3535 66.9482 84.3535 65.1928Z" fill="#141414"/>
<path d="M80.2282 32.3868C81.3693 31.728 82.7751 31.728 83.9162 32.3868L107.278 45.8746C108.419 46.5334 109.122 47.7509 109.122 49.0685V76.0441C109.122 77.3617 108.419 78.5792 107.278 79.238L83.9162 92.7258C82.7751 93.3846 81.3693 93.3847 80.2282 92.7258L56.8666 79.238C55.7256 78.5792 55.0226 77.3617 55.0226 76.0441V49.0685C55.0226 47.7509 55.7256 46.5334 56.8666 45.8746L80.2282 32.3868Z" stroke="#0962FF" stroke-width="1.47521"/>
<path d="M57.7307 49.2055L80.2276 62.1873" stroke="#0962FF" stroke-width="1.47521" stroke-linecap="round"/>
<path d="M106.781 49.2055L84.2841 62.1873" stroke="#0962FF" stroke-width="1.47521" stroke-linecap="round"/>
<path d="M138.781 33.2055L116.284 46.1873" stroke="#86B2FF" stroke-width="1.47521" stroke-linecap="round" stroke-dasharray="20 2"/>
<path d="M137.498 52.2445L115.001 65.2263" stroke="#86B2FF" stroke-width="1.47521" stroke-linecap="round" stroke-dasharray="20 2"/>
<path d="M126.498 20.2445L102.648 34.5789" stroke="#86B2FF" stroke-width="1.47521" stroke-linecap="round" stroke-dasharray="20 2"/>
<path d="M82.0723 64.4002L82.0723 90.2165" stroke="#0962FF" stroke-width="1.47521" stroke-linecap="round"/>
<path d="M24.1026 118.935C20.2663 118.935 17.1563 115.675 17.1563 111.653C17.1563 107.631 20.2663 104.37 24.1026 104.37C27.9389 104.37 31.0488 107.631 31.0488 111.653C31.0488 115.675 27.9389 118.935 24.1026 118.935Z" fill="#0962FF" stroke="black" stroke-width="0.0804867" stroke-miterlimit="10"/>
<path d="M23.3819 118.38C19.5456 118.38 16.4356 115.119 16.4356 111.097C16.4356 107.075 19.5456 103.815 23.3819 103.815C27.2182 103.815 30.3281 107.075 30.3281 111.097C30.3281 115.119 27.2182 118.38 23.3819 118.38Z" fill="white" stroke="#050505" stroke-width="0.0928173" stroke-miterlimit="10"/>
<path d="M26.367 111.836C26.3338 111.65 26.2674 111.465 26.1566 111.302C26.057 111.14 25.913 111.012 25.758 110.908C25.603 110.803 25.4259 110.733 25.2487 110.71C25.4923 110.594 25.6805 110.397 25.8023 110.141C25.9241 109.898 25.9573 109.607 25.9131 109.34C25.8245 108.365 25.0384 108.04 24.0419 107.936V106.589L23.2668 106.578V107.889C23.0675 107.889 22.8571 107.889 22.6468 107.889V106.566L21.8717 106.555V107.901C21.7056 107.901 21.5396 107.901 21.3845 107.901L20.3216 107.889V108.76C20.3216 108.76 20.8974 108.748 20.8863 108.76C20.9859 108.748 21.0967 108.783 21.1742 108.841C21.2517 108.911 21.307 109.004 21.3292 109.12L21.3181 112.811C21.3181 112.846 21.307 112.881 21.296 112.916C21.2849 112.951 21.2627 112.985 21.2295 113.009C21.2074 113.032 21.1742 113.055 21.141 113.067C21.1077 113.078 21.0745 113.078 21.0302 113.078C21.0413 113.09 20.4656 113.078 20.4656 113.078L20.3105 114.053L21.3181 114.065C21.5063 114.065 21.6946 114.077 21.8717 114.077V115.435L22.6468 115.446V114.1C22.8571 114.111 23.0564 114.111 23.2668 114.111V115.446L24.0419 115.458V114.1C25.3484 114.03 26.2563 113.693 26.367 112.405C26.3892 112.231 26.4002 112.034 26.367 111.836ZM22.6578 108.853C23.0897 108.853 24.4626 108.725 24.4626 109.689C24.4626 110.617 23.0897 110.49 22.6468 110.49L22.6578 108.853ZM22.6468 113.125L22.6578 111.325C23.1782 111.325 24.828 111.186 24.828 112.242C24.8169 113.264 23.1782 113.125 22.6468 113.125Z" fill="#141414"/>
<path d="M18.2998 92.6466C18.9903 92.248 19.841 92.248 20.5315 92.6466L34.6679 100.808C35.3584 101.207 35.7838 101.944 35.7838 102.741V119.064C35.7838 119.862 35.3584 120.598 34.6679 120.997L20.5315 129.159C19.841 129.557 18.9903 129.557 18.2998 129.159L4.16338 120.997C3.4729 120.598 3.04754 119.862 3.04754 119.064V102.741C3.04754 101.944 3.4729 101.207 4.16338 100.808L18.2998 92.6466Z" stroke="#0962FF" stroke-width="0.892674"/>
<path d="M4.68559 102.824L18.2988 110.679" stroke="#0962FF" stroke-width="0.892674" stroke-linecap="round"/>
<path d="M34.3671 102.824L20.7539 110.679" stroke="#0962FF" stroke-width="0.892674" stroke-linecap="round"/>
<path d="M19.416 112.018L19.416 127.64" stroke="#0962FF" stroke-width="0.892674" stroke-linecap="round"/>
<path d="M17.1346 106.185C15.0494 106.185 13.3591 104.412 13.3591 102.226C13.3591 100.04 15.0494 98.2679 17.1346 98.2679C19.2198 98.2679 20.9102 100.04 20.9102 102.226C20.9102 104.412 19.2198 106.185 17.1346 106.185Z" fill="#0962FF" stroke="black" stroke-width="0.0437475" stroke-miterlimit="10"/>
<path d="M16.742 105.883C14.6569 105.883 12.9665 104.11 12.9665 101.924C12.9665 99.7381 14.6569 97.9659 16.742 97.9659C18.8272 97.9659 20.5176 99.7381 20.5176 101.924C20.5176 104.11 18.8272 105.883 16.742 105.883Z" fill="white" stroke="#050505" stroke-width="0.0504496" stroke-miterlimit="10"/>
<g clip-path="url(#clip0_1237_8515)">
<path d="M18.5175 102.04C18.4984 101.933 18.4601 101.826 18.3962 101.732C18.3387 101.638 18.2557 101.565 18.1662 101.505C18.0768 101.444 17.9746 101.404 17.8724 101.391C18.0129 101.324 18.1215 101.21 18.1918 101.063C18.262 100.922 18.2812 100.754 18.2557 100.6C18.2046 100.038 17.751 99.8504 17.1761 99.7901V99.0133L16.729 99.0066V99.7633C16.614 99.7633 16.4926 99.7633 16.3713 99.7633V98.9999L15.9241 98.9932V99.77C15.8283 99.77 15.7325 99.77 15.6431 99.77L15.0298 99.7633V100.266C15.0298 100.266 15.362 100.259 15.3556 100.266C15.4131 100.259 15.477 100.279 15.5217 100.312C15.5664 100.353 15.5983 100.406 15.6111 100.473L15.6047 102.603C15.6047 102.623 15.5983 102.643 15.5919 102.663C15.5856 102.683 15.5728 102.703 15.5536 102.717C15.5408 102.73 15.5217 102.743 15.5025 102.75C15.4834 102.757 15.4642 102.757 15.4386 102.757C15.445 102.764 15.1129 102.757 15.1129 102.757L15.0234 103.319L15.6047 103.326C15.7133 103.326 15.8219 103.333 15.9241 103.333V104.116L16.3713 104.123V103.346C16.4926 103.353 16.6076 103.353 16.729 103.353V104.123L17.1761 104.13V103.346C17.9299 103.306 18.4537 103.112 18.5175 102.368C18.5303 102.268 18.5367 102.154 18.5175 102.04ZM16.3776 100.319C16.6268 100.319 17.4189 100.245 17.4189 100.801C17.4189 101.337 16.6268 101.263 16.3713 101.263L16.3776 100.319ZM16.3713 102.784L16.3776 101.746C16.6779 101.746 17.6296 101.665 17.6296 102.275C17.6233 102.864 16.6779 102.784 16.3713 102.784Z" fill="#141414"/>
</g>
<path d="M13.7745 121.937C10.9943 121.937 8.74047 119.574 8.74047 116.659C8.74047 113.744 10.9943 111.381 13.7745 111.381C16.5548 111.381 18.8086 113.744 18.8086 116.659C18.8086 119.574 16.5548 121.937 13.7745 121.937Z" fill="#0962FF" stroke="black" stroke-width="0.05833" stroke-miterlimit="10"/>
<path d="M13.253 121.534C10.4728 121.534 8.21899 119.171 8.21899 116.256C8.21899 113.342 10.4728 110.979 13.253 110.979C16.0333 110.979 18.2871 113.342 18.2871 116.256C18.2871 119.171 16.0333 121.534 13.253 121.534Z" fill="white" stroke="#050505" stroke-width="0.0672662" stroke-miterlimit="10"/>
<path d="M15.6158 116.411C15.5903 116.268 15.5392 116.125 15.454 116C15.3774 115.875 15.2666 115.777 15.1474 115.697C15.0282 115.617 14.8919 115.563 14.7556 115.545C14.943 115.456 15.0878 115.304 15.1815 115.108C15.2752 114.92 15.3007 114.697 15.2667 114.491C15.1985 113.741 14.5938 113.491 13.8273 113.411V112.375L13.2311 112.366V113.375C13.0778 113.375 12.9159 113.375 12.7541 113.375V112.357L12.1579 112.348V113.384C12.0302 113.384 11.9024 113.384 11.7832 113.384L10.9655 113.375V114.045C10.9655 114.045 11.4084 114.036 11.3999 114.045C11.4766 114.036 11.5617 114.063 11.6214 114.107C11.681 114.161 11.7236 114.232 11.7406 114.322L11.7321 117.161C11.7321 117.188 11.7236 117.215 11.715 117.242C11.7065 117.268 11.6895 117.295 11.6639 117.313C11.6469 117.331 11.6214 117.349 11.5958 117.358C11.5703 117.367 11.5447 117.367 11.5106 117.367C11.5192 117.376 11.0763 117.367 11.0763 117.367L10.957 118.117L11.7321 118.126C11.8769 118.126 12.0217 118.135 12.1579 118.135V119.179L12.7541 119.188V118.152C12.9159 118.161 13.0693 118.161 13.2311 118.161V119.188L13.8273 119.197V118.152C14.8323 118.099 15.5307 117.84 15.6158 116.849C15.6329 116.715 15.6414 116.563 15.6158 116.411ZM12.7626 114.116C13.0948 114.116 14.1509 114.018 14.1509 114.759C14.1509 115.474 13.0948 115.375 12.7541 115.375L12.7626 114.116ZM12.7541 117.402L12.7626 116.018C13.1629 116.018 14.432 115.911 14.432 116.724C14.4235 117.51 13.1629 117.402 12.7541 117.402Z" fill="#141414"/>
<rect x="1.29904" y="0.75" width="66.3508" height="66.3508" rx="2.5" transform="matrix(0.866025 -0.5 2.20305e-08 1 65.4416 46.1365)" stroke="white" stroke-width="3" stroke-dasharray="40 40"/>
<path d="M175.523 118.863L175.527 118.86L175.527 118.86C175.571 118.83 175.617 118.803 175.666 118.78C175.615 117.686 175.161 116.647 174.389 115.866L173.705 115.359C172.911 114.836 171.977 114.163 170.182 112.836C167.522 110.898 165.432 109.465 163.708 108.283C163.583 108.197 163.46 108.113 163.339 108.03C161.548 106.8 160.156 105.836 158.924 104.83L158.92 104.827L158.92 104.827C158.777 104.706 158.605 104.502 158.412 104.247C158.215 103.988 157.988 103.663 157.733 103.29C157.496 102.941 157.233 102.547 156.95 102.121L156.888 102.029C156.581 101.568 156.25 101.071 155.897 100.552C154.485 98.4757 152.745 96.0678 150.91 94.2779C150.092 93.4799 149.36 92.5912 148.636 91.7116C148.467 91.5061 148.298 91.301 148.129 91.0978C147.23 90.0195 146.31 88.9846 145.199 88.1443L145.189 88.1362L145.189 88.1359C144.566 87.5954 143.857 87.162 143.092 86.8531C142.465 86.6553 141.786 86.7014 141.133 86.806C140.915 86.8409 140.706 86.881 140.504 86.92C140.4 86.94 140.298 86.9597 140.196 86.9782C139.905 87.0316 139.625 87.0748 139.38 87.0748H139.374V87.0747C139.299 87.0723 139.225 87.0488 139.16 87.0223C139.093 86.9948 139.019 86.9573 138.943 86.9147C138.833 86.8536 138.704 86.7749 138.562 86.6885C138.508 86.6558 138.453 86.622 138.396 86.5877C137.974 86.3331 137.437 86.0251 136.795 85.7887C135.519 85.3193 133.822 85.1285 131.806 86.245C131.419 86.5102 130.966 86.661 130.498 86.6801C130.029 86.6993 129.564 86.5856 129.158 86.3524C128.501 86.0466 127.769 85.9435 127.054 86.0562C126.336 86.1694 125.668 86.495 125.136 86.991L125.128 86.9985L125.128 86.9983C124.451 87.5634 123.943 88.3041 123.659 89.1391L123.652 89.1593L123.642 89.1777C123.494 89.4239 123.259 89.5591 122.983 89.6156C122.713 89.6708 122.396 89.653 122.054 89.593C121.371 89.4729 120.526 89.1707 119.639 88.8316L119.631 88.8285L119.631 88.8284C117.941 88.0978 116.31 87.237 114.753 86.2539L114.742 86.2469L114.732 86.2386C114.567 86.1016 114.213 85.8714 113.71 85.556C113.528 85.4422 113.328 85.318 113.112 85.1843C112.739 84.9526 112.32 84.6926 111.873 84.4101C110.461 83.5177 108.749 82.3881 107.205 81.1511C105.605 79.8809 102.844 77.768 101.005 76.635L100.997 76.63L100.997 76.6298C100.545 76.32 100.053 76.0725 99.5348 75.8939L99.5331 75.8932C98.9591 75.6894 98.3302 75.7031 97.7656 75.9317C97.2027 76.1596 96.7425 76.5854 96.4716 77.1289C96.3435 77.4272 96.2523 77.7401 96.2 78.0605C96.2041 78.9377 96.488 79.7908 97.0107 80.4956L97.0174 80.5048L97.0171 80.5049C97.235 80.8365 97.7944 81.441 98.3817 82.0638C98.4527 82.139 98.5241 82.2145 98.5951 82.2896C99.0996 82.8233 99.5883 83.3403 99.8191 83.6436L99.8207 83.6457L99.8207 83.6457C99.9643 83.8395 100.286 84.1555 100.783 84.6079C101.15 84.9422 101.604 85.3429 102.136 85.8126C102.317 85.9725 102.507 86.1403 102.706 86.3162C104.271 87.7009 106.367 89.5785 108.8 91.9721C109.813 92.9669 111.141 94.0118 112.325 94.9427C112.45 95.0415 112.574 95.1391 112.696 95.2352C113.328 95.7334 113.903 96.1929 114.334 96.5814C114.55 96.7756 114.734 96.9555 114.874 97.1166C115.001 97.2636 115.107 97.4127 115.155 97.5548C116.364 99.6917 117.691 101.76 119.128 103.751C120.154 104.965 120.986 106.33 121.595 107.798L121.6 107.812L121.604 107.825C121.682 108.133 121.694 108.426 121.544 108.644C121.388 108.871 121.112 108.945 120.8 108.945H120.787L120.787 108.944C119.322 108.851 117.89 108.47 116.572 107.824L116.572 107.824C116.491 107.785 116.353 107.698 116.182 107.59C116.165 107.579 116.148 107.568 116.131 107.558C115.929 107.43 115.671 107.269 115.365 107.09C114.752 106.732 113.949 106.306 113.029 105.955C111.184 105.253 108.9 104.864 106.746 105.895L106.742 105.897L106.742 105.897C106.313 106.091 105.911 106.34 105.547 106.639L105.541 106.645L105.541 106.644C105.042 107.021 104.686 107.557 104.534 108.164L104.533 108.169L104.533 108.169C104.38 108.711 104.373 109.284 104.514 109.829C104.654 110.372 104.934 110.869 105.327 111.269C106.459 112.244 107.738 113.034 109.117 113.61L109.129 113.615L109.129 113.615C110.268 114.178 111.416 114.546 112.583 114.901C112.706 114.938 112.829 114.975 112.952 115.013C113.996 115.328 115.056 115.649 116.117 116.1C117.167 116.533 118.168 117.076 119.103 117.72L119.113 117.727L119.113 117.727C121.426 119.532 124.625 120.773 127.965 121.563C131.302 122.351 134.764 122.685 137.59 122.685H137.597L137.597 122.685C138.162 122.705 138.843 122.647 139.566 122.586C139.903 122.557 140.248 122.528 140.596 122.505C141.664 122.436 142.753 122.429 143.519 122.761C143.519 122.761 143.519 122.761 143.52 122.761L143.44 122.945C143.926 123.15 144.395 123.376 144.864 123.602C145.263 123.794 145.661 123.986 146.07 124.165L175.523 118.863ZM175.523 118.863C173.002 120.693 170.792 122.916 168.977 125.448M175.523 118.863L168.977 125.448M168.977 125.448C168.978 125.448 168.978 125.448 168.978 125.448L169.14 125.565L168.977 125.448Z" fill="#86B2FF" stroke="#141414" stroke-width="0.4"/>
<g style="mix-blend-mode:multiply" opacity="0.2">
<path d="M125.77 109.195C125.95 109.195 124.54 107.475 124.48 107.405C123.882 106.769 123.317 106.101 122.79 105.405C122.08 104.465 121.48 103.405 120.79 102.505C119.225 100.559 117.48 98.7649 115.58 97.1448C113.86 95.5448 112.22 93.8948 110.58 92.2548C108.94 90.6148 106.84 88.7948 104.92 87.1148L101.27 83.9248C100.27 83.0248 99.0703 82.3148 98.0603 81.4148C97.4316 80.8857 96.8495 80.3035 96.3203 79.6748C96.4633 80.0052 96.6339 80.323 96.8303 80.6248C97.2903 81.3248 99.1303 83.1048 99.6403 83.7748C100.28 84.6248 103.79 87.3448 108.64 92.1248C110.9 94.3448 114.71 96.8048 114.95 97.6448C116.168 99.7969 117.503 101.88 118.95 103.885C119.965 105.084 120.789 106.433 121.39 107.885C121.475 108.09 121.475 108.32 121.39 108.525C122.87 108.625 124.24 109.305 125.77 109.195Z" fill="#0962FF"/>
</g>
<g style="mix-blend-mode:multiply" opacity="0.2">
<path d="M149.231 123.435C147.611 121.715 147.171 119.685 147.111 117.155C147.111 116.885 145.711 117.155 144.851 117.275C142.491 117.935 140.461 119.765 138.201 119.885C127.351 119.725 118.151 115.415 107.981 111.765C106.331 111.245 104.521 110.165 104.221 108.635C104.159 109.133 104.211 109.639 104.374 110.113C104.537 110.588 104.806 111.02 105.161 111.375C106.31 112.366 107.61 113.169 109.011 113.755C111.311 114.895 113.651 115.235 116.011 116.245C117.048 116.672 118.037 117.208 118.961 117.845C123.651 121.545 131.881 122.845 137.561 122.845C139.241 122.845 141.981 122.285 143.411 122.905C144.311 123.285 145.151 123.735 146.041 124.125C150.865 126.264 155.406 128.991 159.561 132.245L160.321 132.855C161.095 133.236 161.942 133.446 162.805 133.471C163.668 133.495 164.526 133.332 165.321 132.995C165.4 132.594 165.51 132.199 165.651 131.815C165.841 131.335 166.041 130.815 166.261 130.405C160.031 130.095 154.011 128.565 149.231 123.435Z" fill="#0962FF"/>
</g>
<g style="mix-blend-mode:multiply" opacity="0.2">
<path d="M105.321 111.385C104.693 110.818 104.307 110.031 104.244 109.188C104.18 108.344 104.444 107.509 104.981 106.855C105.164 106.601 105.419 106.408 105.714 106.301C106.008 106.194 106.327 106.178 106.631 106.255C108.561 106.465 110.081 106.755 109.861 110.435C109.691 113.055 107.561 112.995 105.321 111.385Z" fill="#86B2FF"/>
</g>
<path d="M106.359 106.594L106.36 106.594C106.386 106.597 106.412 106.6 106.438 106.602C106.856 106.644 107.246 106.684 107.599 106.767C107.972 106.855 108.296 106.991 108.557 107.225C109.077 107.692 109.385 108.58 109.27 110.388C109.224 111.016 109.069 111.474 108.841 111.787C108.615 112.098 108.311 112.272 107.951 112.328C107.222 112.442 106.248 112.072 105.226 111.309C104.675 110.739 104.347 109.989 104.301 109.197C104.255 108.404 104.495 107.62 104.978 106.988C105.164 106.773 105.296 106.659 105.477 106.603C105.665 106.545 105.919 106.544 106.359 106.594Z" fill="white" stroke="#141414" stroke-width="0.2"/>
<g style="mix-blend-mode:multiply" opacity="0.2">
<path d="M101.641 78.4548C101.218 78.9477 100.697 79.3464 100.111 79.6248C99.5658 79.9186 98.9383 80.0221 98.3278 79.9189C97.7173 79.8156 97.1588 79.5115 96.7408 79.0548C96.5008 78.7848 95.9507 78.1648 96.1407 77.5748C96.2561 77.2168 96.4415 76.8853 96.686 76.5996C96.9305 76.3138 97.2294 76.0795 97.5653 75.9101C97.9011 75.7408 98.2673 75.6399 98.6424 75.6132C99.0176 75.5866 99.3943 75.6347 99.7507 75.7548C100.336 75.9509 100.879 76.2563 101.351 76.6548C101.604 76.8719 101.773 77.172 101.826 77.5016C101.879 77.8312 101.813 78.169 101.641 78.4548Z" fill="#86B2FF"/>
</g>
<path d="M99.8775 79.2045L99.8774 79.2044L99.8733 79.2066C99.375 79.4735 98.8022 79.5673 98.2448 79.4733C97.6874 79.3792 97.1771 79.1027 96.794 78.687C96.6796 78.5626 96.4994 78.3602 96.3694 78.123C96.2387 77.8844 96.1679 77.6273 96.2456 77.3855C96.3514 77.0592 96.5207 76.757 96.7437 76.4964C96.9668 76.2357 97.2393 76.0218 97.5454 75.8669C97.8516 75.7121 98.1853 75.6193 98.5274 75.5941C98.8695 75.5688 99.2131 75.6114 99.5386 75.7196C100.082 75.9047 100.587 76.19 101.025 76.5608C101.247 76.7523 101.395 77.0158 101.442 77.3051C101.489 77.5916 101.435 77.8853 101.289 78.136C100.896 78.5845 100.416 78.9481 99.8775 79.2045Z" fill="white" stroke="#141414" stroke-width="0.2"/>
<path d="M165.246 132.849L165.246 132.849L165.243 132.851C164.475 133.177 163.645 133.334 162.811 133.311C161.98 133.287 161.163 133.086 160.417 132.719C160.156 132.56 159.917 132.368 159.705 132.147L159.704 132.145C158.686 131.099 158.255 129.367 158.696 127.098C159.356 124.473 160.626 122.04 162.403 119.998C164.181 117.954 166.416 116.358 168.926 115.34L168.926 115.34L168.931 115.338C169.695 115.004 170.523 114.839 171.357 114.854C172.188 114.869 173.007 115.063 173.757 115.422C173.992 115.56 174.212 115.723 174.412 115.909C175.207 116.709 175.668 117.782 175.701 118.911L175.701 118.911L175.701 118.915C175.738 119.644 175.676 120.376 175.516 121.088C174.849 123.717 173.572 126.152 171.788 128.196C170.003 130.239 167.762 131.834 165.246 132.849Z" fill="#0962FF" stroke="#141414" stroke-width="0.4"/>
<path opacity="0.3" d="M124.91 88.9348C124.968 89.073 125.065 89.1911 125.19 89.2748C125.623 89.5774 126.159 89.6961 126.68 89.6048C127.193 89.5104 127.677 89.2944 128.09 88.9748C129.16 88.1948 128.18 87.1148 127.09 87.1048C126.45 87.1048 124.6 88.1048 124.91 88.9348Z" fill="white"/>
<path opacity="0.3" d="M117.219 94.7548C117.315 94.9143 117.459 95.0401 117.629 95.1148C117.915 95.2513 118.225 95.3288 118.541 95.3425C118.857 95.3563 119.173 95.306 119.469 95.1948C120.072 94.9615 120.607 94.5838 121.029 94.0948C122.139 92.8748 120.739 91.7548 119.479 91.9748C118.669 92.1248 116.669 93.7848 117.219 94.7548Z" fill="white"/>
<path opacity="0.3" d="M132.18 87.8248C132.403 88.0608 132.699 88.2157 133.02 88.2648C133.626 88.3598 134.244 88.3598 134.85 88.2648C136.41 88.1148 136.21 86.5048 134.85 86.2648C134.09 86.1348 131.07 86.5648 132.18 87.8248Z" fill="white"/>
<path opacity="0.3" d="M140.62 87.6648C140.453 87.7656 140.331 87.9267 140.28 88.1148C140.276 88.2114 140.296 88.3075 140.337 88.3947C140.379 88.4819 140.442 88.5575 140.52 88.6148C140.684 88.7227 140.867 88.7975 141.06 88.8348C141.522 88.9494 141.994 89.0197 142.47 89.0448C142.749 89.081 143.033 89.0394 143.29 88.9248C143.413 88.8608 143.51 88.7561 143.565 88.6285C143.62 88.5008 143.629 88.3581 143.59 88.2248C143.534 88.1379 143.484 88.0478 143.44 87.9548C143.26 87.3548 143.02 87.3648 142.34 87.2748C141.738 87.1896 141.126 87.3284 140.62 87.6648Z" fill="white"/>
<path d="M104.561 80.3848C104.062 80.5448 103.598 80.7957 103.191 81.1248C102.982 81.2802 102.791 81.4579 102.621 81.6548C102.435 81.8263 102.297 82.0435 102.221 82.2848C102.402 82.1369 102.569 81.9729 102.721 81.7948C102.893 81.6126 103.08 81.4453 103.281 81.2948C103.684 81.0034 104.124 80.7679 104.591 80.5948C104.781 80.5448 104.721 80.3048 104.561 80.3848Z" fill="#0962FF"/>
<path d="M111.25 86.0248C110.537 86.2274 109.909 86.6554 109.46 87.2448C109.237 87.5495 109.061 87.8868 108.94 88.2448C108.87 88.4153 108.82 88.5931 108.79 88.7748C108.755 88.9598 108.755 89.1498 108.79 89.3348C108.798 89.3495 108.809 89.3618 108.823 89.3704C108.837 89.379 108.853 89.3836 108.87 89.3836C108.887 89.3836 108.903 89.379 108.917 89.3704C108.931 89.3618 108.942 89.3495 108.95 89.3348C108.982 89.1695 109.006 89.0026 109.02 88.8348C109.048 88.6645 109.092 88.4971 109.15 88.3348C109.263 88.0029 109.425 87.6895 109.63 87.4048C110.045 86.8085 110.636 86.3574 111.32 86.1148L111.25 86.0248Z" fill="#0962FF"/>
<path d="M111.32 86.8048L110.75 87.3948L110.49 87.6948C110.388 87.7888 110.303 87.9006 110.24 88.0248C110.24 88.0848 110.3 88.1448 110.36 88.1148C110.412 88.0732 110.459 88.0263 110.5 87.9748L110.63 87.8248C110.72 87.7248 110.82 87.6248 110.9 87.5248L111.4 86.8848C111.4 86.8848 111.32 86.7548 111.32 86.8048Z" fill="#0962FF"/>
<path d="M112.251 86.2048C112.197 86.37 112.163 86.5413 112.151 86.7148C112.151 86.9048 112.081 87.0948 112.021 87.2848C111.909 87.6427 111.74 87.9803 111.521 88.2848C111.299 88.6071 111.025 88.8908 110.711 89.1248C110.56 89.2276 110.403 89.3211 110.241 89.4048C110.101 89.4748 109.841 89.5248 109.801 89.6948C109.792 89.708 109.787 89.7237 109.787 89.7398C109.787 89.7558 109.792 89.7715 109.801 89.7848C109.951 89.9148 110.171 89.7848 110.321 89.7048C110.503 89.6171 110.677 89.5134 110.841 89.3948C111.181 89.1401 111.478 88.8329 111.721 88.4848C111.963 88.1388 112.143 87.7529 112.251 87.3448C112.305 87.1487 112.338 86.9476 112.351 86.7448C112.369 86.559 112.334 86.3719 112.251 86.2048Z" fill="#0962FF"/>
<defs>
<clipPath id="clip0_1237_8515">
<rect width="7.41017" height="7.41017" fill="white" transform="translate(13.0156 98.2293)"/>
</clipPath>
</defs>
</svg>
