<svg width="40" height="40" viewBox="0 0 40 40" fill="none" xmlns="http://www.w3.org/2000/svg">
<path d="M20 0C8.91567 0 0 8.91568 0 20C0 31.0844 8.91567 40 20 40C31.0844 40 40 31.0844 40 20C40 8.91568 31.0844 0 20 0ZM27.9518 10.1205H25.6627C23.3735 10.1205 22.6506 11.5663 22.6506 13.0121V16.506H27.8313L26.988 21.9277H22.6506V34.9398H16.8675V21.8072H12.1687V16.3856H16.8675V12.2892C16.8675 7.59038 19.6386 5.06026 23.8554 5.06026C25.9036 5.06026 27.9518 5.42169 27.9518 5.42169V10.1205Z" fill="#0095D4"/>
</svg>
