<svg width="41" height="40" viewBox="0 0 41 40" fill="none" xmlns="http://www.w3.org/2000/svg">
<path d="M20.0967 0C9.01234 0 0.0966797 8.91568 0.0966797 20C0.0966797 31.0844 9.01234 40 20.0967 40C31.181 40 40.0967 31.0844 40.0967 20C40.0967 8.91568 31.0605 0 20.0967 0ZM33.2292 11.8073C33.2292 11.9277 33.2292 12.0482 33.1088 12.1687C32.5063 13.0121 31.7834 13.7349 31.0605 14.3373C30.9401 14.4578 30.6991 14.5783 30.6991 14.6988C30.6991 19.0362 29.6148 23.3735 26.4822 26.5061C22.5063 30.482 16.4822 31.5663 11.181 30.1205C10.0967 29.8796 9.13282 29.3976 8.16897 28.9157C7.80752 28.7952 7.56656 28.5543 7.20511 28.3133C7.08463 28.1928 7.08464 28.1928 7.08464 28.1928C7.20512 28.1928 7.20511 28.1928 7.44607 28.1928C8.89185 28.3133 10.4581 28.0723 11.9039 27.5904C12.6268 27.3494 14.3135 26.747 14.7955 26.0241C14.5545 26.0241 14.434 26.0241 14.1931 25.9037C12.7473 25.5422 10.8196 24.8193 9.85571 22.2892C9.85571 22.1687 9.85572 22.0482 9.9762 22.0482C11.181 22.1687 11.5425 22.0482 12.0244 21.9277C11.7834 21.9277 11.5425 21.8072 11.3015 21.6868C9.49428 20.9639 8.16897 19.1567 7.92801 17.2289C7.92801 16.988 7.92801 16.8675 7.92801 16.6265C7.92801 16.5061 8.04849 16.3856 8.16897 16.506C9.13282 16.988 10.2172 17.1085 10.2172 17.1085C9.97619 16.8675 9.73523 16.747 9.61475 16.506C8.04848 15.0603 7.44607 11.9277 8.65089 10C8.77137 9.87955 8.77139 9.87955 8.89187 10C11.7834 13.253 15.3979 14.8193 19.6148 15.4217C19.7352 15.4217 19.7352 15.4217 19.7352 15.3012C19.6148 14.5783 19.6148 13.8555 19.7352 13.0121C19.9762 12.2892 20.3376 11.4458 20.8196 10.8434C21.3015 10.241 21.9039 9.75906 22.6268 9.39762C23.3497 9.03617 24.0726 8.79521 24.7955 8.79521C25.6389 8.79521 26.3617 8.91568 27.0846 9.15664C27.687 9.3976 28.169 9.63855 28.6509 10.1205C28.7714 10.241 28.8919 10.241 28.8919 10.3615C28.8919 10.3615 29.0123 10.4819 29.1328 10.3615C30.2172 10.1205 31.3015 9.63857 32.2654 9.15664H32.3859V9.27713C32.2654 9.87954 31.9039 10.3615 31.5425 10.8434C31.3015 11.2048 30.6991 11.9277 30.2172 12.0482C31.422 12.4096 32.2654 12.1687 33.2292 11.8073C33.2292 11.6868 33.2292 11.6868 33.2292 11.8073Z" fill="#0095D4"/>
</svg>
