<svg width="40" height="40" viewBox="0 0 40 40" fill="none" xmlns="http://www.w3.org/2000/svg">
<path d="M20.0729 0C9.10903 0 0.193359 8.91567 0.193359 19.8795C0.193359 30.8434 9.10903 39.7591 20.0729 39.7591C31.0367 39.7591 39.9524 30.8434 39.9524 19.8795C39.9524 8.91567 31.0367 0 20.0729 0ZM32.8439 26.5061C30.9162 27.9519 28.6271 29.0361 26.338 29.759C25.856 29.0361 25.3741 28.3133 24.8922 27.4699C25.6151 27.229 26.3379 26.8675 27.0608 26.3855C26.8199 26.2651 26.6994 26.1446 26.5789 26.0241C22.4826 27.9518 17.6632 27.9518 13.5668 26.0241C13.4463 26.1446 13.2054 26.2651 13.0849 26.3855C13.8078 26.747 14.5307 27.1085 15.2536 27.4699C14.8922 28.3133 14.4102 29.0361 13.8078 29.759C11.5187 29.0361 9.22954 27.9519 7.30183 26.5061C6.8199 21.6868 7.7837 16.8675 11.1572 11.8073C12.8439 11.0844 14.6512 10.4819 16.4584 10.1205C16.6994 10.6024 16.9403 11.0844 17.1813 11.5663C19.109 11.3253 21.1572 11.3253 23.0849 11.5663C23.3259 11.0844 23.5668 10.6024 23.8078 10.1205C25.615 10.4819 27.4223 10.9639 29.109 11.8073C32.0006 16.1446 33.4464 20.9639 32.8439 26.5061Z" fill="#0095D4"/>
<path d="M15.8556 18.4337C14.5303 18.4337 13.5664 19.6385 13.5664 21.0843C13.5664 22.5301 14.6508 23.6144 15.8556 23.6144C17.1809 23.6144 18.1448 22.4096 18.1448 20.9638C18.1448 19.518 17.1809 18.4337 15.8556 18.4337Z" fill="#0095D4"/>
<path d="M24.4102 18.4337C23.0849 18.4337 22.1211 19.6385 22.1211 21.0843C22.1211 22.5301 23.2054 23.6144 24.4102 23.6144C25.7355 23.6144 26.6994 22.4096 26.6994 20.9638C26.6994 19.518 25.7355 18.4337 24.4102 18.4337Z" fill="#0095D4"/>
</svg>
