<svg width="9" height="9" viewBox="0 0 9 9" fill="none" xmlns="http://www.w3.org/2000/svg">
<path d="M7.16628 2.59999L1.24961 8.53333C1.11628 8.66666 0.957832 8.73333 0.774276 8.73333C0.591165 8.73333 0.432943 8.66666 0.299609 8.53333C0.166276 8.39999 0.0996094 8.24155 0.0996094 8.05799C0.0996094 7.87488 0.166276 7.71666 0.299609 7.58333L6.23294 1.66666H1.16628C0.977387 1.66666 0.818943 1.60288 0.690943 1.47533C0.563387 1.34733 0.499609 1.18888 0.499609 0.999995C0.499609 0.811106 0.563387 0.652662 0.690943 0.524662C0.818943 0.397106 0.977387 0.333328 1.16628 0.333328H7.83294C8.02183 0.333328 8.18005 0.397106 8.30761 0.524662C8.43561 0.652662 8.49961 0.811106 8.49961 0.999995V7.66666C8.49961 7.85555 8.43561 8.01377 8.30761 8.14133C8.18005 8.26933 8.02183 8.33333 7.83294 8.33333C7.64405 8.33333 7.48583 8.26933 7.35828 8.14133C7.23028 8.01377 7.16628 7.85555 7.16628 7.66666V2.59999Z" fill="#4B4B4B"/>
</svg>
