<svg width="41" height="40" viewBox="0 0 41 40" fill="none" xmlns="http://www.w3.org/2000/svg">
<path d="M24.6023 19.759L18.3373 16.3855C18.0963 16.265 17.2529 16.3855 17.2529 16.7469V23.3735C17.2529 23.6144 18.0963 23.8554 18.3373 23.7349L24.9638 20.4819C25.2047 20.3614 24.8433 20 24.6023 19.759Z" fill="#0095D4"/>
<path d="M20.1445 0C9.06021 0 0.144531 8.91568 0.144531 20C0.144531 31.0844 9.06021 40 20.1445 40C31.2289 40 40.1446 31.0844 40.1446 20C40.1446 8.91568 31.1084 0 20.1445 0ZM33.5181 23.3735C33.5181 26.506 30.9879 29.1566 27.7349 29.1566H13.0361C9.90359 29.1566 7.25296 26.6265 7.25296 23.3735V16.506C7.25296 13.3735 9.7831 10.7229 13.0361 10.7229H27.7349C30.8674 10.7229 33.5181 13.253 33.5181 16.506V23.3735Z" fill="#0095D4"/>
</svg>
