<svg width="24" height="24" viewBox="0 0 24 24" fill="none" xmlns="http://www.w3.org/2000/svg">
<circle cx="12" cy="12" r="12" fill="#D9D9D9"/>
<path d="M16.8142 14.1788L15.1208 13.9854C14.7142 13.9388 14.3142 14.0788 14.0275 14.3654L12.8008 15.5921C10.9142 14.6321 9.3675 13.0921 8.4075 11.1988L9.64083 9.96542C9.9275 9.67875 10.0675 9.27875 10.0208 8.87209L9.8275 7.19209C9.7475 6.51875 9.18083 6.01208 8.50083 6.01208H7.3475C6.59417 6.01208 5.9675 6.63875 6.01417 7.39208C6.3675 13.0854 10.9208 17.6321 16.6075 17.9854C17.3608 18.0321 17.9875 17.4054 17.9875 16.6521V15.4988C17.9942 14.8254 17.4875 14.2588 16.8142 14.1788Z" fill="#667080"/>
</svg>
