<svg width="41" height="40" viewBox="0 0 41 40" fill="none" xmlns="http://www.w3.org/2000/svg">
<path d="M20.0478 16.1445C17.9996 16.1445 16.1924 17.8313 16.1924 20C16.1924 22.0482 17.8791 23.8554 20.0478 23.8554C22.096 23.8554 23.9032 22.1686 23.9032 20C23.9032 17.8313 22.2165 16.1445 20.0478 16.1445Z" fill="#0095D4"/>
<path d="M24.8674 10.1205H15.2288C12.4577 10.1205 10.2891 12.4096 10.2891 15.0603V24.6988C10.2891 27.4699 12.5782 29.6386 15.2288 29.6386H24.8674C27.6385 29.6386 29.8071 27.3495 29.8071 24.6988V15.0603C29.8071 12.4096 27.6385 10.1205 24.8674 10.1205ZM20.0481 25.9037C16.7951 25.9037 14.024 23.253 14.024 19.8795C14.024 16.6265 16.6746 13.8554 20.0481 13.8554C23.3011 13.8554 26.0722 16.506 26.0722 19.8795C26.0722 23.253 23.4216 25.9037 20.0481 25.9037ZM26.4336 15.0603C25.5903 15.0603 24.9879 14.4579 24.9879 13.6145C24.9879 12.7711 25.5903 12.1687 26.4336 12.1687C27.277 12.1687 27.8794 12.7711 27.8794 13.6145C27.8794 14.3374 27.1565 15.0603 26.4336 15.0603Z" fill="#0095D4"/>
<path d="M20.0478 0C8.96351 0 0.0478516 8.91568 0.0478516 20C0.0478516 31.0844 8.96351 40 20.0478 40C31.1322 40 40.0479 31.0844 40.0479 20C40.0479 8.91568 31.0117 0 20.0478 0ZM32.096 24.8193C32.096 28.7952 28.843 32.0482 24.8671 32.0482H15.2286C11.2527 32.0482 7.99965 28.7952 7.99965 24.8193V15.1807C7.99965 11.2048 11.2527 7.95182 15.2286 7.95182H24.8671C28.843 7.95182 32.096 11.2048 32.096 15.1807V24.8193Z" fill="#0095D4"/>
</svg>
