<svg width="24" height="24" viewBox="0 0 24 24" fill="none" xmlns="http://www.w3.org/2000/svg">
<circle cx="12" cy="12" r="12" fill="#D9D9D9"/>
<path d="M17.333 6.66663H6.66634C5.93301 6.66663 5.33301 7.26663 5.33301 7.99996V16C5.33301 16.7333 5.93301 17.3333 6.66634 17.3333H17.333C18.0663 17.3333 18.6663 16.7333 18.6663 16V7.99996C18.6663 7.26663 18.0663 6.66663 17.333 6.66663ZM17.0663 9.49996L12.7063 12.2266C12.273 12.5 11.7263 12.5 11.293 12.2266L6.93301 9.49996C6.76634 9.39329 6.66634 9.21329 6.66634 9.01996C6.66634 8.57329 7.15301 8.30663 7.53301 8.53996L11.9997 11.3333L16.4663 8.53996C16.8463 8.30663 17.333 8.57329 17.333 9.01996C17.333 9.21329 17.233 9.39329 17.0663 9.49996Z" fill="#667080"/>
</svg>
