<svg width="20" height="20" viewBox="0 0 20 20" fill="none" xmlns="http://www.w3.org/2000/svg">
<g clip-path="url(#clip0_191_538)">
<path d="M3.33268 16.6666C2.87435 16.6666 2.48213 16.5035 2.15602 16.1774C1.82935 15.8508 1.66602 15.4583 1.66602 14.9999V4.99992C1.66602 4.54159 1.82935 4.14936 2.15602 3.82325C2.48213 3.49659 2.87435 3.33325 3.33268 3.33325H16.666C17.1243 3.33325 17.5168 3.49659 17.8435 3.82325C18.1696 4.14936 18.3327 4.54159 18.3327 4.99992V14.9999C18.3327 15.4583 18.1696 15.8508 17.8435 16.1774C17.5168 16.5035 17.1243 16.6666 16.666 16.6666H3.33268ZM9.99935 10.6874C10.0688 10.6874 10.1416 10.6769 10.2177 10.6558C10.2943 10.6352 10.3674 10.6041 10.4368 10.5624L16.3327 6.87492C16.4438 6.80547 16.5271 6.71881 16.5827 6.61492C16.6382 6.51047 16.666 6.39575 16.666 6.27075C16.666 5.99297 16.548 5.78464 16.3118 5.64575C16.0757 5.50686 15.8327 5.51381 15.5827 5.66659L9.99935 9.16659L4.41602 5.66659C4.16602 5.51381 3.92296 5.5102 3.68685 5.65575C3.45074 5.80186 3.33268 6.00686 3.33268 6.27075C3.33268 6.40964 3.36046 6.53103 3.41602 6.63492C3.47157 6.73936 3.5549 6.81936 3.66602 6.87492L9.56185 10.5624C9.63129 10.6041 9.70435 10.6352 9.78102 10.6558C9.85713 10.6769 9.9299 10.6874 9.99935 10.6874Z" fill="#4B4B4B"/>
</g>
<defs>
<clipPath id="clip0_191_538">
<rect width="20" height="20" fill="white"/>
</clipPath>
</defs>
</svg>
