<svg width="9" height="9" viewBox="0 0 9 9" fill="none" xmlns="http://www.w3.org/2000/svg">
<path d="M7.66628 2.59999L1.74961 8.53333C1.61628 8.66666 1.45783 8.73333 1.27428 8.73333C1.09117 8.73333 0.932943 8.66666 0.799609 8.53333C0.666276 8.39999 0.599609 8.24155 0.599609 8.05799C0.599609 7.87488 0.666276 7.71666 0.799609 7.58333L6.73294 1.66666H1.66628C1.47739 1.66666 1.31894 1.60288 1.19094 1.47533C1.06339 1.34733 0.999609 1.18888 0.999609 0.999995C0.999609 0.811106 1.06339 0.652662 1.19094 0.524662C1.31894 0.397106 1.47739 0.333328 1.66628 0.333328H8.33294C8.52183 0.333328 8.68005 0.397106 8.80761 0.524662C8.93561 0.652662 8.99961 0.811106 8.99961 0.999995V7.66666C8.99961 7.85555 8.93561 8.01377 8.80761 8.14133C8.68005 8.26933 8.52183 8.33333 8.33294 8.33333C8.14405 8.33333 7.98583 8.26933 7.85828 8.14133C7.73028 8.01377 7.66628 7.85555 7.66628 7.66666V2.59999Z" fill="#F6FAFD"/>
</svg>
