<svg width="40" height="40" viewBox="0 0 40 40" fill="none" xmlns="http://www.w3.org/2000/svg">
<path d="M20 0C8.91564 0 0 8.91568 0 20C0 31.0844 8.91564 40 20 40C31.0843 40 40 31.0844 40 20C40 8.91568 31.0843 0 20 0ZM29.5181 13.0121C29.5181 13.8555 29.0361 16.6265 28.5542 19.759C27.8313 24.0964 27.1084 28.7952 27.1084 28.7952C27.1084 28.7952 26.9879 30.1205 26.0241 30.3614C25.0602 30.6024 23.3734 29.5181 23.1325 29.2771C22.8915 29.1567 18.7951 26.506 17.3494 25.1807C16.9879 24.8193 16.506 24.0964 17.3494 23.3735C19.3976 21.4458 21.9277 19.1566 23.3735 17.5904C24.0964 16.8675 24.8192 15.3012 21.9277 17.2289C17.8313 20 13.7349 22.7711 13.7349 22.7711C13.7349 22.7711 12.771 23.3735 11.0843 22.7711C9.39754 22.2892 7.34937 21.5663 7.34937 21.5663C7.34937 21.5663 5.90357 20.7229 8.31321 19.759C8.31321 19.759 18.3132 15.6627 21.8072 14.2169C23.1325 13.6145 27.5903 11.8073 27.5903 11.8073C27.5903 11.8073 29.7591 10.9639 29.5181 13.0121Z" fill="#0095D4"/>
</svg>
