<svg width="20" height="20" viewBox="0 0 20 20" fill="none" xmlns="http://www.w3.org/2000/svg">
<g clip-path="url(#clip0_191_541)">
<path d="M9.99935 1.66675C5.39935 1.66675 1.66602 5.40008 1.66602 10.0001C1.66602 14.6001 5.39935 18.3334 9.99935 18.3334C14.5993 18.3334 18.3327 14.6001 18.3327 10.0001C18.3327 5.40008 14.5993 1.66675 9.99935 1.66675ZM13.866 7.33341C13.741 8.65008 13.1993 11.8501 12.9243 13.3251C12.8077 13.9501 12.5743 14.1584 12.3577 14.1834C11.8743 14.2251 11.5077 13.8667 11.041 13.5584C10.3077 13.0751 9.89102 12.7751 9.18268 12.3084C8.35768 11.7667 8.89102 11.4667 9.36602 10.9834C9.49102 10.8584 11.6243 8.91675 11.666 8.74175C11.6718 8.71524 11.671 8.68772 11.6638 8.66158C11.6565 8.63544 11.643 8.61147 11.6243 8.59175C11.5743 8.55008 11.5077 8.56675 11.4493 8.57508C11.3743 8.59175 10.2077 9.36675 7.93268 10.9001C7.59935 11.1251 7.29935 11.2417 7.03268 11.2334C6.73268 11.2251 6.16602 11.0667 5.74102 10.9251C5.21602 10.7584 4.80768 10.6667 4.84102 10.3751C4.85768 10.2251 5.06602 10.0751 5.45768 9.91675C7.89102 8.85841 9.50768 8.15841 10.316 7.82508C12.6327 6.85842 13.1077 6.69175 13.4243 6.69175C13.491 6.69175 13.6493 6.70841 13.7493 6.79175C13.8327 6.85841 13.8577 6.95008 13.866 7.01675C13.8577 7.06675 13.8743 7.21675 13.866 7.33341Z" fill="#4B4B4B"/>
</g>
<defs>
<clipPath id="clip0_191_541">
<rect width="20" height="20" fill="white"/>
</clipPath>
</defs>
</svg>
