<svg width="485" height="73" viewBox="0 0 485 73" fill="none" xmlns="http://www.w3.org/2000/svg">
<path d="M28.478 51.9553L37.5849 36.1477L35.1787 31.9445L26.4983 47.0211C26.2241 47.478 25.7368 47.7826 25.1886 47.7826H16.9954C16.5995 47.7826 16.2035 47.6303 15.9294 47.3561C15.6553 47.082 15.4726 46.6861 15.4726 46.2901C15.4726 46.016 15.5335 45.7723 15.6858 45.5287L26.4069 26.919L21.5641 26.9494L12.0613 43.488C11.7872 43.9753 11.2998 44.2495 10.7516 44.2495C10.2034 44.2495 9.71603 43.9753 9.44191 43.488L5.29965 36.3304C5.17782 36.0868 5.08645 35.8431 5.08645 35.569C5.08645 35.2949 5.14736 35.0512 5.29965 34.8075L13.706 20.0964L8.86321 20.1269L0 35.5385L9.50283 51.9553H28.478Z" fill="#0765FF"/>
<path d="M36.2149 20.127L17.2397 20.1574L8.13281 35.965L10.539 40.1682L19.189 25.122C19.4631 24.6652 19.9504 24.3606 20.4987 24.3606H28.6918C29.0878 24.3606 29.4837 24.5129 29.7578 24.787C30.032 25.0611 30.2147 25.4571 30.2147 25.853C30.2147 26.1271 30.1538 26.3708 30.0015 26.6145L19.2804 45.2242L24.1231 45.1937L33.626 28.6551C33.9001 28.1678 34.3874 27.8937 34.9357 27.8937C35.4839 27.8937 35.9712 28.1678 36.2453 28.6551L40.3876 35.8127C40.5094 36.0564 40.6008 36.3 40.6008 36.5742C40.6008 36.8483 40.5399 37.0919 40.3876 37.3356L31.9508 52.0163L36.7936 51.9858L45.7482 36.5437L36.2149 20.127Z" fill="#0765FF"/>
<path d="M73.1452 27.4865C74.0869 27.4865 74.8874 27.5807 75.4995 27.722C76.1116 27.8632 76.6295 28.1457 77.0062 28.5224C77.3829 28.8991 77.6654 29.4171 77.8538 30.0292C78.0421 30.6413 78.0892 31.4418 78.0892 32.3835V44.4375H73.8985V33.1839C73.8985 32.8073 73.8985 32.4777 73.8515 32.1951C73.8515 31.9126 73.7573 31.7243 73.6631 31.583C73.5689 31.4418 73.3806 31.3476 73.1452 31.3005C72.9097 31.2534 72.6272 31.2063 72.2505 31.2063C71.3559 31.2063 70.7438 31.4888 70.5084 32.101C70.2258 32.7131 70.0846 33.4665 70.0846 34.3611V44.3904H65.8939V33.1369C65.8939 32.7131 65.8939 32.3835 65.8468 32.1481C65.8468 31.8655 65.7527 31.6772 65.6585 31.4888C65.5643 31.3005 65.376 31.2063 65.1876 31.1122C64.9522 31.0651 64.6697 31.018 64.2459 31.018C63.8221 31.018 63.4925 31.1592 63.21 31.3947C62.9275 31.6301 62.6921 31.9597 62.5037 32.2893C62.3154 32.666 62.1741 33.0898 62.08 33.5135C61.9858 33.9373 61.9387 34.3611 61.9387 34.7378V44.3904H57.748V27.7691H61.3266L61.6091 29.5583C62.08 28.8991 62.5979 28.3812 63.2571 28.0045C63.9163 27.6278 64.6226 27.4395 65.4231 27.4395C66.459 27.4395 67.2594 27.5807 67.8715 27.8632C68.4837 28.1457 69.0016 28.7579 69.4254 29.6996C69.8491 29.0404 70.3671 28.5224 70.9792 28.0516C71.5913 27.6749 72.2976 27.4865 73.1452 27.4865Z" fill="#0765FF"/>
<path d="M85.1053 44.7671L80.3496 27.8162H84.6344L87.13 40.4352L89.5314 27.8162H93.8162L88.4013 47.0743C87.9305 48.7223 87.0829 49.9466 85.8587 50.7941C84.5873 51.6417 83.0806 52.0655 81.2442 52.1125L80.8205 48.9578C81.1972 48.9578 81.5738 48.8636 81.9505 48.7223C82.3272 48.5811 82.7039 48.4398 83.0806 48.2515C83.4102 48.0631 83.7398 47.8277 83.9752 47.5923C84.2577 47.3098 84.399 47.0273 84.5403 46.7447L85.1053 44.7671Z" fill="#0765FF"/>
<path d="M111.71 27.4865C112.651 27.4865 113.452 27.5807 114.064 27.722C114.676 27.8632 115.194 28.1457 115.571 28.5224C115.947 28.8991 116.23 29.4171 116.418 30.0292C116.607 30.6413 116.654 31.4418 116.654 32.3835V44.4375H112.463V33.1839C112.463 32.8073 112.463 32.4777 112.416 32.1951C112.416 31.9126 112.322 31.7243 112.228 31.583C112.133 31.4418 111.945 31.3476 111.71 31.3005C111.474 31.2534 111.192 31.2063 110.815 31.2063C109.92 31.2063 109.308 31.4888 109.073 32.101C108.79 32.7131 108.649 33.4665 108.649 34.3611V44.3904H104.458V33.1369C104.458 32.7131 104.458 32.3835 104.411 32.1481C104.411 31.8655 104.317 31.6772 104.223 31.4888C104.129 31.3005 103.94 31.2063 103.752 31.1122C103.517 31.0651 103.234 31.018 102.81 31.018C102.387 31.018 102.057 31.1592 101.774 31.3947C101.492 31.6301 101.257 31.9597 101.068 32.2893C100.88 32.666 100.739 33.0898 100.644 33.5135C100.55 33.9373 100.503 34.3611 100.503 34.7378V44.3904H96.3125V27.7691H99.891L100.174 29.5583C100.644 28.8991 101.162 28.3812 101.822 28.0045C102.481 27.6278 103.187 27.4395 103.988 27.4395C105.023 27.4395 105.824 27.5807 106.436 27.8632C107.048 28.1457 107.566 28.7579 107.99 29.6996C108.414 29.0404 108.932 28.5224 109.544 28.0516C110.156 27.6749 110.862 27.4865 111.71 27.4865Z" fill="#0765FF"/>
<path d="M126.258 27.4868C127.152 27.4868 127.953 27.6281 128.753 27.8635C129.554 28.0989 130.26 28.4756 130.825 28.9936C131.437 29.5115 131.908 30.0765 132.238 30.8299C132.567 31.5362 132.756 32.3838 132.756 33.3255V38.9758C132.756 39.9175 132.614 40.7651 132.285 41.4714C131.955 42.1776 131.484 42.7898 130.919 43.3077C130.354 43.7786 129.648 44.1553 128.895 44.4378C128.094 44.7203 127.247 44.8145 126.352 44.8145C125.41 44.8145 124.516 44.6732 123.715 44.4378C122.915 44.2023 122.208 43.8257 121.596 43.3077C120.984 42.7898 120.513 42.1776 120.184 41.4714C119.854 40.7651 119.713 39.9175 119.713 38.9758V33.3255C119.713 32.3838 119.901 31.5362 120.231 30.8299C120.56 30.1236 121.031 29.5115 121.643 28.9936C122.208 28.4756 122.915 28.146 123.715 27.8635C124.469 27.581 125.316 27.4868 126.258 27.4868ZM128.565 33.2313C128.565 32.3838 128.377 31.8187 128.047 31.5833C127.718 31.3479 127.105 31.2066 126.258 31.2066C125.504 31.2066 124.892 31.3479 124.516 31.6775C124.092 32.0071 123.904 32.525 123.904 33.2313V38.8816C123.904 39.7763 124.092 40.3884 124.421 40.6238C124.751 40.9063 125.41 41.0005 126.352 41.0005C127.058 41.0005 127.623 40.8592 128 40.5296C128.377 40.2 128.565 39.6821 128.565 38.8816V33.2313Z" fill="#0765FF"/>
<path d="M143.914 27.4395C145.798 27.4395 147.116 27.9103 147.87 28.8991C148.623 29.8408 149 31.3005 149 33.231V44.4375H144.809V33.9373C144.809 33.1839 144.668 32.5247 144.432 31.9597C144.15 31.4418 143.679 31.1592 142.878 31.1592C142.455 31.1592 142.125 31.2534 141.795 31.4418C141.466 31.6301 141.183 31.8655 140.948 32.1951C140.713 32.5247 140.524 32.8543 140.383 33.2781C140.242 33.6548 140.195 34.0786 140.195 34.5024V44.4375H136.004V27.8161H139.771L140.1 29.5583C140.571 28.805 141.089 28.287 141.701 27.9574C142.266 27.6278 143.02 27.4395 143.914 27.4395Z" fill="#0765FF"/>
<path d="M159.123 41.0473C159.83 41.0473 160.489 40.906 161.007 40.5764C161.525 40.2468 162.09 39.8231 162.702 39.211L164.868 41.8949C163.973 42.8366 163.079 43.5429 162.184 44.0608C161.289 44.5317 160.159 44.7671 158.888 44.7671C156.675 44.7671 155.027 44.2962 153.85 43.3545C152.673 42.4128 152.061 40.859 152.061 38.693V33.231C152.061 31.3005 152.626 29.8879 153.803 28.8991C154.98 27.9574 156.534 27.4395 158.464 27.4395C159.359 27.4395 160.159 27.5807 160.913 27.8632C161.666 28.1457 162.278 28.5224 162.843 28.9933C163.361 29.5112 163.785 30.1234 164.067 30.8296C164.35 31.5359 164.491 32.3364 164.491 33.231V36.2916L156.11 37.7984V38.693C156.11 39.5406 156.392 40.1056 156.957 40.4823C157.57 40.859 158.276 41.0473 159.123 41.0473ZM158.511 31.2063C157.805 31.2063 157.193 31.3476 156.769 31.6772C156.345 32.0068 156.11 32.5247 156.11 33.1839V35.0203L160.348 34.2669V33.2781C160.348 32.6189 160.206 32.101 159.924 31.7243C159.641 31.3947 159.123 31.2063 158.511 31.2063Z" fill="#0765FF"/>
<path d="M171.131 44.7671L166.375 27.8162H170.66L173.155 40.4352L175.557 27.8162H179.842L174.427 47.0743C173.956 48.7223 173.108 49.9466 171.884 50.7941C170.613 51.6417 169.106 52.0655 167.27 52.1125L166.846 48.9578C167.223 48.9578 167.599 48.8636 167.976 48.7223C168.353 48.5811 168.729 48.4398 169.106 48.2515C169.436 48.0631 169.765 47.8277 170.001 47.5923C170.283 47.3098 170.424 47.0273 170.566 46.7447L171.131 44.7671Z" fill="#0765FF"/>
<path d="M180.926 39.8699H185.258V44.4372H180.926V39.8699Z" fill="#0765FF"/>
<path d="M195.568 31.2063C194.203 31.2063 193.497 31.9126 193.497 33.2781V38.9755C193.497 39.7289 193.685 40.2468 194.109 40.5764C194.485 40.906 195.098 41.0473 195.804 41.0473C196.416 41.0473 196.981 40.9531 197.452 40.7177C197.97 40.4823 198.394 40.1527 198.817 39.6347L201.313 42.2245C200.465 43.1191 199.618 43.7312 198.77 44.155C197.923 44.5788 196.84 44.7671 195.616 44.7671C193.732 44.7671 192.225 44.2962 191.095 43.3074C189.965 42.3186 189.447 40.859 189.447 38.9755V33.2781C189.447 32.3835 189.589 31.583 189.918 30.8767C190.201 30.1704 190.624 29.5583 191.189 29.0404C191.707 28.5224 192.367 28.1457 193.12 27.8632C193.873 27.5807 194.721 27.4395 195.616 27.4395C196.887 27.4395 197.97 27.6278 198.864 28.0516C199.759 28.4283 200.607 29.1816 201.407 30.3117L198.77 32.9014C198.347 32.3835 197.876 31.9597 197.358 31.6301C196.793 31.3476 196.181 31.2063 195.568 31.2063Z" fill="#0765FF"/>
<path d="M211.013 27.5808C211.531 27.5808 211.907 27.6279 212.143 27.7221C212.378 27.8162 212.614 27.9104 212.849 28.0517L212.143 31.8185C211.531 31.4889 210.918 31.3477 210.4 31.3477C209.788 31.3477 209.317 31.5831 208.941 32.0069C208.564 32.4307 208.376 33.0899 208.376 33.9845V44.4847H204.279V27.8633H207.34L207.811 29.6055C208.282 28.8521 208.752 28.3342 209.27 28.0517C209.788 27.7221 210.353 27.5808 211.013 27.5808Z" fill="#0765FF"/>
<path d="M221.231 41.0473C221.937 41.0473 222.596 40.906 223.114 40.5764C223.632 40.2468 224.197 39.8231 224.809 39.211L226.975 41.8949C226.081 42.8366 225.186 43.5429 224.291 44.0608C223.397 44.5317 222.267 44.7671 220.995 44.7671C218.782 44.7671 217.134 44.2962 215.957 43.3545C214.78 42.4128 214.168 40.859 214.168 38.693V33.231C214.168 31.3005 214.733 29.8879 215.91 28.8991C217.087 27.9574 218.641 27.4395 220.572 27.4395C221.466 27.4395 222.267 27.5807 223.02 27.8632C223.774 28.1457 224.386 28.5224 224.951 28.9933C225.469 29.5112 225.892 30.1234 226.175 30.8296C226.457 31.5359 226.599 32.3364 226.599 33.231V36.2916L218.217 37.7984V38.693C218.217 39.5406 218.5 40.1056 219.065 40.4823C219.677 40.859 220.383 41.0473 221.231 41.0473ZM220.619 31.2063C219.912 31.2063 219.3 31.3476 218.877 31.6772C218.453 32.0068 218.217 32.5247 218.217 33.1839V35.0203L222.455 34.2669V33.2781C222.455 32.6189 222.314 32.101 222.031 31.7243C221.749 31.3947 221.231 31.2063 220.619 31.2063Z" fill="#0765FF"/>
<path d="M238.088 20H242.373V44.4376H239.03L238.465 43.025C237.947 43.4959 237.429 43.8726 236.911 44.2022C236.346 44.5318 235.781 44.6731 235.121 44.6731C231.26 44.6731 229.377 42.7425 229.377 38.9286V33.2312C229.377 31.3006 229.848 29.841 230.79 28.8993C231.731 27.9104 233.191 27.4396 235.169 27.4396C235.545 27.4396 235.828 27.4396 236.11 27.4867C236.393 27.5338 236.628 27.5808 236.817 27.675C237.052 27.7692 237.24 27.9104 237.476 28.0988C237.664 28.2871 237.9 28.5226 238.182 28.758V20H238.088ZM238.135 33.7962C238.135 32.9957 237.947 32.3836 237.523 31.8657C237.146 31.3948 236.534 31.1594 235.734 31.1594C234.98 31.1594 234.415 31.3006 234.038 31.6302C233.662 31.9598 233.473 32.4778 233.473 33.1841V38.8344C233.473 39.6819 233.615 40.247 233.944 40.4824C234.274 40.7649 234.839 40.9062 235.686 40.9062C236.44 40.9062 237.005 40.6707 237.476 40.1999C237.9 39.729 238.135 39.1169 238.135 38.3165V33.7962Z" fill="#0765FF"/>
<path d="M246.562 21.3655H250.753V25.6503H246.562V21.3655ZM246.562 27.8163H250.753V44.4376H246.562V27.8163Z" fill="#0765FF"/>
<path d="M261.019 40.9534C261.678 40.9534 262.243 40.8592 262.667 40.7179C263.091 40.5767 263.514 40.3883 263.938 40.2471L264.739 43.2135C264.032 43.5902 263.326 43.9198 262.573 44.2023C261.819 44.4848 261.113 44.6732 260.407 44.6732C258.759 44.6732 257.629 44.3906 256.969 43.7785C256.31 43.1664 255.933 42.0834 255.933 40.4354V30.6886H253.344V27.8164H255.933V22.9194H260.124V27.8164H263.326V30.6886H260.124V39.8704C260.124 40.1058 260.218 40.3413 260.36 40.5767C260.595 40.8121 260.783 40.9534 261.019 40.9534Z" fill="#0765FF"/>
</svg>
